<svg version="1.1" xmlns="http://www.w3.org/2000/svg" xmlns:xlink="http://www.w3.org/1999/xlink" width="134.26818" height="469.19146" viewBox="0,0,134.26818,469.19146"><g transform="translate(-248.40887,106.91057)"><g data-paper-data="{&quot;isPaintingLayer&quot;:true}" fill-rule="nonzero" stroke-linejoin="miter" stroke-miterlimit="10" stroke-dasharray="" stroke-dashoffset="0" style="mix-blend-mode: normal"><path d="M320.52201,25.70343l19.08916,123.74063l-65.49429,3.94827l7.06032,-117.73253l40.67399,-13.0703z" fill="#b5b54a" stroke="#b5b54a" stroke-width="2.5" stroke-linecap="round"/><path d="M365.14079,12.24235l-5.49175,-0.81493l-95.28268,-14.64942c0,0 -4.41514,-11.65914 -5.33484,-24.88971c-0.61179,-8.8009 1.42605,-18.13346 3.32062,-25.78845c1.97828,-7.99324 6.74431,-15.25376 17.62288,-24.04438c11.80936,-9.54275 31.75187,-17.17661 45.88544,-15.63418c12.15782,1.32681 29.81109,9.19796 39.69614,19.86206c10.89558,11.75426 15.59346,26.87249 16.67799,34.57325c3.70663,26.31919 -17.09379,51.38577 -17.09379,51.38577z" fill="#fafab0" stroke="none" stroke-width="0" stroke-linecap="round"/><path d="M345.19723,236.36581l11.60849,124.66508h-65.61319l14.13207,-117.09433l41.38678,-10.59906z" fill="#e5e61c" stroke="#e5e61c" stroke-width="2.5" stroke-linecap="round"/><path d="M294.87242,118.55745l-2.4072,-47.53636c0,0 10.18307,-1.60297 14.75206,-0.84035c4.83326,0.80674 8.20454,5.18737 8.20454,5.18737l1.45064,8.85282c0,0 -3.17535,11.13152 -8.67265,11.08949c-4.21185,-0.0322 -13.81821,-0.10566 -13.81821,-0.10566" fill="none" stroke="#29291b" stroke-width="2.5" stroke-linecap="round"/><path d="M326.65168,327.25573l0.43867,-39.91981" fill="none" stroke="#29291b" stroke-width="2.5" stroke-linecap="round"/><path d="M306.94163,292.7457l38.18971,-10.11864" fill="none" stroke="#29291b" stroke-width="2.5" stroke-linecap="round"/><path d="M350.36163,18.56168c0,0 -5.74227,10.28431 -17.31007,19.00562c-8.40783,6.3389 -21.21997,11.63406 -30.68298,12.61584c-9.29751,0.9646 -21.44462,-0.57204 -30.95629,-4.92935c-13.48881,-6.17923 -23.00342,-16.11464 -23.00342,-16.11464z" fill="#fafab0" stroke="none" stroke-width="0" stroke-linecap="round"/><path d="M308.89918,-35.12279c-1.04335,7.03107 -4.57141,12.33285 -7.88015,11.84186c-3.30874,-0.49099 -5.14519,-6.58883 -4.10184,-13.61989c1.04335,-7.03107 4.57142,-12.33285 7.88016,-11.84186c3.30874,0.49099 5.14519,6.58882 4.10183,13.61989z" fill="#29291b" stroke="#29291b" stroke-width="2.5" stroke-linecap="butt"/><path d="M345.43171,-28.95299c-1.04335,7.03107 -4.57142,12.33285 -7.88016,11.84186c-3.30874,-0.49099 -5.14519,-6.58882 -4.10184,-13.61989c1.04335,-7.03107 4.57142,-12.33285 7.88016,-11.84186c3.30874,0.49099 5.14519,6.58882 4.10184,13.61989z" fill="#29291b" stroke="#29291b" stroke-width="2.5" stroke-linecap="butt"/><path d="M295.21184,-105.2475l14.71538,6.92827l1.22122,-8.22967l19.0215,8.42991l0.13343,-2.3525l14.37912,7.74101l0.17291,-4.07195l22.23844,21.63145l-42.06192,-10.1236l5.72741,6.45717l-21.74977,-6.03112l7.45364,10.81094l-22.71771,-11.13504l-0.53233,3.58731l-12.32199,-14.337l21.10994,1.6229z" fill="#fcfc00" stroke="#fcfc00" stroke-width="0.5" stroke-linecap="round"/><path d="M369.80582,198.72876l-5.4779,0.9034l-95.19825,15.18843c0,0 -7.76886,-9.75058 -12.69025,-22.06617c-3.27368,-8.19226 -4.18721,-17.70094 -4.72419,-25.56859c-0.5607,-8.21529 1.75685,-16.58542 9.4263,-28.28148c8.32564,-12.6968 24.97859,-26.06315 38.90681,-28.91645c11.98119,-2.45444 31.19575,-0.35844 43.86826,6.77213c13.96797,7.85951 23.06378,20.81704 26.45114,27.81729c11.57714,23.92507 -0.56192,54.15145 -0.56192,54.15145z" fill="#fafab0" stroke="none" stroke-width="0" stroke-linecap="round"/><path d="M375.27865,220.41993c0,0 -6.77291,9.63683 -19.17894,17.11784c-9.01708,5.43741 -22.30726,9.38216 -31.82106,9.38216c-9.34741,0 -21.2711,-2.78196 -30.28234,-8.09756c-12.77913,-7.53823 -21.21766,-18.40245 -21.21766,-18.40245z" fill="#fafab0" stroke="none" stroke-width="0" stroke-linecap="round"/><path d="M301.77455,170.83031c1.15663,7.01332 -0.58123,13.13999 -3.88162,13.68428c-3.30039,0.54429 -6.91351,-4.69989 -8.07014,-11.71321c-1.15663,-7.01332 0.58123,-13.13999 3.88162,-13.68428c3.30039,-0.54429 6.91351,4.69989 8.07014,11.71321z" fill="#29291b" stroke="#29291b" stroke-width="2.5" stroke-linecap="butt"/><path d="M338.44382,165.53344c1.15663,7.01332 -0.58123,13.13999 -3.88162,13.68428c-3.30039,0.54429 -6.91351,-4.69989 -8.07014,-11.71321c-1.15663,-7.01332 0.58123,-13.13999 3.88162,-13.68428c3.30039,-0.54429 6.91351,4.69989 8.07014,11.71321z" fill="#29291b" stroke="#29291b" stroke-width="2.5" stroke-linecap="butt"/><path d="M267.29965,108.24997l16.12908,2.09664l-1.3538,-8.2089l20.68812,2.2096l-0.59232,-2.28061l16.05746,2.97328l-1.08052,-3.92978l27.78782,13.7951l-43.14281,3.22328l7.42757,4.39651l-22.55219,0.90856l10.40245,8.01388l-25.03448,-3.65491l0.59012,3.57826l-16.11583,-9.88236l20.59503,-4.90998z" fill="#29291b" stroke="none" stroke-width="0" stroke-linecap="round"/></g></g></svg>