<svg version="1.1" xmlns="http://www.w3.org/2000/svg" xmlns:xlink="http://www.w3.org/1999/xlink" width="170.2597" height="429.23342" viewBox="0,0,170.2597,429.23342"><g transform="translate(-216.6557,66.95253)"><g data-paper-data="{&quot;isPaintingLayer&quot;:true}" fill-rule="nonzero" stroke-linejoin="miter" stroke-miterlimit="10" stroke-dasharray="" stroke-dashoffset="0" style="mix-blend-mode: normal"><path d="M310.73407,40.70855l41.92843,117.97519l-63.59565,16.14573l-15.11641,-116.97133l37.50604,-20.45738z" fill="#b5b54a" stroke="#b5b54a" stroke-width="2.5" stroke-linecap="round"/><path d="M339.53342,-14.37383c8.47267,33.37258 -11.59765,67.26565 -44.82828,75.70228c-33.23064,8.43663 -67.03782,-11.77796 -75.51049,-45.15054c-8.47267,-33.37258 11.59763,-67.26567 44.82825,-75.70229c33.23064,-8.43663 67.03785,11.77797 75.51052,45.15055z" fill="#fafab0" stroke="#fafab0" stroke-width="0.5" stroke-linecap="butt"/><path d="M226.93218,-55.16019l16.24898,0.71681l-2.04729,-8.06396l20.8011,0.44148l-0.78421,-2.22194l16.2522,1.59636l-1.41094,-3.82361l28.86073,11.38096l-42.71216,6.88209l7.77468,3.74865l-22.39312,2.82395l11.04654,7.09981l-25.25467,-1.51178l0.89241,3.51508l-16.89817,-8.47543l20.10263,-6.64435z" fill="#fcfc00" stroke="#fcfc00" stroke-width="0.5" stroke-linecap="round"/><path d="M267.93712,3.40647c1.74911,6.8895 0.53881,13.1418 -2.70331,13.96491c-3.24212,0.82311 -7.2883,-4.09466 -9.03741,-10.98416c-1.74911,-6.8895 -0.5388,-13.14179 2.70332,-13.96491c3.24212,-0.82311 7.2883,4.09466 9.03741,10.98415z" fill="#29291b" stroke="#29291b" stroke-width="2.5" stroke-linecap="butt"/><path d="M298.01896,-5.2722c1.74911,6.8895 0.53881,13.1418 -2.70331,13.96491c-3.24212,0.82311 -7.2883,-4.09466 -9.03741,-10.98416c-1.74911,-6.8895 -0.5388,-13.14179 2.70332,-13.96491c3.24212,-0.82311 7.2883,4.09466 9.03741,10.98415z" fill="#29291b" stroke="#29291b" stroke-width="2.5" stroke-linecap="butt"/><path d="M345.19723,236.3658l11.60849,124.66509h-65.61319l14.13207,-117.09433l41.38679,-10.59906z" fill="#e5e61c" stroke="#e5e61c" stroke-width="2.5" stroke-linecap="round"/><path d="M386.6654,192.56393c0,33.0506 -27.79337,59.84341 -62.07824,59.84341c-34.28487,0 -62.07824,-26.79281 -62.07824,-59.84341c0,-33.0506 27.79337,-59.84341 62.07824,-59.84341c34.28487,0 62.07824,26.79281 62.07824,59.84341z" fill="#fafab0" stroke="#fafab0" stroke-width="0.5" stroke-linecap="butt"/><path d="M288.56301,124.82342l15.57295,4.69322v-8.31981l20.05285,5.54652l-0.21333,-2.34662l15.35963,5.54653l-0.42666,-4.05325l25.17273,18.13291l-43.09231,-3.8399l6.61318,5.54653l-22.39947,-2.77327l8.95977,9.59977l-24.10608,-7.67981v3.62658l-14.29299,-12.37303l21.1195,-1.49329z" fill="#29291b" stroke="#29291b" stroke-width="0.5" stroke-linecap="round"/><path d="M312.89534,189.67948c0,7.10806 -2.71163,12.87028 -6.0566,12.87028c-3.34497,0 -6.0566,-5.76222 -6.0566,-12.87028c0,-7.10806 2.71163,-12.87028 6.0566,-12.87028c3.34497,0 6.0566,5.76223 6.0566,12.87028z" fill="#29291b" stroke="#29291b" stroke-width="2.5" stroke-linecap="butt"/><path d="M344.18777,188.67005c0,7.10806 -2.71163,12.87028 -6.0566,12.87028c-3.34497,0 -6.0566,-5.76222 -6.0566,-12.87028c0,-7.10806 2.71163,-12.87028 6.0566,-12.87028c3.34497,0 6.0566,5.76222 6.0566,12.87028z" fill="#29291b" stroke="#29291b" stroke-width="2.5" stroke-linecap="butt"/><path d="M302.93034,136.7235l-11.26834,-46.24418c0,0 9.70261,-3.48193 14.33359,-3.5886c4.89882,-0.11282 9.03095,3.55882 9.03095,3.55882l3.08313,8.42444c0,0 -1.03418,11.52927 -6.44206,12.51765c-4.14334,0.75726 -13.59344,2.48442 -13.59344,2.48442" fill="none" stroke="#29291b" stroke-width="2.5" stroke-linecap="round"/><path d="M326.65168,327.25572l0.43867,-39.91981" fill="none" stroke="#29291b" stroke-width="2.5" stroke-linecap="round"/><path d="M345.13134,282.62705l-38.18972,10.11864" fill="none" stroke="#29291b" stroke-width="2.5" stroke-linecap="round"/></g></g></svg>