<svg version="1.1" xmlns="http://www.w3.org/2000/svg" xmlns:xlink="http://www.w3.org/1999/xlink" width="202.23483" height="369.88784" viewBox="0,0,202.23483,369.88784"><g transform="translate(-218.88259,7.25627)"><g data-paper-data="{&quot;isPaintingLayer&quot;:true}" fill="#000000" fill-rule="nonzero" stroke-linejoin="miter" stroke-miterlimit="10" stroke-dasharray="" stroke-dashoffset="0" style="mix-blend-mode: normal"><path d="M402.02589,172.46455c-5.27241,-1.93627 -16.46694,-0.79762 -16.46694,-0.79762l-1.82241,-49.66558l28.24735,-33.53487c0,0 5.03363,4.06387 7.5053,42.45135c2.36808,36.77877 -2.72146,52.2104 -2.72146,52.2104c0,0 -9.61542,-8.78101 -14.74184,-10.66367z" data-paper-data="{&quot;index&quot;:null}" stroke="#000000" stroke-width="2" stroke-linecap="butt"/><path d="M223.23229,183.12821c0,0 -5.08955,-15.43162 -2.72147,-52.2104c2.47166,-38.38748 7.50528,-42.45135 7.50528,-42.45135l28.24735,33.53487l-1.82241,49.66558c0,0 -11.19453,-1.13865 -16.46694,0.79762c-5.12642,1.88266 -14.74183,10.66367 -14.74183,10.66367z" stroke="#000000" stroke-width="2" stroke-linecap="butt"/><path d="M277.72397,361.63156l19.28406,-167.89779l48.11607,-0.20107l17.28603,168.09887z" stroke="#000000" stroke-width="2" stroke-linecap="butt"/><path d="M294.21578,229.97021l3.97505,-33.52764l45.62961,-0.18087l3.52415,33.24525c0,0 -9.57072,5.34354 -27.45493,5.74292c-15.89882,0.35503 -25.67391,-5.27965 -25.67391,-5.27965z" stroke="#000000" stroke-width="0" stroke-linecap="butt"/><path d="M238.3607,144.30795c0,-42.40912 36.62505,-76.78849 81.80432,-76.78849c45.17927,0 81.80432,34.37939 81.80432,76.78849c0,42.40912 -36.62505,76.78849 -81.80432,76.78849c-45.17927,0 -81.80432,-34.37939 -81.80432,-76.78849z" stroke="#000000" stroke-width="2" stroke-linecap="butt"/><path d="M239.2815,144.37652c0,-0.92708 6.63056,71.21202 80.68804,72.50447c70.75883,1.23489 80.88304,-73.80195 80.88304,-72.50447c0,41.77612 -36.16893,75.64237 -80.78554,75.64237c-44.61661,0 -80.78554,-33.86624 -80.78554,-75.64237z" stroke="#000000" stroke-width="0" stroke-linecap="butt"/><path d="M255.61657,144.85487c0,-16.51444 13.38761,-29.90205 29.90205,-29.90205c16.51444,0 29.90205,13.38761 29.90205,29.90205c0,16.51444 -13.38761,29.90205 -29.90205,29.90205c-16.51444,0 -29.90205,-13.38761 -29.90205,-29.90205z" stroke="#000000" stroke-width="2" stroke-linecap="butt"/><path d="M264.61418,144.50387c0,-11.62439 9.42342,-21.04781 21.0478,-21.04781c11.62439,0 21.04781,9.42343 21.04781,21.04781c0,11.62439 -9.42343,21.04781 -21.04781,21.04781c-11.62439,0 -21.0478,-9.42343 -21.0478,-21.04781z" stroke="none" stroke-width="0" stroke-linecap="butt"/><path d="M336.13398,195.00539c0,0 -11.52649,3.40744 -17.016,3.40744c-5.14726,0 -14.96048,-3.40744 -14.96048,-3.40744" stroke="#000000" stroke-width="2" stroke-linecap="round"/><path d="M354.61546,174.75691c-16.51444,0 -29.90205,-13.38761 -29.90205,-29.90205c0,-16.51444 13.38761,-29.90205 29.90205,-29.90205c16.51444,0 29.90205,13.38761 29.90205,29.90205c0,16.51444 -13.38761,29.90205 -29.90205,29.90205z" data-paper-data="{&quot;index&quot;:null}" stroke="#000000" stroke-width="2" stroke-linecap="butt"/><path d="M354.47211,165.55168c-11.62438,0 -21.0478,-9.42343 -21.0478,-21.04781c0,-11.62439 9.42343,-21.04781 21.0478,-21.04781c11.62438,0 21.0478,9.42343 21.0478,21.04781c0,11.62439 -9.42343,21.04781 -21.0478,21.04781z" data-paper-data="{&quot;index&quot;:null}" stroke="none" stroke-width="0" stroke-linecap="butt"/><path d="M255.61657,144.85487c0,-16.51444 13.38761,-29.90205 29.90205,-29.90205c16.51444,0 29.90205,13.38761 29.90205,29.90205c0,0 -59.80412,1.56835 -59.80412,0z" stroke="#000000" stroke-width="2" stroke-linecap="butt"/><path d="M324.71342,144.85487c0,-16.51444 13.38761,-29.90205 29.90205,-29.90205c16.51444,0 29.90205,13.38761 29.90205,29.90205c0,1.54575 -59.80412,0 -59.80412,0z" data-paper-data="{&quot;index&quot;:null}" stroke="#000000" stroke-width="2" stroke-linecap="butt"/><path d="M271.71034,108.16797c0,0 8.54369,-6.58288 15.02347,-8.10383c6.47979,-1.52095 15.70722,0.89063 15.70722,0.89063c0,0 -10.23636,-0.07677 -15.24048,1.09783c-5.2295,1.22749 -15.49021,6.11537 -15.49021,6.11537z" stroke="none" stroke-width="0" stroke-linecap="butt"/><path d="M353.12944,102.05261c-5.00413,-1.17459 -15.24048,-1.09783 -15.24048,-1.09783c0,0 9.22743,-2.41158 15.70722,-0.89063c6.47978,1.52095 15.02347,8.10383 15.02347,8.10383c0,0 -10.2607,-4.88788 -15.49021,-6.11537z" data-paper-data="{&quot;index&quot;:null}" stroke="none" stroke-width="0" stroke-linecap="butt"/><path d="M273.30281,80.50734c-1.15779,-7.17484 0.07479,-82.13892 0.07479,-82.13892c0,0 24.7498,70.77132 25.9076,77.94616c1.15779,7.17484 -3.71999,13.92978 -10.89482,15.08757c-7.17484,1.15779 -13.92977,-3.71998 -15.08757,-10.89482z" stroke="#000000" stroke-width="2" stroke-linecap="butt"/><path d="M352.21502,91.40216c-7.17483,-1.15781 -12.05263,-7.91273 -10.89482,-15.08756c1.15781,-7.17483 25.9076,-77.94616 25.9076,-77.94616c0,0 1.23258,74.96409 0.07479,82.13892c-1.15779,7.17483 -7.91273,12.05261 -15.08756,10.89481z" data-paper-data="{&quot;index&quot;:null}" stroke="#000000" stroke-width="2" stroke-linecap="butt"/></g></g></svg>