<svg version="1.1" xmlns="http://www.w3.org/2000/svg" xmlns:xlink="http://www.w3.org/1999/xlink" width="152.99973" height="293.04384" viewBox="0,0,152.99973,293.04384"><g transform="translate(-244.20581,-15.45617)"><g data-paper-data="{&quot;isPaintingLayer&quot;:true}" fill-rule="nonzero" stroke-linejoin="miter" stroke-miterlimit="10" stroke-dasharray="" stroke-dashoffset="0" style="mix-blend-mode: normal"><path d="M285.90286,307.49998l11.23626,-90.17721l43.64314,-3.40793l11.62059,93.58516z" fill="#9b9d30" stroke="#000000" stroke-width="2" stroke-linecap="butt"/><path d="M289.57668,250.08801l10.15486,-49.81105l40.04359,3.03032l10.10835,47.33816l-30.23979,-11.89646z" fill="#747524" stroke="#000000" stroke-width="2" stroke-linecap="butt"/><path d="M396.20516,125.83938c0.13051,44.59681 -33.56605,80.84857 -75.26337,80.97059c-41.69732,0.12202 -75.60547,-35.93191 -75.73598,-80.52871c-0.13051,-44.5968 33.56605,-80.84858 75.26337,-80.9706c41.69732,-0.12202 75.60547,35.93191 75.73598,80.52871z" fill="#747524" stroke="#000000" stroke-width="2" stroke-linecap="butt"/><path d="M387.89319,131.00784c0.11138,38.06146 -30.25184,69.0055 -67.81816,69.11543c-37.56631,0.10993 -68.11013,-30.65585 -68.22152,-68.71732c-0.11138,-38.06146 30.25184,-69.0055 67.81816,-69.11543c37.56631,-0.10993 68.11013,30.65585 68.22151,68.71732z" fill="#000000" stroke="none" stroke-width="0" stroke-linecap="butt"/><path d="M255.7185,133.07413c-0.09745,-33.30171 28.58332,-60.38224 64.06028,-60.48606c35.47697,-0.10382 64.31575,26.80839 64.4132,60.11009c0.09745,33.30171 -28.58332,60.38224 -64.06029,60.48606c-35.47697,0.10382 -64.31574,-26.80839 -64.4132,-60.11009z" fill="#ffff70" stroke="#000000" stroke-width="2" stroke-linecap="butt"/><path d="M256.44171,133.12586c-0.00213,-0.72799 5.37028,55.90391 63.5268,56.74863c55.56612,0.8071 63.34371,-58.13876 63.3467,-57.11991c0.096,32.80465 -28.22779,59.4812 -63.26293,59.58372c-35.03514,0.10253 -63.51457,-26.40779 -63.61057,-59.21244z" fill="#6c6d22" stroke="#000000" stroke-width="0" stroke-linecap="butt"/><path d="M255.51948,148.0197c0,0 -8.97616,-80.95828 66.51707,-79.695c77.53381,1.29742 61.24043,82.07114 61.24043,82.07114c0,0 -24.59712,12.76278 -62.99056,13.2129c-34.39378,0.40323 -64.76694,-15.58904 -64.76694,-15.58904z" fill-opacity="0.20144" fill="#000000" stroke="none" stroke-width="0" stroke-linecap="butt"/><path d="M269.26991,133.46395c-0.03795,-12.96795 10.44389,-23.51132 23.41184,-23.54926c12.96795,-0.03795 23.51132,10.44389 23.54926,23.41184c0.03795,12.96795 -10.44389,23.51131 -23.41184,23.54926c-12.96795,0.03795 -23.51132,-10.44389 -23.54926,-23.41183z" fill="#ffffff" stroke="#000000" stroke-width="2" stroke-linecap="butt"/><path d="M276.33446,133.16764c-0.02671,-9.12804 7.35136,-16.54942 16.47939,-16.57614c9.12804,-0.02671 16.54942,7.35137 16.57614,16.4794c0.02671,9.12804 -7.35138,16.54942 -16.47941,16.57614c-9.12804,0.02671 -16.54941,-7.35137 -16.57612,-16.4794z" fill="#000000" stroke="none" stroke-width="0" stroke-linecap="butt"/><path d="M321.28775,169.42137l7.50483,10.4148c0,0 -7.03004,0.46538 -10.85197,0.47656c-3.64574,0.01066 -11.57602,-0.41093 -11.57602,-0.41093z" data-paper-data="{&quot;index&quot;:null}" fill="#000000" stroke="#000000" stroke-width="2" stroke-linecap="round"/><path d="M347.07737,156.71699c-12.96795,0.03795 -23.51132,-10.44389 -23.54926,-23.41183c-0.03795,-12.96795 10.44389,-23.51132 23.41183,-23.54926c12.96795,-0.03795 23.51132,10.44389 23.54926,23.41183c0.03795,12.96795 -10.44389,23.51132 -23.41183,23.54926z" data-paper-data="{&quot;index&quot;:null}" fill="#ffffff" stroke="#000000" stroke-width="2" stroke-linecap="butt"/><path d="M346.94364,149.48892c-9.12803,0.02671 -16.54941,-7.35137 -16.57612,-16.4794c-0.02671,-9.12804 7.35137,-16.54943 16.47939,-16.57614c9.12803,-0.02671 16.54942,7.35137 16.57613,16.4794c0.02671,9.12804 -7.35138,16.54942 -16.4794,16.57614z" data-paper-data="{&quot;index&quot;:null}" fill="#000000" stroke="none" stroke-width="0" stroke-linecap="butt"/><path d="M281.38613,102.1683c0,0 7.58737,-3.76335 12.8108,-3.94366c5.22344,-0.1803 11.96162,3.08856 11.96162,3.08856c0,0 -7.87241,-1.62488 -11.9063,-1.48563c-4.21557,0.14552 -12.86614,2.34073 -12.86614,2.34073z" fill="#000000" stroke="none" stroke-width="0" stroke-linecap="butt"/><path d="M345.40544,99.69541c-4.03588,0.05825 -11.81937,2.06628 -11.81937,2.06628c0,0 6.57022,-3.59457 11.79623,-3.67c5.226,-0.07543 12.98837,3.31227 12.98837,3.31227c0,0 -8.74759,-1.76943 -12.96522,-1.70856z" data-paper-data="{&quot;index&quot;:null}" fill="#000000" stroke="none" stroke-width="0" stroke-linecap="butt"/><g stroke="#000000" stroke-width="2" stroke-linecap="butt"><path d="M256.3652,74.28896l8.33228,-47.58143c0,0 26.09438,-8.16809 38.51732,-9.62925c13.62781,-1.60288 39.97004,0.39776 39.97004,0.39776l19.31145,43.48428c0,0 -33.58108,8.72183 -51.44765,10.96563c-17.503,2.19813 -54.68346,2.36302 -54.68346,2.36302z" fill="#ffffff"/><path d="M256.72839,74.18408l1.21005,-6.92508c0,0 34.43303,-0.05463 51.66429,-2.07861c16.77345,-1.97021 50.38683,-9.90834 50.38683,-9.90834l2.64236,5.68909c0,0 -35.19132,10.38429 -52.89405,12.3944c-17.37426,1.97281 -53.00949,0.82855 -53.00949,0.82855z" fill="#9b9d30"/><path d="M304.89978,41.1927c0,0 10.28072,-6.19718 16.54999,-8.98052c6.96635,-3.09281 23.3777,-8.7459 23.3777,-8.7459l2.68777,6.44237c0,0 -18.61652,6.36357 -25.20467,9.45088c-4.94257,2.31616 -10.82587,7.4337 -10.82587,7.4337z" fill="#9b9d30"/><path d="M316.94384,62.97372c0,0 -0.48596,-8.07671 -13.0322,-14.28713c-16.99081,-8.41047 -40.34461,-9.21741 -40.34461,-9.21741l1.60423,-6.96984c0,0 22.0351,-0.75317 41.65166,9.3069c14.82068,7.60056 18.00478,20.27228 18.00478,20.27228z" fill="#9b9d30"/></g></g></g></svg>