<svg version="1.1" xmlns="http://www.w3.org/2000/svg" xmlns:xlink="http://www.w3.org/1999/xlink" width="298.97389" height="175.42105" viewBox="0,0,298.97389,175.42105"><g transform="translate(-88.75918,-73.32701)"><g data-paper-data="{&quot;isPaintingLayer&quot;:true}" stroke-miterlimit="10" stroke-dasharray="" stroke-dashoffset="0" style="mix-blend-mode: normal"><path d="" fill="none" fill-rule="nonzero" stroke="#000000" stroke-width="1.5" stroke-linecap="round" stroke-linejoin="miter"/><g fill-rule="nonzero" stroke-linejoin="miter"><g><g stroke="#000000" stroke-width="1.5" stroke-linecap="round"><path d="M343.04489,214.02352c0,0 -4.66862,-0.79587 -10.75815,-1.75974c-3.66604,-0.58027 -6.00969,-0.86718 -8.90675,-1.05908c-1.44348,-0.09561 -6.1986,1.70447 -6.1986,1.70447c0,0 -2.63044,-2.126 -4.90018,-2.26423c-2.27717,-0.13867 -4.34148,-0.46189 -5.50605,-1.59943c-3.88511,-3.79494 -2.45173,-10.35505 -1.66173,-16.93172c0.09924,-0.82613 -0.1752,-2.51295 -0.9756,-3.52134c-0.83032,-1.04608 -2.18959,-1.39908 -2.18959,-1.39908c0,0 -0.04514,-1.61316 0.82207,-3.44147c0.83301,-1.75617 2.58302,-3.71084 2.4297,-4.62501c-0.77184,-4.60225 -2.80709,-8.10779 -2.80709,-8.10779c0,0 4.39333,0.78494 4.33805,-0.79031c-0.26386,-7.51906 5.14277,-16.11425 14.42442,-21.04421c10.26577,-5.45267 23.44557,-0.90531 23.44557,-0.90531c0,0 13.086,-2.8831 22.34631,2.64525c10.95259,6.53862 12.03128,16.41551 12.03128,16.41551l4.56389,0.01378l-1.34815,1.98422c0,0 3.55372,3.78708 2.81352,11.24407c-0.32443,3.26835 -3.1693,8.03994 -3.1693,8.03994l0.56265,5.6797c0,0 -2.15405,2.44884 -3.09976,4.56419c-1.64578,3.68125 -2.75829,8.75149 -3.45518,9.65684c-0.76821,0.99804 -4.29971,2.35475 -4.29971,2.35475c0,0 -4.97205,3.14827 -8.3908,3.58724c-9.12284,1.17139 -20.11083,-0.44125 -20.11083,-0.44125z" fill="#000000"/><path d="M298.48121,198.12596l7.05098,-2.18824" fill="none"/><path d="M381.39092,185.96911l5.59215,-0.72941" fill="none"/><path d="M379.68897,195.45145l4.37646,1.21568" fill="none"/></g><path d="M320.75027,247.99806c0,0 -1.95163,-4.09277 1.82368,-6.22192c2.12053,-1.1959 10.97632,-0.12947 10.97632,-1.37808c0,-7.55566 0,-36 0,-36h6.2v43.6z" fill="#ffffff" stroke="#000000" stroke-width="1.5" stroke-linecap="butt"/><path d="M334.75027,247.99806c0,0 -1.95163,-4.09277 1.82368,-6.22192c2.12053,-1.1959 10.97632,-0.12947 10.97632,-1.37808c0,-7.55566 0,-36 0,-36h6.2v43.6z" fill="#ffffff" stroke="#000000" stroke-width="1.5" stroke-linecap="butt"/><path d="M321.24393,184.48978c0,-12.20569 9.89464,-22.10033 22.10033,-22.10033c12.20567,0 22.10033,9.89464 22.10033,22.10033c0,11.444 -9.5138,22.51504 -21.71948,22.51504c-12.20567,0 -22.48117,-10.30937 -22.48117,-22.51503z" fill="#ffffff" stroke="#000000" stroke-width="1.5" stroke-linecap="butt"/><path d="M320.52208,184.58685c0,0 -6.70171,-26.01064 24.57724,-28.23337c14.89904,-1.05874 19.69748,14.40813 20.99117,23.58043c0.51869,3.67753 0.13307,6.68411 0.13307,6.68411c0,0 -3.24975,-2.59406 -5.24689,-4.386c-2.5308,-2.27079 -8.16502,-0.81789 -8.16502,-0.81789l0.01156,-5.47988c0,0 -2.17466,2.67894 -2.75232,4.17507c-0.75033,1.94329 -1.36867,6.49797 -1.36867,6.49797l-3.96499,-5.88574c0,0 -0.83631,2.93641 -0.8488,4.47468c-0.01329,1.63768 0.7713,5.0718 0.7713,5.0718c0,0 -3.5273,-2.54657 -4.87953,-4.39511c-1.6801,-2.29677 -4.43275,-8.33505 -4.43275,-8.33505c0,0 -5.6932,3.59604 -8.39966,4.88287c-2.05158,0.97546 -6.42567,2.16607 -6.42567,2.16607z" fill="#000000" stroke="#000000" stroke-width="1" stroke-linecap="round"/><g data-paper-data="{&quot;index&quot;:null}" fill="#ffffff" stroke="none" stroke-width="0" stroke-linecap="butt"><path d="M320.54601,182.48834l-1.7319,-2.62588h0.82829l1.6566,2.62588z"/><path d="M320.20863,183.53037l-1.39451,-2.11435h0.66694l1.33388,2.11435z"/><path d="M313.70058,183.73877l-1.39452,-3.5037h0.66694l1.33388,3.5037z"/><path d="M313.86194,183.32195l-1.01801,-2.73956h0.66694l0.95738,2.73956z"/><path d="M312.39609,183.66928l-0.95059,-2.32274h0.62278l0.89398,2.32274z"/><path d="M309.49167,182.76621l-0.95059,-2.32275h0.62277l0.89398,2.32275z"/><path d="M307.91494,182.77492l-1.07054,-2.01984l0.73283,0.02974l1.00392,2.01714z"/><path d="M307.00428,183.68074l-0.80531,-1.81419l0.55127,0.02671l0.7552,1.81177z"/><path d="M305.98236,184.93117l-0.80532,-1.81418l0.55128,0.02672l0.7552,1.81176z"/><path d="M310.4558,182.65213l-0.47818,-1.77404l0.52608,0.10586l0.43035,1.76442z"/><path d="M319.37251,184.2945l-0.71975,-1.07233h0.34423l0.68845,1.07233z"/><path d="M317.25433,183.25249l0.68846,-1.07233h0.34423l-0.71975,1.07233z" data-paper-data="{&quot;index&quot;:null}"/><path d="M317.22834,181.12445l-0.62481,-1.1674l0.34217,0.04854l0.5937,1.16298z" data-paper-data="{&quot;index&quot;:null}"/></g><g fill="#ffffff" stroke="none" stroke-width="0" stroke-linecap="butt"><path d="M365.23188,181.98691l1.85647,-2.12444h0.92822l-1.94084,2.12444z"/><path d="M366.96304,184.66698l1.49481,-1.7106h0.74741l-1.56276,1.7106z"/><path d="M373.06759,182.99855l1.4948,-2.83464h0.74742l-1.56276,2.83464z"/><path d="M371.55476,181.4857l0.48624,-0.88954h0.24313l-0.50835,0.88954z"/><path d="M372.88678,182.66134l1.07289,-2.21641h0.74741l-1.14084,2.21641z"/><path d="M374.57448,182.94236l1.00184,-1.8792h0.6979l-1.06528,1.8792z"/><path d="M377.8293,182.21171l1.00185,-1.8792h0.69791l-1.06529,1.8792z"/><path d="M379.48414,182.24063l1.12505,-1.63195l0.82124,-0.02407l-1.1997,1.63414z"/><path d="M380.68964,182.97126l0.84632,-1.46579l0.61778,-0.02161l-0.90248,1.46775z"/><path d="M381.83486,183.9829l0.84631,-1.46578l0.61779,-0.02161l-0.90248,1.46775z"/><path d="M376.84738,182.19729l0.48227,-1.42749l0.58955,-0.08564l-0.53587,1.43527z"/><path d="M366.71594,181.39501l0.77151,-0.86756h0.38576l-0.80659,0.86756z"/><path d="M370.9951,182.68772l-1.47875,-1.73512h0.70722l1.41445,1.73512z" data-paper-data="{&quot;index&quot;:null}"/><path d="M367.25685,182.66165l0.66533,-0.9409l0.38345,-0.03927l-0.7002,0.94447z" data-paper-data="{&quot;index&quot;:null}"/></g><path d="M353.02771,196.62247c-0.84529,3.96488 -4.86374,6.9685 -9.69346,6.9685c-4.96551,0 -9.07348,-3.17487 -9.75718,-7.30514" fill="none" stroke="#000000" stroke-width="1.5" stroke-linecap="butt"/><g stroke="#000000" stroke-width="1.5" stroke-linecap="butt"><path d="M331.8444,183.93161c0,-2.26436 1.83564,-4.1 4.1,-4.1c2.26436,0 4.1,1.83563 4.1,4.1c0,2.26436 -1.83564,4.1 -4.1,4.1c-2.26436,0 -4.1,-1.83563 -4.1,-4.1z" fill="#ffffff"/><path d="M334.9444,186.03161c-1.1598,0 -2.1,-0.9402 -2.1,-2.1c0,-1.1598 0.9402,-2.1 2.1,-2.1c1.1598,0 2.1,0.9402 2.1,2.1c0,1.1598 -0.9402,2.1 -2.1,2.1z" fill="#000000"/></g><g stroke="#000000" stroke-width="1.5" stroke-linecap="butt"><path d="M346.2444,183.93161c0,-2.26436 1.83564,-4.1 4.1,-4.1c2.26436,0 4.1,1.83563 4.1,4.1c0,2.26436 -1.83563,4.1 -4.1,4.1c-2.26436,0 -4.1,-1.83563 -4.1,-4.1z" fill="#ffffff"/><path d="M349.3444,186.03161c-1.1598,0 -2.1,-0.9402 -2.1,-2.1c0,-1.1598 0.9402,-2.1 2.1,-2.1c1.1598,0 2.1,0.9402 2.1,2.1c0,1.1598 -0.9402,2.1 -2.1,2.1z" fill="#000000"/></g><path d="M342.7444,207.3316c-10.70706,0.08557 -14.7,-14.7 -14.7,-14.7h29.6c0,0 -4.57942,14.61753 -14.9,14.7z" fill="#000000" stroke="#000000" stroke-width="1.5" stroke-linecap="round"/></g><path d="M320.35027,141.50194c0,9.89795 -5.56318,18.65737 -14.09917,24.00847c-2.48638,1.55868 -1.48512,20.41907 -1.48512,20.41907c0,0 -14.07506,-14.92754 -18.08238,-14.92754c-18.59359,0 -33.66667,-13.2076 -33.66667,-29.5c0,-16.2924 15.07308,-29.5 33.66667,-29.5c18.59359,0 33.66667,13.2076 33.66667,29.5z" fill="#ffffff" stroke="#000000" stroke-width="1.5" stroke-linecap="butt"/><text transform="translate(257.01694,145.80228) scale(0.43936,0.43936)" font-size="40" xml:space="preserve" fill="#000000" fill-rule="nonzero" stroke="none" stroke-width="1" stroke-linecap="butt" stroke-linejoin="miter" stroke-miterlimit="10" stroke-dasharray="" stroke-dashoffset="0" font-family="&quot;MassaGraph&quot;, Sans Serif" font-weight="normal" text-anchor="start" style="mix-blend-mode: normal"><tspan x="0" dy="0">Oolala!</tspan></text></g><path d="M95.82885,73.32701h20.03378c3.9166,0 7.06966,3.15307 7.06966,7.06966v20.03379c0,3.91659 -3.15306,7.06966 -7.06966,7.06966h-20.03378c-3.91659,0 -7.06967,-3.15307 -7.06967,-7.06966v-20.03379c0,-3.91659 3.15308,-7.06966 7.06967,-7.06966z" fill="#787878" fill-rule="evenodd" stroke="none" stroke-width="4.43922" stroke-linecap="round" stroke-linejoin="round"/><g fill-rule="nonzero" stroke-width="0.5" stroke-linejoin="miter"><path d="M111.66942,81.70015c0,0.7697 -0.68779,1.39368 -1.53621,1.39368c-0.84842,0 -1.53621,-0.62397 -1.53621,-1.39368c0,-0.7697 0.68779,-1.39368 1.53621,-1.39368c0.84842,0 1.53621,0.62397 1.53621,1.39368z" fill="#c1c1c1" stroke="#8a8a8a" stroke-linecap="butt"/><g stroke-linecap="round"><g data-paper-data="{&quot;index&quot;:null}"><path d="M99.36945,80.17981c0,0 0.44748,-0.15603 0.9836,0.28301c0.6441,0.52746 1.58856,1.68913 2.06756,2.01626c0.85313,0.58263 2.39685,1.02656 2.39685,1.02656l-3.83261,3.99098c0,0 -0.99714,-0.783 -1.6001,-1.90385c-1.78403,-3.31637 -0.0153,-5.41296 -0.0153,-5.41296z" fill="#c1c1c1" stroke="#8a8a8a"/><path d="M103.76134,84.18348l-2.36706,2.42624c0,0 -3.08608,-4.53191 -1.24271,-4.94125c0.09941,-0.02208 0.76327,0.91529 1.53643,1.47083c0.96782,0.69542 2.07334,1.04417 2.07334,1.04417z" fill="#f7f7f7" stroke="#f7f7f7"/></g><path d="M118.01599,95.77177c-0.37959,0.15621 -0.7381,0.17468 -1.19158,0.06697c-0.45348,-0.10771 0.17481,-0.40119 0.22555,-0.54707c0.05862,-0.16852 -0.52992,-0.5223 -0.8262,-0.63556c-0.29628,-0.11326 -1.69814,-0.26084 -2.89341,-0.54335c-1.06983,-0.25287 -2.07303,-0.52456 -3.33114,-1.0503c-1.25812,-0.52573 -4.01048,-2.08494 -5.55877,-2.66459c-1.54829,-0.57966 -1.71878,-0.4086 -2.79195,-0.30671c-1.07317,0.10189 -2.49958,1.37572 -1.91108,0.65822c0.22186,-0.27049 0.7923,-2.12977 1.04025,-3.327c0.23476,-1.13357 0.04899,-3.30945 0.18832,-3.51746c0.76611,-1.14383 4.49936,-2.78555 7.46501,-2.39349c8.51723,0.74758 9.97991,5.91562 9.97991,5.91562c0,0 -0.32137,2.66627 -0.25306,3.93675c0.06978,1.29802 0.35164,3.77051 0.35164,3.77051c0,0 -0.11388,0.48125 -0.49348,0.63746z" fill="#c1c1c1" stroke="#8a8a8a"/><g stroke="#8a8a8a"><path d="M92.575,97.44942c-1.0774,-0.74437 -0.93739,-2.49212 -0.72514,-2.75556c0.66281,-0.8227 9.57192,-4.30943 9.57192,-4.30943c0,0 0.6153,-0.39184 2.66334,0.50092c0.39308,0.17135 0.71914,0.31399 1.155,0.54984c2.40508,1.30144 6.1002,2.74489 7.19236,3.05105c0.80725,0.22629 3.19335,0.43587 3.50435,0.91205c0.09113,0.13953 -1.61659,1.46176 -2.26789,2.18385c-0.61765,0.68479 -0.91957,1.4902 -1.63932,2.06223c-0.21517,0.17101 -1.83364,0.90491 -2.81547,0.99842c-0.98183,0.09351 -2.50359,0.00057 -3.65584,-0.57668c-1.15225,-0.57725 -5.5877,-4.08038 -7.55588,-5.04013c-1.94029,-0.94615 -3.91496,-0.45643 -3.91496,-0.45643c0,0 -1.60573,0.41863 -1.39775,1.52165c0.16691,0.88518 1.80735,1.50324 1.80735,1.50324c0,0 -1.38039,0.2292 -1.92204,-0.14503z" fill="#c1c1c1"/><path d="M93.64135,94.83452c2.2938,-0.93391 4.98345,0.78131 4.98345,0.78131l-3.7587,2.00605c0,0 -4.02033,-1.64914 -1.22475,-2.78736z" fill="#8a8a8a"/></g><g><path d="M119.20795,80.49653c0,0 1.76873,2.09658 -0.0153,5.41295c-0.60295,1.12085 -0.83991,1.93552 -0.83991,1.93552c0,0 -1.08447,-2.1593 -1.80808,-2.94583c-0.73329,-0.79705 -2.49965,-1.86868 -2.49965,-1.86868c0,0 1.25865,0.34793 2.11178,-0.2347c0.479,-0.32713 1.42345,-1.4888 2.06755,-2.01626c0.53612,-0.43903 0.9836,-0.283 0.9836,-0.283z" fill="#c1c1c1" stroke="#8a8a8a"/><path d="M115.67124,83.86674c0,0 0.44036,-0.06368 1.40818,-0.7591c0.77316,-0.55554 1.24697,-1.46124 1.34638,-1.43916c1.84337,0.40933 -0.67257,4.6245 -0.67257,4.6245c0,0 -0.6415,-1.07249 -1.03174,-1.47248c-0.3986,-0.40857 -1.05025,-0.95377 -1.05025,-0.95377z" fill="#f7f7f7" stroke="none"/></g></g></g></g></g></svg>