<svg version="1.1" xmlns="http://www.w3.org/2000/svg" xmlns:xlink="http://www.w3.org/1999/xlink" width="223.35485" height="261.43165" viewBox="0,0,223.35485,261.43165"><g transform="translate(-236.26662,-61.19688)"><g data-paper-data="{&quot;isPaintingLayer&quot;:true}" fill-rule="nonzero" stroke-linejoin="miter" stroke-miterlimit="10" stroke-dasharray="" stroke-dashoffset="0" style="mix-blend-mode: normal"><path d="M283.31939,162.99924l-45.09274,-99.89091l76.41526,32.21205" fill="#d9d97d" stroke="#000000" stroke-width="2" stroke-linecap="round"/><path d="M378.38555,102.14708l79.10488,-24.88628l-54.28296,95.20983" data-paper-data="{&quot;index&quot;:null}" fill="#d9d97d" stroke="#000000" stroke-width="2" stroke-linecap="round"/><path d="M301.02523,193.96934l-33.69834,-4.94188l17.70355,-18.86872l-32.29728,-9.50421l26.61089,-9.72824" fill="#d9d97d" stroke="#000000" stroke-width="2" stroke-linecap="round"/><path d="M300.43335,193.08132l-31.09562,-4.56019l17.34887,-18.95435l-30.32432,-9.02468l4.70572,-1.96403l25.58451,11.01272l-13.85452,15.16237z" fill="#b6b14b" stroke="none" stroke-width="0" stroke-linecap="round"/><path d="M399.26835,178.34608l19.91017,20.15845l-33.26348,-5.19477l7.95298,24.62101l-32.58255,-9.91856" data-paper-data="{&quot;index&quot;:null}" fill="#d9d97d" stroke="#000000" stroke-width="2" stroke-linecap="round"/><path d="M385.29074,208.48398l-6.0548,-19.62612l27.83731,0.96466l3.41674,3.78512l-31.27464,-4.78605l7.5957,24.54702l-30.06601,-9.15249z" data-paper-data="{&quot;index&quot;:null}" fill="#b6b14b" stroke="none" stroke-width="0" stroke-linecap="round"/><path d="M286.35186,321.62852l28.54835,-123.09938l35.45186,2.1735l2.49978,120.92589z" fill="#d9d97d" stroke="#000000" stroke-width="2" stroke-linecap="butt"/><path d="M309.15556,222.56688l6.35698,-25.73863l35.57266,4.2952l-0.48606,26.24767c0,0 -7.97711,3.23328 -21.9515,1.80576c-12.42304,-1.26905 -19.49209,-6.60999 -19.49209,-6.60999z" fill="#b6b14b" stroke="#000000" stroke-width="0" stroke-linecap="butt"/><path d="M279.17193,142.03023c4.39698,-33.0103 36.46954,-55.97315 71.63606,-51.28896c35.16653,4.68419 60.11019,35.2416 55.71321,68.2519c-4.39698,33.0103 -36.46953,55.97316 -71.63607,51.28897c-35.16652,-4.68418 -60.11018,-35.24161 -55.71321,-68.25191z" fill="#d9d97d" stroke="#000000" stroke-width="2" stroke-linecap="butt"/><path d="M322.00276,201.91052c21.67058,6.96215 40.60092,1.56235 39.46882,1.9419c-12.36458,4.14541 -26.34923,4.59591 -40.10817,0.43898c-13.62617,-4.11682 -24.93451,-12.11918 -32.92286,-22.27628c-0.30313,-0.38542 11.89162,12.93326 33.56221,19.8954z" fill="#b6b14b" stroke="#000000" stroke-width="0" stroke-linecap="butt"/><path d="M292.64337,144.10269c1.71222,-12.85448 13.52086,-21.88705 26.37533,-20.17484c12.85448,1.71222 21.88706,13.52085 20.17484,26.37532c-1.71222,12.85448 -13.52085,21.88707 -26.37533,20.17485c-12.85448,-1.71222 -21.88706,-13.52086 -20.17485,-26.37534z" fill="#c5c556" stroke="#000000" stroke-width="2" stroke-linecap="butt"/><path d="M356.92807,192.94622c0,0 -19.28989,14.16116 -27.2706,10.67534c-7.98071,-3.48582 -13.58711,-28.52115 -13.58711,-28.52115z" fill="#000000" stroke="#000000" stroke-width="2" stroke-linecap="round"/><path d="M366.60164,177.64198c-12.85448,-1.71222 -21.88705,-13.52086 -20.17484,-26.37533c1.71222,-12.85448 13.52085,-21.88706 26.37532,-20.17484c12.85448,1.71222 21.88707,13.52085 20.17485,26.37533c-1.71222,12.85448 -13.52086,21.88706 -26.37534,20.17485z" data-paper-data="{&quot;index&quot;:null}" fill="#c5c556" stroke="#000000" stroke-width="2" stroke-linecap="butt"/><path d="M292.63219,143.79861l-3.22519,-3.05256" fill="none" stroke="#000000" stroke-width="2" stroke-linecap="round"/><path d="M397.18826,154.0937l-4.61215,2.81569" fill="none" stroke="#000000" stroke-width="2" stroke-linecap="round"/><path d="M308.97412,117.21504c0,0 7.33273,-4.23816 12.53413,-4.75021c5.20142,-0.51205 12.13381,2.32177 12.13381,2.32177c0,0 -7.95979,-1.12106 -11.97667,-0.72561c-4.19779,0.41326 -12.69127,3.15404 -12.69127,3.15404z" fill="#000000" stroke="none" stroke-width="0" stroke-linecap="butt"/><path d="M372.98296,120.89651c-3.77332,-1.4331 -11.74902,-2.43465 -11.74902,-2.43465c0,0 7.43246,-0.92042 12.31849,0.93528c4.88602,1.8557 10.85372,7.86547 10.85372,7.86547c0,0 -7.47993,-4.86845 -11.42319,-6.36609z" data-paper-data="{&quot;index&quot;:null}" fill="#000000" stroke="none" stroke-width="0" stroke-linecap="butt"/></g></g></svg>