<svg version="1.1" xmlns="http://www.w3.org/2000/svg" xmlns:xlink="http://www.w3.org/1999/xlink" width="150.99026" height="282.41856" viewBox="0,0,150.99026,282.41856"><g transform="translate(-242.02238,-31.84584)"><g data-paper-data="{&quot;isPaintingLayer&quot;:true}" fill-rule="nonzero" stroke="#c1bc17" stroke-width="0.5" stroke-linecap="butt" stroke-linejoin="miter" stroke-miterlimit="10" stroke-dasharray="" stroke-dashoffset="0" style="mix-blend-mode: normal"><path d="M286.75016,314.01439l15.14285,-131.8421l37.78325,-0.15789l13.57389,132z" fill="#000000"/><path d="M323.3986,210.3284l6.44025,29.70979l-8.6629,11.68257l-8.6629,-11.68257l6.2328,-29.68503z" fill="#ffffff"/><path d="M318.74584,210.35948l-6.2328,-6.71881l8.41989,-8.4199l8.41989,8.4199l-5.95423,6.68773z" fill="#ffffff"/><path d="M250.01752,124.59056c3.01917,-33.16471 34.10816,-57.44262 69.43918,-54.22623c35.33102,3.21639 61.52496,32.70909 58.50579,65.87379c-3.01917,33.16471 -34.10816,57.44262 -69.43918,54.22623c-35.33102,-3.21639 -61.52496,-32.70909 -58.50579,-65.87379z" fill="#000000"/><path d="M263.4729,126.24672c1.17569,-12.9146 12.59813,-22.43087 25.51273,-21.25518c12.9146,1.17569 22.43087,12.59813 21.25518,25.51273c-1.17569,12.9146 -12.59813,22.43087 -25.51273,21.25518c-12.9146,-1.17569 -22.43087,-12.59813 -21.25518,-25.51273z" fill="#ffffff"/><path d="M270.53417,126.61279c0.82756,-9.09049 8.86771,-15.78891 17.95819,-14.96135c9.09049,0.82756 15.78891,8.86772 14.96135,17.9582c-0.82756,9.09049 -8.86772,15.78891 -17.9582,14.96135c-9.09049,-0.82756 -15.7889,-8.86772 -14.96134,-17.9582z" fill="#000000"/><path d="M338.76308,156.67856c-12.9146,-1.17569 -22.43087,-12.59813 -21.25518,-25.51273c1.17569,-12.9146 12.59813,-22.43087 25.51273,-21.25518c12.9146,1.17569 22.43087,12.59813 21.25518,25.51273c-1.17569,12.9146 -12.59813,22.43087 -25.51273,21.25518z" data-paper-data="{&quot;index&quot;:null}" fill="#ffffff"/><path d="M339.30631,149.46969c-9.09048,-0.82756 -15.7889,-8.86772 -14.96134,-17.9582c0.82756,-9.09049 8.86772,-15.78891 17.95819,-14.96135c9.09048,0.82756 15.7889,8.86772 14.96134,17.9582c-0.82756,9.09049 -8.86772,15.78891 -17.95819,14.96135z" data-paper-data="{&quot;index&quot;:null}" fill="#000000"/><path d="M263.4729,126.24672c1.17569,-12.9146 12.59813,-22.43087 25.51273,-21.25518c12.9146,1.17569 22.43087,12.59813 21.25518,25.51273c0,0 -46.82211,-3.66215 -46.76791,-4.25755z" fill="#000000"/><path d="M317.50791,131.16584c1.17569,-12.9146 12.59813,-22.43087 25.51273,-21.25518c12.9146,1.17569 22.43087,12.59813 21.25518,25.51273c-0.05728,0.62919 -10.20312,-7.77836 -22.33872,-9.05393c-11.1794,-1.17507 -24.4292,4.79638 -24.4292,4.79638z" data-paper-data="{&quot;index&quot;:null}" fill="#000000"/><g fill="#000000"><path d="M392.7437,97.66375c-0.92321,10.14121 -35.35154,15.29623 -76.89781,11.51403c-41.54627,-3.78219 -74.47777,-15.06937 -73.55456,-25.21057c0.92321,-10.14121 35.35154,-15.29622 76.89781,-11.51403c41.54627,3.78219 74.47777,15.06936 73.55456,25.21057z"/><path d="M270.75358,86.22271l4.28628,-47.08358c0,0 11.70998,-9.24373 49.08921,-6.55182c37.78222,2.72088 44.49923,15.07171 44.49923,15.07171l-4.28629,47.08358c0,0 -10.41332,4.41574 -46.19864,0.31559c-31.98016,-3.66416 -47.3898,-8.83548 -47.3898,-8.83548z"/></g></g></g></svg>