<svg version="1.1" xmlns="http://www.w3.org/2000/svg" xmlns:xlink="http://www.w3.org/1999/xlink" width="61.78985" height="54.52258" viewBox="0,0,61.78985,54.52258"><g transform="translate(-184.58622,-134.49308)"><g data-paper-data="{&quot;isPaintingLayer&quot;:true}" fill-rule="nonzero" stroke-linecap="butt" stroke-linejoin="miter" stroke-miterlimit="10" stroke-dasharray="" stroke-dashoffset="0" style="mix-blend-mode: normal"><path d="M185.58622,188.01566v-52.52258h59.78985v52.52258z" fill="#c5c556" stroke="#000000" stroke-width="2"/><path d="M192.72193,175.88509v-24.00973h45.51845v24.00973z" fill="#6e6e30" stroke="none" stroke-width="0"/><path d="M195.97324,153.12586l3.41191,-5.50223h12.58141l4.26489,5.25213z" fill="#6e6e30" stroke="none" stroke-width="0"/><path d="M216.72976,164.05254c0,5.01599 -4.23057,9.08227 -9.44923,9.08227c-5.21866,0 -9.44922,-4.06628 -9.44922,-9.08227c0,-5.01599 4.23056,-9.08226 9.44922,-9.08226c5.21866,0 9.44923,4.06627 9.44923,9.08226z" fill="#3e3e1b" stroke="none" stroke-width="0"/><path d="M214.15778,164.20272c0,3.5725 -3.02953,6.46858 -6.76667,6.46858c-3.73713,0 -6.76668,-2.89608 -6.76668,-6.46858c0,-3.5725 3.02954,-6.46857 6.76668,-6.46857c3.73713,0 6.76667,2.89607 6.76667,6.46857z" fill="#c5c556" stroke="none" stroke-width="0"/><path d="M218.35535,157.66987v-2.57748h6.67801v2.57748z" fill="#8f8f3f" stroke="none" stroke-width="0"/><path d="M226.78372,157.72279v-2.57748h6.67802v2.57748z" fill="#8f8f3f" stroke="none" stroke-width="0"/><path d="M228.7216,152.98257v-3.09615h4.9391v3.09615z" fill="#6e6e30" stroke="none" stroke-width="0"/><g fill="#6e6e30" stroke="none" stroke-width="0" font-family="&quot;Helvetica Neue&quot;, Helvetica, Arial, sans-serif" font-weight="400" font-size="16" text-anchor="start"/><g fill="#6e6e30" stroke="none" stroke-width="0" font-family="&quot;Helvetica Neue&quot;, Helvetica, Arial, sans-serif" font-weight="400" font-size="16" text-anchor="start"/><g fill="#6e6e30" stroke="none" stroke-width="0" font-family="&quot;Helvetica Neue&quot;, Helvetica, Arial, sans-serif" font-weight="400" font-size="16" text-anchor="start"/><path d="" fill="#c5c556" stroke="#000000" stroke-width="2"/></g></g></svg>