<svg version="1.1" xmlns="http://www.w3.org/2000/svg" xmlns:xlink="http://www.w3.org/1999/xlink" width="257.852" height="376.14624" viewBox="0,0,257.852,376.14624"><g transform="translate(-191.074,9.08015)"><g data-paper-data="{&quot;isPaintingLayer&quot;:true}" fill-rule="nonzero" stroke="#000000" stroke-linejoin="miter" stroke-miterlimit="10" stroke-dasharray="" stroke-dashoffset="0" style="mix-blend-mode: normal"><path d="M415.52424,4.61663c0,0 37.28678,39.28949 31.86255,66.96586c-5.42422,27.67637 -52.9616,30.56876 -52.9616,30.56876l-20.3593,-40.6482c0,0 17.21365,-5.56467 26.36592,-16.94148c9.15228,-11.3768 15.09241,-39.94496 15.09241,-39.94496z" data-paper-data="{&quot;index&quot;:null}" fill="#000000" stroke-width="2" stroke-linecap="round"/><path d="M230.80539,-6.05745c0,0 2.95291,29.02939 10.87917,41.29194c7.92625,12.26257 24.4719,19.57813 24.4719,19.57813l-24.45511,38.32395c0,0 -46.98311,-7.79458 -49.51512,-35.8836c-2.53202,-28.08901 38.61918,-63.3104 38.61918,-63.3104z" fill="#000000" stroke-width="2" stroke-linecap="round"/><path d="M344.16422,210.56203c-0.82578,0.00639 -1.50036,-0.65786 -1.50674,-1.48362c-0.00639,-0.82578 0.65786,-1.50039 1.48362,-1.50677c0.82578,-0.00639 1.50036,0.65787 1.50675,1.48365c0.00639,0.82578 -0.65786,1.50036 -1.48362,1.50674z" fill="#5a5a07" stroke-width="0" stroke-linecap="butt"/><path d="M336.60651,216.74493c-6.45714,-0.40466 -9.49403,-2.52049 -8.94963,-3.6615c0.16773,-0.35156 4.12748,1.50592 10.09283,1.80862c9.27071,0.47043 12.29773,-1.00857 12.29773,-1.00857l0.01505,1.94636c0,0 -3.4779,1.5404 -13.45599,0.91509z" fill="#5a5a07" stroke-width="0" stroke-linecap="butt"/><path d="M296.33404,209.43668c-0.00639,-0.82578 0.65786,-1.50039 1.48362,-1.50677c0.82578,-0.00639 1.50039,0.65787 1.50678,1.48365c0.00639,0.82578 -0.65787,1.50036 -1.48365,1.50675c-0.82578,0.00639 -1.50036,-0.65786 -1.50674,-1.48362z" fill="#5a5a07" stroke-width="0" stroke-linecap="butt"/><path d="M305.49326,216.98556c-9.96722,0.7796 -13.46852,-0.70686 -13.46852,-0.70686l-0.01505,-1.94636c0,0 3.04954,1.432 12.31186,0.81823c5.95995,-0.39494 9.89051,-2.31344 10.06366,-1.96452c0.56198,1.13243 -2.4418,3.29499 -8.89192,3.79948z" fill="#5a5a07" stroke-width="0" stroke-linecap="butt"/><path d="M322.43569,298.62572c-1.18409,0.00916 -2.15142,-0.94331 -2.16057,-2.12741c-0.00916,-1.18409 0.94331,-2.15142 2.12741,-2.16057c1.18409,-0.00916 2.15142,0.94331 2.16057,2.12741c0.00916,1.18409 -0.94331,2.15142 -2.12741,2.16057z" data-paper-data="{&quot;index&quot;:null}" fill="#5a5a07" stroke-width="0" stroke-linecap="butt"/><path d="M282.10076,85.79754c-0.28711,-10.57441 1.76842,-24.74544 1.76842,-24.74544c0,0 4.92788,0.19587 20.32727,-3.49815c11.83078,-2.83801 30.38016,-12.16046 30.38016,-12.16046c0,0 -3.34409,4.1774 -5.25479,6.18511c-2.03129,2.13442 -6.10737,6.28976 -6.10737,6.28976c0,0 11.44272,-1.82099 21.54407,-5.72999c12.63725,-4.46383 15.74858,-7.9472 19.04394,-5.66186c3.88934,2.69727 -0.24877,33.55223 -1.11494,41.55436c-1.03338,8.1546 -4.3694,13.52754 -5.48661,17.84333c-1.11722,4.31579 -1.05102,8.83042 -4.38692,22.9956c-2.08183,8.84007 -6.67791,12.57525 -15.56567,20.4194c-8.88776,7.84416 -13.76631,12.68265 -19.48932,12.4857c-5.5076,-0.18952 -12.52084,-8.03372 -19.34477,-16.03553c-7.26635,-8.52066 -12.18021,-12.90535 -12.89508,-22.58892c-0.64382,-8.72107 -0.37923,-14.36576 -0.47915,-22.10222c-0.07302,-5.65437 -2.78242,-9.47578 -2.93923,-15.25066z" fill="#5a5a07" stroke-width="0" stroke-linecap="butt"/><path d="M352.64472,67.56416c0,0 2.1772,0.57344 6.0621,1.92194c3.54839,1.23171 6.29411,2.85153 6.29411,2.85153l0.19407,1.70456c0,0 -10.23383,-5.0625 -21.64172,-4.69949c-9.12147,0.29029 -14.59716,3.31487 -14.59716,3.31487l0.37886,-6.02779c0,0 4.64361,-2.22661 11.49384,-2.09047c7.09336,0.14098 11.63864,1.45967 11.63864,1.45967z" data-paper-data="{&quot;index&quot;:null}" fill="#5a5a07" stroke-width="0" stroke-linecap="butt"/><path d="M330.99434,128.68094c0.80777,0.34863 4.34778,2.25165 8.50385,4.19946c4.18918,1.96333 10.24453,3.85116 10.20382,4.09165c-0.05168,0.3052 -15.08448,-0.45376 -19.79993,-0.11151c-3.95162,0.2868 -9.71107,0.51801 -9.71107,0.51801c0,0 -10.17097,-2.20946 -18.98174,-4.52477c-7.06152,-1.85563 -14.89185,-3.17735 -14.90024,-3.3132c-0.01134,-0.18321 5.639,-0.73654 9.95834,-1.5028c1.69177,-0.63128 7.96599,-1.7371 7.96599,-1.7371c0,0 7.17689,-0.02979 10.94273,1.40584c4.03506,1.53827 3.91117,3.74365 4.26699,3.79614c0,0 1.84118,-2.43727 3.57817,-2.86159c1.737,-0.4243 7.36971,-0.22057 7.97311,0.03985z" fill="#5a5a07" stroke-width="0" stroke-linecap="butt"/><path d="M303.72621,133.85962c7.27455,1.86386 16.99834,4.94624 16.99834,4.94624c0,0 8.47675,-1.813 12.33426,-2.01624c2.99063,-0.15757 16.24846,-0.18026 16.28446,0.36133c0.0352,0.52952 -14.00685,17.95133 -31.46933,16.3895c-19.85015,-1.66045 -31.88225,-23.56764 -31.81494,-23.80903c0.06731,-0.24138 10.39267,2.26433 17.66722,4.1282z" fill="#5a5a07" stroke-width="0" stroke-linecap="butt"/><path d="M319.79691,130.35872c-1.49272,-0.07742 -4.86474,-4.97291 -5.06619,-8.0286c-0.18025,-2.73401 2.18567,-5.42901 5.75456,-5.24392c3.5689,0.18509 6.03094,1.02335 5.5055,6.34991c-0.44593,4.52049 -2.62498,7.10771 -6.19387,6.92262z" fill="#5a5a07" stroke-width="0" stroke-linecap="butt"/><path d="M327.25194,87.17409c0,0 -0.14914,5.7399 -0.52539,10.29105c-0.74502,9.01208 -3.6406,40.00459 -3.6406,40.00459l-4.30609,-0.21082c0,0 -0.84693,-6.08543 -0.91046,-13.80152c-0.086,-10.44439 0.57113,-23.56055 0.36787,-28.40559c-0.19266,-4.59263 -0.86574,-8.3187 -0.86574,-8.3187" fill="#5a5a07" stroke-width="0" stroke-linecap="round"/><path d="M283.79686,100.54244c0,0 -6.85842,-5.44787 -8.22873,-13.42128c-1.44182,-8.38957 -1.38101,-14.16328 1.44158,-14.39208c2.8226,-0.22882 3.72535,3.63464 4.76403,12.34489c1.03867,8.71025 2.02313,15.46848 2.02313,15.46848z" data-paper-data="{&quot;index&quot;:null}" fill="#5a5a07" stroke-width="0" stroke-linecap="butt"/><path d="M283.79992,94.82711c0,0 -4.92715,-4.48817 -5.60243,-12.5258c-0.37671,-4.48366 3.28504,-3.13096 3.28504,-3.13096" fill="#5a5a07" stroke-width="0" stroke-linecap="round"/><path d="M288.64967,85.44188c0.46877,-7.0584 7.65563,-12.54109 15.40829,-12.02624c7.75264,0.51487 12.71689,6.8106 12.24813,13.86903c-0.46877,7.0584 -6.61284,12.39002 -14.3655,11.87516c-7.75264,-0.51487 -13.75969,-6.65953 -13.29092,-13.71795z" fill="#5a5a07" stroke-width="0" stroke-linecap="butt"/><path d="M295.04867,85.94451c0.26433,-3.98009 3.70509,-6.99227 7.68515,-6.72795c3.98009,0.26433 6.99227,3.70509 6.72795,7.68515c-0.26433,3.98009 -3.70507,6.99227 -7.68515,6.72795c-3.98009,-0.26433 -6.99227,-3.70509 -6.72795,-7.68515z" fill="#5a5a07" stroke-width="0" stroke-linecap="butt"/><path d="M327.71801,87.46916c0.65997,-7.04312 7.09288,-12.45789 14.77168,-12.05965c7.67878,0.39826 13.09512,6.42145 12.72873,13.48592c-0.36639,7.06447 -6.29037,12.80729 -14.69061,12.47419c-7.99015,-0.31683 -13.49902,-6.54497 -12.80979,-13.90046z" fill="#5a5a07" stroke-width="0" stroke-linecap="butt"/><path d="M334.35787,87.9374c0.21107,-4.06975 3.68136,-7.19782 7.75111,-6.98675c4.06975,0.21107 7.19782,3.68136 6.98675,7.75111c-0.21107,4.06975 -3.68135,7.19782 -7.75111,6.98675c-4.06975,-0.21107 -7.19782,-3.68136 -6.98675,-7.75111z" fill="#5a5a07" stroke-width="0" stroke-linecap="butt"/><path d="M288.59072,84.6683c0,0 0.76693,-13.01279 15.96857,-11.94897c13.66342,0.94878 13.09339,14.29935 13.09339,14.29935z" fill="#5a5a07" stroke-width="0" stroke-linecap="butt"/><path d="M327.20283,86.8604c0,0 0.35186,-13.67583 16.85149,-12.30611c14.00213,1.20902 13.06237,14.65256 13.06237,14.65256z" fill="#5a5a07" stroke-width="0" stroke-linecap="butt"/><path d="M294.43748,70.47613c0,0 5.00186,-2.37423 11.76947,-2.69327c7.49937,-0.35355 11.22204,0.48605 11.22204,0.48605l0.11623,5.99647c0,0 -5.48742,-1.27008 -11.53864,-1.35296c-8.09276,-0.11085 -9.70231,1.57147 -15.87763,1.91469c-5.29134,0.29408 -9.74024,-0.27519 -9.74024,-0.27519l0.05485,-1.78026c0,0 5.18578,0.37607 7.56243,0.29324c1.96161,-0.06837 5.81104,-1.05681 5.81104,-1.05681z" fill="#5a5a07" stroke-width="0" stroke-linecap="butt"/><path d="M362.90253,89.28161c1.93417,-8.55607 3.23175,-12.30539 6.01554,-11.78582c2.78379,0.51958 2.24698,6.26859 -0.055,14.46399c-2.1878,7.78887 -9.573,12.49801 -9.573,12.49801c0,0 1.6783,-6.62013 3.61248,-15.1762z" data-paper-data="{&quot;index&quot;:null}" fill="#5a5a07" stroke-width="0" stroke-linecap="butt"/><path d="M363.80289,83.43979c0,0 3.78204,-0.96665 2.94352,3.454c-1.50313,7.92466 -6.86815,11.87903 -6.86815,11.87903" data-paper-data="{&quot;index&quot;:null}" fill="#5a5a07" stroke-width="0" stroke-linecap="round"/><path d="M274.58098,366.05745l20.4202,-190.79536l54.62775,-0.65081l21.10212,190.70253z" fill="#000000" stroke-width="2" stroke-linecap="butt"/><path d="M227.10049,114.7656c2.49396,-48.08682 46.04412,-84.91508 97.27197,-82.25821c51.22784,2.65687 90.73448,43.79278 88.24052,91.87959c-2.49396,48.08682 -46.04412,84.91508 -97.27197,82.25821c-51.22784,-2.65687 -90.73448,-43.79278 -88.24052,-91.87959z" fill="#000000" stroke-width="2" stroke-linecap="butt"/><path d="M246.65937,115.91919c0.97117,-18.72539 16.9384,-33.11803 35.66379,-32.14687c18.72539,0.97117 33.11803,16.9384 32.14687,35.66379c0,0 -16.31401,13.1904 -33.3613,12.52804c-16.88006,-0.65589 -34.49526,-15.16018 -34.44937,-16.04496z" fill="#ffffff" stroke-width="0" stroke-linecap="butt"/><path d="M325.00689,119.98259c0.97117,-18.72539 16.9384,-33.11803 35.66379,-32.14687c18.72539,0.97117 33.11803,16.9384 32.14687,35.66379c-0.04654,0.89731 -17.60566,10.64798 -34.94192,9.51354c-16.52588,-1.08141 -32.86873,-13.03047 -32.86873,-13.03047z" data-paper-data="{&quot;index&quot;:null}" fill="#ffffff" stroke-width="0" stroke-linecap="butt"/></g></g></svg>