<svg version="1.1" xmlns="http://www.w3.org/2000/svg" xmlns:xlink="http://www.w3.org/1999/xlink" width="171.01409" height="292.26289" viewBox="0,0,171.01409,292.26289"><g transform="translate(-252.89016,-23.16594)"><g data-paper-data="{&quot;isPaintingLayer&quot;:true}" stroke-miterlimit="10" stroke-dasharray="" stroke-dashoffset="0" style="mix-blend-mode: normal"><path d="M290.72614,314.42882l13.62477,-131.8421l33.99545,-0.15789l12.2131,132z" fill="#ecec68" fill-rule="nonzero" stroke="#000000" stroke-width="2" stroke-linecap="butt" stroke-linejoin="miter"/><path d="M296.57572,267.16265l8.45591,-81.82486l32.57503,-0.15129l7.60398,82.1843c0,0 -14.59301,4.84164 -24.23451,4.80038c-9.6415,-0.04126 -24.40041,-5.00852 -24.40041,-5.00852z" fill="#c8c824" fill-rule="nonzero" stroke="#000000" stroke-width="0" stroke-linecap="butt" stroke-linejoin="miter"/><g fill-rule="nonzero" stroke="#000000" stroke-width="2" stroke-linecap="butt" stroke-linejoin="miter"><path d="M279.08594,111.29793l-11.14636,-69.10687l7.23976,-1.1677l11.14636,69.10687z" fill="#ffe9b3"/><path d="M254.11821,44.42033c-1.55364,-9.63253 4.9956,-18.70074 14.62812,-20.25439c9.63253,-1.55364 18.70074,4.9956 20.25439,14.62813c1.55364,9.63253 -4.9956,18.70074 -14.62813,20.25439c-9.63253,1.55364 -18.70073,-4.99559 -20.25438,-14.62813z" fill="#dccd27"/></g><g fill-rule="nonzero" stroke="#000000" stroke-width="2" stroke-linecap="butt" stroke-linejoin="miter"><path d="M368.41828,122.94899l33.59932,-61.40917l6.43333,3.51994l-33.59932,61.40917z" fill="#ffe9b3"/><path d="M389.73576,54.81996c4.68327,-8.55957 15.41875,-11.70196 23.97833,-7.01869c8.55957,4.68327 11.70196,15.41875 7.01868,23.97834c-4.68327,8.55957 -15.41877,11.70195 -23.97834,7.01868c-8.55957,-4.68327 -11.70195,-15.41875 -7.01867,-23.97833z" fill="#dccd27"/></g><path d="M295.43464,251.66804l7.58416,-69.08131l36.11546,-0.15789l6.82766,69.46209c0,0 -1.63411,6.69929 -25.4124,6.56159c-22.03251,-0.12759 -25.11488,-6.78449 -25.11488,-6.78449z" fill="#dccd27" fill-rule="nonzero" stroke="#000000" stroke-width="2" stroke-linecap="butt" stroke-linejoin="miter"/><path d="M296.92485,228.53569l5.27751,-45.94896l37.78325,-0.15789l4.67444,45.45686c0,0 -7.00642,7.16153 -24.11741,7.06682c-17.11099,-0.09472 -23.61779,-6.41683 -23.61779,-6.41683z" fill="#dccd27" fill-rule="nonzero" stroke="#000000" stroke-width="2" stroke-linecap="butt" stroke-linejoin="miter"/><path d="M300.00973,206.02198l3.12142,-26.32765l35.83075,-0.14203l2.76735,26.1059c0,0 -7.51543,4.19603 -21.55904,4.50964c-12.48458,0.27879 -20.16049,-4.14586 -20.16049,-4.14586z" fill="#b2a730" fill-rule="nonzero" stroke="#000000" stroke-width="0" stroke-linecap="butt" stroke-linejoin="miter"/><path d="M263.43939,119.90907c5.0835,-32.91157 37.62734,-55.20148 72.68868,-49.78592c35.06134,5.41556 59.36319,36.48584 54.27969,69.3974c-5.0835,32.91157 -37.62735,55.20149 -72.68869,49.78593c-35.06134,-5.41556 -59.36319,-36.48584 -54.27969,-69.3974z" fill="#b9b912" fill-rule="nonzero" stroke="#000000" stroke-width="2" stroke-linecap="butt" stroke-linejoin="miter"/><path d="M264.14576,120.07267c0.11113,-0.71946 -3.39042,56.05883 53.92692,65.93897c54.76431,9.44008 71.61574,-47.57866 71.46021,-46.57174c-5.00764,32.42033 -37.13599,54.3667 -71.76068,49.01859c-34.6247,-5.34811 -58.63409,-35.96549 -53.62645,-68.38582z" fill="#c8c824" fill-rule="nonzero" stroke="#000000" stroke-width="0" stroke-linecap="butt" stroke-linejoin="miter"/><path d="M304.54055,154.28326l40.01385,5.18366c2.42424,0.31405 4.12304,2.51852 3.80899,4.94275l-2.35437,18.17398c-0.31405,2.42423 -2.51852,4.12305 -4.94275,3.80899l-40.01384,-5.18366c-2.42423,-0.31405 -4.12306,-2.51852 -3.809,-4.94275l2.35437,-18.17398c0.31405,-2.42423 2.51852,-4.12305 4.94276,-3.80899z" fill="#000000" fill-rule="evenodd" stroke="#000000" stroke-width="2" stroke-linecap="round" stroke-linejoin="round"/><path d="M279.92482,85.42202l105.01911,16.2212c6.36259,0.98277 10.69359,6.89615 9.71084,13.25872l-7.36753,47.69885c-0.98275,6.36257 -6.89616,10.69361 -13.25871,9.71085l-105.0191,-16.2212c-6.36257,-0.98275 -10.69362,-6.89616 -9.71087,-13.25872l7.36754,-47.69884c0.98275,-6.36256 6.89616,-10.69361 13.25873,-9.71086z" fill="#dccd27" fill-rule="evenodd" stroke="#000000" stroke-width="2" stroke-linecap="round" stroke-linejoin="round"/><path d="M286.94895,91.90767l89.34136,13.79962c5.41275,0.83605 9.09721,5.86666 8.26116,11.27939l-6.26768,40.57815c-0.83605,5.41273 -5.86666,9.09722 -11.27939,8.26116l-89.34134,-13.79962c-5.41273,-0.83605 -9.09724,-5.86668 -8.26118,-11.2794l6.26768,-40.57815c0.83605,-5.41273 5.86667,-9.09721 11.27941,-8.26116z" fill="#000000" fill-rule="evenodd" stroke="#000000" stroke-width="2" stroke-linecap="round" stroke-linejoin="round"/><path d="M337.67949,174.48437c0,0 -3.57846,8.1779 -16.55311,4.94936c-10.77334,-2.68078 -11.87574,-11.67466 -11.87574,-11.67466" fill="none" fill-rule="nonzero" stroke="#ecec68" stroke-width="2" stroke-linecap="round" stroke-linejoin="miter"/><g fill-rule="nonzero" stroke-linejoin="miter"><path d="M330.12187,123.1901l19.26724,-10.875l-14.95085,15.67794z" fill="#d9db56" stroke="#000000" stroke-width="0.5" stroke-linecap="butt"/><path d="M329.33366,119.30089l3.9826,-3.14263l8.00865,10.14926l-3.9826,3.14264z" fill="#d9db56" stroke="#000000" stroke-width="1" stroke-linecap="butt"/><path d="M303.25618,135.71863l24.6536,-19.5256l12.49641,15.7783l-24.6536,19.5256z" fill="#d9db56" stroke="#000000" stroke-width="1" stroke-linecap="butt"/><path d="M312.64,128.10164l5.90482,-4.30041c0,0 2.51782,6.20792 4.64156,8.82456c1.99093,2.45301 7.72826,6.41609 7.72826,6.41609l-5.90483,4.30042c0,0 -6.2947,-3.35219 -8.26643,-5.78148c-2.13807,-2.63428 -4.1034,-9.45916 -4.1034,-9.45916z" fill="#000000" stroke="none" stroke-width="0" stroke-linecap="butt"/><path d="M334.90456,119.63188l-2.42574,2.12299" fill="none" stroke="#000000" stroke-width="0.5" stroke-linecap="round"/><path d="M335.73208,125.24499l2.346,-2.34028" fill="none" stroke="#000000" stroke-width="0.5" stroke-linecap="round"/></g></g></g></svg>