<svg version="1.1" xmlns="http://www.w3.org/2000/svg" xmlns:xlink="http://www.w3.org/1999/xlink" width="222.89867" height="296.68996" viewBox="0,0,222.89867,296.68996"><g transform="translate(-183.77987,-25.93857)"><g data-paper-data="{&quot;isPaintingLayer&quot;:true}" fill-rule="nonzero" stroke-linejoin="miter" stroke-miterlimit="10" stroke-dasharray="" stroke-dashoffset="0" style="mix-blend-mode: normal"><path d="M266.67081,174.99199l-80.34248,-74.54285l82.92713,0.012" fill="#d9d97d" stroke="#000000" stroke-width="2" stroke-linecap="round"/><path d="M330.64805,82.0002l63.23414,-53.65027l-13.053,108.81713" data-paper-data="{&quot;index&quot;:null}" fill="#d9d97d" stroke="#000000" stroke-width="2" stroke-linecap="round"/><path d="M298.06109,196.69154l-32.66071,9.65806l8.14934,-24.55672l-33.3039,4.92898l20.07051,-19.99882" fill="#d9d97d" stroke="#000000" stroke-width="2" stroke-linecap="round"/><path d="M297.63019,196.72402l-30.42534,7.87598l8.62447,-24.20474l-31.4487,3.46246l3.57337,-3.63761l27.85324,0.21053l-6.87735,19.35322z" fill="#b6b14b" stroke="none" stroke-width="0" stroke-linecap="round"/><path d="M377.31693,147.36766l26.17546,10.84543l-32.67048,8.12923l16.88938,19.60085l-33.87725,3.5117" data-paper-data="{&quot;index&quot;:null}" fill="#d9d97d" stroke="#000000" stroke-width="2" stroke-linecap="round"/><path d="M384.53414,181.2966l-12.85937,-16.01504l26.23473,-9.35872l4.57089,2.26013l-30.83812,7.07245l16.10479,20.02215l-31.32315,2.56786z" data-paper-data="{&quot;index&quot;:null}" fill="#b6b14b" stroke="none" stroke-width="0" stroke-linecap="round"/><path d="M286.35186,321.62852l15.14285,-131.8421l37.78325,-0.15789l13.57389,132z" fill="#d9d97d" stroke="#000000" stroke-width="2" stroke-linecap="butt"/><path d="M299.88496,217.6583l3.12142,-26.32765l35.83075,-0.14203l2.76735,26.1059c0,0 -7.51543,4.19603 -21.55904,4.50964c-12.48458,0.27879 -20.16049,-4.14586 -20.16049,-4.14586z" fill="#b6b14b" stroke="#000000" stroke-width="0" stroke-linecap="butt"/><path d="M254.70642,157.27887c-8.76611,-32.12738 11.87318,-65.74229 46.09912,-75.08099c34.22594,-9.33871 69.07788,9.13516 77.84399,41.26254c8.76611,32.12738 -11.87317,65.74229 -46.09911,75.081c-34.22594,9.3387 -69.07788,-9.13517 -77.84399,-41.26255z" fill="#d9d97d" stroke="#000000" stroke-width="2" stroke-linecap="butt"/><path d="M330.18383,195.12719c22.27968,-4.65849 36.06725,-18.70905 35.2707,-17.81955c-8.69984,9.71494 -20.63427,17.01855 -34.64973,20.2053c-13.88021,3.15599 -27.66596,1.78862 -39.63056,-3.09284c-0.454,-0.18523 16.72992,5.3656 39.0096,0.7071z" fill="#b6b14b" stroke="#000000" stroke-width="0" stroke-linecap="butt"/><path d="M267.92552,153.95769c-3.41359,-12.51067 3.96104,-25.41981 16.4717,-28.8334c12.51067,-3.41359 25.41981,3.96103 28.8334,16.47169c3.41359,12.51067 -3.96102,25.41982 -16.47169,28.83341c-12.51067,3.41359 -25.41982,-3.96103 -28.83341,-16.4717z" fill="#c5c556" stroke="#000000" stroke-width="2" stroke-linecap="butt"/><path d="M341.93164,168.66895c0,0 -9.12555,19.79643 -17.56824,21.31365c-8.44268,1.51721 -25.65455,-13.54615 -25.65455,-13.54615z" fill="#000000" stroke="#000000" stroke-width="2" stroke-linecap="round"/><path d="M349.10382,156.14685c-12.51067,3.41359 -25.41981,-3.96104 -28.8334,-16.4717c-3.41359,-12.51067 3.96103,-25.41981 16.47169,-28.8334c12.51067,-3.41359 25.41982,3.96102 28.83341,16.47169c3.41359,12.51067 -3.96103,25.41982 -16.4717,28.83341z" data-paper-data="{&quot;index&quot;:null}" fill="#c5c556" stroke="#000000" stroke-width="2" stroke-linecap="butt"/><path d="M267.6373,144.76794l-4.20856,-1.41703" fill="none" stroke="#000000" stroke-width="2" stroke-linecap="round"/><path d="M364.98955,126.9551l3.15688,-4.38566" fill="none" stroke="#000000" stroke-width="2" stroke-linecap="round"/><path d="M272.53421,122.83858c0,0 5.11164,-6.75293 9.70606,-9.24453c4.59443,-2.4916 12.08323,-2.57202 12.08323,-2.57202c0,0 -7.77051,2.05773 -11.31863,3.98192c-3.70793,2.01085 -10.47067,7.83463 -10.47067,7.83463z" fill="#000000" stroke="none" stroke-width="0" stroke-linecap="butt"/><path d="M332.94988,101.37623c-4.03371,0.14455 -11.77248,2.31859 -11.77248,2.31859c0,0 6.49183,-3.73425 11.71504,-3.92145c5.2232,-0.18718 13.05624,3.03372 13.05624,3.03372c0,0 -8.78342,-1.58193 -12.9988,-1.43088z" data-paper-data="{&quot;index&quot;:null}" fill="#000000" stroke="none" stroke-width="0" stroke-linecap="butt"/></g></g></svg>