<svg version="1.1" xmlns="http://www.w3.org/2000/svg" xmlns:xlink="http://www.w3.org/1999/xlink" width="151.57452" height="257.00287" viewBox="0,0,151.57452,257.00287"><g transform="translate(-244.83905,-57.26153)"><g data-paper-data="{&quot;isPaintingLayer&quot;:true}" fill-rule="nonzero" stroke="#c1bc17" stroke-width="0.5" stroke-linecap="butt" stroke-linejoin="miter" stroke-miterlimit="10" stroke-dasharray="" stroke-dashoffset="0" style="mix-blend-mode: normal"><path d="M286.75016,314.01439l15.14285,-131.8421l37.78325,-0.15789l13.57389,132z" fill="#000000"/><path d="M323.39858,210.3284l6.44025,29.70979l-8.6629,11.68257l-8.6629,-11.68257l6.2328,-29.68503z" fill="#ffffff"/><path d="M318.74582,210.35948l-6.2328,-6.71881l8.41989,-8.4199l8.41989,8.4199l-5.95423,6.68773z" fill="#ffffff"/><path d="M256.46637,155.88647c0,-33.30185 28.7599,-60.29833 64.23702,-60.29833c35.47712,0 64.23702,26.99649 64.23702,60.29833c0,33.30185 -28.7599,60.29833 -64.23702,60.29833c-35.47712,0 -64.23702,-26.99649 -64.23702,-60.29833z" fill="#000000"/><path d="M270.01649,156.31594c0,-12.968 10.51265,-23.48065 23.48065,-23.48065c12.968,0 23.48065,10.51265 23.48065,23.48065c0,12.968 -10.51265,23.48065 -23.48065,23.48065c-12.968,0 -23.48065,-10.51265 -23.48065,-23.48065z" fill="#000000"/><path d="M347.75559,179.79658c-12.968,0 -23.48065,-10.51265 -23.48065,-23.48065c0,-12.968 10.51265,-23.48065 23.48065,-23.48065c12.968,0 23.48065,10.51265 23.48065,23.48065c0,12.968 -10.51265,23.48065 -23.48065,23.48065z" data-paper-data="{&quot;index&quot;:null}" fill="#000000"/><g fill="#000000"><path d="M396.16358,116.13088c0,10.18314 -33.81919,18.43823 -75.53726,18.43823c-41.71807,0 -75.53726,-8.25509 -75.53726,-18.43823c0,-10.18314 33.81919,-18.43823 75.53726,-18.43823c41.71807,0 75.53726,8.25509 75.53726,18.43823z"/><path d="M273.63856,115.79668v-47.27828c0,0 10.82371,-10.2673 48.29306,-10.9753c37.8733,-0.71569 45.68238,10.9753 45.68238,10.9753v47.27828c0,0 -9.9701,5.34163 -45.97977,4.5027c-32.18066,-0.74972 -47.99567,-4.5027 -47.99567,-4.5027z"/></g></g></g></svg>