<svg version="1.1" xmlns="http://www.w3.org/2000/svg" xmlns:xlink="http://www.w3.org/1999/xlink" width="169.45356" height="321.14524" viewBox="0,0,169.45356,321.14524"><defs><linearGradient x1="356.11951" y1="52.66264" x2="368.55627" y2="59.00697" gradientUnits="userSpaceOnUse" id="color-1"><stop offset="0" stop-color="#131308"/><stop offset="1" stop-color="#131308" stop-opacity="0"/></linearGradient><linearGradient x1="343.4891" y1="75.18299" x2="356.59645" y2="81.8694" gradientUnits="userSpaceOnUse" id="color-2"><stop offset="0" stop-color="#151509"/><stop offset="1" stop-color="#151509" stop-opacity="0"/></linearGradient></defs><g transform="translate(-253.82156,10.19654)"><g data-paper-data="{&quot;isPaintingLayer&quot;:true}" fill-rule="nonzero" stroke-linejoin="miter" stroke-miterlimit="10" stroke-dasharray="" stroke-dashoffset="0" style="mix-blend-mode: normal"><path d="M287.81615,309.94869l15.14285,-131.8421l37.78325,-0.15789l13.57389,132z" fill="#959541" stroke="#000000" stroke-width="2" stroke-linecap="butt"/><path d="M300.76637,206.56132l3.12142,-26.32765l35.83075,-0.14203l2.76735,26.1059c0,0 -7.51543,4.19603 -21.55904,4.50964c-12.48458,0.27879 -20.16049,-4.14586 -20.16049,-4.14586z" fill="#7d7d37" stroke="#000000" stroke-width="0" stroke-linecap="butt"/><path d="M254.84124,132.92156c-0.86938,-33.2905 27.17596,-61.02858 62.64099,-61.95474c35.46503,-0.92616 64.9199,25.31032 65.78927,58.60081c0.86938,33.2905 -27.17596,61.02858 -62.64099,61.95475c-35.46503,0.92616 -64.9199,-25.31033 -65.78927,-58.60082z" fill="#959541" stroke="#000000" stroke-width="2" stroke-linecap="butt"/><path d="M255.56546,132.95651c-0.019,-0.72774 6.66471,55.76441 64.82519,55.26081c55.5699,-0.48116 61.97901,-59.59147 62.00561,-58.57296c0.8564,32.79361 -26.8414,60.11954 -61.86475,61.03416c-35.02335,0.91463 -64.10965,-24.9284 -64.96605,-57.72201z" fill="#7d7d37" stroke="#000000" stroke-width="0" stroke-linecap="butt"/><path d="M268.39807,132.99714c-0.33854,-12.96358 9.89608,-23.74709 22.85966,-24.08563c12.96358,-0.33854 23.74709,9.89608 24.08563,22.85966c0.33854,12.96358 -9.89608,23.74709 -22.85966,24.08563c-12.96358,0.33854 -23.74709,-9.89608 -24.08563,-22.85966z" fill="#ffffff" stroke="#000000" stroke-width="2" stroke-linecap="butt"/><path d="M269.01479,134.95609c-0.2383,-9.12497 6.96577,-16.71539 16.09073,-16.95368c9.12497,-0.2383 16.71539,6.96577 16.95368,16.09073c0.2383,9.12497 -6.96578,16.71539 -16.09073,16.95368c-9.12497,0.2383 -16.71538,-6.96577 -16.95367,-16.09073z" fill="#000000" stroke="none" stroke-width="0" stroke-linecap="butt"/><path d="M338.9657,169.00535l-25.07323,1.35093" fill="none" stroke="#000000" stroke-width="2" stroke-linecap="round"/><path d="M346.72363,154.44034c-12.96358,0.33854 -23.74709,-9.89608 -24.08563,-22.85966c-0.33854,-12.96358 9.89608,-23.74709 22.85966,-24.08563c12.96358,-0.33854 23.74709,9.89608 24.08563,22.85966c0.33854,12.96358 -9.89608,23.74709 -22.85966,24.08563z" data-paper-data="{&quot;index&quot;:null}" fill="#ffffff" stroke="#000000" stroke-width="2" stroke-linecap="butt"/><path d="M352.85492,144.54847c-9.12496,0.2383 -16.71538,-6.96577 -16.95367,-16.09073c-0.2383,-9.12497 6.96578,-16.71539 16.09073,-16.95368c9.12496,-0.2383 16.71538,6.96577 16.95367,16.09073c0.2383,9.12497 -6.96578,16.71539 -16.09073,16.95368z" data-paper-data="{&quot;index&quot;:null}" fill="#000000" stroke="none" stroke-width="0" stroke-linecap="butt"/><path d="M280.27937,103.86858c0,0 6.57172,-5.3426 11.62706,-6.66936c5.05536,-1.32676 12.34818,0.37714 12.34818,0.37714c0,0 -8.03695,0.14958 -11.94103,1.1742c-4.07992,1.07076 -12.03421,5.11802 -12.03421,5.11802z" fill="#000000" stroke="none" stroke-width="0" stroke-linecap="butt"/><path d="M344.06671,97.39905c-3.95224,-0.81945 -11.98605,-0.54935 -11.98605,-0.54935c0,0 7.19396,-2.08222 12.31167,-1.02113c5.1177,1.06109 11.95932,6.05341 11.95932,6.05341c0,0 -8.1547,-3.62657 -12.28494,-4.48293z" data-paper-data="{&quot;index&quot;:null}" fill="#000000" stroke="none" stroke-width="0" stroke-linecap="butt"/><path d="M327.11301,80.20267c1.42316,-5.1853 15.17972,-35.2828 15.17972,-35.2828c0,0 -3.53458,32.90304 -4.95773,38.08833" fill="#804400" stroke="#000000" stroke-width="2" stroke-linecap="butt"/><g stroke="#000000"><path d="M421.16526,27.81284l-39.03807,99.87615c0,0 -24.32619,-3.30443 -52.34801,-19.70563c-27.26127,-15.95607 -39.32853,-29.55408 -39.32853,-29.55408l62.61205,-87.20937c0,0 16.03417,-0.10303 38.46142,12.48512c21.76558,12.21677 29.64115,24.10781 29.64115,24.10781z" fill="#333333" stroke-width="2" stroke-linecap="butt"/><path d="M421.16526,27.81284l-39.03807,99.87615c0,0 -24.32619,-3.30443 -52.34801,-19.70563c-27.26127,-15.95607 -39.32853,-29.55408 -39.32853,-29.55408l62.61205,-87.20937c0,0 20.79546,15.74642 32.02958,21.78274c11.46217,6.15885 36.07301,14.81019 36.07301,14.81019z" fill="#7d7d37" stroke-width="2" stroke-linecap="butt"/><path d="M381.66911,126.81098c0,0 12.07254,24.83076 -20.77849,23.35401c-37.63715,-1.69188 -70.81335,-71.72431 -70.81335,-71.72431" fill="none" stroke-width="2" stroke-linecap="round"/><path d="M419.85883,28.38855l-38.20321,98.43693c0,0 -26.4118,-5.0587 -52.88012,-20.55065c-25.74992,-15.07148 -37.00667,-28.06683 -37.00667,-28.06683l8.23227,-11.46634c0,0 12.63652,33.83568 50.02157,34.27159c34.82209,0.40602 69.83616,-72.62472 69.83616,-72.62472z" fill="#6c6c30" stroke-width="0" stroke-linecap="butt"/></g><g><g><path d="M309.11847,75.37062l71.89833,-56.21781l-3.97563,90.86704z" fill="#b4b44f" stroke="none" stroke-width="0" stroke-linecap="butt"/><path d="M378.09521,84.60757l-20.01103,-47.6049l7.44162,-5.50347l13.26104,38.89869z" fill="#cdcd51" stroke="none" stroke-width="0" stroke-linecap="butt"/><path d="M359.52442,100.72937l-19.16907,-49.54659l11.35871,-8.86165l20.78792,65.19073z" fill="#cdcd51" stroke="none" stroke-width="0" stroke-linecap="butt"/><path d="M373.2619,104.49962l-57.90132,-29.53705l62.2049,-49.31927z" fill="none" stroke="#717132" stroke-width="1.5" stroke-linecap="round"/></g><path d="M368.73487,58.63339c-3.83621,7.52011 -11.75027,12.79599 -14.02037,11.45091c-1.47349,-0.87308 -2.41673,-10.03812 1.41948,-17.55823c3.83621,-7.5201 6.28845,-14.91406 13.31659,-11.32881c7.02813,3.58524 3.12051,9.91602 -0.7157,17.43613z" fill="#6d6d30" stroke="none" stroke-width="0" stroke-linecap="butt"/><path d="M356.69542,81.91989c-1.70299,3.33836 -6.01771,4.54784 -9.63721,2.70143c-3.61949,-1.8464 -5.17312,-6.04949 -3.47014,-9.38785c1.70299,-3.33837 6.01771,-4.54785 9.63721,-2.70144c3.61949,1.8464 5.17312,6.04949 3.47013,9.38786z" fill="#6d6d30" stroke="none" stroke-width="0" stroke-linecap="butt"/><path d="M368.70803,58.68621c-3.79678,7.4428 -11.63937,12.65943 -13.89173,11.32533c-1.46198,-0.86596 -2.40614,-9.94222 1.39064,-17.38503c3.79678,-7.4428 6.22133,-14.76204 13.19397,-11.2051c6.97264,3.55693 3.1039,9.822 -0.69288,17.2648z" fill="url(#color-1)" stroke="none" stroke-width="0" stroke-linecap="butt"/><path d="M356.59645,81.8694c-1.70299,3.33836 -6.01771,4.54784 -9.63721,2.70143c-3.61949,-1.8464 -5.17312,-6.04949 -3.47014,-9.38785c1.70299,-3.33837 6.01771,-4.54785 9.63721,-2.70144c3.61949,1.8464 5.17312,6.04949 3.47013,9.38786z" fill="url(#color-2)" stroke="none" stroke-width="0" stroke-linecap="butt"/></g></g></g></svg>