<svg version="1.1" xmlns="http://www.w3.org/2000/svg" xmlns:xlink="http://www.w3.org/1999/xlink" width="183.61415" height="263.93037" viewBox="0,0,183.61415,263.93037"><defs><linearGradient x1="342.67576" y1="211.58918" x2="260.10067" y2="249.78466" gradientUnits="userSpaceOnUse" id="color-1"><stop offset="0" stop-color="#b8b851"/><stop offset="1" stop-color="#ffff65"/></linearGradient></defs><g transform="translate(-242.13331,-49.56965)"><g data-paper-data="{&quot;isPaintingLayer&quot;:true}" fill-rule="nonzero" stroke-linejoin="miter" stroke-miterlimit="10" stroke-dasharray="" stroke-dashoffset="0" style="mix-blend-mode: normal"><path d="M392.15506,149.29866c3.16787,25.2547 -3.79332,35.45607 -3.79332,35.45607c0,0 -12.10918,-21.47411 -19.77288,-32.6764c-7.92295,-11.58124 -27.01293,-35.71203 -27.01293,-35.71203l31.81283,-16.85064c0,0 15.26168,21.8436 18.7663,49.783z" data-paper-data="{&quot;index&quot;:null}" fill="#aeae47" stroke="#000000" stroke-width="2" stroke-linecap="butt"/><path d="M277.83529,99.51566l31.81283,16.85064c0,0 -19.08998,24.13078 -27.01292,35.71203c-7.6637,11.20229 -19.77288,32.6764 -19.77288,32.6764c0,0 -6.96119,-10.20136 -3.79332,-35.45607c3.50463,-27.9394 18.7663,-49.783 18.7663,-49.783z" data-paper-data="{&quot;index&quot;:null}" fill="#aeae47" stroke="#000000" stroke-width="2" stroke-linecap="butt"/><path d="M378.33655,194.8103c-9.02164,23.80012 -19.94816,29.5566 -19.94816,29.5566c0,0 -0.6493,-24.64443 -2.17813,-38.13095c-1.58056,-13.94275 -7.1552,-44.20238 -7.1552,-44.20238h36c0,0 3.26217,26.44655 -6.71851,52.77673z" data-paper-data="{&quot;index&quot;:null}" fill="#c2c250" stroke="#000000" stroke-width="2" stroke-linecap="butt"/><path d="M264.89814,142.03357h36c0,0 -5.57464,30.25964 -7.1552,44.20238c-1.52884,13.48652 -2.17814,38.13095 -2.17814,38.13095c0,0 -10.92652,-5.75649 -19.94816,-29.5566c-9.98068,-26.33018 -6.71851,-52.77673 -6.71851,-52.77673z" fill="#c2c250" stroke="#000000" stroke-width="2" stroke-linecap="butt"/><path d="M291.75007,312.50001l15.14285,-131.8421l37.78325,-0.15789l13.57389,132z" fill="#ecec60" stroke="#000000" stroke-width="2" stroke-linecap="butt"/><path d="M304.7003,209.11264l3.12142,-26.32765l35.83075,-0.14203l2.76735,26.1059c0,0 -7.51543,4.19603 -21.55904,4.50964c-12.48458,0.27879 -20.16049,-4.14586 -20.16049,-4.14586z" fill="#d2d256" stroke="#000000" stroke-width="0" stroke-linecap="butt"/><path d="M260.83998,141.84617c0,-33.30185 28.7599,-60.29833 64.23702,-60.29833c35.47712,0 64.23702,26.99649 64.23702,60.29833c0,33.30185 -28.7599,60.29833 -64.23702,60.29833c-35.47712,0 -64.23702,-26.99649 -64.23702,-60.29833z" fill="#ecec60" stroke="#000000" stroke-width="2" stroke-linecap="butt"/><path d="M261.56304,141.9c0,-0.72799 5.20666,55.91939 63.36046,56.93429c55.56352,0.9697 63.51358,-57.95314 63.51358,-56.93429c0,32.80479 -28.40173,59.39833 -63.43702,59.39833c-35.03529,0 -63.43702,-26.59354 -63.43702,-59.39833z" fill="#d2d256" stroke="#000000" stroke-width="0" stroke-linecap="butt"/><path d="M274.39019,142.27564c0,-12.968 10.51265,-23.48065 23.48065,-23.48065c12.968,0 23.48065,10.51265 23.48065,23.48065c0,12.968 -10.51265,23.48065 -23.48065,23.48065c-12.968,0 -23.48065,-10.51265 -23.48065,-23.48065z" fill="#ffffff" stroke="#000000" stroke-width="2" stroke-linecap="butt"/><path d="M280.86019,149.14472c0,-9.12808 7.39976,-16.52784 16.52783,-16.52784c9.12808,0 16.52784,7.39977 16.52784,16.52784c0,9.12808 -7.39977,16.52784 -16.52784,16.52784c-9.12808,0 -16.52783,-7.39977 -16.52783,-16.52784z" fill="#000000" stroke="none" stroke-width="0" stroke-linecap="butt"/><path d="M337.61666,181.65644c0,0 -7.66582,2.98556 -11.69844,2.98556c-4.31774,0 -13.41115,-2.98556 -13.41115,-2.98556" fill="none" stroke="#000000" stroke-width="2" stroke-linecap="round"/><path d="M352.12928,165.75628c-12.968,0 -23.48065,-10.51265 -23.48065,-23.48065c0,-12.968 10.51265,-23.48065 23.48065,-23.48065c12.968,0 23.48065,10.51265 23.48065,23.48065c0,12.968 -10.51265,23.48065 -23.48065,23.48065z" data-paper-data="{&quot;index&quot;:null}" fill="#ffffff" stroke="#000000" stroke-width="2" stroke-linecap="butt"/><path d="M352.6121,166.26795c-9.12807,0 -16.52783,-7.39977 -16.52783,-16.52784c0,-9.12808 7.39977,-16.52784 16.52783,-16.52784c9.12807,0 16.52783,7.39977 16.52783,16.52784c0,9.12808 -7.39977,16.52784 -16.52783,16.52784z" data-paper-data="{&quot;index&quot;:null}" fill="#000000" stroke="none" stroke-width="0" stroke-linecap="butt"/><path d="M281.80313,119.43829c0,0 6.70895,-5.16922 11.79721,-6.36355c5.08827,-1.19433 12.33413,0.69937 12.33413,0.69937c0,0 -8.03812,-0.06028 -11.96762,0.86207c-4.10648,0.96389 -12.16372,4.80211 -12.16372,4.80211z" fill="#000000" stroke="none" stroke-width="0" stroke-linecap="butt"/><path d="M355.4407,115.75578c-3.9295,-0.92235 -11.96762,-0.86207 -11.96762,-0.86207c0,0 7.24586,-1.8937 12.33413,-0.69937c5.08826,1.19433 11.79721,6.36355 11.79721,6.36355c0,0 -8.05724,-3.83822 -12.16372,-4.80211z" data-paper-data="{&quot;index&quot;:null}" fill="#000000" stroke="none" stroke-width="0" stroke-linecap="butt"/><path d="M274.24017,142.36807c0,-12.96801 10.51265,-23.48065 23.48066,-23.48065c12.96801,0 23.48065,10.51264 23.48065,23.48065c0,0 -11.70863,-7.69294 -23.43307,-7.53879c-11.75617,0.15456 -23.52823,8.1554 -23.52823,7.53879z" fill="#d2d256" stroke="#000000" stroke-width="2" stroke-linecap="butt"/><path d="M328.64862,142.26807c0,-12.96801 10.51264,-23.48065 23.48065,-23.48065c12.96801,0 23.48066,10.51264 23.48066,23.48065c0,0.60606 -11.37275,-7.38438 -22.92496,-7.531c-11.92261,-0.15132 -24.03635,7.531 -24.03635,7.531z" data-paper-data="{&quot;index&quot;:null}" fill="#d2d256" stroke="#000000" stroke-width="2" stroke-linecap="butt"/><path d="M268.59625,103.76233c0,-29.37751 4.22233,-52.79352 55.83225,-53.19268c58.79142,-0.45471 55.83225,23.81518 55.83225,53.19268c0,0 -111.6645,1.21448 -111.6645,0z" fill="#c5c528" stroke="#000000" stroke-width="2" stroke-linecap="butt"/><path d="M243.84721,108.6059l4.33333,-7.66667l155.5,0.33333l2.66667,7.33333z" fill="#c5c528" stroke="#000000" stroke-width="2" stroke-linecap="butt"/><g data-paper-data="{&quot;index&quot;:null}"><path d="M260.24576,249.84368c0,0 -13.93854,-24.6121 -1.44867,-37.9879c4.02327,-4.30866 13.16891,-9.33287 20.87121,-10.2809c6.51377,-0.80175 11.3736,2.32679 17.61443,0.84497c13.24735,-3.14544 20.47607,-9.97546 24.88584,-10.59212c15.02232,-2.10075 19.21584,18.99495 19.21584,18.99495l1.03931,2.24688c0,0 13.36089,16.85529 2.03296,26.94297c-3.3253,2.96122 -13.21081,4.04746 -24.18555,12.10607c-5.1702,3.79642 -5.93284,9.52564 -10.76152,13.97041c-5.70973,5.25577 -15.46033,8.97209 -21.34889,9.24818c-18.28043,0.85714 -28.01108,-25.70134 -28.01108,-25.70134z" data-paper-data="{&quot;index&quot;:null}" fill="url(#color-1)" stroke="none" stroke-width="0" stroke-linecap="round"/><g fill="#7d7d00" stroke="none" stroke-width="1" stroke-linecap="butt"><path d="M300.64969,221.45129c-0.01069,-0.02311 -0.02139,-0.04625 -0.0143,-0.09161c-0.32584,-0.34041 -0.31373,-0.73893 -0.13531,-1.17226c-0.44373,0.16316 -0.79513,0.10118 -1.09873,-0.22145c-0.25373,-0.27554 -0.30389,-0.68735 -0.12893,-1.00682c0.24778,-0.46542 0.64441,-0.57872 1.1026,-0.46792c-0.00291,-0.2793 0.01111,-0.5524 0.00819,-0.8317c-0.6911,0.05304 -1.15391,-0.28013 -1.18111,-0.88497c-0.00912,-0.26239 0.07784,-0.49909 0.2716,-0.68693c0.28796,-0.28756 0.63128,-0.3341 1.00407,-0.22589c-0.00635,-0.16545 -0.05275,-0.32641 -0.03686,-0.47408c0.00433,-0.14232 0.06558,-0.28291 0.09303,-0.43593c-0.47668,0.12226 -0.85481,0.00249 -1.08905,-0.35222c-0.2013,-0.31383 -0.18297,-0.72924 0.04271,-1.03008c0.27899,-0.36761 0.63387,-0.4195 1.24248,-0.19585c-0.21025,-0.39389 -0.23282,-0.77635 0.05153,-1.1324c0.30834,-0.3952 0.71478,-0.45691 1.17124,-0.28918c-0.29163,-0.9035 0.46475,-1.60417 1.32248,-1.32737c-0.124,-0.41974 -0.06117,-0.79963 0.27838,-1.097c0.32798,-0.29203 0.7158,-0.30304 1.13224,-0.13082c-0.16936,-0.42683 -0.11273,-0.78979 0.20991,-1.09338c0.27019,-0.2653 0.61435,-0.3403 0.96317,-0.19293c0.51787,0.20949 0.67033,0.6301 0.59247,1.12918c0.23392,-0.00997 0.47321,-0.00842 0.66711,-0.01391c0.0416,-0.24375 0.08942,-0.50441 0.14259,-0.75352c-0.46684,0.17383 -0.86276,0.07631 -1.11924,-0.29617c-0.21285,-0.30848 -0.1821,-0.75771 0.07739,-1.04613c0.26572,-0.30532 0.69528,-0.37773 1.04858,-0.19034c0.21892,0.10923 0.38986,0.29678 0.41674,0.53691c0.03311,0.22324 -0.00229,0.4501 -0.01457,0.66625c0.43752,-0.14625 0.43752,-0.14625 1.00249,0.01338c-0.12674,-0.5167 -0.04253,-0.85034 0.27838,-1.097c0.28001,-0.21371 0.68561,-0.24697 0.98197,-0.06131c0.45834,0.29317 0.54232,0.7174 0.34438,1.22991c0.38145,-0.17644 0.72838,-0.15449 1.07546,0.04981c-0.15348,-0.5745 -0.05682,-0.94194 0.30324,-1.16463c0.33073,-0.19508 0.73993,-0.15984 1.02835,0.09966c0.27687,0.26485 0.35547,0.67751 0.18586,1.00855c-0.12079,0.22426 -0.27987,0.39607 -0.53157,0.42831c-0.22325,0.03311 -0.45545,-0.01385 -0.6378,-0.0137c0.03309,0.22324 0.07067,0.4865 0.10291,0.73821c0.20461,0.01761 0.43767,0.03611 0.6823,0.04924c-0.07775,-0.44114 0.04736,-0.80771 0.44211,-1.04644c0.31917,-0.18973 0.66076,-0.17934 0.97316,0.041c0.44057,0.31541 0.49607,0.73877 0.29901,1.22283c0.84295,-0.36186 1.70459,0.34814 1.3736,1.30108c0.90884,-0.28006 1.61402,0.51635 1.28027,1.37234c0.46063,-0.15693 0.86276,-0.07633 1.15306,0.30858c0.22976,0.31469 0.26474,0.66336 0.08357,0.99975c-0.23002,0.44318 -0.62751,0.58493 -1.08656,0.5026c0.00999,0.23393 0.00925,0.44475 0.0139,0.66712c0.11387,0.00347 0.23928,0.00159 0.34694,0.02194c0.12455,0.02658 0.24289,0.07006 0.35589,0.10199c-0.09481,-0.62969 0.03478,-0.95623 0.434,-1.15493c0.35834,-0.16575 0.75512,-0.0967 1.02576,0.18504c0.25373,0.27553 0.31545,0.68199 0.13428,1.01838c-0.21759,0.40936 -0.56264,0.51284 -1.16315,0.3977c0.02948,0.15476 0.07588,0.31571 0.0769,0.4696c0.00102,0.15389 -0.04955,0.3176 -0.07165,0.48217c0.47668,-0.12226 0.82102,-0.01493 1.07301,0.31754c0.21906,0.29159 0.25233,0.69717 0.06045,1.01043c-0.27537,0.4361 -0.67201,0.54939 -1.1747,0.40305c0.12125,0.32279 0.11794,0.619 -0.0339,0.9278c0.48824,-0.1276 0.85568,-0.03095 1.11752,0.35308c0.21285,0.30848 0.20608,0.71856 -0.02496,1.00784c-0.31454,0.4121 -0.72634,0.46226 -1.19883,0.25985c0.38945,0.87228 -0.33038,1.68234 -1.22899,1.43847c0.10433,0.31658 0.06099,0.61727 -0.10776,0.91984c0.54069,-0.1659 0.90192,-0.05235 1.1415,0.31393c0.2013,0.31382 0.15449,0.72839 -0.09343,1.01146c-0.2595,0.28842 -0.6606,0.36168 -1.0032,0.19741c-0.21892,-0.10923 -0.39071,-0.2683 -0.42917,-0.5031c-0.03311,-0.22324 -0.01461,-0.45631 -0.01476,-0.63866c-0.24014,0.02688 -0.52565,0.04669 -0.76581,0.07358c-0.03091,0.26689 -0.07337,0.5391 -0.11585,0.81134c0.51669,-0.12675 0.87793,-0.0132 1.0837,0.34067c0.20043,0.34228 0.15363,0.75684 -0.12276,1.03905c-0.27019,0.2653 -0.68821,0.33236 -1.02994,0.13962c-0.38089,-0.21671 -0.48435,-0.56176 -0.33455,-1.17831c-0.28898,0.13368 -0.58071,0.17039 -0.89658,0.06391c0.0857,0.36729 0.0308,0.67332 -0.17176,0.96347c0.45702,-0.22544 0.86537,-0.16173 1.13427,0.17695c0.24132,0.30934 0.23368,0.74788 -0.02047,1.04786c-0.26572,0.30532 -0.69527,0.37773 -1.04236,0.17343c-0.21805,-0.1377 -0.37208,-0.31903 -0.38741,-0.56453c-0.02155,-0.22859 0.05387,-0.45994 0.07685,-0.65297c-0.28536,0.20215 -0.63936,0.22557 -1.01664,0.07734c0.12604,0.72752 -0.19732,1.24192 -0.80304,1.29758c-0.2686,0.02602 -0.51686,-0.05561 -0.71625,-0.24402c-0.29376,-0.27106 -0.35187,-0.60901 -0.27299,-0.95421c-0.26774,-0.00244 -0.50702,-0.00402 -0.75786,-0.00025c0.02372,0.71871 -0.33169,1.16376 -0.92499,1.18561c-0.26239,0.00911 -0.49909,-0.07785 -0.69315,-0.25471c-0.29376,-0.27107 -0.35185,-0.60903 -0.28989,-0.96043c-0.26154,-0.01935 -0.51772,-0.02715 -0.76235,-0.04029c0.08398,0.42422 -0.04115,0.79081 -0.42432,1.02419c-0.34229,0.20044 -0.707,0.20073 -1.03009,-0.04272c-0.40141,-0.29142 -0.46313,-0.69789 -0.3123,-1.16055c-0.52739,0.10363 -0.56741,0.1081 -1.02835,-0.09965c0.18367,0.51843 0.09237,0.89743 -0.26235,1.13168c-0.34315,0.2289 -0.76392,0.19899 -1.04613,-0.0774c-0.29377,-0.27106 -0.34928,-0.6944 -0.15654,-1.03614c0.22828,-0.38625 0.59023,-0.48349 1.21126,-0.29367c-0.19059,-0.29072 -0.2104,-0.57623 -0.13947,-0.84759c-0.28378,-0.03714 -0.56756,-0.07423 -0.83445,-0.10515c0.12847,0.45978 0.01491,0.82101 -0.35137,1.06059c-0.30762,0.18439 -0.72838,0.1545 -1.0061,-0.08187c-0.2884,-0.25949 -0.39016,-0.66147 -0.23123,-1.01563c0.10389,-0.23047 0.26297,-0.40228 0.50398,-0.45763c0.21789,-0.04466 0.45096,-0.02618 0.64486,-0.03168c-0.02155,-0.22859 -0.04221,-0.48564 -0.0691,-0.72578c-0.23842,-0.03004 -0.51066,-0.0725 -0.76597,-0.10876c0.10363,0.52739 -0.00906,0.86015 -0.38603,1.07663c-0.33608,0.18351 -0.72217,0.13758 -1.00525,-0.11036c-0.28307,-0.24794 -0.37325,-0.65526 -0.20897,-0.99786c0.10922,-0.21891 0.2683,-0.39071 0.49775,-0.44072c0.21789,-0.04465 0.45095,-0.02618 0.66799,-0.04236c-0.0143,-0.09162 -0.06692,-0.23567 -0.07414,-0.37265c-0.00724,-0.13698 0.02556,-0.27844 0.02903,-0.39231c-0.20995,-0.02917 -0.42611,-0.04146 -0.62984,-0.08754c-0.12455,-0.02658 -0.23582,-0.11543 -0.3533,-0.18738zM301.70721,213.84766c-0.25445,-0.06472 -0.50356,-0.11788 -0.74732,-0.15948c0.12384,0.23741 0.15522,0.51757 0.03269,0.79876c0.24016,-0.02689 0.46874,-0.04843 0.68041,-0.07617c0.01141,-0.1877 0.02902,-0.3923 0.03422,-0.56309zM309.75075,209.24306c0.04696,-0.23219 0.08769,-0.4475 0.13998,-0.66814c-0.25965,0.10607 -0.53894,0.10898 -0.79701,-0.02424c0.0331,0.22324 0.06619,0.44648 0.10465,0.68128c0.17078,0.00519 0.37004,0.01125 0.55239,0.0111zM316.98395,219.4806c-0.0052,0.17078 -0.01661,0.35849 -0.01646,0.54084c0.2153,0.04073 0.4475,0.08771 0.63433,0.12757c-0.00998,-0.23394 -0.03065,-0.49099 -0.03443,-0.74182c-0.16011,0.01793 -0.3718,0.04569 -0.58347,0.07344zM313.12716,210.08081c0.01793,0.16011 0.03498,0.34865 0.05204,0.53722c0.17613,0.01676 0.35228,0.0335 0.52307,0.0387c0.04073,-0.21531 0.08148,-0.4306 0.11599,-0.62897c-0.21703,0.0162 -0.46252,0.03152 -0.69111,0.05306zM301.552,219.7008c-0.00636,-0.16544 -0.01273,-0.33088 -0.00132,-0.51858c-0.18683,-0.03988 -0.37986,-0.06285 -0.54979,-0.0965c-0.01847,0.23306 -0.03698,0.46613 -0.05545,0.6992c0.17166,-0.02328 0.39489,-0.05638 0.60657,-0.08413zM305.20017,210.47795c0.16545,-0.00636 0.33089,-0.01274 0.50789,-0.02444c0.02831,-0.18148 0.04506,-0.35762 0.06716,-0.52219c-0.21618,-0.01226 -0.44302,-0.04766 -0.64762,-0.06528c0.01706,0.18857 0.04481,0.40024 0.07256,0.61193zM317.0529,216.8387c0.00636,0.16545 0.00117,0.33623 -0.01559,0.51237c0.19305,0.02296 0.37986,0.06285 0.54444,0.08494c0.01227,-0.21617 0.01921,-0.44388 0.02613,-0.6716c-0.17166,0.02328 -0.37178,0.04568 -0.555,0.07429zM315.78463,212.82274c0.00102,0.15388 0.00739,0.31933 0.0191,0.49633c0.16458,0.02211 0.34072,0.03886 0.5053,0.06095c0.01761,-0.20461 0.0468,-0.41456 0.06441,-0.61915c-0.18857,0.01707 -0.37713,0.03412 -0.5888,0.06187zM306.72953,224.64481c-0.14768,-0.01588 -0.31845,-0.02108 -0.48925,-0.02628c-0.02831,0.18147 -0.06285,0.37986 -0.09116,0.56135c0.20546,-0.01084 0.42785,-0.01548 0.63332,-0.02632c-0.01258,-0.14855 -0.03584,-0.32019 -0.0529,-0.50876zM312.11782,225.28162c-0.02326,-0.17165 -0.04032,-0.36022 -0.06273,-0.56034c-0.14853,0.01259 -0.30777,0.00204 -0.47321,0.00841c-0.0221,0.16458 -0.05042,0.34607 -0.07251,0.51065c0.20461,0.01762 0.42076,0.02989 0.60845,0.0413zM301.55953,217.01712c0.01054,-0.15924 0.00953,-0.31313 0.02007,-0.47235c-0.18149,-0.02832 -0.36831,-0.06819 -0.53288,-0.09028c0.0055,0.19391 0.00478,0.40472 0.00406,0.61554c0.1601,-0.01792 0.33175,-0.04119 0.50875,-0.0529zM302.44968,212.47988c0.01707,0.18857 0.02792,0.39404 0.05032,0.59415c0.13697,-0.00723 0.30242,-0.01358 0.46252,-0.03152c0.01054,-0.15924 0.03798,-0.31225 0.04852,-0.47148c-0.18147,-0.02832 -0.37986,-0.06285 -0.56135,-0.09116zM314.49194,211.48422c0.00724,0.13698 0.02516,0.29708 0.01996,0.46787c0.15924,0.01054 0.32381,0.03264 0.47148,0.04852c0.03453,-0.1984 0.05748,-0.39144 0.0858,-0.57292c-0.177,0.01171 -0.37713,0.03411 -0.57725,0.05652zM304.3188,211.72757c0.01054,-0.15925 0.02644,-0.30691 0.04231,-0.45458c-0.18768,-0.01142 -0.36918,-0.03973 -0.54531,-0.05648c0.02326,0.17165 0.03499,0.34865 0.05205,0.53722c0.13698,-0.00723 0.28551,-0.01981 0.45095,-0.02617zM315.70509,220.87198c-0.02124,0.13611 -0.03091,0.26689 -0.04059,0.39765c0.16458,0.02209 0.31761,0.04955 0.48218,0.07164c-0.00636,-0.16544 -0.01275,-0.33088 -0.0191,-0.49632c-0.13697,0.00723 -0.27394,0.01446 -0.42249,0.02704zM309.41452,225.17092c-0.02413,-0.1432 -0.03672,-0.29173 -0.03774,-0.44561c-0.14232,-0.00433 -0.26773,-0.00244 -0.41006,-0.00678c-0.02745,0.15301 -0.04333,0.3007 -0.06458,0.43681c0.17078,0.00519 0.34158,0.0104 0.51236,0.01559zM302.77763,220.62129c-0.1361,-0.02124 -0.26689,-0.03091 -0.403,-0.05215c-0.01054,0.15924 -0.02643,0.30691 -0.03697,0.46613c0.14853,-0.01259 0.28551,-0.0198 0.44561,-0.03774c-0.00722,-0.13698 -0.00377,-0.25084 -0.00565,-0.37626zM312.95281,223.87104c0.15303,0.02744 0.31225,0.038 0.45993,0.05389c-0.01258,-0.14855 -0.01981,-0.28552 -0.03774,-0.44561c-0.10851,0.00809 -0.23394,0.00999 -0.37091,0.01721c-0.00967,0.13077 -0.02469,0.24996 -0.05127,0.37451zM304.9391,223.747c0.14855,-0.01258 0.29707,-0.02515 0.45095,-0.02617c-0.00809,-0.10852 -0.02155,-0.22859 -0.02877,-0.36556c-0.13077,-0.00968 -0.24462,-0.01314 -0.36384,-0.02816c-0.02124,0.13611 -0.04248,0.27223 -0.05836,0.4199zM314.72507,222.18127c-0.11387,-0.00347 -0.22238,0.00463 -0.3478,0.00651c-0.01502,0.11922 -0.03004,0.23843 -0.03971,0.36918c0.1361,0.02124 0.27222,0.04248 0.4199,0.05836c-0.01258,-0.14855 -0.0198,-0.28551 -0.03238,-0.43406zM310.96152,210.46511c0.02124,-0.13611 0.03004,-0.2384 0.06197,-0.3514c-0.14232,-0.00433 -0.26773,-0.00245 -0.42162,-0.00143c0.0081,0.10851 0.0162,0.21704 0.02963,0.3371c0.10231,0.00881 0.21617,0.01226 0.33002,0.01574zM307.91458,210.03626c0.00189,0.12541 0.02154,0.22859 0.02342,0.35401c0.11387,0.00347 0.22773,0.00692 0.34159,0.0104c0.01502,-0.11922 0.03539,-0.22685 0.05041,-0.34606c-0.14232,-0.00433 -0.27308,-0.01399 -0.41541,-0.01833zM304.03478,222.00432c-0.11922,-0.01502 -0.22152,-0.02383 -0.31846,-0.02108c-0.01502,0.11921 -0.02469,0.24998 -0.04593,0.38608c0.12006,-0.01344 0.24015,-0.0269 0.37713,-0.03411c-0.00811,-0.10853 -0.01621,-0.21703 -0.01275,-0.33089zM316.1804,215.92324c-0.00188,-0.12542 0.00692,-0.22772 0.02816,-0.36384c-0.10851,0.0081 -0.20546,0.01084 -0.31398,0.01894c0.00275,0.09695 0.00016,0.18235 -0.0033,0.29621c0.09074,0.01415 0.18148,0.0283 0.28913,0.04867zM302.50098,215.29068c-0.00347,0.11387 -0.00072,0.21082 0.00116,0.33623c0.09695,-0.00275 0.17702,-0.01171 0.27397,-0.01446c0.00881,-0.10231 0.01141,-0.1877 0.02021,-0.29c-0.10231,-0.00881 -0.18148,-0.0283 -0.29534,-0.03178zM315.84456,218.53423c0.09074,0.01415 0.16992,0.03366 0.27843,0.02556c-0.00809,-0.10852 0.00072,-0.21082 0.00418,-0.32467c-0.0916,0.0143 -0.17166,0.02327 -0.26861,0.02602c-0.0088,0.10231 -0.0114,0.1877 -0.01399,0.27309zM302.505,217.96901c-0.00881,0.10231 -0.01142,0.1877 -0.01488,0.30156c0.08004,-0.00896 0.14854,-0.01259 0.22858,-0.02154c-0.00895,-0.08005 -0.00101,-0.1539 0.00159,-0.23929c-0.07383,-0.00793 -0.1361,-0.02123 -0.2153,-0.04072zM310.62022,223.56079c-0.0685,0.00361 -0.12541,0.00187 -0.1939,0.00549c-0.00708,0.04538 -0.02036,0.10765 -0.03365,0.16994c0.07382,0.00793 0.14766,0.01589 0.23306,0.01848c-0.00362,-0.06849 -0.00187,-0.1254 -0.00549,-0.1939zM307.71611,223.6833c0.08539,0.00259 0.15388,-0.00102 0.23927,0.00157c0.05056,-0.16372 -0.04017,-0.17787 -0.18872,-0.16529c-0.02398,0.03916 -0.03107,0.08452 -0.05057,0.16371zM306.70352,211.63482c0.05245,-0.03829 0.11646,-0.08194 0.18047,-0.12557c-0.01071,-0.02312 -0.01604,-0.03467 -0.02675,-0.05779c-0.06227,-0.01329 -0.1361,-0.02125 -0.20994,-0.02918c0.0036,0.0685 0.0081,0.10852 0.00637,0.16544c0.02225,0.01778 0.0276,0.02934 0.04984,0.04711z"/><path d="M310.05713,226.71189c0.42769,-0.19783 0.91797,-0.01767 1.11045,0.39846c0.20404,0.41079 0.01767,0.91797 -0.39846,1.11045c-0.41078,0.20404 -0.91797,0.01767 -1.11045,-0.39846c-0.19782,-0.42769 -0.02923,-0.91262 0.39846,-1.11044z"/><path d="M308.55329,227.07074c0.19782,0.4277 0.00611,0.92331 -0.41537,1.10423c-0.41613,0.19249 -0.91176,0.00077 -1.10423,-0.41536c-0.19249,-0.41613 -0.00077,-0.91177 0.41536,-1.10424c0.42769,-0.19782 0.90641,-0.01231 1.10423,0.41538z"/><path d="M300.64971,221.4512c0.03209,0.06936 0.08194,0.11645 0.12022,0.16891c0.188,0.37611 0.07186,0.82273 -0.2713,1.05163c-0.35471,0.23423 -0.80308,0.17503 -1.08443,-0.12984c-0.28135,-0.30486 -0.2844,-0.76653 -0.02404,-1.0834c0.26572,-0.30532 0.72375,-0.37686 1.07618,-0.16101c0.05606,0.0302 0.10679,0.04883 0.16285,0.07903c0.0107,0.02311 0.00982,0.05159 0.02052,0.07469z"/><path d="M318.06381,221.63321c0.40456,-0.18713 0.88328,-0.00162 1.06421,0.41985c0.18713,0.40457 0.00162,0.88328 -0.40294,1.07041c-0.40991,0.17558 -0.88862,-0.00994 -1.07576,-0.4145c-0.17557,-0.40991 0.00995,-0.88863 0.4145,-1.07576z"/><path d="M299.57253,215.08765c0.18713,0.40456 0.00785,0.86638 -0.40828,1.05885c-0.40456,0.18713 -0.86638,0.00783 -1.05351,-0.39674c-0.17558,-0.40992 0.00373,-0.87172 0.40829,-1.05885c0.40456,-0.18713 0.86637,-0.00783 1.0535,0.39674z"/><path d="M301.24104,209.50281c0.39922,-0.1987 0.87259,-0.02474 1.05972,0.37983c0.18178,0.39301 0.02474,0.87259 -0.37983,1.05972c-0.40457,0.18714 -0.87259,0.02476 -1.05972,-0.37982c-0.18713,-0.40457 -0.02475,-0.8726 0.37982,-1.05973z"/><path d="M299.52136,217.70731c0.18713,0.40457 0.01318,0.87795 -0.39139,1.06508c-0.40456,0.18713 -0.87793,0.01319 -1.06506,-0.39138c-0.18713,-0.40456 -0.01319,-0.87794 0.39138,-1.06507c0.40456,-0.18713 0.87794,-0.01319 1.06507,0.39138z"/><path d="M303.63305,208.60684c0.19869,0.39923 0.02474,0.87259 -0.37983,1.05972c-0.39301,0.18178 -0.87793,0.01319 -1.06506,-0.39138c-0.18713,-0.40456 -0.01319,-0.87794 0.39138,-1.06507c0.40456,-0.18713 0.87258,-0.02474 1.05351,0.39673z"/><path d="M317.66111,211.26718c-0.39836,0.17024 -0.87172,-0.00372 -1.0535,-0.39673c-0.17558,-0.40992 0.00371,-0.87172 0.39673,-1.05351c0.39836,-0.17024 0.86016,0.00906 1.04195,0.40207c0.18178,0.39301 -0.00373,0.87172 -0.38517,1.04816z"/><path d="M315.70541,208.49534c0.40457,-0.18713 0.8726,-0.02476 1.04817,0.38516c0.18178,0.39301 -0.00907,0.86016 -0.40208,1.04195c-0.39302,0.18179 -0.84948,0.01406 -1.03127,-0.37896c-0.18178,-0.39301 -0.00785,-0.86637 0.38517,-1.04816z"/><path d="M320.49462,218.1514c0.18178,0.39301 0.0194,0.86102 -0.40208,1.04195c-0.39302,0.18179 -0.84948,0.01406 -1.03127,-0.37895c-0.18713,-0.40456 -0.01941,-0.86103 0.38516,-1.04816c0.40456,-0.18713 0.86103,-0.0194 1.04816,0.38517z"/><path d="M300.93378,211.17446c0.18178,0.39301 0.01405,0.84948 -0.37897,1.03127c-0.38145,0.17643 -0.84946,0.01405 -1.02591,-0.3674c-0.17645,-0.38146 -0.01407,-0.84948 0.37895,-1.03127c0.39301,-0.18178 0.86104,-0.0194 1.02593,0.3674z"/><path d="M305.49153,228.06599c-0.39302,0.18179 -0.84947,0.01406 -1.03126,-0.37895c-0.17644,-0.38145 -0.0087,-0.8379 0.3674,-1.02591c0.39301,-0.18178 0.86103,-0.0194 1.04281,0.37361c0.17645,0.38146 0.01406,0.84948 -0.37896,1.03127z"/><path d="M319.13556,216.18405c-0.18178,-0.39301 -0.02561,-0.84412 0.36739,-1.02592c0.39301,-0.18178 0.84413,-0.02561 1.03212,0.3505c0.17644,0.38145 0.02561,0.84413 -0.36204,1.03747c-0.39301,0.18178 -0.84413,0.0256 -1.03747,-0.36206z"/><path d="M317.9341,212.2214c-0.188,-0.37611 -0.02561,-0.84412 0.3505,-1.03212c0.37611,-0.188 0.83256,-0.02027 1.02057,0.35584c0.188,0.3761 0.03182,0.82723 -0.34429,1.01523c-0.38767,0.19335 -0.83343,0.04873 -1.02677,-0.33894z"/><path d="M313.35047,228.21953c-0.36989,0.1711 -0.8379,0.00871 -1.01435,-0.37274c-0.17644,-0.38145 -0.01491,-0.821 0.36119,-1.00901c0.38767,-0.19335 0.84412,-0.02561 1.02057,0.35584c0.18178,0.39301 0.0256,0.84412 -0.3674,1.02592z"/><path d="M304.93692,207.33021c0.17644,0.38145 0.02027,0.83255 -0.37274,1.01435c-0.38145,0.17643 -0.83791,0.00871 -1.01436,-0.37274c-0.17645,-0.38146 -0.01491,-0.82102 0.36119,-1.00902c0.38145,-0.17643 0.84946,-0.01406 1.02591,0.3674z"/><path d="M308.9004,206.10025c0.1711,0.36989 0.00338,0.82635 -0.37273,1.01435c-0.37524,0.15954 -0.8317,-0.00819 -1.00279,-0.37809c-0.15954,-0.37523 -0.00337,-0.82636 0.36653,-0.99745c0.38145,-0.17643 0.83257,-0.02026 1.00902,0.3612z"/><path d="M310.16764,206.77699c-0.17645,-0.38146 -0.00337,-0.82636 0.36119,-1.00902c0.37524,-0.15954 0.82635,-0.00337 0.99745,0.36654c0.17644,0.38145 0.00871,0.83791 -0.36119,1.00901c-0.36989,0.17111 -0.821,0.01491 -0.99744,-0.36654z"/><path d="M299.43464,220.37146c0.1711,0.3699 -0.00199,0.8148 -0.38344,0.99124c-0.37524,0.15953 -0.8148,-0.00199 -0.9859,-0.37188c-0.1711,-0.36989 -0.01491,-0.82101 0.36654,-0.99745c0.38145,-0.17644 0.82102,-0.01491 1.0028,0.37809z"/><path d="M314.07377,208.1836c-0.18178,-0.39301 -0.01491,-0.82102 0.37188,-0.98591c0.38145,-0.17644 0.80945,-0.00956 0.9859,0.37188c0.1711,0.3699 0.00957,0.80945 -0.36032,0.98055c-0.38145,0.17643 -0.82101,0.01491 -0.99745,-0.36654z"/><path d="M319.05633,221.41267c-0.17644,-0.38145 -0.01491,-0.82101 0.35497,-0.9921c0.36989,-0.17111 0.79254,-0.01579 0.9752,0.34875c0.18267,0.36454 0.02647,0.81567 -0.34341,0.98676c-0.37611,0.18801 -0.81566,0.02647 -0.98675,-0.34341z"/><path d="M299.56591,212.49474c0.15419,0.36367 -0.00111,0.78633 -0.33099,0.95294c-0.36454,0.18267 -0.80409,0.02114 -0.97519,-0.34875c-0.1711,-0.36989 -0.01578,-0.79254 0.34255,-0.95829c0.36988,-0.1711 0.79252,-0.01578 0.96363,0.35411z"/><path d="M309.38872,229.39254c-0.35834,0.16575 -0.77564,0.022 -0.94138,-0.33633c-0.1773,-0.35299 -0.03356,-0.77029 0.31943,-0.9476c0.35299,-0.17729 0.78719,-0.02734 0.95294,0.331c0.16576,0.35834 0.022,0.77563 -0.33099,0.95293z"/><path d="M319.58709,212.57939c0.36989,-0.1711 0.78718,-0.02734 0.95828,0.34255c0.16574,0.35834 0.02199,0.77563 -0.33634,0.94137c-0.36989,0.1711 -0.78719,0.02734 -0.95829,-0.34255c-0.17731,-0.35298 -0.03355,-0.77029 0.33635,-0.94137z"/><path d="M314.08196,206.22932c0.16574,0.35835 0.0282,0.75873 -0.33014,0.92448c-0.34677,0.16041 -0.74715,0.02286 -0.90756,-0.32391c-0.16041,-0.34677 -0.01132,-0.75251 0.31855,-0.91913c0.34142,-0.17196 0.75872,-0.02821 0.91913,0.31856z"/><path d="M305.8706,206.9825c-0.34677,0.16041 -0.75251,0.01131 -0.91827,-0.34702c-0.15506,-0.33521 -0.00595,-0.74095 0.34082,-0.90136c0.34677,-0.16041 0.75252,-0.0113 0.90757,0.32392c0.1773,0.35299 0.01665,0.76407 -0.33012,0.92448z"/><path d="M306.15243,228.069c0.34678,-0.16041 0.75253,-0.0113 0.90758,0.32392c0.16041,0.34678 0.01664,0.76408 -0.33013,0.92449c-0.3352,0.15505 -0.74716,0.02285 -0.90757,-0.32392c-0.16574,-0.35834 -0.01664,-0.76408 0.33013,-0.92449z"/><path d="M299.67697,224.02004c0.32986,-0.16661 0.73561,-0.01751 0.89601,0.32926c0.15506,0.33521 0.01752,0.7356 -0.31769,0.89067c-0.32986,0.16661 -0.73561,0.01751 -0.89601,-0.32926c-0.16041,-0.34678 -0.01752,-0.7356 0.31769,-0.89067z"/><path d="M311.42555,228.18379c0.33521,-0.15507 0.72406,-0.01217 0.89067,0.3177c0.17196,0.34143 0.02287,0.74716 -0.3239,0.90757c-0.33522,0.15505 -0.73563,0.01751 -0.89067,-0.3177c-0.17196,-0.34143 -0.02285,-0.74716 0.32391,-0.90757z"/><path d="M298.11308,216.42226c0.15506,0.33521 0.01218,0.72405 -0.31769,0.89067c-0.34677,0.16041 -0.74717,0.02286 -0.90758,-0.32391c-0.15506,-0.33521 -0.01751,-0.73561 0.3177,-0.89067c0.34143,-0.17196 0.75872,-0.02822 0.90757,0.32391z"/><path d="M300.98123,225.3532c0.33521,-0.15507 0.74096,-0.00595 0.89602,0.32926c0.15505,0.33521 0.00594,0.74097 -0.34082,0.90137c-0.34678,0.16041 -0.75252,0.0113 -0.90137,-0.34083c-0.1435,-0.34057 0.01096,-0.73474 0.34617,-0.8898z"/><path d="M321.40604,217.78595c-0.32365,0.14971 -0.72941,0.00061 -0.87911,-0.32305c-0.15506,-0.33521 -0.01217,-0.72406 0.30614,-0.88532c0.33522,-0.15505 0.73562,-0.01751 0.89067,0.3177c0.16041,0.34678 0.00595,0.74096 -0.3177,0.89067z"/><path d="M317.61204,225.99575c0.15506,0.33521 0.00596,0.74095 -0.32926,0.89601c-0.33522,0.15506 -0.72407,0.01217 -0.87911,-0.32305c-0.16661,-0.32987 -0.01217,-0.72404 0.32304,-0.8791c0.33521,-0.15507 0.72406,-0.01218 0.88532,0.30613z"/><path d="M317.74221,225.276c-0.14971,-0.32365 -0.00683,-0.71249 0.32304,-0.8791c0.34678,-0.16041 0.74096,-0.00595 0.89602,0.32926c0.13815,0.329 -0.00475,0.71785 -0.33996,0.87291c-0.33522,0.15507 -0.72404,0.01216 -0.8791,-0.32305z"/><path d="M296.85975,219.59798c-0.14971,-0.32366 -0.00683,-0.7125 0.31148,-0.87377c0.32366,-0.14971 0.7125,-0.00682 0.86221,0.31683c0.15506,0.33522 0.01216,0.72405 -0.32305,0.87911c-0.32365,0.14971 -0.70093,0.00147 -0.85064,-0.32218z"/><path d="M315.93891,228.1729c-0.32366,0.14971 -0.7125,0.00682 -0.86755,-0.3284c-0.14971,-0.32366 -0.00146,-0.70093 0.32219,-0.85064c0.32366,-0.14971 0.7125,-0.00683 0.86221,0.31682c0.14437,0.31211 0.00681,0.7125 -0.31684,0.86221z"/><path d="M301.95622,227.5824c-0.14971,-0.32365 -0.01839,-0.70714 0.29993,-0.86842c0.33522,-0.15506 0.70715,-0.0184 0.86841,0.29992c0.15505,0.33521 0.02907,0.73027 -0.30614,0.88532c-0.32366,0.14971 -0.7125,0.00682 -0.86221,-0.31683z"/><path d="M320.8033,219.24346c0.32365,-0.14971 0.72406,-0.01218 0.86221,0.31683c0.13279,0.31745 -0.01544,0.69472 -0.32753,0.83908c-0.329,0.13814 -0.70628,-0.01008 -0.85064,-0.32218c-0.14437,-0.31211 -0.00148,-0.70093 0.31597,-0.83373z"/><path d="M297.29049,213.49112c0.3121,-0.14437 0.69558,-0.01303 0.84529,0.31063c0.14971,0.32366 0.00147,0.70094 -0.32218,0.85065c-0.32365,0.14971 -0.69558,0.01303 -0.84529,-0.31063c-0.13814,-0.329 -0.00147,-0.70094 0.32218,-0.85065z"/><path d="M298.41188,222.71083c0.32365,-0.14971 0.69557,-0.01305 0.83994,0.29906c0.16127,0.31831 0.02994,0.70181 -0.29371,0.85152c-0.31831,0.16128 -0.70715,0.01839 -0.85686,-0.30528c-0.1497,-0.32364 -0.01303,-0.69558 0.31063,-0.84529z"/><path d="M321.44119,215.13161c-0.31745,0.1328 -0.68938,-0.00388 -0.83994,-0.29907c-0.14437,-0.3121 -0.01304,-0.69557 0.29906,-0.83994c0.32365,-0.14971 0.69558,-0.01304 0.84529,0.31062c0.14971,0.32365 0.00769,0.68404 -0.30442,0.82839z"/><path d="M320.25353,223.45487c0.14971,0.32365 0.00769,0.68403 -0.30441,0.82838c-0.3121,0.14437 -0.68402,0.0077 -0.82838,-0.30441c-0.14971,-0.32365 -0.00683,-0.71249 0.31062,-0.84529c0.31745,-0.1328 0.67782,0.00921 0.82218,0.32131z"/><path d="M310.1118,204.86636c0.15591,0.30675 0.02458,0.69024 -0.29906,0.83995c-0.3121,0.14437 -0.68404,0.0077 -0.82839,-0.30441c-0.14437,-0.3121 -0.00768,-0.68402 0.30442,-0.82838c0.32365,-0.14972 0.69024,-0.0246 0.82304,0.29284z"/><path d="M300.85779,208.61361c0.14437,0.31211 0.00769,0.68403 -0.30441,0.82839c-0.31745,0.13281 -0.67782,-0.00922 -0.81684,-0.30976c-0.14437,-0.31211 -0.0139,-0.66713 0.2982,-0.81149c0.3121,-0.14437 0.67247,-0.00234 0.82304,0.29285z"/><path d="M318.41147,208.703c0.3121,-0.14437 0.66712,-0.01391 0.81149,0.29819c0.15591,0.30675 0.01304,0.69559 -0.30441,0.82839c-0.31745,0.1328 -0.67782,-0.00922 -0.81684,-0.30976c-0.13281,-0.31745 -0.00233,-0.67247 0.30977,-0.81683z"/><path d="M301.37861,207.03963c0.30055,-0.13902 0.67247,-0.00234 0.81149,0.2982c0.14437,0.3121 0.00234,0.67246 -0.30976,0.81683c-0.31745,0.13281 -0.66091,-0.003 -0.80528,-0.3151c-0.13902,-0.30054 -0.00235,-0.67247 0.30354,-0.79992z"/><path d="M298.40959,210.4196c-0.13902,-0.30054 -0.00856,-0.65556 0.30354,-0.79992c0.30054,-0.13901 0.67782,0.00921 0.80527,0.3151c0.12745,0.30588 -0.003,0.66091 -0.3089,0.78836c-0.30589,0.12745 -0.6609,-0.003 -0.79992,-0.30354z"/><path d="M307.19394,205.62667c-0.2952,0.15058 -0.65021,0.02011 -0.80079,-0.27509c-0.15592,-0.30676 -0.01925,-0.67868 0.28128,-0.81769c0.30054,-0.13902 0.66713,-0.0139 0.80614,0.28664c0.13901,0.30054 0.00855,0.65557 -0.28664,0.80614z"/><path d="M317.93025,207.66267c0.13902,0.30054 0.00856,0.65556 -0.29198,0.79458c-0.3121,0.14435 -0.66711,0.0139 -0.80613,-0.28664c-0.13902,-0.30054 -0.00857,-0.65556 0.29197,-0.79458c0.3121,-0.14435 0.66712,-0.0139 0.80614,0.28664z"/><path d="M311.93065,204.64246c0.28898,-0.13367 0.65555,-0.00856 0.80614,0.28664c0.15057,0.29519 0.00235,0.67247 -0.29819,0.81149c-0.30589,0.12745 -0.66091,-0.003 -0.79993,-0.30354c-0.13901,-0.30054 -0.00855,-0.65556 0.29199,-0.79458z"/><path d="M303.57644,228.08183c0.3121,-0.14437 0.65556,-0.00855 0.79458,0.29199c0.14437,0.3121 0.0201,0.6502 -0.29198,0.79457c-0.3121,0.14437 -0.65021,0.02012 -0.79458,-0.29197c-0.13901,-0.30054 -0.00856,-0.65556 0.29198,-0.79458z"/><path d="M314.56296,229.38466c-0.30054,0.13901 -0.63866,0.01476 -0.78388,-0.26887c-0.13902,-0.30055 -0.00856,-0.65557 0.28043,-0.78923c0.30055,-0.13902 0.65557,-0.00856 0.78923,0.28043c0.13368,0.28898 0.01477,0.63866 -0.28577,0.77767z"/><path d="M320.47563,210.34418c0.13902,0.30054 0.02011,0.65022 -0.28043,0.78924c-0.2952,0.15058 -0.64486,0.03168 -0.78388,-0.26886c-0.13902,-0.30054 -0.02011,-0.65021 0.28043,-0.78923c0.2952,-0.15058 0.65022,-0.02012 0.78388,0.26886z"/><path d="M297.16371,221.40787c0.28898,-0.13368 0.63246,0.00213 0.76613,0.29111c0.13366,0.28898 -0.00214,0.63246 -0.29112,0.76612c-0.30589,0.12746 -0.62711,0.00942 -0.76613,-0.29111c-0.13366,-0.28898 -0.00941,-0.6271 0.29112,-0.76613z"/><path d="M303.21439,206.82195c-0.28898,0.13367 -0.62711,0.00942 -0.76077,-0.27956c-0.13366,-0.28898 -0.00941,-0.6271 0.27957,-0.76077c0.28898,-0.13367 0.62711,-0.00942 0.76077,0.27956c0.13902,0.30054 0.00941,0.6271 -0.27957,0.76077z"/><path d="M316.61446,206.33484c0.13366,0.28898 0.00941,0.6271 -0.27957,0.76076c-0.28898,0.13367 -0.62711,0.00942 -0.76077,-0.27956c-0.13366,-0.28897 -0.00941,-0.6271 0.27957,-0.76077c0.28898,-0.13367 0.62711,-0.00942 0.76077,0.27956z"/><path d="M308.25936,229.80267c0.12745,0.30589 -0.00214,0.63245 -0.29112,0.76612c-0.28898,0.13368 -0.63246,-0.00213 -0.76613,-0.29111c-0.13366,-0.28898 0.00214,-0.63246 0.29112,-0.76612c0.30054,-0.13902 0.62711,-0.00942 0.76613,0.29111z"/><path d="M310.87367,229.84229c0.13366,0.28898 0.00941,0.62711 -0.27956,0.76078c-0.28898,0.13367 -0.62712,0.00943 -0.76078,-0.27956c-0.13366,-0.28898 -0.00942,-0.62712 0.27957,-0.76078c0.30054,-0.13902 0.63867,-0.01476 0.76078,0.27956z"/><path d="M321.24935,222.93813c-0.27207,0.13989 -0.62176,0.02099 -0.75008,-0.25644c-0.13366,-0.28897 -0.02098,-0.62176 0.268,-0.75543c0.27207,-0.13989 0.62176,-0.02099 0.75008,0.25644c0.14523,0.28363 0.02097,0.62176 -0.26801,0.75543z"/><path d="M297.84426,211.95804c-0.27742,0.12833 -0.61018,0.01564 -0.7385,-0.26178c-0.12833,-0.27742 -0.01565,-0.61019 0.26177,-0.73851c0.28898,-0.13368 0.61019,-0.01565 0.73852,0.26177c0.12832,0.27742 0.01563,0.6102 -0.26179,0.73852z"/><path d="M295.94358,217.49594c0.26585,-0.12298 0.59327,-0.02186 0.72159,0.25558c0.12297,0.26586 0.00494,0.58708 -0.25557,0.7216c-0.26586,0.12297 -0.59327,0.02185 -0.7216,-0.25557c-0.12832,-0.2774 -0.02185,-0.59328 0.25557,-0.7216z"/><path d="M295.74539,215.58098c-0.13988,-0.27208 -0.01651,-0.58172 0.25558,-0.72159c0.27742,-0.12832 0.59862,-0.01029 0.72695,0.26713c0.11141,0.27121 0.00494,0.58708 -0.26092,0.71005c-0.27742,0.12832 -0.59327,0.02186 -0.7216,-0.25557z"/><path d="M320.75023,212.1817c-0.12832,-0.27743 -0.02184,-0.5933 0.23867,-0.72783c0.26587,-0.12298 0.60398,0.00127 0.72695,0.26714c0.12297,0.26586 0.01115,0.57017 -0.24936,0.70471c-0.27207,0.13989 -0.58793,0.03341 -0.71625,-0.24402z"/><path d="M304.08686,204.55208c0.2543,-0.11763 0.57552,0.00041 0.70471,0.24936c0.12297,0.26585 0.01116,0.57016 -0.2378,0.69935c-0.26052,0.13453 -0.59329,0.02184 -0.71626,-0.24402c-0.12919,-0.24895 -0.0165,-0.58172 0.24937,-0.7047z"/><path d="M322.62303,218.99109c-0.26585,0.12297 -0.57551,-0.00042 -0.69314,-0.25472c-0.11763,-0.2543 0.00041,-0.57551 0.26626,-0.69848c0.26585,-0.12297 0.57551,0.00041 0.69848,0.26627c0.11676,0.28277 0.00494,0.58708 -0.27161,0.68693z"/><path d="M305.35032,230.46067c-0.26585,0.12297 -0.58708,0.00493 -0.71005,-0.26092c-0.12297,-0.26585 -0.02272,-0.56482 0.2378,-0.69935c0.26052,-0.13453 0.58174,-0.0165 0.70471,0.24936c0.12297,0.26585 0.0165,0.58172 -0.23246,0.7109z"/><path d="M315.01548,205.69929c-0.26586,0.12297 -0.55862,0.00581 -0.68159,-0.26005c-0.11763,-0.2543 -0.0058,-0.5586 0.2485,-0.67623c0.2543,-0.11763 0.57551,0.00041 0.69314,0.25471c0.12297,0.26585 0.01116,0.57016 -0.26005,0.68157z"/><path d="M313.45244,229.92642c0.12297,0.26586 -0.00576,0.56394 -0.26541,0.67002c-0.26587,0.12298 -0.57017,0.01116 -0.68158,-0.26005c-0.11763,-0.2543 -0.00046,-0.54706 0.25384,-0.66469c0.26585,-0.12298 0.57551,0.00041 0.69314,0.25471z"/><path d="M322.93426,215.68987c0.10607,0.25964 -0.00576,0.56395 -0.27696,0.67536c-0.2543,0.11763 -0.54705,0.00046 -0.66468,-0.25384c-0.12297,-0.26586 -0.0058,-0.5586 0.26006,-0.68158c0.26585,-0.12297 0.5755,0.00042 0.68157,0.26006z"/><path d="M295.90843,220.15027c0.24274,-0.11229 0.54706,-0.00046 0.67089,0.23694c0.11228,0.24274 0.00666,0.53014 -0.23073,0.65399c-0.26051,0.13453 -0.55946,0.03426 -0.67709,-0.22004c-0.11763,-0.2543 -0.01737,-0.55326 0.23693,-0.67089z"/><path d="M299.07264,225.71683c0.11228,0.24274 0.00666,0.53016 -0.24764,0.64779c-0.24274,0.11228 -0.53014,0.00666 -0.64242,-0.23608c-0.11763,-0.25428 -0.00046,-0.54706 0.24228,-0.65933c0.24274,-0.11229 0.5417,-0.01202 0.64778,0.24762z"/><path d="M321.91337,221.33999c-0.11228,-0.24274 -0.00045,-0.54705 0.24228,-0.65933c0.23119,-0.10693 0.51859,-0.00132 0.64243,0.23607c0.11763,0.2543 0.01736,0.55326 -0.22538,0.66554c-0.24896,0.12919 -0.55326,0.01735 -0.65934,-0.24229z"/><path d="M308.47281,204.23529c-0.24274,0.11228 -0.53016,0.00667 -0.64244,-0.23607c-0.11228,-0.24274 0.0049,-0.5355 0.24764,-0.64777c0.24274,-0.11228 0.5355,0.0049 0.64778,0.24764c0.11228,0.24274 -0.00489,0.53549 -0.25297,0.63621z"/><path d="M310.69764,203.40262c0.24274,-0.11228 0.54171,-0.01201 0.65934,0.24229c0.11228,0.24274 -0.0049,0.53549 -0.24764,0.64777c-0.24274,0.11229 -0.53015,0.00667 -0.64243,-0.23607c-0.12384,-0.23739 -0.01201,-0.54171 0.23073,-0.65398z"/><path d="M299.70599,226.81308c0.24274,-0.11228 0.5417,-0.01202 0.63708,0.22452c0.12919,0.24894 0.02358,0.53635 -0.23072,0.65398c-0.24274,0.11228 -0.52479,0.01823 -0.63707,-0.22451c-0.11228,-0.24274 -0.02357,-0.53636 0.23073,-0.65399z"/><path d="M318.72512,227.43137c0.10694,0.23118 0.00132,0.51858 -0.22986,0.62552c-0.24274,0.11229 -0.52479,0.01823 -0.63707,-0.22452c-0.11228,-0.24274 -0.00667,-0.53015 0.23606,-0.64243c0.23117,-0.10692 0.52392,0.01025 0.63086,0.24142z"/><path d="M296.48521,213.17602c-0.23119,0.10693 -0.51859,0.00134 -0.63173,-0.21295c-0.12384,-0.23739 -0.02358,-0.53637 0.21917,-0.64865c0.24274,-0.11228 0.53015,-0.00666 0.64243,0.23607c0.11228,0.24274 0.01289,0.51324 -0.22986,0.62551z"/><path d="M319.42658,225.91415c0.24274,-0.11228 0.52479,-0.01823 0.63707,0.22452c0.11228,0.24274 0.00667,0.53015 -0.23606,0.64243c-0.23117,0.10693 -0.51858,0.00133 -0.62552,-0.22985c-0.11851,-0.22584 -0.01823,-0.5248 0.22452,-0.63708z"/><path d="M316.75575,228.48264c0.23119,-0.10693 0.50166,-0.00753 0.60861,0.22365c0.10694,0.23118 0.00133,0.51858 -0.22985,0.62552c-0.23119,0.10693 -0.51236,-0.0156 -0.6193,-0.24677c-0.09003,-0.22498 0.00937,-0.49546 0.24055,-0.6024z"/><path d="M322.09001,213.47036c-0.10694,-0.23118 -0.00132,-0.51858 0.22366,-0.60861c0.23119,-0.10693 0.51323,-0.01289 0.62551,0.22985c0.10694,0.23118 0.00754,0.50167 -0.2352,0.61395c-0.23653,0.09537 -0.50701,-0.00402 -0.61395,-0.23521z"/><path d="M297.76304,224.37211c0.10694,0.23118 0.0129,0.51324 -0.22899,0.59706c-0.23739,0.12385 -0.50789,0.02443 -0.62017,-0.21831c-0.10694,-0.23118 -0.00754,-0.50167 0.23521,-0.61395c0.23652,-0.09538 0.50701,0.00402 0.61395,0.2352z"/><path d="M301.3997,229.01853c-0.23119,0.10693 -0.50166,0.00753 -0.60861,-0.22365c-0.10694,-0.23118 -0.0191,-0.49632 0.20673,-0.61482c0.24274,-0.11228 0.52479,-0.01822 0.63173,0.21296c0.10692,0.23118 0.01288,0.51323 -0.22987,0.62551z"/><path d="M320.55215,225.2532c-0.10694,-0.23118 -0.00754,-0.50167 0.20053,-0.59792c0.23117,-0.10692 0.51322,-0.01288 0.62016,0.2183c0.10694,0.23118 -0.00403,0.50702 -0.22365,0.60862c-0.22497,0.09003 -0.49546,-0.00937 -0.59705,-0.22899z"/><path d="M309.4311,231.1831c0.1185,0.22585 0.01909,0.49632 -0.21209,0.60326c-0.23119,0.10693 -0.50166,0.00754 -0.60861,-0.22364c-0.10159,-0.21962 -0.01374,-0.48477 0.21744,-0.5917c0.22584,-0.1185 0.48476,-0.01375 0.60326,0.21208z"/><path d="M306.05454,203.55773c0.10159,0.21962 0.0022,0.49011 -0.21743,0.5917c-0.21963,0.10159 -0.47321,0.0084 -0.5748,-0.21123c-0.10159,-0.21962 -0.00219,-0.49011 0.21744,-0.5917c0.20807,-0.09624 0.4732,-0.0084 0.57479,0.21122z"/><path d="M313.33869,203.50005c0.20807,-0.09624 0.4732,-0.0084 0.57479,0.21122c0.10159,0.21962 0.0022,0.49011 -0.21743,0.5917c-0.21963,0.10159 -0.47321,0.00841 -0.5748,-0.21122c-0.10159,-0.21962 -0.00219,-0.49011 0.21744,-0.5917z"/><path d="M302.11309,230.10581c-0.10159,-0.21963 -0.00841,-0.47321 0.21122,-0.57479c0.20807,-0.09624 0.46165,-0.00306 0.5579,0.20501c0.10159,0.21962 0.0084,0.4732 -0.21122,0.57479c-0.21963,0.10159 -0.47321,0.00841 -0.5579,-0.20501z"/><path d="M299.1805,207.9301c-0.21963,0.10159 -0.46165,0.00306 -0.55789,-0.205c-0.10159,-0.21963 -0.00841,-0.47321 0.21122,-0.5748c0.21963,-0.10159 0.47856,0.00315 0.56859,0.22812c0.09625,0.20806 -0.00228,0.4501 -0.22191,0.55168z"/><path d="M311.82798,231.81443c-0.21962,0.10159 -0.46164,0.00306 -0.56323,-0.21656c-0.09624,-0.20807 -0.00841,-0.47321 0.21122,-0.5748c0.21963,-0.10159 0.467,0.00851 0.56859,0.22813c0.09003,0.22498 0.00306,0.46165 -0.21657,0.56323z"/><path d="M319.61276,208.17539c-0.10159,-0.21963 -0.01376,-0.48478 0.20587,-0.58637c0.20807,-0.09624 0.47856,0.00316 0.5748,0.21123c0.08469,0.21342 -0.00849,0.46699 -0.21657,0.56323c-0.20807,0.09624 -0.46165,0.00307 -0.5641,-0.1881z"/><path d="M306.58333,231.70052c-0.20272,0.1078 -0.46251,0.03152 -0.58101,-0.19432c-0.11314,-0.21429 -0.02531,-0.47943 0.19432,-0.58101c0.20807,-0.09624 0.46165,-0.00306 0.56946,0.19966c0.11315,0.21428 0.01997,0.46787 -0.18275,0.57567z"/><path d="M300.73023,206.06262c0.10159,0.21963 0.00841,0.47321 -0.21122,0.5748c-0.20807,0.09624 -0.46165,0.00305 -0.5579,-0.20501c-0.10159,-0.21962 -0.0084,-0.4732 0.21122,-0.57479c0.20807,-0.09624 0.46165,-0.00306 0.55789,0.205z"/><path d="M315.22204,230.38481c-0.10159,-0.21963 -0.00841,-0.47322 0.19966,-0.56946c0.20807,-0.09624 0.46165,-0.00306 0.55789,0.205c0.09624,0.20807 0.01461,0.4563 -0.19346,0.55255c-0.20807,0.09624 -0.45629,0.01462 -0.5641,-0.1881z"/><path d="M318.53749,206.24517c0.19651,-0.0909 0.44475,-0.00927 0.55256,0.19345c0.11315,0.21429 0.01997,0.46786 -0.18811,0.5641c-0.20807,0.09624 -0.4563,0.01461 -0.55255,-0.19345c-0.09624,-0.20807 -0.01462,-0.45631 0.1881,-0.5641z"/><path d="M298.04785,208.63643c0.09089,0.1965 0.00926,0.44476 -0.19346,0.55255c-0.20272,0.10779 -0.45094,0.02618 -0.55876,-0.17654c-0.10779,-0.20272 -0.02617,-0.45097 0.17655,-0.55876c0.20272,-0.1078 0.46786,-0.01996 0.57567,0.18276z"/><path d="M294.70435,216.27301c0.20272,-0.10779 0.4394,-0.02083 0.54721,0.1819c0.11315,0.21429 0.03152,0.46252 -0.18811,0.56411c-0.20807,0.09624 -0.4563,0.01461 -0.55255,-0.19346c-0.09624,-0.20807 -0.01462,-0.4563 0.19345,-0.55255z"/><path d="M324.12912,217.0596c0.09624,0.20807 0.01461,0.4563 -0.19346,0.55255c-0.20807,0.09624 -0.4501,-0.00229 -0.54099,-0.1988c-0.09624,-0.20807 -0.00926,-0.44476 0.18724,-0.53565c0.19116,-0.10245 0.42784,-0.01547 0.54721,0.1819z"/><path d="M296.22531,223.59596c-0.1965,0.09089 -0.43854,-0.00763 -0.54099,-0.1988c-0.09089,-0.1965 0.00228,-0.4501 0.1988,-0.54099c0.20807,-0.09624 0.45011,0.00228 0.54634,0.21035c0.09624,0.20807 0.00392,0.43319 -0.20415,0.52943z"/><path d="M320.90631,209.48545c-0.09089,-0.1965 0.00229,-0.45011 0.1988,-0.541c0.20807,-0.09624 0.46166,-0.00307 0.54635,0.21035c0.09624,0.20807 0.00392,0.43319 -0.20415,0.52944c-0.19651,0.0909 -0.43855,-0.00763 -0.541,-0.1988z"/><path d="M301.32189,205.15748c-0.09089,-0.19651 -0.00392,-0.4332 0.18725,-0.53565c0.21963,-0.10159 0.45631,-0.01462 0.55256,0.19345c0.09089,0.19651 0.01548,0.42785 -0.1926,0.52409c-0.20807,0.09624 -0.44476,0.00928 -0.54721,-0.18189z"/><path d="M295.00692,219.6271c-0.20272,0.10781 -0.43941,0.02083 -0.53565,-0.18724c-0.0909,-0.19651 -0.00928,-0.44475 0.18724,-0.53564c0.20807,-0.09624 0.45631,-0.01461 0.55256,0.19346c0.0909,0.19651 -0.00763,0.43854 -0.20415,0.52943z"/><path d="M317.2724,204.93597c0.19649,-0.09089 0.43318,-0.0039 0.51252,0.19794c0.09089,0.1965 0.01549,0.42785 -0.18102,0.51874c-0.19651,0.0909 -0.4501,-0.00229 -0.52943,-0.20414c-0.09089,-0.19649 0.00142,-0.42163 0.19793,-0.51252z"/><path d="M322.12948,223.41506c0.19651,-0.0909 0.41629,-0.01013 0.5303,0.17568c0.09624,0.20807 0.00926,0.44475 -0.18724,0.53564c-0.20185,0.07934 -0.4332,0.00391 -0.52409,-0.19259c-0.0909,-0.19651 -0.01548,-0.42785 0.18102,-0.51874z"/><path d="M295.1048,214.34776c-0.19649,0.09089 -0.41628,0.01013 -0.50183,-0.17481c-0.0909,-0.19651 -0.01015,-0.41628 0.18637,-0.50717c0.18495,-0.08554 0.41006,0.00678 0.49561,0.19172c0.09089,0.1965 0.00479,0.40472 -0.18015,0.49028z"/><path d="M323.35505,220.02764c-0.09089,-0.19649 -0.01012,-0.41627 0.17482,-0.50182c0.19649,-0.09089 0.42162,0.00144 0.51251,0.19794c0.08554,0.18495 -0.00677,0.41006 -0.19171,0.49561c-0.18495,0.08554 -0.41006,-0.00678 -0.49561,-0.19172z"/><path d="M323.6438,214.28118c0.18495,-0.08554 0.39937,-0.01636 0.50182,0.1748c0.08019,0.17339 0.011,0.38782 -0.1686,0.48493c-0.18495,0.08554 -0.41629,0.01013 -0.50184,-0.17481c-0.08554,-0.18495 -0.01634,-0.39938 0.16861,-0.48492z"/><path d="M309.28981,202.66463c-0.08554,-0.18495 -0.01635,-0.39938 0.18016,-0.49027c0.17339,-0.0802 0.39938,-0.01635 0.48492,0.1686c0.0971,0.1796 0.01012,0.41627 -0.17482,0.50182c-0.18495,0.08553 -0.41008,-0.00678 -0.49027,-0.18016z"/><path d="M295.99267,210.26061c-0.08554,-0.18495 0.00055,-0.39317 0.18549,-0.47871c0.18495,-0.08554 0.39939,-0.01635 0.48493,0.1686c0.09089,0.19649 -0.00143,0.42163 -0.19172,0.49562c-0.18495,0.08554 -0.39316,-0.00055 -0.4787,-0.18549z"/><path d="M322.89255,210.50317c0.08019,0.17339 0.01099,0.38782 -0.16239,0.46802c-0.16804,0.09177 -0.38781,0.011 -0.46801,-0.16238c-0.09177,-0.16805 -0.011,-0.38782 0.16238,-0.46802c0.16804,-0.09177 0.38782,-0.011 0.46802,0.16238z"/><path d="M303.35396,203.54399c0.08019,0.17338 -0.00057,0.39316 -0.17395,0.47336c-0.17339,0.0802 -0.39318,-0.00057 -0.47337,-0.17395c-0.08554,-0.18494 0.00057,-0.39316 0.17396,-0.47336c0.18495,-0.08554 0.38782,-0.011 0.47336,0.17395z"/><path d="M303.46359,231.4176c-0.0802,-0.17339 -0.011,-0.38782 0.15704,-0.47958c0.17339,-0.0802 0.38783,-0.011 0.47959,0.15704c0.09177,0.16805 0.01099,0.38782 -0.15704,0.47958c-0.17961,0.09711 -0.39404,0.02791 -0.47958,-0.15704z"/><path d="M313.94754,231.63387c-0.09177,-0.16805 -0.011,-0.38781 0.16238,-0.46801c0.16804,-0.09177 0.39938,-0.01635 0.47957,0.15703c0.09177,0.16804 0.01099,0.38782 -0.16239,0.46802c-0.18495,0.08553 -0.39938,0.01634 -0.47957,-0.15704z"/><path d="M312.10032,202.24866c0.17338,-0.0802 0.36471,-0.0003 0.4449,0.17308c0.06866,0.17875 -0.01126,0.37005 -0.18463,0.45026c-0.17338,0.0802 -0.36471,0.00029 -0.44491,-0.17309c-0.07486,-0.16182 0.01126,-0.37004 0.18464,-0.45025z"/><path d="M316.29518,204.27945c-0.17338,0.0802 -0.37626,0.00565 -0.45645,-0.16773c-0.08019,-0.17339 -0.00564,-0.37626 0.16774,-0.45646c0.17338,-0.08019 0.37626,-0.00564 0.45645,0.16774c0.07486,0.16182 0.0003,0.36469 -0.16774,0.45645z"/><path d="M307.30592,202.31937c0.0802,0.17338 0.00566,0.37626 -0.16773,0.45646c-0.17338,0.0802 -0.37626,0.00564 -0.45645,-0.16774c-0.0802,-0.17338 -0.00565,-0.37625 0.16773,-0.45645c0.17338,-0.0802 0.37626,-0.00565 0.45645,0.16773z"/><path d="M295.07897,221.75476c0.0802,0.17339 0.0003,0.36469 -0.17309,0.4449c-0.17339,0.0802 -0.3647,0.00029 -0.4449,-0.17309c-0.08019,-0.17339 -0.0003,-0.36469 0.17309,-0.4449c0.17338,-0.0802 0.37625,-0.00565 0.4449,0.17309z"/><path d="M307.3937,232.78501c-0.07486,-0.16182 -0.00116,-0.33623 0.16601,-0.39953c0.16185,-0.07486 0.33624,-0.00116 0.41109,0.16067c0.0695,0.15026 0.00116,0.33625 -0.16066,0.41109c-0.15561,0.05795 -0.34694,-0.02194 -0.41644,-0.17222z"/><path d="M310.44669,233.01465c-0.16719,0.06331 -0.34158,-0.0104 -0.41644,-0.17222c-0.07486,-0.16184 -0.00117,-0.33625 0.16066,-0.4111c0.16185,-0.07486 0.33624,-0.00116 0.41109,0.16067c0.0695,0.15026 -0.01039,0.34158 -0.15531,0.42265z"/><path d="M323.76742,222.76968c-0.16183,0.07484 -0.35314,-0.00504 -0.42264,-0.15531c-0.05795,-0.15562 0.02195,-0.34693 0.17222,-0.41643c0.15027,-0.06951 0.34159,0.01038 0.41109,0.16065c0.07486,0.16184 0.00116,0.33625 -0.16066,0.41109z"/><path d="M298.31013,228.67953c-0.08107,-0.14492 -0.01808,-0.34245 0.1322,-0.41195c0.14492,-0.08108 0.34245,-0.01809 0.41195,0.13219c0.08108,0.14492 0.01809,0.34247 -0.13219,0.41197c-0.14492,0.08108 -0.34246,0.01808 -0.41196,-0.13219z"/><path d="M297.16655,226.93529c0.15026,-0.0695 0.33624,-0.00117 0.40574,0.1491c0.06951,0.15026 -0.00417,0.32467 -0.15445,0.39418c-0.16183,0.07486 -0.33624,0.00117 -0.40574,-0.14911c-0.0695,-0.15026 -0.00117,-0.33622 0.15445,-0.39418z"/><path d="M294.7235,211.52121c-0.07486,-0.16184 -0.00116,-0.33624 0.16066,-0.41109c0.15561,-0.05794 0.32468,0.00418 0.39419,0.15445c0.07486,0.16183 0.00117,0.33625 -0.1491,0.40575c-0.16183,0.07486 -0.33089,0.01273 -0.40574,-0.14911z"/><path d="M323.60641,212.13748c-0.08107,-0.14492 -0.02429,-0.32554 0.12598,-0.39504c0.14493,-0.08106 0.32555,-0.0243 0.39505,0.12597c0.07571,0.13337 0.01895,0.314 -0.11442,0.38972c-0.14493,0.08106 -0.32555,0.0243 -0.40661,-0.12063z"/><path d="M319.30737,229.08448c-0.06951,-0.15027 0.00417,-0.32468 0.14289,-0.38884c0.13871,-0.06414 0.30777,-0.00204 0.37192,0.13667c0.08107,0.14492 0.0243,0.32555 -0.12597,0.39504c-0.13871,0.06414 -0.31933,0.00739 -0.38884,-0.14289z"/><path d="M321.1714,227.56275c0.06951,0.15027 0.00739,0.31933 -0.13132,0.38349c-0.14492,0.08107 -0.32554,0.02429 -0.39504,-0.12597c-0.0695,-0.15026 -0.00118,-0.33624 0.13753,-0.40039c0.15027,-0.0695 0.32468,0.00417 0.38884,0.14288z"/><path d="M299.73504,229.6061c0.15027,-0.0695 0.31933,-0.00738 0.38349,0.13133c0.06415,0.1387 0.00738,0.31932 -0.13133,0.38349c-0.14493,0.08106 -0.32555,0.02428 -0.39505,-0.12598c-0.06415,-0.13872 -0.0074,-0.31932 0.14288,-0.38883z"/><path d="M318.11707,229.99989c0.13873,-0.06417 0.30777,-0.00205 0.36659,0.12511c0.06416,0.13873 0.01359,0.30243 -0.12511,0.36659c-0.13336,0.07571 -0.31398,0.01894 -0.37814,-0.11977c-0.06415,-0.13872 -0.00204,-0.30776 0.13667,-0.37192z"/><path d="M293.65456,218.18989c-0.13871,0.06416 -0.3131,-0.00952 -0.36571,-0.15358c-0.05261,-0.14406 0.00331,-0.29621 0.14202,-0.36036c0.15026,-0.06951 0.30243,-0.0136 0.37193,0.13666c0.05795,0.15561 -0.00952,0.31311 -0.14823,0.37727z"/><path d="M293.34,215.41667c-0.06414,-0.13872 0.00952,-0.3131 0.15358,-0.36571c0.13871,-0.06416 0.29087,-0.00826 0.35502,0.13045c0.06415,0.13872 0.00204,0.30776 -0.13667,0.37192c-0.13871,0.06414 -0.30778,0.00204 -0.37193,-0.13668z"/><path d="M304.23964,202.15204c0.13871,-0.06416 0.30243,-0.01359 0.37193,0.13668c0.06416,0.13873 0.00826,0.29087 -0.12511,0.36658c-0.13336,0.07571 -0.31398,0.01894 -0.37814,-0.11976c-0.06414,-0.13872 -0.00738,-0.31933 0.13133,-0.3835z"/><path d="M295.76564,225.96954c-0.06951,-0.15026 -0.00205,-0.30776 0.14823,-0.37727c0.13871,-0.06416 0.3131,0.00952 0.36571,0.15358c0.05261,0.14406 -0.00329,0.29622 -0.14201,0.36038c-0.15027,0.06951 -0.30778,0.00204 -0.37194,-0.13668z"/><path d="M314.76362,202.36383c0.14406,-0.05261 0.28465,0.00865 0.34347,0.13581c0.06415,0.13872 0.00826,0.29087 -0.13046,0.35502c-0.13871,0.06416 -0.29087,0.00825 -0.35502,-0.13047c-0.06415,-0.13872 0.0033,-0.29621 0.14201,-0.36036z"/><path d="M304.95074,232.35745c0.13871,-0.06416 0.29621,0.00331 0.34882,0.14737c0.0526,0.14406 -0.00865,0.28465 -0.13581,0.34347c-0.13871,0.06416 -0.29087,0.00825 -0.35502,-0.13046c-0.06415,-0.13872 0.00331,-0.29621 0.14202,-0.36037z"/><path d="M312.81503,232.52254c0.14406,-0.05261 0.30156,0.01486 0.34882,0.14737c0.06415,0.13872 -0.00331,0.2962 -0.14737,0.34881c-0.1325,0.04726 -0.28465,-0.00864 -0.34347,-0.1358c-0.06415,-0.13872 0.00331,-0.29621 0.14202,-0.36037z"/><path d="M322.14868,226.1565c0.13873,-0.06417 0.29622,0.00331 0.34882,0.14737c0.06415,0.13872 -0.00331,0.2962 -0.14737,0.3488c-0.1325,0.04726 -0.28465,-0.00864 -0.34347,-0.1358c-0.06415,-0.13872 0.00331,-0.29621 0.14203,-0.36037z"/><path d="M324.91652,218.33718c0.13871,-0.06416 0.30775,-0.00205 0.35501,0.13045c0.05881,0.12715 0.00827,0.29087 -0.11888,0.34968c-0.13337,0.07571 -0.29708,0.02515 -0.36124,-0.11357c-0.06416,-0.13873 -0.01359,-0.30243 0.12511,-0.36658z"/><path d="M324.98461,215.72374c0.12715,-0.05881 0.2793,-0.00292 0.33812,0.12424c0.04726,0.1325 0.01533,0.2455 -0.11804,0.32121c-0.12181,0.07037 -0.28552,0.01981 -0.34433,-0.10735c-0.05882,-0.12716 -0.0029,-0.27929 0.12425,-0.33811z"/><path d="M297.61598,205.97359c0.1325,-0.04726 0.23929,0.00158 0.30965,0.12338c0.07037,0.12181 0.01446,0.27395 -0.11804,0.32122c-0.12715,0.05881 -0.23392,0.00997 -0.29895,-0.10026c-0.06415,-0.13872 -0.01982,-0.28552 0.10734,-0.34433z"/><path d="M298.98832,204.69334c0.10938,-0.03656 0.22237,-0.00464 0.29809,0.12873c0.07037,0.1218 0.01446,0.27395 -0.11805,0.32122c-0.14406,0.05261 -0.25085,0.00376 -0.32122,-0.11805c-0.06502,-0.11025 0.00245,-0.26774 0.14116,-0.33191z"/><path d="M321.56394,206.59932c0.04191,0.12094 0.00996,0.23394 -0.11184,0.30431c-0.12182,0.07037 -0.27396,0.01447 -0.33278,-0.11269c-0.06415,-0.13872 -0.01532,-0.2455 0.10648,-0.31587c0.12181,-0.07038 0.27396,-0.01447 0.33812,0.12424z"/><path d="M317.12119,231.45686c0.03657,0.10937 0.00462,0.22238 -0.11718,0.29276c-0.12715,0.05881 -0.27396,0.01446 -0.33278,-0.1127c-0.05882,-0.12716 -0.01532,-0.2455 0.10648,-0.31587c0.1218,-0.07037 0.27395,-0.01446 0.34346,0.13581z"/><path d="M301.381,231.13203c0.025,0.11472 0.00463,0.22238 -0.11717,0.29275c-0.1218,0.07037 -0.26239,0.00911 -0.32121,-0.11805c-0.06415,-0.13872 -0.01532,-0.2455 0.10648,-0.31587c0.11025,-0.06503 0.26775,0.00243 0.33191,0.14115z"/><path d="M293.71606,220.47677c0.04192,0.12094 0.00998,0.23393 -0.12873,0.29809c-0.11024,0.06502 -0.27394,0.01446 -0.3212,-0.11805c-0.0526,-0.14406 -0.00376,-0.25084 0.11804,-0.32121c0.11024,-0.06503 0.26775,0.00243 0.33191,0.14115z"/><path d="M294.83505,224.71613c-0.11024,0.06502 -0.25084,0.00376 -0.3043,-0.11183c-0.05881,-0.12715 -0.02153,-0.22859 0.10027,-0.29896c0.11024,-0.06502 0.25084,-0.00376 0.315,0.13494c0.03655,0.10938 -0.01227,0.21617 -0.11096,0.27585z"/><path d="M308.52885,201.08015c0.05347,0.11559 -0.00778,0.2562 -0.12873,0.2981c-0.1325,0.04726 -0.22772,-0.00694 -0.29276,-0.11718c-0.05347,-0.11559 0.00779,-0.2562 0.12338,-0.30965c0.12094,-0.04192 0.26155,0.01936 0.2981,0.12873z"/><path d="M310.85576,201.01415c0.11025,-0.06503 0.26241,-0.0091 0.31587,0.10648c0.04813,0.10405 -0.00244,0.26774 -0.12339,0.30965c-0.1325,0.04725 -0.23394,0.00997 -0.30431,-0.11183c-0.04191,-0.12094 -0.00997,-0.23394 0.11182,-0.30431z"/><path d="M296.27127,207.2832c0.1325,-0.04725 0.24014,-0.02688 0.29895,0.10027c0.06502,0.11025 0.02066,0.25707 -0.09492,0.31052c-0.11559,0.05348 -0.25085,0.00375 -0.30431,-0.11183c-0.05881,-0.12715 -0.00997,-0.23393 0.10027,-0.29896z"/><path d="M324.76956,221.2958c-0.04726,-0.1325 0.014,-0.2731 0.12338,-0.30965c0.1325,-0.04725 0.23394,-0.00998 0.29276,0.11718c0.04726,0.1325 0.00998,0.23394 -0.11182,0.30431c-0.09869,0.05968 -0.25085,0.00376 -0.30431,-0.11183z"/><path d="M319.9669,205.14898c0.1325,-0.04725 0.23395,-0.00998 0.29277,0.11718c0.05347,0.11559 -0.00779,0.25618 -0.12874,0.2981c-0.1325,0.04724 -0.22773,-0.00693 -0.28741,-0.10561c-0.05261,-0.14406 -0.00291,-0.27931 0.12338,-0.30965z"/><path d="M300.4322,203.87109c-0.06142,-0.04176 -0.17442,-0.07368 -0.21805,-0.13769c-0.08193,-0.11646 -0.02154,-0.22859 0.10561,-0.28741c0.11559,-0.05347 0.22237,-0.00462 0.27585,0.11096c0.05347,0.11559 0.0162,0.21703 -0.16341,0.31414z"/><path d="M322.49002,207.81274c0.02311,-0.0107 0.04624,-0.0214 0.08091,-0.03743c0.08986,0.04263 0.20286,0.07455 0.25186,0.15011c0.06503,0.11024 0.02155,0.22858 -0.10561,0.28741c-0.12715,0.05881 -0.24549,0.01533 -0.28119,-0.12252c-0.02053,-0.0747 0.02831,-0.18148 0.05403,-0.27757z"/><path d="M293.44725,212.8272c-0.0107,-0.02311 -0.02138,-0.04623 -0.04897,-0.07556c0.05952,-0.08366 0.07453,-0.20287 0.1501,-0.25186c0.11646,-0.08194 0.2348,-0.03845 0.29361,0.0887c0.05882,0.12716 0.03223,0.25171 -0.10561,0.28741c-0.08625,0.02587 -0.19839,-0.03452 -0.28913,-0.04868z"/><path d="M323.74818,225.27633c-0.17338,0.0802 -0.28639,0.04827 -0.35675,-0.07353c-0.05347,-0.11559 -0.01619,-0.21702 0.09405,-0.28205c0.12181,-0.07038 0.25171,-0.03224 0.29361,0.08869c0.02586,0.08626 -0.02298,0.19305 -0.03092,0.26689z"/><path d="M318.95541,203.93298c0.06503,0.11024 0.0162,0.21704 -0.09939,0.2705c-0.11559,0.05347 -0.23393,0.00998 -0.26428,-0.11631c-0.02586,-0.08626 0.02831,-0.18148 0.06732,-0.33984c0.14593,0.07282 0.24736,0.11008 0.29636,0.18565z"/><path d="M324.94536,213.45462c-0.0107,-0.02311 -0.0214,-0.04624 -0.04899,-0.07557c0.04798,-0.07832 0.0799,-0.19131 0.14391,-0.23495c0.11024,-0.06502 0.22859,-0.02154 0.28206,0.09405c0.06503,0.11024 0.02154,0.22859 -0.10474,0.25893c-0.08626,0.02586 -0.18149,-0.02831 -0.27224,-0.04246z"/><path d="M305.58178,200.92785c0.02311,-0.01069 0.04624,-0.0214 0.08091,-0.03743c0.07298,0.03641 0.17442,0.07368 0.21805,0.13769c0.06503,0.11023 0.02153,0.22858 -0.09319,0.25358c-0.07469,0.02052 -0.20994,-0.02918 -0.23668,-0.08698c-0.04363,-0.064 0.01676,-0.17614 0.03091,-0.26689z"/><path d="M294.87163,208.89883c-0.01604,-0.03466 -0.02673,-0.0578 -0.03122,-0.09782c0.05332,-0.06675 0.07989,-0.1913 0.14304,-0.20649c0.06314,-0.01518 0.19304,0.02295 0.23668,0.08697c0.07659,0.10489 0.0331,0.22323 -0.09319,0.25358c-0.0747,0.02052 -0.16459,-0.02209 -0.25534,-0.03625z"/><path d="M308.82667,233.82012c0.02311,-0.0107 0.04624,-0.0214 0.07557,-0.04899c0.07298,0.0364 0.18063,0.05678 0.22426,0.12078c0.07659,0.10489 0.03311,0.22325 -0.07627,0.2598c-0.06935,0.03208 -0.20461,-0.01761 -0.2429,-0.07007c-0.02674,-0.0578 0.00519,-0.17079 0.01934,-0.26154z"/><path d="M302.37026,232.33026c0.07832,0.04798 0.19131,0.07989 0.21805,0.13769c0.03208,0.06935 -0.00607,0.19925 -0.07007,0.24288c-0.08798,0.08281 -0.21168,0.02776 -0.24823,-0.08162c-0.02053,-0.0747 0.02209,-0.16458 0.03625,-0.25532c0.02311,-0.0107 0.04624,-0.02139 0.06401,-0.04363z"/><path d="M323.83792,209.20991c0.06314,-0.01518 0.19304,0.02296 0.23134,0.07542c0.07124,0.09334 0.0224,0.20013 -0.08698,0.23669c-0.06935,0.03209 -0.15923,-0.01053 -0.30069,-0.04333c0.0666,-0.12904 0.09854,-0.24204 0.15633,-0.26877z"/><path d="M315.44004,232.58527c0.13439,0.07818 0.24203,0.09854 0.26876,0.15633c0.02673,0.0578 -0.01143,0.1877 -0.06386,0.226c-0.088,0.0828 -0.20634,0.0393 -0.24289,-0.07007c-0.03209,-0.06936 0.01054,-0.15924 0.03798,-0.31226z"/><path d="M313.46471,201.04222c0.13439,0.07817 0.24738,0.11008 0.26255,0.17323c0.02674,0.0578 -0.02831,0.18148 -0.08076,0.21978c-0.09334,0.07124 -0.21167,0.02776 -0.23668,-0.08697c-0.02053,-0.0747 0.02211,-0.16459 0.05489,-0.30605z"/><path d="M311.51032,233.82766c0.10592,0.07731 0.20736,0.11457 0.22339,0.14925c0.01518,0.06315 -0.04435,0.14681 -0.0692,0.21444c-0.07298,-0.0364 -0.17528,-0.04521 -0.21356,-0.09767c-0.03296,-0.04089 0.02125,-0.13611 0.05938,-0.26602z"/><path d="M306.55222,233.84781c-0.0604,0.11214 -0.08076,0.2198 -0.13235,0.22962c-0.0578,0.02674 -0.14146,-0.0328 -0.22065,-0.0523c0.01951,-0.07918 0.02831,-0.18147 0.08076,-0.21977c0.04089,-0.03295 0.14768,0.01589 0.27224,0.04246z"/><path d="M293.34989,222.96148c0.11214,0.0604 0.21356,0.09767 0.22339,0.14925c0.01518,0.06314 -0.04435,0.14679 -0.0692,0.21442c-0.06763,-0.02485 -0.17528,-0.04521 -0.21356,-0.09767c-0.03295,-0.0409 0.02125,-0.13611 0.05938,-0.26602z"/><path d="M301.63604,202.13556c0.11213,0.0604 0.23669,0.08698 0.24117,0.127c0.01518,0.06314 -0.04435,0.1468 -0.07541,0.23133c-0.06763,-0.02485 -0.18148,-0.02831 -0.20822,-0.08611c-0.02139,-0.04624 0.02123,-0.13612 0.04246,-0.27224z"/><path d="M317.43138,202.51904c0.0685,-0.00362 0.15214,0.05591 0.22513,0.09232c-0.0364,0.07298 -0.04522,0.17527 -0.10302,0.202c-0.0578,0.02673 -0.15303,-0.02744 -0.27757,-0.05402c0.06038,-0.11213 0.09232,-0.22513 0.15546,-0.2403z"/><path d="M324.73527,223.92167c0.04884,-0.10679 0.07455,-0.20287 0.13235,-0.22962c0.06315,-0.01517 0.14146,0.03279 0.20909,0.05765c-0.02485,0.06762 -0.039,0.15836 -0.07989,0.19131c-0.05245,0.03829 -0.14232,-0.00432 -0.26153,-0.01935z"/><path d="M292.15336,216.40056c0.10679,0.04883 0.21443,0.06921 0.23046,0.10388c0.01517,0.06315 -0.03278,0.14146 -0.0523,0.22064c-0.06229,-0.01329 -0.16458,-0.02211 -0.19752,-0.06299c-0.02139,-0.04624 0.00432,-0.14233 0.01934,-0.26154z"/><path d="M292.25186,219.34386c-0.05158,0.00982 -0.11834,-0.04348 -0.18596,-0.06833c0.02486,-0.06762 0.039,-0.15836 0.08524,-0.17975c0.04624,-0.02139 0.11922,0.01502 0.24376,0.0416c-0.06575,0.10056 -0.0968,0.1851 -0.14304,0.20649z"/><path d="M326.49982,217.23996c0.00982,0.05158 -0.0328,0.14147 -0.06747,0.1575c-0.03466,0.01603 -0.1361,-0.02124 -0.1575,-0.06748c-0.02761,-0.02932 0.02036,-0.10764 0.04072,-0.2153c0.08366,0.05953 0.16285,0.07902 0.18425,0.12526z"/><path d="M293.81225,210.00626c0.02139,0.04623 -0.01588,0.14768 -0.05056,0.16371c-0.04623,0.02138 -0.13077,-0.00968 -0.16372,-0.05057c-0.03296,-0.04089 0.00347,-0.11386 0.02384,-0.22151c0.08987,0.04263 0.18061,0.05678 0.19044,0.10837z"/><path d="M296.01688,228.57562c-0.03466,0.01603 -0.13076,-0.00968 -0.14679,-0.04435c-0.01604,-0.03467 0.00967,-0.13077 0.04435,-0.14681c0.02932,-0.0276 0.1023,0.00881 0.19304,0.02296c-0.04263,0.08987 -0.05058,0.16371 -0.0906,0.16819z"/><path d="M325.12439,210.56533c0.08452,0.03107 0.16371,0.05058 0.16819,0.0906c0.02139,0.04623 -0.02037,0.10765 -0.039,0.15836c-0.05071,-0.01863 -0.1361,-0.02124 -0.15214,-0.0559c-0.02761,-0.02933 0.0088,-0.1023 0.02295,-0.19304z"/><path d="M326.25199,219.76816c0.07832,0.04798 0.1575,0.06748 0.16819,0.09059c0.02139,0.04623 -0.02037,0.10766 -0.039,0.15837c-0.05071,-0.01863 -0.13611,-0.02125 -0.15215,-0.05591c-0.02761,-0.02933 0.0088,-0.10229 0.02296,-0.19303z"/><path d="M297.37704,229.75663c-0.03642,0.07296 -0.05591,0.15215 -0.10215,0.17354c-0.05158,0.00983 -0.13611,-0.02124 -0.15214,-0.05591c-0.01604,-0.03466 0.02123,-0.13612 0.05591,-0.15215c0.04625,-0.02138 0.10766,0.02037 0.1984,0.03453z"/><path d="M292.23746,213.8218c0.07298,0.0364 0.15215,0.05593 0.16819,0.0906c0.01604,0.03466 -0.00967,0.13076 -0.04435,0.1468c-0.03466,0.01603 -0.11921,-0.01503 -0.1468,-0.04436c-0.01604,-0.03467 0.00881,-0.10229 0.02296,-0.19303z"/><path d="M309.79802,199.81955c-0.03642,0.07296 -0.0497,0.13525 -0.08438,0.15129c-0.03468,0.01603 -0.09075,-0.01417 -0.14145,-0.03281c0.01863,-0.05071 0.01502,-0.11922 0.0497,-0.13524c0.02933,-0.02761 0.0854,0.00259 0.17614,0.01675z"/><path d="M326.37746,214.51818c0.06675,0.05332 0.13439,0.07817 0.14508,0.10128c0.01604,0.03466 -0.03106,0.08453 -0.04969,0.13524c-0.05071,-0.01863 -0.113,-0.03194 -0.12904,-0.06661c-0.01604,-0.03468 0.01415,-0.09075 0.03365,-0.16994z"/><path d="M322.12251,228.89089c0.07297,0.03641 0.13525,0.04972 0.15128,0.08438c0.01604,0.03466 -0.01416,0.09074 -0.0328,0.14145c-0.05071,-0.01863 -0.11921,-0.01503 -0.13524,-0.0497c-0.01604,-0.03468 0.01415,-0.09075 0.01675,-0.17614z"/><path d="M298.49362,231.0784c0.03468,-0.01604 0.10766,0.02038 0.1237,0.05504c0.01604,0.03466 -0.02037,0.10765 -0.05505,0.12368c-0.03468,0.01604 -0.09608,-0.02571 -0.17527,-0.04521c0.0364,-0.07298 0.0666,-0.12904 0.10662,-0.13351z"/><path d="M314.34181,234.03342c-0.03107,0.08452 -0.0497,0.13524 -0.09594,0.15663c-0.03466,0.01604 -0.11385,-0.00347 -0.12455,-0.02658c-0.00982,-0.05158 0.00346,-0.11386 0.0328,-0.14145c0.03468,-0.01604 0.1023,0.00881 0.18769,0.01141z"/><path d="M303.80541,233.85545c0.01604,0.03467 -0.02038,0.10766 -0.04349,0.11835c-0.04002,0.00448 -0.11921,-0.01504 -0.13525,-0.04971c-0.0107,-0.02312 0.02571,-0.09608 0.04521,-0.17527c0.06677,0.05331 0.13439,0.07816 0.13352,0.10663z"/></g><path d="M307.79802,228.05706c-2.51952,-5.44697 -0.14635,-11.9051 5.30063,-14.42462c5.44698,-2.51952 11.90511,-0.14635 14.42463,5.30062c2.51952,5.44698 0.14634,11.9051 -5.30063,14.42462c-5.44698,2.51952 -11.90511,0.14635 -14.42463,-5.30062z" fill="none" stroke="#000000" stroke-width="1" stroke-linecap="butt"/><path d="M306.51222,228.65182c-2.848,-6.1571 -0.16543,-13.45718 5.99167,-16.30518c6.1571,-2.848 13.45717,-0.16543 16.30517,5.99167c2.84799,6.15711 0.16544,13.45718 -5.99166,16.30518c-6.15711,2.848 -13.45717,0.16544 -16.30518,-5.99166z" fill="none" stroke="#000000" stroke-width="1" stroke-linecap="butt"/><path d="M323.52028,236.16306c-6.99634,3.23618 -15.29145,0.18799 -18.52763,-6.80835c-3.23618,-6.99634 -0.18798,-15.29146 6.80835,-18.52764c6.99634,-3.23618 15.29146,-0.18798 18.52764,6.80836c3.23618,6.99634 0.18798,15.29144 -6.80836,18.52763z" fill="none" stroke="#000000" stroke-width="1" stroke-linecap="butt"/><path d="M309.55139,227.24604c-2.07161,-4.47863 -0.12035,-9.78863 4.35828,-11.86025c4.47861,-2.0716 9.78864,-0.12035 11.86025,4.35829c2.07161,4.47863 0.12034,9.78864 -4.3583,11.86025c-4.47861,2.0716 -9.78863,0.12034 -11.86024,-4.35829z" fill="#000000" stroke="#000000" stroke-width="1" stroke-linecap="butt"/><path d="M296.02621,249.43042c0,0 -6.30697,-8.57331 -8.41687,-13.13473c-1.96141,-4.24038 -3.82956,-13.34094 -3.82956,-13.34094l3.50671,-1.62204l12.24645,26.47567l-3.50671,1.62204z" fill="#393912" stroke="none" stroke-width="0" stroke-linecap="butt"/><path d="M326.09307,219.2539l-2.04867,-4.73578l76.56597,-33.56801c0,0 0.86681,-0.69771 1.45944,-1.75219c0.69719,-1.24053 1.21184,-2.90247 2.38209,-3.44019c2.12464,-0.97626 4.77333,-1.10925 6.65526,-1.84034c4.43804,-1.72406 7.4047,-3.53534 9.25531,-4.29144c1.79719,-0.73426 1.68851,0.91674 2.28853,2.12544c0.53416,1.076 1.87251,1.68927 1.87251,1.68927l0.15684,0.33908c0,0 -0.39923,1.41701 0.07486,2.52079c0.53257,1.2399 1.8611,2.22613 0.13789,3.12025c-1.77446,0.9207 -5.0757,2.00866 -9.26321,4.27439c-1.7757,0.96077 -3.59208,2.89313 -5.71176,3.88008c-1.16753,0.54362 -2.76726,-0.1403 -4.16405,-0.41225c-1.18732,-0.23117 -2.28029,-0.02236 -2.28029,-0.02236l-75.15773,36.61246l-2.28242,-4.62765z" data-paper-data="{&quot;index&quot;:null}" fill="#393912" stroke="none" stroke-width="0" stroke-linecap="round"/><g fill="#dfe0e2" stroke="none" stroke-width="0" stroke-linecap="butt"><g><path d="M421.25094,184.46536c-2.01208,0.88224 -1.86056,-0.45614 -2.12932,-1.03714c-0.26876,-0.58101 1.87894,-1.29482 2.77466,-1.70914c0.89573,-0.41432 1.18752,1.94263 -0.64535,2.74629z"/><path d="M419.14672,181.1817l1.05201,-0.48662l0.97324,2.10403l-1.05202,0.48663z"/></g><g><path d="M417.13598,184.77239c0.89572,-0.41432 1.18753,1.94262 -0.64535,2.74628c-2.0121,0.88224 -1.86058,-0.45613 -2.12933,-1.03714c-0.26876,-0.58101 1.87894,-1.29481 2.77466,-1.70913z"/><path d="M414.3864,184.23501l1.05201,-0.48661l0.97323,2.10403l-1.05202,0.48661z"/></g><g><path d="M412.02498,187.98791c0.89573,-0.41432 1.18752,1.94263 -0.64535,2.74629c-2.0121,0.88224 -1.86057,-0.45613 -2.12932,-1.03715c-0.26876,-0.58101 1.87894,-1.2948 2.77467,-1.70912z"/><path d="M409.27542,187.45051l1.05201,-0.48661l0.97323,2.10402l-1.05201,0.48662z"/></g></g><g data-paper-data="{&quot;index&quot;:null}" fill="#dfe0e2" stroke="none" stroke-width="0" stroke-linecap="butt"><g><path d="M416.58431,170.23511c-0.89572,0.41432 -2.83032,1.58881 -3.09906,1.00779c-0.26876,-0.58101 -1.38678,-1.33214 0.58837,-2.29423c1.79923,-0.87639 3.40641,0.87212 2.51069,1.28644z"/><path d="M414.24026,170.57438l1.05202,-0.48662l0.97323,2.10404l-1.05201,0.4866z"/></g><g><path d="M411.17518,171.8857c-0.89573,0.41432 -2.83033,1.5888 -3.09908,1.00778c-0.26876,-0.58101 -1.38678,-1.33213 0.58837,-2.29422c1.79923,-0.87639 3.40642,0.87212 2.5107,1.28644z"/><path d="M408.83111,172.22499l1.05201,-0.48661l0.97323,2.10403l-1.05201,0.48661z"/></g><g><path d="M402.90466,172.41212c1.79923,-0.87639 3.40643,0.87212 2.51071,1.28644c-0.89573,0.41432 -2.83033,1.5888 -3.09908,1.00779c-0.26876,-0.58101 -1.38678,-1.33215 0.58837,-2.29424z"/><path d="M403.07131,174.03783l1.05202,-0.48661l0.97323,2.10403l-1.05201,0.4866z"/></g></g><path d="M419.29349,179.19816c-0.29115,-0.62943 -0.01691,-1.37569 0.61252,-1.66684c0.62943,-0.29115 1.3757,-0.01691 1.66684,0.61252c0.29115,0.62943 0.01691,1.3757 -0.61252,1.66685c-0.62943,0.29115 -1.3757,0.01691 -1.66685,-0.61252z" fill="#dfe0e2" stroke="none" stroke-width="0" stroke-linecap="butt"/><path d="M416.81987,173.85043c-0.29115,-0.62943 -0.01691,-1.3757 0.61252,-1.66685c0.62943,-0.29115 1.3757,-0.01691 1.66685,0.61252c0.29115,0.62943 0.01691,1.3757 -0.61252,1.66685c-0.62943,0.29115 -1.3757,0.01691 -1.66685,-0.61252z" fill="#dfe0e2" stroke="none" stroke-width="0" stroke-linecap="butt"/><path d="M411.30993,175.97339c-0.29115,-0.62943 -0.01692,-1.3757 0.61251,-1.66685c0.62943,-0.29115 1.3757,-0.01691 1.66685,0.61252c0.29115,0.62943 0.01691,1.3757 -0.61252,1.66685c-0.62943,0.29115 -1.3757,0.01691 -1.66684,-0.61252z" fill="#dfe0e2" stroke="none" stroke-width="0" stroke-linecap="butt"/><path d="M405.50958,177.69852c-0.29115,-0.62943 -0.01692,-1.3757 0.61251,-1.66685c0.62943,-0.29115 1.3757,-0.01691 1.66685,0.61252c0.29115,0.62943 0.01691,1.37569 -0.61252,1.66684c-0.62943,0.29115 -1.3757,0.01691 -1.66685,-0.61252z" fill="#dfe0e2" stroke="none" stroke-width="0" stroke-linecap="butt"/><path d="M414.02029,182.06301c-0.29115,-0.62943 -0.01691,-1.37569 0.61252,-1.66684c0.62943,-0.29115 1.3757,-0.01692 1.66685,0.61251c0.29115,0.62943 0.01691,1.3757 -0.61252,1.66685c-0.62943,0.29115 -1.3757,0.01691 -1.66685,-0.61252z" fill="#dfe0e2" stroke="none" stroke-width="0" stroke-linecap="butt"/><path d="M408.78105,185.23141c-0.29115,-0.62943 -0.01691,-1.3757 0.61252,-1.66685c0.62943,-0.29115 1.37571,-0.01691 1.66686,0.61252c0.29115,0.62943 0.01691,1.3757 -0.61252,1.66685c-0.62943,0.29115 -1.3757,0.01692 -1.66685,-0.61251z" fill="#dfe0e2" stroke="none" stroke-width="0" stroke-linecap="butt"/><g fill="none" stroke="#dfe0e2" stroke-width="0.5" stroke-linecap="round"><path d="M292.27912,240.48443c0,0 35.96104,-17.6912 54.8117,-26.64588c20.06329,-9.53071 62.1571,-28.9181 62.1571,-28.9181"/><path d="M291.14435,238.82001c0,0 36.2993,-17.14133 55.75195,-26.19695c21.36638,-9.9465 67.24468,-31.06058 67.24468,-31.06058"/><path d="M290.10978,237.10923c0,0 52.18165,-24.99382 74.82528,-35.19116c15.06083,-6.78249 37.82448,-16.56918 48.55162,-20.97669c3.68494,-1.51404 6.07216,-2.12823 6.07216,-2.12823"/></g><g data-paper-data="{&quot;index&quot;:null}" fill="none" stroke="#dfe0e2" stroke-width="0.5" stroke-linecap="round"><path d="M406.17883,178.28536c0,0 -42.03033,19.5246 -62.2844,28.64286c-19.02992,8.56715 -55.79665,24.51651 -55.79665,24.51651"/><path d="M412.02879,175.94432c0,0 -4.20649,2.26551 -10.65714,5.35431c-14.88118,7.12564 -41.73792,19.69899 -56.6769,26.56488c-19.49661,8.96054 -56.06333,25.52372 -56.06333,25.52372"/><path d="M417.50933,174.38231c0,0 -2.01379,1.42151 -5.55361,3.24932c-10.30466,5.32084 -32.50229,16.33123 -47.42294,23.41679c-22.43286,10.65301 -75.26757,34.23496 -75.26757,34.23496"/></g><path d="M288.97145,228.88569l5.31992,12.65158" fill="none" stroke="#dfe0e2" stroke-width="0.5" stroke-linecap="round"/><g fill="#dfe0e2" stroke="none" stroke-width="0" stroke-linecap="butt"><path d="M292.35123,241.57845c-0.47538,0.21988 -1.03899,0.01278 -1.25888,-0.46261c-0.21988,-0.47537 -0.01277,-1.039 0.4626,-1.25888c0.47538,-0.21988 1.03899,-0.01278 1.25888,0.46261c0.21989,0.47538 0.01277,1.03899 -0.4626,1.25887z"/><path d="M290.11914,239.01182c-0.21988,-0.47536 -0.01278,-1.03899 0.4626,-1.25887c0.47538,-0.21988 1.03897,-0.01278 1.25887,0.4626c0.21988,0.47537 0.01278,1.03899 -0.4626,1.25887c-0.47536,0.21989 -1.03897,0.01278 -1.25887,-0.4626z"/></g><path d="M286.72758,231.67961c-0.21988,-0.47536 -0.01278,-1.03899 0.4626,-1.25887c0.47538,-0.21988 1.03899,-0.01278 1.25888,0.4626c0.21989,0.47538 0.01277,1.03899 -0.4626,1.25887c-0.47536,0.21989 -1.03898,0.01279 -1.25887,-0.46259z" fill="#dfe0e2" stroke="none" stroke-width="0" stroke-linecap="butt"/><path d="M288.16341,232.52476c0.47538,-0.21988 1.03897,-0.01278 1.25887,0.4626c0.21988,0.47537 0.01278,1.03899 -0.46259,1.25887c-0.47536,0.21989 -1.03898,0.01279 -1.25887,-0.46259c-0.21988,-0.47537 -0.01277,-1.039 0.4626,-1.25888z" fill="#dfe0e2" stroke="none" stroke-width="0" stroke-linecap="butt"/><path d="M289.09836,234.33688c0.39614,-0.18324 0.86582,-0.01065 1.04906,0.3855c0.18324,0.39614 0.01065,0.86583 -0.3855,1.04907c-0.39614,0.18323 -0.86582,0.01064 -1.04906,-0.38551c-0.18324,-0.39614 -0.01065,-0.86582 0.3855,-1.04906z" fill="#dfe0e2" stroke="none" stroke-width="0" stroke-linecap="butt"/><path d="M289.90938,236.09024c0.39615,-0.18324 0.86582,-0.01065 1.04907,0.3855c0.18324,0.39614 0.01064,0.86582 -0.38551,1.04907c-0.39614,0.18324 -0.86582,0.01065 -1.04906,-0.3855c-0.18324,-0.39614 -0.01065,-0.86582 0.3855,-1.04906z" fill="#dfe0e2" stroke="none" stroke-width="0" stroke-linecap="butt"/><g fill="#7d7d00" stroke="none" stroke-width="1" stroke-linecap="butt"><path d="M269.67446,223.1999c0.18783,-1.14627 0.85516,-1.71392 1.18259,-1.00608l8.94783,19.34437c0.22874,0.49452 0.16684,1.42951 -0.13481,2.0752l-0.73069,1.5504c-0.30165,0.64569 -0.36354,1.58069 -0.1348,2.0752l3.44457,7.44684c0.22874,0.49452 0.16683,1.42952 -0.13483,2.07521l-0.73591,1.56459c-0.30165,0.64568 -0.74031,0.76619 -0.96904,0.27169l-8.61144,-18.61714c-0.14801,-0.31998 -0.1805,-0.82287 -0.08842,-1.33631l0.70694,-4.07019c0.09208,-0.51344 0.05511,-1.02604 -0.08842,-1.33632l-2.96467,-6.40934c-0.14801,-0.31998 -0.18051,-0.82286 -0.08843,-1.3363z"/></g></g><path d="M341.50644,196.55841c0,7.62607 -5.84798,13.80822 -13.06182,13.80822c-7.21385,0 -13.06183,-6.18215 -13.06183,-13.80822c0,-7.62607 5.84798,-13.80821 13.06183,-13.80821c7.21385,0 13.06183,6.18214 13.06183,13.80821z" fill="#ecec60" stroke="#000000" stroke-width="2" stroke-linecap="butt"/><path d="M403.96746,196.25013c0,7.62607 -5.84798,13.80822 -13.06183,13.80822c-7.21385,0 -13.06182,-6.18215 -13.06182,-13.80822c0,-7.62607 5.84798,-13.80821 13.06183,-13.80821c7.21385,0 13.06183,6.18214 13.06183,13.80821z" fill="#ecec60" stroke="#000000" stroke-width="2" stroke-linecap="butt"/></g></g></svg>