<svg version="1.1" xmlns="http://www.w3.org/2000/svg" xmlns:xlink="http://www.w3.org/1999/xlink" width="188.62271" height="263.93037" viewBox="0,0,188.62271,263.93037"><defs><linearGradient x1="344.51868" y1="219.79491" x2="258.22845" y2="248.63128" gradientUnits="userSpaceOnUse" id="color-1"><stop offset="0" stop-color="#b8b851"/><stop offset="1" stop-color="#ffff65"/></linearGradient></defs><g transform="translate(-242.13331,-49.56965)"><g data-paper-data="{&quot;isPaintingLayer&quot;:true}" fill-rule="nonzero" stroke-linejoin="miter" stroke-miterlimit="10" stroke-dasharray="" stroke-dashoffset="0" style="mix-blend-mode: normal"><path d="M392.15506,149.29866c3.16787,25.2547 -3.79332,35.45607 -3.79332,35.45607c0,0 -12.10918,-21.47411 -19.77288,-32.6764c-7.92295,-11.58124 -27.01293,-35.71203 -27.01293,-35.71203l31.81283,-16.85064c0,0 15.26168,21.8436 18.7663,49.783z" data-paper-data="{&quot;index&quot;:null}" fill="#aeae47" stroke="#000000" stroke-width="2" stroke-linecap="butt"/><path d="M277.83529,99.51566l31.81283,16.85064c0,0 -19.08998,24.13078 -27.01292,35.71203c-7.6637,11.20229 -19.77288,32.6764 -19.77288,32.6764c0,0 -6.96119,-10.20136 -3.79332,-35.45607c3.50463,-27.9394 18.7663,-49.783 18.7663,-49.783z" data-paper-data="{&quot;index&quot;:null}" fill="#aeae47" stroke="#000000" stroke-width="2" stroke-linecap="butt"/><path d="M378.33655,194.8103c-9.02164,23.80012 -19.94816,29.5566 -19.94816,29.5566c0,0 -0.6493,-24.64443 -2.17813,-38.13095c-1.58056,-13.94275 -7.1552,-44.20238 -7.1552,-44.20238h36c0,0 3.26217,26.44655 -6.71851,52.77673z" data-paper-data="{&quot;index&quot;:null}" fill="#c2c250" stroke="#000000" stroke-width="2" stroke-linecap="butt"/><path d="M264.89814,142.03357h36c0,0 -5.57464,30.25964 -7.1552,44.20238c-1.52884,13.48652 -2.17814,38.13095 -2.17814,38.13095c0,0 -10.92652,-5.75649 -19.94816,-29.5566c-9.98068,-26.33018 -6.71851,-52.77673 -6.71851,-52.77673z" fill="#c2c250" stroke="#000000" stroke-width="2" stroke-linecap="butt"/><path d="M291.75007,312.50001l15.14285,-131.8421l37.78325,-0.15789l13.57389,132z" fill="#ecec60" stroke="#000000" stroke-width="2" stroke-linecap="butt"/><path d="M304.7003,209.11264l3.12142,-26.32765l35.83075,-0.14203l2.76735,26.1059c0,0 -7.51543,4.19603 -21.55904,4.50964c-12.48458,0.27879 -20.16049,-4.14586 -20.16049,-4.14586z" fill="#d2d256" stroke="#000000" stroke-width="0" stroke-linecap="butt"/><path d="M260.83998,141.84617c0,-33.30185 28.7599,-60.29833 64.23702,-60.29833c35.47712,0 64.23702,26.99649 64.23702,60.29833c0,33.30185 -28.7599,60.29833 -64.23702,60.29833c-35.47712,0 -64.23702,-26.99649 -64.23702,-60.29833z" fill="#ecec60" stroke="#000000" stroke-width="2" stroke-linecap="butt"/><path d="M261.56304,141.9c0,-0.72799 5.20666,55.91939 63.36046,56.93429c55.56352,0.9697 63.51358,-57.95314 63.51358,-56.93429c0,32.80479 -28.40173,59.39833 -63.43702,59.39833c-35.03529,0 -63.43702,-26.59354 -63.43702,-59.39833z" fill="#d2d256" stroke="#000000" stroke-width="0" stroke-linecap="butt"/><path d="M274.39019,142.27564c0,-12.968 10.51265,-23.48065 23.48065,-23.48065c12.968,0 23.48065,10.51265 23.48065,23.48065c0,12.968 -10.51265,23.48065 -23.48065,23.48065c-12.968,0 -23.48065,-10.51265 -23.48065,-23.48065z" fill="#ffffff" stroke="#000000" stroke-width="2" stroke-linecap="butt"/><path d="M281.45558,144.38158c0,-9.12808 7.39976,-16.52784 16.52783,-16.52784c9.12808,0 16.52784,7.39977 16.52784,16.52784c0,9.12808 -7.39977,16.52784 -16.52784,16.52784c-9.12808,0 -16.52783,-7.39977 -16.52783,-16.52784z" fill="#000000" stroke="none" stroke-width="0" stroke-linecap="butt"/><path d="M337.61666,181.65644c0,0 -7.66582,2.98556 -11.69844,2.98556c-4.31774,0 -13.41115,-2.98556 -13.41115,-2.98556" fill="none" stroke="#000000" stroke-width="2" stroke-linecap="round"/><path d="M352.12928,165.75628c-12.968,0 -23.48065,-10.51265 -23.48065,-23.48065c0,-12.968 10.51265,-23.48065 23.48065,-23.48065c12.968,0 23.48065,10.51265 23.48065,23.48065c0,12.968 -10.51265,23.48065 -23.48065,23.48065z" data-paper-data="{&quot;index&quot;:null}" fill="#ffffff" stroke="#000000" stroke-width="2" stroke-linecap="butt"/><path d="M352.01672,160.31403c-9.12807,0 -16.52783,-7.39977 -16.52783,-16.52784c0,-9.12808 7.39977,-16.52784 16.52783,-16.52784c9.12807,0 16.52783,7.39977 16.52783,16.52784c0,9.12808 -7.39977,16.52784 -16.52783,16.52784z" data-paper-data="{&quot;index&quot;:null}" fill="#000000" stroke="none" stroke-width="0" stroke-linecap="butt"/><path d="M281.80313,119.43829c0,0 6.70895,-5.16922 11.79721,-6.36355c5.08827,-1.19433 12.33413,0.69937 12.33413,0.69937c0,0 -8.03812,-0.06028 -11.96762,0.86207c-4.10648,0.96389 -12.16372,4.80211 -12.16372,4.80211z" fill="#000000" stroke="none" stroke-width="0" stroke-linecap="butt"/><path d="M355.4407,115.75578c-3.9295,-0.92235 -11.96762,-0.86207 -11.96762,-0.86207c0,0 7.24586,-1.8937 12.33413,-0.69937c5.08826,1.19433 11.79721,6.36355 11.79721,6.36355c0,0 -8.05724,-3.83822 -12.16372,-4.80211z" data-paper-data="{&quot;index&quot;:null}" fill="#000000" stroke="none" stroke-width="0" stroke-linecap="butt"/><path d="M274.24017,142.36807c0,-12.96801 10.51265,-23.48065 23.48066,-23.48065c12.96801,0 23.48065,10.51264 23.48065,23.48065c0,0 -11.70863,-7.69294 -23.43307,-7.53879c-11.75617,0.15456 -23.52823,8.1554 -23.52823,7.53879z" fill="#d2d256" stroke="#000000" stroke-width="2" stroke-linecap="butt"/><path d="M328.64862,142.26807c0,-12.96801 10.51264,-23.48065 23.48065,-23.48065c12.96801,0 23.48066,10.51264 23.48066,23.48065c0,0.60606 -11.37275,-7.38438 -22.92496,-7.531c-11.92261,-0.15132 -24.03635,7.531 -24.03635,7.531z" data-paper-data="{&quot;index&quot;:null}" fill="#d2d256" stroke="#000000" stroke-width="2" stroke-linecap="butt"/><path d="M268.59625,103.76233c0,-29.37751 4.22233,-52.79352 55.83225,-53.19268c58.79142,-0.45471 55.83225,23.81518 55.83225,53.19268c0,0 -111.6645,1.21448 -111.6645,0z" fill="#c5c528" stroke="#000000" stroke-width="2" stroke-linecap="butt"/><path d="M243.84721,108.6059l4.33333,-7.66667l155.5,0.33333l2.66667,7.33333z" fill="#c5c528" stroke="#000000" stroke-width="2" stroke-linecap="butt"/><g data-paper-data="{&quot;index&quot;:null}"><path d="M258.36613,248.70598c0,0 -11.13336,-26.00168 2.75814,-37.91534c4.47477,-3.83767 14.11961,-7.82043 21.8795,-7.91149c6.56249,-0.07702 11.04681,3.56941 17.41318,2.78633c13.51381,-1.66224 21.45301,-7.6516 25.90393,-7.77718c15.16246,-0.4278 16.99907,21.00211 16.99907,21.00211l0.78465,2.34797c0,0 11.41643,18.22854 -0.95689,27.0026c-3.63217,2.57561 -13.57718,2.56278 -25.37525,9.35925c-5.55807,3.20181 -6.94916,8.81168 -12.23944,12.69562c-6.25556,4.59261 -16.35713,7.20865 -22.24013,6.83232c-18.26318,-1.16823 -24.99933,-28.63936 -24.99933,-28.63936z" data-paper-data="{&quot;index&quot;:null}" fill="url(#color-1)" stroke="none" stroke-width="0" stroke-linecap="round"/><g fill="#7d7d00" stroke="none" stroke-width="1" stroke-linecap="butt"><path d="M301.66017,224.95243c-0.00807,-0.02415 -0.01615,-0.04833 -0.0041,-0.09263c-0.28623,-0.37433 -0.23016,-0.76907 -0.00494,-1.18003c-0.45903,0.11313 -0.80144,0.01269 -1.06752,-0.34151c-0.22174,-0.30189 -0.22607,-0.71671 -0.01688,-1.0149c0.29769,-0.43519 0.70441,-0.50396 1.14755,-0.34321c0.02798,-0.27791 0.07208,-0.54778 0.10005,-0.82569c-0.69273,-0.02366 -1.1159,-0.40593 -1.07609,-1.01007c0.01993,-0.26179 0.13253,-0.48743 0.34586,-0.65271c0.31798,-0.25397 0.66432,-0.26228 1.02287,-0.11355c0.01197,-0.16514 -0.01636,-0.33024 0.01575,-0.47525c0.02003,-0.14097 0.09644,-0.27393 0.14064,-0.42298c-0.48727,0.06884 -0.84985,-0.09199 -1.04345,-0.47042c-0.16539,-0.33415 -0.10126,-0.74499 0.15628,-1.01905c0.31791,-0.33453 0.67634,-0.34688 1.25651,-0.05735c-0.16543,-0.41471 -0.1456,-0.79732 0.17636,-1.11977c0.35013,-0.35871 0.76089,-0.37512 1.19601,-0.15798c-0.19,-0.93019 0.63919,-1.54298 1.46107,-1.17309c-0.07686,-0.43088 0.02757,-0.80149 0.39789,-1.05951c0.35825,-0.254 0.74491,-0.22207 1.13975,-0.00489c-0.12116,-0.44293 -0.02477,-0.79741 0.32946,-1.0635c0.29785,-0.23381 0.6482,-0.27034 0.97859,-0.08532c0.49156,0.26544 0.59659,0.70032 0.46406,1.18774c0.23359,0.01594 0.47124,0.04392 0.66455,0.05989c0.06828,-0.23766 0.14463,-0.49144 0.22499,-0.73315c-0.48319,0.12117 -0.86591,-0.01949 -1.07967,-0.41804c-0.17746,-0.33011 -0.09725,-0.77319 0.19253,-1.03117c0.29783,-0.27409 0.73276,-0.29859 1.06319,-0.0733c0.20551,0.13276 0.35467,0.33804 0.35486,0.57968c0.00823,0.22553 -0.05202,0.44708 -0.0881,0.66057c0.451,-0.09701 0.451,-0.09701 0.99487,0.12408c-0.06887,-0.52755 0.0517,-0.84983 0.3979,-1.05951c0.30191,-0.18146 0.7087,-0.16969 0.98273,0.04757c0.42314,0.34202 0.45972,0.77294 0.20635,1.26045c0.39861,-0.13322 0.74099,-0.07305 1.06337,0.16834c-0.08906,-0.58794 0.04762,-0.94245 0.43008,-1.12399c0.35026,-0.15734 0.75305,-0.0771 1.01104,0.21269c0.2459,0.29383 0.27843,0.71264 0.07327,1.0229c-0.14483,0.20954 -0.32192,0.36272 -0.57564,0.36694c-0.22554,0.00824 -0.45112,-0.06409 -0.63237,-0.0841c0.00822,0.22553 0.01648,0.49133 0.0207,0.74505c0.20141,0.04012 0.431,0.08426 0.67268,0.12435c-0.02852,-0.44704 0.13633,-0.79754 0.55504,-0.99117c0.33818,-0.1533 0.67654,-0.10522 0.96267,0.14829c0.40301,0.36216 0.41139,0.78906 0.16205,1.24838c0.87778,-0.26649 1.65568,0.53437 1.2214,1.4449c0.93422,-0.17792 1.54707,0.69155 1.12077,1.50541c0.47516,-0.10507 0.86591,0.01947 1.11189,0.43411c0.19357,0.33815 0.18983,0.68855 -0.02742,1.00285c-0.27758,0.41505 -0.68832,0.512 -1.13546,0.37945c-0.01592,0.2336 -0.03995,0.44304 -0.05991,0.66457c0.11278,0.01603 0.23764,0.02802 0.34239,0.06015c0.12085,0.04018 0.23366,0.09647 0.34244,0.14069c-0.02464,-0.63631 0.14023,-0.94653 0.55898,-1.09989c0.37446,-0.12513 0.76118,-0.01266 0.99903,0.29727c0.22172,0.30188 0.23816,0.71267 0.02092,1.02697c-0.2615,0.38281 -0.61588,0.44751 -1.19999,0.26673c0.01221,0.15706 0.04052,0.32216 0.02453,0.47522c-0.01599,0.15306 -0.08434,0.31017 -0.12449,0.4713c0.48727,-0.06884 0.81765,0.07589 1.03135,0.43418c0.1855,0.314 0.17373,0.72078 -0.05159,1.01092c-0.32188,0.403 -0.7286,0.47177 -1.21205,0.27077c0.08484,0.33422 0.04881,0.62825 -0.13622,0.91837c0.49935,-0.07287 0.85386,0.06379 1.07166,0.47441c0.17746,0.33011 0.12541,0.73693 -0.13618,0.99891c-0.35815,0.37482 -0.77297,0.37915 -1.2202,0.12578c0.29067,0.90999 -0.51428,1.63552 -1.38042,1.29385c0.06871,0.32617 -0.0076,0.62023 -0.20875,0.90231c0.5557,-0.10514 0.90218,0.04764 1.09981,0.43815c0.16539,0.33414 0.07305,0.741 -0.20463,0.99494c-0.28978,0.25798 -0.69652,0.28646 -1.01887,0.08534c-0.20551,-0.13276 -0.35868,-0.30983 -0.37095,-0.54744c-0.00823,-0.22553 0.0359,-0.45513 0.05589,-0.63637c-0.24164,0.00018 -0.52758,-0.01168 -0.76925,-0.0115c-0.06021,0.26184 -0.1325,0.52769 -0.2048,0.79356c0.52754,-0.06888 0.87401,0.0839 1.03942,0.45834c0.16137,0.36233 0.06905,0.76918 -0.23684,1.01912c-0.29785,0.23381 -0.72071,0.25428 -1.03905,0.02495c-0.35461,-0.25748 -0.41931,-0.61186 -0.20229,-1.20807c-0.30198,0.10092 -0.59597,0.10518 -0.89814,-0.03556c0.0446,0.37451 -0.04379,0.6726 -0.27718,0.93859c0.47913,-0.17356 0.87793,-0.0651 1.10777,0.30121c0.20565,0.33411 0.1496,0.76912 -0.13614,1.03918c-0.29783,0.27409 -0.73275,0.29858 -1.05514,0.05719c-0.2015,-0.16095 -0.33455,-0.35819 -0.32266,-0.60388c0.00384,-0.22957 0.10437,-0.45117 0.14853,-0.64048c-0.30595,0.16939 -0.66037,0.15353 -1.01896,-0.03547c0.04487,0.73699 -0.33336,1.21251 -0.94152,1.20089c-0.26983,-0.00382 -0.50754,-0.11239 -0.6849,-0.32168c-0.26202,-0.30186 -0.28241,-0.64417 -0.16587,-0.97854c-0.26583,-0.03201 -0.50348,-0.06002 -0.75319,-0.08399c-0.05586,0.71693 -0.45827,1.11999 -1.05034,1.07613c-0.2618,-0.01993 -0.48743,-0.13253 -0.66075,-0.32975c-0.26202,-0.30186 -0.28239,-0.64418 -0.18199,-0.98658c-0.25779,-0.04813 -0.51156,-0.0842 -0.75324,-0.12429c0.03658,0.4309 -0.12828,0.78142 -0.5349,0.97102c-0.36234,0.16138 -0.72485,0.12137 -1.01906,-0.15629c-0.36675,-0.33399 -0.38317,-0.74479 -0.18214,-1.18796c-0.53562,0.04472 -0.57588,0.04473 -1.01104,-0.21268c0.12526,0.53555 -0.00737,0.90213 -0.3858,1.09576c-0.36635,0.18958 -0.78123,0.11336 -1.03116,-0.19253c-0.26202,-0.30186 -0.2704,-0.72875 -0.04108,-1.0471c0.26956,-0.35866 0.64004,-0.41531 1.23629,-0.15802c-0.15729,-0.31 -0.14543,-0.59595 -0.04495,-0.85781c-0.27795,-0.06827 -0.55589,-0.1365 -0.81772,-0.19672c0.07687,0.47116 -0.07591,0.81763 -0.46642,1.01527c-0.32611,0.14927 -0.74099,0.07306 -0.99089,-0.19255c-0.25797,-0.28977 -0.31466,-0.70053 -0.11758,-1.03497c0.12871,-0.21758 0.30581,-0.37075 0.55146,-0.39913c0.22149,-0.02032 0.4511,0.02381 0.64441,0.03977c0.00384,-0.22957 0.01172,-0.48733 0.01153,-0.72898c-0.23364,-0.0562 -0.49951,-0.1285 -0.74925,-0.19275c0.04472,0.53562 -0.10406,0.85388 -0.50264,1.02738c-0.3543,0.14524 -0.73296,0.05693 -0.9869,-0.22078c-0.25394,-0.2777 -0.29854,-0.69249 -0.09742,-1.01484c0.13274,-0.2055 0.30983,-0.35867 0.5434,-0.38302c0.22149,-0.02031 0.45108,0.02382 0.66857,0.03172c-0.00409,-0.09264 -0.04047,-0.24163 -0.0325,-0.37856c0.00795,-0.13694 0.05618,-0.27391 0.07221,-0.3867c-0.20544,-0.05219 -0.41892,-0.08829 -0.61631,-0.1566c-0.12085,-0.04018 -0.22162,-0.14078 -0.33043,-0.22528zM303.55147,217.51223c-0.24574,-0.09244 -0.48745,-0.17281 -0.72512,-0.24109c0.09685,0.24964 0.09707,0.53155 -0.05578,0.79748c0.24166,-0.00019 0.47122,0.00368 0.68467,-0.00051c0.03208,-0.18529 0.0722,-0.38669 0.09624,-0.55587zM312.05459,213.8247c0.07233,-0.22558 0.13661,-0.43508 0.21296,-0.64858c-0.26978,0.07673 -0.54769,0.04876 -0.78946,-0.11217c0.00823,0.22553 0.01646,0.45106 0.02873,0.68867c0.16917,0.02403 0.36654,0.05208 0.54778,0.07208zM318.11216,224.79886c-0.02404,0.16916 -0.05612,0.35446 -0.07612,0.53571c0.20948,0.06427 0.43507,0.13662 0.61636,0.19689c0.01593,-0.23361 0.0238,-0.49137 0.04777,-0.74109c-0.1611,0.00012 -0.37458,0.00432 -0.58802,0.00851zM315.31774,215.03044c0.00012,0.1611 -0.00376,0.35039 -0.00765,0.53969c0.1732,0.03611 0.34642,0.07223 0.51559,0.09627c0.06427,-0.20949 0.12857,-0.41896 0.18479,-0.6123c-0.2175,-0.00788 -0.46317,-0.01979 -0.69274,-0.02364zM302.75039,223.31237c0.01196,-0.16513 0.02392,-0.33026 0.056,-0.51555c-0.18128,-0.06028 -0.37059,-0.10443 -0.53576,-0.15666c-0.04412,0.22959 -0.08825,0.4592 -0.13237,0.68879c0.17319,-0.00417 0.3987,-0.0124 0.61215,-0.01659zM307.39541,214.54916c0.16513,0.01196 0.33027,0.02391 0.50748,0.03183c0.0482,-0.17725 0.08431,-0.35045 0.12446,-0.51157c-0.2135,-0.03609 -0.43504,-0.09632 -0.63644,-0.13645c-0.00388,0.1893 0.00031,0.40275 0.0045,0.6162zM318.47263,222.18077c-0.01196,0.16514 -0.036,0.3343 -0.07211,0.50751c0.18933,0.04415 0.37059,0.10445 0.53172,0.14459c0.03608,-0.21348 0.06815,-0.43904 0.10018,-0.6646c-0.17319,0.00417 -0.37455,0.00431 -0.55981,0.0125zM317.65593,218.04925c-0.01599,0.15305 -0.02795,0.31819 -0.03585,0.4954c0.16113,0.04016 0.33434,0.07627 0.49547,0.11642c0.04012,-0.20141 0.09232,-0.40684 0.13244,-0.60824c-0.1893,-0.00387 -0.37859,-0.00777 -0.59203,-0.00358zM307.34986,228.79825c-0.14502,-0.0321 -0.31418,-0.05614 -0.48335,-0.08018c-0.0482,0.17724 -0.10443,0.37059 -0.15262,0.54784c0.20539,0.01193 0.42694,0.0319 0.63234,0.04383c0.00391,-0.14903 -0.00024,-0.32219 0.00365,-0.51149zM312.63478,230.02662c-0.00415,-0.17317 -0.00027,-0.36247 -0.00042,-0.56384c-0.14901,-0.0039 -0.30611,-0.03198 -0.47124,-0.04393c-0.04014,0.16113 -0.08836,0.33838 -0.12851,0.4995c0.20141,0.04013 0.41489,0.07621 0.60016,0.10828zM303.05444,220.64597c0.02807,-0.15709 0.04407,-0.31016 0.07215,-0.46724c-0.17725,-0.0482 -0.35852,-0.10848 -0.51965,-0.14862c-0.01596,0.19333 -0.03997,0.40277 -0.06399,0.61222c0.1611,-0.00011 0.33427,-0.00428 0.51149,0.00365zM304.44055,216.23488c-0.00387,0.1893 -0.01579,0.39471 -0.01564,0.59607c0.13693,0.00795 0.30207,0.01991 0.46317,0.01979c0.02807,-0.15709 0.07225,-0.30614 0.10033,-0.46324c-0.17723,-0.0482 -0.37059,-0.10444 -0.54784,-0.15264zM316.51908,216.57608c-0.00795,0.13694 -0.00781,0.29804 -0.03185,0.46721c0.1571,0.02807 0.31822,0.06822 0.46323,0.10032c0.05624,-0.19337 0.10039,-0.38269 0.14859,-0.55993c-0.17721,-0.00792 -0.37859,-0.00776 -0.57996,-0.00762zM306.38135,215.69374c0.02807,-0.1571 0.06019,-0.30211 0.09229,-0.44712c-0.18527,-0.03208 -0.36252,-0.08028 -0.53573,-0.1164c0.00415,0.17317 -0.00375,0.35038 -0.00763,0.53968c0.13694,0.00795 0.28595,0.01186 0.45108,0.02383zM316.68737,226.0404c-0.03615,0.13293 -0.0602,0.26184 -0.08427,0.39073c0.16113,0.04014 0.31018,0.08435 0.47131,0.12448c0.01196,-0.16513 0.0239,-0.33026 0.03586,-0.49539c-0.13693,-0.00795 -0.27386,-0.0159 -0.42289,-0.01982zM309.96027,229.61785c-0.00816,-0.14499 -0.00426,-0.294 0.01173,-0.44706c-0.14097,-0.02003 -0.26582,-0.03201 -0.4068,-0.05205c-0.04419,0.14904 -0.0763,0.29406 -0.11246,0.427c0.16917,0.02403 0.33834,0.04808 0.5075,0.07212zM303.86679,224.36266c-0.13292,-0.03615 -0.26184,-0.0602 -0.39477,-0.09636c-0.02807,0.15709 -0.06017,0.30211 -0.08825,0.45919c0.14901,0.0039 0.28595,0.01187 0.44705,0.01174c0.00797,-0.13694 0.02396,-0.24971 0.03596,-0.37458zM313.62053,228.71694c0.14906,0.04419 0.30614,0.07227 0.45116,0.10439c0.00391,-0.14903 0.01187,-0.28596 0.01174,-0.44705c-0.10873,-0.00395 -0.23361,-0.01592 -0.37054,-0.02388c-0.02406,0.1289 -0.05217,0.2457 -0.09234,0.36656zM305.66962,227.70809c0.14903,0.00392 0.29803,0.00783 0.45109,0.02382c0.00394,-0.10875 0.00384,-0.22957 0.0118,-0.3665c-0.12891,-0.02407 -0.24166,-0.04009 -0.3585,-0.0682c-0.03615,0.13293 -0.07229,0.26587 -0.1044,0.41088zM315.56868,227.23337c-0.11278,-0.01603 -0.22154,-0.01997 -0.34639,-0.03196c-0.0281,0.11682 -0.05621,0.23365 -0.08027,0.36253c0.13292,0.03615 0.26586,0.07229 0.41087,0.10441c0.00391,-0.14903 0.01188,-0.28595 0.01579,-0.43498zM313.1229,215.17307c0.03615,-0.13293 0.0562,-0.23362 0.10042,-0.3424c-0.14097,-0.02003 -0.26582,-0.03202 -0.41888,-0.04801c-0.00393,0.10874 -0.00789,0.2175 -0.0078,0.33831c0.10071,0.02006 0.21348,0.03607 0.32626,0.05211zM310.14201,214.41013c-0.01198,0.12486 -0.00385,0.22957 -0.01585,0.35444c0.11278,0.01603 0.22557,0.03204 0.33835,0.04808c0.0281,-0.11682 0.06024,-0.22156 0.08834,-0.33837c-0.14097,-0.02003 -0.26986,-0.04408 -0.41084,-0.06412zM304.96341,225.87615c-0.11682,-0.0281 -0.21752,-0.04816 -0.31418,-0.05614c-0.0281,0.11681 -0.05216,0.24572 -0.08831,0.37864c0.12082,-0.00009 0.24165,-0.00019 0.37859,0.00778c0.00393,-0.10875 0.00787,-0.21751 0.0239,-0.33027zM317.70664,221.17449c0.012,-0.12487 0.03203,-0.22556 0.0682,-0.3585c-0.10873,-0.00393 -0.2054,-0.01193 -0.31416,-0.01586c-0.00798,0.09666 -0.01998,0.18125 -0.03601,0.29403c0.08862,0.02409 0.17724,0.04818 0.28198,0.08033zM304.18091,219.03413c-0.01603,0.11279 -0.024,0.20944 -0.036,0.3343c0.09666,0.00797 0.17724,0.00792 0.27389,0.01589c0.02006,-0.10071 0.03208,-0.18529 0.05213,-0.28599c-0.10071,-0.02006 -0.17725,-0.04818 -0.29002,-0.06421zM317.08433,223.73238c0.08862,0.02409 0.16516,0.05223 0.2739,0.05617c0.00394,-0.10875 0.024,-0.20945 0.04003,-0.32222c-0.09262,0.00409 -0.17318,0.00415 -0.26984,-0.00382c-0.02005,0.10071 -0.03208,0.1853 -0.04409,0.26988zM303.88893,221.6965c-0.02006,0.10071 -0.03208,0.18529 -0.04811,0.29807c0.08054,-0.00006 0.14902,0.0039 0.22956,0.00385c-0.00006,-0.08055 0.01601,-0.15307 0.02802,-0.23765c-0.0725,-0.01605 -0.13292,-0.03614 -0.20947,-0.06426zM311.33652,228.15082c-0.06847,-0.00398 -0.12485,-0.012 -0.19332,-0.01597c-0.01204,0.04432 -0.03213,0.10473 -0.05223,0.16517c0.07249,0.01605 0.14501,0.03212 0.2296,0.04414c0.00397,-0.06847 0.012,-0.12485 0.01597,-0.19332zM308.43665,227.95166c0.08458,0.01202 0.15305,0.01599 0.23763,0.02799c0.06834,-0.15713 -0.02027,-0.18122 -0.1693,-0.18514c-0.02816,0.03627 -0.04022,0.08058 -0.06835,0.15712zM308.76172,215.86508c0.05635,-0.03227 0.1248,-0.06857 0.19325,-0.10486c-0.00809,-0.02416 -0.01211,-0.03623 -0.0202,-0.06038c-0.06042,-0.02009 -0.13292,-0.03615 -0.20543,-0.05221c-0.00399,0.06848 -0.00394,0.10875 -0.01195,0.16514c0.02014,0.02013 0.02419,0.03222 0.04434,0.05233z"/><path d="M310.42865,231.2204c0.44693,-0.14936 0.9143,0.08388 1.05963,0.51873c0.1574,0.43082 -0.08388,0.9143 -0.51873,1.05962c-0.43081,0.1574 -0.9143,-0.08388 -1.05962,-0.51874c-0.14936,-0.44693 0.07181,-0.91026 0.51874,-1.0596z"/><path d="M308.89436,231.41087c0.14935,0.44694 -0.09596,0.91832 -0.53485,1.05157c-0.43485,0.14534 -0.90626,-0.09999 -1.05158,-0.53484c-0.14534,-0.43485 0.09999,-0.90627 0.53484,-1.05158c0.44693,-0.14935 0.90222,0.08793 1.05157,0.53486z"/><path d="M301.6602,224.95234c0.02423,0.07249 0.06857,0.12479 0.10082,0.18115c0.14529,0.39458 -0.0195,0.82563 -0.38585,1.01521c-0.37842,0.1936 -0.8175,0.08521 -1.06344,-0.24889c-0.24594,-0.33409 -0.19794,-0.79326 0.09584,-1.07942c0.29783,-0.27409 0.76096,-0.29458 1.08737,-0.0411c0.05238,0.03621 0.10074,0.06033 0.15312,0.09655c0.00808,0.02415 0.00406,0.05236 0.01214,0.0765z"/><path d="M318.94753,227.05763c0.42276,-0.14129 0.87805,0.096 1.0113,0.53488c0.14128,0.42277 -0.096,0.87804 -0.51876,1.01933c-0.42681,0.12921 -0.88208,-0.10808 -1.02336,-0.53085c-0.1292,-0.42681 0.10809,-0.88208 0.53085,-1.02336z"/><path d="M301.29283,218.50872c0.14129,0.42276 -0.08794,0.86194 -0.52279,1.00725c-0.42276,0.14129 -0.86194,-0.08796 -1.00323,-0.51072c-0.1292,-0.42681 0.10004,-0.86597 0.52282,-1.00726c0.42276,-0.14129 0.86192,0.08796 1.0032,0.51073z"/><path d="M303.56829,213.14247c0.41874,-0.15336 0.86997,0.07185 1.01126,0.49461c0.13724,0.41068 -0.07184,0.86997 -0.49461,1.01125c-0.42278,0.14129 -0.86998,-0.07183 -1.01126,-0.4946c-0.14128,-0.42277 0.07184,-0.86998 0.4946,-1.01126z"/><path d="M300.95249,221.10669c0.14128,0.42277 -0.08392,0.87403 -0.50669,1.0153c-0.42276,0.14129 -0.87401,-0.08391 -1.01529,-0.50668c-0.14129,-0.42276 0.08391,-0.87401 0.50668,-1.0153c0.42276,-0.14129 0.87401,0.08391 1.0153,0.50667z"/><path d="M306.04466,212.51632c0.15335,0.41874 -0.07185,0.86997 -0.49461,1.01126c-0.41069,0.13724 -0.874,-0.08391 -1.01528,-0.50667c-0.14129,-0.42276 0.08391,-0.87402 0.50667,-1.0153c0.42276,-0.14129 0.86997,0.07184 1.00321,0.51072z"/><path d="M319.69282,216.71058c-0.41472,0.12517 -0.86597,-0.10003 -1.0032,-0.51072c-0.1292,-0.42681 0.10002,-0.86597 0.51072,-1.00322c0.41472,-0.12517 0.85389,0.10406 0.99115,0.51475c0.13724,0.41068 -0.10004,0.86596 -0.49864,0.99918z"/><path d="M318.0554,213.7396c0.42278,-0.14129 0.86999,0.07183 0.99919,0.49863c0.13724,0.41068 -0.10407,0.85388 -0.51476,0.99114c-0.41069,0.13725 -0.84583,-0.0799 -0.98307,-0.4906c-0.13724,-0.41068 0.08794,-0.86193 0.49863,-0.99919z"/><path d="M321.74821,223.86576c0.13724,0.41068 -0.07588,0.85789 -0.51476,0.99114c-0.41069,0.13725 -0.84583,-0.0799 -0.98307,-0.49059c-0.14129,-0.42276 0.07586,-0.8579 0.49863,-0.99918c0.42276,-0.14129 0.8579,0.07587 0.99917,0.49864z"/><path d="M303.07818,214.76994c0.13724,0.41068 -0.07991,0.84583 -0.49061,0.98307c-0.39861,0.1332 -0.84581,-0.07991 -0.97902,-0.47852c-0.13322,-0.39862 0.07989,-0.84583 0.49059,-0.98307c0.41069,-0.13724 0.85791,0.07587 0.97904,0.47853z"/><path d="M305.74138,232.06167c-0.41069,0.13725 -0.84582,-0.07991 -0.98307,-0.49059c-0.13322,-0.39861 0.08396,-0.83374 0.47853,-0.97902c0.41069,-0.13724 0.8579,0.07587 0.99515,0.48656c0.13322,0.39862 -0.07991,0.84583 -0.4906,0.98308z"/><path d="M320.61489,221.76029c-0.13724,-0.41068 0.06782,-0.84179 0.47851,-0.97904c0.41069,-0.13724 0.84179,0.06783 0.98708,0.46242c0.13322,0.39861 -0.06782,0.84179 -0.47447,0.99111c-0.41069,0.13724 -0.84178,-0.06783 -0.9911,-0.47449z"/><path d="M319.85869,217.68912c-0.14529,-0.39458 0.06783,-0.84178 0.46241,-0.98707c0.39459,-0.1453 0.8297,0.07186 0.97499,0.46644c0.14529,0.39457 -0.05979,0.82567 -0.45437,0.97095c-0.40667,0.14933 -0.83372,-0.04367 -0.98303,-0.45033z"/><path d="M313.53521,233.08274c-0.38653,0.12918 -0.83373,-0.08394 -0.96694,-0.48255c-0.13322,-0.39861 0.0759,-0.81762 0.47047,-0.96292c0.40667,-0.14933 0.84179,0.06783 0.97499,0.46644c0.13724,0.41068 -0.06784,0.84178 -0.47853,0.97903z"/><path d="M307.48162,211.3916c0.13322,0.39861 -0.07185,0.8297 -0.48256,0.96694c-0.39861,0.1332 -0.83374,-0.08394 -0.96695,-0.48256c-0.13322,-0.39862 0.0759,-0.81764 0.47047,-0.96293c0.39861,-0.1332 0.84581,0.0799 0.97903,0.47852z"/><path d="M311.55675,210.60717c0.12916,0.38654 -0.08796,0.82166 -0.48254,0.96695c-0.39057,0.11709 -0.8257,-0.10005 -0.95486,-0.4866c-0.1171,-0.39056 0.08797,-0.82167 0.47451,-0.95084c0.39861,-0.1332 0.82971,0.07187 0.96292,0.47049z"/><path d="M312.74144,211.4198c-0.13322,-0.39862 0.08797,-0.82167 0.47047,-0.96293c0.39057,-0.11709 0.82166,0.08797 0.95084,0.47451c0.13322,0.39861 -0.08394,0.83375 -0.47047,0.96292c-0.38653,0.12919 -0.81762,-0.0759 -0.95083,-0.47451z"/><path d="M300.57189,223.74495c0.12916,0.38654 -0.09202,0.80959 -0.49063,0.94279c-0.39058,0.11709 -0.80959,-0.09202 -0.93875,-0.47855c-0.12916,-0.38654 0.07591,-0.81763 0.47451,-0.95085c0.39861,-0.13322 0.81763,0.07591 0.95487,0.4866z"/><path d="M316.46821,213.24946c-0.13724,-0.41068 0.07589,-0.81763 0.47855,-0.93877c0.39861,-0.13322 0.80555,0.07994 0.93877,0.47855c0.12916,0.38654 -0.07993,0.80555 -0.46647,0.93473c-0.39861,0.1332 -0.81763,-0.0759 -0.95085,-0.47451z"/><path d="M319.95834,226.94811c-0.13322,-0.39861 0.0759,-0.81762 0.46243,-0.9468c0.38653,-0.12919 0.78943,0.07189 0.93068,0.45438c0.14128,0.38249 -0.06382,0.8136 -0.45035,0.94278c-0.39458,0.14531 -0.81359,-0.06383 -0.94277,-0.45036z"/><path d="M301.57279,215.93097c0.11306,0.37849 -0.088,0.78139 -0.43426,0.91052c-0.3825,0.14127 -0.80152,-0.06784 -0.93068,-0.45438c-0.12916,-0.38654 0.0719,-0.78944 0.44636,-0.91457c0.38653,-0.12918 0.78942,0.07189 0.9186,0.45843z"/><path d="M309.4681,233.81077c-0.37446,0.12513 -0.77331,-0.06385 -0.89845,-0.43829c-0.13721,-0.37041 0.05178,-0.76928 0.42219,-0.9065c0.37041,-0.1372 0.78539,0.05982 0.91052,0.43428c0.12514,0.37446 -0.06385,0.77331 -0.43427,0.91052z"/><path d="M321.46199,218.22759c0.38653,-0.12918 0.78539,0.05982 0.91456,0.44636c0.12512,0.37446 -0.06386,0.77331 -0.43831,0.89844c-0.38653,0.12918 -0.78539,-0.05981 -0.91457,-0.44635c-0.13723,-0.3704 0.05178,-0.76928 0.43831,-0.89844z"/><path d="M316.69231,211.30805c0.12512,0.37447 -0.05582,0.7572 -0.43027,0.88234c-0.36237,0.1211 -0.7451,-0.05984 -0.86621,-0.42222c-0.12111,-0.36237 0.07191,-0.74915 0.41817,-0.87829c0.35833,-0.13319 0.75718,0.05581 0.87829,0.41818z"/><path d="M308.44801,211.1492c-0.36237,0.1211 -0.74916,-0.07192 -0.87429,-0.44638c-0.11707,-0.35029 0.07597,-0.73708 0.43834,-0.85818c0.36237,-0.1211 0.74916,0.07193 0.86621,0.42223c0.13721,0.37041 -0.06789,0.76123 -0.43026,0.88234z"/><path d="M306.39789,232.13771c0.36238,-0.1211 0.74918,0.07193 0.86622,0.42223c0.12111,0.36238 -0.06789,0.76124 -0.43027,0.88234c-0.35028,0.11706 -0.74511,-0.05986 -0.86622,-0.42223c-0.12512,-0.37446 0.0679,-0.76123 0.43027,-0.88234z"/><path d="M300.40954,227.39795c0.34625,-0.12915 0.73304,0.06389 0.85414,0.42626c0.11707,0.35029 -0.06388,0.73303 -0.41418,0.8501c-0.34625,0.12915 -0.73303,-0.06388 -0.85414,-0.42625c-0.12111,-0.36238 0.06388,-0.73303 0.41417,-0.85011z"/><path d="M311.62603,232.83451c0.35029,-0.11708 0.72097,0.06792 0.85011,0.41418c0.13319,0.35834 -0.05984,0.74511 -0.42221,0.86621c-0.3503,0.11706 -0.73306,-0.06388 -0.8501,-0.41418c-0.13319,-0.35834 0.05986,-0.74511 0.42222,-0.86622z"/><path d="M299.69484,219.67388c0.11707,0.35029 -0.06791,0.72096 -0.41417,0.85011c-0.36237,0.1211 -0.74512,-0.05985 -0.86623,-0.42222c-0.11707,-0.35029 0.06388,-0.73304 0.41418,-0.85011c0.35834,-0.13319 0.75719,0.0558 0.86622,0.42222z"/><path d="M301.5585,228.86707c0.35029,-0.11708 0.73708,0.07597 0.85414,0.42626c0.11705,0.35029 -0.07597,0.73709 -0.43833,0.85819c-0.36238,0.1211 -0.74916,-0.07193 -0.85819,-0.43834c-0.10499,-0.35434 0.09209,-0.72903 0.44238,-0.8461z"/><path d="M322.69444,223.60327c-0.33821,0.11303 -0.725,-0.07999 -0.83804,-0.41822c-0.11707,-0.35029 0.06792,-0.72097 0.40211,-0.84607c0.3503,-0.11706 0.73304,0.06389 0.85011,0.41418c0.12111,0.36238 -0.07597,0.73708 -0.41418,0.85011z"/><path d="M318.01643,231.34352c0.11707,0.35029 -0.07596,0.73707 -0.42626,0.85413c-0.3503,0.11707 -0.72098,-0.06792 -0.83804,-0.41822c-0.12914,-0.34626 0.06792,-0.72095 0.41821,-0.83802c0.35029,-0.11708 0.72097,0.06791 0.84608,0.40209z"/><path d="M318.22534,230.64256c-0.11302,-0.33822 0.07195,-0.70888 0.41821,-0.83803c0.36238,-0.1211 0.73709,0.07597 0.85415,0.42626c0.10095,0.34225 -0.08405,0.71293 -0.43434,0.83c-0.3503,0.11707 -0.72095,-0.06793 -0.83802,-0.41822z"/><path d="M298.09823,222.69166c-0.11303,-0.33823 0.07194,-0.70889 0.40614,-0.834c0.33823,-0.11303 0.7089,0.07196 0.82192,0.41017c0.11707,0.3503 -0.06793,0.72096 -0.41823,0.83803c-0.33821,0.11303 -0.69681,-0.076 -0.80983,-0.41422z"/><path d="M316.11295,233.32244c-0.33823,0.11303 -0.70889,-0.07196 -0.82593,-0.42226c-0.11303,-0.33823 0.07601,-0.6968 0.41422,-0.80982c0.33823,-0.11303 0.7089,0.07195 0.82192,0.41016c0.109,0.32615 -0.07197,0.70889 -0.41019,0.82192z"/><path d="M302.28116,231.19037c-0.11302,-0.33822 0.05987,-0.70485 0.39406,-0.82995c0.3503,-0.11707 0.70485,0.05987 0.82995,0.39405c0.11705,0.35029 -0.05181,0.72901 -0.4021,0.84607c-0.33823,0.11303 -0.70889,-0.07196 -0.82192,-0.41017z"/><path d="M321.93432,224.98525c0.33821,-0.11303 0.72097,0.06791 0.82191,0.41018c0.0969,0.33017 -0.09212,0.68875 -0.41826,0.79775c-0.34225,0.10094 -0.70084,-0.08806 -0.80982,-0.41421c-0.109,-0.32615 0.07599,-0.69681 0.40617,-0.79372z"/><path d="M299.20121,216.66979c0.32613,-0.109 0.69276,0.06392 0.80579,0.40214c0.11303,0.33823 -0.076,0.69681 -0.41421,0.80983c-0.33821,0.11303 -0.69277,-0.06391 -0.80579,-0.40214c-0.10094,-0.34225 0.076,-0.69681 0.41422,-0.80984z"/><path d="M299.29687,225.95697c0.33821,-0.11303 0.69275,0.06389 0.80175,0.39004c0.1251,0.33419 -0.0478,0.70082 -0.38601,0.81385c-0.33418,0.12512 -0.70484,-0.05987 -0.81787,-0.39809c-0.11302,-0.3382 0.06392,-0.69276 0.40214,-0.80579z"/><path d="M323.0227,220.96907c-0.33018,0.09691 -0.68473,-0.08003 -0.80175,-0.39005c-0.109,-0.32613 0.06391,-0.69275 0.39005,-0.80175c0.33821,-0.11303 0.69276,0.06391 0.80579,0.40211c0.11302,0.33822 -0.06795,0.68069 -0.3941,0.78969z"/><path d="M320.92253,229.1101c0.11302,0.33822 -0.06795,0.68068 -0.39409,0.78967c-0.32613,0.109 -0.68067,-0.06795 -0.78966,-0.39409c-0.11302,-0.33822 0.07195,-0.70888 0.40212,-0.80579c0.33018,-0.09691 0.67265,0.08406 0.78164,0.41019z"/><path d="M312.89708,209.51472c0.12106,0.3221 -0.05184,0.68873 -0.39005,0.80176c-0.32613,0.109 -0.68069,-0.06794 -0.78969,-0.39409c-0.109,-0.32613 0.06795,-0.68067 0.3941,-0.78967c0.33821,-0.11303 0.68874,0.05183 0.78564,0.382z"/><path d="M303.28566,212.21638c0.109,0.32615 -0.06796,0.68068 -0.39409,0.78969c-0.33018,0.09692 -0.67264,-0.08407 -0.7776,-0.39813c-0.109,-0.32615 0.05991,-0.66456 0.38605,-0.77356c0.32613,-0.109 0.66861,0.07199 0.78565,0.38201z"/><path d="M320.72195,214.24502c0.32613,-0.109 0.66457,0.05991 0.77356,0.38604c0.12106,0.3221 -0.06391,0.69277 -0.39409,0.78969c-0.33018,0.09691 -0.67264,-0.08405 -0.7776,-0.39812c-0.09692,-0.33017 0.07201,-0.66861 0.39814,-0.7776z"/><path d="M303.97723,210.70959c0.31407,-0.10495 0.6686,0.07199 0.77355,0.38605c0.109,0.32613 -0.07199,0.66859 -0.39812,0.77759c-0.33018,0.09692 -0.65653,-0.07602 -0.76552,-0.40216c-0.10496,-0.31406 0.07198,-0.66861 0.39008,-0.76148z"/><path d="M300.65287,213.74075c-0.10496,-0.31406 0.06393,-0.65249 0.39008,-0.76148c0.31406,-0.10495 0.67265,0.08406 0.76551,0.40216c0.09287,0.31809 -0.07601,0.65653 -0.39412,0.74939c-0.3181,0.09286 -0.65652,-0.07601 -0.76148,-0.39008z"/><path d="M309.91309,209.94793c-0.31003,0.11704 -0.64846,-0.05187 -0.76549,-0.3619c-0.12106,-0.32211 0.05587,-0.67664 0.36993,-0.7816c0.31406,-0.10496 0.66458,0.05991 0.76953,0.37397c0.10495,0.31406 -0.06395,0.6525 -0.37397,0.76953z"/><path d="M320.35864,213.15789c0.10496,0.31406 -0.06393,0.65249 -0.37801,0.75744c-0.32613,0.10898 -0.66455,-0.0599 -0.76951,-0.37397c-0.10496,-0.31406 0.06393,-0.65249 0.37799,-0.75745c0.32613,-0.10898 0.66457,0.05991 0.76953,0.37397z"/><path d="M314.72954,209.49318c0.30198,-0.10092 0.65248,0.06393 0.76953,0.37397c0.11702,0.31002 -0.07198,0.66861 -0.38604,0.77357c-0.3181,0.09286 -0.65653,-0.07602 -0.76149,-0.39008c-0.10495,-0.31406 0.06395,-0.65249 0.37801,-0.75745z"/><path d="M303.83627,231.86578c0.32613,-0.109 0.65249,0.06394 0.75744,0.37801c0.109,0.32613 -0.05188,0.64844 -0.37801,0.75744c-0.32613,0.109 -0.64845,-0.05185 -0.75745,-0.37799c-0.10495,-0.31406 0.06394,-0.6525 0.37801,-0.75745z"/><path d="M314.61153,234.37473c-0.31406,0.10495 -0.63638,-0.05591 -0.74937,-0.35385c-0.10495,-0.31407 0.06395,-0.6525 0.36593,-0.7534c0.31407,-0.10495 0.6525,0.06394 0.75341,0.36593c0.10092,0.30198 -0.05589,0.63637 -0.36996,0.74133z"/><path d="M322.59211,216.10426c0.10496,0.31406 -0.05187,0.64847 -0.36593,0.75342c-0.31003,0.11704 -0.64441,-0.03978 -0.74937,-0.35384c-0.10496,-0.31406 0.05186,-0.64845 0.36592,-0.7534c0.31003,-0.11704 0.64846,0.05184 0.74937,0.35383z"/><path d="M298.20034,224.52404c0.30198,-0.10092 0.62835,0.07202 0.72927,0.374c0.10091,0.30198 -0.07203,0.62835 -0.37401,0.72925c-0.3181,0.09288 -0.62431,-0.05994 -0.72927,-0.374c-0.10091,-0.30198 0.05994,-0.6243 0.374,-0.72927z"/><path d="M305.82581,210.69611c-0.30198,0.10092 -0.6243,-0.05994 -0.72521,-0.36192c-0.10091,-0.30198 0.05995,-0.62429 0.36193,-0.72521c0.30198,-0.10092 0.62431,0.05993 0.72522,0.36191c0.10496,0.31406 -0.05994,0.6243 -0.36193,0.72522z"/><path d="M319.19764,211.69278c0.10091,0.30198 -0.05995,0.6243 -0.36192,0.72521c-0.30198,0.10092 -0.6243,-0.05994 -0.72521,-0.36192c-0.10091,-0.30197 0.05995,-0.62429 0.36192,-0.72521c0.30198,-0.10092 0.6243,0.05994 0.72521,0.36192z"/><path d="M308.30034,234.09358c0.09286,0.3181 -0.07202,0.62833 -0.374,0.72925c-0.30198,0.10092 -0.62835,-0.07201 -0.72927,-0.37399c-0.10091,-0.30198 0.07202,-0.62835 0.374,-0.72926c0.31406,-0.10496 0.62431,0.05994 0.72927,0.374z"/><path d="M310.89426,234.42186c0.10091,0.30198 -0.05995,0.62431 -0.36191,0.72522c-0.30198,0.10092 -0.62431,-0.05993 -0.72522,-0.3619c-0.10091,-0.30198 0.05995,-0.62432 0.36192,-0.72523c0.31406,-0.10496 0.63638,0.05591 0.72522,0.36192z"/><path d="M321.96935,228.70658c-0.28586,0.10896 -0.62027,-0.04784 -0.71714,-0.33776c-0.10091,-0.30197 0.04785,-0.62028 0.34984,-0.72119c0.28586,-0.10896 0.62028,0.04785 0.71715,0.33777c0.11299,0.29794 -0.04787,0.62027 -0.34985,0.72119z"/><path d="M299.921,215.2073c-0.2899,0.09689 -0.60817,-0.05188 -0.70505,-0.34179c-0.09689,-0.2899 0.05188,-0.60818 0.34178,-0.70506c0.30198,-0.10092 0.60818,0.05188 0.70507,0.34178c0.09688,0.2899 -0.05189,0.6082 -0.3418,0.70508z"/><path d="M297.41998,220.50124c0.27781,-0.09285 0.59206,0.04383 0.68893,0.33374c0.09284,0.27781 -0.05996,0.58403 -0.33375,0.68895c-0.27781,0.09284 -0.59206,-0.04384 -0.68895,-0.33374c-0.09688,-0.28988 0.04385,-0.59207 0.33375,-0.68895z"/><path d="M297.43462,218.57611c-0.10896,-0.28587 0.04787,-0.57998 0.33376,-0.68894c0.2899,-0.09688 0.59609,0.05593 0.69298,0.34583c0.08076,0.28186 -0.05997,0.58402 -0.33779,0.67687c-0.2899,0.09688 -0.59206,-0.04384 -0.68895,-0.33375z"/><path d="M322.66196,217.96087c-0.09688,-0.28991 0.04386,-0.59208 0.31764,-0.697c0.27783,-0.09285 0.60014,0.06801 0.69297,0.34584c0.09284,0.27781 -0.05191,0.56791 -0.32569,0.67283c-0.28586,0.10896 -0.58803,-0.03177 -0.6849,-0.32167z"/><path d="M306.94378,208.53655c0.26574,-0.08881 0.57195,0.06401 0.67283,0.32571c0.09284,0.27781 -0.05191,0.5679 -0.31362,0.66878c-0.27379,0.10491 -0.59207,-0.04386 -0.68491,-0.32167c-0.10089,-0.2617 0.04789,-0.57998 0.32572,-0.67282z"/><path d="M323.7708,224.93551c-0.27781,0.09284 -0.57194,-0.06402 -0.66074,-0.32976c-0.08881,-0.26574 0.064,-0.57194 0.34182,-0.66478c0.27781,-0.09284 0.57194,0.06401 0.66478,0.34184c0.0848,0.29394 -0.05997,0.58403 -0.34586,0.65272z"/><path d="M305.33641,234.42608c-0.27781,0.09284 -0.58401,-0.05997 -0.67685,-0.33779c-0.09284,-0.27781 0.03984,-0.56388 0.31363,-0.66879c0.27379,-0.10491 0.57999,0.0479 0.67283,0.32571c0.09284,0.27781 -0.04789,0.57998 -0.3096,0.68086z"/><path d="M317.67869,210.88443c-0.27781,0.09284 -0.55584,-0.05595 -0.64868,-0.33377c-0.08881,-0.26574 0.05596,-0.55583 0.32171,-0.64464c0.26574,-0.08881 0.57194,0.06401 0.66075,0.32975c0.09284,0.27781 -0.05191,0.5679 -0.33376,0.64866z"/><path d="M313.44794,234.79045c0.09284,0.27781 -0.06805,0.55985 -0.33783,0.63659c-0.27783,0.09285 -0.56791,-0.05192 -0.64867,-0.33378c-0.08881,-0.26574 0.06,-0.54376 0.32574,-0.63256c0.27781,-0.09285 0.57193,0.064 0.66074,0.32975z"/><path d="M324.44493,221.68891c0.07673,0.26977 -0.06805,0.55986 -0.34991,0.64061c-0.26574,0.08881 -0.54374,-0.05999 -0.63255,-0.32574c-0.09284,-0.27781 0.05596,-0.55582 0.33379,-0.64866c0.27781,-0.09284 0.57194,0.06402 0.64867,0.33378z"/><path d="M297.09172,223.13544c0.25366,-0.08477 0.54376,0.06 0.6406,0.30963c0.08477,0.25367 -0.05196,0.52763 -0.30159,0.62448c-0.27378,0.10491 -0.55982,-0.02776 -0.64863,-0.2935c-0.08881,-0.26574 0.04387,-0.55179 0.30961,-0.6406z"/><path d="M299.6214,229.01757c0.08477,0.25367 -0.05197,0.52765 -0.31771,0.61645c-0.25367,0.08477 -0.52763,-0.05196 -0.61239,-0.30563c-0.08881,-0.26572 0.05999,-0.54376 0.31365,-0.62851c0.25366,-0.08477 0.53971,0.04792 0.61645,0.31769z"/><path d="M322.80591,227.1916c-0.08477,-0.25367 0.06001,-0.54374 0.31366,-0.62851c0.24158,-0.08073 0.51556,0.056 0.61241,0.30562c0.08881,0.26574 -0.04389,0.55179 -0.29756,0.63656c-0.26171,0.10089 -0.5518,-0.04389 -0.62851,-0.31367z"/><path d="M311.33787,208.70638c-0.25367,0.08477 -0.52765,-0.05196 -0.61242,-0.30562c-0.08477,-0.25367 0.06405,-0.53167 0.31771,-0.61643c0.25367,-0.08477 0.53167,0.06404 0.61644,0.31771c0.08477,0.25367 -0.06404,0.53166 -0.32173,0.60436z"/><path d="M313.64109,208.12467c0.25367,-0.08477 0.53972,0.04794 0.62853,0.31368c0.08477,0.25367 -0.06404,0.53166 -0.31771,0.61643c-0.25366,0.08477 -0.52764,-0.05195 -0.61241,-0.30562c-0.09685,-0.24962 0.04792,-0.53972 0.30159,-0.62448z"/><path d="M300.12973,230.17709c0.25367,-0.08477 0.53971,0.04791 0.60837,0.29354c0.10089,0.26169 -0.03585,0.53567 -0.30159,0.62448c-0.25367,0.08477 -0.52359,-0.03987 -0.60836,-0.29353c-0.08477,-0.25367 0.03585,-0.53567 0.30159,-0.62448z"/><path d="M318.96404,232.89335c0.08074,0.24158 -0.05599,0.51556 -0.29756,0.5963c-0.25366,0.08477 -0.52359,-0.03988 -0.60836,-0.29355c-0.08477,-0.25367 0.05195,-0.52764 0.30561,-0.61241c0.24156,-0.08072 0.51959,0.06807 0.60033,0.30965z"/><path d="M298.43568,216.26763c-0.24158,0.08073 -0.51557,-0.05598 -0.60433,-0.28146c-0.09685,-0.24962 0.03584,-0.53568 0.28951,-0.62045c0.25367,-0.08477 0.52764,0.05197 0.61241,0.30562c0.08477,0.25367 -0.04391,0.51152 -0.29757,0.59628z"/><path d="M319.82888,231.46294c0.25367,-0.08477 0.52359,0.03988 0.60836,0.29355c0.08477,0.25367 -0.05196,0.52764 -0.30561,0.61241c-0.24156,0.08073 -0.51555,-0.05598 -0.59629,-0.29757c-0.09283,-0.23754 0.03988,-0.5236 0.29354,-0.60837z"/><path d="M316.89056,233.72056c0.24158,-0.08073 0.49943,0.04795 0.58017,0.28954c0.08074,0.24158 -0.05599,0.51556 -0.29757,0.5963c-0.24158,0.08073 -0.50749,-0.07212 -0.58823,-0.3137c-0.06463,-0.23355 0.06406,-0.49138 0.30565,-0.57213z"/><path d="M323.85112,219.38969c-0.08074,-0.24158 0.05598,-0.51555 0.28955,-0.58017c0.24158,-0.08073 0.51152,0.04391 0.59629,0.29757c0.08074,0.24158 -0.04795,0.49944 -0.3016,0.58421c-0.24561,0.06865 -0.50346,-0.06002 -0.5842,-0.30162z"/><path d="M298.46842,227.53636c0.08074,0.24158 -0.04389,0.51153 -0.29357,0.5681c-0.24962,0.09686 -0.50749,-0.03184 -0.59226,-0.28551c-0.08074,-0.24158 0.04794,-0.49943 0.30161,-0.58419c0.24561,-0.06866 0.50346,0.06002 0.5842,0.3016z"/><path d="M301.56934,232.5562c-0.24158,0.08073 -0.49942,-0.04795 -0.58016,-0.28954c-0.08074,-0.24158 0.03585,-0.49539 0.2734,-0.58821c0.25367,-0.08477 0.52359,0.03988 0.60433,0.28146c0.08072,0.24158 -0.04392,0.51153 -0.29758,0.59629z"/><path d="M321.02059,230.93042c-0.08074,-0.24158 0.04795,-0.49944 0.26539,-0.5721c0.24156,-0.08072 0.5115,0.04391 0.59223,0.2855c0.08074,0.24158 -0.06002,0.50348 -0.28952,0.58018c-0.23353,0.06463 -0.49139,-0.06407 -0.56809,-0.29357z"/><path d="M309.31236,235.59504c0.09282,0.23755 -0.03588,0.4954 -0.27746,0.57613c-0.24158,0.08073 -0.49943,-0.04794 -0.58017,-0.28953c-0.0767,-0.2295 0.03991,-0.48332 0.28149,-0.56404c0.23755,-0.09282 0.48331,0.03989 0.57612,0.27744z"/><path d="M309.0093,207.76574c0.0767,0.2295 -0.05198,0.48735 -0.28149,0.56405c-0.22951,0.0767 -0.47125,-0.04395 -0.54794,-0.27346c-0.0767,-0.2295 0.05198,-0.48735 0.28149,-0.56404c0.21743,-0.07266 0.47124,0.04395 0.54793,0.27345z"/><path d="M316.2552,208.51337c0.21743,-0.07266 0.47123,0.04393 0.54792,0.27344c0.0767,0.2295 -0.05198,0.48735 -0.28149,0.56405c-0.22951,0.0767 -0.47124,-0.04395 -0.54794,-0.27346c-0.0767,-0.2295 0.05199,-0.48734 0.2815,-0.56403z"/><path d="M302.15823,233.71565c-0.0767,-0.22951 0.04394,-0.47124 0.27345,-0.54793c0.21743,-0.07266 0.45916,0.04798 0.53182,0.26541c0.0767,0.2295 -0.04394,0.47123 -0.27345,0.54793c-0.22951,0.0767 -0.47124,-0.04393 -0.53183,-0.26541z"/><path d="M301.69417,211.3517c-0.22951,0.0767 -0.45917,-0.04798 -0.53183,-0.26539c-0.0767,-0.22951 0.04395,-0.47126 0.27346,-0.54794c0.22951,-0.0767 0.47528,0.05602 0.5399,0.28956c0.07267,0.21742 -0.05201,0.44709 -0.28152,0.52378z"/><path d="M311.62478,236.48737c-0.2295,0.0767 -0.45915,-0.04797 -0.53585,-0.27747c-0.07266,-0.21743 0.04394,-0.47125 0.27345,-0.54794c0.22951,-0.0767 0.46321,0.06007 0.53991,0.28957c0.06463,0.23355 -0.04798,0.45916 -0.27749,0.53585z"/><path d="M321.97418,213.8534c-0.0767,-0.22951 0.0399,-0.48334 0.26941,-0.56003c0.21743,-0.07266 0.47528,0.05603 0.54794,0.27346c0.06058,0.22147 -0.06004,0.46319 -0.27748,0.53586c-0.21743,0.07266 -0.45917,-0.04798 -0.53987,-0.24929z"/><path d="M306.42485,235.79459c-0.21339,0.08474 -0.46316,-0.01979 -0.55598,-0.25733c-0.08876,-0.22548 0.02782,-0.47928 0.25733,-0.55598c0.21743,-0.07266 0.45916,0.04798 0.54391,0.26137c0.08878,0.22547 -0.03185,0.46721 -0.24524,0.55195z"/><path d="M303.44079,209.66691c0.0767,0.22951 -0.04395,0.47124 -0.27346,0.54794c-0.21743,0.07266 -0.45916,-0.04799 -0.53182,-0.26541c-0.0767,-0.2295 0.04395,-0.47124 0.27345,-0.54793c0.21743,-0.07266 0.45916,0.04798 0.53182,0.2654z"/><path d="M315.15604,235.44159c-0.0767,-0.22951 0.04395,-0.47126 0.26138,-0.54391c0.21743,-0.07266 0.45916,0.04798 0.53182,0.26539c0.07266,0.21743 -0.03591,0.45513 -0.25334,0.52779c-0.21743,0.07266 -0.45511,-0.03589 -0.53986,-0.24928z"/><path d="M321.1188,211.81617c0.20535,-0.06863 0.44306,0.03993 0.5278,0.25332c0.08878,0.22548 -0.03186,0.4672 -0.2493,0.53987c-0.21743,0.07266 -0.45512,-0.03591 -0.52779,-0.25333c-0.07266,-0.21743 0.0359,-0.45514 0.24928,-0.53986z"/><path d="M300.49041,211.92853c0.06862,0.20535 -0.03995,0.44306 -0.25334,0.52779c-0.21339,0.08473 -0.45107,-0.02381 -0.53583,-0.2372c-0.08473,-0.21339 0.02383,-0.4511 0.23722,-0.53583c0.21339,-0.08474 0.4672,0.03186 0.55195,0.24524z"/><path d="M296.32348,219.14885c0.21339,-0.08473 0.43901,0.02786 0.52376,0.24126c0.08878,0.22548 -0.01979,0.46318 -0.2493,0.53988c-0.21743,0.07266 -0.45512,-0.03591 -0.52779,-0.25334c-0.07266,-0.21743 0.03589,-0.45513 0.25332,-0.52779z"/><path d="M325.48111,223.18229c0.07266,0.21743 -0.03591,0.45513 -0.25334,0.52779c-0.21743,0.07266 -0.44709,-0.05201 -0.51571,-0.25735c-0.07266,-0.21743 0.03994,-0.44306 0.24529,-0.51168c0.20132,-0.0807 0.42693,0.0319 0.52376,0.24126z"/><path d="M297.02588,226.59504c-0.20535,0.06862 -0.43501,-0.05605 -0.51571,-0.25737c-0.06862,-0.20535 0.05202,-0.44708 0.25737,-0.51571c0.21743,-0.07266 0.4471,0.05202 0.51974,0.26944c0.07266,0.21743 -0.04398,0.43097 -0.2614,0.50363z"/><path d="M323.11502,215.29839c-0.06862,-0.20535 0.05202,-0.4471 0.25737,-0.51572c0.21743,-0.07266 0.45918,0.04797 0.51976,0.26944c0.07266,0.21743 -0.04398,0.43097 -0.26141,0.50364c-0.20535,0.06863 -0.43502,-0.05605 -0.51572,-0.25736z"/><path d="M304.12884,208.83269c-0.06862,-0.20536 0.04397,-0.43098 0.24529,-0.51168c0.22951,-0.0767 0.45513,0.0359 0.52779,0.25333c0.06862,0.20536 -0.03188,0.42693 -0.24932,0.4996c-0.21743,0.07266 -0.44306,-0.03993 -0.52376,-0.24125z"/><path d="M296.25355,222.51584c-0.21339,0.08475 -0.43902,-0.02786 -0.51168,-0.24529c-0.06864,-0.20536 0.03992,-0.44305 0.24529,-0.51167c0.21743,-0.07266 0.45514,0.03591 0.5278,0.25334c0.06864,0.20536 -0.05605,0.43501 -0.2614,0.50363z"/><path d="M320.00615,210.37519c0.20534,-0.06862 0.43095,0.04399 0.4875,0.25337c0.06862,0.20535 -0.03188,0.42694 -0.23723,0.49556c-0.20535,0.06863 -0.44708,-0.05201 -0.50363,-0.26139c-0.06862,-0.20533 0.04801,-0.41889 0.25336,-0.48752z"/><path d="M322.7914,229.27784c0.20535,-0.06863 0.41486,0.03594 0.50764,0.23322c0.07266,0.21743 -0.03993,0.44304 -0.24528,0.51166c-0.20939,0.05654 -0.43099,-0.04397 -0.49961,-0.24932c-0.06864,-0.20536 0.0319,-0.42694 0.23725,-0.49556z"/><path d="M296.93423,217.27966c-0.20534,0.06862 -0.41485,-0.03594 -0.47943,-0.2292c-0.06864,-0.20536 0.03591,-0.41485 0.24127,-0.48347c0.19327,-0.06458 0.4068,0.05206 0.47139,0.24532c0.06862,0.20535 -0.03996,0.40278 -0.23324,0.46737z"/><path d="M324.38379,226.04662c-0.06862,-0.20533 0.03594,-0.41484 0.22919,-0.47942c0.20534,-0.06862 0.41889,0.04801 0.48751,0.25336c0.06459,0.19326 -0.05204,0.4068 -0.24531,0.47139c-0.19327,0.06458 -0.4068,-0.05205 -0.47139,-0.24531z"/><path d="M325.30579,220.36725c0.19327,-0.06458 0.39874,0.02788 0.47943,0.22919c0.06055,0.18119 -0.03192,0.38666 -0.22115,0.46333c-0.19327,0.06458 -0.41486,-0.03593 -0.47945,-0.2292c-0.06459,-0.19326 0.02789,-0.39873 0.22116,-0.46332z"/><path d="M312.32343,207.23563c-0.06459,-0.19326 0.02789,-0.39874 0.23325,-0.46736c0.18119,-0.06056 0.39873,0.02788 0.46331,0.22116c0.07666,0.18923 -0.03594,0.41484 -0.2292,0.47942c-0.19327,0.06457 -0.40681,-0.05205 -0.46736,-0.23323z"/><path d="M298.26832,213.31565c-0.06459,-0.19326 0.04399,-0.39071 0.23726,-0.45528c0.19327,-0.06458 0.39874,0.02789 0.46333,0.22115c0.06862,0.20533 -0.04802,0.4189 -0.24532,0.4714c-0.19327,0.06458 -0.39069,-0.04399 -0.45527,-0.23726z"/><path d="M324.97664,216.52936c0.06055,0.18119 -0.03193,0.38665 -0.21311,0.44721c-0.17715,0.07264 -0.38665,-0.03192 -0.4472,-0.2131c-0.07264,-0.17716 0.03192,-0.38665 0.2131,-0.44721c0.17715,-0.07264 0.38666,0.03192 0.44721,0.21311z"/><path d="M306.32676,207.45364c0.06055,0.18118 -0.04401,0.39068 -0.22519,0.45123c-0.18119,0.06056 -0.3907,-0.044 -0.45125,-0.22519c-0.06458,-0.19325 0.04402,-0.39068 0.22521,-0.45124c0.19327,-0.06458 0.38665,0.03193 0.45123,0.2252z"/><path d="M303.35548,235.16865c-0.06055,-0.18119 0.03192,-0.38666 0.20907,-0.45929c0.18119,-0.06056 0.38667,0.03193 0.4593,0.20908c0.07264,0.17716 -0.03193,0.38666 -0.20907,0.45929c-0.18923,0.07667 -0.3947,-0.0158 -0.45929,-0.20907z"/><path d="M313.75133,236.54215c-0.07264,-0.17716 0.03191,-0.38664 0.21309,-0.4472c0.17715,-0.07264 0.39874,0.02789 0.45928,0.20907c0.07264,0.17715 -0.03193,0.38665 -0.21311,0.44721c-0.19327,0.06457 -0.39873,-0.0279 -0.45927,-0.20907z"/><path d="M315.1627,207.13278c0.18118,-0.06056 0.36251,0.04001 0.42305,0.22119c0.04848,0.18524 -0.05207,0.36654 -0.23325,0.42709c-0.18118,0.06056 -0.36251,-0.04002 -0.42306,-0.2212c-0.05652,-0.1691 0.05208,-0.36653 0.23326,-0.42708z"/><path d="M319.10745,209.6147c-0.18118,0.06056 -0.37458,-0.03597 -0.43513,-0.21715c-0.06055,-0.18119 0.03597,-0.37458 0.21715,-0.43513c0.18118,-0.06055 0.37458,0.03598 0.43513,0.21716c0.05652,0.1691 -0.04001,0.3625 -0.21715,0.43513z"/><path d="M310.38985,206.67325c0.06055,0.18118 -0.03595,0.37458 -0.21714,0.43514c-0.18118,0.06056 -0.37458,-0.03598 -0.43513,-0.21716c-0.06055,-0.18118 0.03596,-0.37457 0.21715,-0.43513c0.18118,-0.06056 0.37458,0.03596 0.43513,0.21715z"/><path d="M296.09004,224.63843c0.06055,0.18119 -0.04,0.36249 -0.22119,0.42305c-0.18119,0.06056 -0.3625,-0.04001 -0.42305,-0.22119c-0.06055,-0.18119 0.04001,-0.3625 0.2212,-0.42304c0.18118,-0.06056 0.37458,0.03596 0.42305,0.22119z"/><path d="M307.11041,236.962c-0.05652,-0.1691 0.036,-0.3343 0.20914,-0.37874c0.16913,-0.05651 0.3343,0.03601 0.39082,0.20512c0.05247,0.15702 -0.03601,0.33432 -0.2051,0.39083c-0.16107,0.04039 -0.34239,-0.06015 -0.39486,-0.21718z"/><path d="M310.11932,237.5276c-0.17316,0.04445 -0.33834,-0.04808 -0.39486,-0.21718c-0.05652,-0.16912 0.036,-0.33432 0.20511,-0.39084c0.16913,-0.05651 0.33431,0.03601 0.39082,0.20512c0.05247,0.15702 -0.04807,0.33834 -0.20107,0.4029z"/><path d="M324.49062,228.81742c-0.16911,0.05651 -0.35042,-0.04403 -0.40289,-0.20107c-0.0404,-0.16107 0.06015,-0.34237 0.21719,-0.39485c0.15704,-0.05248 0.33835,0.04805 0.39082,0.20509c0.05652,0.16912 -0.03601,0.33432 -0.20511,0.39083z"/><path d="M298.53616,231.87786c-0.06456,-0.153 0.01988,-0.34236 0.17692,-0.39483c0.153,-0.06457 0.34234,0.01988 0.39482,0.17691c0.06457,0.153 -0.01987,0.34237 -0.1769,0.39484c-0.153,0.06457 -0.34236,-0.01987 -0.39483,-0.17689z"/><path d="M297.59234,230.01792c0.15702,-0.05247 0.33431,0.03599 0.38679,0.19301c0.05249,0.15702 -0.04002,0.32223 -0.19707,0.37469c-0.16911,0.05652 -0.33431,-0.036 -0.38679,-0.19303c-0.05247,-0.15702 0.03599,-0.33429 0.19706,-0.37469z"/><path d="M296.86762,214.42827c-0.05652,-0.16912 0.03602,-0.33431 0.20511,-0.39082c0.16107,-0.04038 0.32223,0.04003 0.3747,0.19706c0.05652,0.16911 -0.03599,0.33433 -0.19303,0.38679c-0.16911,0.05652 -0.33027,-0.02392 -0.38678,-0.19303z"/><path d="M325.50554,218.23255c-0.06456,-0.153 0.01183,-0.32623 0.16886,-0.37871c0.153,-0.06455 0.32624,0.01182 0.37872,0.16886c0.06051,0.14092 -0.01587,0.31418 -0.15679,0.37468c-0.153,0.06455 -0.32624,-0.01182 -0.39079,-0.16482z"/><path d="M319.36005,234.60068c-0.05249,-0.15703 0.04002,-0.32223 0.18498,-0.37067c0.14495,-0.04842 0.3061,0.03198 0.35454,0.17693c0.06456,0.153 -0.01181,0.32624 -0.16885,0.37871c-0.14495,0.04842 -0.3182,-0.02795 -0.37067,-0.18498z"/><path d="M321.38083,233.29426c0.05249,0.15703 -0.02794,0.31819 -0.1729,0.36663c-0.153,0.06456 -0.32623,-0.01183 -0.3787,-0.16886c-0.05247,-0.15702 0.03598,-0.33431 0.18093,-0.38274c0.15704,-0.05247 0.32223,0.04003 0.37066,0.18497z"/><path d="M299.84995,232.95621c0.15704,-0.05247 0.31819,0.02795 0.36663,0.17291c0.04844,0.14494 -0.02796,0.31819 -0.17291,0.36663c-0.153,0.06455 -0.32624,-0.01184 -0.37871,-0.16886c-0.04844,-0.14496 0.02793,-0.31819 0.18497,-0.37066z"/><path d="M318.07589,235.37895c0.14497,-0.04845 0.30612,0.03197 0.35052,0.16485c0.04844,0.14497 -0.01992,0.30207 -0.16486,0.35052c-0.14091,0.06051 -0.31415,-0.01586 -0.36258,-0.16083c-0.04844,-0.14496 0.03198,-0.30609 0.17693,-0.35454z"/><path d="M295.06829,220.938c-0.14495,0.04845 -0.31014,-0.04406 -0.3465,-0.19305c-0.03637,-0.14899 0.03602,-0.29404 0.18097,-0.34246c0.15702,-0.05248 0.30208,0.01991 0.35455,0.17693c0.0404,0.16107 -0.04407,0.31015 -0.18902,0.35858z"/><path d="M295.06212,218.147c-0.04842,-0.14496 0.04407,-0.31014 0.19305,-0.34649c0.14495,-0.04845 0.28999,0.02393 0.33843,0.16888c0.04844,0.14496 -0.03198,0.3061 -0.17693,0.35454c-0.14495,0.04842 -0.30611,-0.03198 -0.35455,-0.17694z"/><path d="M307.36084,206.16809c0.14495,-0.04845 0.30207,0.01991 0.35455,0.17694c0.04844,0.14497 -0.02394,0.29 -0.16485,0.35051c-0.14091,0.06051 -0.31416,-0.01586 -0.36259,-0.16081c-0.04842,-0.14496 0.02795,-0.31819 0.1729,-0.36664z"/><path d="M296.30673,228.90328c-0.05249,-0.15702 0.03197,-0.30611 0.18902,-0.35858c0.14495,-0.04845 0.31014,0.04406 0.3465,0.19304c0.03637,0.14899 -0.036,0.29404 -0.18095,0.34249c-0.15704,0.05248 -0.30612,-0.03198 -0.35456,-0.17694z"/><path d="M317.79696,207.54156c0.14898,-0.03636 0.28195,0.04005 0.32635,0.17293c0.04844,0.14496 -0.02393,0.29 -0.16889,0.33844c-0.14495,0.04845 -0.29,-0.02396 -0.33844,-0.16892c-0.04844,-0.14496 0.03601,-0.29402 0.18096,-0.34246z"/><path d="M304.72966,236.26709c0.14495,-0.04845 0.29403,0.03604 0.3304,0.18502c0.03635,0.14899 -0.04005,0.28195 -0.17293,0.32635c-0.14495,0.04845 -0.28999,-0.02395 -0.33843,-0.1689c-0.04844,-0.14496 0.03603,-0.29403 0.18098,-0.34247z"/><path d="M312.52754,237.30022c0.14898,-0.03636 0.29807,0.0481 0.3304,0.18502c0.04844,0.14496 -0.03602,0.29402 -0.18501,0.33038c-0.13691,0.03233 -0.28196,-0.04004 -0.32636,-0.17292c-0.04844,-0.14496 0.03603,-0.29404 0.18098,-0.34248z"/><path d="M322.50752,232.00462c0.14497,-0.04845 0.29404,0.03602 0.3304,0.18501c0.04844,0.14496 -0.03603,0.29402 -0.18501,0.33038c-0.13691,0.03233 -0.28195,-0.04005 -0.32635,-0.17293c-0.04844,-0.14496 0.03602,-0.29403 0.18099,-0.34248z"/><path d="M326.1225,224.53905c0.14495,-0.04845 0.30609,0.03198 0.33842,0.16888c0.0444,0.13287 -0.02394,0.29 -0.1568,0.3344c-0.14092,0.06051 -0.29804,-0.00783 -0.34648,-0.15279c-0.04844,-0.14497 0.01991,-0.30208 0.16485,-0.35051z"/><path d="M326.47898,221.94914c0.13287,-0.04441 0.27792,0.02797 0.32232,0.16086c0.03233,0.13691 -0.01189,0.24569 -0.15281,0.3062c-0.12884,0.05649 -0.28596,-0.01186 -0.33037,-0.14474c-0.0444,-0.13288 0.02798,-0.2779 0.16085,-0.32231z"/><path d="M300.35544,209.23428c0.13691,-0.03233 0.23765,0.02801 0.29412,0.15684c0.05649,0.12884 -0.0159,0.27387 -0.15281,0.30621c-0.13287,0.04441 -0.23359,-0.01594 -0.28604,-0.13268c-0.04844,-0.14496 0.01184,-0.28596 0.14472,-0.33037z"/><path d="M301.86085,208.11353c0.11275,-0.02425 0.22152,0.01995 0.28204,0.16088c0.05648,0.12883 -0.01589,0.27387 -0.15282,0.30621c-0.14898,0.03636 -0.24972,-0.02398 -0.30621,-0.15283c-0.05244,-0.11676 0.03203,-0.26583 0.17698,-0.31428z"/><path d="M324.08758,212.5026c0.02829,0.12483 -0.01596,0.23361 -0.14479,0.29009c-0.12885,0.05649 -0.27388,-0.01589 -0.31828,-0.14877c-0.04844,-0.14496 0.01191,-0.24569 0.14074,-0.30217c0.12884,-0.05649 0.27388,0.01589 0.32232,0.16086z"/><path d="M316.92509,236.71694c0.02426,0.11275 -0.01998,0.22154 -0.14881,0.27801c-0.13287,0.04441 -0.27389,-0.0159 -0.31829,-0.14879c-0.0444,-0.13288 0.0119,-0.24569 0.14073,-0.30216c0.12883,-0.05648 0.27387,0.01589 0.32635,0.17293z"/><path d="M301.3172,234.65469c0.01217,0.11678 -0.01997,0.22154 -0.14881,0.27801c-0.12883,0.05648 -0.2618,-0.01994 -0.3062,-0.15282c-0.04844,-0.14496 0.0119,-0.24569 0.14073,-0.30217c0.11676,-0.05245 0.26584,0.032 0.31428,0.17697z"/><path d="M294.8767,223.21766c0.0283,0.12483 -0.01594,0.2336 -0.16088,0.28205c-0.11676,0.05244 -0.27386,-0.01589 -0.30619,-0.15281c-0.03635,-0.14899 0.02398,-0.24972 0.15281,-0.3062c0.11676,-0.05245 0.26584,0.032 0.31428,0.17697z"/><path d="M295.52034,227.55471c-0.11676,0.05244 -0.24971,-0.02398 -0.29008,-0.14478c-0.0444,-0.13287 0.00387,-0.22957 0.1327,-0.28605c0.11676,-0.05244 0.24971,0.02399 0.29816,0.16893c0.02424,0.11275 -0.03608,0.21348 -0.14076,0.2619z"/><path d="M311.74223,205.57676c0.04037,0.1208 -0.03604,0.25376 -0.16088,0.28205c-0.13691,0.03233 -0.22556,-0.03205 -0.27801,-0.14881c-0.04037,-0.1208 0.03606,-0.25376 0.15684,-0.29412c0.12483,-0.0283 0.2578,0.04814 0.28205,0.16088z"/><path d="M314.06218,205.7683c0.11676,-0.05245 0.26181,0.01994 0.30217,0.14072c0.03634,0.10873 -0.03201,0.26584 -0.15685,0.29413c-0.13691,0.03232 -0.23362,-0.01594 -0.2901,-0.14477c-0.02829,-0.12483 0.01595,-0.23361 0.14476,-0.29009z"/><path d="M298.87425,210.38726c0.13691,-0.03232 0.24164,-0.00018 0.28604,0.13269c0.05244,0.11676 -0.00786,0.25778 -0.12865,0.29813c-0.12079,0.04037 -0.24973,-0.02399 -0.2901,-0.14477c-0.0444,-0.13287 0.01594,-0.2336 0.1327,-0.28605z"/><path d="M325.64949,227.46331c-0.03233,-0.13691 0.0441,-0.26988 0.15684,-0.29412c0.13691,-0.03232 0.23361,0.01593 0.27801,0.14881c0.03233,0.13691 -0.01594,0.23361 -0.14476,0.29009c-0.10467,0.04842 -0.24972,-0.02397 -0.29009,-0.14477z"/><path d="M322.66059,210.88466c0.13691,-0.03232 0.23362,0.01593 0.27802,0.14881c0.04037,0.1208 -0.03606,0.25374 -0.16089,0.28204c-0.13691,0.03231 -0.22557,-0.03205 -0.27397,-0.13672c-0.03637,-0.14899 0.02798,-0.27792 0.15684,-0.29412z"/><path d="M303.38675,207.45587c-0.05643,-0.04828 -0.16521,-0.09251 -0.20151,-0.16095c-0.06856,-0.1248 0.00385,-0.22957 0.13673,-0.27398c0.12079,-0.04036 0.22151,0.01998 0.2619,0.14076c0.04037,0.1208 -0.00788,0.21749 -0.19711,0.29416z"/><path d="M324.87389,213.81093c0.02416,-0.00808 0.04832,-0.01615 0.08455,-0.02825c0.0846,0.05229 0.19338,0.09652 0.23373,0.17702c0.05246,0.11675 -0.00385,0.22956 -0.13673,0.27398c-0.13287,0.04441 -0.24568,-0.0119 -0.26593,-0.15285c-0.01215,-0.07651 0.0482,-0.17725 0.08437,-0.2699z"/><path d="M295.45486,215.58523c-0.00808,-0.02415 -0.01614,-0.04831 -0.04032,-0.08051c0.06841,-0.07656 0.09649,-0.1934 0.17701,-0.23373c0.1248,-0.06857 0.23761,-0.01225 0.28201,0.12062c0.0444,0.13288 0.00421,0.25372 -0.13674,0.27397c-0.08858,0.01618 -0.19336,-0.05624 -0.28198,-0.08034z"/><path d="M324.19449,231.30659c-0.18118,0.06056 -0.28997,0.01633 -0.34644,-0.1125c-0.04037,-0.1208 0.00788,-0.21748 0.12464,-0.26993c0.12884,-0.05649 0.25373,-0.00422 0.28202,0.1206c0.01617,0.08859 -0.04417,0.18933 -0.06022,0.26184z"/><path d="M321.78969,209.56433c0.05246,0.11675 -0.00789,0.2175 -0.12869,0.25786c-0.12079,0.04036 -0.2336,-0.01593 -0.24981,-0.1448c-0.01617,-0.08859 0.04819,-0.17724 0.10446,-0.33032c0.137,0.08849 0.23369,0.13674 0.27403,0.21726z"/><path d="M326.69072,219.68959c-0.00808,-0.02415 -0.01616,-0.04833 -0.04034,-0.08053c0.05634,-0.07254 0.10056,-0.18132 0.16899,-0.21761c0.11676,-0.05244 0.22957,0.00386 0.26993,0.12465c0.05246,0.11675 -0.00385,0.22958 -0.13271,0.24578c-0.08859,0.01617 -0.17725,-0.04819 -0.26587,-0.07228z"/><path d="M308.83005,205.09972c0.02416,-0.00807 0.04832,-0.01616 0.08455,-0.02826c0.0685,0.04425 0.16521,0.09251 0.2015,0.16094c0.05245,0.11674 -0.00386,0.22957 -0.12065,0.24174c-0.07651,0.01214 -0.20543,-0.05221 -0.22562,-0.1126c-0.03629,-0.06844 0.03612,-0.17321 0.06021,-0.26184z"/><path d="M297.30465,211.83833c-0.01211,-0.03622 -0.02018,-0.0604 -0.02022,-0.10067c0.06036,-0.06045 0.10054,-0.1813 0.16498,-0.18941c0.06442,-0.00811 0.18932,0.04414 0.22561,0.11259c0.06453,0.11271 0.00823,0.22552 -0.12064,0.24173c-0.07651,0.01214 -0.16114,-0.04014 -0.24977,-0.06425z"/><path d="M308.42021,238.14913c0.02416,-0.00808 0.04832,-0.01616 0.08052,-0.04034c0.0685,0.04424 0.17325,0.07638 0.20954,0.14482c0.06453,0.11271 0.00823,0.22555 -0.10451,0.24978c-0.07247,0.02421 -0.20141,-0.04013 -0.23368,-0.09649c-0.02019,-0.06039 0.02403,-0.16917 0.04812,-0.25779z"/><path d="M302.16799,235.9549c0.07253,0.05634 0.18131,0.10054 0.2015,0.16093c0.02422,0.07248 -0.02805,0.19736 -0.09649,0.23366c-0.09658,0.07258 -0.21345,0.0042 -0.23769,-0.10855c-0.01215,-0.07651 0.04014,-0.16112 0.06424,-0.24974c0.02416,-0.00808 0.04832,-0.01615 0.06844,-0.03629z"/><path d="M326.05914,215.34849c0.06442,-0.00811 0.18932,0.04415 0.22159,0.10053c0.06049,0.10063 0.00014,0.20138 -0.1126,0.22563c-0.07247,0.02422 -0.15709,-0.02807 -0.29406,-0.0763c0.08045,-0.12088 0.12468,-0.22967 0.18508,-0.24986z"/><path d="M315.12955,237.65266c0.12493,0.09254 0.22965,0.12467 0.24984,0.18507c0.02018,0.06039 -0.0321,0.18529 -0.08845,0.21756c-0.0966,0.07257 -0.20943,0.01625 -0.23367,-0.09648c-0.02423,-0.07249 0.02807,-0.1571 0.07227,-0.30615z"/><path d="M316.65204,206.08451c0.12493,0.09254 0.23371,0.13675 0.24181,0.20118c0.02019,0.06039 -0.04821,0.17724 -0.10456,0.20951c-0.10064,0.06049 -0.21345,0.0042 -0.22561,-0.11259c-0.01215,-0.07651 0.04016,-0.16114 0.08837,-0.29811z"/><path d="M311.0866,238.45317c0.09674,0.08853 0.19343,0.13678 0.20553,0.17301c0.00811,0.06443 -0.0603,0.14102 -0.09247,0.20548c-0.0685,-0.04424 -0.16921,-0.06431 -0.20146,-0.12067c-0.02824,-0.04428 0.03616,-0.13292 0.08841,-0.25781z"/><path d="M306.15663,237.92529c-0.07242,0.10478 -0.10455,0.20953 -0.15691,0.21359c-0.06039,0.02019 -0.13697,-0.04823 -0.21351,-0.07635c0.02814,-0.07654 0.0482,-0.17724 0.10455,-0.2095c0.04428,-0.02823 0.14502,0.03212 0.26587,0.07228z"/><path d="M294.23818,225.64669c0.10478,0.07242 0.20146,0.12066 0.20553,0.17301c0.00811,0.06442 -0.0603,0.141 -0.09247,0.20546c-0.06447,-0.03217 -0.16921,-0.0643 -0.20147,-0.12067c-0.02822,-0.04429 0.03617,-0.13294 0.08843,-0.25783z"/><path d="M304.77501,205.864c0.10477,0.07242 0.22563,0.1126 0.22566,0.15287c0.00811,0.06442 -0.0603,0.141 -0.10051,0.22157c-0.06447,-0.03217 -0.17725,-0.04819 -0.19744,-0.10859c-0.01615,-0.04832 0.03614,-0.13294 0.07228,-0.26587z"/><path d="M320.43123,207.99064c0.06847,0.00397 0.14504,0.07238 0.21355,0.11662c-0.04424,0.06851 -0.06432,0.1692 -0.12471,0.18939c-0.06039,0.02018 -0.14906,-0.04419 -0.26992,-0.08436c0.0724,-0.10477 0.11663,-0.21354 0.18106,-0.22165z"/><path d="M325.32523,230.06931c0.06034,-0.10074 0.09651,-0.19339 0.15692,-0.21359c0.06444,-0.0081 0.13697,0.04823 0.20144,0.0804c-0.03217,0.06445 -0.05626,0.15308 -0.10054,0.18132c-0.05635,0.03227 -0.14098,-0.02002 -0.25779,-0.04813z"/><path d="M293.77401,218.99373c0.10074,0.06033 0.20547,0.09248 0.21757,0.1287c0.0081,0.06443 -0.04821,0.13697 -0.07636,0.21351c-0.06044,-0.02009 -0.16113,-0.04016 -0.18935,-0.08442c-0.01615,-0.04832 0.02002,-0.14098 0.04812,-0.2578z"/><path d="M293.54665,221.92989c-0.05235,0.00406 -0.11281,-0.0563 -0.17727,-0.08846c0.03218,-0.06446 0.05626,-0.15308 0.10458,-0.16923c0.04832,-0.01615 0.11682,0.0281 0.23767,0.06828c-0.07646,0.09268 -0.11666,0.17326 -0.16498,0.18941z"/><path d="M327.81735,223.62352c0.00406,0.05235 -0.04824,0.13698 -0.08446,0.14908c-0.03622,0.0121 -0.13292,-0.03614 -0.14908,-0.08447c-0.02419,-0.03219 0.03212,-0.10472 0.06425,-0.20947c0.07657,0.06842 0.15312,0.09653 0.16928,0.14485z"/><path d="M296.12937,212.8219c0.01615,0.04831 -0.0321,0.14502 -0.06834,0.15712c-0.04831,0.01614 -0.12891,-0.02407 -0.15713,-0.06835c-0.02824,-0.04428 0.01604,-0.11278 0.04818,-0.21752c0.08462,0.05229 0.17322,0.07638 0.17729,0.12874z"/><path d="M296.26844,231.52117c-0.03622,0.0121 -0.12889,-0.02407 -0.14099,-0.0603c-0.01211,-0.03623 0.02406,-0.1289 0.0603,-0.14101c0.03219,-0.02418 0.1007,0.02006 0.18932,0.04415c-0.05229,0.08462 -0.06836,0.15712 -0.10863,0.15715z"/><path d="M327.18795,216.83779c0.08057,0.04022 0.15712,0.06837 0.15715,0.10863c0.01615,0.04831 -0.03214,0.10474 -0.05626,0.15308c-0.04834,-0.02412 -0.13292,-0.03615 -0.14503,-0.07237c-0.02419,-0.0322 0.02005,-0.1007 0.04414,-0.18932z"/><path d="M327.29166,226.10885c0.07253,0.05634 0.14908,0.08447 0.15715,0.10862c0.01615,0.04831 -0.03214,0.10475 -0.05627,0.15309c-0.04834,-0.02412 -0.13292,-0.03616 -0.14504,-0.07238c-0.02419,-0.0322 0.02005,-0.10069 0.04415,-0.18931z"/><path d="M297.48977,232.84524c-0.04426,0.06849 -0.07238,0.14504 -0.1207,0.16119c-0.05235,0.00407 -0.13293,-0.03615 -0.14503,-0.07238c-0.01211,-0.03622 0.03614,-0.13294 0.07238,-0.14504c0.04833,-0.01614 0.10475,0.03214 0.19337,0.05624z"/><path d="M294.14258,216.44005c0.0685,0.04424 0.14503,0.0724 0.15714,0.10863c0.01211,0.03622 -0.02406,0.12889 -0.0603,0.14101c-0.03622,0.0121 -0.11682,-0.02812 -0.14101,-0.06031c-0.01211,-0.03623 0.02007,-0.10069 0.04415,-0.18931z"/><path d="M313.14295,204.46413c-0.04426,0.06849 -0.06436,0.12893 -0.10059,0.14104c-0.03624,0.0121 -0.08863,-0.02411 -0.13696,-0.04823c0.02413,-0.04834 0.0281,-0.11683 0.06434,-0.12893c0.0322,-0.02419 0.0846,0.01202 0.17322,0.03611z"/><path d="M327.99652,220.9049c0.06045,0.06036 0.12493,0.09254 0.133,0.11669c0.01211,0.03622 -0.0402,0.08058 -0.06433,0.12892c-0.04834,-0.02412 -0.10878,-0.04423 -0.12089,-0.08046c-0.01211,-0.03624 0.0241,-0.08863 0.05223,-0.16517z"/><path d="M322.17934,234.71937c0.0685,0.04425 0.12892,0.06436 0.14104,0.10058c0.01211,0.03622 -0.0241,0.08862 -0.04823,0.13697c-0.04834,-0.02412 -0.11682,-0.02811 -0.12892,-0.06434c-0.01211,-0.03624 0.02409,-0.08864 0.03611,-0.17321z"/><path d="M298.45342,234.28232c0.03624,-0.01211 0.10475,0.03215 0.11686,0.06837c0.01211,0.03622 -0.03215,0.10474 -0.06839,0.11684c-0.03624,0.01211 -0.09265,-0.03617 -0.16919,-0.0643c0.04424,-0.06851 0.08045,-0.12089 0.12072,-0.12091z"/><path d="M313.87801,238.97057c-0.04022,0.08058 -0.06435,0.12892 -0.11267,0.14507c-0.03622,0.01211 -0.11276,-0.01604 -0.12084,-0.04018c-0.00406,-0.05235 0.01602,-0.11278 0.04822,-0.13696c0.03624,-0.01211 0.10071,0.02006 0.18529,0.03207z"/><path d="M303.42582,237.62934c0.01211,0.03623 -0.03215,0.10475 -0.05631,0.11282c-0.04027,0.00003 -0.11682,-0.02812 -0.12892,-0.06435c-0.00808,-0.02416 0.03617,-0.09265 0.0643,-0.16919c0.06047,0.06036 0.12493,0.09254 0.12092,0.12073z"/></g><path d="M308.03473,232.30769c-1.90216,-5.69203 1.17015,-11.84836 6.8622,-13.75051c5.69204,-1.90216 11.84836,1.17015 13.75053,6.86219c1.90216,5.69204 -1.17016,11.84836 -6.8622,13.75051c-5.69204,1.90216 -11.84836,-1.17015 -13.75053,-6.86219z" fill="none" stroke="#000000" stroke-width="1" stroke-linecap="butt"/><path d="M306.69109,232.75671c-2.15015,-6.43411 1.3227,-13.39304 7.75682,-15.54319c6.43411,-2.15015 13.39303,1.32271 15.54318,7.75682c2.15014,6.43412 -1.32269,13.39304 -7.75681,15.54319c-6.43412,2.15015 -13.39303,-1.32269 -15.54319,-7.75681z" fill="none" stroke="#000000" stroke-width="1" stroke-linecap="butt"/><path d="M322.76493,242.10146c-7.31112,2.44322 -15.21857,-1.50298 -17.66178,-8.81409c-2.44321,-7.31111 1.50298,-15.21857 8.8141,-17.66179c7.31112,-2.44322 15.21858,1.503 17.66179,8.81411c2.44321,7.31111 -1.50298,15.21856 -8.8141,17.66178z" fill="none" stroke="#000000" stroke-width="1" stroke-linecap="butt"/><path d="M309.86698,231.69539c-1.564,-4.68013 0.96211,-9.74197 5.64223,-11.30599c4.68011,-1.56399 9.74199,0.96212 11.30599,5.64224c1.564,4.68013 -0.96212,9.74199 -5.64224,11.30599c-4.68011,1.56399 -9.74197,-0.96212 -11.30598,-5.64224z" fill="#000000" stroke="#000000" stroke-width="1" stroke-linecap="butt"/><path d="M293.9731,252.24926c0,0 -5.32092,-9.21777 -6.91383,-13.98441c-1.48081,-4.43115 -2.33184,-13.68243 -2.33184,-13.68243l3.66448,-1.22459l9.24568,27.66684l-3.66448,1.22459z" fill="#393912" stroke="none" stroke-width="0" stroke-linecap="butt"/><path d="M327.19054,225.58018l-1.51278,-4.93315l79.80655,-24.90131c0,0 0.9386,-0.59765 1.64413,-1.58019c0.83,-1.15589 1.52516,-2.75078 2.74766,-3.15588c2.21951,-0.73549 4.86667,-0.57496 6.81787,-1.09361c4.60138,-1.22306 7.75003,-2.69541 9.67286,-3.24237c1.86732,-0.53115 1.57686,1.09772 2.03964,2.36532c0.41198,1.12844 1.67436,1.88585 1.67436,1.88585l0.11842,0.35433c0,0 -0.55338,1.3642 -0.20416,2.51361c0.3923,1.29116 1.6037,2.41817 -0.20778,3.11638c-1.86535,0.71897 -5.26658,1.43546 -9.67882,3.22455c-1.871,0.75866 -3.8898,2.47845 -6.10557,3.22512c-1.22045,0.41127 -2.73481,-0.44525 -4.09299,-0.86989c-1.1545,-0.36096 -2.26384,-0.27422 -2.26384,-0.27422l-78.74337,28.08273l-1.75706,-4.85154z" data-paper-data="{&quot;index&quot;:null}" fill="#393912" stroke="none" stroke-width="0" stroke-linecap="round"/><g fill="#dfe0e2" stroke="none" stroke-width="0" stroke-linecap="butt"><g><path d="M425.60999,201.52038c-2.09725,0.6545 -1.79876,-0.65894 -2.00167,-1.26609c-0.2029,-0.60715 2.01053,-1.07926 2.94655,-1.39206c0.93603,-0.3128 0.96557,2.06196 -0.94488,2.65815z"/><path d="M423.88153,198.02429l1.09934,-0.36739l0.73477,2.19869l-1.09934,0.3674z"/></g><g><path d="M421.48631,201.37079c0.93602,-0.3128 0.96558,2.06195 -0.94488,2.65814c-2.09727,0.6545 -1.79878,-0.65895 -2.00167,-1.2661c-0.2029,-0.60715 2.01052,-1.07924 2.94654,-1.39204z"/><path d="M418.81295,200.53285l1.09934,-0.36739l0.73476,2.19869l-1.09935,0.36736z"/></g><g><path d="M416.05127,204.00182c0.93603,-0.3128 0.96557,2.06196 -0.94488,2.65815c-2.09727,0.6545 -1.79877,-0.65894 -2.00167,-1.2661c-0.2029,-0.60715 2.01052,-1.07923 2.94656,-1.39204z"/><path d="M413.37794,203.16386l1.09934,-0.36739l0.73476,2.19868l-1.09934,0.36739z"/></g></g><g data-paper-data="{&quot;index&quot;:null}" fill="#dfe0e2" stroke="none" stroke-width="0" stroke-linecap="butt"><g><path d="M422.54449,186.86158c-0.93602,0.3128 -2.98856,1.26631 -3.19144,0.65915c-0.2029,-0.60715 -1.23108,-1.47723 0.83829,-2.21516c1.88507,-0.67218 3.28917,1.24321 2.35315,1.55601z"/><path d="M420.17731,186.93975l1.09935,-0.36738l0.73476,2.19869l-1.09934,0.36738z"/></g><g><path d="M416.9861,187.90432c-0.93603,0.3128 -2.98857,1.26629 -3.19148,0.65913c-0.2029,-0.60715 -1.23108,-1.47722 0.8383,-2.21515c1.88507,-0.67218 3.28918,1.24322 2.35316,1.55602z"/><path d="M414.61888,187.98248l1.09934,-0.36738l0.73476,2.19869l-1.09934,0.36738z"/></g><g><path d="M408.70805,187.51356c1.88507,-0.67218 3.28919,1.24321 2.35317,1.55601c-0.93603,0.3128 -2.98857,1.2663 -3.19147,0.65915c-0.2029,-0.60715 -1.23108,-1.47725 0.8383,-2.21517z"/><path d="M408.69403,189.14772l1.09935,-0.36737l0.73476,2.19869l-1.09934,0.36737z"/></g></g><path d="M424.2466,196.06912c-0.21981,-0.65775 0.13522,-1.36913 0.79297,-1.58894c0.65775,-0.21981 1.36915,0.13522 1.58894,0.79296c0.21981,0.65775 -0.13521,1.36914 -0.79296,1.58895c-0.65775,0.21981 -1.36914,-0.13522 -1.58895,-0.79297z" fill="#dfe0e2" stroke="none" stroke-width="0" stroke-linecap="butt"/><path d="M422.37909,190.48079c-0.21981,-0.65775 0.13522,-1.36915 0.79297,-1.58895c0.65775,-0.21981 1.36914,0.13522 1.58895,0.79297c0.21981,0.65775 -0.13522,1.36915 -0.79297,1.58895c-0.65775,0.21981 -1.36914,-0.13522 -1.58895,-0.79297z" fill="#dfe0e2" stroke="none" stroke-width="0" stroke-linecap="butt"/><path d="M416.66831,191.98186c-0.21981,-0.65775 0.1352,-1.36915 0.79295,-1.58895c0.65775,-0.21981 1.36914,0.13521 1.58895,0.79297c0.21981,0.65775 -0.13522,1.36914 -0.79297,1.58895c-0.65775,0.21981 -1.36914,-0.13522 -1.58893,-0.79296z" fill="#dfe0e2" stroke="none" stroke-width="0" stroke-linecap="butt"/><path d="M410.71283,193.05544c-0.21981,-0.65775 0.13521,-1.36914 0.79296,-1.58894c0.65775,-0.21981 1.36913,0.13522 1.58894,0.79297c0.21981,0.65775 -0.13522,1.36913 -0.79296,1.58893c-0.65775,0.21981 -1.36914,-0.13522 -1.58895,-0.79297z" fill="#dfe0e2" stroke="none" stroke-width="0" stroke-linecap="butt"/><path d="M418.68911,198.3337c-0.21981,-0.65775 0.13522,-1.36913 0.79297,-1.58894c0.65775,-0.21981 1.36914,0.13521 1.58895,0.79295c0.21981,0.65775 -0.13522,1.36915 -0.79297,1.58896c-0.65775,0.21981 -1.36915,-0.13522 -1.58896,-0.79297z" fill="#dfe0e2" stroke="none" stroke-width="0" stroke-linecap="butt"/><path d="M413.13182,200.90371c-0.21981,-0.65775 0.13522,-1.36915 0.79297,-1.58896c0.65775,-0.21981 1.36915,0.13521 1.58896,0.79297c0.21981,0.65775 -0.13522,1.36914 -0.79297,1.58895c-0.65775,0.21981 -1.36913,-0.13521 -1.58894,-0.79296z" fill="#dfe0e2" stroke="none" stroke-width="0" stroke-linecap="butt"/><g fill="none" stroke="#dfe0e2" stroke-width="0.5" stroke-linecap="round"><path d="M291.23756,242.94398c0,0 37.6958,-13.60887 57.42057,-20.42557c20.99362,-7.25519 64.97208,-21.87216 64.97208,-21.87216"/><path d="M290.29368,241.16435c0,0 37.97122,-13.02499 58.30544,-19.87549c22.33468,-7.52443 70.26525,-23.43931 70.26525,-23.43931"/><path d="M289.45449,239.34973c0,0 54.62406,-19.07427 78.2559,-26.70686c15.7181,-5.07662 39.42383,-12.28781 50.57232,-15.48289c3.82968,-1.09755 6.27016,-1.44418 6.27016,-1.44418"/></g><g data-paper-data="{&quot;index&quot;:null}" fill="none" stroke="#dfe0e2" stroke-width="0.5" stroke-linecap="round"><path d="M411.31313,193.71264c0,0 -43.93052,14.76035 -65.06818,21.58453c-19.8601,6.41173 -58.16417,18.20041 -58.16417,18.20041"/><path d="M417.38596,192.0324c0,0 -4.43108,1.78679 -11.18357,4.14382c-15.57747,5.4375 -43.65916,14.96598 -59.26539,20.13895c-20.36742,6.75114 -58.54053,19.17197 -58.54053,19.17197"/><path d="M423.00555,191.0856c0,0 -2.15854,1.19027 -5.87867,2.6157c-10.82954,4.1495 -34.10795,12.63945 -49.72022,18.03277c-23.4727,8.10876 -78.5898,25.70765 -78.5898,25.70765"/></g><path d="M289.2319,231.05075l3.88924,13.16199" fill="none" stroke="#dfe0e2" stroke-width="0.5" stroke-linecap="round"/><g fill="#dfe0e2" stroke="none" stroke-width="0" stroke-linecap="butt"><path d="M291.18833,244.03928c-0.49676,0.166 -1.03404,-0.10211 -1.20005,-0.59889c-0.166,-0.49676 0.10213,-1.03404 0.59888,-1.20005c0.49676,-0.166 1.03404,0.10211 1.20005,0.59889c0.16601,0.49677 -0.10212,1.03403 -0.59888,1.20004z"/><path d="M289.25354,241.2417c-0.166,-0.49675 0.10211,-1.03404 0.59888,-1.20004c0.49676,-0.166 1.03402,0.10211 1.20004,0.59888c0.166,0.49676 -0.10212,1.03404 -0.59888,1.20004c-0.49674,0.16601 -1.03401,-0.10211 -1.20004,-0.59888z"/></g><path d="M286.69302,233.5796c-0.166,-0.49675 0.10211,-1.03404 0.59888,-1.20004c0.49676,-0.166 1.03404,0.10211 1.20005,0.59888c0.16601,0.49677 -0.10212,1.03404 -0.59888,1.20004c-0.49674,0.16601 -1.03403,-0.10211 -1.20004,-0.59887z" fill="#dfe0e2" stroke="none" stroke-width="0" stroke-linecap="butt"/><path d="M288.02666,234.57824c0.49676,-0.166 1.03402,0.10211 1.20004,0.59888c0.166,0.49676 -0.10211,1.03404 -0.59887,1.20004c-0.49674,0.16601 -1.03403,-0.10211 -1.20004,-0.59886c-0.166,-0.49676 0.10212,-1.03405 0.59888,-1.20006z" fill="#dfe0e2" stroke="none" stroke-width="0" stroke-linecap="butt"/><path d="M288.75563,236.48259c0.41396,-0.13833 0.86169,0.0851 1.00003,0.49907c0.13834,0.41397 -0.08511,0.86171 -0.49907,1.00004c-0.41396,0.13832 -0.86169,-0.08511 -1.00003,-0.49908c-0.13834,-0.41397 0.0851,-0.8617 0.49907,-1.00003z" fill="#dfe0e2" stroke="none" stroke-width="0" stroke-linecap="butt"/><path d="M289.36793,238.31483c0.41397,-0.13833 0.86171,0.08509 1.00005,0.49906c0.13834,0.41397 -0.08512,0.86171 -0.49908,1.00005c-0.41396,0.13833 -0.8617,-0.08509 -1.00004,-0.49906c-0.13834,-0.41397 0.08509,-0.86171 0.49906,-1.00004z" fill="#dfe0e2" stroke="none" stroke-width="0" stroke-linecap="butt"/><g fill="#7d7d00" stroke="none" stroke-width="1" stroke-linecap="butt"><path d="M270.68141,223.26733c0.31334,-1.11848 1.03933,-1.60892 1.28653,-0.86923l6.75532,20.21469c0.17269,0.51677 0.00784,1.43919 -0.36331,2.04759l-0.89755,1.46016c-0.37116,0.6084 -0.53599,1.53082 -0.3633,2.04759l2.60054,7.78189c0.17269,0.51677 0.00784,1.4392 -0.36333,2.0476l-0.9043,1.47368c-0.37116,0.6084 -0.82044,0.67968 -0.99313,0.16294l-6.50136,-19.45474c-0.11174,-0.33438 -0.08846,-0.83779 0.05979,-1.3379l1.1524,-3.96714c0.14826,-0.50011 0.16816,-1.01367 0.0598,-1.3379l-2.23823,-6.6977c-0.11174,-0.33438 -0.08847,-0.83777 0.05978,-1.33789z"/></g></g><path d="M324.86434,251.2262c0,7.62607 -5.84798,13.80822 -13.06182,13.80822c-7.21385,0 -13.06183,-6.18215 -13.06183,-13.80822c0,-7.62607 5.84798,-13.80821 13.06183,-13.80821c7.21385,0 13.06183,6.18214 13.06183,13.80821z" fill="#ecec60" stroke="#000000" stroke-width="2" stroke-linecap="butt"/><path d="M380.15174,221.85202c0,7.95489 -5.84798,14.40362 -13.06183,14.40362c-7.21385,0 -13.06182,-6.44872 -13.06182,-14.40362c0,-7.95489 5.84798,-14.4036 13.06183,-14.4036c7.21385,0 13.06183,6.44871 13.06183,14.4036z" fill="#ecec60" stroke="#000000" stroke-width="2" stroke-linecap="butt"/></g></g></svg>