<svg version="1.1" xmlns="http://www.w3.org/2000/svg" xmlns:xlink="http://www.w3.org/1999/xlink" width="190.40711" height="277.44907" viewBox="0,0,190.40711,277.44907"><g transform="translate(-209.39722,-33.41465)"><g data-paper-data="{&quot;isPaintingLayer&quot;:true}" fill-rule="nonzero" stroke-linejoin="miter" stroke-miterlimit="10" stroke-dasharray="" stroke-dashoffset="0" style="mix-blend-mode: normal"><path d="M286.67309,307.49998l15.14285,-131.8421l37.78325,-0.15789l13.57389,132z" fill="#000000" stroke="#ffffff" stroke-width="2" stroke-linecap="butt"/><path d="M340.74352,191.45422l-11.93302,30.77462l-9.4208,88.55554l-8.16469,-89.18359l-12.56107,-29.51852z" fill="#ffffff" stroke="#ffffff" stroke-width="1.5" stroke-linecap="round"/><path d="M325.19586,239.64443l-5.44177,9.94271l-6.75138,-13.47381l5.6862,-31.29142l-2.28077,-8.73814l9.15427,-0.32669l-3.02631,9.71367z" fill="#000000" stroke="none" stroke-width="0" stroke-linecap="butt"/><path d="M292.7128,115.20171c-0.57709,-7.29323 0.335,-17.15448 0.335,-17.15448c0,0 3.41059,-0.04124 13.91429,-3.14424c8.0696,-2.38394 20.54731,-9.48722 20.54731,-9.48722c0,0 -2.16005,3.00503 -3.40781,4.46015c-1.32651,1.54696 -3.99292,4.56297 -3.99292,4.56297c0,0 7.838,-1.66761 14.67476,-4.72931c8.56837,-3.53575 10.59252,-6.05309 12.95042,-4.5927c2.7829,1.72362 1.03006,23.1827 0.71846,28.74062c-0.42163,5.66922 -2.53327,9.49969 -3.15031,12.52053c-0.61704,3.02084 -0.4096,6.13662 -2.20622,16.0397c-1.12121,6.18021 -4.16183,8.92466 -10.01942,14.66081c-5.85759,5.73616 -9.05378,9.25275 -13.01359,9.32173c-3.81077,0.06639 -8.93565,-5.1002 -13.93542,-10.38244c-5.32393,-5.62474 -8.87489,-8.47713 -9.71551,-15.13975c-0.75707,-6.00039 -0.77653,-9.90853 -1.12266,-15.24835c-0.25298,-3.90273 -2.26119,-6.44504 -2.57636,-10.42801z" fill="#5a5a07" stroke="none" stroke-width="0" stroke-linecap="butt"/><path d="M340.78282,100.08135c0,0 1.52429,0.31807 4.2558,1.11029c2.49492,0.72361 4.44935,1.74403 4.44935,1.74403l0.1951,1.17035c0,0 -7.24963,-3.12997 -15.1158,-2.4706c-6.2896,0.52724 -9.96319,2.8124 -9.96319,2.8124l0.04575,-4.17683c0,0 3.12748,-1.70421 7.86366,-1.85557c4.90428,-0.15672 8.09084,0.59125 8.09084,0.59125z" data-paper-data="{&quot;index&quot;:null}" fill="#5a5a07" stroke="none" stroke-width="0" stroke-linecap="butt"/><path d="M328.01867,143.0689c0.5704,0.21186 3.08357,1.39942 6.02385,2.59586c2.9637,1.20597 7.21362,2.29294 7.19412,2.4605c-0.02476,0.21265 -10.43477,0.22694 -13.67937,0.63224c-2.71902,0.33964 -6.68867,0.70564 -6.68867,0.70564c0,0 -7.10401,-1.16169 -13.27235,-2.44521c-4.94371,-1.02869 -10.39929,-1.66108 -10.40995,-1.75461c-0.01439,-0.12613 3.86835,-0.71071 6.82417,-1.39467c1.14585,-0.49661 5.43971,-1.48513 5.43971,-1.48513c0,0 4.95585,-0.27766 7.60826,0.579c2.84203,0.91791 2.83546,2.44556 3.0831,2.46906c0,0 1.18436,-1.74932 2.36886,-2.10461c1.18451,-0.35528 5.08219,-0.41633 5.50828,-0.25808z" fill="#5a5a07" stroke="none" stroke-width="0" stroke-linecap="butt"/><path d="M309.37068,147.62248c5.09114,1.02674 11.91756,2.80736 11.91756,2.80736c0,0 5.78976,-1.55585 8.44678,-1.8344c2.05992,-0.21596 11.216,-0.70654 11.26026,-0.33377c0.04328,0.36447 -9.03119,12.90033 -21.14808,12.44714c-13.76954,-0.43578 -22.86459,-15.13559 -22.82675,-15.30472c0.03784,-0.16913 7.2591,1.19165 12.35024,2.2184z" fill="#5a5a07" stroke="none" stroke-width="0" stroke-linecap="butt"/><path d="M320.34494,144.62881c-1.03376,0 -3.5381,-3.26042 -3.7867,-5.3637c-0.22243,-1.88186 1.31512,-3.82799 3.7867,-3.82799c2.47159,0 4.2021,0.49077 4.02999,4.18853c-0.14607,3.13818 -1.55841,5.00317 -4.02999,5.00317z" fill="#5a5a07" stroke="none" stroke-width="0" stroke-linecap="butt"/><path d="M323.94705,114.53509c0,0 0.1026,3.96976 0.00576,7.12662c-0.19174,6.25113 -1.08147,27.7607 -1.08147,27.7607l-2.98167,0.00864c0,0 -0.80294,-4.17274 -1.12322,-9.49979c-0.43353,-7.21063 -0.4495,-16.29321 -0.76344,-19.63229c-0.29758,-3.16513 -0.89593,-5.71453 -0.89593,-5.71453" fill="#5a5a07" stroke="none" stroke-width="0" stroke-linecap="round"/><path d="M294.41244,125.32493c0,0 -4.93211,-3.51705 -6.16417,-8.97502c-1.29636,-5.74284 -1.46118,-9.7328 0.48013,-9.99193c1.94131,-0.25915 2.70321,2.37692 3.73262,8.35569c1.0294,5.97877 1.95143,10.61127 1.95143,10.61127z" data-paper-data="{&quot;index&quot;:null}" fill="#5a5a07" stroke="none" stroke-width="0" stroke-linecap="butt"/><path d="M294.20984,121.37737c0,0 -3.56385,-2.92338 -4.31816,-8.45061c-0.42079,-3.08327 2.15675,-2.28016 2.15675,-2.28016" fill="#5a5a07" stroke="none" stroke-width="0" stroke-linecap="round"/><path d="M297.22325,114.72147c0.07093,-4.89188 4.83834,-8.93609 10.21137,-8.8582c5.37302,0.0779 9.02724,4.2484 8.95632,9.14029c-0.07093,4.89188 -4.12352,8.79439 -9.49655,8.7165c-5.37302,-0.0779 -9.74207,-4.1067 -9.67114,-8.99859z" fill="#5a5a07" stroke="none" stroke-width="0" stroke-linecap="butt"/><path d="M301.6609,114.83941c0.03999,-2.75843 2.30855,-4.96213 5.06696,-4.92214c2.75843,0.03999 4.96213,2.30855 4.92214,5.06696c-0.03999,2.75843 -2.30854,4.96213 -5.06696,4.92214c-2.75843,-0.03999 -4.96213,-2.30855 -4.92214,-5.06696z" fill="#5a5a07" stroke="none" stroke-width="0" stroke-linecap="butt"/><path d="M324.27952,114.7222c0.20353,-4.88817 4.45264,-8.85847 9.77048,-8.85847c5.31783,0 9.27453,3.96607 9.27453,8.85847c0,4.8924 -3.88585,9.07104 -9.69964,9.14188c-5.52997,0.06739 -9.55792,-4.03692 -9.34537,-9.14188z" fill="#5a5a07" stroke="none" stroke-width="0" stroke-linecap="butt"/><path d="M328.88229,114.80775c0,-2.81845 2.2848,-5.10325 5.10325,-5.10325c2.81845,0 5.10325,2.2848 5.10325,5.10325c0,2.81845 -2.28479,5.10325 -5.10325,5.10325c-2.81845,0 -5.10325,-2.2848 -5.10325,-5.10325z" fill="#5a5a07" stroke="none" stroke-width="0" stroke-linecap="butt"/><path d="M297.15483,114.18929c0,0 0.06357,-9.01512 10.60111,-8.8249c9.47101,0.16586 9.55554,9.40723 9.55554,9.40723z" fill="#5a5a07" stroke="none" stroke-width="0" stroke-linecap="butt"/><path d="M323.90188,114.32019c0,0 -0.24686,-9.4582 11.19813,-9.1032c9.71427,0.33347 9.54677,9.65229 9.54677,9.65229z" fill="#5a5a07" stroke="none" stroke-width="0" stroke-linecap="butt"/><path d="M300.68468,104.17763c0,0 3.36963,-1.819 8.03244,-2.28178c5.16698,-0.51283 7.76823,-0.06628 7.76823,-0.06628l0.29508,4.13747c0,0 -3.83554,-0.68065 -8.01795,-0.52113c-5.59346,0.21333 -6.64488,1.43293 -10.89774,1.89119c-3.64408,0.39266 -6.73723,0.15884 -6.73723,0.15884l-0.02589,-1.23155c0,0 3.59517,0.07398 5.23371,-0.06836c1.35239,-0.11749 3.9757,-0.93808 3.9757,-0.93808z" fill="#5a5a07" stroke="none" stroke-width="0" stroke-linecap="butt"/><path d="M348.64561,114.71366c1.0294,-5.97877 1.7913,-8.61483 3.73262,-8.35569c1.94131,0.25914 1.77649,4.24909 0.48013,9.99193c-1.23206,5.45797 -6.16417,8.97502 -6.16417,8.97502c0,0 0.92203,-4.6325 1.95143,-10.61127z" data-paper-data="{&quot;index&quot;:null}" fill="#5a5a07" stroke="none" stroke-width="0" stroke-linecap="butt"/><path d="M349.05821,110.6466c0,0 2.57754,-0.80312 2.15675,2.28016c-0.75431,5.52723 -4.31816,8.45061 -4.31816,8.45061" data-paper-data="{&quot;index&quot;:null}" fill="#5a5a07" stroke="none" stroke-width="0" stroke-linecap="round"/><path d="M255.763,137.17949c0,-33.30185 28.7599,-60.29833 64.23702,-60.29833c35.47712,0 64.23702,26.99649 64.23702,60.29833c0,33.30185 -28.7599,60.29833 -64.23702,60.29833c-35.47712,0 -64.23702,-26.99649 -64.23702,-60.29833z" fill="#ffffff" stroke="#000000" stroke-width="2" stroke-linecap="butt"/><path d="M256.48607,136.89998c0,-0.72799 5.20666,55.91939 63.36046,56.93429c55.56352,0.9697 63.51358,-57.95314 63.51358,-56.93429c0,32.80479 -28.40173,59.39833 -63.43702,59.39833c-35.03529,0 -63.43702,-26.59354 -63.43702,-59.39833z" fill="#dedeaf" stroke="#000000" stroke-width="0" stroke-linecap="butt"/><g stroke="#000000" stroke-width="2.5" stroke-linecap="butt"><path d="M398.55433,97.52853c-0.57986,10.16662 -34.81425,16.48254 -76.46463,14.10697c-41.65038,-2.37557 -74.94462,-12.54304 -74.36476,-22.70965c0.57986,-10.16662 34.81425,-16.48254 76.46463,-14.10697c41.65038,2.37557 74.94462,12.54304 74.36476,22.70965z" fill="#e2e2e2"/><path d="M276.24716,90.2179l2.69218,-47.20157c0,0 11.3908,-9.6343 48.83967,-8.20752c37.8526,1.4421 44.98329,13.5588 44.98329,13.5588l-2.69218,47.20157c0,0 -10.25809,4.76523 -46.16156,1.87715c-32.08575,-2.58098 -47.66139,-7.22843 -47.66139,-7.22843z" fill="#ffffff"/></g><path d="M293.03587,141.83799c0,-2.76142 2.23858,-5 5,-5c2.76142,0 5,2.23858 5,5c0,2.76142 -2.23858,5 -5,5c-2.76142,0 -5,-2.23858 -5,-5z" fill="#000000" stroke="none" stroke-width="0.5" stroke-linecap="butt"/><path d="M335.74351,141.83799c0,-2.76142 2.23858,-5 5,-5c2.76142,0 5,2.23858 5,5c0,2.76142 -2.23858,5 -5,5c-2.76142,0 -5,-2.23858 -5,-5z" fill="#000000" stroke="none" stroke-width="0.5" stroke-linecap="butt"/><path d="M355.59566,169.0564c0,0 -19.85211,12.21175 -34.80742,11.86656c-14.95531,-0.34518 -34.81948,-13.47362 -34.81948,-13.47362" fill="none" stroke="#000000" stroke-width="4" stroke-linecap="round"/><g fill="#000000" stroke="#ffffff" stroke-width="1" stroke-linecap="butt"><path d="M305.13782,234.83514c0,0 -22.84636,7.77921 -36.46412,11.88172c-13.61776,4.1025 -30.56161,-35.31624 -35.07436,-50.29577c-0.26979,-0.89554 -1.40992,-4.09728 -3.9304,-7.64086c-3.77182,-5.30282 -9.08571,-12.49291 -13.47661,-18.83863c-2.44378,-3.53175 -4.82858,-6.7336 -5.95854,-9.36686c-1.16254,-2.70919 1.0038,-5.18468 1.70559,-5.69965c0.39163,-0.28737 3.96521,-1.76363 4.87867,-1.20709c1.1,0.67018 2.90944,2.13561 4.20847,3.80948c1.49107,1.9213 2.5151,4.16918 4.47817,6.67864c2.49115,3.18454 6.2113,6.53723 8.66051,9.60024c4.47778,5.59996 7.77288,9.44077 7.77288,9.44077c0,0 1.6172,0.81088 1.93925,0.54819c1.10191,-0.89881 1.0106,-2.76196 2.54264,-4.58867c0.42254,-0.50382 -2.93895,-6.51276 -6.80018,-14.99824c-2.85586,-6.27608 -5.99788,-13.76238 -8.7586,-20.5258c-2.73021,-6.68865 -5.08991,-12.66958 -6.0024,-16.20297c-0.48196,-1.86626 3.53609,-4.31674 3.76179,-4.56643c0.31028,-0.34328 5.00412,-1.82201 6.10046,-0.37239c2.08769,2.76041 4.16016,8.94114 7.19401,15.408c2.5515,5.4387 6.14387,10.86462 8.67571,16.01249c3.95196,8.03532 5.71736,14.93009 6.62605,14.57071c0.62416,-0.24684 2.68336,-1.33291 3.6856,-1.70426c0.27414,-0.10157 -0.15746,-1.78843 -1.11807,-4.49848c-1.12221,-3.16595 -2.92642,-7.7403 -4.56225,-12.9982c-2.32877,-7.48513 -3.63972,-15.99487 -5.55041,-23.55598c-1.51795,-6.00695 -3.8391,-11.50767 -4.31717,-14.75956c-0.30718,-2.08953 3.76103,-4.18891 4.04424,-4.27801c0.53002,-0.16674 5.83636,-0.31835 7.11214,2.06357c1.64139,3.06452 3.21769,8.26544 5.2306,14.05777c1.93866,5.57865 4.31405,11.69631 5.91446,17.47279c1.93236,6.97464 2.77573,12.81886 4.16678,17.15774c1.09075,3.40219 2.58336,5.38064 2.9629,5.28164c2.27274,-0.59283 1.72647,-0.83191 3.26975,-0.91523c1.06892,-0.0577 0.38114,-16.23801 -0.74116,-30.43458c-0.32387,-4.0969 -1.39058,-8.17898 -1.85649,-11.57727c-0.33722,-2.45961 -0.20316,-4.60817 0.00476,-5.91883c0.20735,-1.30701 4.42277,-2.82688 4.77276,-2.79349c0.36613,0.03492 4.53551,0.83648 5.09388,2.72043c0.64821,2.18703 1.8439,5.32979 2.76976,9.09316c1.64243,6.67602 3.14155,15.09241 4.26285,22.07455c1.44626,9.0056 1.27133,15.1983 1.91492,17.97102c0.71357,3.10488 2.78596,10.75926 6.62054,18.25634c2.74434,5.36553 6.47325,8.64524 6.47325,8.64524c0,0 12.14459,-37.24464 31.85355,-28.79692c2.46452,1.05635 -1.9197,3.74846 -5.35097,7.96503c-1.83757,2.25812 -2.67789,5.58788 -3.66464,7.91985c-2.1046,4.97383 -4.26321,9.27967 -5.53808,13.59964c-1.61747,5.48091 -0.76412,10.89963 -0.66345,12.55144c0.19843,3.25577 -3.75978,8.05423 -6.20744,13.23646c-2.31567,4.90279 -3.69817,9.48328 -6.46842,13.01881c-3.16296,4.03677 -6.19319,5.49851 -6.19319,5.49851z"/><path d="M263.84488,208.15214c-0.50417,-0.27073 -0.23345,-0.77489 -0.23345,-0.77489l0.15314,-0.2852c0.55849,-1.02842 0.95776,-2.29945 1.29489,-3.42055c1.06469,-2.89133 2.92353,-5.74085 4.69217,-8.23332c1.62216,-2.28603 2.91494,-4.72495 4.85707,-6.77856c2.83607,-2.66017 6.02516,-5.27944 9.19566,-7.60223c1.09666,-0.80345 2.25609,-1.47122 3.12112,-2.53346c0,0 0.36435,-0.44129 0.80564,-0.07694c0.44129,0.36435 0.07694,0.80564 0.07694,0.80564c-0.94554,1.1322 -2.14036,1.85987 -3.32232,2.72437c-3.12324,2.28439 -6.29158,4.85939 -9.06885,7.49306c-1.9004,1.99632 -3.14832,4.39891 -4.73061,6.62874c-1.7001,2.39585 -3.53003,5.15243 -4.54152,7.93615c-0.36473,1.18601 -0.78944,2.5036 -1.37185,3.59857l-0.15314,0.2852c0,0 -0.27072,0.50417 -0.77489,0.23345z"/><path d="M243.51004,208.1875c-0.32987,-0.46763 0.13774,-0.7975 0.13774,-0.7975l0.26886,-0.18845c0.69975,-0.5575 1.44757,-1.04502 2.1468,-1.60301c4.26473,-3.39464 8.13408,-7.23138 12.62756,-10.36659c2.54097,-2.82729 4.8512,-5.60039 7.08712,-8.64311c1.0836,-1.4746 2.1469,-2.70461 2.83976,-4.42554c0.56924,-2.2499 2.0068,-3.92652 3.28231,-5.78051c1.57797,-2.29363 3.27436,-5.29421 4.02889,-7.99646c0,0 0.1549,-0.55089 0.7058,-0.39599c0.5509,0.15491 0.39599,0.7058 0.39599,0.7058c-0.7982,2.8204 -2.5411,5.94996 -4.19605,8.34724c-1.21368,1.75808 -2.58839,3.33882 -3.12873,5.47447c-0.73746,1.83775 -1.84353,3.17376 -3.00363,4.74591c-2.28965,3.10291 -4.62755,5.96392 -7.2536,8.82585c-4.4816,3.19072 -8.39351,6.98705 -12.67189,10.4038c-0.69975,0.5575 -1.44757,1.04502 -2.1468,1.60301l-0.32264,0.22881c0,0 -0.46763,0.32987 -0.7975,-0.13774z"/><path d="M235.99539,195.14319c0.16425,0.02028 0.36002,0.11013 0.44773,0.40124c0.16507,0.54793 -0.38286,0.71301 -0.38286,0.71301l-1.20546,0.36316c-0.30262,0.09117 -0.62184,-0.08025 -0.71301,-0.38286c-0.05142,-0.17067 -0.01931,-0.34663 0.07275,-0.48397l0.49004,-0.74237c1.14961,-1.72399 2.38776,-3.18233 3.75553,-4.75316c0.42431,-0.4873 0.61844,-1.24914 1.0329,-1.74962c1.12107,-1.35374 2.70936,-2.14046 3.55943,-3.74523c0,0 0.27072,-0.50417 0.77489,-0.23345c0.50417,0.27073 0.23345,0.77489 0.23345,0.77489c-0.91722,1.68849 -2.51471,2.50905 -3.68889,3.93692c-0.40981,0.49835 -0.60312,1.24643 -1.02403,1.73886c-1.19773,1.40121 -2.32545,2.67752 -3.35248,4.1626z"/><path d="M256.21128,170.83945c0.35677,0.44744 -0.09068,0.8042 -0.09068,0.8042l-0.45177,0.35846c-1.76992,1.87026 -3.59789,3.60576 -5.70786,5.09527c0,0 -0.46763,0.32987 -0.7975,-0.13774c-0.32987,-0.46763 0.13774,-0.7975 0.13774,-0.7975c2.07194,-1.46053 3.85314,-3.17226 5.59381,-5.00334l0.51205,-0.41003c0,0 0.44744,-0.35677 0.8042,0.09068z"/><path d="M254.67436,167.57983c0.16507,0.54793 -0.38286,0.71301 -0.38286,0.71301l-0.21918,0.06603c-2.75666,0.76402 -5.24517,3.34699 -7.8327,4.62268c0,0 -0.51334,0.2529 -0.76625,-0.26043c-0.2529,-0.51334 0.26044,-0.76625 0.26044,-0.76625c2.71062,-1.33444 5.14399,-3.78131 8.00837,-4.69187l0.21918,-0.06603c0,0 0.54793,-0.16507 0.71301,0.38286z"/><path d="M271.00552,158.40677c0.32987,0.46763 -0.13774,0.7975 -0.13774,0.7975l-0.37271,0.25436c-2.3309,1.14076 -5.03836,1.99949 -7.5173,2.75093c0,0 -0.54793,0.16507 -0.71301,-0.38286c-0.16507,-0.54793 0.38286,-0.71301 0.38286,-0.71301c2.41076,-0.72128 5.08184,-1.55997 7.34163,-2.68174l0.21877,-0.16291c0,0 0.46763,-0.32987 0.7975,0.13774z"/><path d="M274.53351,163.27051c0.16507,0.54793 -0.38286,0.71301 -0.38286,0.71301l-0.54406,0.12116c-1.14887,-0.12481 -2.4878,0.56038 -3.5811,0.88251c-1.95619,0.57637 -3.95439,1.09163 -5.99703,1.19118c0,0 -0.57162,0.02725 -0.59887,-0.54436c-0.02725,-0.57162 0.54436,-0.59887 0.54436,-0.59887c1.95046,-0.09075 3.86306,-0.59627 5.73019,-1.14644c1.29076,-0.38034 2.64915,-1.02399 4.0029,-0.92412l0.11346,-0.07693c0,0 0.54793,-0.16507 0.71301,0.38286z"/><path d="M288.98231,161.73637c-0.01668,0.57202 -0.58869,0.55534 -0.58869,0.55534l-0.2907,-0.01289c-2.64073,0.19912 -5.01748,0.32784 -7.67142,1.12738c0,0 -0.54793,0.16507 -0.71301,-0.38286c-0.16507,-0.54793 0.38286,-0.71301 0.38286,-0.71301c1.90385,-0.57356 3.95986,-1.18634 5.95513,-1.30129c0.74644,-0.04301 1.24953,0.21777 1.9376,0.13044l0.43286,0.00819c0,0 0.57202,0.01668 0.55535,0.5887z"/><path d="M280.52722,227.20809c-0.54793,0.16507 -0.71301,-0.38286 -0.71301,-0.38286l-0.17868,-0.60274c-0.21548,-2.16226 -0.30053,-4.24132 -0.43996,-6.39355c0.50663,-1.42412 0.28885,-3.03649 0.41846,-4.51457c0.20078,-2.28968 0.12245,-4.61974 0.31117,-6.90068c0.13322,-1.61012 0.67764,-3.19896 0.72059,-4.80002c0.81328,-3.24905 0.85945,-6.63157 1.8622,-9.85128c0.62407,-2.00382 2.39349,-3.87735 3.60364,-5.52535c2.89438,-4.20012 5.834,-8.65624 9.39254,-12.3227c0,0 0.39882,-0.4104 0.80922,-0.01158c0.4104,0.39882 0.01158,0.80922 0.01158,0.80922c-3.52126,3.61877 -6.42069,8.03921 -9.28121,12.18921c-1.12531,1.52471 -2.89317,3.34244 -3.44383,5.20418c-0.93872,3.17368 -1.00536,6.48009 -1.82056,9.6663c-0.04919,1.56765 -0.58182,3.11386 -0.7106,4.68902c-0.18763,2.29503 -0.10948,4.63843 -0.31354,6.94094c-0.1312,1.48043 0.11056,3.16372 -0.42608,4.58531c0.16991,2.00704 0.24568,3.9896 0.42947,6.01504l0.15147,0.49314c0,0 0.16507,0.54793 -0.38286,0.71301z"/><path d="M303.93042,196.66601c-0.56391,-0.0974 -0.4665,-0.66132 -0.4665,-0.66132l0.03742,-0.20503c0.2106,-2.02028 1.65628,-4.15654 2.92894,-5.69996c0,0 0.36435,-0.44129 0.80564,-0.07694c0.44129,0.36435 0.07694,0.80564 0.07694,0.80564c-1.08837,1.31642 -2.55891,3.33203 -2.67142,5.07174l-0.0497,0.29936c0,0 -0.09741,0.56391 -0.66132,0.4665z"/><path d="M320.1156,192.3042c-0.16659,0.54748 -0.71407,0.38088 -0.71407,0.38088l-0.36856,-0.11283c-3.79178,-0.96672 -6.412,-3.80919 -8.83463,-6.70005c0,0 -0.36757,-0.43861 0.07104,-0.80618c0.43861,-0.36757 0.80617,0.07104 0.80617,0.07104c2.25604,2.69207 4.69275,5.43635 8.23814,6.32562l0.42102,0.12744c0,0 0.54748,0.16659 0.38088,0.71407z"/><path d="M323.4004,178.67118c-0.19671,0.53739 -0.7341,0.34069 -0.7341,0.34069l-0.65595,-0.25651c-2.01047,-1.32721 -3.69233,-3.17508 -5.97968,-3.95195c0,0 -0.54182,-0.18416 -0.35767,-0.72598c0.18415,-0.54182 0.72597,-0.35767 0.72597,-0.35767c2.40583,0.81828 4.13579,2.69027 6.24188,4.08041l0.41884,0.1369c0,0 0.53739,0.19671 0.34069,0.7341z"/><path d="M313.32457,224.97764c0.16507,0.54793 -0.38286,0.71301 -0.38286,0.71301l-0.52461,0.07287c-1.30672,-0.36023 -2.03154,-1.42136 -2.99453,-2.32492c-2.25539,-0.88319 -3.05949,-2.70251 -4.61532,-4.34356c-2.0374,-2.14902 -3.12303,-4.58506 -3.98443,-7.44435c0,0 -0.16507,-0.54793 0.38286,-0.71301c0.54793,-0.16507 0.71301,0.38286 0.71301,0.38286c0.80842,2.68345 1.80839,4.95321 3.70603,6.97347c1.51064,1.60825 2.23412,3.28216 4.40574,4.17485c0.81956,0.72885 1.57633,1.94628 2.66735,2.18509l-0.08625,-0.05919c0,0 0.54793,-0.16507 0.71301,0.38286z"/><path d="M315.49771,216.0251c-0.01668,0.57202 -0.58869,0.55534 -0.58869,0.55534l-0.61584,-0.07839c-3.57213,-1.91813 -4.56567,-6.89011 -8.25804,-8.47806c0,0 -0.52345,-0.23126 -0.29219,-0.75471c0.23126,-0.52345 0.75471,-0.29219 0.75471,-0.29219c3.7973,1.71456 4.73139,6.58053 8.33698,8.51661l0.10772,-0.0573c0,0 0.57202,0.01668 0.55534,0.58869z"/><path d="M317.6614,209.7049c-0.36435,0.44129 -0.80564,0.07694 -0.80564,0.07694l-0.33879,-0.28056c-3.29281,-3.01294 -5.64504,-6.86526 -7.63668,-10.81258c0,0 -0.25779,-0.51091 0.25313,-0.7687c0.51091,-0.25779 0.7687,0.25313 0.7687,0.25313c1.9219,3.80909 4.18176,7.59211 7.38471,10.48123l0.29764,0.2449c0,0 0.44129,0.36435 0.07694,0.80564z"/><path d="M231.00366,173.48523c0.04753,-0.12835 0.15267,-0.25474 0.3708,-0.32044c0.54793,-0.16507 0.71301,0.38286 0.71301,0.38286l-0.2456,0.77958c-2.53386,1.34884 -4.14893,3.86903 -6.71957,5.13568c0,0 -0.51334,0.2529 -0.76625,-0.26044c-0.2529,-0.51334 0.26044,-0.76625 0.26044,-0.76625c2.44039,-1.20213 4.0324,-3.57062 6.38717,-4.95099z"/><path d="M224.98487,165.04894c0.16507,0.54793 -0.38286,0.71301 -0.38286,0.71301l0.0821,-0.06748c-1.73883,1.38624 -3.27662,3.38441 -5.44911,4.07502c0,0 -0.54793,0.16507 -0.71301,-0.38286c-0.16507,-0.54793 0.38286,-0.71301 0.38286,-0.71301c1.98008,-0.54879 3.50375,-2.6284 5.06573,-3.87403l0.30128,-0.13351c0,0 0.54793,-0.16507 0.71301,0.38286z"/><path d="M238.91402,180.33653c0.16507,0.54793 -0.38286,0.71301 -0.38286,0.71301l-0.10959,0.03301c-0.90884,0.22545 -1.45728,1.48051 -1.98784,2.18659c-1.33094,1.77126 -2.63612,3.85853 -4.59775,4.92571c0,0 -0.50492,0.26933 -0.77424,-0.2356c-0.26932,-0.50492 0.2356,-0.77425 0.2356,-0.77425c1.7931,-0.93362 3.01783,-3.00141 4.22136,-4.60337c0.76722,-1.02121 1.32084,-2.17837 2.57273,-2.59496l0.10959,-0.03301c0,0 0.54793,-0.16507 0.71301,0.38286z"/><path d="M240.71809,138.31502c0.16507,0.54793 -0.38286,0.71301 -0.38286,0.71301l-0.00533,-0.01c-2.33455,1.24525 -4.66789,2.66538 -7.35917,2.93423c0,0 -0.56966,0.05441 -0.62408,-0.51526c-0.05441,-0.56966 0.51525,-0.62407 0.51525,-0.62407c2.52366,-0.22758 4.74565,-1.63996 6.92934,-2.80474l0.21383,-0.07603c0,0 0.54793,-0.16507 0.71301,0.38286z"/><path d="M249.72497,153.53158c0.16507,0.54793 -0.38286,0.71301 -0.38286,0.71301l-0.50267,0.14933c-2.94602,1.46956 -5.93252,3.69089 -9.05112,4.64138c0,0 -0.54793,0.16507 -0.71301,-0.38286c-0.16507,-0.54793 0.38286,-0.71301 0.38286,-0.71301c3.07709,-0.91486 6.04824,-3.17464 8.96059,-4.60991l0.5932,-0.18081c0,0 0.54793,-0.16507 0.71301,0.38286z"/><path d="M265.64315,143.71798c0.26932,0.50492 -0.2356,0.77425 -0.2356,0.77425l-0.5231,0.27894c-2.58019,1.27151 -5.49739,1.90501 -8.2491,2.73398c0,0 -0.54793,0.16507 -0.71301,-0.38286c-0.16507,-0.54793 0.38286,-0.71301 0.38286,-0.71301c2.68238,-0.80809 5.54193,-1.4178 8.05694,-2.65651l0.50674,-0.27039c0,0 0.50492,-0.26933 0.77424,0.2356z"/><path d="M266.78428,135.96082c0.16507,0.54793 -0.38286,0.71301 -0.38286,0.71301l-0.32877,0.09904c-1.51322,0.45209 -3.11103,0.53954 -4.64805,0.92163c-2.4623,0.61211 -4.88963,1.47356 -7.31943,2.20557c0,0 -0.54793,0.16507 -0.71301,-0.38286c-0.16507,-0.54793 0.38286,-0.71301 0.38286,-0.71301c2.44511,-0.73661 4.88746,-1.60213 7.36526,-2.21835c1.51918,-0.37781 3.10996,-0.45508 4.60222,-0.90885l0.32877,-0.09904c0,0 0.54793,-0.16507 0.71301,0.38286z"/><path d="M262.6708,124.29047c0.16507,0.54793 -0.38286,0.71301 -0.38286,0.71301l-0.21918,0.06603c-3.64788,1.09897 -6.9719,1.29195 -10.68011,1.77497c0,0 -0.56761,0.07274 -0.64036,-0.49487c-0.07274,-0.56762 0.49487,-0.64036 0.49487,-0.64036c3.65313,-0.46133 6.90549,-0.65409 10.49546,-1.73561l0.21918,-0.06603c0,0 0.54793,-0.16507 0.71301,0.38286z"/><path d="M288.57228,129.78097c0.02726,0.57162 -0.54436,0.59887 -0.54436,0.59887l-0.42586,0.01848c-2.28085,0.29084 -4.52702,0.41568 -6.74702,1.08448c0,0 -0.54793,0.16507 -0.71301,-0.38286c-0.16507,-0.54793 0.38286,-0.71301 0.38286,-0.71301c2.28378,-0.68801 4.58686,-0.82172 6.93168,-1.12385l0.51685,-0.02646c0,0 0.57162,-0.02725 0.59887,0.54436z"/><path d="M288.96913,142.54557c0.16507,0.54793 -0.38286,0.71301 -0.38286,0.71301l-0.3115,0.08571c-2.3627,0.29425 -4.92196,0.45316 -7.31428,0.51711c0,0 -0.57206,0.01509 -0.58715,-0.55697c-0.01508,-0.57206 0.55697,-0.58715 0.55697,-0.58715c2.34646,-0.06099 4.88637,-0.20202 7.19895,-0.50822l0.12685,-0.04635c0,0 0.54793,-0.16507 0.71301,0.38286z"/><path d="M291.75755,145.99163c-0.05023,0.57005 -0.62029,0.51982 -0.62029,0.51982l-0.55241,-0.052c-1.00729,0.13148 -1.93144,0.64401 -2.92802,0.77695c-2.47026,0.32951 -5.05075,0.29443 -7.5317,0.71818c0,0 -0.56418,0.09583 -0.66002,-0.46835c-0.09584,-0.56418 0.46835,-0.66002 0.46835,-0.66002c2.49398,-0.42145 5.08735,-0.42094 7.57302,-0.72442c1.03071,-0.12584 2.00496,-0.65379 3.05572,-0.78665l0.67551,0.05621c0,0 0.57005,0.05023 0.51982,0.62028z"/><path d="M272.02833,218.74367c-0.25209,-0.13536 -0.11672,-0.38745 -0.11672,-0.38745l0.12879,-0.22366c0.01881,-0.64524 0.54629,-1.38154 0.85878,-1.9498c0.19567,-1.17845 0.69253,-2.43905 1.08118,-3.55311c0.54993,-1.57635 0.52313,-4.09692 0.41584,-5.79245c0.27281,-3.6264 -0.57359,-6.07878 -1.59917,-9.45472c0,0 -0.08254,-0.27397 0.19143,-0.3565c0.27397,-0.08254 0.3565,0.19143 0.3565,0.19143c1.02387,3.43036 1.90666,5.94001 1.62348,9.62367c0.20946,3.40228 -0.9443,6.26074 -1.52825,9.52814c-0.29837,0.56719 -0.82835,1.27416 -0.84692,1.91098l-0.17751,0.34674c0,0 -0.13536,0.25209 -0.38745,0.11672z"/><path d="M287.29094,231.80452c-0.27397,0.08254 -0.3565,-0.19143 -0.3565,-0.19143l-0.03301,-0.10959c-0.07809,-0.25922 -0.15621,-0.51842 -0.23435,-0.77764c-1.08283,-3.58689 -3.59651,-5.89782 -5.46918,-9.04503c-1.52861,-2.8657 -3.9414,-5.52793 -4.87473,-8.62601c0,0 -0.08254,-0.27397 0.19143,-0.3565c0.27397,-0.08254 0.3565,0.19143 0.3565,0.19143c0.5074,1.68425 1.55386,2.72758 2.42827,4.18119c0.8332,1.38509 1.62554,2.88245 2.39705,4.32892c1.89524,3.18932 4.42002,5.52192 5.51853,9.16075c0.07815,0.25927 0.15629,0.51855 0.23441,0.77784l0.03301,0.10959c0,0 0.08254,0.27397 -0.19143,0.3565z"/><path d="M297.24928,231.88078c-0.20813,0.19634 -0.40448,-0.01179 -0.40448,-0.01179l-0.14965,-0.16186c-0.2219,-0.18322 -0.44324,-0.36714 -0.66411,-0.55159c-0.82753,-1.17307 -2.02771,-2.10524 -2.853,-3.28469c-0.85719,-1.22506 -1.45408,-2.68223 -2.22306,-3.97083c0,0 -0.14652,-0.24577 0.09925,-0.39229c0.24577,-0.14652 0.39229,0.09925 0.39229,0.09925c0.7612,1.27817 1.35494,2.71985 2.20086,3.93644c0.80545,1.15838 1.99189,2.07277 2.80335,3.22308c0.20351,0.16573 0.40638,0.33223 0.60876,0.49933l0.20158,0.21046c0,0 0.19634,0.20813 -0.01179,0.40448z"/><path d="M289.24466,213.44024c-0.16494,-0.23381 0.06888,-0.39875 0.06888,-0.39875l0.33533,-0.23203c1.01335,-0.29297 2.54239,-1.4066 3.38691,-2.0837c2.66161,-1.72995 5.3731,-3.54754 8.43308,-4.46939c0,0 0.27397,-0.08254 0.3565,0.19143c0.08254,0.27397 -0.19143,0.3565 -0.19143,0.3565c-2.9998,0.90371 -5.65245,2.69319 -8.26359,4.38573c-0.8926,0.70803 -2.40525,1.80116 -3.47076,2.13384l-0.25617,0.18523c0,0 -0.23381,0.16494 -0.39875,-0.06888z"/><path d="M302.48671,200.01873c0.19634,0.20813 -0.01179,0.40448 -0.01179,0.40448l-0.21757,0.20129c-2.55161,1.79783 -4.87932,3.90825 -7.52574,5.67744c-1.98533,1.13064 -3.78898,2.56858 -5.56149,3.99711c-0.48256,0.38891 -1.40363,0.72822 -1.66709,1.27248c0,0 -0.13536,0.25208 -0.38745,0.11672c-0.25208,-0.13536 -0.11672,-0.38745 -0.11672,-0.38745c0.37552,-0.65779 1.22498,-0.97377 1.81585,-1.45027c1.78886,-1.44261 3.6119,-2.89424 5.61602,-4.03538c2.63601,-1.76471 4.95436,-3.86251 7.49675,-5.65828l0.15475,-0.14994c0,0 0.20813,-0.19634 0.40448,0.01179z"/><path d="M326.22287,183.08033c0.08254,0.27397 -0.19143,0.3565 -0.19143,0.3565l-0.43708,0.04415c-1.13117,-0.61318 -2.4433,-1.60203 -3.27355,-2.58535c-1.3715,0.04312 -2.47845,-1.23383 -3.49874,-1.9934c-1.43072,-1.06511 -3.04348,-1.79435 -4.6042,-2.6324c0,0 -0.25208,-0.13536 -0.11672,-0.38745c0.13536,-0.25208 0.38745,-0.11672 0.38745,-0.11672c1.58577,0.85151 3.22111,1.5959 4.67511,2.67749c1.0697,0.79571 1.99301,1.83008 3.39141,1.93039c0.95542,0.94842 2.12167,1.97239 3.30998,2.60327l0.00128,-0.08791c0,0 0.27397,-0.08254 0.3565,0.19143z"/><path d="M321.62593,208.17721c-0.23381,0.16494 -0.39875,-0.06888 -0.39875,-0.06888l-0.16448,-0.24645c-1.05373,-0.57212 -1.68568,-2.14827 -2.5061,-3.03898c-0.77305,-2.46507 -5.08735,-3.92301 -7.46114,-3.99219c0,0 -0.28601,-0.00834 -0.27767,-0.29435c0.00834,-0.28601 0.29435,-0.27767 0.29435,-0.27767c2.47792,0.07222 7.18341,1.64429 7.93983,4.27768c0.81411,0.83482 1.37054,2.35589 2.39006,2.89704l0.25278,0.34505c0,0 0.16494,0.23381 -0.06888,0.39875z"/><path d="M298.60933,183.97405c0.19634,0.20813 -0.01179,0.40448 -0.01179,0.40448l-0.13041,0.10285c-0.39585,0.65589 -1.2239,0.93546 -1.75076,1.53018c-0.25897,0.29233 -0.48325,0.62229 -0.71476,0.94674c0.33093,-0.04959 0.66495,-0.0979 1.00276,-0.14531c0.90495,0.07762 1.80789,-0.15842 2.70405,0.04584c1.07892,0.24591 2.21644,0.71361 3.32957,0.41994l0.39197,0.18576c0,0 0.25208,0.13536 0.11672,0.38745c-0.13536,0.25208 -0.38745,0.11672 -0.38745,0.11672l-0.17844,-0.12053c-1.0408,0.36637 -2.36143,-0.18972 -3.38048,-0.42737c-0.85206,-0.19872 -1.71576,0.04254 -2.57999,-0.03575c-0.51976,0.07789 -1.03059,0.15651 -1.53516,0.23768c-0.1094,0.12294 -0.22519,0.23963 -0.35041,0.34696c-1.79463,1.51803 -2.52058,3.13922 -3.29984,5.30133c-0.3227,0.89537 -0.79718,1.61203 -0.49105,2.58815c0,0 0.08254,0.27397 -0.19143,0.3565c-0.27397,0.08254 -0.3565,-0.19143 -0.3565,-0.19143c-0.329,-1.12884 0.12836,-1.91367 0.50061,-2.9472c0.76689,-2.1292 1.51479,-3.77515 3.17419,-5.28582c-2.17245,0.37329 -4.25962,0.81884 -6.48353,1.48882c0,0 -0.27397,0.08254 -0.3565,-0.19143c-0.08254,-0.27397 0.19143,-0.3565 0.19143,-0.3565c2.52789,-0.76156 4.88237,-1.2532 7.38382,-1.65101c0.38505,-0.46775 0.69058,-1.01944 1.09085,-1.45869c0.45078,-0.49468 1.43205,-0.8446 1.66615,-1.41174l0.24191,-0.24839c0,0 0.20813,-0.19634 0.40448,0.01179z"/><path d="M246.58232,182.17585c-0.05065,-0.28162 0.23096,-0.33227 0.23096,-0.33227l0.4816,-0.08006c1.13344,0.27477 2.49663,0.8538 3.6584,0.88116c1.63903,0.03861 3.19663,-0.05097 4.86718,0.18756c3.50056,0.50039 6.47732,0.80171 9.94891,-0.24655c0,0 0.27397,-0.08254 0.3565,0.19143c0.08254,0.27397 -0.19143,0.3565 -0.19143,0.3565c-3.54907,1.06685 -6.61374,0.77585 -10.19486,0.26514c-2.92585,-0.41776 -5.57665,-0.2937 -8.46467,-1.06333l-0.36032,0.07137c0,0 -0.28162,0.05065 -0.33227,-0.23096z"/><path d="M244.14157,208.83181c0.01891,-0.07226 0.07001,-0.14816 0.19329,-0.1853c0.27397,-0.08254 0.3565,0.19143 0.3565,0.19143l-0.15842,0.46609c-1.41321,0.40667 -2.84192,1.55124 -4.18504,2.21299c0,0 -0.25668,0.12646 -0.38312,-0.13022c-0.12646,-0.25668 0.13022,-0.38312 0.13022,-0.38312c1.31946,-0.65001 2.66574,-1.67912 4.04658,-2.17187z"/><path d="M270.79513,243.707c-0.27397,0.08254 -0.3565,-0.19143 -0.3565,-0.19143l-0.06603,-0.21918c-0.83741,-2.77969 0.28725,-5.45412 0.1541,-8.24716c-0.14387,-3.01793 0.49073,-6.72126 -0.39401,-9.61055c0,0 -0.08254,-0.27397 0.19143,-0.3565c0.27397,-0.08254 0.3565,0.19143 0.3565,0.19143c0.88102,2.96716 0.27042,6.65913 0.41768,9.74836c0.13071,2.74196 -0.99702,5.38996 -0.17778,8.10933l0.06603,0.21918c0,0 0.08254,0.27397 -0.19143,0.3565z"/><path d="M278.09391,241.74722c-0.27397,0.08254 -0.3565,-0.19143 -0.3565,-0.19143l-0.07787,-0.28809c-0.08782,-1.89921 -0.79493,-3.74639 -0.74121,-5.65585c0,0 0.00834,-0.28601 0.29435,-0.27767c0.28601,0.00834 0.27767,0.29435 0.27767,0.29435c-0.05715,1.88979 0.64861,3.7301 0.74081,5.61193l0.05419,0.15026c0,0 0.08254,0.27397 -0.19143,0.3565z"/><path d="M286.7421,238.61809c-0.0487,0.28195 -0.33065,0.23326 -0.33065,0.23326l-0.44755,-0.17616c-1.36955,-2.24365 -2.58851,-4.63534 -5.15578,-5.57504c0,0 -0.26869,-0.09835 -0.17034,-0.36704c0.09835,-0.26869 0.36704,-0.17034 0.36704,-0.17034c2.71496,0.99377 3.99652,3.44854 5.4472,5.81374l0.05683,-0.08905c0,0 0.28195,0.0487 0.23326,0.33065z"/><path d="M289.04639,143.00043c0.08254,0.27397 -0.19143,0.3565 -0.19143,0.3565l-0.29606,0.08697c-2.99656,1.8002 -5.84834,1.61067 -9.15352,2.03856c0,0 -0.28381,0.03637 -0.32018,-0.24744c-0.03637,-0.28381 0.24744,-0.32018 0.24744,-0.32018c3.26758,-0.41481 6.02832,-0.24618 8.99578,-1.99473l0.36146,-0.11112c0,0 0.27397,-0.08254 0.3565,0.19143z"/><path d="M266.04449,140.84549c0.08254,0.27397 -0.19143,0.3565 -0.19143,0.3565c-0.43835,0.13206 -1.31505,0.39617 -1.75339,0.52823c-1.52817,0.45871 -2.97929,1.19846 -4.49424,1.71236c-1.46282,0.49622 -3.01203,0.65753 -4.4589,1.10441c0,0 -0.27397,0.08254 -0.3565,-0.19143c-0.08254,-0.27397 0.19143,-0.3565 0.19143,-0.3565c2.98489,-0.88081 5.96399,-1.91319 8.95314,-2.81676c0.43835,-0.13206 0.8767,-0.26411 1.31505,-0.39617l0.43835,-0.13206c0,0 0.27397,-0.08254 0.3565,0.19143z"/><path d="M248.31954,151.5502c0.19634,0.20813 -0.01179,0.40448 -0.01179,0.40448l-0.29997,0.24146c-0.58761,0.17378 -1.11219,0.45442 -1.70818,0.63609c-1.89135,1.01075 -3.95132,1.76624 -6.03014,2.2925c-1.00286,0.25388 -2.11935,0.15199 -3.0778,0.44943c0,0 -0.27397,0.08254 -0.3565,-0.19143c-0.08254,-0.27397 0.19143,-0.3565 0.19143,-0.3565c0.98478,-0.28955 2.08385,-0.19823 3.10402,-0.45666c2.05473,-0.52048 4.0772,-1.27338 5.94948,-2.26582c0.61598,-0.19083 1.15404,-0.4693 1.76262,-0.65553l0.07235,-0.10977c0,0 0.20813,-0.19634 0.40448,0.01179z"/><path d="M223.28489,164.36574c0.08254,0.27397 -0.19143,0.3565 -0.19143,0.3565l-0.21918,0.06603c-2.09892,0.63232 -3.29744,2.89226 -5.38949,3.53618c0,0 -0.27397,0.08254 -0.3565,-0.19143c-0.08254,-0.27397 0.19143,-0.3565 0.19143,-0.3565c2.07193,-0.60837 3.27997,-2.90066 5.38949,-3.53618l0.21918,-0.06603c0,0 0.27397,-0.08254 0.3565,0.19143z"/><path d="M231.38771,171.87097c0.16494,0.23381 -0.06888,0.39875 -0.06888,0.39875l-0.2899,0.20439c-2.00212,1.55161 -3.50694,4.17187 -6.02428,4.94056c0,0 -0.27397,0.08254 -0.3565,-0.19143c-0.08254,-0.27397 0.19143,-0.3565 0.19143,-0.3565c1.52967,-0.45346 1.90914,-1.47621 2.96602,-2.41734c0.88748,-0.79028 1.94263,-1.69139 2.88177,-2.43443l0.3016,-0.21287c0,0 0.23381,-0.16494 0.39875,0.06888z"/><path d="M236.29823,179.54243c0.28195,0.0487 0.23326,0.33065 0.23326,0.33065l-0.16058,0.4373c-2.23428,1.5691 -3.35098,5.31186 -6.01705,6.13123c0,0 -0.27397,0.08254 -0.3565,-0.19143c-0.08254,-0.27397 0.19143,-0.3565 0.19143,-0.3565c2.48999,-0.7322 3.74277,-4.55686 5.85226,-6.05091l-0.07346,-0.06708c0,0 0.0487,-0.28195 0.33065,-0.23326z"/><path d="M252.85287,166.09652c0.08254,0.27397 -0.19143,0.3565 -0.19143,0.3565l-0.02719,-0.00714c-2.04417,1.41447 -4.79012,3.59282 -7.15925,4.32373c0,0 -0.27397,0.08254 -0.3565,-0.19143c-0.08254,-0.27397 0.19143,-0.3565 0.19143,-0.3565c0.95569,-0.27929 1.83024,-1.08681 2.67852,-1.60263c1.42286,-0.86518 2.98311,-1.67704 4.31593,-2.64078l0.19199,-0.07318c0,0 0.27397,-0.08254 0.3565,0.19143z"/><path d="M241.30949,140.8741c0.09349,0.27043 -0.17693,0.36392 -0.17693,0.36392l-0.43406,0.14541c-1.60367,1.30738 -5.07419,2.16546 -7.12771,2.36617c0,0 -0.28484,0.0272 -0.31203,-0.25763c-0.0272,-0.28484 0.25763,-0.31203 0.25763,-0.31203c1.98331,-0.18455 5.35544,-1.03459 6.90357,-2.29639l0.52565,-0.18637c0,0 0.27043,-0.09349 0.36392,0.17693z"/><path d="M262.86957,125.54545c0.08254,0.27397 -0.19143,0.3565 -0.19143,0.3565l-0.20045,0.04506c-0.20133,-0.00823 -0.40746,0.01595 -0.59967,0.07646c-2.53392,0.76337 -6.21923,2.60091 -8.80213,1.88435c0,0 -0.27374,-0.0833 -0.19045,-0.35704c0.0833,-0.27374 0.35704,-0.19045 0.35704,-0.19045c0.82221,0.28402 1.92307,-0.05888 2.77676,-0.23372c1.92496,-0.39422 3.8118,-1.08415 5.69371,-1.6511c0.25217,-0.07336 0.51885,-0.10581 0.78141,-0.10054l0.01871,-0.02098c0,0 0.27397,-0.08254 0.3565,0.19143z"/><path d="M288.06462,128.23502c0.08254,0.27397 -0.19143,0.3565 -0.19143,0.3565l-0.21918,0.06603c-2.01542,0.58636 -4.51165,0.2422 -6.43401,0.86252c0,0 -0.27397,0.08254 -0.3565,-0.19143c-0.08254,-0.27397 0.19143,-0.3565 0.19143,-0.3565c1.98697,-0.56705 4.40277,-0.22297 6.43401,-0.86252l0.21918,-0.06603c0,0 0.27397,-0.08254 0.3565,0.19143z"/><path d="M292.99138,163.34204c-0.0487,0.28195 -0.33065,0.23326 -0.33065,0.23326l-0.12095,-0.05155c-0.36998,0.10764 -0.69294,0.08519 -1.05886,0.19559c-2.91639,0.25998 -6.55699,0.28997 -9.40879,1.1649c0,0 -0.27397,0.08254 -0.3565,-0.19143c-0.08254,-0.27397 0.19143,-0.3565 0.19143,-0.3565c2.91404,-0.86407 6.49845,-0.87019 9.46536,-1.17885c0.35058,-0.10093 0.65847,-0.07339 1.00231,-0.18165l0.38343,0.03557c0,0 0.28195,0.0487 0.23326,0.33065z"/></g></g></g></svg>