<svg version="1.1" xmlns="http://www.w3.org/2000/svg" xmlns:xlink="http://www.w3.org/1999/xlink" width="172.70548" height="243.22362" viewBox="0,0,172.70548,243.22362"><g transform="translate(-232.46924,-64.4163)"><g data-paper-data="{&quot;isPaintingLayer&quot;:true}" fill-rule="nonzero" stroke-linejoin="miter" stroke-miterlimit="10" stroke-dasharray="" stroke-dashoffset="0" style="mix-blend-mode: normal"><path d="M356.33453,134.33315c-5.87511,-4.81375 -6.40048,-13.61597 -1.17345,-19.66029c5.22703,-6.04431 47.61866,-34.04706 47.61866,-34.04706c0,0 -21.11598,45.43488 -26.343,51.47919c-5.22703,6.04432 -14.2271,7.0419 -20.10221,2.22815z" data-paper-data="{&quot;index&quot;:null}" fill="#989843" stroke="#000000" stroke-width="2" stroke-linecap="butt"/><path d="M261.20723,132.10499c-5.22703,-6.04431 -26.343,-51.47919 -26.343,-51.47919c0,0 42.39164,28.00274 47.61867,34.04706c5.22703,6.04432 4.70166,14.84654 -1.17345,19.66029c-5.87511,4.81375 -14.87518,3.81616 -20.10221,-2.22815z" fill="#989843" stroke="#000000" stroke-width="2" stroke-linecap="butt"/><path d="M285.16238,306.63993l14.93332,-126.55602l37.26044,-0.15156l13.38607,126.70759z" fill="#c5c556" stroke="#000000" stroke-width="2" stroke-linecap="butt"/><path d="M297.93343,207.39776l3.07823,-25.27206l35.33495,-0.13634l2.72906,25.05921c0,0 -7.41144,4.02779 -21.26072,4.32884c-12.31183,0.26762 -19.88153,-3.97963 -19.88153,-3.97963z" fill="#acac4c" stroke="#000000" stroke-width="0" stroke-linecap="butt"/><path d="M254.67187,146.78608c0,-31.96665 28.36195,-57.88072 63.34816,-57.88072c34.98622,0 63.34816,25.91409 63.34816,57.88072c0,31.96665 -28.36195,57.88072 -63.34816,57.88072c-34.98622,0 -63.34816,-25.91409 -63.34816,-57.88072z" fill="#c5c556" stroke="#000000" stroke-width="2" stroke-linecap="butt"/><path d="M255.97393,146.27235c0,-0.69881 5.13461,53.67736 62.48373,54.65156c54.79468,0.93082 62.63473,-55.62956 62.63473,-54.65156c0,31.48951 -28.00873,57.01682 -62.55923,57.01682c-34.5505,0 -62.55923,-25.5273 -62.55923,-57.01682z" fill="#acac4c" stroke="#000000" stroke-width="0" stroke-linecap="butt"/><path d="M268.62359,146.63292c0,-12.44806 10.36718,-22.53921 23.15574,-22.53921c12.78856,0 23.15574,10.09116 23.15574,22.53921c0,12.44806 -10.36718,22.53921 -23.15574,22.53921c-12.78856,0 -23.15574,-10.09116 -23.15574,-22.53921z" fill="#ffffff" stroke="#000000" stroke-width="2" stroke-linecap="butt"/><path d="M345.28699,169.17213c-12.78856,0 -23.15574,-10.09116 -23.15574,-22.53921c0,-12.44806 10.36718,-22.53921 23.15574,-22.53921c12.78856,0 23.15574,10.09116 23.15574,22.53921c0,12.44806 -10.36718,22.53921 -23.15574,22.53921z" data-paper-data="{&quot;index&quot;:null}" fill="#ffffff" stroke="#000000" stroke-width="2" stroke-linecap="butt"/><path d="M281.64815,115.09326c0,0 11.81569,0.16534 18.39735,3.18829c6.58167,3.02295 12.81653,11.14821 12.81653,11.14821c0,0 -8.69773,-6.8449 -13.78055,-9.17942c-5.31174,-2.43966 -17.43334,-5.15709 -17.43334,-5.15709z" fill="#000000" stroke="none" stroke-width="0" stroke-linecap="butt"/><path d="M336.31892,119.19912c-4.96583,2.55444 -13.32644,9.77233 -13.32644,9.77233c0,0 5.83848,-8.38886 12.26869,-11.69659c6.43019,-3.30773 18.22688,-3.99046 18.22688,-3.99046c0,0 -11.97963,3.24522 -17.16913,5.91472z" data-paper-data="{&quot;index&quot;:null}" fill="#000000" stroke="none" stroke-width="0" stroke-linecap="butt"/><path d="M309.59738,90.75365c0,-3.37052 8.97408,-23.84618 8.97408,-23.84618c0,0 8.97408,20.47567 8.97408,23.84618c0,3.37052 -4.01783,6.10288 -8.97408,6.10288c-4.95625,0 -8.97408,-2.73235 -8.97408,-6.10288z" fill="#989843" stroke="#000000" stroke-width="2" stroke-linecap="butt"/><path d="M343.15389,96.70431c1.35421,-3.10208 17.84028,-18.53081 17.84028,-18.53081c0,0 0.03262,22.26106 -1.32159,25.36314c-1.35421,3.10208 -6.14985,4.08735 -10.71136,2.20066c-4.56152,-1.88669 -7.16153,-5.9309 -5.80734,-9.03298z" fill="#989843" stroke="#000000" stroke-width="2" stroke-linecap="butt"/><path d="M290.39905,105.41733c-4.56152,1.88669 -9.35716,0.90143 -10.71137,-2.20066c-1.35421,-3.10208 -1.32159,-25.36314 -1.32159,-25.36314c0,0 16.48607,15.42874 17.84028,18.53081c1.35421,3.10208 -1.24582,7.14628 -5.80733,9.03298z" data-paper-data="{&quot;index&quot;:null}" fill="#989843" stroke="#000000" stroke-width="2" stroke-linecap="butt"/><path d="M277.92973,149.19536c0,-8.7621 7.39976,-15.86517 16.52783,-15.86517c9.12808,0 16.52784,7.10308 16.52784,15.86517c0,8.7621 -7.39977,15.86517 -16.52784,15.86517c-9.12808,0 -16.52783,-7.10308 -16.52783,-15.86517z" fill="#000000" stroke="none" stroke-width="0" stroke-linecap="butt"/><path d="M325.92807,148.90627c0,-8.7621 7.39976,-15.86517 16.52783,-15.86517c9.12808,0 16.52784,7.10308 16.52784,15.86517c0,8.7621 -7.39977,15.86517 -16.52784,15.86517c-9.12808,0 -16.52783,-7.10308 -16.52783,-15.86517z" fill="#000000" stroke="none" stroke-width="0" stroke-linecap="butt"/><path d="M310.0202,190.5025c-6.2863,-0.22747 -6.19887,-8.58685 -6.19887,-8.58685c0,0 12.40239,-2.27466 17.33633,-2.27466c4.98251,0 15.02106,1.59226 15.02106,1.59226c0,0 -15.37749,9.65935 -26.15852,9.26925z" fill="#ffffff" stroke="#000000" stroke-width="2" stroke-linecap="round"/><path d="M333.7025,182.70265c0,0 -14.11512,3.87444 -19.56796,3.454c-5.20078,-0.40103 -10.25041,-2.50622 -10.25041,-2.50622" fill="none" stroke="#000000" stroke-width="0.5" stroke-linecap="round"/></g></g></svg>