<svg version="1.1" xmlns="http://www.w3.org/2000/svg" xmlns:xlink="http://www.w3.org/1999/xlink" width="144.84218" height="315.848" viewBox="0,0,144.84218,315.848"><g transform="translate(-255.31702,4.89931)"><g data-paper-data="{&quot;isPaintingLayer&quot;:true}" fill-rule="nonzero" stroke-linejoin="miter" stroke-miterlimit="10" stroke-dasharray="" stroke-dashoffset="0" style="mix-blend-mode: normal"><path d="M287.81614,309.94868l15.14285,-131.8421l37.78325,-0.15789l13.57389,132z" fill="#959541" stroke="#000000" stroke-width="2" stroke-linecap="butt"/><path d="M300.76636,206.56131l3.12142,-26.32765l35.83075,-0.14203l2.76735,26.1059c0,0 -7.51543,4.19603 -21.55904,4.50964c-12.48458,0.27879 -20.16049,-4.14586 -20.16049,-4.14586z" fill="#7d7d37" stroke="#000000" stroke-width="0" stroke-linecap="butt"/><path d="M256.31702,143.41797c0,-33.30185 28.7599,-60.29833 64.23702,-60.29833c35.47712,0 64.23702,26.99649 64.23702,60.29833c0,33.30185 -28.7599,60.29833 -64.23702,60.29833c-35.47712,0 -64.23702,-26.99649 -64.23702,-60.29833z" fill="#959541" stroke="#000000" stroke-width="2" stroke-linecap="butt"/><path d="M257.6291,143.47181c0,-0.72799 5.20666,55.91939 63.36046,56.93429c55.56352,0.9697 63.51358,-57.95314 63.51358,-56.93429c0,32.80479 -28.40173,59.39833 -63.43702,59.39833c-35.03529,0 -63.43702,-26.59354 -63.43702,-59.39833z" fill="#7d7d37" stroke="#000000" stroke-width="0" stroke-linecap="butt"/><path d="M271.04529,152.0937c0,-12.968 10.51265,-23.48065 23.48065,-23.48065c12.968,0 23.48065,10.51265 23.48065,23.48065c0,12.968 -10.51265,23.48065 -23.48065,23.48065c-12.968,0 -23.48065,-10.51265 -23.48065,-23.48065z" fill="#ffffff" stroke="#000000" stroke-width="2" stroke-linecap="butt"/><path d="M306.80608,186.17333h25.10959" fill="none" stroke="#000000" stroke-width="2" stroke-linecap="round"/><path d="M344.07221,176.75237c-12.968,0 -23.48065,-10.51265 -23.48065,-23.48065c0,-12.968 10.51265,-23.48065 23.48065,-23.48065c12.968,0 23.48065,10.51265 23.48065,23.48065c0,12.968 -10.51265,23.48065 -23.48065,23.48065z" data-paper-data="{&quot;index&quot;:null}" fill="#ffffff" stroke="#000000" stroke-width="2" stroke-linecap="butt"/><path d="M343.39144,175.85922c-11.73052,0 -21.23998,-9.50947 -21.23998,-21.23999c0,-11.73053 9.50948,-21.23999 21.23998,-21.23999c11.73052,0 21.23997,9.50947 21.23997,21.23999c0,11.73053 -9.50947,21.23999 -21.23997,21.23999z" data-paper-data="{&quot;index&quot;:null}" fill="#000000" stroke="none" stroke-width="0" stroke-linecap="butt"/><path d="M283.09395,115.03897c0,0 6.70895,-5.16922 11.79721,-6.36355c5.08827,-1.19433 12.33413,0.69937 12.33413,0.69937c0,0 -8.03812,-0.06028 -11.96762,0.86207c-4.10648,0.96389 -12.16372,4.80211 -12.16372,4.80211z" fill="#000000" stroke="none" stroke-width="0" stroke-linecap="butt"/><path d="M347.02844,110.23687c-3.9295,-0.92235 -11.96762,-0.86207 -11.96762,-0.86207c0,0 7.24586,-1.8937 12.33413,-0.69937c5.08826,1.19433 11.79721,6.36355 11.79721,6.36355c0,0 -8.05724,-3.83822 -12.16372,-4.80211z" data-paper-data="{&quot;index&quot;:null}" fill="#000000" stroke="none" stroke-width="0" stroke-linecap="butt"/><path d="M308.98791,88.30956c-0.59931,-5.34355 1.02688,-38.3959 1.02688,-38.3959c0,0 8.90776,31.87092 9.50707,37.21445" fill="#804400" stroke="#000000" stroke-width="2" stroke-linecap="butt"/><g stroke="#000000"><path d="M399.45208,17.92274l-16.46152,105.96337c0,0 -24.46411,2.04691 -55.37477,-7.89056c-30.07169,-9.66777 -44.79949,-20.32687 -44.79949,-20.32687l42.22062,-98.70745c0,0 15.63065,-3.57604 40.25325,3.85166c23.89617,7.20857 34.16192,17.10987 34.16192,17.10987z" fill="#333333" stroke-width="2" stroke-linecap="butt"/><path d="M399.45208,17.92274l-16.46152,105.96337c0,0 -24.46411,2.04691 -55.37477,-7.89056c-30.07169,-9.66777 -44.79949,-20.32687 -44.79949,-20.32687l42.22062,-98.70745c0,0 23.71417,10.86457 35.98959,14.32237c12.52463,3.52797 38.42558,6.63916 38.42558,6.63916z" fill="#7d7d37" stroke-width="2" stroke-linecap="butt"/><path d="M382.35307,123.12827c0,0 17.16768,21.62369 -15.22245,27.30262c-37.1091,6.50631 -84.67635,-54.67016 -84.67635,-54.67016" fill="none" stroke-width="2" stroke-linecap="round"/><path d="M398.30149,18.76793l-15.95846,104.3774c0,0 -26.8804,0.78642 -56.07738,-8.60013c-28.40454,-9.13179 -42.21046,-19.37827 -42.21046,-19.37827l5.55119,-12.97811c0,0 19.6701,30.29229 56.26086,22.6145c34.08224,-7.15143 52.43426,-86.03538 52.43426,-86.03538z" fill="#6c6c30" stroke-width="0" stroke-linecap="butt"/></g><g stroke-linecap="butt"><path d="M301.9514,86.71373l58.48766,-70.0643l15.19727,89.67535z" fill="#000000" stroke="#ffff70" stroke-width="1"/><path d="M361.76098,57.83934c-1.85062,3.22756 -7.19993,4.36827 -10.50839,6.78135c-3.28933,2.39911 -4.56371,7.77199 -5.76188,7.36714c-0.60718,-0.20516 -3.10543,-6.89275 0.3188,-11.5163c2.782,-3.75637 9.32012,-4.68749 9.88614,-7.41004c0.21558,-1.03692 0.52874,-2.37282 -1.63205,-4.21281c-1.47838,-1.28684 -3.25409,-1.11145 -4.33306,-0.935c-2.80224,0.45827 -5.07838,3.80134 -5.9449,5.92947c-0.77308,1.89865 -6.00511,-0.93759 -5.5716,-2.56643c2.17124,-8.15807 8.28834,-12.57711 15.61711,-10.62657c7.32876,1.95053 11.68088,10.64717 7.92982,17.18919z" fill="#ffff70" stroke="none" stroke-width="0"/><path d="M349.84272,83.12464c-0.96387,3.62157 -4.92834,5.71026 -8.85489,4.66522c-3.92655,-1.04504 -6.32828,-4.82808 -5.36441,-8.44965c0.96387,-3.62158 4.92834,-5.71028 8.8549,-4.66523c3.92655,1.04504 6.32828,4.82808 5.3644,8.44966z" fill="#ffff70" stroke="none" stroke-width="0"/></g><path d="M295.3798,175.55805c-11.73052,0 -21.23998,-9.50947 -21.23998,-21.23999c0,-11.73053 9.50948,-21.23998 21.23998,-21.23998c11.73052,0 21.23997,9.50946 21.23997,21.23998c0,11.73053 -9.50947,21.23999 -21.23997,21.23999z" data-paper-data="{&quot;index&quot;:null}" fill="#000000" stroke="none" stroke-width="0" stroke-linecap="butt"/></g></g></svg>