<svg version="1.1" xmlns="http://www.w3.org/2000/svg" xmlns:xlink="http://www.w3.org/1999/xlink" width="130.53658" height="430.69104" viewBox="0,0,130.53658,430.69104"><g transform="translate(-256.90195,68.41015)"><g data-paper-data="{&quot;isPaintingLayer&quot;:true}" fill-rule="nonzero" stroke-linejoin="miter" stroke-miterlimit="10" stroke-dasharray="" stroke-dashoffset="0" style="mix-blend-mode: normal"><path d="M341.6026,40.7688l12.40838,124.58801l-65.61184,0.42112l13.38024,-117.18262l41.31791,-10.86447z" fill="#b5b54a" stroke="#b5b54a" stroke-width="2.5" stroke-linecap="round"/><path d="M370.65472,38.25826l-5.54649,0.24464l-96.32954,3.74358c0,0 -6.55242,-10.60636 -9.97216,-23.42038c-2.2748,-8.52381 -2.04949,-18.07362 -1.64572,-25.94923c0.42161,-8.22361 3.71946,-16.25818 12.72715,-26.9577c9.77841,-11.61498 27.90459,-22.90308 42.07349,-24.07742c12.18821,-1.01018 31.01645,3.35908 42.74961,11.94803c12.93262,9.46697 20.42064,23.41547 22.95027,30.7693c8.64561,25.13349 -7.00661,53.69918 -7.00661,53.69918z" fill="#fafab0" stroke="none" stroke-width="0" stroke-linecap="round"/><path d="M345.19723,236.36581l11.60849,124.66508h-65.61319l14.13207,-117.09433l41.38678,-10.59906z" fill="#e5e61c" stroke="#e5e61c" stroke-width="2.5" stroke-linecap="round"/><path d="M310.99762,132.1094l0.15217,-47.59703c0,0 10.25453,-1.05314 14.7759,-0.04596c4.78289,1.06544 7.91376,5.621 7.91376,5.621l0.97255,8.91801c0,0 -3.76927,10.94469 -9.25635,10.60715c-4.20403,-0.25861 -13.79254,-0.84847 -13.79254,-0.84847" fill="none" stroke="#29291b" stroke-width="2.5" stroke-linecap="round"/><path d="M326.65168,327.25573l0.43867,-39.91981" fill="none" stroke="#29291b" stroke-width="2.5" stroke-linecap="round"/><path d="M345.13134,282.62706l-38.18971,10.11864" fill="none" stroke="#29291b" stroke-width="2.5" stroke-linecap="round"/><path d="M371.78305,35.24177c0,0 -6.28692,9.96069 -18.30691,18.04742c-8.73649,5.87767 -21.8148,10.4763 -31.31691,10.94786c-9.33592,0.46331 -21.38284,-1.72423 -30.64648,-6.58665c-13.13706,-6.89555 -22.10371,-17.32816 -22.10371,-17.32816z" fill="#fafab0" stroke="none" stroke-width="0" stroke-linecap="round"/><path d="M305.92988,12.95678c0.31321,7.10116 -2.14187,12.97726 -5.4836,13.12466c-3.34172,0.14739 -6.30462,-5.48975 -6.61783,-12.5909c-0.31321,-7.10116 2.14188,-12.97726 5.48361,-13.12466c3.34172,-0.14739 6.30462,5.48974 6.61782,12.5909z" fill="#29291b" stroke="#29291b" stroke-width="2.5" stroke-linecap="butt"/><path d="M341.96899,12.06439c0.31321,7.10116 -2.14188,12.97726 -5.48361,13.12466c-3.34172,0.14739 -6.30462,-5.48974 -6.61783,-12.5909c-0.31321,-7.10116 2.14188,-12.97726 5.48361,-13.12466c3.34172,-0.14739 6.30462,5.48974 6.61783,12.5909z" fill="#29291b" stroke="#29291b" stroke-width="2.5" stroke-linecap="butt"/><path d="M279.15275,-63.78371l15.76463,4.00247l-0.3666,-8.31171l20.27777,4.65754l-0.31652,-2.33493l15.58912,4.86434l-0.60485,-4.03049l25.94728,17.00607l-43.21966,-1.93736l6.85117,5.24974l-22.49991,-1.78356l9.37409,9.19563l-24.42108,-6.61015l0.1598,3.62307l-14.8243,-11.73121l21.03319,-2.42245z" fill="#fcfc00" stroke="#fcfc00" stroke-width="0.5" stroke-linecap="round"/><path d="M376.86735,220.72449l-5.55092,0.10384l-96.39351,1.2985c0,0 -6.28123,-10.76918 -9.37479,-23.66583c-2.05782,-8.57878 -1.5903,-18.11979 -0.98685,-25.98263c0.63011,-8.21026 4.13071,-16.15859 13.40697,-26.62612c10.06993,-11.36317 28.47666,-22.18778 42.67079,-23.00228c12.20993,-0.70064 30.92124,4.14489 42.43275,13.02874c12.68828,9.79202 19.82002,23.92601 22.16226,31.34164c8.0052,25.34474 -8.36668,53.50415 -8.36668,53.50415z" fill="#fafab0" stroke="none" stroke-width="0" stroke-linecap="round"/><path d="M375.27865,220.41993c0,0 -6.77291,9.63683 -19.17894,17.11784c-9.01708,5.43741 -22.30726,9.38216 -31.82106,9.38216c-9.34741,0 -21.2711,-2.78196 -30.28234,-8.09756c-12.77913,-7.53823 -21.21766,-18.40245 -21.21766,-18.40245z" fill="#fafab0" stroke="none" stroke-width="0" stroke-linecap="round"/><path d="M313.57146,183.30515c0.13296,7.10681 -2.47042,12.91875 -5.81481,12.98131c-3.34439,0.06256 -6.16332,-5.64793 -6.29627,-12.75474c-0.13296,-7.10681 2.47042,-12.91875 5.81481,-12.98131c3.34439,-0.06256 6.16332,5.64793 6.29627,12.75474z" fill="#29291b" stroke="#29291b" stroke-width="2.5" stroke-linecap="butt"/><path d="M350.62129,183.35273c0.13296,7.10681 -2.47042,12.91875 -5.81481,12.98131c-3.34439,0.06256 -6.16332,-5.64793 -6.29627,-12.75474c-0.13296,-7.10681 2.47042,-12.91875 5.81481,-12.98131c3.34439,-0.06256 6.16332,5.64793 6.29627,12.75474z" fill="#29291b" stroke="#29291b" stroke-width="2.5" stroke-linecap="butt"/><path d="M288.48345,116.40664l15.65801,4.40113l-0.15562,-8.31833l20.15308,5.17049l-0.25718,-2.3422l15.46069,5.25827l-0.5024,-4.04454l25.50748,17.65888l-43.15659,-3.03321l6.71576,5.42187l-22.44741,-2.3538l9.13778,9.4305l-24.24553,-7.22759l0.06783,3.62596l-14.52191,-12.10352l21.08787,-1.88807z" fill="#29291b" stroke="none" stroke-width="0" stroke-linecap="round"/></g></g></svg>