<svg version="1.1" xmlns="http://www.w3.org/2000/svg" xmlns:xlink="http://www.w3.org/1999/xlink" width="171.27832" height="230.17896" viewBox="0,0,171.27832,230.17896"><g transform="translate(-235.36864,-69.20413)"><g data-paper-data="{&quot;isPaintingLayer&quot;:true}" fill-rule="nonzero" stroke-linejoin="miter" stroke-miterlimit="10" stroke-dasharray="" stroke-dashoffset="0" style="mix-blend-mode: normal"><path d="M347.2014,97.56798c8.3699,-8.61864 57.87822,-26.72583 57.87822,-26.72583c0,0 -15.43499,48.76619 -23.80489,57.38483c-8.3699,8.61864 -22.78262,8.74218 -32.19171,0.27594c-9.40909,-8.46624 -10.25152,-22.31629 -1.88162,-30.93493z" data-paper-data="{&quot;index&quot;:null}" fill="#9b9b44" stroke="#000000" stroke-width="2" stroke-linecap="butt"/><path d="M292.93259,128.50292c-9.40909,8.46624 -23.82181,8.34271 -32.19171,-0.27594c-8.3699,-8.61864 -23.80489,-57.38483 -23.80489,-57.38483c0,0 49.50832,18.10718 57.87822,26.72583c8.3699,8.61864 7.52747,22.46869 -1.88162,30.93493z" data-paper-data="{&quot;index&quot;:null}" fill="#9b9b44" stroke="#000000" stroke-width="2" stroke-linecap="butt"/><path d="M286.95926,298.38307l14.13506,-115.75113l39.79883,-2.09211l12.5661,117.84326z" fill="#9b9b44" stroke="#000000" stroke-width="2" stroke-linecap="butt"/><path d="M299.90951,198.86577l1.60973,-12.24623l37.34244,-0.13671l2.76735,12.03279c0,0 -7.51543,4.03896 -21.55904,4.34083c-12.48458,0.26835 -20.16049,-3.99067 -20.16049,-3.99067z" fill="#6e6e30" stroke="#000000" stroke-width="0" stroke-linecap="butt"/><path d="M256.98003,133.99345c0,-32.05527 28.7599,-58.0412 64.23702,-58.0412c35.47713,0 64.23702,25.98593 64.23702,58.0412c0,32.05527 -28.75989,58.04121 -64.23702,58.04121c-35.47712,0 -64.23702,-25.98594 -64.23702,-58.04121z" fill="#9b9b44" stroke="#000000" stroke-width="2" stroke-linecap="butt"/><path d="M270.60717,135.46197c0,-12.48259 10.51265,-22.6017 23.48066,-22.6017c12.96801,0 23.48065,10.11912 23.48065,22.6017c0,12.48259 -10.51264,22.60172 -23.48065,22.60172c-12.96801,0 -23.48066,-10.11913 -23.48066,-22.60172z" fill="#000000" stroke="#000000" stroke-width="2" stroke-linecap="butt"/><path d="M270.60717,134.25876c0,-12.48259 10.51265,-22.60171 23.48066,-22.60171c12.96801,0 23.48065,10.11912 23.48065,22.60171c0,12.48259 -10.51264,22.60172 -23.48065,22.60172c-12.96801,0 -23.48066,-10.11913 -23.48066,-22.60172z" fill="#000000" stroke="#000000" stroke-width="2" stroke-linecap="butt"/><path d="M334.84143,171.6804h-25.1096" fill="none" stroke="#000000" stroke-width="2" stroke-linecap="round"/><path d="M348.34627,158.06368c-12.96801,0 -23.48065,-10.11913 -23.48065,-22.60172c0,-12.48259 10.51264,-22.6017 23.48065,-22.6017c12.96801,0 23.48066,10.11912 23.48066,22.6017c0,12.48259 -10.51265,22.60172 -23.48066,22.60172z" data-paper-data="{&quot;index&quot;:null}" fill="#000000" stroke="#000000" stroke-width="2" stroke-linecap="butt"/><path d="M348.34627,156.86048c-12.96801,0 -23.48065,-10.11913 -23.48065,-22.60172c0,-12.48259 10.51264,-22.60171 23.48065,-22.60171c12.96801,0 23.48066,10.11912 23.48066,22.60171c0,12.48259 -10.51265,22.60172 -23.48066,22.60172z" data-paper-data="{&quot;index&quot;:null}" fill="#000000" stroke="#000000" stroke-width="2" stroke-linecap="butt"/><path d="M257.78006,133.89719c0,-0.70074 5.20666,53.82618 63.36046,54.80309c55.56352,0.9334 63.51358,-55.7838 63.51358,-54.80309c0,31.57682 -28.40173,57.1749 -63.43702,57.1749c-35.03529,0 -63.43702,-25.59808 -63.43702,-57.1749z" fill="#6e6e30" stroke="#000000" stroke-width="0" stroke-linecap="butt"/><path d="M283.24487,106.52868c0,0 6.70895,-4.97573 11.79721,-6.12535c5.08827,-1.14962 12.33413,0.6732 12.33413,0.6732c0,0 -8.03812,-0.05802 -11.96762,0.8298c-4.10648,0.92781 -12.16372,4.62235 -12.16372,4.62235z" fill="#000000" stroke="none" stroke-width="0" stroke-linecap="butt"/><path d="M347.17941,101.90633c-3.9295,-0.88782 -11.96762,-0.8298 -11.96762,-0.8298c0,0 7.24586,-1.82282 12.33413,-0.6732c5.08826,1.14962 11.79721,6.12534 11.79721,6.12534c0,0 -8.05724,-3.69454 -12.16372,-4.62235z" data-paper-data="{&quot;index&quot;:null}" fill="#000000" stroke="none" stroke-width="0" stroke-linecap="butt"/><path d="M274.80594,157.96219c0,-0.3987 0.33579,-0.72193 0.75,-0.72193c0.41421,0 0.75,0.32323 0.75,0.72193c0,0.3987 -0.33579,0.72192 -0.75,0.72192c-0.41421,0 -0.75,-0.32322 -0.75,-0.72192z" fill="#000000" stroke="none" stroke-width="0.5" stroke-linecap="butt"/><path d="M285.60594,162.19749c0,-0.3987 0.33579,-0.72193 0.75,-0.72193c0.41421,0 0.75,0.32322 0.75,0.72193c0,0.3987 -0.33579,0.72193 -0.75,0.72193c-0.41421,0 -0.75,-0.32322 -0.75,-0.72193z" fill="#000000" stroke="none" stroke-width="0.5" stroke-linecap="butt"/><path d="M279.40594,166.81781c0,-0.3987 0.33579,-0.72193 0.75,-0.72193c0.41421,0 0.75,0.32322 0.75,0.72193c0,0.3987 -0.33579,0.72193 -0.75,0.72193c-0.41421,0 -0.75,-0.32322 -0.75,-0.72193z" fill="#000000" stroke="none" stroke-width="0.5" stroke-linecap="butt"/><path d="M366.87817,158.68411c-0.41422,0 -0.75,-0.32321 -0.75,-0.72192c0,-0.39871 0.33578,-0.72193 0.75,-0.72193c0.41422,0 0.75,0.32322 0.75,0.72193c0,0.39871 -0.33578,0.72192 -0.75,0.72192z" data-paper-data="{&quot;index&quot;:null}" fill="#000000" stroke="none" stroke-width="0.5" stroke-linecap="butt"/><path d="M356.07817,162.91941c-0.41422,0 -0.75,-0.32321 -0.75,-0.72193c0,-0.39871 0.33578,-0.72193 0.75,-0.72193c0.41422,0 0.75,0.32321 0.75,0.72193c0,0.39871 -0.33578,0.72193 -0.75,0.72193z" data-paper-data="{&quot;index&quot;:null}" fill="#000000" stroke="none" stroke-width="0.5" stroke-linecap="butt"/><path d="M362.27816,167.53974c-0.41422,0 -0.75,-0.32321 -0.75,-0.72193c0,-0.39871 0.33578,-0.72193 0.75,-0.72193c0.41422,0 0.75,0.32321 0.75,0.72193c0,0.39871 -0.33578,0.72193 -0.75,0.72193z" data-paper-data="{&quot;index&quot;:null}" fill="#000000" stroke="none" stroke-width="0.5" stroke-linecap="butt"/></g></g></svg>