<svg version="1.1" xmlns="http://www.w3.org/2000/svg" xmlns:xlink="http://www.w3.org/1999/xlink" width="17.51564" height="14.4093" viewBox="0,0,17.51564,14.4093"><g transform="translate(-231.24218,-172.79535)"><g data-paper-data="{&quot;isPaintingLayer&quot;:true}" fill="#383819" fill-rule="nonzero" stroke="none" stroke-width="0" stroke-linecap="butt" stroke-linejoin="miter" stroke-miterlimit="10" stroke-dasharray="" stroke-dashoffset="0" style="mix-blend-mode: normal"><path d="M232.0581,176.92831c0.6163,0 3.04633,-0.06907 3.04633,-0.06907c0,0 2.96615,-3.16523 3.79451,-3.89507c0.32789,-0.2889 0.68652,-0.23582 0.68652,0.38515c0,2.98295 0,11.77903 0,13.4035c0,0.50465 -0.3603,0.58296 -0.68282,0.25299c-0.78385,-0.802 -3.92975,-4.02323 -3.92975,-4.02323c0,0 -2.24404,0 -2.90832,0c-0.33415,0 -0.82238,-0.41186 -0.82238,-0.83455c0,-1.18707 0,-3.41063 0,-4.18171c0,-0.47564 0.46819,-1.03801 0.81594,-1.03801z" data-paper-data="{&quot;index&quot;:null}"/><path d="M247.2507,183.63789c-1.22685,-1.22685 -4.13888,-4.13889 -4.90887,-4.90887c-0.38598,-0.38598 -0.25649,-1.07921 -0.05767,-1.27805c0.26723,-0.26723 0.87205,-0.44947 1.28357,-0.03794c0.79232,0.79232 3.79799,3.79799 4.99894,4.99894c0.38812,0.38812 0.09982,0.98962 -0.11604,1.20547c-0.20745,0.20745 -0.83739,0.383 -1.19997,0.02045z" data-paper-data="{&quot;index&quot;:null}"/><path d="M242.40005,183.61742c-0.21586,-0.21586 -0.50414,-0.81735 -0.11604,-1.20548c1.20097,-1.20097 4.20664,-4.20664 4.99894,-4.99894c0.41152,-0.41153 1.01633,-0.22931 1.28358,0.03794c0.19885,0.19885 0.32832,0.89209 -0.05765,1.27806c-0.76999,0.76999 -3.68204,3.68205 -4.90887,4.90887c-0.36257,0.36257 -0.99251,0.18697 -1.19997,-0.02045z" data-paper-data="{&quot;index&quot;:null}"/></g></g></svg>