<svg version="1.1" xmlns="http://www.w3.org/2000/svg" xmlns:xlink="http://www.w3.org/1999/xlink" width="176.52525" height="276.9255" viewBox="0,0,176.52525,276.9255"><g transform="translate(-239.47845,-31.57449)"><g data-paper-data="{&quot;isPaintingLayer&quot;:true}" fill-rule="nonzero" stroke-linejoin="miter" stroke-miterlimit="10" stroke-dasharray="" stroke-dashoffset="0" style="mix-blend-mode: normal"><path d="M285.90286,307.49998l10.58516,-87.56737l45.59644,-1.46009l10.3184,89.02747z" fill="#9b9d30" stroke="#000000" stroke-width="2" stroke-linecap="butt"/><path d="M289.57668,250.08801l7.55047,-52.41545l43.29909,-2.17848l9.45725,55.15135l-30.23979,-11.89646z" fill="#747524" stroke="#000000" stroke-width="2" stroke-linecap="butt"/><path d="M414.2996,126.85518c5.64825,44.23788 -23.30324,84.38087 -64.66496,89.66189c-41.36172,5.28103 -79.47084,-26.29974 -85.11909,-70.5376c-5.64825,-44.23787 23.30324,-84.38087 64.66496,-89.66189c41.36172,-5.28103 79.47084,26.29974 85.11909,70.5376z" fill="#747524" stroke="#000000" stroke-width="2" stroke-linecap="butt"/><path d="M406.6911,133.01249c4.82054,37.75512 -21.48006,72.21869 -58.74403,76.97652c-37.26396,4.75783 -71.38021,-21.99176 -76.20075,-59.7469c-4.82054,-37.75512 21.48006,-72.21869 58.74403,-76.97652c37.26396,-4.75783 71.38021,21.99176 76.20075,59.7469z" fill="#000000" stroke="none" stroke-width="0" stroke-linecap="butt"/><path d="M275.78804,151.4192c-4.21771,-33.03368 20.89147,-63.45524 56.0829,-67.94845c35.19144,-4.49321 67.13887,18.64342 71.35658,51.67709c4.21771,33.03368 -20.89147,63.45524 -56.0829,67.94845c-35.19144,4.49321 -67.13887,-18.64342 -71.35658,-51.67709z" fill="#ffff70" stroke="#000000" stroke-width="2" stroke-linecap="butt"/><path d="M276.51209,151.38101c-0.0922,-0.72213 12.24698,54.80966 70.06102,48.45116c55.2389,-6.07528 55.66231,-65.53052 55.79135,-64.51987c4.15476,32.54062 -20.65017,62.51712 -55.40333,66.95437c-34.75316,4.43725 -66.29428,-18.34503 -70.44904,-50.88566z" fill="#6c6d22" stroke="#000000" stroke-width="0" stroke-linecap="butt"/><path d="M277.44003,166.27452c0,0 -18.92556,-79.22523 56.14374,-87.31376c77.09842,-8.30717 70.92583,73.86196 70.92583,73.86196c0,0 -22.82869,15.70852 -60.87134,20.90627c-34.07953,4.65627 -66.19823,-7.45447 -66.19823,-7.45447z" fill-opacity="0.20144" fill="#000000" stroke="none" stroke-width="0" stroke-linecap="butt"/><path d="M289.28352,150.12905c-1.64241,-12.86357 7.45415,-24.62301 20.31772,-26.26541c12.86357,-1.64241 24.62301,7.45415 26.26541,20.31772c1.64241,12.86357 -7.45415,24.62301 -20.31772,26.26541c-12.86357,1.64241 -24.62301,-7.45415 -26.26541,-20.31772z" fill="#ffffff" stroke="#000000" stroke-width="2" stroke-linecap="butt"/><path d="M302.7681,148.30972c-1.15608,-9.05457 5.24691,-17.33193 14.30147,-18.48801c9.05457,-1.15608 17.33193,5.24692 18.48801,14.30148c1.15608,9.05457 -5.24692,17.33193 -14.30148,18.48801c-9.05457,1.15608 -17.33192,-5.24692 -18.488,-14.30148z" fill="#000000" stroke="none" stroke-width="0" stroke-linecap="butt"/><path d="M347.54243,185.91866c0,0 7.35335,-2.85397 11.43213,-4.14725c3.89075,-1.23366 12.50309,-3.442 12.50309,-3.442" fill="none" stroke="#000000" stroke-width="2" stroke-linecap="round"/><path d="M369.37045,163.5749c-12.86357,1.64241 -24.62301,-7.45415 -26.26541,-20.31772c-1.64241,-12.86357 7.45415,-24.62301 20.31772,-26.26541c12.86357,-1.64241 24.62301,7.45415 26.26541,20.31772c1.64241,12.86357 -7.45415,24.62301 -20.31772,26.26541z" data-paper-data="{&quot;index&quot;:null}" fill="#ffffff" stroke="#000000" stroke-width="2" stroke-linecap="butt"/><path d="M374.85429,158.37223c-9.05456,1.15608 -17.33192,-5.24692 -18.488,-14.30148c-1.15608,-9.05457 5.24692,-17.33193 14.30147,-18.48801c9.05456,-1.15608 17.33192,5.24692 18.488,14.30148c1.15608,9.05457 -5.24692,17.33193 -14.30147,18.48801z" data-paper-data="{&quot;index&quot;:null}" fill="#000000" stroke="none" stroke-width="0" stroke-linecap="butt"/><path d="M289.28352,150.12905c-1.64241,-12.86357 7.45415,-24.62301 20.31772,-26.26541c12.86357,-1.64241 24.62301,7.45415 26.26541,20.31772c0,0 -46.42717,7.16933 -46.58315,5.94769z" fill="#ffff70" stroke="#000000" stroke-width="2" stroke-linecap="butt"/><path d="M343.10505,143.25716c-1.64241,-12.86357 7.45415,-24.62301 20.31772,-26.26541c12.86357,-1.64241 24.62301,7.45415 26.26541,20.31772c0.15373,1.20403 -46.58315,5.94769 -46.58315,5.94769z" data-paper-data="{&quot;index&quot;:null}" fill="#ffff70" stroke="#000000" stroke-width="2" stroke-linecap="butt"/><path d="M297.43387,117.57461c0,0 7.06334,-4.67334 12.22431,-5.49865c5.16098,-0.8253 12.25189,1.5846 12.25189,1.5846c0,0 -8.01297,-0.6382 -11.99863,-0.00084c-4.16516,0.66607 -12.47758,3.91489 -12.47758,3.91489z" fill="#000000" stroke="none" stroke-width="0" stroke-linecap="butt"/><path d="M360.65509,107.1985c-3.99765,0.55723 -11.47283,3.51301 -11.47283,3.51301c0,0 6.0749,-4.37998 11.25141,-5.10154c5.1765,-0.72156 13.29842,1.67953 13.29842,1.67953c0,0 -8.89931,-0.67334 -13.077,-0.09101z" data-paper-data="{&quot;index&quot;:null}" fill="#000000" stroke="none" stroke-width="0" stroke-linecap="butt"/><g stroke="#000000" stroke-width="2" stroke-linecap="butt"><path d="M262.1352,129.95533l-21.4902,-43.26188c0,0 16.17594,-22.0448 25.3157,-30.58466c10.02619,-9.36814 32.42871,-23.36967 32.42871,-23.36967l41.32687,23.57764c0,0 -21.87774,26.92812 -34.93808,39.32475c-12.79458,12.14437 -42.64301,34.31383 -42.64301,34.31383z" fill="#ffffff"/><path d="M262.36556,129.65559l-3.12986,-6.29483c0,0 27.70092,-20.45227 40.37985,-32.29531c12.34206,-11.5284 34.71032,-37.84445 34.71032,-37.84445l5.50012,3.01603c0,0 -22.18933,29.22149 -35.25621,41.3328c-12.82443,11.88659 -42.20421,32.08578 -42.20421,32.08578z" fill="#9b9d30"/><path d="M281.61029,74.53252c0,0 4.60734,-11.0847 8.00712,-17.04224c3.7778,-6.61995 13.64539,-20.90002 13.64539,-20.90002l5.98317,3.59583c0,0 -11.22259,16.15931 -14.69904,22.55068c-2.6081,4.79493 -4.31354,12.40374 -4.31354,12.40374z" fill="#9b9d30"/><path d="M304.2204,84.9371c0,0 -5.17843,-6.21718 -18.9644,-3.78313c-18.66969,3.29634 -37.95775,16.48808 -37.95775,16.48808l-2.83889,-6.56451c0,0 17.30126,-13.66671 39.06353,-17.19068c16.44179,-2.66243 26.51681,5.65651 26.51681,5.65651z" fill="#9b9d30"/></g></g></g></svg>