<svg version="1.1" xmlns="http://www.w3.org/2000/svg" xmlns:xlink="http://www.w3.org/1999/xlink" width="201.93595" height="268.52923" viewBox="0,0,201.93595,268.52923"><g transform="translate(-218.7809,-40.19986)"><g data-paper-data="{&quot;isPaintingLayer&quot;:true}" fill-rule="nonzero" stroke-linejoin="miter" stroke-miterlimit="10" stroke-dasharray="" stroke-dashoffset="0" style="mix-blend-mode: normal"><path d="M333.07638,186.76056c0,0 14.43235,29.41986 19.80429,23.21429c6.83899,-7.90029 2.96025,-45.13877 19.55144,-66.53556c16.59119,-21.39679 16.41721,8.76582 20.78267,14.51879c3.50622,4.62063 1.75197,17.11668 1.75197,17.11668c0,0 -5.10259,17.01485 -12.32203,33.03778c-8.61216,19.11397 -13.19608,32.95338 -32.25919,32.62244c-13.92473,-0.24174 -21.20678,-19.28286 -21.20678,-19.28286z" fill="#000000" stroke="#ffffff" stroke-width="1.5" stroke-linecap="butt"/><g stroke="#ffffff" stroke-width="1.5" stroke-linecap="round"><path d="M378.68821,166.78003l13.99832,22.91172l-9.24996,9.5874l-23.75577,-28.85244l12.81372,-9.07791" fill="#000000"/><path d="M410.89035,161.98921l8.99322,11.28636l-8.48816,27.57628l-10.22338,-13.28053" fill="#000000"/><path d="M371.87395,145.19842l17.30124,-51.77255l16.12096,10.18402l-9.38043,40.17683l19.38799,8.52973l-15.91401,39.24276l-14.97572,-7.59589l9.59095,-24.69117" fill="#000000"/><path d="M378.09713,139.11795l12.43448,-33.98225l2.54236,30.97154" fill="none"/><path d="M391.88715,125.33081l-7.97601,-1.44333" fill="none"/></g><path d="M279.17479,307.72909l15.14285,-131.8421l37.78325,-0.15789l13.57389,132z" fill="#000000" stroke="#ffffff" stroke-width="2" stroke-linecap="butt"/><path d="M333.24522,189.17111l-11.93302,30.77462l-9.4208,88.55554l-8.16469,-89.18359l-12.56107,-29.51852z" fill="#ffffff" stroke="#ffffff" stroke-width="1.5" stroke-linecap="round"/><path d="M317.69756,237.36132l-5.44177,9.94271l-6.75138,-13.47381l5.6862,-31.29142l-2.28077,-8.73814l9.15427,-0.32669l-3.02631,9.71367z" fill="#000000" stroke="none" stroke-width="0" stroke-linecap="butt"/><path d="M271.05327,133.35826c-4.13831,-6.03313 -8.26699,-15.0348 -8.26699,-15.0348c0,0 2.93537,-1.73708 10.49097,-9.66609c5.80468,-6.09159 13.07564,-18.47233 13.07564,-18.47233c0,0 -0.37308,3.68196 -0.72863,5.56554c-0.378,2.00245 -1.18445,5.94652 -1.18445,5.94652c0,0 5.96128,-5.35521 10.35937,-11.41922c5.66239,-7.33866 6.16096,-10.53015 8.93304,-10.44065c3.27174,0.10563 12.45719,19.57849 14.95963,24.55094c2.46261,5.12381 2.54325,9.49702 3.51538,12.42297c0.97213,2.92595 2.70619,5.5229 6.08912,15.00207c2.11118,5.91566 0.84494,9.81104 -1.37039,17.70452c-2.21532,7.89349 -3.23123,12.53569 -6.62876,14.57079c-3.26965,1.95851 -10.28866,0.03714 -17.25692,-2.04687c-7.42006,-2.21915 -11.92055,-2.91993 -15.97268,-8.27506c-3.64938,-4.82285 -5.61578,-8.2003 -8.57948,-12.65563c-2.16609,-3.25628 -5.1748,-4.45791 -7.43482,-7.75271z" fill="#5a5a07" stroke="none" stroke-width="0" stroke-linecap="butt"/><path d="M305.17266,96.2743c0,0 1.47976,-0.48471 4.24233,-1.16068c2.5233,-0.61741 4.72622,-0.70797 4.72622,-0.70797l0.75291,0.91701c0,0 -7.84457,0.90368 -14.33321,5.3991c-5.18816,3.59446 -7.2321,7.40752 -7.2321,7.40752l-2.04392,-3.64285c0,0 1.86044,-3.03714 5.88976,-5.53091c4.17234,-2.58227 7.30723,-3.5236 7.30723,-3.5236z" data-paper-data="{&quot;index&quot;:null}" fill="#5a5a07" stroke="none" stroke-width="0" stroke-linecap="butt"/><path d="M315.55393,139.89863c0.60004,-0.10091 3.3706,-0.32534 6.51575,-0.75511c3.17021,-0.4332 7.39582,-1.61116 7.4625,-1.45621c0.08462,0.19666 -8.93055,5.40196 -11.54045,7.37176c-2.18713,1.65072 -5.44504,3.94815 -5.44504,3.94815c0,0 -6.7365,2.53693 -12.72283,4.50152c-4.79784,1.57456 -9.84162,3.74793 -9.89751,3.67218c-0.07539,-0.10213 2.99815,-2.54565 5.21875,-4.61291c0.74537,-1.002 3.97372,-4.00069 3.97372,-4.00069c0,0 4.1567,-2.71282 6.88287,-3.29348c2.92106,-0.62217 3.67742,0.70511 3.90378,0.60195c0,0 0.15385,-2.10693 1.00322,-3.00573c0.84938,-0.8988 4.19702,-2.89603 4.64526,-2.97142z" fill="#5a5a07" stroke="none" stroke-width="0" stroke-linecap="butt"/><path d="M301.66333,153.14755c4.92464,-1.64979 11.7293,-3.51183 11.7293,-3.51183c0,0 4.24183,-4.23661 6.40571,-5.80345c1.67759,-1.21474 9.36839,-6.20733 9.5927,-5.90634c0.21932,0.29429 -1.39209,15.68575 -12.1198,21.33736c-12.15137,6.4911 -27.36684,-1.71217 -27.41841,-1.87763c-0.05157,-0.16546 6.88586,-2.58833 11.81051,-4.23811z" fill="#5a5a07" stroke="none" stroke-width="0" stroke-linecap="butt"/><path d="M309.68128,145.07856c-0.89595,0.51568 -4.69288,-1.06085 -5.95754,-2.75973c-1.13152,-1.52004 -0.76974,-3.97374 1.37236,-5.20665c2.14212,-1.23293 3.88675,-1.67083 5.58217,1.61986c1.43884,2.79271 1.14511,5.11361 -0.997,6.34654z" fill="#5a5a07" stroke="none" stroke-width="0" stroke-linecap="butt"/><path d="M297.79129,117.19963c0,0 2.0692,3.38939 3.56003,6.17373c2.95213,5.51347 12.91083,24.59953 12.91083,24.59953l-2.57988,1.49486c0,0 -2.77743,-3.21596 -5.71236,-7.67311c-3.97268,-6.03315 -8.51727,-13.89701 -10.45503,-16.63437c-1.83681,-2.59476 -3.62713,-4.50583 -3.62713,-4.50583" fill="#5a5a07" stroke="none" stroke-width="0" stroke-linecap="round"/><path d="M277.57619,141.28415c0,0 -6.02908,-0.58788 -9.81954,-4.70367c-3.9883,-4.33061 -6.1215,-7.70647 -4.56824,-8.89946c1.55325,-1.19301 3.52855,0.7116 7.40319,5.37985c3.87462,4.66826 6.98461,8.22328 6.98461,8.22328z" data-paper-data="{&quot;index&quot;:null}" fill="#5a5a07" stroke="none" stroke-width="0" stroke-linecap="butt"/><path d="M275.43141,137.96388c0,0 -4.54706,-0.75589 -7.95802,-5.17003c-1.90275,-2.46234 0.73181,-3.05207 0.73181,-3.05207" fill="#5a5a07" stroke="none" stroke-width="0" stroke-linecap="round"/><path d="M274.72289,130.69205c-2.37879,-4.27515 -0.26431,-10.15841 4.43132,-12.77119c4.69563,-2.61276 9.94313,-0.82108 12.32193,3.45407c2.37879,4.27515 0.81315,9.67902 -3.88247,12.29179c-4.69563,2.61276 -10.49198,1.30047 -12.87077,-2.97469z" fill="#5a5a07" stroke="none" stroke-width="0" stroke-linecap="butt"/><path d="M278.62781,128.58059c-1.34135,-2.41067 -0.4745,-5.45225 1.93615,-6.79359c2.41067,-1.34135 5.45225,-0.4745 6.79359,1.93615c1.34135,2.41067 0.47451,5.45224 -1.93615,6.79359c-2.41067,1.34135 -5.45225,0.4745 -6.79359,-1.93615z" fill="#5a5a07" stroke="none" stroke-width="0" stroke-linecap="butt"/><path d="M298.17278,117.19595c-2.26201,-4.33808 -0.55987,-9.89874 4.04907,-12.55149c4.60893,-2.65274 10.01661,-1.18913 12.45713,3.05108c2.44052,4.24022 1.15715,9.80023 -3.84629,12.76178c-4.75918,2.81697 -10.29757,1.26909 -12.65991,-3.26138z" fill="#5a5a07" stroke="none" stroke-width="0" stroke-linecap="butt"/><path d="M302.20464,114.97405c-1.40595,-2.44274 -0.56548,-5.56271 1.87726,-6.96866c2.44274,-1.40595 5.56271,-0.56548 6.96866,1.87726c1.40595,2.44274 0.56548,5.56271 -1.87726,6.96866c-2.44274,1.40595 -5.56271,0.56548 -6.96866,-1.87726z" fill="#5a5a07" stroke="none" stroke-width="0" stroke-linecap="butt"/><path d="M274.39811,130.26494c0,0 -4.442,-7.84506 4.78571,-12.93674c8.29121,-4.58077 12.97443,3.38651 12.97443,3.38651z" fill="#5a5a07" stroke="none" stroke-width="0" stroke-linecap="butt"/><path d="M297.64493,117.03591c0,0 -4.93207,-8.07423 5.16433,-13.47576c8.58565,-4.55685 13.08908,3.60328 13.08908,3.60328z" fill="#5a5a07" stroke="none" stroke-width="0" stroke-linecap="butt"/><path d="M272.46321,119.82706c0,0 2.01305,-3.25742 5.82343,-5.9845c4.22237,-3.02196 6.69962,-3.93254 6.69962,-3.93254l2.31967,3.43873c0,0 -3.66378,1.3234 -7.20908,3.54801c-4.7414,2.97514 -5.04427,4.55664 -8.50161,7.0753c-2.96243,2.15813 -5.75989,3.49846 -5.75989,3.49846l-0.63679,-1.05446c0,0 3.15282,-1.72929 4.50193,-2.67003c1.1135,-0.77645 2.97777,-2.79627 2.97777,-2.79627z" fill="#5a5a07" stroke="none" stroke-width="0" stroke-linecap="butt"/><path d="M319.28646,105.03378c-2.09027,-5.69527 -2.74491,-8.36 -0.93311,-9.10381c1.81179,-0.74381 3.65929,2.79647 5.40049,8.42044c1.65484,5.34499 -0.86536,10.85353 -0.86536,10.85353c0,0 -1.51176,-4.47491 -3.60202,-10.17018z" data-paper-data="{&quot;index&quot;:null}" fill="#5a5a07" stroke="none" stroke-width="0" stroke-linecap="butt"/><path d="M317.61525,101.30306c0,0 1.83331,-1.98184 3.00667,0.90033c2.10344,5.1667 0.47297,9.47817 0.47297,9.47817" data-paper-data="{&quot;index&quot;:null}" fill="#5a5a07" stroke="none" stroke-width="0" stroke-linecap="round"/><path d="M249.99246,170.83829c-16.61228,-28.86253 -5.15313,-66.6068 25.59469,-84.30418c30.74782,-17.69739 69.14078,-8.64625 85.75305,20.21627c16.61228,28.86253 5.15313,66.6068 -25.59469,84.30418c-30.74782,17.69739 -69.14078,8.64625 -85.75305,-20.21627z" fill="#ffffff" stroke="#000000" stroke-width="2" stroke-linecap="butt"/><path d="M241.56121,148.07971c-0.09407,-0.72189 12.38898,54.77774 70.18635,48.26943c55.22297,-6.21842 55.49229,-65.67455 55.62395,-64.66424c4.23907,32.52975 -20.48808,62.57043 -55.22963,67.09773c-34.74155,4.5273 -66.3416,-18.17317 -70.58067,-50.70291z" fill="#dedeaf" stroke="#000000" stroke-width="0" stroke-linecap="butt"/><g stroke="#000000" stroke-width="2.5" stroke-linecap="butt"><path d="M348.18585,65.28446c5.73255,8.41631 -17.57163,34.27746 -52.05136,57.76246c-34.47974,23.485 -67.07825,35.70059 -72.8108,27.2843c-5.73255,-8.41631 17.57163,-34.27746 52.05136,-57.76246c34.47974,-23.485 67.07825,-35.70059 72.8108,-27.2843z" fill="#e2e2e2"/><path d="M246.73154,133.98317l-26.61511,-39.07521c0,0 3.1658,-14.57902 33.73542,-36.25738c30.89916,-21.91213 43.93472,-16.64568 43.93472,-16.64568l26.61511,39.07521c0,0 -5.23318,10.02745 -35.46722,29.60556c-27.01917,17.49632 -42.2029,23.2975 -42.2029,23.2975z" fill="#ffffff"/></g><path d="M284.6205,156.28261c-1.3775,-2.39331 -0.55403,-5.45017 1.83927,-6.82767c2.39331,-1.3775 5.45017,-0.55403 6.82767,1.83927c1.3775,2.39331 0.55403,5.45017 -1.83927,6.82767c-2.39331,1.3775 -5.45017,0.55403 -6.82767,-1.83927z" fill="#000000" stroke="none" stroke-width="0.5" stroke-linecap="butt"/><path d="M321.63497,134.97836c-1.3775,-2.39331 -0.55403,-5.45017 1.83927,-6.82767c2.39331,-1.3775 5.45017,-0.55403 6.82767,1.83927c1.3775,2.39331 0.55403,5.45017 -1.83927,6.82767c-2.39331,1.3775 -5.45017,0.55403 -6.82767,-1.83927z" fill="#000000" stroke="none" stroke-width="0.5" stroke-linecap="butt"/><path d="M339.59877,168.41557c0,0 -18.10765,14.67468 -32.98218,16.26493c-14.87453,1.59026 -36.26862,-8.86124 -36.26862,-8.86124" fill="none" stroke="#000000" stroke-width="4" stroke-linecap="round"/></g></g></svg>