<svg version="1.1" xmlns="http://www.w3.org/2000/svg" xmlns:xlink="http://www.w3.org/1999/xlink" width="178.30605" height="321.23916" viewBox="0,0,178.30605,321.23916"><defs><linearGradient x1="367.12799" y1="58.15977" x2="379.1545" y2="65.25107" gradientUnits="userSpaceOnUse" id="color-1"><stop offset="0" stop-color="#131308"/><stop offset="1" stop-color="#131308" stop-opacity="0"/></linearGradient><linearGradient x1="353.14711" y1="79.86756" x2="365.82208" y2="87.34122" gradientUnits="userSpaceOnUse" id="color-2"><stop offset="0" stop-color="#151509"/><stop offset="1" stop-color="#151509" stop-opacity="0"/></linearGradient></defs><g transform="translate(-260.67035,5.29046)"><g data-paper-data="{&quot;isPaintingLayer&quot;:true}" fill-rule="nonzero" stroke-linejoin="miter" stroke-miterlimit="10" stroke-dasharray="" stroke-dashoffset="0" style="mix-blend-mode: normal"><path d="M292.81615,314.9487l15.14285,-131.8421l37.78325,-0.15789l13.57389,132z" fill="#959541" stroke="#000000" stroke-width="2" stroke-linecap="butt"/><path d="M305.76638,211.56133l3.12142,-26.32765l35.83075,-0.14203l2.76735,26.1059c0,0 -7.51543,4.19603 -21.55904,4.50964c-12.48458,0.27879 -20.16049,-4.14586 -20.16049,-4.14586z" fill="#7d7d37" stroke="#000000" stroke-width="0" stroke-linecap="butt"/><path d="M261.94472,130.86234c3.24937,-33.14294 34.5062,-57.20439 69.81403,-53.74276c35.30783,3.46164 61.29637,33.1355 58.04698,66.27844c-3.24937,33.14294 -34.5062,57.20439 -69.81403,53.74278c-35.30783,-3.46164 -61.29637,-33.13551 -58.04697,-66.27845z" fill="#959541" stroke="#000000" stroke-width="2" stroke-linecap="butt"/><path d="M262.65908,130.98649c0.07103,-0.72451 -0.27444,56.16059 57.50284,62.84494c55.20378,6.38661 68.8652,-51.47936 68.7658,-50.46536c-3.20088,32.64826 -34.06192,56.34365 -68.93002,52.92512c-34.86811,-3.41851 -60.5395,-32.65643 -57.33861,-65.30469z" fill="#7d7d37" stroke="#000000" stroke-width="0" stroke-linecap="butt"/><path d="M275.38839,132.61192c1.26533,-12.90612 12.75358,-22.34285 25.6597,-21.07752c12.90612,1.26533 22.34284,12.75358 21.07751,25.6597c-1.26533,12.90611 -12.75358,22.34284 -25.65969,21.07751c-12.90612,-1.26533 -22.34285,-12.75358 -21.07752,-25.65969z" fill="#ffffff" stroke="#000000" stroke-width="2" stroke-linecap="butt"/><path d="M280.14287,138.8929c0.89066,-9.08452 8.97714,-15.72697 18.06165,-14.83629c9.08452,0.89065 15.72696,8.97713 14.83628,18.06165c-0.89066,9.08452 -8.97715,15.72697 -18.06165,14.83629c-9.08452,-0.89065 -15.72695,-8.97713 -14.83627,-18.06166z" fill="#000000" stroke="none" stroke-width="0" stroke-linecap="butt"/><path d="M310.64622,173.58923l25.07323,-1.35093" fill="none" stroke="#000000" stroke-width="2" stroke-linecap="round"/><path d="M350.46542,163.56581c-12.90612,-1.26533 -22.34285,-12.75358 -21.07752,-25.6597c1.26533,-12.90611 12.75358,-22.34284 25.6597,-21.07751c12.90612,1.26533 22.34285,12.75358 21.07752,25.65969c-1.26533,12.90611 -12.75358,22.34285 -25.6597,21.07752z" data-paper-data="{&quot;index&quot;:null}" fill="#ffffff" stroke="#000000" stroke-width="2" stroke-linecap="butt"/><path d="M357.2705,153.87969c-9.08452,-0.89065 -15.72695,-8.97714 -14.83627,-18.06165c0.89066,-9.08452 8.97714,-15.72696 18.06165,-14.83629c9.08452,0.89065 15.72695,8.97713 14.83628,18.06165c-0.89066,9.08452 -8.97715,15.72697 -18.06165,14.83629z" data-paper-data="{&quot;index&quot;:null}" fill="#000000" stroke="none" stroke-width="0" stroke-linecap="butt"/><path d="M281.88053,105.72868c0,0 7.18132,-4.48994 12.36183,-5.18208c5.18053,-0.69215 12.20703,1.89953 12.20703,1.89953c0,0 -7.99387,-0.84431 -11.99462,-0.30977c-4.18094,0.55861 -12.57423,3.59234 -12.57423,3.59234z" fill="#000000" stroke="none" stroke-width="0" stroke-linecap="butt"/><path d="M354.87468,106.63315c-3.82075,-1.30136 -11.8264,-2.02567 -11.8264,-2.02567c0,0 7.39606,-1.17767 12.34352,0.50744c4.94744,1.68511 11.12001,7.48429 11.12001,7.48429c0,0 -7.64429,-4.60609 -11.63712,-5.96607z" data-paper-data="{&quot;index&quot;:null}" fill="#000000" stroke="none" stroke-width="0" stroke-linecap="butt"/><path d="M338.33997,84.06985c1.61841,-5.12772 16.50434,-34.68294 16.50434,-34.68294c0,0 -4.77747,32.74567 -6.39587,37.87338" fill="#804400" stroke="#000000" stroke-width="2" stroke-linecap="butt"/><g stroke="#000000"><path d="M434.30785,35.27756l-42.79053,98.32694c0,0 -24.18368,-4.22285 -51.56462,-21.67295c-26.63778,-16.97651 -38.18169,-31.02153 -38.18169,-31.02153l65.86817,-84.77694c0,0 16.02658,0.50396 37.96128,13.93199c21.28757,13.03186 28.7074,25.21249 28.7074,25.21249z" fill="#333333" stroke-width="2" stroke-linecap="butt"/><path d="M434.30785,35.27756l-42.79053,98.32694c0,0 -24.18368,-4.22285 -51.56462,-21.67295c-26.63778,-16.97651 -38.18169,-31.02153 -38.18169,-31.02153l65.86817,-84.77694c0,0 20.18454,16.52227 31.18213,22.9795c11.22083,6.58829 35.48657,16.16498 35.48657,16.16498z" fill="#7d7d37" stroke-width="2" stroke-linecap="butt"/><path d="M391.0928,132.70977c0,0 11.12402,25.26993 -21.64757,22.55078c-37.54614,-3.11528 -68.04775,-74.35328 -68.04775,-74.35328" fill="none" stroke-width="2" stroke-linecap="round"/><path d="M432.98055,35.8034l-41.90179,96.92035c0,0 -26.20139,-6.05479 -52.06436,-22.5375c-25.16099,-16.03534 -35.91779,-29.44746 -35.91779,-29.44746l8.66038,-11.14653c0,0 11.34675,34.28974 48.68851,36.14041c34.78176,1.72379 72.53505,-69.92929 72.53505,-69.92929z" fill="#6c6c30" stroke-width="0" stroke-linecap="butt"/></g><g><g><path d="M318.82905,77.95782l75.19435,-51.72642l-9.5122,90.4552z" fill="#b4b44f" stroke="none" stroke-width="0" stroke-linecap="butt"/><path d="M387.11373,91.38596l-17.06928,-48.73712l7.76353,-5.03919l10.86306,39.6353z" fill="#cdcd51" stroke="none" stroke-width="0" stroke-linecap="butt"/><path d="M367.59392,106.34469l-16.11043,-50.62383l11.87821,-8.15213l16.77178,66.33759z" fill="#cdcd51" stroke="none" stroke-width="0" stroke-linecap="butt"/><path d="M381.07578,110.94607l-55.99134,-33.01469l65.09808,-45.43215z" fill="none" stroke="#717132" stroke-width="1.5" stroke-linecap="round"/></g><path d="M379.35556,64.88908c-4.28788,7.27204 -12.50909,12.05525 -14.69289,10.57417c-1.41748,-0.96135 -1.79978,-10.16687 2.4881,-17.43891c4.28788,-7.27203 7.18667,-14.5026 13.98297,-10.49524c6.7963,4.00736 2.5097,10.08794 -1.77818,17.35998z" fill="#6d6d30" stroke="none" stroke-width="0" stroke-linecap="butt"/><path d="M365.91779,87.39765c-1.9035,3.22824 -6.28397,4.17221 -9.78407,2.10841c-3.5001,-2.06379 -4.7944,-6.35384 -2.8909,-9.58208c1.9035,-3.22825 6.28397,-4.17222 9.78408,-2.10842c3.5001,2.06379 4.7944,6.35384 2.8909,9.58209z" fill="#6d6d30" stroke="none" stroke-width="0" stroke-linecap="butt"/><path d="M379.32555,64.94016c-4.24381,7.19729 -12.39007,11.92571 -14.55683,10.45667c-1.40642,-0.95354 -1.79506,-10.0705 2.44874,-17.26779c4.24381,-7.19729 7.1104,-14.35496 13.85303,-10.37924c6.74263,3.97572 2.49886,9.99308 -1.74494,17.19037z" fill="url(#color-1)" stroke="none" stroke-width="0" stroke-linecap="butt"/><path d="M365.82208,87.34122c-1.9035,3.22824 -6.28397,4.17221 -9.78407,2.10841c-3.5001,-2.06379 -4.7944,-6.35384 -2.8909,-9.58208c1.9035,-3.22825 6.28397,-4.17222 9.78408,-2.10842c3.5001,2.06379 4.7944,6.35384 2.8909,9.58209z" fill="url(#color-2)" stroke="none" stroke-width="0" stroke-linecap="butt"/></g></g></g></svg>