<svg version="1.1" xmlns="http://www.w3.org/2000/svg" xmlns:xlink="http://www.w3.org/1999/xlink" width="132.33333" height="269.35384" viewBox="0,0,132.33333,269.35384"><defs><linearGradient x1="369.14123" y1="65.10103" x2="350.95022" y2="95.59986" gradientUnits="userSpaceOnUse" id="color-1"><stop offset="0" stop-color="#c4c456"/><stop offset="1" stop-color="#e3e364"/></linearGradient></defs><g transform="translate(-253.83341,-61.43514)"><g data-paper-data="{&quot;isPaintingLayer&quot;:true}" stroke-miterlimit="10" stroke-dasharray="" stroke-dashoffset="0" style="mix-blend-mode: normal"><path d="M285.52879,327.899c0,0 -2.35803,-21.50303 6.4636,-45.94408c5.29911,-14.68162 22.39213,-32.79045 24.66901,-41.29032c4.00439,-14.94887 2.63364,-43.72457 2.63364,-43.72457l5.79566,1.5525c0,0 1.33212,30.69032 -2.04635,43.30254c-2.58162,9.63749 -19.3199,25.08472 -25.59123,41.99875c-8.28735,22.35132 -6.12867,45.6577 -6.12867,45.6577z" fill="#000000" fill-rule="nonzero" stroke="#000000" stroke-width="2" stroke-linecap="butt" stroke-linejoin="miter"/><path d="M374.00005,328.55632h-11.66667v-130.33333h11.66667z" fill="#84843a" fill-rule="nonzero" stroke="#000000" stroke-width="2" stroke-linecap="butt" stroke-linejoin="miter"/><path d="M279.00005,327.88966h-11.66666v-130.33333h11.66666z" fill="#84843a" fill-rule="nonzero" stroke="#000000" stroke-width="2" stroke-linecap="butt" stroke-linejoin="miter"/><path d="M254.83341,208.723v-19.33333h130.33333v19.33333z" fill="#969642" fill-rule="nonzero" stroke="#000000" stroke-width="2" stroke-linecap="butt" stroke-linejoin="miter"/><path d="M312.90004,186.05481v-32.75h14.2v32.75z" fill="#62622b" fill-rule="nonzero" stroke="#000000" stroke-width="2" stroke-linecap="butt" stroke-linejoin="miter"/><path d="M284.50005,194.60482l5.73764,-11.4h61.26981l5.94255,11.4z" fill="#707031" fill-rule="nonzero" stroke="#000000" stroke-width="2" stroke-linecap="butt" stroke-linejoin="miter"/><path d="M293.29805,94.46712h53.404c8.92534,0 16.1107,7.18538 16.1107,16.1107v45.654c0,8.92532 -7.18535,16.1107 -16.1107,16.1107h-53.404c-8.92532,0 -16.1107,-7.18538 -16.1107,-16.1107v-45.654c0,-8.92532 7.18538,-16.1107 16.1107,-16.1107z" fill="#707031" fill-rule="evenodd" stroke="#000000" stroke-width="2" stroke-linecap="round" stroke-linejoin="round"/><path d="M298.28764,101.74304h43.4249c7.25755,0 13.10025,5.84271 13.10025,13.10025v37.12307c0,7.25753 -5.8427,13.10025 -13.10025,13.10025h-43.4249c-7.25753,0 -13.10025,-5.84271 -13.10025,-13.10025v-37.12307c0,-7.25753 5.84271,-13.10025 13.10025,-13.10025z" fill="#000000" fill-rule="evenodd" stroke="#000000" stroke-width="2" stroke-linecap="round" stroke-linejoin="round"/><path d="M345.59348,92.40484l23.63415,-27.25228l-12.92068,33.64232c0,0 -2.28233,-1.3613 -3.71515,-2.21591c-1.96652,-1.17293 -6.99831,-4.17414 -6.99831,-4.17414z" fill="url(#color-1)" fill-rule="nonzero" stroke="#89893c" stroke-width="1.5" stroke-linecap="butt" stroke-linejoin="miter"/><g fill-rule="nonzero" stroke="#89893c" stroke-width="1.4" stroke-linejoin="miter"><path d="M335.75175,88.96165l3.34962,-5.61594l27.73407,16.54198l-3.34963,5.61593z" fill="#c4c456" stroke-linecap="butt"/><g><path d="M326.52822,95.30769c0,0 0.16569,-3.71232 1.54568,-5.53728c2.31194,-3.05739 4.28487,-4.23815 4.28487,-4.23815l37.06516,22.1075c0,0 0.06847,3.11532 -1.64137,5.69773c-1.88643,2.84909 -4.18918,4.07769 -4.18918,4.07769z" fill="#c4c456" stroke-linecap="butt"/><path d="M332.1006,98.02892c0,0 0.93741,-3.53552 1.86725,-5.09447c0.86979,-1.45828 3.54368,-3.97742 3.54368,-3.97742" fill="none" stroke-linecap="round"/><path d="M364.34826,105.43235c0,0 -1.28945,3.65725 -2.19129,5.13478c-0.79751,1.3066 -2.94531,3.28077 -2.94531,3.28077" fill="none" stroke-linecap="round"/><path d="M341.55142,103.19732c0,0 0.63033,-2.68338 1.38361,-3.97677c0.85422,-1.46671 3.47711,-4.36907 3.47711,-4.36907" fill="none" stroke-linecap="round"/><path d="M355.5189,100.40034c0,0 -1.14752,3.49504 -1.9885,4.90502c-0.80664,1.3524 -2.95864,3.38929 -2.95864,3.38929" fill="none" stroke-linecap="round"/></g></g><text transform="translate(287.39619,140.84651) scale(0.33322,0.49861)" font-size="40" xml:space="preserve" fill="#d8d85f" fill-rule="nonzero" stroke="#d7d75e" stroke-width="4" stroke-linecap="butt" stroke-linejoin="miter" stroke-miterlimit="10" stroke-dasharray="" stroke-dashoffset="0" font-family="Handwriting" font-weight="normal" text-anchor="start" style="mix-blend-mode: normal"><tspan x="0" dy="0">MUSTARD</tspan></text></g></g></svg>