<svg version="1.1" xmlns="http://www.w3.org/2000/svg" xmlns:xlink="http://www.w3.org/1999/xlink" width="150.7733" height="333.76248" viewBox="0,0,150.7733,333.76248"><g transform="translate(-242.09651,24.11406)"><g data-paper-data="{&quot;isPaintingLayer&quot;:true}" fill-rule="nonzero" stroke-linecap="butt" stroke-linejoin="miter" stroke-miterlimit="10" stroke-dasharray="" stroke-dashoffset="0" style="mix-blend-mode: normal"><path d="M282.56373,308.52123c0,0 -0.63536,-110.88112 -0.79335,-138.63919c-0.05451,-9.5776 8.18688,-43.18675 40.20201,-43.3745c31.60235,-0.18532 39.85672,34.64105 39.84884,43.34587c-0.07659,54.32545 0.65429,138.6092 0.65429,138.6092l-10.49667,0.11294l-0.15882,-134.9164c0,0 0.07549,-3.64102 -2.81625,-3.70546c-3.43441,-0.07653 -2.94538,3.6602 -2.94538,3.6602l0.20548,134.94793l-48.21366,0.08484l-0.30539,-135.37455c0,0 0.27949,-3.42921 -2.8856,-3.44734c-3.11083,-0.0178 -2.81569,3.41745 -2.81569,3.41745l0.35311,135.17919z" fill="#999999" stroke="#000000" stroke-width="2"/><path d="M321.66272,257.68759c-0.81895,0 -1.48284,-0.77993 -1.48284,-1.74202c0,-0.96209 0.66389,-1.74202 1.48284,-1.74202c0.81895,0 1.48284,0.77993 1.48284,1.74202c0,0.96209 -0.66389,1.74202 -1.48284,1.74202z" data-paper-data="{&quot;index&quot;:null}" fill="#000000" stroke="none" stroke-width="1.5"/><path d="M297.59946,308.53819v-140.03656c0,0 0.75721,-11.43193 0.75721,-17.19817c0,-5.2842 -0.75721,-16.07957 -0.75721,-16.07957c0,0 2.67319,-2.76424 4.6557,-4.40319c1.98251,-1.63895 5.17197,-3.29377 5.17197,-3.29377c0,0 -0.6016,47.11963 14.55952,47.03698c15.43477,-0.08414 13.83154,-47.03698 13.83154,-47.03698c0,0 3.91276,1.7852 6.16585,3.46157c2.25309,1.67636 4.75379,4.23538 4.75379,4.23538c0,0 -0.75721,11.07195 -0.75721,16.67261c0,5.68825 0.75721,17.19817 0.75721,17.19817v139.44352z" fill="#0f0e02" stroke="#000000" stroke-width="2"/><path d="M329.18869,136.95597c0.77625,-1.79346 1.18438,-3.9423 1.46817,-6.02958c0.22393,-0.00333 0.39077,-0.06986 0.39077,-0.06986l0.19829,-0.23069c4.55901,0.78422 7.11826,3.29831 10.8143,5.98291c-1.69142,0.45579 -3.3602,1.07012 -5.04759,1.36886c-2.31748,0.4103 -5.27747,-1.15233 -7.71734,-1.00313c-0.03549,-0.00601 -0.0711,-0.01247 -0.10661,-0.01851z" data-paper-data="{&quot;noHover&quot;:false,&quot;origItem&quot;:[&quot;Path&quot;,{&quot;applyMatrix&quot;:true,&quot;segments&quot;:[[[243.06965,148.48691],[-0.03081,0.00007],[2.0588,-0.41176]],[[249.66667,148.22981],[-1.92705,0.5855],[1.40311,-0.42631]],[[253.7895,146.64835],[-1.3899,0.54048],[-3.42721,-1.4829]],[[244.05361,143.69377],[3.9596,0],[0,0]],[243.91054,143.88335],[[243.58661,143.98057],[0.19006,-0.03029],[-0.02011,1.54608]],[[242.97718,148.48708],[0.46997,-1.39472],[0.03084,-0.00005]]],&quot;closed&quot;:true}]}" fill="#999999" stroke="none" stroke-width="0.5"/><path d="M304.52202,127.81453c0.59877,-0.27463 1.35441,-0.43833 2.22012,-0.65798c4.55917,-1.15679 7.50949,1.44246 11.93374,2.13019c1.80938,0.28126 3.05748,-0.52579 4.79135,-0.37603c-0.08686,0.60497 -0.16842,1.22256 -0.24434,1.83172c-0.17802,1.42834 -0.65801,3.35942 -0.37848,4.90293c-2.89067,-0.71592 -5.807,-1.59297 -8.54841,-2.81999c-3.19248,-1.4289 -6.46379,-4.13341 -9.77398,-5.01084z" data-paper-data="{&quot;noHover&quot;:false,&quot;origItem&quot;:[&quot;Path&quot;,{&quot;applyMatrix&quot;:true,&quot;segments&quot;:[[[229.81105,147.32584],[-2.86597,-0.63674],[2.46103,0.54678]],[[237.35022,148.33418],[-2.53379,-0.15827],[-0.40126,-1.08236]],[[237.15078,144.75977],[0,1.05597],[0,-0.45036]],[[237.16616,143.41141],[-0.00974,0.44868],[-1.49016,0.10748]],[[233.13337,144.28406],[1.56831,-0.0217],[-3.83479,0.05306]],[[222.8552,144.22195],[3.75403,-1.40489],[-0.71284,0.26676]],[[221.03849,144.9675],[0.48003,-0.27332],[2.90762,0.22295]]],&quot;closed&quot;:true}]}" fill="#999999" stroke="none" stroke-width="0.5"/><path d="M339.2339,147.82355c-5.07648,3.10487 -11.03484,4.08357 -17.06162,3.04687c-2.8324,-0.46319 -4.09434,-2.21625 -6.22118,-4.17751c-1.89702,-1.74934 -4.58874,-2.99205 -6.04429,-5.3386c-2.07446,-3.34431 -4.1532,-7.7983 -6.90106,-10.4101c-0.00454,-0.29138 0.00538,-0.55801 0.02781,-0.79945c0.24088,0.16698 0.47364,0.20687 0.47364,0.20687c3.28366,0.49333 6.72309,3.50853 9.88941,4.92611c4.27382,1.91341 8.96411,3.05073 13.44452,3.91346c0.27098,0.08537 0.53014,0.14322 0.75313,0.14891c0.56752,0.10573 1.13927,0.22001 1.70125,0.31822c2.66113,-0.16272 5.50566,1.32417 8.09713,0.9521c2.59985,-0.37326 4.96586,-1.55999 7.70221,-1.88119l0.12497,-0.03474c1.3735,1.01938 2.44842,2.19033 0.96173,2.76489c-0.60087,0.78343 -1.22654,1.52395 -1.8748,2.20999c-0.47782,0.29263 -0.96674,0.58339 -1.46821,0.86763c-0.48054,-0.07999 -0.89293,0.28183 -0.89293,0.28183l-1.25787,1.11241c-0.48507,0.62716 -0.97051,1.26329 -1.45383,1.89228z" data-paper-data="{&quot;noHover&quot;:false,&quot;origItem&quot;:[&quot;Path&quot;,{&quot;applyMatrix&quot;:true,&quot;segments&quot;:[[[253.61024,153.57032],[-0.34599,0.51432],[0,0]],[254.5619,152.61178],[[255.29132,152.29752],[-0.41708,0.00193],[0.39627,-0.26816]],[[256.44793,151.4889],[-0.37527,0.27129],[0.4785,-0.57725]],[[257.80846,149.66036],[-0.42789,0.64184],[1.20324,-0.60095]],[[256.69903,147.78435],[1.27591,0.56681],[0,0]],[[256.69211,147.79591],[0,0],[-2.29265,0.57316]],[[250.24624,150.14399],[2.17108,-0.59385],[-2.16407,0.59194]],[[243.26673,150.47717],[2.24549,-0.44909],[-0.48826,-0.00111]],[[241.79335,150.46712],[0.49376,0.00587],[-0.1902,0.02364]],[[241.14262,150.45773],[0.23946,0.02805],[-3.90109,-0.06661]],[[229.37227,149.27711],[3.83678,0.85279],[-2.84253,-0.6318]],[[220.44226,146.94034],[2.84436,-0.05176],[0,0]],[[220.01764,146.84947],[0.22251,0.09087],[0.00652,0.17755]],[[220.07911,147.43028],[-0.03474,-0.21033],[2.61328,1.54826]],[[227.05221,154.08748],[-2.11832,-2.16228],[1.48632,1.51717]],[[232.74987,157.17625],[-1.79841,-1.02996],[2.0163,1.15474]],[[238.44592,159.40229],[-2.45745,0.01739],[5.23439,0]],[[252.57511,155.11512],[-3.98744,2.87929],[0.3443,-0.51542]]],&quot;closed&quot;:true}]}" fill="#999999" stroke="none" stroke-width="0.5"/><path d="M333.42363,133.63676c0.42309,0.83415 0.42781,1.77384 -0.65086,2.08773c0.2146,-0.64206 0.46037,-1.43495 0.65086,-2.08773z" data-paper-data="{&quot;noHover&quot;:false,&quot;origItem&quot;:[&quot;Path&quot;,{&quot;applyMatrix&quot;:true,&quot;segments&quot;:[[[243.85545,140.0645],[0.08455,-0.4269],[0.75159,-0.33695]],[[244.08034,138.77845],[0.40211,0.46218],[-0.06576,0.43038]]],&quot;closed&quot;:true}]}" fill="#ffffff" stroke="none" stroke-width="0.5"/><path d="M324.96713,129.38794c-0.28406,1.56189 -0.6123,3.24834 -0.9127,4.7975l-0.43237,-0.35646c-2.48626,-2.68994 -1.12461,-4.5556 1.34507,-4.44104z" data-paper-data="{&quot;noHover&quot;:false,&quot;origItem&quot;:[&quot;Path&quot;,{&quot;applyMatrix&quot;:true,&quot;segments&quot;:[[[236.93463,140.09088],[-2.11501,-1.34267],[0,0]],[[237.28205,140.25838],[0,0],[0.04544,-1.00139]],[[237.40711,137.24758],[-0.03209,1.00714],[-1.81421,0.25412]]],&quot;closed&quot;:true}]}" fill="#999999" stroke="none" stroke-width="0.5"/><path d="M350.0024,74.04483c0,0 2.40859,0.40994 6.74623,1.55184c3.96193,1.04301 7.10937,2.6913 7.10937,2.6913l0.41741,2.1227c0,0 -11.61165,-4.91347 -23.81906,-2.81244c-9.76074,1.67997 -15.27074,6.28474 -15.27074,6.28474l-0.33209,-7.65987c0,0 4.7142,-3.47812 12.08794,-4.29295c7.63546,-0.84374 12.67869,0.16543 12.67869,0.16543z" data-paper-data="{&quot;index&quot;:null}" fill="#000000" stroke="none" stroke-width="1.5"/><path d="M287.84564,86.10211c0,0 5.08086,-3.71596 12.31007,-5.0932c8.01087,-1.52617 12.11192,-1.00298 12.11192,-1.00298l0.85997,7.54905c0,0 -6.04913,-0.81215 -12.55821,-0.04519c-8.7051,1.02568 -10.2275,3.38011 -16.81763,4.70254c-5.64677,1.13312 -10.49462,1.05562 -10.49462,1.05562l-0.15935,-2.25407c0,0 5.61556,-0.2724 8.1579,-0.71919c2.09836,-0.36878 6.11142,-2.17032 6.11142,-2.17032z" fill="#000000" stroke="none" stroke-width="1.5"/><path d="M300.58734,180.68098l-0.97785,-1.01479c-3.59112,-3.75862 -7.57806,-5.30788 -11.10273,-8.96576c-0.06203,-0.06437 -1.03483,-0.76945 -1.8255,-1.55951c-0.03568,0.37196 -0.11046,0.71228 -0.22285,0.94079c-0.07623,0.15495 -0.16068,0.30232 -0.25185,0.44349l0.08236,0.05619l-0.82313,1.66503c-0.25113,0.52547 -0.71707,0.89511 -1.26714,0.93513c-0.86156,0.06267 -1.60323,-0.70702 -1.65658,-1.71917l-0.09161,-1.73832c-1.65194,-2.31982 -2.9116,-5.44473 -4.62831,-7.56017c-2.32682,-2.86726 -6.03988,-5.43046 -7.67289,-9.14553c-1.12133,-2.55107 -1.04688,-5.37939 -2.58657,-7.68011c-1.25513,-2.07344 -2.54391,-5.60247 -2.9933,-8.17948c-0.13711,-0.7862 -0.64736,-7.13469 -1.39279,-6.99824c-2.3573,0.43146 -3.81804,4.01952 -5.50439,5.54808c-3.70634,3.35961 -7.66538,6.01746 -12.10455,6.04542l0.03013,0.57155l-1.84168,0.13396c-0.86157,0.06267 -1.60323,-0.70702 -1.65658,-1.71918c-0.03406,-0.64622 0.22072,-1.23501 0.6336,-1.5926l1.30493,-1.16503c3.5702,-3.15424 6.51961,-6.4158 9.22607,-10.48107c-1.81676,0.48058 -3.74366,0.41512 -6.01819,-0.00087c-1.06948,-0.1956 -4.49411,-0.88053 -4.91254,-1.86008c-0.50734,-1.18764 1.71937,-4.96093 2.28093,-5.83542c2.73469,-4.25854 7.23729,-9.23215 8.7036,-14.28913c0.62643,-2.1604 0.51264,-4.02974 1.52808,-6.08378c0.43266,-2.97687 0.98179,-5.52199 1.87444,-8.28085c0.07277,-0.22491 0.1227,-0.55118 0.17266,-0.88648c-0.28477,0.23673 -0.58768,0.44909 -0.80024,0.58971c-2.0597,1.36273 -5.93227,3.21938 -7.66656,-0.2024c-1.90971,-3.7679 2.06387,-8.23654 3.87456,-10.59525c1.77401,-2.31096 2.01452,-5.91282 1.86062,-8.83267c2.2821,-14.47519 4.37087,-29.58152 10.93353,-42.85644c4.76529,-9.63925 11.74027,-19.59772 18.14927,-27.66296c1.59033,-2.00134 4.31065,-2.9576 6.2378,-4.63609c3.2593,-1.21312 5.93753,-3.85631 9.44172,-4.63105c10.98819,-2.42941 22.77373,0.35618 33.81491,-0.25249c4.06131,1.95661 8.2989,1.72133 12.48543,3.54775c5.50586,2.40198 10.44054,6.55871 15.7677,9.18648c4.06649,2.0059 6.69123,2.89584 9.46245,7.2871c1.57149,5.69227 4.21616,10.52281 5.14796,16.43397c1.58673,10.06611 -0.0295,23.01767 4.43261,32.05765c0.36463,5.56728 4.06786,9.55751 6.21069,14.4203c2.43798,5.53259 3.11002,11.04572 4.67965,16.82251c1.28638,4.73439 2.85989,8.42426 1.28346,12.33529l0.55199,0.37663l-0.82313,1.66503c-0.25112,0.52547 -0.71707,0.89512 -1.26714,0.93514c-0.74239,0.05401 -1.39578,-0.51005 -1.59645,-1.31469l-0.50257,-1.86358c-2.45346,-3.70293 -3.11523,-8.06804 -5.89789,-11.57345c-0.12052,-0.15182 -0.24852,-0.28727 -0.38044,-0.41013c1.82423,8.91832 1.25037,18.65406 -0.08778,27.41531c-1.59591,10.12263 -3.52461,19.41245 -4.90003,29.63402c-0.68555,5.09478 -1.03814,9.90269 -3.42334,13.60792l0.51285,0.53221l-1.29572,1.72315c-0.26482,0.35217 -0.64402,0.58569 -1.07479,0.61702c-0.86155,0.06267 -1.60322,-0.70703 -1.65657,-1.71919l-0.11404,-2.16357c-0.02765,-0.55631 -0.51166,-2.7014 -0.81194,-4.61636c-0.35042,1.50529 -0.79668,2.99963 -0.84969,3.20362c-0.88618,3.41072 -1.98079,5.56863 -3.68531,7.63841l0.18194,0.14053l-1.25722,2.2462c-0.25988,0.47548 -0.70249,0.80411 -1.21934,0.8417c-0.86155,0.06267 -1.60322,-0.70702 -1.65657,-1.71918c-0.00883,-0.16767 0.00178,-0.33146 0.02954,-0.48838l0.31365,-1.98949c-0.11853,-2.146 -0.35492,-5.16449 -0.27656,-7.70427c-0.67874,0.80125 -1.42865,1.54748 -1.86739,2.24903c-2.68274,4.28961 -5.37095,7.55956 -8.70411,10.80002c-1.62908,2.60297 -3.48908,4.91919 -5.53594,6.94875c-0.27362,0.55401 -0.5475,1.1079 -0.82132,1.6618c-3.11048,6.29187 -8.31676,10.89524 -13.01333,15.00408c-1.28169,1.12129 -2.02669,3.25754 -3.74192,4.25158c-4.64924,2.6944 -12.64566,-0.1541 -15.19694,-5.08321c-0.90793,-1.43564 -1.18479,-3.79358 -2.32117,-4.88334c-2.80466,-2.68963 -5.5798,-5.25633 -8.2765,-8.07113c-0.5476,-0.0638 -0.95608,-0.48771 -0.95608,-0.48771zM311.88944,186.48754c1.52318,1.67047 1.62454,3.75193 2.85318,5.59959c1.552,3.35784 8.0051,5.78437 11.15656,3.85907c1.57022,-0.95928 1.98197,-2.72721 3.22562,-3.85678c2.73678,-2.48577 5.74304,-5.04425 8.32612,-8.09172c-4.99493,2.88701 -10.58287,4.54078 -16.37047,4.96179c-4.20045,0.27708 -6.68743,-1.46595 -10.15985,-3.50414c0.3281,0.3403 0.65147,0.6841 0.96886,1.03219zM343.98002,172.88543l1.39198,-1.86468c0,0 0.45708,-0.60784 1.10753,-0.65871c0.59227,-0.53641 1.16698,-1.07339 1.72619,-1.61316c0.6907,-1.1122 1.34028,-2.28064 1.94579,-3.50546c1.81899,-1.23787 0.13323,-2.41819 -1.91192,-3.31218l-0.00968,0.02197c-3.52114,1.31057 -6.49915,3.69999 -9.82864,5.03468c-3.31874,1.3304 -7.39621,0.32475 -10.85574,1.40261c-0.76178,0.05338 -1.52859,0.10349 -2.29943,0.14879c-0.29442,0.06491 -0.63977,0.08085 -1.01603,0.05662c-6.09207,0.3206 -12.4079,0.29948 -18.4756,-0.82799c-4.49533,-0.83531 -9.72423,-3.68679 -14.15638,-3.26914c0,0 -0.3153,0.02294 -0.67118,-0.11834c0.02733,0.32465 0.07749,0.67594 0.152,1.05746c4.22622,2.54088 8.00754,7.68673 11.52096,11.40905c2.46519,2.61178 6.28162,3.33058 9.18661,5.01406c3.25693,1.88744 5.26886,3.74393 9.10076,3.43318c8.16557,-0.59398 15.68499,-3.73101 21.6272,-9.46023c0.48732,-0.98366 0.97548,-1.96671 1.46555,-2.94854zM363.80984,115.22532c1.37826,-0.6114 1.69103,-2.22165 2.9138,-3.85509c4.3829,-5.85495 4.89652,-11.73101 4.53696,-19.43713c-1.12237,-4.72652 -4.68614,0.23058 -5.7208,2.72668c-0.61905,1.49344 -1.13229,3.0641 -1.53266,4.6833c0.13408,0.88543 0.35854,1.78062 0.20606,2.64144c-0.4102,2.31591 -0.8184,4.6458 -1.21562,6.98961c0.0713,2.11202 0.33756,4.21413 0.81225,6.2512zM354.44304,148.86703c0.55795,-2.80928 2.12971,-4.89625 2.29581,-8.00315c0.33193,-6.20828 -2.11459,-12.40645 1.02594,-17.97567c0.50109,-5.01595 1.22974,-9.9664 2.0913,-14.83376c-0.02326,-3.26992 0.35834,-6.5531 1.1194,-9.66724c-0.07803,-0.53067 -0.12186,-1.05861 -0.03246,-1.57476c0.77419,-4.4698 1.77626,-9.14392 2.10801,-13.90041l-0.34563,-0.19891c-2.85058,-0.65695 -5.68526,-1.88836 -8.13011,-3.77632c-1.10592,0.14346 -2.2265,0.23478 -3.35636,0.29214c-0.10114,0.02743 -0.21127,0.04632 -0.3312,0.05504c-0.15776,0.01148 -0.30055,0.00304 -0.42979,-0.02139c-5.81642,0.22092 -11.84583,-0.34451 -17.36508,0.75908c-1.97633,0.39518 -5.77709,4.74134 -7.93407,2.91612c-0.91476,-0.77408 -0.94682,-2.3779 -0.78236,-3.86185c-0.00949,-0.00954 -0.01898,-0.01922 -0.0285,-0.02908c-1.17138,-1.21563 -0.13659,-2.59177 -0.13659,-2.59177l1.25115,-1.52155c1.51929,-1.03131 2.94974,-2.72482 4.49772,-3.62193c2.9857,-1.73032 6.82381,-1.65935 9.994,-1.41345c5.48618,0.42558 11.05489,-1.90193 12.21834,5.68621c1.04985,-0.10155 2.0921,-0.18181 3.12198,-0.22137c2.51203,1.59111 5.0638,3.1254 7.86163,3.71485c-0.00912,-0.47822 -0.02731,-0.95692 -0.05546,-1.436c-0.39934,-7.57644 -1.92584,-14.28382 -3.86136,-21.53454c-0.70425,-2.63826 -0.44929,-5.88376 -3.441,-6.57963c-4.16267,-0.96822 -5.29228,1.38736 -8.9361,2.74358c-5.39544,4.98325 -13.44915,9.42644 -19.98367,11.87807c-3.38905,1.2715 -6.61591,1.71413 -9.51548,4.29364l-0.10319,0.01841l0.02069,0.04187l-1.75745,1.19723c-0.20972,0.14987 -0.45263,0.2437 -0.71465,0.26277c-0.86156,0.06267 -1.60322,-0.70703 -1.65657,-1.71917c-0.03406,-0.64623 0.2207,-1.23503 0.63358,-1.59262l1.30493,-1.16503l0.11843,0.18309l0.01288,-0.00879c1.67831,-2.79014 3.6799,-5.17032 5.8259,-7.5582c0.6092,-0.67788 1.33957,-1.87547 2.09105,-2.87892c-1.06505,0.52113 -2.29448,0.57187 -3.32699,1.18727c-3.47005,2.06822 -7.158,4.05798 -10.57149,6.30671c-3.779,0.34159 -6.03589,2.48073 -9.20217,4.36209c-5.91693,3.51576 -13.00511,5.40084 -18.86505,8.37043c-1.204,0.61014 -0.9833,5.90351 -1.15888,7.05298c-0.45193,2.76084 -0.58972,5.37734 -0.49307,7.91062c1.92648,-0.33997 3.84067,-0.85548 5.74969,-1.45404c0.13587,-1.51927 1.5835,-4.80434 2.25361,-5.27031c2.12151,-1.47524 5.44381,0.26852 7.64342,-0.69472c2.71441,-1.18869 5.41753,-3.8102 8.34596,-4.47303c2.38659,-0.54018 8.41118,-0.13473 9.96424,2.30578c0.79216,1.24478 0.42424,6.03518 -0.62314,6.93374c-0.81883,0.70251 -2.02684,-0.0764 -3.04026,-0.11458c-2.20351,-0.49781 -4.39481,-0.56662 -6.57685,-0.35008c2.91019,1.87442 9.44729,0.93802 11.32442,4.41049c1.44191,2.66735 1.38277,5.6779 0.6652,8.71435c0.4685,0.51058 0.51004,1.29864 0.51004,1.29864c0.27897,5.29281 2.25446,9.62079 3.07685,14.75445c1.23007,7.67847 0.86647,16.21672 1.27787,24.02232c0.31694,6.01317 0.16637,11.92534 0.48037,17.88296c0.06933,1.31538 -0.23066,4.2489 0.46204,5.42223c0.46615,0.78959 1.60809,0.39267 2.37359,0.73123c0.13601,0.06014 0.24372,0.26653 0.34635,0.44506c0.19018,-0.01004 0.38018,-0.02054 0.5699,-0.03137c0.29345,-0.67281 -0.24131,-1.85079 -0.19806,-2.70672c0.18364,-3.63394 0.06572,-7.17997 -0.10976,-10.85134c0.37113,-2.35399 0.59093,-4.72706 0.70646,-7.11308c-0.24914,-0.42951 -0.40576,-1.06696 -0.00473,-1.87814c0.02567,-0.05192 0.05194,-0.10116 0.07876,-0.14784c0.30844,-12.23217 -1.76131,-24.75717 0.07096,-36.75343c0.06439,-0.40833 0.12874,-0.81667 0.19313,-1.22502c-0.01892,-0.11949 -0.03713,-0.23906 -0.05455,-0.3587c-0.46803,-0.09236 -1.21618,-0.43639 -1.28213,-1.68766c-0.0612,-1.16128 0.54276,-1.63228 0.99348,-1.82152c-0.04868,-2.94899 0.41776,-5.77475 1.52131,-8.06934c2.18618,-4.37989 5.95041,-8.71371 10.30622,-9.69962c8.24993,-1.86733 22.35145,2.77242 20.57256,15.21427c0.08775,1.6647 0.43739,4.29927 -0.75628,5.62399c-0.01313,0.01459 -0.02645,0.02901 -0.03996,0.04323c-0.37264,5.74038 -2.56289,10.97098 -6.67595,14.64308c-2.96629,2.47815 -6.30709,1.80201 -9.75983,1.54811c-3.34077,-0.24567 -6.69402,-0.26089 -9.39859,-3.09916c-1.22058,-1.28095 -2.29667,-2.95284 -3.1789,-4.85083c-0.68646,10.09184 0.79581,20.53622 0.5826,30.74435c3.0251,2.4504 4.8387,5.93047 1.51748,9.55618c2.18749,-0.25055 4.5077,-0.57184 6.55064,0.26259c3.90574,1.59526 7.48719,4.03727 11.284,5.58127c0.11678,-0.03673 0.24619,-0.06168 0.3896,-0.07212c0.71491,-0.052 1.12246,0.30472 1.35426,0.70645c0.29994,0.09533 0.60168,0.1837 0.90544,0.2643c0.53328,0.14151 1.02757,0.34461 1.4761,0.59826c1.58304,-3.42004 2.36074,-6.93725 3.07452,-10.53123zM284.67706,126.24086c0.57466,10.90282 3.43192,21.26849 4.01262,32.28607l0.10409,1.97507c2.15547,-5.02644 8.70634,-7.29877 13.97077,-6.99666c2.8721,0.16483 6.71819,2.24875 9.57545,0.99751c1.00895,-0.44184 1.79771,-0.9343 2.64011,-1.33443c-5.79059,-4.1961 -3.85108,-10.85376 2.01259,-12.04103c-0.00664,-0.13455 -0.0135,-0.26916 -0.0206,-0.4038c-0.40317,-7.6493 -0.02351,-16.0553 -1.23091,-23.57619c-0.61052,-3.80299 -1.8103,-7.16711 -2.54281,-10.79565c-1.11934,2.69337 -2.32695,5.23273 -2.97054,7.37245c-0.63725,2.11863 -0.86737,4.52934 -2.37789,6.23756c-1.00769,1.13957 -2.37151,1.74933 -3.49426,2.72928c-8.05989,3.04952 -17.53306,-3.15491 -20.74472,-12.06809c0.83429,5.08462 0.79943,10.55894 1.06607,15.6179zM341.79776,73.42959c-3.31775,0.22954 -7.26588,-0.77175 -10.39865,1.14214c-1.24784,0.76232 -2.40267,1.99107 -3.61164,2.97036c-0.06912,0.39967 -0.18601,0.99925 -0.31589,1.51612c1.3355,-1.11569 4.64342,-2.5509 5.04837,-2.64665c2.04726,-0.48403 3.9271,-0.0445 5.93471,0.11125c3.43775,0.26666 7.02305,-0.17433 10.57623,-0.59232c-0.81061,-3.66878 -3.79473,-2.73876 -7.23316,-2.50088zM283.47605,98.35719c0,0 0.25516,-0.70544 0.82373,-1.01108l0.127,-0.34176c1.67971,-2.8656 3.86585,-3.05496 6.53411,-4.43804c1.36591,-0.70802 2.49374,-2.10411 3.69222,-3.25568c-4.96213,1.65057 -9.8955,3.8075 -14.83524,4.73618c0.50455,4.07716 1.54402,8.00791 2.75877,12.06815c-0.25762,-2.5122 -0.00342,-5.13699 0.89938,-7.75778zM306.25049,164.14213c3.89198,0.72278 7.89041,0.98991 11.85837,0.99241c-0.73051,-1.93806 -0.5544,-4.5928 -0.6564,-6.52802c-0.0435,-0.82535 -0.07809,-1.64946 -0.10625,-2.47283c-2.31424,0.36607 -3.76236,1.83916 -6.20679,2.05691c-5.97708,0.5324 -10.31924,-1.94815 -16.03977,1.05249c-1.08625,0.56977 -2.03959,1.01713 -2.76202,1.57251c4.55738,0.07863 9.38048,2.48481 13.91285,3.32651zM327.04585,164.76541c3.17192,-0.98824 7.31678,0.07192 10.26639,-1.21977c2.14765,-0.9405 4.16276,-2.21789 6.2788,-3.36612c-5.48964,-2.32873 -9.29632,-4.75925 -15.47322,-4.30992l-0.20487,0.36366c0,0 -0.20239,0.13787 -0.49595,0.21495c0.11798,2.83571 0.08301,5.71864 -0.5154,8.32803c0.0481,-0.00359 0.09618,-0.0072 0.14425,-0.01082zM316.6643,150.07461l0.55815,0.26754c-0.02584,-1.84036 -0.04852,-3.68256 -0.09572,-5.53194c-2.80559,0.67159 -3.89151,3.04375 -0.46242,5.2644zM328.28799,103.96792c-0.0189,0.11982 -0.03777,0.23961 -0.05665,0.35943c0.74296,3.83134 2.35004,7.51344 4.32554,9.52825c2.17469,2.21797 4.88262,1.992 7.51852,2.18584c2.39562,0.17616 5.72094,1.15167 7.67899,-0.80636c2.90114,-2.5901 4.95076,-6.48955 5.44669,-10.652c-1.5054,0.06407 -3.22514,-0.19244 -4.69301,-0.48434c-2.07426,10.45796 -11.33971,4.20529 -16.55643,0.6872c0,0 -0.67598,-0.46122 -0.79417,-1.29291c-0.94495,0.08597 -1.90255,0.168 -2.87653,0.23994zM352.81913,99.95252l0.62181,0.19198l0.23153,-1.22292c0,0 0.10165,-0.44907 0.39498,-0.8353c-0.03635,-0.1594 -0.06199,-0.314 -0.06971,-0.46026c0.64927,-3.6957 -0.60162,-5.29659 -2.72182,-7.50679c-0.75369,-0.78569 -0.9819,-2.37365 -1.94611,-2.71744c-1.11417,-0.39725 -2.34325,0.04111 -3.48875,-0.20406c-7.24798,-1.55125 -12.96182,-1.07632 -16.89877,6.98057c-0.82268,1.60291 -1.17359,3.66841 -1.15596,5.88032c3.14762,-0.29545 6.36394,-0.67102 9.55473,-0.79607c5.08351,-0.39408 10.0452,-0.49208 15.47805,0.69002zM299.83263,84.30885c3.46191,-0.75963 6.9653,-1.02919 10.55121,-0.27331c1.43394,1.43224 0.68827,-0.87575 0.54166,-1.08824c-0.64115,-0.92937 -5.64971,-1.06939 -6.83883,-0.81566c-1.45299,0.31003 -2.86291,1.23123 -4.25402,2.17722zM302.28635,113.1465c-2.76754,1.26165 -5.6005,-0.05941 -8.07906,-1.11953c-1.12116,-0.47955 -3.38234,-0.19332 -4.23235,-1.15963c-1.50599,-1.71206 -1.1463,-3.46546 -0.83836,-5.33766c-1.18628,0.06598 -2.37215,0.13956 -3.55707,0.22385c0.93061,8.71517 10.29437,16.22817 17.33729,13.67736c0.85168,-0.78163 1.92687,-1.20872 2.7235,-2.06672c1.13194,-1.21915 1.19353,-3.4084 1.6561,-4.91523c0.74511,-2.42724 2.17129,-5.1452 3.33483,-7.97501l-0.47253,0.03437c-1.35341,0.09845 -2.7102,0.18246 -4.06961,0.25681c-0.48617,3.21234 -0.75233,6.99077 -3.80275,8.3814zM311.89994,100.81918c0.63974,-2.40375 0.8211,-4.83222 0.00251,-7.18275c-0.29166,-0.83751 -1.50499,-0.38853 -2.26325,-0.54757c-2.42541,-0.50864 -5.0159,-0.68178 -7.12376,-2.22064c-1.36091,0.17655 -3.36804,-0.17516 -4.62088,0.33614c-1.95342,0.79719 -3.68411,3.6642 -5.67002,4.72085c-1.16433,0.61952 19.61468,4.8751 19.6754,4.89398zM327.45813,149.24091c1.13992,-0.70279 0.89851,-1.58101 0.2266,-2.3824c-0.06101,0.7962 -0.13592,1.59045 -0.2266,2.3824z" fill="#000000" stroke="none" stroke-width="0.5"/><path d="M362.94966,109.04664c0.3972,-2.3438 0.77619,-4.76089 1.18639,-7.0768c0.15247,-0.86082 -0.05444,-1.80066 -0.18852,-2.68612c0.40038,-1.6192 0.95409,-3.21951 1.57314,-4.71295c1.03466,-2.49611 4.64932,-7.44806 5.77168,-2.72154c0.35956,7.70612 -0.19116,13.75763 -4.57406,19.61259c-1.22277,1.63344 -1.55389,3.23957 -2.93213,3.85099c-0.47469,-2.03707 -0.7652,-4.15415 -0.8365,-6.26617z" data-paper-data="{&quot;noHover&quot;:false,&quot;origItem&quot;:[&quot;Path&quot;,{&quot;applyMatrix&quot;:true,&quot;segments&quot;:[[[268.21396,123.01191],[-0.23457,-1.12607],[0.90071,-0.27784]],[[270.20442,121.0316],[-0.83582,0.83955],[2.99592,-3.00929]],[[273.75586,110.64549],[-0.02976,4.20306],[-0.55764,-2.61359]],[[270.01088,111.90144],[0.74473,-1.31591],[-0.44558,0.78732]],[[268.87451,114.38655],[0.31018,-0.86432],[0.05582,0.4866]],[[268.9172,115.83051],[0.12634,-0.46189],[-0.3399,1.24265]],[[267.90567,119.58181],[0.33253,-1.25832],[-0.02556,1.15086]]],&quot;closed&quot;:true}]}" fill="#ffffff" stroke="none" stroke-width="0.5"/><path d="M328.20841,103.69868c0.97398,-0.07194 1.93533,-0.16334 2.88027,-0.24931c0.1182,0.83171 0.7921,1.29776 0.7921,1.29776c5.21672,3.5181 14.61885,9.76013 16.69311,-0.69783c1.46787,0.2919 3.1953,0.56677 4.70072,0.5027c-0.49593,4.16245 -2.55484,8.14522 -5.45598,10.73533c-1.95805,1.95803 -5.36081,1.02077 -7.75643,0.84461c-2.6359,-0.19384 -5.40279,-0.02316 -7.57748,-2.24112c-1.9755,-2.01483 -3.58392,-5.7633 -4.32688,-9.59464c0.0189,-0.11982 0.03839,-0.24156 0.05727,-0.36138z" data-paper-data="{&quot;noHover&quot;:false,&quot;origItem&quot;:[&quot;Path&quot;,{&quot;applyMatrix&quot;:true,&quot;segments&quot;:[[[245.90918,115.48812],[0,0],[-0.0161,0.06438]],[[245.8609,115.68126],[0.0161,-0.06438],[0.34549,2.11199]],[[248.30242,121.0316],[-1.19371,-1.17332],[1.31407,1.29162]],[[253.03005,122.51705],[-1.67672,-0.20959],[1.52388,0.19048]],[[257.96087,122.38236],[-1.31628,0.98691],[1.9398,-1.2932]],[[261.79756,116.80758],[-0.45679,2.24299],[-0.96348,-0.0247]],[[258.81698,116.35875],[0.92753,0.21671],[-1.67658,5.60265]],[[248.22118,116.07763],[3.2129,2.11862],[0,0]],[[247.75755,115.34344],[0.04748,0.45677],[-0.60632,0.00937]],[[245.91257,115.36011],[0.62439,-0.00059],[0,0]]],&quot;closed&quot;:true}]}" fill="#ffffff" stroke="none" stroke-width="0.5"/><path d="M283.55903,110.55435c3.21166,8.91319 12.76448,15.10038 20.82437,12.05087c1.12275,-0.97996 2.49943,-1.58236 3.5071,-2.72193c1.51052,-1.70823 1.66206,-3.96025 2.29931,-6.07888c0.6436,-2.13972 1.92603,-4.84027 3.04539,-7.53364c0.73251,3.62854 1.95263,7.01102 2.56315,10.814c1.2074,7.52088 0.8435,16.02257 1.24667,23.67187c0.00709,0.13465 0.01343,0.27079 0.02007,0.40534c-5.86368,1.18727 -7.82534,7.88068 -2.03475,12.07678c-0.8424,0.40013 -1.63933,0.89964 -2.64828,1.34146c-2.85726,1.25124 -6.73689,-0.8188 -9.60899,-0.98363c-5.26445,-0.30213 -11.86016,1.96026 -14.01563,6.9867l-0.10653,-1.97662c-0.5807,-11.01757 -3.47231,-21.49543 -4.04696,-32.39825c-0.26664,-5.05896 -0.21062,-10.56946 -1.04492,-15.65407z" data-paper-data="{&quot;noHover&quot;:false,&quot;origItem&quot;:[&quot;Path&quot;,{&quot;applyMatrix&quot;:true,&quot;segments&quot;:[[[217.31028,125.87069],[0,-2.76046],[0,5.9492]],[[218.78599,143.5792],[0,-6.01182],[0,0]],[[218.78599,144.65691],[0,0],[1.54563,-2.64701]],[[227.94299,141.40613],[-3.35162,-0.37239],[1.82852,0.20316]],[[234.02415,142.32697],[-1.86671,0.56716],[0.65917,-0.20028]],[[235.755,141.706],[-0.55141,0.18419],[-3.55655,-2.50985]],[[237.44548,135.2404],[-3.78441,0.41352],[0.00029,-0.0734]],[[237.44592,135.02009],[0,0.07348],[0,-4.1739]],[[237.45341,122.15603],[0.51789,4.13589],[-0.26187,-2.09134]],[[236.19296,116.18725],[0.34564,2.00134],[-0.80545,1.41978]],[[234.04788,120.07726],[0.48301,-1.13765],[-0.47825,1.12643]],[[232.31946,123.37381],[1.02209,-0.86882],[-0.68185,0.57959]],[[229.99622,124.71921],[0.74995,-0.48828],[-5.24956,1.33894]],[[217.15516,117.33905],[1.75091,4.97196],[0.36163,2.79685]]],&quot;closed&quot;:true}]}" fill="#999999" stroke="none" stroke-width="0.5"/><path d="M337.29512,99.33672c-3.19081,0.12506 -6.43333,0.46154 -9.58096,0.75699c-0.01763,-2.21191 0.32736,-4.30966 1.15004,-5.91257c3.93694,-8.05689 9.78158,-8.60255 17.02956,-7.0513c1.1455,0.24517 2.38804,-0.17427 3.50221,0.22298c0.9642,0.34379 1.20126,1.95486 1.95495,2.74055c2.1202,2.21022 3.3719,3.85919 2.72263,7.55488c0.00772,0.14626 0.03285,0.30321 0.06919,0.4626c-0.29332,0.38626 -0.39632,0.8404 -0.39632,0.8404l-0.2337,1.2295l-0.62203,-0.19137c-5.43283,-1.18211 -10.51206,-1.04676 -15.59559,-0.65267z" data-paper-data="{&quot;noHover&quot;:false,&quot;origItem&quot;:[&quot;Path&quot;,{&quot;applyMatrix&quot;:true,&quot;segments&quot;:[[[261.70952,114.27544],[-3.42953,-0.85738],[0,0]],[262.10014,114.40438],[262.28915,113.74879],[[262.56949,113.31035],[-0.20031,0.19836],[-0.01785,-0.08808]],[[262.54047,113.05741],[0,0.07981],[0.539,-1.98321]],[[261.05502,108.86928],[1.27954,1.28525],[-0.45485,-0.45688]],[[259.90374,107.3152],[0.60415,0.225],[-0.69812,-0.25999]],[[257.68275,107.06633],[0.72325,0.17856],[-4.57623,-1.12981]],[[246.65652,110.19259],[2.78525,-4.22384],[-0.5793,0.83877]],[[245.72042,113.34326],[0.06319,-1.20303],[2.01996,-0.03614]],[[251.84871,113.28834],[-2.04181,-0.05819],[3.25951,-0.01321]]],&quot;closed&quot;:true}]}" fill="#999999" stroke="none" stroke-width="0.5"/><path d="M282.53172,106.19009c-1.21475,-4.06024 -2.28156,-8.10107 -2.78611,-12.17823c4.93973,-0.92868 10.00016,-3.11613 14.96229,-4.76669c-1.19848,1.15157 -2.42859,2.68605 -3.79451,3.39406c-2.66824,1.38307 -4.73046,1.51867 -6.41017,4.3843l-0.12581,0.33316c-0.56858,0.30564 -0.82376,0.98971 -0.82376,0.98971c-0.90281,2.62078 -1.27958,5.3315 -1.02193,7.84369z" data-paper-data="{&quot;noHover&quot;:false,&quot;origItem&quot;:[&quot;Path&quot;,{&quot;applyMatrix&quot;:true,&quot;segments&quot;:[[[217.48184,110.66638],[-0.66473,1.38889],[0,0]],[[218.0419,110.14936],[-0.37337,0.14366],[0,0]],[[218.1345,109.96861],[0,0],[1.16908,-1.49125]],[[222.45645,107.81458],[-1.75045,0.6463],[0.89608,-0.33085]],[[224.92382,106.19087],[-0.80409,0.57857],[-3.22429,0.701]],[[215.29088,108.17873],[3.18569,-0.30949],[0.18497,2.23619]],[[216.6464,114.84774],[-0.63906,-2.25507],[-0.07996,-1.37575]]],&quot;closed&quot;:true}]}" fill="#999999" stroke="none" stroke-width="0.5"/><path d="M306.02984,104.82497c1.35941,-0.07435 2.8431,-0.26421 4.19651,-0.36266l0.47312,-0.03317c-1.16354,2.82981 -2.57979,5.59262 -3.3249,8.01986c-0.46258,1.50684 -0.53491,3.74242 -1.66683,4.96157c-0.79665,0.85801 -1.8926,1.31233 -2.74428,2.09397c-7.04292,2.55081 -16.52482,-5.07289 -17.45543,-13.78806c1.18492,-0.08429 2.50844,-0.07195 3.69472,-0.13795c-0.30796,1.87223 -0.6566,3.59099 0.8494,5.30305c0.85001,0.9663 3.11187,0.67335 4.23303,1.1529c2.47856,1.06012 5.15645,2.3593 7.92399,1.09765c3.05041,-1.39063 3.33451,-5.09484 3.82068,-8.30717z" data-paper-data="{&quot;noHover&quot;:false,&quot;origItem&quot;:[&quot;Path&quot;,{&quot;applyMatrix&quot;:true,&quot;segments&quot;:[[[228.99602,119.44923],[1.99475,-0.63529],[-1.80977,0.57637]],[[223.87455,118.52123],[1.54709,0.67426],[-0.69981,-0.305]],[[221.21087,117.72354],[0.51028,0.55887],[-0.90408,-0.99018]],[[220.85516,114.78898],[-0.25967,1.00552],[-0.75976,-0.01104]],[[218.57615,114.77001],[0.75951,0.00104],[0.30094,4.77413]],[[229.18711,122.89018],[-4.58335,1.10807],[0.57018,-0.3912]],[[230.99585,121.87445],[-0.5376,0.43489],[0.76387,-0.61794]],[[232.21885,119.26816],[-0.34611,0.80079],[0.55751,-1.28992]],[[234.61684,115.06501],[-0.83826,1.4922],[0,0]],[[234.31393,115.06501],[0,0],[-0.86758,0]],[[231.70649,115.04369],[0.8706,0.01334],[-0.41858,1.72692]]],&quot;closed&quot;:true}]}" fill="#ffffff" stroke="none" stroke-width="0.5"/><path d="M285.294,100.179c0.10698,-0.29028 0.23651,-0.58644 0.39242,-0.88028c0.5547,-0.25118 0.83737,-0.71133 0.83737,-0.71133l0.36873,-0.61927c0.50567,-0.9711 3.72008,-1.72032 5.20047,-2.34713c2.0218,-0.85606 3.97183,-2.91838 5.94521,-3.60407c1.26565,-0.43977 3.28238,-0.38336 4.63318,-0.61645c1.97728,0.80913 4.54062,0.72383 6.89579,0.83999c0.73631,0.03632 1.95992,-0.35537 2.19393,0.15987c0.65672,1.44604 0.31962,3.05715 -0.46252,4.66517c-0.29395,-0.03451 -0.53983,-0.00069 -0.53983,-0.00069l-1.36717,0.18817c-7.92773,1.07808 -16.09344,1.85432 -24.09753,2.92601z" data-paper-data="{&quot;noHover&quot;:false,&quot;origItem&quot;:[&quot;Path&quot;,{&quot;applyMatrix&quot;:true,&quot;segments&quot;:[[[234.31393,113.06501],[-5.13871,0],[0,0]],[235.19936,113.06501],[[235.55002,113.12857],[-0.19141,-0.06355],[0.48943,-1.28132]],[[235.79339,109.22432],[0.44362,1.31005],[-0.15806,-0.46678]],[[234.36654,108.83718],[0.47887,0.11643],[-1.53171,-0.37239]],[[229.89216,107.34842],[1.29426,0.91983],[-0.875,0.04215]],[[226.93003,107.34842],[0.81725,-0.22839],[-1.27426,0.35609]],[[223.15035,109.69035],[1.30373,-0.49584],[-0.95461,0.36307]],[[219.7986,111.07801],[0.31723,-0.76993],[0,0]],[219.56584,111.56081],[[219.02959,112.06827],[0.3575,-0.14996],[-0.09787,0.23264]],[[218.784,112.77044],[0.06612,-0.23527],[5.18841,0.01431]]],&quot;closed&quot;:true}]}" fill="#999999" stroke="none" stroke-width="0.5"/><path d="M352.37345,159.35412c-0.44853,-0.25364 -0.94403,-0.45579 -1.47733,-0.59731c-0.30375,-0.0806 -0.60633,-0.16835 -0.90628,-0.26369c-0.23179,-0.40174 -0.64049,-0.75766 -1.35539,-0.70565c-0.14341,0.01044 -0.27334,0.03575 -0.39011,0.07248c-3.79681,-1.54403 -7.39139,-3.97883 -11.29712,-5.5741c-2.04293,-0.83443 -4.37536,-0.50928 -6.56285,-0.25874c3.32123,-3.62572 1.50756,-7.10574 -1.51754,-9.55617c0.21321,-10.20813 -1.34949,-20.79123 -0.66303,-30.88307c0.88224,1.89801 1.96645,3.55714 3.18705,4.83806c2.70456,2.83827 6.04793,2.86979 9.3887,3.11545c3.45274,0.2539 6.78705,0.94776 9.75334,-1.53039c4.11307,-3.67212 6.3004,-8.8645 6.67304,-14.60487c0.0135,-0.01422 0.02681,-0.02858 0.03995,-0.04315c1.19367,-1.32472 0.84595,-3.9475 0.7582,-5.6122c1.77891,-12.44184 -12.28902,-17.02715 -20.53893,-15.15982c-4.3558,0.98592 -8.09821,5.33099 -10.2844,9.7109c-1.10354,2.2946 -1.52624,4.94412 -1.47756,7.89314c-0.45072,0.18923 -1.06153,0.65808 -1.00032,1.81938c0.06595,1.25127 0.83973,1.60781 1.30776,1.70017c0.01742,0.11963 0.03884,0.24176 0.05777,0.36125c-0.06439,0.40833 -0.12054,0.82465 -0.18491,1.23299c-1.83227,11.99626 0.1897,24.67947 -0.11874,36.91164c-0.02682,0.04667 -0.05332,0.09595 -0.07899,0.14786c-0.40103,0.81118 -0.24469,1.44864 0.00446,1.87815c-0.11554,2.38603 -0.33773,4.75925 -0.70885,7.11323c0.17546,3.67137 0.29296,7.21743 0.10933,10.85136c-0.04325,0.85593 0.49171,2.03391 0.19825,2.70671c-0.18972,0.01084 -0.38061,0.02135 -0.57082,0.0314c-0.10264,-0.17853 -0.2109,-0.38486 -0.34692,-0.44503c-0.76551,-0.33856 -1.91132,0.05832 -2.37748,-0.73128c-0.6927,-1.17334 -0.39384,-4.1069 -0.46317,-5.42228c-0.31401,-5.95761 -0.16685,-11.87005 -0.48379,-17.88322c-0.41141,-7.80563 -0.07806,-16.35465 -1.30813,-24.03313c-0.82239,-5.13366 -2.82097,-9.60047 -3.09993,-14.89328c0,0 -0.03879,-0.79177 -0.50729,-1.30235c0.71757,-3.03645 0.87301,-5.90527 -0.56889,-8.57262c-1.87714,-3.47246 -8.39545,-2.55356 -11.30566,-4.42799c2.18203,-0.21654 4.27006,-0.28434 6.47357,0.21347c1.0134,0.03819 2.22933,0.81114 3.04816,0.10863c1.04737,-0.89855 1.48165,-5.52318 0.68949,-6.76796c-1.55307,-2.44048 -7.55902,-2.85812 -9.94561,-2.31794c-2.92844,0.66284 -5.61709,3.26769 -8.3315,4.45639c-2.19961,0.96324 -5.51628,-0.7901 -7.63778,0.68513c-0.6701,0.46597 -2.11331,3.741 -2.24918,5.26028c-1.90901,0.59857 -3.96838,1.04638 -5.89485,1.38633c-0.09664,-2.53328 0.04539,-5.16126 0.4973,-7.9221c0.17556,-1.1495 -0.04043,-6.45212 1.16357,-7.06227c5.85995,-2.96961 12.97064,-4.88054 18.88757,-8.3963c3.16629,-1.88136 5.43998,-4.03008 9.21898,-4.37167c3.4135,-2.24873 7.12198,-4.24331 10.59201,-6.31153c1.03251,-0.6154 2.2678,-0.66629 3.33285,-1.18742c-0.75149,1.00346 -1.48,2.3846 -2.0892,3.06246c-2.14598,2.38789 -4.13483,4.76631 -5.81314,7.55644l-0.01286,0.00878l-0.11828,-0.18314l-1.30183,1.16421c-0.41289,0.35761 -0.66565,0.94579 -0.63159,1.59202c0.05335,1.01214 0.75606,1.60406 1.61762,1.54139c0.26202,-0.01906 0.50663,-0.11334 0.71635,-0.26321l1.76178,-1.19816l-0.02071,-0.04188l0.10341,-0.01847c2.89956,-2.57948 6.14718,-3.0226 9.53623,-4.29409c6.53454,-2.45162 14.61483,-6.88543 20.01026,-11.8687c3.64382,-1.35622 4.78119,-3.70646 8.94387,-2.73824c2.99171,0.69587 2.74327,3.94704 3.44753,6.5853c1.93554,7.25074 3.47799,13.97921 3.87732,21.55563c0.02814,0.47909 -0.08594,1.05555 -0.07683,1.53376c-2.79783,-0.58946 -5.3423,-2.11197 -7.85433,-3.70308c-1.0299,0.03953 -2.0697,0.12298 -3.11955,0.22453c-1.16344,-7.58814 -6.71191,-5.24249 -12.19811,-5.66806c-3.17018,-0.24591 -6.98945,-0.30856 -9.97515,1.42174c-1.54798,0.8971 -2.96848,2.59255 -4.48777,3.62387l-1.24795,1.52186c0,0 -1.02461,1.19287 0.14675,2.40853c0.00952,0.00986 0.01911,0.0196 0.02859,0.02911c-0.16448,1.48394 -0.12878,3.0882 0.78598,3.86228c2.15699,1.82524 5.97974,-2.51395 7.95608,-2.90912c5.51923,-1.1036 11.57587,-0.51494 17.39229,-0.73586c0.12924,0.02442 0.27244,0.0334 0.43021,0.02192c0.11992,-0.00872 0.2303,-0.02727 0.33144,-0.0547c1.12988,-0.05736 2.25289,-0.14517 3.35881,-0.28863c2.44486,1.88799 5.28665,3.13209 8.13723,3.78903l0.34586,0.19947c-0.33175,4.75649 -1.32701,9.45118 -2.10119,13.92098c-0.0894,0.51616 -0.04498,1.04706 0.03307,1.57772c-0.76106,3.11414 -1.14084,6.41653 -1.11758,9.68645c-0.86155,4.86736 -1.59464,9.84892 -2.09575,14.86486c-3.14053,5.56922 -0.70703,11.79472 -1.03895,18.00298c-0.1661,3.1069 -1.74555,5.2035 -2.3035,8.01278c-0.71379,3.59397 -1.50136,7.12028 -3.0844,10.54032z" data-paper-data="{&quot;noHover&quot;:false,&quot;origItem&quot;:[&quot;Path&quot;,{&quot;applyMatrix&quot;:true,&quot;segments&quot;:[[[261.10017,140.92828],[-0.57678,1.92536],[0.45085,-1.50499]],[[262.83561,136.66876],[-0.21064,1.68226],[0.42092,-3.36153]],[[264.09578,126.93823],[-2.19294,2.9031],[0.48881,-2.70672]],[[265.93053,118.95768],[-0.714,2.6117],[0.09521,-1.77836]],[[266.97074,113.74708],[-0.59082,1.66267],[-0.03197,-0.29154]],[[267.00302,112.8898],[-0.07446,0.27703],[0.64483,-2.39905]],[[268.81701,105.41726],[-0.37194,2.57238],[0,0]],[[268.603,105.29547],[0,0],[-1.79822,-0.46981]],[[263.53834,102.92129],[1.4977,1.12293],[-0.71105,0.03425]],[[261.38518,102.94738],[0.72345,0.0135],[-0.06551,0.01091]],[[261.17184,102.9642],[0.07687,0],[-0.10113,0]],[[260.8981,102.93558],[0.08171,0.01838],[-3.72171,-0.1099]],[[249.78349,102.66156],[3.56164,-0.38165],[-1.27535,0.13666]],[[244.61877,103.93297],[1.31598,1.07744],[-0.5581,-0.45694]],[[244.24916,101.80282],[-0.15498,0.80013],[-0.00574,-0.00556]],[[244.23193,101.78588],[0.00574,0.00574],[-0.70711,-0.7071]],[244.23193,100.37166],[[245.08211,99.59406],[0,0],[1.00491,-0.50052]],[[248.07619,97.80312],[-1.01871,0.42643],[1.96486,-0.8225]],[[254.50576,97.42999],[-2.01615,-0.25902],[3.48906,0.44826]],[[262.11681,101.00398],[-0.48755,-4.17072],[0.67383,-0.01369]],[[264.11791,101.0071],[-0.659,-0.01923],[1.55059,0.96421]],[[269.01318,103.33725],[-1.76681,-0.43104],[0.01027,-0.26031]],[[269.0261,102.55448],[0.00185,0.26153],[0,-4.13414]],[[267.28511,90.6962],[0.99196,4.01784],[-0.36093,-1.46193]],[[265.30919,86.98363],[1.88704,0.49655],[-2.62563,-0.69089]],[[259.5104,88.12162],[2.37253,-0.59313],[-3.61316,2.49542]],[[246.34936,93.78805],[4.25537,-1.07425],[-2.20699,0.55715]],[[240.12841,95.7457],[1.93843,-1.28749],[0,0]],[240.06191,95.75164],[240.0737,95.77522],[[238.91113,96.35651],[0,0],[-0.13897,0.07317]],[[238.44592,96.47108],[0.16796,0],[-0.55229,0]],[[237.44592,95.47108],[0,0.55228],[0,-0.35262]],[[237.90412,94.63042],[-0.2757,0.17806],[0,0]],[238.77664,94.04874],[238.84611,94.15294],[[238.85464,94.14868],[0,0],[1.16565,-1.45028]],[[242.82934,90.2706],[-1.45076,1.21314],[0.41184,-0.34439]],[[244.26156,88.78838],[-0.51366,0.51574],[-0.69767,0.24116]],[[242.09703,89.30218],[0.68006,-0.29369],[-2.28553,0.98702]],[[235.13397,92.31234],[2.25549,-1.08737],[-2.4247,0.03625]],[[229.11079,94.3196],[2.08526,-0.89746],[-3.89679,1.67711]],[[216.78214,98.1236],[3.84202,-1.38249],[-0.78939,0.28405]],[[215.80471,101.91159],[0.1508,-0.61789],[-0.38152,1.48285]],[[215.22359,106.1921],[0.02355,-1.38084],[1.24166,-0.10862]],[[218.94419,105.62907],[-1.23921,0.24988],[0.1379,-0.82046]],[[220.56069,102.85337],[-0.4436,0.22679],[1.40442,-0.71801]],[[225.46503,102.77796],[-1.43705,0.43662],[1.77339,-0.53881]],[[230.94519,100.67655],[-1.89236,0.24451],[1.54222,-0.19926]],[[237.23058,102.32389],[-0.90962,-1.38799],[0.46396,0.70795]],[[236.59928,106.06825],[0.69908,-0.44702],[-0.54654,0.34949]],[[234.66168,105.88576],[0.64586,0.06083],[-1.39037,-0.35772]],[[230.47359,105.43541],[1.4007,-0.03143],[1.79531,1.13396]],[[237.55674,108.2806],[-1.08184,-1.96176],[0.831,1.50691]],[[237.68822,113.04379],[0.56043,-1.62216],[0.28199,0.29606]],[[237.97021,113.76987],[0,0],[0,2.88806]],[[239.43843,121.91166],[-0.35238,-2.82304],[0.52706,4.22245]],[[239.44592,135.02009],[0,-4.2592],[0,3.28113]],[[239.15078,144.75977],[0,-3.25081],[0,0.71775]],[[239.26333,147.72542],[-0.40285,-0.66519],[0.2711,0.44763]],[[240.75445,148.21676],[-0.47744,-0.2143],[0.08483,0.03807]],[[240.96064,148.47237],[-0.05953,-0.1011],[0.12179,0.00206]],[[241.32563,148.47785],[-0.12152,-0.00161],[0.21004,-0.35412]],[[241.29026,146.99872],[-0.05643,0.46355],[0.23958,-1.96805]],[[241.5854,141.09588],[-0.01152,2.0026],[0.31623,-1.26489]],[[242.27595,137.25733],[-0.15409,1.29241],[-0.14464,-0.24332]],[[242.33614,136.23624],[-0.28339,0.42508],[0.01814,-0.02721]],[[242.39141,136.15899],[-0.0187,0.02431],[0.60867,-6.63689]],[[243.67376,116.18361],[-1.57382,6.4484],[0.05486,-0.21941]],[[243.83832,115.52536],[-0.05486,0.21941],[-0.00806,-0.0657]],[[243.81556,115.32823],[0.0071,0.06572],[-0.29577,-0.06871]],[[243.05361,114.36016],[0,0.68277],[0,-0.63366]],[[243.74934,113.40932],[-0.29419,0.08504],[0.06817,-1.60492]],[[244.99242,109.08319],[-0.78194,1.20365],[1.54348,-2.29435]],[[251.90026,104.21825],[-2.81473,0.36369],[5.33112,-0.68882]],[[264.52549,113.30177],[1.55475,-6.69271],[0,0.90836]],[[263.85325,116.32893],[0.80685,-0.67288],[-0.00888,0.00741]],[[263.82628,116.35085],[0.0091,-0.0072],[-0.43117,3.10558]],[[259.07027,124.04646],[2.75014,-1.83343],[-1.97763,1.22977]],[[252.78569,124.50206],[2.19632,0.27454],[-2.12509,-0.26564]],[[246.88821,122.44581],[1.63156,1.64975],[-0.73633,-0.74455]],[[245.02148,119.68333],[0.4995,1.06659],[-0.77803,5.45851]],[[244.35874,136.41818],[0.47973,-5.54044],[1.84931,1.45159]],[[245.00613,141.67266],[2.24292,-1.83952],[1.40533,-0.0497]],[[249.18044,142.07441],[-1.2765,-0.53435],[2.44045,1.02158]],[[256.19835,145.55442],[-2.37262,-0.98942],[0.07581,-0.01535]],[[256.44957,145.53062],[-0.09193,0],[0.45828,0]],[[257.2906,145.96818],[-0.13449,-0.22754],[0.18833,0.06368]],[[257.85989,146.14765],[-0.19126,-0.05582],[0.33578,0.09801]],[[258.78238,146.53121],[-0.27789,-0.15561],[1.12602,-1.79645]]],&quot;closed&quot;:true}]}" fill="#999999" stroke="none" stroke-width="0.5"/><path d="M282.03327,107.35154c0.42278,1.82519 0.92808,3.62814 1.20779,5.52333c1.61925,10.97146 2.1799,21.51539 -0.79436,32.0446c-2.86203,4.96834 -10.24944,3.95797 -12.21573,-1.61552c-4.17316,-11.82887 -4.73084,-27.14314 -5.39626,-39.76818c-0.1712,-3.24804 -1.0466,-7.12764 0.79127,-9.96252c2.23357,-3.44527 10.26202,-2.74657 13.06193,-0.74607c3.08748,2.20595 3.14089,10.4014 3.34537,14.52438z" fill="#c300f0" stroke="none" stroke-width="0.5"/><path d="M362.11449,96.85142c-0.59985,-0.49219 -0.64932,-1.43074 -0.64932,-1.43074l-0.02852,-0.54092c-0.18332,-3.47819 -1.97825,-11.93665 1.00387,-14.18322c2.67997,-2.01895 7.2914,0.95976 10.01431,0.76169c4.52168,2.97836 3.81383,7.4136 4.10114,12.8647c0.65438,12.41536 1.54153,26.4576 -4.9368,36.75439c-5.29325,0.58946 -7.56295,-3.25398 -9.54749,-8.45718c-3.35856,-8.80564 -0.60341,-17.00249 0.04281,-25.76872z" fill="#c300f0" stroke="none" stroke-width="0.5"/><path d="M274.34054,95.17493c-0.26553,-0.4709 -0.29324,-0.9968 -0.29324,-0.9968l-0.05702,-1.08178c-0.04301,-0.81607 -0.29449,-4.75209 -0.08907,-5.20533c1.83123,-4.04042 8.54826,-2.40181 9.87782,1.24533c1.86678,5.12082 0.82632,14.40303 1.12123,19.99832c0.51758,9.81995 2.40161,18.9563 1.97332,28.81494c-0.15066,3.46772 -1.1527,13.76492 -6.4479,10.54012c-2.10357,-1.28108 -2.44295,-7.33165 -3.09634,-9.80235c-0.81117,-14.07713 -4.22154,-29.19908 -2.98881,-43.51247z" fill="#00b539" stroke="none" stroke-width="0.5"/><path d="M357.62512,88.05697c-0.73146,-0.45078 -0.78835,-1.53004 -0.78835,-1.53004l-0.02851,-0.54089c-0.13874,-2.8057 -0.54879,-9.61614 1.63188,-11.53008c1.17253,-1.02911 6.748,0.99436 7.59163,2.10649c1.75765,2.31699 0.75027,3.33333 0.63175,5.67367c-0.20463,4.04036 0.29541,8.18065 -0.31691,12.18971c-0.96297,5.88285 -0.79039,14.01642 0.16217,19.94996c0.60364,3.76003 2.61517,7.34643 1.95538,11.36453c-0.62948,3.83347 -4.33864,10.94013 -7.99987,6.64865c-1.27296,-1.49209 -1.27292,-4.9993 -2.42932,-6.86551c-0.60505,-7.78818 -1.57754,-16.19969 -1.32092,-24.00935c0.14923,-4.54152 0.75173,-8.95778 0.91105,-13.45715z" fill="#00b539" stroke="none" stroke-width="0.5"/><path d="M372.4059,115.22016c-3.73644,-1.34309 -2.59317,-5.73261 -2.59317,-5.73261l1.08233,-4.11709c2.43745,-18.39582 6.66901,-37.00487 5.69034,-55.57289c-0.66707,-12.91372 -2.31293,-26.8437 -6.05173,-38.97274c-1.2175,-3.94971 -1.38434,-9.93094 -3.16499,-13.52619c-2.08744,-4.21469 -8.52976,-5.42446 -12.06533,-6.07626c-8.51504,-1.56975 -16.69899,-4.22802 -25.39304,-4.60956c-22.95573,-3.65205 -52.64432,-3.26822 -63.94279,25.61284c-2.11852,5.41535 -2.4866,12.02868 -3.27506,17.83344c-0.83556,20.43546 -2.72192,41.29796 0.05451,61.77301c1.38436,10.2091 4.61822,19.98611 7.04752,29.89191c0,0 1.08175,4.411 -2.67295,5.68182c-3.75471,1.27083 -4.83645,-3.14016 -4.83645,-3.14016c-2.51599,-10.25931 -5.83818,-20.38466 -7.25248,-30.966c-2.84595,-21.29282 -1.01202,-42.92637 -0.11372,-64.18289c0.91193,-6.83159 1.47313,-14.31958 3.93764,-20.69886c12.64179,-32.72262 45.38594,-35.20522 71.73044,-30.95143c7.495,0.33747 14.73893,2.01221 22.00486,3.96869c7.40495,1.9939 16.72451,2.31931 21.38193,10.95664c2.22708,4.13017 2.47559,10.67391 3.89949,15.2801c4.00831,12.96651 5.77187,27.76689 6.51209,41.55825c1.02545,19.45576 -3.24911,38.9559 -5.87567,58.20539l-1.22403,4.73814c0,0 -1.14326,4.38952 -4.8797,3.04643z" fill="#82007c" stroke="none" stroke-width="0.5"/><path d="M281.88268,225.29978c-0.77818,-1.07498 -2.44352,-5.14583 -3.54397,-5.74325c-6.23866,-3.3869 -8.74257,0.97806 -14.10251,3.57333c-1.82419,0.14473 -4.44876,0.63511 -6.15188,-0.53786c-3.8801,-2.6723 -5.38234,-9.38578 -2.97668,-13.8149c1.47101,-2.7083 5.0732,-4.90047 5.19954,-8.40694c0.14759,-4.09603 -5.70058,-6.07093 -6.47683,-9.73662c-0.99708,-4.70855 3.58962,-8.70739 5.9115,-11.79519c0.20436,-0.27111 2.854,-3.69307 3.01095,-4.24085c0.59789,-2.08661 -0.91548,-5.51092 -1.36703,-7.29849c-1.19038,-4.71243 -4.89105,-14.1627 -3.68097,-19.05848c1.60584,-6.49701 9.58517,-9.4576 13.0799,-14.18573c0,0 1.29347,-1.72015 2.7577,-0.2006c1.46422,1.51955 0.17075,3.2397 0.17075,3.2397c-3.10983,4.08055 -10.76106,7.31033 -12.31285,12.63783c-0.68671,2.35757 1.80681,7.08987 2.4094,9.18439c1.19308,4.14692 3.92139,12.54206 2.70313,16.93021c-0.49876,1.79648 -2.72683,4.54402 -3.84256,6.03108c-0.80171,1.06617 -5.61935,5.97681 -5.09001,7.46594c1.5179,4.27012 6.74688,5.14145 6.63435,11.02831c-0.11052,5.78127 -7.31906,8.87561 -6.66245,14.15364c0.10548,0.8478 1.9085,2.3228 2.09625,2.6089c0.80238,1.22276 2.41235,1.60054 3.7247,1.51858c2.33832,-1.06879 3.12351,-2.96708 5.47034,-4.10391c3.38805,-1.64121 8.31574,-1.01151 11.50741,1.07266c2.78124,1.81616 3.90882,6.73963 6.27391,9.58127c0.02512,1.70122 0.10363,3.37414 0.23772,5.06013c-1.76617,-1.01347 -3.22539,-2.53955 -4.9798,-4.96316z" fill="#00b539" stroke="none" stroke-width="0.5"/><path d="M350.0024,74.04483c0,0 2.40859,0.40994 6.74623,1.55184c3.96193,1.04301 7.10937,2.6913 7.10937,2.6913l0.41741,2.1227c0,0 -11.61165,-4.91347 -23.81906,-2.81244c-9.76074,1.67997 -15.27074,6.28474 -15.27074,6.28474l-0.33209,-7.65987c0,0 4.7142,-3.47812 12.08794,-4.29295c7.63546,-0.84374 12.67869,0.16543 12.67869,0.16543z" data-paper-data="{&quot;index&quot;:null}" fill="#000000" stroke="none" stroke-width="1.5"/><path d="M287.84564,86.10211c0,0 5.08086,-3.71596 12.31007,-5.0932c8.01087,-1.52617 12.11192,-1.00298 12.11192,-1.00298l0.85997,7.54905c0,0 -6.04913,-0.81215 -12.55821,-0.04519c-8.7051,1.02568 -10.2275,3.38011 -16.81763,4.70254c-5.64677,1.13312 -10.49462,1.05562 -10.49462,1.05562l-0.15935,-2.25407c0,0 5.61556,-0.2724 8.1579,-0.71919c2.09836,-0.36878 6.11142,-2.17032 6.11142,-2.17032z" fill="#000000" stroke="none" stroke-width="1.5"/></g></g></svg>