<svg version="1.1" xmlns="http://www.w3.org/2000/svg" xmlns:xlink="http://www.w3.org/1999/xlink" width="189.57622" height="272.26282" viewBox="0,0,189.57622,272.26282"><g transform="translate(-225.21189,-43.166)"><g data-paper-data="{&quot;isPaintingLayer&quot;:true}" fill-rule="nonzero" stroke-linejoin="miter" stroke-miterlimit="10" stroke-dasharray="" stroke-dashoffset="0" style="mix-blend-mode: normal"><g stroke="#000000" stroke-width="2" stroke-linecap="butt"><path d="M265.31234,131.38258l-10.55956,-69.19896l7.2494,-1.10623l10.55956,69.19896z" fill="#e6de80"/><path d="M240.91298,64.29554c-1.47186,-9.64537 5.15409,-18.65768 14.79946,-20.12953c9.64537,-1.47186 18.65768,5.15409 20.12953,14.79947c1.47186,9.64537 -5.15409,18.65768 -14.79947,20.12953c-9.64537,1.47186 -18.65767,-5.15409 -20.12953,-14.79947z" fill="#ecec68"/></g><path d="M336.08333,143.85134c0,-12.0122 9.7378,-21.75 21.75,-21.75c12.01219,0 54.75,21.75 54.75,21.75c0,0 -42.73781,21.75 -54.75,21.75c-12.0122,0 -21.75,-9.73781 -21.75,-21.75z" data-paper-data="{&quot;index&quot;:null}" fill="#ecec68" stroke="#000000" stroke-width="2" stroke-linecap="butt"/><g stroke="#000000" stroke-width="2" stroke-linecap="butt"><path d="M365.38029,130.85935l9.93938,-69.29076l7.25903,1.04128l-9.93938,69.29076z" fill="#e6de80"/><path d="M361.46151,59.58072c1.38541,-9.65816 10.33801,-16.36457 19.99617,-14.97916c9.65816,1.38541 16.36457,10.33801 14.97916,19.99618c-1.38541,9.65816 -10.33802,16.36457 -19.99618,14.97916c-9.65816,-1.38541 -16.36456,-10.33801 -14.97915,-19.99618z" fill="#ecec68"/></g><path d="M282.16667,165.60134c-12.01219,0 -54.75,-21.75 -54.75,-21.75c0,0 42.73781,-21.75 54.75,-21.75c12.0122,0 21.75,9.73781 21.75,21.75c0,12.0122 -9.7378,21.75 -21.75,21.75z" data-paper-data="{&quot;index&quot;:null}" fill="#ecec68" stroke="#000000" stroke-width="2" stroke-linecap="butt"/><path d="M286.25007,314.42882l15.14285,-131.8421l37.78325,-0.15789l13.57389,132z" fill="#ecec68" stroke="#000000" stroke-width="2" stroke-linecap="butt"/><path d="M299.20029,211.04147l3.12142,-26.32765l35.83075,-0.14203l2.76735,26.1059c0,0 -7.51543,4.19603 -21.55904,4.50964c-12.48458,0.27879 -20.16049,-4.14586 -20.16049,-4.14586z" fill="#d0d05c" stroke="#000000" stroke-width="0" stroke-linecap="butt"/><path d="M255.33997,140.94752c0,-33.30185 28.7599,-60.29833 64.23702,-60.29833c35.47712,0 64.23702,26.99649 64.23702,60.29833c0,33.30185 -28.7599,60.29833 -64.23702,60.29833c-35.47712,0 -64.23702,-26.99649 -64.23702,-60.29833z" fill="#ecec68" stroke="#000000" stroke-width="2" stroke-linecap="butt"/><path d="M256.06303,141.00135c0,-0.72799 5.20666,55.91939 63.36046,56.93429c55.56352,0.9697 63.51358,-57.95314 63.51358,-56.93429c0,32.80479 -28.40173,59.39833 -63.43702,59.39833c-35.03529,0 -63.43702,-26.59354 -63.43702,-59.39833z" fill="#d0d05c" stroke="#000000" stroke-width="0" stroke-linecap="butt"/><path d="M268.89019,141.12698c0,-12.968 10.51265,-23.48065 23.48065,-23.48065c12.968,0 23.48065,10.51265 23.48065,23.48065c0,12.968 -10.51265,17.82569 -23.48065,17.82569c-12.968,0 -23.48065,-4.85769 -23.48065,-17.82569z" fill="#ffffff" stroke="#000000" stroke-width="2" stroke-linecap="butt"/><path d="M275.95557,141.10134c0,-9.12808 7.39976,-16.52784 16.52783,-16.52784c9.12808,0 16.52784,7.39977 16.52784,16.52784c0,9.12808 -7.39977,16.52784 -16.52784,16.52784c-9.12808,0 -16.52783,-7.39977 -16.52783,-16.52784z" fill="#000000" stroke="none" stroke-width="0" stroke-linecap="butt"/><path d="M332.5548,173.55191c0,0 -8.64662,3 -13.07775,3c-4.85954,0 -12.03184,-3 -12.03184,-3" fill="none" stroke="#000000" stroke-width="2" stroke-linecap="round"/><path d="M346.62926,158.24578c-12.968,0 -23.48065,-4.15082 -23.48065,-17.11882c0,-12.968 10.51265,-23.48065 23.48065,-23.48065c12.968,0 23.48065,10.51265 23.48065,23.48065c0,12.968 -10.51265,17.11882 -23.48065,17.11882z" data-paper-data="{&quot;index&quot;:null}" fill="#ffffff" stroke="#000000" stroke-width="2" stroke-linecap="butt"/><path d="M346.51671,157.62919c-9.12807,0 -16.52783,-7.39977 -16.52783,-16.52784c0,-9.12808 7.39977,-16.52784 16.52783,-16.52784c9.12807,0 16.52783,7.39977 16.52783,16.52784c0,9.12808 -7.39977,16.52784 -16.52783,16.52784z" data-paper-data="{&quot;index&quot;:null}" fill="#000000" stroke="none" stroke-width="0" stroke-linecap="butt"/><path d="M281.52786,112.56852c0,0 6.70895,-5.16922 11.79721,-6.36355c5.08827,-1.19433 12.33413,0.69937 12.33413,0.69937c0,0 -8.03812,-0.06028 -11.96762,0.86207c-4.10648,0.96389 -12.16372,4.80211 -12.16372,4.80211z" fill="#000000" stroke="none" stroke-width="0" stroke-linecap="butt"/><path d="M345.46236,107.76642c-3.9295,-0.92235 -11.96762,-0.86207 -11.96762,-0.86207c0,0 7.24586,-1.8937 12.33413,-0.69937c5.08826,1.19433 11.79721,6.36355 11.79721,6.36355c0,0 -8.05724,-3.83822 -12.16372,-4.80211z" data-paper-data="{&quot;index&quot;:null}" fill="#000000" stroke="none" stroke-width="0" stroke-linecap="butt"/><path d="M297.67361,91.12653l33.25,-19.5l-3.25,13.75l22.5,-6l-14.5,15.5" fill="#ecec68" stroke="#000000" stroke-width="2" stroke-linecap="round"/></g></g></svg>