<svg version="1.1" xmlns="http://www.w3.org/2000/svg" xmlns:xlink="http://www.w3.org/1999/xlink" width="158.82854" height="282.32926" viewBox="0,0,158.82854,282.32926"><g transform="translate(-240.42019,-41.0534)"><g data-paper-data="{&quot;isPaintingLayer&quot;:true}" fill-rule="nonzero" stroke-linejoin="miter" stroke-miterlimit="10" stroke-dasharray="" stroke-dashoffset="0" style="mix-blend-mode: normal"><path d="M255.52291,183.22848c-4.03422,1.45449 -11.62546,8.30497 -11.62546,8.30497c0,0 -3.92472,-12.14119 -1.89416,-41.01027c2.11938,-30.13182 6.09089,-33.29952 6.09089,-33.29952l22.02493,26.46425l-1.66203,38.99083c0,0 -8.78508,-0.94618 -12.93417,0.54973z" data-paper-data="{&quot;index&quot;:null}" fill="#939317" stroke="#000000" stroke-width="2" stroke-linecap="butt"/><path d="M384.34265,183.99147c-4.1311,-1.54496 -12.92677,-0.70291 -12.92677,-0.70291l-1.20002,-39.00779l22.33687,-26.20149c0,0 3.93369,3.21451 5.696,33.36933c1.68845,28.89112 -2.37984,40.98495 -2.37984,40.98495c0,0 -7.50955,-6.93991 -11.52625,-8.44209z" data-paper-data="{&quot;index&quot;:null}" fill="#939317" stroke="#000000" stroke-width="2" stroke-linecap="butt"/><path d="M287.04931,322.38266l15.14285,-131.8421l37.78325,-0.15789l13.57389,132z" fill="#b8b851" stroke="#000000" stroke-width="2" stroke-linecap="butt"/><path d="M299.99953,218.99532l3.12142,-26.32765l35.83075,-0.14203l2.76735,26.1059c0,0 -7.51543,4.19603 -21.55904,4.50964c-12.48458,0.27879 -20.16049,-4.14586 -20.16049,-4.14586z" fill="#939317" stroke="#000000" stroke-width="0" stroke-linecap="butt"/><path d="M319.57699,221.79684c-35.4765,-0.21013 -64.07598,-27.37649 -63.87875,-60.67775c0.19723,-33.30125 29.11654,-60.12692 64.59304,-59.9168c35.4765,0.21014 64.07599,27.37649 63.87875,60.67776c-0.19723,33.30125 -29.11655,60.12693 -64.59304,59.9168z" data-paper-data="{&quot;index&quot;:null}" fill="#b8b851" stroke="#000000" stroke-width="2" stroke-linecap="butt"/><path d="M383.44669,161.9296c-0.1943,32.80423 -28.75304,59.22907 -63.78772,59.02156c-35.03468,-0.20752 -63.2784,-26.96882 -63.0841,-59.77302c0.00603,-1.01883 7.60696,57.95006 63.17525,57.30948c58.15879,-0.67044 63.70087,-57.28598 63.69656,-56.55801z" data-paper-data="{&quot;index&quot;:null}" fill="#939317" stroke="#000000" stroke-width="0" stroke-linecap="butt"/><path d="M346.99822,185.57042c-12.96778,-0.07681 -23.41797,-10.65154 -23.34116,-23.6193c0.0768,-12.96777 10.65154,-23.41797 23.61931,-23.34116c12.96778,0.07681 23.41796,10.65155 23.34116,23.61932c-0.0768,12.96777 -10.65154,23.41797 -23.6193,23.34116z" data-paper-data="{&quot;index&quot;:null}" fill="#ffffff" stroke="#000000" stroke-width="2" stroke-linecap="butt"/><path d="M346.92847,178.34144c-9.12791,-0.05406 -16.48373,-7.49752 -16.42966,-16.62544c0.05406,-9.12792 7.49752,-16.48372 16.62544,-16.42966c9.12791,0.05406 16.48372,7.49752 16.42965,16.62544c-0.05406,9.12791 -7.4975,16.48373 -16.62543,16.42966z" data-paper-data="{&quot;index&quot;:null}" fill="#000000" stroke="none" stroke-width="0" stroke-linecap="butt"/><path d="M312.7362,205.23176c0,0 9.31875,1.49814 13.59412,0.94775c4.00882,-0.51607 6.6612,-4.95646 11.30996,-4.15376c4.64876,0.8027 0.63023,6.21546 0.63023,6.21546c0,0 -4.0318,4.31316 -7.21883,3.93754c-3.18703,-0.37562 -18.31547,-6.947 -18.31547,-6.947z" data-paper-data="{&quot;index&quot;:null}" fill="#000000" stroke="#000000" stroke-width="2" stroke-linecap="round"/><path d="M269.39957,161.62972c0.0768,-12.96777 10.65154,-23.41798 23.6193,-23.34117c12.96778,0.07681 23.41797,10.65156 23.34116,23.61931c-0.0768,12.96777 -10.65155,23.41797 -23.61931,23.34116c-12.96778,-0.07681 -23.41796,-10.65154 -23.34116,-23.61931z" data-paper-data="{&quot;index&quot;:null}" fill="#ffffff" stroke="#000000" stroke-width="2" stroke-linecap="butt"/><path d="M276.46645,161.39595c0.05406,-9.12792 7.49752,-16.48372 16.62543,-16.42966c9.12791,0.05406 16.48372,7.49753 16.42964,16.62545c-0.05406,9.12791 -7.49752,16.48371 -16.62543,16.42965c-9.12791,-0.05406 -16.48372,-7.49752 -16.42965,-16.62544z" data-paper-data="{&quot;index&quot;:null}" fill="#000000" stroke="none" stroke-width="0" stroke-linecap="butt"/><path d="M370.61754,162.22927c-0.00729,1.23153 -46.96048,-0.27815 -46.96048,-0.27815c0.0768,-12.96777 10.65154,-23.41797 23.61931,-23.34116c12.96778,0.07681 23.41796,10.65155 23.34116,23.61932z" data-paper-data="{&quot;index&quot;:null}" fill="#939317" stroke="#000000" stroke-width="2" stroke-linecap="butt"/><path d="M316.36004,161.90789c0,0 -46.96768,0.93562 -46.96048,-0.27815c0.0768,-12.96777 10.65154,-23.41797 23.6193,-23.34116c12.96778,0.07681 23.41797,10.65155 23.34116,23.61931z" data-paper-data="{&quot;index&quot;:null}" fill="#939317" stroke="#000000" stroke-width="2" stroke-linecap="butt"/><path d="M358.15072,133.34644c0,0 -8.03437,-3.88588 -12.13507,-4.87407c-3.92397,-0.94562 -11.9623,-0.93294 -11.9623,-0.93294c0,0 7.25693,-1.85075 12.33805,-0.62629c5.08109,1.22446 11.75931,6.43332 11.75931,6.43332z" data-paper-data="{&quot;index&quot;:null}" fill="#000000" stroke="none" stroke-width="0" stroke-linecap="butt"/><path d="M282.05381,132.89571c0,0 6.73946,-5.12939 11.8347,-6.29356c5.09526,-1.16417 12.32977,0.77242 12.32977,0.77242c0,0 -8.03762,-0.10789 -11.97252,0.79117c-4.11211,0.93956 -12.19195,4.72997 -12.19195,4.72997z" data-paper-data="{&quot;index&quot;:null}" fill="#000000" stroke="none" stroke-width="0" stroke-linecap="butt"/><path d="M357.02889,111.61883c-0.94252,5.62858 -6.26944,9.42737 -11.89802,8.48486c-5.62856,-0.9425 -9.42738,-6.26944 -8.48485,-11.89801c0.94252,-5.62857 20.70618,-61.08581 20.70618,-61.08581c0,0 0.61921,58.87041 -0.32331,64.49899z" data-paper-data="{&quot;index&quot;:null}" fill="#939317" stroke="#000000" stroke-width="2" stroke-linecap="butt"/><path d="M295.0133,119.80684c-5.63934,0.87579 -10.92088,-2.98586 -11.79666,-8.6252c-0.87577,-5.63934 0.44075,-64.49828 0.44075,-64.49828c0,0 19.10534,55.68748 19.98112,61.32681c0.87579,5.63933 -2.98587,10.92088 -8.6252,11.79666z" data-paper-data="{&quot;index&quot;:null}" fill="#939317" stroke="#000000" stroke-width="2" stroke-linecap="butt"/></g></g></svg>