<svg version="1.1" xmlns="http://www.w3.org/2000/svg" xmlns:xlink="http://www.w3.org/1999/xlink" width="223.64444" height="269.44853" viewBox="0,0,223.64444,269.44853"><g transform="translate(-200.34944,-45.9803)"><g data-paper-data="{&quot;isPaintingLayer&quot;:true}" stroke-miterlimit="10" stroke-dasharray="" stroke-dashoffset="0" style="mix-blend-mode: normal"><path d="M290.72614,314.42882l13.62477,-131.8421l33.99545,-0.15789l12.2131,132z" fill="#ecec68" fill-rule="nonzero" stroke="#000000" stroke-width="2" stroke-linecap="butt" stroke-linejoin="miter"/><path d="M296.57572,267.16265l8.45591,-81.82486l32.57503,-0.15129l7.60398,82.1843c0,0 -14.59301,4.84164 -24.23451,4.80038c-9.6415,-0.04126 -24.40041,-5.00852 -24.40041,-5.00852z" fill="#c8c824" fill-rule="nonzero" stroke="#000000" stroke-width="0" stroke-linecap="butt" stroke-linejoin="miter"/><g fill-rule="nonzero" stroke="#000000" stroke-width="2" stroke-linecap="butt" stroke-linejoin="miter"><path d="M285.61128,131.7336l-67.55195,-18.35031l1.92242,-7.07686l67.55195,18.35031z" fill="#ffe9b3"/><path d="M214.38927,126.89368c-9.4158,-2.55778 -14.97534,-12.26429 -12.41756,-21.68009c2.55778,-9.4158 12.26429,-14.97534 21.6801,-12.41756c9.4158,2.55778 14.97534,12.26429 12.41756,21.6801c-2.55778,9.4158 -12.26429,14.97533 -21.6801,12.41755z" fill="#dccd27"/></g><g fill-rule="nonzero" stroke="#000000" stroke-width="2" stroke-linecap="butt" stroke-linejoin="miter"><path d="M364.38545,121.54719l37.85538,-58.88098l6.16848,3.96581l-37.85538,58.88098z" fill="#ffe9b3"/><path d="M390.46463,55.09514c5.27651,-8.20718 16.20723,-10.58298 24.41441,-5.30647c8.20718,5.27651 10.58298,16.20723 5.30646,24.41442c-5.27651,8.20718 -16.20724,10.58297 -24.41442,5.30646c-8.20718,-5.27651 -10.58297,-16.20722 -5.30645,-24.41442z" fill="#dccd27"/></g><path d="M295.43464,251.66804l7.58416,-69.08131l36.11546,-0.15789l6.82766,69.46209c0,0 -1.63411,6.69929 -25.4124,6.56159c-22.03251,-0.12759 -25.11488,-6.78449 -25.11488,-6.78449z" fill="#dccd27" fill-rule="nonzero" stroke="#000000" stroke-width="2" stroke-linecap="butt" stroke-linejoin="miter"/><path d="M296.92485,228.53569l5.27751,-45.94896l37.78325,-0.15789l4.67444,45.45686c0,0 -7.00642,7.16153 -24.11741,7.06682c-17.11099,-0.09472 -23.61779,-6.41683 -23.61779,-6.41683z" fill="#dccd27" fill-rule="nonzero" stroke="#000000" stroke-width="2" stroke-linecap="butt" stroke-linejoin="miter"/><path d="M300.00973,211.04147l3.12142,-26.32765l35.83075,-0.14203l2.76735,26.1059c0,0 -7.51543,4.19603 -21.55904,4.50964c-12.48458,0.27879 -20.16049,-4.14586 -20.16049,-4.14586z" fill="#b2a730" fill-rule="nonzero" stroke="#000000" stroke-width="0" stroke-linecap="butt" stroke-linejoin="miter"/><path d="M264.49709,157.09183c-5.44218,-32.85416 18.51933,-64.18765 53.51951,-69.98532c35.00019,-5.79767 67.78522,16.13596 73.2274,48.99011c5.44218,32.85416 -18.51933,64.18765 -53.51951,69.98532c-35.00019,5.79767 -67.78522,-16.13596 -73.2274,-48.99011z" fill="#b9b912" fill-rule="nonzero" stroke="#000000" stroke-width="2" stroke-linecap="butt" stroke-linejoin="miter"/><path d="M265.21925,157.0268c-0.11897,-0.7182 14.275,54.31677 71.81287,45.81454c54.97503,-8.12352 53.18905,-67.55343 53.35555,-66.54828c5.36095,32.36378 -18.31305,63.24122 -52.87735,68.96668c-34.5643,5.72546 -66.93012,-15.86916 -72.29108,-48.23295z" fill="#c8c824" fill-rule="nonzero" stroke="#000000" stroke-width="0" stroke-linecap="butt" stroke-linejoin="miter"/><path d="M311.70406,172.91854l39.8058,-6.5937c2.41164,-0.39948 4.67472,1.22041 5.0742,3.63204l2.99481,18.07948c0.39948,2.41163 -1.22041,4.67472 -3.63204,5.0742l-39.80579,6.5937c-2.41163,0.39948 -4.67473,-1.22041 -5.07421,-3.63204l-2.99481,-18.07948c-0.39948,-2.41163 1.22041,-4.67472 3.63205,-5.0742z" fill="#000000" fill-rule="evenodd" stroke="#000000" stroke-width="2" stroke-linecap="round" stroke-linejoin="round"/><path d="M269.39561,119.18233l104.83593,-17.36573c6.35149,-1.0521 12.31174,3.21419 13.36384,9.56566l7.88738,47.61565c1.0521,6.35147 -3.21418,12.31175 -9.56565,13.36385l-104.83592,17.36572c-6.35147,1.0521 -12.31176,-3.21418 -13.36386,-9.56565l-7.88738,-47.61565c-1.0521,-6.35146 3.21419,-12.31175 9.56567,-13.36386z" fill="#dccd27" fill-rule="evenodd" stroke="#000000" stroke-width="2" stroke-linecap="round" stroke-linejoin="round"/><path d="M278.09305,123.15177l89.18553,-14.77329c5.40331,-0.89504 10.47379,2.73435 11.36883,8.13765l6.70991,40.50736c0.89504,5.40329 -2.73435,10.47379 -8.13765,11.36883l-89.18551,14.77329c-5.40329,0.89504 -10.47381,-2.73435 -11.36885,-8.13764l-6.70991,-40.50736c-0.89504,-5.40329 2.73436,-10.47379 8.13766,-11.36883z" fill="#000000" fill-rule="evenodd" stroke="#000000" stroke-width="2" stroke-linecap="round" stroke-linejoin="round"/><path d="M348.53973,182.87352c0,0 -0.01804,8.92654 -13.20328,11.14339c-10.9482,1.84073 -15.54782,-5.96624 -15.54782,-5.96624" fill="none" fill-rule="nonzero" stroke="#ecec68" stroke-width="2" stroke-linecap="round" stroke-linejoin="miter"/><path d="M308.57482,156.74165c1.72718,10.42689 -0.75258,19.52224 -5.53869,20.31504c-4.78611,0.7928 -10.06618,-7.01716 -11.79336,-17.44405c-1.72718,-10.42689 0.75258,-19.52224 5.53869,-20.31504c4.78611,-0.7928 10.06618,7.01716 11.79336,17.44405z" fill="#ecec68" fill-rule="nonzero" stroke="none" stroke-width="0" stroke-linecap="butt" stroke-linejoin="miter"/><path d="M361.87932,134.6044c1.72718,10.42688 -0.75257,19.52224 -5.53869,20.31504c-4.78611,0.7928 -10.06618,-7.01716 -11.79336,-17.44405c-1.72718,-10.42688 0.75258,-19.52224 5.53869,-20.31504c4.78611,-0.7928 10.06618,7.01717 11.79336,17.44405z" fill="#ecec68" fill-rule="nonzero" stroke="none" stroke-width="0" stroke-linecap="butt" stroke-linejoin="miter"/></g></g></svg>