<svg version="1.1" xmlns="http://www.w3.org/2000/svg" xmlns:xlink="http://www.w3.org/1999/xlink" width="172.78427" height="232.52922" viewBox="0,0,172.78427,232.52922"><g transform="translate(-232.42985,-75.11071)"><g data-paper-data="{&quot;isPaintingLayer&quot;:true}" fill-rule="nonzero" stroke-linejoin="miter" stroke-miterlimit="10" stroke-dasharray="" stroke-dashoffset="0" style="mix-blend-mode: normal"><path d="M356.33453,141.95353c-5.87511,-4.60086 -6.40048,-13.01379 -1.17345,-18.7908c5.22703,-5.777 47.61866,-32.54131 47.61866,-32.54131c0,0 -21.11598,43.42549 -26.343,49.20249c-5.22703,5.77701 -14.2271,6.73047 -20.10221,2.12961z" data-paper-data="{&quot;index&quot;:null}" fill="#989843" stroke="#000000" stroke-width="2" stroke-linecap="butt"/><path d="M261.20723,139.82392c-5.22703,-5.777 -26.343,-49.20249 -26.343,-49.20249c0,0 42.39164,26.7643 47.61867,32.54131c5.22703,5.77701 4.70166,14.18994 -1.17345,18.7908c-5.87511,4.60086 -14.87518,3.64739 -20.10221,-2.12961z" fill="#989843" stroke="#000000" stroke-width="2" stroke-linecap="butt"/><path d="M285.16238,306.63993l14.93332,-120.959l37.26044,-0.14486l13.38607,121.10386z" fill="#c5c556" stroke="#000000" stroke-width="2" stroke-linecap="butt"/><path d="M297.93343,211.78682l3.07823,-24.15439l35.33495,-0.13031l2.72906,23.95095c0,0 -7.41144,3.84966 -21.26072,4.13739c-12.31183,0.25578 -19.88153,-3.80363 -19.88153,-3.80363z" fill="#acac4c" stroke="#000000" stroke-width="0" stroke-linecap="butt"/><path d="M254.67187,153.85573c0,-30.5529 28.36195,-55.32091 63.34816,-55.32091c34.98622,0 63.34816,24.76802 63.34816,55.32091c0,30.5529 -28.36195,55.32091 -63.34816,55.32091c-34.98622,0 -63.34816,-24.76802 -63.34816,-55.32091z" fill="#c5c556" stroke="#000000" stroke-width="2" stroke-linecap="butt"/><path d="M255.97393,153.36471c0,-0.6679 5.13461,51.30344 62.48373,52.23456c54.79468,0.88965 62.63473,-53.16931 62.63473,-52.23456c0,30.09687 -28.00873,54.49521 -62.55923,54.49521c-34.5505,0 -62.55923,-24.39834 -62.55923,-54.49521z" fill="#acac4c" stroke="#000000" stroke-width="0" stroke-linecap="butt"/><path d="M268.62359,153.70934c0,-11.89754 10.36718,-21.5424 23.15574,-21.5424c12.78856,0 23.15574,9.64487 23.15574,21.5424c0,11.89754 -10.36718,21.5424 -23.15574,21.5424c-12.78856,0 -23.15574,-9.64487 -23.15574,-21.5424z" fill="#ffffff" stroke="#000000" stroke-width="2" stroke-linecap="butt"/><path d="M345.28699,175.25174c-12.78856,0 -23.15574,-9.64487 -23.15574,-21.5424c0,-11.89754 10.36718,-21.5424 23.15574,-21.5424c12.78856,0 23.15574,9.64487 23.15574,21.5424c0,11.89754 -10.36718,21.5424 -23.15574,21.5424z" data-paper-data="{&quot;index&quot;:null}" fill="#ffffff" stroke="#000000" stroke-width="2" stroke-linecap="butt"/><path d="M285.77127,128.27668c0,0 11.81569,0.15803 18.39735,3.04729c6.58167,2.88926 12.81653,10.65517 12.81653,10.65517c0,0 -8.69773,-6.54218 -13.78055,-8.77345c-5.31174,-2.33176 -17.43334,-4.92901 -17.43334,-4.92901z" fill="#000000" stroke="none" stroke-width="0" stroke-linecap="butt"/><path d="M334.55186,129.25587c-4.96583,2.44147 -13.32644,9.34014 -13.32644,9.34014c0,0 5.83848,-8.01786 12.26869,-11.1793c6.43019,-3.16144 18.22688,-3.81398 18.22688,-3.81398c0,0 -11.97963,3.1017 -17.16913,5.65314z" data-paper-data="{&quot;index&quot;:null}" fill="#000000" stroke="none" stroke-width="0" stroke-linecap="butt"/><path d="M309.59738,100.30137c0,-3.22146 8.97408,-22.79157 8.97408,-22.79157c0,0 8.97408,19.57012 8.97408,22.79157c0,3.22146 -4.01783,5.83298 -8.97408,5.83298c-4.95625,0 -8.97408,-2.61151 -8.97408,-5.83298z" fill="#989843" stroke="#000000" stroke-width="2" stroke-linecap="butt"/><path d="M343.15389,105.98886c1.35421,-2.96489 17.84028,-17.71127 17.84028,-17.71127c0,0 0.03262,21.27655 -1.32159,24.24144c-1.35421,2.96489 -6.14985,3.90658 -10.71136,2.10333c-4.56152,-1.80325 -7.16153,-5.6686 -5.80734,-8.63349z" fill="#989843" stroke="#000000" stroke-width="2" stroke-linecap="butt"/><path d="M290.39905,114.31654c-4.56152,1.80325 -9.35716,0.86156 -10.71137,-2.10333c-1.35421,-2.96489 -1.32159,-24.24144 -1.32159,-24.24144c0,0 16.48607,14.74639 17.84028,17.71127c1.35421,2.96489 -1.24582,6.83023 -5.80733,8.63349z" data-paper-data="{&quot;index&quot;:null}" fill="#989843" stroke="#000000" stroke-width="2" stroke-linecap="butt"/><path d="M328.33107,159.41625c0,-6.42275 5.67512,-11.62941 12.67575,-11.62941c7.00063,0 12.67575,5.20667 12.67575,11.62941c0,6.42275 -5.67513,11.62941 -12.67575,11.62941c-7.00063,0 -12.67575,-5.20667 -12.67575,-11.62941z" fill="#000000" stroke="none" stroke-width="0" stroke-linecap="butt"/><path d="M310.0202,195.63876c-6.2863,-0.21741 -6.19887,-8.20709 -6.19887,-8.20709c0,0 12.40239,-2.17406 17.33633,-2.17406c4.98251,0 15.02106,1.52184 15.02106,1.52184c0,0 -15.37749,9.23216 -26.15852,8.85931z" fill="#ffffff" stroke="#000000" stroke-width="2" stroke-linecap="round"/><path d="M333.7025,188.18386c0,0 -14.11512,3.70309 -19.56796,3.30124c-5.20078,-0.38329 -10.25041,-2.39538 -10.25041,-2.39538" fill="none" stroke="#000000" stroke-width="0.5" stroke-linecap="round"/><path d="M282.6755,159.11509c0,-6.42275 5.67513,-11.62941 12.67575,-11.62941c7.00063,0 12.67575,5.20667 12.67575,11.62941c0,6.42275 -5.67513,11.62941 -12.67575,11.62941c-7.00063,0 -12.67575,-5.20667 -12.67575,-11.62941z" fill="#000000" stroke="none" stroke-width="0" stroke-linecap="butt"/></g></g></svg>