<svg version="1.1" xmlns="http://www.w3.org/2000/svg" xmlns:xlink="http://www.w3.org/1999/xlink" width="243.75687" height="344.47508" viewBox="0,0,243.75687,344.47508"><g transform="translate(-198.12157,-7.76246)"><g data-paper-data="{&quot;isPaintingLayer&quot;:true}" fill="#000000" fill-rule="nonzero" stroke-linejoin="miter" stroke-miterlimit="10" stroke-dasharray="" stroke-dashoffset="0" style="mix-blend-mode: normal"><g stroke="#000000" stroke-width="2" stroke-linecap="butt"><path d="M283.61414,100.04027l-64.76812,-64.76812l6.78523,-6.78522l64.76811,64.76812z"/><path d="M205.8924,48.22577c-9.02778,-9.02778 -9.02778,-23.6647 0,-32.69248c9.02778,-9.02778 23.6647,-9.02778 32.69248,0c9.02778,9.02778 9.02778,23.6647 0,32.69248c-9.02778,9.02778 -23.6647,9.02778 -32.69248,0z"/></g><g data-paper-data="{&quot;index&quot;:null}" stroke="#000000" stroke-width="2" stroke-linecap="butt"><path d="M349.60063,93.25503l64.76812,-64.76811l6.78522,6.78522l-64.76811,64.76812z"/><path d="M401.41512,48.22577c-9.02778,-9.02778 -9.02778,-23.6647 0,-32.69248c9.02778,-9.02778 23.6647,-9.02778 32.69248,0c9.02778,9.02778 9.02778,23.6647 0,32.69248c-9.02778,9.02778 -23.6647,9.02778 -32.69248,0z"/></g><path d="M275.91546,351.23752l19.81462,-172.51718l49.4399,-0.2066l17.76162,172.72379z" stroke="#000000" stroke-width="2" stroke-linecap="butt"/><path d="M292.861,215.95375l4.08442,-34.45009l46.88502,-0.18585l3.62112,34.15992c0,0 -9.83404,5.49056 -28.2103,5.90093c-16.33624,0.3648 -26.38027,-5.42491 -26.38027,-5.42491z" stroke="#000000" stroke-width="0" stroke-linecap="butt"/><path d="M235.46917,127.93466c0,-43.57592 37.63272,-78.90118 84.05501,-78.90118c46.42229,0 84.05501,35.32527 84.05501,78.90118c0,43.57592 -37.63272,78.90118 -84.05501,78.90118c-46.42229,0 -84.05501,-35.32527 -84.05501,-78.90118z" stroke="#000000" stroke-width="2" stroke-linecap="butt"/><path d="M236.41531,128.00511c0,-0.95258 6.81299,73.17128 82.90802,74.49929c72.70562,1.26887 83.10838,-75.83247 83.10838,-74.49929c0,42.92551 -37.16405,77.72352 -83.0082,77.72352c-45.84415,0 -83.0082,-34.79801 -83.0082,-77.72352z" stroke="#000000" stroke-width="0" stroke-linecap="butt"/><path d="M253.19982,128.49663c0,-16.9688 13.75595,-30.72475 30.72475,-30.72475c16.9688,0 30.72475,13.75595 30.72475,30.72475c0,16.9688 -13.75595,30.72475 -30.72475,30.72475c-16.9688,0 -30.72475,-13.75595 -30.72475,-30.72475z" stroke="#000000" stroke-width="2" stroke-linecap="butt"/><path d="M262.44497,128.13596c0,-11.94422 9.68269,-21.6269 21.62689,-21.6269c11.94422,0 21.6269,9.6827 21.6269,21.6269c0,11.94422 -9.6827,21.6269 -21.6269,21.6269c-11.94422,0 -21.62689,-9.6827 -21.62689,-21.6269z" stroke="none" stroke-width="0" stroke-linecap="butt"/><path d="M354.92245,159.22136c-16.9688,0 -30.72475,-13.75595 -30.72475,-30.72475c0,-16.9688 13.75595,-30.72475 30.72475,-30.72475c16.9688,0 30.72475,13.75595 30.72475,30.72475c0,16.9688 -13.75595,30.72475 -30.72475,30.72475z" data-paper-data="{&quot;index&quot;:null}" stroke="#000000" stroke-width="2" stroke-linecap="butt"/><path d="M354.77517,149.76287c-11.9442,0 -21.62689,-9.6827 -21.62689,-21.6269c0,-11.94422 9.6827,-21.6269 21.62689,-21.6269c11.9442,0 21.62689,9.6827 21.62689,21.6269c0,11.94422 -9.6827,21.6269 -21.62689,21.6269z" data-paper-data="{&quot;index&quot;:null}" stroke="none" stroke-width="0" stroke-linecap="butt"/><path d="M253.19982,128.49663c0,-16.9688 13.75595,-30.72475 30.72475,-30.72475c16.9688,0 30.72475,13.75595 30.72475,30.72475c0,0 -61.44951,1.6115 -61.44951,0z" stroke="#000000" stroke-width="2" stroke-linecap="butt"/><path d="M324.19772,128.49663c0,-16.9688 13.75595,-30.72475 30.72475,-30.72475c16.9688,0 30.72475,13.75595 30.72475,30.72475c0,1.58827 -61.44951,0 -61.44951,0z" data-paper-data="{&quot;index&quot;:null}" stroke="#000000" stroke-width="2" stroke-linecap="butt"/><path d="M233.86197,107.38905l-9.65712,3.92554c0,0 -0.81106,-100.18758 96.1513,-100.31936c96.48318,-0.13113 94.89168,101.19171 94.89168,101.19171l-11.33662,-5.23405c0,0 0.00589,-84.87244 -83.55505,-86.79807c-80.92327,-1.86484 -86.49419,87.23424 -86.49419,87.23424z" stroke="#000000" stroke-width="2" stroke-linecap="butt"/><path d="M335.93249,180.02695c0,0 -5.36056,5.23405 -16.89377,5.42098c-9.50746,0.1541 -15.96247,-5.42098 -15.96247,-5.42098" stroke="#000000" stroke-width="2" stroke-linecap="round"/><path d="M212.31917,128.56759c0,-16.38057 11.88201,-29.65965 26.53922,-29.65965c1.32715,0 1.55236,59.31928 0,59.31928c-14.65721,0 -26.53922,-13.27907 -26.53922,-29.65963z" stroke="#000000" stroke-width="2" stroke-linecap="butt"/><path d="M232.0393,159.97191v-63.24483h13.26961v63.24483z" stroke="#000000" stroke-width="2" stroke-linecap="butt"/><path d="M401.14863,158.22722c-1.55236,0 -1.32713,-59.31928 0,-59.31928c14.65721,0 26.53923,13.27907 26.53923,29.65965c0,16.38056 -11.88202,29.65963 -26.53923,29.65963z" data-paper-data="{&quot;index&quot;:null}" stroke="#000000" stroke-width="2" stroke-linecap="butt"/><path d="M394.22378,159.97191v-63.24483h13.26961v63.24483z" stroke="#000000" stroke-width="2" stroke-linecap="butt"/><path d="M342.47388,58.70977l6.32448,27.91495l-31.18624,-15.04791l1.74468,14.82983l-30.09581,-23.55324" stroke="#000000" stroke-width="2" stroke-linecap="round"/><path d="M269.73638,90.80035c0,0 8.77875,-6.76399 15.43681,-8.32679c6.65807,-1.5628 16.13938,0.91514 16.13938,0.91514c0,0 -10.51799,-0.07888 -15.65979,1.12803c-5.37338,1.26126 -15.91639,6.28363 -15.91639,6.28363z" stroke="none" stroke-width="0" stroke-linecap="butt"/><path d="M353.39554,84.51674c-5.1418,-1.20691 -15.65979,-1.12803 -15.65979,-1.12803c0,0 9.48131,-2.47793 16.13938,-0.91514c6.65806,1.5628 15.43681,8.32679 15.43681,8.32679c0,0 -10.54301,-5.02236 -15.91639,-6.28363z" data-paper-data="{&quot;index&quot;:null}" stroke="none" stroke-width="0" stroke-linecap="butt"/><g stroke-linecap="butt"><g stroke="#000000" stroke-width="1"><path d="M246.23568,158.31756v-35.40717h63.26506l3.47338,35.66944z"/><path d="M309.50078,122.91039l2.97718,35.40717c0,0 -22.88776,0.74431 -33.98948,0.74431c-10.97764,0 -32.25277,-0.74431 -32.25277,-0.74431v-35.40717z" data-paper-data="{&quot;index&quot;:null}"/></g><g data-paper-data="{&quot;index&quot;:null}" stroke="#000000" stroke-width="1"><path d="M328.60434,158.05527l3.47338,-35.66944h63.26506l-7.44294,35.66944z"/><path d="M396.33514,122.38583l-8.18724,35.93173c0,0 -19.21679,1.31566 -29.01406,1.22863c-9.88443,-0.08783 -30.03334,-1.75319 -30.03334,-1.75319c0,0 0.19286,-27.3214 0.2278,-32.26787c0.01043,-1.47701 0.02031,-2.87705 0.02031,-2.87705z" data-paper-data="{&quot;index&quot;:null}"/></g><path d="M309.74884,129.72954v-7.86826h21.08834v7.86826c0,0 -7.17442,-3.67185 -10.66822,-3.67185c-3.53517,0 -10.42013,3.67185 -10.42013,3.67185z" stroke="none" stroke-width="0"/></g></g></g></svg>