<svg version="1.1" xmlns="http://www.w3.org/2000/svg" xmlns:xlink="http://www.w3.org/1999/xlink" width="606.94462" height="281.76337" viewBox="0,0,606.94462,281.76337"><defs><linearGradient x1="105.3903" y1="95.91303" x2="116.57935" y2="100.82911" gradientUnits="userSpaceOnUse" id="color-1"><stop offset="0" stop-color="#131308"/><stop offset="1" stop-color="#131308" stop-opacity="0"/></linearGradient><linearGradient x1="95.49018" y1="116.23174" x2="107.28255" y2="121.4129" gradientUnits="userSpaceOnUse" id="color-2"><stop offset="0" stop-color="#151509"/><stop offset="1" stop-color="#151509" stop-opacity="0"/></linearGradient><linearGradient x1="193.0407" y1="217.80391" x2="193.0407" y2="243.13289" gradientUnits="userSpaceOnUse" id="color-3"><stop offset="0" stop-color="#91913f"/><stop offset="1" stop-color="#91913f" stop-opacity="0"/></linearGradient><radialGradient cx="414.75268" cy="234.89621" r="7.41132" gradientUnits="userSpaceOnUse" id="color-4"><stop offset="0" stop-color="#000000"/><stop offset="1" stop-color="#000000" stop-opacity="0"/></radialGradient><linearGradient x1="424.07374" y1="241.65937" x2="429.11387" y2="245.06553" gradientUnits="userSpaceOnUse" id="color-5"><stop offset="0" stop-color="#151515"/><stop offset="1" stop-color="#151515" stop-opacity="0"/></linearGradient><linearGradient x1="562.81887" y1="146.66143" x2="562.81887" y2="187.3706" gradientUnits="userSpaceOnUse" id="color-6"><stop offset="0" stop-color="#000000"/><stop offset="1" stop-color="#d7d75e"/></linearGradient></defs><g transform="translate(-18.72559,-41.38445)"><g data-paper-data="{&quot;isPaintingLayer&quot;:true}" stroke-miterlimit="10" stroke-dasharray="" stroke-dashoffset="0" style="mix-blend-mode: normal"><path d="M46.7832,320.81825l13.25552,-115.40992l33.07412,-0.13821l11.8821,115.54814z" fill="#959541" fill-rule="nonzero" stroke="#000000" stroke-width="2" stroke-linecap="butt" stroke-linejoin="miter"/><path d="M58.11936,230.31659l2.73238,-23.0463l31.36497,-0.12433l2.42244,22.85218c0,0 -6.57874,3.67306 -18.87202,3.94758c-10.92856,0.24404 -17.64778,-3.62914 -17.64778,-3.62914z" fill="#7d7d37" fill-rule="nonzero" stroke="#000000" stroke-width="0" stroke-linecap="butt" stroke-linejoin="miter"/><path d="M19.72559,171.4339c0,-29.15126 25.1754,-52.78303 56.23082,-52.78303c31.05542,0 56.23082,23.63177 56.23082,52.78303c0,29.15126 -25.1754,52.78303 -56.23082,52.78303c-31.05542,0 -56.23082,-23.63177 -56.23082,-52.78303z" fill="#959541" fill-rule="nonzero" stroke="#000000" stroke-width="2" stroke-linecap="butt" stroke-linejoin="miter"/><path d="M20.35851,171.48103c0,-0.63726 4.55773,48.94986 55.46351,49.83827c48.63834,0.84884 55.59755,-50.73013 55.59755,-49.83827c0,28.71616 -24.86187,51.9952 -55.53053,51.9952c-30.66866,0 -55.53053,-23.27905 -55.53053,-51.9952z" fill="#7d7d37" fill-rule="nonzero" stroke="#000000" stroke-width="0" stroke-linecap="butt" stroke-linejoin="miter"/><path d="M31.58698,171.80984c0,-11.35173 9.2024,-20.55413 20.55413,-20.55413c11.35173,0 20.55413,9.2024 20.55413,20.55413c0,11.35173 -9.2024,20.55413 -20.55413,20.55413c-11.35173,0 -20.55413,-9.2024 -20.55413,-20.55413z" fill="#ffffff" fill-rule="nonzero" stroke="#000000" stroke-width="2" stroke-linecap="butt" stroke-linejoin="miter"/><path d="M32.08188,173.53813c0,-7.9904 6.47749,-14.46789 14.46788,-14.46789c7.9904,0 14.46789,6.4775 14.46789,14.46789c0,7.9904 -6.4775,14.46789 -14.46789,14.46789c-7.9904,0 -14.46788,-6.4775 -14.46788,-14.46789z" fill="#000000" fill-rule="nonzero" stroke="none" stroke-width="0" stroke-linecap="butt" stroke-linejoin="miter"/><path d="M64.95313,206.2824h21.98005" fill="none" fill-rule="nonzero" stroke="#000000" stroke-width="2" stroke-linecap="round" stroke-linejoin="miter"/><path d="M99.63702,192.36396c-11.35173,0 -20.55413,-9.2024 -20.55413,-20.55413c0,-11.35173 9.2024,-20.55413 20.55413,-20.55413c11.35173,0 20.55413,9.2024 20.55413,20.55413c0,11.35173 -9.2024,20.55413 -20.55413,20.55413z" data-paper-data="{&quot;index&quot;:null}" fill="#ffffff" fill-rule="nonzero" stroke="#000000" stroke-width="2" stroke-linecap="butt" stroke-linejoin="miter"/><path d="M105.22836,183.84804c-7.99039,0 -14.46788,-6.4775 -14.46788,-14.46789c0,-7.9904 6.4775,-14.46789 14.46788,-14.46789c7.99039,0 14.46788,6.4775 14.46788,14.46789c0,7.9904 -6.4775,14.46789 -14.46788,14.46789z" data-paper-data="{&quot;index&quot;:null}" fill="#000000" fill-rule="nonzero" stroke="none" stroke-width="0" stroke-linecap="butt" stroke-linejoin="miter"/><path d="M42.64955,146.59192c0,0 5.87278,-4.52495 10.32686,-5.57043c4.45409,-1.04547 10.79686,0.6122 10.79686,0.6122c0,0 -7.03629,-0.05277 -10.47603,0.75463c-3.59467,0.84376 -10.64769,4.2036 -10.64769,4.2036z" fill="#000000" fill-rule="nonzero" stroke="none" stroke-width="0" stroke-linecap="butt" stroke-linejoin="miter"/><path d="M98.61555,142.38833c-3.43975,-0.80739 -10.47603,-0.75463 -10.47603,-0.75463c0,0 6.34277,-1.65768 10.79686,-0.6122c4.45408,1.04547 10.32686,5.57043 10.32686,5.57043c0,0 -7.05302,-3.35984 -10.64769,-4.2036z" data-paper-data="{&quot;index&quot;:null}" fill="#000000" fill-rule="nonzero" stroke="none" stroke-width="0" stroke-linecap="butt" stroke-linejoin="miter"/><path d="M71.28363,121.20213c0,-4.70689 4.63943,-33.30081 4.63943,-33.30081c0,0 4.63943,28.59394 4.63943,33.30081" fill="#804400" fill-rule="nonzero" stroke="#000000" stroke-width="2" stroke-linecap="butt" stroke-linejoin="miter"/><g fill-rule="nonzero" stroke="#000000" stroke-linejoin="miter"><path d="M158.83902,69.61828l-26.60557,90.01984c0,0 -21.46323,-1.06925 -47.12574,-13.28594c-24.96599,-11.88512 -36.50424,-22.84585 -36.50424,-22.84585l48.11043,-80.7288c0,0 13.97711,-1.28475 34.47596,8.02316c19.89407,9.0333 27.64917,18.81762 27.64917,18.81762z" fill="#333333" stroke-width="2" stroke-linecap="butt"/><path d="M158.83902,69.61828l-26.60557,90.01984c0,0 -21.46323,-1.06925 -47.12574,-13.28594c-24.96599,-11.88512 -36.50424,-22.84585 -36.50424,-22.84585l48.11043,-80.7288c0,0 19.31097,12.18411 29.55905,16.61173c10.45612,4.51749 32.56608,10.22904 32.56608,10.22904z" fill="#7d7d37" stroke-width="2" stroke-linecap="butt"/><path d="M131.7685,158.90648c0,0 12.37994,20.7574 -16.38235,21.91751c-32.95271,1.32914 -67.10748,-57.27989 -67.10748,-57.27989" fill="none" stroke-width="2" stroke-linecap="round"/><path d="M157.74248,70.21776l-25.98468,88.70235c0,0 -23.41301,-2.44389 -47.65281,-13.98329c-23.58189,-11.22622 -34.36831,-21.72173 -34.36831,-21.72173l6.32559,-10.61427c0,0 13.54289,28.56935 46.18212,26.16356c30.40162,-2.24086 55.49808,-68.54662 55.49808,-68.54662z" fill="#6c6c30" stroke-width="0" stroke-linecap="butt"/></g><g fill-rule="nonzero" stroke-linejoin="miter"><g><path d="M65.46296,118.13203l59.99239,-52.76118l1.11604,79.61008z" fill="#b4b44f" stroke="none" stroke-width="0" stroke-linecap="butt"/><path d="M126.20877,122.71973l-19.89263,-40.59129l6.22525,-5.18544l13.55396,33.32387z" fill="#cdcd51" stroke="none" stroke-width="0" stroke-linecap="butt"/><path d="M110.79407,137.74682l-19.25492,-42.33069l9.47877,-8.31807l21.45994,55.92041z" fill="#cdcd51" stroke="none" stroke-width="0" stroke-linecap="butt"/><path d="M122.9898,140.34768l-52.09243,-22.88757l51.86974,-46.24282z" fill="none" stroke="#717132" stroke-width="1.5" stroke-linecap="round"/></g><path d="M116.71656,100.49361c-2.97259,6.76566 -9.62221,11.77609 -11.67401,10.71529c-1.3318,-0.68855 -2.61909,-8.65028 0.3535,-15.41594c2.97259,-6.76565 4.7421,-13.35116 11.06514,-10.57303c6.32304,2.77812 3.22796,8.50803 0.25537,15.2737z" fill="#6d6d30" stroke="none" stroke-width="0" stroke-linecap="butt"/><path d="M107.37159,121.45202c-1.3196,3.00344 -5.02916,4.27838 -8.28555,2.84764c-3.25637,-1.43073 -4.82643,-5.02536 -3.50682,-8.02879c1.31961,-3.00345 5.02917,-4.27839 8.28555,-2.84765c3.25637,1.43073 4.82643,5.02536 3.50682,8.0288z" fill="#6d6d30" stroke="none" stroke-width="0" stroke-linecap="butt"/><path d="M116.69577,100.54112c-2.94204,6.69611 -9.5322,11.65114 -11.56794,10.59905c-1.32138,-0.68291 -2.60499,-8.56702 0.33704,-15.26313c2.94204,-6.69611 4.69112,-13.21492 10.96423,-10.45873c6.27312,2.75618 3.2087,8.4267 0.26666,15.12282z" fill="url(#color-1)" stroke="none" stroke-width="0" stroke-linecap="butt"/><path d="M107.28255,121.4129c-1.3196,3.00344 -5.02916,4.27838 -8.28555,2.84764c-3.25637,-1.43073 -4.82643,-5.02536 -3.50682,-8.02879c1.31961,-3.00345 5.02917,-4.27839 8.28555,-2.84765c3.25637,1.43073 4.82643,5.02536 3.50682,8.0288z" fill="url(#color-2)" stroke="none" stroke-width="0" stroke-linecap="butt"/></g><path d="M165.08041,317.59317l12.52288,-109.03118l31.2461,-0.13057l11.22538,109.16177z" fill="#c5c556" fill-rule="nonzero" stroke="#000000" stroke-width="2" stroke-linecap="butt" stroke-linejoin="miter"/><g data-paper-data="{&quot;index&quot;:null}" fill="#ffffff" fill-rule="nonzero" stroke="#000000" stroke-width="3" stroke-linecap="butt" stroke-linejoin="miter"><path d="M191.36217,264.97945c0,0 11.08267,-8.29481 12.73185,-16.2796c1.64918,-7.98478 -6.69679,-12.9402 -6.69679,-12.9402l1.59578,-2.5824c0,0 8.12084,7.35691 6.85568,15.91826c-0.99137,6.70862 -8.55317,16.2382 -8.55317,16.2382z"/><path d="M201.90363,228.85265c0.66995,1.00904 -2.31692,4.25052 -2.31692,4.25052c0,0 2.81433,3.4168 2.09254,4.38115c-0.7218,0.96428 -4.64502,-0.96541 -4.64502,-0.96541c0,0 -2.28219,3.79994 -3.39666,3.3904c-1.11623,-0.41115 -0.55519,-4.84383 -0.55519,-4.84383c0,0 -4.22313,-1.06777 -4.19055,-2.28805c0.03102,-1.2186 4.30205,-2.02614 4.30205,-2.02614c0,0 -0.32944,-4.46362 0.80605,-4.8055c1.13691,-0.34533 3.21525,3.58807 3.21525,3.58807c0,0 4.01868,-1.68704 4.68844,-0.68122z"/><path d="M178.12022,273.0452c-2.65889,-6.85501 0.57723,-14.61583 7.22809,-17.33425c6.65085,-2.71843 14.1979,0.63495 16.85679,7.48996c2.65889,6.85501 -0.57724,14.61582 -7.22809,17.33425c-6.65086,2.71843 -14.19789,-0.63495 -16.85679,-7.48996z"/></g><g fill-rule="nonzero" stroke-linecap="butt" stroke-linejoin="miter"><path d="M192.24223,264.80592c0,0 11.08267,-8.1435 12.73185,-15.98264c1.64918,-7.83914 -6.69678,-12.70417 -6.69678,-12.70417l1.59578,-2.5353c0,0 8.12084,7.22272 6.85567,15.6279c-0.99137,6.58624 -8.55317,15.942 -8.55317,15.942z" fill="#ffffff" stroke="none" stroke-width="0"/><path d="M202.78368,229.33811c0.66995,0.99063 -2.31691,4.17298 -2.31691,4.17298c0,0 2.81433,3.35449 2.09254,4.30124c-0.7218,0.9467 -4.64503,-0.9478 -4.64503,-0.9478c0,0 -2.28217,3.73062 -3.39665,3.32855c-1.11623,-0.40364 -0.55519,-4.75547 -0.55519,-4.75547c0,0 -4.22313,-1.04829 -4.19055,-2.2463c0.03102,-1.19637 4.30205,-1.98919 4.30205,-1.98919c0,0 -0.32944,-4.38219 0.80605,-4.71784c1.13691,-0.33903 3.21524,3.52262 3.21524,3.52262c0,0 4.01867,-1.65627 4.68843,-0.66879z" data-paper-data="{&quot;index&quot;:null}" fill="#ffffff" stroke="none" stroke-width="2.57572"/><path d="M179.00027,272.72454c-2.65889,-6.72997 0.57724,-14.34921 7.22809,-17.01804c6.65086,-2.66884 14.1979,0.62336 16.8568,7.35332c2.65889,6.72997 -0.57725,14.34923 -7.2281,17.01806c-6.65085,2.66885 -14.19789,-0.62336 -16.85679,-7.35333z" fill="#ffffff" stroke="none" stroke-width="1"/><g fill="#000000" stroke="#000000" stroke-width="1"><path d="M182.43917,271.48094c-1.9829,-5.01896 0.43048,-10.70111 5.39045,-12.69142c4.95997,-1.99031 10.58826,0.46488 12.57116,5.48384c1.9829,5.01896 -0.43049,10.70111 -5.39044,12.69143c-4.95997,1.99032 -10.58826,-0.46489 -12.57117,-5.48384zM196.01766,272.85827c3.59734,-1.44353 5.3477,-5.56466 3.90956,-9.20478c-1.43815,-3.64013 -5.52021,-5.42081 -9.11755,-3.97728c-3.59734,1.44353 -5.34771,5.56465 -3.90956,9.20478c1.43815,3.64013 5.52021,5.42082 9.11755,3.97729z"/><path d="M190.9662,267.01796c-0.65371,-1.65461 0.14191,-3.52785 1.77707,-4.18399c1.63515,-0.65615 3.49062,0.15325 4.14433,1.80786c0.65371,1.65461 -0.14191,3.52784 -1.77707,4.18399c-1.63515,0.65614 -3.49063,-0.15325 -4.14433,-1.80786z"/></g></g><path d="M217.85412,135.88374c0,-9.74358 7.89873,-17.6423 17.64231,-17.6423c9.74358,0 17.6423,7.89873 17.6423,17.6423c0,9.74358 -7.89873,17.6423 -17.6423,17.6423c-9.74358,0 -17.64231,-7.89872 -17.64231,-17.6423z" fill="#c5c556" fill-rule="nonzero" stroke="#000000" stroke-width="2" stroke-linecap="butt" stroke-linejoin="miter"/><path d="M223.643,136.1594c0,-6.69871 5.43038,-12.12908 12.12909,-12.12908c6.69871,0 12.12909,5.43038 12.12909,12.12908c0,6.69871 -5.43038,12.12909 -12.12909,12.12909c-6.6987,0 -12.12909,-5.43038 -12.12909,-12.12909z" fill="#91913f" fill-rule="nonzero" stroke="#000000" stroke-width="2" stroke-linecap="butt" stroke-linejoin="miter"/><path d="M128.96738,136.66014c0,-9.74358 7.89873,-17.6423 17.6423,-17.6423c9.74357,0 17.64231,7.89873 17.64231,17.6423c0,9.74358 -7.89873,17.6423 -17.64231,17.6423c-9.74357,0 -17.6423,-7.89872 -17.6423,-17.6423z" fill="#c5c556" fill-rule="nonzero" stroke="#000000" stroke-width="2" stroke-linecap="butt" stroke-linejoin="miter"/><path d="M134.75626,136.9358c0,-6.69871 5.43037,-12.12908 12.12908,-12.12908c6.69871,0 12.12908,5.43038 12.12908,12.12908c0,6.69871 -5.43037,12.12909 -12.12908,12.12909c-6.69871,0 -12.12908,-5.43038 -12.12908,-12.12909z" fill="#91913f" fill-rule="nonzero" stroke="#000000" stroke-width="2" stroke-linecap="butt" stroke-linejoin="miter"/><path d="M175.28334,239.69388l2.65719,-21.77252l30.50176,-0.11745l2.35578,21.58914c0,0 -6.39769,3.47005 -18.35264,3.7294c-10.62779,0.23056 -17.16208,-3.42856 -17.16208,-3.42856z" fill="url(#color-3)" fill-rule="nonzero" stroke="#000000" stroke-width="0" stroke-linecap="butt" stroke-linejoin="miter"/><path d="M139.51829,176.46534c0,-27.54006 23.78395,-49.8657 53.12293,-49.8657c29.33898,0 53.12293,22.32564 53.12293,49.8657c0,27.54007 -23.78395,49.8657 -53.12293,49.8657c-29.33898,0 -53.12293,-22.32564 -53.12293,-49.8657z" fill="#c5c556" fill-rule="nonzero" stroke="#000000" stroke-width="2" stroke-linecap="butt" stroke-linejoin="miter"/><path d="M140.11625,176.50986c0,-0.60204 4.30583,46.24439 52.39803,47.08369c45.95009,0.80193 52.52465,-47.92626 52.52465,-47.08369c0,27.12901 -23.48775,49.12141 -52.46134,49.12141c-28.97359,0 -52.46134,-21.9924 -52.46134,-49.12141z" fill="#91913f" fill-rule="nonzero" stroke="#000000" stroke-width="0" stroke-linecap="butt" stroke-linejoin="miter"/><path d="M150.72407,176.82051c0,-10.72431 8.69379,-19.4181 19.4181,-19.4181c10.72431,0 19.4181,8.69378 19.4181,19.4181c0,10.72431 -8.69378,19.41809 -19.4181,19.41809c-10.72432,0 -19.4181,-8.69378 -19.4181,-19.41809z" fill="#ffffff" fill-rule="nonzero" stroke="#000000" stroke-width="2" stroke-linecap="butt" stroke-linejoin="miter"/><path d="M156.56704,176.59256c0,-7.54877 6.11947,-13.66824 13.66823,-13.66824c7.54877,0 13.66825,6.11948 13.66825,13.66824c0,7.54877 -6.11948,13.66825 -13.66825,13.66825c-7.54877,0 -13.66823,-6.11949 -13.66823,-13.66825z" fill="#000000" fill-rule="nonzero" stroke="none" stroke-width="0" stroke-linecap="butt" stroke-linejoin="miter"/><path d="M206.65375,209.6194c0,0 -9.60278,5.06688 -14.59382,5.06688c-4.60131,0 -14.27839,-5.06688 -14.27839,-5.06688" fill="none" fill-rule="nonzero" stroke="#000000" stroke-width="2" stroke-linecap="round" stroke-linejoin="miter"/><path d="M215.01299,196.2386c-10.72432,0 -19.4181,-8.69379 -19.4181,-19.4181c0,-10.72431 8.69378,-19.4181 19.4181,-19.4181c10.72431,0 19.4181,8.69378 19.4181,19.4181c0,10.72431 -8.69378,19.4181 -19.4181,19.4181z" data-paper-data="{&quot;index&quot;:null}" fill="#ffffff" fill-rule="nonzero" stroke="#000000" stroke-width="2" stroke-linecap="butt" stroke-linejoin="miter"/><path d="M214.9199,190.26081c-7.54876,0 -13.66824,-6.11949 -13.66824,-13.66825c0,-7.54877 6.11948,-13.66824 13.66824,-13.66824c7.54876,0 13.66824,6.11948 13.66824,13.66824c0,7.54877 -6.11949,13.66825 -13.66824,13.66825z" data-paper-data="{&quot;index&quot;:null}" fill="#000000" fill-rule="nonzero" stroke="none" stroke-width="0" stroke-linecap="butt" stroke-linejoin="miter"/><path d="M150.72407,176.82051c0,-10.72431 8.69378,-19.4181 19.4181,-19.4181c10.72431,0 19.4181,8.69378 19.4181,19.4181c0,0 -38.8362,1.01847 -38.8362,0z" fill="#c5c556" fill-rule="nonzero" stroke="#000000" stroke-width="2" stroke-linecap="butt" stroke-linejoin="miter"/><path d="M195.5949,176.8205c0,-10.72431 8.69378,-19.4181 19.4181,-19.4181c10.72431,0 19.4181,8.69378 19.4181,19.4181c0,1.00379 -38.83621,0 -38.83621,0z" data-paper-data="{&quot;index&quot;:null}" fill="#c5c556" fill-rule="nonzero" stroke="#000000" stroke-width="2" stroke-linecap="butt" stroke-linejoin="miter"/><path d="M161.17522,152.99639c0,0 5.54819,-4.27486 9.75609,-5.26254c4.20792,-0.98769 10.20012,0.57836 10.20012,0.57836c0,0 -6.64739,-0.04985 -9.89702,0.71292c-3.39599,0.79712 -10.05919,3.97126 -10.05919,3.97126z" fill="#000000" fill-rule="nonzero" stroke="none" stroke-width="0" stroke-linecap="butt" stroke-linejoin="miter"/><path d="M214.04798,149.02513c-3.24963,-0.76277 -9.89702,-0.71292 -9.89702,-0.71292c0,0 5.9922,-1.56606 10.20012,-0.57837c4.20791,0.98769 9.75609,5.26255 9.75609,5.26255c0,0 -6.6632,-3.17414 -10.05919,-3.97126z" data-paper-data="{&quot;index&quot;:null}" fill="#000000" fill-rule="nonzero" stroke="none" stroke-width="0" stroke-linecap="butt" stroke-linejoin="miter"/><path d="M189.32928,132.0266c0,0 -0.26199,-9.25347 3.54449,-15.62111c5.49034,-9.18448 11.85512,-6.14767 11.85512,-6.14767c0,0 -5.50216,5.62253 -7.428,9.15205c-1.82397,3.34284 -1.81775,13.67389 -1.81775,13.67389" fill="#c5c556" fill-rule="nonzero" stroke="#000000" stroke-width="2" stroke-linecap="round" stroke-linejoin="miter"/><g data-paper-data="{&quot;index&quot;:null}" fill-rule="nonzero" stroke-linecap="butt" stroke-linejoin="miter"><path d="M197.22075,175.83319c0,0 0.15751,6.30819 0.00885,11.32464c-0.01207,0.40721 -0.02593,0.85515 -0.04144,1.33982c-0.86251,-0.48967 -1.93516,-0.8045 -3.27366,-0.89075c-0.02142,-0.30391 -0.11746,-0.58639 -0.26926,-0.82788c0.17319,-0.27555 0.27381,-0.60447 0.27381,-0.95771c0,-0.01812 -0.00027,-0.03616 -0.00079,-0.05415c0.89249,-0.57724 1.4911,-1.59598 1.51041,-2.76082c0.30128,-0.19378 0.53966,-0.48245 0.67618,-0.82565c0.61768,-0.26324 1.0525,-0.89244 1.0525,-1.62674c0,-0.87003 -0.61041,-1.59249 -1.41213,-1.73355c-0.0795,-0.07354 -0.16215,-0.13642 -0.24282,-0.18979c-0.21281,-0.15327 -0.46108,-0.25743 -0.72952,-0.29665l-2.34011,-0.47706c-0.78868,0.4479 -1.57737,0.8958 -2.36604,1.3437c-0.29426,-0.25302 -0.67238,-0.40515 -1.08482,-0.40515c-0.6802,0 -1.26704,0.41379 -1.53838,1.01145c-0.37458,-2.35727 -0.72333,-3.89531 -0.72333,-3.89531z" fill="#ffffff" stroke="#000000" stroke-width="1.3"/><path d="M190.26764,188.1076c-0.27035,-0.03034 -0.54498,-0.04591 -0.82312,-0.04591c-0.39098,0 -0.77504,0.03077 -1.14999,0.09008c-0.05774,-1.24999 -0.1226,-2.31915 -0.19892,-3.15942c-0.10421,-1.14731 -0.23245,-2.24372 -0.36832,-3.25273c0.31065,0.352 0.75773,0.57282 1.25463,0.57282c0.02968,0 0.05918,-0.00079 0.0885,-0.00235c-0.03882,0.2065 -0.05916,0.41985 -0.05916,0.63811c0,1.18903 0.60357,2.23214 1.51088,2.81896c-0.00053,0.01799 -0.00079,0.03603 -0.00079,0.05415c0,0.35324 0.10062,0.68215 0.27382,0.95771c-0.1732,0.27555 -0.27382,0.60446 -0.27382,0.9577c0,0.09054 0.00662,0.1795 0.01936,0.26636c-0.09257,0.03304 -0.18358,0.0679 -0.27306,0.10452z" fill="#ffffff" stroke="#000000" stroke-width="1.3"/><g stroke="none" stroke-width="0"><path d="M186.76509,180.41148v-8.21797c0,0 4.07892,-0.7146 5.92436,-0.7146c1.61857,0 5.46864,0.7146 5.46864,0.7146v8.21797c0,0 -0.41265,-0.07503 -1.02861,-0.17647c-0.12794,-0.72286 -0.68289,-1.29121 -1.38424,-1.41461c-0.07951,-0.07354 -0.16216,-0.13642 -0.24283,-0.18979c-0.21281,-0.15327 -0.46107,-0.25743 -0.72952,-0.29665l-2.34012,-0.47706c-0.78868,0.4479 -1.57736,0.8958 -2.36604,1.3437c-0.29426,-0.25302 -0.67238,-0.40515 -1.08482,-0.40515c-0.86137,0 -1.57302,0.66357 -1.68387,1.5238c-0.33192,0.05606 -0.53295,0.09223 -0.53295,0.09223z" fill="#000000"/><g><path d="M142.52097,189.3985l13.3434,-37.24827l34.83368,13.36978l-13.34341,37.24826z" fill="#000000"/><path d="M157.73242,203.53264l-16.01019,-36.10489l33.76441,-16.04182l12.35577,27.86373c-0.34355,0.32177 -0.55937,0.78693 -0.55937,1.30428c0,0.97118 0.76061,1.75849 1.69885,1.75849c0.02968,0 0.05919,-0.00079 0.0885,-0.00235c-0.03882,0.2065 -0.05917,0.41986 -0.05917,0.63812c0,1.18903 0.60358,2.23213 1.51089,2.81896c-0.00053,0.01799 -0.00079,0.03603 -0.00079,0.05415c0,0.35324 0.10062,0.68215 0.27381,0.95771c-0.17319,0.27555 -0.27381,0.60446 -0.27381,0.9577c0,0.07166 0.00413,0.14234 0.01219,0.21176l-0.32208,0.15302c-0.25218,-0.02633 -0.50804,-0.03982 -0.76692,-0.03982c-2.5652,0 -4.83163,1.32411 -6.19616,3.34804z" fill="#000000"/><path d="M146.9007,187.22773l10.91734,-30.47586l28.50027,10.93891l-10.91732,30.47587z" fill="#c5c556"/><path d="M159.34644,198.79196l-13.09924,-29.54037l27.62541,-13.12512l13.09923,29.54038z" fill="#c5c556"/></g><g data-paper-data="{&quot;index&quot;:null}"><path d="M207.13933,202.76827l-13.3434,-37.24826l34.83368,-13.36978l13.3434,37.24827z" fill="#000000"/><path d="M197.15735,180.55395c0,-0.49824 -0.20019,-0.94809 -0.52185,-1.26806l12.37184,-27.89997l33.76441,16.04182l-16.01019,36.1049l-27.55984,-13.09397c-0.99574,-1.57183 -2.60951,-2.6592 -5.28724,-2.83176c-0.02142,-0.30391 -0.11746,-0.58639 -0.26926,-0.82788c0.17319,-0.27555 0.27381,-0.60447 0.27381,-0.95771c0,-0.01812 -0.00026,-0.03617 -0.00078,-0.05415c0.89249,-0.57724 1.49109,-1.59598 1.5104,-2.76082c0.30128,-0.19378 0.53966,-0.48245 0.67618,-0.82565c0.61768,-0.26324 1.05251,-0.89243 1.05251,-1.62674z" fill="#000000"/><path d="M209.09294,198.16662l-10.91732,-30.47586l28.50028,-10.93891l10.91733,30.47587z" fill="#c5c556"/><path d="M197.52216,185.66686l13.09923,-29.54037l27.62542,13.12512l-13.09924,29.54037z" fill="#c5c556"/></g><path d="M169.89258,161.36674l3.34163,-3.6703l3.87981,7.70946l7.93945,2.21883l-2.57406,4.19998l-7.62284,-3.77893z" fill="#ffff85"/><path d="M222.05745,161.18734l3.76695,-3.19872l2.89724,8.15908l7.60085,3.2498l-3.07099,3.82549l-7.09439,-4.7553z" fill="#ffff85"/></g></g><path d="M342.80707,136.38736c7.28776,-7.79618 50.3952,-24.17542 50.3952,-24.17542c0,0 -13.43941,44.1125 -20.72718,51.90868c-7.28776,7.79618 -19.83708,7.90793 -28.02967,0.24961c-8.1926,-7.65832 -8.92611,-20.18668 -1.63835,-27.98286z" data-paper-data="{&quot;index&quot;:null}" fill="#9b9b44" fill-rule="nonzero" stroke="#000000" stroke-width="2" stroke-linecap="butt" stroke-linejoin="miter"/><path d="M295.55462,164.37023c-8.1926,7.65832 -20.74191,7.54657 -28.02967,-0.24961c-7.28776,-7.79618 -20.72718,-51.90868 -20.72718,-51.90868c0,0 43.10744,16.37924 50.3952,24.17542c7.28776,7.79618 6.55425,20.32454 -1.63835,27.98286z" data-paper-data="{&quot;index&quot;:null}" fill="#9b9b44" fill-rule="nonzero" stroke="#000000" stroke-width="2" stroke-linecap="butt" stroke-linejoin="miter"/><path d="M291.23107,317.79302l13.18505,-114.79636l32.89829,-0.13748l11.81893,114.93385z" fill="#9b9b44" fill-rule="nonzero" stroke="#000000" stroke-width="2" stroke-linecap="butt" stroke-linejoin="miter"/><path d="M302.50699,227.77251l2.71785,-22.92377l31.19823,-0.12367l2.40956,22.73069c0,0 -6.54377,3.65353 -18.77169,3.92659c-10.87046,0.24275 -17.55396,-3.60985 -17.55396,-3.60985z" fill="#6e6e30" fill-rule="nonzero" stroke="#000000" stroke-width="0" stroke-linecap="butt" stroke-linejoin="miter"/><path d="M264.25033,169.3368c0,-28.99629 25.04156,-52.50242 55.93188,-52.50242c30.89033,0 55.93188,23.50613 55.93188,52.50242c0,28.99629 -25.04155,52.50242 -55.93188,52.50242c-30.89032,0 -55.93188,-23.50614 -55.93188,-52.50242z" fill="#9b9b44" fill-rule="nonzero" stroke="#000000" stroke-width="2" stroke-linecap="butt" stroke-linejoin="miter"/><path d="M276.11563,170.66518c0,-11.29139 9.15348,-20.44486 20.44487,-20.44486c11.29139,0 20.44486,9.15347 20.44486,20.44486c0,11.29139 -9.15347,20.44487 -20.44486,20.44487c-11.29139,0 -20.44487,-9.15348 -20.44487,-20.44487z" fill="#000000" fill-rule="nonzero" stroke="#000000" stroke-width="2" stroke-linecap="butt" stroke-linejoin="miter"/><path d="M276.11563,169.57679c0,-11.29139 9.15348,-20.44486 20.44487,-20.44486c11.29139,0 20.44486,9.15347 20.44486,20.44486c0,11.29139 -9.15347,20.44487 -20.44486,20.44487c-11.29139,0 -20.44487,-9.15348 -20.44487,-20.44487z" fill="#ffffff" fill-rule="nonzero" stroke="#000000" stroke-width="2" stroke-linecap="butt" stroke-linejoin="miter"/><path d="M282.0934,169.3368c0,-7.94791 6.44305,-14.39097 14.39096,-14.39097c7.94791,0 14.39097,6.44306 14.39097,14.39098c0,7.94791 -6.44306,14.39098 -14.39097,14.39098c-7.94791,0 -14.39096,-6.44306 -14.39096,-14.39098z" fill="#1a1a1a" fill-rule="nonzero" stroke="none" stroke-width="0" stroke-linecap="butt" stroke-linejoin="miter"/><path d="M288.71081,169.3368c0,-4.29322 3.48034,-7.77357 7.77357,-7.77357c4.29322,0 7.77357,3.48034 7.77357,7.77358c0,4.29322 -3.48034,7.77358 -7.77357,7.77358c-4.29322,0 -7.77357,-3.48035 -7.77357,-7.77358z" fill="#ffffff" fill-rule="nonzero" stroke="none" stroke-width="0" stroke-linecap="butt" stroke-linejoin="miter"/><path d="M331.1676,203.8661h-21.8632" fill="none" fill-rule="nonzero" stroke="#000000" stroke-width="2" stroke-linecap="round" stroke-linejoin="miter"/><path d="M276.11563,169.57679c0,-11.29139 9.15348,-20.44486 20.44487,-20.44486c11.29139,0 20.44486,9.15347 20.44486,20.44486c0,0 -40.88973,1.07232 -40.88973,0z" fill="#000000" fill-rule="nonzero" stroke="#000000" stroke-width="2" stroke-linecap="butt" stroke-linejoin="miter"/><path d="M343.80392,191.11005c-11.29139,0 -20.44486,-9.15348 -20.44486,-20.44487c0,-11.29139 9.15347,-20.44486 20.44486,-20.44486c11.29139,0 20.44487,9.15347 20.44487,20.44486c0,11.29139 -9.15348,20.44487 -20.44487,20.44487z" data-paper-data="{&quot;index&quot;:null}" fill="#000000" fill-rule="nonzero" stroke="#000000" stroke-width="2" stroke-linecap="butt" stroke-linejoin="miter"/><path d="M343.80392,190.02166c-11.29139,0 -20.44486,-9.15348 -20.44486,-20.44487c0,-11.29139 9.15347,-20.44486 20.44486,-20.44486c11.29139,0 20.44487,9.15347 20.44487,20.44486c0,11.29139 -9.15348,20.44487 -20.44487,20.44487z" data-paper-data="{&quot;index&quot;:null}" fill="#ffffff" fill-rule="nonzero" stroke="#000000" stroke-width="2" stroke-linecap="butt" stroke-linejoin="miter"/><path d="M358.27101,169.3368c0,7.94792 -6.44305,14.39098 -14.39096,14.39098c-7.94791,0 -14.39097,-6.44307 -14.39097,-14.39098c0,-7.94792 6.44306,-14.39098 14.39097,-14.39098c7.94791,0 14.39096,6.44306 14.39096,14.39097z" data-paper-data="{&quot;index&quot;:null}" fill="#1a1a1a" fill-rule="nonzero" stroke="none" stroke-width="0" stroke-linecap="butt" stroke-linejoin="miter"/><path d="M351.6536,169.3368c0,4.29322 -3.48034,7.77358 -7.77356,7.77358c-4.29322,0 -7.77357,-3.48035 -7.77357,-7.77358c0,-4.29322 3.48035,-7.77358 7.77357,-7.77358c4.29322,0 7.77356,3.48034 7.77356,7.77357z" data-paper-data="{&quot;index&quot;:null}" fill="#ffffff" fill-rule="nonzero" stroke="none" stroke-width="0" stroke-linecap="butt" stroke-linejoin="miter"/><path d="M264.94693,169.24973c0,-0.63387 4.5335,48.68963 55.16865,49.57331c48.37977,0.84433 55.30197,-50.46043 55.30197,-49.57331c0,28.56349 -24.7297,51.71878 -55.23531,51.71878c-30.50561,0 -55.23531,-23.15529 -55.23531,-51.71878z" fill="#6e6e30" fill-rule="nonzero" stroke="#000000" stroke-width="0" stroke-linecap="butt" stroke-linejoin="miter"/><path d="M323.35906,169.57679c0,-11.29139 9.15347,-20.44486 20.44486,-20.44486c11.29139,0 20.44487,9.15347 20.44487,20.44486c0,1.07232 -40.88973,0 -40.88973,0z" data-paper-data="{&quot;index&quot;:null}" fill="#000000" fill-rule="nonzero" stroke="#000000" stroke-width="2" stroke-linecap="butt" stroke-linejoin="miter"/><path d="M287.11942,144.49295c0,0 5.84156,-4.5009 10.27196,-5.54081c4.43041,-1.03992 10.73946,0.60895 10.73946,0.60895c0,0 -6.99888,-0.05249 -10.42034,0.75061c-3.57556,0.83927 -10.59108,4.18125 -10.59108,4.18125z" fill="#000000" fill-rule="nonzero" stroke="none" stroke-width="0" stroke-linecap="butt" stroke-linejoin="miter"/><path d="M342.78792,140.31171c-3.42146,-0.8031 -10.42034,-0.75061 -10.42034,-0.75061c0,0 6.30905,-1.64887 10.73946,-0.60895c4.4304,1.03992 10.27196,5.54081 10.27196,5.54081c0,0 -7.01553,-3.34198 -10.59108,-4.18125z" data-paper-data="{&quot;index&quot;:null}" fill="#000000" fill-rule="nonzero" stroke="none" stroke-width="0" stroke-linecap="butt" stroke-linejoin="miter"/><path d="M279.77153,192.77323c0,-0.36066 0.29238,-0.65303 0.65303,-0.65303c0.36066,0 0.65303,0.29238 0.65303,0.65303c0,0.36066 -0.29238,0.65303 -0.65303,0.65303c-0.36066,0 -0.65303,-0.29238 -0.65303,-0.65303z" fill="#000000" fill-rule="nonzero" stroke="none" stroke-width="0.5" stroke-linecap="butt" stroke-linejoin="miter"/><path d="M289.17523,196.60436c0,-0.36066 0.29238,-0.65303 0.65303,-0.65303c0.36066,0 0.65303,0.29238 0.65303,0.65303c0,0.36066 -0.29238,0.65303 -0.65303,0.65303c-0.36066,0 -0.65303,-0.29238 -0.65303,-0.65303z" fill="#000000" fill-rule="nonzero" stroke="none" stroke-width="0.5" stroke-linecap="butt" stroke-linejoin="miter"/><path d="M283.77682,200.78377c0,-0.36066 0.29238,-0.65303 0.65303,-0.65303c0.36066,0 0.65303,0.29238 0.65303,0.65303c0,0.36066 -0.29238,0.65303 -0.65303,0.65303c-0.36066,0 -0.65303,-0.29238 -0.65303,-0.65303z" fill="#000000" fill-rule="nonzero" stroke="none" stroke-width="0.5" stroke-linecap="butt" stroke-linejoin="miter"/><path d="M359.93985,193.42626c-0.36067,0 -0.65303,-0.29237 -0.65303,-0.65303c0,-0.36067 0.29237,-0.65303 0.65303,-0.65303c0.36067,0 0.65303,0.29237 0.65303,0.65303c0,0.36067 -0.29237,0.65303 -0.65303,0.65303z" data-paper-data="{&quot;index&quot;:null}" fill="#000000" fill-rule="nonzero" stroke="none" stroke-width="0.5" stroke-linecap="butt" stroke-linejoin="miter"/><path d="M350.53617,197.25739c-0.36067,0 -0.65303,-0.29237 -0.65303,-0.65303c0,-0.36067 0.29237,-0.65303 0.65303,-0.65303c0.36067,0 0.65303,0.29237 0.65303,0.65303c0,0.36067 -0.29237,0.65303 -0.65303,0.65303z" data-paper-data="{&quot;index&quot;:null}" fill="#000000" fill-rule="nonzero" stroke="none" stroke-width="0.5" stroke-linecap="butt" stroke-linejoin="miter"/><path d="M355.93457,201.4368c-0.36067,0 -0.65303,-0.29237 -0.65303,-0.65303c0,-0.36067 0.29237,-0.65303 0.65303,-0.65303c0.36067,0 0.65303,0.29237 0.65303,0.65303c0,0.36067 -0.29237,0.65303 -0.65303,0.65303z" data-paper-data="{&quot;index&quot;:null}" fill="#000000" fill-rule="nonzero" stroke="none" stroke-width="0.5" stroke-linecap="butt" stroke-linejoin="miter"/><path d="M412.4375,322.14781l13.43388,-116.96281l33.51915,-0.14007l12.04198,117.10289z" fill="#d7d75f" fill-rule="nonzero" stroke="#000000" stroke-width="2" stroke-linecap="butt" stroke-linejoin="miter"/><path d="M423.9262,230.1327l2.76915,-23.35639l31.787,-0.126l2.45504,23.15967c0,0 -6.66726,3.72248 -19.12595,4.0007c-11.07561,0.24733 -17.88524,-3.67797 -17.88524,-3.67797z" fill="#c2c255" fill-rule="nonzero" stroke="#000000" stroke-width="0" stroke-linecap="butt" stroke-linejoin="miter"/><path d="M385.01582,170.45771c0,-29.54351 25.51415,-53.49325 56.98743,-53.49325c31.47328,0 56.98743,23.94975 56.98743,53.49325c0,29.54351 -25.51415,53.49325 -56.98743,53.49325c-31.47328,0 -56.98743,-23.94975 -56.98743,-53.49325z" fill="#d7d75f" fill-rule="nonzero" stroke="#000000" stroke-width="2" stroke-linecap="butt" stroke-linejoin="miter"/><path d="M385.65728,170.50548c0,-0.64583 4.61905,49.6085 56.2098,50.50886c49.2928,0.86026 56.34564,-51.41273 56.34564,-50.50886c0,29.10254 -25.1964,52.69482 -56.27772,52.69482c-31.08132,0 -56.27772,-23.59228 -56.27772,-52.69482z" fill="#c2c255" fill-rule="nonzero" stroke="#000000" stroke-width="0" stroke-linecap="butt" stroke-linejoin="miter"/><path d="M387.43314,166.58251l-6.80143,-43.76573l19.22144,8.54286l21.88287,-38.44287l12.71572,20.10858l34.59858,-41.1043l2.07,49.3843l33.12001,-23.06572l-7.39286,52.04573l15.08143,-5.32286l-15.37714,34.30287" fill="#d7d75f" fill-rule="nonzero" stroke="#000000" stroke-width="2" stroke-linecap="round" stroke-linejoin="miter"/><path d="M397.03674,171.94764c0,-11.50448 9.32623,-20.8307 20.83071,-20.8307c11.50448,0 20.8307,9.32622 20.8307,20.8307c0,11.50448 -9.32622,20.83071 -20.8307,20.83071c-11.50448,0 -20.83071,-9.32623 -20.83071,-20.83071z" fill="#000000" fill-rule="nonzero" stroke="#000000" stroke-width="2" stroke-linecap="butt" stroke-linejoin="miter"/><path d="M466.00245,192.77835c-11.50448,0 -20.8307,-9.32623 -20.8307,-20.83071c0,-11.50448 9.32622,-20.8307 20.8307,-20.8307c11.50448,0 20.83071,9.32622 20.83071,20.8307c0,11.50448 -9.32623,20.83071 -20.83071,20.83071z" data-paper-data="{&quot;index&quot;:null}" fill="#000000" fill-rule="nonzero" stroke="#000000" stroke-width="2" stroke-linecap="butt" stroke-linejoin="miter"/><path d="M397.0368,170.83871c0,-11.50447 9.32623,-20.8307 20.8307,-20.8307c11.50447,0 20.8307,9.32623 20.8307,20.8307c0,11.50447 -9.32623,20.8307 -20.8307,20.8307c-11.50447,0 -20.8307,-9.32623 -20.8307,-20.8307z" fill="#ffffff" fill-rule="nonzero" stroke="#000000" stroke-width="2" stroke-linecap="butt" stroke-linejoin="miter"/><path d="M400.86517,174.11176c0,-9.44529 7.65691,-17.1022 17.10219,-17.1022c9.44529,0 17.1022,7.65692 17.1022,17.1022c0,9.44529 -7.65692,17.1022 -17.1022,17.1022c-9.44529,0 -17.10219,-7.65692 -17.10219,-17.1022z" fill="#000000" fill-rule="nonzero" stroke="none" stroke-width="0" stroke-linecap="butt" stroke-linejoin="miter"/><path d="M466.00249,191.6694c-11.50447,0 -20.8307,-9.32623 -20.8307,-20.8307c0,-11.50447 9.32623,-20.8307 20.8307,-20.8307c11.50447,0 20.8307,9.32623 20.8307,20.8307c0,11.50447 -9.32623,20.8307 -20.8307,20.8307z" data-paper-data="{&quot;index&quot;:null}" fill="#ffffff" fill-rule="nonzero" stroke="#000000" stroke-width="2" stroke-linecap="butt" stroke-linejoin="miter"/><path d="M466.78203,186.55646c-6.87302,0 -12.44469,-5.57168 -12.44469,-12.4447c0,-6.87303 5.57168,-12.4447 12.44469,-12.4447c6.87302,0 12.44469,5.57168 12.44469,12.4447c0,6.87303 -5.57168,12.4447 -12.44469,12.4447z" data-paper-data="{&quot;index&quot;:null}" fill="#000000" fill-rule="nonzero" stroke="none" stroke-width="0" stroke-linecap="butt" stroke-linejoin="miter"/><path d="M433.54159,189.8532l4.968,-15.61372" fill="none" fill-rule="nonzero" stroke="#000000" stroke-width="2" stroke-linecap="round" stroke-linejoin="miter"/><path d="M448.44559,190.74034l-3.19372,-18.09772" fill="none" fill-rule="nonzero" stroke="#000000" stroke-width="2" stroke-linecap="round" stroke-linejoin="miter"/><path d="M469.27372,202.93626l-52.08381,5.67772" fill="none" fill-rule="nonzero" stroke="#000000" stroke-width="2" stroke-linecap="round" stroke-linejoin="miter"/><g fill-rule="nonzero" stroke="none" stroke-width="0" stroke-linecap="butt" stroke-linejoin="miter"><path d="M438.80657,225.36927c7.11847,-1.34309 15.73989,-3.33284 22.03279,-2.51257c-0.16449,0.87502 -0.38647,1.22001 0.22466,2.25428c0.00887,0.49066 0.08579,0.98371 0.23435,1.46479c-0.0337,0.40058 -0.02226,0.80639 0.03635,1.20939c-0.14114,0.57708 -0.18625,1.17774 -0.12879,1.77601c-0.09918,0.51132 -0.12386,1.03789 -0.06963,1.56216c-0.49833,1.43613 -0.38078,3.07458 0.46164,4.48053c0.38359,0.64019 0.88057,1.17059 1.44989,1.58092c0.04576,0.08682 0.09415,0.17289 0.14521,0.2581c0.54946,0.91701 1.33157,1.60877 2.22568,2.04502c0.29129,0.41989 0.63411,0.78598 1.01469,1.09482c-7.52088,10.27431 -26.85072,17.63042 -35.56153,18.30275c-3.20272,0.24719 -7.1131,-0.70725 -11.08126,-2.4727c0.03077,-0.11317 0.05782,-0.22733 0.08109,-0.3423c0.6185,-0.64192 1.05461,-1.41996 1.28816,-2.25362c0.65193,-0.67847 1.10052,-1.50842 1.32202,-2.39512c0.09563,-0.04972 0.19034,-0.10264 0.28403,-0.15878c0.80017,-0.47944 1.42882,-1.13602 1.86587,-1.88959c0.53127,-0.4771 0.94962,-1.04699 1.24503,-1.66952c0.25619,-0.26621 0.48104,-0.55578 0.67311,-0.86299c0.11958,-0.05996 0.2378,-0.12486 0.35442,-0.19474c0.7361,-0.44105 1.32705,-1.03202 1.75721,-1.71049c0.00311,-0.00185 0.00622,-0.00371 0.00932,-0.00557c0.52383,-0.31387 0.97416,-0.70366 1.34534,-1.14687c0.40565,-0.27845 0.76158,-0.60478 1.06472,-0.96676c0.46911,-0.32202 0.87173,-0.70806 1.20312,-1.13922c0.41845,-0.36761 0.76859,-0.79215 1.04568,-1.25466c0.25124,-0.20823 0.4794,-0.4364 0.68355,-0.68077c0.10789,-0.05507 0.21465,-0.11418 0.3201,-0.17737c0.51679,-0.30965 0.96203,-0.69318 1.33032,-1.129c0.45565,-0.29285 0.85221,-0.64461 1.18569,-1.03924c0.09144,-0.05876 0.1805,-0.11992 0.26715,-0.18329c0.1471,-0.07071 0.29225,-0.14877 0.435,-0.2343c0.21566,-0.12922 0.41886,-0.27131 0.60922,-0.4247c0.45029,-0.07853 0.89403,-0.23956 1.30956,-0.48854c1.81445,-1.08718 2.40402,-3.43941 1.31683,-5.25386c-0.09066,-0.15131 -0.19012,-0.2941 -0.29733,-0.42812c-0.10079,-0.66516 -0.33026,-1.32217 -0.69745,-1.93499c-0.50172,-0.83735 -1.19743,-1.48687 -1.99526,-1.92555c-0.06258,-0.12603 -0.13061,-0.25057 -0.20418,-0.37335c-0.10869,-0.18141 -0.22651,-0.35401 -0.35247,-0.51755c0.50858,-0.07431 1.03043,-0.16159 1.56612,-0.26267z" fill="#191919"/><path d="" fill="url(#color-4)"/><g><path d="" fill="#ffffff"/><path d="" fill="#000000"/><path d="" fill="#191919"/></g><path d="" fill="url(#color-5)"/><g fill="#ecec68"><path d=""/></g><path d="" fill="#191919"/><path d="" fill="#191919"/><path d="" fill="#191919"/><path d="" fill="#191919"/><path d="" fill="#191919"/><path d="" fill="#191919"/><path d="M426.61352,255.32473l-6.96804,11.90792l-1.36984,-8.31517c0.83333,-0.77125 1.37894,-1.77441 1.5961,-2.84699c0.49277,-0.51143 0.86976,-1.10926 1.12079,-1.75279c0.54652,-0.06101 1.06462,-0.09492 1.46846,-0.07556c1.4205,0.06815 4.15253,1.08259 4.15253,1.08259z" fill="#191919"/><path d="M436.70716,255.96901l-3.66494,13.90619l-6.23833,-11.58982c0,0 3.32306,-1.71885 5.04567,-2.12177c1.56292,-0.36557 4.8576,-0.1946 4.8576,-0.1946z" fill="#191919"/><path d="M446.29691,252.63641l0.86232,14.06644l-10.22098,-9.37227c0,0 2.82819,-2.46479 4.45607,-3.28131c1.47697,-0.74083 4.9026,-1.41285 4.9026,-1.41285z" fill="#191919"/><path d="M457.45397,247.48313l2.17996,13.78337l-11.78378,-8.25404c0,0 2.80882,-2.7023 4.47935,-3.6641c1.51566,-0.87263 5.12448,-1.86523 5.12448,-1.86523z" fill="#191919"/><path d="M464.19968,241.38055l3.11576,7.95725c-0.63185,0.88193 -0.97642,1.93612 -0.99565,3.0108l-8.81521,-4.98943c0,0 1.7132,-2.75202 2.87777,-3.79197c1.05661,-0.94354 3.81734,-2.18666 3.81734,-2.18666z" fill="#191919"/><path d="M462.09374,241.85691c0,0 0.81561,-2.24991 1.6306,-3.67669c0.47921,0.5579 1.05848,0.99742 1.69441,1.3077c0.35585,0.51295 0.7886,0.94561 1.27315,1.29169c0.20442,0.28656 0.4331,0.54739 0.68153,0.78133c0.06625,0.60213 0.23676,1.20075 0.51817,1.7693c-0.00983,0.1143 -0.01598,0.22903 -0.01841,0.344z" fill="#191919"/><path d="M459.76211,223.45663l1.0931,-1.32512c0.03274,0.19022 0.04272,0.38287 0.01011,0.57885c-0.09995,0.60065 -0.24337,0.95581 -0.19469,1.388c-0.54105,-0.37019 -0.90853,-0.64173 -0.90853,-0.64173z" fill="#191919"/><path d="" fill="#191919"/><path d="M462.63515,238.43839c0,0 -0.06026,-0.70216 -0.10558,-1.67965c0.16462,0.15387 0.33782,0.296 0.51828,0.42606c0.04576,0.08682 0.09415,0.17289 0.14521,0.2581c0.18407,0.30721 0.39426,0.58914 0.62602,0.84466z" fill="#191919"/><path d="" fill="#191919"/><path d="" fill="#191919"/><path d="" fill="#191919"/><path d="M431.65986,217.06971l1.08475,-1.70701l0.49323,4.40903c-0.08338,-0.18376 -0.17806,-0.3647 -0.28426,-0.54196c-0.22593,-0.37706 -0.49118,-0.71604 -0.7874,-1.01483c-0.12529,-0.40151 -0.29662,-0.78349 -0.50632,-1.14524z" fill="#191919"/><path d="M441.80889,214.51859l4.23055,14.35943c0,0 -3.63522,1.16529 -5.58213,1.31455c-0.11349,-0.59977 -0.33292,-1.19005 -0.66497,-1.74421c-0.50172,-0.83735 -1.19743,-1.48687 -1.99526,-1.92555c-0.06258,-0.12603 -0.13061,-0.25057 -0.20418,-0.37335c-0.18388,-0.30688 -0.39381,-0.58854 -0.62528,-0.84383z" fill="#191919"/><path d="M453.20149,226.73498l2.23024,-13.34781l5.39827,9.51857c-0.1632,0.83927 -0.36555,1.19052 0.23403,2.20526c0.00194,0.10732 0.00713,0.21475 0.01563,0.32215c-0.97609,0.46993 -2.50761,1.15766 -3.48715,1.35375c-1.38896,0.27806 -4.39101,-0.05191 -4.39101,-0.05191z" fill="#191919"/><path d="M446.30648,227.81107l2.61289,-11.28257l5.28619,9.39031c0,0 -2.62816,1.39855 -4.00216,1.72768c-1.24662,0.29863 -3.89693,0.16456 -3.89693,0.16456z" fill="#191919"/></g><path d="M459.46428,230.26064l1.30496,-8.02691l0.11592,0.2043c0.00132,0.09011 -0.00462,0.18085 -0.01984,0.27234c-0.16409,0.98617 -0.44537,1.31059 0.19869,2.40062c0.00887,0.49066 0.08579,0.98371 0.23435,1.46479c-0.0337,0.40058 -0.02226,0.80639 0.03635,1.20939c-0.14114,0.57708 -0.18625,1.17774 -0.12879,1.77601c-0.05136,0.26475 -0.08273,0.53358 -0.09353,0.80407c-0.8006,-0.00775 -1.64813,-0.10459 -1.64813,-0.10459z" fill="#191919" fill-rule="nonzero" stroke="none" stroke-width="0" stroke-linecap="butt" stroke-linejoin="miter"/><path d="M467.41965,241.88726c0.07335,0.42237 0.19896,0.8406 0.37914,1.24547c0.0297,0.14726 0.05537,0.29751 0.07708,0.45062c-0.01515,0.39654 0.01395,0.79657 0.0892,1.19244c0.01964,1.39813 -0.23046,2.97583 -0.71731,4.65872c-0.53311,0.7803 -0.84642,1.68759 -0.91465,2.621c-1.90455,4.69826 -5.35936,9.87271 -9.74722,14.13227c-4.74972,4.61084 -21.53315,17.02709 -27.65962,12.82253c-7.44694,-5.11078 -4.4063,-27.22012 2.5523,-36.49504c0.30279,-0.25251 0.57184,-0.53406 0.80547,-0.83804c0.40511,-0.3559 0.7462,-0.76515 1.01896,-1.21056c0.28698,-0.27642 0.57455,-0.54498 0.86264,-0.80577c0.05625,-0.03103 0.11217,-0.06318 0.16773,-0.09648c0.51679,-0.30965 0.96203,-0.69319 1.33032,-1.129c0.37936,-0.24382 0.71777,-0.52849 1.01292,-0.84472c0.24309,-0.18131 0.48638,-0.35735 0.72981,-0.52819c0.04863,-0.02713 0.09701,-0.05511 0.14512,-0.08393c0.21566,-0.12922 0.41886,-0.27131 0.60922,-0.42469c0.45029,-0.07853 0.89403,-0.23956 1.30956,-0.48854c0.40276,-0.24133 0.74516,-0.54498 1.02228,-0.89125c7.9295,-4.15641 15.80167,-3.03929 21.97413,1.52495c0.1832,0.17697 0.37753,0.33905 0.58111,0.48577c0.04576,0.08682 0.09415,0.17289 0.14521,0.2581c0.54946,0.91701 1.33157,1.60877 2.22568,2.04502c0.35585,0.51295 0.7886,0.94561 1.27315,1.29169c0.14041,0.19683 0.29228,0.38153 0.45413,0.55371c0.10079,0.17678 0.19194,0.36157 0.27365,0.55395z" fill="#d7d75f" fill-rule="nonzero" stroke="#000000" stroke-width="0" stroke-linecap="butt" stroke-linejoin="miter"/><g fill-rule="nonzero" stroke="#000000" stroke-width="0" stroke-linecap="butt" stroke-linejoin="miter"><path d="M455.81334,209.31518c2.09619,2.29199 3.81779,6.22799 4.72301,10.78411c-0.01306,0.06819 -0.02537,0.13555 -0.03696,0.202c-0.13762,0.78966 0.50576,1.56869 0.36593,2.40908c-0.16409,0.98617 -0.44537,1.31059 0.19869,2.40062c0.00708,0.39168 0.05752,0.78487 0.15316,1.17228c0.16412,6.97025 -1.70987,14.29803 -6.89279,19.03817c-10.29477,9.41529 -15.83233,-0.59757 -13.5967,-10.47536c0.75794,-1.18542 0.83176,-2.7457 0.05947,-4.0346c-0.09066,-0.15131 -0.19012,-0.2941 -0.29733,-0.42812c-0.10079,-0.66516 -0.33026,-1.32217 -0.69745,-1.935c-0.50172,-0.83735 -1.19743,-1.48687 -1.99526,-1.92555c-0.06258,-0.12603 -0.13061,-0.25057 -0.20418,-0.37335c-0.38773,-0.6471 -0.8913,-1.18203 -1.46834,-1.59416c-0.0965,-0.13529 -0.19842,-0.26483 -0.30527,-0.38853c-0.7417,-0.97996 -1.4853,-1.98391 -2.16982,-3.01217c-0.10158,-0.66169 -0.33059,-1.31512 -0.69591,-1.92483c-0.22593,-0.37706 -0.49118,-0.71604 -0.7874,-1.01483c-0.21283,-0.68205 -0.55849,-1.30771 -0.99946,-1.87362c-0.82152,-2.45926 -0.89191,-5.04208 0.46582,-7.75215c4.527,-9.03607 11.82092,-8.0532 17.84519,-4.39285c1.06773,0.64875 -0.28078,4.04572 0.67795,4.82586c1.17905,0.95941 4.72265,-0.72935 5.65764,0.29298z" fill="#d7d75f"/><path d="M460.84464,196.97693c1.26505,0.84158 -1.71262,6.69996 -6.65083,13.08509c-4.9382,6.38512 -8.51135,10.11883 -9.77641,9.27726c-0.16677,-0.11094 -2.10268,-0.63815 -2.02032,-1.51803c0.4386,-4.68545 2.2275,-1.2004 3.20584,-2.62446c4.78992,-6.97213 14.34604,-18.81568 15.2417,-18.21984z" fill="#89893c"/><path d="M458.86963,194.21164c1.00131,0.67325 -6.41931,12.39185 -11.66974,19.40246c-0.66695,0.89055 0.43089,4.18995 -1.12697,5.60971c-1.07836,0.98276 -3.52025,-0.22478 -3.7124,-0.45865c-2.18782,-2.66299 1.04722,-7.27725 5.60608,-14.05752c4.55887,-6.78027 9.44032,-11.47948 10.90302,-10.49599z" fill="#9b9b44"/><path d="M441.92891,207.17221c1.10731,0.85241 1.80173,1.80744 1.55102,2.13312c-0.25071,0.32568 -1.35161,-0.10132 -2.45891,-0.95372c-1.10731,-0.85241 -1.80173,-1.80744 -1.55102,-2.13312c0.25071,-0.32568 1.3516,0.10132 2.45891,0.95372z" fill="#000000"/><path d="M440.63376,209.30278c1.10731,0.85241 1.80173,1.80744 1.55102,2.13312c-0.25071,0.32568 -1.3516,-0.10132 -2.4589,-0.95372c-1.10731,-0.85241 -1.80173,-1.80744 -1.55102,-2.13312c0.25071,-0.32568 1.35161,0.10132 2.45891,0.95372z" fill="#000000"/></g><path d="M445.38578,244.43755c3.84188,3.72361 0.7939,12.83263 -6.80785,20.34556c-7.60174,7.51292 -16.87863,10.58476 -20.72051,6.86115c-3.84188,-3.72361 -0.7939,-12.83263 6.80785,-20.34556c7.60174,-7.51292 16.87863,-10.58477 20.72051,-6.86115z" fill="#c2c255" fill-rule="nonzero" stroke="none" stroke-width="0" stroke-linecap="butt" stroke-linejoin="miter"/><path d="M443.88375,240.45302c4.26213,3.39204 2.04746,13.26599 -4.94661,22.05409c-6.99407,8.78809 -16.11901,13.16246 -20.38114,9.77042c-2.86118,-2.27709 -2.8036,-7.47523 -0.34077,-13.30502c0.86739,-0.77825 1.43413,-1.80375 1.6565,-2.90203c0.6185,-0.64192 1.05461,-1.41996 1.28816,-2.25362c0.5979,-0.62222 1.02476,-1.37186 1.26226,-2.17583c0.07576,-0.10388 0.15218,-0.20766 0.22927,-0.31134c0.03833,-0.02171 0.0765,-0.04395 0.1145,-0.06672c0.80017,-0.47944 1.42882,-1.13602 1.86587,-1.88959c0.53127,-0.4771 0.94962,-1.04699 1.24503,-1.66952c0.25619,-0.26621 0.48104,-0.55578 0.6731,-0.86299c0.11958,-0.05996 0.2378,-0.12486 0.35442,-0.19474c0.7361,-0.44105 1.32705,-1.03202 1.75721,-1.71049c0.00311,-0.00185 0.00622,-0.00371 0.00932,-0.00557c0.52383,-0.31387 0.97416,-0.70366 1.34534,-1.14687c0.27009,-0.1854 0.51814,-0.39202 0.74323,-0.61625c5.15644,-3.75499 10.24783,-5.00318 13.1243,-2.71391z" fill="#d7d75f" fill-rule="nonzero" stroke="#000000" stroke-width="0" stroke-linecap="butt" stroke-linejoin="miter"/><path d="M462.16879,236.50726c0,0 -0.48977,3.81658 -5.62324,5.56795c-5.41164,1.84627 -9.18167,-1.13988 -9.18167,-1.13988c0,0 5.30254,0.85883 8.45575,-1.03051c3.15321,-1.88934 6.34915,-3.39755 6.34915,-3.39755z" fill="#d7d75f" fill-rule="nonzero" stroke="none" stroke-width="0" stroke-linecap="butt" stroke-linejoin="miter"/><path d="M457.64051,240.73411c-4.45999,2.67233 -10.98166,0.14776 -10.98166,0.14776c0,0 4.4894,-1.02645 8.94938,-3.69878c2.86765,-1.71824 4.38857,-4.76056 5.51821,-6.03108c-0.48688,1.42922 -0.36532,3.05525 0.47151,4.45187c0.17629,0.29422 0.37654,0.56526 0.59675,0.81211c-0.96616,1.56431 -2.53312,3.10715 -4.55418,4.31812z" fill="#d7d75f" fill-rule="nonzero" stroke="none" stroke-width="NaN" stroke-linecap="butt" stroke-linejoin="miter"/><path d="M427.79071,258.11034c3.56402,1.91114 8.46575,4.52716 8.46575,4.52716c0,0 -5.27633,0.36735 -10.02985,-2.81046c-3.96051,-2.64768 -4.47526,-5.89816 -4.54188,-6.65c0.01931,-0.02772 0.03835,-0.05561 0.05711,-0.08366c0.44944,0.50965 3.09851,3.43489 6.04887,5.01696z" data-paper-data="{&quot;index&quot;:null}" fill="#d7d75f" fill-rule="nonzero" stroke="none" stroke-width="0" stroke-linecap="butt" stroke-linejoin="miter"/><path d="M426.88487,258.24589c5.12324,3.32228 9.96732,4.556 9.96732,4.556c0,0 -6.28144,3.30241 -11.40469,-0.01986c-2.50156,-1.62219 -4.5294,-3.74122 -5.82035,-5.86728c0.10459,-0.27435 0.18638,-0.55682 0.24459,-0.84427c0.6185,-0.64192 1.05461,-1.41996 1.28816,-2.25362c0.24168,-0.25151 0.4554,-0.52383 0.63997,-0.81214c1.28492,1.74327 2.94257,3.85186 5.08501,5.24117z" data-paper-data="{&quot;index&quot;:null}" fill="#d7d75f" fill-rule="nonzero" stroke="none" stroke-width="NaN" stroke-linecap="butt" stroke-linejoin="miter"/><path d="M434.69991,211.38749c0.11708,1.2187 -0.44107,2.2694 -1.24665,2.3468c-0.80559,0.07739 -1.55356,-0.84783 -1.67063,-2.06654c-0.11708,-1.2187 0.44107,-2.2694 1.24665,-2.34679c0.80559,-0.07739 1.55356,0.84782 1.67063,2.06653z" fill="#eded8c" fill-rule="nonzero" stroke="none" stroke-width="0" stroke-linecap="butt" stroke-linejoin="miter"/><path d="M434.73864,207.5205c0.25598,0.42721 0.11716,0.98104 -0.31005,1.23701c-0.42721,0.25598 -0.98104,0.11716 -1.23701,-0.31005c-0.25598,-0.42721 -0.11716,-0.98104 0.31005,-1.23701c0.4272,-0.25598 0.98104,-0.11716 1.23701,0.31005z" fill="#eded8c" fill-rule="nonzero" stroke="none" stroke-width="0" stroke-linecap="butt" stroke-linejoin="miter"/><path d="M431.8426,244.20951c0.23464,0.3916 0.1074,0.89929 -0.28421,1.13393c-0.39161,0.23465 -0.89929,0.1074 -1.13393,-0.28421c-0.23464,-0.3916 -0.1074,-0.89929 0.28421,-1.13393c0.3916,-0.23464 0.89928,-0.1074 1.13393,0.28421z" fill="#eded8c" fill-rule="nonzero" stroke="none" stroke-width="0" stroke-linecap="butt" stroke-linejoin="miter"/><path d="M435.77248,246.44477c0,9.71349 -7.67748,17.58783 -17.14813,17.58783c-9.47065,0 -17.14813,-7.87434 -17.14813,-17.58783c0,-9.71349 7.67748,-17.58783 17.14813,-17.58783c9.47065,0 17.14813,7.87434 17.14813,17.58783z" fill="#d7d75f" fill-rule="nonzero" stroke="#000000" stroke-width="2" stroke-linecap="butt" stroke-linejoin="miter"/><path d="M486.37625,245.60414c0,9.71349 -7.67748,17.58783 -17.14813,17.58783c-9.47065,0 -17.14813,-7.87434 -17.14813,-17.58783c0,-9.71349 7.67748,-17.58783 17.14813,-17.58783c9.47065,0 17.14813,7.87434 17.14813,17.58783z" fill="#d7d75f" fill-rule="nonzero" stroke="#000000" stroke-width="2" stroke-linecap="butt" stroke-linejoin="miter"/><path d="M532.92222,320.3208l13.61567,-118.5456l33.97274,-0.14197l12.20494,118.68757z" fill="#e3e364" fill-rule="nonzero" stroke="#000000" stroke-width="2" stroke-linecap="butt" stroke-linejoin="miter"/><path d="M544.56639,227.36023l2.80662,-23.67246l32.21716,-0.12771l2.48826,23.47307c0,0 -6.75749,3.77285 -19.38477,4.05484c-11.22549,0.25067 -18.12727,-3.72774 -18.12727,-3.72774z" fill="#c0c054" fill-rule="nonzero" stroke="#000000" stroke-width="0" stroke-linecap="butt" stroke-linejoin="miter"/><path d="M505.12946,166.8777c0,-29.9433 25.85941,-54.21714 57.75861,-54.21714c31.89919,0 57.75861,24.27385 57.75861,54.21714c0,29.9433 -25.85941,54.21714 -57.75861,54.21714c-31.89919,0 -57.75861,-24.27385 -57.75861,-54.21714z" fill="#e3e364" fill-rule="nonzero" stroke="#000000" stroke-width="2" stroke-linecap="butt" stroke-linejoin="miter"/><path d="M505.7796,166.92611c0,-0.65457 4.68156,50.27982 56.97045,51.19237c49.95984,0.8719 57.10813,-52.10847 57.10813,-51.19237c0,29.49637 -25.53737,53.40791 -57.03929,53.40791c-31.50192,0 -57.03929,-23.91154 -57.03929,-53.40791z" fill="#c0c054" fill-rule="nonzero" stroke="#000000" stroke-width="0" stroke-linecap="butt" stroke-linejoin="miter"/><path d="M517.31312,167.26385c0,-11.66015 9.45243,-21.11259 21.11259,-21.11259c11.66015,0 21.11259,9.45243 21.11259,21.11259c0,11.66015 -9.45243,21.11259 -21.11259,21.11259c-11.66015,0 -21.11259,-9.45243 -21.11259,-21.11259z" fill="#ffffff" fill-rule="nonzero" stroke="#000000" stroke-width="2" stroke-linecap="butt" stroke-linejoin="miter"/><path d="M523.66594,167.01602c0,-8.2075 6.65348,-14.86098 14.86097,-14.86098c8.2075,0 14.86098,6.65349 14.86098,14.86098c0,8.2075 -6.65349,14.86098 -14.86098,14.86098c-8.2075,0 -14.86097,-6.65349 -14.86097,-14.86098z" fill="#000000" fill-rule="nonzero" stroke="none" stroke-width="0" stroke-linecap="butt" stroke-linejoin="miter"/><path d="M574.16308,202.67303h-22.57724" fill="none" fill-rule="nonzero" stroke="#000000" stroke-width="2" stroke-linecap="round" stroke-linejoin="miter"/><path d="M548.80455,195.25431h28.02863c5.47959,0 9.89095,3.24855 9.89095,7.28375v3.58525c0,4.03519 -4.41136,7.28375 -9.89095,7.28375h-28.02863c-5.47957,0 -9.89095,-3.24855 -9.89095,-7.28375v-3.58525c0,-4.03519 4.41138,-7.28375 9.89095,-7.28375z" fill="#000000" fill-rule="evenodd" stroke="#000000" stroke-width="0" stroke-linecap="round" stroke-linejoin="round"/><path d="M587.21208,188.37643c-11.66015,0 -21.11259,-9.45243 -21.11259,-21.11259c0,-11.66015 9.45243,-21.11259 21.11259,-21.11259c11.66015,0 21.11259,9.45243 21.11259,21.11259c0,11.66015 -9.45243,21.11259 -21.11259,21.11259z" data-paper-data="{&quot;index&quot;:null}" fill="#ffffff" fill-rule="nonzero" stroke="#000000" stroke-width="2" stroke-linecap="butt" stroke-linejoin="miter"/><path d="M587.11087,181.877c-8.20749,0 -14.86097,-6.65349 -14.86097,-14.86098c0,-8.2075 6.65349,-14.86098 14.86097,-14.86098c8.20749,0 14.86097,6.65349 14.86097,14.86098c0,8.2075 -6.65349,14.86098 -14.86097,14.86098z" data-paper-data="{&quot;index&quot;:null}" fill="#000000" fill-rule="nonzero" stroke="none" stroke-width="0" stroke-linecap="butt" stroke-linejoin="miter"/><path d="M517.31312,167.26385c0,-11.66015 9.45243,-21.11259 21.11259,-21.11259c11.66015,0 21.11259,9.45243 21.11259,21.11259c0,0 -42.22518,1.10735 -42.22518,0z" fill="#ffc533" fill-rule="nonzero" stroke="#000000" stroke-width="2" stroke-linecap="butt" stroke-linejoin="miter"/><path d="M557.64703,171.2313h-53.72411c0,0 -3.54873,-0.76016 -3.59659,-4.94532c-0.04375,-3.82535 3.59659,-4.94532 3.59659,-4.94532h53.72411z" fill="#a3a347" fill-rule="nonzero" stroke="#000000" stroke-width="2" stroke-linecap="butt" stroke-linejoin="miter"/><path d="M566.0995,167.26385c0,-11.66015 9.45243,-21.11259 21.11259,-21.11259c11.66015,0 21.11259,9.45243 21.11259,21.11259c0,1.09139 -42.22518,0 -42.22518,0z" data-paper-data="{&quot;index&quot;:null}" fill="#ffc533" fill-rule="nonzero" stroke="#000000" stroke-width="2" stroke-linecap="butt" stroke-linejoin="miter"/><path d="M567.34912,161.34067h53.72411c0,0 3.64035,1.11997 3.59659,4.94532c-0.04786,4.18516 -3.59659,4.94532 -3.59659,4.94532h-53.72411z" data-paper-data="{&quot;index&quot;:null}" fill="#a3a347" fill-rule="nonzero" stroke="#000000" stroke-width="2" stroke-linecap="butt" stroke-linejoin="miter"/><path d="M515.0451,141.76205h95.54752c5.78875,0 10.44898,4.66025 10.44898,10.44898v29.61c0,5.78873 -4.66025,10.44898 -10.44898,10.44898h-95.54752c-5.78873,0 -10.44899,-4.66025 -10.44899,-10.44898v-29.61c0,-5.78873 4.66026,-10.44898 10.44899,-10.44898z" fill="#a3a347" fill-rule="evenodd" stroke="#000000" stroke-width="2" stroke-linecap="round" stroke-linejoin="round"/><path d="M524.61316,146.96115h77.01083c4.6657,0 8.42183,3.75614 8.42183,8.42183v23.86551c0,4.66569 -3.75614,8.42183 -8.42183,8.42183h-77.01083c-4.66569,0 -8.42184,-3.75614 -8.42184,-8.42183v-23.86551c0,-4.66569 3.75615,-8.42183 8.42184,-8.42183z" fill="#000000" fill-rule="evenodd" stroke="#000000" stroke-width="0" stroke-linecap="round" stroke-linejoin="round"/><path d="M524.31345,146.66143h77.01083c4.6657,0 8.42183,3.75614 8.42183,8.42183v23.86551c0,4.66569 -3.75614,8.42183 -8.42183,8.42183h-77.01083c-4.66569,0 -8.42184,-3.75614 -8.42184,-8.42183v-23.86551c0,-4.66569 3.75615,-8.42183 8.42184,-8.42183z" fill="url(#color-6)" fill-rule="evenodd" stroke="#000000" stroke-width="2" stroke-linecap="round" stroke-linejoin="round"/></g></g></svg>