<svg version="1.1" xmlns="http://www.w3.org/2000/svg" xmlns:xlink="http://www.w3.org/1999/xlink" width="34.17311" height="34.17311" viewBox="0,0,34.17311,34.17311"><g transform="translate(-302.91345,-162.9135)"><g data-paper-data="{&quot;isPaintingLayer&quot;:true}" stroke-miterlimit="10" stroke-dasharray="" stroke-dashoffset="0" style="mix-blend-mode: normal"><path d="M309.98311,162.9135h20.03379c3.9166,0 7.06966,3.15307 7.06966,7.06966v20.03379c0,3.91659 -3.15306,7.06966 -7.06966,7.06966h-20.03379c-3.91659,0 -7.06966,-3.15307 -7.06966,-7.06966v-20.03379c0,-3.91659 3.15307,-7.06966 7.06966,-7.06966z" fill-opacity="0.61176" fill="#a3a3a3" fill-rule="evenodd" stroke="none" stroke-width="4.43922" stroke-linecap="round" stroke-linejoin="round"/><g fill-rule="nonzero" stroke="#000000" stroke-width="0.5" stroke-linejoin="miter"><g fill="#e1e1e1" stroke-linecap="butt"><path d="M309.25377,186.51396v-12.28623h1.28713v12.28623z"/><path d="M306.79652,174.22774c0,-1.71253 1.38828,-3.10081 3.10081,-3.10081c1.71253,0 3.10081,1.38828 3.10081,3.10081c0,1.71253 -1.38828,3.10081 -3.10081,3.10081c-1.71253,0 -3.10081,-1.38828 -3.10081,-3.10081z"/></g><path d="M323.10819,187.42248c0.57101,-1.38894 1.93742,-2.3669 3.53224,-2.3669c2.10835,0 9.60958,3.81751 9.60958,3.81751" data-paper-data="{&quot;index&quot;:null}" fill="none" stroke-linecap="butt"/><g fill="#e1e1e1" stroke-linecap="butt"><path d="M329.17501,186.51396v-12.28623h1.28713v12.28623z"/><path d="M326.71777,174.22774c0,-1.71253 1.38828,-3.10081 3.10081,-3.10081c1.71253,0 3.10081,1.38828 3.10081,3.10081c0,1.71253 -1.38828,3.10081 -3.10081,3.10081c-1.71253,0 -3.10081,-1.38828 -3.10081,-3.10081z"/></g><path d="M303.75001,188.87308c0,0 7.50123,-3.81751 9.60958,-3.81751c1.56942,0 2.91764,0.94705 3.50435,2.30083" data-paper-data="{&quot;index&quot;:null}" fill="none" stroke-linecap="butt"/><path d="M308.65103,188.2523c0,-5.84506 5.04787,-10.58341 11.27472,-10.58341c6.22686,0 11.27472,4.73836 11.27472,10.58341" fill="#e1e1e1" stroke-linecap="butt"/><path d="M316.08135,179.61896l5.83596,-3.42259l-0.57043,2.41337l3.94914,-1.05311l-2.545,2.72052" fill="#e1e1e1" stroke-linecap="round"/></g></g></g></svg>