<svg version="1.1" xmlns="http://www.w3.org/2000/svg" xmlns:xlink="http://www.w3.org/1999/xlink" width="98.39199" height="266.72834" viewBox="0,0,98.39199,266.72834"><g transform="translate(-272.77826,-42.91982)"><g data-paper-data="{&quot;isPaintingLayer&quot;:true}" fill-rule="nonzero" stroke-linecap="butt" stroke-linejoin="miter" stroke-miterlimit="10" stroke-dasharray="" stroke-dashoffset="0" style="mix-blend-mode: normal"><path d="M282.56373,308.53989c0,0 -0.63536,-94.38387 -0.79335,-118.01201c-0.05451,-8.15261 8.18688,-36.76129 40.20201,-36.9211c31.60235,-0.15775 39.85672,29.48704 39.84884,36.89673c-0.07659,46.24274 0.65429,117.98648 0.65429,117.98648l-10.49667,0.09614l-0.15882,-114.84311c0,0 0.07549,-3.0993 -2.81625,-3.15415c-3.43441,-0.06514 -2.94538,3.11562 -2.94538,3.11562l0.20548,114.86995l-48.21366,0.07222l-0.30539,-115.23309c0,0 0.27949,-2.919 -2.8856,-2.93443c-3.11083,-0.01515 -2.81569,2.90899 -2.81569,2.90899l0.35311,115.0668z" fill="#999999" stroke="#000000" stroke-width="2"/><path d="M321.66272,265.26944c-0.81895,0 -1.48284,-0.66389 -1.48284,-1.48284c0,-0.81895 0.66389,-1.48284 1.48284,-1.48284c0.81895,0 1.48284,0.66389 1.48284,1.48284c0,0.81895 -0.66389,1.48284 -1.48284,1.48284z" data-paper-data="{&quot;index&quot;:null}" fill="#000000" stroke="none" stroke-width="1.5"/><path d="M297.59946,308.55433v-119.20147c0,0 0.75721,-9.73105 0.75721,-14.63937c0,-4.498 -0.75721,-13.6872 -0.75721,-13.6872c0,0 2.67319,-2.35297 4.6557,-3.74807c1.98251,-1.3951 5.17197,-2.80371 5.17197,-2.80371c0,0 -0.6016,40.10902 14.55952,40.03867c15.43477,-0.07162 13.83154,-40.03867 13.83154,-40.03867c0,0 3.91276,1.51959 6.16585,2.94655c2.25309,1.42695 4.75379,3.60523 4.75379,3.60523c0,0 -0.75721,9.42463 -0.75721,14.19201c0,4.84193 0.75721,14.63937 0.75721,14.63937v118.69667z" fill="#0f0e02" stroke="#000000" stroke-width="2"/><path d="M345.45705,99.18795c0,0 1.50624,0.3948 4.19416,1.32424c2.4551,0.84895 4.35539,1.96697 4.35539,1.96697l0.13562,1.17872c0,0 -7.08194,-3.49285 -14.9714,-3.23241c-6.30822,0.20826 -10.09275,2.30458 -10.09275,2.30458l0.25707,-4.16916c0,0 3.20972,-1.54375 7.94749,-1.45523c4.90593,0.09168 8.05055,0.99995 8.05055,0.99995z" data-paper-data="{&quot;index&quot;:null}" fill="#000000" stroke="none" stroke-width="1.5"/><path d="M305.203,101.24969c0,0 3.45737,-1.64614 8.13762,-1.87235c5.18631,-0.25068 7.76163,0.32694 7.76163,0.32694l0.08531,4.1471c0,0 -3.79618,-0.87389 -7.9813,-0.92623c-5.59709,-0.07002 -6.70888,1.09481 -10.97948,1.33725c-3.65928,0.20774 -6.73664,-0.18232 -6.73664,-0.18232l0.03647,-1.23128c0,0 3.58682,0.25583 5.23046,0.1966c1.3566,-0.0489 4.01808,-0.73568 4.01808,-0.73568z" fill="#000000" stroke="none" stroke-width="1.5"/><path d="M307.52269,153.34822l-0.55965,-0.6194c-2.05336,-2.29193 -4.49343,-3.41665 -6.5107,-5.64929c-0.0355,-0.03929 -0.61087,-0.49071 -1.06526,-0.97505c-0.04542,0.19874 -0.11377,0.37754 -0.19919,0.49313c-0.05793,0.07839 -0.12062,0.15207 -0.18721,0.22192l0.04892,0.03632l-0.62509,0.84196c-0.19178,0.26634 -0.5106,0.43292 -0.86276,0.41508c-0.55158,-0.02795 -0.97606,-0.49774 -0.94811,-1.04933l0.048,-0.94731c-0.90845,-1.37405 -1.51829,-3.15562 -2.4804,-4.42371c-1.30406,-1.71877 -3.50801,-3.37252 -4.31914,-5.50029c-0.55697,-1.46109 -0.33676,-2.98636 -1.17502,-4.34201c-0.67123,-1.21222 -1.27489,-3.21458 -1.40307,-4.64145c-0.03911,-0.43532 0.02454,-3.90759 -0.45773,-3.88728c-1.52505,0.06422 -2.67307,1.90109 -3.83861,2.60722c-2.56172,1.55199 -5.24118,2.70605 -8.06516,2.40242l-0.01578,0.31147l-1.17906,-0.05975c-0.55158,-0.02795 -0.97606,-0.49774 -0.94811,-1.04933c0.01784,-0.35216 0.21581,-0.65251 0.50017,-0.81638l0.90084,-0.53678c2.46261,-1.45062 4.5371,-3.00391 6.50625,-5.00957c-1.18441,0.12962 -2.40546,-0.04417 -3.8261,-0.43263c-0.66798,-0.18265 -2.80337,-0.79923 -3.00953,-1.35938c-0.24996,-0.67915 1.39635,-2.56127 1.80683,-2.99419c1.99892,-2.10824 5.16552,-4.4765 6.40685,-7.10791c0.53031,-1.12417 0.57223,-2.14398 1.34336,-3.18265c0.45703,-1.57994 0.96172,-2.91786 1.69787,-4.34677c0.06001,-0.11649 0.11169,-0.28947 0.16395,-0.46734c-0.19552,0.10766 -0.40108,0.20083 -0.54481,0.26167c-1.39278,0.58957 -3.96831,1.31626 -4.86176,-0.66005c-0.98382,-2.17622 1.8156,-4.3092 3.11094,-5.45565c1.26911,-1.12324 1.64217,-3.0552 1.7228,-4.6464c2.33566,-7.66971 4.58698,-15.69487 9.5707,-22.40766c3.6188,-4.87433 8.66194,-9.76273 13.22953,-13.6672c1.13341,-0.96887 2.92134,-1.29104 4.24915,-2.06101c2.14629,-0.42246 4.01059,-1.66057 6.28578,-1.82821c7.1344,-0.5257 14.45695,1.82808 21.51375,2.29152c2.46245,1.3505 5.17093,1.52747 7.72095,2.8165c3.35361,1.69525 6.23683,4.29911 9.46303,6.10373c2.46272,1.37755 4.07704,2.04763 5.57047,4.62306c0.65117,3.19335 2.03729,5.99741 2.26838,9.26329c0.39351,5.56145 -1.42569,12.45443 0.85861,17.66704c-0.10848,3.03904 2.002,5.46438 3.06711,8.24986c1.21181,3.16916 1.30209,6.20097 1.94691,9.43993c0.52845,2.6545 1.3033,4.76435 0.062,6.7677l0.32791,0.24346l-0.62509,0.84196c-0.19177,0.26634 -0.5106,0.43292 -0.86276,0.41508c-0.47529,-0.02408 -0.85621,-0.37625 -0.9346,-0.82612l-0.20562,-1.0446c-1.33349,-2.18011 -1.4874,-4.58991 -3.04225,-6.68676c-0.06734,-0.09081 -0.14044,-0.17331 -0.2168,-0.24927c0.61466,4.95735 -0.34526,10.18487 -1.73153,14.83013c-1.63336,5.3635 -3.42739,10.2524 -4.92661,15.68528c-0.74726,2.70793 -1.2653,5.28453 -3.0082,7.11842l0.29352,0.32485l-0.92909,0.83948c-0.1899,0.17157 -0.44524,0.2707 -0.72103,0.25673c-0.55157,-0.02795 -0.97606,-0.49774 -0.94811,-1.04933l0.05975,-1.17906c0.01643,-0.30305 -0.16017,-1.49867 -0.23403,-2.55655c-0.3148,0.78946 -0.68985,1.56611 -0.73602,1.67271c-0.77188,1.78216 -1.59969,2.87136 -2.80988,3.86907l0.10708,0.08911l-0.93659,1.1253c-0.19429,0.23865 -0.49576,0.38471 -0.82666,0.36795c-0.55157,-0.02795 -0.97606,-0.49774 -0.94811,-1.04933c0.00463,-0.09137 0.02139,-0.17925 0.04863,-0.26217l0.32102,-1.05413c0.05582,-1.16987 0.09003,-2.82037 0.29509,-4.1892c-0.48049,0.38488 -1.00288,0.73487 -1.3247,1.08302c-1.96778,2.12878 -3.87672,3.70537 -6.19389,5.21967c-1.19481,1.29168 -2.51891,2.41159 -3.94429,3.36296c-0.20783,0.28017 -0.41581,0.56024 -0.62375,0.84034c-2.36211,3.18164 -5.95346,5.29901 -9.19052,7.18535c-0.88339,0.51478 -1.48762,1.61737 -2.63885,2.03215c-3.12052,1.12429 -8.03023,-0.99145 -9.35097,-3.84216c-0.48948,-0.84213 -0.52137,-2.13807 -1.17723,-2.80942c-1.6187,-1.65695 -3.22615,-3.24526 -4.76856,-4.9622c-0.34424,-0.07385 -0.57803,-0.33259 -0.57803,-0.33259zM314.35326,157.30215c0.86627,1.01339 0.80349,2.14709 1.47168,3.23522c0.78146,1.92862 4.7358,3.70518 6.85706,2.88955c1.05692,-0.40638 1.42677,-1.33357 2.28648,-1.85556c1.89189,-1.14871 3.95955,-2.31741 5.78805,-3.78114c-3.35207,1.2037 -7.00577,1.69742 -10.71106,1.50966c-2.68744,-0.15168 -4.16202,-1.27354 -6.24508,-2.62591c0.18779,0.20772 0.37235,0.417 0.55287,0.62816zM335.58672,152.2454l0.99895,-0.90916c0,0 0.32775,-0.29612 0.74439,-0.27694c0.40933,-0.24776 0.80753,-0.4971 1.19605,-0.74905c0.5071,-0.55229 0.9915,-1.13798 1.45133,-1.75734c1.23211,-0.53929 0.23251,-1.29909 -1.01308,-1.92975l-0.0075,0.01119c-2.31872,0.4564 -4.35809,1.53564 -6.55644,2.01886c-2.19125,0.48166 -4.7221,-0.35535 -6.98743,-0.02047c-0.48758,-0.02582 -0.97814,-0.05376 -1.47098,-0.0846c-0.19115,0.01398 -0.41169,-0.00218 -0.64942,-0.04231c-3.89272,-0.26395 -7.9068,-0.72891 -11.69552,-1.77478c-2.80691,-0.77485 -5.95697,-2.69346 -8.80031,-2.78571c0,0 -0.20186,-0.01023 -0.41948,-0.11224c-0.00247,0.17765 0.00795,0.37137 0.032,0.58319c2.53158,1.67853 4.62107,4.73485 6.62726,7.00156c1.40763,1.59045 3.79006,2.2535 5.53404,3.37315c1.95528,1.2553 3.12091,2.40446 5.5761,2.51145c5.22768,0.2649 10.2,-0.89282 14.32805,-3.56663c0.36994,-0.49734 0.7404,-0.99428 1.11197,-1.49044zM351.71822,122.46521c0.91362,-0.2319 1.21089,-1.08086 2.08813,-1.87704c3.14438,-2.85382 3.83008,-5.9969 4.07251,-10.19307c-0.42466,-2.63846 -2.99337,-0.21172 -3.80374,1.06481c-0.48485,0.76376 -0.90716,1.5769 -1.26067,2.42442c0.03112,0.4888 0.1191,0.98937 -0.03045,1.44427c-0.40235,1.22386 -0.80428,2.45542 -1.20008,3.6953c-0.08377,1.14809 -0.04298,2.30481 0.1343,3.44131zM343.70684,139.99861c0.52644,-1.48024 1.65327,-2.49679 1.94877,-4.16624c0.5905,-3.33592 -0.58605,-6.86589 1.751,-9.65429c0.62517,-2.67851 1.39101,-5.30525 2.23627,-7.87747c0.18509,-1.77126 0.62837,-3.52063 1.30257,-5.15127c-0.01717,-0.29278 -0.01276,-0.58164 0.07562,-0.85455c0.76541,-2.36334 1.68819,-4.8209 2.18984,-7.37116l-0.20757,-0.13246c-1.77214,-0.56021 -3.49907,-1.43017 -4.93802,-2.62745c-0.71187,-0.00178 -1.42988,-0.03282 -2.15171,-0.08291c-0.06598,0.00758 -0.13715,0.00989 -0.21393,0.006c-0.101,-0.00512 -0.19127,-0.01994 -0.27194,-0.04244c-3.71138,-0.29811 -7.5101,-1.03707 -11.0865,-0.83616c-1.28063,0.07194 -3.96268,2.15105 -5.22245,1.0084c-0.53426,-0.4846 -0.45661,-1.35485 -0.26134,-2.14612c-0.00545,-0.00584 -0.0109,-0.01177 -0.01634,-0.01779c-0.67042,-0.74198 0.07157,-1.4124 0.07157,-1.4124l0.88844,-0.73358c1.02895,-0.44902 2.04189,-1.26278 3.08088,-1.63712c2.00397,-0.72201 4.43976,-0.408 6.44022,-0.04727c3.4619,0.62426 7.14456,-0.23546 7.42042,3.95459c0.67366,0.02043 1.3412,0.05184 1.99838,0.10439c1.49981,1.04145 3.02834,2.055 4.77107,2.5749c0.02343,-0.25946 0.04113,-0.51982 0.05252,-0.7811c0.20922,-4.12884 -0.35129,-7.86831 -1.13864,-11.93119c-0.28648,-1.47832 0.07399,-3.2164 -1.7855,-3.80781c-2.5873,-0.82288 -3.44944,0.37077 -5.84895,0.84307c-3.73482,2.30937 -9.12667,4.13559 -13.43094,4.99312c-2.23236,0.44474 -4.31094,0.45257 -6.31205,1.64032l-0.06672,0.00256l0.01059,0.02415l-1.19051,0.52171c-0.14249,0.06604 -0.30267,0.09938 -0.47041,0.09088c-0.55158,-0.02795 -0.97606,-0.49775 -0.94811,-1.04933c0.01785,-0.35217 0.2158,-0.65251 0.50016,-0.81638l0.90084,-0.53678l0.06411,0.10758l0.00872,-0.00382c1.23755,-1.38943 2.65557,-2.53379 4.16588,-3.67196c0.42874,-0.32311 0.96629,-0.91877 1.50539,-1.40784c-0.70898,0.20554 -1.4937,0.14471 -2.18775,0.40361c-2.33255,0.87009 -4.79885,1.68208 -7.10648,2.65391c-2.42343,-0.08651 -3.98903,0.90909 -6.11704,1.69987c-3.97667,1.47775 -8.59831,1.98893 -12.50536,3.1752c-0.80275,0.24374 -0.98599,3.12421 -1.16788,3.73367c-0.45608,1.46164 -0.70361,2.86773 -0.797,4.24561c1.24557,-0.04564 2.49406,-0.18717 3.74433,-0.37402c0.17925,-0.81243 1.30039,-2.48628 1.7549,-2.69033c1.43896,-0.64602 3.44458,0.53622 4.90188,0.17289c1.79839,-0.44837 3.67718,-1.67295 5.57948,-1.82138c1.55033,-0.12096 5.35576,0.53107 6.19397,1.96333c0.42754,0.73052 -0.09918,3.29654 -0.81999,3.70761c-0.56353,0.32138 -1.28392,-0.18689 -1.92588,-0.28032c-1.37048,-0.42763 -2.75944,-0.62223 -4.15993,-0.66172c1.73562,1.22336 5.94892,1.18601 6.93008,3.20002c0.75367,1.54703 0.53206,3.17202 -0.10974,4.76374c0.26665,0.30995 0.24488,0.73942 0.24488,0.73942c-0.14616,2.88436 0.84524,5.3684 1.0543,8.20566c0.31269,4.24371 -0.44036,8.83827 -0.65591,13.092c-0.16605,3.27693 -0.62315,6.46562 -0.78767,9.71227c-0.03632,0.71683 -0.40635,2.28283 -0.03768,2.96755c0.2481,0.46078 0.99836,0.32798 1.46434,0.56616c0.08279,0.04231 0.13866,0.16174 0.193,0.26573c0.12153,0.00822 0.24295,0.01619 0.36423,0.02394c0.22769,-0.34304 -0.04029,-1.01892 0.03953,-1.47902c0.33887,-1.9534 0.48065,-3.88089 0.59349,-5.88034c0.37984,-1.24727 0.66463,-2.51573 0.88393,-3.79868c-0.13214,-0.25033 -0.19275,-0.60654 0.11179,-1.01674c0.01949,-0.02626 0.0392,-0.05101 0.05911,-0.07435c0.94377,-6.59758 0.39348,-13.5244 2.29162,-19.88489c0.06589,-0.21635 0.13177,-0.43272 0.19766,-0.64908c-0.00472,-0.06602 -0.00899,-0.13203 -0.01275,-0.19803c-0.29191,-0.08359 -0.74653,-0.32349 -0.71197,-1.00539c0.03207,-0.63285 0.44484,-0.84437 0.74296,-0.91441c0.1493,-1.59941 0.61857,-3.09514 1.46042,-4.25768c1.65761,-2.2133 4.31567,-4.28835 7.1452,-4.50911c5.35915,-0.41814 14.04081,3.10537 12.14935,9.71083c-0.04597,0.9072 0.01529,2.35807 -0.82458,2.98925c-0.00924,0.00695 -0.01859,0.0138 -0.02804,0.02053c-0.58778,3.07978 -2.29998,5.75316 -5.13937,7.44506c-2.03733,1.12811 -4.11997,0.52231 -6.29958,0.13697c-2.10892,-0.37285 -4.23987,-0.62187 -5.78586,-2.35207c-0.69771,-0.78086 -1.27965,-1.76292 -1.72453,-2.85341c-1.05328,5.41214 -0.74931,11.1708 -1.50882,16.67987c1.77348,1.54332 2.71378,3.55687 0.38065,5.28052c1.40604,0.02148 2.9008,0.01422 4.14862,0.61249c2.38562,1.14378 4.5133,2.7225 6.83281,3.83071c0.07649,-0.01149 0.16029,-0.01571 0.2521,-0.01106c0.45769,0.02319 0.695,0.24551 0.81781,0.47956c0.18487,0.07313 0.37129,0.14262 0.55949,0.20805c0.33039,0.11488 0.63223,0.26028 0.90189,0.42975c1.21549,-1.73716 1.9249,-3.58474 2.59838,-5.47845zM300.73509,122.74419c-0.30108,5.94158 0.88187,11.75638 0.57763,17.7605l-0.05454,1.07633c1.67761,-2.5654 5.98131,-3.32472 9.30978,-2.7832c1.8159,0.29544 4.13373,1.69938 6.02676,1.22741c0.66846,-0.16666 1.20003,-0.37653 1.76006,-0.53258c-3.42497,-2.68662 -1.78496,-6.15029 2.01552,-6.37176c0.004,-0.07329 0.00787,-0.14663 0.01159,-0.22001c0.21123,-4.16855 0.96642,-8.6904 0.6585,-12.8472c-0.1557,-2.10191 -0.71285,-4.00864 -0.95677,-6.02491c-0.87627,1.3772 -1.79923,2.66472 -2.3392,3.77647c-0.53464,1.10078 -0.82829,2.38887 -1.89304,3.20485c-0.71031,0.54434 -1.61465,0.7764 -2.38835,1.2261c-5.31059,1.07155 -10.95405,-2.96636 -12.45111,-8.02056c0.21962,2.81157 -0.13716,5.77162 -0.27686,8.52855zM340.27844,98.26584c-2.12334,-0.11402 -4.57222,-0.9394 -6.6809,-0.12861c-0.83993,0.32295 -1.64923,0.905 -2.47771,1.34815c-0.06837,0.21133 -0.17933,0.52741 -0.2935,0.7978c0.91726,-0.50788 3.10803,-1.04705 3.37134,-1.06979c1.33116,-0.11494 2.49943,0.25792 3.76628,0.48637c2.1693,0.39117 4.47566,0.40996 6.7602,0.4389c-0.29111,-2.04365 -2.24515,-1.75463 -4.44572,-1.8728zM301.67589,107.56805c0,0 0.20535,-0.36344 0.58551,-0.48802l0.10163,-0.17583c1.24305,-1.43017 2.6445,-1.37566 4.42542,-1.93254c0.91168,-0.28508 1.71404,-0.95963 2.54638,-1.49676c-3.25563,0.53693 -6.52394,1.34994 -9.72121,1.49781c0.07156,2.24269 0.49216,4.44454 1.01628,6.72906c-0.01023,-1.37803 0.31182,-2.78025 1.04598,-4.13372zM312.13404,144.80449c2.4302,0.67063 4.95594,1.1023 7.47847,1.38859c-0.34597,-1.10128 -0.07173,-2.52531 -0.01829,-3.57992c0.02279,-0.44978 0.05117,-0.89825 0.0836,-1.34586c-1.49369,0.03193 -2.5044,0.72514 -4.07179,0.66745c-3.83256,-0.14108 -6.44153,-1.79529 -10.26186,-0.5822c-0.72543,0.23034 -1.35887,0.40399 -1.85211,0.65266c2.89261,0.36981 5.8119,2.0183 8.64197,2.79927zM325.31689,146.63506c2.077,-0.30704 4.64736,0.56432 6.60157,0.07709c1.42289,-0.35476 2.7821,-0.90134 4.19758,-1.37079c-3.34777,-1.65444 -5.61936,-3.24312 -9.57388,-3.44351l-0.15248,0.18209c0,0 -0.1371,0.06008 -0.32845,0.08071c-0.09833,1.54308 -0.29677,3.10073 -0.83671,4.46989c0.0308,0.00151 0.0616,0.00302 0.09237,0.00451zM319.61464,137.93931l0.3385,0.18487c0.09606,-0.99781 0.19424,-1.99639 0.27727,-3.00061c-1.82475,0.16198 -2.66013,1.36776 -0.61577,2.81575zM329.82279,113.82226c-0.01934,0.06348 -0.03867,0.12697 -0.05799,0.19045c0.23816,2.12677 1.03483,4.23483 2.16763,5.46704c1.24702,1.35647 2.98243,1.42863 4.6464,1.7228c1.51229,0.26736 3.56678,1.03406 4.93132,0.11503c2.00276,-1.19337 3.54418,-3.15647 4.1139,-5.37347c-0.961,-0.07343 -2.03867,-0.33573 -2.95405,-0.59911c-1.95797,5.51062 -7.46643,1.46151 -10.568,-0.81698c0,0 -0.40158,-0.29814 -0.42588,-0.75671c-0.60602,-0.02133 -1.21984,-0.0457 -1.84346,-0.07671zM345.66425,113.41076l0.38359,0.14854l0.22195,-0.64518c0,0 0.09207,-0.23572 0.30217,-0.42368c-0.01337,-0.08887 -0.02022,-0.17438 -0.01618,-0.25408c0.63868,-1.95339 -0.05875,-2.90958 -1.27159,-4.25793c-0.43115,-0.47931 -0.47917,-1.35507 -1.07117,-1.61035c-0.68407,-0.29499 -1.49226,-0.14602 -2.20555,-0.36095c-4.51319,-1.35996 -8.17487,-1.51323 -11.17031,2.56424c-0.62101,0.80838 -0.97036,1.90098 -1.09435,3.09927c2.0192,0.06613 4.08698,0.09384 6.12322,0.25529c3.256,0.15176 6.41646,0.45502 9.79822,1.48486zM312.93352,101.13999c2.24739,-0.1625 4.49119,-0.05681 6.72479,0.60975c0.8241,0.87806 0.4911,-0.42451 0.41088,-0.55003c-0.35082,-0.54899 -3.52652,-0.98442 -4.29803,-0.9325c-0.94271,0.06344 -1.8954,0.46073 -2.83764,0.87278zM312.73084,116.92235c-1.83662,0.48404 -3.55696,-0.43431 -5.06794,-1.186c-0.68348,-0.34003 -2.13856,-0.3475 -2.6199,-0.93148c-0.85281,-1.03466 -0.51696,-1.95772 -0.20674,-2.9488c-0.75823,-0.04948 -1.51666,-0.09481 -2.27514,-0.13428c0.05895,4.78324 5.55286,9.52147 10.18642,8.64677c0.58925,-0.36184 1.29892,-0.51577 1.85783,-0.92289c0.79416,-0.57849 0.96714,-1.75882 1.35333,-2.54107c0.62208,-1.26005 1.69493,-2.62853 2.60763,-4.0764l-0.30252,-0.01533c-0.86647,-0.04391 -1.73421,-0.09587 -2.60302,-0.15325c-0.50544,1.70352 -0.90561,3.7292 -2.92995,4.26272zM318.36502,110.81544l0.88429,0.04481c0,0 0.15906,0.00806 0.34699,0.08121c0.55365,-1.25491 0.8174,-2.55611 0.44064,-3.88693c-0.13423,-0.47418 -0.93308,-0.31834 -1.40543,-0.45885c-1.5109,-0.44943 -3.14725,-0.72914 -4.3933,-1.71329c-0.87601,-0.00219 -2.13057,-0.33665 -2.95833,-0.14991c-1.29065,0.29115 -2.5662,1.71842 -3.89336,2.14765c-0.97176,0.31429 -3.06189,0.46338 -3.41767,1.21627l-0.2569,0.47039c0,0 -0.19661,0.348 -0.56124,0.47967c-0.10952,0.22739 -0.20287,0.45722 -0.28081,0.68884c5.18104,0.27687 10.363,0.82007 15.49512,1.08013zM326.52793,138.26321c0.76768,-0.29848 0.66788,-0.79108 0.28969,-1.27302c-0.08746,0.4265 -0.18363,0.85095 -0.28969,1.27302z" fill="#000000" stroke="none" stroke-width="0.5"/><path d="M351.54901,119.0597c0.39578,-1.23988 0.78447,-2.52073 1.18683,-3.74459c0.14955,-0.4549 0.07545,-0.97839 0.04433,-1.4672c0.35352,-0.84751 0.80337,-1.6738 1.28822,-2.43756c0.81037,-1.27653 3.41113,-3.69684 3.83579,-1.05837c-0.24243,4.19617 -0.96245,7.43155 -4.10682,10.28536c-0.87724,0.79618 -1.18593,1.6416 -2.09953,1.87351c-0.17728,-1.1365 -0.23257,-2.30306 -0.1488,-3.45115z" data-paper-data="{&quot;noHover&quot;:false,&quot;origItem&quot;:[&quot;Path&quot;,{&quot;applyMatrix&quot;:true,&quot;segments&quot;:[[[268.21396,123.01191],[-0.23457,-1.12607],[0.90071,-0.27784]],[[270.20442,121.0316],[-0.83582,0.83955],[2.99592,-3.00929]],[[273.75586,110.64549],[-0.02976,4.20306],[-0.55764,-2.61359]],[[270.01088,111.90144],[0.74473,-1.31591],[-0.44558,0.78732]],[[268.87451,114.38655],[0.31018,-0.86432],[0.05582,0.4866]],[[268.9172,115.83051],[0.12634,-0.46189],[-0.3399,1.24265]],[[267.90567,119.58181],[0.33253,-1.25832],[-0.02556,1.15086]]],&quot;closed&quot;:true}]}" fill="#ffffff" stroke="none" stroke-width="0.5"/><path d="M329.78865,113.67085c0.62362,0.03101 1.2404,0.05057 1.84642,0.0719c0.0243,0.45859 0.42426,0.75919 0.42426,0.75919c3.10156,2.2785 8.69757,6.33167 10.65554,0.82105c0.91537,0.26337 1.99681,0.53617 2.95782,0.6096c-0.56972,2.217 -2.12214,4.22452 -4.1249,5.41789c-1.36454,0.91903 -3.4706,0.16746 -4.98289,-0.09989c-1.66396,-0.29418 -3.43349,-0.40049 -4.68051,-1.75695c-1.1328,-1.23223 -1.92625,-3.3763 -2.16441,-5.50307c0.01934,-0.06348 0.03918,-0.12797 0.0585,-0.19145z" data-paper-data="{&quot;noHover&quot;:false,&quot;origItem&quot;:[&quot;Path&quot;,{&quot;applyMatrix&quot;:true,&quot;segments&quot;:[[[245.90918,115.48812],[0,0],[-0.0161,0.06438]],[[245.8609,115.68126],[0.0161,-0.06438],[0.34549,2.11199]],[[248.30242,121.0316],[-1.19371,-1.17332],[1.31407,1.29162]],[[253.03005,122.51705],[-1.67672,-0.20959],[1.52388,0.19048]],[[257.96087,122.38236],[-1.31628,0.98691],[1.9398,-1.2932]],[[261.79756,116.80758],[-0.45679,2.24299],[-0.96348,-0.0247]],[[258.81698,116.35875],[0.92753,0.21671],[-1.67658,5.60265]],[[248.22118,116.07763],[3.2129,2.11862],[0,0]],[[247.75755,115.34344],[0.04748,0.45677],[-0.60632,0.00937]],[[245.91257,115.36011],[0.62439,-0.00059],[0,0]]],&quot;closed&quot;:true}]}" fill="#ffffff" stroke="none" stroke-width="0.5"/><path d="M326.81641,136.94021c0.3782,0.48194 0.45736,1.0695 -0.31032,1.36798c0.10605,-0.42207 0.22286,-0.94148 0.31032,-1.36798z" data-paper-data="{&quot;noHover&quot;:false,&quot;origItem&quot;:[&quot;Path&quot;,{&quot;applyMatrix&quot;:true,&quot;segments&quot;:[[[243.85545,140.0645],[0.08455,-0.4269],[0.75159,-0.33695]],[[244.08034,138.77845],[0.40211,0.46218],[-0.06576,0.43038]]],&quot;closed&quot;:true}]}" fill="#ffffff" stroke="none" stroke-width="0.5"/><path d="M320.25765,135.08164c-0.08302,1.00423 -0.1885,2.09058 -0.28456,3.08839l-0.34656,-0.18215c-2.04435,-1.44799 -1.19363,-2.74425 0.63112,-2.90623z" data-paper-data="{&quot;noHover&quot;:false,&quot;origItem&quot;:[&quot;Path&quot;,{&quot;applyMatrix&quot;:true,&quot;segments&quot;:[[[236.93463,140.09088],[-2.11501,-1.34267],[0,0]],[[237.28205,140.25838],[0,0],[0.04544,-1.00139]],[[237.40711,137.24758],[-0.03209,1.00714],[-1.81421,0.25412]]],&quot;closed&quot;:true}]}" fill="#999999" stroke="none" stroke-width="0.5"/><path d="M325.17786,146.64847c0.53995,-1.36915 0.74038,-2.96716 0.8387,-4.51023c0.19135,-0.02063 0.32947,-0.08265 0.32947,-0.08265l0.15367,-0.18412c3.95453,0.20039 6.31798,1.8231 9.66576,3.47754c-1.41547,0.46945 -2.80059,1.05251 -4.22348,1.40726c-1.95421,0.48723 -4.59466,-0.41003 -6.67165,-0.10299c-0.03077,-0.00149 -0.06168,-0.0033 -0.09249,-0.00481z" data-paper-data="{&quot;noHover&quot;:false,&quot;origItem&quot;:[&quot;Path&quot;,{&quot;applyMatrix&quot;:true,&quot;segments&quot;:[[[243.06965,148.48691],[-0.03081,0.00007],[2.0588,-0.41176]],[[249.66667,148.22981],[-1.92705,0.5855],[1.40311,-0.42631]],[[253.7895,146.64835],[-1.3899,0.54048],[-3.42721,-1.4829]],[[244.05361,143.69377],[3.9596,0],[0,0]],[243.91054,143.88335],[[243.58661,143.98057],[0.19006,-0.03029],[-0.02011,1.54608]],[[242.97718,148.48708],[0.46997,-1.39472],[0.03084,-0.00005]]],&quot;closed&quot;:true}]}" fill="#999999" stroke="none" stroke-width="0.5"/><path d="M303.44272,141.99719c0.49325,-0.24868 1.12836,-0.42933 1.85378,-0.65967c3.82032,-1.21311 6.52423,0.43981 10.35679,0.58089c1.5674,0.0577 2.57929,-0.6315 4.07299,-0.66342c-0.03243,0.44761 -0.05946,0.90398 -0.08226,1.35376c-0.05344,1.05462 -0.33041,2.4999 0.01556,3.60118c-2.52253,-0.2863 -5.07817,-0.68786 -7.50837,-1.35848c-2.83007,-0.78097 -5.81589,-2.48444 -8.7085,-2.85425z" data-paper-data="{&quot;noHover&quot;:false,&quot;origItem&quot;:[&quot;Path&quot;,{&quot;applyMatrix&quot;:true,&quot;segments&quot;:[[[229.81105,147.32584],[-2.86597,-0.63674],[2.46103,0.54678]],[[237.35022,148.33418],[-2.53379,-0.15827],[-0.40126,-1.08236]],[[237.15078,144.75977],[0,1.05597],[0,-0.45036]],[[237.16616,143.41141],[-0.00974,0.44868],[-1.49016,0.10748]],[[233.13337,144.28406],[1.56831,-0.0217],[-3.83479,0.05306]],[[222.8552,144.22195],[3.75403,-1.40489],[-0.71284,0.26676]],[[221.03849,144.9675],[0.48003,-0.27332],[2.90762,0.22295]]],&quot;closed&quot;:true}]}" fill="#999999" stroke="none" stroke-width="0.5"/><path d="M334.52376,153.74567c-4.12805,2.6738 -9.15771,3.871 -14.38539,3.6061c-2.45518,-0.107 -3.65612,-1.28099 -5.61138,-2.53629c-1.74398,-1.11965 -4.13278,-1.80576 -5.54042,-3.3962c-2.00618,-2.26671 -4.09283,-5.34116 -6.62441,-7.01969c-0.02405,-0.21182 -0.03402,-0.40679 -0.03154,-0.58444c0.21763,0.10201 0.41952,0.11213 0.41952,0.11213c2.84333,0.09225 5.99446,2.00832 8.80138,2.78317c3.78871,1.04587 7.87998,1.49271 11.7727,1.75665c0.23773,0.04013 0.46345,0.06118 0.65461,0.0472c0.49283,0.03085 0.98987,0.06758 1.47745,0.0934c2.26534,-0.33487 4.80177,0.51661 6.99302,0.03495c2.19835,-0.48322 4.14034,-1.5398 6.45906,-1.9962l0.10451,-0.03546c1.24559,0.63065 2.24623,1.39596 1.01413,1.93524c-0.45982,0.61936 -0.94383,1.2095 -1.45093,1.7618c-0.38852,0.25195 -0.78668,0.50344 -1.19601,0.7512c-0.41664,-0.01918 -0.74439,0.27784 -0.74439,0.27784l-0.99911,0.91236c-0.37158,0.49615 -0.74284,0.99887 -1.11279,1.49621z" data-paper-data="{&quot;noHover&quot;:false,&quot;origItem&quot;:[&quot;Path&quot;,{&quot;applyMatrix&quot;:true,&quot;segments&quot;:[[[253.61024,153.57032],[-0.34599,0.51432],[0,0]],[254.5619,152.61178],[[255.29132,152.29752],[-0.41708,0.00193],[0.39627,-0.26816]],[[256.44793,151.4889],[-0.37527,0.27129],[0.4785,-0.57725]],[[257.80846,149.66036],[-0.42789,0.64184],[1.20324,-0.60095]],[[256.69903,147.78435],[1.27591,0.56681],[0,0]],[[256.69211,147.79591],[0,0],[-2.29265,0.57316]],[[250.24624,150.14399],[2.17108,-0.59385],[-2.16407,0.59194]],[[243.26673,150.47717],[2.24549,-0.44909],[-0.48826,-0.00111]],[[241.79335,150.46712],[0.49376,0.00587],[-0.1902,0.02364]],[[241.14262,150.45773],[0.23946,0.02805],[-3.90109,-0.06661]],[[229.37227,149.27711],[3.83678,0.85279],[-2.84253,-0.6318]],[[220.44226,146.94034],[2.84436,-0.05176],[0,0]],[[220.01764,146.84947],[0.22251,0.09087],[0.00652,0.17755]],[[220.07911,147.43028],[-0.03474,-0.21033],[2.61328,1.54826]],[[227.05221,154.08748],[-2.11832,-2.16228],[1.48632,1.51717]],[[232.74987,157.17625],[-1.79841,-1.02996],[2.0163,1.15474]],[[238.44592,159.40229],[-2.45745,0.01739],[5.23439,0]],[[252.57511,155.11512],[-3.98744,2.87929],[0.3443,-0.51542]]],&quot;closed&quot;:true}]}" fill="#999999" stroke="none" stroke-width="0.5"/><path d="M300.98311,114.17479c1.49705,5.0542 7.19222,9.08851 12.50281,8.01695c0.7737,-0.4497 1.68576,-0.67685 2.39606,-1.22119c1.06475,-0.81598 1.29874,-2.02384 1.83338,-3.12462c0.53997,-1.11175 1.52035,-2.48113 2.39663,-3.85833c0.24391,2.01627 0.81287,3.93439 0.96857,6.0363c0.30792,4.1568 -0.44309,8.73155 -0.65433,12.90011c-0.00372,0.07339 -0.00801,0.14751 -0.01201,0.22081c-3.80049,0.22147 -5.45678,3.7029 -2.0318,6.38952c-0.56002,0.15605 -1.09722,0.36915 -1.76568,0.5358c-1.89302,0.47196 -4.23303,-0.92687 -6.04892,-1.22231c-3.32848,-0.54153 -7.66009,0.20919 -9.3377,2.77458l0.05309,-1.07734c0.30425,-6.00412 -0.89369,-11.8821 -0.59261,-17.82368c0.1397,-2.75692 0.51214,-5.73503 0.29252,-8.5466z" data-paper-data="{&quot;noHover&quot;:false,&quot;origItem&quot;:[&quot;Path&quot;,{&quot;applyMatrix&quot;:true,&quot;segments&quot;:[[[217.31028,125.87069],[0,-2.76046],[0,5.9492]],[[218.78599,143.5792],[0,-6.01182],[0,0]],[[218.78599,144.65691],[0,0],[1.54563,-2.64701]],[[227.94299,141.40613],[-3.35162,-0.37239],[1.82852,0.20316]],[[234.02415,142.32697],[-1.86671,0.56716],[0.65917,-0.20028]],[[235.755,141.706],[-0.55141,0.18419],[-3.55655,-2.50985]],[[237.44548,135.2404],[-3.78441,0.41352],[0.00029,-0.0734]],[[237.44592,135.02009],[0,0.07348],[0,-4.1739]],[[237.45341,122.15603],[0.51789,4.13589],[-0.26187,-2.09134]],[[236.19296,116.18725],[0.34564,2.00134],[-0.80545,1.41978]],[[234.04788,120.07726],[0.48301,-1.13765],[-0.47825,1.12643]],[[232.31946,123.37381],[1.02209,-0.86882],[-0.68185,0.57959]],[[229.99622,124.71921],[0.74995,-0.48828],[-5.24956,1.33894]],[[217.15516,117.33905],[1.75091,4.97196],[0.36163,2.79685]]],&quot;closed&quot;:true}]}" fill="#999999" stroke="none" stroke-width="0.5"/><path d="M335.83227,111.96277c-2.03625,-0.16145 -4.1183,-0.21219 -6.1375,-0.27832c0.12399,-1.19829 0.47155,-2.30876 1.09255,-3.11714c2.99544,-4.07747 6.7446,-3.95308 11.25779,-2.59313c0.71329,0.21493 1.52888,0.07717 2.21295,0.37216c0.59199,0.25529 0.64423,1.14418 1.07538,1.62349c1.21286,1.34836 1.90785,2.33062 1.26917,4.28401c-0.00404,0.07971 0.00234,0.16645 0.01571,0.25531c-0.21009,0.18797 -0.30334,0.42635 -0.30334,0.42635l-0.22373,0.64859l-0.38377,-0.14823c-3.38175,-1.02984 -6.61921,-1.32133 -9.87522,-1.47309z" data-paper-data="{&quot;noHover&quot;:false,&quot;origItem&quot;:[&quot;Path&quot;,{&quot;applyMatrix&quot;:true,&quot;segments&quot;:[[[261.70952,114.27544],[-3.42953,-0.85738],[0,0]],[262.10014,114.40438],[262.28915,113.74879],[[262.56949,113.31035],[-0.20031,0.19836],[-0.01785,-0.08808]],[[262.54047,113.05741],[0,0.07981],[0.539,-1.98321]],[[261.05502,108.86928],[1.27954,1.28525],[-0.45485,-0.45688]],[[259.90374,107.3152],[0.60415,0.225],[-0.69812,-0.25999]],[[257.68275,107.06633],[0.72325,0.17856],[-4.57623,-1.12981]],[[246.65652,110.19259],[2.78525,-4.22384],[-0.5793,0.83877]],[[245.72042,113.34326],[0.06319,-1.20303],[2.01996,-0.03614]],[[251.84871,113.28834],[-2.04181,-0.05819],[3.25951,-0.01321]]],&quot;closed&quot;:true}]}" fill="#999999" stroke="none" stroke-width="0.5"/><path d="M300.59675,111.73919c-0.52412,-2.28452 -0.95536,-4.54791 -1.02693,-6.79059c3.19727,-0.14787 6.54821,-0.96828 9.80385,-1.50521c-0.83234,0.53714 -1.70819,1.27922 -2.61987,1.5643c-1.78091,0.55689 -3.1003,0.48219 -4.34335,1.91237l-0.10035,0.17126c-0.38016,0.12458 -0.58421,0.47645 -0.58421,0.47645c-0.73417,1.35347 -1.13939,2.79338 -1.12914,4.17141z" data-paper-data="{&quot;noHover&quot;:false,&quot;origItem&quot;:[&quot;Path&quot;,{&quot;applyMatrix&quot;:true,&quot;segments&quot;:[[[217.48184,110.66638],[-0.66473,1.38889],[0,0]],[[218.0419,110.14936],[-0.37337,0.14366],[0,0]],[[218.1345,109.96861],[0,0],[1.16908,-1.49125]],[[222.45645,107.81458],[-1.75045,0.6463],[0.89608,-0.33085]],[[224.92382,106.19087],[-0.80409,0.57857],[-3.22429,0.701]],[[215.29088,108.17873],[3.18569,-0.30949],[0.18497,2.23619]],[[216.6464,114.84774],[-0.63906,-2.25507],[-0.07996,-1.37575]]],&quot;closed&quot;:true}]}" fill="#999999" stroke="none" stroke-width="0.5"/><path d="M315.61946,112.68778c0.86881,0.05738 1.82369,0.06117 2.69016,0.10508l0.30282,0.01603c-0.9127,1.44787 -1.98198,2.84133 -2.60406,4.10138c-0.38619,0.78225 -0.56883,1.98689 -1.36299,2.56538c-0.55892,0.40713 -1.28346,0.57429 -1.87271,0.93614c-4.63355,0.8747 -10.19582,-3.93192 -10.25476,-8.71516c0.75848,0.03948 1.59917,0.14119 2.3574,0.19066c-0.31022,0.99109 -0.63694,1.8962 0.21587,2.93086c0.48134,0.58398 1.93727,0.58785 2.62075,0.92788c1.51098,0.75169 3.13407,1.64707 4.97069,1.16303c2.02434,-0.53353 2.43138,-2.51775 2.93682,-4.22127z" data-paper-data="{&quot;noHover&quot;:false,&quot;origItem&quot;:[&quot;Path&quot;,{&quot;applyMatrix&quot;:true,&quot;segments&quot;:[[[228.99602,119.44923],[1.99475,-0.63529],[-1.80977,0.57637]],[[223.87455,118.52123],[1.54709,0.67426],[-0.69981,-0.305]],[[221.21087,117.72354],[0.51028,0.55887],[-0.90408,-0.99018]],[[220.85516,114.78898],[-0.25967,1.00552],[-0.75976,-0.01104]],[[218.57615,114.77001],[0.75951,0.00104],[0.30094,4.77413]],[[229.18711,122.89018],[-4.58335,1.10807],[0.57018,-0.3912]],[[230.99585,121.87445],[-0.5376,0.43489],[0.76387,-0.61794]],[[232.21885,119.26816],[-0.34611,0.80079],[0.55751,-1.28992]],[[234.61684,115.06501],[-0.83826,1.4922],[0,0]],[[234.31393,115.06501],[0,0],[-0.86758,0]],[[231.70649,115.04369],[0.8706,0.01334],[-0.41858,1.72692]]],&quot;closed&quot;:true}]}" fill="#ffffff" stroke="none" stroke-width="0.5"/><path d="M302.82133,109.74718c0.07794,-0.23162 0.17058,-0.46489 0.28009,-0.69228c0.36463,-0.13168 0.5609,-0.48202 0.5609,-0.48202l0.25664,-0.47323c0.35579,-0.75289 2.44651,-0.91359 3.41827,-1.22787c1.32715,-0.42923 2.64615,-1.8978 3.9368,-2.18895c0.82776,-0.18674 2.12291,0.1614 2.99892,0.16359c1.24605,0.98415 2.89717,1.29277 4.40807,1.7422c0.47236,0.14052 1.27159,-0.01147 1.40583,0.46271c0.37675,1.33082 0.10922,2.65457 -0.44443,3.90948c-0.18795,-0.07316 -0.34713,-0.08089 -0.34713,-0.08089l-0.88513,-0.04294c-5.13213,-0.26006 -10.40779,-0.81292 -15.58882,-1.08979z" data-paper-data="{&quot;noHover&quot;:false,&quot;origItem&quot;:[&quot;Path&quot;,{&quot;applyMatrix&quot;:true,&quot;segments&quot;:[[[234.31393,113.06501],[-5.13871,0],[0,0]],[235.19936,113.06501],[[235.55002,113.12857],[-0.19141,-0.06355],[0.48943,-1.28132]],[[235.79339,109.22432],[0.44362,1.31005],[-0.15806,-0.46678]],[[234.36654,108.83718],[0.47887,0.11643],[-1.53171,-0.37239]],[[229.89216,107.34842],[1.29426,0.91983],[-0.875,0.04215]],[[226.93003,107.34842],[0.81725,-0.22839],[-1.27426,0.35609]],[[223.15035,109.69035],[1.30373,-0.49584],[-0.95461,0.36307]],[[219.7986,111.07801],[0.31723,-0.76993],[0,0]],[219.56584,111.56081],[[219.02959,112.06827],[0.3575,-0.14996],[-0.09787,0.23264]],[[218.784,112.77044],[0.06612,-0.23527],[5.18841,0.01431]]],&quot;closed&quot;:true}]}" fill="#999999" stroke="none" stroke-width="0.5"/><path d="M341.1312,145.52159c-0.26966,-0.16947 -0.57233,-0.31446 -0.90273,-0.42934c-0.18819,-0.06543 -0.3752,-0.13464 -0.56006,-0.20778c-0.1228,-0.23405 -0.36089,-0.45601 -0.81858,-0.4792c-0.09181,-0.00465 -0.17596,-0.00029 -0.25244,0.01121c-2.31951,-1.10823 -4.45598,-2.684 -6.8416,-3.82777c-1.24782,-0.59827 -2.75057,-0.5898 -4.15661,-0.61128c2.33314,-1.72365 1.39279,-3.73718 -0.38069,-5.28051c0.75951,-5.50906 0.41289,-11.34857 1.46616,-16.76071c0.44488,1.0905 1.03278,2.06623 1.73049,2.84708c1.54598,1.73021 3.66965,1.98734 5.77857,2.36018c2.17961,0.38534 4.25704,1.00027 6.29438,-0.12784c2.8394,-1.6919 4.5474,-4.34482 5.13518,-7.4246c0.00945,-0.00673 0.0188,-0.01354 0.02804,-0.02048c0.83987,-0.63118 0.7791,-2.07553 0.82507,-2.98273c1.89146,-6.60545 -6.77215,-10.09708 -12.13129,-9.67894c-2.82953,0.22078 -5.47441,2.30348 -7.13202,4.51679c-0.84185,1.16254 -1.27253,2.56603 -1.42184,4.16545c-0.29812,0.07004 -0.7151,0.27991 -0.74717,0.91277c-0.03455,0.6819 0.43559,0.93041 0.72751,1.014c0.00376,0.066 0.00991,0.13362 0.01465,0.19965c-0.06589,0.21635 -0.12704,0.43762 -0.19292,0.65398c-1.89814,6.36049 -1.3879,13.36949 -2.33167,19.96707c-0.01991,0.02333 -0.03976,0.04809 -0.05926,0.07435c-0.30454,0.41019 -0.24411,0.7664 -0.11197,1.01673c-0.2193,1.28296 -0.50563,2.55133 -0.88545,3.7986c-0.11285,1.99945 -0.2549,3.92691 -0.59376,5.88032c-0.07982,0.4601 0.18829,1.136 -0.0394,1.47903c-0.12128,-0.00776 -0.24329,-0.01577 -0.36483,-0.02399c-0.05434,-0.10398 -0.11055,-0.22343 -0.19335,-0.26576c-0.46598,-0.23819 -1.21872,-0.10568 -1.46682,-0.56647c-0.36867,-0.68473 0.00064,-2.25082 0.03696,-2.96765c0.16452,-3.24664 0.61947,-6.43574 0.78552,-9.71266c0.21555,-4.25374 0.95003,-8.8563 0.63733,-13.10002c-0.20906,-2.83726 -1.20665,-5.39809 -1.06049,-8.28245c0,0 0.02373,-0.43127 -0.24292,-0.74122c0.64181,-1.59172 0.91598,-3.13309 0.16231,-4.68012c-0.98117,-2.014 -5.18144,-1.98478 -6.91708,-3.20814c1.4005,0.0395 2.73213,0.15274 4.10262,0.58037c0.64195,0.09344 1.36775,0.59906 1.93127,0.27767c0.72081,-0.41107 1.27957,-2.88261 0.85204,-3.61313c-0.83821,-1.43225 -4.63106,-2.08954 -6.18138,-1.96858c-1.90231,0.14843 -3.77088,1.36504 -5.56927,1.81341c-1.45731,0.36333 -3.45876,-0.8237 -4.8977,-0.17768c-0.45451,0.20405 -1.57223,1.87278 -1.75148,2.68522c-1.25027,0.18685 -2.58691,0.28131 -3.83248,0.32695c0.0934,-1.37788 0.34433,-2.78988 0.8004,-4.25152c0.18188,-0.60947 0.36867,-3.49462 1.17142,-3.73836c3.90706,-1.18628 8.54459,-1.70983 12.52126,-3.18758c2.12801,-0.79078 3.70489,-1.79035 6.12832,-1.70384c2.30763,-0.97183 4.78727,-1.78495 7.11981,-2.65504c0.69405,-0.2589 1.48251,-0.19774 2.19149,-0.40328c-0.5391,0.48908 -1.08668,1.18421 -1.51542,1.50731c-1.5103,1.13817 -2.92012,2.28248 -4.15768,3.67191l-0.00871,0.00382l-0.064,-0.1076l-0.89883,0.53656c-0.28436,0.16388 -0.481,0.46403 -0.49885,0.8162c-0.02795,0.55157 0.38263,0.92237 0.9342,0.95032c0.16774,0.0085 0.32902,-0.02496 0.47152,-0.091l1.19331,-0.52191l-0.01061,-0.02415l0.06688,-0.00257c2.0011,-1.18774 4.09292,-1.19434 6.32528,-1.63908c4.30428,-0.85752 9.71245,-2.67675 13.44727,-4.98613c2.39951,-0.4723 3.26626,-1.66251 5.85356,-0.83963c1.85949,0.59141 1.50282,2.33302 1.7893,3.81135c0.78735,4.06289 1.35672,7.81492 1.1475,11.94376c-0.01139,0.26129 -0.11916,0.56506 -0.1426,0.82451c-1.74273,-0.5199 -3.26735,-1.52656 -4.76716,-2.56801c-0.65718,-0.05256 -1.32336,-0.08207 -1.99702,-0.1025c-0.27585,-4.19005 -3.94676,-3.31907 -7.40867,-3.94332c-2.00046,-0.36072 -4.42478,-0.66889 -6.42875,0.05311c-1.03899,0.37433 -2.04572,1.18987 -3.07467,1.63889l-0.88643,0.73397c0,0 -0.72433,0.57199 -0.05392,1.31398c0.00544,0.00602 0.01095,0.01197 0.0164,0.0178c-0.19527,0.79126 -0.27064,1.662 0.26362,2.1466c1.25977,1.14266 3.95537,-0.93109 5.23601,-1.00303c3.57639,-0.20091 7.391,0.55256 11.10238,0.85067c0.08068,0.02249 0.17117,0.03764 0.27217,0.04276c0.07677,0.00389 0.14808,0.00178 0.21406,-0.0058c0.72184,0.0501 1.44119,0.0832 2.15306,0.08498c1.43895,1.19729 3.16962,2.07464 4.94176,2.63485l0.2077,0.13278c-0.50165,2.55026 -1.42137,5.01944 -2.18677,7.38278c-0.08838,0.27291 -0.0926,0.56342 -0.07542,0.8562c-0.67421,1.63064 -1.11751,3.39053 -1.30259,5.16179c-0.84526,2.57222 -1.61582,5.21546 -2.241,7.89397c-2.33705,2.7884 -1.17044,6.33222 -1.76094,9.66813c-0.29551,1.66944 -1.42782,2.69066 -1.95425,4.17089c-0.67348,1.8937 -1.38972,3.7455 -2.60521,5.48266z" data-paper-data="{&quot;noHover&quot;:false,&quot;origItem&quot;:[&quot;Path&quot;,{&quot;applyMatrix&quot;:true,&quot;segments&quot;:[[[261.10017,140.92828],[-0.57678,1.92536],[0.45085,-1.50499]],[[262.83561,136.66876],[-0.21064,1.68226],[0.42092,-3.36153]],[[264.09578,126.93823],[-2.19294,2.9031],[0.48881,-2.70672]],[[265.93053,118.95768],[-0.714,2.6117],[0.09521,-1.77836]],[[266.97074,113.74708],[-0.59082,1.66267],[-0.03197,-0.29154]],[[267.00302,112.8898],[-0.07446,0.27703],[0.64483,-2.39905]],[[268.81701,105.41726],[-0.37194,2.57238],[0,0]],[[268.603,105.29547],[0,0],[-1.79822,-0.46981]],[[263.53834,102.92129],[1.4977,1.12293],[-0.71105,0.03425]],[[261.38518,102.94738],[0.72345,0.0135],[-0.06551,0.01091]],[[261.17184,102.9642],[0.07687,0],[-0.10113,0]],[[260.8981,102.93558],[0.08171,0.01838],[-3.72171,-0.1099]],[[249.78349,102.66156],[3.56164,-0.38165],[-1.27535,0.13666]],[[244.61877,103.93297],[1.31598,1.07744],[-0.5581,-0.45694]],[[244.24916,101.80282],[-0.15498,0.80013],[-0.00574,-0.00556]],[[244.23193,101.78588],[0.00574,0.00574],[-0.70711,-0.7071]],[244.23193,100.37166],[[245.08211,99.59406],[0,0],[1.00491,-0.50052]],[[248.07619,97.80312],[-1.01871,0.42643],[1.96486,-0.8225]],[[254.50576,97.42999],[-2.01615,-0.25902],[3.48906,0.44826]],[[262.11681,101.00398],[-0.48755,-4.17072],[0.67383,-0.01369]],[[264.11791,101.0071],[-0.659,-0.01923],[1.55059,0.96421]],[[269.01318,103.33725],[-1.76681,-0.43104],[0.01027,-0.26031]],[[269.0261,102.55448],[0.00185,0.26153],[0,-4.13414]],[[267.28511,90.6962],[0.99196,4.01784],[-0.36093,-1.46193]],[[265.30919,86.98363],[1.88704,0.49655],[-2.62563,-0.69089]],[[259.5104,88.12162],[2.37253,-0.59313],[-3.61316,2.49542]],[[246.34936,93.78805],[4.25537,-1.07425],[-2.20699,0.55715]],[[240.12841,95.7457],[1.93843,-1.28749],[0,0]],[240.06191,95.75164],[240.0737,95.77522],[[238.91113,96.35651],[0,0],[-0.13897,0.07317]],[[238.44592,96.47108],[0.16796,0],[-0.55229,0]],[[237.44592,95.47108],[0,0.55228],[0,-0.35262]],[[237.90412,94.63042],[-0.2757,0.17806],[0,0]],[238.77664,94.04874],[238.84611,94.15294],[[238.85464,94.14868],[0,0],[1.16565,-1.45028]],[[242.82934,90.2706],[-1.45076,1.21314],[0.41184,-0.34439]],[[244.26156,88.78838],[-0.51366,0.51574],[-0.69767,0.24116]],[[242.09703,89.30218],[0.68006,-0.29369],[-2.28553,0.98702]],[[235.13397,92.31234],[2.25549,-1.08737],[-2.4247,0.03625]],[[229.11079,94.3196],[2.08526,-0.89746],[-3.89679,1.67711]],[[216.78214,98.1236],[3.84202,-1.38249],[-0.78939,0.28405]],[[215.80471,101.91159],[0.1508,-0.61789],[-0.38152,1.48285]],[[215.22359,106.1921],[0.02355,-1.38084],[1.24166,-0.10862]],[[218.94419,105.62907],[-1.23921,0.24988],[0.1379,-0.82046]],[[220.56069,102.85337],[-0.4436,0.22679],[1.40442,-0.71801]],[[225.46503,102.77796],[-1.43705,0.43662],[1.77339,-0.53881]],[[230.94519,100.67655],[-1.89236,0.24451],[1.54222,-0.19926]],[[237.23058,102.32389],[-0.90962,-1.38799],[0.46396,0.70795]],[[236.59928,106.06825],[0.69908,-0.44702],[-0.54654,0.34949]],[[234.66168,105.88576],[0.64586,0.06083],[-1.39037,-0.35772]],[[230.47359,105.43541],[1.4007,-0.03143],[1.79531,1.13396]],[[237.55674,108.2806],[-1.08184,-1.96176],[0.831,1.50691]],[[237.68822,113.04379],[0.56043,-1.62216],[0.28199,0.29606]],[[237.97021,113.76987],[0,0],[0,2.88806]],[[239.43843,121.91166],[-0.35238,-2.82304],[0.52706,4.22245]],[[239.44592,135.02009],[0,-4.2592],[0,3.28113]],[[239.15078,144.75977],[0,-3.25081],[0,0.71775]],[[239.26333,147.72542],[-0.40285,-0.66519],[0.2711,0.44763]],[[240.75445,148.21676],[-0.47744,-0.2143],[0.08483,0.03807]],[[240.96064,148.47237],[-0.05953,-0.1011],[0.12179,0.00206]],[[241.32563,148.47785],[-0.12152,-0.00161],[0.21004,-0.35412]],[[241.29026,146.99872],[-0.05643,0.46355],[0.23958,-1.96805]],[[241.5854,141.09588],[-0.01152,2.0026],[0.31623,-1.26489]],[[242.27595,137.25733],[-0.15409,1.29241],[-0.14464,-0.24332]],[[242.33614,136.23624],[-0.28339,0.42508],[0.01814,-0.02721]],[[242.39141,136.15899],[-0.0187,0.02431],[0.60867,-6.63689]],[[243.67376,116.18361],[-1.57382,6.4484],[0.05486,-0.21941]],[[243.83832,115.52536],[-0.05486,0.21941],[-0.00806,-0.0657]],[[243.81556,115.32823],[0.0071,0.06572],[-0.29577,-0.06871]],[[243.05361,114.36016],[0,0.68277],[0,-0.63366]],[[243.74934,113.40932],[-0.29419,0.08504],[0.06817,-1.60492]],[[244.99242,109.08319],[-0.78194,1.20365],[1.54348,-2.29435]],[[251.90026,104.21825],[-2.81473,0.36369],[5.33112,-0.68882]],[[264.52549,113.30177],[1.55475,-6.69271],[0,0.90836]],[[263.85325,116.32893],[0.80685,-0.67288],[-0.00888,0.00741]],[[263.82628,116.35085],[0.0091,-0.0072],[-0.43117,3.10558]],[[259.07027,124.04646],[2.75014,-1.83343],[-1.97763,1.22977]],[[252.78569,124.50206],[2.19632,0.27454],[-2.12509,-0.26564]],[[246.88821,122.44581],[1.63156,1.64975],[-0.73633,-0.74455]],[[245.02148,119.68333],[0.4995,1.06659],[-0.77803,5.45851]],[[244.35874,136.41818],[0.47973,-5.54044],[1.84931,1.45159]],[[245.00613,141.67266],[2.24292,-1.83952],[1.40533,-0.0497]],[[249.18044,142.07441],[-1.2765,-0.53435],[2.44045,1.02158]],[[256.19835,145.55442],[-2.37262,-0.98942],[0.07581,-0.01535]],[[256.44957,145.53062],[-0.09193,0],[0.45828,0]],[[257.2906,145.96818],[-0.13449,-0.22754],[0.18833,0.06368]],[[257.85989,146.14765],[-0.19126,-0.05582],[0.33578,0.09801]],[[258.78238,146.53121],[-0.27789,-0.15561],[1.12602,-1.79645]]],&quot;closed&quot;:true}]}" fill="#999999" stroke="none" stroke-width="0.5"/><path d="M300.20885,112.33195c0.15723,1.0181 0.36828,2.0301 0.43027,3.07581c0.35884,6.05374 0.0708,11.80008 -2.46372,17.28464c-2.12326,2.48322 -6.75816,1.40596 -7.66759,-1.75146c-1.93012,-6.70114 -1.3486,-15.02887 -0.99996,-21.90898c0.08969,-1.77005 -0.22972,-3.93243 1.11201,-5.33463c1.63061,-1.7041 6.69211,-0.74949 8.34992,0.53419c1.82808,1.41551 1.36109,5.85451 1.23908,8.10044z" fill="#c300f0" stroke="none" stroke-width="0.5"/><path d="M351.76346,112.4c-0.35128,-0.30943 -0.32536,-0.82091 -0.32536,-0.82091l0.01494,-0.29477c0.09605,-1.89547 -0.52809,-6.60186 1.50516,-7.6035c1.82724,-0.90016 4.57695,1.04298 6.32019,1.13131c2.69268,1.9365 1.97155,4.28591 1.82102,7.25653c-0.34285,6.76586 -0.63714,14.42884 -5.38521,19.536c-3.40129,-0.0611 -4.60936,-2.30404 -5.55303,-5.26238c-1.59702,-5.00655 0.65563,-9.24463 1.6023,-13.94228z" fill="#c300f0" stroke="none" stroke-width="0.5"/><path d="M296.06237,105.18989c-0.14003,-0.27391 -0.12551,-0.5605 -0.12551,-0.5605l0.02987,-0.58952c0.02254,-0.44473 0.10324,-2.59285 0.26154,-2.82338c1.4112,-2.05508 5.58149,-0.68597 6.20385,1.38324c0.87383,2.9053 -0.35502,7.85387 -0.50954,10.90307c-0.27117,5.35146 0.36817,10.4311 -0.50672,15.73558c-0.30774,1.86583 -1.57421,7.36644 -4.7436,5.24103c-1.25907,-0.84434 -1.105,-4.14312 -1.36939,-5.52711c0.34473,-7.67642 -0.89915,-16.1049 0.75947,-23.76241z" fill="#00b539" stroke="none" stroke-width="0.5"/><path d="M349.44683,107.31831c-0.43749,-0.29648 -0.40768,-0.88463 -0.40768,-0.88463l0.01494,-0.29476c0.08328,-1.52833 0.23887,-5.24341 1.74225,-6.12259c0.80835,-0.47273 4.22936,1.02268 4.69774,1.68511c0.97583,1.38011 0.27325,1.85779 0.05485,3.11581c-0.37706,2.17184 -0.31221,4.44836 -0.94656,6.57399c-0.9718,3.1145 -1.35925,7.52856 -1.11632,10.80803c0.15395,2.07817 1.21359,4.16348 0.54852,6.29059c-0.63452,2.02937 -3.42706,5.60896 -5.49243,3.02362c-0.7181,-0.89888 -0.5037,-2.7969 -1.12482,-3.88988c0.09138,-4.2582 -0.01276,-8.88011 0.62775,-13.08807c0.37247,-2.44704 1.02546,-4.79374 1.40177,-7.21724z" fill="#00b539" stroke="none" stroke-width="0.5"/><path d="M357.18361,123.07968c-2.2934,-0.99515 -1.29825,-3.28855 -1.29825,-3.28855l0.93976,-2.15034c2.67407,-9.7803 6.50179,-19.54717 7.01454,-29.66596c0.36524,-7.03646 0.17031,-14.69318 -1.46531,-21.52557c-0.53262,-2.22491 -0.27309,-5.47376 -1.18541,-7.54728c-1.0695,-2.43077 -5.09135,-3.54808 -7.2993,-4.1547c-5.31761,-1.46096 -10.35819,-3.48721 -15.86224,-4.31799c-14.37121,-3.62479 -33.26962,-5.54893 -42.21811,9.26941c-1.67789,2.77852 -2.31614,6.33104 -3.17222,9.41581c-1.78031,10.99913 -4.25479,22.15391 -3.74115,33.43383c0.2561,5.6243 1.71447,11.14758 2.65346,16.68277c0,0 0.41813,2.46479 -2.04666,2.88291c-2.46479,0.41813 -2.88291,-2.04666 -2.88291,-2.04666c-0.97249,-5.73273 -2.46572,-11.45087 -2.71811,-17.27877c-0.50786,-11.72747 1.98042,-23.30328 3.85081,-34.74224c0.99735,-3.63159 1.81183,-7.6436 3.7686,-10.91892c10.03733,-16.80083 31.00665,-15.79307 47.49554,-11.5993c4.74443,0.72083 9.24749,2.14733 13.74733,3.72787c4.58593,1.61078 10.49109,2.45609 12.92416,7.46483c1.16344,2.39506 0.92146,5.9542 1.54518,8.54919c1.75578,7.30496 1.97233,15.44116 1.59995,22.95784c-0.53726,10.60258 -4.4468,20.84858 -7.29327,31.07729l-1.06782,2.47626c0,0 -0.99515,2.2934 -3.28855,1.29825z" fill="#82007c" stroke="none" stroke-width="0.5"/><path d="M292.90367,176.15159c-0.42903,-0.63763 -1.23898,-2.96025 -1.90208,-3.36258c-3.7593,-2.28088 -5.618,-0.09848 -9.18429,0.92112c-1.1686,-0.05267 -2.86719,0.02425 -3.87827,-0.73283c-2.30349,-1.7248 -2.84821,-5.46583 -1.04805,-7.69c1.10076,-1.36003 3.5249,-2.28771 3.81956,-4.17625c0.3442,-2.20607 -3.25315,-3.69477 -3.5226,-5.73428c-0.3461,-2.61974 2.81439,-4.45445 4.47929,-5.95876c0.14649,-0.13204 2.0402,-1.79365 2.17347,-2.07882c0.50765,-1.08628 -0.24519,-3.0481 -0.423,-4.04791c-0.46876,-2.63572 -2.24388,-8.01569 -1.1753,-10.57826c1.41806,-3.40069 6.672,-4.42991 9.18283,-6.7377c0,0 0.92748,-0.83802 1.7655,0.08946c0.83802,0.92748 -0.08946,1.7655 -0.08946,1.7655c-2.22654,1.98497 -7.28834,3.18343 -8.60055,5.9551c-0.58069,1.22654 0.71535,3.96659 0.97043,5.14336c0.50505,2.32987 1.72646,7.06901 0.68371,9.35628c-0.4269,0.93639 -2.01137,2.2633 -2.81161,2.98794c-0.57486,0.51941 -3.93792,2.83098 -3.6924,3.67486c0.70402,2.41988 3.97516,3.26689 3.54379,6.44462c-0.42364,3.12073 -5.1957,4.27768 -5.10087,7.18116c0.01524,0.46638 1.07138,1.39409 1.17325,1.5624c0.43538,0.71935 1.43585,1.0394 2.27521,1.08928c1.55195,-0.41049 2.16718,-1.38141 3.7287,-1.82812c2.25433,-0.64489 5.34868,0.04973 7.25043,1.40681c1.65721,1.18257 2.07314,3.92799 3.40308,5.63564c-0.08802,0.92246 -0.14036,1.83344 -0.15816,2.75548c-1.06092,-0.67529 -1.89535,-1.60595 -2.86261,-3.04352z" fill="#00b539" stroke="none" stroke-width="0.5"/><path d="M345.45705,99.18795c0,0 1.50624,0.3948 4.19416,1.32424c2.4551,0.84895 4.35539,1.96697 4.35539,1.96697l0.13562,1.17872c0,0 -7.08194,-3.49285 -14.9714,-3.23241c-6.30822,0.20826 -10.09275,2.30458 -10.09275,2.30458l0.25707,-4.16916c0,0 3.20972,-1.54375 7.94749,-1.45523c4.90593,0.09168 8.05055,0.99995 8.05055,0.99995z" data-paper-data="{&quot;index&quot;:null}" fill="#000000" stroke="none" stroke-width="1.5"/><path d="M305.203,101.24969c0,0 3.45737,-1.64614 8.13762,-1.87235c5.18631,-0.25068 7.76163,0.32694 7.76163,0.32694l0.08531,4.1471c0,0 -3.79618,-0.87389 -7.9813,-0.92623c-5.59709,-0.07002 -6.70888,1.09481 -10.97948,1.33725c-3.65928,0.20774 -6.73664,-0.18232 -6.73664,-0.18232l0.03647,-1.23128c0,0 3.58682,0.25583 5.23046,0.1966c1.3566,-0.0489 4.01808,-0.73568 4.01808,-0.73568z" fill="#000000" stroke="none" stroke-width="1.5"/></g></g></svg>