<svg version="1.1" xmlns="http://www.w3.org/2000/svg" xmlns:xlink="http://www.w3.org/1999/xlink" width="127.57982" height="448.91686" viewBox="0,0,127.57982,448.91686"><g transform="translate(-264.04694,86.63597)"><g data-paper-data="{&quot;isPaintingLayer&quot;:true}" fill-rule="nonzero" stroke-linejoin="miter" stroke-miterlimit="10" stroke-dasharray="" stroke-dashoffset="0" style="mix-blend-mode: normal"><path d="M341.60261,40.76879l12.40838,124.58801l-65.61184,0.42112l13.38024,-117.18262l41.31791,-10.86447z" fill="#b5b54a" stroke="#b5b54a" stroke-width="2.5" stroke-linecap="round"/><path d="M283.70066,27.46784c0,0 -19.77925,-25.87995 -15.02095,-52.02947c1.39224,-7.65111 6.69216,-22.56895 18.05,-33.87716c10.30443,-10.25943 28.25894,-17.41686 40.46016,-18.25542c14.18403,-0.97484 33.80462,7.45201 45.22209,17.46033c10.51759,9.21949 14.98881,16.66514 16.64521,24.73124c1.5863,7.72477 3.24852,17.13149 2.28457,25.90081c-1.44914,13.18308 -6.32793,24.65593 -6.32793,24.65593l-95.79317,10.81952l-5.52,0.59421z" data-paper-data="{&quot;index&quot;:null}" fill="#fafab0" stroke="none" stroke-width="0" stroke-linecap="round"/><path d="M345.19724,236.36581l11.60849,124.66508h-65.61319l14.13207,-117.09433l41.38678,-10.59906z" fill="#e5e61c" stroke="#e5e61c" stroke-width="2.5" stroke-linecap="round"/><path d="M310.99763,132.1094l0.15217,-47.59703c0,0 10.25453,-1.05314 14.7759,-0.04596c4.78289,1.06544 7.91376,5.621 7.91376,5.621l0.97255,8.91801c0,0 -3.76927,10.94469 -9.25635,10.60715c-4.20403,-0.25861 -13.79254,-0.84847 -13.79254,-0.84847" fill="none" stroke="#29291b" stroke-width="2.5" stroke-linecap="round"/><path d="M326.65169,327.25573l0.43867,-39.91981" fill="none" stroke="#29291b" stroke-width="2.5" stroke-linecap="round"/><path d="M306.94164,292.7457l38.18971,-10.11864" fill="none" stroke="#29291b" stroke-width="2.5" stroke-linecap="round"/><path d="M371.78306,35.24177c0,0 -6.28692,9.96069 -18.30691,18.04742c-8.73649,5.87767 -21.8148,10.4763 -31.31691,10.94786c-9.33592,0.46331 -21.38284,-1.72423 -30.64648,-6.58665c-13.13706,-6.89555 -22.10371,-17.32816 -22.10371,-17.32816z" fill="#fafab0" stroke="none" stroke-width="0" stroke-linecap="round"/><path d="M351.6266,-9.50731c-0.76078,-7.06722 1.31856,-13.08658 4.64431,-13.44458c3.32577,-0.358 6.63854,5.08089 7.3993,12.14812c0.76076,7.06721 -1.31856,13.08657 -4.64432,13.44457c-3.32577,0.358 -6.63853,-5.08089 -7.3993,-12.14813z" data-paper-data="{&quot;index&quot;:null}" fill="#29291b" stroke="#29291b" stroke-width="2.5" stroke-linecap="butt"/><path d="M323.12505,-7.08741c-0.76076,-7.06724 1.31856,-13.08658 4.64431,-13.44458c3.32577,-0.358 6.63854,5.08089 7.3993,12.14812c0.76076,7.06723 -1.31855,13.08656 -4.64431,13.44457c-3.32577,0.35799 -6.63855,-5.08087 -7.39931,-12.14811z" data-paper-data="{&quot;index&quot;:null}" fill="#29291b" stroke="#29291b" stroke-width="2.5" stroke-linecap="butt"/><path d="M295.61858,-83.28665l15.37629,5.30216l0.32725,-8.31336l19.81916,6.33101l-0.12086,-2.35319l15.12958,6.1464l-0.2669,-4.06688l24.44,19.10901l-42.90793,-5.53194l6.38991,5.80237l-22.27305,-3.65218l8.57525,9.94475l-23.78535,-8.62206l-0.14267,3.62377l-13.79522,-12.92566l21.16189,-0.66142z" data-paper-data="{&quot;index&quot;:null}" fill="#fcfc00" stroke="#fcfc00" stroke-width="0.5" stroke-linecap="round"/><path d="M376.86736,220.72449l-5.55092,0.10384l-96.39351,1.2985c0,0 -6.28123,-10.76918 -9.37479,-23.66583c-2.05782,-8.57878 -1.5903,-18.11979 -0.98685,-25.98263c0.63011,-8.21026 4.13071,-16.15859 13.40697,-26.62612c10.06993,-11.36317 28.47666,-22.18778 42.67079,-23.00228c12.20993,-0.70064 30.92124,4.14489 42.43275,13.02874c12.68828,9.79202 19.82002,23.92601 22.16226,31.34164c8.0052,25.34474 -8.36668,53.50415 -8.36668,53.50415z" fill="#fafab0" stroke="none" stroke-width="0" stroke-linecap="round"/><path d="M375.27866,220.41993c0,0 -6.77291,9.63683 -19.17894,17.11784c-9.01708,5.43741 -22.30726,9.38216 -31.82106,9.38216c-9.34741,0 -21.2711,-2.78196 -30.28234,-8.09756c-12.77913,-7.53823 -21.21766,-18.40245 -21.21766,-18.40245z" fill="#fafab0" stroke="none" stroke-width="0" stroke-linecap="round"/><path d="M314.57147,178.80515c0.13296,7.10681 -2.47042,12.91875 -5.81481,12.98131c-3.34439,0.06256 -6.16332,-5.64793 -6.29627,-12.75474c-0.13296,-7.10681 2.47042,-12.91875 5.81481,-12.98131c3.34439,-0.06256 6.16332,5.64793 6.29627,12.75474z" fill="#29291b" stroke="#29291b" stroke-width="2.5" stroke-linecap="butt"/><path d="M348.1213,179.35273c0.13296,7.10681 -2.47042,12.91875 -5.81481,12.98131c-3.34439,0.06256 -6.16332,-5.64793 -6.29627,-12.75474c-0.13296,-7.10681 2.47042,-12.91875 5.81481,-12.98131c3.34439,-0.06256 6.16332,5.64793 6.29627,12.75474z" fill="#29291b" stroke="#29291b" stroke-width="2.5" stroke-linecap="butt"/><path d="M288.48346,116.40664l15.65801,4.40113l-0.15562,-8.31833l20.15308,5.17049l-0.25718,-2.3422l15.46069,5.25827l-0.5024,-4.04454l25.50748,17.65888l-43.15659,-3.03321l6.71576,5.42187l-22.44741,-2.3538l9.13778,9.4305l-24.24553,-7.22759l0.06783,3.62596l-14.52191,-12.10352l21.08787,-1.88807z" fill="#29291b" stroke="none" stroke-width="0" stroke-linecap="round"/></g></g></svg>