<svg version="1.1" xmlns="http://www.w3.org/2000/svg" xmlns:xlink="http://www.w3.org/1999/xlink" width="172.42594" height="295.22226" viewBox="0,0,172.42594,295.22226"><defs><linearGradient x1="261.42648" y1="69.7203" x2="281.40383" y2="114.94362" gradientUnits="userSpaceOnUse" id="color-1"><stop offset="0" stop-color="#ecec68"/><stop offset="1" stop-color="#292912"/></linearGradient></defs><g transform="translate(-230.60772,-34.63591)"><g data-paper-data="{&quot;isPaintingLayer&quot;:true}" fill-rule="nonzero" stroke-linejoin="miter" stroke-miterlimit="10" stroke-dasharray="" stroke-dashoffset="0" style="mix-blend-mode: normal"><path d="M361.67113,245.05116c-12.97645,-0.11992 -20.01837,-121.17971 -20.01837,-121.17971l12.48173,-2.80644c0,0 20.12723,124.10253 7.53665,123.98616z" data-paper-data="{&quot;index&quot;:null}" fill="#60602a" stroke="#000000" stroke-width="2" stroke-linecap="butt"/><path d="M370.02312,232.9764c-12.97645,-0.11992 -17.9617,-108.64119 -17.9617,-108.64119l12.48173,-2.80644c0,0 18.07055,111.564 5.47998,111.44764z" data-paper-data="{&quot;index&quot;:null}" fill="#60602a" stroke="#000000" stroke-width="2" stroke-linecap="butt"/><path d="M285.94599,107.05645l12.77499,0.68505c0,0 14.75725,138.47514 1.98262,140.75799c-12.39476,2.21497 -14.7576,-141.44303 -14.7576,-141.44303z" fill="#60602a" stroke="#000000" stroke-width="2" stroke-linecap="butt"/><path d="M291.30647,240.0272c-12.96279,-0.60704 -13.35718,-104.94943 -13.35718,-104.94943l12.57829,-2.33583c0,0 13.35622,107.87427 0.77889,107.28527z" data-paper-data="{&quot;index&quot;:null}" fill="#60602a" stroke="#000000" stroke-width="2" stroke-linecap="butt"/><path d="M289.5041,328.85816l15.14285,-131.8421l37.78325,-0.15789l13.57389,132z" fill="#bebe54" stroke="#000000" stroke-width="2" stroke-linecap="butt"/><path d="M274.77455,230.62764c-11.98425,-1.01716 -7.38108,-97.49396 -7.38108,-97.49396l12.65773,-1.85785c0,0 7.26937,100.41664 -5.27665,99.35181z" data-paper-data="{&quot;index&quot;:null}" fill="#60602a" stroke="#000000" stroke-width="2" stroke-linecap="butt"/><path d="M382.54905,218.93752c-12.9564,0.73116 -25.55027,-77.28426 -25.55027,-77.28426l12.27086,-3.61879c0,0 25.85053,80.19363 13.2794,80.90304z" data-paper-data="{&quot;index&quot;:null}" fill="#60602a" stroke="#000000" stroke-width="2" stroke-linecap="butt"/><path d="M302.45432,225.47079l3.12142,-26.32765l35.83075,-0.14203l2.76735,26.1059c0,0 -7.51543,4.19603 -21.55904,4.50964c-12.48458,0.27879 -20.16049,-4.14586 -20.16049,-4.14586z" fill="#a0a047" stroke="#000000" stroke-width="0" stroke-linecap="butt"/><path d="M384.59817,196.22555c-7.10367,-1.39528 1.64746,-14.78889 -3.1689,-26.86749c-4.13155,-10.36121 1.87751,-15.5341 6.00961,-5.17311c3.86115,9.68162 5.17904,33.6158 -2.84071,32.0406z" data-paper-data="{&quot;index&quot;:null}" fill="#60602a" stroke="#000000" stroke-width="2" stroke-linecap="butt"/><path d="M259.04034,166.35311c-2.78732,-33.185 23.61211,-62.49391 58.96474,-65.4633c35.35263,-2.96939 66.27118,21.52522 69.0585,54.71021c2.78732,33.185 -23.61211,62.49391 -58.96474,65.4633c-35.35263,2.96939 -66.27118,-21.52522 -69.0585,-54.71021z" fill="#bebe54" stroke="#000000" stroke-width="2" stroke-linecap="butt"/><path d="M272.57897,165.64693c-1.08541,-12.9225 8.51047,-24.27815 21.43296,-25.36356c12.9225,-1.08541 24.27815,8.51046 25.36356,21.43296c1.08541,12.9225 -8.51047,24.27816 -21.43296,25.36356c-12.9225,1.08541 -24.27815,-8.51047 -25.36356,-21.43296z" fill="#ffffff" stroke="#000000" stroke-width="2" stroke-linecap="butt"/><path d="M277.20041,172.17493c-0.76401,-9.09605 5.99044,-17.08919 15.08648,-17.8532c9.09605,-0.76401 17.08919,5.99045 17.8532,15.08649c0.76401,9.09605 -5.99045,17.0892 -15.08649,17.85321c-9.09605,0.76401 -17.08919,-5.99046 -17.85319,-15.0865z" fill="#000000" stroke="none" stroke-width="0" stroke-linecap="butt"/><path d="M352.25967,182.51762c-12.9225,1.08541 -24.27815,-8.51047 -25.36356,-21.43296c-1.08541,-12.9225 8.51047,-24.27815 21.43296,-25.36355c12.9225,-1.08541 24.27815,8.51047 25.36356,21.43296c1.08541,12.9225 -8.51047,24.27815 -21.43296,25.36355z" data-paper-data="{&quot;index&quot;:null}" fill="#ffffff" stroke="#000000" stroke-width="2" stroke-linecap="butt"/><path d="M350.58723,182.93572c-9.09604,0.76401 -17.08918,-5.99045 -17.85319,-15.08649c-0.76401,-9.09605 5.99045,-17.0892 15.08648,-17.8532c9.09604,-0.76401 17.08919,5.99045 17.8532,15.08649c0.76401,9.09605 -5.99045,17.0892 -15.08648,17.85321z" data-paper-data="{&quot;index&quot;:null}" fill="#000000" stroke="none" stroke-width="0" stroke-linecap="butt"/><path d="M272.49592,165.65391c-1.08541,-12.9225 8.51047,-24.27815 21.43296,-25.36356c12.9225,-1.08541 24.27815,8.51047 25.36356,21.43296c0,0 -46.69345,5.15782 -46.79653,3.93059z" fill="#ecec68" stroke="#000000" stroke-width="2" stroke-linecap="butt"/><path d="M326.64701,161.10558c-1.08541,-12.9225 8.51047,-24.27815 21.43296,-25.36356c12.9225,-1.08541 24.27815,8.51047 25.36356,21.43296c0.1016,1.20954 -46.79653,3.93059 -46.79653,3.93059z" data-paper-data="{&quot;index&quot;:null}" fill="#ecec68" stroke="#000000" stroke-width="2" stroke-linecap="butt"/><path d="M282.76107,135.88179c0,0 6.25275,-5.71261 11.22319,-7.32863c4.97045,-1.61602 12.34939,-0.33543 12.34939,-0.33543c0,0 -8.01497,0.61271 -11.85348,1.86072c-4.0114,1.30421 -11.71911,5.80334 -11.71911,5.80334z" fill="#000000" stroke="none" stroke-width="0" stroke-linecap="butt"/><path d="M259.76537,166.34622c-0.06093,-0.72544 9.86876,55.28738 67.90345,51.43134c55.44971,-3.68428 58.44013,-63.06578 58.52541,-62.0505c2.74571,32.68968 -23.33052,61.56709 -58.24288,64.49949c-34.91236,2.9324 -65.44027,-21.19064 -68.18598,-53.88032z" fill="#a0a047" stroke="#000000" stroke-width="0" stroke-linecap="butt"/><path d="M346.06929,125.74533c-3.99291,-0.59022 -11.99778,0.14262 -11.99778,0.14262c0,0 7.06193,-2.49352 12.23231,-1.72926c5.17037,0.76426 12.28844,5.35381 12.28844,5.35381c0,0 -8.35022,-3.15037 -12.52297,-3.76718z" data-paper-data="{&quot;index&quot;:null}" fill="#000000" stroke="none" stroke-width="0" stroke-linecap="butt"/><path d="M255.67102,166.5011c8.32,-7.42981 11.39058,-0.11959 3.07096,7.31065c-9.6986,8.66181 -7.84096,24.55271 -14.82111,22.63269c-7.88029,-2.16762 3.97569,-23.00071 11.75015,-29.94333z" data-paper-data="{&quot;index&quot;:null}" fill="#60602a" stroke="#000000" stroke-width="2" stroke-linecap="butt"/><path d="M272.50279,165.35234l-3.80498,-2.28956" fill="none" stroke="#000000" stroke-width="2" stroke-linecap="round"/><path d="M263.79082,117.01994c15.77917,-18.38575 42.84331,-29.58042 48.81963,-20.77127c4.72319,6.96201 -20.35028,4.6651 -41.11136,31.62692c-17.6799,22.96038 -11.9695,53.58927 -25.23026,51.27421c-13.0954,-2.28619 6.87457,-49.72357 17.522,-62.12985z" fill="#b1b14e" stroke="#000000" stroke-width="2" stroke-linecap="butt"/><path d="M266.15697,125.48c13.43972,-20.15916 38.95126,-34.54487 45.94912,-26.52319c5.53053,6.33968 -19.63668,7.09209 -36.98452,36.36689c-14.77322,24.93009 -5.40039,54.64352 -18.8438,53.94926c-13.27578,-0.68561 0.81038,-50.19 9.8792,-63.79296z" fill="#ecec68" stroke="#000000" stroke-width="2" stroke-linecap="butt"/><path d="M331.52457,94.69747c0.06929,2.9243 -6.78802,5.30284 -15.31622,5.31262c-8.52819,0.00977 -15.49783,-2.35292 -15.56712,-5.27722c-0.06929,-2.9243 6.78802,-5.30284 15.31621,-5.31262c8.52819,-0.00977 15.49784,2.35292 15.56712,5.27722z" fill="#ecec68" stroke="#000000" stroke-width="2" stroke-linecap="butt"/><path d="M398.73059,170.74838c-12.77624,4.23967 -11.63136,-26.89596 -32.49503,-47.00727c-24.49971,-23.61623 -48.96294,-17.65766 -45.31473,-25.23847c4.61614,-9.59211 33.03211,-2.49843 51.3431,13.36744c12.35583,10.70593 39.08361,54.69151 26.46668,58.8783z" data-paper-data="{&quot;index&quot;:null}" fill="#60602a" stroke="#000000" stroke-width="2" stroke-linecap="butt"/><path d="M376.83303,152.97663l-3.90069,3.73961" fill="none" stroke="#000000" stroke-width="2" stroke-linecap="round"/><path d="M309.51106,201.51529c0,0 6.5194,-2.54883 15.91662,-2.5c9.39722,0.04883 16.19298,2.25 16.19298,2.25" data-paper-data="{&quot;index&quot;:null}" fill="none" stroke="#000000" stroke-width="2" stroke-linecap="round"/><path d="M395.01549,181.13651c-13.21795,2.54815 -8.04763,-28.17654 -26.12898,-50.82212c-21.2325,-26.59216 -46.26164,-23.85421 -41.66174,-30.8983c5.82033,-8.91298 33.07733,1.80351 49.17771,19.90865c10.86418,12.21693 31.66613,59.29541 18.61301,61.81178z" data-paper-data="{&quot;index&quot;:null}" fill="#b1b14e" stroke="#000000" stroke-width="2" stroke-linecap="butt"/><path d="M272.21412,154.02788c6.14617,-9.30855 10.98217,-3.02517 4.83648,6.2837c-7.16435,10.85182 -1.30926,25.74105 -8.54829,25.6677c-8.17256,-0.08282 -2.03135,-23.25322 3.71181,-31.95139z" data-paper-data="{&quot;index&quot;:null}" fill="#b1b14e" stroke="#000000" stroke-width="2" stroke-linecap="butt"/><path d="M262.59377,153.24189c9.47114,-15.29452 18.21829,-27.75112 23.00763,-36.16088c6.00184,-10.5388 12.06217,-25.99246 19.38961,-23.36853c7.65181,2.74009 1.34073,20.6023 -4.85857,31.48786c-4.76918,8.37434 -19.45203,23.414 -28.87918,38.63921c-11.81479,19.08137 -0.96573,44.47408 -13.45814,44.71115c-14.10341,0.26763 -4.6725,-40.0143 4.79865,-55.30882z" fill="#ecec68" stroke="#000000" stroke-width="2" stroke-linecap="butt"/><g stroke="#000000" stroke-width="2" stroke-linecap="butt"><path d="M264.96528,175.23041c-0.1818,-2.16456 1.16908,-2.86473 2.89588,-3.00977c1.72679,-0.14504 3.17555,0.31999 3.35735,2.48455c0.1818,2.16456 -0.97218,5.20898 -2.69897,5.35402c-1.72679,0.14504 -3.37246,-2.66423 -3.55426,-4.82879z" fill="#ecec68"/><path d="M272.46588,189.5559c0.1818,2.16456 -1.16908,2.86473 -2.89587,3.00977c-1.72679,0.14504 -3.17556,-0.31998 -3.35737,-2.48454c-0.1818,-2.16456 0.97219,-5.20898 2.69898,-5.35402c1.72679,-0.14504 3.37245,2.66423 3.55425,4.82879z" fill="#ecec68"/><path d="M261.55284,186.14346c-2.16456,0.1818 -2.86473,-1.16908 -3.00977,-2.89588c-0.14504,-1.72679 0.31998,-3.17555 2.48454,-3.35736c2.16456,-0.1818 5.20898,0.97218 5.35402,2.69898c0.14504,1.72679 -2.66423,3.37246 -4.82878,3.55426z" fill="#ecec68"/><path d="M275.87832,178.64286c2.16456,-0.1818 2.86473,1.16909 3.00977,2.89588c0.14504,1.72679 -0.31998,3.17556 -2.48454,3.35736c-2.16456,0.1818 -5.20898,-0.97218 -5.35402,-2.69898c-0.14504,-1.72679 2.66423,-3.37246 4.82879,-3.55427z" fill="#ff80ee"/><path d="M260.9989,179.9802c-1.65914,-1.40202 -1.199,-2.85235 -0.08054,-4.17592c1.11847,-1.32358 2.47171,-2.01919 4.13085,-0.61717c1.65914,1.40202 2.99587,4.37075 1.87739,5.69433c-1.11847,1.32358 -4.26857,0.50079 -5.92771,-0.90122z" fill="#ecec68"/><path d="M276.43227,184.80612c1.65914,1.40202 1.199,2.85235 0.08054,4.17593c-1.11847,1.32358 -2.47171,2.01919 -4.13085,0.61717c-1.65914,-1.40202 -2.99587,-4.37076 -1.87739,-5.69433c1.11847,-1.32358 4.26857,-0.50079 5.92771,0.90122z" fill="#ff80ee"/><path d="M266.30262,190.10984c-1.40202,1.65914 -2.85234,1.19901 -4.17592,0.08055c-1.32358,-1.11847 -2.0192,-2.47173 -0.61718,-4.13086c1.40202,-1.65914 4.37075,-2.99587 5.69433,-1.87739c1.32358,1.11847 0.50079,4.26857 -0.90122,5.92771z" fill="#ecec68"/><path d="M271.12854,174.67649c1.40202,-1.65914 2.85234,-1.19901 4.17592,-0.08054c1.32358,1.11847 2.01919,2.47172 0.61717,4.13085c-1.40202,1.65914 -4.37075,2.99587 -5.69432,1.87739c-1.32358,-1.11847 -0.50079,-4.26858 0.90122,-5.92772z" fill="#ecec68"/><path d="M264.56872,182.65278c-0.19202,-2.28617 1.50561,-4.29513 3.79178,-4.48715c2.28617,-0.19202 4.29513,1.50562 4.48715,3.79178c0.19202,2.28617 -1.50562,4.29513 -3.79178,4.48715c-2.28617,0.19202 -4.29513,-1.50561 -4.48715,-3.79178z" fill="#b1b14e"/></g><path d="M337.94629,110.10339c0,0 20.40765,-12.91971 20.16307,-23.08155c-0.13979,-5.80777 -9.56535,-14.6396 -10.97093,-24.80391c-1.85258,-13.39664 11.01143,-24.75303 11.01143,-24.75303c0,0 -2.4802,10.53216 -1.05851,22.99182c1.13298,9.92936 9.25883,12.86199 12.4808,25.7223c3.15547,12.59485 -8.35578,34.03053 -8.35578,34.03053c0,0 -3.65639,4.27762 -14.22722,-0.3454c-9.61287,-4.20407 -9.04286,-9.76074 -9.04286,-9.76074z" fill="#60602a" stroke="#000000" stroke-width="2" stroke-linecap="butt"/><path d="M275.7542,163.80368c5.78347,-17.03456 17.09953,-32.24016 19.87194,-41.51247c3.47428,-11.61972 5.89872,-28.0412 13.62884,-27.13484c8.07233,0.94648 5.94602,19.77112 2.35742,31.77316c-2.76073,9.23326 -16.90936,23.67961 -22.66556,40.63674c-7.21409,21.25194 3.47592,44.6482 -10.60272,43.77096c-11.06551,-0.68948 -8.37339,-30.49899 -2.58992,-47.53355z" fill="#b1b14e" stroke="#000000" stroke-width="2" stroke-linecap="butt"/><path d="M325.54717,139.57417c-7.1752,-0.96203 0.74782,-14.86158 -4.79198,-26.62594c-4.75213,-10.09167 0.93227,-15.61936 5.68492,-5.52794c4.44102,9.42971 7.20755,33.23997 -0.89294,32.15388z" data-paper-data="{&quot;index&quot;:null}" fill="#b1b14e" stroke="#000000" stroke-width="2" stroke-linecap="butt"/><path d="M389.29766,153.15636c-11.89132,7.57829 -10.55047,-12.05621 -23.98409,-21.42504c-10.71882,-7.47549 -27.85382,-9.21959 -33.36689,-13.4769c-7.16628,-5.53395 -17.88311,-17.15983 -11.21495,-21.77584c6.38549,-4.42033 16.54755,5.58892 23.48556,10.9466c5.53639,4.27532 20.476,7.89999 31.24464,15.40913c10.76863,7.50913 23.18205,24.36571 13.83574,30.32208z" data-paper-data="{&quot;index&quot;:null}" fill="#ecec68" stroke="#000000" stroke-width="2" stroke-linecap="butt"/><path d="M289.54295,146.28954c4.56833,-12.30775 14.77783,-23.80108 16.89013,-30.46951c2.64708,-8.35665 3.91132,-19.96182 11.67751,-19.96926c8.10999,-0.00777 7.31133,13.24193 4.57716,21.87353c-2.10341,6.64035 -15.18865,17.83976 -19.73523,30.09148c-5.69811,15.35477 6.59457,30.72361 -7.49552,31.27438c-11.0745,0.4329 -10.48239,-20.49285 -5.91406,-32.8006z" fill="#ecec68" stroke="#000000" stroke-width="2" stroke-linecap="butt"/><g data-paper-data="{&quot;index&quot;:null}" stroke="#1d1d0d" stroke-width="1.5" stroke-linecap="butt"><path d="M246.80325,77.10395l-7.66064,-17.47435l30.23434,-13.20259l7.66065,17.47436z" fill="#d0d05b"/><path d="M277.66242,116.90296l-13.02053,-28.93833l-15.97644,-12.60717l25.80483,-10.83006l-2.7138,20.45253l13.27152,29.73099z" fill="url(#color-1)"/><path d="M232.75384,64.56836l17.20077,-24.95098l30.31364,3.50155z" fill="#bfbf54"/><path d="M273.53608,65.60658l-23.19061,9.84881c0,0 1.52883,-10.71632 7.93276,-13.43599c6.40392,-2.71969 15.25786,3.5872 15.25786,3.5872z" fill="#ffff70"/></g><path d="M244.92187,159.4769c-3.56553,-36.18567 27.59828,-68.79735 69.60628,-72.84023c42.00801,-4.04288 78.95268,22.01402 82.5182,58.19968c0.2058,2.0887 0.29591,4.1655 0.27488,6.22559c-6.15933,0.26423 -12.34403,0.39756 -18.39549,0.92253c-42.48594,3.68571 -84.98021,7.28404 -127.49345,10.63928c-1.04888,0.08278 -2.11726,-0.60799 -3.12868,-0.33027c-0.49313,0.13541 -1.53647,0.81951 -2.75362,1.71181c-0.26747,-1.49041 -0.47755,-3.00037 -0.62811,-4.5284z" fill="#bebe54" stroke="#000000" stroke-width="2" stroke-linecap="butt"/><path d="M244.04815,141.31577l6.54905,-17.60994l136.10474,-10.42836l8.31462,15.35797z" fill="#b9b952" stroke="#000000" stroke-width="2" stroke-linecap="butt"/><path d="M300.28502,151.64506l-3.64088,-43.34736l41.18,-3.45884l3.64088,43.34737z" fill="#d7d75f" stroke="#000000" stroke-width="2" stroke-linecap="butt"/></g></g></svg>