<svg version="1.1" xmlns="http://www.w3.org/2000/svg" xmlns:xlink="http://www.w3.org/1999/xlink" width="185.978" height="440.21249" viewBox="0,0,185.978,440.21249"><g transform="translate(-290.85933,64.94737)"><g data-paper-data="{&quot;isPaintingLayer&quot;:true}" fill-rule="nonzero" stroke-linejoin="miter" stroke-miterlimit="10" stroke-dasharray="" stroke-dashoffset="0" style="mix-blend-mode: normal"><path d="M422.82725,60.06745l-20.00106,123.59651l-63.51978,-16.44167l43.02324,-109.81711l42.72229,0.11001z" fill="#b5b54a" stroke="#b5b54a" stroke-width="2.5" stroke-linecap="round"/><path d="M474.5749,25.63415c-8.62797,33.33278 -42.52893,53.38972 -75.71992,44.79846c-33.191,-8.59126 -53.10325,-42.57741 -44.47528,-75.91018c8.62797,-33.33278 42.52893,-53.38974 75.71991,-44.79849c33.191,8.59126 53.10326,42.57743 44.4753,75.9102z" fill="#fafab0" stroke="#fafab0" stroke-width="0.5" stroke-linecap="butt"/><path d="M395.48386,-64.29457l13.90004,8.44584l2.08481,-8.05434l18.02318,10.3945l0.3815,-2.32519l13.4797,9.21846l0.60263,-4.03083l19.82576,23.86225l-40.75522,-14.51566l5.01231,7.02673l-20.98986,-8.29775l6.26838,11.53866l-21.41254,-13.47542l-0.90877,3.51088l-10.73646,-15.55987l20.81987,3.84657z" fill="#fcfc00" stroke="#fcfc00" stroke-width="0.5" stroke-linecap="round"/><path d="M403.25484,6.77632c-1.78117,6.88128 -5.85021,11.78015 -9.08846,10.94196c-3.23825,-0.8382 -4.41943,-7.09606 -2.63827,-13.97734c1.78117,-6.88128 5.85021,-11.78015 9.08846,-10.94196c3.23825,0.8382 4.41943,7.09606 2.63827,13.97734z" fill="#29291b" stroke="#29291b" stroke-width="2.5" stroke-linecap="butt"/><path d="M433.80184,13.6405c-1.78117,6.88128 -5.85021,11.78015 -9.08846,10.94196c-3.23825,-0.8382 -4.41943,-7.09606 -2.63827,-13.97734c1.78117,-6.88128 5.85021,-11.78015 9.08846,-10.94196c3.23825,0.8382 4.41943,7.09606 2.63827,13.97734z" fill="#29291b" stroke="#29291b" stroke-width="2.5" stroke-linecap="butt"/><path d="M376.05835,250.11474l-20.00106,123.59651l-63.51978,-16.44167l43.02324,-109.81711l42.72228,0.11z" fill="#e5e61c" stroke="#e5e61c" stroke-width="2.5" stroke-linecap="round"/><path d="M427.17954,218.10167c-8.28198,31.99611 -41.90246,50.96949 -75.09346,42.37822c-33.191,-8.59126 -53.38374,-41.49384 -45.10177,-73.48995c8.28198,-31.99611 41.90246,-50.96949 75.09346,-42.37822c33.191,8.59126 53.38374,41.49384 45.10177,73.48995z" fill="#fafab0" stroke="#fafab0" stroke-width="0.5" stroke-linecap="butt"/><path d="M349.18188,127.93947l13.90004,8.44583l2.08482,-8.05437l18.02318,10.3945l0.38151,-2.32521l13.4797,9.21846l0.60263,-4.03085l19.82577,23.86227l-40.75522,-14.51566l5.01231,7.02673l-20.98987,-8.29776l6.26834,11.53868l-21.41253,-13.47542l-0.90877,3.51088l-10.73647,-15.55987l20.81987,3.84658z" fill="#29291b" stroke="#29291b" stroke-width="0.5" stroke-linecap="round"/><path d="M356.48594,196.82358c-1.78117,6.88128 -5.85021,11.78015 -9.08846,10.94196c-3.23825,-0.8382 -4.41943,-7.09606 -2.63827,-13.97734c1.78117,-6.88128 5.85021,-11.78015 9.08846,-10.94196c3.23825,0.8382 4.41943,7.09606 2.63827,13.97734z" fill="#29291b" stroke="#29291b" stroke-width="2.5" stroke-linecap="butt"/><path d="M387.03292,203.68777c-1.78117,6.88128 -5.85021,11.78015 -9.08846,10.94196c-3.23825,-0.8382 -4.41943,-7.09606 -2.63827,-13.97734c1.78117,-6.88128 5.85021,-11.78015 9.08846,-10.94196c3.23825,0.8382 4.41943,7.09606 2.63827,13.97734z" fill="#29291b" stroke="#29291b" stroke-width="2.5" stroke-linecap="butt"/><path d="M369.79293,140.48593l12.36966,-45.96185c0,0 10.1811,1.61547 14.29222,3.74994c4.34891,2.25792 6.20495,7.46471 6.20495,7.46471l-1.35015,8.86871c0,0 -6.45339,9.60975 -11.6698,7.87449c-3.99664,-1.3295 -13.11215,-4.36184 -13.11215,-4.36184" fill="none" stroke="#29291b" stroke-width="2.5" stroke-linecap="round"/><path d="M345.75684,294.92131l-10.42797,38.53623" fill="none" stroke="#29291b" stroke-width="2.5" stroke-linecap="round"/><path d="M324.89535,295.10952l39.50684,-0.22604" fill="none" stroke="#29291b" stroke-width="2.5" stroke-linecap="round"/></g></g></svg>