<svg version="1.1" xmlns="http://www.w3.org/2000/svg" xmlns:xlink="http://www.w3.org/1999/xlink" width="153" height="291.69702" viewBox="0,0,153,291.69702"><g transform="translate(-243.5,-16.80297)"><g data-paper-data="{&quot;isPaintingLayer&quot;:true}" fill-rule="nonzero" stroke-linejoin="miter" stroke-miterlimit="10" stroke-dasharray="" stroke-dashoffset="0" style="mix-blend-mode: normal"><path d="M285.90286,307.49998l10.58516,-87.56737l45.59644,-1.46009l10.3184,89.02747z" fill="#7e7f27" stroke="#000000" stroke-width="2" stroke-linecap="butt"/><path d="M289.57668,250.08801l7.55047,-52.41545l43.29909,-2.17848l9.45725,55.15135l-30.23979,-11.89646z" fill="#51521a" stroke="#000000" stroke-width="2" stroke-linecap="butt"/><path d="M395.5,127.41816c0,44.597 -33.8025,80.75 -75.5,80.75c-41.6975,0 -75.5,-36.15301 -75.5,-80.75c0,-44.59699 33.8025,-80.75 75.5,-80.75c41.6975,0 75.5,36.15301 75.5,80.75z" fill="#4d4e18" stroke="#000000" stroke-width="2" stroke-linecap="butt"/><path d="M387.17294,132.56227c0,38.06162 -30.45365,68.91667 -68.02013,68.91667c-37.56647,0 -68.02013,-30.85504 -68.02013,-68.91667c0,-38.06162 30.45365,-68.91667 68.02013,-68.91667c37.56647,0 68.02013,30.85504 68.02013,68.91667z" fill="#000000" stroke="none" stroke-width="0" stroke-linecap="butt"/><path d="M254.99277,134.24176c0,-33.30185 28.7599,-60.29833 64.23702,-60.29833c35.47712,0 64.23702,26.99649 64.23702,60.29833c0,33.30185 -28.7599,60.29833 -64.23702,60.29833c-35.47712,0 -64.23702,-26.99649 -64.23702,-60.29833z" fill="#ffff70" stroke="#000000" stroke-width="2" stroke-linecap="butt"/><path d="M255.71583,134.29558c0,-0.72799 5.20666,55.91939 63.36046,56.93429c55.56352,0.9697 63.51358,-57.95314 63.51358,-56.93429c0,32.80479 -28.40173,59.39833 -63.43702,59.39833c-35.03529,0 -63.43702,-26.59354 -63.43702,-59.39833z" fill="#6c6d22" stroke="#000000" stroke-width="0" stroke-linecap="butt"/><path d="M254.75002,149.18668c0,0 -8.73921,-80.9842 66.75,-79.5c77.52968,1.52431 61,82.25 61,82.25c0,0 -24.63436,12.69075 -63.02896,13.02851c-34.39482,0.30257 -64.72104,-15.77851 -64.72104,-15.77851z" fill-opacity="0.57255" fill="#000000" stroke="none" stroke-width="0" stroke-linecap="butt"/><path d="M265.28749,133.04347c0,-12.78821 10.51265,-23.1551 23.48065,-23.1551c12.968,0 23.48065,10.3669 23.48065,23.1551c0,12.78821 -10.51265,23.1551 -23.48065,23.1551c-12.968,0 -23.48065,-10.36689 -23.48065,-23.1551z" fill="#ffffff" stroke="#000000" stroke-width="2" stroke-linecap="butt"/><path d="M275.60837,133.09341c0,-7.33012 5.94223,-13.27235 13.27233,-13.27235c7.33012,0 13.27235,5.94224 13.27235,13.27235c0,7.33012 -5.94224,13.27235 -13.27235,13.27235c-7.33012,0 -13.27233,-5.94224 -13.27233,-13.27235z" fill="#000000" stroke="none" stroke-width="0" stroke-linecap="butt"/><path d="M307.44521,175.6913c0,0 7.87204,-0.49798 12.15094,-0.49798c4.08165,0 12.95865,0.49798 12.95865,0.49798" fill="none" stroke="#000000" stroke-width="2" stroke-linecap="round"/><path d="M350.18866,156.84968c-12.968,0 -23.48065,-10.51265 -23.48065,-23.48065c0,-12.968 10.51265,-23.48065 23.48065,-23.48065c12.968,0 23.48065,10.51265 23.48065,23.48065c0,12.968 -10.51265,23.48065 -23.48065,23.48065z" data-paper-data="{&quot;index&quot;:null}" fill="#ffffff" stroke="#000000" stroke-width="2" stroke-linecap="butt"/><path d="M280.75074,103.41117c0,0 7.59834,-3.74113 12.82228,-3.90615c5.22395,-0.16501 11.95254,3.12355 11.95254,3.12355c0,0 -7.86762,-1.64791 -11.9019,-1.52047c-4.21598,0.13318 -12.87293,2.30307 -12.87293,2.30307z" fill="#000000" stroke="none" stroke-width="0" stroke-linecap="butt"/><path d="M344.77701,101.12564c-4.03603,0.04644 -11.82537,2.03168 -11.82537,2.03168c0,0 6.58071,-3.57532 11.80692,-3.63546c5.2262,-0.06014 12.97862,3.35026 12.97862,3.35026c0,0 -8.74237,-1.79502 -12.96017,-1.74649z" data-paper-data="{&quot;index&quot;:null}" fill="#000000" stroke="none" stroke-width="0" stroke-linecap="butt"/><g stroke="#000000" stroke-width="2" stroke-linecap="butt"><path d="M255.8115,75.45873l8.47149,-47.55684c0,0 26.11817,-8.09169 38.54533,-9.51649c13.63244,-1.563 39.96871,0.51472 39.96871,0.51472l19.18412,43.54061c0,0 -33.60646,8.62352 -51.47952,10.81502c-17.50936,2.1469 -54.69014,2.20298 -54.69014,2.20298z" fill="#ffffff"/><path d="M256.175,75.35491l1.2303,-6.92151c0,0 34.43304,0.04613 51.67015,-1.92741c16.77915,-1.92112 50.41562,-9.76084 50.41562,-9.76084l2.6257,5.69679c0,0 -35.22155,10.28126 -52.93009,12.23956c-17.37996,1.92196 -53.01169,0.67343 -53.01169,0.67343z" fill="#9b9d30"/><path d="M304.44272,42.50464c0,0 10.29881,-6.16706 16.57621,-8.93204c6.97537,-3.07241 23.40319,-8.67745 23.40319,-8.67745l2.66891,6.45021c0,0 -18.63506,6.30907 -25.23222,9.37709c-4.94932,2.30169 -10.84758,7.40199 -10.84758,7.40199z" fill="#9b9d30"/><path d="M316.42299,64.32081c0,0 -0.46232,-8.0781 -12.99034,-14.32521c-16.96612,-8.46015 -40.31746,-9.33543 -40.31746,-9.33543l1.62462,-6.96511c0,0 22.0372,-0.68869 41.62424,9.42875c14.79837,7.6439 17.94538,20.32488 17.94538,20.32488z" fill="#9b9d30"/></g><path d="M335.95178,134.18681c0,-7.33012 5.94223,-13.27234 13.27234,-13.27234c7.33012,0 13.27234,5.94223 13.27234,13.27234c0,7.33012 -5.94223,13.27235 -13.27234,13.27235c-7.33012,0 -13.27234,-5.94224 -13.27234,-13.27235z" fill="#000000" stroke="none" stroke-width="0" stroke-linecap="butt"/></g></g></svg>