<svg version="1.1" xmlns="http://www.w3.org/2000/svg" xmlns:xlink="http://www.w3.org/1999/xlink" width="181.47546" height="294.41672" viewBox="0,0,181.47546,294.41672"><g transform="translate(-205.43223,-21.01211)"><g data-paper-data="{&quot;isPaintingLayer&quot;:true}" stroke-miterlimit="10" stroke-dasharray="" stroke-dashoffset="0" style="mix-blend-mode: normal"><path d="M290.72614,314.42882l13.62477,-131.8421l33.99545,-0.15789l12.2131,132z" fill="#ecec68" fill-rule="nonzero" stroke="#000000" stroke-width="2" stroke-linecap="butt" stroke-linejoin="miter"/><path d="M296.57572,267.16265l8.45591,-81.82486l32.57503,-0.15129l7.60398,82.1843c0,0 -14.59301,4.84164 -24.23451,4.80038c-9.6415,-0.04126 -24.40041,-5.00852 -24.40041,-5.00852z" fill="#c8c824" fill-rule="nonzero" stroke="#000000" stroke-width="0" stroke-linecap="butt" stroke-linejoin="miter"/><g fill-rule="nonzero" stroke="#000000" stroke-width="2" stroke-linecap="butt" stroke-linejoin="miter"><path d="M269.572,125.04312l-48.13524,-50.82322l5.32434,-5.04272l48.13524,50.82322z" fill="#ffe9b3"/><path d="M211.27212,83.84694c-6.70937,-7.08404 -6.40565,-18.26585 0.67839,-24.97523c7.08404,-6.70937 18.26585,-6.40565 24.97523,0.6784c6.70937,7.08404 6.40565,18.26585 -0.6784,24.97523c-7.08404,6.70937 -18.26584,6.40565 -24.97523,-0.6784z" fill="#dccd27"/></g><g fill-rule="nonzero" stroke="#000000" stroke-width="2" stroke-linecap="butt" stroke-linejoin="miter"><path d="M352.90227,108.07936l11.72104,-69.01172l7.22979,1.22793l-11.72104,69.01172z" fill="#ffe9b3"/><path d="M350.82096,36.72344c1.63375,-9.61926 10.75613,-16.09283 20.37541,-14.45909c9.61926,1.63375 16.09283,10.75613 14.45908,20.37542c-1.63375,9.61926 -10.75616,16.09283 -20.37542,14.45908c-9.61926,-1.63375 -16.09282,-10.75614 -14.45907,-20.37541z" fill="#dccd27"/></g><path d="M295.43463,251.66804l7.58416,-69.08131l36.11546,-0.15789l6.82766,69.46209c0,0 -1.63411,6.69929 -25.4124,6.56159c-22.03251,-0.12759 -25.11488,-6.78449 -25.11488,-6.78449z" fill="#dccd27" fill-rule="nonzero" stroke="#000000" stroke-width="2" stroke-linecap="butt" stroke-linejoin="miter"/><path d="M296.92485,228.53569l5.27751,-45.94896l37.78325,-0.15789l4.67444,45.45686c0,0 -7.00642,7.16153 -24.11741,7.06682c-17.11099,-0.09472 -23.61779,-6.41683 -23.61779,-6.41683z" fill="#dccd27" fill-rule="nonzero" stroke="#000000" stroke-width="2" stroke-linecap="butt" stroke-linejoin="miter"/><path d="M300.00973,206.02198l3.12142,-26.32765l35.83075,-0.14203l2.76735,26.1059c0,0 -7.51543,4.19603 -21.55904,4.50964c-12.48458,0.27879 -20.16049,-4.14586 -20.16049,-4.14586z" fill="#b2a730" fill-rule="nonzero" stroke="#000000" stroke-width="0" stroke-linecap="butt" stroke-linejoin="miter"/><path d="M252.678,139.46254c-5.93447,-32.76882 17.55425,-64.45827 52.46352,-70.78037c34.90927,-6.32211 68.01967,15.11719 73.95414,47.886c5.93447,32.76882 -17.55426,64.45828 -52.46353,70.78038c-34.90927,6.32211 -68.01967,-15.11719 -73.95414,-47.886z" fill="#b9b912" fill-rule="nonzero" stroke="#000000" stroke-width="2" stroke-linecap="butt" stroke-linejoin="miter"/><path d="M253.39909,139.38669c-0.12973,-0.71634 15.08829,54.0965 72.49213,44.732c54.84696,-8.94737 52.16959,-68.34382 52.35115,-67.34126c5.84588,32.27972 -17.36221,63.50885 -51.83671,69.75222c-34.47452,6.24337 -67.16068,-14.86325 -73.00656,-47.14296z" fill="#c8c824" fill-rule="nonzero" stroke="#000000" stroke-width="0" stroke-linecap="butt" stroke-linejoin="miter"/><path d="M302.74624,158.54295l39.515,-8.15741c2.39402,-0.49421 4.71918,1.03523 5.21341,3.42923l3.70504,17.9474c0.49421,2.39401 -1.03523,4.71919 -3.42923,5.21341l-39.51499,8.15741c-2.39401,0.49421 -4.7192,-1.03521 -5.21342,-3.42923l-3.70504,-17.9474c-0.49421,-2.39401 1.03523,-4.71919 3.42924,-5.21341z" fill="#000000" fill-rule="evenodd" stroke="#000000" stroke-width="2" stroke-linecap="round" stroke-linejoin="round"/><path d="M257.0072,101.48381l104.5636,-18.93658c6.335,-1.14727 12.35857,3.02912 13.50584,9.36409l8.60086,47.49196c1.14728,6.33497 -3.02912,12.35859 -9.36408,13.50585l-104.56359,18.93658c-6.33497,1.14728 -12.3586,-3.02912 -13.50587,-9.36408l-8.60084,-47.49195c-1.14727,-6.33496 3.02912,-12.35859 9.36409,-13.50587z" fill="#dccd27" fill-rule="evenodd" stroke="#000000" stroke-width="2" stroke-linecap="round" stroke-linejoin="round"/><path d="M265.76322,105.32232l88.95385,-16.10964c5.38927,-0.976 10.51363,2.57692 11.48963,7.96617l7.31687,40.40214c0.976,5.38925 -2.57691,10.51364 -7.96617,11.48963l-88.95383,16.10964c-5.38925,0.976 -10.51366,-2.57692 -11.48965,-7.96617l-7.31687,-40.40214c-0.976,-5.38925 2.57693,-10.51363 7.96619,-11.48964z" fill="#000000" fill-rule="evenodd" stroke="#000000" stroke-width="2" stroke-linecap="round" stroke-linejoin="round"/><path d="M338.70236,166.52097c0,0 -0.71396,8.89796 -14.03191,10.08004c-11.05839,0.98153 -15.03533,-7.1603 -15.03533,-7.1603" fill="none" fill-rule="nonzero" stroke="#ecec68" stroke-width="2" stroke-linecap="round" stroke-linejoin="miter"/><g fill-rule="nonzero" stroke-linejoin="miter"><path d="M314.82012,120.50078l14.66381,-16.56698l-9.01641,19.69848z" fill="#d9db56" stroke="#000000" stroke-width="0.5" stroke-linecap="butt"/><path d="M312.80593,117.08168l2.73909,-4.2702l10.88216,6.9803l-2.73908,4.27021z" fill="#d9db56" stroke="#000000" stroke-width="1" stroke-linecap="butt"/><path d="M293.51338,141.1103l16.93245,-26.50172l16.96112,10.83676l-16.93245,26.50172z" fill="#d9db56" stroke="#000000" stroke-width="1" stroke-linecap="butt"/><path d="M299.89795,130.84814l4.17828,-5.99186c0,0 4.40576,5.04648 7.2671,6.82686c2.68241,1.66905 9.39891,3.54298 9.39891,3.54298l-4.17829,5.99187c0,0 -7.04401,-1.1146 -9.70054,-2.7675c-2.88064,-1.79239 -6.96548,-7.60234 -6.96548,-7.60234z" fill="#000000" stroke="none" stroke-width="0" stroke-linecap="butt"/><path d="M318.17988,115.57665l-1.60018,2.79835" fill="none" stroke="#000000" stroke-width="0.5" stroke-linecap="round"/><path d="M320.79377,120.61245l1.45389,-2.97772" fill="none" stroke="#000000" stroke-width="0.5" stroke-linecap="round"/></g></g></g></svg>