<svg version="1.1" xmlns="http://www.w3.org/2000/svg" xmlns:xlink="http://www.w3.org/1999/xlink" width="153" height="313.52975" viewBox="0,0,153,313.52975"><g transform="translate(-246.10439,5.02976)"><g data-paper-data="{&quot;isPaintingLayer&quot;:true}" fill-rule="nonzero" stroke-linejoin="miter" stroke-miterlimit="10" stroke-dasharray="" stroke-dashoffset="0" style="mix-blend-mode: normal"><path d="M285.90286,307.49998l11.88736,-92.12506l43.64314,-0.80899l10.96949,92.93407z" fill="#9b9d30" stroke="#000000" stroke-width="2" stroke-linecap="butt"/><path d="M289.57668,250.08801l11.45707,-49.81105l39.39249,-3.48067l9.45725,53.84916l-30.23979,-11.89646z" fill="#747524" stroke="#000000" stroke-width="2" stroke-linecap="butt"/><path d="M398.10439,126.11596c0,44.597 -33.8025,80.75 -75.5,80.75c-41.6975,0 -75.5,-36.15301 -75.5,-80.75c0,-44.59699 33.8025,-80.75 75.5,-80.75c41.6975,0 75.5,36.15301 75.5,80.75z" fill="#747524" stroke="#000000" stroke-width="2" stroke-linecap="butt"/><path d="M389.77733,131.26007c0,38.06162 -30.45365,68.91667 -68.02013,68.91667c-37.56647,0 -68.02013,-30.85504 -68.02013,-68.91667c0,-38.06162 30.45365,-68.91667 68.02013,-68.91667c37.56647,0 68.02013,30.85504 68.02013,68.91667z" fill="#000000" stroke="none" stroke-width="0" stroke-linecap="butt"/><path d="M257.59716,132.93956c0,-33.30185 28.7599,-60.29833 64.23702,-60.29833c35.47712,0 64.23702,26.99649 64.23702,60.29833c0,33.30185 -28.7599,60.29833 -64.23702,60.29833c-35.47712,0 -64.23702,-26.99649 -64.23702,-60.29833z" fill="#ffff70" stroke="#000000" stroke-width="2" stroke-linecap="butt"/><path d="M258.32022,132.99339c0,-0.72799 5.20666,55.91939 63.36046,56.93429c55.56352,0.9697 63.51358,-57.95314 63.51358,-56.93429c0,32.80479 -28.40173,59.39833 -63.43702,59.39833c-35.03529,0 -63.43702,-26.59354 -63.43702,-59.39833z" fill="#6c6d22" stroke="#000000" stroke-width="0" stroke-linecap="butt"/><path d="M257.35441,147.88448c0,0 -8.73921,-80.9842 66.75,-79.5c77.52968,1.52431 61,82.25 61,82.25c0,0 -24.63436,12.69075 -63.02896,13.02851c-34.39482,0.30257 -64.72104,-15.77851 -64.72104,-15.77851z" fill-opacity="0.20144" fill="#000000" stroke="none" stroke-width="0" stroke-linecap="butt"/><path d="M271.14737,133.36902c0,-12.968 10.51265,-23.48065 23.48065,-23.48065c12.968,0 23.48065,10.51265 23.48065,23.48065c0,12.968 -10.51265,23.48065 -23.48065,23.48065c-12.968,0 -23.48065,-10.51265 -23.48065,-23.48065z" fill="#ffffff" stroke="#000000" stroke-width="2" stroke-linecap="butt"/><path d="M278.86386,135.0467c0,-9.12808 7.39976,-16.52784 16.52783,-16.52784c9.12808,0 16.52784,7.39977 16.52784,16.52784c0,9.12808 -7.39977,16.52784 -16.52784,16.52784c-9.12808,0 -16.52783,-7.39977 -16.52783,-16.52784z" fill="#000000" stroke="none" stroke-width="0" stroke-linecap="butt"/><path d="M319.7049,182.6044l-10.44066,-9.85456c0,0 7.87204,-0.49798 12.15094,-0.49798c4.08165,0 12.95865,0.49798 12.95865,0.49798z" fill="#000000" stroke="#000000" stroke-width="2" stroke-linecap="round"/><path d="M348.88645,156.84967c-12.968,0 -23.48065,-10.51265 -23.48065,-23.48065c0,-12.968 10.51265,-23.48065 23.48065,-23.48065c12.968,0 23.48065,10.51265 23.48065,23.48065c0,12.968 -10.51265,23.48065 -23.48065,23.48065z" data-paper-data="{&quot;index&quot;:null}" fill="#ffffff" stroke="#000000" stroke-width="2" stroke-linecap="butt"/><path d="M349.42498,149.62124c-9.12807,0 -16.52783,-7.39977 -16.52783,-16.52784c0,-9.12808 7.39977,-16.52784 16.52783,-16.52784c9.12807,0 16.52783,7.39977 16.52783,16.52784c0,9.12808 -7.39977,16.52784 -16.52783,16.52784z" data-paper-data="{&quot;index&quot;:null}" fill="#000000" stroke="none" stroke-width="0" stroke-linecap="butt"/><path d="M271.14737,133.36902c0,-12.968 10.51265,-23.48065 23.48065,-23.48065c12.968,0 23.48065,10.51265 23.48065,23.48065c0,0 -46.96131,1.23155 -46.96131,0z" fill="#ffff70" stroke="#000000" stroke-width="2" stroke-linecap="butt"/><path d="M325.40582,133.36902c0,-12.968 10.51265,-23.48065 23.48065,-23.48065c12.968,0 23.48065,10.51265 23.48065,23.48065c0,1.2138 -46.96131,0 -46.96131,0z" data-paper-data="{&quot;index&quot;:null}" fill="#ffff70" stroke="#000000" stroke-width="2" stroke-linecap="butt"/><path d="M283.35513,102.10897c0,0 7.59834,-3.74113 12.82228,-3.90615c5.22395,-0.16501 11.95254,3.12355 11.95254,3.12355c0,0 -7.86762,-1.64791 -11.9019,-1.52047c-4.21598,0.13318 -12.87293,2.30307 -12.87293,2.30307z" fill="#000000" stroke="none" stroke-width="0" stroke-linecap="butt"/><path d="M347.3814,99.82344c-4.03603,0.04644 -11.82537,2.03168 -11.82537,2.03168c0,0 6.58071,-3.57532 11.80692,-3.63546c5.2262,-0.06014 12.97862,3.35026 12.97862,3.35026c0,0 -8.74237,-1.79502 -12.96017,-1.74649z" data-paper-data="{&quot;index&quot;:null}" fill="#000000" stroke="none" stroke-width="0" stroke-linecap="butt"/><g stroke="#000000" stroke-width="2" stroke-linecap="butt"><path d="M281.51601,39.13602l21.68247,-43.16583c0,0 27.34117,-0.30698 39.65858,1.87151c13.51205,2.38976 38.16205,11.89206 38.16205,11.89206l5.97001,47.20354c0,0 -34.67016,-1.31887 -52.42596,-4.31562c-17.39448,-2.93578 -53.04716,-13.48565 -53.04716,-13.48565z" fill="#ffffff"/><path d="M281.89402,39.14018l3.15316,-6.28319c0,0 32.9899,9.86421 50.07401,12.88851c16.63022,2.94393 51.10561,5.02262 51.10561,5.02262l0.89198,6.20902c0,0 -36.69095,-0.19058 -54.22255,-3.36393c-17.2063,-3.11447 -51.0022,-14.473 -51.0022,-14.473z" fill="#9b9d30"/><path d="M337.52582,21.41969c0,0 11.62989,-2.97382 18.43514,-3.83372c7.56191,-0.9555 24.906,-1.64269 24.906,-1.64269l0.71853,6.94349c0,0 -19.66045,0.73251 -26.8586,1.79166c-5.40019,0.7946 -12.50807,4.00095 -12.50807,4.00095z" fill="#9b9d30"/><path d="M342.78678,45.74651c0,0 1.86068,-7.87448 -8.36544,-17.43502c-13.84877,-12.94739 -35.98071,-20.44592 -35.98071,-20.44592l3.54354,-6.21252c0,0 21.31841,5.62473 37.20662,20.90805c12.00383,11.54682 11.40364,24.59866 11.40364,24.59866z" fill="#9b9d30"/></g></g></g></svg>