<svg version="1.1" xmlns="http://www.w3.org/2000/svg" xmlns:xlink="http://www.w3.org/1999/xlink" width="302.40211" height="267.9437" viewBox="0,0,302.40211,267.9437"><g transform="translate(-22.13899,-39.40398)"><g data-paper-data="{&quot;isPaintingLayer&quot;:true}" fill-rule="nonzero" stroke-linejoin="miter" stroke-miterlimit="10" stroke-dasharray="" stroke-dashoffset="0" style="mix-blend-mode: normal"><path d="M256.43848,201.95078c-0.57113,0 -1.03411,-0.46299 -1.03411,-1.03411c0,-0.57113 0.46299,-1.03413 1.03411,-1.03413c0.57113,0 1.03411,0.463 1.03411,1.03413c0,0.57113 -0.46299,1.03411 -1.03411,1.03411z" fill="#000000" stroke="none" stroke-width="1.5" stroke-linecap="butt"/><path d="M251.1786,206.18636c-4.4635,-0.31439 -6.55245,-1.79392 -6.16985,-2.58011c0.11788,-0.24224 2.84645,1.06355 6.97038,1.3048c6.40897,0.37493 8.51033,-0.63173 8.51033,-0.63173v1.34616c0,0 -2.4135,1.04672 -9.31086,0.56089z" fill="#000000" stroke="#000000" stroke-width="0" stroke-linecap="butt"/><path d="M223.36584,200.91667c0,-0.57113 0.46299,-1.03413 1.03411,-1.03413c0.57113,0 1.03413,0.463 1.03413,1.03413c0,0.57113 -0.463,1.03411 -1.03413,1.03411c-0.57113,0 -1.03411,-0.46299 -1.03411,-1.03411z" fill="#000000" stroke="none" stroke-width="1.5" stroke-linecap="butt"/><path d="M229.65984,206.18636c-6.89736,0.48585 -9.31086,-0.56089 -9.31086,-0.56089v-1.34616c0,0 2.10136,1.00666 8.51033,0.63173c4.12393,-0.24126 6.85251,-1.54704 6.97039,-1.3048c0.3826,0.78618 -1.70634,2.26571 -6.16985,2.58011z" fill="#000000" stroke="#000000" stroke-width="0" stroke-linecap="butt"/><path d="M201.8413,306.00852c0,0 -0.63536,-94.38387 -0.79335,-118.01201c-0.05451,-8.15261 8.18688,-36.76129 40.20201,-36.9211c31.60235,-0.15775 39.85672,29.48704 39.84884,36.89673c-0.07659,46.24274 0.65429,117.98648 0.65429,117.98648l-10.49667,0.09614l-0.15882,-114.84311c0,0 0.07549,-3.0993 -2.81625,-3.15415c-3.43441,-0.06514 -2.94538,3.11562 -2.94538,3.11562l0.20548,114.86995l-48.21366,0.07222l-0.30539,-115.23309c0,0 0.27949,-2.919 -2.8856,-2.93443c-3.11083,-0.01515 -2.81569,2.90899 -2.81569,2.90899l0.35311,115.0668z" fill="#ffffff" stroke="#000000" stroke-width="2" stroke-linecap="butt"/><path d="M240.9403,262.73803c-0.81895,0 -1.48284,-0.66389 -1.48284,-1.48284c0,-0.81895 0.66389,-1.48284 1.48284,-1.48284c0.81895,0 1.48284,0.66389 1.48284,1.48284c0,0.81895 -0.66389,1.48284 -1.48284,1.48284z" data-paper-data="{&quot;index&quot;:null}" fill="#000000" stroke="none" stroke-width="1.5" stroke-linecap="butt"/><path d="M215.87703,307.02293v-119.9751c0,0 0.78289,-9.7942 0.78289,-14.73438c0,-4.5272 -0.78289,-14.4427 -0.78289,-14.4427c0,0 2.76386,-2.36824 4.81361,-3.77239c2.04975,-1.40416 5.3474,-2.15524 5.3474,-2.15524c0,0 3.36875,10.57749 5.88115,15.35615c2.50536,4.76525 9.17219,13.27571 9.17219,13.27571c0,0 6.55919,-8.46287 9.02604,-13.40182c2.28632,-4.57751 5.27464,-15.23004 5.27464,-15.23004c0,0 3.98733,1.83393 6.37499,3.29901c2.38766,1.46508 4.91503,3.62862 4.91503,3.62862c0,0 -0.78289,9.15247 -0.78289,13.95079c0,4.87336 0.78289,14.73438 0.78289,14.73438v119.46703z" fill="#1a1a1a" stroke="#000000" stroke-width="0" stroke-linecap="butt"/><path d="M215.54371,306.6896v-61.8888c1.09288,12.79802 11.82738,22.84459 24.90838,22.84459c0.0556,0 0.11115,-0.00018 0.16667,-0.00054c0.05551,0.00036 0.11107,0.00054 0.16667,0.00054c0.11128,0 0.2224,-0.00073 0.33333,-0.00218c0.11094,0.00145 0.22205,0.00218 0.33333,0.00218c13.03567,0 23.74108,-9.97706 24.89667,-22.71164v61.75588z" fill="#131313" stroke="#000000" stroke-width="0" stroke-linecap="butt"/><g stroke="none" stroke-width="0" stroke-linecap="butt"><path d="M196.93524,307.34768c0,0 -1.39618,-119.27696 1,-133c1.38902,-7.95502 24,-21 24,-21c0,0 -0.54171,7.72002 0.14368,19.38256c0.55339,9.41658 2.86037,21.4034 3.73065,33.97205c0.92302,13.33024 0.52657,27.31495 0.98241,39.58191c0.43736,11.76943 1.73875,21.95763 2.05589,28.46946c0.69707,14.31312 0.08737,32.59402 0.08737,32.59402z" fill="#9b9b44"/><path d="M196.93523,307.34761c0,0 -0.43851,-37.4619 -0.40225,-72.81208c1.2043,10.1867 14.54087,21.58705 14.54087,21.58705l2.64592,-65.05555l0.48982,66.29264c0,0 7.68344,2.02355 12.64924,1.63052c0.2376,0.01881 0.47613,0.03429 0.71555,0.04641c0.51004,6.30637 1.07827,11.7083 1.2735,15.717c0.69707,14.31312 0.08738,32.59402 0.08738,32.59402z" fill="#6e6e30"/></g><g data-paper-data="{&quot;index&quot;:null}" stroke="none" stroke-width="0" stroke-linecap="butt"><path d="M252.52771,307.34768c0,0 -0.6097,-18.2809 0.08737,-32.59402c0.31714,-6.51183 1.61853,-16.70003 2.05589,-28.46946c0.45584,-12.26696 0.05939,-26.25167 0.98241,-39.58191c0.87028,-12.56865 3.17726,-24.55547 3.73065,-33.97205c0.68539,-11.66254 0.14368,-19.38256 0.14368,-19.38256c0,0 22.61098,13.04498 24,21c2.39618,13.72304 1,133 1,133z" fill="#9b9b44"/><path d="M252.52769,307.34762c0,0 -0.60969,-18.2809 0.08738,-32.59402c0.19523,-4.0087 0.76346,-9.41063 1.2735,-15.717c0.23942,-0.01212 0.47795,-0.0276 0.71555,-0.04641c4.9658,0.39303 12.64924,-1.63052 12.64924,-1.63052l0.48982,-66.29264l2.64592,65.05555c0,0 13.33657,-11.40035 14.54087,-21.58705c0.03626,35.35018 -0.40225,72.81208 -0.40225,72.81208z" fill="#6e6e30"/></g><path d="M195.81812,94.88994c0,0 6.16824,-5.91671 6.29728,-6.78235c0.33844,-2.27035 -0.13415,-40.17329 36.00252,-41.54372c44.63708,-0.87628 38.9853,35.38134 41.49557,42.22503c3.44196,9.38372 6.14209,17.40531 6.14209,17.40531c0,0 -2.76544,-2.05582 -4.07708,-3.13738c-1.22336,-1.00874 -3.79879,-3.14903 -3.79879,-3.14903c0,0 3.08246,10.35069 1.29361,20.69606c-1.57023,9.47967 -7.31222,17.21931 -7.31222,17.21931l-1.15325,-2.34831c0,0 -1.0245,2.19708 -2.16284,3.33093c-1.13836,1.13385 -3.44117,2.90986 -3.44117,2.90986l-0.08896,-3.70429c0,0 -7.06932,11.01204 -24.35975,10.85117c-16.30603,-0.2691 -26.06257,-10.69701 -26.06257,-10.69701l-0.11842,2.65474c0,0 -3.89201,-3.29601 -6.17333,-9.71271c-2.71906,-7.64795 -3.22922,-12.24594 -3.22922,-12.24594c0,0 -2.34067,1.8972 -5.71936,2.76962c-4.23369,1.09319 -6.94693,0.33945 -6.94693,0.33945c0,0 3.61022,-2.71415 5.58794,-4.76521c1.7616,-1.82693 2.6494,-3.375 2.6494,-3.375c0,0 -2.10848,1.08294 -4.23413,1.61441c-2.21786,0.55454 -4.03052,0.52756 -4.03052,0.52756c0,0 4.97913,-5.03311 7.03984,-10.86841c1.94562,-5.50946 2.10889,-10.95556 2.10889,-10.95556c0,0 -1.3622,0.66049 -3.33079,0.79234c-1.24784,0.08359 -2.37781,-0.05089 -2.37781,-0.05089z" fill="#000000" stroke="none" stroke-width="1.5" stroke-linecap="butt"/><path d="M212.59453,106.2256c-0.57099,-7.29372 0.34935,-17.1542 0.34935,-17.1542c0,0 3.41063,-0.03839 13.91692,-3.1326c8.0716,-2.37719 20.55524,-9.47003 20.55524,-9.47003c0,0 -2.16255,3.00322 -3.41153,4.4573c-1.3278,1.54585 -3.99673,4.55962 -3.99673,4.55962c0,0 7.8394,-1.66105 14.67871,-4.71703c8.57132,-3.52859 10.59759,-6.04422 12.95426,-4.58186c2.78145,1.72595 1.01067,23.18355 0.69442,28.74121c-0.42637,5.66887 -2.54122,9.49757 -3.16078,12.5179c-0.61956,3.02032 -0.41473,6.13627 -2.21963,16.03786c-1.12637,6.17928 -4.16929,8.92118 -10.03168,14.65243c-5.86239,5.73126 -9.06152,9.24517 -13.02139,9.31084c-3.81082,0.06321 -8.93138,-5.10767 -13.92672,-10.39409c-5.31922,-5.62919 -8.8678,-8.48455 -9.70285,-15.14788c-0.75206,-6.00102 -0.76824,-9.90917 -1.10991,-15.24928c-0.24973,-3.90294 -2.25579,-6.44693 -2.56764,-10.43016z" fill="#ffffff" stroke="#000000" stroke-width="1.5" stroke-linecap="butt"/><path d="M260.60017,89.97631c0,0 1.48759,0.46011 4.13242,1.50586c2.41575,0.9552 4.26547,2.155 4.26547,2.155l0.0841,1.18352c0,0 -6.9229,-3.79833 -14.81622,-3.88215c-6.31132,-0.067 -10.18365,1.86231 -10.18365,1.86231l0.43861,-4.15399c0,0 3.27398,-1.40234 8.00338,-1.10731c4.89726,0.30551 7.99928,1.35002 7.99928,1.35002z" data-paper-data="{&quot;index&quot;:null}" fill="#000000" stroke="none" stroke-width="1.5" stroke-linecap="butt"/><path d="M240.20206,135.67577c-1.03376,-0.00087 -3.53537,-3.26339 -3.78221,-5.36686c-0.22085,-1.88204 1.31832,-3.82689 3.7899,-3.82481c2.4716,0.00208 4.20168,0.49428 4.02649,4.1919c-0.1487,3.13805 -1.5626,5.00188 -4.03417,4.9998z" fill="#ffffff" stroke="#000000" stroke-width="1.15" stroke-linecap="butt"/><path d="M244.07934,105.58531c0,0 -0.15072,3.96964 -0.2502,7.12642c-0.19696,6.25096 -1.10469,27.75979 -1.10469,27.75979l-2.98167,0.00615c0,0 -0.79945,-4.17341 -1.11527,-9.50071c-0.4275,-7.21099 -0.43587,-16.29358 -0.74702,-19.63292c-0.29493,-3.16537 -1.39136,-5.46569 -1.39136,-5.46569" fill="#ffffff" stroke="#000000" stroke-width="1.3" stroke-linecap="round"/><path d="M214.2857,116.35023c0,0 -4.92917,-3.52117 -6.15667,-8.98017c-1.29155,-5.74393 -1.45304,-9.73402 0.48849,-9.99152c1.94153,-0.25752 2.70122,2.37918 3.72564,8.3588c1.02439,5.97964 1.94255,10.61289 1.94255,10.61289z" data-paper-data="{&quot;index&quot;:null}" fill="#ffffff" stroke="#000000" stroke-width="1" stroke-linecap="butt"/><path d="M214.08643,112.40251c0,0 -3.5614,-2.92636 -4.31109,-8.45422c-0.41821,-3.08361 2.15866,-2.27835 2.15866,-2.27835" fill="none" stroke="#000000" stroke-width="0.25" stroke-linecap="round"/><path d="M217.10539,105.7491c0.07501,-4.89182 4.84581,-8.93204 10.21878,-8.84965c5.37296,0.08239 9.02368,4.25595 8.94866,9.14777c-0.02457,1.60176 -0.47594,3.09709 -1.26059,4.38107c-0.53935,0.88256 -1.16878,1.41896 -1.90301,1.73994c-4.70346,2.05622 -8.44373,1.59626 -13.03063,-0.70831c-1.0275,-0.51626 -1.84157,-1.28309 -2.32761,-2.4272c-0.43302,-1.01934 -0.66335,-2.12747 -0.6456,-3.28361z" fill="#000000" stroke="#000000" stroke-width="1.4" stroke-linecap="butt"/><path d="M218.58116,105.76114c0.06347,-4.13857 4.09964,-7.55664 8.64525,-7.48695c4.54561,0.0697 7.63418,3.60061 7.57072,7.73917c-0.06347,4.13857 -3.4356,4.98018 -7.98121,4.91047c-4.54561,-0.0697 -8.29824,-1.02413 -8.23477,-5.1627z" fill="#ffffff" stroke="none" stroke-width="0" stroke-linecap="butt"/><path d="M244.16167,105.77248c0.20761,-4.88799 4.46005,-8.85474 9.77788,-8.8503c5.31783,0.00444 9.27122,3.97382 9.26711,8.86622c-0.0041,4.8924 -3.89343,9.06779 -9.70728,9.13377c-5.53002,0.06277 -9.55454,-4.04491 -9.33772,-9.14969z" fill="#000000" stroke="#000000" stroke-width="1.4" stroke-linecap="butt"/><path d="M245.63541,105.79572c0.17547,-4.13119 3.7695,-7.48375 8.26396,-7.47999c4.49447,0.00376 7.83574,3.35856 7.83228,7.49346c-0.00346,4.1349 -3.29061,7.66381 -8.20431,7.71957c-4.67381,0.05304 -8.07521,-3.41864 -7.89196,-7.73304z" fill="#ffffff" stroke="none" stroke-width="0" stroke-linecap="butt"/><path d="M220.11651,90.2047c0,0 3.37115,-1.81619 8.03434,-2.27506c5.1674,-0.50852 7.76828,-0.05978 7.76828,-0.05978l0.29161,4.13771c0,0 -3.83497,-0.68386 -8.01751,-0.52784c-5.59364,0.20865 -6.64608,1.42737 -10.89931,1.88207c-3.6444,0.38961 -6.73736,0.1532 -6.73736,0.1532l-0.02486,-1.23156c0,0 3.59511,0.07699 5.23376,-0.06398c1.35249,-0.11636 3.97649,-0.93476 3.97649,-0.93476z" fill="#000000" stroke="none" stroke-width="1.5" stroke-linecap="butt"/><path d="M268.5277,105.78431c1.0344,-5.97791 1.79851,-8.61332 3.73961,-8.35257c1.9411,0.26076 1.77293,4.25058 0.47177,9.99233c-1.23662,5.45694 -6.17167,8.96986 -6.17167,8.96986c0,0 0.9259,-4.63172 1.96031,-10.60963z" data-paper-data="{&quot;index&quot;:null}" fill="#ffffff" stroke="#000000" stroke-width="1" stroke-linecap="butt"/><path d="M268.94363,101.7176c0,0 2.5782,-0.80097 2.15484,2.28196c-0.75892,5.5266 -4.32523,8.447 -4.32523,8.447" data-paper-data="{&quot;index&quot;:null}" fill="none" stroke="#000000" stroke-width="0.25" stroke-linecap="round"/><path d="M242.16164,47.4509c0,0 2.85012,-1.21929 6.03505,-3.24386c3.18492,-2.02458 6.62382,-4.80306 6.62382,-4.80306c0,0 -0.39895,7.56074 -3.58388,9.58531c-3.18492,2.02458 -9.07499,-1.53838 -9.07499,-1.53838z" data-paper-data="{&quot;index&quot;:null}" fill="#000000" stroke="none" stroke-width="0" stroke-linecap="butt"/><g stroke="#000000" stroke-width="0.5" stroke-linecap="butt"><path d="M230.83,105.91873c-0.17026,-0.92868 0.44458,-1.81954 1.37326,-1.9898c0.92869,-0.17026 1.81955,0.44458 1.9898,1.37326c0.17026,0.92868 -0.44458,1.81954 -1.37326,1.9898c-0.92869,0.17026 -1.81955,-0.44458 -1.9898,-1.37326z" fill="#000000"/><path d="M231.2722,105.88665c-0.1313,-0.71621 0.34287,-1.40324 1.05907,-1.53454c0.71621,-0.1313 1.40324,0.34287 1.53454,1.05908c0.1313,0.71621 -0.34287,1.40324 -1.05908,1.53453c-0.71621,0.1313 -1.40323,-0.34287 -1.53453,-1.05907z" fill="#ffffff"/></g><g stroke="#000000" stroke-width="0.5" stroke-linecap="butt"><path d="M257.82683,106.33213c-0.17026,-0.92868 0.44458,-1.81954 1.37326,-1.9898c0.92869,-0.17026 1.81955,0.44458 1.9898,1.37326c0.17026,0.92868 -0.44458,1.81954 -1.37326,1.9898c-0.92869,0.17026 -1.81955,-0.44458 -1.9898,-1.37326z" fill="#000000"/><path d="M258.26903,106.30005c-0.1313,-0.71621 0.34287,-1.40324 1.05907,-1.53454c0.71621,-0.1313 1.40324,0.34287 1.53454,1.05908c0.1313,0.71621 -0.34287,1.40324 -1.05908,1.53453c-0.71621,0.1313 -1.40323,-0.34287 -1.53453,-1.05907z" fill="#ffffff"/></g><g stroke="none" stroke-linecap="butt"><path d="M259.89225,138.59486c0,0 1.7287,27.13008 -7.63699,33.07087c-2.6317,1.66934 -6.9743,2.11767 -11.53318,2.00617c-3.96619,-0.097 -9.36404,-0.66619 -11.80953,-2.52387c-7.5271,-5.71784 -8.64686,-33.50025 -8.64686,-33.50025c0,0 5.9706,-9.88332 10.86047,-9.76646c1.84707,0.04414 10.50071,3.74639 10.50071,3.74639c0,0 7.17778,-4.42118 10.02752,-2.56872c2.33647,1.51881 8.23787,9.53589 8.23787,9.53589z" fill="#000000" stroke-width="0"/><path d="M249.869,130.47765c0.24719,0.00379 1.41645,0.38224 2.41775,0.91948c1.73571,1.01025 5.44767,6.56003 4.79812,7.2728c-0.18816,0.17781 -2.72336,-0.54765 -5.52829,-1.69474c-2.74192,-1.2264 -6.06773,-2.42683 -6.95341,-2.44039c-1.62721,-0.02491 -6.05848,0.21933 -5.17128,-1.21246c0.46416,-0.71556 7.15414,-2.37304 10.43708,-2.8447z" data-paper-data="{&quot;noHover&quot;:false,&quot;origItem&quot;:[&quot;Path&quot;,{&quot;applyMatrix&quot;:true,&quot;segments&quot;:[[[535.02735,304.30552],[0,0],[-1.24218,0.19792]],[[532.78517,305.05154],[0.17186,-0.27404],[-0.32812,0.5481]],[[533.14455,305.77474],[-0.6172,0],[0.33594,0]],[[535.64455,306.57406],[-1.04688,-0.44914],[1.07032,0.4187]],[[537.71487,307.22112],[-0.07032,0.06852],[0.24218,-0.27406]],[[535.88675,304.62524],[0.66406,0.37302],[-0.38282,-0.19792]],[[535.02737,304.30552],[0.09376,0],[0,0]]],&quot;closed&quot;:true,&quot;fillColor&quot;:[0,0,0]}]}" fill="#ffffff" stroke-width="0.5"/><path d="M234.96926,130.01122c1.61917,0.54672 9.19002,4.07777 9.1273,4.13703c-0.24934,0.13674 -13.51542,1.27506 -17.73542,2.39486c-2.27488,0.56741 -3.38108,0.55744 -3.374,0.09585c0.0169,-1.10383 6.95785,-7.68285 8.02888,-7.66645c0,0 2.3968,0.4327 3.95324,1.03869z" data-paper-data="{&quot;noHover&quot;:false,&quot;origItem&quot;:[&quot;Path&quot;,{&quot;applyMatrix&quot;:true,&quot;segments&quot;:[[[527.85557,303.78008],[0,0],[-0.40624,0]],[[524.94933,306.71852],[0,-0.41868],[0,0.17508]],[[526.21495,306.6424],[-0.85936,0.22838],[1.59376,-0.44914]],[[530.62121,305.3711],[-0.09376,0.0533],[0.02344,-0.02284]],[[530.52745,304.95242],[0.09376,0.22076],[-0.07032,-0.22838]],[[529.28527,304.17594],[0.61718,0.19792],[-0.59374,-0.22076]],[[527.85559,303.78008],[0.1953,0],[0,0]]],&quot;closed&quot;:true,&quot;fillColor&quot;:[0,0,0]}]}" fill="#ffffff" stroke-width="0.5"/><path d="M248.2838,137.14777c1.3729,0.48277 -0.78552,0.84322 -7.43844,0.74135c-5.15022,-0.01862 -9.71937,-0.38983 -9.71629,-0.59051c0.00707,-0.46159 4.65073,-1.67058 9.20741,-1.52828c4.04717,0.12639 6.96358,1.04118 7.94733,1.37743z" data-paper-data="{&quot;noHover&quot;:false,&quot;origItem&quot;:[&quot;Path&quot;,{&quot;applyMatrix&quot;:true,&quot;segments&quot;:[[[530.23831,306.29996],[0,0],[-0.73438,0.02284]],[[528.05081,306.89374],[0,-0.17508],[0,0.07612]],[[531.57425,306.9927],[-1.95312,0.02284],[2.52344,0]],[[534.35551,306.74148],[0.52342,0.1751],[-0.375,-0.1218]],[[532.43363,306.67296],[0.66406,-0.07612],[-0.78906,0.09896]],[[531.05081,306.54354],[0.09376,0.1751],[-0.09374,-0.14464]],[[530.23831,306.29994],[0.35938,-0.03046],[0,0]]],&quot;closed&quot;:true,&quot;fillColor&quot;:[0,0,0]}]}" fill="#ffffff" stroke-width="0.5"/><path d="M236.43442,139.48395c2.4572,-0.3639 10.30755,0.13301 10.81359,0.72292c0.66861,0.73291 -1.07348,1.22151 -5.91507,1.2277c-5.95447,0.02928 -9.0497,-1.29152 -4.89856,-1.95062z" data-paper-data="{&quot;noHover&quot;:false,&quot;origItem&quot;:[&quot;Path&quot;,{&quot;applyMatrix&quot;:true,&quot;segments&quot;:[[[530.07423,307.7158],[0,0],[-1.57032,0.27404]],[[531.80861,308.31718],[-2.25782,0.04568],[1.83594,-0.03046]],[[533.98049,307.91372],[0.2578,0.27404],[-0.19532,-0.22076]],[[530.07425,307.7158],[0.92968,-0.15226],[0,0]]],&quot;closed&quot;:true,&quot;fillColor&quot;:[0,0,0]}]}" fill="#ffffff" stroke-width="0.5"/><path d="M242.4363,160.45705c2.45295,-0.08289 5.04204,-0.4077 5.869,-0.59576c1.75967,-0.55521 1.80866,0.4853 -0.02203,1.64169c-2.41236,1.46867 -9.71721,1.57557 -13.21722,0.07661c-4.17667,-1.71007 -4.60416,-3.24055 -0.5471,-1.79328c2.00838,0.69324 4.96767,0.90664 7.91735,0.67074z" data-paper-data="{&quot;noHover&quot;:false,&quot;origItem&quot;:[&quot;Path&quot;,{&quot;applyMatrix&quot;:true,&quot;segments&quot;:[[[529.40235,310.43356],[0.76562,0.25122],[-1.54688,-0.52526]],[[529.62111,311.08062],[-1.59376,-0.62422],[1.33594,0.5481]],[[534.43361,310.98166],[-0.90626,0.57094],[0.6875,-0.44914]],[[534.43361,310.38026],[0.66406,-0.22076],[-0.3125,0.07612]],[[532.21485,310.65432],[0.9297,-0.04568],[-1.11718,0.10658]]],&quot;closed&quot;:true,&quot;fillColor&quot;:[0,0,0]}]}" fill="#ffffff" stroke-width="0.5"/><path d="M225.47486,140.70229c0.99914,0.67778 2.70324,15.85516 3.86959,17.71992c2.99461,4.90396 4.5152,5.47359 11.8478,5.58587c7.04428,0.10787 7.79462,-0.02805 12.08402,-5.6837c1.40917,-1.88549 3.17555,-16.83576 3.81989,-17.20733c1.06056,-0.64619 2.44146,-0.4528 2.02555,2.49182c-0.82384,5.36741 -2.74542,21.1414 -4.99082,23.81713c-2.8123,3.36966 -5.70291,4.3406 -13.67404,4.21854c-5.72727,-0.00737 -7.1656,-0.32001 -9.47283,-1.68026c-3.24703,-1.87651 -5.44814,-6.62763 -6.36047,-12.71724c-1.23228,-8.22519 -1.41801,-13.37395 -0.94036,-15.45804c0.52679,-2.29845 1.79168,-1.08672 1.79168,-1.08672z" data-paper-data="{&quot;noHover&quot;:false,&quot;origItem&quot;:[&quot;Path&quot;,{&quot;applyMatrix&quot;:true,&quot;segments&quot;:[[[525.19153,309.78654],[0,0],[0.64062,2.2457]],[[528.09779,314.29316],[-1.2422,-0.69274],[0.88282,0.50242]],[[531.62123,314.84126],[-2.17188,0.03046],[3.02344,0]],[[536.69155,313.2274],[-1.04688,1.29414],[0.83594,-1.0277]],[[538.19155,309.1623],[-0.28124,2.04016],[0.14062,-1.11904]],[[537.91031,308.21834],[0.39842,-0.2512],[-0.24218,0.14464]],[[536.50407,309.78652],[0.52342,-0.72318],[-1.59374,2.16958]],[[531.90251,312.13118],[2.67188,0],[-2.78124,0]],[[527.23845,309.9616],[1.16406,1.84224],[-0.45312,-0.70036]],[[525.73845,308.24116],[0.38282,0.25122],[-1.1875,-0.82216]],[[525.19157,309.7865],[-0.6953,-2.26854],[0,0]]],&quot;closed&quot;:true,&quot;fillColor&quot;:[0,0,0]}]}" fill="#ffffff" stroke-width="0.5"/></g><path d="M263.65619,224.53239c-0.01616,0.05745 -0.0307,0.11882 -0.04401,0.18353c0.25905,0.1743 0.50527,0.50317 0.71495,1.03269c0.80313,2.02826 -1.41071,3.9267 -2.69158,2.52999c-0.07587,-0.08273 -0.1417,-0.17065 -0.19825,-0.26313c-1.27533,-0.17205 -1.02455,-2.03198 -0.98923,-3.29041c0.4697,-0.8896 1.41404,-2.04968 1.7563,-2.9871c0.68593,-1.87868 0.44948,-5.0348 0.21713,-7.01919c-0.45323,-3.87087 0.58004,-7.37058 -1.24136,-10.90138c0.58436,-4.25215 1.23574,-8.59187 1.23574,-12.91598c0,-3.20584 -0.82848,-6.27219 0.03849,-9.46829c0,0 0.23717,-0.84345 0.94868,-0.5623c0.71151,0.28115 0.47435,1.12461 0.47435,1.12461c-0.80478,2.72996 0.03044,5.31549 0.03848,8.0169c0.01317,4.42156 -0.35359,9.19106 -1.26425,13.45998c1.419,2.25792 1.26425,5.45579 1.26425,8.17424c0,4.00803 0.41164,7.38524 -0.69432,10.74588c0.26185,0.13871 0.44432,0.45015 0.44432,0.81212v1.18544h-0.04656z" fill="#ffffff" stroke="none" stroke-width="0.5" stroke-linecap="butt"/><path d="M218.03396,224.38997h-0.04657v-1.18544c0,-0.36197 0.18247,-0.67341 0.44432,-0.81212c-1.10596,-3.36064 -0.69432,-6.73785 -0.69432,-10.74588c0,-2.71845 -0.15475,-5.91631 1.26425,-8.17424c-0.91067,-4.26892 -1.27742,-9.03842 -1.26425,-13.45998c0.00805,-2.7014 0.84327,-5.28693 0.03849,-8.0169c0,0 -0.23717,-0.84346 0.47434,-1.12461c0.71151,-0.28115 0.94868,0.5623 0.94868,0.5623c0.86697,3.1961 0.03849,6.26245 0.03849,9.46829c0,4.32411 0.65138,8.66383 1.23574,12.91598c-1.8214,3.5308 -0.78813,7.03051 -1.24136,10.90138c-0.23235,1.9844 -0.4688,5.14051 0.21713,7.01919c0.34226,0.93742 1.28661,2.0975 1.7563,2.9871c0.03531,1.25843 0.28609,3.11836 -0.98924,3.29041c-0.05655,0.09248 -0.12239,0.18041 -0.19825,0.26313c-1.28087,1.39672 -3.49472,-0.50173 -2.69159,-2.52999c0.20968,-0.52952 0.4559,-0.85839 0.71495,-1.03269c-0.01332,-0.06471 -0.02786,-0.12608 -0.04401,-0.18353z" data-paper-data="{&quot;index&quot;:null}" fill="#ffffff" stroke="none" stroke-width="0.5" stroke-linecap="butt"/><path d="M162.73021,129.81066c-1.06066,-1.06066 0,-2.12132 0,-2.12132l1.22861,-1.18742c1.65453,-1.09251 2.8778,-2.83206 4.72522,-3.62369c0.3821,-0.16374 0.99383,-0.36526 1.55669,-0.46462c-0.20403,-0.19653 -0.40813,-0.41118 -0.59341,-0.61552l-0.61632,-0.19769c-0.95607,-0.25187 -1.91214,-0.50375 -2.86822,-0.75563c-2.61219,-0.74626 -4.95578,-1.69682 -7.38531,-2.68536c-1.3872,-0.56444 -3.05249,0.00576 -4.46633,-0.48819c-3.02781,-1.05782 -3.32274,-3.53349 -6.04069,-4.51439c-2.31793,-0.83653 -4.73078,-0.195 -7.127,-0.41409c-5.75529,-0.52623 -12.67465,-2.76891 -16.10066,-7.66069c0,0 -0.83205,-1.24807 0.41603,-2.08012c1.24808,-0.83205 2.08012,0.41603 2.08012,0.41603c1.23161,1.99725 3.26966,2.2193 5.17505,3.64974c4.12918,3.09991 9.26572,2.10345 14.26015,2.69355c1.40897,0.16648 3.69248,0.94007 4.77785,1.83713c1.22728,1.01435 1.9992,2.75444 3.5186,3.23041c1.45128,0.45462 3.10864,-0.01938 4.53368,0.51181c2.38029,0.88728 4.61174,1.88515 7.15297,2.61129c0.01376,0.00363 0.02752,0.00726 0.04128,0.01089c-0.54069,-0.82689 -0.97597,-1.49306 -0.99239,-1.5152c-1.93626,-2.61145 -4.9272,-5.46399 -5.28996,-8.89307l-0.85202,-2.84009c-0.04756,-0.14623 -0.07328,-0.30232 -0.07328,-0.46442c0,-0.82842 0.67157,-1.5 1.5,-1.5c0.55596,0 1.04129,0.30247 1.30039,0.75183l1.428,2.38c3.42725,3.73985 5.8017,7.25023 7.27462,11.63587l0.27554,-0.11022l1.10154,2.75385c0.06117,0.14324 0.1007,0.29792 0.11447,0.45995c1.08889,1.05651 2.14249,2.34485 1.22231,4.00578c-0.10858,0.19598 -3.52596,0.74433 -4.11004,0.9947c-1.59683,0.68452 -2.8212,2.39937 -4.27478,3.37631l-0.77139,0.81259c0,0 -1.06066,1.06066 -2.12132,0z" fill="#9b9b44" stroke="none" stroke-width="0.5" stroke-linecap="butt"/><text transform="translate(22.29087,60.04269) scale(0.30375,0.30375)" font-size="40" xml:space="preserve" fill="#9b9b44" fill-rule="nonzero" stroke="none" stroke-width="1" stroke-linecap="butt" stroke-linejoin="miter" stroke-miterlimit="10" stroke-dasharray="" stroke-dashoffset="0" font-family="Sans Serif" font-weight="normal" text-anchor="start" style="mix-blend-mode: normal"><tspan x="0" dy="0">animate him screaming at the sight of the offscreen</tspan><tspan x="0" dy="46.150000000000006px">entity named "stampedey"</tspan></text></g></g></svg>