<svg version="1.1" xmlns="http://www.w3.org/2000/svg" xmlns:xlink="http://www.w3.org/1999/xlink" width="193.83887" height="182.98498" viewBox="0,0,193.83887,182.98498"><g transform="translate(-226.64383,-49.74717)"><g data-paper-data="{&quot;isPaintingLayer&quot;:true}" fill-rule="nonzero" stroke-linecap="butt" stroke-linejoin="miter" stroke-miterlimit="10" stroke-dasharray="" stroke-dashoffset="0" style="mix-blend-mode: normal"><path d="M419.4827,154.09409c0,0 -46.13447,14.26317 -64.24456,27.18823c-17.65601,12.60099 -43.08833,49.4146 -43.08833,49.4146c0,0 -19.2895,-43.45043 -33.43919,-60.83792c-13.57013,-16.67531 -49.79302,-41.43985 -49.79302,-41.43985c0,0 47.27729,-14.63053 65.4408,-27.59372c17.59611,-12.55823 41.89209,-49.0091 41.89209,-49.0091c0,0 16.18479,36.54983 29.34674,52.72354c14.45988,17.76866 53.88547,49.55423 53.88547,49.55423z" data-paper-data="{&quot;index&quot;:null}" fill="#d8d871" stroke="#000000" stroke-width="2"/><path d="M382.49761,217.70901c0,0 -42.70757,-22.53641 -64.65274,-26.20278c-21.39492,-3.57443 -65.40944,4.47335 -65.40944,4.47335c0,0 17.08436,-44.36382 19.37383,-66.66398c2.1957,-21.38674 -5.90657,-64.51137 -5.90657,-64.51137c0,0 43.77544,23.08475 65.78534,26.76193c21.32234,3.56232 64.27685,-5.03249 64.27685,-5.03249c0,0 -14.40025,37.28901 -16.5299,58.03245c-2.33965,22.78901 3.06265,73.14291 3.06265,73.14291z" data-paper-data="{&quot;index&quot;:null}" fill="#d8d871" stroke="#000000" stroke-width="2"/><path d="M316.64439,201.08178c-35.15944,-4.73706 -60.05713,-35.33194 -55.61053,-68.33559c4.4466,-33.00364 36.55366,-55.91825 71.7131,-51.1812c35.15944,4.73706 60.05713,35.33194 55.61053,68.33559c-4.4466,33.00364 -36.55366,55.91825 -71.7131,51.1812z" data-paper-data="{&quot;index&quot;:null}" fill="#ecec68" stroke="#000000" stroke-width="2"/><path d="M351.03383,156.27801c-1.94507,14.43674 -15.98962,24.46025 -31.36937,22.38813c-15.37974,-2.07213 -26.27071,-15.45522 -24.32564,-29.89196c0.27859,-2.06772 55.89947,5.98631 55.69502,7.50382z" data-paper-data="{&quot;index&quot;:null}" fill="#000000" stroke="#000000" stroke-width="2"/><path d="M363.97686,136.73491c-0.82764,6.14289 -6.47834,10.45177 -12.62125,9.62413c-6.1429,-0.82764 -10.45178,-6.47836 -9.62414,-12.62126c0.82764,-6.14289 6.47836,-10.45176 12.62127,-9.62412c6.1429,0.82764 10.45177,6.47836 9.62413,12.62126z" data-paper-data="{&quot;index&quot;:null}" fill="#000000" stroke="none" stroke-width="0"/><path d="M297.85041,138.81572c-5.96141,-0.80319 -10.143,-6.28699 -9.33981,-12.24843c0.80319,-5.96142 6.28698,-10.14301 12.24841,-9.33982c5.96142,0.80319 10.14301,6.28698 9.33982,12.24842c-0.80319,5.96142 -6.28699,10.14301 -12.24842,9.33982z" data-paper-data="{&quot;index&quot;:null}" fill="#000000" stroke="none" stroke-width="0"/></g></g></svg>