<svg version="1.1" xmlns="http://www.w3.org/2000/svg" xmlns:xlink="http://www.w3.org/1999/xlink" width="140.07118" height="442.51405" viewBox="0,0,140.07118,442.51405"><g transform="translate(-275.76102,79.00329)"><g data-paper-data="{&quot;isPaintingLayer&quot;:true}" fill-rule="nonzero" stroke-linejoin="miter" stroke-miterlimit="10" stroke-dasharray="" stroke-dashoffset="0" style="mix-blend-mode: normal"><path d="M369.87633,41.81272l0.39159,125.20378l-65.34927,-5.87906l24.56708,-115.35708l42.17001,-6.8481z" fill="#b5b54a" stroke="#b5b54a" stroke-width="2.5" stroke-linecap="round"/><path d="M415.32642,-0.58729c-3.08511,34.29283 -33.26766,59.60231 -67.41462,56.53033c-34.14697,-3.07198 -59.32755,-33.36214 -56.24244,-67.65496c3.08511,-34.29283 33.26766,-59.60233 67.4146,-56.53035c34.14697,3.07198 59.32757,33.36216 56.24246,67.65498z" fill="#fafab0" stroke="#fafab0" stroke-width="0.5" stroke-linecap="butt"/><path d="M322.64753,-76.43707l15.08979,6.06972l0.74547,-8.28632l19.47521,7.32099l-0.00221,-2.35628l14.80087,6.90047l-0.06177,-4.07516l23.44674,20.31547l-42.57492,-7.6856l6.0896,6.11677l-22.06087,-4.76914l8.0636,10.36396l-23.32101,-9.80888l-0.32495,3.612l-13.12684,-13.60394l21.16835,0.40505z" fill="#fcfc00" stroke="#fcfc00" stroke-width="0.5" stroke-linecap="round"/><path d="M341.88754,-7.58011c-0.63689,7.07947 -3.85392,12.57554 -7.18544,12.27583c-3.33152,-0.29972 -5.51593,-6.28172 -4.87904,-13.36119c0.63689,-7.07947 3.85392,-12.57554 7.18544,-12.27583c3.33152,0.29972 5.51593,6.28172 4.87904,13.36119z" fill="#29291b" stroke="#29291b" stroke-width="2.5" stroke-linecap="butt"/><path d="M373.14457,-5.78163c-0.63689,7.07947 -3.85392,12.57554 -7.18544,12.27583c-3.33152,-0.29972 -5.51593,-6.28172 -4.87904,-13.36119c0.63689,-7.07947 3.85392,-12.57554 7.18544,-12.27583c3.33152,0.29972 5.51593,6.28172 4.87904,13.36119z" fill="#29291b" stroke="#29291b" stroke-width="2.5" stroke-linecap="butt"/><path d="M354.67777,236.9391l0.39159,125.20378l-65.34927,-5.87906l24.56708,-115.35708l42.17,-6.8481z" fill="#e5e61c" stroke="#e5e61c" stroke-width="2.5" stroke-linecap="round"/><path d="M399.90386,197.02903c-2.96139,32.91766 -33.04365,57.11237 -67.19061,54.04038c-34.14697,-3.07198 -59.42786,-32.24736 -56.46647,-65.16502c2.96139,-32.91766 33.04365,-57.11237 67.19061,-54.04038c34.14697,3.07198 59.42786,32.24736 56.46647,65.16502z" fill="#fafab0" stroke="#fafab0" stroke-width="0.5" stroke-linecap="butt"/><path d="M308.26574,120.77085l15.08979,6.06971l0.74547,-8.28635l19.47521,7.32099l-0.00221,-2.3563l14.80087,6.90047l-0.06177,-4.07518l23.44675,20.31549l-42.57492,-7.6856l6.0896,6.11677l-22.06088,-4.76915l8.06357,10.36398l-23.321,-9.80888l-0.32495,3.612l-13.12685,-13.60394l21.16835,0.40506z" fill="#29291b" stroke="#29291b" stroke-width="0.5" stroke-linecap="round"/><path d="M326.68898,187.54625c-0.63689,7.07947 -3.85392,12.57554 -7.18544,12.27583c-3.33152,-0.29972 -5.51593,-6.28172 -4.87904,-13.36119c0.63689,-7.07947 3.85392,-12.57554 7.18544,-12.27583c3.33152,0.29972 5.51593,6.28172 4.87904,13.36119z" fill="#29291b" stroke="#29291b" stroke-width="2.5" stroke-linecap="butt"/><path d="M357.94599,189.34474c-0.63689,7.07947 -3.85392,12.57554 -7.18544,12.27583c-3.33152,-0.29972 -5.51593,-6.28172 -4.87904,-13.36119c0.63689,-7.07947 3.85392,-12.57554 7.18544,-12.27583c3.33152,0.29972 5.51593,6.28172 4.87904,13.36119z" fill="#29291b" stroke="#29291b" stroke-width="2.5" stroke-linecap="butt"/><path d="M330.64469,129.79368l4.72042,-47.36262c0,0 10.30827,-0.06392 14.71209,1.37263c4.65853,1.51964 7.33764,6.35471 7.33764,6.35471l0.112,8.97019c0,0 -4.80247,10.53232 -10.23182,9.66963c-4.15979,-0.66097 -13.6474,-2.16852 -13.6474,-2.16852" fill="none" stroke="#29291b" stroke-width="2.5" stroke-linecap="round"/><path d="M332.07671,286.08178l-4.01379,39.71993" fill="none" stroke="#29291b" stroke-width="2.5" stroke-linecap="round"/><path d="M350.46705,283.00836l-38.94275,6.65608" fill="none" stroke="#29291b" stroke-width="2.5" stroke-linecap="round"/></g></g></svg>