<svg version="1.1" xmlns="http://www.w3.org/2000/svg" xmlns:xlink="http://www.w3.org/1999/xlink" width="300.30788" height="407.33208" viewBox="0,0,300.30788,407.33208"><g transform="translate(-163.12989,96.57017)"><g data-paper-data="{&quot;isPaintingLayer&quot;:true}" fill-rule="nonzero" stroke-linejoin="miter" stroke-miterlimit="10" stroke-dasharray="" stroke-dashoffset="0" style="mix-blend-mode: normal"><g data-paper-data="{&quot;index&quot;:null}"><path d="M199.9299,104.53079l-14.81903,28.12708l5.86779,-30.57228z" fill="#d9db56" stroke="#000000" stroke-width="0.5" stroke-linecap="butt"/><path d="M203.90761,108.61659l-2.36714,6.89499l-17.57113,-6.03241l2.36712,-6.895z" fill="#d9db56" stroke="#000000" stroke-width="1" stroke-linecap="butt"/><path d="M222.64311,68.4951l-14.59755,42.76877l-27.37202,-9.34242l14.59755,-42.76877z" fill="#d9db56" stroke="#000000" stroke-width="1" stroke-linecap="butt"/><path d="M217.23083,84.9976l-3.78892,9.78911c0,0 -7.87115,-5.54181 -12.47253,-7.05118c-4.31362,-1.41499 -14.32833,-1.74012 -14.32833,-1.74012l3.78892,-9.78911c0,0 10.21292,-0.84654 14.4849,0.55475c4.63243,1.51954 12.31596,8.23652 12.31596,8.23652z" fill="#000000" stroke="none" stroke-width="0" stroke-linecap="butt"/><path d="M198.19871,108.0983l-1.2793,4.45198" fill="none" stroke="#000000" stroke-width="0.5" stroke-linecap="round"/><path d="M190.53924,111.06473l1.01393,-4.65247" fill="none" stroke="#000000" stroke-width="0.5" stroke-linecap="round"/></g><g><path d="M446.02144,87.30984l14.40836,28.33965l-21.57318,-22.44311z" fill="#d9db56" stroke="#000000" stroke-width="0.5" stroke-linecap="butt"/><path d="M451.65406,86.4213l4.26274,5.91382l-15.07073,10.86313l-4.26276,-5.91381z" fill="#d9db56" stroke="#000000" stroke-width="1" stroke-linecap="butt"/><path d="M429.71403,47.95849l26.49067,36.61285l-23.43221,16.95404l-26.49067,-36.61285z" fill="#d9db56" stroke="#000000" stroke-width="1" stroke-linecap="butt"/><path d="M440.06272,61.90588l5.80476,8.7457c0,0 -9.06946,3.22671 -12.95862,6.11207c-3.64595,2.70491 -9.69384,10.69385 -9.69384,10.69385l-5.80476,-8.7457c0,0 5.20572,-8.82728 8.81644,-11.50611c3.91539,-2.90484 13.836,-5.29984 13.836,-5.29984z" fill="#000000" stroke="none" stroke-width="0" stroke-linecap="butt"/><path d="M450.83082,94.39822l-2.89623,-3.61506" fill="none" stroke="#000000" stroke-width="0.5" stroke-linecap="round"/><path d="M442.72091,95.2355l3.21314,3.51415" fill="none" stroke="#000000" stroke-width="0.5" stroke-linecap="round"/></g><path d="M201.95706,33.26191c0,-64.42746 52.38269,-116.65623 117,-116.65623c64.61731,0 117,52.22877 117,116.65623c0,64.42746 -52.38269,116.65624 -117,116.65624c-64.61731,0 -117,-52.22878 -117,-116.65624z" fill="#7f7f38" stroke="#000000" stroke-width="2" stroke-linecap="butt"/><path d="M298.19266,42.73532c0,-38.7275 35.37595,-70.12235 79.01439,-70.12235c43.63844,0 79.01439,31.39485 79.01439,70.12235c0,38.72751 -35.37595,70.12236 -79.01439,70.12236c-43.63844,0 -79.01439,-31.39485 -79.01439,-70.12235z" fill="#00800b" stroke="#000000" stroke-width="2" stroke-linecap="butt"/><path d="M298.19266,42.73532c0,-38.7275 35.37595,-70.12235 79.01439,-70.12235c43.63844,0 79.01439,31.39485 79.01439,70.12235c0,38.72751 -35.37595,70.12236 -79.01439,70.12236c-43.63844,0 -79.01439,-31.39485 -79.01439,-70.12235z" fill="#9d9d45" stroke="#000000" stroke-width="2" stroke-linecap="butt"/><path d="M185.69267,44.27825c0,-38.7275 35.37595,-70.12235 79.01439,-70.12235c43.63844,0 79.0144,31.39484 79.0144,70.12235c0,38.72751 -35.37595,70.12236 -79.0144,70.12236c-43.63844,0 -79.01439,-31.39485 -79.01439,-70.12235z" fill="#9d9d45" stroke="#000000" stroke-width="2" stroke-linecap="butt"/><path d="M257.22166,309.76189c0,0 9.1249,-63.13361 13.73833,-109.20958c4.68242,-46.76501 1.94769,-170.34406 1.94769,-170.34406l90.51268,0.66642c0,0 -2.24627,117.81098 2.27994,168.30134c3.587,40.01343 14.00333,110.5859 14.00333,110.5859z" fill="#4f4f23" stroke="#000000" stroke-width="2" stroke-linecap="butt"/><path d="M274.75422,139.76781c0.60672,-47.03602 -0.6017,-98.89288 -0.6017,-98.89288l88.0394,0.61557c0,0 -1.04541,52.06758 -0.23288,99.60614c0,0 -16.68826,13.14483 -44.00716,13.02148c-26.07236,-0.11772 -43.19765,-14.35031 -43.19765,-14.35031z" fill="#363618" stroke="#000000" stroke-width="0" stroke-linecap="butt"/><path d="M320.01238,184.73402c-6.44738,0 -12.24271,-32.31567 -12.24271,-32.31567h25.10959c0,0 -6.4195,32.31567 -12.86688,32.31567z" fill="#000000" stroke="#000000" stroke-width="2" stroke-linecap="round"/><path d="M289.7272,135.26191c0,-7.23955 5.86881,-13.10836 13.10835,-13.10836c7.23955,0 13.10836,5.86882 13.10836,13.10836c0,7.23955 -5.36881,2.60836 -12.60836,2.60836c-7.23955,0 -13.60835,4.63118 -13.60835,-2.60836z" fill="#000000" stroke="none" stroke-width="0" stroke-linecap="butt"/><path d="M337.68979,136.37025c-7.23954,0 -13.10836,6.63118 -13.10836,-0.60836c0,-7.23955 5.86882,-13.10836 13.10836,-13.10836c7.23955,0 13.10835,5.86882 13.10835,13.10836c0,7.23955 -5.86881,0.60836 -13.10835,0.60836z" data-paper-data="{&quot;index&quot;:null}" fill="#000000" stroke="none" stroke-width="0" stroke-linecap="butt"/><path d="M184.93578,5.34327c0,-55.73294 60.00336,-100.91343 134.02128,-100.91343c74.01791,0 134.02128,45.18048 134.02128,100.91343c0,55.73295 -60.00337,100.91343 -134.02128,100.91343c-74.01791,0 -134.02127,-45.18048 -134.02127,-100.91343z" fill="#c5c556" stroke="#000000" stroke-width="2" stroke-linecap="butt"/><g><path d="M430.02564,0.53788l31.74686,-1.69507l-29.25764,10.63417z" fill="#d9db56" stroke="#000000" stroke-width="0.5" stroke-linecap="butt"/><path d="M431.49464,-4.97192l7.13357,-1.50214l3.82803,18.17913l-7.13357,1.50216z" fill="#d9db56" stroke="#000000" stroke-width="1" stroke-linecap="butt"/><path d="M387.44158,-0.49086l44.20481,-9.39102l6.01027,28.29107l-44.20481,9.39102z" fill="#d9db56" stroke="#000000" stroke-width="1" stroke-linecap="butt"/><path d="M404.38527,-4.30352l10.34733,-1.765c0,0 -0.72325,9.59915 0.3396,14.32368c0.99637,4.42909 5.85107,13.19447 5.85107,13.19447l-10.34733,1.765c0,0 -5.9623,-8.33495 -6.9491,-12.72125c-1.07004,-4.75641 0.7584,-14.79689 0.7584,-14.79689z" fill="#000000" stroke="none" stroke-width="0" stroke-linecap="butt"/><path d="M433.9762,0.1955l4.47832,-1.18381" fill="none" stroke="#000000" stroke-width="0.5" stroke-linecap="round"/><path d="M440.44968,5.25129l-4.51443,1.51443" fill="none" stroke="#000000" stroke-width="0.5" stroke-linecap="round"/></g><g data-paper-data="{&quot;index&quot;:null}"><path d="M193.1002,24.55079l-28.56938,13.94728l22.78971,-21.2067z" fill="#d9db56" stroke="#000000" stroke-width="0.5" stroke-linecap="butt"/><path d="M193.89736,30.19707l-5.98211,4.16636l-10.61752,-15.24476l5.9821,-4.16638z" fill="#d9db56" stroke="#000000" stroke-width="1" stroke-linecap="butt"/><path d="M232.71061,8.88313l-37.03727,25.89396l-16.57215,-23.70384l37.03727,-25.89396z" fill="#d9db56" stroke="#000000" stroke-width="1" stroke-linecap="butt"/><path d="M218.59738,19.00447l-8.83861,5.66229c0,0 -3.07933,-9.12055 -5.9013,-13.05595c-2.64548,-3.6893 -10.53537,-9.86584 -10.53537,-9.86584l8.83861,-5.66229c0,0 8.74178,5.34806 11.36175,9.00171c2.84102,3.96195 5.07496,13.92005 5.07496,13.92005z" fill="#000000" stroke="none" stroke-width="0" stroke-linecap="butt"/><path d="M185.93483,29.2447l3.66151,-2.83727" fill="none" stroke="#000000" stroke-width="0.5" stroke-linecap="round"/><path d="M181.66331,24.27806l3.56575,-3.15578" fill="none" stroke="#000000" stroke-width="0.5" stroke-linecap="round"/></g><g><path d="M282.59092,-60.86236l7.09492,-30.9903l2.18407,31.05358z" fill="#d9db56" stroke="#000000" stroke-width="0.5" stroke-linecap="butt"/><path d="M277.69696,-63.78902l0.51616,-7.27171l18.53117,1.31539l-0.51614,7.27171z" fill="#d9db56" stroke="#000000" stroke-width="1" stroke-linecap="butt"/><path d="M269.89877,-20.20075l3.11902,-45.08356l28.85349,1.99615l-3.11902,45.08356z" fill="#d9db56" stroke="#000000" stroke-width="1" stroke-linecap="butt"/><path d="M270.88937,-37.53979l1.14663,-10.43397c0,0 9.03077,3.33346 13.86548,3.60993c4.53237,0.2592 14.29442,-1.99965 14.29442,-1.99965l-1.14663,10.43397c0,0 -9.65258,3.44211 -14.14118,3.18545c-4.86733,-0.27833 -14.01871,-4.7957 -14.01871,-4.7957z" fill="#000000" stroke="none" stroke-width="0" stroke-linecap="butt"/><path d="M283.43991,-69.38613l-0.09252,4.63122" fill="none" stroke="#000000" stroke-width="0.5" stroke-linecap="round"/><path d="M289.98758,-69.5897l0.21546,4.7568" fill="none" stroke="#000000" stroke-width="0.5" stroke-linecap="round"/></g><g><path d="M346.58473,44.91651l6.56694,31.10646l-15.01569,-27.26948z" fill="#d9db56" stroke="#000000" stroke-width="0.5" stroke-linecap="butt"/><path d="M352.2551,45.51892l2.58346,6.81689l-17.3721,6.58366l-2.58348,-6.81688z" fill="#d9db56" stroke="#000000" stroke-width="1" stroke-linecap="butt"/><path d="M341.03908,2.68257l16.09071,42.22967l-27.02699,10.29807l-16.09071,-42.22967z" fill="#d9db56" stroke="#000000" stroke-width="1" stroke-linecap="butt"/><path d="M347.41719,18.83632l3.33842,9.95176c0,0 -9.59594,0.76459 -14.10026,2.54279c-4.22264,1.66698 -12.13523,7.81442 -12.13523,7.81442l-3.33842,-9.95176c0,0 7.31661,-7.17549 11.49846,-8.82641c4.53471,-1.79021 14.73702,-1.53083 14.73702,-1.53083z" fill="#000000" stroke="none" stroke-width="0" stroke-linecap="butt"/><path d="M349.39157,53.00953l-1.85976,-4.24241" fill="none" stroke="#000000" stroke-width="0.5" stroke-linecap="round"/><path d="M343.53394,55.94237l-2.192,-4.22713" fill="none" stroke="#000000" stroke-width="0.5" stroke-linecap="round"/></g></g></g></svg>