<svg version="1.1" xmlns="http://www.w3.org/2000/svg" xmlns:xlink="http://www.w3.org/1999/xlink" width="167.34316" height="320.39224" viewBox="0,0,167.34316,320.39224"><defs><linearGradient x1="360.21926" y1="54.30359" x2="372.63706" y2="60.68494" gradientUnits="userSpaceOnUse" id="color-1"><stop offset="0" stop-color="#131308"/><stop offset="1" stop-color="#131308" stop-opacity="0"/></linearGradient><linearGradient x1="347.52184" y1="76.78622" x2="360.60921" y2="83.51166" gradientUnits="userSpaceOnUse" id="color-2"><stop offset="0" stop-color="#151509"/><stop offset="1" stop-color="#151509" stop-opacity="0"/></linearGradient></defs><g transform="translate(-255.55533,9.44356)"><g data-paper-data="{&quot;isPaintingLayer&quot;:true}" fill-rule="nonzero" stroke-linejoin="miter" stroke-miterlimit="10" stroke-dasharray="" stroke-dashoffset="0" style="mix-blend-mode: normal"><path d="M287.81613,309.94867l15.14285,-131.8421l37.78325,-0.15789l13.57389,132z" fill="#959541" stroke="#000000" stroke-width="2" stroke-linecap="butt"/><path d="M300.76635,206.56131l3.12142,-26.32765l35.83075,-0.14203l2.76735,26.1059c0,0 -7.51543,4.19603 -21.55904,4.50964c-12.48458,0.27879 -20.16049,-4.14586 -20.16049,-4.14586z" fill="#7d7d37" stroke="#000000" stroke-width="0" stroke-linecap="butt"/><path d="M256.55533,133.57788c1.73186,-33.25678 31.85678,-58.72108 67.2859,-56.8761c35.42911,1.84497 62.74615,30.30059 61.01429,63.55736c-1.73186,33.25678 -31.85678,58.72108 -67.2859,56.8761c-35.42911,-1.84497 -62.74615,-30.30059 -61.01429,-63.55736z" fill="#959541" stroke="#000000" stroke-width="2" stroke-linecap="butt"/><path d="M257.27461,133.66925c0.03786,-0.72701 2.29154,56.11449 60.31387,60.15229c55.43791,3.85795 66.44148,-54.57172 66.38849,-53.55424c-1.70601,32.7604 -31.45229,57.84093 -66.44018,56.01892c-34.98788,-1.82201 -61.96819,-29.85659 -60.26219,-62.61698z" fill="#7d7d37" stroke="#000000" stroke-width="0" stroke-linecap="butt"/><path d="M270.06488,134.71145c0.6744,-12.95045 11.71953,-22.90217 24.66998,-22.22776c12.95045,0.6744 22.90217,11.71953 22.22776,24.66998c-0.6744,12.95045 -11.71953,22.90217 -24.66998,22.22776c-12.95045,-0.6744 -22.90217,-11.71953 -22.22776,-24.66998z" fill="#ffffff" stroke="#000000" stroke-width="2" stroke-linecap="butt"/><path d="M272.37938,131.09596c0.47471,-9.11573 8.24927,-16.12065 17.36498,-15.64595c9.11573,0.47471 16.12065,8.24928 15.64595,17.36499c-0.47471,9.11573 -8.24928,16.12065 -17.36499,15.64595c-9.11573,-0.47471 -16.12064,-8.24928 -15.64594,-17.36499z" fill="#000000" stroke="none" stroke-width="0" stroke-linecap="butt"/><path d="M330.94692,175.26786l-24.69405,-4.54924" fill="none" stroke="#000000" stroke-width="2" stroke-linecap="round"/><path d="M346.47766,162.20312c-12.95045,-0.6744 -22.90217,-11.71953 -22.22776,-24.66998c0.6744,-12.95045 11.71953,-22.90217 24.66998,-22.22776c12.95045,0.6744 22.90217,11.71953 22.22776,24.66998c-0.6744,12.95045 -11.71953,22.90217 -24.66998,22.22776z" data-paper-data="{&quot;index&quot;:null}" fill="#ffffff" stroke="#000000" stroke-width="2" stroke-linecap="butt"/><path d="M354.11196,156.62934c-9.11572,-0.47471 -16.12064,-8.24928 -15.64594,-17.36499c0.47471,-9.11573 8.24928,-16.12065 17.36498,-15.64595c9.11572,0.47471 16.12064,8.24928 15.64594,17.36499c-0.47471,9.11573 -8.24928,16.12065 -17.36498,15.64595z" data-paper-data="{&quot;index&quot;:null}" fill="#000000" stroke="none" stroke-width="0" stroke-linecap="butt"/><path d="M284.18365,106.59919c0,0 6.9687,-4.81332 12.11219,-5.74142c5.1435,-0.9281 12.28107,1.33986 12.28107,1.33986c0,0 -8.02411,-0.47821 -11.99625,0.23854c-4.15105,0.74903 -12.39699,4.16304 -12.39699,4.16304z" fill="#000000" stroke="none" stroke-width="0" stroke-linecap="butt"/><path d="M348.28135,105.12847c-3.87623,-1.12546 -11.9066,-1.48328 -11.9066,-1.48328c0,0 7.33453,-1.51431 12.35381,-0.057c5.01927,1.45733 11.4503,6.96845 11.4503,6.96845c0,0 -7.84673,-4.25204 -11.89753,-5.42819z" data-paper-data="{&quot;index&quot;:null}" fill="#000000" stroke="none" stroke-width="0" stroke-linecap="butt"/><path d="M318.35879,79.33474c0.27963,-5.36978 7.27121,-37.7151 7.27121,-37.7151c0,0 3.59408,32.89659 3.31445,38.26636" fill="#804400" stroke="#000000" stroke-width="2" stroke-linecap="butt"/><g stroke="#000000"><path d="M419.54257,26.27669l-35.70059,101.11719c0,0 -24.42249,-2.49495 -52.9734,-17.95677c-27.77599,-15.04217 -40.28807,-28.23204 -40.28807,-28.23204l59.68212,-89.24006c0,0 16.02192,-0.63531 38.85474,11.20129c22.1592,11.4874 30.42522,23.11041 30.42522,23.11041z" fill="#333333" stroke-width="2" stroke-linecap="butt"/><path d="M419.54257,26.27669l-35.70059,101.11719c0,0 -24.42249,-2.49495 -52.9734,-17.95677c-27.77599,-15.04217 -40.28807,-28.23204 -40.28807,-28.23204l59.68212,-89.24006c0,0 21.30679,15.0473 32.73512,20.70732c11.66031,5.77491 36.54482,13.60437 36.54482,13.60437z" fill="#7d7d37" stroke-width="2" stroke-linecap="butt"/><path d="M383.35502,126.53157c0,0 12.89029,24.41626 -19.99166,24.031c-37.67257,-0.44137 -73.15562,-69.33372 -73.15562,-69.33372" fill="none" stroke-width="2" stroke-linecap="round"/><path d="M418.25598,26.89546l-34.91397,99.65102c0,0 -26.5652,-4.17902 -53.53326,-18.78366c-26.23611,-14.20825 -37.91811,-26.8227 -37.91811,-26.8227l7.84704,-11.73333c0,0 13.75292,33.39749 51.13183,32.59195c34.81636,-0.75033 67.38646,-74.90328 67.38646,-74.90328z" fill="#6c6c30" stroke-width="0" stroke-linecap="butt"/></g><g><g><g><path d="M313.15079,76.87149l72.06545,-56.0034l-4.24626,90.8548z" fill="#b4b44f" stroke="none" stroke-width="0" stroke-linecap="butt"/><path d="M382.09971,86.31383l-19.86915,-47.66429l7.45797,-5.48128l13.14513,38.93801z" fill="#cdcd51" stroke="none" stroke-width="0" stroke-linecap="butt"/><path d="M363.48099,102.38025l-19.02141,-49.60347l11.38505,-8.82778l20.59366,65.25236z" fill="#cdcd51" stroke="none" stroke-width="0" stroke-linecap="butt"/><path d="M377.20717,106.1914l-57.81308,-29.70938l62.35152,-49.13377z" fill="none" stroke="#717132" stroke-width="1.5" stroke-linecap="round"/></g><path d="M372.81678,60.3119c-3.85859,7.50865 -11.78833,12.76094 -14.05441,11.4091c-1.47088,-0.87747 -2.38682,-10.04527 1.47177,-17.55392c3.85859,-7.50864 6.33284,-14.89526 13.35027,-11.2891c7.01742,3.60616 3.09096,9.92528 -0.76762,17.43393z" fill="#6d6d30" stroke="none" stroke-width="0" stroke-linecap="butt"/><path d="M360.70804,83.56244c-1.71292,3.33327 -6.03122,4.5299 -9.64521,2.67271c-3.61398,-1.85718 -5.15508,-6.06488 -3.44216,-9.39814c1.71293,-3.33328 6.03123,-4.52991 9.64521,-2.67272c3.61398,1.85718 5.15508,6.06488 3.44215,9.39815z" fill="#6d6d30" stroke="none" stroke-width="0" stroke-linecap="butt"/><path d="M372.78979,60.36463c-3.81893,7.43147 -11.67703,12.62471 -13.9254,11.2839c-1.4594,-0.87031 -2.37653,-9.94935 1.44241,-17.38081c3.81893,-7.43147 6.26528,-14.74343 13.22728,-11.16576c6.96202,3.57769 3.07464,9.8312 -0.7443,17.26266z" fill="url(#color-1)" stroke="none" stroke-width="0" stroke-linecap="butt"/><path d="M360.60921,83.51166c-1.71292,3.33327 -6.03122,4.5299 -9.64521,2.67271c-3.61398,-1.85718 -5.15508,-6.06488 -3.44216,-9.39814c1.71293,-3.33328 6.03123,-4.52991 9.64521,-2.67272c3.61398,1.85718 5.15508,6.06488 3.44215,9.39815z" fill="url(#color-2)" stroke="none" stroke-width="0" stroke-linecap="butt"/></g><g stroke="none" stroke-width="0" stroke-linecap="butt"><path d="M313.15079,76.87149l72.06545,-56.0034l-4.24626,90.8548z" fill="#ffff70"/><path d="M382.09971,86.31383l-19.86915,-47.66429l7.45797,-5.48128l13.14513,38.93801z" fill="#ffffff"/><path d="M363.60805,102.44555l-19.02141,-49.60347l11.38505,-8.82778l20.59366,65.25236z" fill="#ffffff"/><path d="M372.81678,60.3119c-3.85859,7.50865 -11.78833,12.76094 -14.05441,11.4091c-1.47088,-0.87747 -2.38682,-10.04527 1.47177,-17.55392c3.85859,-7.50864 6.33284,-14.89526 13.35027,-11.2891c7.01742,3.60616 3.09096,9.92528 -0.76762,17.43393z" fill="#000000"/><path d="M360.70804,83.56244c-1.71292,3.33327 -6.03122,4.5299 -9.64521,2.67271c-3.61398,-1.85718 -5.15508,-6.06488 -3.44216,-9.39814c1.71293,-3.33328 6.03123,-4.52991 9.64521,-2.67272c3.61398,1.85718 5.15508,6.06488 3.44215,9.39815z" fill="#000000"/></g></g></g></g></svg>