<svg version="1.1" xmlns="http://www.w3.org/2000/svg" xmlns:xlink="http://www.w3.org/1999/xlink" width="143.65124" height="327.03935" viewBox="0,0,143.65124,327.03935"><g transform="translate(-257.67309,16.09066)"><g data-paper-data="{&quot;isPaintingLayer&quot;:true}" fill-rule="nonzero" stroke-linejoin="miter" stroke-miterlimit="10" stroke-dasharray="" stroke-dashoffset="0" style="mix-blend-mode: normal"><path d="M287.81614,309.94868l15.14285,-131.8421l37.78325,-0.15789l13.57389,132z" fill="#959541" stroke="#000000" stroke-width="2" stroke-linecap="butt"/><path d="M300.76636,206.56131l3.12142,-26.32765l35.83075,-0.14203l2.76735,26.1059c0,0 -7.51543,4.19603 -21.55904,4.50964c-12.48458,0.27879 -20.16049,-4.14586 -20.16049,-4.14586z" fill="#7d7d37" stroke="#000000" stroke-width="0" stroke-linecap="butt"/><path d="M258.6731,132.81564c0,-33.30185 28.7599,-60.29833 64.23702,-60.29833c35.47712,0 64.23702,26.99649 64.23702,60.29833c0,33.30185 -28.7599,60.29833 -64.23702,60.29833c-35.47712,0 -64.23702,-26.99649 -64.23702,-60.29833z" fill="#959541" stroke="#000000" stroke-width="2" stroke-linecap="butt"/><path d="M259.39616,132.86948c0,-0.72799 5.20666,55.91939 63.36046,56.93429c55.56352,0.9697 63.51358,-57.95314 63.51358,-56.93429c0,32.80479 -28.40173,59.39833 -63.43702,59.39833c-35.03529,0 -63.43702,-26.59354 -63.43702,-59.39833z" fill="#7d7d37" stroke="#000000" stroke-width="0" stroke-linecap="butt"/><path d="M272.22333,133.24511c0,-12.968 10.51265,-23.48065 23.48065,-23.48065c12.968,0 23.48065,10.51265 23.48065,23.48065c0,12.968 -10.51265,23.48065 -23.48065,23.48065c-12.968,0 -23.48065,-10.51265 -23.48065,-23.48065z" fill="#ffffff" stroke="#000000" stroke-width="2" stroke-linecap="butt"/><path d="M278.67888,135.8085c0,-9.12808 7.39976,-16.52784 16.52783,-16.52784c9.12808,0 16.52784,7.39977 16.52784,16.52784c0,9.12808 -7.39977,16.52784 -16.52784,16.52784c-9.12808,0 -16.52783,-7.39977 -16.52783,-16.52784z" fill="#000000" stroke="none" stroke-width="0" stroke-linecap="butt"/><path d="M310.34019,172.62591h25.10959" fill="none" stroke="#000000" stroke-width="2" stroke-linecap="round"/><path d="M349.9624,156.72575c-12.968,0 -23.48065,-10.51265 -23.48065,-23.48065c0,-12.968 10.51265,-23.48065 23.48065,-23.48065c12.968,0 23.48065,10.51265 23.48065,23.48065c0,12.968 -10.51265,23.48065 -23.48065,23.48065z" data-paper-data="{&quot;index&quot;:null}" fill="#ffffff" stroke="#000000" stroke-width="2" stroke-linecap="butt"/><path d="M350.45965,149.35339c-9.12807,0 -16.52783,-7.39977 -16.52783,-16.52784c0,-9.12808 7.39977,-16.52784 16.52783,-16.52784c9.12807,0 16.52783,7.39977 16.52783,16.52784c0,9.12808 -7.39977,16.52784 -16.52783,16.52784z" data-paper-data="{&quot;index&quot;:null}" fill="#000000" stroke="none" stroke-width="0" stroke-linecap="butt"/><path d="M284.861,104.43664c0,0 6.70895,-5.16922 11.79721,-6.36355c5.08827,-1.19433 12.33413,0.69937 12.33413,0.69937c0,0 -8.03812,-0.06028 -11.96762,0.86207c-4.10648,0.96389 -12.16372,4.80211 -12.16372,4.80211z" fill="#000000" stroke="none" stroke-width="0" stroke-linecap="butt"/><path d="M348.7955,99.63454c-3.9295,-0.92235 -11.96762,-0.86207 -11.96762,-0.86207c0,0 7.24586,-1.8937 12.33413,-0.69937c5.08826,1.19433 11.79721,6.36355 11.79721,6.36355c0,0 -8.05724,-3.83822 -12.16372,-4.80211z" data-paper-data="{&quot;index&quot;:null}" fill="#000000" stroke="none" stroke-width="0" stroke-linecap="butt"/><path d="M310.75497,77.70724c-0.59931,-5.34355 1.02688,-38.3959 1.02688,-38.3959c0,0 8.90776,31.87091 9.50708,37.21445" fill="#804400" stroke="#000000" stroke-width="2" stroke-linecap="butt"/><g stroke="#000000"><path d="M400.63011,6.73139l-16.46151,105.96336c0,0 -24.46411,2.04691 -55.37477,-7.89056c-30.0717,-9.66777 -44.79949,-20.32688 -44.79949,-20.32688l42.22062,-98.70745c0,0 15.63065,-3.57604 40.25325,3.85166c23.89617,7.20857 34.16192,17.10988 34.16192,17.10988z" fill="#333333" stroke-width="2" stroke-linecap="butt"/><path d="M400.63011,6.73139l-16.46151,105.96336c0,0 -24.46411,2.04691 -55.37477,-7.89056c-30.0717,-9.66777 -44.79949,-20.32688 -44.79949,-20.32688l42.22062,-98.70745c0,0 23.71417,10.86458 35.98959,14.32237c12.52462,3.52797 38.42558,6.63916 38.42558,6.63916z" fill="#7d7d37" stroke-width="2" stroke-linecap="butt"/><path d="M383.5311,111.93692c0,0 17.16769,21.62368 -15.22245,27.30262c-37.1091,6.50631 -84.67635,-54.67015 -84.67635,-54.67015" fill="none" stroke-width="2" stroke-linecap="round"/><path d="M399.47953,7.57658l-15.95846,104.3774c0,0 -26.88039,0.78641 -56.07738,-8.60014c-28.40454,-9.13179 -42.21046,-19.37827 -42.21046,-19.37827l5.55119,-12.97811c0,0 19.6701,30.29229 56.26086,22.6145c34.08224,-7.15143 52.43426,-86.03538 52.43426,-86.03538z" fill="#6c6c30" stroke-width="0" stroke-linecap="butt"/></g><g stroke-linecap="butt"><path d="M303.71845,76.1114l58.48766,-70.0643l15.19728,89.67535z" fill="#000000" stroke="#ffff70" stroke-width="1"/><path d="M363.52803,47.23701c-1.85063,3.22757 -7.19993,4.36827 -10.5084,6.78135c-3.28933,2.3991 -4.56371,7.77199 -5.76188,7.36714c-0.60718,-0.20517 -3.10542,-6.89276 0.31881,-11.5163c2.782,-3.75637 9.32012,-4.68749 9.88614,-7.41004c0.21557,-1.03692 0.52874,-2.37282 -1.63205,-4.21281c-1.47838,-1.28684 -3.25409,-1.11145 -4.33307,-0.935c-2.80224,0.45827 -5.07837,3.80134 -5.94489,5.92947c-0.77308,1.89865 -6.00511,-0.93759 -5.5716,-2.56643c2.17124,-8.15807 8.28834,-12.57711 15.61711,-10.62657c7.32876,1.95053 11.68088,10.64717 7.92983,17.18919z" fill="#ffff70" stroke="none" stroke-width="0"/><path d="M351.60977,72.52232c-0.96387,3.62157 -4.92833,5.71026 -8.85489,4.66522c-3.92655,-1.04504 -6.32828,-4.82808 -5.36441,-8.44965c0.96387,-3.62158 4.92834,-5.71028 8.8549,-4.66523c3.92655,1.04504 6.32828,4.82808 5.3644,8.44966z" fill="#ffff70" stroke="none" stroke-width="0"/></g></g></g></svg>