<svg version="1.1" xmlns="http://www.w3.org/2000/svg" xmlns:xlink="http://www.w3.org/1999/xlink" width="178.43484" height="261.89265" viewBox="0,0,178.43484,261.89265"><g transform="translate(-245.99246,-47.15032)"><g data-paper-data="{&quot;isPaintingLayer&quot;:true}" fill-rule="nonzero" stroke-linejoin="miter" stroke-miterlimit="10" stroke-dasharray="" stroke-dashoffset="0" style="mix-blend-mode: normal"><path d="M267.39399,61.5904c0,0 5.04178,19.54055 11.73803,27.09938c6.69624,7.55883 18.77063,10.83776 18.77063,10.83776l-12.72986,28.74944c0,0 -32.93504,-0.43702 -37.59113,-19.37845c-4.65609,-18.94143 19.81232,-47.30813 19.81232,-47.30813z" data-paper-data="{&quot;index&quot;:null}" fill="#000000" stroke="#ffffff" stroke-width="2" stroke-linecap="round"/><path d="M394.65204,48.15032c0,0 29.58499,22.98045 28.75825,42.46823c-0.82674,19.48778 -33.02792,26.41541 -33.02792,26.41541l-18.15279,-25.67208c0,0 11.18992,-5.59714 16.26287,-14.32874c5.07296,-8.73159 6.15958,-28.88282 6.15958,-28.88282z" data-paper-data="{&quot;index&quot;:null}" fill="#000000" stroke="#ffffff" stroke-width="2" stroke-linecap="round"/><path d="M339.24136,200.87676c-0.57113,0 -1.03413,-0.46298 -1.03413,-1.03411c0,-0.57113 0.463,-1.03413 1.03413,-1.03413c0.57112,0 1.03411,0.463 1.03411,1.03413c0,0.57112 -0.46298,1.03411 -1.03411,1.03411z" data-paper-data="{&quot;index&quot;:null}" fill="#5a5a07" stroke="none" stroke-width="0" stroke-linecap="butt"/><path d="M333.98147,205.11233c-4.46351,-0.3144 -6.55245,-1.79393 -6.16985,-2.58011c0.11788,-0.24224 2.84646,1.06354 6.97039,1.3048c6.40897,0.37493 8.51033,-0.63173 8.51033,-0.63173v1.34616c0,0 -2.4135,1.04674 -9.31086,0.56089z" data-paper-data="{&quot;index&quot;:null}" fill="#5a5a07" stroke="none" stroke-width="0" stroke-linecap="butt"/><path d="M321.21818,260.18128c0,-0.81895 0.66389,-1.48284 1.48284,-1.48284c0.81895,0 1.48284,0.66389 1.48284,1.48284c0,0.81895 -0.66389,1.48284 -1.48284,1.48284c-0.81895,0 -1.48284,-0.66389 -1.48284,-1.48284z" data-paper-data="{&quot;index&quot;:null}" fill="#5a5a07" stroke="none" stroke-width="0" stroke-linecap="butt"/><path d="M362.23242,113.2907c0.08131,3.99459 -1.66491,6.7235 -1.52967,10.63208c0.18505,5.34782 0.5532,9.23863 0.39483,15.28452c-0.17584,6.71314 -3.42647,9.90357 -8.16644,16.02849c-4.45137,5.75196 -9.0387,11.40125 -12.83727,11.71305c-3.94713,0.324 -7.47626,-2.85834 -13.87376,-7.98542c-6.3975,-5.12707 -9.69526,-7.5565 -11.42375,-13.59508c-2.76972,-9.67614 -2.87225,-12.79713 -3.78578,-15.7419c-0.91354,-2.94477 -3.39458,-6.54699 -4.37627,-12.14646c-0.86117,-5.49963 -4.73316,-26.67915 -2.13488,-28.67022c2.20147,-1.68699 4.46526,0.61724 13.34199,3.28596c7.10665,2.36871 15.07138,3.25092 15.07138,3.25092c0,0 -2.95233,-2.73675 -4.42569,-4.14456c-1.3859,-1.32423 -3.83327,-4.10027 -3.83327,-4.10027c0,0 13.12055,5.83104 21.38676,7.40308c10.75962,2.0462 14.15749,1.74906 14.15749,1.74906c0,0 1.88539,9.72221 2.03431,17.03672z" data-paper-data="{&quot;index&quot;:null}" fill="#5a5a07" stroke="none" stroke-width="0" stroke-linecap="butt"/><path d="M312.97105,101.92416c0,0 3.09669,-1.06025 7.99234,-1.39059c4.72785,-0.319 8.0089,1.0667 8.0089,1.0667l0.45968,4.15171c0,0 -3.88208,-1.90964 -10.19296,-1.81063c-7.89278,0.12385 -14.79633,3.95724 -14.79633,3.95724l0.07809,-1.18393c0,0 1.84362,-1.20918 4.25449,-2.17661c2.6395,-1.05917 4.12474,-1.52681 4.12474,-1.52681z" data-paper-data="{&quot;index&quot;:null}" fill="#5a5a07" stroke="none" stroke-width="0" stroke-linecap="butt"/><path d="M329.86372,144.52131c0.40829,-0.19972 4.29282,-0.52545 5.50672,-0.28937c1.21389,0.23609 2.56587,1.85935 2.56587,1.85935c0.24408,-0.04794 0.08607,-1.56741 2.82308,-2.7626c2.55439,-1.11544 7.51335,-1.33055 7.51335,-1.33055c0,0 4.37072,0.55788 5.56016,0.93843c3.00907,0.3875 6.93064,0.5842 6.92883,0.71114c-0.00133,0.09413 -5.36732,1.26435 -10.18467,2.77817c-6.01068,1.88882 -12.96449,3.74919 -12.96449,3.74919c0,0 -3.98638,0.02942 -6.72568,-0.03894c-3.2688,-0.08159 -13.62893,0.93641 -13.67465,0.72726c-0.03602,-0.1648 4.08517,-1.66782 6.91469,-3.16171c2.80716,-1.48209 5.19019,-2.913 5.73677,-3.18037z" data-paper-data="{&quot;index&quot;:null}" fill="#5a5a07" stroke="none" stroke-width="0" stroke-linecap="butt"/><path d="M348.87132,147.20341c4.96424,-1.52651 12.01499,-3.59661 12.06941,-3.43207c0.05442,0.16454 -7.53824,15.69374 -21.19671,17.4927c-12.01224,1.65241 -22.285,-9.92188 -22.27807,-10.28885c0.00708,-0.37532 9.16668,-0.79503 11.23786,-0.78439c2.67154,0.01372 8.58704,0.98781 8.58704,0.98781c0,0 6.61622,-2.44872 11.58046,-3.97522z" data-paper-data="{&quot;index&quot;:null}" fill="#5a5a07" stroke="none" stroke-width="0" stroke-linecap="butt"/><path d="M337.6543,145.31266c-2.4594,0.24507 -4.0497,-1.47069 -4.50622,-4.57892c-0.53792,-3.66248 1.1354,-4.32242 3.59481,-4.56749c2.4594,-0.24507 4.18235,1.53901 4.14761,3.43365c-0.03883,2.11756 -2.20753,5.61024 -3.2362,5.71274z" data-paper-data="{&quot;index&quot;:null}" fill="#5a5a07" stroke="none" stroke-width="0" stroke-linecap="butt"/><path d="M337.89712,115.09528c0,0 -0.34262,2.59616 -0.32489,5.7752c0.0187,3.35375 0.9034,12.39316 1.18698,19.61124c0.2095,5.33256 -0.17573,9.56435 -0.17573,9.56435l-2.96783,0.28705c0,0 -3.01814,-21.31535 -3.82877,-27.51666c-0.40938,-3.1317 -0.70091,-7.09207 -0.70091,-7.09207" data-paper-data="{&quot;index&quot;:null}" fill="#5a5a07" stroke="none" stroke-width="0" stroke-linecap="round"/><path d="M361.54491,123.53254c0,0 0.45814,-4.70109 0.88964,-10.75247c0.43151,-6.05137 0.92827,-8.75 2.88571,-8.68462c1.95744,0.06536 2.18906,4.052 1.46852,9.89508c-0.6848,5.55324 -5.24387,9.542 -5.24387,9.542z" data-paper-data="{&quot;index&quot;:null}" fill="#5a5a07" stroke="none" stroke-width="0" stroke-linecap="butt"/><path d="M362.44182,108.69213c0,0 2.4852,-1.05473 2.37221,2.05507c-0.20253,5.57479 -3.45895,8.83714 -3.45895,8.83714" data-paper-data="{&quot;index&quot;:null}" fill="#5a5a07" stroke="none" stroke-width="0" stroke-linecap="round"/><path d="M357.69656,113.26004c0.55564,4.86075 -3.3924,9.30291 -8.73122,9.91319c-5.33883,0.61027 -9.7584,-2.87117 -10.31404,-7.73191c-0.55563,-4.86075 2.66705,-9.37304 8.00587,-9.98332c5.33883,-0.61027 10.48375,2.94129 11.03939,7.80203z" data-paper-data="{&quot;index&quot;:null}" fill="#5a5a07" stroke="none" stroke-width="0" stroke-linecap="butt"/><path d="M348.897,119.34746c-2.74086,0.3133 -5.21674,-1.6546 -5.53005,-4.39547c-0.3133,-2.74085 1.6546,-5.21674 4.39547,-5.53005c2.74085,-0.3133 5.21674,1.6546 5.53005,4.39547c0.3133,2.74085 -1.6546,5.21674 -4.39547,5.53005z" data-paper-data="{&quot;index&quot;:null}" fill="#5a5a07" stroke="none" stroke-width="0" stroke-linecap="butt"/><path d="M330.77369,115.94354c0.71768,5.05873 -2.88345,9.54221 -8.39285,10.02348c-5.79216,0.50598 -10.0732,-3.26676 -10.55831,-8.13505c-0.48511,-4.86829 3.05884,-9.20715 8.35046,-9.73444c5.29163,-0.52729 9.91348,3.00212 10.6007,7.84602z" data-paper-data="{&quot;index&quot;:null}" fill="#5a5a07" stroke="none" stroke-width="0" stroke-linecap="butt"/><path d="M321.63001,122.06919c-2.80457,0.27947 -5.30465,-1.76752 -5.58412,-4.57208c-0.27947,-2.80456 1.76752,-5.30465 4.57208,-5.58412c2.80456,-0.27947 5.30465,1.76752 5.58412,4.57208c0.27947,2.80456 -1.76752,5.30465 -4.57208,5.58412z" data-paper-data="{&quot;index&quot;:null}" fill="#5a5a07" stroke="none" stroke-width="0" stroke-linecap="butt"/><path d="M337.71229,115.3018c0,0 -0.83222,-9.20421 8.57567,-10.30836c10.46675,-1.23414 11.42391,7.73025 11.42391,7.73025z" data-paper-data="{&quot;index&quot;:null}" fill="#5a5a07" stroke="none" stroke-width="0" stroke-linecap="butt"/><path d="M310.52139,118.10943c0,0 -1.09069,-9.25629 8.54264,-10.55134c11.35339,-1.48809 12.04558,7.94798 12.04558,7.94798z" data-paper-data="{&quot;index&quot;:null}" fill="#5a5a07" stroke="none" stroke-width="0" stroke-linecap="butt"/><path d="M353.68563,104.14933c0,0 2.69174,0.55643 4.04912,0.53924c1.64458,-0.02083 5.2147,-0.45093 5.2147,-0.45093l0.09635,1.22805c0,0 -3.05472,0.53937 -6.71978,0.50998c-4.27734,-0.03431 -5.44451,-1.14365 -11.03156,-0.8013c-4.17761,0.25598 -7.92676,1.31359 -7.92676,1.31359l-0.11663,-4.14634c0,0 2.54415,-0.70228 7.73652,-0.70431c4.68572,-0.00185 8.21911,1.47407 8.21911,1.47407z" data-paper-data="{&quot;index&quot;:null}" fill="#5a5a07" stroke="none" stroke-width="0" stroke-linecap="butt"/><path d="M306.52683,118.35109c1.61715,5.84723 2.99398,10.36548 2.99398,10.36548c0,0 -5.25654,-3.01067 -7.02372,-8.31958c-1.8594,-5.586 -2.41904,-9.53994 -0.51299,-9.9903c1.90606,-0.45036 2.92558,2.09716 4.54274,7.9444z" data-paper-data="{&quot;index&quot;:null}" fill="#5a5a07" stroke="none" stroke-width="0" stroke-linecap="butt"/><path d="M308.92778,124.80855c0,0 -3.83616,-2.55559 -5.13481,-7.98079c-0.72444,-3.02636 1.92003,-2.48278 1.92003,-2.48278" data-paper-data="{&quot;index&quot;:null}" fill="#5a5a07" stroke="none" stroke-width="0" stroke-linecap="round"/><path d="M289.65734,308.04297l31.61309,-124.57209l36.72212,2.81071l-1.83522,121.76137z" data-paper-data="{&quot;index&quot;:null}" fill="#000000" stroke="#ffffff" stroke-width="2" stroke-linecap="butt"/><path d="M343.2378,197.86701c-35.30228,3.51777 -66.59731,-20.49396 -69.89938,-53.6317c-3.30207,-33.13773 22.63924,-62.85289 57.94153,-66.37065c35.30228,-3.51777 66.59731,20.49396 69.89938,53.6317c3.30207,33.13773 -22.63924,62.85289 -57.94153,66.37065z" data-paper-data="{&quot;index&quot;:null}" fill="#000000" stroke="#ffffff" stroke-width="2" stroke-linecap="butt"/><path d="M387.70544,132.93559c0.06075,0.60972 -12.73301,-10.54302 -24.37266,-9.53558c-11.75495,1.01742 -22.35722,14.19207 -22.35722,14.19207c-1.28586,-12.9041 8.1326,-24.40733 21.03669,-25.69318c12.9041,-1.28586 24.40733,8.1326 25.69318,21.03669z" data-paper-data="{&quot;index&quot;:null}" fill="#ffffff" stroke="none" stroke-width="0" stroke-linecap="butt"/><path d="M333.71437,138.31564c0,0 -12.21102,-9.73945 -23.59202,-8.44967c-11.93908,1.35302 -23.07624,13.72451 -23.13786,13.10615c-1.28586,-12.9041 8.1326,-24.40733 21.03669,-25.69318c12.9041,-1.28586 24.40733,8.1326 25.69318,21.03669z" data-paper-data="{&quot;index&quot;:null}" fill="#ffffff" stroke="none" stroke-width="0" stroke-linecap="butt"/><path d="M354.01117,153.48416c0,0 0.5356,13.06532 -5.28509,16.52242c-5.82069,3.4571 -9.81689,-7.55286 -9.81689,-7.55286c0,0 -4.61605,9.80239 -9.29454,8.39087c-4.67849,-1.41153 -6.64732,-13.20062 -6.64732,-13.20062" data-paper-data="{&quot;index&quot;:null}" fill="none" stroke="#ffffff" stroke-width="2" stroke-linecap="round"/></g></g></svg>