<svg version="1.1" xmlns="http://www.w3.org/2000/svg" xmlns:xlink="http://www.w3.org/1999/xlink" width="139.49112" height="238.0106" viewBox="0,0,139.49112,238.0106"><defs><linearGradient x1="329.38616" y1="92.56279" x2="329.38616" y2="147.36958" gradientUnits="userSpaceOnUse" id="color-1"><stop offset="0" stop-color="#000000"/><stop offset="1" stop-color="#d4d45d"/></linearGradient></defs><g transform="translate(-259.3826,-58.4655)"><g data-paper-data="{&quot;isPaintingLayer&quot;:true}" stroke-miterlimit="10" stroke-dasharray="" stroke-dashoffset="0" style="mix-blend-mode: normal"><path d="M286.60659,295.47609l15.14285,-131.8421l37.78325,-0.15789l13.57389,132z" fill="#e3e364" fill-rule="nonzero" stroke="#000000" stroke-width="2" stroke-linecap="butt" stroke-linejoin="miter"/><path d="M299.55681,192.08872l3.12142,-26.32765l35.83075,-0.14203l2.76735,26.1059c0,0 -7.51543,4.19603 -21.55904,4.50964c-12.48458,0.27879 -20.16049,-4.14586 -20.16049,-4.14586z" fill="#c0c054" fill-rule="nonzero" stroke="#000000" stroke-width="0" stroke-linecap="butt" stroke-linejoin="miter"/><path d="M265.65628,112.54739c3.77134,-33.08761 35.40351,-56.65344 70.6524,-52.63575c35.24889,4.01769 60.7665,34.09749 56.99515,67.18509c-3.77134,33.08761 -35.40351,56.65344 -70.6524,52.63575c-35.24889,-4.01769 -60.7665,-34.09749 -56.99515,-67.18509z" fill="#e3e364" fill-rule="nonzero" stroke="#000000" stroke-width="2" stroke-linecap="butt" stroke-linejoin="miter"/><path d="M266.36859,112.68277c0.08244,-0.72331 -1.15955,56.14929 56.5052,63.74342c55.09626,7.25588 69.66802,-50.38758 69.55264,-49.37528c-3.71505,32.59375 -34.94572,55.79979 -69.75562,51.83214c-34.8099,-3.96765 -60.01727,-33.60653 -56.30222,-66.20028z" fill="#c0c054" fill-rule="nonzero" stroke="#000000" stroke-width="0" stroke-linecap="butt" stroke-linejoin="miter"/><path d="M279.07071,114.50862c1.46859,-12.88457 13.10414,-22.13906 25.98872,-20.67047c12.88457,1.46859 22.13906,13.10414 20.67047,25.98871c-1.46859,12.88457 -13.10414,22.13907 -25.98872,20.67048c-12.88457,-1.46859 -22.13906,-13.10414 -20.67047,-25.98872z" fill="#ffffff" fill-rule="nonzero" stroke="#000000" stroke-width="2" stroke-linecap="butt" stroke-linejoin="miter"/><path d="M286.12184,115.0349c1.03373,-9.06936 9.22389,-15.58351 18.29324,-14.54979c9.06936,1.03373 15.58351,9.2239 14.54978,18.29325c-1.03373,9.06936 -9.2239,15.58351 -18.29325,14.54978c-9.06936,-1.03373 -15.5835,-9.22389 -14.54977,-18.29324z" fill="#000000" fill-rule="nonzero" stroke="none" stroke-width="0" stroke-linecap="butt" stroke-linejoin="miter"/><path d="M332.47317,164.63252h-25.10959" fill="none" fill-rule="nonzero" stroke="#000000" stroke-width="2" stroke-linecap="round" stroke-linejoin="miter"/><path d="M310.34363,149.40466l30.97188,3.53019c6.055,0.69015 10.52043,4.83544 10.0122,9.29437l-0.45156,3.96173c-0.50823,4.45892 -5.79197,7.493 -11.84697,6.80285l-30.97188,-3.53019c-6.05498,-0.69015 -10.52044,-4.83544 -10.01221,-9.29437l0.45156,-3.96173c0.50823,-4.45892 5.792,-7.493 11.84698,-6.80285z" fill="#000000" fill-rule="evenodd" stroke="#000000" stroke-width="0" stroke-linecap="round" stroke-linejoin="round"/><path d="M353.65056,146.64194c-12.88457,-1.46859 -22.13906,-13.10414 -20.67047,-25.98872c1.46859,-12.88457 13.10414,-22.13906 25.98872,-20.67047c12.88457,1.46859 22.13906,13.10414 20.67047,25.98872c-1.46859,12.88457 -13.10414,22.13906 -25.98872,20.67047z" data-paper-data="{&quot;index&quot;:null}" fill="#ffffff" fill-rule="nonzero" stroke="#000000" stroke-width="2" stroke-linecap="butt" stroke-linejoin="miter"/><path d="M354.35732,139.44727c-9.06935,-1.03373 -15.5835,-9.2239 -14.54977,-18.29325c1.03373,-9.06936 9.2239,-15.58351 18.29324,-14.54978c9.06935,1.03373 15.5835,9.2239 14.54977,18.29325c-1.03373,9.06936 -9.2239,15.58351 -18.29324,14.54978z" data-paper-data="{&quot;index&quot;:null}" fill="#000000" fill-rule="nonzero" stroke="none" stroke-width="0" stroke-linecap="butt" stroke-linejoin="miter"/><path d="M279.07071,114.50862c1.46859,-12.88457 13.10414,-22.13906 25.98872,-20.67047c12.88457,1.46859 22.13906,13.10414 20.67047,25.98871c0,0 -46.79867,-4.09461 -46.6592,-5.31824z" fill="#ffc533" fill-rule="nonzero" stroke="#000000" stroke-width="2" stroke-linecap="butt" stroke-linejoin="miter"/><path d="M323.14033,123.97272l-59.36562,-6.76652c0,0 -3.82563,-1.28694 -3.3514,-5.91761c0.43345,-4.23255 4.59712,-5.01163 4.59712,-5.01163l59.36562,6.76652z" fill="#a3a347" fill-rule="nonzero" stroke="#000000" stroke-width="2" stroke-linecap="butt" stroke-linejoin="miter"/><path d="M332.98008,120.65324c1.46859,-12.88457 13.10414,-22.13906 25.98872,-20.67047c12.88457,1.46859 22.13906,13.10414 20.67047,25.98872c-0.13746,1.20599 -46.6592,-5.31824 -46.6592,-5.31824z" data-paper-data="{&quot;index&quot;:null}" fill="#ffc533" fill-rule="nonzero" stroke="#000000" stroke-width="2" stroke-linecap="butt" stroke-linejoin="miter"/><path d="M335.10694,114.26546l59.36562,6.76652c0,0 3.88155,1.69608 3.3514,5.9176c-0.58001,4.61861 -4.59712,5.01163 -4.59712,5.01163l-59.36562,-6.76652z" data-paper-data="{&quot;index&quot;:null}" fill="#a3a347" fill-rule="nonzero" stroke="#000000" stroke-width="2" stroke-linecap="butt" stroke-linejoin="miter"/><path d="M279.77647,86.04324l105.58086,12.03416c6.39662,0.72909 10.95926,6.46566 10.23017,12.86227l-3.72937,32.71931c-0.72909,6.39661 -6.46566,10.95926 -12.86226,10.23017l-105.58085,-12.03416c-6.39661,-0.72909 -10.95928,-6.46566 -10.23019,-12.86226l3.72937,-32.71931c0.72909,-6.3966 6.46567,-10.95927 12.86228,-10.23018z" fill="#a3a347" fill-rule="evenodd" stroke="#000000" stroke-width="2" stroke-linecap="round" stroke-linejoin="round"/><path d="M289.69443,92.99339l85.09765,9.69948c5.15564,0.58764 8.83311,5.21129 8.24547,10.36692l-3.00585,26.3716c-0.58764,5.15563 -5.2113,8.83311 -10.36692,8.24547l-85.09765,-9.69948c-5.15563,-0.58764 -8.83312,-5.21129 -8.24548,-10.36692l3.00585,-26.3716c0.58764,-5.15563 5.2113,-8.83311 10.36693,-8.24547z" fill="#000000" fill-rule="evenodd" stroke="#000000" stroke-width="0" stroke-linecap="round" stroke-linejoin="round"/><path d="M289.401,92.62446l85.09765,9.69948c5.15564,0.58764 8.83311,5.21129 8.24547,10.36692l-3.00585,26.3716c-0.58764,5.15563 -5.21129,8.83311 -10.36692,8.24547l-85.09765,-9.69948c-5.15563,-0.58764 -8.83312,-5.21129 -8.24548,-10.36692l3.00585,-26.3716c0.58764,-5.15563 5.2113,-8.8331 10.36693,-8.24546z" fill="url(#color-1)" fill-rule="evenodd" stroke="#000000" stroke-width="2" stroke-linecap="round" stroke-linejoin="round"/></g></g></svg>