<svg version="1.1" xmlns="http://www.w3.org/2000/svg" xmlns:xlink="http://www.w3.org/1999/xlink" width="178.51007" height="313.72524" viewBox="0,0,178.51007,313.72524"><g transform="translate(-258.8052,2.77654)"><g data-paper-data="{&quot;isPaintingLayer&quot;:true}" fill-rule="nonzero" stroke-linejoin="miter" stroke-miterlimit="10" stroke-dasharray="" stroke-dashoffset="0" style="mix-blend-mode: normal"><path d="M287.81615,309.9487l15.14285,-131.8421l37.78325,-0.15789l13.57389,132z" fill="#959541" stroke="#000000" stroke-width="2" stroke-linecap="butt"/><path d="M300.76638,206.56133l3.12142,-26.32765l35.83075,-0.14203l2.76735,26.1059c0,0 -7.51543,4.19603 -21.55904,4.50964c-12.48458,0.27879 -20.16049,-4.14586 -20.16049,-4.14586z" fill="#7d7d37" stroke="#000000" stroke-width="0" stroke-linecap="butt"/><path d="M259.8052,134.89024c0.91384,-33.28931 30.40374,-59.48641 65.8675,-58.51287c35.46376,0.97354 63.47201,28.74907 62.55816,62.03837c-0.91384,33.28931 -30.40374,59.48641 -65.8675,58.51288c-35.46376,-0.97354 -63.47201,-28.74908 -62.55816,-62.03838z" fill="#959541" stroke="#000000" stroke-width="2" stroke-linecap="butt"/><path d="M260.52651,134.9639c0.01998,-0.72771 3.67019,56.04121 61.77425,58.65155c55.51599,2.49408 65.07997,-56.18842 65.05201,-55.16994c-0.90021,32.79244 -30.021,58.59658 -65.0431,57.63516c-35.0221,-0.96141 -62.68337,-28.32433 -61.78316,-61.11677z" fill="#7d7d37" stroke="#000000" stroke-width="0" stroke-linecap="butt"/><path d="M273.33855,135.69138c0.35586,-12.96312 11.15303,-23.18333 24.11614,-22.82747c12.96312,0.35586 23.18333,11.15303 22.82747,24.11614c-0.35586,12.96312 -11.15303,23.18333 -24.11614,22.82747c-12.96312,-0.35586 -23.18333,-11.15303 -22.82747,-24.11614z" fill="#ffffff" stroke="#000000" stroke-width="2" stroke-linecap="butt"/><path d="M278.56167,141.80366c0.25048,-9.12464 7.85053,-16.31856 16.97516,-16.06807c9.12464,0.25048 16.31856,7.85053 16.06807,16.97516c-0.25048,9.12464 -7.85054,16.31856 -16.97516,16.06807c-9.12464,-0.25048 -16.31855,-7.85053 -16.06806,-16.97516z" fill="#000000" stroke="none" stroke-width="0" stroke-linecap="butt"/><path d="M336.02061,172.53946l-25.07323,1.35093" fill="none" stroke="#000000" stroke-width="2" stroke-linecap="round"/><path d="M350.404,161.29645c-12.96312,-0.35586 -23.18333,-11.15303 -22.82747,-24.11614c0.35586,-12.96312 11.15303,-23.18333 24.11614,-22.82747c12.96312,0.35586 23.18333,11.15303 22.82747,24.11614c-0.35586,12.96312 -11.15303,23.18333 -24.11614,22.82747z" data-paper-data="{&quot;index&quot;:null}" fill="#ffffff" stroke="#000000" stroke-width="2" stroke-linecap="butt"/><path d="M355.87796,154.69205c-9.12463,-0.25048 -16.31855,-7.85053 -16.06806,-16.97516c0.25048,-9.12464 7.85054,-16.31856 16.97516,-16.06807c9.12463,0.25048 16.31855,7.85053 16.06806,16.97516c-0.25048,9.12464 -7.85054,16.31856 -16.97516,16.06807z" data-paper-data="{&quot;index&quot;:null}" fill="#000000" stroke="none" stroke-width="0" stroke-linecap="butt"/><path d="M277.92673,108.4186c0,0 6.84828,-4.98317 11.96739,-6.03742c5.11913,-1.05425 12.31029,1.03757 12.31029,1.03757c0,0 -8.03343,-0.28084 -11.98676,0.53334c-4.13139,0.85083 -12.29091,4.46651 -12.29091,4.46651z" fill="#000000" stroke="none" stroke-width="0" stroke-linecap="butt"/><path d="M350.8042,104.19472c-3.90271,-1.02983 -11.93946,-1.19015 -11.93946,-1.19015c0,0 7.2951,-1.69416 12.34868,-0.36065c5.05356,1.33351 11.61815,6.68489 11.61815,6.68489c0,0 -7.94889,-4.05788 -12.02736,-5.13409z" data-paper-data="{&quot;index&quot;:null}" fill="#000000" stroke="none" stroke-width="0" stroke-linecap="butt"/><path d="M334.7953,86.1155c1.69868,-5.10169 17.04658,-34.41968 17.04658,-34.41968c0,0 -5.29075,32.66667 -6.98942,37.76835" fill="#804400" stroke="#000000" stroke-width="2" stroke-linecap="butt"/><g stroke="#000000"><path d="M431.51704,38.83521l-44.32828,97.64333c0,0 -24.11443,-4.60183 -51.21816,-22.47947c-26.36809,-17.39244 -37.69017,-31.61689 -37.69017,-31.61689l67.19044,-83.73284c0,0 16.0167,0.7554 37.73797,14.52599c21.08044,13.36433 28.30821,25.65988 28.30821,25.65988z" fill="#333333" stroke-width="2" stroke-linecap="butt"/><path d="M431.51704,38.83521l-44.32828,97.64333c0,0 -24.11443,-4.60183 -51.21816,-22.47947c-26.36809,-17.39244 -37.69017,-31.61689 -37.69017,-31.61689l67.19044,-83.73284c0,0 19.92277,16.83699 30.81767,23.46599c11.11607,6.76357 35.22853,16.71988 35.22853,16.71988z" fill="#7d7d37" stroke-width="2" stroke-linecap="butt"/><path d="M386.77833,135.57727c0,0 10.72609,25.44138 -21.9988,22.2083c-37.49263,-3.7041 -66.87256,-75.41199 -66.87256,-75.41199" fill="none" stroke-width="2" stroke-linecap="round"/><path d="M430.18166,39.34017l-43.41758,96.25086c0,0 -26.10315,-6.46522 -51.70427,-23.35176c-24.90626,-16.42822 -35.45125,-30.00749 -35.45125,-30.00749l8.83424,-11.00924c0,0 10.80724,34.46358 48.11536,36.90002c34.75043,2.2694 73.6235,-68.7824 73.6235,-68.7824z" fill="#6c6c30" stroke-width="0" stroke-linecap="butt"/></g><g stroke="none" stroke-width="0" stroke-linecap="butt"><path d="M318.78173,84.18141l70.62321,-57.81154l-1.94267,90.93322z" fill="#ffff70"/><path d="M387.94779,91.87359l-21.07057,-47.14551l7.31669,-5.6685l14.12758,38.59242z" fill="#ffffff"/><path d="M369.74215,108.40665l-20.27224,-49.10554l11.1577,-9.11344l22.24052,64.70957z" fill="#ffffff"/><path d="M378.00894,66.11524c-3.66709,7.60401 -11.46119,13.05555 -13.7608,11.76157c-1.49265,-0.83991 -2.6406,-9.98157 1.02649,-17.58558c3.66708,-7.604 5.95337,-15.05095 13.05992,-11.62377c7.10655,3.42718 3.34147,9.84376 -0.32562,17.44778z" fill="#131308"/><path d="M366.49324,89.66514c-1.62791,3.37561 -5.9145,4.68127 -9.57439,2.91626c-3.65988,-1.765 -5.30711,-5.93229 -3.6792,-9.3079c1.62791,-3.37561 5.91451,-4.68128 9.57439,-2.91627c3.65988,1.765 5.30711,5.93229 3.67919,9.30791z" fill="#131308"/></g></g></g></svg>