<svg version="1.1" xmlns="http://www.w3.org/2000/svg" xmlns:xlink="http://www.w3.org/1999/xlink" width="620.49069" height="247.18971" viewBox="0,0,620.49069,247.18971"><defs><linearGradient x1="113.04881" y1="110.13995" x2="97.63655" y2="135.97999" gradientUnits="userSpaceOnUse" id="color-1"><stop offset="0" stop-color="#c4c456"/><stop offset="1" stop-color="#e3e364"/></linearGradient></defs><g transform="translate(-15.20195,-93.94154)"><g data-paper-data="{&quot;isPaintingLayer&quot;:true}" stroke-miterlimit="10" stroke-dasharray="" stroke-dashoffset="0" style="mix-blend-mode: normal"><path d="M42.20849,332.79454c0,0 -1.99783,-18.21836 5.47626,-38.92595c4.48965,-12.43895 18.97165,-27.78158 20.90072,-34.98307c3.3927,-12.66537 2.23134,-37.04548 2.23134,-37.04548l4.91035,1.31535c0,0 1.12863,26.00226 -1.73376,36.68791c-2.18727,8.16533 -16.36871,21.25293 -21.68207,35.58328c-7.02143,18.93707 -5.19249,38.68331 -5.19249,38.68331z" fill="#000000" fill-rule="nonzero" stroke="#000000" stroke-width="2" stroke-linecap="butt" stroke-linejoin="miter"/><path d="M117.16543,333.35146h-9.88454v-110.42442h9.88454z" fill="#84843a" fill-rule="nonzero" stroke="#000000" stroke-width="2" stroke-linecap="butt" stroke-linejoin="miter"/><path d="M36.67704,332.78665h-9.88453v-110.42442h9.88453z" fill="#84843a" fill-rule="nonzero" stroke="#000000" stroke-width="2" stroke-linecap="butt" stroke-linejoin="miter"/><path d="M16.20195,231.82312v-16.38009h110.42442v16.38009z" fill="#969642" fill-rule="nonzero" stroke="#000000" stroke-width="2" stroke-linecap="butt" stroke-linejoin="miter"/><path d="M65.39868,212.61761v-27.74731h12.0309v27.74731z" fill="#62622b" fill-rule="nonzero" stroke="#000000" stroke-width="2" stroke-linecap="butt" stroke-linejoin="miter"/><path d="M41.3369,219.86158l4.86119,-9.65861h51.91061l5.0348,9.65861z" fill="#707031" fill-rule="nonzero" stroke="#000000" stroke-width="2" stroke-linecap="butt" stroke-linejoin="miter"/><path d="M48.79097,135.02029h45.24634c7.56196,0 13.64973,6.08779 13.64973,13.64973v38.68018c0,7.56194 -6.08776,13.64973 -13.64973,13.64973h-45.24634c-7.56194,0 -13.64973,-6.08779 -13.64973,-13.64973v-38.68018c0,-7.56194 6.08779,-13.64973 13.64973,-13.64973z" fill="#707031" fill-rule="evenodd" stroke="#000000" stroke-width="2" stroke-linecap="round" stroke-linejoin="round"/><path d="M53.01838,141.18477h36.79158c6.14893,0 11.09914,4.95021 11.09914,11.09914v31.45238c0,6.14891 -4.95021,11.09914 -11.09914,11.09914h-36.79158c-6.14891,0 -11.09914,-4.95021 -11.09914,-11.09914v-31.45238c0,-6.14891 4.95021,-11.09914 11.09914,-11.09914z" fill="#000000" fill-rule="evenodd" stroke="#000000" stroke-width="2" stroke-linecap="round" stroke-linejoin="round"/><path d="M55.28854,167.70604c0,-2.48083 2.01111,-4.49195 4.49195,-4.49195c2.48083,0 4.49195,2.01111 4.49195,4.49195c0,2.48083 -2.01112,4.49195 -4.49195,4.49195c-2.48083,0 -4.49195,-2.01112 -4.49195,-4.49195z" fill="#ecec68" fill-rule="nonzero" stroke="none" stroke-width="0" stroke-linecap="butt" stroke-linejoin="miter"/><path d="M59.93474,178.96989h22.95883l-11.12291,12.43298z" fill="#ecec68" fill-rule="nonzero" stroke="none" stroke-width="0" stroke-linecap="butt" stroke-linejoin="miter"/><path d="M78.92489,167.96279c0,-2.48083 2.01111,-4.49195 4.49195,-4.49195c2.48083,0 4.49195,2.01111 4.49195,4.49195c0,2.48083 -2.01112,4.49195 -4.49195,4.49195c-2.48083,0 -4.49195,-2.01112 -4.49195,-4.49195z" fill="#ecec68" fill-rule="nonzero" stroke="none" stroke-width="0" stroke-linecap="butt" stroke-linejoin="miter"/><path d="M93.09807,133.273l20.02394,-23.08939l-10.947,28.50333c0,0 -1.9337,-1.15336 -3.14765,-1.87742c-1.66613,-0.99376 -5.92929,-3.53652 -5.92929,-3.53652z" fill="url(#color-1)" fill-rule="nonzero" stroke="#89893c" stroke-width="1.5" stroke-linecap="butt" stroke-linejoin="miter"/><g fill-rule="nonzero" stroke="#89893c" stroke-width="1.4" stroke-linejoin="miter"><path d="M84.7597,130.3558l2.83795,-4.75808l23.49759,14.01513l-2.83796,4.75808z" fill="#c4c456" stroke-linecap="butt"/><g><path d="M76.9451,135.73243c0,0 0.14038,-3.14525 1.30957,-4.69144c1.95878,-2.59036 3.63034,-3.59076 3.63034,-3.59076l31.40332,18.7305c0,0 0.05801,2.63944 -1.39064,4.82738c-1.59827,2.41388 -3.54927,3.45481 -3.54927,3.45481z" fill="#c4c456" stroke-linecap="butt"/><path d="M81.66628,138.03801c0,0 0.79422,-2.99546 1.58202,-4.31627c0.73693,-1.23552 3.00237,-3.36985 3.00237,-3.36985" fill="none" stroke-linecap="round"/><path d="M108.98799,144.31051c0,0 -1.09248,3.09859 -1.85656,4.35042c-0.67569,1.10701 -2.4954,2.77962 -2.4954,2.77962" fill="none" stroke-linecap="round"/><path d="M89.67345,142.41689c0,0 0.53404,-2.27348 1.17226,-3.3693c0.72373,-1.24266 2.94597,-3.70168 2.94597,-3.70168" fill="none" stroke-linecap="round"/><path d="M101.50735,140.04716c0,0 -0.97223,2.96116 -1.68475,4.15576c-0.68342,1.14582 -2.5067,2.87156 -2.5067,2.87156" fill="none" stroke-linecap="round"/></g></g><path d="M141.81363,190.32636l-9.87679,-93.0726l53.37061,46.55027" fill="#d9d97d" fill-rule="nonzero" stroke="#000000" stroke-width="2" stroke-linecap="round" stroke-linejoin="miter"/><path d="M206.09184,143.80404l53.37061,-46.55027l-9.8768,93.0726" data-paper-data="{&quot;index&quot;:null}" fill="#d9d97d" fill-rule="nonzero" stroke="#000000" stroke-width="2" stroke-linecap="round" stroke-linejoin="miter"/><path d="M164.25101,233.06281l-29.03574,-1.70798l13.66388,-17.36451l-28.18175,-5.69329l21.91914,-10.24791" fill="#d9d97d" fill-rule="nonzero" stroke="#000000" stroke-width="2" stroke-linecap="round" stroke-linejoin="miter"/><path d="M163.68167,232.35114l-26.79314,-1.57607l13.35578,-17.41109l-26.46768,-5.43148l3.858,-2.01956l22.58245,7.47398l-10.66379,13.9261z" fill="#b6b14b" fill-rule="nonzero" stroke="none" stroke-width="0" stroke-linecap="round" stroke-linejoin="miter"/><path d="M249.93491,198.04912l21.91914,10.24791l-28.18175,5.69329l13.66388,17.36451l-29.03574,1.70798" data-paper-data="{&quot;index&quot;:null}" fill="#d9d97d" fill-rule="nonzero" stroke="#000000" stroke-width="2" stroke-linecap="round" stroke-linejoin="miter"/><path d="M253.0884,227.31305l-10.66379,-13.9261l22.58244,-7.47398l3.858,2.01956l-26.46768,5.43148l13.35578,17.41109l-26.79315,1.57607z" data-paper-data="{&quot;index&quot;:null}" fill="#b6b14b" fill-rule="nonzero" stroke="none" stroke-width="0" stroke-linecap="round" stroke-linejoin="miter"/><path d="M167.54046,337.93288l12.93188,-112.59215l32.26661,-0.13484l11.592,112.72699z" fill="#d9d97d" fill-rule="nonzero" stroke="#000000" stroke-width="2" stroke-linecap="butt" stroke-linejoin="miter"/><path d="M178.59988,249.64086l2.66567,-22.48361l30.59919,-0.12129l2.3633,22.29424c0,0 -6.41812,3.58338 -18.41126,3.8512c-10.66174,0.23808 -17.2169,-3.54053 -17.2169,-3.54053z" fill="#b6b14b" fill-rule="nonzero" stroke="#000000" stroke-width="0" stroke-linecap="butt" stroke-linejoin="miter"/><path d="M141.07779,192.32719c0,-28.43953 24.56073,-51.49431 54.85792,-51.49431c30.2972,0 54.85792,23.05479 54.85792,51.49431c0,28.43953 -24.56073,51.49432 -54.85792,51.49432c-30.29719,0 -54.85792,-23.0548 -54.85792,-51.49432z" fill="#d9d97d" fill-rule="nonzero" stroke="#000000" stroke-width="2" stroke-linecap="butt" stroke-linejoin="miter"/><path d="M195.87033,240.86323c19.43518,0.33919 33.57699,-8.75067 32.74524,-8.16078c-9.08414,6.44275 -20.40528,10.26505 -32.67986,10.26505c-12.15615,0 -23.37715,-3.74889 -32.41627,-10.07927c-0.343,-0.24021 12.9157,7.63582 32.35089,7.975z" fill="#b6b14b" fill-rule="nonzero" stroke="#000000" stroke-width="0" stroke-linecap="butt" stroke-linejoin="miter"/><path d="M152.71526,192.56255c0,-11.07458 8.97772,-20.0523 20.0523,-20.0523c11.07458,0 20.0523,8.97771 20.0523,20.0523c0,11.07458 -8.97771,20.0523 -20.0523,20.0523c-11.07458,0 -20.0523,-8.97772 -20.0523,-20.0523z" fill="#ffffff" fill-rule="nonzero" stroke="#000000" stroke-width="2" stroke-linecap="butt" stroke-linejoin="miter"/><path d="M160.03005,192.32719c0,-7.08783 5.74581,-12.83366 12.83365,-12.83366c7.08783,0 12.83366,5.74582 12.83366,12.83367c0,7.08783 -5.74582,12.83367 -12.83366,12.83367c-7.08783,0 -12.83365,-5.74582 -12.83365,-12.83367z" fill="none" fill-rule="nonzero" stroke="#000000" stroke-width="5" stroke-linecap="butt" stroke-linejoin="miter"/><path d="M216.1041,221.49653c0,0 -11.99497,9.63273 -20.02013,9.67444c-8.02515,0.0417 -21.0651,-9.46094 -21.0651,-9.46094" fill="none" fill-rule="nonzero" stroke="#000000" stroke-width="2" stroke-linecap="round" stroke-linejoin="miter"/><path d="M152.71526,192.2779c0,-11.07458 8.97772,-20.0523 20.0523,-20.0523c11.07458,0 20.0523,8.97771 20.0523,20.0523c0,0 -6.57864,-15.27799 -20.43019,-15.18357c-13.59952,0.0927 -19.67441,15.70284 -19.67441,15.18357z" fill="#c5c556" fill-rule="nonzero" stroke="#000000" stroke-width="2" stroke-linecap="butt" stroke-linejoin="miter"/><path d="M219.10386,212.61486c-11.07458,0 -20.0523,-8.97772 -20.0523,-20.0523c0,-11.07458 8.97771,-20.0523 20.0523,-20.0523c11.07458,0 20.0523,8.97771 20.0523,20.0523c0,11.07458 -8.97772,20.0523 -20.0523,20.0523z" data-paper-data="{&quot;index&quot;:null}" fill="#ffffff" fill-rule="nonzero" stroke="#000000" stroke-width="2" stroke-linecap="butt" stroke-linejoin="miter"/><path d="M231.84138,192.32719c0,7.08785 -5.74581,12.83367 -12.83365,12.83367c-7.08783,0 -12.83366,-5.74584 -12.83366,-12.83367c0,-7.08785 5.74583,-12.83367 12.83366,-12.83367c7.08783,0 12.83365,5.74583 12.83365,12.83366z" data-paper-data="{&quot;index&quot;:null}" fill="none" fill-rule="nonzero" stroke="#000000" stroke-width="5" stroke-linecap="butt" stroke-linejoin="miter"/><path d="M218.984,176.88123c-13.85154,-0.09442 -19.93244,15.68133 -19.93244,15.68133c0,-11.07458 8.97771,-20.0523 20.0523,-20.0523c11.07458,0 20.0523,8.97771 20.0523,20.0523c0,0.51926 -6.57264,-15.58863 -20.17216,-15.68133z" data-paper-data="{&quot;index&quot;:null}" fill="#c5c556" fill-rule="nonzero" stroke="#000000" stroke-width="2" stroke-linecap="butt" stroke-linejoin="miter"/><path d="M152.67151,192.30642l-3.07437,-2.22038" fill="none" fill-rule="nonzero" stroke="#000000" stroke-width="2" stroke-linecap="round" stroke-linejoin="miter"/><path d="M238.75394,192.13562l3.58677,-2.90357" fill="none" fill-rule="nonzero" stroke="#000000" stroke-width="2" stroke-linecap="round" stroke-linejoin="miter"/><path d="M163.50776,167.96036c0,0 5.72939,-4.41447 10.07473,-5.43442c4.34534,-1.01995 10.53325,0.59726 10.53325,0.59726c0,0 -6.86449,-0.05148 -10.22026,0.7362c-3.5069,0.82315 -10.38772,4.10097 -10.38772,4.10097z" fill="#000000" fill-rule="nonzero" stroke="none" stroke-width="0" stroke-linecap="butt" stroke-linejoin="miter"/><path d="M218.10736,163.85938c-3.35576,-0.78768 -10.22026,-0.7362 -10.22026,-0.7362c0,0 6.18791,-1.61721 10.53325,-0.59726c4.34534,1.01995 10.07473,5.43442 10.07473,5.43442c0,0 -6.88082,-3.27781 -10.38772,-4.10097z" data-paper-data="{&quot;index&quot;:null}" fill="#000000" fill-rule="nonzero" stroke="none" stroke-width="0" stroke-linecap="butt" stroke-linejoin="miter"/><path d="M290.96742,336.22669l8.89623,-73.59544l38.32124,-1.22712l8.67203,74.82257z" fill="#9b9d30" fill-rule="nonzero" stroke="#000000" stroke-width="2" stroke-linecap="butt" stroke-linejoin="miter"/><path d="M294.05506,287.97517l6.34574,-44.05223l36.39044,-1.83089l7.94829,46.3516l-25.41484,-9.9983z" fill="#747524" fill-rule="nonzero" stroke="#000000" stroke-width="2" stroke-linecap="butt" stroke-linejoin="miter"/><path d="M383.07764,187.06693c0,37.48127 -28.4091,67.86582 -63.45349,67.86582c-35.0444,0 -63.45349,-30.38457 -63.45349,-67.86582c0,-37.48126 28.4091,-67.86582 63.45349,-67.86582c35.0444,0 63.45349,30.38457 63.45349,67.86582z" fill="#747524" fill-rule="nonzero" stroke="#000000" stroke-width="2" stroke-linecap="butt" stroke-linejoin="miter"/><path d="M376.07922,191.39026c0,31.98865 -25.59458,57.92058 -57.16709,57.92058c-31.5725,0 -57.16709,-25.93192 -57.16709,-57.92058c0,-31.98865 25.59458,-57.92058 57.16709,-57.92058c31.5725,0 57.16709,25.93192 57.16709,57.92058z" fill="#000000" fill-rule="nonzero" stroke="none" stroke-width="0" stroke-linecap="butt" stroke-linejoin="miter"/><path d="M264.98923,192.80178c0,-27.98833 24.17108,-50.67735 53.98759,-50.67735c29.81652,0 53.98759,22.68903 53.98759,50.67735c0,27.98833 -24.17108,50.67735 -53.98759,50.67735c-29.81652,0 -53.98759,-22.68903 -53.98759,-50.67735z" fill="#ffff70" fill-rule="nonzero" stroke="#000000" stroke-width="2" stroke-linecap="butt" stroke-linejoin="miter"/><path d="M265.59692,192.84701c0,-0.61183 4.3759,46.9971 53.2509,47.85006c46.69801,0.81498 53.37958,-48.70635 53.37958,-47.85006c0,27.57058 -23.87005,49.92095 -53.31524,49.92095c-29.44519,0 -53.31524,-22.35037 -53.31524,-49.92095z" fill="#6c6d22" fill-rule="nonzero" stroke="#000000" stroke-width="0" stroke-linecap="butt" stroke-linejoin="miter"/><path d="M264.78521,205.36214c0,0 -7.34481,-68.06266 56.09961,-66.81527c65.15933,1.2811 51.26706,69.12649 51.26706,69.12649c0,0 -20.70379,10.66586 -52.97229,10.94973c-28.90691,0.25429 -54.39439,-13.26095 -54.39439,-13.26095z" fill-opacity="0.20144" fill="#000000" fill-rule="nonzero" stroke="none" stroke-width="0" stroke-linecap="butt" stroke-linejoin="miter"/><path d="M276.37742,193.16271c0,-10.89887 8.83529,-19.73416 19.73416,-19.73416c10.89887,0 19.73416,8.83529 19.73416,19.73416c0,10.89887 -8.83529,19.73416 -19.73416,19.73416c-10.89887,0 -19.73416,-8.83529 -19.73416,-19.73416z" fill="#ffffff" fill-rule="nonzero" stroke="#000000" stroke-width="2" stroke-linecap="butt" stroke-linejoin="miter"/><path d="M282.31548,192.93107c0,-7.67164 6.21908,-13.89072 13.89071,-13.89072c7.67164,0 13.89072,6.21909 13.89072,13.89072c0,7.67164 -6.21909,13.89072 -13.89072,13.89072c-7.67164,0 -13.89071,-6.21909 -13.89071,-13.89072z" fill="#000000" fill-rule="nonzero" stroke="none" stroke-width="0" stroke-linecap="butt" stroke-linejoin="miter"/><path d="M308.4125,226.26007c0,0 6.61601,-0.41852 10.21218,-0.41852c3.4304,0 10.89101,0.41852 10.89101,0.41852" fill="none" fill-rule="nonzero" stroke="#000000" stroke-width="2" stroke-linecap="round" stroke-linejoin="miter"/><path d="M341.71274,212.89688c-10.89887,0 -19.73416,-8.83529 -19.73416,-19.73416c0,-10.89887 8.83529,-19.73416 19.73416,-19.73416c10.89887,0 19.73416,8.83529 19.73416,19.73416c0,10.89887 -8.83529,19.73416 -19.73416,19.73416z" data-paper-data="{&quot;index&quot;:null}" fill="#ffffff" fill-rule="nonzero" stroke="#000000" stroke-width="2" stroke-linecap="butt" stroke-linejoin="miter"/><path d="M341.61813,206.82178c-7.67163,0 -13.89071,-6.21909 -13.89071,-13.89072c0,-7.67164 6.21909,-13.89072 13.89071,-13.89072c7.67163,0 13.89071,6.21909 13.89071,13.89072c0,7.67164 -6.21909,13.89072 -13.89071,13.89072z" data-paper-data="{&quot;index&quot;:null}" fill="#000000" fill-rule="nonzero" stroke="none" stroke-width="0" stroke-linecap="butt" stroke-linejoin="miter"/><path d="M276.37742,193.16271c0,-10.89887 8.83529,-19.73416 19.73416,-19.73416c10.89887,0 19.73416,8.83529 19.73416,19.73416c0,0 -39.46833,1.03505 -39.46833,0z" fill="#ffff70" fill-rule="nonzero" stroke="#000000" stroke-width="2" stroke-linecap="butt" stroke-linejoin="miter"/><path d="M321.97859,193.16271c0,-10.89887 8.83529,-19.73416 19.73416,-19.73416c10.89887,0 19.73416,8.83529 19.73416,19.73416c0,1.02013 -39.46833,0 -39.46833,0z" data-paper-data="{&quot;index&quot;:null}" fill="#ffff70" fill-rule="nonzero" stroke="#000000" stroke-width="2" stroke-linecap="butt" stroke-linejoin="miter"/><path d="M286.63735,166.89039c0,0 6.38598,-3.14421 10.7764,-3.2829c4.39044,-0.13868 10.04544,2.62517 10.04544,2.62517c0,0 -6.61229,-1.38498 -10.00288,-1.27787c-3.54329,0.11193 -10.81897,1.9356 -10.81897,1.9356z" fill="#000000" fill-rule="nonzero" stroke="none" stroke-width="0" stroke-linecap="butt" stroke-linejoin="miter"/><path d="M340.44783,164.96953c-3.39206,0.03903 -9.93856,1.70751 -9.93856,1.70751c0,0 5.53072,-3.00485 9.92305,-3.0554c4.39233,-0.05054 10.9078,2.8157 10.9078,2.8157c0,0 -7.34747,-1.50861 -10.89229,-1.46783z" data-paper-data="{&quot;index&quot;:null}" fill="#000000" fill-rule="nonzero" stroke="none" stroke-width="0" stroke-linecap="butt" stroke-linejoin="miter"/><g fill-rule="nonzero" stroke="#000000" stroke-width="2" stroke-linecap="butt" stroke-linejoin="miter"><path d="M265.67733,143.39795l7.11981,-39.96884c0,0 21.95085,-6.80061 32.39518,-7.99807c11.4573,-1.31361 33.59145,0.43259 33.59145,0.43259l16.12317,36.59343c0,0 -28.24434,7.24758 -43.26564,9.08941c-14.71563,1.80435 -45.96398,1.85148 -45.96398,1.85148z" fill="#ffffff"/><path d="M265.98283,143.31069l1.034,-5.81714c0,0 28.93903,0.03877 43.42585,-1.61988c14.10193,-1.61459 42.37149,-8.20344 42.37149,-8.20344l2.20675,4.78783c0,0 -29.60173,8.64082 -44.48476,10.28666c-14.60688,1.6153 -44.55334,0.56598 -44.55334,0.56598z" fill="#9b9d30"/><path d="M306.54913,115.7019c0,0 8.65557,-5.18307 13.93137,-7.50688c5.86241,-2.58219 19.66906,-7.29291 19.66906,-7.29291l2.24307,5.42104c0,0 -15.66172,5.30242 -21.20626,7.88092c-4.15962,1.93444 -9.11678,6.22096 -9.11678,6.22096z" fill="#9b9d30"/><path d="M316.61787,134.03715c0,0 -0.38855,-6.78919 -10.91765,-12.03953c-14.25907,-7.11028 -33.88455,-7.8459 -33.88455,-7.8459l1.3654,-5.85378c0,0 18.52102,-0.57881 34.98283,7.92433c12.4372,6.42427 15.08208,17.08192 15.08208,17.08192z" fill="#9b9d30"/></g><path d="M420.83711,218.06733c0,0 2.23749,70.76653 -26.53243,67.45166c-28.16828,-3.24554 -2.29202,-93.99242 -2.29202,-93.99242" data-paper-data="{&quot;index&quot;:null}" fill="#d9d960" fill-rule="nonzero" stroke="#000000" stroke-width="2" stroke-linecap="round" stroke-linejoin="miter"/><path d="M493.35747,190.99442c0,0 25.87626,90.74688 -2.29202,93.99242c-28.76993,3.31487 -26.53243,-67.45166 -26.53243,-67.45166" data-paper-data="{&quot;index&quot;:null}" fill="#d9d960" fill-rule="nonzero" stroke="#000000" stroke-width="2" stroke-linecap="round" stroke-linejoin="miter"/><path d="M413.06014,340.04489l13.3518,-116.24818l33.31435,-0.13922l11.96841,116.3874z" fill="#d9d960" fill-rule="nonzero" stroke="#000000" stroke-width="2" stroke-linecap="butt" stroke-linejoin="miter"/><path d="M424.47865,248.8859l2.75223,-23.21369l31.59279,-0.12523l2.44004,23.01817c0,0 -6.62653,3.69974 -19.0091,3.97625c-11.00794,0.24582 -17.77596,-3.6555 -17.77596,-3.6555z" fill="#b4b44f" fill-rule="nonzero" stroke="#000000" stroke-width="0" stroke-linecap="butt" stroke-linejoin="miter"/><path d="M386.87031,183.18969c0,-29.363 25.35826,-53.16641 56.63924,-53.16641c31.28098,0 56.63924,23.80342 56.63924,53.16641c0,29.363 -25.35826,53.16641 -56.63924,53.16641c-31.28098,0 -56.63924,-23.80342 -56.63924,-53.16641z" fill="#d9d960" fill-rule="nonzero" stroke="#000000" stroke-width="2" stroke-linecap="butt" stroke-linejoin="miter"/><path d="M387.50786,183.23718c0,-0.64189 4.59083,49.3054 55.86636,50.20026c48.99162,0.85501 56.00137,-51.0986 56.00137,-50.20026c0,28.92473 -25.04245,52.37286 -55.93386,52.37286c-30.89141,0 -55.93386,-23.44813 -55.93386,-52.37286z" fill="#b4b44f" fill-rule="nonzero" stroke="#000000" stroke-width="0" stroke-linecap="butt" stroke-linejoin="miter"/><path d="M398.81784,183.56838c0,-11.43418 9.26924,-20.70342 20.70342,-20.70342c11.43418,0 20.70342,9.26924 20.70342,20.70342c0,11.43418 -9.26924,20.70342 -20.70342,20.70342c-11.43418,0 -20.70342,-9.26924 -20.70342,-20.70342z" fill="#ffffff" fill-rule="nonzero" stroke="#000000" stroke-width="2" stroke-linecap="butt" stroke-linejoin="miter"/><path d="M401.32249,182.79317c0,-8.04844 6.52454,-14.57297 14.57296,-14.57297c8.04844,0 14.57297,6.52455 14.57297,14.57297c0,8.04844 -6.52455,14.57297 -14.57297,14.57297c-8.04844,0 -14.57296,-6.52455 -14.57296,-14.57297z" fill="#000000" fill-rule="nonzero" stroke="none" stroke-width="0" stroke-linecap="butt" stroke-linejoin="miter"/><path d="M431.89421,217.15693c0,0 4.34961,-3.75669 10.75607,-3.65285c7.77149,0.12595 11.38362,3.65285 11.38362,3.65285" data-paper-data="{&quot;index&quot;:null}" fill="none" fill-rule="nonzero" stroke="#000000" stroke-width="2" stroke-linecap="round" stroke-linejoin="miter"/><path d="M466.83002,201.07886c-11.43418,0 -20.17127,-6.07634 -20.17127,-17.51052c0,-11.43418 9.26924,-20.70342 20.70342,-20.70342c11.43418,0 20.70342,9.26924 20.70342,20.70342c0,11.43418 -9.8014,17.51052 -21.23558,17.51052z" data-paper-data="{&quot;index&quot;:null}" fill="#ffffff" fill-rule="nonzero" stroke="#000000" stroke-width="2" stroke-linecap="butt" stroke-linejoin="miter"/><path d="M465.13431,197.36615c-8.04843,0 -14.57296,-6.52455 -14.57296,-14.57297c0,-8.04844 6.52455,-14.57297 14.57296,-14.57297c8.04843,0 14.57296,6.52455 14.57296,14.57297c0,8.04844 -6.52455,14.57297 -14.57296,14.57297z" data-paper-data="{&quot;index&quot;:null}" fill="#000000" fill-rule="nonzero" stroke="none" stroke-width="0" stroke-linecap="butt" stroke-linejoin="miter"/><path d="M409.96077,153.76669c0,0 5.91543,-4.55782 10.40187,-5.61089c4.48644,-1.05307 10.87528,0.61665 10.87528,0.61665c0,0 -7.08739,-0.05315 -10.55212,0.76011c-3.62078,0.84988 -10.72503,4.23413 -10.72503,4.23413z" fill="#000000" fill-rule="nonzero" stroke="none" stroke-width="0" stroke-linecap="butt" stroke-linejoin="miter"/><path d="M466.33328,149.53257c-3.46473,-0.81326 -10.55212,-0.76011 -10.55212,-0.76011c0,0 6.38884,-1.66972 10.87528,-0.61665c4.48643,1.05307 10.40187,5.61089 10.40187,5.61089c0,0 -7.10425,-3.38425 -10.72503,-4.23413z" data-paper-data="{&quot;index&quot;:null}" fill="#000000" fill-rule="nonzero" stroke="none" stroke-width="0" stroke-linecap="butt" stroke-linejoin="miter"/><path d="M395.59844,181.01143l3.1742,2.29248" fill="none" fill-rule="nonzero" stroke="#000000" stroke-width="2" stroke-linecap="round" stroke-linejoin="miter"/><path d="M487.65029,183.12755l3.70324,-2.99786" fill="none" fill-rule="nonzero" stroke="#000000" stroke-width="2" stroke-linecap="round" stroke-linejoin="miter"/><g fill="#bebe3e" fill-rule="nonzero" stroke="#000000" stroke-width="2" stroke-linecap="butt" stroke-linejoin="miter"><path d="M410.60167,144.08747c-3.52407,-5.8278 1.62927,-8.26229 1.62927,-8.26229c0,0 -4.42262,-1.37692 -4.00613,-7.38157c0.53524,-7.71668 21.75996,2.34466 21.75996,2.34466l0.67071,6.62768c0,0 -16.81526,12.02714 -20.05381,6.67153z"/><path d="M439.63763,136.30627l-0.96241,-6.59164c0,0 18.13797,-14.92422 20.5351,-7.56981c1.8653,5.72275 -2.08926,8.1346 -2.08926,8.1346c0,0 5.59088,1.10714 3.59105,7.61737c-1.83779,5.98274 -21.0745,-1.59051 -21.0745,-1.59051z" data-paper-data="{&quot;index&quot;:null}"/><path d="M427.81401,134.19203c-0.46272,-3.74548 2.1985,-7.1569 5.94397,-7.61962c3.74548,-0.46272 7.1569,2.1985 7.61962,5.94397c0.46272,3.74548 -2.1985,7.1569 -5.94397,7.61962c-3.74548,0.46272 -7.1569,-2.1985 -7.61962,-5.94397z"/></g><path d="M539.36323,340.87947l12.86492,-118.68279l33.98625,-0.35883l12.96754,118.66005z" fill="#000000" fill-rule="nonzero" stroke="#b5b115" stroke-width="0.5" stroke-linecap="butt" stroke-linejoin="miter"/><path d="M571.73461,247.40053l5.96367,26.68788l-7.7255,10.55853l-7.85958,-10.45911l5.43626,-26.73833z" fill="#ffffff" fill-rule="nonzero" stroke="#b5b115" stroke-width="0.5" stroke-linecap="butt" stroke-linejoin="miter"/><path d="M567.5495,247.45519l-5.64514,-6.00801l7.52563,-7.62227l7.62226,7.52564l-5.31763,6.04998z" fill="#ffffff" fill-rule="nonzero" stroke="#b5b115" stroke-width="0.5" stroke-linecap="butt" stroke-linejoin="miter"/><path d="M510.00888,186.42547c-0.19109,-29.956 25.52439,-54.40517 57.43712,-54.60874c31.91273,-0.20357 57.93802,23.91555 58.12911,53.87154c0.19109,29.956 -25.52439,54.40517 -57.43712,54.60874c-31.91273,0.20357 -57.93802,-23.91555 -58.12911,-53.87154z" fill="#000000" fill-rule="nonzero" stroke="#b5b115" stroke-width="0.5" stroke-linecap="butt" stroke-linejoin="miter"/><path d="M522.20007,186.73404c-0.07441,-11.66511 9.32171,-21.18187 20.98681,-21.25628c11.66511,-0.07441 21.18187,9.32171 21.25628,20.98681c0.07441,11.66511 -9.32171,21.18187 -20.98681,21.25628c-11.66511,0.07441 -21.18187,-9.32171 -21.25628,-20.98681z" fill="#ffffff" fill-rule="nonzero" stroke="#b5b115" stroke-width="0.5" stroke-linecap="butt" stroke-linejoin="miter"/><path d="M528.55401,186.44556c-0.05238,-8.21098 6.56147,-14.90975 14.77243,-14.96212c8.21098,-0.05238 14.90975,6.56147 14.96212,14.77244c0.05238,8.21098 -6.56147,14.90975 -14.77244,14.96212c-8.21098,0.05238 -14.90974,-6.56147 -14.96211,-14.77244z" fill="#000000" fill-rule="nonzero" stroke="#b5b115" stroke-width="0.5" stroke-linecap="butt" stroke-linejoin="miter"/><path d="M592.26345,207.4095c-11.66511,0.07441 -21.18187,-9.32171 -21.25628,-20.98681c-0.07441,-11.66511 9.32171,-21.18187 20.98681,-21.25628c11.66511,-0.07441 21.18187,9.32171 21.25628,20.98681c0.07441,11.66511 -9.32171,21.18187 -20.98681,21.25628z" data-paper-data="{&quot;index&quot;:null}" fill="#ffffff" fill-rule="nonzero" stroke="#b5b115" stroke-width="0.5" stroke-linecap="butt" stroke-linejoin="miter"/><path d="M592.12072,200.90796c-8.21097,0.05238 -14.90974,-6.56147 -14.96211,-14.77244c-0.05238,-8.21098 6.56147,-14.90975 14.77243,-14.96212c8.21097,-0.05238 14.90974,6.56147 14.96211,14.77244c0.05238,8.21098 -6.56147,14.90975 -14.77243,14.96212z" data-paper-data="{&quot;index&quot;:null}" fill="#000000" fill-rule="nonzero" stroke="#b5b115" stroke-width="0.5" stroke-linecap="butt" stroke-linejoin="miter"/><path d="M522.20007,186.73404c-0.07441,-11.66511 9.32171,-21.18187 20.98681,-21.25628c11.66511,-0.07441 21.18187,9.32171 21.25628,20.98681c0,0 -42.23603,1.37728 -42.24309,0.26947z" fill="#000000" fill-rule="nonzero" stroke="#b5b115" stroke-width="0.5" stroke-linecap="butt" stroke-linejoin="miter"/><path d="M571.00718,186.4227c-0.07441,-11.66511 9.32171,-21.18187 20.98681,-21.25628c11.66511,-0.07441 21.18187,9.32171 21.25628,20.98681c0.00696,1.09185 -42.24309,0.26947 -42.24309,0.26947z" data-paper-data="{&quot;index&quot;:null}" fill="#000000" fill-rule="nonzero" stroke="#b5b115" stroke-width="0.5" stroke-linecap="butt" stroke-linejoin="miter"/><g fill="#000000" fill-rule="nonzero" stroke="#b5b115" stroke-width="0.5" stroke-linecap="butt" stroke-linejoin="miter"><path d="M635.44256,149.86254c0.05843,9.16004 -30.31557,16.77979 -67.84222,17.01918c-37.52665,0.23938 -67.99538,-6.99226 -68.05382,-16.15229c-0.05843,-9.16004 30.31557,-16.77979 67.84222,-17.01918c37.52665,-0.23938 67.99538,6.99226 68.05382,16.15229z"/><path d="M525.22575,150.26498l-0.27129,-42.52822c0,0 9.67734,-9.29785 43.37807,-10.14972c34.06405,-0.8611 41.15564,9.61048 41.15564,9.61048l0.27129,42.52822c0,0 -8.93775,4.86217 -41.33433,4.31415c-28.95177,-0.48974 -43.19938,-3.77491 -43.19938,-3.77491z"/></g></g></g></svg>