<svg version="1.1" xmlns="http://www.w3.org/2000/svg" xmlns:xlink="http://www.w3.org/1999/xlink" width="170.15019" height="295.23134" viewBox="0,0,170.15019,295.23134"><defs><linearGradient x1="264.10321" y1="67.46947" x2="283.04948" y2="113.13436" gradientUnits="userSpaceOnUse" id="color-1"><stop offset="0" stop-color="#ecec68"/><stop offset="1" stop-color="#292912"/></linearGradient></defs><g transform="translate(-233.36863,-34.62682)"><g data-paper-data="{&quot;isPaintingLayer&quot;:true}" fill-rule="nonzero" stroke-linejoin="miter" stroke-miterlimit="10" stroke-dasharray="" stroke-dashoffset="0" style="mix-blend-mode: normal"><path d="M360.34445,245.02938c-12.97038,-0.41428 -17.2641,-121.60267 -17.2641,-121.60267l12.54219,-2.52256c0,0 17.30662,124.5272 4.72192,124.12523z" data-paper-data="{&quot;index&quot;:null}" fill="#60602a" stroke="#000000" stroke-width="2" stroke-linecap="butt"/><path d="M368.96823,233.14721c-12.97038,-0.41428 -15.49241,-109.02072 -15.49241,-109.02072l12.54218,-2.52255c0,0 15.53493,111.94525 2.95023,111.54328z" data-paper-data="{&quot;index&quot;:null}" fill="#60602a" stroke="#000000" stroke-width="2" stroke-linecap="butt"/><path d="M287.76939,105.35227l12.75616,0.97469c0,0 11.61196,138.77429 -1.21118,140.76675c-12.44182,1.93321 -11.54498,-141.74142 -11.54498,-141.74142z" fill="#60602a" stroke="#000000" stroke-width="2" stroke-linecap="butt"/><path d="M290.11188,238.41041c-12.94569,-0.90096 -10.97283,-105.22544 -10.97283,-105.22544l12.62804,-2.04988c0,0 10.90551,108.14951 -1.65522,107.27533z" data-paper-data="{&quot;index&quot;:null}" fill="#60602a" stroke="#000000" stroke-width="2" stroke-linecap="butt"/><path d="M289.5041,328.85816l15.14285,-131.8421l37.78325,-0.15789l13.57389,132z" fill="#bebe54" stroke="#000000" stroke-width="2" stroke-linecap="butt"/><path d="M273.79745,228.63822c-11.95809,-1.28878 -5.1674,-97.63632 -5.1674,-97.63632l12.69662,-1.57022c0,0 4.98942,100.55572 -7.52922,99.20654z" data-paper-data="{&quot;index&quot;:null}" fill="#60602a" stroke="#000000" stroke-width="2" stroke-linecap="butt"/><path d="M381.80942,219.39611c-12.96965,0.43704 -23.7904,-77.84401 -23.7904,-77.84401l12.3498,-3.33948c0,0 24.02458,80.75945 11.4406,81.18348z" data-paper-data="{&quot;index&quot;:null}" fill="#60602a" stroke="#000000" stroke-width="2" stroke-linecap="butt"/><path d="M302.45432,225.47079l3.12142,-26.32765l35.83075,-0.14203l2.76735,26.1059c0,0 -7.51543,4.19603 -21.55904,4.50964c-12.48458,0.27879 -20.16049,-4.14586 -20.16049,-4.14586z" fill="#a0a047" stroke="#000000" stroke-width="0" stroke-linecap="butt"/><path d="M384.37327,196.73648c-7.07019,-1.55608 1.98254,-14.7477 -2.55856,-26.93246c-3.89543,-10.45227 2.22943,-15.48751 6.12542,-5.03544c3.64051,9.76672 4.41509,33.72464 -3.56686,31.9679z" data-paper-data="{&quot;index&quot;:null}" fill="#60602a" stroke="#000000" stroke-width="2" stroke-linecap="butt"/><path d="M259.52545,164.02328c-2.03376,-33.23969 25.02379,-61.94215 60.43469,-64.10875c35.4109,-2.1666 65.7658,23.02312 67.79955,56.26281c2.03376,33.23969 -25.02379,61.94215 -60.43469,64.10875c-35.4109,2.1666 -65.7658,-23.02312 -67.79955,-56.26281z" fill="#bebe54" stroke="#000000" stroke-width="2" stroke-linecap="butt"/><path d="M273.07661,163.62442c-0.79196,-12.94379 9.05906,-24.07883 22.00285,-24.87079c12.94379,-0.79196 24.07883,9.05906 24.87079,22.00285c0.79196,12.94379 -9.05906,24.07884 -22.00285,24.8708c-12.94379,0.79196 -24.07883,-9.05906 -24.87079,-22.00285z" fill="#ffffff" stroke="#000000" stroke-width="2" stroke-linecap="butt"/><path d="M277.54877,170.25558c-0.55745,-9.11104 6.37659,-16.9489 15.48762,-17.50635c9.11104,-0.55745 16.9489,6.3766 17.50635,15.48764c0.55745,9.11104 -6.37659,16.9489 -15.48763,17.50635c-9.11104,0.55745 -16.94889,-6.37661 -17.50634,-15.48764z" fill="#000000" stroke="none" stroke-width="0" stroke-linecap="butt"/><path d="M352.35408,182.29843c-12.94379,0.79196 -24.07884,-9.05906 -24.8708,-22.00285c-0.79196,-12.94379 9.05906,-24.07883 22.00285,-24.87079c12.94379,-0.79196 24.07883,9.05906 24.87079,22.00285c0.79196,12.94379 -9.05906,24.07883 -22.00285,24.87079z" data-paper-data="{&quot;index&quot;:null}" fill="#ffffff" stroke="#000000" stroke-width="2" stroke-linecap="butt"/><path d="M350.67258,182.67848c-9.11103,0.55745 -16.94889,-6.3766 -17.50634,-15.48764c-0.55745,-9.11104 6.3766,-16.9489 15.48762,-17.50635c9.11103,-0.55745 16.94889,6.3766 17.50634,15.48763c0.55745,9.11104 -6.3766,16.94891 -15.48763,17.50635z" data-paper-data="{&quot;index&quot;:null}" fill="#000000" stroke="none" stroke-width="0" stroke-linecap="butt"/><path d="M272.99343,163.62951c-0.79196,-12.94379 9.05906,-24.07884 22.00285,-24.8708c12.94379,-0.79196 24.07883,9.05906 24.87079,22.00285c0,0 -46.79844,4.0972 -46.87366,2.86794z" fill="#ecec68" stroke="#000000" stroke-width="2" stroke-linecap="butt"/><path d="M327.23377,160.31084c-0.79196,-12.94379 9.05906,-24.07883 22.00285,-24.87079c12.94379,-0.79196 24.07883,9.05906 24.87079,22.00285c0.07413,1.21153 -46.87366,2.86794 -46.87366,2.86794z" data-paper-data="{&quot;index&quot;:null}" fill="#ecec68" stroke="#000000" stroke-width="2" stroke-linecap="butt"/><path d="M283.93135,134.09793c0,0 6.38074,-5.56929 11.38657,-7.07213c5.00584,-1.50284 12.35382,-0.05518 12.35382,-0.05518c0,0 -8.02681,0.43073 -11.89264,1.59133c-4.03995,1.21288 -11.84775,5.53598 -11.84775,5.53598z" fill="#000000" stroke="none" stroke-width="0" stroke-linecap="butt"/><path d="M260.25044,164.03284c-0.04446,-0.72664 8.61195,55.49704 66.71919,52.95858c55.51903,-2.42539 59.85582,-61.72375 59.91804,-60.7068c2.0034,32.74356 -24.72125,61.02196 -59.69115,63.16157c-34.9699,2.13961 -64.94269,-22.66979 -66.94609,-55.41335z" fill="#a0a047" stroke="#000000" stroke-width="0" stroke-linecap="butt"/><path d="M347.45324,125.40031c-3.97849,-0.68066 -11.99793,-0.1296 -11.99793,-0.1296c0,0 7.11669,-2.33267 12.2684,-1.45131c5.1517,0.88136 12.16381,5.63122 12.16381,5.63122c0,0 -8.27661,-3.339 -12.43428,-4.05031z" data-paper-data="{&quot;index&quot;:null}" fill="#000000" stroke="none" stroke-width="0" stroke-linecap="butt"/><path d="M256.15363,164.09479c8.48641,-7.23915 11.39036,0.13885 2.90432,7.37843c-9.8926,8.43956 -8.39596,24.36851 -15.33075,22.29063c-7.82909,-2.34584 4.49647,-22.9046 12.42642,-29.66906z" data-paper-data="{&quot;index&quot;:null}" fill="#60602a" stroke="#000000" stroke-width="2" stroke-linecap="butt"/><path d="M273.00713,163.32818l-3.75206,-2.37529" fill="none" stroke="#000000" stroke-width="2" stroke-linecap="round"/><path d="M265.39389,114.81057c16.19222,-18.02305 43.50335,-28.60085 49.27829,-19.65839c4.56404,7.06738 -20.45088,4.20223 -41.81828,30.68611c-18.19624,22.55338 -13.18216,53.30393 -26.38699,50.68863c-13.04016,-2.58268 8.00084,-49.55481 18.92698,-61.71636z" fill="#b1b14e" stroke="#000000" stroke-width="2" stroke-linecap="butt"/><path d="M267.5675,123.32213c13.8936,-19.84908 39.72493,-33.65232 46.53901,-25.47394c5.38528,6.46352 -19.79251,6.64478 -37.80003,35.51849c-15.33499,24.58853 -6.63866,54.50695 -20.06286,53.50788c-13.2568,-0.98661 1.94879,-50.1587 11.32388,-63.55242z" fill="#ecec68" stroke="#000000" stroke-width="2" stroke-linecap="butt"/><path d="M333.61662,94.03047c0.00293,2.92512 -6.90657,5.14749 -15.4328,4.96378c-8.52622,-0.1837 -15.44047,-2.7039 -15.44339,-5.62902c-0.00293,-2.92512 6.90657,-5.14749 15.4328,-4.96378c8.52622,0.1837 15.44047,2.7039 15.44339,5.62902z" fill="#ecec68" stroke="#000000" stroke-width="2" stroke-linecap="butt"/><path d="M399.08003,171.58647c-12.86914,3.94873 -11.0182,-27.15291 -31.42025,-47.73237c-23.95763,-24.16595 -48.54976,-18.7639 -44.7305,-26.25999c4.83256,-9.48492 33.08028,-1.74842 51.02663,14.52878c12.10977,10.98348 37.83281,55.56409 25.12414,59.46358z" data-paper-data="{&quot;index&quot;:null}" fill="#60602a" stroke="#000000" stroke-width="2" stroke-linecap="butt"/><path d="M377.59128,153.32252l-3.98452,3.65015" fill="none" stroke="#000000" stroke-width="2" stroke-linecap="round"/><path d="M310.01106,202.51529c0,0 6.5194,-2.54883 15.91662,-2.5c9.39722,0.04883 16.19298,2.25 16.19298,2.25" data-paper-data="{&quot;index&quot;:null}" fill="none" stroke="#000000" stroke-width="2" stroke-linecap="round"/><path d="M395.13022,181.88764c-13.27236,2.24762 -7.40634,-28.35186 -24.96929,-51.40181c-20.62375,-27.067 -45.70856,-24.89758 -40.95004,-31.83549c6.02103,-8.77864 33.0279,2.55345 48.7134,21.01918c10.58423,12.46026 30.31279,59.99854 17.20594,62.21813z" data-paper-data="{&quot;index&quot;:null}" fill="#b1b14e" stroke="#000000" stroke-width="2" stroke-linecap="butt"/><path d="M272.97545,152.00008c6.35577,-9.16672 11.04797,-2.77525 4.69269,6.3918c-7.40869,10.6865 -1.8929,25.70473 -9.1284,25.46717c-8.16858,-0.26821 -1.5033,-23.29332 4.43572,-31.85896z" data-paper-data="{&quot;index&quot;:null}" fill="#b1b14e" stroke="#000000" stroke-width="2" stroke-linecap="butt"/><path d="M263.37541,150.99604c9.81568,-15.07572 18.84317,-27.33067 23.82207,-35.62961c6.23938,-10.39993 12.64874,-25.71212 19.91477,-22.92264c7.58768,2.91298 0.873,20.62742 -5.57167,31.36954c-4.95793,8.26399 -19.9782,22.96667 -29.74832,37.9741c-12.24464,18.80842 -1.97443,44.44073 -14.469,44.39433c-14.10585,-0.05239 -3.76353,-40.11 6.05217,-55.18572z" fill="#ecec68" stroke="#000000" stroke-width="2" stroke-linecap="butt"/><g stroke="#000000" stroke-width="2" stroke-linecap="butt"><path d="M265.24747,173.03271c-0.13265,-2.16813 1.23377,-2.83748 2.96341,-2.9433c1.72964,-0.10583 3.16747,0.39194 3.30013,2.56007c0.13265,2.16813 -1.09011,5.18558 -2.81973,5.29141c-1.72964,0.10583 -3.31115,-2.74005 -3.4438,-4.90818z" fill="#ecec68"/><path d="M272.42114,187.52467c0.13265,2.16813 -1.23377,2.83748 -2.9634,2.9433c-1.72964,0.10583 -3.16749,-0.39194 -3.30014,-2.56007c-0.13265,-2.16813 1.09012,-5.18558 2.81975,-5.29141c1.72964,-0.10583 3.31114,2.74005 3.44379,4.90818z" fill="#ecec68"/><path d="M261.58833,183.86553c-2.16813,0.13265 -2.83747,-1.23378 -2.9433,-2.96342c-0.10583,-1.72964 0.39194,-3.16747 2.56007,-3.30013c2.16813,-0.13265 5.18558,1.09011 5.29141,2.81974c0.10583,1.72964 -2.74005,3.31115 -4.90818,3.4438z" fill="#ecec68"/><path d="M276.08028,176.69185c2.16813,-0.13265 2.83747,1.23378 2.94329,2.96342c0.10583,1.72964 -0.39194,3.16748 -2.56007,3.30014c-2.16813,0.13265 -5.18558,-1.09011 -5.29141,-2.81974c-0.10583,-1.72964 2.74005,-3.31116 4.90818,-3.44381z" fill="#ff80ee"/><path d="M261.17435,177.69129c-1.62691,-1.4393 -1.13398,-2.87882 0.01422,-4.17668c1.1482,-1.29786 2.51689,-1.9626 4.14378,-0.5233c1.62691,1.4393 2.89594,4.43759 1.74772,5.73545c-1.1482,1.29786 -4.27883,0.40382 -5.90573,-1.03547z" fill="#ecec68"/><path d="M276.49427,182.86609c1.62691,1.4393 1.13399,2.87882 -0.01422,4.17668c-1.1482,1.29786 -2.51689,1.9626 -4.14378,0.5233c-1.62691,-1.4393 -2.89594,-4.4376 -1.74773,-5.73546c1.1482,-1.29786 4.27883,-0.40382 5.90573,1.03547z" fill="#ff80ee"/><path d="M266.2469,187.93864c-1.4393,1.62691 -2.87881,1.134 -4.17667,-0.01421c-1.29786,-1.1482 -1.9626,-2.5169 -0.5233,-4.14379c1.4393,-1.62691 4.43759,-2.89594 5.73545,-1.74773c1.29786,1.1482 0.40382,4.27883 -1.03547,5.90574z" fill="#ecec68"/><path d="M271.42171,172.61874c1.4393,-1.62691 2.87881,-1.13399 4.17667,0.01422c1.29786,1.1482 1.9626,2.51689 0.5233,4.14379c-1.4393,1.62691 -4.43759,2.89594 -5.73545,1.74772c-1.29786,-1.1482 -0.40382,-4.27884 1.03547,-5.90574z" fill="#ecec68"/><path d="M264.68262,180.44417c-0.14011,-2.28994 1.60266,-4.25987 3.8926,-4.39998c2.28994,-0.14011 4.25987,1.60267 4.39998,3.8926c0.14011,2.28994 -1.60267,4.25987 -3.8926,4.39997c-2.28994,0.14011 -4.25987,-1.60266 -4.39998,-3.8926z" fill="#b1b14e"/></g><path d="M339.68719,109.57812c0,0 20.69549,-12.45341 20.68152,-22.61818c-0.008,-5.80945 -9.23077,-14.85284 -10.4054,-25.04642c-1.54818,-13.43522 11.57015,-24.49685 11.57015,-24.49685c0,0 -2.7185,10.47318 -1.57983,22.96189c0.90743,9.95251 8.96466,13.06873 11.89404,25.99882c2.86892,12.66319 -9.12566,33.83221 -9.12566,33.83221c0,0 -3.7525,4.19357 -14.21573,-0.66807c-9.51502,-4.42107 -8.8191,-9.96338 -8.8191,-9.96338z" fill="#60602a" stroke="#000000" stroke-width="2" stroke-linecap="butt"/><path d="M276.29285,161.85368c6.16843,-16.89897 17.82654,-31.84393 20.80859,-41.05096c3.73699,-11.53792 6.53335,-27.90016 14.24092,-26.81867c8.04878,1.12937 5.49595,19.90091 1.636,31.81846c-2.96948,9.16825 -17.44221,23.2899 -23.58162,40.11208c-7.69436,21.0828 2.46212,44.71556 -11.59299,43.51915c-11.04702,-0.94034 -7.67933,-30.6811 -1.5109,-47.58007z" fill="#b1b14e" stroke="#000000" stroke-width="2" stroke-linecap="butt"/><path d="M326.62267,138.76003c-7.15152,-1.12456 1.08478,-14.84079 -4.1867,-26.7278c-4.52197,-10.19688 1.28637,-15.59419 5.80887,-5.39754c4.22595,9.52803 6.4516,33.39493 -1.62216,32.12535z" data-paper-data="{&quot;index&quot;:null}" fill="#b1b14e" stroke="#000000" stroke-width="2" stroke-linecap="butt"/><path d="M390.04863,153.78498c-12.06018,7.30657 -10.27424,-12.29246 -23.49187,-21.96364c-10.54647,-7.71674 -27.63749,-9.84912 -33.05256,-14.23041c-7.03889,-5.69511 -17.48921,-17.56111 -10.71805,-22.02466c6.48413,-4.27433 16.41649,5.96288 23.23118,11.47658c5.43797,4.39981 20.2915,8.36248 30.88702,16.11399c10.5955,7.7515 22.62332,24.88536 13.14428,30.62815z" data-paper-data="{&quot;index&quot;:null}" fill="#ecec68" stroke="#000000" stroke-width="2" stroke-linecap="butt"/><path d="M290.47537,144.65686c4.84637,-12.20094 15.31399,-23.45969 17.57702,-30.07849c2.83598,-8.29444 4.36318,-19.86795 12.12754,-19.69921c8.10807,0.17621 7.00904,13.40439 4.07975,21.97174c-2.25351,6.59093 -15.58945,17.49059 -20.41282,29.63601c-6.04499,15.22155 5.89587,30.8653 -8.20309,31.09629c-11.08147,0.18155 -10.01479,-20.72538 -5.16842,-32.92633z" fill="#ecec68" stroke="#000000" stroke-width="2" stroke-linecap="butt"/><g data-paper-data="{&quot;index&quot;:null}" stroke="#1d1d0d" stroke-width="1.5" stroke-linecap="butt"><path d="M249.31624,74.51947l-7.26224,-17.64364l30.52608,-12.51329l7.26225,17.64365z" fill="#d0d05b"/><path d="M279.26457,115.00832l-12.36067,-29.22627l-15.68632,-12.96637l26.04389,-10.24186l-3.17709,20.3857l12.59361,30.02442z" fill="url(#color-1)"/><path d="M235.55484,61.66838l17.76239,-24.55433l30.22641,4.18835z" fill="#bfbf54"/><path d="M276.30303,63.63153l-23.40808,9.32016c0,0 1.77155,-10.67887 8.23553,-13.25257c6.46397,-2.57371 15.17255,3.93242 15.17255,3.93242z" fill="#ffff70"/></g><path d="M245.56661,156.82854c-2.74369,-36.25725 29.15193,-68.15354 71.24084,-71.24237c42.08891,-3.08884 78.43295,23.7995 81.17663,60.05674c0.15837,2.09284 0.20132,4.17114 0.13357,6.23022c-6.16373,0.12442 -12.34987,0.11742 -18.41168,0.50497c-42.55862,2.72091 -85.12359,5.35428 -127.702,7.74419c-1.05049,0.05897 -2.10292,-0.65587 -3.12039,-0.40117c-0.49608,0.12419 -1.55467,0.78444 -2.79174,1.6489c-0.23359,-1.49609 -0.40936,-3.01043 -0.52522,-4.54148z" fill="#bebe54" stroke="#000000" stroke-width="2" stroke-linecap="butt"/><path d="M245.10512,138.65226l6.94687,-17.45683l136.30629,-7.33796l7.96406,15.54265z" fill="#b9b952" stroke="#000000" stroke-width="2" stroke-linecap="butt"/><path d="M301.09319,150.2547l-2.65656,-43.4188l41.24787,-2.52373l2.65656,43.41881z" fill="#d7d75f" stroke="#000000" stroke-width="2" stroke-linecap="butt"/></g></g></svg>