<svg version="1.1" xmlns="http://www.w3.org/2000/svg" xmlns:xlink="http://www.w3.org/1999/xlink" width="920.25003" height="477.8195" viewBox="0,0,920.25003,477.8195"><g transform="translate(59.91668,89.81947)"><g data-paper-data="{&quot;isPaintingLayer&quot;:true}" fill-rule="nonzero" stroke-linecap="butt" stroke-linejoin="miter" stroke-miterlimit="10" stroke-dasharray="" stroke-dashoffset="0" style="mix-blend-mode: normal"><path d="M-44.83332,257.7042v-191.5h75v191.5z" data-paper-data="{&quot;index&quot;:null}" fill="#919140" stroke="#303015" stroke-width="7.5"/><path d="M609.83332,257.7042v-191.5h75v191.5z" data-paper-data="{&quot;index&quot;:null}" fill="#919140" stroke="#303015" stroke-width="7.5"/><path d="M-56.16668,353.20419v-118h685v118z" data-paper-data="{&quot;index&quot;:null}" fill="none" stroke="#303015" stroke-width="7.5"/><path d="M-16.63279,373.50005v-135c0,0 -1.78244,-235.34939 5.37519,-292.42645c6.60272,-52.65207 37.37368,-31.83335 37.37368,-31.83335l0.3765,324.17819l586.95797,-0.9184l1.5,-296c0,0 38.02167,-25.46374 44.56003,25.08445c6.2546,48.35445 -4.64336,271.91555 -4.64336,271.91555v135z" data-paper-data="{&quot;index&quot;:null}" fill="#919140" stroke="none" stroke-width="0"/><path d="M362,124.50005z" data-paper-data="{&quot;index&quot;:null}" fill="#ffffff" stroke="none" stroke-width="0"/><path d="" fill="#919140" stroke="#303015" stroke-width="4.5"/><path d="M145.24999,282.45004c0,19.90987 -16.11775,36.05 -36,36.05c-19.88225,0 -36,-16.14013 -36,-36.05c0,-19.90987 16.11775,-36.05 36,-36.05c19.88225,0 36,16.14013 36,36.05z" data-paper-data="{&quot;index&quot;:null}" fill="#b9b951" stroke="none" stroke-width="0"/><path d="M104.75,331.25004c0,4.55635 -3.91751,8.25 -8.75,8.25c-4.83249,0 -8.75,-3.69365 -8.75,-8.25c0,-4.55635 3.91751,-8.25 8.75,-8.25c4.83249,0 8.75,3.69365 8.75,8.25z" data-paper-data="{&quot;index&quot;:null}" fill="#b9b951" stroke="none" stroke-width="0"/><path d="M186.25003,315.75004c0,9.25077 -7.94694,16.75 -17.75,16.75c-9.80305,0 -17.75,-7.49923 -17.75,-16.75c0,-9.25077 7.94695,-16.75 17.75,-16.75c9.80306,0 17.75,7.49923 17.75,16.75z" data-paper-data="{&quot;index&quot;:null}" fill="#b9b951" stroke="none" stroke-width="0"/><path d="M134.74999,328.75004c0,2.62336 -2.01472,4.75 -4.5,4.75c-2.48528,0 -4.5,-2.12664 -4.5,-4.75c0,-2.62336 2.01472,-4.75 4.5,-4.75c2.48528,0 4.5,2.12664 4.5,4.75z" data-paper-data="{&quot;index&quot;:null}" fill="#b9b951" stroke="none" stroke-width="0"/><path d="M179.25003,365.75004c0,12.28834 -10.63323,22.25 -23.75,22.25c-13.11676,0 -23.75,-9.96166 -23.75,-22.25c0,-12.28834 10.63324,-22.25 23.75,-22.25c13.11677,0 23.75,9.96166 23.75,22.25z" data-paper-data="{&quot;index&quot;:null}" fill="#b9b951" stroke="none" stroke-width="0"/><path d="M116.25,361.25004c0,5.10863 -4.47715,9.25 -10,9.25c-5.52284,0 -10,-4.14137 -10,-9.25c0,-5.10863 4.47716,-9.25 10,-9.25c5.52285,0 10,4.14137 10,9.25z" data-paper-data="{&quot;index&quot;:null}" fill="#b9b951" stroke="none" stroke-width="0"/><path d="M258.25,240.50004c0,0 0.84761,45.00862 -44.5,47c-48.816,2.14369 -45.5,-47 -45.5,-47z" data-paper-data="{&quot;index&quot;:null}" fill="#b9b951" stroke="none" stroke-width="0"/><path d="M230.25,307.00004c0,5.24671 -4.47716,9.5 -10,9.5c-5.52284,0 -10,-4.25329 -10,-9.5c0,-5.24671 4.47716,-9.5 10,-9.5c5.52284,0 10,4.25329 10,9.5z" data-paper-data="{&quot;index&quot;:null}" fill="#b9b951" stroke="none" stroke-width="0"/><path d="M299.25,285.25004c0,11.73605 -9.51395,21.25 -21.25,21.25c-11.73605,0 -21.25,-9.51395 -21.25,-21.25c0,-11.73605 9.51395,-21.25 21.25,-21.25c11.73605,0 21.25,9.51395 21.25,21.25z" data-paper-data="{&quot;index&quot;:null}" fill="#b9b951" stroke="none" stroke-width="0"/><path d="M310.25,255.75004c0,4.28021 -3.13401,7.75 -7,7.75c-3.86599,0 -7,-3.46979 -7,-7.75c0,-4.2802 3.13401,-7.75 7,-7.75c3.86599,0 7,3.4698 7,7.75z" data-paper-data="{&quot;index&quot;:null}" fill="#b9b951" stroke="none" stroke-width="0"/><path d="M164.74999,279.25004c0,2.8995 -2.3505,5.25 -5.25,5.25c-2.8995,0 -5.25,-2.3505 -5.25,-5.25c0,-2.8995 2.3505,-5.25 5.25,-5.25c2.8995,0 5.25,2.3505 5.25,5.25z" data-paper-data="{&quot;index&quot;:null}" fill="#b9b951" stroke="none" stroke-width="0"/><path d="M251.25,357.25004c0,16.70662 -13.31953,30.25 -29.75,30.25c-16.43047,0 -29.75,-13.54338 -29.75,-30.25c0,-16.70661 13.31953,-30.25 29.75,-30.25c16.43047,0 29.75,13.54339 29.75,30.25z" data-paper-data="{&quot;index&quot;:null}" fill="#b9b951" stroke="none" stroke-width="0"/><path d="M263.75,320.50004c0,3.58985 -2.91015,6.5 -6.5,6.5c-3.58985,0 -6.5,-2.91015 -6.5,-6.5c0,-3.58985 2.91015,-6.5 6.5,-6.5c3.58985,0 6.5,2.91015 6.5,6.5z" data-paper-data="{&quot;index&quot;:null}" fill="#b9b951" stroke="none" stroke-width="0"/><path d="M302.25,328.00004c0,6.62741 -5.26065,12 -11.75,12c-6.48935,0 -11.75,-5.37259 -11.75,-12c0,-6.62741 5.26065,-12 11.75,-12c6.48935,0 11.75,5.37259 11.75,12z" data-paper-data="{&quot;index&quot;:null}" fill="#b9b951" stroke="none" stroke-width="0"/><path d="M271.75,347.75004c0,2.34721 -1.90279,4.25 -4.25,4.25c-2.34721,0 -4.25,-1.90279 -4.25,-4.25c0,-2.34721 1.90279,-4.25 4.25,-4.25c2.34721,0 4.25,1.90279 4.25,4.25z" data-paper-data="{&quot;index&quot;:null}" fill="#b9b951" stroke="none" stroke-width="0"/><path d="M416.75,297.50004c0,26.78581 -22.1619,48.5 -49.5,48.5c-27.3381,0 -49.5,-21.71419 -49.5,-48.5c0,-26.78581 22.1619,-48.5 49.5,-48.5c27.3381,0 49.5,21.71419 49.5,48.5z" data-paper-data="{&quot;index&quot;:null}" fill="#b9b951" stroke="none" stroke-width="0"/><path d="M343.25,363.00004c0,10.76956 -8.73045,19.5 -19.5,19.5c-10.76955,0 -19.5,-8.73044 -19.5,-19.5c0,-10.76956 8.73045,-19.5 19.5,-19.5c10.76955,0 19.5,8.73044 19.5,19.5z" data-paper-data="{&quot;index&quot;:null}" fill="#c7c758" stroke="none" stroke-width="0"/><path d="M439.75,259.00004c0,6.07513 -5.14873,11 -11.5,11c-6.35127,0 -11.5,-4.92487 -11.5,-11c0,-6.07513 5.14873,-11 11.5,-11c6.35127,0 11.5,4.92487 11.5,11z" data-paper-data="{&quot;index&quot;:null}" fill="#b9b951" stroke="none" stroke-width="0"/><path d="M463.75,296.50004c0,8.00813 -6.82766,14.5 -15.25,14.5c-8.42234,0 -15.25,-6.49187 -15.25,-14.5c0,-8.00813 6.82766,-14.5 15.25,-14.5c8.42234,0 15.25,6.49187 15.25,14.5z" data-paper-data="{&quot;index&quot;:null}" fill="#b9b951" stroke="none" stroke-width="0"/><path d="M466.75,266.00004c0,3.31371 -2.68629,6 -6,6c-3.31371,0 -6,-2.68629 -6,-6c0,-3.31371 2.68629,-6 6,-6c3.31371,0 6,2.68629 6,6z" data-paper-data="{&quot;index&quot;:null}" fill="#b9b951" stroke="none" stroke-width="0"/><path d="M463.75,355.25004c0,15.87818 -12.64796,28.75 -28.25,28.75c-15.60204,0 -28.25,-12.87182 -28.25,-28.75c0,-15.87818 12.64796,-28.75 28.25,-28.75c15.60204,0 28.25,12.87182 28.25,28.75z" data-paper-data="{&quot;index&quot;:null}" fill="#b9b951" stroke="none" stroke-width="0"/><path d="M483.75,328.75004c0,4.55635 -3.46979,8.25 -7.75,8.25c-4.28021,0 -7.75,-3.69365 -7.75,-8.25c0,-4.55635 3.46979,-8.25 7.75,-8.25c4.28021,0 7.75,3.69365 7.75,8.25z" data-paper-data="{&quot;index&quot;:null}" fill="#b9b951" stroke="none" stroke-width="0"/><path d="M538.25001,325.75004c0,10.0792 -8.61852,18.25 -19.25,18.25c-10.63148,0 -19.25,-8.1708 -19.25,-18.25c0,-10.0792 8.61852,-18.25 19.25,-18.25c10.63148,0 19.25,8.1708 19.25,18.25z" data-paper-data="{&quot;index&quot;:null}" fill="#b9b951" stroke="none" stroke-width="0"/><path d="M565.75001,354.50004c0,5.79899 -4.47715,10.5 -10,10.5c-5.52285,0 -10,-4.70101 -10,-10.5c0,-5.79899 4.47715,-10.5 10,-10.5c5.52285,0 10,4.70101 10,10.5z" data-paper-data="{&quot;index&quot;:null}" fill="#b9b951" stroke="none" stroke-width="0"/><path d="M513.75001,358.50004c0,4.14214 -3.80558,7.5 -8.5,7.5c-4.69442,0 -8.5,-3.35786 -8.5,-7.5c0,-4.14214 3.80558,-7.5 8.5,-7.5c4.69442,0 8.5,3.35786 8.5,7.5z" data-paper-data="{&quot;index&quot;:null}" fill="#b9b951" stroke="none" stroke-width="0"/><path d="M556.75001,327.25004c0,2.34721 -1.90279,4.25 -4.25,4.25c-2.34721,0 -4.25,-1.90279 -4.25,-4.25c0,-2.34721 1.90279,-4.25 4.25,-4.25c2.34721,0 4.25,1.90279 4.25,4.25z" data-paper-data="{&quot;index&quot;:null}" fill="#b9b951" stroke="none" stroke-width="0"/><path d="M498.75,293.75004c0,4.83249 -3.91751,8.75 -8.75,8.75c-4.83249,0 -8.75,-3.91751 -8.75,-8.75c0,-4.83249 3.91751,-8.75 8.75,-8.75c4.83249,0 8.75,3.91751 8.75,8.75z" data-paper-data="{&quot;index&quot;:null}" fill="#b9b951" stroke="none" stroke-width="0"/><path d="M379.25,359.75004c0,3.72792 -2.79822,6.75 -6.25,6.75c-3.45178,0 -6.25,-3.02208 -6.25,-6.75c0,-3.72792 2.79822,-6.75 6.25,-6.75c3.45178,0 6.25,3.02208 6.25,6.75z" data-paper-data="{&quot;index&quot;:null}" fill="#c7c758" stroke="none" stroke-width="0"/><path d="M860.33335,81.19576c0,0.27614 -0.67157,0.5 -1.5,0.5c-0.82843,0 -1.5,-0.22386 -1.5,-0.5c0,-0.27614 0.67157,-0.5 1.5,-0.5c0.82843,0 1.5,0.22386 1.5,0.5z" fill="#b9b951" stroke="none" stroke-width="0"/><path d="M517.83332,53.2042v-102h144v118z" data-paper-data="{&quot;index&quot;:null}" fill="#919140" stroke="#303015" stroke-width="7.5"/><path d="M613.5909,89.70419v-54h41.5v54z" data-paper-data="{&quot;index&quot;:null}" fill="#919140" stroke="none" stroke-width="0"/><path d="M-21.83332,69.2042v-118h144v102z" data-paper-data="{&quot;index&quot;:null}" fill="#919140" stroke="#303015" stroke-width="7.5"/><path d="M-15.09089,89.70419v-54h41.5v54z" fill="#919140" stroke="none" stroke-width="0"/></g></g></svg>