<svg version="1.1" xmlns="http://www.w3.org/2000/svg" xmlns:xlink="http://www.w3.org/1999/xlink" width="168.58537" height="287.28405" viewBox="0,0,168.58537,287.28405"><g transform="translate(-222.25404,-36.09862)"><g data-paper-data="{&quot;isPaintingLayer&quot;:true}" fill-rule="nonzero" stroke-linejoin="miter" stroke-miterlimit="10" stroke-dasharray="" stroke-dashoffset="0" style="mix-blend-mode: normal"><path d="M376.12632,178.43267c-4.14017,-1.52046 -12.9307,-0.62633 -12.9307,-0.62633l-1.43105,-39l22.18129,-26.33333c0,0 3.95267,3.19116 5.89355,33.33501c1.85954,28.88061 -2.13703,40.99833 -2.13703,40.99833c0,0 -7.55053,-6.89531 -11.57606,-8.37367z" data-paper-data="{&quot;index&quot;:null}" fill="#939317" stroke="#000000" stroke-width="2" stroke-linecap="butt"/><path d="M226.79076,184.1813c0,0 -5.3737,-10.29901 -2.87341,-34.84507c2.60966,-25.61969 7.9243,-28.3319 7.9243,-28.3319l29.8244,22.38107l-1.92415,33.14666c0,0 -11.81952,-0.75993 -17.38629,0.53233c-5.41263,1.25648 -15.56486,7.1169 -15.56486,7.1169z" fill="#939317" stroke="#000000" stroke-width="2" stroke-linecap="butt"/><path d="M287.04931,322.38266l15.14285,-131.8421l37.78325,-0.15789l13.57389,132z" fill="#b8b851" stroke="#000000" stroke-width="2" stroke-linecap="butt"/><path d="M299.99954,218.99531l3.12142,-26.32765l35.83075,-0.14203l2.76735,26.1059c0,0 -7.51543,4.19603 -21.55904,4.50964c-12.48458,0.27879 -20.16049,-4.14586 -20.16049,-4.14586z" fill="#939317" stroke="#000000" stroke-width="0" stroke-linecap="butt"/><path d="M247.60788,156.32264c0,-33.30185 28.7599,-60.29833 64.23702,-60.29833c35.47712,0 64.23702,26.99649 64.23702,60.29833c0,33.30185 -28.7599,60.29833 -64.23702,60.29833c-35.47712,0 -64.23702,-26.99649 -64.23702,-60.29833z" fill="#b8b851" stroke="#000000" stroke-width="2" stroke-linecap="butt"/><path d="M248.33094,156.37648c0,-0.72799 5.20666,55.91939 63.36046,56.93429c55.56352,0.9697 63.51358,-57.95314 63.51358,-56.93429c0,32.80479 -28.40173,59.39833 -63.43702,59.39833c-35.03529,0 -63.43702,-26.59354 -63.43702,-59.39833z" fill="#939317" stroke="#000000" stroke-width="0" stroke-linecap="butt"/><path d="M261.15809,156.75211c0,-12.968 10.51265,-23.48065 23.48065,-23.48065c12.968,0 23.48065,10.51265 23.48065,23.48065c0,12.968 -10.51265,23.48065 -23.48065,23.48065c-12.968,0 -23.48065,-10.51265 -23.48065,-23.48065z" fill="#ffffff" stroke="#000000" stroke-width="2" stroke-linecap="butt"/><path d="M268.22348,156.47648c0,-9.12808 7.39976,-16.52784 16.52783,-16.52784c9.12808,0 16.52784,7.39977 16.52784,16.52784c0,9.12808 -7.39977,16.52784 -16.52784,16.52784c-9.12808,0 -16.52783,-7.39977 -16.52783,-16.52784z" fill="#000000" stroke="none" stroke-width="0" stroke-linecap="butt"/><path d="M308.57078,197.99749c0,0 -9.4326,0.33102 -13.60672,-0.74528c-3.91388,-1.0092 -10.70759,-5.52417 -10.70759,-5.52417" fill="none" stroke="#000000" stroke-width="2" stroke-linecap="round"/><path d="M338.89718,180.23275c-12.968,0 -23.48065,-10.51265 -23.48065,-23.48065c0,-12.968 10.51265,-23.48065 23.48065,-23.48065c12.968,0 23.48065,10.51265 23.48065,23.48065c0,12.968 -10.51265,23.48065 -23.48065,23.48065z" data-paper-data="{&quot;index&quot;:null}" fill="#ffffff" stroke="#000000" stroke-width="2" stroke-linecap="butt"/><path d="M338.78461,173.00432c-9.12807,0 -16.52783,-7.39977 -16.52783,-16.52784c0,-9.12808 7.39977,-16.52784 16.52783,-16.52784c9.12807,0 16.52783,7.39977 16.52783,16.52784c0,9.12808 -7.39977,16.52784 -16.52783,16.52784z" data-paper-data="{&quot;index&quot;:null}" fill="#000000" stroke="none" stroke-width="0" stroke-linecap="butt"/><path d="M261.15809,156.75211c0,-12.968 10.51265,-23.48065 23.48065,-23.48065c12.968,0 23.48065,10.51265 23.48065,23.48065c0,0 -46.96131,1.23155 -46.96131,0z" fill="#939317" stroke="#000000" stroke-width="2" stroke-linecap="butt"/><path d="M315.41654,156.75211c0,-12.968 10.51265,-23.48065 23.48065,-23.48065c12.968,0 23.48065,10.51265 23.48065,23.48065c0,1.2138 -46.96131,0 -46.96131,0z" data-paper-data="{&quot;index&quot;:null}" fill="#939317" stroke="#000000" stroke-width="2" stroke-linecap="butt"/><path d="M273.79576,127.94364c0,0 6.70895,-5.16922 11.79721,-6.36355c5.08827,-1.19433 12.33413,0.69937 12.33413,0.69937c0,0 -8.03812,-0.06028 -11.96762,0.86207c-4.10648,0.96389 -12.16372,4.80211 -12.16372,4.80211z" fill="#000000" stroke="none" stroke-width="0" stroke-linecap="butt"/><path d="M337.73028,123.14154c-3.9295,-0.92235 -11.96762,-0.86207 -11.96762,-0.86207c0,0 7.24586,-1.8937 12.33413,-0.69937c5.08826,1.19433 11.79721,6.36355 11.79721,6.36355c0,0 -8.05724,-3.83822 -12.16372,-4.80211z" data-paper-data="{&quot;index&quot;:null}" fill="#000000" stroke="none" stroke-width="0" stroke-linecap="butt"/><path d="M275.04625,106.22307c-0.90916,-5.63406 0.05873,-64.49976 0.05873,-64.49976c0,0 19.43483,55.57333 20.344,61.20739c0.90916,5.63406 -2.92113,10.93839 -8.55518,11.84755c-5.63406,0.90916 -10.93838,-2.92112 -11.84755,-8.55518z" fill="#939317" stroke="#000000" stroke-width="2" stroke-linecap="butt"/><path d="M337.01223,114.77825c-5.63405,-0.90917 -9.46435,-6.21349 -8.55518,-11.84754c0.90917,-5.63405 20.344,-61.20739 20.344,-61.20739c0,0 0.96789,58.86571 0.05873,64.49976c-0.90916,5.63405 -6.21349,9.46434 -11.84754,8.55517z" data-paper-data="{&quot;index&quot;:null}" fill="#939317" stroke="#000000" stroke-width="2" stroke-linecap="butt"/></g></g></svg>