<svg version="1.1" xmlns="http://www.w3.org/2000/svg" xmlns:xlink="http://www.w3.org/1999/xlink" width="151.57032" height="277.26385" viewBox="0,0,151.57032,277.26385"><g transform="translate(-244.35185,-37.00054)"><g data-paper-data="{&quot;isPaintingLayer&quot;:true}" fill-rule="nonzero" stroke="#c1bc17" stroke-width="0.5" stroke-linecap="butt" stroke-linejoin="miter" stroke-miterlimit="10" stroke-dasharray="" stroke-dashoffset="0" style="mix-blend-mode: normal"><path d="M286.75016,314.01439l15.14285,-131.8421l37.78325,-0.15789l13.57389,132z" fill="#000000"/><path d="M323.3986,210.3284l6.44025,29.70979l-8.6629,11.68257l-8.6629,-11.68257l6.2328,-29.68503z" fill="#ffffff"/><path d="M318.74584,210.35948l-6.2328,-6.71881l8.41989,-8.4199l8.41989,8.4199l-5.95423,6.68773z" fill="#ffffff"/><path d="M255.67814,135.10721c0.25199,-33.3009 29.21535,-60.07898 64.69146,-59.81053c35.47611,0.26845 64.0309,27.48179 63.77891,60.78268c-0.25199,33.3009 -29.21535,60.07898 -64.69145,59.81053c-35.47611,-0.26845 -64.0309,-27.48179 -63.77891,-60.78268z" fill="#000000"/><path d="M269.22462,135.6392c0.09813,-12.96763 10.69002,-23.40043 23.65765,-23.3023c12.96763,0.09813 23.40043,10.69002 23.3023,23.65765c-0.09813,12.96763 -10.69002,23.40043 -23.65765,23.3023c-12.96763,-0.09813 -23.40043,-10.69002 -23.3023,-23.65765z" fill="#ffffff"/><path d="M276.29189,135.41704c0.06907,-9.12782 7.52461,-16.47138 16.65242,-16.4023c9.12782,0.06907 16.47138,7.52462 16.4023,16.65243c-0.06907,9.12782 -7.52462,16.47137 -16.65243,16.4023c-9.12782,-0.06907 -16.47136,-7.52462 -16.40229,-16.65243z" fill="#000000"/><path d="M346.78382,159.70741c-12.96763,-0.09813 -23.40043,-10.69003 -23.3023,-23.65766c0.09813,-12.96763 10.69002,-23.40043 23.65765,-23.3023c12.96763,0.09813 23.40043,10.69003 23.3023,23.65766c-0.09813,12.96763 -10.69002,23.40043 -23.65765,23.3023z" data-paper-data="{&quot;index&quot;:null}" fill="#ffffff"/><path d="M346.72595,152.47833c-9.12781,-0.06907 -16.47137,-7.52462 -16.40229,-16.65243c0.06907,-9.12782 7.52462,-16.47138 16.65242,-16.4023c9.12781,0.06907 16.47136,7.52462 16.40229,16.65243c-0.06907,9.12782 -7.52462,16.47138 -16.65242,16.4023z" data-paper-data="{&quot;index&quot;:null}" fill="#000000"/><path d="M269.22462,135.6392c0.09813,-12.96763 10.69002,-23.40043 23.65765,-23.3023c12.96763,0.09813 23.40043,10.69002 23.3023,23.65765c0,0 -46.96448,0.24249 -46.95996,-0.35535z" fill="#000000"/><path d="M323.48153,136.04977c0.09813,-12.96763 10.69002,-23.40043 23.65765,-23.3023c12.96763,0.09813 23.40043,10.69002 23.3023,23.65765c-0.00478,0.63177 -46.95997,-0.35535 -46.95997,-0.35535z" data-paper-data="{&quot;index&quot;:null}" fill="#000000"/><g fill="#000000"><path d="M395.67217,96.40983c-0.07705,10.18285 -33.95774,18.1818 -75.67461,17.86612c-41.71687,-0.31568 -75.47264,-8.82644 -75.39558,-19.00929c0.07705,-10.18285 33.95775,-18.18179 75.67462,-17.86612c41.71687,0.31568 75.47263,8.82643 75.39558,19.00928z"/><path d="M273.15321,95.14851l0.35774,-47.27693c0,0 10.9011,-10.1851 48.37473,-10.60956c37.87763,-0.42909 45.59803,11.32066 45.59803,11.32066l-0.35775,47.27693c0,0 -10.01023,5.26604 -46.01252,4.15465c-32.17407,-0.9932 -47.96022,-4.86575 -47.96022,-4.86575z"/></g></g></g></svg>