<svg version="1.1" xmlns="http://www.w3.org/2000/svg" xmlns:xlink="http://www.w3.org/1999/xlink" width="129.20732" height="436.65773" viewBox="0,0,129.20732,436.65773"><g transform="translate(-266.3612,74.37684)"><g data-paper-data="{&quot;isPaintingLayer&quot;:true}" fill-rule="nonzero" stroke-linejoin="miter" stroke-miterlimit="10" stroke-dasharray="" stroke-dashoffset="0" style="mix-blend-mode: normal"><path d="M353.53301,40.05826l4.62183,125.11906l-65.5106,-3.66764l20.65529,-116.1213l41.91455,-8.26905z" fill="#b5b54a" stroke="#b5b54a" stroke-width="2.5" stroke-linecap="round"/><path d="M383.60487,36.7351l-5.55111,-0.09285l-96.379,-2.11698c0,0 -5.89579,-10.98492 -8.53055,-23.98306c-1.75262,-8.6463 -0.94743,-18.16476 -0.06582,-26.00129c0.92057,-8.18279 4.70053,-16.0021 14.34176,-26.13448c10.46616,-10.99932 29.24477,-21.16509 43.45885,-21.47626c12.22707,-0.26767 30.75501,5.23764 41.94456,14.52372c12.33345,10.23535 18.96002,24.61309 21.03811,32.10705c7.10235,25.61241 -10.25679,53.17418 -10.25679,53.17418z" fill="#fafab0" stroke="none" stroke-width="0" stroke-linecap="round"/><path d="M345.19724,236.36581l11.60849,124.66508h-65.61319l14.13207,-117.09433l41.38678,-10.59906z" fill="#e5e61c" stroke="#e5e61c" stroke-width="2.5" stroke-linecap="round"/><path d="M317.29652,129.31457l3.1174,-47.49508c0,0 10.30022,-0.41219 14.75006,0.87474c4.70722,1.36137 7.54817,6.10315 7.54817,6.10315l0.41503,8.96128c0,0 -4.44385,10.68858 -9.89924,10.00983c-4.17975,-0.52004 -13.71288,-1.70616 -13.71288,-1.70616" fill="none" stroke="#29291b" stroke-width="2.5" stroke-linecap="round"/><path d="M327.09036,287.33592l-0.43867,39.91981" fill="none" stroke="#29291b" stroke-width="2.5" stroke-linecap="round"/><path d="M306.94164,292.7457l38.18971,-10.11864" fill="none" stroke="#29291b" stroke-width="2.5" stroke-linecap="round"/><path d="M383.99918,36.42237c0,0 -6.89531,9.54963 -19.39578,16.87175c-9.08572,5.32192 -22.42514,9.09678 -31.93817,8.97539c-9.34665,-0.11926 -21.23387,-3.05314 -30.17656,-8.48328c-12.68191,-7.70066 -20.98114,-18.67166 -20.98114,-18.67166z" fill="#fafab0" stroke="none" stroke-width="0" stroke-linecap="round"/><path d="M321.25481,12.10082c-0.11888,7.10707 -2.9265,12.82313 -6.27101,12.76719c-3.3445,-0.05595 -5.95936,-5.86273 -5.84049,-12.96977c0.11888,-7.10706 2.9265,-12.82312 6.27101,-12.76718c3.3445,0.05595 5.95938,5.86272 5.84049,12.96978z" fill="#29291b" stroke="#29291b" stroke-width="2.5" stroke-linecap="butt"/><path d="M357.62481,15.92635c-0.11888,7.10707 -2.9265,12.82311 -6.27101,12.76718c-3.3445,-0.05595 -5.95936,-5.86271 -5.84049,-12.96977c0.11888,-7.10706 2.9265,-12.82312 6.27101,-12.76718c3.3445,0.05595 5.95936,5.86271 5.84049,12.96978z" fill="#29291b" stroke="#29291b" stroke-width="2.5" stroke-linecap="butt"/><path d="M298.47275,-70.67858l15.49227,4.95304l0.13915,-8.31863l19.95727,5.88115l-0.17406,-2.34986l15.26472,5.80266l-0.35881,-4.0598l24.86593,18.55138l-43.02207,-4.5601l6.5195,5.65637l-22.34995,-3.14751l8.79797,9.74827l-23.97428,-8.08192l-0.06067,3.62607l-14.08403,-12.61035l21.14152,-1.13985z" fill="#fcfc00" stroke="#fcfc00" stroke-width="0.5" stroke-linecap="round"/><path d="M377.79418,212.56052l-5.55094,-0.10273l-96.37509,-2.28832c0,0 -5.87627,-10.99539 -8.48792,-23.9982c-1.73726,-8.64939 -0.91512,-18.16641 -0.01959,-26.00136c0.9351,-8.18114 4.72896,-15.99374 14.3882,-26.10894c10.48568,-10.98069 29.28235,-21.11307 43.49696,-21.39897c12.22754,-0.24594 30.74564,5.29232 41.9187,14.59826c12.31522,10.25726 18.91623,24.64677 20.98098,32.1444c7.05681,25.625 -10.35129,53.15587 -10.35129,53.15587z" fill="#fafab0" stroke="none" stroke-width="0" stroke-linecap="round"/><path d="M375.27866,220.41993c0,0 -6.77291,9.63683 -19.17894,17.11784c-9.01708,5.43741 -22.30726,9.38216 -31.82106,9.38216c-9.34741,0 -21.2711,-2.78196 -30.28234,-8.09756c-12.77913,-7.53823 -21.21766,-18.40245 -21.21766,-18.40245z" fill="#fafab0" stroke="none" stroke-width="0" stroke-linecap="round"/><path d="M318.73227,155.65094c-0.31009,7.10129 -3.27052,12.73973 -6.61231,12.5938c-3.34179,-0.14593 -5.79945,-6.02096 -5.48935,-13.12225c0.31009,-7.10129 3.27052,-12.73973 6.61231,-12.5938c3.34179,0.14593 5.79945,6.02096 5.48935,13.12225z" fill="#29291b" stroke="#29291b" stroke-width="2.5" stroke-linecap="butt"/><path d="M348.62729,159.06777c-0.31009,7.10129 -3.27052,12.73973 -6.61231,12.5938c-3.34179,-0.14593 -5.79945,-6.02096 -5.48935,-13.12225c0.31009,-7.10129 3.27052,-12.73973 6.61231,-12.5938c3.34179,0.14593 5.79945,6.02096 5.48935,13.12225z" fill="#29291b" stroke="#29291b" stroke-width="2.5" stroke-linecap="butt"/><path d="M295.11792,107.18699l15.35338,5.36815l0.36295,-8.31186l19.79178,6.41608l-0.11075,-2.35367l15.10304,6.21133l-0.24943,-4.06798l24.35769,19.21381l-42.88376,-5.71618l6.3649,5.82976l-22.25715,-3.74781l8.53246,9.98151l-23.74811,-8.72416l-0.15822,3.62314l-13.73959,-12.98479l21.16454,-0.57052z" fill="#29291b" stroke="none" stroke-width="0" stroke-linecap="round"/></g></g></svg>