<svg version="1.1" xmlns="http://www.w3.org/2000/svg" xmlns:xlink="http://www.w3.org/1999/xlink" width="151.13634" height="285.67094" viewBox="0,0,151.13634,285.67094"><g transform="translate(-245.4231,-24.27813)"><g data-paper-data="{&quot;isPaintingLayer&quot;:true}" fill-rule="nonzero" stroke-linejoin="miter" stroke-miterlimit="10" stroke-dasharray="" stroke-dashoffset="0" style="mix-blend-mode: normal"><path d="M282.5448,308.94906l15.14285,-131.8421l37.78325,-0.15789l13.57389,132z" fill="#d7d75f" stroke="#000000" stroke-width="2" stroke-linecap="butt"/><path d="M295.49502,205.22836l3.12142,-26.32765l35.83075,-0.14203l2.76735,26.1059c0,0 -7.51543,4.19603 -21.55904,4.50964c-12.48458,0.27879 -20.16049,-4.14586 -20.16049,-4.14586z" fill="#c2c255" stroke="#000000" stroke-width="0" stroke-linecap="butt"/><path d="M251.6347,137.96189c0,-33.30185 28.7599,-60.29833 64.23702,-60.29833c35.47712,0 64.23702,26.99649 64.23702,60.29833c0,33.30185 -28.7599,60.29833 -64.23702,60.29833c-35.47712,0 -64.23702,-26.99649 -64.23702,-60.29833z" fill="#d7d75f" stroke="#000000" stroke-width="2" stroke-linecap="butt"/><path d="M252.35776,138.01573c0,-0.72799 5.20666,55.91939 63.36046,56.93429c55.56352,0.9697 63.51358,-57.95314 63.51358,-56.93429c0,32.80479 -28.40173,59.39833 -63.43702,59.39833c-35.03529,0 -63.43702,-26.59354 -63.43702,-59.39833z" fill="#c2c255" stroke="#000000" stroke-width="0" stroke-linecap="butt"/><path d="M254.35954,133.59371l-7.66667,-49.33333l21.66667,9.62963l24.66667,-43.33333l14.33333,22.66667l39,-46.33333l2.33333,55.66667l37.33333,-26l-8.33333,58.66667l17,-6l-17.33333,38.66667" fill="#d7d75f" stroke="#000000" stroke-width="2" stroke-linecap="round"/><path d="M265.18485,139.64136c0,-12.96801 10.51265,-23.48065 23.48066,-23.48065c12.96801,0 23.48065,10.51264 23.48065,23.48065c0,12.96801 -10.51264,23.48066 -23.48065,23.48066c-12.96801,0 -23.48066,-10.51265 -23.48066,-23.48066z" fill="#000000" stroke="#000000" stroke-width="2" stroke-linecap="butt"/><path d="M342.92395,163.12202c-12.96801,0 -23.48065,-10.51265 -23.48065,-23.48066c0,-12.96801 10.51264,-23.48065 23.48065,-23.48065c12.96801,0 23.48066,10.51264 23.48066,23.48065c0,12.96801 -10.51265,23.48066 -23.48066,23.48066z" data-paper-data="{&quot;index&quot;:null}" fill="#000000" stroke="#000000" stroke-width="2" stroke-linecap="butt"/><path d="M265.18492,138.39136c0,-12.968 10.51265,-23.48065 23.48065,-23.48065c12.968,0 23.48065,10.51265 23.48065,23.48065c0,12.968 -10.51265,23.48065 -23.48065,23.48065c-12.968,0 -23.48065,-10.51265 -23.48065,-23.48065z" fill="#d7d75f" stroke="#000000" stroke-width="2" stroke-linecap="butt"/><path d="M342.924,161.872c-12.968,0 -23.48065,-10.51265 -23.48065,-23.48065c0,-12.968 10.51265,-23.48065 23.48065,-23.48065c12.968,0 23.48065,10.51265 23.48065,23.48065c0,12.968 -10.51265,23.48065 -23.48065,23.48065z" data-paper-data="{&quot;index&quot;:null}" fill="#d7d75f" stroke="#000000" stroke-width="2" stroke-linecap="butt"/><path d="M306.33362,159.82475l5.6,-17.6" fill="none" stroke="#000000" stroke-width="2" stroke-linecap="round"/><path d="M323.13362,160.82475l-3.6,-20.4" fill="none" stroke="#000000" stroke-width="2" stroke-linecap="round"/><path d="M287.90178,180.97216l58.70959,-6.4" fill="none" stroke="#000000" stroke-width="2" stroke-linecap="round"/><path d="M335.55404,205.37258l1.47098,-9.04805l0.13066,0.23029c0.00149,0.10157 -0.0052,0.20386 -0.02236,0.30697c-0.18496,1.11162 -0.50203,1.47731 0.22397,2.70601c0.01,0.55308 0.0967,1.10886 0.26416,1.65113c-0.03799,0.45155 -0.02508,0.90896 0.04098,1.36325c-0.15911,0.65049 -0.20994,1.32757 -0.14517,2.00194c-0.05789,0.29843 -0.09327,0.60147 -0.10543,0.90636c-0.90245,-0.00874 -1.85779,-0.1179 -1.85779,-0.1179z" fill="#191919" stroke="none" stroke-width="0" stroke-linecap="butt"/><path d="M338.60261,212.41384c0,0 -0.55207,4.30211 -6.33859,6.27627c-6.10007,2.08113 -10.3497,-1.2849 -10.3497,-1.2849c0,0 5.9771,0.96809 9.53144,-1.1616c3.55434,-2.12969 7.15685,-3.82977 7.15685,-3.82977z" fill="#d7d75f" stroke="none" stroke-width="0" stroke-linecap="butt"/><path d="M333.49825,217.1784c-5.02735,3.01229 -12.37867,0.16656 -12.37867,0.16656c0,0 5.06051,-1.15703 10.08787,-4.16932c3.23245,-1.93682 4.94686,-5.36617 6.2202,-6.79832c-0.54881,1.61104 -0.41179,3.44393 0.53149,5.01821c0.19872,0.33166 0.42444,0.63716 0.67266,0.91541c-1.08907,1.76331 -2.85537,3.50242 -5.13354,4.86745z" fill="#d7d75f" stroke="none" stroke-width="NaN" stroke-linecap="butt"/><path d="M304.41848,221.09592c0.26449,0.44142 0.12106,1.01369 -0.32036,1.27818c-0.44142,0.2645 -1.01369,0.12106 -1.27818,-0.32036c-0.26449,-0.44142 -0.12105,-1.01369 0.32037,-1.27818c0.44142,-0.26449 1.01368,-0.12107 1.27818,0.32036z" fill="#eded8c" stroke="none" stroke-width="0" stroke-linecap="butt"/><g stroke="none" stroke-width="0" stroke-linecap="butt"><path d="M301.99343,162.96711c1.54198,0.01225 2.78246,1.2235 2.74158,6.37172c-0.04088,5.14822 -1.34836,12.37395 -2.89034,12.36171c-1.54198,-0.01225 -2.73454,-7.25782 -2.69367,-12.40604c0.04088,-5.14822 1.30044,-6.33962 2.84242,-6.32738z" fill="#ffffff"/><path d="M301.94025,162.96669c0.57274,0.00455 1.03383,0.41147 1.02988,0.90888c-0.00395,0.49741 -0.47145,0.89696 -1.04418,0.89241c-0.57274,-0.00455 -1.03383,-0.41147 -1.02988,-0.90888c0.00395,-0.49741 0.47145,-0.89696 1.04418,-0.89241z" fill="#000000"/></g><path d="M336.29311,206.86582c7.48031,7.03772 2.60039,18.78252 -3.59664,29.30248c-3.30903,5.61735 -17.92684,22.92877 -24.84155,20.53262c-8.98467,-3.11347 -13.18417,-30.70096 -7.65441,-40.25713c7.03636,-12.15977 28.82186,-11.23811 28.82186,-11.23811c0,0 3.79615,-1.60886 7.27073,1.66014z" fill="#d7d75f" stroke="#000000" stroke-width="0" stroke-linecap="butt"/><path d="M316.01613,181.48863c2.254,1.41976 7.97596,1.36459 11.30942,8.6752c2.99223,6.56226 -0.5353,11.42489 -0.5353,11.42489c0,0 -0.04092,10.10187 -2.80176,14.48496c-7.40161,11.75076 -15.53974,-6.20433 -15.53974,-6.20433c0,0 -5.88943,-1.25169 -9.53366,-4.38745c-6.65978,-5.73055 -7.47626,-11.23599 -6.05389,-18.37908c1.0665,-5.35591 3.732,-8.08752 7.02339,-9.14749c3.79639,-1.2226 5.85377,7.28936 9.82228,9.05271c1.3404,0.59559 5.17712,-6.23253 6.30927,-5.51941z" fill="#d7d75f" stroke="none" stroke-width="0" stroke-linecap="butt"/><path d="M330.29634,178.87719c-0.38896,1.92768 -4.95157,0.14665 -10.35583,3.68665c-8.42223,5.5169 -11.28724,11.69593 -12.13448,11.41597c-0.18731,-0.06189 -2.16338,-0.05793 -2.31453,-0.91507c-0.80489,-4.56434 2.08264,-3.447 2.64057,-5.05454c2.73165,-7.87046 23.11383,-13.83906 22.16427,-9.13301z" fill="#89893c" stroke="#000000" stroke-width="0" stroke-linecap="butt"/><path d="M308.89111,187.75471c-0.40128,1.01967 1.50151,3.86707 0.39205,5.6216c-0.76797,1.2145 -3.40195,0.70422 -3.64542,0.53218c-1.41404,-0.99919 -3.04329,-9.3631 -8.5423,-14.34742c-8.40862,-7.6216 -14.42931,-7.04034 -13.05804,-9.65682c2.77021,-5.28577 27.798,10.36894 24.8537,17.85045z" fill="#9b9b44" stroke="#000000" stroke-width="0" stroke-linecap="butt"/><path d="M315.39918,218.71507c4.61953,2.53496 3.21892,12.47237 -2.04227,21.58946c-5.26119,9.11709 -12.39067,13.96141 -17.0102,11.42645c-4.61953,-2.53496 -4.09935,-11.98081 1.16185,-21.09791c5.26119,-9.11709 13.27111,-14.45297 17.89063,-11.91801z" fill="#c2c255" stroke="none" stroke-width="0" stroke-linecap="butt"/><path d="M312.80337,214.17168c4.93222,2.11049 5.40289,12.0656 1.05126,22.23537c-4.35163,10.16977 -12.62054,18.65977 -17.55277,16.54928c-1.99939,-0.85554 -6.62386,-4.86057 -6.45716,-10.82591c0.09566,-3.42327 3.93837,-6.38486 3.93837,-6.38486l0.988,-3.8393c0,0 -0.35474,-3.40207 0.01564,-5.52704c1.62572,-9.32724 13.08444,-14.31802 18.01667,-12.20753z" fill="#d7d75f" stroke="#000000" stroke-width="0" stroke-linecap="butt"/><path d="M329.14093,205.65746c0,0 0.5298,3.75247 -3.88915,6.75408c-4.65839,3.16425 -9.81195,-1.39792 -9.81195,-1.39792c0,0 6.05449,2.14225 8.55671,-0.47416c2.50222,-2.61641 5.14439,-4.88198 5.14439,-4.88198z" fill="#c2c255" stroke="none" stroke-width="0" stroke-linecap="butt"/><path d="M299.86757,237.49442c3.88313,0.88599 11.27672,-4.45507 11.27672,-4.45507c0,0 -5.4995,8.44907 -12.3147,6.49325c-5.06844,-1.68749 -6.09841,-5.28153 -6.09841,-5.28153c0,0 3.60676,2.43803 7.13638,3.24336z" data-paper-data="{&quot;index&quot;:null}" fill="#c2c255" stroke="none" stroke-width="0" stroke-linecap="butt"/><path d="M296.5039,188.96088c0.4289,1.12694 0.17271,2.27034 -0.57222,2.55385c-0.74493,0.28351 -1.6965,-0.40023 -2.1254,-1.52717c-0.4289,-1.12694 -0.17271,-2.27034 0.57222,-2.55385c0.74493,-0.28351 1.6965,0.40023 2.1254,1.52717z" fill="#eded8c" stroke="none" stroke-width="0" stroke-linecap="butt"/><path d="M295.5326,185.27812c0.35448,0.33901 0.36702,0.9012 0.02801,1.25568c-0.33901,0.35448 -0.9012,0.36702 -1.25568,0.02801c-0.35448,-0.33901 -0.36702,-0.90119 -0.02801,-1.25568c0.33901,-0.35448 0.90119,-0.36702 1.25568,-0.02801z" fill="#eded8c" stroke="none" stroke-width="0" stroke-linecap="butt"/><path d="M305.61082,212.10992c0.64936,0.42598 -1.21401,1.71152 -2.71616,4.00139c-1.50215,2.28986 -2.07425,4.71691 -2.72361,4.29093c-0.64936,-0.42598 0.04196,-2.62761 1.54411,-4.91747c1.50215,-2.28986 3.2463,-3.80083 3.89566,-3.37485z" fill="#eded8c" stroke="none" stroke-width="0" stroke-linecap="butt"/><path d="M298.77693,221.59519c0.32494,0.31076 0.33644,0.8261 0.02568,1.15103c-0.31076,0.32494 -0.8261,0.33644 -1.15104,0.02568c-0.32494,-0.31076 -0.33643,-0.8261 -0.02568,-1.15104c0.31076,-0.32494 0.82609,-0.33644 1.15103,-0.02568z" fill="#eded8c" stroke="none" stroke-width="0" stroke-linecap="butt"/><g stroke="none" stroke-width="0" stroke-linecap="butt"><path d="M298.80196,169.72713c1.54198,0.01224 2.78246,1.2235 2.74158,6.37172c-0.04088,5.14822 -1.34836,12.37395 -2.89034,12.36171c-1.54199,-0.01224 -2.73454,-7.25782 -2.69367,-12.40604c0.04088,-5.14822 1.30044,-6.33962 2.84242,-6.32738z" fill="#ffffff"/><path d="M298.74878,169.72671c0.57274,0.00455 1.03383,0.41147 1.02988,0.90888c-0.00395,0.49741 -0.47145,0.89696 -1.04418,0.89241c-0.57274,-0.00455 -1.03383,-0.41147 -1.02988,-0.90888c0.00395,-0.49741 0.47145,-0.89696 1.04418,-0.89241z" fill="#000000"/></g><path d="M360.43764,222.17233c0,10.94918 -8.65416,19.82524 -19.32961,19.82524c-10.67545,0 -19.32961,-8.87606 -19.32961,-19.82524c0,-10.94918 8.65416,-19.82524 19.32961,-19.82524c10.67545,0 19.32961,8.87606 19.32961,19.82524z" fill="#d7d75f" stroke="#000000" stroke-width="2" stroke-linecap="butt"/><path d="M309.34394,222.62428c0,10.94918 -8.65416,19.82524 -19.32961,19.82524c-10.67545,0 -19.32961,-8.87606 -19.32961,-19.82524c0,-10.94918 8.65416,-19.82525 19.32961,-19.82525c10.67545,0 19.32961,8.87607 19.32961,19.82525z" fill="#d7d75f" stroke="#000000" stroke-width="2" stroke-linecap="butt"/></g></g></svg>