<svg version="1.1" xmlns="http://www.w3.org/2000/svg" xmlns:xlink="http://www.w3.org/1999/xlink" width="141.55132" height="269.42007" viewBox="0,0,141.55132,269.42007"><g transform="translate(-250.12964,-58.42608)"><g data-paper-data="{&quot;isPaintingLayer&quot;:true}" fill-rule="nonzero" stroke-linejoin="miter" stroke-miterlimit="10" stroke-dasharray="" stroke-dashoffset="0" style="mix-blend-mode: normal"><path d="M296.12658,178.24748c0,0 2.53763,83.65627 -30.09158,79.73761c-31.94687,-3.8367 -2.59948,-111.11263 -2.59948,-111.11263" data-paper-data="{&quot;index&quot;:null}" fill="#d9d960" stroke="#000000" stroke-width="2" stroke-linecap="round"/><path d="M378.37507,146.24337c0,0 29.34739,107.27593 -2.59948,111.11263c-32.62922,3.91866 -30.09158,-79.73761 -30.09158,-79.73761" data-paper-data="{&quot;index&quot;:null}" fill="#d9d960" stroke="#000000" stroke-width="2" stroke-linecap="round"/><path d="M286.70285,326.84614l15.14285,-137.42216l37.78325,-0.16457l13.57389,137.58674z" fill="#d9d960" stroke="#000000" stroke-width="2" stroke-linecap="butt"/><path d="M299.65308,219.08302l3.12142,-27.44194l35.83075,-0.14804l2.76735,27.2108c0,0 -7.51543,4.37362 -21.55904,4.70051c-12.48458,0.29059 -20.16049,-4.32133 -20.16049,-4.32133z" fill="#b4b44f" stroke="#000000" stroke-width="0" stroke-linecap="butt"/><path d="M257.60337,137.01705c0,-34.71131 28.7599,-62.85038 64.23702,-62.85038c35.47712,0 64.23702,28.13908 64.23702,62.85038c0,34.71131 -28.7599,62.85038 -64.23702,62.85038c-35.47712,0 -64.23702,-28.13908 -64.23702,-62.85038z" fill="#d9d960" stroke="#000000" stroke-width="2" stroke-linecap="butt"/><path d="M258.32644,137.07319c0,-0.7588 5.20666,58.28611 63.36046,59.34397c55.56352,1.01074 63.51358,-60.40594 63.51358,-59.34397c0,34.19321 -28.40173,61.91229 -63.43702,61.91229c-35.03529,0 -63.43702,-27.71908 -63.43702,-61.91229z" fill="#b4b44f" stroke="#000000" stroke-width="0" stroke-linecap="butt"/><path d="M271.15357,137.46471c0,-13.51685 10.51265,-24.47444 23.48065,-24.47444c12.968,0 23.48065,10.95759 23.48065,24.47444c0,13.51685 -10.51265,24.47444 -23.48065,24.47444c-12.968,0 -23.48065,-10.95759 -23.48065,-24.47444z" fill="#ffffff" stroke="#000000" stroke-width="2" stroke-linecap="butt"/><path d="M277.01189,133.40291c0,-9.51441 7.39976,-17.22736 16.52783,-17.22736c9.12808,0 16.52784,7.71296 16.52784,17.22736c0,9.51441 -7.39977,17.22736 -16.52784,17.22736c-9.12808,0 -16.52783,-7.71296 -16.52783,-17.22736z" fill="#ffffff" stroke="#000000" stroke-width="2" stroke-linecap="butt"/><path d="M296.88333,188.18574c0,0 10.19436,-29.02636 23.5727,-28.80033c16.22885,0.27415 22.66064,28.80033 22.66064,28.80033z" data-paper-data="{&quot;index&quot;:null}" fill="#000000" stroke="#000000" stroke-width="2" stroke-linecap="round"/><path d="M283.79125,102.23482c0,0 6.70895,-5.388 11.79721,-6.63288c5.08827,-1.24488 12.33413,0.72897 12.33413,0.72897c0,0 -8.03812,-0.06283 -11.96762,0.89856c-4.10648,1.00469 -12.16372,5.00535 -12.16372,5.00535z" fill="#000000" stroke="none" stroke-width="0" stroke-linecap="butt"/><path d="M347.72577,97.22947c-3.9295,-0.96139 -11.96762,-0.89856 -11.96762,-0.89856c0,0 7.24586,-1.97385 12.33413,-0.72897c5.08826,1.24488 11.79721,6.63288 11.79721,6.63288c0,0 -8.05724,-4.00067 -12.16372,-5.00535z" data-paper-data="{&quot;index&quot;:null}" fill="#000000" stroke="none" stroke-width="0" stroke-linecap="butt"/><path d="M267.50231,134.44204l3.6,2.71004" fill="none" stroke="#000000" stroke-width="2" stroke-linecap="round"/><path d="M376.10232,133.39969l-4.2,3.5439" fill="none" stroke="#000000" stroke-width="2" stroke-linecap="round"/><path d="M326.85057,138.27277c0,-13.51685 10.51265,-24.47444 23.48065,-24.47444c12.968,0 23.48065,10.95759 23.48065,24.47444c0,13.51685 -10.51265,24.47444 -23.48065,24.47444c-12.968,0 -23.48065,-10.95759 -23.48065,-24.47444z" fill="#ffffff" stroke="#000000" stroke-width="2" stroke-linecap="butt"/><path d="M350.59072,151.25937c-9.12807,0 -16.52783,-7.71296 -16.52783,-17.22736c0,-9.51441 7.39977,-17.22736 16.52783,-17.22736c9.12807,0 16.52783,7.71296 16.52783,17.22736c0,9.51441 -7.39977,17.22736 -16.52783,17.22736z" data-paper-data="{&quot;index&quot;:null}" fill="#ffffff" stroke="#000000" stroke-width="2" stroke-linecap="butt"/><g fill="#bebe3e" stroke="#000000" stroke-width="2" stroke-linecap="butt"><path d="M272.06499,95.25524c-5.08177,-5.8169 0.19593,-9.54906 0.19593,-9.54906c0,0 -5.21063,-0.66874 -5.92561,-7.45768c-0.91884,-8.7246 24.76632,-1.65793 24.76632,-1.65793l2.05183,7.27117c0,0 -16.41844,16.73911 -21.08847,11.39352z"/><path d="M302.96828,80.85682l-2.37057,-7.17359c0,0 17.32647,-20.23508 21.44953,-12.49148c3.20831,6.02559 -0.73482,9.49684 -0.73482,9.49684c0,0 6.46252,0.13779 5.50831,7.80266c-0.87689,7.04383 -23.85246,2.36557 -23.85246,2.36557z" data-paper-data="{&quot;index&quot;:null}"/><path d="M289.34596,80.81915c-1.25301,-4.09268 1.049,-8.42625 5.14168,-9.67926c4.09268,-1.25301 8.42624,1.04901 9.67926,5.14169c1.25301,4.09268 -1.049,8.42624 -5.14169,9.67925c-4.09268,1.25301 -8.42624,-1.049 -9.67925,-5.14168z"/></g></g></g></svg>