<svg version="1.1" xmlns="http://www.w3.org/2000/svg" xmlns:xlink="http://www.w3.org/1999/xlink" width="273.52989" height="367.69737" viewBox="0,0,273.52989,367.69737"><g transform="translate(-205.75089,1.53308)"><g data-paper-data="{&quot;isPaintingLayer&quot;:true}" fill="#000000" fill-rule="nonzero" stroke="#000000" stroke-linejoin="miter" stroke-miterlimit="10" stroke-dasharray="" stroke-dashoffset="0" style="mix-blend-mode: normal"><path d="M247.98752,141.80466l-21.03045,-140.96459l84.20145,67.37935" stroke-width="2" stroke-linecap="round"/><path d="M372.51087,82.79206l104.54462,-26.46287l-77.51615,119.6016" data-paper-data="{&quot;index&quot;:null}" stroke-width="2" stroke-linecap="round"/><path d="M271.6287,200.51054l-43.80525,-6.54451l23.08837,-24.47562l-41.9673,-12.47264l34.6398,-12.55785" stroke-width="2" stroke-linecap="round"/><path d="M270.86211,199.35365l-40.42191,-6.03905l22.62743,-24.58823l-39.40328,-11.84214l6.12637,-2.53764l33.23249,14.41087l-18.06997,19.66923z" stroke-width="0" stroke-linecap="round"/><path d="M406.35161,159.07442l31.8487,18.52769l-43.51791,4.79712l18.35901,28.19707l-44.27043,-1.3636" data-paper-data="{&quot;index&quot;:null}" stroke-width="2" stroke-linecap="round"/><path d="M407.14931,203.88779l-14.27709,-22.57358l35.26807,-8.26036l5.57633,3.58839l-40.88257,4.63345l17.88539,28.22576l-40.85117,-1.25827z" data-paper-data="{&quot;index&quot;:null}" stroke-width="0" stroke-linecap="round"/><path d="M274.62806,365.15993l19.02338,-171.52839l49.13371,-0.397l18.32156,171.58805z" stroke-width="2" stroke-linecap="butt"/><path d="M290.94447,230.64608l3.92563,-34.25313l46.59471,-0.36648l3.73118,33.93489c0,0 -9.75201,5.49478 -28.01317,5.97385c-16.23392,0.42589 -26.23836,-5.28913 -26.23836,-5.28913z" stroke-width="0" stroke-linecap="butt"/><path d="M242.02972,135.57206c3.87285,-43.13357 44.26313,-74.75559 90.21419,-70.62975c45.95107,4.12583 80.06218,42.43715 76.18931,85.57073c-3.87285,43.13357 -44.26312,74.7556 -90.21418,70.62976c-45.95106,-4.12583 -80.06217,-42.43717 -76.18932,-85.57075z" stroke-width="2" stroke-linecap="butt"/><path d="M317.1912,217.17721c29.59726,0.40105 51.07794,-13.5247 49.81489,-12.62148c-13.79475,9.86477 -31.01149,15.75249 -49.70283,15.82541c-18.51098,0.07221 -35.62023,-5.56981 -49.42229,-15.15581c-0.52373,-0.36375 19.71297,11.55084 49.31023,11.95188z" stroke-width="0" stroke-linecap="butt"/><path d="M259.64797,137.51384c1.50812,-16.79656 16.347,-29.19029 33.14356,-27.68216c16.79656,1.50812 29.19028,16.34698 27.68216,33.14355c-1.50812,16.79656 -16.34699,29.1903 -33.14355,27.68217c-16.79656,-1.50812 -29.1903,-16.347 -27.68217,-33.14356z" stroke-width="2" stroke-linecap="butt"/><path d="M270.77419,138.15296c0.96522,-10.74996 10.46222,-18.68206 21.21217,-17.71684c10.74996,0.96522 18.68206,10.46223 17.71684,21.21221c-0.96522,10.74996 -10.46223,18.68207 -21.21219,17.71686c-10.74996,-0.96522 -18.68205,-10.46223 -17.71682,-21.21221z" stroke-width="5" stroke-linecap="butt"/><path d="M347.88747,187.56603c0,0 -18.20832,14.73966 -30.42851,14.85084c-12.22019,0.11118 -32.13344,-14.28166 -32.13344,-14.28166" stroke-width="2" stroke-linecap="round"/><path d="M259.68673,137.0821c1.50812,-16.79656 16.347,-29.19029 33.14356,-27.68216c16.79656,1.50812 29.19028,16.34698 27.68216,33.14355c0,0 -7.89714,-24.06766 -28.91832,-25.81074c-20.63871,-1.71137 -31.97812,21.13689 -31.90741,20.34934z" stroke-width="2" stroke-linecap="butt"/><path d="M357.60732,176.96743c-16.79656,-1.50812 -29.19029,-16.347 -27.68216,-33.14356c1.50812,-16.79656 16.34698,-29.19028 33.14355,-27.68216c16.79656,1.50812 29.1903,16.34699 27.68217,33.14355c-1.50812,16.79656 -16.347,29.1903 -33.14356,27.68217z" data-paper-data="{&quot;index&quot;:null}" stroke-width="2" stroke-linecap="butt"/><path d="M379.68877,147.93214c-0.96521,10.74998 -10.46221,18.68208 -21.21217,17.71685c-10.74996,-0.96522 -18.68205,-10.46225 -17.71684,-21.21221c0.96521,-10.74998 10.46224,-18.68207 21.21219,-17.71686c10.74996,0.96522 18.68205,10.46224 17.71682,21.21219z" data-paper-data="{&quot;index&quot;:null}" stroke-width="5" stroke-linecap="butt"/><path d="M362.29169,122.75474c-20.99545,-2.02949 -32.36652,21.06914 -32.36652,21.06914c1.50812,-16.79656 16.34698,-29.19028 33.14355,-27.68216c16.79656,1.50812 29.1903,16.34699 27.68217,33.14355c-0.07072,0.78755 -7.84574,-24.53797 -28.45919,-26.53053z" data-paper-data="{&quot;index&quot;:null}" stroke-width="2" stroke-linecap="butt"/><path d="M255.25604,133.33313l4.36047,3.78626" stroke-width="2" stroke-linecap="round"/><path d="M390.199,148.58295l5.83538,-3.91534" stroke-width="2" stroke-linecap="round"/><path d="M279.36698,101.66995c0,0 9.29079,-5.91511 16.02016,-6.8703c6.72938,-0.95519 15.89421,2.34025 15.89421,2.34025c0,0 -10.4042,-1.01288 -15.60109,-0.2752c-5.43094,0.7709 -16.3133,4.80525 -16.3133,4.80525z" stroke-width="0" stroke-linecap="butt"/><path d="M362.73542,102.88543c-4.98234,-1.65164 -15.40057,-2.50837 -15.40057,-2.50837c0,0 9.60528,-1.61011 16.05687,0.52856c6.45157,2.13868 14.54006,9.61422 14.54006,9.61422c0,0 -9.98961,-5.90841 -15.19636,-7.63443z" data-paper-data="{&quot;index&quot;:null}" stroke-width="0" stroke-linecap="butt"/></g></g></svg>