<svg version="1.1" xmlns="http://www.w3.org/2000/svg" xmlns:xlink="http://www.w3.org/1999/xlink" width="105.83039" height="249.05999" viewBox="0,0,105.83039,249.05999"><g transform="translate(-280.77011,-60.58817)"><g data-paper-data="{&quot;isPaintingLayer&quot;:true}" fill-rule="nonzero" stroke-linecap="butt" stroke-linejoin="miter" stroke-miterlimit="10" stroke-dasharray="" stroke-dashoffset="0" style="mix-blend-mode: normal"><path d="M282.56373,308.53989c0,0 -0.63536,-94.38387 -0.79335,-118.01201c-0.05451,-8.15261 8.18688,-36.76129 40.20201,-36.9211c31.60235,-0.15775 39.85672,29.48704 39.84884,36.89673c-0.07659,46.24274 0.65429,117.98648 0.65429,117.98648l-10.49667,0.09614l-0.15882,-114.84311c0,0 0.07549,-3.0993 -2.81625,-3.15415c-3.43441,-0.06514 -2.94538,3.11562 -2.94538,3.11562l0.20548,114.86995l-48.21366,0.07222l-0.30539,-115.23309c0,0 0.27949,-2.919 -2.8856,-2.93443c-3.11083,-0.01515 -2.81569,2.90899 -2.81569,2.90899l0.35311,115.0668z" fill="#999999" stroke="#000000" stroke-width="2"/><path d="M321.66272,265.26944c-0.81895,0 -1.48284,-0.66389 -1.48284,-1.48284c0,-0.81895 0.66389,-1.48284 1.48284,-1.48284c0.81895,0 1.48284,0.66389 1.48284,1.48284c0,0.81895 -0.66389,1.48284 -1.48284,1.48284z" data-paper-data="{&quot;index&quot;:null}" fill="#000000" stroke="none" stroke-width="1.5"/><path d="M297.59946,308.55433v-119.20147c0,0 0.75721,-9.73105 0.75721,-14.63937c0,-4.498 -0.75721,-13.6872 -0.75721,-13.6872c0,0 2.67319,-2.35297 4.6557,-3.74807c1.98251,-1.3951 5.17197,-2.80371 5.17197,-2.80371c0,0 -0.6016,40.10902 14.55952,40.03867c15.43477,-0.07162 13.83154,-40.03867 13.83154,-40.03867c0,0 3.91276,1.51959 6.16585,2.94655c2.25309,1.42695 4.75379,3.60523 4.75379,3.60523c0,0 -0.75721,9.42463 -0.75721,14.19201c0,4.84193 0.75721,14.63937 0.75721,14.63937v118.69667z" fill="#0f0e02" stroke="#000000" stroke-width="2"/><path d="M361.85602,118.29755c0,0 1.4812,0.48028 4.11158,1.56189c2.40255,0.98793 4.23579,2.21278 4.23579,2.21278l0.068,1.18455c0,0 -6.87064,-3.89206 -14.76208,-4.08316c-6.30981,-0.15277 -10.20801,1.72373 -10.20801,1.72373l0.49504,-4.14764c0,0 3.29274,-1.3577 8.01769,-0.99843c4.89266,0.37204 7.9802,1.45863 7.9802,1.45863z" data-paper-data="{&quot;index&quot;:null}" fill="#000000" stroke="none" stroke-width="1.5"/><path d="M321.54994,118.05428c0,0 3.54583,-1.44576 8.23137,-1.404c5.19216,0.04627 7.73024,0.7702 7.73024,0.7702l-0.15195,4.1452c0,0 -3.74,-1.08951 -7.91529,-1.38107c-5.58393,-0.38993 -6.76051,0.70942 -11.03798,0.70728c-3.66517,-0.00183 -6.71519,-0.56721 -6.71519,-0.56721l0.10681,-1.22718c0,0 3.56632,0.4605 5.21067,0.49534c1.35718,0.02875 4.05357,-0.50473 4.05357,-0.50473z" fill="#000000" stroke="none" stroke-width="1.5"/><path d="M320.88696,170.20021l-0.52332,-0.65038c-1.91895,-2.40559 -4.29072,-3.66799 -6.17704,-6.01232c-0.03319,-0.04125 -0.58181,-0.52484 -1.00777,-1.03436c-0.0567,0.19581 -0.13517,0.37041 -0.22706,0.48094c-0.06232,0.07495 -0.12912,0.14492 -0.19959,0.21085l0.04677,0.03906l-0.67221,0.80485c-0.2067,0.25493 -0.53452,0.40302 -0.88508,0.36507c-0.54908,-0.05944 -0.946,-0.55274 -0.88656,-1.10182l0.10209,-0.94302c-0.8284,-1.42374 -1.33537,-3.23727 -2.22341,-4.55829c-1.20365,-1.79052 -3.30944,-3.56759 -3.99758,-5.73825c-0.47252,-1.49055 -0.16545,-3.00073 -0.92483,-4.40209c-0.60082,-1.24862 -1.089,-3.28222 -1.13539,-4.71409c-0.01416,-0.43684 0.24792,-3.89979 -0.23471,-3.90709c-1.52623,-0.02308 -2.77739,1.74514 -3.98141,2.38347c-2.64626,1.40297 -5.38734,2.40195 -8.18933,1.93734l-0.03357,0.31006l-1.17371,-0.12706c-0.54908,-0.05944 -0.946,-0.55274 -0.88656,-1.10182c0.03795,-0.35056 0.25277,-0.63911 0.54603,-0.78645l0.93006,-0.48439c2.54152,-1.30744 4.70143,-2.73957 6.78204,-4.62936c-1.18988,0.06168 -2.399,-0.18164 -3.7951,-0.65069c-0.65645,-0.22054 -2.75309,-0.95821 -2.92688,-1.52923c-0.21072,-0.69233 1.54051,-2.47724 1.97507,-2.88598c2.11619,-1.9905 5.41302,-4.17382 6.80278,-6.72995c0.59372,-1.09201 0.69388,-2.10775 1.52314,-3.10064c0.54662,-1.55122 1.12698,-2.8581 1.94363,-4.24258c0.06657,-0.11287 0.12806,-0.28261 0.1904,-0.4572c-0.20136,0.09631 -0.4119,0.17757 -0.55888,0.23009c-1.42421,0.50897 -4.03708,1.08721 -4.81606,-0.93695c-0.85778,-2.22891 2.05902,-4.19834 3.41779,-5.26885c1.33126,-1.04884 1.81417,-2.9563 1.98565,-4.54029c2.77038,-7.52362 5.47688,-15.40692 10.83626,-21.82377c3.89158,-4.65944 9.20598,-9.25148 13.98935,-12.88841c1.18695,-0.90248 2.99038,-1.12189 4.36004,-1.81468c2.16693,-0.29905 4.09897,-1.42854 6.38003,-1.46581c7.15278,-0.11691 14.32877,2.6517 21.34753,3.51788c2.3812,1.48909 5.07514,1.82063 7.54727,3.25336c3.2512,1.88423 5.98082,4.64869 9.09855,6.63482c2.37993,1.51611 3.95329,2.2774 5.29702,4.93401c0.46751,3.22535 1.69104,6.10408 1.73502,9.37783c0.07488,5.57485 -2.13547,12.35253 -0.15296,17.68723c-0.28207,3.02787 1.68629,5.56991 2.59038,8.41174c1.02862,3.23326 0.9454,6.26528 1.40397,9.5358c0.37581,2.68037 1.02875,4.83108 -0.32506,6.76017l0.31345,0.26181l-0.67221,0.80485c-0.20669,0.25494 -0.53452,0.40302 -0.88508,0.36507c-0.47314,-0.05122 -0.83329,-0.42459 -0.88583,-0.8782l-0.14555,-1.05465c-1.20665,-2.25279 -1.22253,-4.66744 -2.65494,-6.84977c-0.06204,-0.09452 -0.1303,-0.18106 -0.2022,-0.26126c0.3302,4.98438 -0.92704,10.14846 -2.57665,14.70687c-1.93736,5.26134 -4.00799,10.03966 -5.8154,15.37793c-0.90087,2.66078 -1.56539,5.20353 -3.4103,6.93477l0.27446,0.3411l-0.97557,0.78498c-0.1994,0.16043 -0.45999,0.2448 -0.73453,0.21508c-0.54907,-0.05944 -0.946,-0.55274 -0.88656,-1.10182l0.12706,-1.17371c0.03373,-0.30161 -0.07422,-1.50537 -0.08747,-2.56575c-0.35942,0.77017 -0.77827,1.52411 -0.83045,1.62788c-0.87252,1.73511 -1.76125,2.7752 -3.0265,3.70207l0.10181,0.09509l-0.9994,1.06991c-0.20761,0.22715 -0.51695,0.35574 -0.84635,0.32008c-0.54907,-0.05944 -0.946,-0.55274 -0.88656,-1.10182c0.00985,-0.09096 0.0316,-0.17773 0.06354,-0.25897l0.38077,-1.03405c0.12262,-1.16477 0.25114,-2.81061 0.53413,-4.16548c-0.50171,0.35677 -1.04325,0.67632 -1.38445,1.0055c-2.08628,2.01279 -4.08224,3.47764 -6.48221,4.85698c-1.26671,1.22125 -2.65268,2.26362 -4.13012,3.13193c-0.2235,0.26783 -0.44716,0.53555 -0.67078,0.8033c-2.54017,3.04137 -6.24671,4.94993 -9.58633,6.6481c-0.91138,0.46343 -1.57766,1.52966 -2.75073,1.87794c-3.1797,0.94402 -7.96041,-1.44898 -9.11598,-4.37054c-0.44053,-0.86874 -0.39827,-2.16438 -1.01467,-2.87213c-1.52131,-1.7468 -3.03531,-3.42441 -4.47704,-5.22673c-0.33946,-0.09341 -0.55807,-0.3651 -0.55807,-0.3651zM327.48027,174.53823c0.80691,1.06126 0.67941,2.18952 1.28429,3.31408c0.66991,1.97015 4.5162,3.9699 6.68063,3.2769c1.07843,-0.34528 1.50068,-1.24981 2.38883,-1.72179c1.95447,-1.03865 4.08558,-2.08722 5.99478,-3.44401c-3.41541,1.01007 -7.09136,1.29407 -10.77985,0.89476c-2.67437,-0.30509 -4.08239,-1.50944 -6.08472,-2.97869c0.1756,0.21812 0.3479,0.43761 0.51605,0.65875zM348.96813,170.70383l1.0493,-0.85055c0,0 0.34414,-0.2769 0.75901,-0.23393c0.42283,-0.22395 0.83463,-0.45011 1.23692,-0.67944c0.53785,-0.5224 1.05495,-1.07943 1.54943,-1.67148c1.26093,-0.46795 0.30641,-1.28367 -0.90108,-1.98452l-0.00812,0.01075c-2.34102,0.32307 -4.43877,1.28395 -6.66115,1.64067c-2.21521,0.35558 -4.69405,-0.62477 -6.97483,-0.41996c-0.4853,-0.05365 -0.97347,-0.1096 -1.46374,-0.16857c-0.19164,0.00303 -0.41089,-0.02571 -0.64594,-0.07937c-3.87126,-0.4861 -7.85219,-1.17981 -11.57491,-2.4406c-2.75802,-0.93407 -5.79322,-3.02966 -8.62663,-3.28433c0,0 -0.20095,-0.02175 -0.41237,-0.13604c-0.01263,0.17722 -0.0133,0.37121 -0.0014,0.58406c2.43146,1.82053 4.34278,4.99133 6.21608,7.36904c1.31439,1.66833 3.65501,2.46652 5.33212,3.68405c1.8803,1.36505 2.97833,2.57898 5.42337,2.82617c5.20398,0.56338 10.23437,-0.30815 14.50854,-2.74155c0.39777,-0.47537 0.79604,-0.95032 1.19537,-1.42442zM366.77601,141.89473c0.92538,-0.17928 1.27071,-1.00986 2.19204,-1.75457c3.30241,-2.66936 4.1667,-5.7681 4.64866,-9.94354c-0.2731,-2.65843 -2.97637,-0.38253 -3.8584,0.84558c-0.52773,0.73479 -0.99584,1.52245 -1.39723,2.34837c0.00312,0.48978 0.06234,0.99456 -0.11298,1.44017c-0.47167,1.19885 -0.94336,2.40542 -1.40941,3.62064c-0.14928,1.14142 -0.17469,2.29858 -0.06268,3.44336zM357.77521,158.94137c0.61021,-1.44772 1.79332,-2.39818 2.1838,-4.04799c0.78028,-3.2967 -0.19252,-6.88816 2.30014,-9.53837c0.77729,-2.63839 1.69208,-5.21704 2.68303,-7.73672c0.28606,-1.75778 0.82864,-3.47894 1.59498,-5.06836c-0.00041,-0.29329 0.02052,-0.58142 0.12436,-0.84883c0.89929,-2.31571 1.96108,-4.71649 2.60772,-7.23389l-0.19966,-0.14412c-1.73721,-0.66062 -3.41157,-1.6279 -4.77971,-2.9055c-0.71061,-0.04248 -1.42567,-0.11452 -2.14345,-0.2058c-0.0663,0.0038 -0.13749,0.00203 -0.21392,-0.00624c-0.10054,-0.01088 -0.18981,-0.03084 -0.26907,-0.05792c-3.68826,-0.50983 -7.43852,-1.46478 -11.02055,-1.46869c-1.28265,-0.0014 -4.07919,1.92096 -5.27156,0.70815c-0.50568,-0.51435 -0.37839,-1.37875 -0.13821,-2.15755c-0.00511,-0.00615 -0.01021,-0.01237 -0.0153,-0.01869c-0.6269,-0.7791 0.15221,-1.40599 0.15221,-1.40599l0.92893,-0.68158c1.05294,-0.38945 2.11076,-1.14397 3.16945,-1.45828c2.04197,-0.60624 4.45582,-0.15347 6.43239,0.32104c3.42055,0.82118 7.14634,0.17344 7.18217,4.3724c0.67139,0.05891 1.33604,0.12844 1.98914,0.21848c1.43781,1.1255 2.90589,2.22479 4.61604,2.84349c0.03823,-0.25769 0.07079,-0.51662 0.09709,-0.77682c0.44496,-4.11012 0.09918,-7.87552 -0.45457,-11.97678c-0.20149,-1.49228 0.25778,-3.2069 -1.56486,-3.90367c-2.53602,-0.96947 -3.465,0.17293 -5.88759,0.50726c-3.86075,2.09204 -9.3482,3.60698 -13.69446,4.217c-2.25414,0.31638 -4.32976,0.20534 -6.39552,1.27673l-0.06676,-0.00126l0.00919,0.02471l-1.21839,0.45279c-0.14604,0.05779 -0.30785,0.08191 -0.47484,0.06383c-0.54908,-0.05944 -0.946,-0.55275 -0.88656,-1.10182c0.03795,-0.35057 0.25276,-0.63911 0.54602,-0.78645l0.93006,-0.48439l0.05785,0.11107l0.00893,-0.00332c1.31497,-1.3164 2.79611,-2.37781 4.36902,-3.42776c0.44651,-0.29806 1.01724,-0.86201 1.58342,-1.31946c-0.71957,0.16467 -1.49953,0.05907 -2.20725,0.27786c-2.37849,0.7353 -4.88717,1.40494 -7.24659,2.24323c-2.41452,-0.22493 -4.03448,0.67952 -6.20422,1.34733c-4.05466,1.24796 -8.69797,1.49404 -12.66646,2.45497c-0.81538,0.19744 -1.16302,3.06273 -1.37945,3.66079c-0.5389,1.43317 -0.86643,2.8228 -1.03845,4.19309c1.24614,0.02565 2.50068,-0.04426 3.75959,-0.15931c0.2254,-0.80085 1.44042,-2.40785 1.90586,-2.58558c1.47354,-0.56268 3.40828,0.7323 4.88398,0.45288c1.82108,-0.34481 3.76682,-1.45996 5.67449,-1.49938c1.55471,-0.03211 5.31663,0.83644 6.07157,2.31428c0.38507,0.75377 -0.28751,3.28548 -1.03064,3.65466c-0.58098,0.28864 -1.27113,-0.25999 -1.9067,-0.38998c-1.34379,-0.50529 -2.71934,-0.77899 -4.11529,-0.8985c1.66283,1.3206 5.87138,1.52422 6.73578,3.59103c0.66398,1.5876 0.34982,3.19725 -0.38194,4.74967c0.24849,0.32469 0.2022,0.75221 0.2022,0.75221c-0.31084,2.87128 0.5369,5.40795 0.58339,8.25252c0.06954,4.25465 -0.94499,8.79863 -1.40341,13.03308c-0.35315,3.26207 -0.99182,6.41941 -1.34171,9.65135c-0.07725,0.71358 -0.53621,2.25586 -0.2073,2.96054c0.22135,0.47421 0.97797,0.38452 1.42958,0.64896c0.08024,0.04698 0.12919,0.16941 0.17749,0.27633c0.12086,0.01516 0.24163,0.03005 0.36227,0.04473c0.24693,-0.32946 0.01804,-1.01956 0.12403,-1.47434c0.45001,-1.93083 0.70176,-3.84706 0.92875,-5.83678c0.45053,-1.22351 0.80738,-2.47361 1.09968,-3.74193c-0.11761,-0.25747 -0.15776,-0.61657 0.16974,-1.00868c0.02096,-0.0251 0.04205,-0.04869 0.06326,-0.07085c1.31946,-6.53283 1.16613,-13.47977 3.42484,-19.72133c0.07816,-0.21223 0.15629,-0.42447 0.23445,-0.63671c-0.00094,-0.06619 -0.00143,-0.13233 -0.00141,-0.19843c-0.28666,-0.10014 -0.72681,-0.36565 -0.65332,-1.04445c0.0682,-0.62998 0.49239,-0.81755 0.79403,-0.87044c0.24051,-1.58826 0.79453,-3.05471 1.70148,-4.16721c1.78145,-2.1149 4.55381,-4.03457 7.39133,-4.09319c5.37429,-0.11103 13.84028,3.90311 11.57423,10.38961c-0.09777,0.90308 -0.11956,2.35508 -0.99415,2.93721c-0.00963,0.00641 -0.01935,0.01271 -0.02917,0.01889c-0.76292,3.04113 -2.62517,5.61224 -5.55666,7.13902c-2.0985,1.00977 -4.1431,0.28588 -6.29711,-0.22345c-2.08415,-0.49282 -4.19738,-0.86328 -5.64191,-2.67905c-0.65192,-0.81948 -1.17676,-1.8332 -1.55856,-2.94735c-1.36101,5.34306 -1.38681,11.10968 -2.46007,16.56631c1.68233,1.6422 2.50597,3.70622 0.0781,5.29365c1.40252,0.10184 2.89524,0.18006 4.10681,0.84869c2.31632,1.27831 4.35025,2.9761 6.6026,4.21513c0.07702,-0.0071 0.16093,-0.00652 0.25232,0.00338c0.45562,0.04932 0.67982,0.28484 0.78905,0.52554c0.18038,0.08358 0.36253,0.16362 0.54668,0.2397c0.32328,0.13358 0.61631,0.296 0.87584,0.48062c1.31283,-1.66482 2.12672,-3.46881 2.90738,-5.32092zM315.86033,139.25815c-0.64031,5.91464 0.20823,11.78757 -0.43882,17.76447l-0.11599,1.07145c1.82155,-2.46528 6.16163,-2.97728 9.45369,-2.24633c1.79603,0.39878 4.02981,1.93296 5.94672,1.57c0.6769,-0.12817 1.2196,-0.3073 1.78763,-0.43107c-3.26576,-2.87806 -1.43038,-6.24229 2.37655,-6.2461c0.00819,-0.07294 0.01624,-0.14594 0.02415,-0.21898c0.44924,-4.14965 1.46174,-8.62092 1.392,-12.78853c-0.03526,-2.10738 -0.48248,-4.04284 -0.61071,-6.06976c-0.95358,1.32484 -1.94865,2.55748 -2.5513,3.63654c-0.59671,1.06841 -0.96352,2.33761 -2.07319,3.09137c-0.74027,0.50284 -1.6564,0.68281 -2.45455,1.08754c-5.36318,0.76615 -10.76652,-3.58784 -11.97214,-8.71937c0.05851,2.81953 -0.46694,5.75434 -0.76405,8.49876zM356.7386,117.08084c-2.11335,-0.23525 -4.51102,-1.1993 -6.66262,-0.5104c-0.85702,0.27439 -1.69828,0.80922 -2.55074,1.20427c-0.08034,0.20708 -0.20919,0.51629 -0.33864,0.77971c0.9448,-0.4546 3.16282,-0.86763 3.42699,-0.87528c1.33556,-0.03864 2.48059,0.40041 3.73231,0.70092c2.14339,0.51456 4.4449,0.6652 6.72405,0.82472c-0.17378,-2.05695 -2.14115,-1.88013 -4.33136,-2.12393zM317.66733,124.16063c0,0 0.22579,-0.35111 0.61245,-0.45375l0.11152,-0.16973c1.32279,-1.35676 2.71883,-1.2222 4.52868,-1.67635c0.92648,-0.23248 1.76611,-0.86005 2.6278,-1.34872c-3.28101,0.3499 -6.59045,0.9747 -9.79095,0.93952c-0.05678,2.24311 0.23723,4.46541 0.62986,6.77616c0.06858,-1.37636 0.47028,-2.75787 1.28063,-4.06715zM325.97928,161.93413c2.38788,0.80848 4.8848,1.38387 7.38684,1.81392c-0.28244,-1.11926 0.07278,-2.52528 0.18643,-3.57511c0.04847,-0.44774 0.10245,-0.89386 0.16042,-1.33888c-1.49307,-0.05353 -2.54176,0.58075 -4.10329,0.43354c-3.81822,-0.35999 -6.32834,-2.16067 -10.21178,-1.168c-0.73741,0.18849 -1.37974,0.32563 -1.8864,0.5457c2.86673,0.5346 5.68698,2.34731 8.46777,3.28882zM339.03589,164.51547c2.09116,-0.18778 4.60749,0.82912 6.58636,0.45443c1.44084,-0.27282 2.82908,-0.74079 4.26909,-1.12853c-3.2477,-1.84316 -5.42474,-3.55912 -9.36132,-3.98529l-0.16264,0.17307c0,0 -0.14031,0.05214 -0.33252,0.0618c-0.1864,1.53493 -0.47358,3.07869 -1.09092,4.41474c0.03067,0.00327 0.06132,0.00654 0.09196,0.00978zM333.84017,155.5079l0.32737,0.20392c0.15296,-0.99068 0.30807,-1.98202 0.44839,-2.97985c-1.83102,0.05738 -2.73398,1.21342 -0.77576,2.77593zM345.41058,132.01399c-0.02294,0.06227 -0.04586,0.12455 -0.06879,0.18682c0.11617,2.13691 0.791,4.28707 1.85149,5.58204c1.16742,1.42555 2.89587,1.59682 4.54029,1.98565c1.49453,0.35339 3.50182,1.23631 4.91667,0.3968c2.06772,-1.07691 3.71887,-2.94866 4.41441,-5.12945c-0.95522,-0.12826 -2.01614,-0.45175 -2.91496,-0.76703c-2.26985,5.38965 -7.53778,1.03221 -10.50399,-1.4199c0,0 -0.38387,-0.32061 -0.38192,-0.77983c-0.60381,-0.05594 -1.21523,-0.11538 -1.83606,-0.18199zM361.24965,132.50894l0.37447,0.17023l0.25847,-0.63144c0,0 0.10539,-0.23007 0.3259,-0.40571c-0.00827,-0.08949 -0.01022,-0.17525 -0.00163,-0.25459c0.74932,-1.91368 0.10771,-2.90818 -1.02606,-4.32367c-0.40303,-0.50318 -0.4009,-1.38025 -0.97734,-1.66897c-0.66608,-0.33362 -1.48147,-0.2311 -2.1813,-0.48647c-4.42805,-1.61579 -8.07498,-1.97818 -11.29866,1.92135c-0.66621,0.77155 -1.07746,1.84239 -1.26977,3.03163c2.01212,0.18148 4.07493,0.32737 6.0986,0.60498c3.242,0.33769 6.37995,0.82115 9.69729,2.04267zM329.27408,118.38677c2.25301,-0.03374 4.48709,0.20008 6.67892,0.99326c0.77255,0.92374 0.51457,-0.39574 0.44166,-0.52564c-0.31885,-0.56815 -3.46446,-1.18445 -4.23768,-1.17673c-0.94479,0.00944 -1.91864,0.3516 -2.8829,0.7091zM328.16933,134.13173c-1.86129,0.37824 -3.52631,-0.63698 -4.99184,-1.47383c-0.66292,-0.37855 -2.1152,-0.46921 -2.56235,-1.07976c-0.79226,-1.08173 -0.40417,-1.98408 -0.0378,-2.9558c-0.75416,-0.09275 -1.50875,-0.18137 -2.26374,-0.26415c-0.21465,4.77879 4.99936,9.82339 9.67535,9.21506c0.60897,-0.32756 1.32628,-0.44065 1.90756,-0.81516c0.82594,-0.53214 1.06612,-1.70064 1.49641,-2.45953c0.69311,-1.22242 1.84245,-2.52732 2.83644,-3.92063l-0.30115,-0.0326c-0.86254,-0.09338 -1.72589,-0.19487 -2.59,-0.30183c-0.60202,1.67184 -1.11735,3.67132 -3.16889,4.08822zM334.14348,128.35696l0.88028,0.0953c0,0 0.15833,0.01714 0.34178,0.10092c0.6245,-1.2212 0.96221,-2.50519 0.66217,-3.85538c-0.1069,-0.48108 -0.91335,-0.37117 -1.37689,-0.53846c-1.48273,-0.53508 -3.10041,-0.9079 -4.28815,-1.96169c-0.87445,-0.05227 -2.10784,-0.45792 -2.94492,-0.31881c-1.30518,0.21687 -2.66026,1.56888 -4.00979,1.92152c-0.98814,0.25822 -3.08338,0.28755 -3.48162,1.01886l-0.28338,0.45493c0,0 -0.21619,0.33618 -0.58775,0.4468c-0.12234,0.22075 -0.22868,0.44487 -0.31974,0.67166c5.15673,0.57265 10.29915,1.41126 15.40801,1.96434zM340.72363,156.22656c0.78349,-0.2541 0.71202,-0.7516 0.362,-1.25437c-0.1117,0.4208 -0.23198,0.83906 -0.362,1.25437z" fill="#000000" stroke="none" stroke-width="0.5"/><path d="M366.80179,138.48512c0.46603,-1.21522 0.92732,-2.47175 1.39899,-3.6706c0.17532,-0.44561 0.13127,-0.97247 0.12815,-1.46226c0.4014,-0.82591 0.89776,-1.62512 1.42549,-2.35991c0.88203,-1.22811 3.61693,-3.49575 3.89003,-0.83732c-0.48196,4.17544 -1.38579,7.36436 -4.6882,10.03372c-0.92133,0.74471 -1.27785,1.5711 -2.20322,1.7504c-0.11201,-1.14478 -0.10051,-2.31259 0.04877,-3.45402z" data-paper-data="{&quot;noHover&quot;:false,&quot;origItem&quot;:[&quot;Path&quot;,{&quot;applyMatrix&quot;:true,&quot;segments&quot;:[[[268.21396,123.01191],[-0.23457,-1.12607],[0.90071,-0.27784]],[[270.20442,121.0316],[-0.83582,0.83955],[2.99592,-3.00929]],[[273.75586,110.64549],[-0.02976,4.20306],[-0.55764,-2.61359]],[[270.01088,111.90144],[0.74473,-1.31591],[-0.44558,0.78732]],[[268.87451,114.38655],[0.31018,-0.86432],[0.05582,0.4866]],[[268.9172,115.83051],[0.12634,-0.46189],[-0.3399,1.24265]],[[267.90567,119.58181],[0.33253,-1.25832],[-0.02556,1.15086]]],&quot;closed&quot;:true}]}" fill="#ffffff" stroke="none" stroke-width="0.5"/><path d="M345.38515,131.86087c0.62083,0.06662 1.23548,0.12141 1.83929,0.17735c-0.00196,0.45923 0.38016,0.78221 0.38016,0.78221c2.96621,2.45212 8.32131,6.81862 10.59116,1.42896c0.89882,0.31528 1.96289,0.64947 2.91812,0.77772c-0.69555,2.1808 -2.36022,4.09627 -4.42794,5.17317c-1.41485,0.83951 -3.4745,-0.03125 -4.96903,-0.38464c-1.64442,-0.38884 -3.40498,-0.59615 -4.5724,-2.0217c-1.06049,-1.29498 -1.73005,-3.48092 -1.84622,-5.61782c0.02294,-0.06227 0.04643,-0.12552 0.06936,-0.1878z" data-paper-data="{&quot;noHover&quot;:false,&quot;origItem&quot;:[&quot;Path&quot;,{&quot;applyMatrix&quot;:true,&quot;segments&quot;:[[[245.90918,115.48812],[0,0],[-0.0161,0.06438]],[[245.8609,115.68126],[0.0161,-0.06438],[0.34549,2.11199]],[[248.30242,121.0316],[-1.19371,-1.17332],[1.31407,1.29162]],[[253.03005,122.51705],[-1.67672,-0.20959],[1.52388,0.19048]],[[257.96087,122.38236],[-1.31628,0.98691],[1.9398,-1.2932]],[[261.79756,116.80758],[-0.45679,2.24299],[-0.96348,-0.0247]],[[258.81698,116.35875],[0.92753,0.21671],[-1.67658,5.60265]],[[248.22118,116.07763],[3.2129,2.11862],[0,0]],[[247.75755,115.34344],[0.04748,0.45677],[-0.60632,0.00937]],[[245.91257,115.36011],[0.62439,-0.00059],[0,0]]],&quot;closed&quot;:true}]}" fill="#ffffff" stroke="none" stroke-width="0.5"/><path d="M341.08729,154.92221c0.35003,0.50277 0.39546,1.0939 -0.38803,1.348c0.13001,-0.41532 0.27633,-0.92719 0.38803,-1.348z" data-paper-data="{&quot;noHover&quot;:false,&quot;origItem&quot;:[&quot;Path&quot;,{&quot;applyMatrix&quot;:true,&quot;segments&quot;:[[[243.85545,140.0645],[0.08455,-0.4269],[0.75159,-0.33695]],[[244.08034,138.77845],[0.40211,0.46218],[-0.06576,0.43038]]],&quot;closed&quot;:true}]}" fill="#ffffff" stroke="none" stroke-width="0.5"/><path d="M334.64552,152.69167c-0.1403,0.99784 -0.30773,2.07638 -0.46068,3.06706l-0.33557,-0.20167c-1.95821,-1.56251 -1.03477,-2.80801 0.79626,-2.86539z" data-paper-data="{&quot;noHover&quot;:false,&quot;origItem&quot;:[&quot;Path&quot;,{&quot;applyMatrix&quot;:true,&quot;segments&quot;:[[[236.93463,140.09088],[-2.11501,-1.34267],[0,0]],[[237.28205,140.25838],[0,0],[0.04544,-1.00139]],[[237.40711,137.24758],[-0.03209,1.00714],[-1.81421,0.25412]]],&quot;closed&quot;:true}]}" fill="#999999" stroke="none" stroke-width="0.5"/><path d="M338.89632,164.52091c0.61735,-1.33604 0.90883,-2.91998 1.09521,-4.4549c0.19222,-0.00966 0.33365,-0.06368 0.33365,-0.06368l0.16395,-0.17503c3.9366,0.42617 6.20341,2.18136 9.45111,4.02452c-1.44,0.38775 -2.85619,0.89065 -4.29704,1.16347c-1.97887,0.37469 -4.5637,-0.67207 -6.65484,-0.48429c-0.03064,-0.00325 -0.06139,-0.00682 -0.09206,-0.01009z" data-paper-data="{&quot;noHover&quot;:false,&quot;origItem&quot;:[&quot;Path&quot;,{&quot;applyMatrix&quot;:true,&quot;segments&quot;:[[[243.06965,148.48691],[-0.03081,0.00007],[2.0588,-0.41176]],[[249.66667,148.22981],[-1.92705,0.5855],[1.40311,-0.42631]],[[253.7895,146.64835],[-1.3899,0.54048],[-3.42721,-1.4829]],[[244.05361,143.69377],[3.9596,0],[0,0]],[243.91054,143.88335],[[243.58661,143.98057],[0.19006,-0.03029],[-0.02011,1.54608]],[[242.97718,148.48708],[0.46997,-1.39472],[0.03084,-0.00005]]],&quot;closed&quot;:true}]}" fill="#999999" stroke="none" stroke-width="0.5"/><path d="M317.46268,158.63447c0.50666,-0.22007 1.15107,-0.36411 1.88847,-0.5526c3.88343,-0.99268 6.48841,0.81213 10.30664,1.17212c1.56154,0.14722 2.61118,-0.48298 4.10426,-0.42945c-0.05797,0.44503 -0.11105,0.8991 -0.15953,1.34684c-0.11365,1.04984 -0.47281,2.47692 -0.19037,3.59618c-2.50204,-0.43006 -5.03053,-0.97709 -7.41841,-1.78557c-2.78079,-0.9415 -5.66432,-2.81292 -8.53105,-3.34751z" data-paper-data="{&quot;noHover&quot;:false,&quot;origItem&quot;:[&quot;Path&quot;,{&quot;applyMatrix&quot;:true,&quot;segments&quot;:[[[229.81105,147.32584],[-2.86597,-0.63674],[2.46103,0.54678]],[[237.35022,148.33418],[-2.53379,-0.15827],[-0.40126,-1.08236]],[[237.15078,144.75977],[0,1.05597],[0,-0.45036]],[[237.16616,143.41141],[-0.00974,0.44868],[-1.49016,0.10748]],[[233.13337,144.28406],[1.56831,-0.0217],[-3.83479,0.05306]],[[222.8552,144.22195],[3.75403,-1.40489],[-0.71284,0.26676]],[[221.03849,144.9675],[0.48003,-0.27332],[2.90762,0.22295]]],&quot;closed&quot;:true}]}" fill="#999999" stroke="none" stroke-width="0.5"/><path d="M348.04992,171.98802c-4.32164,2.34806 -9.42855,3.15448 -14.62032,2.4879c-2.43966,-0.2957 -3.54665,-1.55866 -5.39947,-2.96077c-1.65261,-1.2506 -3.98149,-2.11857 -5.26252,-3.81266c-1.82572,-2.41444 -3.66948,-5.64041 -6.06432,-7.50885c-0.00767,-0.21304 -0.0026,-0.4082 0.01354,-0.58513c0.20913,0.11847 0.40964,0.1441 0.40964,0.1441c2.82779,0.31088 5.82206,2.46386 8.56099,3.4525c3.69694,1.33445 7.74168,2.09494 11.60252,2.65779c0.23394,0.05832 0.45736,0.09668 0.64903,0.09746c0.48899,0.0687 0.98173,0.14359 1.46587,0.20687c2.2844,-0.15948 4.74774,0.88475 6.96958,0.57322c2.22903,-0.31254 4.2466,-1.21648 6.59357,-1.49301l0.10693,-0.02731c1.19334,0.72468 2.13209,1.56474 0.86213,2.00757c-0.50614,0.58212 -1.03415,1.13325 -1.58226,1.64487c-0.40676,0.22129 -0.8231,0.44138 -1.25029,0.6569c-0.41393,-0.0512 -0.76358,0.21971 -0.76358,0.21971l-1.06639,0.83273c-0.40867,0.46607 -0.81754,0.93871 -1.22467,1.4061z" data-paper-data="{&quot;noHover&quot;:false,&quot;origItem&quot;:[&quot;Path&quot;,{&quot;applyMatrix&quot;:true,&quot;segments&quot;:[[[253.61024,153.57032],[-0.34599,0.51432],[0,0]],[254.5619,152.61178],[[255.29132,152.29752],[-0.41708,0.00193],[0.39627,-0.26816]],[[256.44793,151.4889],[-0.37527,0.27129],[0.4785,-0.57725]],[[257.80846,149.66036],[-0.42789,0.64184],[1.20324,-0.60095]],[[256.69903,147.78435],[1.27591,0.56681],[0,0]],[[256.69211,147.79591],[0,0],[-2.29265,0.57316]],[[250.24624,150.14399],[2.17108,-0.59385],[-2.16407,0.59194]],[[243.26673,150.47717],[2.24549,-0.44909],[-0.48826,-0.00111]],[[241.79335,150.46712],[0.49376,0.00587],[-0.1902,0.02364]],[[241.14262,150.45773],[0.23946,0.02805],[-3.90109,-0.06661]],[[229.37227,149.27711],[3.83678,0.85279],[-2.84253,-0.6318]],[[220.44226,146.94034],[2.84436,-0.05176],[0,0]],[[220.01764,146.84947],[0.22251,0.09087],[0.00652,0.17755]],[[220.07911,147.43028],[-0.03474,-0.21033],[2.61328,1.54826]],[[227.05221,154.08748],[-2.11832,-2.16228],[1.48632,1.51717]],[[232.74987,157.17625],[-1.79841,-1.02996],[2.0163,1.15474]],[[238.44592,159.40229],[-2.45745,0.01739],[5.23439,0]],[[252.57511,155.11512],[-3.98744,2.87929],[0.3443,-0.51542]]],&quot;closed&quot;:true}]}" fill="#999999" stroke="none" stroke-width="0.5"/><path d="M316.59793,130.71695c1.20561,5.13153 6.66079,9.48488 12.02396,8.71872c0.79815,-0.40473 1.72171,-0.57936 2.46197,-1.0822c1.10966,-0.75377 1.41233,-1.94627 2.00904,-3.01468c0.60265,-1.07906 1.65973,-2.39014 2.61332,-3.71498c0.12823,2.02692 0.58658,3.97443 0.62184,6.08181c0.06974,4.16761 -0.94162,8.69193 -1.39086,12.84159c-0.00791,0.07305 -0.01643,0.14681 -0.02462,0.21976c-3.80693,0.0038 -5.65957,3.38483 -2.39382,6.26289c-0.56803,0.12377 -1.11653,0.3058 -1.79343,0.43397c-1.91691,0.36295 -4.17311,-1.16739 -5.96914,-1.56617c-3.29207,-0.73096 -7.65952,-0.22914 -9.48107,2.23614l0.1146,-1.07255c0.64705,-5.9769 -0.21283,-11.91376 0.42748,-17.8284c0.29711,-2.74442 0.83922,-5.69636 0.78072,-8.51589z" data-paper-data="{&quot;noHover&quot;:false,&quot;origItem&quot;:[&quot;Path&quot;,{&quot;applyMatrix&quot;:true,&quot;segments&quot;:[[[217.31028,125.87069],[0,-2.76046],[0,5.9492]],[[218.78599,143.5792],[0,-6.01182],[0,0]],[[218.78599,144.65691],[0,0],[1.54563,-2.64701]],[[227.94299,141.40613],[-3.35162,-0.37239],[1.82852,0.20316]],[[234.02415,142.32697],[-1.86671,0.56716],[0.65917,-0.20028]],[[235.755,141.706],[-0.55141,0.18419],[-3.55655,-2.50985]],[[237.44548,135.2404],[-3.78441,0.41352],[0.00029,-0.0734]],[[237.44592,135.02009],[0,0.07348],[0,-4.1739]],[[237.45341,122.15603],[0.51789,4.13589],[-0.26187,-2.09134]],[[236.19296,116.18725],[0.34564,2.00134],[-0.80545,1.41978]],[[234.04788,120.07726],[0.48301,-1.13765],[-0.47825,1.12643]],[[232.31946,123.37381],[1.02209,-0.86882],[-0.68185,0.57959]],[[229.99622,124.71921],[0.74995,-0.48828],[-5.24956,1.33894]],[[217.15516,117.33905],[1.75091,4.97196],[0.36163,2.79685]]],&quot;closed&quot;:true}]}" fill="#999999" stroke="none" stroke-width="0.5"/><path d="M351.51655,130.50114c-2.02369,-0.27761 -4.09943,-0.44732 -6.11154,-0.6288c0.1923,-1.18924 0.60278,-2.27803 1.269,-3.04957c3.22368,-3.89953 6.95959,-3.56098 11.38764,-1.94519c0.69983,0.25537 1.52197,0.16446 2.18805,0.49808c0.57642,0.28872 0.57776,1.17914 0.98079,1.68232c1.13378,1.4155 1.77147,2.43589 1.02214,4.34957c-0.00859,0.07935 -0.00718,0.16631 0.00109,0.25579c-0.2205,0.17565 -0.32722,0.4083 -0.32722,0.4083l-0.26045,0.63474l-0.37467,-0.16993c-3.31733,-1.22152 -6.53283,-1.69764 -9.77484,-2.03533z" data-paper-data="{&quot;noHover&quot;:false,&quot;origItem&quot;:[&quot;Path&quot;,{&quot;applyMatrix&quot;:true,&quot;segments&quot;:[[[261.70952,114.27544],[-3.42953,-0.85738],[0,0]],[262.10014,114.40438],[262.28915,113.74879],[[262.56949,113.31035],[-0.20031,0.19836],[-0.01785,-0.08808]],[[262.54047,113.05741],[0,0.07981],[0.539,-1.98321]],[[261.05502,108.86928],[1.27954,1.28525],[-0.45485,-0.45688]],[[259.90374,107.3152],[0.60415,0.225],[-0.69812,-0.25999]],[[257.68275,107.06633],[0.72325,0.17856],[-4.57623,-1.12981]],[[246.65652,110.19259],[2.78525,-4.22384],[-0.5793,0.83877]],[[245.72042,113.34326],[0.06319,-1.20303],[2.01996,-0.03614]],[[251.84871,113.28834],[-2.04181,-0.05819],[3.25951,-0.01321]]],&quot;closed&quot;:true}]}" fill="#999999" stroke="none" stroke-width="0.5"/><path d="M316.35145,128.26324c-0.39264,-2.31075 -0.69376,-4.59509 -0.63698,-6.8382c3.20049,0.03518 6.59286,-0.59228 9.87387,-0.94218c-0.86169,0.48867 -1.77854,1.17946 -2.70503,1.41194c-1.80984,0.45415 -3.12279,0.30413 -4.44559,1.6609l-0.10997,0.16524c-0.38666,0.10264 -0.6105,0.44227 -0.6105,0.44227c-0.81035,1.30928 -1.29724,2.72366 -1.36581,4.10003z" data-paper-data="{&quot;noHover&quot;:false,&quot;origItem&quot;:[&quot;Path&quot;,{&quot;applyMatrix&quot;:true,&quot;segments&quot;:[[[217.48184,110.66638],[-0.66473,1.38889],[0,0]],[[218.0419,110.14936],[-0.37337,0.14366],[0,0]],[[218.1345,109.96861],[0,0],[1.16908,-1.49125]],[[222.45645,107.81458],[-1.75045,0.6463],[0.89608,-0.33085]],[[224.92382,106.19087],[-0.80409,0.57857],[-3.22429,0.701]],[[215.29088,108.17873],[3.18569,-0.30949],[0.18497,2.23619]],[[216.6464,114.84774],[-0.63906,-2.25507],[-0.07996,-1.37575]]],&quot;closed&quot;:true}]}" fill="#999999" stroke="none" stroke-width="0.5"/><path d="M331.29535,130.06924c0.86411,0.10696 1.81721,0.16535 2.67975,0.25872l0.30141,0.03331c-0.994,1.39331 -2.1412,2.72335 -2.83431,3.94578c-0.43029,0.75889 -0.68151,1.95111 -1.50744,2.48325c-0.58128,0.3745 -1.3142,0.49997 -1.92317,0.82753c-4.67599,0.60833 -9.95432,-4.50846 -9.73967,-9.28725c0.75499,0.08278 1.58848,0.2324 2.34264,0.32514c-0.36639,0.97173 -0.74432,1.85667 0.04794,2.93841c0.44716,0.61054 1.90049,0.69766 2.56341,1.07621c1.46553,0.83686 3.03477,1.82357 4.89606,1.44534c2.05154,-0.41691 2.57137,-2.37461 3.17338,-4.04645z" data-paper-data="{&quot;noHover&quot;:false,&quot;origItem&quot;:[&quot;Path&quot;,{&quot;applyMatrix&quot;:true,&quot;segments&quot;:[[[228.99602,119.44923],[1.99475,-0.63529],[-1.80977,0.57637]],[[223.87455,118.52123],[1.54709,0.67426],[-0.69981,-0.305]],[[221.21087,117.72354],[0.51028,0.55887],[-0.90408,-0.99018]],[[220.85516,114.78898],[-0.25967,1.00552],[-0.75976,-0.01104]],[[218.57615,114.77001],[0.75951,0.00104],[0.30094,4.77413]],[[229.18711,122.89018],[-4.58335,1.10807],[0.57018,-0.3912]],[[230.99585,121.87445],[-0.5376,0.43489],[0.76387,-0.61794]],[[232.21885,119.26816],[-0.34611,0.80079],[0.55751,-1.28992]],[[234.61684,115.06501],[-0.83826,1.4922],[0,0]],[[234.31393,115.06501],[0,0],[-0.86758,0]],[[231.70649,115.04369],[0.8706,0.01334],[-0.41858,1.72692]]],&quot;closed&quot;:true}]}" fill="#ffffff" stroke="none" stroke-width="0.5"/><path d="M318.6863,126.40169c0.09106,-0.22679 0.19688,-0.45438 0.31922,-0.67513c0.37156,-0.11061 0.58755,-0.44916 0.58755,-0.44916l0.28328,-0.45778c0.39825,-0.73131 2.49474,-0.77221 3.48289,-1.03041c1.34952,-0.35264 2.75034,-1.74339 4.05552,-1.96027c0.83708,-0.1391 2.11021,0.28252 2.98466,0.33479c1.18774,1.05379 2.81851,1.45631 4.30124,1.99139c0.46356,0.16729 1.27017,0.06125 1.37708,0.54233c0.30004,1.35019 -0.04274,2.65647 -0.66724,3.87767c-0.18346,-0.08378 -0.34194,-0.10061 -0.34194,-0.10061l-0.88123,-0.09348c-5.10886,-0.55308 -10.34428,-1.40668 -15.50101,-1.97934z" data-paper-data="{&quot;noHover&quot;:false,&quot;origItem&quot;:[&quot;Path&quot;,{&quot;applyMatrix&quot;:true,&quot;segments&quot;:[[[234.31393,113.06501],[-5.13871,0],[0,0]],[235.19936,113.06501],[[235.55002,113.12857],[-0.19141,-0.06355],[0.48943,-1.28132]],[[235.79339,109.22432],[0.44362,1.31005],[-0.15806,-0.46678]],[[234.36654,108.83718],[0.47887,0.11643],[-1.53171,-0.37239]],[[229.89216,107.34842],[1.29426,0.91983],[-0.875,0.04215]],[[226.93003,107.34842],[0.81725,-0.22839],[-1.27426,0.35609]],[[223.15035,109.69035],[1.30373,-0.49584],[-0.95461,0.36307]],[[219.7986,111.07801],[0.31723,-0.76993],[0,0]],[219.56584,111.56081],[[219.02959,112.06827],[0.3575,-0.14996],[-0.09787,0.23264]],[[218.784,112.77044],[0.06612,-0.23527],[5.18841,0.01431]]],&quot;closed&quot;:true}]}" fill="#999999" stroke="none" stroke-width="0.5"/><path d="M354.88799,164.30804c-0.25953,-0.18462 -0.55341,-0.34667 -0.8767,-0.48025c-0.18414,-0.07608 -0.36688,-0.15587 -0.54727,-0.23946c-0.10922,-0.24069 -0.33423,-0.4759 -0.78984,-0.52522c-0.0914,-0.00989 -0.17566,-0.01035 -0.25267,-0.00324c-2.25235,-1.23904 -4.29522,-2.93439 -6.61154,-4.2127c-1.21157,-0.66864 -2.71234,-0.7461 -4.11486,-0.84795c2.42788,-1.58743 1.60419,-3.65143 -0.07814,-5.29364c1.07326,-5.45662 1.0611,-11.30639 2.42211,-16.64946c0.3818,1.11416 0.91294,2.12191 1.56487,2.94137c1.44452,1.81577 3.55001,2.19391 5.63417,2.68672c2.15401,0.50933 4.19289,1.24204 6.29139,0.23227c2.9315,-1.52678 4.78839,-4.0777 5.55131,-7.11884c0.00982,-0.00618 0.01954,-0.01244 0.02917,-0.01884c0.87458,-0.58213 0.8965,-2.02759 0.99426,-2.93067c2.26605,-6.4865 -6.18375,-10.46778 -11.55803,-10.35675c-2.83752,0.05863 -5.59716,1.9867 -7.37862,4.10161c-0.90695,1.1125 -1.41717,2.48907 -1.65768,4.07734c-0.30163,0.05288 -0.72994,0.23856 -0.79814,0.86855c-0.07349,0.6788 0.38168,0.95379 0.66834,1.05394c-0.00001,0.0661 0.00225,0.13397 0.00321,0.20016c-0.07816,0.21223 -0.15185,0.42964 -0.23,0.64188c-2.25872,6.24155 -2.15007,13.26826 -3.46953,19.80109c-0.02121,0.02216 -0.04245,0.04574 -0.06341,0.07084c-0.3275,0.39211 -0.28753,0.75119 -0.16992,1.00866c-0.2923,1.26832 -0.65068,2.51825 -1.1012,3.74175c-0.22699,1.98973 -0.47901,3.90591 -0.92901,5.83675c-0.10599,0.45478 0.12303,1.14491 -0.1239,1.47436c-0.12064,-0.01468 -0.24199,-0.02966 -0.36286,-0.04482c-0.0483,-0.10692 -0.0976,-0.22939 -0.17784,-0.27638c-0.4516,-0.26444 -1.21069,-0.17519 -1.43203,-0.64941c-0.32892,-0.70468 0.12934,-2.2471 0.20659,-2.96068c0.34988,-3.23193 0.98644,-6.38979 1.33959,-9.65186c0.45842,-4.23446 1.45486,-8.78749 1.38532,-13.04215c-0.04649,-2.84457 -0.89602,-5.45826 -0.58518,-8.32954c0,0 0.04835,-0.42921 -0.20014,-0.7539c0.73177,-1.55242 1.09363,-3.07559 0.42964,-4.66319c-0.86441,-2.0668 -5.05948,-2.27779 -6.72233,-3.59839c1.39595,0.11951 2.71893,0.30871 4.06272,0.814c0.63556,0.12999 1.33126,0.67628 1.91224,0.38765c0.74313,-0.36918 1.4423,-2.80473 1.05723,-3.5585c-0.75495,-1.47783 -4.50401,-2.35091 -6.05871,-2.3188c-1.90768,0.03942 -3.84277,1.1472 -5.66385,1.49201c-1.4757,0.27941 -3.406,-1.02011 -4.87953,-0.45743c-0.46543,0.17773 -1.67674,1.77982 -1.90215,2.58068c-1.25891,0.11505 -2.59876,0.13294 -3.8449,0.10728c0.17203,-1.37028 0.50329,-2.76563 1.04218,-4.1988c0.21643,-0.59807 0.56788,-3.46782 1.38326,-3.66526c3.9685,-0.96094 8.62838,-1.21847 12.68304,-2.46643c2.16974,-0.66781 3.8012,-1.57558 6.21572,-1.35065c2.35942,-0.8383 4.8815,-1.50831 7.25997,-2.2436c0.70772,-0.21879 1.49139,-0.11265 2.21096,-0.27732c-0.56619,0.45746 -1.15262,1.12014 -1.59913,1.41819c-1.5729,1.04995 -3.04585,2.11178 -4.36083,3.42818l-0.00892,0.00332l-0.05774,-0.11108l-0.92803,0.48429c-0.29326,0.14735 -0.50675,0.43577 -0.5447,0.78634c-0.05944,0.54907 0.32927,0.94274 0.87834,1.00218c0.16698,0.01808 0.32991,-0.00611 0.47595,-0.06389l1.2212,-0.45282l-0.00921,-0.02472l0.06691,0.00126c2.06574,-1.07138 4.15451,-0.95836 6.40865,-1.27473c4.34627,-0.61001 9.84961,-2.11704 13.71037,-4.20909c2.42259,-0.33433 3.35598,-1.47303 5.89199,-0.50356c1.82263,0.69677 1.36696,2.41513 1.56845,3.90742c0.55376,4.10126 0.90766,7.87971 0.46271,11.98983c-0.02631,0.26021 -0.15127,0.55733 -0.18951,0.81501c-1.71015,-0.6187 -3.17472,-1.71088 -4.61253,-2.83638c-0.6531,-0.09005 -1.31651,-0.1576 -1.98789,-0.21651c-0.03582,-4.19897 -3.75052,-3.53931 -7.17108,-4.36048c-1.97656,-0.47451 -4.37929,-0.92079 -6.42127,-0.31456c-1.05869,0.31431 -2.11041,1.07095 -3.16335,1.4604l-0.92695,0.68209c0,0 -0.75585,0.52964 -0.12896,1.30874c0.00509,0.00632 0.01025,0.01258 0.01536,0.01871c-0.2402,0.7788 -0.36522,1.64381 0.14045,2.15816c1.19237,1.21282 4.00214,-0.70341 5.2848,-0.70201c3.58203,0.00391 7.34731,0.97426 11.03557,1.48409c0.07926,0.02707 0.16874,0.04737 0.26928,0.05825c0.07642,0.00827 0.14774,0.01024 0.21404,0.00644c0.71779,0.09129 1.43407,0.16547 2.14468,0.20795c1.36814,1.2776 3.04581,2.25247 4.78302,2.9131l0.19976,0.14444c-0.64664,2.51741 -1.70604,4.92996 -2.60532,7.24567c-0.10384,0.26741 -0.12467,0.5572 -0.12425,0.85049c-0.76634,1.58942 -1.30954,3.32109 -1.5956,5.07887c-0.99095,2.51968 -1.91139,5.11454 -2.68869,7.75292c-2.49266,2.65021 -1.53059,6.25494 -2.31086,9.55163c-0.39048,1.64982 -1.57933,2.60462 -2.18954,4.05233c-0.78066,1.8521 -1.60161,3.65991 -2.91444,5.32473z" data-paper-data="{&quot;noHover&quot;:false,&quot;origItem&quot;:[&quot;Path&quot;,{&quot;applyMatrix&quot;:true,&quot;segments&quot;:[[[261.10017,140.92828],[-0.57678,1.92536],[0.45085,-1.50499]],[[262.83561,136.66876],[-0.21064,1.68226],[0.42092,-3.36153]],[[264.09578,126.93823],[-2.19294,2.9031],[0.48881,-2.70672]],[[265.93053,118.95768],[-0.714,2.6117],[0.09521,-1.77836]],[[266.97074,113.74708],[-0.59082,1.66267],[-0.03197,-0.29154]],[[267.00302,112.8898],[-0.07446,0.27703],[0.64483,-2.39905]],[[268.81701,105.41726],[-0.37194,2.57238],[0,0]],[[268.603,105.29547],[0,0],[-1.79822,-0.46981]],[[263.53834,102.92129],[1.4977,1.12293],[-0.71105,0.03425]],[[261.38518,102.94738],[0.72345,0.0135],[-0.06551,0.01091]],[[261.17184,102.9642],[0.07687,0],[-0.10113,0]],[[260.8981,102.93558],[0.08171,0.01838],[-3.72171,-0.1099]],[[249.78349,102.66156],[3.56164,-0.38165],[-1.27535,0.13666]],[[244.61877,103.93297],[1.31598,1.07744],[-0.5581,-0.45694]],[[244.24916,101.80282],[-0.15498,0.80013],[-0.00574,-0.00556]],[[244.23193,101.78588],[0.00574,0.00574],[-0.70711,-0.7071]],[244.23193,100.37166],[[245.08211,99.59406],[0,0],[1.00491,-0.50052]],[[248.07619,97.80312],[-1.01871,0.42643],[1.96486,-0.8225]],[[254.50576,97.42999],[-2.01615,-0.25902],[3.48906,0.44826]],[[262.11681,101.00398],[-0.48755,-4.17072],[0.67383,-0.01369]],[[264.11791,101.0071],[-0.659,-0.01923],[1.55059,0.96421]],[[269.01318,103.33725],[-1.76681,-0.43104],[0.01027,-0.26031]],[[269.0261,102.55448],[0.00185,0.26153],[0,-4.13414]],[[267.28511,90.6962],[0.99196,4.01784],[-0.36093,-1.46193]],[[265.30919,86.98363],[1.88704,0.49655],[-2.62563,-0.69089]],[[259.5104,88.12162],[2.37253,-0.59313],[-3.61316,2.49542]],[[246.34936,93.78805],[4.25537,-1.07425],[-2.20699,0.55715]],[[240.12841,95.7457],[1.93843,-1.28749],[0,0]],[240.06191,95.75164],[240.0737,95.77522],[[238.91113,96.35651],[0,0],[-0.13897,0.07317]],[[238.44592,96.47108],[0.16796,0],[-0.55229,0]],[[237.44592,95.47108],[0,0.55228],[0,-0.35262]],[[237.90412,94.63042],[-0.2757,0.17806],[0,0]],[238.77664,94.04874],[238.84611,94.15294],[[238.85464,94.14868],[0,0],[1.16565,-1.45028]],[[242.82934,90.2706],[-1.45076,1.21314],[0.41184,-0.34439]],[[244.26156,88.78838],[-0.51366,0.51574],[-0.69767,0.24116]],[[242.09703,89.30218],[0.68006,-0.29369],[-2.28553,0.98702]],[[235.13397,92.31234],[2.25549,-1.08737],[-2.4247,0.03625]],[[229.11079,94.3196],[2.08526,-0.89746],[-3.89679,1.67711]],[[216.78214,98.1236],[3.84202,-1.38249],[-0.78939,0.28405]],[[215.80471,101.91159],[0.1508,-0.61789],[-0.38152,1.48285]],[[215.22359,106.1921],[0.02355,-1.38084],[1.24166,-0.10862]],[[218.94419,105.62907],[-1.23921,0.24988],[0.1379,-0.82046]],[[220.56069,102.85337],[-0.4436,0.22679],[1.40442,-0.71801]],[[225.46503,102.77796],[-1.43705,0.43662],[1.77339,-0.53881]],[[230.94519,100.67655],[-1.89236,0.24451],[1.54222,-0.19926]],[[237.23058,102.32389],[-0.90962,-1.38799],[0.46396,0.70795]],[[236.59928,106.06825],[0.69908,-0.44702],[-0.54654,0.34949]],[[234.66168,105.88576],[0.64586,0.06083],[-1.39037,-0.35772]],[[230.47359,105.43541],[1.4007,-0.03143],[1.79531,1.13396]],[[237.55674,108.2806],[-1.08184,-1.96176],[0.831,1.50691]],[[237.68822,113.04379],[0.56043,-1.62216],[0.28199,0.29606]],[[237.97021,113.76987],[0,0],[0,2.88806]],[[239.43843,121.91166],[-0.35238,-2.82304],[0.52706,4.22245]],[[239.44592,135.02009],[0,-4.2592],[0,3.28113]],[[239.15078,144.75977],[0,-3.25081],[0,0.71775]],[[239.26333,147.72542],[-0.40285,-0.66519],[0.2711,0.44763]],[[240.75445,148.21676],[-0.47744,-0.2143],[0.08483,0.03807]],[[240.96064,148.47237],[-0.05953,-0.1011],[0.12179,0.00206]],[[241.32563,148.47785],[-0.12152,-0.00161],[0.21004,-0.35412]],[[241.29026,146.99872],[-0.05643,0.46355],[0.23958,-1.96805]],[[241.5854,141.09588],[-0.01152,2.0026],[0.31623,-1.26489]],[[242.27595,137.25733],[-0.15409,1.29241],[-0.14464,-0.24332]],[[242.33614,136.23624],[-0.28339,0.42508],[0.01814,-0.02721]],[[242.39141,136.15899],[-0.0187,0.02431],[0.60867,-6.63689]],[[243.67376,116.18361],[-1.57382,6.4484],[0.05486,-0.21941]],[[243.83832,115.52536],[-0.05486,0.21941],[-0.00806,-0.0657]],[[243.81556,115.32823],[0.0071,0.06572],[-0.29577,-0.06871]],[[243.05361,114.36016],[0,0.68277],[0,-0.63366]],[[243.74934,113.40932],[-0.29419,0.08504],[0.06817,-1.60492]],[[244.99242,109.08319],[-0.78194,1.20365],[1.54348,-2.29435]],[[251.90026,104.21825],[-2.81473,0.36369],[5.33112,-0.68882]],[[264.52549,113.30177],[1.55475,-6.69271],[0,0.90836]],[[263.85325,116.32893],[0.80685,-0.67288],[-0.00888,0.00741]],[[263.82628,116.35085],[0.0091,-0.0072],[-0.43117,3.10558]],[[259.07027,124.04646],[2.75014,-1.83343],[-1.97763,1.22977]],[[252.78569,124.50206],[2.19632,0.27454],[-2.12509,-0.26564]],[[246.88821,122.44581],[1.63156,1.64975],[-0.73633,-0.74455]],[[245.02148,119.68333],[0.4995,1.06659],[-0.77803,5.45851]],[[244.35874,136.41818],[0.47973,-5.54044],[1.84931,1.45159]],[[245.00613,141.67266],[2.24292,-1.83952],[1.40533,-0.0497]],[[249.18044,142.07441],[-1.2765,-0.53435],[2.44045,1.02158]],[[256.19835,145.55442],[-2.37262,-0.98942],[0.07581,-0.01535]],[[256.44957,145.53062],[-0.09193,0],[0.45828,0]],[[257.2906,145.96818],[-0.13449,-0.22754],[0.18833,0.06368]],[[257.85989,146.14765],[-0.19126,-0.05582],[0.33578,0.09801]],[[258.78238,146.53121],[-0.27789,-0.15561],[1.12602,-1.79645]]],&quot;closed&quot;:true}]}" fill="#999999" stroke="none" stroke-width="0.5"/><path d="M315.9303,128.83285c0.09876,1.02543 0.2516,2.04784 0.2537,3.09538c0.01212,6.06435 -0.60402,11.78483 -3.44798,17.1155c-2.26177,2.35775 -6.8275,1.01725 -7.5549,-2.18701c-1.54381,-6.80053 -0.48707,-15.08139 0.25438,-21.93031c0.19075,-1.76202 -0.0045,-3.93914 1.41521,-5.26232c1.72538,-1.60808 6.72401,-0.36562 8.30571,1.01074c1.74415,1.51772 1.02411,5.92276 0.77389,8.15803z" fill="#c300f0" stroke="none" stroke-width="0.5"/><path d="M367.39668,131.84857c-0.33301,-0.32901 -0.27789,-0.83817 -0.27789,-0.83817l0.03177,-0.29344c0.20427,-1.88688 -0.14975,-6.62125 1.93745,-7.505c1.87572,-0.79421 4.50983,1.30297 6.24516,1.49083c2.57755,2.0873 1.72326,4.39162 1.40312,7.34878c-0.72914,6.73519 -1.46111,14.36881 -6.49342,19.19612c-3.39223,-0.25548 -4.47008,-2.56383 -5.24305,-5.57128c-1.30814,-5.08967 1.18315,-9.19201 2.39687,-13.82785z" fill="#c300f0" stroke="none" stroke-width="0.5"/><path d="M312.19897,121.4654c-0.12414,-0.28147 -0.09325,-0.56676 -0.09325,-0.56676l0.06353,-0.58685c0.04793,-0.44271 0.25133,-2.5827 0.42255,-2.80381c1.5264,-1.97102 5.61158,-0.36571 6.11461,1.7357c0.70628,2.95051 -0.80351,7.82072 -1.13212,10.8561c-0.57672,5.3272 -0.22885,10.43509 -1.40561,15.68086c-0.41392,1.84518 -1.99283,7.26438 -5.03551,4.96123c-1.20874,-0.91495 -0.8663,-4.19952 -1.05112,-5.59637c0.78309,-7.64415 0.02317,-16.12996 2.11691,-23.68011z" fill="#00b539" stroke="none" stroke-width="0.5"/><path d="M365.37439,126.64273c-0.41982,-0.32101 -0.35644,-0.90649 -0.35644,-0.90649l0.03177,-0.29343c0.17053,-1.52107 0.53829,-5.22117 2.08948,-6.01296c0.83406,-0.42573 4.16397,1.26283 4.5937,1.95096c0.89532,1.43365 0.16658,1.87037 -0.1234,3.11385c-0.50062,2.14673 -0.56605,4.42323 -1.3209,6.50911c-1.14829,3.05384 -1.78749,7.43852 -1.73248,10.72652c0.03487,2.08358 0.97355,4.22606 0.18794,6.31166c-0.74951,1.98977 -3.74216,5.40383 -5.65633,2.70463c-0.66553,-0.93847 -0.34296,-2.82112 -0.90057,-3.94783c0.3347,-4.24601 0.495,-8.86632 1.37507,-13.03077c0.51177,-2.42174 1.29787,-4.72726 1.81214,-7.12528z" fill="#00b539" stroke="none" stroke-width="0.5"/><path d="M372.19732,142.82069c-2.23274,-1.12465 -1.10809,-3.3574 -1.10809,-3.3574l1.06117,-2.09308c3.22891,-9.61141 7.60882,-19.14343 8.6993,-29.21635c0.76697,-7.00407 1.01015,-14.6594 -0.23213,-21.57414c-0.40454,-2.25172 0.04033,-5.48042 -0.75193,-7.60271c-0.92877,-2.48795 -4.88015,-3.83339 -7.0498,-4.56526c-5.22537,-1.76261 -10.14186,-4.07376 -15.5894,-5.21789c-14.14044,-4.44058 -32.89792,-7.44213 -42.67905,6.84031c-1.83401,2.67803 -2.67434,6.18825 -3.7054,9.21902c-2.40631,10.87934 -5.51454,21.87439 -5.6467,33.16522c-0.0659,5.62974 1.07427,11.22737 1.69523,16.8072c0,0 0.27651,2.48466 -2.20815,2.76117c-2.48466,0.27651 -2.76117,-2.20815 -2.76117,-2.20815c-0.64312,-5.77896 -1.80696,-11.57312 -1.7257,-17.40592c0.16352,-11.73732 3.30961,-23.15192 5.83099,-34.46522c1.20336,-3.56862 2.24591,-7.5275 4.38676,-10.68558c10.98154,-16.19943 31.85893,-13.99435 48.08106,-8.86463c4.69545,0.99093 9.10958,2.67257 13.51168,4.50781c4.48632,1.87036 10.33349,3.05193 12.47619,8.19159c1.02459,2.45766 0.57951,5.99715 1.05383,8.62356c1.33523,7.3934 1.08621,15.52867 0.28465,23.01176c-1.14262,10.55451 -5.6316,20.56022 -9.05827,30.60944l-1.20766,2.41116c0,0 -1.12465,2.23274 -3.3574,1.10809z" fill="#82007c" stroke="none" stroke-width="0.5"/><path d="M304.988,192.13039c-0.39187,-0.66112 -1.06769,-3.02624 -1.70671,-3.46584c-3.62273,-2.4921 -5.60318,-0.41955 -9.22194,0.39448c-1.16368,-0.1194 -2.86389,-0.13973 -3.83003,-0.95338c-2.2011,-1.85368 -2.53102,-5.61974 -0.60664,-7.73735c1.17672,-1.29486 3.64994,-2.08242 4.0521,-3.95103c0.46977,-2.18278 -3.03657,-3.87473 -3.18897,-5.92631c-0.19575,-2.63525 3.06448,-4.28624 4.81267,-5.69289c0.1538,-0.12344 2.13942,-1.67406 2.28878,-1.95114c0.56894,-1.05548 -0.0705,-3.05714 -0.19085,-4.06548c-0.31729,-2.65821 -1.78189,-8.13088 -0.56854,-10.62816c1.61018,-3.31405 6.91438,-4.04117 9.55305,-6.20162c0,0 0.97388,-0.78361 1.7575,0.19026c0.78361,0.97388 -0.19026,1.7575 -0.19026,1.7575c-2.33639,1.85442 -7.45843,2.76149 -8.92698,5.4536c-0.64987,1.19134 0.48737,4.00101 0.67475,5.19043c0.371,2.35494 1.31945,7.15616 0.14762,9.38007c-0.47974,0.91044 -2.13749,2.14459 -2.97785,2.82229c-0.60362,0.48569 -4.09334,2.60118 -3.89648,3.45773c0.5645,2.45617 3.78187,3.48884 3.1695,6.63671c-0.60138,3.0914 -5.43179,3.9736 -5.50313,6.87775c-0.01145,0.46649 0.98992,1.45307 1.082,1.62693c0.39354,0.74306 1.37407,1.1198 2.2092,1.21759c1.57289,-0.32109 2.24262,-1.25524 3.82712,-1.61193c2.28751,-0.51494 5.33708,0.35547 7.15813,1.81907c1.58688,1.27539 1.84515,4.0401 3.07528,5.82101c-0.14062,0.91592 -0.24496,1.82241 -0.31546,2.74193c-1.02058,-0.73484 -1.80043,-1.71169 -2.68391,-3.20222z" fill="#00b539" stroke="none" stroke-width="0.5"/><path d="M361.85602,118.29755c0,0 1.4812,0.48028 4.11158,1.56189c2.40255,0.98793 4.23579,2.21278 4.23579,2.21278l0.068,1.18455c0,0 -6.87064,-3.89206 -14.76208,-4.08316c-6.30981,-0.15277 -10.20801,1.72373 -10.20801,1.72373l0.49504,-4.14764c0,0 3.29274,-1.3577 8.01769,-0.99843c4.89266,0.37204 7.9802,1.45863 7.9802,1.45863z" data-paper-data="{&quot;index&quot;:null}" fill="#000000" stroke="none" stroke-width="1.5"/><path d="M321.54994,118.05428c0,0 3.54583,-1.44576 8.23137,-1.404c5.19216,0.04627 7.73024,0.7702 7.73024,0.7702l-0.15195,4.1452c0,0 -3.74,-1.08951 -7.91529,-1.38107c-5.58393,-0.38993 -6.76051,0.70942 -11.03798,0.70728c-3.66517,-0.00183 -6.71519,-0.56721 -6.71519,-0.56721l0.10681,-1.22718c0,0 3.56632,0.4605 5.21067,0.49534c1.35718,0.02875 4.05357,-0.50473 4.05357,-0.50473z" fill="#000000" stroke="none" stroke-width="1.5"/></g></g></svg>