<svg viewBox="0,0,129.90658,352.14995" height="352.14995" width="129.90658" xmlns:xlink="http://www.w3.org/1999/xlink" xmlns="http://www.w3.org/2000/svg" version="1.1"><defs><linearGradient id="color-1" gradientUnits="userSpaceOnUse" y2="370.84726" x2="240.5018" y1="370.84726" x1="236.01738"><stop stop-color="#cccccc" offset="0"></stop><stop stop-opacity="0" stop-color="#cccccc" offset="1"></stop></linearGradient><linearGradient id="color-2" gradientUnits="userSpaceOnUse" y2="370.84578" x2="254.30786" y1="370.84578" x1="250.40251"><stop stop-opacity="0" stop-color="#cccccc" offset="0"></stop><stop stop-color="#cccccc" offset="1"></stop></linearGradient><linearGradient id="color-3" gradientUnits="userSpaceOnUse" y2="379.97413" x2="245.3424" y1="376.37042" x1="245.3424"><stop stop-opacity="0" stop-color="#d8d8d8" offset="0"></stop><stop stop-color="#d8d8d8" offset="1"></stop></linearGradient><linearGradient id="color-4" gradientUnits="userSpaceOnUse" y2="350.34726" x2="241.0018" y1="350.34726" x1="236.51738"><stop stop-color="#cccccc" offset="0"></stop><stop stop-opacity="0" stop-color="#cccccc" offset="1"></stop></linearGradient><linearGradient id="color-5" gradientUnits="userSpaceOnUse" y2="350.34578" x2="254.80794" y1="350.34578" x1="250.90251"><stop stop-opacity="0" stop-color="#cccccc" offset="0"></stop><stop stop-color="#cccccc" offset="1"></stop></linearGradient></defs><g transform="translate(-176.34359,-29.54686)"><g style="mix-blend-mode: normal" stroke-dashoffset="0" stroke-dasharray="" stroke-miterlimit="10" stroke-linejoin="miter" fill-rule="nonzero" data-paper-data="{&quot;isPaintingLayer&quot;:true}"><path stroke-linecap="round" stroke-width="0" stroke="#ff0000" fill="#000000" d="M261.11681,158.12831c0,0 -5.26963,3.09989 -11.79584,3.15327c-6.21659,0.05085 -11.64684,-1.4134 -12.65145,-1.56998c-0.88418,-0.13781 -6.65256,-0.18888 -11.72237,-1.22367c-8.10796,-1.65488 -12.41687,-6.38558 -12.41687,-6.38558c0,0 0.21938,2.3689 0.63696,3.54335c0.4129,1.16128 1.85466,3.46428 1.85466,3.46428c0,0 -12.6895,-1.45057 -16.89463,-14.35497c-1.47309,-4.52052 -1.78585,-8.56154 -1.32529,-11.9589c0.96017,-7.0827 4.76031,-11.36783 4.76031,-11.36783c0,0 -2.86653,1.55326 -6.80867,0.94248c-3.99394,-0.6188 -7.6713,-3.05111 -7.6713,-3.05111c0,0 4.67371,-1.91255 6.8919,-3.31316c2.22071,-1.4022 3.60488,-3.62607 3.60488,-3.62607c0,0 -1.61226,0.88771 -4.89892,1.20083c-3.28666,0.31311 -8.13684,-0.12951 -8.13684,-0.12951c0,0 6.10691,-5.81789 8.80376,-8.55517c2.48874,-2.52604 6.80325,-7.28572 6.80325,-7.28572c0,0 -5.46365,-3.22217 -8.70491,-7.28024c-3.22191,-4.03385 -5.15463,-9.6938 -5.15463,-9.6938c0,0 6.76169,0.12585 9.9842,-0.2127c2.96492,-0.31148 7.04694,-1.09546 7.82809,-1.7942c0.45827,-0.40992 4.46625,-11.93955 11.8719,-17.21508c8.34066,-5.94159 17.78788,-8.47122 26.51909,-8.18879c10.74994,0.34773 20.2611,3.81726 27.86818,12.01369c7.7249,8.32337 8.87119,22.29753 9.14868,28.5081c0.08893,1.99041 -0.20971,4.15119 0.52654,6.2021c0.49863,1.38899 2.46143,4.62578 6.52086,9.29529c4.05944,4.66951 9.03874,8.93672 9.03874,8.93672c0,0 -2.43452,1.19065 -4.99145,1.08624c-2.55694,-0.10442 -5.45414,-1.69562 -5.45414,-1.69562c0,0 1.88167,3.43336 4.08127,5.73515c2.14423,2.24386 7.55732,6.49105 7.55732,6.49105c0,0 -3.11586,2.30055 -7.0888,2.05649c-3.97296,-0.24407 -7.55434,-1.97692 -7.55434,-1.97692c0,0 4.9228,7.70643 2.75997,16.88969c-2.24055,9.51325 -11.61142,13.33095 -11.61142,13.33095c0,0 0.33826,-1.48871 0.42134,-2.16624c0.07342,-0.59878 0.05175,-1.69198 0.05175,-1.69198c0,0 -2.70471,3.33911 -6.38276,5.05326c-4.22244,1.96787 -8.54922,1.58677 -8.54922,1.58677c0,0 0.98843,-1.73551 1.38167,-2.55511c0.36467,-0.76005 0.89855,-2.19732 0.89855,-2.19732z"></path><g fill="none"><path stroke-linecap="butt" stroke-width="5.5" stroke="#f6f6f6" d="M260.04934,42.98894c-0.04511,2.25485 -8.50597,3.91422 -18.89787,3.70632c-10.3919,-0.2079 -18.77962,-2.20435 -18.73451,-4.4592c0.04511,-2.25485 8.50598,-3.91422 18.89787,-3.70632c10.3919,0.2079 18.77962,2.20435 18.73451,4.4592z"></path><path stroke-linecap="round" stroke-width="4.5" stroke="#ffffff" d="M254.92395,45.62897c0,0 -2.33916,0.5984 -5.18452,0.86924c-2.84536,0.27083 -7.32091,0.20701 -7.32091,0.20701"></path><path stroke-linecap="round" stroke-width="4.5" stroke="#ffffff" d="M227.65614,39.50831c0,0 4.16522,-0.66185 6.42115,-0.85328c2.0565,-0.17451 6.52663,-0.01683 6.52663,-0.01683"></path></g><g><path stroke-linecap="round" stroke-width="2.25" stroke="#000000" fill="#ffffff" d="M213.36608,307.59899c0,0 -0.17961,-15.1799 1.10362,-31.57183c1.14919,-14.67964 4.78984,-22.02479 4.8264,-28.81791c0.05119,-9.51182 -0.64008,-16.43468 -1.58446,-23.26563c-1.51024,-10.92403 -3.66775,-19.47004 -4.47106,-26.11208c-0.85755,-7.09051 -1.29764,-14.07965 -2.30181,-14.38418c-1.35709,-0.41156 -0.92481,8.88533 -0.92481,14.1392c0,3.8119 0.3876,11.35575 0.41522,20.81799c0.09874,33.8277 -0.0453,88.84452 -0.0453,88.84452l-10.04083,-0.05284v-122.84747c0,0 -0.14001,-11.81584 7.91015,-20.37843c9.84646,-10.47323 22.20192,-15.45624 33.06501,-15.16385c10.8982,0.29334 22.5391,4.92691 32.16342,15.16385c8.05016,8.56258 7.91016,20.37843 7.91016,20.37843v122.84747l-10.04084,0.05285c0,0 -0.14405,-55.01682 -0.0453,-88.84453c0.02762,-9.46223 0.41522,-17.00609 0.41522,-20.81799c0,-5.25387 0.43228,-14.55076 -0.92482,-14.1392c-1.00417,0.30453 -1.44426,7.47863 -2.30181,14.56914c-0.77635,6.41913 -2.81753,14.58782 -4.3169,24.90369c-1.0222,7.03287 -1.79256,14.76674 -1.73862,24.78904c0.03656,6.79312 3.6772,13.63827 4.82639,28.31791c1.28323,16.39194 1.10363,31.57183 1.10363,31.57183z"></path><path stroke-linecap="butt" stroke-width="0.5" stroke="none" fill="#000000" d="M239.43207,256.77431c0,-0.82843 0.67157,-1.5 1.5,-1.5c0.82843,0 1.5,0.67157 1.5,1.5c0,0.82843 -0.67157,1.5 -1.5,1.5c-0.82843,0 -1.5,-0.67157 -1.5,-1.5z"></path><path stroke-linecap="butt" stroke-width="0.5" stroke="none" fill="#000000" d="M222.99876,198.2743c0,-0.73638 0.59696,-1.33333 1.33333,-1.33333c0.73638,0 1.33333,0.59696 1.33333,1.33333c0,0.73638 -0.59696,1.33333 -1.33333,1.33333c-0.73638,0 -1.33333,-0.59696 -1.33333,-1.33333z"></path><path stroke-linecap="butt" stroke-width="0.5" stroke="none" fill="#000000" d="M256.09869,198.2743c0,-0.73638 0.59695,-1.33334 1.33333,-1.33334c0.73638,0 1.33333,0.59696 1.33333,1.33334c0,0.73638 -0.59695,1.33334 -1.33333,1.33334c-0.73638,0 -1.33333,-0.59696 -1.33333,-1.33334z"></path></g><path stroke-linecap="butt" stroke-width="0" stroke="#000000" fill="#e1e1e1" data-paper-data="{&quot;index&quot;:null}" d="M215.17525,239.99794c-0.61667,-9.57711 -2.38512,-21.25659 -3.48938,-34.92448c-1.10426,-13.66789 -0.40293,-19.33196 -1.63093,-28.45196c-0.87181,-6.47468 -3.76652,-12.15581 -3.76652,-12.15581c0,0 3.93143,-5.47676 7.29769,-8.06024c3.36626,-2.58348 11.60038,-6.44332 11.60038,-6.44332c0,0 6.09674,18.98897 15.44871,18.69694c9.74541,-0.30432 15.76739,-19.43678 15.76739,-19.43678c0,0 6.52805,3.16469 10.2229,6.08787c3.69484,2.92318 8.03417,8.35625 8.03417,8.35625c0,0 -4.15843,6.40826 -4.95523,12.92248c-0.56144,4.59 1.22072,17.27991 0.58156,28.54153c-0.63916,11.26162 -2.65797,22.60611 -3.95346,30.86918c-1.44619,9.22434 2.17584,35.4359 2.17584,35.4359c0,0 -15.1565,3.6215 -28.26723,3.78639c-14.25495,0.17926 -26.97344,-3.41645 -26.97344,-3.41645c0,0 2.47743,-22.95722 1.90756,-31.8075z"></path><path stroke-linecap="butt" stroke-width="0" stroke="#000000" fill="#bcbcbc" d="M212.60969,308.79517c0,0 -1.14955,-12.42072 -1.01414,-17.36333c0.10091,-3.68304 1.38406,-16.66981 1.38406,-16.66981c0,0 19.90286,7.78539 31.11434,8.4391c11.21148,0.65371 24.62449,-5.1891 24.62449,-5.1891c0,0 2.0538,13.43838 2.10157,16.92539c0.06815,4.97471 -1.2418,13.85775 -1.2418,13.85775z"></path><path stroke-linecap="butt" stroke-width="0" stroke="#000000" fill="#cecece" data-paper-data="{&quot;index&quot;:null}" d="M215.17525,239.99794c-0.36887,-5.72863 -1.14983,-12.20948 -1.95425,-19.41816c6.46061,9.44605 17.05059,13.29633 27.63672,13.43156c10.69684,0.13665 21.38976,-3.54089 27.81448,-13.15566c-0.77589,5.59388 -1.65793,10.79556 -2.33967,15.14392c-1.44619,9.22434 2.17584,35.4359 2.17584,35.4359c0,0 -15.1565,3.6215 -28.26723,3.78639c-14.25495,0.17926 -26.97344,-3.41645 -26.97344,-3.41645c0,0 2.47743,-22.95722 1.90756,-31.8075z"></path><path stroke-linecap="butt" stroke-width="0" stroke="none" fill="#bcbcbc" d="M251.06162,268.92641c0,0 -4.52192,1.8 -10.1,1.8c-5.57808,0 -10.1,-1.8 -10.1,-1.8c0,0 4.52192,0.73333 10.1,0.73333c5.57808,0 10.1,-0.73333 10.1,-0.73333z"></path><path stroke-linecap="butt" stroke-width="0" stroke="#000000" fill="#a6a6a6" d="M212.60968,308.79517c0,0 -1.14955,-12.42072 -1.01414,-17.36333c0.10091,-3.68304 1.38406,-16.66981 1.38406,-16.66981c0,0 1.05531,4.87386 3.18348,10.13649c2.90752,7.18985 8.68408,15.53862 24.47454,17.1592c16.25607,1.66836 22.60162,-6.57665 25.48423,-13.86049c2.11811,-5.35208 2.59657,-10.1852 2.59657,-10.1852c0,0 2.0538,13.43838 2.10157,16.92539c0.06815,4.97471 -1.2418,13.85775 -1.2418,13.85775z"></path><g stroke-linecap="butt" stroke="none"><path stroke-width="0" fill="#f5f5f5" d="M189.92267,309.14139c0,0 -0.83462,-11.41575 -0.03989,-27.79326c0.18268,-3.76476 1.03526,-7.7917 1.28285,-12.00244c0.15243,-2.59252 -0.00504,-5.2547 0.16233,-7.96826c0.12218,-1.98081 0.88462,-3.98899 1.01655,-6.01743c0.69527,-10.68927 0.49454,-21.9411 1.30743,-32.714c1.56611,-20.75493 4.31066,-39.73222 6.3561,-49.4843c1.07379,-5.11957 4.87679,-11.95319 9.39085,-15.43153c8.52647,-6.57013 19.58991,-7.58878 19.58991,-7.58878c0,0 -3.37247,16.39587 -3.69226,34.22195c-0.22452,12.5161 -1.30615,26.88753 -1.0941,39.5495c0.33647,20.09111 3.57319,28.5911 3.90374,38.11911c0.18215,5.25071 0.46292,13.35154 1.05888,18.06584c0.70761,5.59752 0.77657,9.71027 0.77657,9.71027c0,0 -3.25568,-0.13554 -4.98231,-0.56098c-1.8692,-0.46057 -11.55613,-2.10543 -11.55613,-2.10543l-0.65231,21.65136z"></path><path stroke-width="0" fill="#ececec" d="M189.92267,309.14139c0,0 -0.83462,-11.41575 -0.03989,-27.79326c0.18268,-3.76475 1.03526,-7.7917 1.28284,-12.00244c0.15244,-2.59251 -0.00503,-5.2547 0.16234,-7.96826c0.12218,-1.9808 0.88461,-3.98899 1.01655,-6.01743c0.69526,-10.68927 0.49453,-21.94109 1.30743,-32.714c0.67135,-8.89707 1.55925,-17.46748 2.5158,-25.12456c0.37935,3.20864 -0.49479,17.07387 4.06888,21.30863c4.38461,4.06861 5.89391,-1.44627 5.89391,-1.44627c0,0 2.98364,8.19377 7.10372,12.29402c3.38773,3.37142 7.54381,2.51768 11.44135,4.61129c0.99866,13.01542 3.16347,20.04349 3.43056,27.74284c0.18215,5.25071 0.46292,13.35153 1.05888,18.06584c0.70761,5.59752 0.77658,9.71027 0.77658,9.71027c0,0 -3.25569,-0.13554 -4.98231,-0.56098c-1.8692,-0.46057 -11.55613,-2.10543 -11.55613,-2.10543l-0.65232,21.65136z"></path><path stroke-width="0" fill="#e1e1e1" d="M206.45246,243.02439c0,0 1.62629,31.54053 3.02295,37.58695c1.03259,4.47032 4.59971,6.99638 4.59971,6.99638l-1.66052,20.98898l-22.27349,0.79459c0,0 9.93243,-1.34831 13.77552,-7.94588c4.51122,-7.74458 3.03245,-20.9586 2.90234,-21.52184c-1.37771,-5.96438 -0.36651,-36.89918 -0.36651,-36.89918z"></path><g stroke-width="0" data-paper-data="{&quot;index&quot;:null}"><path fill="#f5f5f5" d="M269.73035,308.793l-0.65231,-21.65136c0,0 -9.68693,1.64486 -11.55613,2.10543c-1.72663,0.42544 -4.98231,0.56098 -4.98231,0.56098c0,0 0.06897,-4.11275 0.77658,-9.71027c0.59596,-4.7143 0.87672,-12.81513 1.05888,-18.06584c0.33054,-9.52801 3.56727,-18.028 3.90373,-38.11911c0.21206,-12.66197 -0.86957,-27.0334 -1.0941,-39.5495c-0.31979,-17.82608 -3.69226,-34.22195 -3.69226,-34.22195c0,0 11.06345,1.01865 19.58991,7.58878c4.51406,3.47834 8.31705,10.31196 9.39085,15.43153c2.04543,9.75208 4.78998,28.72937 6.35609,49.4843c0.81289,10.7729 0.61217,22.02473 1.30743,32.714c0.13193,2.02844 0.89437,4.03662 1.01655,6.01743c0.16737,2.71356 0.00989,5.37574 0.16233,7.96826c0.24759,4.21074 1.10017,8.23768 1.28285,12.00244c0.79473,16.37751 -0.03989,27.79326 -0.03989,27.79326z"></path><path fill="#ececec" d="M269.73035,308.793l-0.65231,-21.65136c0,0 -9.68693,1.64486 -11.55613,2.10543c-1.72663,0.42544 -4.98231,0.56098 -4.98231,0.56098c0,0 0.06897,-4.11275 0.77658,-9.71027c0.59596,-4.71431 0.87672,-12.81513 1.05888,-18.06584c0.2671,-7.69935 2.4319,-14.72742 3.43056,-27.74284c3.89754,-2.09361 8.05362,-1.23987 11.44135,-4.61129c4.12009,-4.10025 7.10372,-12.29402 7.10372,-12.29402c0,0 1.50929,5.51488 5.89391,1.44627c4.56367,-4.23476 3.68954,-18.09999 4.06888,-21.30863c0.95655,7.65708 1.84445,16.22749 2.5158,25.12456c0.8129,10.77291 0.61217,22.02473 1.30743,32.714c0.13193,2.02844 0.89437,4.03663 1.01655,6.01743c0.16737,2.71356 0.0099,5.37574 0.16234,7.96826c0.24759,4.21074 1.10016,8.23769 1.28284,12.00244c0.79473,16.37751 -0.03988,27.79326 -0.03988,27.79326z"></path><path fill="#e1e1e1" d="M275.66227,279.92355c-0.13011,0.56324 -1.60887,13.77727 2.90235,21.52184c3.84308,6.59757 13.77551,7.94588 13.77551,7.94588l-22.27349,-0.79459l-1.66052,-20.98898c0,0 3.56712,-2.52607 4.59971,-6.99638c1.39666,-6.04642 3.02295,-33.83695 3.02295,-33.83695c0,0 1.0112,27.1848 -0.36651,33.14918z"></path></g><path stroke-width="0.5" fill="#e1e1e1" d="M215.41324,268.51781c-0.15017,-4.97627 2.00295,-9.07899 4.80912,-9.16367c2.80617,-0.08468 5.20275,3.88074 5.35292,8.85701c0.15017,4.97627 -2.00294,9.079 -4.80911,9.16368c-2.80617,0.08468 -5.20276,-3.88074 -5.35293,-8.85701z"></path><path stroke-width="0.5" fill="#e1e1e1" d="M283.40598,285.3528c-0.11802,-4.97535 1.39284,-9.00343 3.37459,-8.99698c1.98175,0.00646 3.68395,4.04499 3.80196,9.02033c0.11802,4.97535 -1.39284,9.00344 -3.37459,8.99698c-1.98175,-0.00646 -3.68395,-4.04499 -3.80196,-9.02034z"></path><path stroke-width="0.5" fill="#e1e1e1" data-paper-data="{&quot;index&quot;:null}" d="M197.65723,237.0395c-1.72515,0.00137 -3.03173,-3.50837 -2.91833,-7.83922c0.11341,-4.33085 1.60385,-7.84279 3.329,-7.84416c1.72515,-0.00137 3.03173,3.50836 2.91833,7.83921c-0.11341,4.33085 -1.60385,7.84279 -3.329,7.84417z"></path><path stroke-width="0.5" fill="#e1e1e1" data-paper-data="{&quot;index&quot;:null}" d="M262.88901,256.04149c-2.80617,-0.08468 -4.95928,-4.1874 -4.80911,-9.16368c0.15017,-4.97627 2.54675,-8.94169 5.35292,-8.85701c2.80617,0.08468 4.95929,4.1874 4.80912,9.16367c-0.15017,4.97627 -2.54676,8.9417 -5.35293,8.85702z"></path><path stroke-width="0.5" fill="#ececec" data-paper-data="{&quot;index&quot;:null}" d="M265.71198,188.71194c-2.82647,0.06838 -5.05036,-3.38963 -4.9672,-7.72367c0.08317,-4.33404 2.44191,-7.90288 5.26837,-7.97126c2.82647,-0.06838 5.05036,3.38963 4.9672,7.72367c-0.08317,4.33404 -2.44191,7.90288 -5.26837,7.97126z"></path><path stroke-width="0.5" fill="#ececec" data-paper-data="{&quot;index&quot;:null}" d="M270.57413,197.92319c-1.32403,-0.2869 -1.96977,-2.14813 -1.44228,-4.15716c0.52749,-2.00904 2.02845,-3.4051 3.35248,-3.11819c1.32403,0.2869 1.96976,2.14813 1.44227,4.15717c-0.52749,2.00904 -2.02844,3.40509 -3.35247,3.11819z"></path><path stroke-width="0.5" fill="#ececec" data-paper-data="{&quot;index&quot;:null}" d="M216.74396,199.49758c-3.78102,0.48762 -7.24791,-3.83841 -7.74348,-9.66248c-0.49557,-5.82406 2.16782,-10.9407 5.94884,-11.42831c3.78102,-0.48762 7.24791,3.83841 7.74348,9.66248c0.49557,5.82406 -2.16782,10.9407 -5.94885,11.42831z"></path><path stroke-width="0.5" fill="#ececec" data-paper-data="{&quot;index&quot;:null}" d="M218.06432,174.03711c-1.95861,-0.25716 -3.12151,-2.88386 -2.59739,-5.8669c0.52412,-2.98304 2.53677,-5.19279 4.49538,-4.93563c1.95861,0.25716 3.12151,2.88386 2.59739,5.8669c-0.52412,2.98304 -2.53677,5.19279 -4.49538,4.93563z"></path><path stroke-width="0.5" fill="#ececec" data-paper-data="{&quot;index&quot;:null}" d="M209.57262,177.93518c-0.9617,-0.28763 -1.33234,-1.69949 -0.82782,-3.15347c0.50451,-1.45398 1.69312,-2.3995 2.65482,-2.11186c0.9617,0.28763 1.33233,1.69949 0.82782,3.15347c-0.50451,1.45398 -1.69312,2.3995 -2.65482,2.11186z"></path><path stroke-width="0.5" fill="#e1e1e1" data-paper-data="{&quot;index&quot;:null}" d="M268.49833,260.82295c-0.97329,-0.37236 -1.22701,-2.07339 -0.5667,-3.79935c0.66032,-1.72597 1.9846,-2.82328 2.9579,-2.45093c0.97329,0.37235 1.22701,2.07339 0.56669,3.79935c-0.66032,1.72596 -1.9846,2.82328 -2.95789,2.45093z"></path><path stroke-width="0.5" fill="#e1e1e1" data-paper-data="{&quot;index&quot;:null}" d="M201.09767,292.01421c-1.17065,-0.10287 -1.92555,-1.67108 -1.68613,-3.50268c0.23943,-1.8316 1.38252,-3.233 2.55317,-3.13012c1.17065,0.10287 1.92555,1.67107 1.68613,3.50267c-0.23943,1.8316 -1.38252,3.233 -2.55317,3.13013z"></path><path stroke-width="0.5" fill="#e1e1e1" d="M286.81349,270.5266c-0.06203,-1.93778 0.7321,-3.50663 1.77374,-3.50412c1.04164,0.00252 1.93635,1.57543 1.99838,3.51321c0.06203,1.93778 -0.7321,3.50663 -1.77374,3.50412c-1.04164,-0.00252 -1.93635,-1.57543 -1.99838,-3.51321z"></path></g><g stroke="none"><path stroke-linecap="round" stroke-width="0.5" fill="#000000" d="M230.18268,365.02372c0,0 1.58546,2.79528 7.02746,3.25582c1.65088,0.13971 4.68428,-0.29811 8.01667,-0.30146c3.81569,-0.00384 7.90008,0.50794 10.87323,-0.04308c3.27549,-0.60706 4.0466,-3.0346 4.0466,-3.0346c0,0 -0.40197,3.53206 -1.98351,4.85328c-1.61546,1.34956 -7.22986,12.17883 -12.81351,11.93921c-6.74609,-0.28951 -12.04542,-11.6003 -13.04216,-12.47094c-1.33803,-1.16875 -2.12478,-4.19823 -2.12478,-4.19823z"></path><path stroke-linecap="butt" stroke-width="0" fill="#ffffff" d="M250.24239,377.27413c0,0 -2.08335,2.7 -4.9,2.7c-2.81665,0 -4.9,-2.7 -4.9,-2.7c0,0 2.08335,-1.5 4.9,-1.5c2.81665,0 4.9,1.5 4.9,1.5z"></path><path stroke-linecap="butt" stroke-width="0" fill="#ffffff" d="M236.01738,370.07413c0,0 0.7235,0.325 2.45,0.325c1.36584,0 3.97498,-0.55234 6.87901,-0.58679c2.21611,-0.0263 4.40615,0.38847 6.28757,0.49566c2.32193,0.13229 2.70841,-0.23387 2.70841,-0.23387c0,0 -2.84982,2.05 -9,2.05c-5.73956,0 -9.325,-2.05 -9.325,-2.05z"></path><g stroke-linecap="butt" stroke-width="0"><path fill="url(#color-1)" d="M236.01738,370.07414c0,0 0.7235,0.325 2.45,0.325c0.51628,0 1.21021,-0.07892 2.03055,-0.17895c-0.0308,0.22436 -0.04671,0.45347 -0.04671,0.68629c0,0.24238 0.01725,0.48074 0.05058,0.7139c-2.84165,-0.60697 -4.48442,-1.54624 -4.48442,-1.54624z"></path><path fill="url(#color-2)" d="M251.63396,370.308c1.95786,0.11155 2.53963,-0.1313 2.67394,-0.21019c-0.21922,0.14696 -1.48735,0.94625 -3.90353,1.49593c0.03089,-0.22467 0.04684,-0.4541 0.04684,-0.68726c0,-0.23777 -0.0166,-0.47165 -0.04869,-0.70057c0.42249,0.04306 0.83385,0.07945 1.23144,0.1021z"></path><path fill="#f3f3f3" d="M254.30786,370.09781c0.02302,-0.01543 0.03447,-0.02367 0.03447,-0.02367c0,0 -0.0095,0.009 -0.03447,0.02367z"></path></g><path stroke-linecap="butt" stroke-width="0" fill="url(#color-3)" d="M250.24239,377.27413c0,0 -2.08335,2.7 -4.9,2.7c-2.81665,0 -4.9,-2.7 -4.9,-2.7c0,0 0.67391,-0.48521 1.77336,-0.90371c0.657,1.08552 1.84901,1.81105 3.21048,1.81105c1.33934,0 2.51469,-0.70215 3.17803,-1.75843c1.01923,0.40547 1.63814,0.85108 1.63814,0.85108z"></path></g><g stroke="none"><path stroke-linecap="round" stroke-width="0.5" fill="#000000" d="M230.68268,344.52372c0,0 1.58546,2.79528 7.02746,3.25582c1.65088,0.13971 4.68428,-0.29811 8.01667,-0.30146c3.81569,-0.00384 7.90008,0.50794 10.87323,-0.04308c3.27549,-0.60706 4.0466,-3.0346 4.0466,-3.0346c0,0 -0.40197,3.53206 -1.98351,4.85328c-1.61546,1.34956 -7.47986,7.17883 -13.06351,6.93921c-5.58365,-0.23962 -11.79542,-6.6003 -12.79216,-7.47094c-1.33803,-1.16875 -2.12478,-4.19823 -2.12478,-4.19823z"></path><path stroke-linecap="butt" stroke-width="0" fill="#ffffff" d="M239.18965,349.84357c1.36264,0.09343 3.75276,-0.49678 6.65679,-0.53123c2.21611,-0.0263 4.40615,0.38847 6.28757,0.49566c1.21082,0.02118 1.83341,-0.23387 1.83341,-0.23387c0,0 -1.97482,2.05 -8.125,2.05c-5.73956,0 -8.2,-2.05 -8.2,-2.05c0,0 0.73695,0.21389 1.54723,0.26944z"></path><g stroke-linecap="butt" stroke-width="0"><path fill="url(#color-4)" d="M237.51738,349.57414c0,0 1.02969,0.22743 1.7,0.25556c0.67031,0.02813 0.96021,-0.00948 1.78055,-0.10951c-0.0308,0.22436 -0.04671,0.45347 -0.04671,0.68629c0,0.24238 0.01725,0.42518 0.05058,0.65834c-0.77567,-0.16568 -1.3875,-0.41168 -1.86714,-0.60102c-1.27752,-0.5043 -1.61728,-0.88967 -1.61728,-0.88967z"></path><path fill="url(#color-5)" d="M253.83569,349.59781c0,0 -0.29309,0.42727 -1.47406,0.92774c-0.38469,0.16302 -0.86359,0.43313 -1.45725,0.56819c0.03089,-0.22467 0.04684,-0.4541 0.04684,-0.68726c0,-0.23777 -0.0166,-0.47165 -0.04869,-0.70057c0.42249,0.04306 0.87459,0.12171 1.35644,0.1021c0.48185,-0.01961 1.57672,-0.2102 1.57672,-0.2102z"></path></g></g><g stroke-linecap="butt" stroke-width="0" stroke="none"><path fill="#a6a6a6" d="M248.39595,331.86717v-11.73939h11.65375v11.73939z"></path><path fill="#959595" d="M259.97141,331.86717v-11.73939h11.65376v11.73939z"></path><path fill="#757575" d="M271.54715,331.86717v-11.73939h11.65376v11.73939z"></path><path fill="#616161" d="M283.12307,331.86717v-11.73939h11.65375v11.73939z"></path><path fill="#424242" d="M294.59641,331.86717v-11.73939h11.65376v11.73939z"></path><path fill="#bcbcbc" d="M236.19665,331.86717v-11.73939h12.35011v11.73939z"></path><path fill="#cecece" d="M224.5429,331.86719v-11.73939h11.65376v11.73939z"></path><path fill="#e1e1e1" d="M212.34358,331.86719v-11.73939h12.35011v11.73939z"></path><path fill="#ececec" d="M200.19665,331.86717v-11.73939h12.35011v11.73939z"></path><path fill="#f5f5f5" d="M188.54289,331.86719v-11.73939h11.65376v11.73939z"></path><path fill="#ffffff" d="M176.34359,331.86719v-11.73939h12.35011v11.73939z"></path></g><path stroke-linecap="butt" stroke-width="0" stroke="none" fill="#ececec" d=""></path><path stroke-linecap="round" stroke-width="0.5" stroke="none" fill="#000000" d="M231.97495,159.38612c-3.98308,-2.84414 -8.73268,-6.49693 -12.20614,-10.70969c-3.38649,-4.10727 -6.2105,-8.02014 -7.603,-11.64664c-1.59966,-4.16602 -1.9521,-7.35358 -1.9521,-7.35358c0,0 -3.27739,-2.55206 -5.56275,-6.10922c-1.71907,-2.67572 -2.53006,-5.47749 -1.92595,-9.4153c0.57604,-3.75483 5.26257,-3.65687 5.43035,-5.05904c0.11698,-0.97772 -0.17521,-10.33068 -0.17521,-10.33068c0,0 5.22121,3.79988 10.21401,3.6689c9.9569,-0.26118 34.81253,-11.77368 34.81253,-11.77368c0,0 -1.86192,2.74352 -3.23278,4.25975c-1.80417,1.99549 -6.65386,6.67527 -6.65386,6.67527c0,0 7.91871,-1.95701 11.65368,-3.4938c4.39163,-1.80697 12.46704,-6.44141 13.68983,-6.28339c1.22279,0.15801 2.91451,2.5106 3.83137,4.38209c1.67892,3.42699 0.78637,8.97593 1.22644,13.2695c0.14087,1.37449 3.43588,0.21068 4.75367,2.83099c1.31779,2.6203 0.7032,8.15688 -1.08119,11.02007c-2.14373,3.43979 -5.5238,6.33467 -5.5238,6.33467c0,0 -0.61901,4.11847 -3.80418,10.04694c-1.80618,3.36178 -4.42035,6.83234 -7.30587,10.06919c-3.06642,3.43977 -6.45841,6.61561 -10.18301,9.11644c-3.35763,2.25445 -5.89338,5.12087 -9.52644,5.04226c-3.63306,-0.07861 -8.8756,-4.54105 -8.8756,-4.54105z"></path><path stroke-linecap="round" stroke-width="0.5" stroke="none" fill="#ffffff" d="M240.23184,161.48995c-1.52247,-0.16847 -8.20749,-3.43277 -15.02505,-9.96472c-3.89419,-3.73105 -8.20549,-8.52824 -10.67984,-14.42359c-1.07861,-2.56986 -1.65533,-5.92188 -2.16769,-9.51759c-0.42827,-3.00555 -1.04113,-6.18134 -1.25539,-9.21292c-0.57423,-8.12445 -0.40154,-15.2131 -0.40154,-15.2131c0,0 3.36265,3.25161 7.26013,2.46335c2.86033,-0.5785 9.1844,-2.29951 14.69237,-4.29393c6.677,-2.41772 12.39631,-5.11638 12.39631,-5.11638c0,0 -2.33374,2.12568 -3.82711,3.35084c-1.81375,1.48801 -6.28228,4.94289 -6.28228,4.94289c0,0 6.85863,0.3246 16.1234,-2.46039c5.12546,-1.54072 9.07732,-3.98647 11.96757,-5.6588c2.03217,-1.17584 3.53953,-1.96933 4.561,-1.79705c1.01382,0.2739 2.86133,1.59742 3.26925,3.81828c0.47477,2.58478 0.38369,10.05913 -0.18365,18.06076c-0.63722,8.98712 -2.06191,18.6394 -4.56648,22.77608c-5.43034,8.96907 -11.27071,14.05435 -15.86071,17.39649c-5.39533,3.92852 -8.43969,5.02468 -10.02027,4.84977z"></path><path stroke-linecap="round" stroke-width="0.5" stroke="none" fill="#ffffff" d="M208.81543,112.70414l0.77188,13.25067c0,0 -3.85821,-1.62345 -4.86563,-6.32667c-0.66598,-3.36037 -0.27942,-6.4511 1.39056,-7.44139c1.17964,-0.67341 2.70319,0.51739 2.70319,0.51739z"></path><path stroke-linecap="butt" stroke-width="0.5" stroke="none" fill="#f5f5f5" d="M214.58202,134.48485c-0.20271,-4.35473 3.22592,-8.26454 7.65807,-8.73282c4.43215,-0.46827 8.18945,2.68232 8.39216,7.03705c0.20271,4.35473 -3.22592,8.26454 -7.65807,8.73282c-4.43215,0.46827 -8.18945,-2.68232 -8.39216,-7.03705z"></path><path stroke-linecap="round" stroke-width="0.5" stroke="none" fill="#ffffff" d="M272.94025,112.44684c0,0 1.76181,-0.78593 3.05687,0.17019c0.9697,0.71591 1.67771,2.52156 1.18849,5.74759c-0.8734,5.7593 -5.01724,7.46155 -5.01724,7.46155l0.77188,-13.37932z"></path><path stroke-linecap="round" stroke-width="0.5" stroke="#000000" fill="none" d="M272.66364,114.5052c0,0 2.21983,0.10206 2.187,2.31565c-0.04046,2.72852 -2.70159,7.73815 -2.70159,7.73815"></path><path stroke-linecap="round" stroke-width="0.5" stroke="#000000" fill="none" d="M209.52009,124.32103c0,0 -0.90503,-1.56565 -1.61776,-3.16394c-0.64765,-1.45237 -1.25869,-3.17606 -1.23181,-4.46489c0.03771,-1.80766 2.31565,-2.31565 2.31565,-2.31565"></path><path stroke-linecap="butt" stroke-width="0.5" stroke="none" fill="#f5f5f5" data-paper-data="{&quot;index&quot;:null}" d="M258.90666,140.85717c-4.43215,-0.44859 -7.86078,-4.19408 -7.65807,-8.36578c0.20272,-4.1717 3.96001,-7.18988 8.39216,-6.74128c4.43215,0.44859 7.86079,4.19408 7.65808,8.36578c-0.20272,4.1717 -3.96001,7.18988 -8.39217,6.74128z"></path><path stroke-linecap="round" stroke-width="1.5" stroke="#000000" fill="none" d="M234.83571,124.1701c0,0 -5.06253,3.04909 -9.85581,2.13931c-5.25543,-0.9975 -10.35268,-6.57842 -10.35268,-6.57842"></path><path stroke-linecap="round" stroke-width="0.5" stroke="none" fill="#000000" d="M215.09753,126.26053c-1.03558,0.43336 -2.16995,0.7931 -2.16165,0.67274c0.01041,-0.15114 0.698,-0.79925 1.54624,-1.51462c0.80788,-0.68134 1.75734,-1.23496 2.16303,-0.79962c0.53592,0.5751 -0.45554,1.18451 -1.54762,1.6415z"></path><path stroke-linecap="round" stroke-width="0.5" stroke="none" fill="#000000" d="M218.38838,128.60321c-0.8663,0.71397 -2.01917,1.67056 -2.04599,1.55294c-0.03368,-0.14771 0.60816,-1.25133 1.21365,-2.18121c0.57668,-0.88562 1.32579,-1.68987 1.83993,-1.39025c0.67917,0.39581 -0.09403,1.26559 -1.0076,2.01852z"></path><path stroke-linecap="round" stroke-width="0.5" stroke="none" fill="#000000" d="M234.43337,136.50838c0,0 1.21615,0.24595 2.74299,0.55341c1.22668,0.24703 2.6539,0.57121 3.81212,0.55591c1.19348,-0.01577 2.73583,-0.40491 4.0125,-0.69404c1.3691,-0.31007 2.43264,-0.52098 2.43264,-0.52098c0,0 -1.58222,1.01609 -2.5561,1.57682c-0.94788,0.54576 -1.91435,1.60055 -3.75783,1.69967c-1.84583,0.09924 -3.07415,-0.93924 -4.25382,-1.66888c-1.43607,-0.88822 -2.43247,-1.50191 -2.43247,-1.50191z"></path><path stroke-linecap="round" stroke-width="1.5" stroke="#000000" fill="none" data-paper-data="{&quot;index&quot;:null}" d="M267.241,119.73099c0,0 -5.24523,5.7289 -10.50065,6.72639c-4.79328,0.90978 -9.85581,-2.13932 -9.85581,-2.13932"></path><path stroke-linecap="round" stroke-width="0.5" stroke="none" fill="#000000" data-paper-data="{&quot;index&quot;:null}" d="M262.23573,126.65704c0.49847,-0.32503 1.28698,0.44064 1.90735,1.29621c0.65137,0.89834 1.34775,1.96837 1.32152,2.11758c-0.02089,0.11882 -1.22028,-0.77873 -2.1213,-1.44836c-0.95018,-0.70615 -1.76604,-1.53607 -1.10757,-1.96545z"></path><path stroke-linecap="round" stroke-width="0.5" stroke="none" fill="#000000" data-paper-data="{&quot;index&quot;:null}" d="M265.17107,124.61901c0.40569,-0.43534 1.35515,0.11828 2.16303,0.79962c0.84825,0.71537 1.53584,1.36348 1.54624,1.51462c0.00829,0.12037 -1.12608,-0.23937 -2.16166,-0.67273c-1.09208,-0.457 -2.08353,-1.06641 -1.54762,-1.64151z"></path><path stroke-linecap="round" stroke-width="0.5" stroke="none" fill="#000000" d="M225.84941,142.40577c0,0 1.58546,2.59528 7.02746,3.05582c1.65088,0.13971 4.68428,-0.09811 8.01667,-0.10146c3.81569,-0.00384 7.90008,0.30794 10.87323,-0.24308c3.27549,-0.60706 4.0466,-2.8346 4.0466,-2.8346c0,0 0.4024,3.72498 -3.18351,4.45328c-4.18138,0.84923 -9.06742,-0.17128 -11.61351,-0.26079c-3.03759,-0.10679 -8.44542,1.1997 -12.24216,0.12906c-2.80077,-0.78979 -2.92478,-4.19823 -2.92478,-4.19823z"></path><path stroke-linecap="round" stroke-width="0.5" stroke="none" fill="#000000" d="M213.67642,109.61521c0,0 6.99707,0.4296 10.32175,0.68395c3.10798,0.23777 9.02006,0.79575 9.02006,0.79575v1.58539c0,0 -9.67619,-0.82702 -13.24731,-1.39294c-2.36105,-0.37416 -6.09449,-1.67215 -6.09449,-1.67215z"></path><path stroke-linecap="round" stroke-width="0.5" stroke="none" fill="#000000" d="M246.91173,103.10637c0,0 5.45187,-3.76653 10.4636,-2.00817c6.90371,2.42216 9.93514,9.30098 9.93514,9.30098c0,0 -4.79163,-6.08483 -10.8494,-7.44633c-6.63621,-1.4915 -9.44365,2.26736 -9.44365,2.26736z"></path><path stroke-linecap="round" stroke-width="0" stroke="#ff0000" fill="#ececec" d="M224.80992,112.43866c7.61695,2.59171 10.34082,12.39691 10.34082,12.39691c0,0 -6.83717,1.97227 -10.45138,1.5114c-1.87721,-0.23938 -5.596,-3.9268 -8.33131,-5.87591c-2.70158,-1.92507 -4.43155,-2.11359 -4.43155,-2.11359c0,0 5.25646,-8.51052 12.87341,-5.91881z"></path><path stroke-linecap="round" stroke-width="0.5" stroke="none" fill="#000000" d="M216.97361,113.70649c0,0 2.99247,-5.05158 11.20345,-0.73985c7.02468,3.68878 8.45544,13.00024 8.45544,13.00024c0,0 -6.801,1.82565 -12.34046,0.57873c-4.12364,-0.92821 -9.29855,-6.97531 -9.29855,-6.97531l-0.96536,0.78645l-2.77696,-0.05562l-0.51631,-2.60118c0,0 1.01114,-0.14694 2.42836,-0.38651c2.54876,-0.43085 4.61549,4.35454 10.08646,6.67563c5.47097,2.32109 10.65192,0.09224 10.65192,0.09224c0,0 -1.02701,-3.35768 -3.34693,-6.51962c-1.43105,-1.95045 -3.6638,-3.763 -5.52595,-4.52535c-4.28473,-1.75411 -8.05512,0.67016 -8.05512,0.67016z"></path><path stroke-linecap="round" stroke-width="0" stroke="#ff0000" fill="#ececec" data-paper-data="{&quot;index&quot;:null}" d="M269.64482,118.50544c0,0 -1.85259,-0.31568 -3.36454,0.63532c-3.2706,2.05715 -8.01332,6.36214 -10.56498,6.68752c-3.6142,0.46087 -9.61803,-0.84473 -9.61803,-0.84473c0,0 3.0572,-9.80521 10.67415,-12.39691c7.61695,-2.59171 12.8734,5.91881 12.8734,5.91881z"></path><path stroke-linecap="round" stroke-width="0.5" stroke="none" fill="#000000" data-paper-data="{&quot;index&quot;:null}" d="M264.72267,113.70649c0,0 -3.77039,-2.42427 -8.05512,-0.67016c-2.31579,0.94806 -5.04402,3.61413 -6.74647,6.15455c-1.88576,2.81396 -2.62642,5.47375 -2.62642,5.47375c0,0 6.26046,1.74622 11.23788,-0.42749c4.97742,-2.17371 6.17789,-7.5699 10.0005,-6.9237c1.41721,0.23957 2.42835,0.38651 2.42835,0.38651l-0.5163,2.60118l-2.61028,0.55562l-1.13204,-1.11978c0,0 -5.00825,6.0471 -9.13188,6.97531c-5.53946,1.24692 -12.50712,-0.7454 -12.50712,-0.7454c0,0 1.43076,-9.31146 8.45544,-13.00024c8.21098,-4.31173 11.20345,0.73985 11.20345,0.73985z"></path><g stroke-linecap="butt" stroke-width="0.5" stroke="none" fill="#cecece"><path d="M220.65521,131.70656c0.0586,-0.58058 0.61768,-0.97898 1.24873,-0.88985c0.63105,0.08913 1.0951,0.63204 1.0365,1.21262c-0.0586,0.58058 -0.61768,0.97898 -1.24873,0.88985c-0.63105,-0.08913 -1.0951,-0.63204 -1.0365,-1.21262z"></path><path d="M216.8666,134.7966c0.0586,-0.58058 0.61768,-0.97898 1.24873,-0.88985c0.63105,0.08913 1.0951,0.63204 1.0365,1.21262c-0.0586,0.58058 -0.61768,0.97898 -1.24873,0.88985c-0.63105,-0.08913 -1.0951,-0.63204 -1.0365,-1.21262z"></path><path d="M223.26524,135.70035c0.0586,-0.58058 0.61768,-0.97898 1.24873,-0.88985c0.63105,0.08913 1.0951,0.63204 1.0365,1.21262c-0.0586,0.58058 -0.61768,0.97898 -1.24873,0.88985c-0.63105,-0.08913 -1.0951,-0.63204 -1.0365,-1.21262z"></path></g><g stroke-linecap="butt" stroke-width="0.5" stroke="none" fill="#cecece" data-paper-data="{&quot;index&quot;:null}"><path d="M259.97524,133.0025c-0.63105,0.08913 -1.19012,-0.30927 -1.24872,-0.88985c-0.05861,-0.58058 0.40545,-1.12348 1.0365,-1.21261c0.63105,-0.08913 1.19012,0.30927 1.24873,0.88985c0.0586,0.58058 -0.40545,1.12348 -1.0365,1.21261z"></path><path d="M263.76383,136.09255c-0.63105,0.08913 -1.19012,-0.30927 -1.24872,-0.88985c-0.05861,-0.58058 0.40545,-1.12348 1.0365,-1.21261c0.63105,-0.08913 1.19012,0.30927 1.24873,0.88985c0.0586,0.58058 -0.40545,1.12348 -1.0365,1.21261z"></path><path d="M257.36528,136.99629c-0.63105,0.08913 -1.19012,-0.30927 -1.24872,-0.88985c-0.05861,-0.58058 0.40545,-1.12348 1.0365,-1.21261c0.63105,-0.08913 1.19012,0.30927 1.24873,0.88985c0.05861,0.58058 -0.40545,1.12348 -1.0365,1.21261z"></path></g><g stroke-linecap="butt" stroke-width="0" stroke="#000000"><path fill="#ececec" d="M184.98847,58.09326c2.0661,4.80186 4.84341,8.2711 5.2889,8.42628c0.35369,0.1232 -2.9537,-11.15261 -3.02835,-21.29994c-0.05649,-7.67746 2.93171,-14.43835 3.59973,-14.49427c0.57088,-0.0478 -0.66709,12.17469 0.02298,17.15164c0.26457,1.90814 0.79047,10.38194 2.78726,10.65127c0.60676,0.08184 2.73114,-0.8766 3.71264,-3.35972c1.22536,-3.1001 2.25844,-7.71164 3.1192,-12.1142c1.29329,-6.61478 2.19758,-12.75783 2.78056,-12.59388c1.25395,0.35262 0.53823,5.43682 -0.20005,10.59541c-0.7027,4.90997 -1.42581,9.88734 -0.49039,10.91644c1.11697,1.22883 7.75514,-2.41097 13.89498,-6.20532c5.71335,-3.53078 10.5377,-8.01022 10.99518,-7.19539c0.41554,0.74011 -3.39797,5.1667 -8.45791,9.26678c-2.73748,2.21818 -10.23016,6.60874 -15.8144,11.34613c-3.65392,3.09981 -6.33451,6.51669 -6.87445,8.98457c-1.77212,8.09963 10.19721,12.22398 10.19721,12.22398c0,0 0.27218,-4.00979 0.75764,-7.30224c0.36709,-2.4896 0.97676,-4.65166 1.30664,-4.12036c0.91967,1.48125 0.86494,10.71791 2.48025,13.39153c1.18013,1.95332 4.99891,3.42144 7.19813,4.13011c-0.74492,0.7391 -0.98033,1.84774 -1.15066,2.87167c-0.15633,0.82537 -1.38652,1.66568 -1.38652,1.66568c0,0 -0.37413,-0.45981 -0.69035,-0.65346c-0.32138,-0.19683 -1.22267,-0.51813 -1.22267,-0.51813c0,0 0.40797,0.64324 0.60657,1.40268c0.09076,0.34704 -0.0605,0.77941 0.03639,1.07772c-0.81566,-0.70525 -2.09769,-1.71012 -3.85367,-2.78589c-3.13781,-1.9223 -7.76915,-4.00398 -11.77048,-7.01372c-3.95352,-2.97379 -7.28205,-6.86436 -9.58219,-10.6352c-8.74713,-14.34004 -8.54837,-26.60604 -8.14318,-26.9268c0.66369,-0.52543 1.4017,7.35451 3.88097,13.11663z"></path><g fill="#e1e1e1"><path d="M190.27736,66.51953c0.24,0.0836 -1.20569,-5.08133 -2.18324,-11.5808c0.77996,0.72407 1.91428,1.0236 3.00446,0.68779c0.29119,-0.0897 0.55949,-0.21864 0.80086,-0.37924c0.40485,1.77133 0.96607,3.17391 1.75955,3.28093c0.60677,0.08185 2.73114,-0.8766 3.71263,-3.35971c0.68324,-1.72857 1.3067,-3.92706 1.87385,-6.2972c0.67061,0.87208 1.77693,1.33663 2.89473,1.16923c0.02422,0.93565 0.15522,1.61764 0.44074,1.93176c0.63092,0.69411 3.02346,-0.16518 6.09273,-1.72826c1.01163,1.34092 2.78998,1.9739 4.48802,1.45085c0.35053,-0.10798 0.67616,-0.25859 0.97297,-0.44442c-3.33086,2.22845 -7.49554,5.01542 -10.93588,7.93404c-2.3131,1.96233 -4.23613,4.0517 -5.47298,5.94696c-2.86021,-0.46818 -5.38694,3.76685 -4.47254,7.34452c1.17919,4.61371 6.62285,8.68516 9.16354,5.94395c2.18675,1.31222 4.10473,1.97312 4.10473,1.97312c0,0 0.07597,-1.11915 0.21922,-2.66042c0.49185,0.03481 0.99831,-0.01902 1.49782,-0.17289c0.57085,-0.17584 1.07569,-0.4648 1.4975,-0.83469c0.28339,2.32517 0.66529,4.53673 1.33,5.63693c1.18012,1.95331 4.99891,3.42145 7.19813,4.13011c-0.74491,0.7391 -0.98033,1.84774 -1.15065,2.87167c-0.15633,0.82538 -1.38652,1.66568 -1.38652,1.66568c0,0 -0.37414,-0.45981 -0.69034,-0.65346c-0.32138,-0.19683 -1.22267,-0.51812 -1.22267,-0.51812c0,0 0.40796,0.64323 0.60657,1.40268c0.09075,0.34703 -0.0605,0.77941 0.03639,1.07772c-0.81566,-0.70525 -2.0977,-1.71013 -3.85367,-2.78589c-3.13781,-1.92231 -7.76915,-4.00397 -11.77047,-7.01371c-3.95352,-2.97379 -7.28204,-6.86436 -9.58218,-10.6352c-1.89748,-3.11074 -3.374,-6.12388 -4.51876,-8.93865c0.46491,0.08177 0.95566,0.05752 1.43778,-0.09098c0.37187,-0.11455 0.7064,-0.29311 0.9952,-0.51985c1.47361,2.47568 2.81453,4.06178 3.11247,4.16557z"></path><path d=""></path></g></g><g stroke-linecap="butt" stroke-width="0" stroke="#000000" data-paper-data="{&quot;index&quot;:null}"><path fill="#ececec" d="M297.71795,57.51485c2.58508,-5.71543 3.46825,-13.58042 4.12214,-13.04284c0.3992,0.32818 0.37178,12.59575 -8.63826,26.77209c-2.36928,3.7278 -5.76896,7.55634 -9.77664,10.45673c-4.05614,2.93546 -8.72507,4.93138 -11.89779,6.79551c-1.77551,1.04321 -3.07586,2.02428 -3.90438,2.71437c0.10237,-0.29648 -0.04087,-0.73156 0.05626,-1.07686c0.21257,-0.75565 0.63233,-1.39126 0.63233,-1.39126c0,0 -0.90706,0.30463 -1.23201,0.4955c-0.31973,0.18779 -0.70227,0.64062 -0.70227,0.64062c0,0 -1.2145,-0.86285 -1.35558,-1.69096c-0.15141,-1.0269 -0.36634,-2.13969 -1.0975,-2.8924c2.21191,-0.668 6.0571,-2.06548 7.27304,-3.9967c1.66433,-2.64338 1.77991,-11.87949 2.72673,-13.34352c0.33962,-0.52513 0.90932,1.6478 1.23045,4.14375c0.42467,3.30084 0.62288,7.31496 0.62288,7.31496c0,0 12.04333,-3.90296 10.42085,-12.03389c-0.49435,-2.47741 -3.11149,-5.94314 -6.70764,-9.10979c-5.49595,-4.83955 -12.90639,-9.3675 -15.60252,-11.63577c-4.98348,-4.19268 -8.71472,-8.68882 -8.28562,-9.42115c0.47243,-0.80626 5.21336,3.76136 10.86064,7.39688c6.06883,3.90691 12.63878,7.66848 13.77821,6.46046c0.95424,-1.01168 0.32301,-6.00154 -0.28904,-10.92363c-0.64304,-5.17133 -1.26491,-10.26785 -0.00467,-10.59729c0.58591,-0.15317 1.37678,6.00551 2.5479,12.64301c0.77944,4.41768 1.72733,9.04748 2.89532,12.16965c0.93554,2.50079 3.04189,3.49823 3.65006,3.42759c2.00142,-0.23247 2.68347,-8.69511 2.98317,-10.59806c0.78171,-4.96339 -0.23069,-17.20662 0.3392,-17.14831c0.66687,0.06823 3.52991,6.88307 3.33189,14.55817c-0.26173,10.14422 -3.77645,21.35716 -3.42055,21.24049c0.44827,-0.14694 3.28908,-3.56438 5.44335,-8.32733z"></path><g fill="#e1e1e1"><path d="M295.46331,61.73471c0.28458,0.23203 0.61575,0.41673 0.98546,0.53811c0.47929,0.15737 0.96951,0.19067 1.43585,0.11748c-1.19646,2.79319 -2.72828,5.77859 -4.68279,8.85382c-2.36928,3.72781 -5.76897,7.55635 -9.77664,10.45673c-4.05613,2.93546 -8.72506,4.93137 -11.89778,6.7955c-1.77551,1.04321 -3.07585,2.02428 -3.90438,2.71437c0.10237,-0.29648 -0.04088,-0.73157 0.05626,-1.07686c0.21258,-0.75566 0.63232,-1.39126 0.63232,-1.39126c0,0 -0.90706,0.30463 -1.23201,0.4955c-0.31971,0.18779 -0.70227,0.64063 -0.70227,0.64063c0,0 -1.2145,-0.86284 -1.35558,-1.69096c-0.15141,-1.0269 -0.36635,-2.13969 -1.09751,-2.8924c2.21191,-0.668 6.05713,-2.06547 7.27306,-3.9967c0.68488,-1.08777 1.1075,-3.29189 1.43371,-5.61144c0.41491,0.37761 0.91433,0.67582 1.48185,0.86216c0.49659,0.16305 1.00197,0.2262 1.49438,0.20047c0.1148,1.54364 0.17013,2.664 0.17013,2.664c0,0 1.92985,-0.62542 4.14042,-1.8971c2.48972,2.78759 8.00752,-1.18281 9.27157,-5.77399c0.98021,-3.5602 -1.46803,-7.84109 -4.33638,-7.42572c-1.20169,-1.91774 -3.08588,-4.04222 -5.3624,-6.04686c-3.38594,-2.98155 -7.49854,-5.84484 -10.78773,-8.13432c0.29333,0.19127 0.61613,0.34786 0.96461,0.46229c1.68811,0.55427 3.47783,-0.04582 4.51401,-1.36786c3.03993,1.61941 5.41622,2.52266 6.05984,1.8403c0.29127,-0.3088 0.43482,-0.98826 0.47629,-1.9233c1.11453,0.18798 2.22922,-0.25609 2.9158,-1.11566c0.52335,2.3802 1.10616,4.5898 1.75742,6.33068c0.93554,2.50079 3.04189,3.49823 3.65006,3.42759c0.79532,-0.09237 1.38229,-1.48437 1.81973,-3.24794c0.23838,0.16501 0.50425,0.29889 0.79374,0.39394c1.0838,0.35585 2.22345,0.07728 3.01662,-0.63228c-1.09722,6.48034 -2.63788,11.61774 -2.39639,11.53857c0.2998,-0.09827 1.66974,-1.65937 3.18874,-4.10747z"></path><path d=""></path></g></g><path stroke-linecap="round" stroke-width="1.5" stroke="#cecece" fill="none" d="M207.22554,124.78227l0.50316,-1.03849"></path></g></g></svg>