<svg version="1.1" xmlns="http://www.w3.org/2000/svg" xmlns:xlink="http://www.w3.org/1999/xlink" width="34.17311" height="34.17311" viewBox="0,0,34.17311,34.17311"><g transform="translate(-302.91345,-162.9135)"><g data-paper-data="{&quot;isPaintingLayer&quot;:true}" stroke-miterlimit="10" stroke-dasharray="" stroke-dashoffset="0" style="mix-blend-mode: normal"><path d="M309.98311,162.9135h20.03379c3.9166,0 7.06966,3.15307 7.06966,7.06966v20.03379c0,3.91659 -3.15306,7.06966 -7.06966,7.06966h-20.03379c-3.91659,0 -7.06966,-3.15307 -7.06966,-7.06966v-20.03379c0,-3.91659 3.15307,-7.06966 7.06966,-7.06966z" fill-opacity="0.61176" fill="#a3a3a3" fill-rule="evenodd" stroke="none" stroke-width="4.43922" stroke-linecap="round" stroke-linejoin="round"/><path d="M308.22297,191.2306c0,0 -6.17619,-21.6596 0.54706,-22.43425c6.86685,-0.7912 6.3328,16.09946 6.3328,16.09946c0,0 2.08738,-1.125 4.98398,-1.125c3.11767,0 4.81036,1.125 4.81036,1.125c0,0 -0.53405,-16.89066 6.3328,-16.09946c6.72325,0.77465 0.54706,22.43425 0.54706,22.43425" fill="none" fill-rule="nonzero" stroke="#000000" stroke-width="0.5" stroke-linecap="round" stroke-linejoin="miter"/><g fill="#a3a3a3" fill-rule="nonzero" stroke="#000000" stroke-width="0.5" stroke-linecap="butt" stroke-linejoin="miter"><path d="M313.5984,185.57614c-0.70568,-1.57618 0.66689,-2.02862 0.66689,-2.02862c0,0 -1.07018,-0.48401 -0.77868,-1.98219c0.37461,-1.92533 5.40318,1.26657 5.40318,1.26657l-0.03726,1.68876c0,0 -4.60563,2.50395 -5.25413,1.05547z"/><path d="M321.14747,184.52066l-0.03726,-1.68876c0,0 5.02857,-3.1919 5.40318,-1.26657c0.2915,1.49817 -0.77868,1.98219 -0.77868,1.98219c0,0 1.37257,0.45244 0.66689,2.02862c-0.6485,1.44847 -5.25413,-1.05547 -5.25413,-1.05547z" data-paper-data="{&quot;index&quot;:null}"/><path d="M318.23769,183.621c0,-0.95697 0.77578,-1.73274 1.73274,-1.73274c0.95697,0 1.73274,0.77578 1.73274,1.73274c0,0.95697 -0.77578,1.73274 -1.73274,1.73274c-0.95697,0 -1.73274,-0.77578 -1.73274,-1.73274z"/></g></g></g></svg>