<svg version="1.1" xmlns="http://www.w3.org/2000/svg" xmlns:xlink="http://www.w3.org/1999/xlink" width="166.12738" height="297.64241" viewBox="0,0,166.12738,297.64241"><g transform="translate(-247.06984,-25.74026)"><g data-paper-data="{&quot;isPaintingLayer&quot;:true}" fill-rule="nonzero" stroke-linejoin="miter" stroke-miterlimit="10" stroke-dasharray="" stroke-dashoffset="0" style="mix-blend-mode: normal"><path d="M262.00804,167.62959c-4.04886,1.41322 -11.70965,8.18583 -11.70965,8.18583c0,0 -3.80055,-12.18062 -1.47532,-41.02747c2.42694,-30.10861 6.43058,-33.23559 6.43058,-33.23559l21.75357,26.68776l-2.06006,38.97183c0,0 -8.77497,-1.03582 -12.93913,0.41764z" data-paper-data="{&quot;index&quot;:null}" fill="#939317" stroke="#000000" stroke-width="2" stroke-linecap="butt"/><path d="M394.32034,170.3875c-5.16695,-1.46104 -16.22107,-0.76857 -16.22107,-0.76857l-1.00658,-35.91987l28.38078,-23.9098c0,0 4.89769,2.99609 6.72375,30.77165c1.74952,26.61158 -3.51343,37.7063 -3.51343,37.7063c0,0 -9.33958,-6.45912 -14.36345,-7.8797z" data-paper-data="{&quot;index&quot;:null}" fill="#939317" stroke="#000000" stroke-width="2" stroke-linecap="butt"/><path d="M287.04931,322.38266l15.14285,-131.8421l37.78325,-0.15789l13.57389,132z" fill="#b8b851" stroke="#000000" stroke-width="2" stroke-linecap="butt"/><path d="M299.99953,218.99532l3.12142,-26.32765l35.83075,-0.14203l2.76735,26.1059c0,0 -7.51543,4.19603 -21.55904,4.50964c-12.48458,0.27879 -20.16049,-4.14586 -20.16049,-4.14586z" fill="#939317" stroke="#000000" stroke-width="0" stroke-linecap="butt"/><path d="M325.66499,206.84996c-35.47251,-0.57236 -63.79312,-28.02931 -63.25586,-61.32683c0.53726,-33.29751 29.72896,-59.82649 65.20146,-59.25414c35.47251,0.57236 63.79312,28.02931 63.25586,61.32683c-0.53726,33.29751 -29.72896,59.82649 -65.20146,59.25414z" data-paper-data="{&quot;index&quot;:null}" fill="#b8b851" stroke="#000000" stroke-width="2" stroke-linecap="butt"/><path d="M390.14262,147.63799c-0.52925,32.80053 -29.35632,58.9324 -64.38705,58.36717c-35.03073,-0.56523 -62.99973,-27.61352 -62.47049,-60.41404c0.01644,-1.01872 7.01486,58.02471 62.58679,57.95155c58.1626,-0.07657 64.28248,-56.63258 64.27073,-55.90468z" data-paper-data="{&quot;index&quot;:null}" fill="#939317" stroke="#000000" stroke-width="0" stroke-linecap="butt"/><path d="M353.45466,170.90541c-12.96632,-0.20921 -23.30799,-10.8901 -23.09878,-23.85641c0.20921,-12.96632 10.8901,-23.30799 23.85641,-23.09878c12.96632,0.20921 23.30799,10.8901 23.09878,23.85641c-0.20921,12.96632 -10.8901,23.30799 -23.85641,23.09878z" data-paper-data="{&quot;index&quot;:null}" fill="#ffffff" stroke="#000000" stroke-width="2" stroke-linecap="butt"/><path d="M353.45872,163.6761c-9.12688,-0.14726 -16.40631,-7.66544 -16.25905,-16.79233c0.14726,-9.12688 7.66544,-16.40631 16.79233,-16.25905c9.12688,0.14726 16.4063,7.66544 16.25904,16.79233c-0.14726,9.12688 -7.66543,16.40631 -16.79232,16.25905z" data-paper-data="{&quot;index&quot;:null}" fill="#000000" stroke="none" stroke-width="0" stroke-linecap="butt"/><path d="M347.5659,179.39084c0,0 -7.14956,3.92724 -11.13449,4.60348c-4.24989,0.72121 -13.62117,-0.40244 -13.62117,-0.40244" data-paper-data="{&quot;index&quot;:null}" fill="none" stroke="#000000" stroke-width="2" stroke-linecap="round"/><path d="M276.1045,146.17364c0.20921,-12.96632 10.8901,-23.30799 23.85641,-23.09878c12.96632,0.20921 23.30799,10.8901 23.09878,23.85641c-0.20921,12.96632 -10.8901,23.30799 -23.85641,23.09878c-12.96632,-0.20921 -23.30799,-10.8901 -23.09878,-23.85641z" data-paper-data="{&quot;index&quot;:null}" fill="#ffffff" stroke="#000000" stroke-width="2" stroke-linecap="butt"/><path d="M283.17341,146.01203c0.14726,-9.12688 7.66544,-16.40631 16.79232,-16.25905c9.12687,0.14726 16.4063,7.66544 16.25904,16.79233c-0.14726,9.12688 -7.66544,16.40631 -16.79232,16.25905c-9.12687,-0.14726 -16.4063,-7.66544 -16.25904,-16.79233z" data-paper-data="{&quot;index&quot;:null}" fill="#000000" stroke="none" stroke-width="0" stroke-linecap="butt"/><path d="M377.31108,147.80664c-0.01987,1.23138 -46.9552,-0.75763 -46.9552,-0.75763c0.20921,-12.96632 10.8901,-23.30799 23.85641,-23.09878c12.96632,0.20921 23.30799,10.8901 23.09878,23.85641z" data-paper-data="{&quot;index&quot;:null}" fill="#939317" stroke="#000000" stroke-width="2" stroke-linecap="butt"/><path d="M323.05969,146.93128c0,0 -46.97478,0.456 -46.9552,-0.75763c0.20921,-12.96632 10.8901,-23.30799 23.85641,-23.09878c12.96632,0.20921 23.30799,10.8901 23.09878,23.85641z" data-paper-data="{&quot;index&quot;:null}" fill="#939317" stroke="#000000" stroke-width="2" stroke-linecap="butt"/><path d="M365.13982,118.79802c0,0 -7.99428,-3.96771 -12.08467,-4.99772c-3.91411,-0.98563 -11.95216,-1.05504 -11.95216,-1.05504c0,0 7.27546,-1.77656 12.34381,-0.50029c5.06832,1.27627 11.69301,6.55305 11.69301,6.55305z" data-paper-data="{&quot;index&quot;:null}" fill="#000000" stroke="none" stroke-width="0" stroke-linecap="butt"/><path d="M289.05148,117.57034c0,0 6.79147,-5.06031 11.89834,-6.1724c5.10688,-1.11208 12.32124,0.89827 12.32124,0.89827c0,0 -8.0361,-0.18995 -11.97997,0.66888c-4.1215,0.89752 -12.23961,4.60525 -12.23961,4.60525z" data-paper-data="{&quot;index&quot;:null}" fill="#000000" stroke="none" stroke-width="0" stroke-linecap="butt"/><path d="M364.2399,97.0601c-0.99994,5.61866 -6.36537,9.36287 -11.98403,8.36293c-5.61865,-0.99993 -9.36287,-6.36537 -8.36293,-11.98403c0.99995,-5.61866 21.32882,-60.87121 21.32882,-60.87121c0,0 0.01808,58.87366 -0.98186,64.49232z" data-paper-data="{&quot;index&quot;:null}" fill="#939317" stroke="#000000" stroke-width="2" stroke-linecap="butt"/><path d="M302.14394,104.61447c-5.64798,0.81816 -10.88983,-3.09721 -11.70797,-8.74519c-0.81814,-5.64799 1.0993,-64.49042 1.0993,-64.49042c0,0 18.53574,55.87966 19.35389,61.52764c0.81816,5.64798 -3.09722,10.88982 -8.7452,11.70797z" data-paper-data="{&quot;index&quot;:null}" fill="#939317" stroke="#000000" stroke-width="2" stroke-linecap="butt"/></g></g></svg>