<svg version="1.1" xmlns="http://www.w3.org/2000/svg" xmlns:xlink="http://www.w3.org/1999/xlink" width="164.80892" height="321.7229" viewBox="0,0,164.80892,321.7229"><defs><linearGradient x1="356.05332" y1="51.57949" x2="368.67697" y2="57.54328" gradientUnits="userSpaceOnUse" id="color-1"><stop offset="0" stop-color="#131308"/><stop offset="1" stop-color="#131308" stop-opacity="0"/></linearGradient><linearGradient x1="344.11252" y1="74.47295" x2="357.41684" y2="80.75831" gradientUnits="userSpaceOnUse" id="color-2"><stop offset="0" stop-color="#151509"/><stop offset="1" stop-color="#151509" stop-opacity="0"/></linearGradient><linearGradient x1="379.58261" y1="17.16896" x2="344.23515" y2="91.98955" gradientUnits="userSpaceOnUse" id="color-3"><stop offset="0" stop-color="#ffff70" stop-opacity="0"/><stop offset="1" stop-color="#ffff70"/></linearGradient><linearGradient x1="378.91872" y1="36.80431" x2="361.15032" y2="74.415" gradientUnits="userSpaceOnUse" id="color-4"><stop offset="0" stop-color="#ffffff" stop-opacity="0"/><stop offset="1" stop-color="#ffffff"/></linearGradient><linearGradient x1="370.47539" y1="50.41856" x2="349.70482" y2="94.384" gradientUnits="userSpaceOnUse" id="color-5"><stop offset="0" stop-color="#ffffff" stop-opacity="0"/><stop offset="1" stop-color="#ffffff"/></linearGradient><linearGradient x1="369.26526" y1="39.82572" x2="355.41203" y2="69.1491" gradientUnits="userSpaceOnUse" id="color-6"><stop offset="0" stop-color="#131308" stop-opacity="0"/><stop offset="1" stop-color="#131308"/></linearGradient><linearGradient x1="353.76373" y1="71.5276" x2="347.96657" y2="83.79857" gradientUnits="userSpaceOnUse" id="color-7"><stop offset="0" stop-color="#131308" stop-opacity="0"/><stop offset="1" stop-color="#131308"/></linearGradient></defs><g transform="translate(-257.24015,10.78754)"><g data-paper-data="{&quot;isPaintingLayer&quot;:true}" fill-rule="nonzero" stroke-linejoin="miter" stroke-miterlimit="10" stroke-dasharray="" stroke-dashoffset="0" style="mix-blend-mode: normal"><path d="M287.80283,309.93536l15.14285,-131.8421l37.78325,-0.15789l13.57389,132z" fill="#959541" stroke="#000000" stroke-width="2" stroke-linecap="butt"/><path d="M300.75305,206.548l3.12142,-26.32765l35.83075,-0.14203l2.76735,26.1059c0,0 -7.51543,4.19603 -21.55904,4.50964c-12.48458,0.27879 -20.16049,-4.14586 -20.16049,-4.14586z" fill="#7d7d37" stroke="#000000" stroke-width="0" stroke-linecap="butt"/><path d="M258.27882,133.5373c1.26276,-33.2779 31.02562,-59.16443 66.47724,-57.8192c35.4516,1.34523 63.16716,29.41284 61.90441,62.69073c-1.26276,33.2779 -31.02561,59.16443 -66.47723,57.8192c-35.4516,-1.34523 -63.16717,-29.41284 -61.90441,-62.69073z" fill="#959541" stroke="#000000" stroke-width="2" stroke-linecap="butt"/><path d="M258.99932,133.61852c0.0276,-0.72748 3.08255,56.0766 61.15604,59.29588c55.48679,3.07588 65.6654,-55.50313 65.62676,-54.48501c-1.24392,32.7812 -30.6336,58.27868 -65.64369,56.95018c-35.01009,-1.3285 -62.38302,-28.97985 -61.13912,-61.76105z" fill="#7d7d37" stroke="#000000" stroke-width="0" stroke-linecap="butt"/><path d="M271.80301,134.48027c0.49173,-12.95867 11.39545,-23.06515 24.35412,-22.5734c12.95867,0.49173 23.06514,11.39544 22.5734,24.35412c-0.49173,12.95867 -11.39544,23.06514 -24.35411,22.5734c-12.95867,-0.49173 -23.06515,-11.39544 -22.5734,-24.35411z" fill="#ffffff" stroke="#000000" stroke-width="2" stroke-linecap="butt"/><path d="M272.49387,137.36167c0.34612,-9.12152 8.02114,-16.23537 17.14264,-15.88925c9.12152,0.34612 16.23536,8.02116 15.88924,17.14266c-0.34612,9.12152 -8.02116,16.23536 -17.14266,15.88924c-9.12152,-0.34612 -16.23535,-8.02115 -15.88923,-17.14265z" fill="#000000" stroke="none" stroke-width="0" stroke-linecap="butt"/><path d="M332.31808,176.10889l-25.1069,-0.36774" fill="none" stroke="#000000" stroke-width="2" stroke-linecap="round"/><path d="M348.59584,160.89176c-12.95867,-0.49173 -23.06515,-11.39544 -22.5734,-24.35411c0.49173,-12.95867 11.39545,-23.06514 24.35412,-22.5734c12.95867,0.49173 23.06514,11.39544 22.5734,24.35411c-0.49173,12.95867 -11.39544,23.06514 -24.35411,22.5734z" data-paper-data="{&quot;index&quot;:null}" fill="#ffffff" stroke="#000000" stroke-width="2" stroke-linecap="butt"/><path d="M354.77945,148.76983c-9.12151,-0.34612 -16.23536,-8.02115 -15.88924,-17.14265c0.34612,-9.12152 8.02115,-16.23537 17.14264,-15.88925c9.12151,0.34612 16.23536,8.02116 15.88924,17.14266c-0.34612,9.12152 -8.02115,16.23537 -17.14264,15.88924z" data-paper-data="{&quot;index&quot;:null}" fill="#000000" stroke="none" stroke-width="0" stroke-linecap="butt"/><path d="M276.67504,105.84727c0,0 6.90014,-4.9111 12.03004,-5.91163c5.12989,-1.00053 12.29874,1.16655 12.29874,1.16655c0,0 -8.03006,-0.36503 -11.99169,0.40766c-4.14007,0.80748 -12.33707,4.33743 -12.33707,4.33743z" fill="#000000" stroke="none" stroke-width="0" stroke-linecap="butt"/><path d="M349.59459,103.79736c-3.8917,-1.07069 -11.92632,-1.31525 -11.92632,-1.31525c0,0 7.31244,-1.61759 12.35177,-0.23119c5.03932,1.38641 11.54742,6.8063 11.54742,6.8063c0,0 -7.90591,-4.14098 -11.97289,-5.25989z" data-paper-data="{&quot;index&quot;:null}" fill="#000000" stroke="none" stroke-width="0" stroke-linecap="butt"/><path d="M319.31129,78.4281c0.20388,-5.37319 6.73869,-37.81387 6.73869,-37.81387c0,0 4.05757,32.84264 3.85369,38.21582" fill="#804400" stroke="#000000" stroke-width="2" stroke-linecap="butt"/><g stroke="#000000"><path d="M419.73688,23.94862l-34.27126,101.61052c0,0 -24.45524,-2.15034 -53.22133,-17.20805c-27.98532,-14.64903 -40.68214,-27.66116 -40.68214,-27.66116l58.41787,-90.07272c0,0 16.01137,-0.86116 39.00882,10.65232c22.31898,11.17381 30.74805,22.67911 30.74805,22.67911z" fill="#333333" stroke-width="2" stroke-linecap="butt"/><path d="M419.73688,23.94862l-34.27126,101.61052c0,0 -24.45524,-2.15034 -53.22133,-17.20805c-27.98532,-14.64903 -40.68214,-27.66116 -40.68214,-27.66116l58.41787,-90.07272c0,0 21.51684,14.74538 33.02384,20.24369c11.74058,5.60992 36.73301,13.08773 36.73301,13.08773z" fill="#7d7d37" stroke-width="2" stroke-linecap="butt"/><path d="M384.96655,124.70378c0,0 13.23329,24.23208 -19.65083,24.3105c-37.67504,0.08987 -74.12597,-68.29531 -74.12597,-68.29531" fill="none" stroke-width="2" stroke-linecap="round"/><path d="M418.45915,24.58547l-33.50538,100.13342c0,0 -26.62148,-3.80403 -53.7928,-18.02696c-26.43385,-13.83691 -38.29254,-26.28538 -38.29254,-26.28538l7.68083,-11.8428c0,0 14.22246,33.20025 51.5863,31.86773c34.80232,-1.24117 66.32361,-75.84601 66.32361,-75.84601z" fill="#6c6c30" stroke-width="0" stroke-linecap="butt"/></g><g><g><g><path d="M309.76343,75.70409l70.15824,-58.37494l-1.2148,90.94586z" fill="#b4b44f" stroke="none" stroke-width="0" stroke-linecap="butt"/><path d="M378.98884,82.84244l-21.44723,-46.97535l7.27108,-5.72688l14.43601,38.47811z" fill="#cdcd51" stroke="none" stroke-width="0" stroke-linecap="butt"/><path d="M360.91611,99.52067l-20.66462,-48.94172l11.08441,-9.20245l22.75772,64.52949z" fill="#cdcd51" stroke="none" stroke-width="0" stroke-linecap="butt"/><path d="M374.76174,102.87208l-58.77146,-27.76537l60.67874,-51.18526z" fill="none" stroke="#717132" stroke-width="1.5" stroke-linecap="round"/></g><path d="M368.84415,57.16445c-3.60611,7.63312 -11.35633,13.14687 -13.66622,11.87133c-1.49932,-0.82793 -2.7204,-9.96011 0.88571,-17.59323c3.60611,-7.63311 5.83272,-15.09812 12.96647,-11.72792c7.13375,3.3702 3.42015,9.8167 -0.18596,17.44982z" fill="#6d6d30" stroke="none" stroke-width="0" stroke-linecap="butt"/><path d="M357.51731,80.80577c-1.60084,3.38853 -5.87685,4.72846 -9.55074,2.9928c-3.67389,-1.73565 -5.35442,-5.88963 -3.75358,-9.27815c1.60084,-3.38854 5.87685,-4.72847 9.55075,-2.99281c3.67389,1.73565 5.35442,5.88963 3.75357,9.27816z" fill="#6d6d30" stroke="none" stroke-width="0" stroke-linecap="butt"/><path d="M368.81893,57.21805c-3.56904,7.55465 -11.24963,13.007 -13.54145,11.7419c-1.4876,-0.82117 -2.70691,-9.86458 0.86214,-17.41924c3.56904,-7.55465 5.77024,-14.94413 12.84767,-11.60054c7.07742,3.34358 3.4007,9.72323 -0.16834,17.27788z" fill="url(#color-1)" stroke="none" stroke-width="0" stroke-linecap="butt"/><path d="M357.41684,80.75831c-1.60084,3.38853 -5.87685,4.72846 -9.55074,2.9928c-3.67389,-1.73565 -5.35442,-5.88963 -3.75358,-9.27815c1.60084,-3.38854 5.87685,-4.72847 9.55075,-2.99281c3.67389,1.73565 5.35442,5.88963 3.75357,9.27816z" fill="url(#color-2)" stroke="none" stroke-width="0" stroke-linecap="butt"/></g><g stroke="none" stroke-width="0" stroke-linecap="butt"><path d="M309.76343,75.70409l70.15824,-58.37494l-1.2148,90.94586z" fill="url(#color-3)"/><path d="M378.98884,82.84244l-21.44723,-46.97535l7.27108,-5.72688l14.43601,38.47811z" fill="url(#color-4)"/><path d="M361.04528,99.5817l-20.66462,-48.94172l11.08441,-9.20245l22.75772,64.52949z" fill="url(#color-5)"/><path d="M368.84415,57.16445c-3.60611,7.63312 -11.35633,13.14687 -13.66622,11.87133c-1.49932,-0.82793 -2.7204,-9.96011 0.88571,-17.59323c3.60611,-7.63311 5.83272,-15.09812 12.96647,-11.72792c7.13375,3.3702 3.42015,9.8167 -0.18596,17.44982z" fill="url(#color-6)"/><path d="M357.51731,80.80577c-1.60084,3.38853 -5.87685,4.72846 -9.55074,2.9928c-3.67389,-1.73565 -5.35442,-5.88963 -3.75358,-9.27815c1.60084,-3.38854 5.87685,-4.72847 9.55075,-2.99281c3.67389,1.73565 5.35442,5.88963 3.75357,9.27816z" fill="url(#color-7)"/></g></g></g></g></svg>