<svg version="1.1" xmlns="http://www.w3.org/2000/svg" xmlns:xlink="http://www.w3.org/1999/xlink" width="220.82429" height="270.12419" viewBox="0,0,220.82429,270.12419"><g transform="translate(-238.2507,-52.50435)"><g data-paper-data="{&quot;isPaintingLayer&quot;:true}" fill-rule="nonzero" stroke-linejoin="miter" stroke-miterlimit="10" stroke-dasharray="" stroke-dashoffset="0" style="mix-blend-mode: normal"><path d="M274.95566,158.47808l-34.94454,-103.87699l72.83658,39.6452" fill="#d9d97d" stroke="#000000" stroke-width="2" stroke-linecap="round"/><path d="M375.59761,107.37272l81.18612,-16.90335l-63.4743,89.34518" data-paper-data="{&quot;index&quot;:null}" fill="#d9d97d" stroke="#000000" stroke-width="2" stroke-linecap="round"/><path d="M292.15735,192.54158l-33.30486,-7.12651l18.89507,-17.67543l-31.60958,-11.58789l27.18806,-7.97413" fill="#d9d97d" stroke="#000000" stroke-width="2" stroke-linecap="round"/><path d="M291.47812,189.18806l-31.05108,-4.85422l17.52745,-18.78935l-30.23757,-9.3112l4.7241,-1.91942l25.47915,11.25432l-13.99737,15.03059z" fill="#b6b14b" stroke="none" stroke-width="0" stroke-linecap="round"/><path d="M385.34897,187.09599l17.80872,22.03696l-32.58273,-8.4741l5.46731,25.28939l-31.43582,-13.10684" data-paper-data="{&quot;index&quot;:null}" fill="#d9d97d" stroke="#000000" stroke-width="2" stroke-linecap="round"/><path d="M374.22951,220.46775l-3.07258,-20.30774l27.38526,5.08862l2.81664,4.25063l-30.21686,-9.37818l3.86548,25.40293l-28.3731,-13.51667z" data-paper-data="{&quot;index&quot;:null}" fill="#b6b14b" stroke="none" stroke-width="0" stroke-linecap="round"/><path d="M286.35186,321.62853l15.14285,-131.8421l37.78325,-0.15789l13.57389,132z" fill="#d9d97d" stroke="#000000" stroke-width="2" stroke-linecap="butt"/><path d="M299.88496,217.65831l3.12142,-26.32765l35.83075,-0.14203l2.76735,26.1059c0,0 -7.51543,4.19603 -21.55904,4.50964c-12.48458,0.27879 -20.16049,-4.14586 -20.16049,-4.14586z" fill="#b6b14b" stroke="#000000" stroke-width="0" stroke-linecap="butt"/><path d="M272.91218,137.20073c7.65509,-32.41008 41.85052,-52.0726 76.37761,-43.91748c34.5271,8.15511 56.31117,41.03969 48.65608,73.44977c-7.65509,32.41008 -41.85051,52.0726 -76.3776,43.91749c-34.52709,-8.15512 -56.31116,-41.0397 -48.65608,-73.44978z" fill="#d9d97d" stroke="#000000" stroke-width="2" stroke-linecap="butt"/><path d="M336.34781,210.09713c22.72924,-1.21135 38.49566,-12.99843 37.57294,-12.24061c-10.07779,8.27681 -22.98524,13.67783 -37.32252,14.6931c-14.19893,1.00547 -27.61566,-2.44527 -38.69737,-9.0918c-0.4205,-0.2522 15.7177,7.85069 38.44695,6.63932z" fill="#b6b14b" stroke="#000000" stroke-width="0" stroke-linecap="butt"/><path d="M286.11104,140.60145c2.98097,-12.62075 15.62862,-20.43533 28.24936,-17.45438c12.62075,2.98097 20.43533,15.62861 17.45439,28.24936c-2.98097,12.62075 -15.62861,20.43533 -28.24938,17.45439c-12.62075,-2.98097 -20.43534,-15.62862 -17.45439,-28.24937z" fill="#c5c556" stroke="#000000" stroke-width="2" stroke-linecap="butt"/><path d="M343.87602,189.69863c0,0 -19.99495,21.1282 -28.15424,18.37748c-8.15928,-2.75072 -13.61765,-32.45986 -13.61765,-32.45986z" fill="#000000" stroke="#000000" stroke-width="2" stroke-linecap="round"/><path d="M356.37089,181.32321c-12.62075,-2.98097 -20.43533,-15.62863 -17.45437,-28.24937c2.98097,-12.62075 15.62861,-20.43533 28.24935,-17.45438c12.62075,2.98097 20.43535,15.6286 17.4544,28.24937c-2.98097,12.62075 -15.62862,20.43534 -28.24938,17.45438z" data-paper-data="{&quot;index&quot;:null}" fill="#ffffff" stroke="#000000" stroke-width="2" stroke-linecap="butt"/><path d="M290.25006,132.39151l-3.01949,-3.25617" fill="none" stroke="#000000" stroke-width="2" stroke-linecap="round"/><path d="M384.27683,163.274l4.86909,-2.3435" fill="none" stroke="#000000" stroke-width="2" stroke-linecap="round"/><path d="M305.03251,115.46945c0,0 7.71754,-3.48861 12.94407,-3.48132c5.22654,0.0073 11.84307,3.51589 11.84307,3.51589c0,0 -7.80901,-1.90639 -11.84531,-1.91202c-4.21809,-0.00588 -12.94185,1.87744 -12.94185,1.87744z" fill="#000000" stroke="none" stroke-width="0" stroke-linecap="butt"/><path d="M368.35883,125.49256c-3.61226,-1.80092 -11.44899,-3.58998 -11.44899,-3.58998c0,0 7.48712,-0.17738 12.1646,2.1546c4.67746,2.33199 10.01852,8.90495 10.01852,8.90495c0,0 -6.95919,-5.58755 -10.73414,-7.46959z" data-paper-data="{&quot;index&quot;:null}" fill="#000000" stroke="none" stroke-width="0" stroke-linecap="butt"/><path d="M374.70512,165.59959c-3.37314,7.58328 -12.25507,10.99628 -19.83834,7.62313c-7.58326,-3.37314 -10.99625,-12.25509 -7.62311,-19.83836c3.37314,-7.58328 12.25509,-10.99627 19.83835,-7.62313c7.58326,3.37314 10.99625,12.25508 7.62311,19.83834z" data-paper-data="{&quot;index&quot;:null}" fill="none" stroke="#000000" stroke-width="5" stroke-linecap="butt"/></g></g></svg>