<svg version="1.1" xmlns="http://www.w3.org/2000/svg" xmlns:xlink="http://www.w3.org/1999/xlink" width="183.34483" height="288.75412" viewBox="0,0,183.34483,288.75412"><g transform="translate(-223.66482,-33.87442)"><g data-paper-data="{&quot;isPaintingLayer&quot;:true}" fill-rule="nonzero" stroke-linejoin="miter" stroke-miterlimit="10" stroke-dasharray="" stroke-dashoffset="0" style="mix-blend-mode: normal"><path d="M251.56371,145.28854l-11.56543,-108.98528l62.49542,54.509" fill="#d9d97d" stroke="#000000" stroke-width="2" stroke-linecap="round"/><path d="M326.83161,90.81226l62.49542,-54.509l-11.56544,108.98528" data-paper-data="{&quot;index&quot;:null}" fill="#d9d97d" stroke="#000000" stroke-width="2" stroke-linecap="round"/><path d="M277.83723,195.33165l-34,-2l16,-20.33333l-33,-6.66667l25.66667,-12" fill="#d9d97d" stroke="#000000" stroke-width="2" stroke-linecap="round"/><path d="M277.17055,194.49832l-31.37398,-1.84553l15.63923,-20.38787l-30.99288,-6.3601l4.51761,-2.36484l26.44339,8.75181l-12.48699,16.30706z" fill="#b6b14b" stroke="none" stroke-width="0" stroke-linecap="round"/><path d="M378.17056,154.33165l25.66667,12l-33,6.66667l16,20.33333l-34,2" data-paper-data="{&quot;index&quot;:null}" fill="#d9d97d" stroke="#000000" stroke-width="2" stroke-linecap="round"/><path d="M381.86321,188.59885l-12.48699,-16.30706l26.44338,-8.75181l4.51761,2.36484l-30.99288,6.3601l15.63923,20.38787l-31.37399,1.84553z" data-paper-data="{&quot;index&quot;:null}" fill="#b6b14b" stroke="none" stroke-width="0" stroke-linecap="round"/><path d="M286.35186,321.62852l11.64576,-131.25925l35.45186,-1.32359l19.40237,132.58285z" fill="#d9d97d" stroke="#000000" stroke-width="2" stroke-linecap="butt"/><path d="M295.80503,220.57254l3.12142,-26.32765l35.83075,-0.14203l2.76735,26.1059c0,0 -7.51543,4.19603 -21.55904,4.50964c-12.48458,0.27879 -20.16049,-4.14586 -20.16049,-4.14586z" fill="#b6b14b" stroke="#000000" stroke-width="0" stroke-linecap="butt"/><path d="M250.70207,147.63143c0,-33.30185 28.7599,-60.29833 64.23702,-60.29833c35.47713,0 64.23702,26.99648 64.23702,60.29833c0,33.30185 -28.75989,60.29834 -64.23702,60.29834c-35.47712,0 -64.23702,-26.99649 -64.23702,-60.29834z" fill="#d9d97d" stroke="#000000" stroke-width="2" stroke-linecap="butt"/><path d="M322.38821,204.46299c22.56486,-2.98543 37.36104,-15.9696 36.50042,-15.14192c-9.39954,9.03969 -21.845,15.43374 -36.05895,17.5673c-14.07679,2.11298 -27.72232,-0.2778 -39.28994,-6.03719c-0.43894,-0.21854 16.28361,6.59726 38.84847,3.61182z" fill="#b6b14b" stroke="#000000" stroke-width="0" stroke-linecap="butt"/><path d="M264.32921,147.90706c0,-12.96801 10.51265,-23.48065 23.48066,-23.48065c12.96801,0 23.48065,10.51264 23.48065,23.48065c0,12.96801 -10.51264,23.48066 -23.48065,23.48066c-12.96801,0 -23.48066,-10.51265 -23.48066,-23.48066z" fill="#ffffff" stroke="#000000" stroke-width="2" stroke-linecap="butt"/><path d="M267.64898,151.71136c0,-8.29964 6.72818,-15.02784 15.02783,-15.02784c8.29964,0 15.02784,6.72819 15.02784,15.02785c0,8.29964 -6.72819,15.02785 -15.02784,15.02785c-8.29964,0 -15.02783,-6.72819 -15.02783,-15.02785z" fill="none" stroke="#000000" stroke-width="5" stroke-linecap="butt"/><path d="M344.88387,182.38637c0,0 -12.88048,12.59393 -22.22828,13.55771c-9.34779,0.96378 -25.62828,-8.62357 -25.62828,-8.62357z" fill="#000000" stroke="#000000" stroke-width="2" stroke-linecap="round"/><path d="M264.32921,147.57372c0,-12.96801 10.51265,-23.48065 23.48066,-23.48065c12.96801,0 23.48065,10.51264 23.48065,23.48065c0,0 -7.7034,-17.89008 -23.92315,-17.77952c-15.92464,0.10855 -23.03816,18.38756 -23.03816,17.77952z" fill="#c5c556" stroke="#000000" stroke-width="2" stroke-linecap="butt"/><path d="M342.65116,173.71911c-12.96801,0 -23.48065,-10.51265 -23.48065,-23.48066c0,-12.96801 10.51264,-23.48065 23.48065,-23.48065c12.96801,0 23.48066,10.51264 23.48066,23.48065c0,12.96801 -10.51265,23.48066 -23.48066,23.48066z" data-paper-data="{&quot;index&quot;:null}" fill="#ffffff" stroke="#000000" stroke-width="2" stroke-linecap="butt"/><path d="M351.73794,154.04275c0,8.29966 -6.72818,15.02785 -15.02783,15.02785c-8.29964,0 -15.02784,-6.72821 -15.02784,-15.02785c0,-8.29966 6.7282,-15.02785 15.02784,-15.02785c8.29964,0 15.02783,6.7282 15.02783,15.02784z" data-paper-data="{&quot;index&quot;:null}" fill="none" stroke="#000000" stroke-width="5" stroke-linecap="butt"/><path d="M341.92796,129.54469c-16.21975,-0.11056 -23.3403,18.36238 -23.3403,18.36238c0,-12.96801 10.51264,-23.48065 23.48065,-23.48065c12.96801,0 23.48066,10.51264 23.48066,23.48065c0,0.60804 -7.69637,-18.25383 -23.62101,-18.36238z" data-paper-data="{&quot;index&quot;:null}" fill="#c5c556" stroke="#000000" stroke-width="2" stroke-linecap="butt"/><path d="M264.27798,147.60712l-3.6,-2.6" fill="none" stroke="#000000" stroke-width="2" stroke-linecap="round"/><path d="M369.27798,144.00712l-4.2,3.4" fill="none" stroke="#000000" stroke-width="2" stroke-linecap="round"/><path d="M276.9669,119.09859c0,0 6.70895,-5.16922 11.79721,-6.36355c5.08827,-1.19433 12.33413,0.69937 12.33413,0.69937c0,0 -8.03812,-0.06028 -11.96762,0.86207c-4.10648,0.96389 -12.16372,4.80211 -12.16372,4.80211z" fill="#000000" stroke="none" stroke-width="0" stroke-linecap="butt"/><path d="M340.90144,114.29649c-3.9295,-0.92235 -11.96762,-0.86207 -11.96762,-0.86207c0,0 7.24586,-1.8937 12.33413,-0.69937c5.08826,1.19433 11.79721,6.36355 11.79721,6.36355c0,0 -8.05724,-3.83822 -12.16372,-4.80211z" data-paper-data="{&quot;index&quot;:null}" fill="#000000" stroke="none" stroke-width="0" stroke-linecap="butt"/></g></g></svg>