<svg version="1.1" xmlns="http://www.w3.org/2000/svg" xmlns:xlink="http://www.w3.org/1999/xlink" width="150.83331" height="270.85765" viewBox="0,0,150.83331,270.85765"><g transform="translate(-244.58337,-44.57118)"><g data-paper-data="{&quot;isPaintingLayer&quot;:true}" stroke-miterlimit="10" stroke-dasharray="" stroke-dashoffset="0" style="mix-blend-mode: normal"><path d="M290.72614,314.42882l13.62477,-131.8421l33.99545,-0.15789l12.2131,132z" fill="#ecec68" fill-rule="nonzero" stroke="#000000" stroke-width="2" stroke-linecap="butt" stroke-linejoin="miter"/><path d="M296.57573,267.16265l8.45591,-81.82486l32.57503,-0.15129l7.60398,82.1843c0,0 -14.59301,4.84164 -24.23451,4.80038c-9.6415,-0.04126 -24.40041,-5.00852 -24.40041,-5.00852z" fill="#c8c824" fill-rule="nonzero" stroke="#000000" stroke-width="0" stroke-linecap="butt" stroke-linejoin="miter"/><g fill-rule="nonzero" stroke="#000000" stroke-width="2" stroke-linecap="butt" stroke-linejoin="miter"><path d="M259.58338,133.23785v-70l7.33332,0.00001v70z" fill="#ffe9b3"/><path d="M245.58338,63.23785c0,-9.75702 7.90964,-17.66667 17.66666,-17.66667c9.75702,0 17.66667,7.90964 17.66667,17.66667c0,9.75702 -7.90964,17.66667 -17.66667,17.66667c-9.75702,0 -17.66666,-7.90964 -17.66666,-17.66667z" fill="#dccd27"/></g><g fill-rule="nonzero" stroke="#000000" stroke-width="2" stroke-linecap="butt" stroke-linejoin="miter"><path d="M373.08336,133.23785v-70l7.33333,0.00001v70z" fill="#ffe9b3"/><path d="M359.08336,63.23785c0,-9.75702 7.90964,-17.66667 17.66666,-17.66667c9.75702,0 17.66667,7.90964 17.66667,17.66667c0,9.75702 -7.90965,17.66667 -17.66667,17.66667c-9.75702,0 -17.66666,-7.90964 -17.66666,-17.66667z" fill="#dccd27"/></g><path d="M295.43462,251.66804l7.58416,-69.08131l36.11546,-0.15789l6.82766,69.46209c0,0 -1.63411,6.69929 -25.4124,6.56159c-22.03251,-0.12759 -25.11488,-6.78449 -25.11488,-6.78449z" fill="#dccd27" fill-rule="nonzero" stroke="#000000" stroke-width="2" stroke-linecap="butt" stroke-linejoin="miter"/><path d="M296.92485,228.53569l5.27751,-45.94896l37.78325,-0.15789l4.67444,45.45686c0,0 -7.00642,7.16153 -24.11741,7.06682c-17.11099,-0.09472 -23.61779,-6.41683 -23.61779,-6.41683z" fill="#dccd27" fill-rule="nonzero" stroke="#000000" stroke-width="2" stroke-linecap="butt" stroke-linejoin="miter"/><path d="M300.00973,211.04147l3.12142,-26.32765l35.83075,-0.14203l2.76735,26.1059c0,0 -7.51543,4.19603 -21.55904,4.50964c-12.48458,0.27879 -20.16049,-4.14586 -20.16049,-4.14586z" fill="#b2a730" fill-rule="nonzero" stroke="#000000" stroke-width="0" stroke-linecap="butt" stroke-linejoin="miter"/><path d="M256.14941,143.77498c0,-33.30185 28.7599,-60.29833 64.23702,-60.29833c35.47712,0 64.23702,26.99649 64.23702,60.29833c0,33.30185 -28.7599,60.29833 -64.23702,60.29833c-35.47712,0 -64.23702,-26.99649 -64.23702,-60.29833z" fill="#b9b912" fill-rule="nonzero" stroke="#000000" stroke-width="2" stroke-linecap="butt" stroke-linejoin="miter"/><path d="M256.87248,143.82884c0,-0.72799 5.20666,55.91939 63.36046,56.93429c55.56352,0.9697 63.51358,-57.95314 63.51358,-56.93429c0,32.80479 -28.40173,59.39833 -63.43702,59.39833c-35.03529,0 -63.43702,-26.59354 -63.43702,-59.39833z" fill="#c8c824" fill-rule="nonzero" stroke="#000000" stroke-width="0" stroke-linecap="butt" stroke-linejoin="miter"/><path d="M300.13536,167.10348h40.34822c2.4445,0 4.41244,1.96795 4.41244,4.41244v18.32584c0,2.44449 -1.96795,4.41244 -4.41244,4.41244h-40.34821c-2.44449,0 -4.41245,-1.96795 -4.41245,-4.41244v-18.32584c0,-2.44449 1.96795,-4.41244 4.41245,-4.41244z" fill="#000000" fill-rule="evenodd" stroke="#000000" stroke-width="2" stroke-linecap="round" stroke-linejoin="round"/><path d="M267.17723,107.17562h106.26448c6.43804,0 11.62097,5.18296 11.62097,11.62098v48.26449c0,6.43802 -5.18296,11.62098 -11.62097,11.62098h-106.26447c-6.43802,0 -11.62099,-5.18296 -11.62099,-11.62098v-48.26449c0,-6.43801 5.18297,-11.62098 11.62099,-11.62098z" fill="#dccd27" fill-rule="evenodd" stroke="#000000" stroke-width="2" stroke-linecap="round" stroke-linejoin="round"/><path d="M275.10906,112.51303h90.40082c5.47694,0 9.88614,4.40922 9.88614,9.88614v41.05934c0,5.47692 -4.40922,9.88614 -9.88614,9.88614h-90.4008c-5.47692,0 -9.88616,-4.40922 -9.88616,-9.88614v-41.05934c0,-5.47692 4.40923,-9.88614 9.88616,-9.88614z" fill="#000000" fill-rule="evenodd" stroke="#000000" stroke-width="2" stroke-linecap="round" stroke-linejoin="round"/><path d="M335.66781,182.72456c0,0 -1.49784,8.8 -14.86814,8.8c-11.10186,0 -14.3434,-8.46154 -14.3434,-8.46154" fill="none" fill-rule="nonzero" stroke="#4df6ff" stroke-width="2" stroke-linecap="round" stroke-linejoin="miter"/></g></g></svg>