<svg version="1.1" xmlns="http://www.w3.org/2000/svg" xmlns:xlink="http://www.w3.org/1999/xlink" width="191.09384" height="146.16592" viewBox="0,0,191.09384,146.16592"><defs><linearGradient x1="145.45308" y1="233.53525" x2="334.54693" y2="233.53525" gradientUnits="userSpaceOnUse" id="color-1"><stop offset="0" stop-color="#ff4900"/><stop offset="1" stop-color="#ff9400"/></linearGradient><linearGradient x1="227.6809" y1="150.95537" x2="227.6809" y2="207.83037" gradientUnits="userSpaceOnUse" id="color-2"><stop offset="0" stop-color="#ff9400"/><stop offset="1" stop-color="#ff4900"/></linearGradient><linearGradient x1="184.13297" y1="139.36488" x2="240.57977" y2="139.36488" gradientUnits="userSpaceOnUse" id="color-3"><stop offset="0" stop-color="#ff4900"/><stop offset="1" stop-color="#ff9400"/></linearGradient><linearGradient x1="239.64387" y1="139.36488" x2="296.09067" y2="139.36488" gradientUnits="userSpaceOnUse" id="color-4"><stop offset="0" stop-color="#ff9400"/><stop offset="1" stop-color="#ff4900"/></linearGradient><linearGradient x1="252.54275" y1="150.95536" x2="252.54275" y2="207.83036" gradientUnits="userSpaceOnUse" id="color-5"><stop offset="0" stop-color="#ff9400"/><stop offset="1" stop-color="#ff4900"/></linearGradient><linearGradient x1="272.94999" y1="215.04847" x2="272.94999" y2="246.23334" gradientUnits="userSpaceOnUse" id="color-6"><stop offset="0" stop-color="#ffffff" stop-opacity="0.50196"/><stop offset="1" stop-color="#ffffff" stop-opacity="0"/></linearGradient><linearGradient x1="270.375" y1="108.16668" x2="270.375" y2="151.66668" gradientUnits="userSpaceOnUse" id="color-7"><stop offset="0" stop-color="#ffffff" stop-opacity="0.73333"/><stop offset="1" stop-color="#ffffff" stop-opacity="0"/></linearGradient><linearGradient x1="253.49999" y1="187.66667" x2="253.49999" y2="153.41667" gradientUnits="userSpaceOnUse" id="color-8"><stop offset="0" stop-color="#ffffff" stop-opacity="0"/><stop offset="1" stop-color="#ffffff" stop-opacity="0.50196"/></linearGradient><linearGradient x1="228.74999" y1="188.16668" x2="228.74999" y2="153.91668" gradientUnits="userSpaceOnUse" id="color-9"><stop offset="0" stop-color="#ffffff" stop-opacity="0"/><stop offset="1" stop-color="#ffffff" stop-opacity="0.50196"/></linearGradient></defs><g transform="translate(-144.45308,-106.91443)"><g data-paper-data="{&quot;isPaintingLayer&quot;:true}" fill-rule="nonzero" stroke-linecap="butt" stroke-linejoin="miter" stroke-miterlimit="10" stroke-dasharray="" stroke-dashoffset="0" style="mix-blend-mode: normal"><g><path d="M145.52582,252.08036c0,0 -6.25365,-39.21259 97.21136,-37c96.08934,-0.30815 91.78056,37 91.78056,37h-13.30546c0,0 5.03358,-25.28149 -77.66048,-27c-89.60479,-1.86212 -84.72051,27 -84.72051,27z" data-paper-data="{&quot;index&quot;:null}" fill="url(#color-1)" stroke="none" stroke-width="0"/><path d="M222.33682,207.83037v-56.875l10.68817,1.875v55z" data-paper-data="{&quot;index&quot;:null}" fill="url(#color-2)" stroke="none" stroke-width="0"/><path d="M184.13297,108.0449l10.85162,-0.12524l45.39626,51.5671c0,0 0.38408,10.67926 0.08483,11.32066c-0.22306,0.47811 -56.33272,-62.76252 -56.33272,-62.76252z" data-paper-data="{&quot;index&quot;:null}" fill="url(#color-3)" stroke="none" stroke-width="0"/><path d="M232.62752,162.16718l8.12982,8.76524" data-paper-data="{&quot;index&quot;:null}" fill="none" stroke="#250a00" stroke-width="2"/><path d="M222.85187,151.85289l-39.05224,-43.80799l10.85162,-0.12524l45.9796,51.9421" data-paper-data="{&quot;index&quot;:null}" fill="none" stroke="#250a00" stroke-width="2"/><path d="M247.19865,207.83036v-55l10.68817,-1.875v56.875z" data-paper-data="{&quot;index&quot;:null}" fill="#ff9400" stroke="none" stroke-width="0"/><path d="M296.09067,108.04489c0,0 -56.10966,63.24063 -56.33272,62.76252c-0.29925,-0.6414 0.08483,-11.32066 0.08483,-11.32066l45.39626,-51.5671l10.85162,0.12524z" data-paper-data="{&quot;index&quot;:null}" fill="url(#color-4)" stroke="none" stroke-width="0"/><path d="M257.8222,150.95536l0.06464,56.875h-10.68817v-45.01475" data-paper-data="{&quot;index&quot;:null}" fill="url(#color-5)" stroke="none" stroke-width="0"/><path d="M239.4663,170.93241l8.12982,-8.76525" data-paper-data="{&quot;index&quot;:null}" fill="none" stroke="#250a00" stroke-width="2"/><path d="M148.77583,249.33036c0,0 -2.25365,-34.46259 90.46136,-32c96.08934,-0.30815 91.53056,31.75 91.53056,31.75h-6.30546c0,0 -2.71642,-24.78149 -85.41048,-26.5c-89.60479,-1.86212 -82.47051,27.25 -82.47051,27.25z" data-paper-data="{&quot;index&quot;:null}" fill="#ff9400" stroke="none" stroke-width="0"/><g data-paper-data="{&quot;index&quot;:null}" fill="#ff9400" stroke="none" stroke-width="0"><path d="M225.00347,204.16371v-54.675l5.35484,6.44423v48.23077z" data-paper-data="{&quot;index&quot;:null}"/><path d="M193.78459,110.45299l46.59626,52.1671c0,0 0.38408,3.87926 0.08483,4.52066c-0.22306,0.47811 -52.53272,-57.16252 -52.53272,-57.16252z" data-paper-data="{&quot;index&quot;:null}"/></g><g data-paper-data="{&quot;index&quot;:null}" fill="#ff9400" stroke="none" stroke-width="0"><path d="M249.95441,203.56371v-48.23077l5.35484,-6.44423v54.675z" data-paper-data="{&quot;index&quot;:null}"/><path d="M292.37977,109.37822c0,0 -52.30966,57.64063 -52.53272,57.16252c-0.29925,-0.6414 0.08483,-4.52066 0.08483,-4.52066l46.59626,-52.1671z" data-paper-data="{&quot;index&quot;:null}"/></g><path d="M213.2,216.53334c0,0 40.9898,-4.28341 72.5,1.7c43.21802,8.20658 47,28 47,28c0,0 -13.26872,-15.04263 -45.57708,-22.84144c-19.34028,-4.66849 -73.92292,-6.85855 -73.92292,-6.85855z" fill="url(#color-6)" stroke="none" stroke-width="NaN"/><path d="M248.12499,151.66668l38.5,-43.5h6z" fill="url(#color-7)" stroke="none" stroke-width="0"/><path d="M239.59279,159.86175l45.9796,-51.9421l10.85162,0.12524l-39.05224,43.808" data-paper-data="{&quot;index&quot;:null}" fill="none" stroke="#250a00" stroke-width="2"/><path d="M255.625,153.41667v34.25h-4.25v-28.25z" data-paper-data="{&quot;index&quot;:null}" fill="url(#color-8)" stroke="none" stroke-width="0"/><path d="M230.87499,159.91668v28.25h-4.25v-34.25z" data-paper-data="{&quot;index&quot;:null}" fill="url(#color-9)" stroke="none" stroke-width="0"/><path d="M233.02497,162.81561v45.01475h-10.68817l0.06464,-56.875" data-paper-data="{&quot;index&quot;:null}" fill="none" stroke="#250a00" stroke-width="2"/><path d="M257.8222,150.95536l0.06464,56.875h-10.68817v-45.01475" data-paper-data="{&quot;index&quot;:null}" fill="none" stroke="#250a00" stroke-width="2"/><path d="M145.52582,252.08036c0,0 -6.25365,-39.21259 97.21136,-37c96.08934,-0.30815 91.78056,37 91.78056,37h-13.30546c0,0 5.03358,-25.28149 -77.66048,-27c-89.60479,-1.86212 -84.72051,27 -84.72051,27z" data-paper-data="{&quot;index&quot;:null}" fill="none" stroke="#250a00" stroke-width="2"/></g></g></g></svg>