<svg version="1.1" xmlns="http://www.w3.org/2000/svg" xmlns:xlink="http://www.w3.org/1999/xlink" width="163.16557" height="246.91553" viewBox="0,0,163.16557,246.91553"><g transform="translate(-237.23919,-60.7244)"><g data-paper-data="{&quot;isPaintingLayer&quot;:true}" fill-rule="nonzero" stroke-linejoin="miter" stroke-miterlimit="10" stroke-dasharray="" stroke-dashoffset="0" style="mix-blend-mode: normal"><path d="M354.22913,131.79303c-5.54537,-4.88471 -6.04125,-13.81669 -1.10759,-19.95012c4.93366,-6.13342 44.94605,-34.54898 44.94605,-34.54898c0,0 -19.93084,46.10467 -24.86449,52.23809c-4.93366,6.13343 -13.4286,7.14571 -18.97397,2.261z" data-paper-data="{&quot;index&quot;:null}" fill="#989843" stroke="#000000" stroke-width="2" stroke-linecap="butt"/><path d="M264.44086,129.53202c-4.93366,-6.13342 -24.86449,-52.23809 -24.86449,-52.23809c0,0 40.0124,28.41555 44.94606,34.54898c4.93366,6.13343 4.43778,15.06541 -1.10759,19.95012c-5.54537,4.88471 -14.04031,3.87242 -18.97397,-2.261z" fill="#989843" stroke="#000000" stroke-width="2" stroke-linecap="butt"/><path d="M287.05153,306.63993l14.09518,-128.4217l35.16919,-0.1538l12.63477,128.5755z" fill="#c5c556" stroke="#000000" stroke-width="2" stroke-linecap="butt"/><path d="M299.1058,205.93475l2.90546,-25.64462l33.35177,-0.13835l2.57589,25.42863c0,0 -6.99547,4.08717 -20.06746,4.39265c-11.62083,0.27156 -18.76568,-4.0383 -18.76568,-4.0383z" fill="#acac4c" stroke="#000000" stroke-width="0" stroke-linecap="butt"/><path d="M258.2723,144.42953c0,-32.43789 26.77013,-58.73399 59.79273,-58.73399c33.02261,0 59.79273,26.29611 59.79273,58.73399c0,32.43789 -26.77013,58.734 -59.79273,58.734c-33.02261,0 -59.79273,-26.29611 -59.79273,-58.734z" fill="#c5c556" stroke="#000000" stroke-width="2" stroke-linecap="butt"/><path d="M259.50128,143.90822c0,-0.70911 4.84643,54.46867 58.97682,55.45723c51.71932,0.94454 59.11934,-56.44965 59.11934,-55.45723c0,31.95373 -26.43673,57.85736 -59.04808,57.85736c-32.61135,0 -59.04808,-25.90363 -59.04808,-57.85736z" fill="#acac4c" stroke="#000000" stroke-width="0" stroke-linecap="butt"/><path d="M271.44097,144.27411c0,-12.63157 9.78532,-22.87149 21.85612,-22.87149c12.0708,0 21.85612,10.23992 21.85612,22.87149c0,12.63157 -9.78532,22.87148 -21.85612,22.87148c-12.0708,0 -21.85612,-10.23992 -21.85612,-22.87148z" fill="#ffffff" stroke="#000000" stroke-width="2" stroke-linecap="butt"/><path d="M343.80163,167.14559c-12.0708,0 -21.85612,-10.23992 -21.85612,-22.87148c0,-12.63157 9.78532,-22.87149 21.85612,-22.87149c12.0708,0 21.85612,10.23992 21.85612,22.87149c0,12.63157 -9.78532,22.87148 -21.85612,22.87148z" data-paper-data="{&quot;index&quot;:null}" fill="#ffffff" stroke="#000000" stroke-width="2" stroke-linecap="butt"/><path d="M283.73453,112.2695c0,0 11.15253,0.16778 17.3648,3.2353c6.21227,3.06751 12.0972,11.31255 12.0972,11.31255c0,0 -8.20957,-6.94581 -13.00711,-9.31474c-5.01362,-2.47562 -16.45489,-5.23311 -16.45489,-5.23311z" fill="#000000" stroke="none" stroke-width="0" stroke-linecap="butt"/><path d="M335.3369,116.43589c-4.68712,2.5921 -12.57849,9.91639 -12.57849,9.91639c0,0 5.51079,-8.51253 11.58011,-11.86902c6.06929,-3.35649 17.20389,-4.04929 17.20389,-4.04929c0,0 -11.30727,3.29307 -16.20551,6.00192z" data-paper-data="{&quot;index&quot;:null}" fill="#000000" stroke="none" stroke-width="0" stroke-linecap="butt"/><path d="M310.11511,87.57108c0,-3.42021 8.47041,-24.19772 8.47041,-24.19772c0,0 8.47041,20.77752 8.47041,24.19772c0,3.42021 -3.79233,6.19285 -8.47041,6.19285c-4.67808,0 -8.47041,-2.77263 -8.47041,-6.19285z" fill="#989843" stroke="#000000" stroke-width="2" stroke-linecap="butt"/><path d="M341.78825,93.60946c1.2782,-3.14781 16.83899,-18.80398 16.83899,-18.80398c0,0 0.03079,22.58923 -1.24742,25.73704c-1.2782,3.14781 -5.80469,4.1476 -10.11018,2.2331c-4.3055,-1.9145 -6.75959,-6.01833 -5.4814,-9.16614z" fill="#989843" stroke="#000000" stroke-width="2" stroke-linecap="butt"/><path d="M291.99429,102.45093c-4.3055,1.9145 -8.83199,0.91471 -10.11019,-2.2331c-1.2782,-3.14781 -1.24742,-25.73704 -1.24742,-25.73704c0,0 15.56079,15.65618 16.83899,18.80398c1.2782,3.14781 -1.1759,7.25163 -5.48139,9.16614z" data-paper-data="{&quot;index&quot;:null}" fill="#989843" stroke="#000000" stroke-width="2" stroke-linecap="butt"/><path d="M280.22481,146.87433c0,-8.89127 6.98445,-16.09905 15.6002,-16.09905c8.61576,0 15.60021,7.20779 15.60021,16.09905c0,8.89127 -6.98446,16.09905 -15.60021,16.09905c-8.61576,0 -15.6002,-7.20779 -15.6002,-16.09905z" fill="#000000" stroke="none" stroke-width="0" stroke-linecap="butt"/><path d="M325.52923,146.58098c0,-8.89127 6.98445,-16.09905 15.6002,-16.09905c8.61576,0 15.60021,7.20779 15.60021,16.09905c0,8.89127 -6.98446,16.09905 -15.60021,16.09905c-8.61576,0 -15.6002,-7.20779 -15.6002,-16.09905z" fill="#000000" stroke="none" stroke-width="0" stroke-linecap="butt"/><path d="M310.51421,188.79041c-5.93348,-0.23082 -5.85096,-8.71344 -5.85096,-8.71344c0,0 11.7063,-2.30819 16.36332,-2.30819c4.70287,0 14.178,1.61573 14.178,1.61573c0,0 -14.51443,9.80175 -24.69037,9.4059z" fill="#ffffff" stroke="#000000" stroke-width="2" stroke-linecap="round"/><path d="M332.86732,180.87558c0,0 -13.32291,3.93156 -18.4697,3.50491c-4.90889,-0.40694 -9.6751,-2.54317 -9.6751,-2.54317" fill="none" stroke="#000000" stroke-width="0.5" stroke-linecap="round"/></g></g></svg>