<svg version="1.1" xmlns="http://www.w3.org/2000/svg" xmlns:xlink="http://www.w3.org/1999/xlink" width="168.32621" height="320.77854" viewBox="0,0,168.32621,320.77854"><g transform="translate(-259.5152,9.25416)"><g data-paper-data="{&quot;isPaintingLayer&quot;:true}" fill-rule="nonzero" stroke-linejoin="miter" stroke-miterlimit="10" stroke-dasharray="" stroke-dashoffset="0" style="mix-blend-mode: normal"><path d="M288.39184,310.52437l15.14285,-131.8421l37.78325,-0.15789l13.57389,132z" fill="#959541" stroke="#000000" stroke-width="2" stroke-linecap="butt"/><path d="M301.34206,207.13701l3.12142,-26.32765l35.83075,-0.14203l2.76735,26.1059c0,0 -7.51543,4.19603 -21.55904,4.50964c-12.48458,0.27879 -20.16049,-4.14586 -20.16049,-4.14586z" fill="#7d7d37" stroke="#000000" stroke-width="0" stroke-linecap="butt"/><path d="M260.6477,132.27121c2.25771,-33.22523 32.78166,-58.20981 68.17717,-55.80463c35.39549,2.40517 62.25899,31.28934 60.00129,64.51456c-2.25771,33.22523 -32.78165,58.20981 -68.17716,55.80463c-35.39549,-2.40517 -62.259,-31.28934 -60.00129,-64.51456z" fill="#959541" stroke="#000000" stroke-width="2" stroke-linecap="butt"/><path d="M261.36545,132.37394c0.04935,-0.72633 1.40362,56.14372 59.35481,61.09884c55.36994,4.73441 67.2964,-53.51389 67.22732,-52.49738c-2.22402,32.72932 -32.36331,57.33618 -67.31799,54.96094c-34.95468,-2.37524 -61.48816,-30.83309 -59.26416,-63.5624z" fill="#7d7d37" stroke="#000000" stroke-width="0" stroke-linecap="butt"/><path d="M274.13763,133.61833c0.87917,-12.93816 12.08035,-22.71393 25.01851,-21.83474c12.93816,0.87917 22.71392,12.08034 21.83474,25.01851c-0.87917,12.93816 -12.08034,22.71392 -25.0185,21.83474c-12.93816,-0.87917 -22.71393,-12.08034 -21.83474,-25.0185z" fill="#ffffff" stroke="#000000" stroke-width="2" stroke-linecap="butt"/><path d="M274.74198,136.51911c0.61884,-9.10708 8.50324,-15.98815 17.6103,-15.36931c9.10708,0.61884 15.98814,8.50326 15.3693,17.61032c-0.61884,9.10708 -8.50326,15.98814 -17.61032,15.3693c-9.10708,-0.61884 -15.98813,-8.50325 -15.36929,-17.61031z" fill="#000000" stroke="none" stroke-width="0" stroke-linecap="butt"/><path d="M336.40737,178.04223l-25.03924,-1.87835" fill="none" stroke="#000000" stroke-width="2" stroke-linecap="round"/><path d="M350.10598,162.31529c-12.93816,-0.87917 -22.71393,-12.08034 -21.83474,-25.0185c0.87917,-12.93816 12.08035,-22.71392 25.01851,-21.83474c12.93816,0.87917 22.71392,12.08034 21.83474,25.0185c-0.87917,12.93816 -12.08034,22.71392 -25.0185,21.83474z" data-paper-data="{&quot;index&quot;:null}" fill="#ffffff" stroke="#000000" stroke-width="2" stroke-linecap="butt"/><path d="M356.64946,150.38377c-9.10707,-0.61884 -15.98814,-8.50325 -15.3693,-17.61031c0.61884,-9.10708 8.50325,-15.98815 17.6103,-15.36931c9.10707,0.61884 15.98814,8.50326 15.3693,17.61032c-0.61884,9.10708 -8.50325,15.98815 -17.6103,15.3693z" data-paper-data="{&quot;index&quot;:null}" fill="#000000" stroke="none" stroke-width="0" stroke-linecap="butt"/><path d="M279.86405,105.1439c0,0 7.04397,-4.70248 12.2015,-5.5491c5.15753,-0.84662 12.25834,1.53395 12.25834,1.53395c0,0 -8.01555,-0.60509 -11.99852,0.04874c-4.16237,0.68327 -12.4613,3.96642 -12.4613,3.96642z" fill="#000000" stroke="none" stroke-width="0" stroke-linecap="butt"/><path d="M352.81228,105.27632c-3.85793,-1.18663 -11.88164,-1.67144 -11.88164,-1.67144c0,0 7.35756,-1.39811 12.35316,0.13842c4.99559,1.53654 11.33864,7.1487 11.33864,7.1487c0,0 -7.77849,-4.37563 -11.81018,-5.61571z" data-paper-data="{&quot;index&quot;:null}" fill="#000000" stroke="none" stroke-width="0" stroke-linecap="butt"/><path d="M323.30147,79.01248c0.36453,-5.36469 7.86689,-37.59536 7.86689,-37.59536c0,0 3.07326,32.94932 2.70873,38.314" fill="#804400" stroke="#000000" stroke-width="2" stroke-linecap="butt"/><g stroke="#000000"><path d="M425.31188,27.56164l-37.29563,100.53981c0,0 -24.37997,-2.88096 -52.68273,-18.79248c-27.53456,-15.47966 -39.83644,-28.8658 -39.83644,-28.8658l61.08628,-88.28482c0,0 16.02997,-0.38179 38.67269,11.81451c21.97472,11.83649 30.05584,23.5888 30.05584,23.5888z" fill="#333333" stroke-width="2" stroke-linecap="butt"/><path d="M425.31188,27.56164l-37.29563,100.53981c0,0 -24.37997,-2.88096 -52.68273,-18.79248c-27.53456,-15.47966 -39.83644,-28.8658 -39.83644,-28.8658l61.08628,-88.28482c0,0 21.0661,15.38246 32.40346,21.22255c11.5675,5.95863 36.32505,14.18075 36.32505,14.18075z" fill="#7d7d37" stroke-width="2" stroke-linecap="butt"/><path d="M387.54299,127.23154c0,0 12.50246,24.61711 -20.36929,23.71176c-37.66087,-1.03723 -72.04972,-70.48225 -72.04972,-70.48225" fill="none" stroke-width="2" stroke-linecap="round"/><path d="M424.01567,28.15998l-36.48591,99.08628c0,0 -26.49577,-4.59872 -53.22944,-19.62812c-26.00808,-14.62149 -37.48907,-27.41915 -37.48907,-27.41915l8.03167,-11.60773c0,0 13.2229,33.61086 50.60988,33.39669c34.82387,-0.19949 68.56288,-73.82797 68.56288,-73.82797z" fill="#6c6c30" stroke-width="0" stroke-linecap="butt"/></g><path d="M316.24733,78.8708l68.69738,-60.08729l1.02829,90.94816z" fill="#ffff70" stroke="none" stroke-width="0" stroke-linecap="butt"/><path d="M385.15092,85.37712l-22.59912,-46.43218l7.12765,-5.90444l15.38049,38.11041z" fill="#ffffff" stroke="none" stroke-width="0" stroke-linecap="butt"/><path d="M367.73337,101.95734l-21.86523,-48.41725l10.8541,-9.473l24.3421,63.94866z" fill="#ffffff" stroke="none" stroke-width="0" stroke-linecap="butt"/><path d="M376.1067,57.50241c-3.41678,7.71972 -11.02867,13.42292 -13.36932,12.20473c-1.51928,-0.79071 -2.96519,-9.89 0.45159,-17.60972c3.41678,-7.71972 5.45863,-15.23736 12.67332,-12.04411c7.21469,3.19325 3.66119,9.72938 0.24441,17.4491z" fill="#131308" stroke="none" stroke-width="0" stroke-linecap="butt"/><path d="M365.66652,82.19287c-1.51679,3.42697 -5.75846,4.87194 -9.47403,3.22741c-3.71557,-1.64453 -5.49803,-5.7558 -3.98124,-9.18277c1.5168,-3.42698 5.75846,-4.87195 9.47404,-3.22742c3.71557,1.64453 5.49803,5.7558 3.98123,9.18278z" fill="#131308" stroke="none" stroke-width="0" stroke-linecap="butt"/></g></g></svg>