<svg version="1.1" xmlns="http://www.w3.org/2000/svg" xmlns:xlink="http://www.w3.org/1999/xlink" width="217.52422" height="253.75908" viewBox="0,0,217.52422,253.75908"><g transform="translate(-191.3174,-54.74091)"><g data-paper-data="{&quot;isPaintingLayer&quot;:true}" fill-rule="nonzero" stroke-linejoin="miter" stroke-miterlimit="10" stroke-dasharray="" stroke-dashoffset="0" style="mix-blend-mode: normal"><path d="M285.90286,307.49998l10.58516,-87.56737l45.59644,-1.46009l10.3184,89.02747z" fill="#9b9d30" stroke="#000000" stroke-width="2" stroke-linecap="butt"/><path d="M289.57668,250.08801l7.55047,-52.41545l43.29909,-2.17848l9.45725,55.15135l-30.23979,-11.89646z" fill="#747524" stroke="#000000" stroke-width="2" stroke-linecap="butt"/><path d="M407.13751,126.85518c5.64825,44.23787 -23.30324,84.38086 -64.66496,89.66189c-41.36172,5.28103 -79.47083,-26.29973 -85.11908,-70.5376c-5.64825,-44.23786 23.30324,-84.38087 64.66496,-89.66189c41.36172,-5.28102 79.47084,26.29974 85.11909,70.53761z" fill="#747524" stroke="#000000" stroke-width="2" stroke-linecap="butt"/><path d="M399.52901,133.0125c4.82054,37.75512 -21.48005,72.21869 -58.74403,76.97652c-37.26396,4.75783 -71.38021,-21.99176 -76.20075,-59.74689c-4.82054,-37.75512 21.48005,-72.21869 58.74402,-76.97652c37.26396,-4.75783 71.38021,21.99176 76.20075,59.74689z" fill="#000000" stroke="none" stroke-width="0" stroke-linecap="butt"/><path d="M268.62595,151.4192c-4.21771,-33.03368 20.89146,-63.45523 56.0829,-67.94844c35.19144,-4.49321 67.13887,18.64342 71.35659,51.67709c4.21771,33.03368 -20.89147,63.45524 -56.08291,67.94845c-35.19144,4.49321 -67.13887,-18.64342 -71.35658,-51.67709z" fill="#ffff70" stroke="#000000" stroke-width="2" stroke-linecap="butt"/><path d="M269.35001,151.38102c-0.0922,-0.72213 12.24697,54.80966 70.06102,48.45116c55.2389,-6.07528 55.66231,-65.53052 55.79135,-64.51987c4.15476,32.54063 -20.65016,62.51712 -55.40333,66.95438c-34.75317,4.43725 -66.29428,-18.34503 -70.44904,-50.88566z" fill="#6c6d22" stroke="#000000" stroke-width="0" stroke-linecap="butt"/><path d="M270.27795,166.27452c0,0 -18.92556,-79.22523 56.14373,-87.31376c77.09841,-8.30717 70.92582,73.86197 70.92582,73.86197c0,0 -22.82869,15.70852 -60.87133,20.90627c-34.07953,4.65627 -66.19822,-7.45447 -66.19822,-7.45447z" fill-opacity="0.20144" fill="#000000" stroke="none" stroke-width="0" stroke-linecap="butt"/><path d="M282.12144,150.12905c-1.64241,-12.86357 7.45414,-24.623 20.31772,-26.26541c12.86358,-1.64241 24.62301,7.45414 26.26542,20.31772c1.64241,12.86357 -7.45414,24.623 -20.31772,26.26541c-12.86358,1.64241 -24.62301,-7.45415 -26.26542,-20.31772z" fill="#ffffff" stroke="#000000" stroke-width="2" stroke-linecap="butt"/><path d="M283.23514,153.51851c-1.15608,-9.05457 5.2469,-17.33193 14.30147,-18.48801c9.05458,-1.15608 17.33193,5.24692 18.48801,14.30148c1.15608,9.05458 -5.24692,17.33193 -14.30148,18.48801c-9.05457,1.15608 -17.33192,-5.24692 -18.488,-14.30148z" fill="#000000" stroke="none" stroke-width="0" stroke-linecap="butt"/><path d="M345.4337,161.40084c0,0 -8.61234,2.20834 -12.50309,3.442c-4.07878,1.29327 -11.43213,4.14725 -11.43213,4.14725l-7.00236,32.49618l-5.20879,24.09066c0,0 7.91092,9.53454 14.97528,10.41758c7.06435,0.88304 16.27747,-6.51099 16.27747,-6.51099c0,0 10.82283,7.00156 16.27747,5.85989c5.45465,-1.14167 11.71978,-11.71978 11.71978,-11.71978l-17.57967,-57.94781z" fill="#000000" stroke="#000000" stroke-width="2" stroke-linecap="round"/><path d="M362.20836,163.5749c-12.86358,1.64241 -24.62301,-7.45415 -26.26542,-20.31773c-1.64241,-12.86357 7.45415,-24.623 20.31772,-26.26541c12.86358,-1.64241 24.62301,7.45415 26.26542,20.31772c1.64241,12.86357 -7.45415,24.62301 -20.31772,26.26542z" data-paper-data="{&quot;index&quot;:null}" fill="#ffffff" stroke="#000000" stroke-width="2" stroke-linecap="butt"/><path d="M355.97242,160.32553c-9.05457,1.15608 -17.33193,-5.24692 -18.488,-14.30148c-1.15608,-9.05457 5.24692,-17.33194 14.30147,-18.48802c9.05457,-1.15608 17.33192,5.24692 18.488,14.30149c1.15608,9.05458 -5.24692,17.33194 -14.30147,18.48801z" data-paper-data="{&quot;index&quot;:null}" fill="#000000" stroke="none" stroke-width="0" stroke-linecap="butt"/><path d="M290.27178,117.57461c0,0 7.06333,-4.67334 12.22431,-5.49865c5.16098,-0.8253 12.25189,1.5846 12.25189,1.5846c0,0 -8.01297,-0.6382 -11.99862,-0.00084c-4.16517,0.66607 -12.47759,3.91489 -12.47759,3.91489z" fill="#000000" stroke="none" stroke-width="0" stroke-linecap="butt"/><path d="M353.493,107.1985c-3.99765,0.55724 -11.47283,3.51302 -11.47283,3.51302c0,0 6.0749,-4.37998 11.25141,-5.10154c5.1765,-0.72156 13.29842,1.67952 13.29842,1.67952c0,0 -8.89931,-0.67334 -13.077,-0.09101z" data-paper-data="{&quot;index&quot;:null}" fill="#000000" stroke="none" stroke-width="0" stroke-linecap="butt"/><g stroke="#000000" stroke-width="2" stroke-linecap="butt"><path d="M233.9296,218.37955l-41.57894,-24.58882c0,0 1.56689,-27.29797 4.58413,-39.43719c3.30986,-13.31658 14.47862,-37.25765 14.47862,-37.25765l47.50163,-2.72207c0,0 -3.69103,34.49834 -7.89719,52.00712c-4.12057,17.15249 -17.08824,51.99862 -17.08824,51.99862z" fill="#ffffff"/><path d="M233.95965,218.00271l-6.05241,-3.57622c0,0 12.10118,-32.23659 16.2888,-49.07336c4.07635,-16.38944 8.51206,-50.64142 8.51206,-50.64142l6.25556,-0.46451c0,0 -2.70385,36.59168 -7.07083,53.86469c-4.28596,16.95251 -17.93317,49.89082 -17.93317,49.89082z" fill="#9b9d30"/><path d="M220.09214,161.28758c0,0 -2.17007,-11.80631 -2.56171,-18.65448c-0.43519,-7.6096 0.06748,-24.96003 0.06748,-24.96003l6.9764,-0.24114c0,0 -0.61616,19.66443 -0.05264,26.91824c0.42276,5.44195 3.13463,12.75279 3.13463,12.75279z" fill="#9b9d30"/><path d="M244.72223,157.70562c0,0 -7.72849,-2.3958 -17.96717,7.1513c-13.86575,12.9292 -22.86292,34.49543 -22.86292,34.49543l-5.95516,-3.96084c0,0 7.07204,-20.88298 23.40795,-35.68678c12.34207,-11.18455 25.32213,-9.69159 25.32213,-9.69159z" fill="#9b9d30"/></g></g></g></svg>