<svg version="1.1" xmlns="http://www.w3.org/2000/svg" xmlns:xlink="http://www.w3.org/1999/xlink" width="12.35268" height="12.35198" viewBox="0,0,12.35268,12.35198"><g transform="translate(-233.82366,-173.82401)"><g data-paper-data="{&quot;isPaintingLayer&quot;:true}" fill="#383819" fill-rule="nonzero" stroke="none" stroke-width="0" stroke-linecap="butt" stroke-linejoin="miter" stroke-miterlimit="10" stroke-dasharray="" stroke-dashoffset="0" style="mix-blend-mode: normal"><path d="M234.09186,184.24677c1.5705,-1.57049 9.06958,-9.06958 10.05526,-10.05526c0.49408,-0.49408 1.3815,-0.32834 1.63607,-0.07381c0.34211,0.34211 0.57535,1.11631 0.04856,1.6431c-1.01424,1.01424 -8.63319,8.63319 -10.17052,10.17052c-0.49683,0.49685 -1.2668,0.12779 -1.54312,-0.14854c-0.26554,-0.26554 -0.49031,-1.07194 -0.0262,-1.53607z" data-paper-data="{&quot;index&quot;:null}"/><path d="M244.2471,185.87372c-1.5705,-1.57049 -9.06957,-9.06957 -10.05526,-10.05526c-0.49408,-0.49408 -0.32834,-1.38152 -0.07381,-1.63607c0.34211,-0.34211 1.11631,-0.57537 1.6431,-0.04858c1.01424,1.01424 8.63319,8.63319 10.17055,10.17055c0.49683,0.49685 0.12779,1.2668 -0.14854,1.54311c-0.26554,0.26554 -1.07194,0.49031 -1.53607,0.0262z" data-paper-data="{&quot;index&quot;:null}"/></g></g></svg>