<svg version="1.1" xmlns="http://www.w3.org/2000/svg" xmlns:xlink="http://www.w3.org/1999/xlink" width="900" height="581.16318" viewBox="0,0,900,581.16318"><defs><radialGradient cx="152.50354" cy="208.91841" r="242.0816" gradientUnits="userSpaceOnUse" id="color-1"><stop offset="0" stop-color="#63ffb4" stop-opacity="0.19216"/><stop offset="1" stop-color="#63ffb4" stop-opacity="0"/></radialGradient><radialGradient cx="468.50354" cy="122.91841" r="242.08159" gradientUnits="userSpaceOnUse" id="color-2"><stop offset="0" stop-color="#ff63c5" stop-opacity="0.19216"/><stop offset="1" stop-color="#ff63c5" stop-opacity="0"/></radialGradient><radialGradient cx="85.22229" cy="18.4184" r="129.5816" gradientUnits="userSpaceOnUse" id="color-3"><stop offset="0" stop-color="#ff63c5" stop-opacity="0.19216"/><stop offset="1" stop-color="#ff63c5" stop-opacity="0"/></radialGradient><radialGradient cx="584.74104" cy="332.91841" r="129.08159" gradientUnits="userSpaceOnUse" id="color-4"><stop offset="0" stop-color="#63ffb4" stop-opacity="0.19216"/><stop offset="1" stop-color="#63ffb4" stop-opacity="0"/></radialGradient><radialGradient cx="258.75979" cy="47.41841" r="88.5816" gradientUnits="userSpaceOnUse" id="color-5"><stop offset="0" stop-color="#ff63c5" stop-opacity="0.19216"/><stop offset="1" stop-color="#ff63c5" stop-opacity="0"/></radialGradient><radialGradient cx="372.38479" cy="340.4184" r="98.5816" gradientUnits="userSpaceOnUse" id="color-6"><stop offset="0" stop-color="#63ffb4" stop-opacity="0.19216"/><stop offset="1" stop-color="#63ffb4" stop-opacity="0"/></radialGradient><linearGradient x1="344.5" y1="9.83681" x2="344.5" y2="369.83681" gradientUnits="userSpaceOnUse" id="color-7"><stop offset="0" stop-color="#00daff" stop-opacity="0"/><stop offset="1" stop-color="#00daff" stop-opacity="0.21569"/></linearGradient></defs><g transform="translate(114,119.16317)"><g data-paper-data="{&quot;isPaintingLayer&quot;:true}" fill-rule="nonzero" stroke="none" stroke-linecap="butt" stroke-linejoin="miter" stroke-miterlimit="10" stroke-dasharray="" stroke-dashoffset="0" style="mix-blend-mode: normal"><path d="M786,-1.03148v389.73657h-900v-389.73657z" data-paper-data="{&quot;index&quot;:null}" fill="#000000" stroke-width="NaN"/><path d="M385.50707,208.91841c0,133.69797 -104.31924,242.08159 -233.00354,242.08159c-128.6843,0 -233.00354,-108.38362 -233.00354,-242.08159c0,-133.69797 104.31924,-242.0816 233.00354,-242.0816c128.6843,0 233.00354,108.38362 233.00354,242.0816z" fill="url(#color-1)" stroke-width="NaN"/><path d="M701.50707,122.91841c0,133.69798 -104.31924,242.0816 -233.00354,242.0816c-128.6843,0 -233.00353,-108.38362 -233.00353,-242.08159c0,-133.69798 104.31924,-242.08159 233.00354,-242.08159c128.6843,0 233.00354,108.38362 233.00354,242.0816z" fill="url(#color-2)" stroke-width="NaN"/><path d="M209.94457,18.4184c0,71.56594 -55.84007,129.5816 -124.72229,129.5816c-68.88222,0 -124.72229,-58.01566 -124.72229,-129.5816c0,-71.56594 55.84007,-129.58159 124.72229,-129.58159c68.88222,0 124.72229,58.01566 124.72229,129.58159z" fill="url(#color-3)" stroke-width="NaN"/><path d="M708.98207,332.91841c0,71.2898 -55.62461,129.0816 -124.24104,129.0816c-68.61643,0 -124.24104,-57.7918 -124.24104,-129.08159c0,-71.2898 55.62461,-129.0816 124.24104,-129.0816c68.61643,0 124.24104,57.7918 124.24104,129.0816z" fill="url(#color-4)" stroke-width="NaN"/><path d="M344.01957,47.41841c0,48.92226 -38.17211,88.5816 -85.25979,88.5816c-47.08768,0 -85.25979,-39.65933 -85.25979,-88.58159c0,-48.92226 38.17211,-88.5816 85.25979,-88.5816c47.08768,0 85.25979,39.65933 85.25979,88.5816z" fill="url(#color-5)" stroke-width="NaN"/><path d="M467.26957,340.4184c0,54.44511 -42.48136,98.5816 -94.88479,98.5816c-52.40342,0 -94.88479,-44.13648 -94.88479,-98.5816c0,-54.44511 42.48136,-98.58159 94.88479,-98.58159c52.40342,0 94.88479,44.13648 94.88479,98.58159z" fill="url(#color-6)" stroke-width="NaN"/><path d="M-23.5,369.83681v-360h736v360z" fill="url(#color-7)" stroke-width="0"/></g></g></svg>