<svg version="1.1" xmlns="http://www.w3.org/2000/svg" xmlns:xlink="http://www.w3.org/1999/xlink" width="294.9395" height="233.02902" viewBox="0,0,294.9395,233.02902"><defs><linearGradient x1="164.17079" y1="89.97352" x2="164.17079" y2="135.24877" gradientUnits="userSpaceOnUse" id="color-1"><stop offset="0" stop-color="#000000"/><stop offset="1" stop-color="#d7d75e"/></linearGradient></defs><g transform="translate(-90.17252,-63.44707)"><g data-paper-data="{&quot;isPaintingLayer&quot;:true}" stroke-miterlimit="10" stroke-dasharray="" stroke-dashoffset="0" style="mix-blend-mode: normal"><path d="M286.60659,295.47608l15.14285,-131.8421l37.78325,-0.15789l13.57389,132z" fill="#e3e364" fill-rule="nonzero" stroke="#000000" stroke-width="2" stroke-linecap="butt" stroke-linejoin="miter"/><path d="M299.55681,192.08871l3.12142,-26.32765l35.83075,-0.14203l2.76735,26.1059c0,0 -7.51543,4.19603 -21.55904,4.50964c-12.48458,0.27879 -20.16049,-4.14586 -20.16049,-4.14586z" fill="#c0c054" fill-rule="nonzero" stroke="#000000" stroke-width="0" stroke-linecap="butt" stroke-linejoin="miter"/><path d="M256.2467,116.43263c4.34935,-33.01661 36.38876,-56.02569 71.56201,-51.39224c35.17324,4.63345 60.16096,35.15487 55.8116,68.17146c-4.34935,33.01661 -36.38876,56.02569 -71.56201,51.39224c-35.17324,-4.63345 -60.16096,-35.15487 -55.8116,-68.17146z" fill="#e3e364" fill-rule="nonzero" stroke="#000000" stroke-width="2" stroke-linecap="butt" stroke-linejoin="miter"/><path d="M256.95654,116.58044c0.09508,-0.72175 -2.14123,56.12043 55.38191,64.72175c54.96095,8.21821 70.53847,-49.16162 70.40541,-48.1515c-4.28444,32.5238 -35.91612,55.18018 -70.65132,50.60443c-34.7352,-4.57575 -59.42044,-34.65088 -55.136,-67.17469z" fill="#c0c054" fill-rule="nonzero" stroke="#000000" stroke-width="0" stroke-linecap="butt" stroke-linejoin="miter"/><path d="M269.62478,118.62813c1.69367,-12.85692 13.48927,-21.90654 26.3462,-20.21286c12.85692,1.69367 21.90654,13.48927 20.21286,26.3462c-1.69367,12.85692 -13.48927,21.90654 -26.3462,20.21286c-12.85692,-1.69367 -21.90654,-13.48927 -20.21286,-26.3462z" fill="#ffffff" fill-rule="nonzero" stroke="#000000" stroke-width="2" stroke-linecap="butt" stroke-linejoin="miter"/><path d="M276.66563,119.27763c1.19216,-9.04989 9.49498,-15.41983 18.54486,-14.22767c9.04989,1.19216 15.41983,9.49499 14.22767,18.54487c-1.19216,9.04989 -9.49499,15.41983 -18.54487,14.22767c-9.04989,-1.19216 -15.41982,-9.49499 -14.22766,-18.54487z" fill="#000000" fill-rule="nonzero" stroke="none" stroke-width="0" stroke-linecap="butt" stroke-linejoin="miter"/><path d="M332.47317,164.63251h-25.10959" fill="none" fill-rule="nonzero" stroke="#000000" stroke-width="2" stroke-linecap="round" stroke-linejoin="miter"/><path d="M147.46049,155.2576h31.17242c6.0942,0 11.00035,3.61292 11.00035,8.10072v3.98738c0,4.48779 -4.90615,8.10072 -11.00035,8.10072h-31.17242c-6.09418,0 -11.00036,-3.61292 -11.00036,-8.10072v-3.98738c0,-4.48779 4.90618,-8.10072 11.00036,-8.10072z" fill="#000000" fill-rule="evenodd" stroke="#000000" stroke-width="0" stroke-linecap="round" stroke-linejoin="round"/><path d="M343.63133,152.06069c-12.85692,-1.69367 -21.90654,-13.48927 -20.21286,-26.3462c1.69367,-12.85692 13.48927,-21.90654 26.3462,-20.21286c12.85692,1.69367 21.90654,13.48927 20.21286,26.3462c-1.69367,12.85692 -13.48927,21.90654 -26.3462,20.21286z" data-paper-data="{&quot;index&quot;:null}" fill="#ffffff" fill-rule="nonzero" stroke="#000000" stroke-width="2" stroke-linecap="butt" stroke-linejoin="miter"/><path d="M344.46379,144.87947c-9.04988,-1.19216 -15.41982,-9.49499 -14.22766,-18.54487c1.19216,-9.04989 9.49499,-15.41983 18.54486,-14.22767c9.04988,1.19216 15.41982,9.49499 14.22766,18.54487c-1.19216,9.04989 -9.49499,15.41983 -18.54486,14.22767z" data-paper-data="{&quot;index&quot;:null}" fill="#000000" fill-rule="nonzero" stroke="none" stroke-width="0" stroke-linecap="butt" stroke-linejoin="miter"/><path d="M153.92252,120.10944h-59.75c0,0 -3.94677,-0.84542 -4,-5.5c-0.04866,-4.25441 4,-5.5 4,-5.5h59.75z" fill="#a3a347" fill-rule="nonzero" stroke="#000000" stroke-width="2" stroke-linecap="butt" stroke-linejoin="miter"/><path d="M323.41847,125.7145c1.69367,-12.85692 13.48927,-21.90654 26.3462,-20.21286c12.85692,1.69367 21.90654,13.48927 20.21286,26.3462c-0.15853,1.2034 -46.55907,-6.13333 -46.55907,-6.13333z" data-paper-data="{&quot;index&quot;:null}" fill="#e3e364" fill-rule="nonzero" stroke="#e3e364" stroke-width="2" stroke-linecap="butt" stroke-linejoin="miter"/><path d="M181.5741,109.10944h59.75c0,0 4.04866,1.24559 4,5.5c-0.05323,4.65458 -4,5.5 -4,5.5h-59.75z" data-paper-data="{&quot;index&quot;:null}" fill="#a3a347" fill-rule="nonzero" stroke="#000000" stroke-width="2" stroke-linecap="butt" stroke-linejoin="miter"/><path d="M111.60059,85.08664h106.26448c6.43804,0 11.62097,5.18296 11.62097,11.62098v32.93116c0,6.43802 -5.18296,11.62098 -11.62097,11.62098h-106.26447c-6.43802,0 -11.62099,-5.18296 -11.62099,-11.62098v-32.93116c0,-6.43801 5.18297,-11.62098 11.62099,-11.62098z" fill="#a3a347" fill-rule="evenodd" stroke="#000000" stroke-width="2" stroke-linecap="round" stroke-linejoin="round"/><path d="M121.11776,90.86889h85.64864c5.18902,0 9.36645,4.17744 9.36645,9.36645v26.54235c0,5.18901 -4.17744,9.36645 -9.36645,9.36645h-85.64864c-5.18901,0 -9.36646,-4.17744 -9.36646,-9.36645v-26.54235c0,-5.18901 4.17745,-9.36645 9.36646,-9.36645z" fill="#000000" fill-rule="evenodd" stroke="#000000" stroke-width="0" stroke-linecap="round" stroke-linejoin="round"/><path d="M121.34647,89.97352h85.64864c5.18902,0 9.36645,4.17744 9.36645,9.36645v26.54235c0,5.18901 -4.17744,9.36645 -9.36645,9.36645h-85.64864c-5.18901,0 -9.36646,-4.17744 -9.36646,-9.36645v-26.54235c0,-5.18901 4.17745,-9.36645 9.36646,-9.36645z" fill="url(#color-1)" fill-rule="evenodd" stroke="#000000" stroke-width="2" stroke-linecap="round" stroke-linejoin="round"/></g></g></svg>