<svg version="1.1" xmlns="http://www.w3.org/2000/svg" xmlns:xlink="http://www.w3.org/1999/xlink" width="152.87804" height="283.49632" viewBox="0,0,152.87804,283.49632"><g transform="translate(-255.78269,-24.35258)"><g data-paper-data="{&quot;isPaintingLayer&quot;:true}" fill-rule="nonzero" stroke-linejoin="miter" stroke-miterlimit="10" stroke-dasharray="" stroke-dashoffset="0" style="mix-blend-mode: normal"><path d="M284.92189,306.8489l11.62059,-93.58516l43.64314,3.40793l11.23626,90.17722z" data-paper-data="{&quot;index&quot;:null}" fill="#9b9d30" stroke="#000000" stroke-width="2" stroke-linecap="butt"/><path d="M317.68104,238.09786l-30.23979,11.89646l10.10835,-47.33816l40.04359,-3.03031l10.15487,49.81105z" data-paper-data="{&quot;index&quot;:null}" fill="#747524" stroke="#000000" stroke-width="2" stroke-linecap="butt"/><path d="M328.97682,54.50444c41.66382,-1.67558 76.89181,33.08989 78.68391,77.65086c1.7921,44.56096 -30.53031,82.04311 -72.19413,83.7187c-41.66382,1.67558 -76.89181,-33.08988 -78.68391,-77.65086c-1.7921,-44.56096 30.53031,-82.04311 72.19413,-83.7187z" data-paper-data="{&quot;index&quot;:null}" fill="#747524" stroke="#000000" stroke-width="2" stroke-linecap="butt"/><path d="M330.50555,71.43412c37.53614,-1.50959 69.20507,28.09678 70.73456,66.12766c1.52948,38.03089 -27.65969,70.08477 -65.19582,71.59435c-37.53614,1.50959 -69.20507,-28.09678 -70.73456,-66.12766c-1.52948,-38.03089 27.65969,-70.08477 65.19582,-71.59435z" data-paper-data="{&quot;index&quot;:null}" fill="#000000" stroke="none" stroke-width="0" stroke-linecap="butt"/><path d="M335.68854,202.22598c-35.44846,1.42562 -65.26997,-24.39335 -66.60818,-57.66831c-1.33821,-33.27494 26.31363,-61.40533 61.76209,-62.83095c35.44846,-1.42562 65.26997,24.39335 66.60818,57.66831c1.33821,33.27494 -26.31363,61.40533 -61.76209,62.83095z" data-paper-data="{&quot;index&quot;:null}" fill="#ffff70" stroke="#000000" stroke-width="2" stroke-linecap="butt"/><path d="M335.73141,201.37741c-35.00699,1.40787 -64.45442,-24.02289 -65.77267,-56.80118c-0.04095,-1.01803 10.27047,57.53775 65.75015,54.33605c58.06604,-3.35096 60.99216,-60.16181 61.02142,-59.4344c1.31824,32.77829 -25.99191,60.49166 -60.9989,61.89953z" data-paper-data="{&quot;index&quot;:null}" fill="#6c6d22" stroke="#000000" stroke-width="0" stroke-linecap="butt"/><path d="M398.29373,154.31813c0,0 -29.65551,17.28673 -64.03471,18.36654c-38.37716,1.20537 -63.5016,-10.48521 -63.5016,-10.48521c0,0 -19.76024,-79.99625 57.64557,-84.63481c75.36859,-4.51649 69.89074,76.75348 69.89074,76.75348z" data-paper-data="{&quot;index&quot;:null}" fill-opacity="0.20144" fill="#000000" stroke="none" stroke-width="0" stroke-linecap="butt"/><path d="M361.41049,164.7739c-12.95752,0.52111 -23.88413,-9.5606 -24.40524,-22.51813c-0.52111,-12.95752 9.5606,-23.88413 22.51813,-24.40524c12.95752,-0.52111 23.88413,9.5606 24.40524,22.51813c0.52111,12.95752 -9.5606,23.88413 -22.51813,24.40524z" data-paper-data="{&quot;index&quot;:null}" fill="#ffffff" stroke="#000000" stroke-width="2" stroke-linecap="butt"/><path d="M363.47324,160.94592c-9.1207,0.3668 -16.81185,-6.72962 -17.17865,-15.85033c-0.3668,-9.1207 6.72962,-16.81185 15.85033,-17.17865c9.1207,-0.3668 16.81184,6.72962 17.17864,15.85033c0.3668,9.1207 -6.72961,16.81185 -15.85032,17.17865z" data-paper-data="{&quot;index&quot;:null}" fill="#000000" stroke="none" stroke-width="0" stroke-linecap="butt"/><path d="M354.93996,191.30988c0,0 -8.84982,0.8543 -12.92817,1.01831c-4.27545,0.17194 -12.16114,-0.0093 -12.16114,-0.0093l7.89166,-12.01136z" data-paper-data="{&quot;index&quot;:null}" fill="#000000" stroke="#000000" stroke-width="2" stroke-linecap="round"/><path d="M282.79065,144.4361c-0.52111,-12.95752 9.5606,-23.88413 22.51813,-24.40524c12.95752,-0.52111 23.88413,9.5606 24.40524,22.51813c0.52111,12.95752 -9.5606,23.88413 -22.51813,24.40524c-12.95752,0.52111 -23.88413,-9.5606 -24.40524,-22.51813z" data-paper-data="{&quot;index&quot;:null}" fill="#ffffff" stroke="#000000" stroke-width="2" stroke-linecap="butt"/><path d="M294.27688,146.67464c-0.3668,-9.1207 6.72962,-16.81185 15.85032,-17.17865c9.12069,-0.36681 16.81184,6.72962 17.17864,15.85033c0.3668,9.1207 -6.72962,16.81185 -15.85032,17.17865c-9.12069,0.36681 -16.81184,-6.72962 -17.17864,-15.85033z" data-paper-data="{&quot;index&quot;:null}" fill="#000000" stroke="none" stroke-width="0" stroke-linecap="butt"/><path d="M370.47457,109.62442c0,0 -8.73715,-1.82026 -12.95508,-1.78392c-4.03615,0.03477 -11.83119,1.99751 -11.83119,1.99751c0,0 6.59101,-3.55629 11.81737,-3.60134c5.22635,-0.04503 12.96889,3.38774 12.96889,3.38774z" data-paper-data="{&quot;index&quot;:null}" fill="#000000" stroke="none" stroke-width="0" stroke-linecap="butt"/><path d="M306.40815,109.91356c-4.21634,0.12101 -12.87952,2.26588 -12.87952,2.26588c0,0 7.60911,-3.71917 12.8335,-3.86909c5.2244,-0.14992 11.94347,3.15807 11.94347,3.15807c0,0 -7.86283,-1.67063 -11.89746,-1.55484z" data-paper-data="{&quot;index&quot;:null}" fill="#000000" stroke="none" stroke-width="0" stroke-linecap="butt"/><g data-paper-data="{&quot;index&quot;:null}" stroke="#000000" stroke-width="2" stroke-linecap="butt"><path d="M394.27041,80.6924c0,0 -37.15301,1.43804 -54.73449,-0.00352c-17.94669,-1.47152 -51.87254,-8.73762 -51.87254,-8.73762l17.41897,-44.27633c0,0 26.23151,-3.13435 39.91574,-2.12043c12.47438,0.92427 38.89661,7.95988 38.89661,7.95988l10.3757,47.17801z" fill="#ffffff"/><path d="M393.90306,80.60328c0,0 -35.55279,2.67937 -52.99594,1.45736c-17.77293,-1.24511 -53.37918,-10.10272 -53.37918,-10.10272l2.39466,-5.79771c0,0 33.92433,6.48173 50.76713,7.72703c17.30249,1.27928 51.70587,-0.15047 51.70587,-0.15047l1.50744,6.86648z" fill="#9b9d30"/><path d="M338.01684,55.59834c0,0 -6.09843,-4.85916 -11.13626,-6.96011c-6.71512,-2.80044 -25.58865,-8.35557 -25.58865,-8.35557l2.40755,-6.55225c0,0 16.6398,4.94037 23.73299,7.73c6.38344,2.5105 16.92175,8.25873 16.92175,8.25873z" fill="#9b9d30"/><path d="M325.34518,71.4446c0,0 2.63488,-12.79719 17.11414,-21.02958c19.16465,-10.89637 41.21174,-11.09378 41.21174,-11.09378l1.9032,6.8942c0,0 -23.2973,1.81293 -39.90976,10.94802c-12.26686,6.74549 -12.40419,14.83564 -12.40419,14.83564z" fill="#9b9d30"/></g></g></g></svg>