<svg version="1.1" xmlns="http://www.w3.org/2000/svg" xmlns:xlink="http://www.w3.org/1999/xlink" width="194.73812" height="223.44501" viewBox="0,0,194.73812,223.44501"><g transform="translate(-220.37522,-104.40114)"><g data-paper-data="{&quot;isPaintingLayer&quot;:true}" fill-rule="nonzero" stroke-linejoin="miter" stroke-miterlimit="10" stroke-dasharray="" stroke-dashoffset="0" style="mix-blend-mode: normal"><path d="M280.35945,216.17837c0,0 -20.24844,71.97174 -50.48495,60.09033c-29.60421,-11.63294 27.63365,-95.39136 27.63365,-95.39136" data-paper-data="{&quot;index&quot;:null}" fill="#d9d960" stroke="#000000" stroke-width="2" stroke-linecap="round"/><path d="M380.34595,181.32163c0,0 54.75276,85.17176 24.81735,96.05331c-30.5748,11.11397 -48.69858,-61.34204 -48.69858,-61.34204" data-paper-data="{&quot;index&quot;:null}" fill="#d9d960" stroke="#000000" stroke-width="2" stroke-linecap="round"/><path d="M286.70285,326.84614l15.14285,-122.11505l37.78325,-0.14624l13.57389,122.2613z" fill="#d9d960" stroke="#000000" stroke-width="2" stroke-linecap="butt"/><path d="M299.65308,231.08649l3.12142,-24.38525l35.83075,-0.13155l2.76735,24.17986c0,0 -7.51543,3.88646 -21.55904,4.17693c-12.48458,0.25822 -20.16049,-3.83999 -20.16049,-3.83999z" fill="#b4b44f" stroke="#000000" stroke-width="0" stroke-linecap="butt"/><path d="M254.88746,170.54275c0,-30.84491 28.7599,-55.84964 64.23702,-55.84964c35.47712,0 64.23702,25.00474 64.23702,55.84964c0,30.84491 -28.7599,55.84964 -64.23702,55.84964c-35.47712,0 -64.23702,-25.00474 -64.23702,-55.84964z" fill="#d9d960" stroke="#000000" stroke-width="2" stroke-linecap="butt"/><path d="M255.61053,170.59263c0,-0.67428 5.20666,51.79377 63.36046,52.73379c55.56352,0.89816 63.51358,-53.67747 63.51358,-52.73379c0,30.38452 -28.40173,55.01604 -63.43702,55.01604c-35.03529,0 -63.43702,-24.63152 -63.43702,-55.01604z" fill="#b4b44f" stroke="#000000" stroke-width="0" stroke-linecap="butt"/><path d="M268.43767,170.94055c0,-12.01125 10.51265,-21.74829 23.48065,-21.74829c12.968,0 23.48065,9.73705 23.48065,21.74829c0,12.01125 -10.51265,21.74829 -23.48065,21.74829c-12.968,0 -23.48065,-9.73705 -23.48065,-21.74829z" fill="#d9d960" stroke="#000000" stroke-width="2" stroke-linecap="butt"/><path d="M307.45985,208.93636c0,0 4.93308,-3.94628 12.19893,-3.8372c8.81398,0.13231 12.91066,3.8372 12.91066,3.8372" data-paper-data="{&quot;index&quot;:null}" fill="none" stroke="#000000" stroke-width="2" stroke-linecap="round"/><path d="M344.96969,192.68881c-12.968,0 -22.27358,-9.73705 -22.27358,-21.74829c0,-12.01125 10.51265,-21.74829 23.48065,-21.74829c12.968,0 23.48065,9.73705 23.48065,21.74829c0,12.01125 -11.71972,21.74829 -24.68772,21.74829z" data-paper-data="{&quot;index&quot;:null}" fill="#d9d960" stroke="#000000" stroke-width="2" stroke-linecap="butt"/><path d="M281.07535,139.63482c0,0 6.70895,-4.78785 11.79721,-5.89406c5.08827,-1.10621 12.33413,0.64777 12.33413,0.64777c0,0 -8.03812,-0.05583 -11.96762,0.79847c-4.10648,0.89278 -12.16372,4.44782 -12.16372,4.44782z" fill="#000000" stroke="none" stroke-width="0" stroke-linecap="butt"/><path d="M345.00986,135.18701c-3.9295,-0.8543 -11.96762,-0.79847 -11.96762,-0.79847c0,0 7.24586,-1.75399 12.33413,-0.64777c5.08826,1.10621 11.79721,5.89406 11.79721,5.89406c0,0 -8.05724,-3.55504 -12.16372,-4.44782z" data-paper-data="{&quot;index&quot;:null}" fill="#000000" stroke="none" stroke-width="0" stroke-linecap="butt"/><path d="M268.38641,170.66274l-3.6,-2.40818" fill="none" stroke="#000000" stroke-width="2" stroke-linecap="round"/><path d="M373.38641,167.32832l-4.2,3.14915" fill="none" stroke="#000000" stroke-width="2" stroke-linecap="round"/><g fill="#bebe3e" stroke="#000000" stroke-width="2" stroke-linecap="butt"><path d="M268.47661,133.0477c-4.5374,-5.15246 0.80582,-8.01212 0.80582,-8.01212c0,0 -4.99429,-0.83412 -5.24729,-6.57502c-0.32513,-7.37772 24.05029,-0.09861 24.05029,-0.09861l1.51428,6.21589c0,0 -16.95333,13.20486 -21.1231,8.46987z"/><path d="M299.28232,122.56626l-1.82873,-6.15056c0,0 18.05685,-16.09444 21.54302,-9.37342c2.71273,5.22988 -1.32343,7.94009 -1.32343,7.94009c0,0 6.23886,0.45348 4.8216,6.84302c-1.30243,5.87183 -23.21247,0.74087 -23.21247,0.74087z" data-paper-data="{&quot;index&quot;:null}"/><path d="M286.11514,121.82273c-0.94719,-3.50383 1.55806,-7.02423 5.59561,-7.86304c4.03756,-0.83881 8.0785,1.32163 9.02569,4.82546c0.94719,3.50383 -1.55806,7.02423 -5.59561,7.86304c-4.03756,0.83881 -8.0785,-1.32163 -9.02569,-4.82546z"/></g></g></g></svg>