<svg version="1.1" xmlns="http://www.w3.org/2000/svg" xmlns:xlink="http://www.w3.org/1999/xlink" width="168.32621" height="317.83345" viewBox="0,0,168.32621,317.83345"><defs><linearGradient x1="358.84186" y1="56.39392" x2="371.2955" y2="62.70503" gradientUnits="userSpaceOnUse" id="color-1"><stop offset="0" stop-color="#131308"/><stop offset="1" stop-color="#131308" stop-opacity="0"/></linearGradient><linearGradient x1="346.27161" y1="78.9479" x2="359.39676" y2="85.59931" gradientUnits="userSpaceOnUse" id="color-2"><stop offset="0" stop-color="#151509"/><stop offset="1" stop-color="#151509" stop-opacity="0"/></linearGradient><linearGradient x1="383.31511" y1="22.64823" x2="345.90908" y2="96.46118" gradientUnits="userSpaceOnUse" id="color-3"><stop offset="0" stop-color="#ffff70" stop-opacity="0"/><stop offset="1" stop-color="#ffff70"/></linearGradient><linearGradient x1="382.10769" y1="42.25766" x2="363.30448" y2="79.36183" gradientUnits="userSpaceOnUse" id="color-4"><stop offset="0" stop-color="#ffffff" stop-opacity="0"/><stop offset="1" stop-color="#ffffff"/></linearGradient><linearGradient x1="373.29055" y1="55.63285" x2="351.31034" y2="99.00619" gradientUnits="userSpaceOnUse" id="color-5"><stop offset="0" stop-color="#ffffff" stop-opacity="0"/><stop offset="1" stop-color="#ffffff"/></linearGradient><linearGradient x1="372.37425" y1="45.01056" x2="357.71423" y2="73.93903" gradientUnits="userSpaceOnUse" id="color-6"><stop offset="0" stop-color="#131308" stop-opacity="0"/><stop offset="1" stop-color="#131308"/></linearGradient><linearGradient x1="356.00069" y1="76.27097" x2="349.86591" y2="88.37668" gradientUnits="userSpaceOnUse" id="color-7"><stop offset="0" stop-color="#131308" stop-opacity="0"/><stop offset="1" stop-color="#131308"/></linearGradient></defs><g transform="translate(-257.15913,6.30907)"><g data-paper-data="{&quot;isPaintingLayer&quot;:true}" fill-rule="nonzero" stroke-linejoin="miter" stroke-miterlimit="10" stroke-dasharray="" stroke-dashoffset="0" style="mix-blend-mode: normal"><path d="M288.39185,310.52437l15.14285,-131.8421l37.78325,-0.15789l13.57389,132z" fill="#959541" stroke="#000000" stroke-width="2" stroke-linecap="butt"/><path d="M301.34207,207.13701l3.12142,-26.32765l35.83075,-0.14203l2.76735,26.1059c0,0 -7.51543,4.19603 -21.55904,4.50964c-12.48458,0.27879 -20.16049,-4.14586 -20.16049,-4.14586z" fill="#7d7d37" stroke="#000000" stroke-width="0" stroke-linecap="butt"/><path d="M258.29162,135.21631c2.25771,-33.22523 32.78166,-58.20981 68.17717,-55.80463c35.39549,2.40517 62.25899,31.28934 60.00129,64.51456c-2.25771,33.22523 -32.78165,58.20981 -68.17716,55.80463c-35.39549,-2.40517 -62.259,-31.28934 -60.00129,-64.51456z" fill="#959541" stroke="#000000" stroke-width="2" stroke-linecap="butt"/><path d="M259.00937,135.31904c0.04935,-0.72633 1.40362,56.14372 59.35481,61.09884c55.36994,4.73441 67.2964,-53.51389 67.22732,-52.49738c-2.22402,32.72932 -32.36331,57.33618 -67.31799,54.96094c-34.95468,-2.37524 -61.48816,-30.83309 -59.26416,-63.5624z" fill="#7d7d37" stroke="#000000" stroke-width="0" stroke-linecap="butt"/><path d="M271.78155,136.56343c0.87917,-12.93816 12.08035,-22.71393 25.01851,-21.83474c12.93816,0.87917 22.71392,12.08034 21.83474,25.01851c-0.87917,12.93816 -12.08034,22.71392 -25.0185,21.83474c-12.93816,-0.87917 -22.71393,-12.08034 -21.83474,-25.0185z" fill="#ffffff" stroke="#000000" stroke-width="2" stroke-linecap="butt"/><path d="M272.97492,137.10814c0.61884,-9.10708 8.50324,-15.98815 17.6103,-15.36931c9.10708,0.61884 15.98814,8.50326 15.3693,17.61032c-0.61884,9.10708 -8.50326,15.98814 -17.61032,15.3693c-9.10708,-0.61884 -15.98813,-8.50325 -15.36929,-17.61031z" fill="#000000" stroke="none" stroke-width="0" stroke-linecap="butt"/><path d="M332.34703,182.27462l-24.69405,-4.54924" fill="none" stroke="#000000" stroke-width="2" stroke-linecap="round"/><path d="M347.7499,165.26039c-12.93816,-0.87917 -22.71393,-12.08034 -21.83474,-25.0185c0.87917,-12.93816 12.08035,-22.71392 25.01851,-21.83474c12.93816,0.87917 22.71392,12.08034 21.83474,25.0185c-0.87917,12.93816 -12.08034,22.71392 -25.0185,21.83474z" data-paper-data="{&quot;index&quot;:null}" fill="#ffffff" stroke="#000000" stroke-width="2" stroke-linecap="butt"/><path d="M356.06043,154.50691c-9.10707,-0.61884 -15.98814,-8.50325 -15.3693,-17.61031c0.61884,-9.10708 8.50325,-15.98815 17.6103,-15.36931c9.10707,0.61884 15.98814,8.50326 15.3693,17.61032c-0.61884,9.10708 -8.50325,15.98815 -17.6103,15.3693z" data-paper-data="{&quot;index&quot;:null}" fill="#000000" stroke="none" stroke-width="0" stroke-linecap="butt"/><path d="M286.34324,108.67802c0,0 7.04397,-4.70248 12.2015,-5.5491c5.15753,-0.84662 12.25834,1.53395 12.25834,1.53395c0,0 -8.01555,-0.60509 -11.99852,0.04874c-4.16237,0.68327 -12.4613,3.96642 -12.4613,3.96642z" fill="#000000" stroke="none" stroke-width="0" stroke-linecap="butt"/><path d="M350.4562,108.22142c-3.85793,-1.18663 -11.88164,-1.67144 -11.88164,-1.67144c0,0 7.35756,-1.39811 12.35316,0.13842c4.99559,1.53654 11.33864,7.1487 11.33864,7.1487c0,0 -7.77849,-4.37563 -11.81018,-5.61571z" data-paper-data="{&quot;index&quot;:null}" fill="#000000" stroke="none" stroke-width="0" stroke-linecap="butt"/><path d="M320.94539,81.95758c0.36453,-5.36469 7.86689,-37.59536 7.86689,-37.59536c0,0 3.07326,32.94932 2.70873,38.314" fill="#804400" stroke="#000000" stroke-width="2" stroke-linecap="butt"/><g stroke="#000000"><path d="M422.9558,30.50674l-37.29563,100.53981c0,0 -24.37997,-2.88096 -52.68273,-18.79248c-27.53456,-15.47966 -39.83644,-28.8658 -39.83644,-28.8658l61.08628,-88.28482c0,0 16.02997,-0.38179 38.67269,11.81451c21.97472,11.83649 30.05584,23.5888 30.05584,23.5888z" fill="#333333" stroke-width="2" stroke-linecap="butt"/><path d="M422.9558,30.50674l-37.29563,100.53981c0,0 -24.37997,-2.88096 -52.68273,-18.79248c-27.53456,-15.47966 -39.83644,-28.8658 -39.83644,-28.8658l61.08628,-88.28482c0,0 21.0661,15.38246 32.40346,21.22255c11.5675,5.95863 36.32505,14.18075 36.32505,14.18075z" fill="#7d7d37" stroke-width="2" stroke-linecap="butt"/><path d="M385.18691,130.17664c0,0 12.50246,24.61711 -20.36929,23.71176c-37.66087,-1.03723 -72.04972,-70.48225 -72.04972,-70.48225" fill="none" stroke-width="2" stroke-linecap="round"/><path d="M421.65959,31.10508l-36.48591,99.08628c0,0 -26.49577,-4.59872 -53.22944,-19.62812c-26.00808,-14.62149 -37.48907,-27.41915 -37.48907,-27.41915l8.03167,-11.60773c0,0 13.2229,33.61086 50.60988,33.39669c34.82387,-0.19949 68.56288,-73.82797 68.56288,-73.82797z" fill="#6c6c30" stroke-width="0" stroke-linecap="butt"/></g><g><g><g><path d="M311.9016,79.22728l71.74801,-56.40953l-3.73306,90.87733z" fill="#b4b44f" stroke="none" stroke-width="0" stroke-linecap="butt"/><path d="M380.90276,88.28007l-20.13803,-47.55131l7.4269,-5.52331l13.36483,38.86315z" fill="#cdcd51" stroke="none" stroke-width="0" stroke-linecap="butt"/><path d="M362.37507,104.45139l-19.30126,-49.49525l11.33501,-8.89194l20.96186,65.135z" fill="#cdcd51" stroke="none" stroke-width="0" stroke-linecap="butt"/><path d="M376.12256,108.18496l-57.97996,-29.38238l62.07303,-49.48514z" fill="none" stroke="#717132" stroke-width="1.5" stroke-linecap="round"/></g><path d="M371.47311,62.33098c-3.81613,7.53032 -11.71607,12.82731 -13.98975,11.48829c-1.47582,-0.86914 -2.44352,-10.03163 1.37261,-17.56195c3.81612,-7.53031 6.24862,-14.93079 13.2863,-11.36432c7.03768,3.56647 3.14697,9.90766 -0.66916,17.43798z" fill="#6d6d30" stroke="none" stroke-width="0" stroke-linecap="butt"/><path d="M359.49587,85.64953c-1.69407,3.34289 -6.00555,4.56389 -9.62996,2.72715c-3.62441,-1.83673 -5.18925,-6.03566 -3.49518,-9.37855c1.69408,-3.3429 6.00555,-4.56389 9.62997,-2.72716c3.62441,1.83673 5.18925,6.03566 3.49518,9.37856z" fill="#6d6d30" stroke="none" stroke-width="0" stroke-linecap="butt"/><path d="M371.44641,62.38386c-3.7769,7.45291 -11.60554,12.69046 -13.86144,11.36237c-1.46428,-0.86205 -2.43267,-9.93577 1.34423,-17.38868c3.7769,-7.45291 6.1819,-14.77859 13.16401,-11.24028c6.98211,3.53831 3.13011,9.81368 -0.64679,17.26659z" fill="url(#color-1)" stroke="none" stroke-width="0" stroke-linecap="butt"/><path d="M359.39676,85.59931c-1.69407,3.34289 -6.00555,4.56389 -9.62996,2.72715c-3.62441,-1.83673 -5.18925,-6.03566 -3.49518,-9.37855c1.69408,-3.3429 6.00555,-4.56389 9.62997,-2.72716c3.62441,1.83673 5.18925,6.03566 3.49518,9.37856z" fill="url(#color-2)" stroke="none" stroke-width="0" stroke-linecap="butt"/></g><g stroke="none" stroke-width="0" stroke-linecap="butt"><path d="M311.9016,79.22728l71.74801,-56.40953l-3.73306,90.87733z" fill="url(#color-3)"/><path d="M380.90276,88.28007l-20.13803,-47.55131l7.4269,-5.52331l13.36483,38.86315z" fill="url(#color-4)"/><path d="M362.5025,104.51597l-19.30126,-49.49525l11.33501,-8.89194l20.96186,65.135z" fill="url(#color-5)"/><path d="M371.47311,62.33098c-3.81613,7.53032 -11.71607,12.82731 -13.98975,11.48829c-1.47582,-0.86914 -2.44352,-10.03163 1.37261,-17.56195c3.81612,-7.53031 6.24862,-14.93079 13.2863,-11.36432c7.03768,3.56647 3.14697,9.90766 -0.66916,17.43798z" fill="url(#color-6)"/><path d="M359.49587,85.64953c-1.69407,3.34289 -6.00555,4.56389 -9.62996,2.72715c-3.62441,-1.83673 -5.18925,-6.03566 -3.49518,-9.37855c1.69408,-3.3429 6.00555,-4.56389 9.62997,-2.72716c3.62441,1.83673 5.18925,6.03566 3.49518,9.37856z" fill="url(#color-7)"/></g></g></g></g></svg>