<svg version="1.1" xmlns="http://www.w3.org/2000/svg" xmlns:xlink="http://www.w3.org/1999/xlink" width="193.91074" height="182.04051" viewBox="0,0,193.91074,182.04051"><g transform="translate(-219.46415,-32.63906)"><g data-paper-data="{&quot;isPaintingLayer&quot;:true}" fill-rule="nonzero" stroke-linecap="butt" stroke-linejoin="miter" stroke-miterlimit="10" stroke-dasharray="" stroke-dashoffset="0" style="mix-blend-mode: normal"><path d="M221.53928,139.76697c0,0 38.31482,-33.11608 52.15819,-51.36914c12.60078,-16.61464 27.52538,-53.69689 27.52538,-53.69689c0,0 25.52908,35.59812 43.54462,47.54688c18.59647,12.33405 66.34672,25.33821 66.34672,25.33821c0,0 -35.35425,25.98957 -48.34581,43.11947c-13.54642,17.8615 -31.33776,61.94656 -31.33776,61.94656c0,0 -26.67717,-35.92177 -44.75404,-47.9112c-18.54178,-12.29777 -65.1373,-24.97389 -65.1373,-24.97389z" fill="#d8d871" stroke="#000000" stroke-width="2"/><path d="M260.67956,202.07903c0,0 3.67606,-50.50927 0.55794,-73.20488c-2.83823,-20.65841 -18.50606,-57.43282 -18.50606,-57.43282c0,0 43.22346,7.11989 64.41142,2.83002c21.87118,-4.42819 64.83103,-28.9974 64.83103,-28.9974c0,0 -6.62183,43.37663 -3.69557,64.67571c3.05123,22.20875 21.64369,65.96198 21.64369,65.96198c0,0 -44.26413,-6.53692 -65.52421,-2.23245c-21.80685,4.41517 -63.71824,28.39982 -63.71824,28.39982z" fill="#d8d871" stroke="#000000" stroke-width="2"/><path d="M252.50276,134.51082c-5.57336,-32.83216 18.2628,-64.26111 53.23955,-70.19853c34.97675,-5.93742 67.84913,15.86509 73.42249,48.69724c5.57336,32.83216 -18.2628,64.26111 -53.23955,70.19853c-34.97675,5.93742 -67.84913,-15.86509 -73.42249,-48.69724z" fill="#ecec68" stroke="#000000" stroke-width="2"/><path d="M290.02278,139.6073c-0.25626,-1.50962 55.05644,-11.46225 55.40562,-9.40528c2.43795,14.36172 -7.98868,28.10967 -23.28851,30.70686c-15.29983,2.5972 -29.67916,-6.93984 -32.11711,-21.30158z" fill="#000000" stroke="#000000" stroke-width="2"/><path d="M276.41858,120.51857c-1.03736,-6.11098 3.07562,-11.90584 9.1866,-12.9432c6.11099,-1.03736 11.90585,3.07562 12.94321,9.18659c1.03736,6.11098 -21.09244,9.86757 -22.1298,3.7566z" fill="#000000" stroke="none" stroke-width="0"/><path d="M330.01667,111.42012c-1.00671,-5.93046 2.98477,-11.55414 8.91522,-12.56085c5.93045,-1.00671 11.55413,2.98477 12.56084,8.91522c1.00671,5.93046 -20.46935,9.57608 -21.47606,3.64563z" data-paper-data="{&quot;index&quot;:null}" fill="#000000" stroke="none" stroke-width="0"/></g></g></svg>