<svg version="1.1" xmlns="http://www.w3.org/2000/svg" xmlns:xlink="http://www.w3.org/1999/xlink" width="111.57208" height="309.85098" viewBox="0,0,111.57208,309.85098"><defs><linearGradient x1="320" y1="25.0745" x2="320" y2="334.92548" gradientUnits="userSpaceOnUse" id="color-1"><stop offset="0" stop-color="#ffffff" stop-opacity="0"/><stop offset="1" stop-color="#ffffff"/></linearGradient></defs><g transform="translate(-264.21396,-25.07451)"><g data-paper-data="{&quot;isPaintingLayer&quot;:true}" fill-rule="nonzero" stroke-linejoin="miter" stroke-miterlimit="10" stroke-dasharray="" stroke-dashoffset="0" style="mix-blend-mode: normal"><g stroke-linecap="butt"><path d="M264.21396,334.92548v-309.85097h111.57208v309.85098z" fill="url(#color-1)" stroke="none" stroke-width="0"/><path d="M271.55163,332.20796c0,0 -0.77743,-115.48991 -0.97075,-144.40176c-0.0667,-9.97569 10.01763,-44.98182 49.19195,-45.17736c38.66924,-0.19303 48.76945,36.0809 48.75981,45.14754c-0.09371,56.58351 0.8006,144.37052 0.8006,144.37052l-12.84393,0.11764l-0.19433,-140.52423c0,0 0.09237,-3.79236 -3.44602,-3.85948c-4.20241,-0.0797 -3.60402,3.81233 -3.60402,3.81233l0.25143,140.55708l-58.99516,0.08837l-0.37368,-141.00142c0,0 0.34199,-3.57175 -3.53088,-3.59063c-3.80647,-0.01854 -3.44533,3.55949 -3.44533,3.55949l0.43207,140.79795z" fill="#ffffff" stroke="#000000" stroke-width="2"/><path d="M338.35781,204.88085c-0.69885,0 -1.26535,-0.56652 -1.26535,-1.26535c0,-0.69885 0.56652,-1.26539 1.26535,-1.26539c0.69885,0 1.26536,0.56654 1.26536,1.26539c0,0.69885 -0.56653,1.26535 -1.26536,1.26535z" fill="#000000" stroke="none" stroke-width="1.5"/><path d="M331.92169,210.0636c-5.46163,-0.38469 -8.0177,-2.19508 -7.54955,-3.15708c0.14424,-0.29641 3.48297,1.30138 8.52909,1.59658c7.84214,0.45877 10.41341,-0.773 10.41341,-0.773v1.64719c0,0 -2.95321,1.28079 -11.39295,0.68632z" fill="#000000" stroke="#000000" stroke-width="0"/><path d="M297.8895,203.61549c0,-0.69885 0.56653,-1.26539 1.26536,-1.26539c0.69885,0 1.26538,0.56654 1.26538,1.26539c0,0.69885 -0.56653,1.26535 -1.26538,1.26535c-0.69885,0 -1.26536,-0.56652 -1.26536,-1.26535z" fill="#000000" stroke="none" stroke-width="1.5"/><path d="M305.59095,210.0636c-8.43974,0.59449 -11.39295,-0.68632 -11.39295,-0.68632v-1.64719c0,0 2.57127,1.23177 10.41341,0.773c5.04612,-0.29521 8.38486,-1.89299 8.52911,-1.59658c0.46816,0.96198 -2.08792,2.77236 -7.54955,3.15707z" fill="#000000" stroke="#000000" stroke-width="0"/><path d="M319.39394,279.26135c-1.00209,0 -1.81443,-0.81235 -1.81443,-1.81443c0,-1.00208 0.81234,-1.81443 1.81443,-1.81443c1.00209,0 1.81443,0.81234 1.81443,1.81443c0,1.00208 -0.81234,1.81443 -1.81443,1.81443z" data-paper-data="{&quot;index&quot;:null}" fill="#000000" stroke="none" stroke-width="1.5"/><path d="M290.4927,331.417v-129.7852h-21.14128c0,0 1.16097,-25.57942 4.95228,-35.8196c6.91434,-18.67541 28.09984,-21.13536 28.09984,-21.13536c0,0 -1.95274,28.42122 16.42208,28.33596c18.70648,-0.0868 17.98703,-28.33596 17.98703,-28.33596c0,0 23.96615,5.71342 28.88713,21.86593c4.39513,14.4265 5.00914,34.11353 5.00914,34.11353l-20.66199,0.36371v130.39701z" fill="#ffffff" stroke="#000000" stroke-width="1.5"/></g><g><path d="M348.84891,101.48007c0,0 11.827,7.34611 4.77114,12.65748c-7.44763,5.6063 -12.6023,-7.27356 -12.6023,-7.27356" fill="none" stroke="#000000" stroke-width="1" stroke-linecap="round"/><path d="M359.97925,97.34879c-26.30088,12.24141 -72.3159,0 -72.3159,0c0,0 -7.69551,4.37346 -8.48328,-0.60795c-0.89147,-5.63716 -1.15877,-20.19272 -0.89396,-22.33546c0.10086,-0.81614 -3.45279,1.30751 -3.45279,1.30751c0,0 2.19753,-16.33119 3.14992,-21.40381c0.54251,-2.88947 2.06389,-6.80308 2.06389,-6.80308c0,0 -2.10187,-0.49525 -2.04765,-0.99309c0.12537,-1.15123 5.03717,-1.77581 8.21682,-2.94255c4.67667,-1.71604 8.16835,-3.37482 8.15524,-3.54934c-0.10974,-1.45975 -4.43482,-0.02689 -4.01226,-1.1548c0.42174,-1.12573 4.75047,-1.85393 8.95507,-3.16724c5.39697,-1.68576 10.90639,-3.86008 11.05214,-4.02744c1.55724,-1.78811 -5.08999,-1.8116 -4.96697,-1.96322c1.13486,-1.3988 17.19964,-0.53099 18.17705,-0.45392c1.36108,0.10732 22.3462,3.57925 21.87647,4.13991c-0.12327,0.14714 -12.20436,0.09529 -12.29778,0.85618c-0.02642,0.21518 10.06623,4.3019 19.10689,7.32783c7.82335,2.61849 14.73602,4.19672 15.11237,4.76498c0.53375,0.80591 -2.15177,0.99069 -2.15177,0.99069c0,0 2.08474,3.84057 1.93991,6.08686c-0.16451,2.55157 -1.39229,12.3257 -1.68669,15.79108c-0.06426,0.75661 0.29775,12.78831 0.29775,12.78831c0,0 -1.75166,-0.73829 -1.93174,-0.00623c-0.18008,0.73206 -2.58891,14.76192 -3.86276,15.35481z" fill="#000000" stroke="#000000" stroke-width="0.5" stroke-linecap="round"/><path d="M285.84647,99.28589c-0.70614,-8.92413 0.40992,-20.99055 0.40992,-20.99055c0,0 -1.63893,-17.79294 11.2136,-21.58983c15.78409,-4.66297 31.86972,6.79609 45.6671,5.26963c15.02209,-1.20703 11.70955,21.46369 10.91332,35.66596c-0.51592,6.93697 -3.09976,11.624 -3.85478,15.32036c-0.75502,3.69636 -0.50119,7.50889 -2.69957,19.62649c-1.37194,7.56222 -5.09249,10.92038 -12.25995,17.93925c-7.16746,7.01888 -11.07838,11.32184 -15.92368,11.40625c-4.66293,0.08123 -10.93384,-6.2407 -17.05165,-12.70415c-6.51446,-6.88254 -10.85948,-10.37278 -11.88808,-18.52528c-0.92636,-7.34219 -0.95018,-12.12427 -1.37371,-18.65817c-0.30955,-4.77545 -2.76684,-7.88628 -3.15249,-12.75992z" fill="#ffffff" stroke="#000000" stroke-width="1.5" stroke-linecap="butt"/><path d="M344.66584,80.78434c0,0 1.86514,0.3892 5.20747,1.35857c3.05283,0.88542 5.44431,2.13403 5.44431,2.13403l0.23873,1.43206c0,0 -8.87079,-3.82989 -18.49599,-3.02307c-7.69608,0.64514 -12.19115,3.44131 -12.19115,3.44131l0.05598,-5.11085c0,0 3.82684,-2.0853 9.62212,-2.27051c6.00097,-0.19176 9.90011,0.72346 9.90011,0.72346z" data-paper-data="{&quot;index&quot;:null}" fill="#000000" stroke="none" stroke-width="1.5" stroke-linecap="butt"/><path d="M329.0474,133.38472c0.69795,0.25924 3.77311,1.71236 7.3709,3.17634c3.62644,1.47565 8.82673,2.80569 8.80286,3.01072c-0.0303,0.2602 -12.76819,0.27768 -16.73834,0.77362c-3.32704,0.41559 -8.18439,0.86343 -8.18439,0.86343c0,0 -8.6926,-1.42146 -16.2403,-2.992c-6.04922,-1.25872 -12.72477,-2.03253 -12.73782,-2.14697c-0.01761,-0.15434 4.73338,-0.86964 8.35019,-1.70655c1.40208,-0.60766 6.65614,-1.81723 6.65614,-1.81723c0,0 6.06407,-0.33975 9.30961,0.70847c3.47756,1.12317 3.46952,2.99244 3.77254,3.02119c0,0 1.44921,-2.1405 2.89858,-2.57524c1.44939,-0.43473 6.21867,-0.50943 6.74004,-0.31579z" fill="#ffffff" stroke="#000000" stroke-width="1.4" stroke-linecap="butt"/><path d="M306.22938,138.95654c6.22962,1.25634 14.58256,3.43514 14.58256,3.43514c0,0 7.08446,-1.90376 10.33564,-2.2446c2.52056,-0.26426 13.72411,-0.86454 13.77827,-0.40841c0.05296,0.44597 -11.05073,15.78509 -25.87719,15.23056c-16.84868,-0.53323 -27.97755,-18.5202 -27.93125,-18.72715c0.0463,-0.20695 8.88237,1.45813 15.11199,2.71448z" fill="#ffffff" stroke="#000000" stroke-width="1.9" stroke-linecap="butt"/><path d="M319.65767,135.29343c-1.26493,0 -4.32929,-3.98951 -4.63348,-6.56313c-0.27217,-2.30268 1.6092,-4.684 4.63348,-4.684c3.02429,0 5.14177,0.60052 4.93117,5.12516c-0.17874,3.83993 -1.9069,6.12198 -4.93117,6.12198z" fill="#ffffff" stroke="#000000" stroke-width="1.15" stroke-linecap="butt"/><path d="M324.0653,98.4702c0,0 0.12554,4.85747 0.00705,8.72027c-0.23462,7.64901 -1.32331,33.96853 -1.32331,33.96853l-3.64843,0.01057c0,0 -0.98249,-5.10585 -1.37439,-11.62413c-0.53048,-8.82306 -2.00749,-41.55588 -2.39164,-45.64164" fill="#ffffff" stroke="#000000" stroke-width="1.3" stroke-linecap="round"/><path d="M287.92619,111.67286c0,0 -6.03503,-4.30353 -7.5426,-10.982c-1.58625,-7.02705 -1.78792,-11.90924 0.5875,-12.22632c2.37543,-0.3171 3.3077,2.90845 4.5673,10.22419c1.25959,7.31574 2.38781,12.98416 2.38781,12.98416z" data-paper-data="{&quot;index&quot;:null}" fill="#ffffff" stroke="#000000" stroke-width="1" stroke-linecap="butt"/><path d="M287.67829,106.84255c0,0 -4.36079,-3.57711 -5.28379,-10.34033c-0.51488,-3.77275 2.63905,-2.79004 2.63905,-2.79004" fill="none" stroke="#000000" stroke-width="0.25" stroke-linecap="round"/><path d="M291.36555,98.69826c0.08679,-5.9858 5.92028,-10.93438 12.49483,-10.83907c6.57453,0.09532 11.04591,5.19843 10.95913,11.18424c-0.08679,5.9858 -5.04562,10.76098 -11.62016,10.66567c-6.57453,-0.09532 -11.92058,-5.02503 -11.83379,-11.01084z" fill="#ffffff" stroke="#000000" stroke-width="1.4" stroke-linecap="butt"/><path d="M296.79553,98.84259c0.04893,-3.37527 2.82479,-6.07176 6.20003,-6.02282c3.37527,0.04894 6.07176,2.82478 6.02282,6.20003c-0.04893,3.37527 -2.82477,6.07176 -6.20003,6.02282c-3.37527,-0.04894 -6.07176,-2.82478 -6.02283,-6.20003z" fill="#000000" stroke="none" stroke-width="1.5" stroke-linecap="butt"/><path d="M324.47213,98.69916c0.24905,-5.98126 5.44834,-10.83939 11.95535,-10.83939c6.507,0 11.34849,4.85296 11.34849,10.83939c0,5.98644 -4.7548,11.0995 -11.86866,11.18618c-6.76657,0.08246 -11.69525,-4.93966 -11.43517,-11.18618z" fill="#ffffff" stroke="#000000" stroke-width="1.4" stroke-linecap="butt"/><path d="M330.10413,98.80383c0,-3.44871 2.79573,-6.24443 6.24444,-6.24443c3.44871,0 6.24444,2.79572 6.24444,6.24443c0,3.44871 -2.79572,6.24443 -6.24444,6.24443c-3.44871,0 -6.24444,-2.79572 -6.24444,-6.24443z" fill="#000000" stroke="none" stroke-width="1.5" stroke-linecap="butt"/><path d="M291.28181,98.04707c0,0 0.07779,-11.03107 12.97172,-10.79832c11.58891,0.20295 11.69234,11.51087 11.69234,11.51087z" fill="#ffffff" stroke="#000000" stroke-width="1.15" stroke-linecap="butt"/><path d="M324.01003,98.20725c0,0 -0.30207,-11.57324 13.70224,-11.13885c11.88657,0.40804 11.68161,11.81073 11.68161,11.81073z" fill="#ffffff" stroke="#000000" stroke-width="1.15" stroke-linecap="butt"/><path d="M295.60099,85.79662c0,0 4.12314,-2.22576 9.82865,-2.79203c6.32241,-0.62751 9.50536,-0.08111 9.50536,-0.08111l0.36106,5.06269c0,0 -4.69324,-0.83286 -9.81092,-0.63767c-6.84427,0.26103 -8.1308,1.75336 -13.33468,2.3141c-4.45896,0.48046 -8.24381,0.19436 -8.24381,0.19436l-0.03168,-1.50695c0,0 4.39912,0.09052 6.40407,-0.08365c1.65481,-0.14377 4.86474,-1.14785 4.86474,-1.14785z" fill="#000000" stroke="none" stroke-width="1.5" stroke-linecap="butt"/><path d="M354.28692,98.6887c1.25959,-7.31574 2.19187,-10.54127 4.5673,-10.22418c2.37543,0.31709 2.17375,5.19926 0.5875,12.22631c-1.50757,6.67848 -7.5426,10.98201 -7.5426,10.98201c0,0 1.12821,-5.66841 2.3878,-12.98416z" data-paper-data="{&quot;index&quot;:null}" fill="#ffffff" stroke="#000000" stroke-width="1" stroke-linecap="butt"/><path d="M354.79171,93.71217c0,0 3.15392,-0.98272 2.63904,2.79004c-0.92299,6.76323 -5.28378,10.34033 -5.28378,10.34033" data-paper-data="{&quot;index&quot;:null}" fill="none" stroke="#000000" stroke-width="0.25" stroke-linecap="round"/><path d="M320.71246,57.95598c0,0 9.55014,5.16395 16.08666,6.57973c7.60179,1.64652 19.39828,0.93679 19.39828,0.93679c0,0 -4.43896,5.24745 -22.74874,4.26979c-6.67717,-0.65288 -16.58188,-8.11545 -16.58188,-8.11545c0,0 1.64407,2.67286 3.55446,4.49229c1.74559,1.66246 7.80772,5.99587 7.80772,5.99587c0,0 -8.06475,-2.63891 -11.0895,-4.41375c-3.83261,-2.24889 -10.06164,-7.99724 -10.06164,-7.99724c0,0 -2.82256,2.48818 -6.26723,5.44874c-2.76504,2.37644 -6.05527,5.05728 -7.67175,6.9999c-2.78623,3.34836 -5.98852,11.49934 -5.98852,11.49934c0,0 -1.97197,-6.54613 -1.07563,-13.59704c0.88198,-6.93794 4.60919,-14.3646 7.43018,-16.52444c5.49262,-4.20528 27.20756,4.42547 27.20756,4.42547z" fill="#000000" stroke="#000000" stroke-width="0.5" stroke-linecap="round"/><path d="M319.67519,142.75281l1.00114,12.01372" fill="none" stroke="#000000" stroke-width="0.5" stroke-linecap="round"/><path d="M321.56624,143.08647l1.00114,11.45753" fill="none" stroke="#000000" stroke-width="0.5" stroke-linecap="round"/></g></g></g></svg>