<svg version="1.1" xmlns="http://www.w3.org/2000/svg" xmlns:xlink="http://www.w3.org/1999/xlink" width="172.58213" height="287.16852" viewBox="0,0,172.58213,287.16852"><g transform="translate(-226.14054,-28.26031)"><g data-paper-data="{&quot;isPaintingLayer&quot;:true}" stroke-miterlimit="10" stroke-dasharray="" stroke-dashoffset="0" style="mix-blend-mode: normal"><path d="M290.72614,314.42882l13.62477,-131.8421l33.99545,-0.15789l12.2131,132z" fill="#ecec68" fill-rule="nonzero" stroke="#000000" stroke-width="2" stroke-linecap="butt" stroke-linejoin="miter"/><path d="M296.57572,267.16265l8.45591,-81.82486l32.57503,-0.15129l7.60398,82.1843c0,0 -14.59301,4.84164 -24.23451,4.80038c-9.6415,-0.04126 -24.40041,-5.00852 -24.40041,-5.00852z" fill="#c8c824" fill-rule="nonzero" stroke="#000000" stroke-width="0" stroke-linecap="butt" stroke-linejoin="miter"/><g fill-rule="nonzero" stroke="#000000" stroke-width="2" stroke-linecap="butt" stroke-linejoin="miter"><path d="M266.90159,120.51383l-25.50428,-65.18844l6.82926,-2.67186l25.50428,65.18844z" fill="#ffe9b3"/><path d="M228.35962,60.42624c-3.55494,-9.08635 0.92917,-19.33417 10.01552,-22.88912c9.08635,-3.55494 19.33417,0.92917 22.88912,10.01553c3.55494,9.08635 -0.92917,19.33417 -10.01553,22.88912c-9.08635,3.55494 -19.33416,-0.92917 -22.88911,-10.01553z" fill="#dccd27"/></g><g fill-rule="nonzero" stroke="#000000" stroke-width="2" stroke-linecap="butt" stroke-linejoin="miter"><path d="M356.67794,113.01584l19.85741,-67.12439l7.03207,2.08031l-19.85741,67.12439z" fill="#ffe9b3"/><path d="M363.11046,41.91997c2.76784,-9.3562 12.59634,-14.69714 21.95255,-11.9293c9.3562,2.76784 14.69714,12.59634 11.92929,21.95256c-2.76784,9.3562 -12.59636,14.69713 -21.95256,11.92929c-9.3562,-2.76784 -14.69713,-12.59634 -11.92928,-21.95255z" fill="#dccd27"/></g><path d="M295.43463,251.66804l7.58416,-69.08131l36.11546,-0.15789l6.82766,69.46209c0,0 -1.63411,6.69929 -25.4124,6.56159c-22.03251,-0.12759 -25.11488,-6.78449 -25.11488,-6.78449z" fill="#dccd27" fill-rule="nonzero" stroke="#000000" stroke-width="2" stroke-linecap="butt" stroke-linejoin="miter"/><path d="M296.92485,228.53569l5.27751,-45.94896l37.78325,-0.15789l4.67444,45.45686c0,0 -7.00642,7.16153 -24.11741,7.06682c-17.11099,-0.09472 -23.61779,-6.41683 -23.61779,-6.41683z" fill="#dccd27" fill-rule="nonzero" stroke="#000000" stroke-width="2" stroke-linecap="butt" stroke-linejoin="miter"/><path d="M300.00973,206.02198l3.12142,-26.32765l35.83075,-0.14203l2.76735,26.1059c0,0 -7.51543,4.19603 -21.55904,4.50964c-12.48458,0.27879 -20.16049,-4.14586 -20.16049,-4.14586z" fill="#b2a730" fill-rule="nonzero" stroke="#000000" stroke-width="0" stroke-linecap="butt" stroke-linejoin="miter"/><path d="M253.42916,132.23817c-1.98922,-33.24239 25.10675,-61.90857 60.52052,-64.02772c35.41377,-2.11915 65.7349,23.11122 67.72411,56.3536c1.98922,33.24239 -25.10676,61.90858 -60.52053,64.02773c-35.41377,2.11915 -65.7349,-23.11122 -67.72411,-56.3536z" fill="#b9b912" fill-rule="nonzero" stroke="#000000" stroke-width="2" stroke-linecap="butt" stroke-linejoin="miter"/><path d="M254.15415,132.24874c-0.04348,-0.72669 8.53759,55.50853 66.64817,53.04792c55.52223,-2.35099 59.93847,-61.64352 59.99932,-60.62648c1.95952,32.74622 -24.80299,60.98879 -59.77571,63.08155c-34.97274,2.09276 -64.91226,-22.75677 -66.87178,-55.50299z" fill="#c8c824" fill-rule="nonzero" stroke="#000000" stroke-width="0" stroke-linecap="butt" stroke-linejoin="miter"/><path d="M300.86837,157.14624l40.20532,-3.39282c2.43584,-0.20555 4.56229,1.58995 4.76785,4.02577l1.54099,18.26094c0.20555,2.43583 -1.58995,4.5623 -4.02577,4.76785l-40.20531,3.39282c-2.43583,0.20555 -4.56231,-1.58994 -4.76786,-4.02577l-1.54099,-18.26094c-0.20555,-2.43583 1.58995,-4.5623 4.02578,-4.76785z" fill="#000000" fill-rule="evenodd" stroke="#000000" stroke-width="2" stroke-linecap="round" stroke-linejoin="round"/><path d="M262.25109,95.04543l106.07474,-6.34748c6.42655,-0.38456 11.9098,4.47956 12.29437,10.90607l2.88299,48.17831c0.38457,6.42653 -4.47956,11.90982 -10.90606,12.29438l-106.07473,6.34748c-6.42653,0.38457 -11.90983,-4.47956 -12.2944,-10.90607l-2.88297,-48.1783c-0.38457,-6.42652 4.47956,-11.90982 10.90608,-12.29439z" fill="#dccd27" fill-rule="evenodd" stroke="#000000" stroke-width="2" stroke-linecap="round" stroke-linejoin="round"/><path d="M270.48758,99.89952l90.2394,-5.3999c5.46716,-0.32715 10.13186,3.81082 10.45901,9.27796l2.45259,40.98603c0.32715,5.46714 -3.81082,10.13187 -9.27796,10.45901l-90.23938,5.3999c-5.46714,0.32715 -10.13189,-3.81083 -10.45903,-9.27797l-2.45259,-40.98603c-0.32715,-5.46714 3.81083,-10.13186 9.27798,-10.45901z" fill="#000000" fill-rule="evenodd" stroke="#000000" stroke-width="2" stroke-linecap="round" stroke-linejoin="round"/><path d="M337.529,169.88487c0,0 -1.7687,8.74958 -15.13262,8.33698c-11.09657,-0.3426 -14.07546,-8.90014 -14.07546,-8.90014" fill="none" fill-rule="nonzero" stroke="#ecec68" stroke-width="2" stroke-linecap="round" stroke-linejoin="miter"/><g fill-rule="nonzero" stroke-linejoin="miter"><path d="M319.2981,121.34772l16.53267,-14.70248l-11.29846,18.48433z" fill="#d9db56" stroke="#000000" stroke-width="0.5" stroke-linecap="butt"/><path d="M317.70549,117.71306l3.22821,-3.91356l9.97329,8.22675l-3.2282,3.91357z" fill="#d9db56" stroke="#000000" stroke-width="1" stroke-linecap="butt"/><path d="M295.68829,139.27274l19.96847,-24.29628l15.54964,12.77981l-19.96847,24.29628z" fill="#d9db56" stroke="#000000" stroke-width="1" stroke-linecap="butt"/><path d="M303.24971,129.84408l4.86221,-5.45154c0,0 3.77333,5.53532 6.40224,7.64383c2.46452,1.97666 8.91001,4.63724 8.91001,4.63724l-4.86222,5.45155c0,0 -6.86111,-1.94566 -9.30185,-3.90321c-2.64665,-2.12273 -6.0104,-8.37786 -6.0104,-8.37786z" fill="#000000" stroke="none" stroke-width="0" stroke-linecap="butt"/><path d="M323.22045,116.85882l-1.92209,2.58783" fill="none" stroke="#000000" stroke-width="0.5" stroke-linecap="round"/><path d="M325.21593,122.17011l1.79821,-2.78336" fill="none" stroke="#000000" stroke-width="0.5" stroke-linecap="round"/></g></g></g></svg>