<svg version="1.1" xmlns="http://www.w3.org/2000/svg" xmlns:xlink="http://www.w3.org/1999/xlink" width="139.29075" height="229.57993" viewBox="0,0,139.29075,229.57993"><defs><linearGradient x1="320.41859" y1="105.7107" x2="320.41859" y2="150.98595" gradientUnits="userSpaceOnUse" id="color-1"><stop offset="0" stop-color="#000000"/><stop offset="1" stop-color="#d7d75e"/></linearGradient></defs><g transform="translate(-250.91666,-66.89616)"><g data-paper-data="{&quot;isPaintingLayer&quot;:true}" stroke-miterlimit="10" stroke-dasharray="" stroke-dashoffset="0" style="mix-blend-mode: normal"><path d="M286.60659,295.47608l15.14285,-131.8421l37.78325,-0.15789l13.57389,132z" fill="#e3e364" fill-rule="nonzero" stroke="#000000" stroke-width="2" stroke-linecap="butt" stroke-linejoin="miter"/><path d="M299.55681,192.08871l3.12142,-26.32765l35.83075,-0.14203l2.76735,26.1059c0,0 -7.51543,4.19603 -21.55904,4.50964c-12.48458,0.27879 -20.16049,-4.14586 -20.16049,-4.14586z" fill="#c0c054" fill-rule="nonzero" stroke="#000000" stroke-width="0" stroke-linecap="butt" stroke-linejoin="miter"/><path d="M256.25853,128.19449c0,-33.30185 28.7599,-60.29833 64.23702,-60.29833c35.47712,0 64.23702,26.99649 64.23702,60.29833c0,33.30185 -28.7599,60.29833 -64.23702,60.29833c-35.47712,0 -64.23702,-26.99649 -64.23702,-60.29833z" fill="#e3e364" fill-rule="nonzero" stroke="#000000" stroke-width="2" stroke-linecap="butt" stroke-linejoin="miter"/><path d="M256.98159,128.24833c0,-0.72799 5.20666,55.91939 63.36046,56.93429c55.56352,0.9697 63.51358,-57.95314 63.51358,-56.93429c0,32.80479 -28.40173,59.39833 -63.43702,59.39833c-35.03529,0 -63.43702,-26.59354 -63.43702,-59.39833z" fill="#c0c054" fill-rule="nonzero" stroke="#000000" stroke-width="0" stroke-linecap="butt" stroke-linejoin="miter"/><path d="M269.80876,128.62396c0,-12.968 10.51265,-23.48065 23.48065,-23.48065c12.968,0 23.48065,10.51265 23.48065,23.48065c0,12.968 -10.51265,23.48065 -23.48065,23.48065c-12.968,0 -23.48065,-10.51265 -23.48065,-23.48065z" fill="#ffffff" fill-rule="nonzero" stroke="#000000" stroke-width="2" stroke-linecap="butt" stroke-linejoin="miter"/><path d="M276.87413,128.34833c0,-9.12808 7.39976,-16.52784 16.52783,-16.52784c9.12808,0 16.52784,7.39977 16.52784,16.52784c0,9.12808 -7.39977,16.52784 -16.52784,16.52784c-9.12808,0 -16.52783,-7.39977 -16.52783,-16.52784z" fill="#000000" fill-rule="nonzero" stroke="none" stroke-width="0" stroke-linecap="butt" stroke-linejoin="miter"/><path d="M332.47317,164.63251h-25.10959" fill="none" fill-rule="nonzero" stroke="#000000" stroke-width="2" stroke-linecap="round" stroke-linejoin="miter"/><path d="M304.83238,159.75393h31.17242c6.0942,0 11.00035,3.61292 11.00035,8.10072v3.98738c0,4.48779 -4.90615,8.10072 -11.00035,8.10072h-31.17242c-6.09418,0 -11.00036,-3.61292 -11.00036,-8.10072v-3.98738c0,-4.48779 4.90618,-8.10072 11.00036,-8.10072z" fill="#000000" fill-rule="evenodd" stroke="#000000" stroke-width="0" stroke-linecap="round" stroke-linejoin="round"/><path d="M347.54784,152.1046c-12.968,0 -23.48065,-10.51265 -23.48065,-23.48065c0,-12.968 10.51265,-23.48065 23.48065,-23.48065c12.968,0 23.48065,10.51265 23.48065,23.48065c0,12.968 -10.51265,23.48065 -23.48065,23.48065z" data-paper-data="{&quot;index&quot;:null}" fill="#ffffff" fill-rule="nonzero" stroke="#000000" stroke-width="2" stroke-linecap="butt" stroke-linejoin="miter"/><path d="M347.43527,144.87617c-9.12807,0 -16.52783,-7.39977 -16.52783,-16.52784c0,-9.12808 7.39977,-16.52784 16.52783,-16.52784c9.12807,0 16.52783,7.39977 16.52783,16.52784c0,9.12808 -7.39977,16.52784 -16.52783,16.52784z" data-paper-data="{&quot;index&quot;:null}" fill="#000000" fill-rule="nonzero" stroke="none" stroke-width="0" stroke-linecap="butt" stroke-linejoin="miter"/><path d="M269.80876,128.62396c0,-12.968 10.51265,-23.48065 23.48065,-23.48065c12.968,0 23.48065,10.51265 23.48065,23.48065c0,0 -46.96131,1.23155 -46.96131,0z" fill="#ffc533" fill-rule="nonzero" stroke="#000000" stroke-width="2" stroke-linecap="butt" stroke-linejoin="miter"/><path d="M314.66666,133.03641h-59.75c0,0 -3.94677,-0.84542 -4,-5.5c-0.04866,-4.25441 4,-5.5 4,-5.5h59.75z" fill="#a3a347" fill-rule="nonzero" stroke="#000000" stroke-width="2" stroke-linecap="butt" stroke-linejoin="miter"/><path d="M324.06719,128.62396c0,-12.968 10.51265,-23.48065 23.48065,-23.48065c12.968,0 23.48065,10.51265 23.48065,23.48065c0,1.2138 -46.96131,0 -46.96131,0z" data-paper-data="{&quot;index&quot;:null}" fill="#ffc533" fill-rule="nonzero" stroke="#000000" stroke-width="2" stroke-linecap="butt" stroke-linejoin="miter"/><path d="M325.45697,122.03641h59.75c0,0 4.04866,1.24559 4,5.5c-0.05323,4.65458 -4,5.5 -4,5.5h-59.75z" data-paper-data="{&quot;index&quot;:null}" fill="#a3a347" fill-rule="nonzero" stroke="#000000" stroke-width="2" stroke-linecap="butt" stroke-linejoin="miter"/><path d="M267.28635,100.26178h106.26448c6.43804,0 11.62097,5.18296 11.62097,11.62098v32.93116c0,6.43802 -5.18296,11.62098 -11.62097,11.62098h-106.26447c-6.43802,0 -11.62099,-5.18296 -11.62099,-11.62098v-32.93116c0,-6.43801 5.18297,-11.62098 11.62099,-11.62098z" fill="#a3a347" fill-rule="evenodd" stroke="#000000" stroke-width="2" stroke-linecap="round" stroke-linejoin="round"/><path d="M277.9276,106.04403h85.64864c5.18902,0 9.36645,4.17744 9.36645,9.36645v26.54235c0,5.18901 -4.17744,9.36645 -9.36645,9.36645h-85.64864c-5.18901,0 -9.36646,-4.17744 -9.36646,-9.36645v-26.54235c0,-5.18901 4.17745,-9.36645 9.36646,-9.36645z" fill="#000000" fill-rule="evenodd" stroke="#000000" stroke-width="0" stroke-linecap="round" stroke-linejoin="round"/><path d="M277.59427,105.7107h85.64864c5.18902,0 9.36645,4.17744 9.36645,9.36645v26.54235c0,5.18901 -4.17744,9.36645 -9.36645,9.36645h-85.64864c-5.18901,0 -9.36646,-4.17744 -9.36646,-9.36645v-26.54235c0,-5.18901 4.17745,-9.36645 9.36646,-9.36645z" fill="url(#color-1)" fill-rule="evenodd" stroke="#000000" stroke-width="2" stroke-linecap="round" stroke-linejoin="round"/></g></g></svg>