<svg version="1.1" xmlns="http://www.w3.org/2000/svg" xmlns:xlink="http://www.w3.org/1999/xlink" width="139.27444" height="230.13923" viewBox="0,0,139.27444,230.13923"><defs><linearGradient x1="325.13476" y1="105.14823" x2="325.8207" y2="150.41828" gradientUnits="userSpaceOnUse" id="color-1"><stop offset="0" stop-color="#000000"/><stop offset="1" stop-color="#d7d75e"/></linearGradient></defs><g transform="translate(-255.97148,-66.33686)"><g data-paper-data="{&quot;isPaintingLayer&quot;:true}" stroke-miterlimit="10" stroke-dasharray="" stroke-dashoffset="0" style="mix-blend-mode: normal"><path d="M286.60659,295.47608l15.14285,-131.8421l37.78325,-0.15789l13.57389,132z" fill="#e3e364" fill-rule="nonzero" stroke="#000000" stroke-width="2" stroke-linecap="butt" stroke-linejoin="miter"/><path d="M299.55681,192.08871l3.12142,-26.32765l35.83075,-0.14203l2.76735,26.1059c0,0 -7.51543,4.19603 -21.55904,4.50964c-12.48458,0.27879 -20.16049,-4.14586 -20.16049,-4.14586z" fill="#c0c054" fill-rule="nonzero" stroke="#000000" stroke-width="0" stroke-linecap="butt" stroke-linejoin="miter"/><path d="M261.3227,128.60149c-0.50454,-33.29803 27.84305,-60.72713 63.3161,-61.26463c35.47305,-0.5375 64.63865,26.02016 65.14319,59.31818c0.50454,33.29803 -27.84304,60.72714 -63.31609,61.26464c-35.47305,0.5375 -64.63866,-26.02016 -65.1432,-59.31818z" fill="#e3e364" fill-rule="nonzero" stroke="#000000" stroke-width="2" stroke-linecap="butt" stroke-linejoin="miter"/><path d="M262.0465,128.64438c-0.01103,-0.7279 6.05327,55.83408 64.21578,55.96781c55.57184,0.12777 62.62827,-58.90875 62.6437,-57.89002c0.49701,32.80103 -27.49855,59.82181 -62.52982,60.35262c-35.03127,0.5308 -63.83264,-25.62938 -64.32965,-58.43041z" fill="#c0c054" fill-rule="nonzero" stroke="#000000" stroke-width="0" stroke-linecap="butt" stroke-linejoin="miter"/><path d="M274.87788,128.82563c-0.19647,-12.96651 10.15571,-23.63724 23.12222,-23.83371c12.96651,-0.19647 23.63723,10.1557 23.83369,23.12221c0.19647,12.96651 -10.15569,23.63723 -23.12221,23.83371c-12.96651,0.19647 -23.63724,-10.1557 -23.83371,-23.12221z" fill="#ffffff" fill-rule="nonzero" stroke="#000000" stroke-width="2" stroke-linecap="butt" stroke-linejoin="miter"/><path d="M281.93827,128.44298c-0.1383,-9.12703 7.14851,-16.63806 16.27553,-16.77635c9.12703,-0.13829 16.63805,7.14851 16.77634,16.27553c0.1383,9.12703 -7.14851,16.63806 -16.27553,16.77635c-9.12703,0.13829 -16.63804,-7.14852 -16.77634,-16.27553z" fill="#000000" fill-rule="nonzero" stroke="none" stroke-width="0" stroke-linecap="butt" stroke-linejoin="miter"/><path d="M332.47317,164.63251h-25.10959" fill="none" fill-rule="nonzero" stroke="#000000" stroke-width="2" stroke-linecap="round" stroke-linejoin="miter"/><path d="M310.36912,159.42139l31.16884,-0.47228c6.0935,-0.09233 11.05383,3.44584 11.12182,7.93313l0.06041,3.98692c0.06799,4.48728 -4.78285,8.17412 -10.87635,8.26645l-31.16884,0.47228c-6.09348,0.09233 -11.05384,-3.44585 -11.12183,-7.93313l-0.06041,-3.98692c-0.06799,-4.48728 4.78289,-8.17412 10.87637,-8.26645z" fill="#000000" fill-rule="evenodd" stroke="#000000" stroke-width="0" stroke-linecap="round" stroke-linejoin="round"/><path d="M352.96379,151.12578c-12.96651,0.19647 -23.63723,-10.1557 -23.8337,-23.12221c-0.19647,-12.96651 10.1557,-23.63723 23.12221,-23.8337c12.96651,-0.19647 23.63723,10.1557 23.8337,23.12221c0.19647,12.96651 -10.1557,23.63723 -23.12221,23.8337z" data-paper-data="{&quot;index&quot;:null}" fill="#ffffff" fill-rule="nonzero" stroke="#000000" stroke-width="2" stroke-linecap="butt" stroke-linejoin="miter"/><path d="M352.74172,143.89988c-9.12702,0.13829 -16.63804,-7.14852 -16.77634,-16.27554c-0.1383,-9.12703 7.14852,-16.63805 16.27553,-16.77635c9.12702,-0.13829 16.63804,7.14851 16.77634,16.27553c0.1383,9.12703 -7.14852,16.63805 -16.27553,16.77635z" data-paper-data="{&quot;index&quot;:null}" fill="#000000" fill-rule="nonzero" stroke="none" stroke-width="0" stroke-linecap="butt" stroke-linejoin="miter"/><path d="M274.87788,128.82563c-0.19647,-12.96651 10.15571,-23.63723 23.12222,-23.8337c12.96651,-0.19647 23.63723,10.1557 23.83369,23.12221c0,0 -46.93726,1.9429 -46.95592,0.71149z" fill="#ffc533" fill-rule="nonzero" stroke="#000000" stroke-width="2" stroke-linecap="butt" stroke-linejoin="miter"/><path d="M319.79749,132.55794l-59.74314,0.90525c0,0 -3.95913,-0.78553 -4.08287,-5.43877c-0.11311,-4.25319 3.91622,-5.55997 3.91622,-5.55997l59.74314,-0.90525z" fill="#a3a347" fill-rule="nonzero" stroke="#000000" stroke-width="2" stroke-linecap="butt" stroke-linejoin="miter"/><path d="M329.13009,128.00358c-0.19647,-12.96651 10.1557,-23.63723 23.12221,-23.8337c12.96651,-0.19647 23.63723,10.1557 23.8337,23.12221c0.01839,1.21366 -46.95592,0.71149 -46.95592,0.71149z" data-paper-data="{&quot;index&quot;:null}" fill="#ffc533" fill-rule="nonzero" stroke="#000000" stroke-width="2" stroke-linecap="butt" stroke-linejoin="miter"/><path d="M330.4199,121.39573l59.74314,-0.90525c0,0 4.06706,1.18411 4.08287,5.43877c0.01729,4.65485 -3.91621,5.55997 -3.91621,5.55997l-59.74314,0.90525z" data-paper-data="{&quot;index&quot;:null}" fill="#a3a347" fill-rule="nonzero" stroke="#000000" stroke-width="2" stroke-linecap="butt" stroke-linejoin="miter"/><path d="M271.92606,100.50492l106.25229,-1.60997c6.4373,-0.09754 11.69816,5.00629 11.7957,11.44358l0.49892,32.92738c0.09754,6.43729 -5.0063,11.69818 -11.44358,11.79571l-106.25227,1.60996c-6.43728,0.09754 -11.69818,-5.00629 -11.79572,-11.44358l-0.49893,-32.92738c-0.09753,-6.43727 5.00631,-11.69817 11.4436,-11.7957z" fill="#a3a347" fill-rule="evenodd" stroke="#000000" stroke-width="2" stroke-linecap="round" stroke-linejoin="round"/><path d="M282.65369,106.12528l85.63881,-1.29762c5.18842,-0.07862 9.42866,4.03505 9.50728,9.22347l0.40214,26.5393c0.07862,5.18841 -4.03505,9.42866 -9.22347,9.50728l-85.63881,1.29763c-5.18842,0.07862 -9.42868,-4.03505 -9.50729,-9.22347l-0.40213,-26.5393c-0.07862,-5.18842 4.03506,-9.42867 9.22348,-9.50728z" fill="#000000" fill-rule="evenodd" stroke="#000000" stroke-width="0" stroke-linecap="round" stroke-linejoin="round"/><path d="M282.31535,105.79704l85.63881,-1.29762c5.18842,-0.07862 9.42867,4.03505 9.50728,9.22347l0.40213,26.5393c0.07862,5.18842 -4.03505,9.42867 -9.22347,9.50729l-85.63881,1.29762c-5.18842,0.07862 -9.42867,-4.03505 -9.50729,-9.22347l-0.40213,-26.5393c-0.07862,-5.18842 4.03506,-9.42867 9.22348,-9.50728z" fill="url(#color-1)" fill-rule="evenodd" stroke="#000000" stroke-width="2" stroke-linecap="round" stroke-linejoin="round"/></g></g></svg>