<svg version="1.1" xmlns="http://www.w3.org/2000/svg" xmlns:xlink="http://www.w3.org/1999/xlink" width="98.31779" height="259.90666" viewBox="0,0,98.31779,259.90666"><g transform="translate(-274.7314,-49.7415)"><g data-paper-data="{&quot;isPaintingLayer&quot;:true}" fill-rule="nonzero" stroke-linecap="butt" stroke-linejoin="miter" stroke-miterlimit="10" stroke-dasharray="" stroke-dashoffset="0" style="mix-blend-mode: normal"><path d="M282.56373,308.53989c0,0 -0.63536,-94.38387 -0.79335,-118.01201c-0.05451,-8.15261 8.18688,-36.76129 40.20201,-36.9211c31.60235,-0.15775 39.85672,29.48704 39.84884,36.89673c-0.07659,46.24274 0.65429,117.98648 0.65429,117.98648l-10.49667,0.09614l-0.15882,-114.84311c0,0 0.07549,-3.0993 -2.81625,-3.15415c-3.43441,-0.06514 -2.94538,3.11562 -2.94538,3.11562l0.20548,114.86995l-48.21366,0.07222l-0.30539,-115.23309c0,0 0.27949,-2.919 -2.8856,-2.93443c-3.11083,-0.01515 -2.81569,2.90899 -2.81569,2.90899l0.35311,115.0668z" fill="#999999" stroke="#000000" stroke-width="2"/><path d="M321.66272,265.26944c-0.81895,0 -1.48284,-0.66389 -1.48284,-1.48284c0,-0.81895 0.66389,-1.48284 1.48284,-1.48284c0.81895,0 1.48284,0.66389 1.48284,1.48284c0,0.81895 -0.66389,1.48284 -1.48284,1.48284z" data-paper-data="{&quot;index&quot;:null}" fill="#000000" stroke="none" stroke-width="1.5"/><path d="M297.59946,308.55433v-119.20147c0,0 0.75721,-9.73105 0.75721,-14.63937c0,-4.498 -0.75721,-13.6872 -0.75721,-13.6872c0,0 2.67319,-2.35297 4.6557,-3.74807c1.98251,-1.3951 5.17197,-2.80371 5.17197,-2.80371c0,0 -0.6016,40.10902 14.55952,40.03867c15.43477,-0.07162 13.83154,-40.03867 13.83154,-40.03867c0,0 3.91276,1.51959 6.16585,2.94655c2.25309,1.42695 4.75379,3.60523 4.75379,3.60523c0,0 -0.75721,9.42463 -0.75721,14.19201c0,4.84193 0.75721,14.63937 0.75721,14.63937v118.69667z" fill="#0f0e02" stroke="#000000" stroke-width="2"/><path d="M347.23729,105.85682c0,0 1.5086,0.38569 4.20208,1.29888c2.46019,0.83409 4.36719,1.94061 4.36719,1.94061l0.14274,1.17788c0,0 -7.10292,-3.44999 -14.99066,-3.14188c-6.30685,0.24638 -10.07864,2.36553 -10.07864,2.36553l0.23187,-4.17064c0,0 3.20033,-1.56312 7.93855,-1.50323c4.90639,0.06203 8.05645,0.95129 8.05645,0.95129z" data-paper-data="{&quot;index&quot;:null}" fill="#000000" stroke="none" stroke-width="1.5"/><path d="M306.99643,108.16178c0,0 3.44736,-1.667 8.12616,-1.92149c5.1847,-0.28202 7.76346,0.28003 7.76346,0.28003l0.11037,4.14651c0,0 -3.80139,-0.85093 -7.98675,-0.87799c-5.59741,-0.03619 -6.70214,1.13533 -10.9712,1.40358c-3.65796,0.22985 -6.73761,-0.14161 -6.73761,-0.14161l0.02903,-1.23148c0,0 3.5883,0.23415 5.23156,0.16498c1.35628,-0.05709 4.01356,-0.75994 4.01356,-0.75994z" fill="#000000" stroke="none" stroke-width="1.5"/><path d="M309.63091,160.24533l-0.56338,-0.616c-2.06717,-2.27948 -4.51399,-3.38944 -6.54472,-5.60985c-0.03573,-0.03907 -0.61382,-0.48701 -1.07113,-0.96859c-0.04421,0.19901 -0.11149,0.37822 -0.19621,0.49433c-0.05746,0.07874 -0.1197,0.1528 -0.18587,0.22305l0.04914,0.03603l-0.61999,0.84573c-0.19017,0.26749 -0.50798,0.436 -0.86024,0.42029c-0.55174,-0.02462 -0.97905,-0.49184 -0.95443,-1.04358l0.04228,-0.94759c-0.91673,-1.36853 -1.53733,-3.14639 -2.50709,-4.40864c-1.31442,-1.71086 -3.52832,-3.35126 -4.3523,-5.47409c-0.56579,-1.4577 -0.3548,-2.98427 -1.20123,-4.33483c-0.67855,-1.20814 -1.29429,-3.20682 -1.4311,-4.63289c-0.04174,-0.43507 0.00092,-3.90766 -0.48121,-3.88444c-1.52464,0.07344 -2.66153,1.91721 -3.82279,2.63037c-2.55229,1.56744 -5.22474,2.73767 -8.05049,2.45111l-0.0139,0.31156l-1.1794,-0.05262c-0.55174,-0.02462 -0.97905,-0.49184 -0.95443,-1.04358c0.01572,-0.35226 0.21186,-0.65381 0.49522,-0.81939l0.89758,-0.54221c2.4538,-1.46548 4.51886,-3.03127 6.47586,-5.0488c-1.1836,0.13677 -2.40568,-0.02964 -3.82864,-0.4095c-0.66907,-0.17861 -2.80815,-0.78227 -3.01769,-1.34117c-0.25406,-0.67763 1.38085,-2.56966 1.7887,-3.00505c1.98614,-2.12028 5.13837,-4.50763 6.36378,-7.1465c0.52351,-1.12736 0.55926,-2.1474 1.3241,-3.19071c0.44748,-1.58267 0.94407,-2.92362 1.67157,-4.35696c0.05931,-0.11685 0.10994,-0.29014 0.16112,-0.46832c-0.19486,0.10884 -0.39986,0.20325 -0.54322,0.26496c-1.38919,0.59798 -3.96028,1.34021 -4.86566,-0.63066c-0.99695,-2.17023 1.78952,-4.32009 3.07791,-5.47435c1.2623,-1.13089 1.62368,-3.06507 1.69469,-4.65672c2.28927,-7.68369 4.49206,-15.72231 9.43512,-22.46509c3.58928,-4.89611 8.60279,-9.81489 13.1467,-13.7469c1.12753,-0.9757 2.91349,-1.30867 4.23662,-2.08665c2.1437,-0.43542 4.00048,-1.68478 6.27461,-1.86616c7.13109,-0.5688 14.46773,1.74068 21.5272,2.16148c2.47057,1.33559 5.18007,1.49619 7.73783,2.76979c3.3638,1.67496 6.2627,4.26135 9.49974,6.04643c2.471,1.36264 4.08934,2.02296 5.59831,4.58932c0.67045,3.18935 2.0735,5.98499 2.32432,9.24941c0.42711,5.55897 -1.3504,12.46282 0.96535,17.66153c-0.09011,3.03964 2.03499,5.45218 3.11691,8.23118c1.23094,3.16178 1.33954,6.19299 2.00392,9.42799c0.54448,2.65125 1.33206,4.75639 0.1029,6.7672l0.32937,0.24147l-0.61999,0.84573c-0.19016,0.26749 -0.50798,0.436 -0.86024,0.42029c-0.47543,-0.02121 -0.85846,-0.37107 -0.93957,-0.82045l-0.21193,-1.04334c-1.34664,-2.17201 -1.51511,-4.58083 -3.08261,-6.66825c-0.06789,-0.09041 -0.14148,-0.17246 -0.21831,-0.24796c0.6446,4.95354 -0.28371,10.18677 -1.64188,14.84033c-1.60092,5.37327 -3.36537,10.27293 -4.83174,15.71477c-0.73088,2.7124 -1.23334,5.29208 -2.96513,7.13647l0.29547,0.32307l-0.924,0.84508c-0.18886,0.17271 -0.4436,0.27339 -0.71946,0.26108c-0.55173,-0.02462 -0.97905,-0.49184 -0.95443,-1.04358l0.05262,-1.1794c0.0146,-0.30314 -0.16922,-1.49767 -0.24947,-2.55509c-0.31002,0.79135 -0.68038,1.57025 -0.72589,1.67712c-0.7611,1.78679 -1.58231,2.88098 -2.78644,3.88597l0.10761,0.08846l-0.92977,1.13094c-0.19284,0.23982 -0.49343,0.3877 -0.82442,0.37293c-0.55173,-0.02462 -0.97905,-0.49184 -0.95443,-1.04358c0.00408,-0.0914 0.02031,-0.17937 0.04705,-0.26246l0.31464,-1.05606c0.04875,-1.17019 0.07298,-2.82086 0.26976,-4.19091c-0.47816,0.38777 -0.99842,0.74092 -1.31813,1.091c-1.95488,2.14063 -3.85426,3.72872 -6.16224,5.257c-1.18698,1.29887 -2.50429,2.42677 -3.92389,3.38673c-0.20613,0.28142 -0.41241,0.56275 -0.61866,0.84409c-2.34284,3.19585 -5.92133,5.33489 -9.14693,7.24076c-0.88027,0.52011 -1.47782,1.62633 -2.62653,2.04806c-3.11367,1.14312 -8.03608,-0.94291 -9.37402,-3.78558c-0.49456,-0.83916 -0.53429,-2.13488 -1.19419,-2.80225c-1.62868,-1.64714 -3.2457,-3.2257 -4.79846,-4.93329c-0.34468,-0.07176 -0.58003,-0.32909 -0.58003,-0.32909zM316.48524,164.15792c0.87238,1.00814 0.81645,2.1422 1.4912,3.22627c0.7931,1.92386 4.7581,3.67649 6.8744,2.84807c1.05445,-0.41276 1.41868,-1.34217 2.27522,-1.86935c1.88491,-1.16012 3.94548,-2.3413 5.7651,-3.81605c-3.34474,1.22394 -6.99538,1.73972 -10.70174,1.57436c-2.6883,-0.13544 -4.16964,-1.24837 -6.26083,-2.58812c0.18904,0.20658 0.37487,0.41474 0.55665,0.62481zM337.68775,158.97294l0.99344,-0.91518c0,0 0.32595,-0.2981 0.7427,-0.28144c0.40783,-0.25023 0.80451,-0.50197 1.1915,-0.75626c0.50375,-0.55535 0.98461,-1.14395 1.44068,-1.76608c1.22883,-0.54672 0.22466,-1.30047 -1.02472,-1.9236l-0.00743,0.01124c-2.31592,0.4704 -4.34873,1.56195 -6.54412,2.05844c-2.1883,0.4949 -4.72416,-0.32681 -6.98742,0.02176c-0.48773,-0.02287 -0.97845,-0.04785 -1.47147,-0.07571c-0.19106,0.01514 -0.41169,0.00031 -0.64966,-0.03838c-3.89424,-0.24042 -7.91106,-0.68112 -11.70603,-1.70407c-2.81154,-0.75787 -5.97314,-2.65741 -8.81698,-2.73247c0,0 -0.20192,-0.00901 -0.42015,-0.10971c-0.0014,0.17766 0.01019,0.37131 0.03552,0.58298c2.54167,1.6632 4.6496,4.70684 6.66945,6.96139c1.41722,1.58191 3.80361,2.23055 5.55433,3.33965c1.96283,1.24346 3.13539,2.38556 5.59117,2.47771c5.22919,0.23331 10.19442,-0.95444 14.30624,-3.65315c0.36693,-0.49956 0.73438,-0.99874 1.10295,-1.49713zM353.639,129.09582c0.9122,-0.23742 1.20434,-1.08816 2.07675,-1.88962c3.12707,-2.87277 3.79377,-6.01994 4.01084,-10.21749c-0.44059,-2.63585 -2.9946,-0.19363 -3.79724,1.08778c-0.48023,0.76668 -0.89761,1.58235 -1.246,2.43199c0.03408,0.4886 0.12508,0.98863 -0.02172,1.44443c-0.39495,1.22627 -0.78943,2.46024 -1.17773,3.70249c-0.07683,1.14858 -0.02905,2.30503 0.1551,3.44043zM345.73372,146.67731c0.51748,-1.4834 1.63815,-2.50674 1.92356,-4.17794c0.57033,-3.33943 -0.62753,-6.86222 1.69263,-9.66469c0.60897,-2.68224 1.35893,-5.31356 2.18862,-7.89084c0.17438,-1.77235 0.60708,-3.52436 1.27142,-5.15905c-0.01894,-0.29268 -0.01628,-0.58155 0.07046,-0.85499c0.75112,-2.36792 1.65903,-4.83102 2.14525,-7.38426l-0.20837,-0.13121c-1.77549,-0.54949 -3.50764,-1.409 -4.95381,-2.59756c-0.71187,0.00252 -1.43005,-0.02417 -2.15217,-0.06991c-0.06593,0.00798 -0.13708,0.01072 -0.21389,0.00729c-0.10103,-0.00451 -0.19138,-0.01878 -0.27219,-0.04079c-3.71311,-0.27567 -7.51623,-0.99167 -11.09135,-0.76915c-1.28017,0.07968 -3.94961,2.17496 -5.21626,1.03995c-0.53718,-0.48136 -0.46479,-1.35207 -0.27431,-2.1445c-0.00549,-0.00581 -0.01097,-0.0117 -0.01645,-0.01769c-0.67489,-0.73791 0.06303,-1.4128 0.06303,-1.4128l0.88399,-0.73893c1.02622,-0.45523 2.03423,-1.2751 3.07093,-1.65571c1.99957,-0.73411 4.43721,-0.43482 6.43982,-0.08619c3.46561,0.60333 7.14301,-0.27863 7.44419,3.90968c0.67377,0.01636 1.34148,0.04374 1.99897,0.09231c1.50607,1.03236 3.0407,2.03666 4.78655,2.54603c0.02186,-0.25959 0.03799,-0.52006 0.0478,-0.78141c0.18427,-4.13003 -0.39883,-7.86604 -1.21071,-11.92409c-0.29541,-1.47656 0.05455,-3.21679 -1.80848,-3.79695c-2.59223,-0.80723 -3.44714,0.3916 -5.84375,0.8784c-3.72079,2.33189 -9.10151,4.19066 -13.40052,5.07419c-2.22963,0.45823 -4.30812,0.47861 -6.30202,1.67844l-0.06671,0.00296l0.01074,0.02408l-1.18733,0.52889c-0.14209,0.0669 -0.30206,0.10121 -0.46985,0.09372c-0.55174,-0.02462 -0.97905,-0.49185 -0.95443,-1.04358c0.01572,-0.35227 0.21185,-0.65381 0.49521,-0.81939l0.89758,-0.54221l0.06476,0.10719l0.0087,-0.00388c1.22913,-1.39688 2.64021,-2.54979 4.14361,-3.69707c0.42678,-0.32569 0.96072,-0.92459 1.49685,-1.41691c-0.70773,0.20982 -1.4928,0.15374 -2.18527,0.41682c-2.32725,0.88417 -4.78859,1.71104 -7.09031,2.6968c-2.42391,-0.07186 -3.98346,0.93318 -6.10665,1.7368c-3.96767,1.50176 -8.58614,2.04085 -12.48595,3.25071c-0.80127,0.24858 -0.9671,3.13012 -1.1453,3.74066c-0.44723,1.46437 -0.68627,2.87193 -0.77133,4.25034c1.24527,-0.05317 2.49288,-0.20224 3.742,-0.39664c0.17433,-0.8135 1.28534,-2.49409 1.73861,-2.70088c1.43503,-0.6547 3.44775,0.51539 4.90284,0.14326c1.79564,-0.45923 3.667,-1.69514 5.56837,-1.85506c1.54957,-0.13032 5.35887,0.4987 6.20572,1.92586c0.43194,0.72793 -0.07926,3.29708 -0.79757,3.7125c-0.56157,0.32478 -1.28502,-0.17912 -1.92754,-0.26868c-1.37304,-0.41934 -2.76315,-0.60554 -4.16385,-0.63657c1.74298,1.21285 5.95598,1.15004 6.94929,3.15808c0.76301,1.54245 0.55122,3.16875 -0.08095,4.76432c0.26851,0.30833 0.24935,0.73793 0.24935,0.73793c-0.12873,2.88519 0.87766,5.3632 1.10387,8.19914c0.33833,4.24175 -0.38694,8.84077 -0.57678,13.09573c-0.14625,3.27787 -0.58407,6.46927 -0.72896,9.71686c-0.03199,0.71704 -0.39255,2.28524 -0.01975,2.96772c0.25088,0.45927 1.00032,0.32194 1.46774,0.5573c0.08305,0.04181 0.13964,0.1609 0.1946,0.26456c0.12158,0.00749 0.24305,0.01472 0.36437,0.02174c0.22562,-0.34441 -0.04644,-1.01866 0.03059,-1.47924c0.32706,-1.95542 0.45719,-3.88372 0.55795,-5.88382c0.37229,-1.24954 0.64941,-2.5197 0.86095,-3.80396c-0.13365,-0.24953 -0.19641,-0.60537 0.10564,-1.01739c0.01933,-0.02637 0.03889,-0.05125 0.05866,-0.07471c0.90388,-6.60316 0.31174,-13.52653 2.17142,-19.89837c0.06458,-0.21675 0.12915,-0.4335 0.19374,-0.65026c-0.00512,-0.06599 -0.00979,-0.13198 -0.01395,-0.19795c-0.29241,-0.08182 -0.74847,-0.31898 -0.71803,-1.00107c0.02824,-0.63303 0.43973,-0.84704 0.73742,-0.91889c0.13964,-1.60029 0.59986,-3.09882 1.43467,-4.26642c1.64421,-2.22327 4.28968,-4.31435 7.11782,-4.55221c5.35652,-0.45052 14.05931,3.02046 12.20781,9.63723c-0.04049,0.90746 0.02954,2.35793 -0.8065,2.99418c-0.0092,0.00701 -0.01851,0.01391 -0.02792,0.0207c-0.56916,3.08328 -2.26518,5.76696 -5.09429,7.47598c-2.03048,1.1404 -4.11674,0.54719 -6.29864,0.17503c-2.11114,-0.3601 -4.24355,-0.59624 -5.79997,-2.31707c-0.70241,-0.77663 -1.29028,-1.75515 -1.74175,-2.84294c-1.02055,5.41841 -0.68179,11.17513 -1.40799,16.68868c1.78277,1.53257 2.73523,3.5404 0.41255,5.27812c1.40615,0.01299 2.90083,-0.00331 4.15224,0.58741c2.39249,1.12934 4.52967,2.69517 6.85583,3.78935c0.07642,-0.01196 0.16019,-0.01668 0.25203,-0.01258c0.45782,0.02043 0.69647,0.2413 0.82069,0.47461c0.1853,0.07201 0.37214,0.14038 0.56073,0.20467c0.33108,0.11288 0.63379,0.25645 0.90447,0.4243c1.20497,-1.74448 1.90321,-3.5963 2.56523,-5.49405zM302.65849,129.68289c-0.26517,5.94329 0.9529,11.75084 0.68494,17.75669l-0.04804,1.07664c1.66208,-2.57549 5.96111,-3.3608 9.29279,-2.8394c1.81765,0.28446 4.14393,1.67437 6.03406,1.19097c0.66744,-0.1707 1.19774,-0.38378 1.75681,-0.54321c-3.44115,-2.66588 -1.8221,-6.1394 1.97698,-6.38383c0.00356,-0.07331 0.00698,-0.14667 0.01026,-0.22007c0.18604,-4.16975 0.91389,-8.69608 0.58086,-12.85094c-0.16839,-2.10093 -0.73707,-4.00426 -0.99316,-6.01902c-0.86793,1.38247 -1.7831,2.67554 -2.31633,3.79053c-0.52798,1.10399 -0.81384,2.39383 -1.87364,3.21623c-0.70701,0.54862 -1.60993,0.78614 -2.3809,1.24051c-5.30402,1.10363 -10.97178,-2.90011 -12.49935,-7.94518c0.23661,2.81019 -0.10228,5.77235 -0.22531,8.53006zM342.05319,104.96602c-2.12399,-0.10119 -4.57781,-0.91176 -6.68156,-0.08824c-0.83796,0.32802 -1.64373,0.91495 -2.46952,1.36309c-0.06709,0.21174 -0.17614,0.52848 -0.28867,0.79956c0.91417,-0.51341 3.10165,-1.06581 3.36481,-1.09015c1.33044,-0.12298 2.50094,0.24281 3.76915,0.4636c2.17163,0.37805 4.47805,0.38291 6.76273,0.39804c-0.30345,-2.04185 -2.25571,-1.74103 -4.45695,-1.8459zM303.50756,114.50133c0,0 0.20315,-0.36468 0.58255,-0.49155l0.10056,-0.17644c1.23439,-1.43766 2.63614,-1.39162 4.41366,-1.95925c0.90994,-0.29058 1.70821,-0.96997 2.53729,-1.51212c-3.25233,0.55659 -6.51566,1.38934 -9.71198,1.55653c0.08512,2.24221 0.51901,4.44149 1.05692,6.7228c-0.01856,-1.37795 0.29502,-2.78209 1.02098,-4.13997zM314.19054,151.6739c2.43421,0.65593 4.96251,1.07233 7.48672,1.34337c-0.35262,-1.09917 -0.08699,-2.52483 -0.03992,-3.57975c0.02007,-0.44991 0.04575,-0.89854 0.07546,-1.34634c-1.49347,0.04095 -2.49997,0.74026 -4.06768,0.69204c-3.83334,-0.11792 -6.45226,-1.75633 -10.26519,-0.52018c-0.72402,0.23472 -1.3564,0.41219 -1.84814,0.66384c2.89479,0.35233 5.82399,1.98315 8.65873,2.747zM327.38421,153.42477c2.07511,-0.31959 4.65068,0.53622 6.60191,0.0372c1.42072,-0.36335 2.7766,-0.91813 4.18922,-1.39613c-3.35771,-1.63418 -5.63886,-3.2091 -9.59451,-3.38559l-0.15138,0.183c0,0 -0.13673,0.06091 -0.32795,0.08269c-0.089,1.54365 -0.27803,3.10247 -0.80969,4.47487c0.03081,0.00132 0.06161,0.00265 0.0924,0.00395zM321.62952,144.76364l0.33961,0.18282c0.09003,-0.99837 0.18217,-1.99753 0.25913,-3.00223c-1.82373,0.173 -2.65181,1.38381 -0.59874,2.81941zM331.69174,120.58534c-0.01895,0.0636 -0.0379,0.1272 -0.05684,0.1908c0.25101,2.12529 1.0604,4.2285 2.20063,5.45385c1.25519,1.34891 2.99101,1.41058 4.65672,1.69469c1.51388,0.25821 3.57296,1.01249 4.93192,0.08523c1.99551,-1.20545 3.52505,-3.17783 4.08136,-5.39823c-0.96142,-0.06762 -2.04066,-0.32341 -2.95761,-0.58124c-1.92463,5.52235 -7.45746,1.5066 -10.57274,-0.7531c0,0 -0.40337,-0.2957 -0.43045,-0.75413c-0.60614,-0.01766 -1.22009,-0.03833 -1.84389,-0.06557zM347.53043,120.07811l0.38448,0.14622l0.21804,-0.64651c0,0 0.09064,-0.23627 0.2996,-0.4255c-0.01391,-0.08879 -0.02127,-0.17425 -0.01772,-0.25398c0.62686,-1.95721 -0.07633,-2.90917 -1.2973,-4.25017c-0.43403,-0.4767 -0.48735,-1.35215 -1.08088,-1.60385c-0.68584,-0.29085 -1.49312,-0.137 -2.20769,-0.34762c-4.52132,-1.33266 -8.18387,-1.4638 -11.15462,2.63169c-0.61611,0.81212 -0.95885,1.90681 -1.0756,3.10583c2.01956,0.05393 4.08747,0.06914 6.12465,0.21828c3.25686,0.13209 6.4191,0.41623 9.80701,1.42562zM314.72614,108.00536c2.24637,-0.17608 4.49076,-0.08395 6.72835,0.5691c0.82939,0.87307 0.48853,-0.42747 0.40755,-0.5525c-0.35413,-0.54686 -3.5324,-0.96309 -4.30358,-0.90651c-0.94231,0.06914 -1.89258,0.47217 -2.83231,0.88991zM314.61883,123.78866c-1.83366,0.49513 -3.55952,-0.4128 -5.07502,-1.15535c-0.68552,-0.33589 -2.14062,-0.33457 -2.62548,-0.91563c-0.85905,-1.02949 -0.52878,-1.95456 -0.22456,-2.9475c-0.75851,-0.04489 -1.5172,-0.08564 -2.27591,-0.12053c0.08785,4.7828 5.6103,9.48774 10.23848,8.58506c0.58705,-0.3654 1.29578,-0.52361 1.85222,-0.9341c0.79065,-0.58328 0.95649,-1.76463 1.33795,-2.5492c0.61445,-1.26379 1.67901,-2.63873 2.58295,-4.09208l-0.30261,-0.0135c-0.86672,-0.03867 -1.73476,-0.08539 -2.6039,-0.13752c-0.49514,1.70655 -0.88306,3.7346 -2.90414,4.28035zM320.21601,117.64782l0.88454,0.03946c0,0 0.1591,0.0071 0.34748,0.07912c0.54605,-1.25823 0.80194,-2.561 0.41715,-3.88952c-0.1371,-0.47336 -0.93498,-0.31269 -1.40818,-0.45035c-1.51359,-0.44029 -3.1516,-0.71011 -4.40358,-1.68671c-0.87601,0.00311 -2.13257,-0.32376 -2.95919,-0.13203c-1.28887,0.29894 -2.55577,1.7339 -3.88031,2.17114c-0.96984,0.32016 -3.05904,0.48187 -3.41026,1.2369l-0.25406,0.47194c0,0 -0.19451,0.34918 -0.55834,0.48305c-0.10814,0.22805 -0.2001,0.45844 -0.27664,0.69053c5.18262,0.24555 10.36776,0.75743 15.50137,0.98647zM328.54464,145.04576c0.76586,-0.30312 0.66309,-0.79511 0.28199,-1.27475c-0.08488,0.42702 -0.17848,0.85204 -0.28199,1.27475z" fill="#000000" stroke="none" stroke-width="0.5"/><path d="M353.44922,125.69139c0.38829,-1.24225 0.76923,-2.52542 1.16418,-3.75169c0.1468,-0.4558 0.06954,-0.97882 0.03546,-1.46744c0.3484,-0.84964 0.79324,-1.67862 1.27347,-2.4453c0.80264,-1.28141 3.38873,-3.71738 3.82932,-1.08153c-0.21707,4.19756 -0.91752,7.43723 -4.04459,10.30999c-0.87241,0.80146 -1.17599,1.64873 -2.08817,1.88616c-0.18415,-1.13541 -0.24649,-2.30161 -0.16966,-3.45019z" data-paper-data="{&quot;noHover&quot;:false,&quot;origItem&quot;:[&quot;Path&quot;,{&quot;applyMatrix&quot;:true,&quot;segments&quot;:[[[268.21396,123.01191],[-0.23457,-1.12607],[0.90071,-0.27784]],[[270.20442,121.0316],[-0.83582,0.83955],[2.99592,-3.00929]],[[273.75586,110.64549],[-0.02976,4.20306],[-0.55764,-2.61359]],[[270.01088,111.90144],[0.74473,-1.31591],[-0.44558,0.78732]],[[268.87451,114.38655],[0.31018,-0.86432],[0.05582,0.4866]],[[268.9172,115.83051],[0.12634,-0.46189],[-0.3399,1.24265]],[[267.90567,119.58181],[0.33253,-1.25832],[-0.02556,1.15086]]],&quot;closed&quot;:true}]}" fill="#ffffff" stroke="none" stroke-width="0.5"/><path d="M331.65668,120.43414c0.6238,0.02724 1.24068,0.04307 1.84682,0.06074c0.02707,0.45843 0.42884,0.75662 0.42884,0.75662c3.11528,2.25972 8.73568,6.279 10.66031,0.75664c0.91695,0.25784 2.00002,0.5241 2.96145,0.59172c-0.55631,2.2204 -2.09658,4.23726 -4.09209,5.44272c-1.35896,0.92726 -3.46953,0.18843 -4.9834,-0.06978c-1.66571,-0.28412 -3.43585,-0.37973 -4.69104,-1.72864c-1.14023,-1.22536 -1.94662,-3.3646 -2.19763,-5.48989c0.01895,-0.0636 0.0384,-0.12821 0.05735,-0.1918z" data-paper-data="{&quot;noHover&quot;:false,&quot;origItem&quot;:[&quot;Path&quot;,{&quot;applyMatrix&quot;:true,&quot;segments&quot;:[[[245.90918,115.48812],[0,0],[-0.0161,0.06438]],[[245.8609,115.68126],[0.0161,-0.06438],[0.34549,2.11199]],[[248.30242,121.0316],[-1.19371,-1.17332],[1.31407,1.29162]],[[253.03005,122.51705],[-1.67672,-0.20959],[1.52388,0.19048]],[[257.96087,122.38236],[-1.31628,0.98691],[1.9398,-1.2932]],[[261.79756,116.80758],[-0.45679,2.24299],[-0.96348,-0.0247]],[[258.81698,116.35875],[0.92753,0.21671],[-1.67658,5.60265]],[[248.22118,116.07763],[3.2129,2.11862],[0,0]],[[247.75755,115.34344],[0.04748,0.45677],[-0.60632,0.00937]],[[245.91257,115.36011],[0.62439,-0.00059],[0,0]]],&quot;closed&quot;:true}]}" fill="#ffffff" stroke="none" stroke-width="0.5"/><path d="M328.82512,143.72103c0.38111,0.47964 0.46382,1.06671 -0.30205,1.36983c0.10349,-0.42271 0.21717,-0.94281 0.30205,-1.36983z" data-paper-data="{&quot;noHover&quot;:false,&quot;origItem&quot;:[&quot;Path&quot;,{&quot;applyMatrix&quot;:true,&quot;segments&quot;:[[[243.85545,140.0645],[0.08455,-0.4269],[0.75159,-0.33695]],[[244.08034,138.77845],[0.40211,0.46218],[-0.06576,0.43038]]],&quot;closed&quot;:true}]}" fill="#ffffff" stroke="none" stroke-width="0.5"/><path d="M322.25524,141.90213c-0.07695,1.00471 -0.17586,2.09168 -0.26589,3.09005l-0.34765,-0.18005c-2.05306,-1.43561 -1.21019,-2.73699 0.61354,-2.91z" data-paper-data="{&quot;noHover&quot;:false,&quot;origItem&quot;:[&quot;Path&quot;,{&quot;applyMatrix&quot;:true,&quot;segments&quot;:[[[236.93463,140.09088],[-2.11501,-1.34267],[0,0]],[[237.28205,140.25838],[0,0],[0.04544,-1.00139]],[[237.40711,137.24758],[-0.03209,1.00714],[-1.81421,0.25412]]],&quot;closed&quot;:true}]}" fill="#999999" stroke="none" stroke-width="0.5"/><path d="M327.24526,153.43902c0.53167,-1.37239 0.72244,-2.97158 0.81143,-4.51522c0.19122,-0.02179 0.32896,-0.08464 0.32896,-0.08464l0.15256,-0.18504c3.95566,0.17649 6.32888,1.78488 9.6866,3.41907c-1.41261,0.47799 -2.79418,1.06941 -4.2149,1.43276c-1.95123,0.49903 -4.59705,-0.38226 -6.67215,-0.06267c-0.03078,-0.0013 -0.0617,-0.00292 -0.09251,-0.00425z" data-paper-data="{&quot;noHover&quot;:false,&quot;origItem&quot;:[&quot;Path&quot;,{&quot;applyMatrix&quot;:true,&quot;segments&quot;:[[[243.06965,148.48691],[-0.03081,0.00007],[2.0588,-0.41176]],[[249.66667,148.22981],[-1.92705,0.5855],[1.40311,-0.42631]],[[253.7895,146.64835],[-1.3899,0.54048],[-3.42721,-1.4829]],[[244.05361,143.69377],[3.9596,0],[0,0]],[243.91054,143.88335],[[243.58661,143.98057],[0.19006,-0.03029],[-0.02011,1.54608]],[[242.97718,148.48708],[0.46997,-1.39472],[0.03084,-0.00005]]],&quot;closed&quot;:true}]}" fill="#999999" stroke="none" stroke-width="0.5"/><path d="M305.48241,148.91917c0.49174,-0.25165 1.12575,-0.43614 1.84976,-0.67086c3.81292,-1.23617 6.52677,0.40038 10.36011,0.51829c1.56772,0.04822 2.57543,-0.64707 4.06891,-0.68802c-0.02973,0.4478 -0.054,0.90432 -0.07407,1.35423c-0.04707,1.05492 -0.3153,2.50185 0.03732,3.60102c-2.52422,-0.27105 -5.08223,-0.65716 -7.51644,-1.31309c-2.83474,-0.76385 -5.8308,-2.44925 -8.72559,-2.80157z" data-paper-data="{&quot;noHover&quot;:false,&quot;origItem&quot;:[&quot;Path&quot;,{&quot;applyMatrix&quot;:true,&quot;segments&quot;:[[[229.81105,147.32584],[-2.86597,-0.63674],[2.46103,0.54678]],[[237.35022,148.33418],[-2.53379,-0.15827],[-0.40126,-1.08236]],[[237.15078,144.75977],[0,1.05597],[0,-0.45036]],[[237.16616,143.41141],[-0.00974,0.44868],[-1.49016,0.10748]],[[233.13337,144.28406],[1.56831,-0.0217],[-3.83479,0.05306]],[[222.8552,144.22195],[3.75403,-1.40489],[-0.71284,0.26676]],[[221.03849,144.9675],[0.48003,-0.27332],[2.90762,0.22295]]],&quot;closed&quot;:true}]}" fill="#999999" stroke="none" stroke-width="0.5"/><path d="M336.63388,160.47961c-4.11181,2.6987 -9.13415,3.92627 -14.36334,3.69296c-2.45578,-0.09216 -3.66379,-1.25887 -5.62661,-2.50234c-1.75072,-1.10909 -4.14362,-1.78075 -5.56085,-3.36266c-2.01984,-2.25455 -4.12503,-5.31633 -6.6667,-6.97953c-0.02533,-0.21167 -0.03647,-0.40658 -0.03507,-0.58423c0.21824,0.1007 0.42019,0.1096 0.42019,0.1096c2.84384,0.07507 6.00649,1.97206 8.81804,2.72993c3.79496,1.02295 7.88886,1.44507 11.78311,1.68548c0.23797,0.0387 0.46381,0.05838 0.65488,0.04324c0.49301,0.02787 0.99026,0.0616 1.47798,0.08447c2.26328,-0.34856 4.8048,0.48758 6.99311,-0.00731c2.19539,-0.49649 4.13096,-1.56479 6.44688,-2.03519l0.10429,-0.03609c1.24938,0.62312 2.25463,1.38236 1.02581,1.92908c-0.45607,0.62213 -0.9365,1.21519 -1.44026,1.77053c-0.38699,0.25429 -0.78362,0.50819 -1.19145,0.75842c-0.41675,-0.01666 -0.7427,0.28234 -0.7427,0.28234l-0.99358,0.91838c-0.36857,0.49839 -0.73679,1.00334 -1.10372,1.50291z" data-paper-data="{&quot;noHover&quot;:false,&quot;origItem&quot;:[&quot;Path&quot;,{&quot;applyMatrix&quot;:true,&quot;segments&quot;:[[[253.61024,153.57032],[-0.34599,0.51432],[0,0]],[254.5619,152.61178],[[255.29132,152.29752],[-0.41708,0.00193],[0.39627,-0.26816]],[[256.44793,151.4889],[-0.37527,0.27129],[0.4785,-0.57725]],[[257.80846,149.66036],[-0.42789,0.64184],[1.20324,-0.60095]],[[256.69903,147.78435],[1.27591,0.56681],[0,0]],[[256.69211,147.79591],[0,0],[-2.29265,0.57316]],[[250.24624,150.14399],[2.17108,-0.59385],[-2.16407,0.59194]],[[243.26673,150.47717],[2.24549,-0.44909],[-0.48826,-0.00111]],[[241.79335,150.46712],[0.49376,0.00587],[-0.1902,0.02364]],[[241.14262,150.45773],[0.23946,0.02805],[-3.90109,-0.06661]],[[229.37227,149.27711],[3.83678,0.85279],[-2.84253,-0.6318]],[[220.44226,146.94034],[2.84436,-0.05176],[0,0]],[[220.01764,146.84947],[0.22251,0.09087],[0.00652,0.17755]],[[220.07911,147.43028],[-0.03474,-0.21033],[2.61328,1.54826]],[[227.05221,154.08748],[-2.11832,-2.16228],[1.48632,1.51717]],[[232.74987,157.17625],[-1.79841,-1.02996],[2.0163,1.15474]],[[238.44592,159.40229],[-2.45745,0.01739],[5.23439,0]],[[252.57511,155.11512],[-3.98744,2.87929],[0.3443,-0.51542]]],&quot;closed&quot;:true}]}" fill="#999999" stroke="none" stroke-width="0.5"/><path d="M302.85472,121.11213c1.52756,5.04506 7.24701,9.04488 12.55103,7.94125c0.77097,-0.45437 1.68164,-0.68703 2.38864,-1.23565c1.0598,-0.8224 1.28648,-2.03165 1.81446,-3.13564c0.53324,-1.11499 1.50533,-2.49027 2.37327,-3.87274c0.25609,2.01476 0.83663,3.92941 1.00503,6.03034c0.33303,4.15486 -0.39032,8.73407 -0.57636,12.90382c-0.00328,0.07341 -0.00711,0.14756 -0.01068,0.22087c-3.79908,0.24443 -5.4343,3.73581 -1.99316,6.40168c-0.55907,0.15943 -1.09497,0.37577 -1.76241,0.54646c-1.89013,0.48339 -4.23855,-0.90128 -6.0562,-1.18573c-3.33169,-0.52141 -7.65869,0.25547 -9.32076,2.83096l0.04658,-1.07764c0.26796,-6.00585 -0.96547,-11.87649 -0.70031,-17.81977c0.12304,-2.75772 0.47748,-5.73802 0.24087,-8.54821z" data-paper-data="{&quot;noHover&quot;:false,&quot;origItem&quot;:[&quot;Path&quot;,{&quot;applyMatrix&quot;:true,&quot;segments&quot;:[[[217.31028,125.87069],[0,-2.76046],[0,5.9492]],[[218.78599,143.5792],[0,-6.01182],[0,0]],[[218.78599,144.65691],[0,0],[1.54563,-2.64701]],[[227.94299,141.40613],[-3.35162,-0.37239],[1.82852,0.20316]],[[234.02415,142.32697],[-1.86671,0.56716],[0.65917,-0.20028]],[[235.755,141.706],[-0.55141,0.18419],[-3.55655,-2.50985]],[[237.44548,135.2404],[-3.78441,0.41352],[0.00029,-0.0734]],[[237.44592,135.02009],[0,0.07348],[0,-4.1739]],[[237.45341,122.15603],[0.51789,4.13589],[-0.26187,-2.09134]],[[236.19296,116.18725],[0.34564,2.00134],[-0.80545,1.41978]],[[234.04788,120.07726],[0.48301,-1.13765],[-0.47825,1.12643]],[[232.31946,123.37381],[1.02209,-0.86882],[-0.68185,0.57959]],[[229.99622,124.71921],[0.74995,-0.48828],[-5.24956,1.33894]],[[217.15516,117.33905],[1.75091,4.97196],[0.36163,2.79685]]],&quot;closed&quot;:true}]}" fill="#999999" stroke="none" stroke-width="0.5"/><path d="M337.68988,118.68956c-2.03719,-0.14914 -4.11951,-0.1873 -6.13907,-0.24123c0.11675,-1.19902 0.45759,-2.31157 1.0737,-3.12369c2.97075,-4.0955 6.72059,-3.99377 11.24191,-2.66111c0.71457,0.21062 1.52932,0.06793 2.21516,0.35878c0.59352,0.2517 0.65113,1.14027 1.08517,1.61696c1.22098,1.341 1.9219,2.31905 1.29504,4.27626c-0.00356,0.07973 0.00335,0.16643 0.01725,0.25521c-0.20895,0.18923 -0.30075,0.42817 -0.30075,0.42817l-0.21981,0.64993l-0.38466,-0.14591c-3.38791,-1.00939 -6.62708,-1.2813 -9.88395,-1.41339z" data-paper-data="{&quot;noHover&quot;:false,&quot;origItem&quot;:[&quot;Path&quot;,{&quot;applyMatrix&quot;:true,&quot;segments&quot;:[[[261.70952,114.27544],[-3.42953,-0.85738],[0,0]],[262.10014,114.40438],[262.28915,113.74879],[[262.56949,113.31035],[-0.20031,0.19836],[-0.01785,-0.08808]],[[262.54047,113.05741],[0,0.07981],[0.539,-1.98321]],[[261.05502,108.86928],[1.27954,1.28525],[-0.45485,-0.45688]],[[259.90374,107.3152],[0.60415,0.225],[-0.69812,-0.25999]],[[257.68275,107.06633],[0.72325,0.17856],[-4.57623,-1.12981]],[[246.65652,110.19259],[2.78525,-4.22384],[-0.5793,0.83877]],[[245.72042,113.34326],[0.06319,-1.20303],[2.01996,-0.03614]],[[251.84871,113.28834],[-2.04181,-0.05819],[3.25951,-0.01321]]],&quot;closed&quot;:true}]}" fill="#999999" stroke="none" stroke-width="0.5"/><path d="M302.45364,118.67892c-0.53791,-2.28131 -0.98283,-4.54205 -1.06794,-6.78426c3.19632,-0.16719 6.54224,-1.00783 9.79457,-1.56442c-0.82908,0.54216 -1.70043,1.28952 -2.61037,1.5801c-1.77752,0.56764 -3.09732,0.50091 -4.33171,1.93858l-0.09931,0.17186c-0.3794,0.12688 -0.58132,0.47998 -0.58132,0.47998c-0.72597,1.35788 -1.12249,2.80021 -1.10392,4.17816z" data-paper-data="{&quot;noHover&quot;:false,&quot;origItem&quot;:[&quot;Path&quot;,{&quot;applyMatrix&quot;:true,&quot;segments&quot;:[[[217.48184,110.66638],[-0.66473,1.38889],[0,0]],[[218.0419,110.14936],[-0.37337,0.14366],[0,0]],[[218.1345,109.96861],[0,0],[1.16908,-1.49125]],[[222.45645,107.81458],[-1.75045,0.6463],[0.89608,-0.33085]],[[224.92382,106.19087],[-0.80409,0.57857],[-3.22429,0.701]],[[215.29088,108.17873],[3.18569,-0.30949],[0.18497,2.23619]],[[216.6464,114.84774],[-0.63906,-2.25507],[-0.07996,-1.37575]]],&quot;closed&quot;:true}]}" fill="#999999" stroke="none" stroke-width="0.5"/><path d="M317.48182,119.5367c0.86914,0.05213 1.82403,0.05015 2.69075,0.08882l0.30291,0.0142c-0.90394,1.45335 -1.96478,2.85325 -2.57923,4.11704c-0.38146,0.78457 -0.55681,1.99029 -1.34746,2.57357c-0.55645,0.4105 -1.27996,0.58204 -1.86701,0.94744c-4.62818,0.90268 -10.21939,-3.87023 -10.30724,-8.65303c0.75871,0.03489 1.6,0.13153 2.35851,0.17641c-0.30423,0.99295 -0.62547,1.90001 0.23358,2.9295c0.48486,0.58106 1.94079,0.57614 2.62631,0.91203c1.5155,0.74255 3.14397,1.6281 4.97763,1.13297c2.02108,-0.54575 2.41612,-2.5324 2.91126,-4.23894z" data-paper-data="{&quot;noHover&quot;:false,&quot;origItem&quot;:[&quot;Path&quot;,{&quot;applyMatrix&quot;:true,&quot;segments&quot;:[[[228.99602,119.44923],[1.99475,-0.63529],[-1.80977,0.57637]],[[223.87455,118.52123],[1.54709,0.67426],[-0.69981,-0.305]],[[221.21087,117.72354],[0.51028,0.55887],[-0.90408,-0.99018]],[[220.85516,114.78898],[-0.25967,1.00552],[-0.75976,-0.01104]],[[218.57615,114.77001],[0.75951,0.00104],[0.30094,4.77413]],[[229.18711,122.89018],[-4.58335,1.10807],[0.57018,-0.3912]],[[230.99585,121.87445],[-0.5376,0.43489],[0.76387,-0.61794]],[[232.21885,119.26816],[-0.34611,0.80079],[0.55751,-1.28992]],[[234.61684,115.06501],[-0.83826,1.4922],[0,0]],[[234.31393,115.06501],[0,0],[-0.86758,0]],[[231.70649,115.04369],[0.8706,0.01334],[-0.41858,1.72692]]],&quot;closed&quot;:true}]}" fill="#ffffff" stroke="none" stroke-width="0.5"/><path d="M304.66615,116.6735c0.07654,-0.23209 0.16776,-0.46592 0.27591,-0.69396c0.36383,-0.13388 0.55798,-0.4854 0.55798,-0.4854l0.25377,-0.47477c0.35123,-0.75503 2.44094,-0.92836 3.41079,-1.24851c1.32453,-0.43724 2.63464,-1.91375 3.9235,-2.2127c0.82662,-0.19174 2.12385,0.14857 2.99986,0.14546c1.25198,0.9766 2.90493,1.27524 4.41852,1.71553c0.4732,0.13766 1.2715,-0.01916 1.40861,0.45421c0.38479,1.32852 0.12526,2.65386 -0.4208,3.91209c-0.18839,-0.07202 -0.34761,-0.07879 -0.34761,-0.07879l-0.88537,-0.03759c-5.1336,-0.22904 -10.41251,-0.75001 -15.59512,-0.99556z" data-paper-data="{&quot;noHover&quot;:false,&quot;origItem&quot;:[&quot;Path&quot;,{&quot;applyMatrix&quot;:true,&quot;segments&quot;:[[[234.31393,113.06501],[-5.13871,0],[0,0]],[235.19936,113.06501],[[235.55002,113.12857],[-0.19141,-0.06355],[0.48943,-1.28132]],[[235.79339,109.22432],[0.44362,1.31005],[-0.15806,-0.46678]],[[234.36654,108.83718],[0.47887,0.11643],[-1.53171,-0.37239]],[[229.89216,107.34842],[1.29426,0.91983],[-0.875,0.04215]],[[226.93003,107.34842],[0.81725,-0.22839],[-1.27426,0.35609]],[[223.15035,109.69035],[1.30373,-0.49584],[-0.95461,0.36307]],[[219.7986,111.07801],[0.31723,-0.76993],[0,0]],[219.56584,111.56081],[[219.02959,112.06827],[0.3575,-0.14996],[-0.09787,0.23264]],[[218.784,112.77044],[0.06612,-0.23527],[5.18841,0.01431]]],&quot;closed&quot;:true}]}" fill="#999999" stroke="none" stroke-width="0.5"/><path d="M343.1915,152.21575c-0.27068,-0.16784 -0.57422,-0.31099 -0.90531,-0.42387c-0.18858,-0.06429 -0.376,-0.13237 -0.56131,-0.20439c-0.12421,-0.23331 -0.36364,-0.45382 -0.82146,-0.47425c-0.09184,-0.0041 -0.17596,0.00078 -0.25237,0.01273c-2.32616,-1.09419 -4.47212,-2.65702 -6.86461,-3.78636c-1.25141,-0.59071 -2.75408,-0.57316 -4.16023,-0.58615c2.32268,-1.73772 1.37018,-3.74553 -0.41259,-5.27812c0.7262,-5.51355 0.3443,-11.35085 1.36485,-16.76926c0.45146,1.08779 1.04524,2.05996 1.74767,2.83658c1.55641,1.72083 3.68159,1.96513 5.79273,2.32521c2.1819,0.37216 4.26301,0.97453 6.29349,-0.16587c2.82913,-1.70903 4.52106,-4.37222 5.09022,-7.4555c0.00941,-0.00679 0.01872,-0.01365 0.02792,-0.02065c0.83604,-0.63625 0.76654,-2.0802 0.80703,-2.98766c1.85151,-6.61676 -6.83305,-10.05598 -12.18956,-9.60546c-2.82814,0.23787 -5.46039,2.33652 -7.1046,4.55981c-0.83481,1.1676 -1.257,2.57367 -1.39664,4.17397c-0.29769,0.07184 -0.7134,0.28423 -0.74164,0.91727c-0.03043,0.68209 0.44121,0.92776 0.73362,1.00958c0.00416,0.06597 0.01072,0.13356 0.01585,0.19955c-0.06458,0.21675 -0.12439,0.43838 -0.18897,0.65514c-1.85967,6.37184 -1.30708,13.37764 -2.21097,19.9808c-0.01976,0.02345 -0.03947,0.04833 -0.05881,0.0747c-0.30205,0.41203 -0.23947,0.76786 -0.10582,1.01738c-0.21154,1.28426 -0.4902,2.55434 -0.86248,3.80388c-0.10077,2.0001 -0.23116,3.92838 -0.55822,5.8838c-0.07704,0.46057 0.19515,1.13485 -0.03046,1.47924c-0.12133,-0.00702 -0.24338,-0.0143 -0.36497,-0.02179c-0.05496,-0.10365 -0.1119,-0.22276 -0.19495,-0.26458c-0.46741,-0.23537 -1.21934,-0.09832 -1.47022,-0.55759c-0.3728,-0.68248 -0.01296,-2.25078 0.01903,-2.96782c0.14489,-3.24758 0.58057,-6.43936 0.72682,-9.71723c0.18984,-4.25497 0.89649,-8.86188 0.55816,-13.10363c-0.2262,-2.83594 -1.23925,-5.3907 -1.11052,-8.27589c0,0 0.02112,-0.43141 -0.24739,-0.73974c0.63218,-1.59557 0.89703,-3.13857 0.13402,-4.68102c-0.99333,-2.00803 -5.19334,-1.95343 -6.93634,-3.16628c1.40071,0.03103 2.733,0.13623 4.10605,0.55557c0.64251,0.08956 1.37134,0.59078 1.93291,0.266c0.71831,-0.41542 1.26213,-2.89029 0.83019,-3.61821c-0.84685,-1.42715 -4.6436,-2.06151 -6.19317,-1.93119c-1.90138,0.15992 -3.76257,1.3878 -5.55821,1.84704c-1.45508,0.37213 -3.46367,-0.80278 -4.89869,-0.14808c-0.45327,0.20679 -1.56089,1.88225 -1.73522,2.69576c-1.24912,0.1944 -2.58516,0.29694 -3.83043,0.3501c0.08507,-1.37842 0.32747,-2.79191 0.77469,-4.25628c0.17819,-0.61055 0.34754,-3.49678 1.14881,-3.74537c3.89982,-1.20987 8.5341,-1.76143 12.50177,-3.26319c2.12319,-0.80362 3.69401,-1.8127 6.11791,-1.74084c2.30171,-0.98576 4.77639,-1.81385 7.10364,-2.69802c0.69247,-0.26309 1.48128,-0.20669 2.18901,-0.41652c-0.53614,0.49233 -1.07951,1.19076 -1.50629,1.51644c-1.50339,1.14727 -2.90628,2.30009 -4.13541,3.69697l-0.00869,0.00388l-0.06465,-0.10721l-0.89557,0.54198c-0.28336,0.16559 -0.47819,0.46693 -0.4939,0.8192c-0.02462,0.55173 0.3882,0.92004 0.93993,0.94465c0.16779,0.00749 0.32887,-0.02695 0.47096,-0.09385l1.19014,-0.52911l-0.01076,-0.02408l0.06686,-0.00297c1.99389,-1.19981 4.08563,-1.21905 6.31526,-1.67727c4.29902,-0.88351 9.6961,-2.7354 13.41689,-5.0673c2.39661,-0.48679 3.25616,-1.68222 5.84838,-0.87499c1.86303,0.58017 1.51689,2.3239 1.8123,3.80046c0.81189,4.05806 1.40392,7.80658 1.21966,11.93661c-0.00981,0.26135 -0.11574,0.56577 -0.13761,0.82536c-1.74584,-0.50936 -3.27652,-1.50679 -4.78259,-2.53915c-0.65749,-0.04858 -1.32383,-0.07407 -1.9976,-0.09043c-0.30117,-4.18831 -3.96674,-3.29516 -7.43236,-3.89848c-2.0026,-0.34863 -4.42874,-0.64214 -6.42831,0.09196c-1.0367,0.3806 -2.03849,1.20221 -3.06471,1.65744l-0.88198,0.73931c0,0 -0.72086,0.57635 -0.04598,1.31428c0.00548,0.00599 0.01102,0.0119 0.01651,0.0177c-0.19049,0.79243 -0.26059,1.66361 0.27659,2.14497c1.26665,1.13502 3.94967,-0.95497 5.22985,-1.03465c3.57511,-0.22252 7.3942,0.50789 11.10731,0.78356c0.08081,0.022 0.1714,0.03661 0.27243,0.04111c0.07679,0.00343 0.14809,0.00088 0.21402,-0.0071c0.72213,0.04573 1.44166,0.07449 2.15353,0.07197c1.44616,1.18857 3.1821,2.05544 4.95759,2.60494l0.20849,0.13152c-0.48623,2.55325 -1.39101,5.02794 -2.14212,7.39586c-0.08673,0.27344 -0.0892,0.56396 -0.07024,0.85664c-0.66434,1.63468 -1.097,3.39722 -1.27137,5.16957c-0.8297,2.57728 -1.58428,5.22513 -2.19326,7.90737c-2.32016,2.80247 -1.13215,6.33918 -1.70248,9.6786c-0.28541,1.6712 -1.41153,2.69924 -1.92901,4.18263c-0.66202,1.89774 -1.36706,3.75383 -2.57204,5.4983z" data-paper-data="{&quot;noHover&quot;:false,&quot;origItem&quot;:[&quot;Path&quot;,{&quot;applyMatrix&quot;:true,&quot;segments&quot;:[[[261.10017,140.92828],[-0.57678,1.92536],[0.45085,-1.50499]],[[262.83561,136.66876],[-0.21064,1.68226],[0.42092,-3.36153]],[[264.09578,126.93823],[-2.19294,2.9031],[0.48881,-2.70672]],[[265.93053,118.95768],[-0.714,2.6117],[0.09521,-1.77836]],[[266.97074,113.74708],[-0.59082,1.66267],[-0.03197,-0.29154]],[[267.00302,112.8898],[-0.07446,0.27703],[0.64483,-2.39905]],[[268.81701,105.41726],[-0.37194,2.57238],[0,0]],[[268.603,105.29547],[0,0],[-1.79822,-0.46981]],[[263.53834,102.92129],[1.4977,1.12293],[-0.71105,0.03425]],[[261.38518,102.94738],[0.72345,0.0135],[-0.06551,0.01091]],[[261.17184,102.9642],[0.07687,0],[-0.10113,0]],[[260.8981,102.93558],[0.08171,0.01838],[-3.72171,-0.1099]],[[249.78349,102.66156],[3.56164,-0.38165],[-1.27535,0.13666]],[[244.61877,103.93297],[1.31598,1.07744],[-0.5581,-0.45694]],[[244.24916,101.80282],[-0.15498,0.80013],[-0.00574,-0.00556]],[[244.23193,101.78588],[0.00574,0.00574],[-0.70711,-0.7071]],[244.23193,100.37166],[[245.08211,99.59406],[0,0],[1.00491,-0.50052]],[[248.07619,97.80312],[-1.01871,0.42643],[1.96486,-0.8225]],[[254.50576,97.42999],[-2.01615,-0.25902],[3.48906,0.44826]],[[262.11681,101.00398],[-0.48755,-4.17072],[0.67383,-0.01369]],[[264.11791,101.0071],[-0.659,-0.01923],[1.55059,0.96421]],[[269.01318,103.33725],[-1.76681,-0.43104],[0.01027,-0.26031]],[[269.0261,102.55448],[0.00185,0.26153],[0,-4.13414]],[[267.28511,90.6962],[0.99196,4.01784],[-0.36093,-1.46193]],[[265.30919,86.98363],[1.88704,0.49655],[-2.62563,-0.69089]],[[259.5104,88.12162],[2.37253,-0.59313],[-3.61316,2.49542]],[[246.34936,93.78805],[4.25537,-1.07425],[-2.20699,0.55715]],[[240.12841,95.7457],[1.93843,-1.28749],[0,0]],[240.06191,95.75164],[240.0737,95.77522],[[238.91113,96.35651],[0,0],[-0.13897,0.07317]],[[238.44592,96.47108],[0.16796,0],[-0.55229,0]],[[237.44592,95.47108],[0,0.55228],[0,-0.35262]],[[237.90412,94.63042],[-0.2757,0.17806],[0,0]],[238.77664,94.04874],[238.84611,94.15294],[[238.85464,94.14868],[0,0],[1.16565,-1.45028]],[[242.82934,90.2706],[-1.45076,1.21314],[0.41184,-0.34439]],[[244.26156,88.78838],[-0.51366,0.51574],[-0.69767,0.24116]],[[242.09703,89.30218],[0.68006,-0.29369],[-2.28553,0.98702]],[[235.13397,92.31234],[2.25549,-1.08737],[-2.4247,0.03625]],[[229.11079,94.3196],[2.08526,-0.89746],[-3.89679,1.67711]],[[216.78214,98.1236],[3.84202,-1.38249],[-0.78939,0.28405]],[[215.80471,101.91159],[0.1508,-0.61789],[-0.38152,1.48285]],[[215.22359,106.1921],[0.02355,-1.38084],[1.24166,-0.10862]],[[218.94419,105.62907],[-1.23921,0.24988],[0.1379,-0.82046]],[[220.56069,102.85337],[-0.4436,0.22679],[1.40442,-0.71801]],[[225.46503,102.77796],[-1.43705,0.43662],[1.77339,-0.53881]],[[230.94519,100.67655],[-1.89236,0.24451],[1.54222,-0.19926]],[[237.23058,102.32389],[-0.90962,-1.38799],[0.46396,0.70795]],[[236.59928,106.06825],[0.69908,-0.44702],[-0.54654,0.34949]],[[234.66168,105.88576],[0.64586,0.06083],[-1.39037,-0.35772]],[[230.47359,105.43541],[1.4007,-0.03143],[1.79531,1.13396]],[[237.55674,108.2806],[-1.08184,-1.96176],[0.831,1.50691]],[[237.68822,113.04379],[0.56043,-1.62216],[0.28199,0.29606]],[[237.97021,113.76987],[0,0],[0,2.88806]],[[239.43843,121.91166],[-0.35238,-2.82304],[0.52706,4.22245]],[[239.44592,135.02009],[0,-4.2592],[0,3.28113]],[[239.15078,144.75977],[0,-3.25081],[0,0.71775]],[[239.26333,147.72542],[-0.40285,-0.66519],[0.2711,0.44763]],[[240.75445,148.21676],[-0.47744,-0.2143],[0.08483,0.03807]],[[240.96064,148.47237],[-0.05953,-0.1011],[0.12179,0.00206]],[[241.32563,148.47785],[-0.12152,-0.00161],[0.21004,-0.35412]],[[241.29026,146.99872],[-0.05643,0.46355],[0.23958,-1.96805]],[[241.5854,141.09588],[-0.01152,2.0026],[0.31623,-1.26489]],[[242.27595,137.25733],[-0.15409,1.29241],[-0.14464,-0.24332]],[[242.33614,136.23624],[-0.28339,0.42508],[0.01814,-0.02721]],[[242.39141,136.15899],[-0.0187,0.02431],[0.60867,-6.63689]],[[243.67376,116.18361],[-1.57382,6.4484],[0.05486,-0.21941]],[[243.83832,115.52536],[-0.05486,0.21941],[-0.00806,-0.0657]],[[243.81556,115.32823],[0.0071,0.06572],[-0.29577,-0.06871]],[[243.05361,114.36016],[0,0.68277],[0,-0.63366]],[[243.74934,113.40932],[-0.29419,0.08504],[0.06817,-1.60492]],[[244.99242,109.08319],[-0.78194,1.20365],[1.54348,-2.29435]],[[251.90026,104.21825],[-2.81473,0.36369],[5.33112,-0.68882]],[[264.52549,113.30177],[1.55475,-6.69271],[0,0.90836]],[[263.85325,116.32893],[0.80685,-0.67288],[-0.00888,0.00741]],[[263.82628,116.35085],[0.0091,-0.0072],[-0.43117,3.10558]],[[259.07027,124.04646],[2.75014,-1.83343],[-1.97763,1.22977]],[[252.78569,124.50206],[2.19632,0.27454],[-2.12509,-0.26564]],[[246.88821,122.44581],[1.63156,1.64975],[-0.73633,-0.74455]],[[245.02148,119.68333],[0.4995,1.06659],[-0.77803,5.45851]],[[244.35874,136.41818],[0.47973,-5.54044],[1.84931,1.45159]],[[245.00613,141.67266],[2.24292,-1.83952],[1.40533,-0.0497]],[[249.18044,142.07441],[-1.2765,-0.53435],[2.44045,1.02158]],[[256.19835,145.55442],[-2.37262,-0.98942],[0.07581,-0.01535]],[[256.44957,145.53062],[-0.09193,0],[0.45828,0]],[[257.2906,145.96818],[-0.13449,-0.22754],[0.18833,0.06368]],[[257.85989,146.14765],[-0.19126,-0.05582],[0.33578,0.09801]],[[258.78238,146.53121],[-0.27789,-0.15561],[1.12602,-1.79645]]],&quot;closed&quot;:true}]}" fill="#999999" stroke="none" stroke-width="0.5"/><path d="M302.06934,119.27401c0.16338,1.01713 0.38054,2.02784 0.44885,3.07315c0.39542,6.05146 0.14211,11.79944 -2.35922,17.29922c-2.10822,2.496 -6.74954,1.44678 -7.67803,-1.70509c-1.97058,-6.68935 -1.43939,-15.02044 -1.13234,-21.90254c0.079,-1.77056 -0.25348,-3.93097 1.07975,-5.34125c1.62028,-1.71392 6.68745,-0.78991 8.35299,0.48372c1.8366,1.40444 1.39644,5.84618 1.28801,8.0928z" fill="#c300f0" stroke="none" stroke-width="0.5"/><path d="M353.62342,119.03052c-0.35314,-0.30731 -0.33032,-0.81893 -0.33032,-0.81893l0.01316,-0.29486c0.08459,-1.89601 -0.56798,-6.59854 1.45918,-7.61246c1.82176,-0.91119 4.58317,1.0153 6.32691,1.0931c2.70433,1.9202 1.99741,4.27392 1.86483,7.24539c-0.30195,6.76781 -0.54994,14.43243 -5.26705,19.56818c-3.40159,-0.04055 -4.6232,-2.27615 -5.58473,-5.22873c-1.62724,-4.99681 0.59976,-9.24842 1.51802,-13.9517z" fill="#c300f0" stroke="none" stroke-width="0.5"/><path d="M297.87978,112.15714c-0.14168,-0.27306 -0.12889,-0.55973 -0.12889,-0.55973l0.02631,-0.58969c0.01985,-0.44486 0.08757,-2.59342 0.24447,-2.82491c1.39876,-2.06357 5.57724,-0.71969 6.21209,1.34572c0.89137,2.89996 -0.30756,7.85587 -0.44364,10.90595c-0.23883,5.353 0.4312,10.42868 -0.41162,15.73835c-0.29646,1.86765 -1.52966,7.37582 -4.71184,5.2696c-1.26415,-0.83672 -1.13002,-4.13637 -1.40276,-5.51874c0.29834,-7.67836 -0.99645,-16.09917 0.61586,-23.76657z" fill="#00b539" stroke="none" stroke-width="0.5"/><path d="M351.27612,113.96292c-0.43927,-0.29383 -0.41302,-0.88215 -0.41302,-0.88215l0.01315,-0.29485c0.07405,-1.52881 0.20718,-5.24476 1.70522,-6.13301c0.80548,-0.4776 4.23547,0.9971 4.70784,1.65669c0.98415,1.37419 0.28447,1.8561 0.07367,3.11542c-0.36392,2.17408 -0.28533,4.45017 -0.90682,6.57959c-0.95297,3.12032 -1.31373,7.53663 -1.05099,10.81458c0.1665,2.07721 1.23873,4.15607 0.58652,6.28716c-0.62224,2.03317 -3.3931,5.62957 -5.47406,3.05676c-0.72352,-0.89453 -0.52059,-2.7938 -1.14831,-3.88301c0.06564,-4.25868 -0.06642,-8.87988 0.54864,-13.09163c0.35767,-2.44924 0.99647,-4.79985 1.35813,-7.22558z" fill="#00b539" stroke="none" stroke-width="0.5"/><path d="M359.108,129.67725c-2.29937,-0.98127 -1.3181,-3.28064 -1.3181,-3.28064l0.92675,-2.15598c2.61492,-9.79628 6.38355,-19.5861 6.83514,-29.70781c0.32271,-7.03854 0.08152,-14.69394 -1.59536,-21.51632c-0.54606,-2.22165 -0.30617,-5.47201 -1.23099,-7.53998c-1.08417,-2.42426 -5.1127,-3.51725 -7.32428,-4.11051c-5.32634,-1.42879 -10.37908,-3.42455 -15.88805,-4.22206c-14.39285,-3.53788 -33.30255,-5.34778 -42.16133,9.52437c-1.66106,2.7886 -2.27784,6.34492 -3.11526,9.4348c-1.71382,11.00968 -4.12083,22.17922 -3.53905,33.45583c0.29009,5.62265 1.7818,11.13702 2.75422,16.66643c0,0 0.43301,2.46222 -2.0292,2.89522c-2.46222,0.43301 -2.89522,-2.0292 -2.89522,-2.0292c-1.00712,-5.72675 -2.53488,-11.43576 -2.82247,-17.26203c-0.57872,-11.72419 1.83956,-23.31482 3.64079,-34.76487c0.97538,-3.63755 1.76561,-7.65441 3.70255,-10.94149c9.93562,-16.86118 30.91064,-15.98016 47.42458,-11.8861c4.7487,0.69215 9.2603,2.09141 13.7696,3.64473c4.59558,1.58304 10.50574,2.39265 12.96903,7.38659c1.17789,2.38798 0.95742,5.94853 1.59682,8.5397c1.79989,7.29421 2.06561,15.42896 1.73865,22.94775c-0.47318,10.60563 -4.32073,20.87507 -7.10534,31.1208l-1.05283,2.48267c0,0 -0.98127,2.29937 -3.28064,1.3181z" fill="#82007c" stroke="none" stroke-width="0.5"/><path d="M295.14995,183.13663c-0.43288,-0.63503 -1.25684,-2.9527 -1.92237,-3.35102c-3.77301,-2.25812 -5.6185,-0.06453 -9.17856,0.97661c-1.1689,-0.04561 -2.86699,0.04157 -3.88263,-0.70938c-2.31387,-1.71084 -2.88118,-5.44851 -1.0945,-7.68353c1.09252,-1.36665 3.51101,-2.30897 3.79425,-4.19926c0.33086,-2.20811 -3.27542,-3.67504 -3.55719,-5.71289c-0.36193,-2.6176 2.78742,-4.47137 4.4432,-5.98572c0.14569,-0.13292 2.02932,-1.80594 2.16087,-2.09192c0.50108,-1.08933 -0.2636,-3.04657 -0.44745,-4.04528c-0.48468,-2.63284 -2.29227,-8.00198 -1.2392,-10.57097c1.39748,-3.4092 6.64511,-4.47015 9.14195,-6.79307c0,0 0.9224,-0.84361 1.76601,0.07879c0.84361,0.9224 -0.07879,1.76601 -0.07879,1.76601c-2.2145,1.99839 -7.26897,3.22742 -8.5644,6.00697c-0.57326,1.23003 0.7393,3.9622 1.00149,5.1374c0.51912,2.32678 1.76915,7.05845 0.74024,9.35198c-0.42123,0.93895 -1.99765,2.27541 -2.7935,3.00487c-0.57171,0.52288 -3.92074,2.85472 -3.67012,3.69711c0.71863,2.41558 3.99483,3.24281 3.58267,6.42309c-0.40477,3.12323 -5.16976,4.309 -5.05738,7.21185c0.01806,0.46628 1.07979,1.38759 1.18267,1.55528c0.43972,0.7167 1.4421,1.0307 2.28175,1.07551c1.54944,-0.41987 2.15879,-1.39448 3.71758,-1.85062c2.25039,-0.6585 5.34888,0.01741 7.2588,1.36297c1.66432,1.17254 2.09684,3.91539 3.43708,5.61498c-0.08244,0.92297 -0.12927,1.83425 -0.14151,2.75638c-1.06499,-0.66886 -1.90502,-1.59447 -2.88095,-3.02617z" fill="#00b539" stroke="none" stroke-width="0.5"/><path d="M347.23729,105.85682c0,0 1.5086,0.38569 4.20208,1.29888c2.46019,0.83409 4.36719,1.94061 4.36719,1.94061l0.14274,1.17788c0,0 -7.10292,-3.44999 -14.99066,-3.14188c-6.30685,0.24638 -10.07864,2.36553 -10.07864,2.36553l0.23187,-4.17064c0,0 3.20033,-1.56312 7.93855,-1.50323c4.90639,0.06203 8.05645,0.95129 8.05645,0.95129z" data-paper-data="{&quot;index&quot;:null}" fill="#000000" stroke="none" stroke-width="1.5"/><path d="M306.99643,108.16178c0,0 3.44736,-1.667 8.12616,-1.92149c5.1847,-0.28202 7.76346,0.28003 7.76346,0.28003l0.11037,4.14651c0,0 -3.80139,-0.85093 -7.98675,-0.87799c-5.59741,-0.03619 -6.70214,1.13533 -10.9712,1.40358c-3.65796,0.22985 -6.73761,-0.14161 -6.73761,-0.14161l0.02903,-1.23148c0,0 3.5883,0.23415 5.23156,0.16498c1.35628,-0.05709 4.01356,-0.75994 4.01356,-0.75994z" fill="#000000" stroke="none" stroke-width="1.5"/></g></g></svg>