<svg version="1.1" xmlns="http://www.w3.org/2000/svg" xmlns:xlink="http://www.w3.org/1999/xlink" width="199.55534" height="184.03512" viewBox="0,0,199.55534,184.03512"><g transform="translate(-217.9559,-60.41631)"><g data-paper-data="{&quot;isPaintingLayer&quot;:true}" fill-rule="nonzero" stroke-linecap="butt" stroke-linejoin="miter" stroke-miterlimit="10" stroke-dasharray="" stroke-dashoffset="0" style="mix-blend-mode: normal"><path d="M223.55325,160.15146c0,0 41.07599,-29.62201 56.4694,-46.58833c14.01169,-15.44339 32.13633,-51.07112 32.13633,-51.07112c0,0 22.30301,37.70326 39.19917,51.18852c17.441,13.9201 63.86418,31.06893 63.86418,31.06893c0,0 -37.50079,22.78314 -51.94701,38.70548c-15.06321,16.60236 -36.65872,58.95396 -36.65872,58.95396c0,0 -23.41822,-38.12652 -40.37191,-51.65768c-17.3897,-13.87916 -62.69145,-30.59976 -62.69145,-30.59976z" fill="#d8d871" stroke="#000000" stroke-width="2"/><path d="M257.06797,225.66114c0,0 8.09918,-49.99103 6.98698,-72.87282c-1.01238,-20.82788 -13.38892,-58.83655 -13.38892,-58.83655c0,0 42.43084,10.88963 63.91375,8.47775c22.17564,-2.48965 67.12784,-23.18975 67.12784,-23.18975c0,0 -10.40694,42.62717 -9.36317,64.10098c1.08835,22.39094 15.76512,67.60838 15.76512,67.60838c0,0 -43.51871,-10.40033 -65.07474,-7.98025c-22.11042,2.48233 -65.96685,22.69225 -65.96685,22.69225z" fill="#d8d871" stroke="#000000" stroke-width="2"/><path d="M254.85878,157.63583c-2.66745,-33.19485 23.83765,-62.40823 59.20078,-65.24991c35.36313,-2.84168 66.19301,21.76442 68.86046,54.95926c2.66745,33.19485 -23.83765,62.40823 -59.20078,65.24991c-35.36313,2.84168 -66.19301,-21.76442 -68.86046,-54.95926z" fill="#ecec68" stroke="#000000" stroke-width="2"/><path d="M291.786,166.00882c-0.12265,-1.5263 55.85055,-6.58112 56.01767,-4.50143c1.16682,14.52037 -10.42728,27.29916 -25.89612,28.54219c-15.46885,1.24303 -28.95473,-9.52038 -30.12155,-24.04077z" fill="#000000" stroke="#000000" stroke-width="2"/><path d="M279.91137,145.79874c-0.49649,-6.17848 21.87778,-7.97642 22.37427,-1.79794c0.49649,6.17848 -4.10969,11.58961 -10.28817,12.0861c-6.17849,0.49649 -11.5896,-4.10969 -12.08609,-10.28816z" fill="#000000" stroke="none" stroke-width="0"/><path d="M345.83061,151.4284c-5.99596,0.48182 -11.24725,-3.98828 -11.72907,-9.98424c-0.48182,-5.99597 21.23148,-7.74079 21.7133,-1.74483c0.48182,5.99597 -3.98828,11.24726 -9.98423,11.72907z" data-paper-data="{&quot;index&quot;:null}" fill="#000000" stroke="none" stroke-width="0"/></g></g></svg>