<svg version="1.1" xmlns="http://www.w3.org/2000/svg" xmlns:xlink="http://www.w3.org/1999/xlink" width="182.63002" height="263.93037" viewBox="0,0,182.63002,263.93037"><defs><linearGradient x1="347.14032" y1="207.69956" x2="270.71587" y2="257.06396" gradientUnits="userSpaceOnUse" id="color-1"><stop offset="0" stop-color="#b8b851"/><stop offset="1" stop-color="#ffff65"/></linearGradient></defs><g transform="translate(-242.13331,-49.56965)"><g data-paper-data="{&quot;isPaintingLayer&quot;:true}" fill-rule="nonzero" stroke-linejoin="miter" stroke-miterlimit="10" stroke-dasharray="" stroke-dashoffset="0" style="mix-blend-mode: normal"><path d="M392.15506,149.29866c3.16787,25.2547 -3.79332,35.45607 -3.79332,35.45607c0,0 -12.10918,-21.47411 -19.77288,-32.6764c-7.92295,-11.58124 -27.01293,-35.71203 -27.01293,-35.71203l31.81283,-16.85064c0,0 15.26168,21.8436 18.7663,49.783z" data-paper-data="{&quot;index&quot;:null}" fill="#aeae47" stroke="#000000" stroke-width="2" stroke-linecap="butt"/><path d="M277.83529,99.51566l31.81283,16.85064c0,0 -19.08998,24.13078 -27.01292,35.71203c-7.6637,11.20229 -19.77288,32.6764 -19.77288,32.6764c0,0 -6.96119,-10.20136 -3.79332,-35.45607c3.50463,-27.9394 18.7663,-49.783 18.7663,-49.783z" data-paper-data="{&quot;index&quot;:null}" fill="#aeae47" stroke="#000000" stroke-width="2" stroke-linecap="butt"/><path d="M378.33655,194.8103c-9.02164,23.80012 -19.94816,29.5566 -19.94816,29.5566c0,0 -0.6493,-24.64443 -2.17813,-38.13095c-1.58056,-13.94275 -7.1552,-44.20238 -7.1552,-44.20238h36c0,0 3.26217,26.44655 -6.71851,52.77673z" data-paper-data="{&quot;index&quot;:null}" fill="#c2c250" stroke="#000000" stroke-width="2" stroke-linecap="butt"/><path d="M264.89814,142.03357h36c0,0 -5.57464,30.25964 -7.1552,44.20238c-1.52884,13.48652 -2.17814,38.13095 -2.17814,38.13095c0,0 -10.92652,-5.75649 -19.94816,-29.5566c-9.98068,-26.33018 -6.71851,-52.77673 -6.71851,-52.77673z" fill="#c2c250" stroke="#000000" stroke-width="2" stroke-linecap="butt"/><path d="M291.75007,312.50001l15.14285,-131.8421l37.78325,-0.15789l13.57389,132z" fill="#ecec60" stroke="#000000" stroke-width="2" stroke-linecap="butt"/><path d="M304.7003,209.11264l3.12142,-26.32765l35.83075,-0.14203l2.76735,26.1059c0,0 -7.51543,4.19603 -21.55904,4.50964c-12.48458,0.27879 -20.16049,-4.14586 -20.16049,-4.14586z" fill="#d2d256" stroke="#000000" stroke-width="0" stroke-linecap="butt"/><path d="M260.83998,141.84617c0,-33.30185 28.7599,-60.29833 64.23702,-60.29833c35.47712,0 64.23702,26.99649 64.23702,60.29833c0,33.30185 -28.7599,60.29833 -64.23702,60.29833c-35.47712,0 -64.23702,-26.99649 -64.23702,-60.29833z" fill="#ecec60" stroke="#000000" stroke-width="2" stroke-linecap="butt"/><path d="M261.56304,141.9c0,-0.72799 5.20666,55.91939 63.36046,56.93429c55.56352,0.9697 63.51358,-57.95314 63.51358,-56.93429c0,32.80479 -28.40173,59.39833 -63.43702,59.39833c-35.03529,0 -63.43702,-26.59354 -63.43702,-59.39833z" fill="#d2d256" stroke="#000000" stroke-width="0" stroke-linecap="butt"/><path d="M274.39019,142.27564c0,-12.968 10.51265,-23.48065 23.48065,-23.48065c12.968,0 23.48065,10.51265 23.48065,23.48065c0,12.968 -10.51265,23.48065 -23.48065,23.48065c-12.968,0 -23.48065,-10.51265 -23.48065,-23.48065z" fill="#ffffff" stroke="#000000" stroke-width="2" stroke-linecap="butt"/><path d="M285.02794,150.33551c0,-9.12808 7.39976,-16.52784 16.52783,-16.52784c9.12808,0 16.52784,7.39977 16.52784,16.52784c0,9.12808 -7.39977,16.52784 -16.52784,16.52784c-9.12808,0 -16.52783,-7.39977 -16.52783,-16.52784z" fill="#000000" stroke="none" stroke-width="0" stroke-linecap="butt"/><path d="M337.61666,181.65644c0,0 -7.66582,2.98556 -11.69844,2.98556c-4.31774,0 -13.41115,-2.98556 -13.41115,-2.98556" fill="none" stroke="#000000" stroke-width="2" stroke-linecap="round"/><path d="M352.12928,165.75628c-12.968,0 -23.48065,-10.51265 -23.48065,-23.48065c0,-12.968 10.51265,-23.48065 23.48065,-23.48065c12.968,0 23.48065,10.51265 23.48065,23.48065c0,12.968 -10.51265,23.48065 -23.48065,23.48065z" data-paper-data="{&quot;index&quot;:null}" fill="#ffffff" stroke="#000000" stroke-width="2" stroke-linecap="butt"/><path d="M354.39829,166.26796c-9.12807,0 -16.52783,-7.39977 -16.52783,-16.52784c0,-9.12808 7.39977,-16.52784 16.52783,-16.52784c9.12807,0 16.52783,7.39977 16.52783,16.52784c0,9.12808 -7.39977,16.52784 -16.52783,16.52784z" data-paper-data="{&quot;index&quot;:null}" fill="#000000" stroke="none" stroke-width="0" stroke-linecap="butt"/><path d="M281.80313,119.43829c0,0 6.70895,-5.16922 11.79721,-6.36355c5.08827,-1.19433 12.33413,0.69937 12.33413,0.69937c0,0 -8.03812,-0.06028 -11.96762,0.86207c-4.10648,0.96389 -12.16372,4.80211 -12.16372,4.80211z" fill="#000000" stroke="none" stroke-width="0" stroke-linecap="butt"/><path d="M355.4407,115.75578c-3.9295,-0.92235 -11.96762,-0.86207 -11.96762,-0.86207c0,0 7.24586,-1.8937 12.33413,-0.69937c5.08826,1.19433 11.79721,6.36355 11.79721,6.36355c0,0 -8.05724,-3.83822 -12.16372,-4.80211z" data-paper-data="{&quot;index&quot;:null}" fill="#000000" stroke="none" stroke-width="0" stroke-linecap="butt"/><path d="M274.24017,142.36807c0,-12.96801 10.51265,-23.48065 23.48066,-23.48065c12.96801,0 23.48065,10.51264 23.48065,23.48065c0,0 -11.70863,-7.69294 -23.43307,-7.53879c-11.75617,0.15456 -23.52823,8.1554 -23.52823,7.53879z" fill="#d2d256" stroke="#000000" stroke-width="2" stroke-linecap="butt"/><path d="M328.64862,142.26807c0,-12.96801 10.51264,-23.48065 23.48065,-23.48065c12.96801,0 23.48066,10.51264 23.48066,23.48065c0,0.60606 -11.37275,-7.38438 -22.92496,-7.531c-11.92261,-0.15132 -24.03635,7.531 -24.03635,7.531z" data-paper-data="{&quot;index&quot;:null}" fill="#d2d256" stroke="#000000" stroke-width="2" stroke-linecap="butt"/><path d="M268.59625,103.76233c0,-29.37751 4.22233,-52.79352 55.83225,-53.19268c58.79142,-0.45471 55.83225,23.81518 55.83225,53.19268c0,0 -111.6645,1.21448 -111.6645,0z" fill="#c5c528" stroke="#000000" stroke-width="2" stroke-linecap="butt"/><path d="M243.84721,108.6059l4.33333,-7.66667l155.5,0.33333l2.66667,7.33333z" fill="#c5c528" stroke="#000000" stroke-width="2" stroke-linecap="butt"/><g data-paper-data="{&quot;index&quot;:null}"><path d="M270.86779,257.10212c0,0 -17.24244,-22.42179 -6.74517,-37.41233c3.38141,-4.8288 11.73485,-11.08222 19.22898,-13.09773c6.33773,-1.7045 11.58719,0.71391 17.55959,-1.62582c12.67752,-4.96653 18.88041,-12.74005 23.16067,-13.96716c14.58111,-4.18024 21.68264,16.12204 21.68264,16.12204l1.34322,2.07952c0,0 15.58606,14.82191 5.77962,26.39417c-2.87867,3.39702 -12.51524,5.8546 -22.25562,15.36834c-4.58869,4.48192 -4.54289,10.26151 -8.70277,15.33768c-4.9189,6.00238 -14.05421,11.04534 -19.84634,12.14194c-17.98107,3.40434 -31.32905,-21.53299 -31.32905,-21.53299z" data-paper-data="{&quot;index&quot;:null}" fill="url(#color-1)" stroke="none" stroke-width="0" stroke-linecap="round"/><g fill="#7d7d00" stroke="none" stroke-width="1" stroke-linecap="butt"><path d="M306.90569,223.34007c-0.01382,-0.02139 -0.02765,-0.04281 -0.02698,-0.08871c-0.37023,-0.29151 -0.41395,-0.68781 -0.29786,-1.14183c-0.41655,0.22359 -0.77318,0.21135 -1.1189,-0.06567c-0.28977,-0.23736 -0.39699,-0.63811 -0.26842,-0.97891c0.18028,-0.49549 0.55718,-0.66313 1.02636,-0.61747c-0.04192,-0.27615 -0.06623,-0.54852 -0.10816,-0.82467c-0.6769,0.14913 -1.18175,-0.11606 -1.29324,-0.71116c-0.04571,-0.25854 0.00731,-0.50507 0.17291,-0.71816c0.24493,-0.32498 0.57836,-0.41906 0.96262,-0.36404c-0.02942,-0.16294 -0.09786,-0.31583 -0.10277,-0.46427c-0.01561,-0.14153 0.02539,-0.2893 0.03117,-0.44465c-0.45491,0.1877 -0.84607,0.12197 -1.1276,-0.19652c-0.2432,-0.28261 -0.28312,-0.6965 -0.10171,-1.02594c0.22486,-0.403 0.569,-0.504 1.2029,-0.36763c-0.26325,-0.36063 -0.33907,-0.73618 -0.10728,-1.12848c0.25006,-0.43443 0.64388,-0.55235 1.1193,-0.45008c-0.41508,-0.85386 0.23593,-1.65339 1.12393,-1.49922c-0.18146,-0.39829 -0.17236,-0.78322 0.12228,-1.12513c0.28394,-0.33502 0.66641,-0.40012 1.10282,-0.28781c-0.22737,-0.39896 -0.22204,-0.76627 0.055,-1.112c0.23045,-0.30047 0.56074,-0.42285 0.92674,-0.3257c0.54208,0.13503 0.75184,0.5302 0.74451,1.03526c0.23023,-0.04257 0.46739,-0.07449 0.6586,-0.10703c0.00712,-0.24717 0.01804,-0.51196 0.03585,-0.76605c-0.43795,0.23739 -0.84362,0.19618 -1.14966,-0.13679c-0.25389,-0.27569 -0.28624,-0.72481 -0.06961,-1.04668c0.22043,-0.33947 0.63565,-0.47122 1.01167,-0.33506c0.23204,0.07756 0.42752,0.23935 0.48772,0.47338c0.06398,0.21642 0.06065,0.446 0.07872,0.66175c0.41278,-0.20598 0.41278,-0.20599 0.99451,-0.12691c-0.19774,-0.49392 -0.16099,-0.83604 0.12229,-1.12513c0.24738,-0.25076 0.64435,-0.34039 0.96375,-0.198c0.49482,0.22622 0.63729,0.63454 0.51294,1.1697c0.35304,-0.22804 0.69963,-0.2548 1.07186,-0.10104c-0.23229,-0.5474 -0.18795,-0.92475 0.13745,-1.19559c0.30021,-0.2394 0.71031,-0.26171 1.03218,-0.04508c0.31118,0.22354 0.4467,0.62115 0.32503,0.97265c-0.08825,0.23894 -0.22175,0.43131 -0.46647,0.49842c-0.21643,0.064 -0.4529,0.04996 -0.63344,0.0756c0.06397,0.21642 0.13799,0.47184 0.2051,0.71656c0.20506,-0.01116 0.43842,-0.02543 0.68248,-0.04662c-0.13866,-0.42595 -0.06602,-0.80641 0.29148,-1.09797c0.28951,-0.23249 0.62921,-0.26995 0.96934,-0.09545c0.48033,0.25072 0.59448,0.66216 0.46703,1.16902c0.78408,-0.47615 1.73652,0.10641 1.54199,1.09627c0.86076,-0.40438 1.67036,0.28564 1.45955,1.17988c0.43418,-0.2198 0.84362,-0.1962 1.18487,0.14435c0.2715,0.27948 0.35489,0.61982 0.22251,0.97824c-0.16579,0.47098 -0.53958,0.66691 -1.00564,0.64957c0.0426,0.23024 0.07133,0.43908 0.10702,0.65863c0.11323,-0.01248 0.23715,-0.03188 0.3466,-0.02677c0.12704,0.00891 0.2503,0.03542 0.36665,0.05123c-0.18191,-0.61025 -0.09924,-0.9517 0.26829,-1.20426c0.33165,-0.21421 0.73418,-0.20131 1.04156,0.03983c0.28976,0.23735 0.40769,0.63118 0.27533,0.9896c-0.15822,0.43576 -0.48543,0.58645 -1.09614,0.55641c0.05083,0.14911 0.11927,0.302 0.14179,0.45424c0.02252,0.15224 -0.00466,0.3214 -0.00353,0.48745c0.45491,-0.1877 0.81087,-0.12956 1.10687,0.16442c0.25767,0.25809 0.34731,0.65505 0.2011,0.99206c-0.2117,0.47031 -0.5886,0.63794 -1.10682,0.56332c0.1652,0.30268 0.20332,0.59644 0.09614,0.92343c0.46561,-0.1946 0.84295,-0.15028 1.15591,0.19338c0.25389,0.27569 0.30451,0.68269 0.11618,1.00143c-0.25384,0.45203 -0.65458,0.55925 -1.15073,0.42489c0.50757,0.80928 -0.09196,1.712 -1.01582,1.59616c0.14756,0.29889 0.14669,0.60268 0.02189,0.92588c0.51218,-0.23986 0.88574,-0.17792 1.17418,0.15127c0.2432,0.2826 0.2548,0.69964 0.04889,1.01459c-0.21663,0.32187 -0.60355,0.45048 -0.96575,0.33572c-0.23204,-0.07756 -0.42439,-0.21104 -0.49529,-0.43816c-0.06398,-0.21642 -0.07826,-0.44979 -0.10391,-0.63031c-0.23402,0.06019 -0.51395,0.11972 -0.748,0.17992c0.0067,0.26859 0.00272,0.54406 -0.00129,0.81956c0.4939,-0.19775 0.86746,-0.1358 1.12068,0.18582c0.2463,0.3109 0.25793,0.72793 0.02369,1.04601c-0.23045,0.30047 -0.63498,0.42531 -1.0003,0.28223c-0.40745,-0.16133 -0.55814,-0.48854 -0.49599,-1.11997c-0.26745,0.17277 -0.55118,0.2499 -0.87883,0.18862c0.13622,0.3517 0.12463,0.6624 -0.03538,0.97802c0.42102,-0.28712 0.83425,-0.28111 1.14787,0.01664c0.28219,0.27257 0.33594,0.70787 0.12622,1.04043c-0.22043,0.33947 -0.63564,0.47122 -1.00788,0.31746c-0.23516,-0.10586 -0.41303,-0.26388 -0.46253,-0.50483c-0.0533,-0.22333 -0.01096,-0.46295 -0.0152,-0.6573c-0.2543,0.24007 -0.60155,0.31274 -0.99584,0.21872c0.22651,0.70276 -0.02176,1.25731 -0.61375,1.3971c-0.26232,0.06331 -0.51955,0.01719 -0.74333,-0.14149c-0.32878,-0.22732 -0.43355,-0.55384 -0.40371,-0.90669c-0.26545,0.03501 -0.50261,0.0669 -0.75045,0.1057c0.12395,0.70834 -0.16574,1.19871 -0.75015,1.30328c-0.25855,0.04571 -0.50507,-0.00731 -0.72195,-0.15531c-0.32878,-0.22733 -0.43354,-0.55386 -0.42132,-0.91047c-0.26167,0.0174 -0.51644,0.0455 -0.76051,0.06668c0.14246,0.40831 0.06982,0.7888 -0.27697,1.07345c-0.31091,0.24631 -0.672,0.2976 -1.02595,0.10171c-0.43821,-0.23244 -0.55615,-0.62629 -0.47148,-1.10549c-0.50773,0.17634 -0.54673,0.18636 -1.03218,0.04509c0.25434,0.48766 0.21692,0.87569 -0.10156,1.15724c-0.30779,0.27463 -0.7286,0.30383 -1.04667,0.06961c-0.32878,-0.22732 -0.44293,-0.63875 -0.29986,-1.00408c0.17204,-0.41437 0.51684,-0.56127 1.15831,-0.46012c-0.22935,-0.26122 -0.28889,-0.54116 -0.25659,-0.81977c-0.2862,0.0029 -0.57237,0.00585 -0.84096,0.01254c0.19149,0.4373 0.12954,0.81086 -0.19965,1.0993c-0.27882,0.22558 -0.69963,0.25481 -1.00767,0.05959c-0.32185,-0.21662 -0.47879,-0.60043 -0.37095,-0.97334c0.07064,-0.24273 0.20415,-0.43509 0.43505,-0.52359c0.20951,-0.07469 0.44287,-0.08897 0.6341,-0.12152c-0.0533,-0.22333 -0.10969,-0.47497 -0.16989,-0.709c-0.24028,0.00359 -0.51577,-0.00041 -0.77364,-0.00062c0.17634,0.50773 0.11128,0.85297 -0.23173,1.12002c-0.30712,0.22869 -0.69584,0.23719 -1.01081,0.03126c-0.31495,-0.20593 -0.46118,-0.59665 -0.34642,-0.95885c0.07754,-0.23203 0.21104,-0.42438 0.43125,-0.50598c0.20951,-0.07468 0.44286,-0.08897 0.6555,-0.13533c-0.02697,-0.08872 -0.09921,-0.224 -0.1255,-0.35863c-0.02631,-0.13462 -0.01362,-0.27928 -0.0261,-0.39252c-0.21197,0.00047 -0.42772,0.01852 -0.63589,0.00137c-0.12704,-0.00891 -0.24964,-0.08133 -0.37603,-0.13615zM306.88983,215.66327c-0.261,-0.02851 -0.51509,-0.04632 -0.76228,-0.05344c0.15581,0.21777 0.22605,0.49079 0.14404,0.78635c0.23404,-0.0602 0.45737,-0.11347 0.66309,-0.17054c-0.01494,-0.18745 -0.02611,-0.3925 -0.04484,-0.56235zM314.21065,209.9794c0.01404,-0.23647 0.02427,-0.45537 0.0452,-0.68115c-0.24227,0.14134 -0.51841,0.18325 -0.79258,0.08742c0.06398,0.21642 0.12797,0.43284 0.19887,0.65996c0.16984,-0.01874 0.36799,-0.04059 0.54852,-0.06623zM322.80403,219.10521c0.01873,0.16983 0.03367,0.35729 0.05931,0.53783c0.21888,0.01023 0.45537,0.02428 0.64594,0.03764c-0.04259,-0.23025 -0.09899,-0.48188 -0.13779,-0.72973c-0.15602,0.04013 -0.36176,0.09722 -0.56748,0.15429zM317.67103,210.3369c0.04013,0.15602 0.08338,0.34035 0.12663,0.52468c0.17674,-0.00804 0.3535,-0.01608 0.52334,-0.03481c0.01023,-0.21889 0.02048,-0.43776 0.02692,-0.63901c-0.21264,0.04638 -0.45357,0.09587 -0.67691,0.14916zM307.55441,221.48063c-0.02943,-0.16293 -0.05886,-0.32585 -0.0738,-0.5133c-0.19057,-0.01337 -0.38491,-0.00912 -0.55788,-0.01869c0.01428,0.23335 0.02856,0.46673 0.04284,0.70009c0.16673,-0.04705 0.38313,-0.11103 0.58885,-0.1681zM309.8774,211.83834c0.16293,-0.02943 0.32586,-0.05886 0.49949,-0.0952c0.00267,-0.18367 -0.00538,-0.36041 -0.0065,-0.52645c-0.21577,0.01807 -0.44533,0.01474 -0.65039,0.0259c0.04325,0.18433 0.10033,0.39005 0.15741,0.59578zM322.50296,216.47962c0.02943,0.16294 0.04816,0.33276 0.0562,0.50952c0.19436,-0.00425 0.38492,0.00913 0.55097,0.00799c-0.01807,-0.21575 -0.04303,-0.44221 -0.06803,-0.66866c-0.16673,0.04705 -0.36174,0.09721 -0.53916,0.15115zM320.68572,212.68039c0.02252,0.15223 0.05195,0.31516 0.08831,0.48878c0.16605,-0.00112 0.34281,-0.00915 0.50886,-0.01029c-0.01117,-0.20506 -0.01161,-0.41702 -0.02278,-0.62207c-0.18433,0.04326 -0.36866,0.08651 -0.57437,0.14358zM313.37227,225.65227c-0.14845,0.00492 -0.31828,0.02366 -0.48812,0.04239c-0.00267,0.18366 -0.00912,0.38491 -0.01178,0.56858c0.20192,-0.03946 0.42148,-0.07514 0.62341,-0.1146c-0.03322,-0.14533 -0.08025,-0.31204 -0.12351,-0.49637zM318.79667,225.52955c-0.04703,-0.16671 -0.09028,-0.35105 -0.14045,-0.54607c-0.14531,0.03323 -0.30446,0.04505 -0.46739,0.07448c0.00114,0.16605 -0.00154,0.34972 -0.00042,0.51576c0.20507,-0.01115 0.42082,-0.02922 0.60825,-0.04417zM307.18669,218.82226c-0.01182,-0.15914 -0.03434,-0.31139 -0.04616,-0.47052c-0.18367,-0.00267 -0.37423,-0.01604 -0.54028,-0.0149c0.03255,0.19124 0.06131,0.40008 0.09007,0.60893c0.15602,-0.04012 0.32273,-0.08716 0.49637,-0.12351zM307.4338,214.20514c0.04326,0.18433 0.08273,0.38627 0.13289,0.58128c0.13461,-0.02631 0.29755,-0.05573 0.45357,-0.09587c-0.01182,-0.15914 -0.00605,-0.31449 -0.01787,-0.47364c-0.18365,-0.00267 -0.38492,-0.00913 -0.56858,-0.01179zM319.21861,211.53575c0.02631,0.13462 0.06645,0.29064 0.08518,0.46048c0.15915,-0.01183 0.32519,-0.01295 0.47363,-0.01787c0.00645,-0.20128 0.00219,-0.39563 0.00486,-0.57929c-0.17362,0.03634 -0.36866,0.08651 -0.56368,0.13666zM309.17938,213.19891c-0.01183,-0.15915 -0.01674,-0.30759 -0.02166,-0.45603c-0.18743,0.01494 -0.3711,0.01227 -0.54785,0.02031c0.04703,0.16671 0.08339,0.34033 0.12664,0.52467c0.13462,-0.02631 0.27994,-0.05953 0.44286,-0.08896zM321.73225,220.66171c-0.002,0.13774 0.00671,0.26859 0.01541,0.39942c0.16605,-0.00114 0.32141,0.00466 0.48746,0.00352c-0.02943,-0.16293 -0.05887,-0.32585 -0.0883,-0.48878c-0.13461,0.02631 -0.26923,0.05262 -0.41456,0.08584zM316.10444,225.79785c-0.04392,-0.13842 -0.07714,-0.28373 -0.09967,-0.43597c-0.14153,0.01561 -0.26544,0.03501 -0.40698,0.05061c-0.00579,0.15534 -0.00087,0.3038 -0.00288,0.44156c0.16984,-0.01874 0.33968,-0.03746 0.50951,-0.05619zM308.89669,222.22074c-0.13773,-0.002 -0.26859,0.00671 -0.40633,0.00471c0.01182,0.15914 0.01675,0.30759 0.02857,0.46672c0.14531,-0.03323 0.27994,-0.05952 0.43596,-0.09967c-0.02629,-0.13463 -0.03881,-0.24784 -0.0582,-0.37178zM319.42626,224.01609c0.15536,0.00579 0.3145,-0.00603 0.46295,-0.01094c-0.03322,-0.14533 -0.05953,-0.27995 -0.09967,-0.43596c-0.1063,0.02318 -0.23025,0.0426 -0.36486,0.06889c0.00871,0.13084 0.01049,0.25096 0.00159,0.37801zM311.47392,225.01358c0.14533,-0.03321 0.29064,-0.06644 0.44287,-0.08897c-0.02319,-0.10632 -0.0533,-0.22333 -0.07959,-0.35795c-0.13085,0.0087 -0.24405,0.02119 -0.3642,0.02298c-0.002,0.13774 -0.004,0.27549 0.00092,0.42394zM320.9449,222.09515c-0.11323,0.01248 -0.21956,0.03567 -0.34347,0.05507c0.00179,0.12014 0.00359,0.24029 0.01229,0.37111c0.13773,0.002 0.27548,0.004 0.42393,-0.0009c-0.03322,-0.14533 -0.05952,-0.27994 -0.09274,-0.42527zM315.58039,211.02019c0.002,-0.13774 -0.00358,-0.24026 0.01223,-0.35661c-0.14153,0.01561 -0.26544,0.035 -0.41768,0.05754c0.0232,0.10631 0.04638,0.21264 0.07647,0.32965c0.10254,-0.00558 0.21575,-0.01808 0.32898,-0.03055zM312.50341,211.02151c0.01941,0.12392 0.05329,0.22333 0.07267,0.34727c0.11323,-0.01248 0.22646,-0.02498 0.33969,-0.03747c-0.00179,-0.12014 0.00333,-0.22958 0.00154,-0.34971c-0.14153,0.01561 -0.27235,0.02432 -0.41389,0.03992zM310.33484,223.41444c-0.12014,0.00179 -0.22267,0.00737 -0.31828,0.02366c0.00179,0.12013 0.0105,0.25098 0.0085,0.38871c0.11701,-0.03009 0.23403,-0.06021 0.36866,-0.0865c-0.0232,-0.10632 -0.0464,-0.21264 -0.05888,-0.32586zM321.51104,215.69512c-0.01939,-0.12394 -0.02499,-0.22645 -0.02297,-0.36421c-0.1063,0.0232 -0.20193,0.03946 -0.30826,0.06266c0.01628,0.09561 0.02566,0.18054 0.03814,0.29376c0.09183,0.00133 0.18365,0.00265 0.29309,0.00777zM307.87754,216.98115c0.01248,0.11324 0.02877,0.20884 0.04815,0.33277c0.09561,-0.01629 0.17364,-0.03634 0.26926,-0.05263c-0.00558,-0.10254 -0.01494,-0.18745 -0.02053,-0.28998c-0.10254,0.00558 -0.18366,-0.00265 -0.29688,0.00983zM321.54353,218.32742c0.09183,0.00133 0.17296,0.00957 0.27927,-0.01362c-0.02319,-0.10632 -0.02877,-0.20885 -0.04125,-0.32207c-0.0887,0.02697 -0.16672,0.04703 -0.26233,0.06332c0.00559,0.10254 0.01495,0.18746 0.02433,0.27237zM308.25595,219.63262c0.00558,0.10254 0.01494,0.18745 0.02742,0.30068c0.078,-0.02006 0.14532,-0.03323 0.22332,-0.05328c-0.02006,-0.07801 -0.02252,-0.15225 -0.03189,-0.23716c-0.07421,0.00246 -0.13773,-0.00199 -0.21887,-0.01022zM317.07322,224.03498c-0.06731,0.01315 -0.12392,0.01938 -0.19123,0.03254c-0.00066,0.04592 -0.00511,0.10943 -0.00957,0.17297c0.07421,-0.00246 0.14844,-0.00491 0.23337,-0.01427c-0.01316,-0.06731 -0.01938,-0.12392 -0.03254,-0.19123zM314.21474,224.56228c0.08491,-0.00936 0.15223,-0.02252 0.23714,-0.03191c0.02718,-0.16918 -0.06464,-0.17051 -0.20998,-0.13729c-0.01827,0.04213 -0.01895,0.08804 -0.02719,0.16917zM311.52773,212.77369c0.04657,-0.04526 0.10386,-0.09742 0.16115,-0.14957c-0.01384,-0.0214 -0.02073,-0.03209 -0.03456,-0.05347c-0.06352,-0.00445 -0.13773,-0.00201 -0.21196,0.00045c0.01314,0.06732 0.02319,0.10632 0.02944,0.16293c0.02451,0.0145 0.03143,0.0252 0.05595,0.03968z"/><path d="M316.95617,227.23385c0.39583,-0.25568 0.90649,-0.14583 1.15526,0.2393c0.25946,0.37823 0.14583,0.90649 -0.23931,1.15525c-0.37822,0.25946 -0.90649,0.14583 -1.15525,-0.23931c-0.25568,-0.39583 -0.15652,-0.89957 0.23932,-1.15524z"/><path d="M315.51727,227.79943c0.25568,0.39584 0.13513,0.91338 -0.25692,1.15145c-0.38513,0.24878 -0.9027,0.12823 -1.15146,-0.25691c-0.24878,-0.38513 -0.12823,-0.90271 0.25691,-1.15146c0.39583,-0.25567 0.89579,-0.13891 1.15146,0.25693z"/><path d="M306.90569,223.33998c0.04147,0.0642 0.09742,0.10385 0.14265,0.15043c0.23873,0.34613 0.18617,0.8046 -0.12162,1.07923c-0.31848,0.28152 -0.77072,0.28558 -1.09193,0.02304c-0.32121,-0.26253 -0.38876,-0.71924 -0.17525,-1.0694c0.22043,-0.33947 0.66395,-0.47435 1.04309,-0.30988c0.05973,0.02207 0.11257,0.03342 0.1723,0.0555c0.01383,0.02139 0.01694,0.04971 0.03076,0.07109z"/><path d="M324.17422,221.08572c0.37442,-0.24186 0.87438,-0.12509 1.11245,0.26695c0.24186,0.37443 0.12509,0.87437 -0.24934,1.11623c-0.38135,0.23116 -0.88128,0.11439 -1.12314,-0.26005c-0.23115,-0.38135 -0.11438,-0.88128 0.26005,-1.12313z"/><path d="M304.94946,217.18952c0.24186,0.37442 0.12889,0.85677 -0.25624,1.10553c-0.37442,0.24186 -0.85678,0.12887 -1.09864,-0.24555c-0.23115,-0.38135 -0.11817,-0.86368 0.25626,-1.10554c0.37442,-0.24186 0.85676,-0.12887 1.09862,0.24556z"/><path d="M305.82083,211.42626c0.36753,-0.25256 0.86055,-0.14647 1.10241,0.22795c0.23494,0.36373 0.14648,0.86055 -0.22795,1.10241c-0.37444,0.24186 -0.86056,0.1465 -1.10241,-0.22794c-0.24186,-0.37443 -0.14649,-0.86056 0.22794,-1.10242z"/><path d="M305.26502,219.7906c0.24186,0.37443 0.13579,0.86749 -0.23865,1.10934c-0.37442,0.24186 -0.86746,0.1358 -1.10932,-0.23864c-0.24186,-0.37442 -0.1358,-0.86746 0.23864,-1.10933c0.37442,-0.24186 0.86746,-0.1358 1.10932,0.23863z"/><path d="M308.06409,210.20469c0.25255,0.36753 0.14647,0.86055 -0.22795,1.10241c-0.36374,0.23494 -0.86745,0.13579 -1.1093,-0.23863c-0.24186,-0.37442 -0.1358,-0.86747 0.23863,-1.10932c0.37442,-0.24186 0.86055,-0.14648 1.09863,0.24555z"/><path d="M322.32631,210.87778c-0.37064,0.22425 -0.86368,0.11818 -1.09862,-0.24555c-0.23115,-0.38135 -0.11819,-0.86368 0.24555,-1.09863c0.37064,-0.22425 0.85298,-0.11128 1.08794,0.25246c0.23494,0.36373 0.11817,0.86367 -0.23485,1.09171z"/><path d="M320.00231,208.40656c0.37444,-0.24186 0.86057,-0.1465 1.09172,0.23484c0.23494,0.36373 0.11127,0.85298 -0.25247,1.08794c-0.36374,0.23495 -0.83917,0.13267 -1.07411,-0.23107c-0.23494,-0.36373 -0.12889,-0.85676 0.23484,-1.09172z"/><path d="M326.0944,217.29827c0.23494,0.36373 0.13957,0.84985 -0.25247,1.08794c-0.36374,0.23495 -0.83917,0.13267 -1.07411,-0.23106c-0.24186,-0.37442 -0.13959,-0.84985 0.23484,-1.09171c0.37442,-0.24186 0.84986,-0.13958 1.09171,0.23485z"/><path d="M305.75028,213.12446c0.23494,0.36373 0.13266,0.83918 -0.23108,1.07411c-0.35304,0.22802 -0.83915,0.13267 -1.06719,-0.22037c-0.22805,-0.35305 -0.13269,-0.83917 0.23106,-1.07411c0.36374,-0.23494 0.84987,-0.13958 1.06722,0.22037z"/><path d="M312.62471,229.21293c-0.36374,0.23495 -0.83916,0.13267 -1.07411,-0.23106c-0.22804,-0.35304 -0.12574,-0.82847 0.22038,-1.06719c0.36374,-0.23494 0.84986,-0.13958 1.08481,0.22415c0.22805,0.35305 0.13267,0.83917 -0.23107,1.07412z"/><path d="M324.47367,215.54024c-0.23494,-0.36373 -0.14338,-0.83226 0.22036,-1.06721c0.36374,-0.23494 0.83226,-0.14337 1.07099,0.20277c0.22804,0.35304 0.14338,0.83226 -0.21345,1.0779c-0.36374,0.23494 -0.83226,0.14337 -1.0779,-0.21347z"/><path d="M322.73001,211.78446c-0.23873,-0.34613 -0.14337,-0.83225 0.20277,-1.07098c0.34613,-0.23874 0.82155,-0.13646 1.06028,0.20967c0.23873,0.34612 0.14715,0.81465 -0.19898,1.05338c-0.35683,0.24565 -0.81844,0.16477 -1.06407,-0.19207z"/><path d="M320.42794,228.26628c-0.34234,0.22113 -0.82845,0.12576 -1.0565,-0.22727c-0.22804,-0.35304 -0.12955,-0.81085 0.21657,-1.04959c0.35683,-0.24565 0.83226,-0.14337 1.06029,0.20967c0.23494,0.36373 0.14336,0.83225 -0.22038,1.0672z"/><path d="M309.17668,208.75831c0.22804,0.35304 0.13646,0.82155 -0.22728,1.0565c-0.35304,0.22802 -0.82847,0.12575 -1.0565,-0.22728c-0.22805,-0.35305 -0.12955,-0.81087 0.21657,-1.0496c0.35304,-0.22802 0.83915,-0.13268 1.0672,0.22037z"/><path d="M312.92929,206.98634c0.22112,0.34235 0.11887,0.81776 -0.22726,1.0565c-0.34925,0.21043 -0.82468,0.10816 -1.0458,-0.2342c-0.21043,-0.34924 -0.11886,-0.81777 0.22349,-1.0389c0.35304,-0.22802 0.82156,-0.13645 1.04961,0.21659z"/><path d="M314.27869,207.47927c-0.22805,-0.35305 -0.11886,-0.81777 0.21657,-1.0496c0.34925,-0.21043 0.81776,-0.11886 1.0389,0.22349c0.22804,0.35304 0.12577,0.82847 -0.21657,1.04959c-0.34234,0.22114 -0.81085,0.12955 -1.03889,-0.22349z"/><path d="M305.5516,222.44072c0.22112,0.34235 0.11194,0.80708 -0.2411,1.03511c-0.34926,0.21042 -0.80708,0.11194 -1.0282,-0.2304c-0.22112,-0.34235 -0.12954,-0.81086 0.22349,-1.03891c0.35304,-0.22804 0.81086,-0.12954 1.04581,0.2342z"/><path d="M318.34311,208.32599c-0.23494,-0.36373 -0.12955,-0.81086 0.2304,-1.02822c0.35304,-0.22804 0.80016,-0.12264 1.02821,0.2304c0.22112,0.34235 0.12265,0.80016 -0.2197,1.02129c-0.35304,0.22802 -0.81086,0.12955 -1.03891,-0.22349z"/><path d="M325.12616,220.72858c-0.22804,-0.35304 -0.12955,-0.81085 0.21279,-1.03198c0.34234,-0.22114 0.78255,-0.12643 1.01438,0.20899c0.23185,0.33542 0.14025,0.80396 -0.20209,1.02509c-0.34613,0.23875 -0.80395,0.14024 -1.02508,-0.2021z"/><path d="M304.58042,214.62299c0.20352,0.33855 0.10883,0.77876 -0.19451,0.98985c-0.33542,0.23184 -0.79325,0.13336 -1.01437,-0.20899c-0.22112,-0.34235 -0.12642,-0.78256 0.20523,-0.99677c0.34234,-0.22113 0.78254,-0.12642 1.00367,0.21592z"/><path d="M316.66908,229.98162c-0.33165,0.21421 -0.76494,0.13022 -0.97915,-0.20141c-0.22491,-0.32473 -0.14091,-0.75804 0.18382,-0.98295c0.32473,-0.2249 0.77564,-0.13712 0.98986,0.19453c0.21422,0.33165 0.13022,0.76494 -0.19452,0.98984z"/><path d="M324.41682,211.90785c0.34234,-0.22113 0.77564,-0.13712 0.99676,0.20523c0.2142,0.33165 0.13021,0.76494 -0.20143,0.97915c-0.34234,0.22113 -0.77564,0.13713 -0.99677,-0.20522c-0.22492,-0.32471 -0.14091,-0.75804 0.20143,-0.97916z"/><path d="M318.07801,206.38976c0.2142,0.33166 0.13399,0.74734 -0.19765,0.96155c-0.32094,0.2073 -0.73662,0.12709 -0.94393,-0.19385c-0.20731,-0.32094 -0.11641,-0.74354 0.18693,-0.95463c0.31403,-0.21801 0.74733,-0.134 0.95464,0.18694z"/><path d="M310.05258,208.28349c-0.32094,0.2073 -0.74355,0.1164 -0.95777,-0.21525c-0.2004,-0.31024 -0.10948,-0.73285 0.21146,-0.94016c0.32094,-0.2073 0.74355,-0.11639 0.94394,0.19386c0.22491,0.32473 0.1233,0.75424 -0.19764,0.96155z"/><path d="M313.27954,229.12352c0.32095,-0.2073 0.74357,-0.11639 0.94395,0.19386c0.20731,0.32095 0.1233,0.75425 -0.19764,0.96156c-0.31023,0.20039 -0.73663,0.12708 -0.94394,-0.19386c-0.2142,-0.33165 -0.1233,-0.75425 0.19764,-0.96156z"/><path d="M306.30163,226.01959c0.30333,-0.2111 0.72594,-0.12018 0.93325,0.20076c0.2004,0.31024 0.12018,0.72593 -0.19006,0.92634c-0.30333,0.2111 -0.72593,0.12018 -0.93324,-0.20076c-0.20731,-0.32095 -0.12018,-0.72593 0.19005,-0.92634z"/><path d="M318.51693,228.5c0.31024,-0.20041 0.71525,-0.11327 0.92634,0.19006c0.21801,0.31404 0.1271,0.73663 -0.19384,0.94394c-0.31025,0.20039 -0.72596,0.12018 -0.92634,-0.19006c-0.21801,-0.31404 -0.12708,-0.73663 0.19385,-0.94394z"/><path d="M303.69092,218.71505c0.2004,0.31024 0.11328,0.71524 -0.19005,0.92634c-0.32094,0.2073 -0.73664,0.12709 -0.94395,-0.19385c-0.2004,-0.31024 -0.12018,-0.72594 0.19006,-0.92635c0.31404,-0.21801 0.74733,-0.134 0.94394,0.19385z"/><path d="M307.77946,227.15732c0.31024,-0.20041 0.73285,-0.10948 0.93325,0.20076c0.20038,0.31024 0.10948,0.73286 -0.21145,0.94016c-0.32095,0.2073 -0.74355,0.11639 -0.94016,-0.21146c-0.1897,-0.31716 -0.09186,-0.72906 0.21837,-0.92947z"/><path d="M326.94578,216.80899c-0.29954,0.19349 -0.72215,0.10258 -0.91565,-0.19698c-0.2004,-0.31024 -0.11327,-0.71525 0.17938,-0.91943c0.31025,-0.20039 0.72594,-0.12017 0.92634,0.19006c0.20731,0.32095 0.10948,0.73285 -0.19006,0.92634z"/><path d="M324.33677,225.46857c0.2004,0.31024 0.10949,0.73284 -0.20076,0.93324c-0.31025,0.2004 -0.71526,0.11328 -0.91565,-0.19698c-0.21109,-0.30334 -0.11327,-0.71523 0.19697,-0.91563c0.31024,-0.20041 0.71525,-0.11328 0.91943,0.17935z"/><path d="M324.36504,224.73769c-0.19348,-0.29955 -0.10637,-0.70454 0.19697,-0.91564c0.32095,-0.2073 0.73286,-0.10948 0.93325,0.20076c0.18279,0.30646 0.09565,0.71146 -0.21459,0.91186c-0.31025,0.20041 -0.71523,0.11326 -0.91563,-0.19698z"/><path d="M302.89386,222.03481c-0.19349,-0.29956 -0.10637,-0.70455 0.18628,-0.90874c0.29956,-0.19349 0.70456,-0.10636 0.89804,0.19318c0.2004,0.31025 0.11326,0.71524 -0.19699,0.91565c-0.29954,0.19349 -0.69385,0.09945 -0.88733,-0.20011z"/><path d="M322.98443,227.85824c-0.29956,0.19349 -0.70455,0.10636 -0.90493,-0.20389c-0.19349,-0.29956 -0.09944,-0.69384 0.20011,-0.88733c0.29956,-0.19349 0.70456,-0.10637 0.89803,0.19317c0.18659,0.28886 0.10635,0.70455 -0.1932,0.89804z"/><path d="M309.05651,229.22832c-0.19348,-0.29955 -0.11707,-0.69762 0.17558,-0.90181c0.31025,-0.2004 0.69763,-0.11707 0.90181,0.17557c0.20038,0.31024 0.13088,0.71903 -0.17937,0.91942c-0.29956,0.19349 -0.70455,0.10636 -0.89804,-0.19318z"/><path d="M326.55272,218.33646c0.29954,-0.19349 0.71525,-0.11328 0.89804,0.19319c0.17586,0.29576 0.08183,0.69005 -0.20702,0.87663c-0.30646,0.18278 -0.70075,0.08876 -0.88733,-0.2001c-0.18659,-0.28886 -0.09946,-0.69385 0.19631,-0.86973z"/><path d="M302.46665,215.92769c0.28884,-0.18658 0.68693,-0.11014 0.88042,0.18941c0.19349,0.29956 0.09945,0.69385 -0.2001,0.88734c-0.29954,0.19349 -0.68694,0.11015 -0.88042,-0.18941c-0.18278,-0.30646 -0.09945,-0.69385 0.20011,-0.88734z"/><path d="M304.86593,224.9001c0.29954,-0.19349 0.68691,-0.11016 0.8735,0.1787c0.20419,0.29265 0.12776,0.69073 -0.17178,0.88422c-0.29264,0.2042 -0.69762,0.11707 -0.89111,-0.18248c-0.19347,-0.29953 -0.11014,-0.68693 0.18941,-0.88042z"/><path d="M326.60951,214.1758c-0.29577,0.17588 -0.68315,0.09253 -0.8735,-0.17871c-0.18658,-0.28884 -0.11015,-0.68692 0.1787,-0.8735c0.29954,-0.19349 0.68693,-0.11015 0.88041,0.18939c0.19348,0.29955 0.10324,0.67624 -0.18562,0.86282z"/><path d="M326.59711,222.58336c0.19348,0.29955 0.10323,0.67623 -0.18561,0.8628c-0.28884,0.18658 -0.67622,0.10324 -0.8628,-0.18561c-0.19348,-0.29955 -0.10637,-0.70454 0.18939,-0.88041c0.29577,-0.17588 0.67245,-0.08564 0.85902,0.2032z"/><path d="M313.9563,205.59522c0.19726,0.28194 0.12084,0.68002 -0.1787,0.87351c-0.28884,0.18658 -0.67624,0.10325 -0.86282,-0.18561c-0.18658,-0.28884 -0.10323,-0.67622 0.18562,-0.8628c0.29954,-0.19349 0.68003,-0.12086 0.8559,0.1749z"/><path d="M305.31704,210.59938c0.18659,0.28886 0.10323,0.67623 -0.18561,0.86282c-0.29577,0.17589 -0.67244,0.08563 -0.85211,-0.19253c-0.18659,-0.28886 -0.10703,-0.65863 0.18183,-0.84521c0.28884,-0.18658 0.66554,-0.09633 0.85591,0.17491z"/><path d="M322.71083,208.23388c0.28884,-0.18658 0.65863,-0.10703 0.84521,0.18182c0.19726,0.28194 0.11016,0.68694 -0.18561,0.86282c-0.29577,0.17588 -0.67244,0.08564 -0.85211,-0.19252c-0.17588,-0.29576 -0.09631,-0.66554 0.19254,-0.85211z"/><path d="M305.6127,208.96805c0.27816,-0.17967 0.66553,-0.09633 0.8452,0.18183c0.18658,0.28884 0.09633,0.66552 -0.19252,0.8521c-0.29577,0.17589 -0.65484,0.08942 -0.84142,-0.19943c-0.17967,-0.27815 -0.09634,-0.66554 0.18873,-0.8345z"/><path d="M303.14535,212.72989c-0.17967,-0.27815 -0.10012,-0.64793 0.18873,-0.8345c0.27816,-0.17966 0.67245,-0.08564 0.84141,0.19943c0.16896,0.28506 0.08942,0.65484 -0.19565,0.8238c-0.28507,0.16896 -0.65483,0.08942 -0.8345,-0.18873z"/><path d="M311.17339,206.75598c-0.27125,0.19037 -0.64102,0.11081 -0.83138,-0.16044c-0.19726,-0.28195 -0.11394,-0.66931 0.16421,-0.84898c0.27815,-0.17967 0.65864,-0.10703 0.8383,0.17113c0.17966,0.27816 0.10011,0.64794 -0.17113,0.8383z"/><path d="M322.0889,207.27104c0.17967,0.27815 0.10012,0.64793 -0.17804,0.8276c-0.28885,0.18656 -0.65861,0.10702 -0.83828,-0.17113c-0.17967,-0.27815 -0.10013,-0.64792 0.17802,-0.82759c0.28885,-0.18656 0.65863,-0.10703 0.8383,0.17113z"/><path d="M315.72598,205.11923c0.26746,-0.17276 0.64792,-0.10012 0.8383,0.17113c0.19035,0.27124 0.09634,0.66554 -0.18182,0.84521c-0.28507,0.16896 -0.65484,0.08942 -0.83451,-0.18873c-0.17966,-0.27816 -0.10011,-0.64793 0.17804,-0.8276z"/><path d="M310.73064,229.49634c0.28884,-0.18658 0.64793,-0.10011 0.8276,0.17804c0.18658,0.28884 0.1108,0.641 -0.17804,0.82759c-0.28884,0.18658 -0.64101,0.11083 -0.82759,-0.17802c-0.17966,-0.27816 -0.10012,-0.64793 0.17804,-0.8276z"/><path d="M321.79142,229.25046c-0.27816,0.17966 -0.63032,0.1039 -0.81377,-0.15664c-0.17967,-0.27816 -0.10011,-0.64794 0.16734,-0.82068c0.27816,-0.17967 0.64794,-0.10012 0.82068,0.16734c0.17277,0.26745 0.10391,0.63031 -0.17425,0.80998z"/><path d="M324.98416,209.57037c0.17967,0.27815 0.11081,0.64103 -0.16734,0.82069c-0.27125,0.19037 -0.6341,0.12152 -0.81377,-0.15663c-0.17967,-0.27815 -0.11082,-0.64101 0.16733,-0.82068c0.27125,-0.19037 0.64102,-0.11083 0.81377,0.15663z"/><path d="M303.44786,223.78442c0.26745,-0.17277 0.62655,-0.0863 0.79931,0.18116c0.17275,0.26746 0.08629,0.62655 -0.18117,0.7993c-0.28507,0.16897 -0.61963,0.097 -0.79931,-0.18116c-0.17275,-0.26746 -0.097,-0.61962 0.18116,-0.79931z"/><path d="M307.40001,208.49586c-0.26746,0.17276 -0.61962,0.097 -0.79237,-0.17046c-0.17275,-0.26746 -0.09698,-0.61962 0.17047,-0.79237c0.26746,-0.17276 0.61963,-0.09701 0.79238,0.17045c0.17967,0.27815 0.09699,0.61963 -0.17047,0.79238z"/><path d="M320.60039,206.1402c0.17275,0.26746 0.09699,0.61963 -0.17046,0.79237c-0.26746,0.17276 -0.61962,0.097 -0.79237,-0.17046c-0.17275,-0.26745 -0.09698,-0.61962 0.17046,-0.79237c0.26746,-0.17276 0.61962,-0.097 0.79237,0.17046z"/><path d="M315.60815,230.54561c0.16896,0.28507 0.08629,0.62653 -0.18117,0.79929c-0.26745,0.17277 -0.62655,0.08631 -0.7993,-0.18115c-0.17275,-0.26746 -0.0863,-0.62655 0.18116,-0.7993c0.27815,-0.17967 0.61963,-0.097 0.79931,0.18116z"/><path d="M318.20232,230.21936c0.17275,0.26746 0.09699,0.61964 -0.17046,0.79238c-0.26746,0.17276 -0.61963,0.09701 -0.79238,-0.17045c-0.17275,-0.26746 -0.09699,-0.61965 0.17046,-0.79239c0.27815,-0.17967 0.63032,-0.1039 0.79238,0.17046z"/><path d="M327.51091,221.93248c-0.24984,0.17654 -0.61272,0.10771 -0.77855,-0.14906c-0.17275,-0.26745 -0.1077,-0.61272 0.15976,-0.78548c0.24984,-0.17654 0.61272,-0.10771 0.77857,0.14907c0.18345,0.26054 0.10769,0.61272 -0.15977,0.78548z"/><path d="M302.80064,214.33225c-0.25676,0.16585 -0.602,0.10079 -0.76785,-0.15598c-0.16585,-0.25676 -0.1008,-0.60201 0.15596,-0.76785c0.26745,-0.17277 0.60201,-0.1008 0.76786,0.15595c0.16584,0.25676 0.10079,0.60203 -0.15597,0.76788z"/><path d="M301.69283,220.08148c0.24605,-0.15894 0.5844,-0.10459 0.75023,0.15218c0.15893,0.24605 0.08698,0.58062 -0.15218,0.75025c-0.24605,0.15893 -0.5844,0.10458 -0.75025,-0.15218c-0.16584,-0.25674 -0.10458,-0.58441 0.15218,-0.75025z"/><path d="M301.22887,218.21304c-0.17654,-0.24985 -0.09767,-0.5737 0.15219,-0.75024c0.25676,-0.16584 0.5913,-0.09388 0.75716,0.16288c0.14823,0.25297 0.08696,0.58061 -0.15909,0.73955c-0.25676,0.16584 -0.5844,0.10459 -0.75025,-0.15218z"/><path d="M325.51294,211.35146c-0.16584,-0.25677 -0.10457,-0.58442 0.13458,-0.75405c0.24607,-0.15894 0.59823,-0.08317 0.75716,0.16289c0.15893,0.24605 0.09076,0.56301 -0.14838,0.73264c-0.24984,0.17654 -0.5775,0.11527 -0.74333,-0.14149z"/><path d="M307.9466,206.1263c0.23536,-0.15203 0.56993,-0.08005 0.73264,0.14839c0.15893,0.24605 0.09076,0.56299 -0.1377,0.72572c-0.23916,0.16962 -0.58441,0.10457 -0.74334,-0.14148c-0.16272,-0.22844 -0.09766,-0.5737 0.1484,-0.73264z"/><path d="M328.31931,217.83216c-0.24605,0.15893 -0.56992,0.08004 -0.72194,-0.15532c-0.15203,-0.23536 -0.08005,-0.56992 0.16601,-0.72885c0.24605,-0.15893 0.56992,-0.08005 0.72885,0.16602c0.15514,0.26367 0.08697,0.58062 -0.17291,0.71817z"/><path d="M312.81967,231.60383c-0.24605,0.15893 -0.58062,0.08695 -0.73954,-0.15909c-0.15893,-0.24605 -0.10146,-0.55611 0.1377,-0.72573c0.23916,-0.16962 0.57371,-0.09765 0.73264,0.14839c0.15893,0.24605 0.09766,0.5737 -0.13079,0.73642z"/><path d="M318.92826,205.73443c-0.24605,0.15893 -0.55232,0.08385 -0.71125,-0.1622c-0.15203,-0.23536 -0.08384,-0.55231 0.15152,-0.70434c0.23536,-0.15203 0.56992,-0.08005 0.72194,0.15531c0.15893,0.24605 0.09076,0.563 -0.1622,0.71123z"/><path d="M320.76753,229.94215c0.15893,0.24605 0.07314,0.55921 -0.16913,0.70054c-0.24607,0.15894 -0.56301,0.09076 -0.71124,-0.16221c-0.15203,-0.23536 -0.07693,-0.54162 0.15842,-0.69364c0.24605,-0.15894 0.56991,-0.08005 0.72193,0.15531z"/><path d="M328.16596,214.51985c0.14133,0.24226 0.07314,0.55922 -0.17983,0.70745c-0.23536,0.15203 -0.5416,0.07693 -0.69363,-0.15843c-0.15893,-0.24605 -0.08384,-0.5523 0.16222,-0.71124c0.24605,-0.15893 0.56992,-0.08004 0.71124,0.16221z"/><path d="M302.0291,222.71467c0.22466,-0.14512 0.54162,-0.07693 0.69743,0.14082c0.14511,0.22467 0.08071,0.524 -0.13704,0.67982c-0.23915,0.16962 -0.54918,0.11215 -0.7012,-0.12321c-0.15203,-0.23536 -0.09455,-0.5454 0.14081,-0.69742z"/><path d="M305.94044,227.78421c0.14511,0.22467 0.08071,0.52402 -0.15465,0.67605c-0.22467,0.14511 -0.524,0.08071 -0.66912,-0.14396c-0.15202,-0.23534 -0.07694,-0.54162 0.14773,-0.68672c0.22466,-0.14512 0.5347,-0.08763 0.67604,0.15463z"/><path d="M327.94499,220.2572c-0.14511,-0.22467 -0.07692,-0.54161 0.14773,-0.68672c0.21396,-0.1382 0.51331,-0.07381 0.66912,0.14394c0.15203,0.23536 0.09454,0.54541 -0.13013,0.69052c-0.22845,0.16273 -0.54541,0.09453 -0.68673,-0.14774z"/><path d="M312.24518,205.19947c-0.22467,0.14511 -0.52402,0.08072 -0.66913,-0.14394c-0.14511,-0.22467 -0.07001,-0.53092 0.15466,-0.67602c0.22467,-0.14511 0.53091,-0.07002 0.67603,0.15465c0.14511,0.22467 0.07002,0.53091 -0.16154,0.66533z"/><path d="M314.33175,204.06394c0.22467,-0.14511 0.53471,-0.08761 0.68674,0.14774c0.14511,0.22467 0.07001,0.53091 -0.15466,0.67602c-0.22466,0.14512 -0.52401,0.08073 -0.66912,-0.14394c-0.15581,-0.21775 -0.08763,-0.53471 0.13704,-0.67981z"/><path d="M306.72083,228.78114c0.22467,-0.14511 0.5347,-0.08763 0.66221,0.13324c0.16272,0.22843 0.09832,0.52779 -0.13704,0.67981c-0.22467,0.14511 -0.51709,0.09142 -0.6622,-0.13324c-0.14511,-0.22467 -0.09832,-0.52779 0.13704,-0.67981z"/><path d="M325.63962,226.73448c0.13821,0.21396 0.07381,0.51331 -0.14014,0.65152c-0.22466,0.14512 -0.51709,0.09142 -0.6622,-0.13325c-0.14511,-0.22467 -0.08073,-0.52401 0.14393,-0.66912c0.21394,-0.13819 0.52022,-0.06311 0.65843,0.15085z"/><path d="M301.62522,215.72826c-0.21396,0.1382 -0.51331,0.07383 -0.6553,-0.12254c-0.15581,-0.21775 -0.09833,-0.5278 0.12634,-0.67291c0.22467,-0.14511 0.52401,-0.08071 0.66912,0.14394c0.14511,0.22467 0.08451,0.5064 -0.14015,0.6515z"/><path d="M326.1221,225.1341c0.22467,-0.14511 0.51709,-0.09142 0.6622,0.13325c0.14511,0.22467 0.08072,0.52401 -0.14393,0.66912c-0.21394,0.1382 -0.5133,0.07381 -0.65151,-0.14015c-0.14892,-0.20704 -0.09142,-0.5171 0.13324,-0.66221z"/><path d="M323.83656,228.05076c0.21396,-0.1382 0.49569,-0.07759 0.6339,0.13637c0.13821,0.21396 0.07382,0.51331 -0.14014,0.65152c-0.21396,0.1382 -0.50951,0.05618 -0.64772,-0.15778c-0.12061,-0.21018 -0.05999,-0.49189 0.15398,-0.63011z"/><path d="M327.01972,212.44016c-0.13821,-0.21396 -0.07381,-0.5133 0.13638,-0.6339c0.21396,-0.1382 0.5064,-0.08451 0.65151,0.14015c0.13821,0.21396 0.07759,0.4957 -0.14706,0.64081c-0.22086,0.1275 -0.50259,0.0669 -0.6408,-0.14707z"/><path d="M304.45571,226.63577c0.13821,0.21396 0.08453,0.50641 -0.14327,0.62321c-0.21774,0.15582 -0.4995,0.0952 -0.64461,-0.12946c-0.13821,-0.21396 -0.0776,-0.49569 0.14707,-0.6408c0.22086,-0.12751 0.50259,-0.0669 0.6408,0.14705z"/><path d="M308.70623,230.72815c-0.21396,0.1382 -0.49569,0.07759 -0.6339,-0.13637c-0.13821,-0.21396 -0.08831,-0.48877 0.11875,-0.63768c0.22467,-0.14511 0.51709,-0.09141 0.6553,0.12255c0.13819,0.21396 0.0845,0.5064 -0.14015,0.65151z"/><path d="M327.1442,224.32228c-0.13821,-0.21396 -0.0776,-0.4957 0.11498,-0.62008c0.21394,-0.13819 0.50638,-0.0845 0.64459,0.12946c0.13821,0.21396 0.0669,0.50261 -0.13636,0.63391c-0.21016,0.12061 -0.4919,0.05999 -0.6232,-0.14327z"/><path d="M316.96136,231.74867c0.14891,0.20706 0.08829,0.48879 -0.12567,0.62699c-0.21396,0.1382 -0.49569,0.0776 -0.6339,-0.13636c-0.1313,-0.20326 -0.08138,-0.47809 0.13258,-0.61629c0.20706,-0.14891 0.47808,-0.08139 0.62697,0.12566z"/><path d="M309.75594,204.86663c0.1313,0.20326 0.0707,0.48499 -0.13258,0.61629c-0.20327,0.1313 -0.46739,0.07447 -0.59869,-0.1288c-0.1313,-0.20326 -0.07069,-0.48499 0.13258,-0.61629c0.19257,-0.12438 0.46739,-0.07447 0.59867,0.12879z"/><path d="M316.96049,203.79121c0.19257,-0.12438 0.46738,-0.07448 0.59867,0.12879c0.1313,0.20326 0.0707,0.48499 -0.13258,0.61629c-0.20327,0.1313 -0.46739,0.07447 -0.59869,-0.1288c-0.1313,-0.20326 -0.07068,-0.48498 0.13259,-0.61628z"/><path d="M309.56462,231.70502c-0.1313,-0.20327 -0.07448,-0.46739 0.12879,-0.59867c0.19257,-0.12438 0.45669,-0.06757 0.58107,0.125c0.1313,0.20326 0.07448,0.46738 -0.12879,0.59867c-0.20327,0.1313 -0.46739,0.07448 -0.58108,-0.12501z"/><path d="M303.56066,210.15707c-0.20327,0.1313 -0.4567,0.06756 -0.58108,-0.12499c-0.1313,-0.20327 -0.07447,-0.4674 0.1288,-0.59869c0.20327,-0.1313 0.4743,-0.06378 0.5949,0.14639c0.12439,0.19256 0.06067,0.446 -0.14261,0.57729z"/><path d="M319.42296,232.03872c-0.20326,0.1313 -0.45668,0.06757 -0.58797,-0.13569c-0.12438,-0.19257 -0.07448,-0.4674 0.12879,-0.59868c0.20327,-0.1313 0.46361,-0.05686 0.59491,0.1464c0.12061,0.21018 0.06757,0.45669 -0.1357,0.58798z"/><path d="M323.82656,207.54351c-0.1313,-0.20327 -0.0814,-0.4781 0.12187,-0.60939c0.19257,-0.12438 0.4743,-0.06377 0.59869,0.1288c0.11368,0.19949 0.05688,0.46359 -0.1357,0.58799c-0.19257,0.12438 -0.4567,0.06757 -0.58487,-0.10739z"/><path d="M314.2139,232.65913c-0.18566,0.13508 -0.45356,0.09586 -0.60247,-0.11119c-0.14199,-0.19637 -0.09208,-0.47117 0.11119,-0.60247c0.19257,-0.12438 0.45669,-0.06757 0.59178,0.11809c0.142,0.19636 0.08518,0.46048 -0.10048,0.59557z"/><path d="M304.8341,208.09127c0.1313,0.20327 0.07447,0.46739 -0.1288,0.59869c-0.19257,0.12438 -0.45669,0.06756 -0.58107,-0.125c-0.1313,-0.20326 -0.07447,-0.46739 0.1288,-0.59868c0.19257,-0.12438 0.45669,-0.06756 0.58107,0.12499z"/><path d="M322.58384,230.14866c-0.1313,-0.20327 -0.07448,-0.46741 0.1181,-0.59179c0.19257,-0.12438 0.45669,-0.06756 0.58107,0.12499c0.12438,0.19257 0.07826,0.44979 -0.11431,0.57417c-0.19257,0.12438 -0.44977,0.07827 -0.58486,-0.10739z"/><path d="M322.492,205.78257c0.18187,-0.11748 0.43909,-0.07136 0.57418,0.11429c0.142,0.19637 0.08518,0.46047 -0.1074,0.58487c-0.19257,0.12438 -0.44978,0.07826 -0.57417,-0.1143c-0.12438,-0.19257 -0.07827,-0.44979 0.10739,-0.58486z"/><path d="M302.53788,211.0148c0.11747,0.18187 0.07135,0.4391 -0.11431,0.57417c-0.18566,0.13507 -0.44285,0.08896 -0.57795,-0.09669c-0.13507,-0.18566 -0.08896,-0.44288 0.0967,-0.57795c0.18566,-0.13508 0.46047,-0.08518 0.59557,0.10048z"/><path d="M300.2948,219.04381c0.18566,-0.13507 0.43217,-0.08205 0.56727,0.10361c0.142,0.19637 0.09587,0.45358 -0.1074,0.58488c-0.19257,0.12438 -0.44978,0.07826 -0.57417,-0.11431c-0.12438,-0.19257 -0.07828,-0.44978 0.11429,-0.57417z"/><path d="M329.54058,215.70909c0.12438,0.19257 0.07826,0.44979 -0.11431,0.57417c-0.19257,0.12438 -0.446,0.06066 -0.56347,-0.12121c-0.12438,-0.19257 -0.07136,-0.4391 0.11052,-0.55657c0.17497,-0.12817 0.42148,-0.07513 0.56727,0.10361z"/><path d="M302.82458,226.08222c-0.18187,0.11747 -0.4353,0.05375 -0.56347,-0.12122c-0.11747,-0.18187 -0.06066,-0.44599 0.12122,-0.56347c0.19257,-0.12438 0.44601,-0.06066 0.57037,0.13191c0.12438,0.19257 0.06444,0.42839 -0.12813,0.55277z"/><path d="M325.29054,208.65988c-0.11747,-0.18187 -0.06066,-0.44601 0.12122,-0.56348c0.19257,-0.12438 0.45671,-0.06758 0.57039,0.1319c0.12438,0.19257 0.06444,0.42839 -0.12813,0.55278c-0.18187,0.11748 -0.43531,0.05375 -0.56348,-0.12121z"/><path d="M305.2934,207.1123c-0.11747,-0.18188 -0.06444,-0.4284 0.11053,-0.55657c0.20327,-0.1313 0.44979,-0.07827 0.57417,0.1143c0.11747,0.18188 0.07515,0.42147 -0.11743,0.54587c-0.19257,0.12438 -0.43909,0.07137 -0.56726,-0.1036z"/><path d="M301.0633,222.32266c-0.18566,0.13509 -0.43218,0.08206 -0.55657,-0.11052c-0.11749,-0.18188 -0.07137,-0.43908 0.11052,-0.55656c0.19257,-0.12438 0.4498,-0.07826 0.57418,0.11431c0.11749,0.18188 0.05374,0.4353 -0.12813,0.55277z"/><path d="M321.05632,204.66308c0.18186,-0.11747 0.42838,-0.06443 0.53516,0.12435c0.11747,0.18187 0.07515,0.42148 -0.10672,0.53895c-0.18187,0.11748 -0.44599,0.06066 -0.55277,-0.12812c-0.11747,-0.18185 -0.05754,-0.41769 0.12433,-0.53517z"/><path d="M328.44908,222.28168c0.18187,-0.11748 0.41079,-0.06823 0.54965,0.09983c0.12438,0.19257 0.07135,0.43908 -0.11052,0.55655c-0.18879,0.10677 -0.42841,0.06444 -0.54588,-0.11743c-0.11749,-0.18188 -0.07514,-0.42148 0.10673,-0.53895z"/><path d="M300.42217,217.08149c-0.18186,0.11747 -0.41078,0.06823 -0.52133,-0.10295c-0.11749,-0.18188 -0.06825,-0.41077 0.11364,-0.52824c0.17118,-0.11056 0.40698,-0.05061 0.51755,0.12055c0.11747,0.18187 0.06132,0.40009 -0.10985,0.51065z"/><path d="M329.18904,218.7562c-0.11747,-0.18185 -0.06822,-0.41077 0.10294,-0.52132c0.18186,-0.11747 0.41769,-0.05753 0.53516,0.12435c0.11056,0.17116 0.05063,0.40698 -0.12054,0.51754c-0.17118,0.11056 -0.40698,0.05061 -0.51755,-0.12055z"/><path d="M328.6716,213.0258c0.17118,-0.11056 0.39317,-0.07203 0.52133,0.10293c0.10365,0.16048 0.06511,0.38247 -0.09915,0.50374c-0.17118,0.11056 -0.41079,0.06823 -0.52135,-0.10294c-0.11056,-0.17116 -0.07201,-0.39316 0.09916,-0.50373z"/><path d="M312.83458,203.53003c-0.11056,-0.17116 -0.07202,-0.39317 0.10986,-0.51064c0.16047,-0.10366 0.39316,-0.07202 0.50373,0.09915c0.12125,0.16426 0.06822,0.41077 -0.10295,0.52132c-0.17118,0.11055 -0.40699,0.05061 -0.51064,-0.10985z"/><path d="M300.72994,212.91034c-0.11056,-0.17116 -0.05443,-0.38938 0.11674,-0.49994c0.17118,-0.11056 0.39317,-0.07202 0.50374,0.09914c0.11747,0.18185 0.05753,0.4177 -0.12055,0.51756c-0.17118,0.11056 -0.38937,0.05442 -0.49993,-0.11676z"/><path d="M327.39956,209.38991c0.10365,0.16048 0.0651,0.38247 -0.09537,0.48613c-0.15356,0.11436 -0.38246,0.06511 -0.48611,-0.09536c-0.11436,-0.15357 -0.06512,-0.38246 0.09535,-0.48612c0.15356,-0.11436 0.38247,-0.06511 0.48613,0.09535z"/><path d="M307.07995,205.23057c0.10365,0.16047 0.0544,0.38937 -0.10607,0.49303c-0.16047,0.10366 -0.38939,0.05441 -0.49304,-0.10606c-0.11055,-0.17116 -0.0544,-0.38937 0.10608,-0.49303c0.17118,-0.11056 0.38246,-0.06511 0.49303,0.10607z"/><path d="M311.08524,232.81513c-0.10365,-0.16048 -0.06511,-0.38247 0.08845,-0.49682c0.16047,-0.10366 0.38248,-0.06511 0.49683,0.08845c0.11436,0.15357 0.0651,0.38248 -0.08845,0.49682c-0.16426,0.12126 -0.38626,0.08272 -0.49682,-0.08845z"/><path d="M321.49648,231.56362c-0.11436,-0.15357 -0.06512,-0.38245 0.09535,-0.48611c0.15356,-0.11436 0.39317,-0.07202 0.49681,0.08844c0.11436,0.15356 0.0651,0.38247 -0.09537,0.48613c-0.17118,0.11055 -0.39316,0.07201 -0.4968,-0.08846z"/><path d="M315.55933,202.72522c0.16046,-0.10366 0.36109,-0.05128 0.46473,0.10918c0.09297,0.1674 0.04059,0.36799 -0.11987,0.47164c-0.16046,0.10366 -0.36109,0.05127 -0.46474,-0.10919c-0.09675,-0.14977 -0.04059,-0.36798 0.11987,-0.47163z"/><path d="M319.9969,204.14963c-0.16046,0.10366 -0.37178,0.0582 -0.47543,-0.10227c-0.10365,-0.16048 -0.05819,-0.37178 0.10228,-0.47543c0.16047,-0.10365 0.37178,-0.05819 0.47543,0.10228c0.09675,0.14977 0.05128,0.36108 -0.10228,0.47543z"/><path d="M310.8219,203.46549c0.10365,0.16047 0.05821,0.37177 -0.10227,0.47544c-0.16046,0.10366 -0.37178,0.05819 -0.47543,-0.10228c-0.10365,-0.16047 -0.05819,-0.37177 0.10227,-0.47543c0.16046,-0.10366 0.37178,-0.0582 0.47543,0.10227z"/><path d="M301.4321,224.41935c0.10365,0.16048 0.05128,0.36107 -0.10919,0.46473c-0.16047,0.10366 -0.36108,0.05128 -0.46473,-0.10918c-0.10365,-0.16048 -0.05128,-0.36108 0.10919,-0.46473c0.16046,-0.10366 0.37178,-0.0582 0.46473,0.10919z"/><path d="M315.16792,233.61969c-0.09675,-0.14977 -0.04815,-0.33277 0.10853,-0.41881c0.1498,-0.09675 0.33277,-0.04815 0.42951,0.10162c0.08982,0.13907 0.04816,0.33279 -0.10161,0.42952c-0.14599,0.07913 -0.3466,0.02677 -0.43643,-0.11231z"/><path d="M318.22303,233.42026c-0.1567,0.08606 -0.33968,0.03746 -0.43643,-0.11231c-0.09675,-0.14979 -0.04817,-0.33278 0.10161,-0.42953c0.1498,-0.09675 0.33278,-0.04815 0.42952,0.10163c0.08982,0.13907 0.03746,0.33968 -0.0947,0.44021z"/><path d="M329.98071,221.41366c-0.14978,0.09674 -0.35038,0.04438 -0.4402,-0.09471c-0.07914,-0.14599 -0.02677,-0.34658 0.11231,-0.43642c0.13909,-0.08984 0.33969,-0.03749 0.42951,0.1016c0.09675,0.14979 0.04816,0.33279 -0.10161,0.42952z"/><path d="M305.59961,230.8244c-0.10054,-0.13217 -0.06578,-0.33656 0.07331,-0.4264c0.13217,-0.10055 0.33655,-0.06578 0.42638,0.0733c0.10055,0.13217 0.06579,0.33658 -0.07329,0.4264c-0.13217,0.10055 -0.33657,0.06578 -0.42639,-0.07329z"/><path d="M304.22341,229.25716c0.13907,-0.08982 0.33277,-0.04816 0.42261,0.0909c0.08984,0.13907 0.04126,0.32206 -0.09783,0.41189c-0.14978,0.09675 -0.33277,0.04816 -0.42261,-0.09091c-0.08982,-0.13907 -0.04816,-0.33275 0.09783,-0.41189z"/><path d="M299.64946,214.33599c-0.09675,-0.14979 -0.04815,-0.33278 0.10161,-0.42951c0.14599,-0.07912 0.32208,-0.04125 0.4119,0.09783c0.09675,0.14978 0.04817,0.33278 -0.09092,0.42261c-0.14978,0.09675 -0.32586,0.05886 -0.4226,-0.09091z"/><path d="M328.3349,210.90838c-0.10054,-0.13217 -0.06957,-0.31895 0.06951,-0.40878c0.13217,-0.10053 0.31896,-0.06957 0.40879,0.06951c0.09361,0.12148 0.06266,0.30828 -0.05881,0.40188c-0.13217,0.10053 -0.31896,0.06957 -0.41948,-0.0626z"/><path d="M326.44726,228.28996c-0.08985,-0.13908 -0.04126,-0.32207 0.08713,-0.405c0.12838,-0.0829 0.30445,-0.04504 0.38737,0.08333c0.10054,0.13217 0.06958,0.31895 -0.0695,0.40878c-0.12838,0.0829 -0.31517,0.05195 -0.405,-0.08713z"/><path d="M328.08026,226.52258c0.08985,0.13908 0.05196,0.31516 -0.07642,0.39808c-0.13217,0.10054 -0.31895,0.06956 -0.40877,-0.06951c-0.08982,-0.13907 -0.04817,-0.33277 0.0802,-0.41568c0.13909,-0.08983 0.32207,-0.04126 0.40499,0.08712z"/><path d="M307.14006,231.54267c0.13909,-0.08983 0.31516,-0.05195 0.39808,0.07643c0.08292,0.12837 0.05194,0.31516 -0.07643,0.39808c-0.13217,0.10053 -0.31896,0.06955 -0.40878,-0.06951c-0.08292,-0.12839 -0.05197,-0.31516 0.08712,-0.40499z"/><path d="M325.39663,229.36278c0.1284,-0.08293 0.30446,-0.04506 0.38048,0.07263c0.08292,0.1284 0.05573,0.29755 -0.07263,0.38048c-0.12147,0.09361 -0.30825,0.06266 -0.39116,-0.06574c-0.08292,-0.12839 -0.04504,-0.30444 0.08333,-0.38737z"/><path d="M299.5233,221.08863c-0.12838,0.08293 -0.31137,0.03435 -0.38359,-0.10095c-0.07223,-0.13529 -0.03813,-0.29376 0.09025,-0.37668c0.13907,-0.08983 0.29756,-0.05575 0.38738,0.08332c0.07914,0.14599 0.03435,0.31138 -0.09403,0.39429z"/><path d="M298.82414,218.38662c-0.0829,-0.12839 -0.03434,-0.31137 0.10095,-0.38359c0.12838,-0.08293 0.28685,-0.04884 0.36977,0.07954c0.08292,0.12839 0.04504,0.30445 -0.08333,0.38737c-0.12838,0.0829 -0.30446,0.04505 -0.38739,-0.08334z"/><path d="M307.76234,203.72847c0.12838,-0.08293 0.29755,-0.05573 0.38739,0.08334c0.08292,0.1284 0.04884,0.28686 -0.07263,0.38047c-0.12147,0.09361 -0.30826,0.06266 -0.39117,-0.06572c-0.0829,-0.12839 -0.05195,-0.31516 0.07643,-0.39809z"/><path d="M302.70125,228.49676c-0.08984,-0.13907 -0.04506,-0.30446 0.09403,-0.39429c0.12838,-0.08293 0.31137,-0.03435 0.38359,0.10094c0.07223,0.13529 0.03815,0.29377 -0.09022,0.3767c-0.13909,0.08984 -0.30447,0.04505 -0.3874,-0.08334z"/><path d="M318.21258,202.46693c0.13528,-0.07222 0.28306,-0.03123 0.35907,0.08646c0.08292,0.12839 0.04884,0.28686 -0.07955,0.36978c-0.12838,0.08293 -0.28686,0.04882 -0.36978,-0.07957c-0.08292,-0.12839 -0.03814,-0.29375 0.09024,-0.37667z"/><path d="M312.68918,233.53786c0.12838,-0.08293 0.29377,-0.03812 0.366,0.09716c0.07221,0.13529 0.03123,0.28306 -0.08646,0.35907c-0.12838,0.08293 -0.28685,0.04883 -0.36977,-0.07955c-0.08292,-0.12839 -0.03813,-0.29376 0.09025,-0.37669z"/><path d="M320.49932,232.60189c0.13528,-0.07222 0.30068,-0.02744 0.366,0.09716c0.08292,0.12839 0.03813,0.29375 -0.09716,0.36598c-0.12459,0.06532 -0.28306,0.03124 -0.35908,-0.08645c-0.08292,-0.12839 -0.03813,-0.29376 0.09024,-0.3767z"/><path d="M328.85133,224.99352c0.1284,-0.08293 0.29377,-0.03813 0.366,0.09716c0.08292,0.12839 0.03812,0.29376 -0.09716,0.36598c-0.12459,0.06532 -0.28306,0.03124 -0.35907,-0.08645c-0.08292,-0.12839 -0.03813,-0.29376 0.09025,-0.3767z"/><path d="M330.49885,216.86404c0.12838,-0.08293 0.30444,-0.04505 0.36976,0.07954c0.07601,0.11768 0.04884,0.28686 -0.06883,0.36287c-0.12148,0.09361 -0.29065,0.06643 -0.37357,-0.06194c-0.08292,-0.1284 -0.05575,-0.29756 0.07263,-0.38047z"/><path d="M330.20091,214.26675c0.11768,-0.07602 0.27616,-0.04194 0.35217,0.07576c0.06532,0.12459 0.0495,0.24095 -0.07198,0.33456c-0.11077,0.08672 -0.27995,0.05953 -0.35597,-0.05816c-0.07601,-0.11769 -0.04192,-0.27614 0.07575,-0.35216z"/><path d="M301.73798,208.43849c0.12459,-0.06532 0.23716,-0.03189 0.32386,0.07888c0.08672,0.11077 0.05262,0.26924 -0.07197,0.33457c-0.11768,0.07602 -0.23023,0.04257 -0.31003,-0.05748c-0.08292,-0.12839 -0.05955,-0.27994 0.05814,-0.35596z"/><path d="M302.91786,206.97896c0.10319,-0.05149 0.21954,-0.03569 0.31316,0.08579c0.08671,0.11077 0.05263,0.26924 -0.07197,0.33457c-0.13528,0.07222 -0.24785,0.03879 -0.33457,-0.07198c-0.07979,-0.10008 -0.035,-0.26545 0.09337,-0.34838z"/><path d="M325.53824,205.71014c0.05841,0.11389 0.04257,0.23025 -0.0682,0.31696c-0.11078,0.08672 -0.26925,0.05264 -0.34525,-0.06505c-0.08292,-0.12839 -0.04949,-0.24095 0.06128,-0.32765c0.11077,-0.08672 0.26925,-0.05264 0.35217,0.07576z"/><path d="M324.61421,230.94467c0.0515,0.10319 0.03566,0.21956 -0.0751,0.30626c-0.11768,0.07602 -0.26926,0.05263 -0.34527,-0.06507c-0.07601,-0.11769 -0.04949,-0.24095 0.06128,-0.32765c0.11077,-0.08671 0.26924,-0.05263 0.35907,0.08646z"/><path d="M308.98318,232.82351c0.04079,0.1101 0.03567,0.21956 -0.07509,0.30626c-0.11077,0.08671 -0.25855,0.0457 -0.33456,-0.07199c-0.08292,-0.12839 -0.04949,-0.24095 0.06128,-0.32765c0.10008,-0.0798 0.26546,-0.03503 0.34838,0.09336z"/><path d="M299.9039,223.34445c0.05842,0.11389 0.04259,0.23024 -0.08578,0.31317c-0.10008,0.07979 -0.26923,0.05262 -0.33455,-0.07198c-0.07221,-0.13529 -0.03879,-0.24785 0.07198,-0.33456c0.10008,-0.0798 0.26546,-0.03503 0.34838,0.09336z"/><path d="M301.60456,227.38574c-0.10008,0.07979 -0.24784,0.0388 -0.31695,-0.06819c-0.07601,-0.11768 -0.05328,-0.22334 0.05749,-0.31004c0.10008,-0.07979 0.24784,-0.03879 0.33077,0.08958c0.05148,0.1032 0.01807,0.21575 -0.07131,0.28865z"/><path d="M311.85958,202.06748c0.06911,0.10699 0.02811,0.25476 -0.08578,0.31317c-0.12459,0.06532 -0.22645,0.02497 -0.30626,-0.0751c-0.06911,-0.10699 -0.0281,-0.25476 0.07888,-0.32386c0.11389,-0.05842 0.26168,-0.01739 0.31317,0.08579z"/><path d="M314.15441,201.67682c0.10008,-0.0798 0.25856,-0.04571 0.32765,0.06127c0.0622,0.0963 0.03502,0.26546 -0.07888,0.32387c-0.12459,0.06531 -0.23026,0.04258 -0.31697,-0.06819c-0.05841,-0.11389 -0.04258,-0.23025 0.06818,-0.31695z"/><path d="M300.58956,209.92322c0.12459,-0.06531 0.23402,-0.06019 0.31003,0.05749c0.07979,0.10008 0.05641,0.25166 -0.05058,0.32074c-0.10698,0.0691 -0.24786,0.03878 -0.31697,-0.06819c-0.07601,-0.11768 -0.04258,-0.23024 0.0575,-0.31004z"/><path d="M330.76695,219.81415c-0.06532,-0.12459 -0.02432,-0.27238 0.07888,-0.32386c0.12459,-0.06531 0.23025,-0.04259 0.30626,0.0751c0.06532,0.12459 0.04259,0.23025 -0.06818,0.31695c-0.08937,0.0729 -0.24785,0.0388 -0.31696,-0.06819z"/><path d="M323.75413,204.49731c0.12459,-0.06531 0.23026,-0.04259 0.30627,0.0751c0.06911,0.10699 0.0281,0.25474 -0.0858,0.31316c-0.12459,0.0653 -0.22646,0.02497 -0.29934,-0.06439c-0.07223,-0.13529 -0.04192,-0.27616 0.07888,-0.32386z"/><path d="M304.23261,205.96292c-0.06665,-0.03275 -0.18301,-0.04857 -0.23517,-0.10585c-0.09741,-0.10386 -0.05329,-0.22333 0.06439,-0.29935c0.10698,-0.06909 0.21954,-0.03566 0.28865,0.07131c0.06911,0.10699 0.04638,0.21263 -0.11788,0.3339z"/><path d="M326.62486,206.78218c0.0214,-0.01383 0.0428,-0.02764 0.07488,-0.04836c0.09494,0.02964 0.21129,0.04547 0.27037,0.11343c0.07981,0.10006 0.05329,0.22332 -0.06439,0.29935c-0.11768,0.07602 -0.24094,0.0495 -0.29556,-0.08201c-0.03077,-0.0711 0.00267,-0.18367 0.0147,-0.2824z"/><path d="M298.56832,215.80758c-0.01383,-0.02139 -0.02763,-0.04279 -0.05905,-0.06797c0.04725,-0.09115 0.04544,-0.21131 0.11342,-0.27037c0.10386,-0.09742 0.22712,-0.07089 0.30313,0.04679c0.07601,0.11769 0.06709,0.24473 -0.0644,0.29935c-0.08179,0.03767 -0.20127,-0.00646 -0.2931,-0.00779z"/><path d="M330.31208,223.89838c-0.16046,0.10366 -0.27683,0.08783 -0.36353,-0.02293c-0.06911,-0.10699 -0.04638,-0.21262 0.0537,-0.29243c0.11077,-0.08672 0.24473,-0.0671 0.30314,0.04678c0.03767,0.0818 0.00423,0.19437 0.00669,0.26859z"/><path d="M322.58258,203.43466c0.07981,0.10006 0.04638,0.21264 -0.06061,0.28174c-0.10698,0.06909 -0.23024,0.04259 -0.27794,-0.07822c-0.03767,-0.0818 0.00266,-0.18366 0.01915,-0.34591c0.15469,0.05169 0.26033,0.07442 0.3194,0.1424z"/><path d="M329.84483,212.0254c-0.01383,-0.02139 -0.02766,-0.0428 -0.05907,-0.06799c0.03656,-0.08426 0.05237,-0.20061 0.10965,-0.25276c0.10008,-0.07979 0.22333,-0.05329 0.29243,0.0537c0.07981,0.10006 0.05329,0.22334 -0.06751,0.27104c-0.0818,0.03767 -0.18367,-0.00266 -0.27549,-0.00399z"/><path d="M308.92016,202.32867c0.0214,-0.01382 0.04279,-0.02765 0.07488,-0.04837c0.07734,0.02585 0.18301,0.04857 0.23516,0.10585c0.0798,0.10006 0.05328,0.22334 -0.05682,0.26413c-0.0711,0.03076 -0.21196,0.00045 -0.24652,-0.05304c-0.05215,-0.05728 -0.00803,-0.17675 -0.0067,-0.26859z"/><path d="M299.42954,211.71866c-0.02073,-0.03208 -0.03455,-0.0535 -0.04459,-0.09249c0.04345,-0.07355 0.05236,-0.20059 0.11277,-0.22445c0.06039,-0.02386 0.19435,-0.00426 0.2465,0.05303c0.0905,0.09315 0.06398,0.21641 -0.05682,0.26412c-0.0711,0.03076 -0.16606,0.00114 -0.2579,-0.0002z"/><path d="M316.73153,234.44431c0.0214,-0.01383 0.04279,-0.02765 0.06798,-0.05907c0.07734,0.02584 0.18679,0.03096 0.23894,0.08824c0.0905,0.09315 0.064,0.21643 -0.0392,0.26791c-0.06419,0.04145 -0.20506,0.01116 -0.25032,-0.03542c-0.03456,-0.05348 -0.01874,-0.16984 -0.01741,-0.26167z"/><path d="M310.13024,233.87168c0.08425,0.03656 0.2006,0.05236 0.23516,0.10584c0.04146,0.06419 0.02185,0.19814 -0.03543,0.2503c-0.07553,0.0943 -0.20572,0.05708 -0.2572,-0.04612c-0.03077,-0.0711 -0.00113,-0.16604 0.0002,-0.25787c0.0214,-0.01383 0.0428,-0.02764 0.05728,-0.05215z"/><path d="M328.15485,207.97719c0.06039,-0.02386 0.19435,-0.00425 0.23961,0.04234c0.08359,0.08245 0.05016,0.19503 -0.05303,0.24652c-0.06418,0.04146 -0.15914,0.01183 -0.30379,-0.00087c0.04791,-0.13707 0.06374,-0.25344 0.11722,-0.288z"/><path d="M323.10733,232.29702c0.144,0.05861 0.25342,0.06373 0.28798,0.11722c0.03455,0.05349 0.01493,0.18745 -0.03164,0.23271c-0.07555,0.09429 -0.19883,0.06776 -0.25031,-0.03542c-0.04147,-0.0642 -0.01183,-0.15915 -0.00604,-0.3145z"/><path d="M316.74165,201.33989c0.144,0.05861 0.26035,0.07442 0.2842,0.13482c0.03456,0.05348 -0.00267,0.18366 -0.04924,0.22891c-0.08246,0.08359 -0.20572,0.05708 -0.2465,-0.05303c-0.03077,-0.0711 -0.00112,-0.16606 0.01157,-0.31072z"/><path d="M319.38988,234.07659c0.1157,0.06173 0.22134,0.08446 0.24206,0.11654c0.02386,0.0604 -0.02339,0.15158 -0.03854,0.22201c-0.07734,-0.02584 -0.17988,-0.02027 -0.22512,-0.06686c-0.03835,-0.03588 0.00201,-0.13774 0.02161,-0.2717z"/><path d="M314.48328,234.78968c-0.04413,0.11948 -0.04924,0.22893 -0.09895,0.24587c-0.05348,0.03456 -0.14466,-0.0127 -0.22578,-0.02093c0.00825,-0.08113 0.00267,-0.18366 0.04924,-0.2289c0.03588,-0.03834 0.14845,-0.00491 0.27549,0.00399z"/><path d="M299.88868,225.85596c0.11948,0.04413 0.22512,0.06685 0.24206,0.11654c0.02386,0.06039 -0.02339,0.15156 -0.03854,0.22199c-0.07044,-0.01515 -0.17988,-0.02026 -0.22513,-0.06685c-0.03833,-0.03589 0.00201,-0.13775 0.02162,-0.27171z"/><path d="M305.182,204.07614c0.11947,0.04413 0.24653,0.05304 0.25656,0.09204c0.02386,0.06039 -0.02339,0.15156 -0.04233,0.23959c-0.07044,-0.01515 -0.18367,-0.00266 -0.21822,-0.05615c-0.02764,-0.0428 0.00199,-0.13775 0.00399,-0.27549z"/><path d="M320.87584,202.24767c0.06731,-0.01316 0.15847,0.03409 0.23582,0.05993c-0.02584,0.07735 -0.02028,0.17987 -0.07377,0.21443c-0.05349,0.03455 -0.15536,-0.00579 -0.28241,-0.01468c0.04411,-0.11947 0.05994,-0.23582 0.12034,-0.25967z"/><path d="M331.10009,222.41903c0.03343,-0.11257 0.04546,-0.2113 0.09895,-0.24587c0.06041,-0.02385 0.14466,0.0127 0.2151,0.02785c-0.01515,0.07042 -0.01648,0.16226 -0.05236,0.20061c-0.04657,0.04526 -0.14154,0.01562 -0.26167,0.0174z"/><path d="M297.78669,219.52674c0.11257,0.03342 0.222,0.03855 0.24272,0.07063c0.02385,0.0604 -0.01268,0.14465 -0.02094,0.22578c-0.06354,-0.00445 -0.16605,0.00112 -0.20438,-0.03475c-0.02764,-0.0428 -0.01562,-0.14154 -0.01741,-0.26168z"/><path d="M298.29569,222.42737c-0.0497,0.01693 -0.12326,-0.02652 -0.19369,-0.04166c0.01516,-0.07043 0.01648,-0.16226 0.05927,-0.1899c0.0428,-0.02764 0.12014,-0.00179 0.24718,0.00711c-0.05105,0.10876 -0.06997,0.19681 -0.11277,0.22445z"/><path d="M331.91321,215.55625c0.01693,0.0497 -0.01271,0.14467 -0.04479,0.16539c-0.03208,0.02072 -0.13773,-0.00199 -0.16539,-0.0448c-0.03143,-0.02517 0.0051,-0.10942 0.01021,-0.21887c0.09116,0.04726 0.1723,0.05548 0.19995,0.09827z"/><path d="M298.53537,212.96331c0.02764,0.04279 0.00492,0.14845 -0.02718,0.16917c-0.04279,0.02763 -0.13085,0.0087 -0.16918,-0.02719c-0.03835,-0.03588 -0.01247,-0.11323 -0.00735,-0.22267c0.09496,0.02964 0.18676,0.03096 0.20371,0.08067z"/><path d="M303.31435,231.04212c-0.03208,0.02072 -0.13083,0.0087 -0.15155,-0.02339c-0.02073,-0.03209 -0.00871,-0.13084 0.02339,-0.15157c0.02517,-0.03142 0.10253,-0.00558 0.19435,-0.00425c-0.02964,0.09496 -0.0272,0.16917 -0.0662,0.1792z"/><path d="M329.61819,209.13946c0.08803,0.01895 0.16917,0.0272 0.1792,0.0662c0.02764,0.04279 -0.00512,0.10944 -0.01648,0.16226c-0.05282,-0.01136 -0.13773,-0.002 -0.15846,-0.03408c-0.03143,-0.02518 -0.00559,-0.10253 -0.00426,-0.19435z"/><path d="M332.02126,218.09427c0.08425,0.03656 0.16539,0.0448 0.1792,0.06619c0.02764,0.04279 -0.00512,0.10945 -0.01649,0.16227c-0.05282,-0.01136 -0.13774,-0.00201 -0.15847,-0.03409c-0.03143,-0.02518 -0.00559,-0.10252 -0.00425,-0.19434z"/><path d="M304.82627,232.02137c-0.02586,0.07734 -0.03409,0.15847 -0.07689,0.18612c-0.0497,0.01694 -0.13774,-0.002 -0.15846,-0.03409c-0.02073,-0.03208 0.00199,-0.13775 0.03409,-0.15847c0.04281,-0.02764 0.10945,0.00512 0.20128,0.00645z"/><path d="M297.50946,216.96154c0.07734,0.02584 0.15847,0.03411 0.1792,0.0662c0.02073,0.03208 0.00871,0.13083 -0.02339,0.15157c-0.03208,0.02072 -0.12014,0.00177 -0.15157,-0.0234c-0.02073,-0.03209 -0.00557,-0.10252 -0.00425,-0.19434z"/><path d="M312.94006,200.64183c-0.02586,0.07734 -0.03031,0.14087 -0.0624,0.1616c-0.0321,0.02072 -0.09184,-0.00134 -0.14465,-0.0127c0.01137,-0.05282 -0.00179,-0.12015 0.0303,-0.14087c0.02518,-0.03143 0.08493,-0.00937 0.17676,-0.00804z"/><path d="M331.41155,212.87832c0.07355,0.04345 0.144,0.05861 0.15781,0.08c0.02073,0.03208 -0.01893,0.08804 -0.0303,0.14086c-0.05282,-0.01136 -0.11636,-0.01583 -0.13708,-0.04792c-0.02073,-0.0321 0.00133,-0.09184 0.00957,-0.17297z"/><path d="M329.20769,227.70471c0.07734,0.02585 0.14087,0.03032 0.1616,0.0624c0.02073,0.03208 -0.00134,0.09183 -0.0127,0.14466c-0.05282,-0.01136 -0.12014,0.00178 -0.14086,-0.03031c-0.02073,-0.0321 0.00132,-0.09185 -0.00804,-0.17675z"/><path d="M306.11665,233.17408c0.0321,-0.02073 0.10945,0.00513 0.13018,0.03721c0.02073,0.03208 -0.00513,0.10944 -0.03723,0.13016c-0.0321,0.02073 -0.09873,-0.01203 -0.17986,-0.02026c0.02584,-0.07735 0.04791,-0.13708 0.08691,-0.1471z"/><path d="M322.22232,233.88449c-0.01895,0.08804 -0.03032,0.14086 -0.07311,0.16851c-0.03208,0.02073 -0.11321,0.01247 -0.12703,-0.00891c-0.01693,-0.0497 -0.01249,-0.11323 0.01269,-0.14464c0.0321,-0.02073 0.10254,-0.00558 0.18745,-0.01495z"/><path d="M311.76452,235.18125c0.02073,0.03209 -0.00513,0.10945 -0.02653,0.12327c-0.039,0.01003 -0.12014,0.00177 -0.14086,-0.03032c-0.01383,-0.0214 0.01203,-0.09873 0.02026,-0.17986c0.07357,0.04345 0.144,0.0586 0.14712,0.08692z"/></g><path d="M314.90731,228.88165c-3.25626,-5.04125 -1.80925,-11.76773 3.23201,-15.024c5.04126,-3.25627 11.76773,-1.80925 15.024,3.232c3.25627,5.04126 1.80924,11.76773 -3.23201,15.024c-5.04126,3.25627 -11.76773,1.80925 -15.024,-3.232z" fill="none" stroke="#000000" stroke-width="1" stroke-linecap="butt"/><path d="M313.71728,229.65031c-3.68079,-5.69848 -2.04512,-13.3019 3.65336,-16.9827c5.69848,-3.6808 13.30189,-2.04511 16.98269,3.65337c3.68079,5.6985 2.04513,13.3019 -3.65335,16.98269c-5.69849,3.6808 -13.30189,2.04513 -16.98269,-3.65335z" fill="none" stroke="#000000" stroke-width="1" stroke-linecap="butt"/><path d="M331.60839,234.71006c-6.47522,4.1825 -15.115,2.32389 -19.29749,-4.15133c-4.18249,-6.47522 -2.32389,-15.115 4.15132,-19.2975c6.47522,-4.1825 15.11501,-2.32388 19.2975,4.15133c4.18249,6.47522 2.32389,15.11499 -4.15134,19.29749z" fill="none" stroke="#000000" stroke-width="1" stroke-linecap="butt"/><path d="M316.53007,227.83346c-2.67738,-4.14504 -1.48762,-9.67568 2.65741,-12.35307c4.14502,-2.67737 9.6757,-1.48761 12.35308,2.65742c2.67738,4.14504 1.48761,9.67569 -2.65743,12.35307c-4.14502,2.67737 -9.67568,1.48761 -12.35307,-2.65742z" fill="#000000" stroke="#000000" stroke-width="1" stroke-linecap="butt"/><path d="M306.23909,251.69081c0,0 -7.44357,-7.6074 -10.17045,-11.82906c-2.53495,-3.92452 -5.65703,-12.67456 -5.65703,-12.67456l3.24551,-2.09635l15.82749,24.50362l-3.24551,2.09635z" fill="#393912" stroke="none" stroke-width="0" stroke-linecap="butt"/><path d="M331.79201,217.60728l-2.69061,-4.40286l71.12126,-43.9423c0,0 0.76075,-0.81204 1.20015,-1.93902c0.51691,-1.32581 0.79417,-3.04338 1.87776,-3.73942c1.96729,-1.2637 4.57138,-1.76567 6.33262,-2.75267c4.15343,-2.32756 6.83774,-4.5358 8.56448,-5.54319c1.67689,-0.97829 1.80009,0.67168 2.56319,1.78463c0.67934,0.99076 2.09028,1.4109 2.09028,1.4109l0.20271,0.31382c0,0 -0.19721,1.4589 0.42653,2.48556c0.70069,1.15327 2.15405,1.94409 0.57274,3.07033c-1.62833,1.15973 -4.74504,2.69853 -8.57468,5.52741c-1.62395,1.19958 -3.15235,3.36688 -5.11324,4.64048c-1.08007,0.7015 -2.7597,0.24794 -4.18079,0.17393c-1.20798,-0.06291 -2.26101,0.29663 -2.26101,0.29663l-69.30123,46.75999l-2.90696,-4.26313z" data-paper-data="{&quot;index&quot;:null}" fill="#393912" stroke="none" stroke-width="0" stroke-linecap="round"/><g fill="#dfe0e2" stroke="none" stroke-width="0" stroke-linecap="butt"><g><path d="M421.15196,169.8573c-1.86898,1.15488 -1.90606,-0.19154 -2.2534,-0.72928c-0.34734,-0.53773 1.67948,-1.54479 2.50848,-2.08026c0.82901,-0.53547 1.44744,1.75754 -0.25508,2.80954z"/><path d="M418.60935,166.90005l0.97365,-0.62892l1.25783,1.94731l-0.97365,0.62892z"/></g><g><path d="M417.12034,170.73657c0.829,-0.53547 1.44744,1.75753 -0.25508,2.80953c-1.869,1.15488 -1.90608,-0.19155 -2.2534,-0.72929c-0.34734,-0.53773 1.67947,-1.54477 2.50848,-2.08024z"/><path d="M414.32263,170.58886l0.97365,-0.62891l1.25782,1.94731l-0.97366,0.62889z"/></g><g><path d="M412.50905,174.63505c0.82901,-0.53547 1.44744,1.75754 -0.25508,2.80954c-1.869,1.15488 -1.90607,-0.19154 -2.2534,-0.72929c-0.34734,-0.53773 1.67948,-1.54476 2.5085,-2.08025z"/><path d="M409.71137,174.4873l0.97365,-0.62891l1.25781,1.9473l-0.97365,0.62891z"/></g></g><g data-paper-data="{&quot;index&quot;:null}" fill="#dfe0e2" stroke="none" stroke-width="0" stroke-linecap="butt"><g><path d="M414.54177,156.41918c-0.829,0.53547 -2.58041,1.96889 -2.92774,1.43114c-0.34734,-0.53773 -1.55939,-1.12519 0.26186,-2.35395c1.65905,-1.11931 3.49488,0.38734 2.66588,0.92281z"/><path d="M412.26817,157.08283l0.97366,-0.62891l1.25782,1.94731l-0.97365,0.6289z"/></g><g><path d="M409.41652,158.80976c-0.82901,0.53547 -2.58042,1.96888 -2.92777,1.43114c-0.34734,-0.53773 -1.55939,-1.12518 0.26186,-2.35394c1.65905,-1.11931 3.49489,0.38734 2.66589,0.92281z"/><path d="M407.14289,159.47342l0.97365,-0.62891l1.25782,1.94731l-0.97365,0.62891z"/></g><g><path d="M401.3008,160.48724c1.65905,-1.11931 3.4949,0.38734 2.6659,0.92281c-0.82901,0.53547 -2.58042,1.96888 -2.92776,1.43114c-0.34734,-0.53773 -1.5594,-1.12521 0.26186,-2.35396z"/><path d="M401.69309,162.07367l0.97366,-0.6289l1.25782,1.94731l-0.97365,0.62889z"/></g></g><path d="M418.47738,164.91547c-0.37629,-0.58255 -0.20907,-1.35982 0.37348,-1.7361c0.58255,-0.37629 1.35983,-0.20907 1.73609,0.37348c0.37629,0.58255 0.20908,1.35982 -0.37347,1.73611c-0.58255,0.37629 -1.35983,0.20907 -1.73611,-0.37348z" fill="#dfe0e2" stroke="none" stroke-width="0" stroke-linecap="butt"/><path d="M415.28044,159.96606c-0.37629,-0.58255 -0.20907,-1.35983 0.37348,-1.7361c0.58255,-0.37629 1.35983,-0.20907 1.73611,0.37348c0.37629,0.58255 0.20907,1.35983 -0.37348,1.7361c-0.58255,0.37629 -1.35983,0.20907 -1.73611,-0.37348z" fill="#dfe0e2" stroke="none" stroke-width="0" stroke-linecap="butt"/><path d="M410.1214,162.83846c-0.37629,-0.58255 -0.20909,-1.35982 0.37346,-1.7361c0.58255,-0.37629 1.35982,-0.20908 1.73611,0.37348c0.37629,0.58255 0.20907,1.35983 -0.37348,1.73611c-0.58255,0.37629 -1.35983,0.20907 -1.73609,-0.37348z" fill="#dfe0e2" stroke="none" stroke-width="0" stroke-linecap="butt"/><path d="M404.61918,165.35754c-0.37629,-0.58255 -0.20908,-1.35982 0.37347,-1.7361c0.58255,-0.37629 1.35982,-0.20907 1.7361,0.37348c0.37629,0.58255 0.20907,1.35982 -0.37348,1.73609c-0.58255,0.37629 -1.35982,0.20907 -1.7361,-0.37348z" fill="#dfe0e2" stroke="none" stroke-width="0" stroke-linecap="butt"/><path d="M413.65648,168.48937c-0.37629,-0.58255 -0.20907,-1.35982 0.37348,-1.7361c0.58255,-0.37629 1.35982,-0.20908 1.73611,0.37347c0.37629,0.58255 0.20907,1.35983 -0.37348,1.73611c-0.58255,0.37629 -1.35983,0.20907 -1.73611,-0.37348z" fill="#dfe0e2" stroke="none" stroke-width="0" stroke-linecap="butt"/><path d="M408.91162,172.35911c-0.37629,-0.58255 -0.20907,-1.35983 0.37348,-1.73611c0.58255,-0.37629 1.35983,-0.20908 1.73612,0.37348c0.37629,0.58255 0.20907,1.35983 -0.37348,1.73611c-0.58255,0.37629 -1.35981,0.20908 -1.7361,-0.37347z" fill="#dfe0e2" stroke="none" stroke-width="0" stroke-linecap="butt"/><g fill="none" stroke="#dfe0e2" stroke-width="0.5" stroke-linecap="round"><path d="M301.27815,243.35651c0,0 33.13466,-22.54483 50.54835,-34.04689c18.53387,-12.24197 57.50395,-37.32369 57.50395,-37.32369"/><path d="M299.92185,241.86708c0,0 33.54647,-22.04764 51.54211,-33.73382c19.76603,-12.83585 62.24205,-40.15638 62.24205,-40.15638"/><path d="M298.65826,240.31774c0,0 48.17507,-32.04337 69.17076,-45.30616c13.96473,-8.8214 35.13666,-21.69433 45.14228,-27.5582c3.43709,-2.01433 5.715,-2.95622 5.715,-2.95622"/></g><g data-paper-data="{&quot;index&quot;:null}" fill="none" stroke="#dfe0e2" stroke-width="0.5" stroke-linecap="round"><path d="M405.3639,165.84506c0,0 -38.88804,25.20871 -57.66848,37.06895c-17.64535,11.1434 -51.8213,32.07614 -51.8213,32.07614"/><path d="M410.82913,162.70918c0,0 -3.84846,2.83133 -9.80396,6.7916c-13.73888,9.13605 -38.57411,25.34051 -52.40655,34.22744c-18.05247,11.59817 -51.94456,33.11073 -51.94456,33.11073"/><path d="M416.03748,160.39633c0,0 -1.79529,1.68909 -5.04482,3.99381c-9.45961,6.70917 -29.90001,20.71467 -43.68357,29.81655c-20.72327,13.68451 -69.74237,44.42118 -69.74237,44.42118"/></g><path d="M296.38145,232.33409l7.03637,11.78361" fill="none" stroke="#dfe0e2" stroke-width="0.5" stroke-linecap="round"/><g fill="#dfe0e2" stroke="none" stroke-width="0" stroke-linecap="butt"><path d="M301.5025,244.42972c-0.43997,0.28418 -1.027,0.15791 -1.31119,-0.28208c-0.28418,-0.43996 -0.1579,-1.02701 0.28207,-1.31119c0.43997,-0.28418 1.027,-0.15791 1.31119,0.28208c0.28419,0.43997 0.1579,1.027 -0.28207,1.31118z"/><path d="M298.93351,242.20033c-0.28418,-0.43995 -0.15791,-1.027 0.28207,-1.31118c0.43997,-0.28418 1.02698,-0.1579 1.31118,0.28207c0.28418,0.43996 0.15791,1.027 -0.28207,1.31118c-0.43994,0.28418 -1.02698,0.1579 -1.31118,-0.28207z"/></g><path d="M294.55021,235.41426c-0.28418,-0.43995 -0.15791,-1.027 0.28207,-1.31118c0.43997,-0.28418 1.027,-0.15791 1.31119,0.28207c0.28419,0.43997 0.1579,1.027 -0.28207,1.31118c-0.43994,0.28418 -1.02699,0.15791 -1.31118,-0.28206z" fill="#dfe0e2" stroke="none" stroke-width="0" stroke-linecap="butt"/><path d="M296.09009,236.05038c0.43997,-0.28418 1.02698,-0.1579 1.31118,0.28207c0.28418,0.43996 0.15791,1.027 -0.28206,1.31118c-0.43994,0.28418 -1.02699,0.15791 -1.31118,-0.28205c-0.28418,-0.43996 -0.1579,-1.02702 0.28206,-1.3112z" fill="#dfe0e2" stroke="none" stroke-width="0" stroke-linecap="butt"/><path d="M297.2692,237.714c0.36663,-0.23681 0.85583,-0.13158 1.09265,0.23506c0.23682,0.36663 0.13158,0.85585 -0.23505,1.09266c-0.36664,0.2368 -0.85583,0.13157 -1.09265,-0.23507c-0.23682,-0.36663 -0.13158,-0.85584 0.23506,-1.09265z" fill="#dfe0e2" stroke="none" stroke-width="0" stroke-linecap="butt"/><path d="M298.31738,239.33676c0.36664,-0.23681 0.85584,-0.13159 1.09266,0.23504c0.23682,0.36663 0.13157,0.85584 -0.23506,1.09266c-0.36663,0.23681 -0.85583,0.13159 -1.09265,-0.23505c-0.23682,-0.36663 -0.13159,-0.85584 0.23505,-1.09265z" fill="#dfe0e2" stroke="none" stroke-width="0" stroke-linecap="butt"/><g fill="#7d7d00" stroke="none" stroke-width="1" stroke-linecap="butt"><path d="M276.47909,229.40185c0.02573,-1.16126 0.60716,-1.81664 1.03033,-1.16153l11.5643,17.9035c0.29563,0.45769 0.36505,1.39215 0.15663,2.07367l-0.50677,1.63733c-0.20842,0.68152 -0.13899,1.61598 0.15664,2.07367l4.45181,6.89217c0.29563,0.45769 0.36505,1.39216 0.15661,2.07368l-0.50995,1.65211c-0.20842,0.68152 -0.62592,0.86216 -0.92154,0.40449l-11.12955,-17.23043c-0.19129,-0.29615 -0.29377,-0.78957 -0.27437,-1.31083l0.13098,-4.12905c0.0194,-0.52126 -0.08887,-1.02367 -0.27437,-1.31084l-3.83158,-5.93194c-0.19129,-0.29615 -0.29377,-0.78954 -0.27438,-1.31081z"/></g></g><path d="M341.60756,236.26195c0,7.62607 -5.84798,13.80822 -13.06182,13.80822c-7.21385,0 -13.06183,-6.18215 -13.06183,-13.80822c0,-7.62607 5.84798,-13.80821 13.06183,-13.80821c7.21385,0 13.06183,6.18214 13.06183,13.80821z" fill="#ecec60" stroke="#000000" stroke-width="2" stroke-linecap="butt"/><path d="M406.94442,180.76992c0,7.9549 -5.84798,14.40361 -13.06183,14.40361c-7.21385,0 -13.06182,-6.44872 -13.06182,-14.40361c0,-7.9549 5.84798,-14.4036 13.06183,-14.4036c7.21385,0 13.06183,6.44871 13.06183,14.4036z" fill="#ecec60" stroke="#000000" stroke-width="2" stroke-linecap="butt"/></g></g></svg>