<svg version="1.1" xmlns="http://www.w3.org/2000/svg" xmlns:xlink="http://www.w3.org/1999/xlink" width="190.66666" height="307.43154" viewBox="0,0,190.66666,307.43154"><defs><linearGradient x1="324.02068" y1="3.30108" x2="320.41333" y2="37.72456" gradientUnits="userSpaceOnUse" id="color-1"><stop offset="0" stop-color="#c4c456"/><stop offset="1" stop-color="#e3e364"/></linearGradient></defs><g transform="translate(-225.90294,0.91717)"><g data-paper-data="{&quot;isPaintingLayer&quot;:true}" fill-rule="nonzero" stroke-linejoin="miter" stroke-miterlimit="10" stroke-dasharray="" stroke-dashoffset="0" style="mix-blend-mode: normal"><path d="M286.4263,305.51436l15.14285,-128.46596l37.78325,-0.15385l13.57389,128.61982z" fill="#c6c657" stroke="#000000" stroke-width="2" stroke-linecap="butt"/><path d="M299.0384,204.77448l3.12142,-25.65347l35.83075,-0.13839l2.76735,25.43739c0,0 -7.51543,4.08858 -21.55904,4.39416c-12.48458,0.27165 -20.16049,-4.0397 -20.16049,-4.0397z" fill="#9e9e45" stroke="#000000" stroke-width="0" stroke-linecap="butt"/><path d="M255.17808,142.45518c0,-32.44907 28.7599,-58.75424 64.23702,-58.75424c35.47712,0 64.23702,26.30518 64.23702,58.75424c0,32.44907 -28.7599,58.75424 -64.23702,58.75424c-35.47712,0 -64.23702,-26.30518 -64.23702,-58.75424z" fill="#c6c657" stroke="#000000" stroke-width="2" stroke-linecap="butt"/><path d="M255.90114,142.50764c0,-0.70935 5.20666,54.48744 63.36046,55.47635c55.56352,0.94487 63.51358,-56.46911 63.51358,-55.47635c0,31.96474 -28.40173,57.87729 -63.43702,57.87729c-35.03529,0 -63.43702,-25.91255 -63.43702,-57.87729z" fill="#9e9e45" stroke="#000000" stroke-width="0" stroke-linecap="butt"/><path d="M268.72831,142.87365c0,-12.63592 10.51265,-22.87937 23.48065,-22.87937c12.968,0 23.48065,10.24345 23.48065,22.87937c0,12.63592 -10.51265,22.87937 -23.48065,22.87937c-12.968,0 -23.48065,-10.24345 -23.48065,-22.87937z" fill="#ffffff" stroke="#000000" stroke-width="2" stroke-linecap="butt"/><path d="M275.1318,148.77122c0,-8.89433 7.39976,-16.1046 16.52783,-16.1046c9.12808,0 16.52784,7.21028 16.52784,16.1046c0,8.89433 -7.39977,16.1046 -16.52784,16.1046c-9.12808,0 -16.52783,-7.21028 -16.52783,-16.1046z" fill="#000000" stroke="none" stroke-width="0" stroke-linecap="butt"/><path d="M332.5548,183.2141h-25.10959" fill="none" stroke="#000000" stroke-width="2" stroke-linecap="round"/><path d="M346.46738,165.75301c-12.968,0 -23.48065,-10.24345 -23.48065,-22.87937c0,-12.63592 10.51265,-22.87937 23.48065,-22.87937c12.968,0 23.48065,10.24345 23.48065,22.87937c0,12.63592 -10.51265,22.87937 -23.48065,22.87937z" data-paper-data="{&quot;index&quot;:null}" fill="#ffffff" stroke="#000000" stroke-width="2" stroke-linecap="butt"/><path d="M347.0167,164.87583c-9.12807,0 -16.52783,-7.21028 -16.52783,-16.1046c0,-8.89433 7.39977,-16.1046 16.52783,-16.1046c9.12807,0 16.52783,7.21028 16.52783,16.1046c0,8.89433 -7.39977,16.1046 -16.52783,16.1046z" data-paper-data="{&quot;index&quot;:null}" fill="#000000" stroke="none" stroke-width="0" stroke-linecap="butt"/><path d="M281.366,111.87972c0,0 6.70895,-5.03685 11.79721,-6.2006c5.08827,-1.16375 12.33413,0.68146 12.33413,0.68146c0,0 -8.03812,-0.05874 -11.96762,0.83999c-4.10648,0.93921 -12.16372,4.67914 -12.16372,4.67914z" fill="#000000" stroke="none" stroke-width="0" stroke-linecap="butt"/><path d="M345.30048,107.20059c-3.9295,-0.89873 -11.96762,-0.83999 -11.96762,-0.83999c0,0 7.24586,-1.84521 12.33413,-0.68146c5.08826,1.16375 11.79721,6.2006 11.79721,6.2006c0,0 -8.05724,-3.73993 -12.16372,-4.67914z" data-paper-data="{&quot;index&quot;:null}" fill="#000000" stroke="none" stroke-width="0" stroke-linecap="butt"/><path d="M268.64495,142.96372c0,-12.63593 10.51265,-22.87937 23.48066,-22.87937c12.96801,0 23.48065,10.24344 23.48065,22.87937c0,0 -6.95852,-14.27128 -23.43307,-14.41009c-16.22494,-0.1367 -23.52823,15.01091 -23.52823,14.41009z" fill="#c6c657" stroke="#000000" stroke-width="2" stroke-linecap="butt"/><path d="M322.98674,142.86627c0,-12.63593 10.51264,-22.87937 23.48065,-22.87937c12.96801,0 23.48066,10.24344 23.48066,22.87937c0,0.59054 -7.87275,-14.01603 -22.92496,-14.4025c-15.05221,-0.38646 -24.03635,14.4025 -24.03635,14.4025z" data-paper-data="{&quot;index&quot;:null}" fill="#c6c657" stroke="#000000" stroke-width="2" stroke-linecap="butt"/><path d="M257.22117,126.82094c7.94486,-24.19909 32.48735,-41.83015 61.53205,-41.83015c29.4708,0 54.30633,18.15217 61.87097,42.8994c0.54933,1.7971 1.98343,21.50714 -63.62097,21.2611c-61.22902,-0.22964 -59.78205,-22.33035 -59.78205,-22.33035z" fill-opacity="0.20156" fill="#000000" stroke="#000000" stroke-width="0" stroke-linecap="butt"/><path d="M415.5696,99.54798c0,10.04531 -42.23447,18.18865 -94.33333,18.18865c-52.09886,0 -94.33333,-8.14334 -94.33333,-18.18865c0,-10.04531 42.23447,-23.06062 94.33333,-23.06062c52.09886,0 94.33333,13.0153 94.33333,23.06062z" fill="#c6c657" stroke="#000000" stroke-width="2" stroke-linecap="butt"/><path d="M322.27622,77.82205c7.21196,0 13.94953,0.36868 19.67189,1.00786c0.67244,0.07511 -16.05768,10.0377 -16.05768,10.0377l-6.0776,0.14469z" data-paper-data="{&quot;index&quot;:null}" fill="#ffffff" stroke="#000000" stroke-width="0" stroke-linecap="butt"/><path d="M320.73626,116.08539c-17.46017,0 -33.77183,-0.89256 -47.62564,-2.44003c-1.62799,-0.18185 38.87564,-24.30125 38.87564,-24.30125l14.71387,-0.35027z" fill="#ffffff" stroke="#000000" stroke-width="0" stroke-linecap="butt"/><path d="M319.03778,89.70369c-4.2434,0.16239 -6.67593,-1.2992 -6.67593,-1.2992l3.09945,-39.22463c0,0 -0.29352,-5.47035 -3.20818,-4.03097c-2.64211,1.30479 -8.62109,4.62489 -8.62109,4.62489c0,0 3.29811,-7.15704 7.31197,-9.58523c3.05409,-1.84757 7.78452,2.20838 7.78452,2.20838c0,0 5.14388,-4.5825 9.17263,-2.50621c5.02464,2.58956 8.98012,9.69933 8.98012,9.69933c0,0 -7.72635,-4.21396 -10.92266,-5.37683c-3.98086,-1.44832 -3.20744,5.16925 -3.20744,5.16925l2.86068,39.02202c0,0 -2.90601,1.15882 -6.57407,1.2992z" data-paper-data="{&quot;index&quot;:null}" fill="#c6c657" stroke="#000000" stroke-width="2" stroke-linecap="butt"/><path d="M318.51182,37.53538c-1.6597,-0.16513 -4.30343,-0.42817 -4.30343,-0.42817l9.71221,-33.81609l2.69768,35.05081c0,0 -5.82855,-0.57991 -8.10646,-0.80655z" data-paper-data="{&quot;index&quot;:null}" fill="url(#color-1)" stroke="#89893c" stroke-width="1.5" stroke-linecap="butt"/><g data-paper-data="{&quot;index&quot;:null}" stroke="#89893c" stroke-width="1.4"><path d="M304.33291,39.67187l0.66424,-6.33861l32.12561,3.19633l-0.66424,6.33861z" fill="#c4c456" stroke-linecap="butt"/><g><path d="M297.13726,48.9219c0,0 -1.11434,-2.29972 -0.92747,-5.62424c0.16939,-3.01334 2.08369,-5.40911 2.08369,-5.40911l42.93422,4.27174c0,0 0.87828,2.07051 0.90849,5.80534c0.01803,2.22932 -2.0647,5.22801 -2.0647,5.22801z" fill="#c4c456" stroke-linecap="butt"/><path d="M335.04931,41.84117c0,0 0.64188,3.52452 0.4694,5.17046c-0.18439,1.75957 -1.54241,5.06883 -1.54241,5.06883" fill="none" stroke-linecap="round"/><path d="M302.78207,48.6812c0,0 -0.54503,-2.79251 -0.40508,-4.27782c0.15826,-1.67962 1.30647,-5.2888 1.30647,-5.2888" fill="none" stroke-linecap="round"/><path d="M324.38976,41.27327c0,0 0.37223,3.79447 0.18223,5.43794c-0.16755,1.44926 -1.26335,3.91374 -1.26335,3.91374" fill="none" stroke-linecap="round"/><path d="M312.79005,49.67695c0,0 -0.51097,-2.84399 -0.35101,-4.37041c0.16677,-1.59142 1.33204,-4.99123 1.33204,-4.99123" fill="none" stroke-linecap="round"/></g></g><path d="M292.96645,259.94445l1.99382,-15.11891h50.12658l2.27865,15.67398z" fill="#d3d35d" stroke="none" stroke-width="0" stroke-linecap="butt"/><text transform="translate(296.57704,255.39625) scale(0.28152,0.27431)" font-size="40" xml:space="preserve" fill="#85853a" fill-rule="nonzero" stroke="none" stroke-width="1" stroke-linecap="butt" stroke-linejoin="miter" stroke-miterlimit="10" stroke-dasharray="" stroke-dashoffset="0" font-family="Sans Serif" font-weight="normal" text-anchor="start" style="mix-blend-mode: normal"><tspan x="0" dy="0">Mustard</tspan></text></g></g></svg>