<svg version="1.1" xmlns="http://www.w3.org/2000/svg" xmlns:xlink="http://www.w3.org/1999/xlink" width="172.6386" height="266.28291" viewBox="0,0,172.6386,266.28291"><g transform="translate(-232.50267,-41.35703)"><g data-paper-data="{&quot;isPaintingLayer&quot;:true}" fill-rule="nonzero" stroke-linejoin="miter" stroke-miterlimit="10" stroke-dasharray="" stroke-dashoffset="0" style="mix-blend-mode: normal"><path d="M356.33452,114.17774c-5.87511,-5.01481 -6.40048,-14.18469 -1.17345,-20.48147c5.22703,-6.29678 47.61866,-35.46917 47.61866,-35.46917c0,0 -21.11598,47.33263 -26.343,53.62941c-5.22703,6.29679 -14.2271,7.33603 -20.10221,2.32122z" data-paper-data="{&quot;index&quot;:null}" fill="#989843" stroke="#000000" stroke-width="2" stroke-linecap="butt"/><path d="M261.20722,111.85651c-5.22703,-6.29678 -26.343,-53.62941 -26.343,-53.62941c0,0 42.39164,29.17238 47.61867,35.46917c5.22703,6.29679 4.70166,15.46666 -1.17345,20.48147c-5.87511,5.01481 -14.87518,3.97556 -20.10221,-2.32122z" fill="#989843" stroke="#000000" stroke-width="2" stroke-linecap="butt"/><path d="M285.16239,306.63993l14.93332,-131.8421l37.26044,-0.15789l13.38607,132z" fill="#c5c556" stroke="#000000" stroke-width="2" stroke-linecap="butt"/><path d="M297.93343,203.25256l3.07823,-26.32765l35.33495,-0.14203l2.72906,26.1059c0,0 -7.41144,4.19603 -21.26072,4.50964c-12.31183,0.27879 -19.88153,-4.14586 -19.88153,-4.14586z" fill="#acac4c" stroke="#000000" stroke-width="0" stroke-linecap="butt"/><path d="M254.67186,127.15081c0,-33.30185 28.36195,-60.29833 63.34816,-60.29833c34.98622,0 63.34816,26.99649 63.34816,60.29833c0,33.30185 -28.36195,60.29833 -63.34816,60.29833c-34.98622,0 -63.34816,-26.99649 -63.34816,-60.29833z" fill="#c5c556" stroke="#000000" stroke-width="2" stroke-linecap="butt"/><path d="M255.97393,126.61562c0,-0.72799 5.13461,55.91939 62.48373,56.93429c54.79468,0.9697 62.63473,-57.95314 62.63473,-56.93429c0,32.80479 -28.00873,59.39833 -62.55923,59.39833c-34.5505,0 -62.55923,-26.59354 -62.55923,-59.39833z" fill="#acac4c" stroke="#000000" stroke-width="0" stroke-linecap="butt"/><path d="M268.62359,126.99125c0,-12.968 10.36718,-23.48065 23.15574,-23.48065c12.78856,0 23.15574,10.51265 23.15574,23.48065c0,12.968 -10.36718,23.48065 -23.15574,23.48065c-12.78856,0 -23.15574,-10.51265 -23.15574,-23.48065z" fill="#acac4c" stroke="#000000" stroke-width="2" stroke-linecap="butt"/><path d="M345.28699,150.47189c-12.78856,0 -23.15574,-10.51265 -23.15574,-23.48065c0,-12.968 10.36718,-23.48065 23.15574,-23.48065c12.78856,0 23.15574,10.51265 23.15574,23.48065c0,12.968 -10.36718,23.48065 -23.15574,23.48065z" data-paper-data="{&quot;index&quot;:null}" fill="#acac4c" stroke="#000000" stroke-width="2" stroke-linecap="butt"/><path d="M281.64814,94.13421c0,0 11.81569,0.17225 18.39735,3.32147c6.58167,3.14922 12.81653,11.61385 12.81653,11.61385c0,0 -8.69773,-7.1308 -13.78055,-9.56283c-5.31174,-2.54156 -17.43334,-5.37249 -17.43334,-5.37249z" fill="#000000" stroke="none" stroke-width="0" stroke-linecap="butt"/><path d="M336.31891,98.41157c-4.96583,2.66114 -13.32644,10.1805 -13.32644,10.1805c0,0 5.83848,-8.73925 12.26869,-12.18514c6.43019,-3.44589 18.22688,-4.15714 18.22688,-4.15714c0,0 -11.97963,3.38077 -17.16913,6.16177z" data-paper-data="{&quot;index&quot;:null}" fill="#000000" stroke="none" stroke-width="0" stroke-linecap="butt"/><path d="M309.59739,68.77797c0,-3.51131 8.97408,-24.84221 8.97408,-24.84221c0,0 8.97408,21.33091 8.97408,24.84221c0,3.51131 -4.01783,6.35779 -8.97408,6.35779c-4.95625,0 -8.97408,-2.84648 -8.97408,-6.35779z" fill="#989843" stroke="#000000" stroke-width="2" stroke-linecap="butt"/><path d="M343.15388,74.97719c1.35421,-3.23165 17.84028,-19.30482 17.84028,-19.30482c0,0 0.03262,23.19088 -1.32159,26.42253c-1.35421,3.23165 -6.14985,4.25807 -10.71136,2.29257c-4.56152,-1.9655 -7.16153,-6.17862 -5.80734,-9.41027z" fill="#989843" stroke="#000000" stroke-width="2" stroke-linecap="butt"/><path d="M290.39904,84.05414c-4.56152,1.9655 -9.35716,0.93908 -10.71137,-2.29257c-1.35421,-3.23165 -1.32159,-26.42253 -1.32159,-26.42253c0,0 16.48607,16.07317 17.84028,19.30482c1.35421,3.23165 -1.24582,7.44477 -5.80733,9.41027z" data-paper-data="{&quot;index&quot;:null}" fill="#989843" stroke="#000000" stroke-width="2" stroke-linecap="butt"/><path d="M309.57024,164.01599c0,0 5.32251,-4.52313 9.48675,-4.52313c4.20523,0 9.73266,4.52313 9.73266,4.52313" fill="none" stroke="#000000" stroke-width="2" stroke-linecap="round"/></g></g></svg>