<svg version="1.1" xmlns="http://www.w3.org/2000/svg" xmlns:xlink="http://www.w3.org/1999/xlink" width="148.46779" height="326.2415" viewBox="0,0,148.46779,326.2415"><g transform="translate(-255.31702,15.29281)"><g data-paper-data="{&quot;isPaintingLayer&quot;:true}" fill-rule="nonzero" stroke-linejoin="miter" stroke-miterlimit="10" stroke-dasharray="" stroke-dashoffset="0" style="mix-blend-mode: normal"><path d="M287.81614,309.94868l15.14285,-131.8421l37.78325,-0.15789l13.57389,132z" fill="#959541" stroke="#000000" stroke-width="2" stroke-linecap="butt"/><path d="M300.76636,206.56131l3.12142,-26.32765l35.83075,-0.14203l2.76735,26.1059c0,0 -7.51543,4.19603 -21.55904,4.50964c-12.48458,0.27879 -20.16049,-4.14586 -20.16049,-4.14586z" fill="#7d7d37" stroke="#000000" stroke-width="0" stroke-linecap="butt"/><path d="M256.31702,134.58269c0,-33.30185 28.7599,-60.29833 64.23702,-60.29833c35.47712,0 64.23702,26.99649 64.23702,60.29833c0,33.30185 -28.7599,60.29833 -64.23702,60.29833c-35.47712,0 -64.23702,-26.99649 -64.23702,-60.29833z" fill="#959541" stroke="#000000" stroke-width="2" stroke-linecap="butt"/><path d="M257.04008,134.63653c0,-0.72799 5.20666,55.91939 63.36046,56.93429c55.56352,0.9697 63.51358,-57.95314 63.51358,-56.93429c0,32.80479 -28.40173,59.39833 -63.43702,59.39833c-35.03529,0 -63.43702,-26.59354 -63.43702,-59.39833z" fill="#7d7d37" stroke="#000000" stroke-width="0" stroke-linecap="butt"/><path d="M269.86725,135.01216c0,-12.968 10.51265,-23.48065 23.48065,-23.48065c12.968,0 23.48065,10.51265 23.48065,23.48065c0,12.968 -10.51265,23.48065 -23.48065,23.48065c-12.968,0 -23.48065,-10.51265 -23.48065,-23.48065z" fill="#ffffff" stroke="#000000" stroke-width="2" stroke-linecap="butt"/><path d="M270.43262,136.98653c0,-9.12808 7.39976,-16.52784 16.52783,-16.52784c9.12808,0 16.52784,7.39977 16.52784,16.52784c0,9.12808 -7.39977,16.52784 -16.52784,16.52784c-9.12808,0 -16.52783,-7.39977 -16.52783,-16.52784z" fill="#000000" stroke="none" stroke-width="0" stroke-linecap="butt"/><path d="M333.0937,170.85885h-25.10959" fill="none" stroke="#000000" stroke-width="2" stroke-linecap="round"/><path d="M347.60632,158.4928c-12.968,0 -23.48065,-10.51265 -23.48065,-23.48065c0,-12.968 10.51265,-23.48065 23.48065,-23.48065c12.968,0 23.48065,10.51265 23.48065,23.48065c0,12.968 -10.51265,23.48065 -23.48065,23.48065z" data-paper-data="{&quot;index&quot;:null}" fill="#ffffff" stroke="#000000" stroke-width="2" stroke-linecap="butt"/><path d="M353.99376,148.76437c-9.12807,0 -16.52783,-7.39977 -16.52783,-16.52784c0,-9.12808 7.39977,-16.52784 16.52783,-16.52784c9.12807,0 16.52783,7.39977 16.52783,16.52784c0,9.12808 -7.39977,16.52784 -16.52783,16.52784z" data-paper-data="{&quot;index&quot;:null}" fill="#000000" stroke="none" stroke-width="0" stroke-linecap="butt"/><path d="M282.50493,106.20369c0,0 6.70895,-5.16922 11.79721,-6.36355c5.08827,-1.19433 12.33413,0.69937 12.33413,0.69937c0,0 -8.03812,-0.06028 -11.96762,0.86207c-4.10648,0.96389 -12.16372,4.80211 -12.16372,4.80211z" fill="#000000" stroke="none" stroke-width="0" stroke-linecap="butt"/><path d="M346.43942,101.40159c-3.9295,-0.92235 -11.96762,-0.86207 -11.96762,-0.86207c0,0 7.24586,-1.8937 12.33413,-0.69937c5.08826,1.19433 11.79721,6.36355 11.79721,6.36355c0,0 -8.05724,-3.83822 -12.16372,-4.80211z" data-paper-data="{&quot;index&quot;:null}" fill="#000000" stroke="none" stroke-width="0" stroke-linecap="butt"/><path d="M306.12734,79.81545c-0.8299,-5.31263 -0.63494,-38.40438 -0.63494,-38.40438c0,0 10.27804,31.45577 11.10793,36.76838" fill="#804400" stroke="#000000" stroke-width="2" stroke-linecap="butt"/><g stroke="#000000"><path d="M395.85548,6.1558l-14.15766,106.2957c0,0 -24.41392,2.57744 -55.53299,-6.68677c-30.27446,-9.01277 -45.23014,-19.3497 -45.23014,-19.3497l40.06819,-99.60061c0,0 15.54935,-3.91446 40.32737,2.97705c24.047,6.6882 34.52525,16.36434 34.52525,16.36434z" fill="#333333" stroke-width="2" stroke-linecap="butt"/><path d="M395.85548,6.1558l-14.15766,106.2957c0,0 -24.41392,2.57744 -55.53299,-6.68677c-30.27446,-9.01277 -45.23014,-19.3497 -45.23014,-19.3497l40.06819,-99.60061c0,0 23.9444,10.3473 36.29199,13.53783c12.59825,3.25529 38.56063,5.80355 38.56063,5.80355z" fill="#7d7d37" stroke-width="2" stroke-linecap="butt"/><path d="M381.04401,111.70768c0,0 17.63299,21.24596 -14.62625,27.62659c-36.95914,7.31025 -85.84303,-52.81934 -85.84303,-52.81934" fill="none" stroke-width="2" stroke-linecap="round"/><path d="M394.72351,7.02577l-13.68915,104.69919c0,0 -26.85699,1.36967 -56.25084,-7.38094c-28.59606,-8.51311 -42.62113,-18.45751 -42.62113,-18.45751l5.26819,-13.09555c0,0 20.32297,29.8582 56.73846,21.38801c33.91899,-7.88951 50.55448,-87.15322 50.55448,-87.15322z" fill="#6c6c30" stroke-width="0" stroke-linecap="butt"/></g><g stroke="none" stroke-width="0" stroke-linecap="butt"><path d="M300.85131,81.69777l53.27142,-74.10781l21.63807,88.34262z" fill="#ffff70"/><path d="M369.65392,71.24248l-32.54536,-40.09323l5.60199,-7.36773l23.62677,33.62646z" fill="#ffffff"/><path d="M356.34285,91.92103l-32.28104,-42.19304l8.42152,-11.68876l38.21746,56.75733z" fill="#ffffff"/><path d="M353.39221,48.93036c-1.57602,8.29366 -7.69528,15.57527 -10.25129,14.91996c-1.65907,-0.42535 -5.13194,-8.95922 -3.55592,-17.25287c1.57601,-8.29365 1.85881,-16.07851 9.60989,-14.6056c7.75107,1.47291 5.77334,8.64486 4.19733,16.93852z" fill="#131308"/><path d="M348.35803,74.65713c-0.69963,3.68176 -4.50279,6.05149 -8.49461,5.29294c-3.99181,-0.75855 -6.66064,-4.35814 -5.96101,-8.03989c0.69963,-3.68176 4.50279,-6.0515 8.49461,-5.29295c3.99181,0.75855 6.66064,4.35814 5.96101,8.0399z" fill="#131308"/></g></g></g></svg>