<svg version="1.1" xmlns="http://www.w3.org/2000/svg" xmlns:xlink="http://www.w3.org/1999/xlink" width="165.04288" height="299.32222" viewBox="0,0,165.04288,299.32222"><defs><linearGradient x1="278.11814" y1="62.65828" x2="292.37088" y2="109.99856" gradientUnits="userSpaceOnUse" id="color-1"><stop offset="0" stop-color="#ecec68"/><stop offset="1" stop-color="#292912"/></linearGradient></defs><g transform="translate(-242.00391,-30.53595)"><g data-paper-data="{&quot;isPaintingLayer&quot;:true}" fill-rule="nonzero" stroke-linejoin="miter" stroke-miterlimit="10" stroke-dasharray="" stroke-dashoffset="0" style="mix-blend-mode: normal"><path d="M355.99473,249.0051c-12.86279,-1.71796 -4.93414,-122.72292 -4.93414,-122.72292l12.73242,-1.24706c0,0 4.68202,125.63686 -7.79827,123.96998z" data-paper-data="{&quot;index&quot;:null}" fill="#60602a" stroke="#000000" stroke-width="2" stroke-linecap="butt"/><path d="M365.77094,238.05148c-12.86279,-1.71796 -4.43813,-110.02652 -4.43813,-110.02652l12.73241,-1.24706c0,0 4.18601,112.94046 -8.29428,111.27359z" data-paper-data="{&quot;index&quot;:null}" fill="#60602a" stroke="#000000" stroke-width="2" stroke-linecap="butt"/><path d="M297.85028,102.73119l12.59322,2.25395c0,0 -2.41802,139.23826 -15.37659,139.92964c-12.57323,0.67082 2.78337,-142.18358 2.78337,-142.18358z" fill="#60602a" stroke="#000000" stroke-width="2" stroke-linecap="butt"/><path d="M286.78535,235.34915c-12.78921,-2.19969 -0.32359,-105.79553 -0.32359,-105.79553l12.77025,-0.76814c0,0 -0.03775,108.69795 -12.44666,106.56368z" data-paper-data="{&quot;index&quot;:null}" fill="#60602a" stroke="#000000" stroke-width="2" stroke-linecap="butt"/><path d="M289.5041,328.85816l13.64285,-120.3421l40.28325,-0.15789l12.57389,120.5z" fill="#bebe54" stroke="#000000" stroke-width="2" stroke-linecap="butt"/><path d="M271.5376,223.98416c-11.76759,-2.48611 4.68831,-97.66049 4.68831,-97.66049l12.79018,-0.28402c0,0 -5.1593,100.54715 -17.4785,97.94451z" data-paper-data="{&quot;index&quot;:null}" fill="#60602a" stroke="#000000" stroke-width="2" stroke-linecap="butt"/><path d="M379.93126,225.66302c-12.94776,-0.87089 -15.83264,-79.84359 -15.83264,-79.84359l12.62326,-2.07921c0,0 15.77212,82.7678 3.20939,81.9228z" data-paper-data="{&quot;index&quot;:null}" fill="#60602a" stroke="#000000" stroke-width="2" stroke-linecap="butt"/><path d="M302.45432,225.47079l3.12142,-26.32765l35.83075,-0.14203l2.76735,26.1059c0,0 -7.51543,4.19603 -21.55904,4.50964c-12.48458,0.27879 -20.16049,-4.14586 -20.16049,-4.14586z" fill="#a0a047" stroke="#000000" stroke-width="0" stroke-linecap="butt"/><path d="M384.76333,203.37663c-6.87761,-2.25996 3.45719,-14.4732 0.16585,-27.05321c-2.82337,-10.79134 3.77731,-15.18438 6.60123,-4.39318c2.63876,10.08361 0.99746,33.99779 -6.76708,31.4464z" data-paper-data="{&quot;index&quot;:null}" fill="#60602a" stroke="#000000" stroke-width="2" stroke-linecap="butt"/><path d="M263.84317,158.26067c1.32296,-33.27557 31.13262,-59.10821 66.58174,-57.69884c35.44912,1.40937 63.11385,29.52708 61.79088,62.80263c-1.32296,33.27557 -31.13262,59.10821 -66.58174,57.69884c-35.44912,-1.40937 -63.11385,-29.52708 -61.79088,-62.80263z" fill="#bebe54" stroke="#000000" stroke-width="2" stroke-linecap="butt"/><path d="M277.36564,159.2281c0.51517,-12.95776 11.43715,-23.04449 24.39491,-22.52932c12.95776,0.51517 23.04449,11.43715 22.52932,24.39491c-0.51517,12.95776 -11.43715,23.04449 -24.39491,22.52932c-12.95776,-0.51517 -23.04449,-11.43715 -22.52932,-24.39491z" fill="#ffffff" stroke="#000000" stroke-width="2" stroke-linecap="butt"/><path d="M283.93591,161.66877c0.36263,-9.12088 8.05051,-16.22083 17.17138,-15.8582c9.12088,0.36263 16.22083,8.05052 15.8582,17.17139c-0.36263,9.12088 -8.05052,16.22083 -17.17139,15.8582c-9.12088,-0.36263 -16.22082,-8.05052 -15.85819,-17.17139z" fill="#000000" stroke="none" stroke-width="0" stroke-linecap="butt"/><path d="M354.36034,185.78843c-12.95776,-0.51517 -23.04449,-11.43715 -22.52932,-24.39491c0.51517,-12.95776 11.43715,-23.04449 24.39491,-22.52932c12.95776,0.51517 23.04449,11.43715 22.52932,24.39491c-0.51517,12.95776 -11.43715,23.04449 -24.39491,22.52932z" data-paper-data="{&quot;index&quot;:null}" fill="#ffffff" stroke="#000000" stroke-width="2" stroke-linecap="butt"/><path d="M354.36942,181.72051c-9.12087,-0.36263 -16.22082,-8.05052 -15.85819,-17.17139c0.36263,-9.12088 8.05052,-16.22083 17.17138,-15.8582c9.12087,0.36263 16.22082,8.05052 15.85819,17.17139c-0.36263,9.12088 -8.05052,16.22083 -17.17138,15.8582z" data-paper-data="{&quot;index&quot;:null}" fill="#000000" stroke="none" stroke-width="0" stroke-linecap="butt"/><path d="M277.28237,159.2248c0.51517,-12.95776 11.43715,-23.04449 24.39491,-22.52932c12.95776,0.51517 23.04449,11.43715 22.52932,24.39491c0,0 -46.97316,-0.63502 -46.92424,-1.8656z" fill="#ecec68" stroke="#000000" stroke-width="2" stroke-linecap="butt"/><path d="M331.58124,161.38359c0.51517,-12.95776 11.43715,-23.04449 24.39491,-22.52932c12.95776,0.51517 23.04449,11.43715 22.52932,24.39491c-0.04822,1.21284 -46.92424,-1.8656 -46.92424,-1.8656z" data-paper-data="{&quot;index&quot;:null}" fill="#ecec68" stroke="#000000" stroke-width="2" stroke-linecap="butt"/><path d="M291.13779,130.94443c0,0 6.90901,-4.89861 12.0407,-5.88987c5.1317,-0.99125 12.29661,1.18881 12.29661,1.18881c0,0 -8.02938,-0.37956 -11.99242,0.38596c-4.14153,0.8 -12.34489,4.3151 -12.34489,4.3151z" fill="#000000" stroke="none" stroke-width="0" stroke-linecap="butt"/><path d="M264.56352,158.34318c0.02892,-0.72742 2.98109,56.08209 61.04866,59.40642c55.48114,3.17626 65.7657,-55.38423 65.72523,-54.36619c-1.30321,32.7789 -30.73899,58.22314 -65.74662,56.83132c-35.00763,-1.39182 -62.33048,-29.09266 -61.02727,-61.87156z" fill="#a0a047" stroke="#000000" stroke-width="0" stroke-linecap="butt"/><path d="M355.21258,128.686c-3.88976,-1.07773 -11.92393,-1.33682 -11.92393,-1.33682c0,0 7.31537,-1.60435 12.35217,-0.20883c5.0368,1.39552 11.5351,6.82719 11.5351,6.82719c0,0 -7.89841,-4.15527 -11.96335,-5.28154z" data-paper-data="{&quot;index&quot;:null}" fill="#000000" stroke="none" stroke-width="0" stroke-linecap="butt"/><path d="M260.48129,157.99237c9.17209,-6.34801 11.31851,1.28485 2.14675,7.63334c-10.692,7.40075 -10.80658,23.39944 -17.49695,20.63397c-7.55314,-3.1221 6.77953,-22.33555 15.35021,-28.26731z" data-paper-data="{&quot;index&quot;:null}" fill="#60602a" stroke="#000000" stroke-width="2" stroke-linecap="butt"/><path d="M277.32634,158.92636l-3.49387,-2.74096" fill="none" stroke="#000000" stroke-width="2" stroke-linecap="round"/><path d="M274.63625,109.8888c17.92441,-16.30134 46.16169,-24.07587 51.00702,-14.59746c3.82934,7.49095 -20.77002,2.122 -44.69511,26.32018c-20.37433,20.6069 -18.48152,51.70601 -31.35597,47.77462c-12.7139,-3.88237 12.94908,-48.49757 25.04407,-59.49734z" fill="#b1b14e" stroke="#000000" stroke-width="2" stroke-linecap="butt"/><path d="M275.94193,118.57595c15.82131,-18.3495 42.91103,-29.48208 48.86713,-20.65925c4.70721,6.97283 -20.36091,4.61842 -41.18378,31.53256c-17.73251,22.91976 -12.09237,53.56168 -25.34779,51.21622c-13.09012,-2.31622 6.98858,-49.70766 17.66444,-62.08951z" fill="#ecec68" stroke="#000000" stroke-width="2" stroke-linecap="butt"/><path d="M344.60439,96.08254c-0.29158,2.91055 -7.38971,4.42602 -15.85412,3.38488c-8.46441,-1.04114 -15.08981,-4.24462 -14.79823,-7.15517c0.29158,-2.91055 7.38971,-4.42602 15.85412,-3.38488c8.46441,1.04114 15.08981,4.24462 14.79823,7.15517z" fill="#ecec68" stroke="#000000" stroke-width="2" stroke-linecap="butt"/><path d="M401.92731,179.83498c-13.2013,2.63308 -8.22862,-28.12421 -26.4552,-50.65308c-21.40303,-26.45509 -46.41406,-23.55629 -41.85954,-30.62979c5.76289,-8.95022 33.08824,1.5908 49.30471,19.59204c10.9425,12.14683 32.04672,59.09058 19.01004,61.69083z" data-paper-data="{&quot;index&quot;:null}" fill="#60602a" stroke="#000000" stroke-width="2" stroke-linecap="butt"/><path d="M378.0547,162.73093l4.33176,-3.23046" fill="none" stroke="#000000" stroke-width="2" stroke-linecap="round"/><path d="M310.77236,200.61268c0,0 6.59021,-2.35971 15.98211,-2.03983c9.3919,0.31988 16.12134,2.71616 16.12134,2.71616" data-paper-data="{&quot;index&quot;:null}" fill="none" stroke="#000000" stroke-width="2" stroke-linecap="round"/><path d="M396.96051,189.68618c-13.43121,0.90002 -4.51441,-28.95345 -19.6676,-53.65442c-17.79402,-29.00577 -42.9698,-29.37275 -37.53699,-35.79636c6.87422,-8.12788 32.60303,5.86554 46.34982,25.81657c9.27603,13.46251 24.11847,62.74543 10.85476,63.63422z" data-paper-data="{&quot;index&quot;:null}" fill="#b1b14e" stroke="#000000" stroke-width="2" stroke-linecap="butt"/><path d="M278.43527,147.65263c7.24633,-8.48028 11.27123,-1.6489 4.02535,6.83177c-8.4469,9.88634 -4.47108,25.38357 -11.6459,24.41879c-8.10007,-1.08921 0.84937,-23.32633 7.62055,-31.25054z" data-paper-data="{&quot;index&quot;:null}" fill="#b1b14e" stroke="#000000" stroke-width="2" stroke-linecap="butt"/><path d="M268.98508,145.68722c11.28355,-14.01094 21.49893,-25.29479 27.28801,-33.05033c7.25469,-9.71895 15.17303,-24.30809 22.12131,-20.80127c7.25586,3.66206 -1.20809,20.61051 -8.70146,30.64923c-5.76471,7.72287 -22.18886,20.8387 -33.4202,34.78628c-14.07595,17.48014 -6.43843,44.01618 -18.86486,42.71212c-14.02891,-1.47222 0.29364,-40.2851 11.5772,-54.29604z" fill="#ecec68" stroke="#000000" stroke-width="2" stroke-linecap="butt"/><g stroke="#000000" stroke-width="2" stroke-linecap="butt"><path d="M268.6291,167.80041c0.08629,-2.17046 1.51317,-2.69884 3.24467,-2.63001c1.7315,0.06885 3.11192,0.70883 3.02562,2.8793c-0.08629,2.17046 -1.60662,5.04949 -3.33812,4.98065c-1.7315,-0.06885 -3.01847,-3.05947 -2.93218,-5.22995z" fill="#ecec68"/><path d="M274.30737,182.94093c-0.08629,2.17046 -1.51317,2.69884 -3.24466,2.63001c-1.7315,-0.06885 -3.11193,-0.70883 -3.02563,-2.8793c0.08629,-2.17046 1.60662,-5.04949 3.33813,-4.98065c1.7315,0.06885 3.01846,3.05947 2.93217,5.22995z" fill="#ecec68"/><path d="M263.89797,178.2098c-2.17046,-0.08629 -2.69884,-1.51317 -2.63001,-3.24467c0.06885,-1.7315 0.70883,-3.11193 2.8793,-3.02563c2.17046,0.08629 5.04949,1.60662 4.98065,3.33813c-0.06885,1.7315 -3.05947,3.01847 -5.22995,2.93218z" fill="#ecec68"/><path d="M279.0385,172.53153c2.17046,0.08629 2.69884,1.51317 2.63001,3.24467c-0.06885,1.7315 -0.70883,3.11193 -2.8793,3.02563c-2.17046,-0.08629 -5.04949,-1.60662 -4.98065,-3.33813c0.06885,-1.7315 3.05947,-3.01847 5.22995,-2.93218z" fill="#ff80ee"/><path d="M264.10768,172.02525c-1.47374,-1.59578 -0.83841,-2.97834 0.43463,-4.15402c1.27303,-1.17568 2.70169,-1.69925 4.17541,-0.10347c1.47374,1.59578 2.43448,4.70659 1.16144,5.88226c-1.27303,1.17568 -4.29775,-0.02899 -5.77149,-1.62476z" fill="#ecec68"/><path d="M278.8288,178.71609c1.47374,1.59578 0.83841,2.97834 -0.43463,4.15402c-1.27303,1.17568 -2.70169,1.69925 -4.17541,0.10347c-1.47374,-1.59578 -2.43448,-4.70659 -1.16144,-5.88226c1.27303,-1.17568 4.29775,0.02899 5.77149,1.62476z" fill="#ff80ee"/><path d="M268.12281,182.73122c-1.59578,1.47374 -2.97834,0.83841 -4.15402,-0.43463c-1.17568,-1.27303 -1.69925,-2.70169 -0.10347,-4.17541c1.59578,-1.47374 4.70659,-2.43448 5.88226,-1.16144c1.17568,1.27303 -0.02899,4.29775 -1.62476,5.77149z" fill="#ecec68"/><path d="M274.81366,168.01012c1.59578,-1.47374 2.97834,-0.83841 4.15402,0.43463c1.17568,1.27303 1.69925,2.70169 0.10347,4.17541c-1.59578,1.47374 -4.70659,2.43448 -5.88226,1.16144c-1.17568,-1.27303 0.02899,-4.29775 1.62476,-5.77149z" fill="#ecec68"/><path d="M267.32099,175.11733c0.09114,-2.2924 2.02337,-4.07688 4.31579,-3.98574c2.2924,0.09114 4.07688,2.02338 3.98574,4.31579c-0.09114,2.2924 -2.02338,4.07688 -4.31579,3.98574c-2.2924,-0.09114 -4.07688,-2.02337 -3.98574,-4.31579z" fill="#b1b14e"/></g><path d="M349.07888,112.16234c0,0 21.84409,-10.30664 22.85351,-20.42117c0.5769,-5.78073 -7.68857,-15.70668 -7.831,-25.96673c-0.18773,-13.52282 13.97756,-23.20758 13.97756,-23.20758c0,0 -3.75906,10.14629 -3.88347,22.68618c-0.09914,9.9933 7.60343,13.90484 9.2162,27.06416c1.57948,12.88768 -12.48532,32.7416 -12.48532,32.7416c0,0 -4.15562,3.79449 -14.07625,-2.09583c-9.02159,-5.35652 -7.77123,-10.80062 -7.77123,-10.80062z" fill="#60602a" stroke="#000000" stroke-width="2" stroke-linecap="butt"/><path d="M280.74381,157.79014c7.83838,-16.19211 20.94183,-29.88748 24.83564,-38.74751c4.87958,-11.10308 9.30899,-27.10068 16.86853,-25.24872c7.89419,1.93394 3.46452,20.35312 -1.57562,31.82151c-3.8774,8.82272 -19.69828,21.41559 -27.50006,37.53422c-9.77776,20.20107 -2.05208,44.73625 -15.91535,42.13094c-10.89623,-2.04771 -4.55151,-31.29834 3.28686,-47.49044z" fill="#b1b14e" stroke="#000000" stroke-width="2" stroke-linecap="butt"/><path d="M333.14286,139.88073c-7.00198,-1.83882 2.57336,-14.65618 -1.47463,-27.01351c-3.47243,-10.60032 2.84977,-15.38546 6.32275,-4.78532c3.24525,9.90507 3.05681,33.87477 -4.84812,31.79883z" data-paper-data="{&quot;index&quot;:null}" fill="#b1b14e" stroke="#000000" stroke-width="2" stroke-linecap="butt"/><path d="M394.73396,161.21471c-12.73449,6.0553 -8.98451,-13.26436 -21.16134,-24.21708c-9.71601,-8.73929 -26.50553,-12.58145 -31.452,-17.48564c-6.42978,-6.3748 -15.63241,-19.23261 -8.44628,-22.9918c6.8815,-3.59984 15.73278,7.58531 21.95776,13.75706c4.9674,4.92493 19.34653,10.36283 29.10783,19.14165c9.76129,8.77881 20.00307,27.03651 9.99404,31.79584z" data-paper-data="{&quot;index&quot;:null}" fill="#ecec68" stroke="#000000" stroke-width="2" stroke-linecap="butt"/><path d="M296.58555,142.10851c6.05007,-11.65105 17.59796,-21.79879 20.51585,-28.15613c3.65661,-7.9668 6.34119,-19.32775 14.04912,-18.37819c8.04915,0.9916 5.62395,14.04191 1.84704,22.27084c-2.90561,6.33057 -17.2711,15.83227 -23.29268,27.4304c-7.54669,14.53564 2.75857,31.30206 -11.29201,30.11246c-11.04344,-0.93499 -7.87738,-21.62832 -1.82732,-33.27937z" fill="#ecec68" stroke="#000000" stroke-width="2" stroke-linecap="butt"/><g data-paper-data="{&quot;index&quot;:null}" stroke="#1d1d0d" stroke-width="1.5" stroke-linecap="butt"><path d="M262.69655,68.18379l-5.44908,-18.28512l31.63075,-9.37653l5.44909,18.28513z" fill="#d0d05b"/><path d="M288.41655,111.48195l-9.35555,-30.32218l-14.30124,-14.47969l26.94266,-7.56787l-5.21326,19.96228l9.50695,31.13974z" fill="url(#color-1)"/><path d="M250.29884,54.01258l20.14414,-22.64137l29.65118,7.21009z" fill="#bfbf54"/><path d="M290.64236,60.06805l-24.22745,6.91622c0,0 2.83764,-10.44627 9.52789,-12.35613c6.69024,-1.90988 14.69958,5.43992 14.69958,5.43992z" fill="#ffff70"/></g><path d="M250.67956,149.6972c0.92042,-36.34926 35.86513,-64.87243 78.05118,-63.70831c42.18604,1.16412 75.63846,31.57476 74.71804,67.92401c-0.05313,2.09815 -0.21962,4.17022 -0.49434,6.21202c-6.14495,-0.49674 -12.29894,-1.12649 -18.36898,-1.35118c-42.61632,-1.57746 -85.23015,-3.24268 -127.83285,-5.15145c-1.05109,-0.04709 -2.0262,-0.86424 -3.06414,-0.71327c-0.50606,0.07361 -1.62575,0.62393 -2.94357,1.35947c-0.08179,-1.512 -0.10421,-3.03635 -0.06535,-4.57129z" fill="#bebe54" stroke="#000000" stroke-width="2" stroke-linecap="butt"/><path d="M252.05031,131.56679l8.66903,-16.66877l136.35252,6.42185l6.35886,16.26545z" fill="#b9b952" stroke="#000000" stroke-width="2" stroke-linecap="butt"/><path d="M306.58586,148.74686l1.72809,-43.46566l41.29238,1.64169l-1.72809,43.46566z" fill="#d7d75f" stroke="#000000" stroke-width="2" stroke-linecap="butt"/></g></g></svg>