<svg version="1.1" xmlns="http://www.w3.org/2000/svg" xmlns:xlink="http://www.w3.org/1999/xlink" width="195.34366" height="418.94441" viewBox="0,0,195.34366,418.94441"><g transform="translate(-191.57174,56.66352)"><g data-paper-data="{&quot;isPaintingLayer&quot;:true}" fill-rule="nonzero" stroke-linejoin="miter" stroke-miterlimit="10" stroke-dasharray="" stroke-dashoffset="0" style="mix-blend-mode: normal"><path d="M292.45652,47.50175l52.10454,113.84752l-61.93629,21.65609l-25.30768,-115.19687l35.56923,-23.66509z" fill="#b5b54a" stroke="#b5b54a" stroke-width="2.5" stroke-linecap="round"/><path d="M316.31859,-9.89226c11.3643,32.50182 -5.659,68.02315 -38.02257,79.33911c-32.36358,11.31596 -67.812,-5.85858 -79.17629,-38.3604c-11.3643,-32.50182 5.65898,-68.02316 38.02254,-79.33912c32.36358,-11.31596 67.81203,5.85859 79.17632,38.36041z" fill="#fafab0" stroke="#fafab0" stroke-width="0.5" stroke-linecap="butt"/><path d="M200.57661,-40.65525l16.24929,-0.70974l-2.746,-7.85355l20.75978,-1.38288l-0.97589,-2.14468l16.32957,0.16615l-1.74055,-3.68527l29.74696,8.80831l-41.94484,10.5982l8.07325,3.05298l-22.05954,4.77525l11.62616,6.10456l-25.28999,0.70693l1.19699,3.42336l-17.57583,-6.96216l19.44311,-8.38025z" fill="#fcfc00" stroke="#fcfc00" stroke-width="0.5" stroke-linecap="round"/><path d="M246.55564,14.09316c2.34606,6.70973 1.68826,13.04404 -1.46926,14.14806c-3.15752,1.10403 -7.61906,-3.44029 -9.96512,-10.15002c-2.34606,-6.70973 -1.68825,-13.04404 1.46927,-14.14807c3.15752,-1.10403 7.61905,3.44029 9.96511,10.15002z" fill="#29291b" stroke="#29291b" stroke-width="2.5" stroke-linecap="butt"/><path d="M275.76132,2.812c2.34606,6.70973 1.68826,13.04404 -1.46926,14.14807c-3.15752,1.10403 -7.61906,-3.44029 -9.96512,-10.15002c-2.34606,-6.70973 -1.68825,-13.04404 1.46927,-14.14807c3.15752,-1.10403 7.61905,3.44029 9.96511,10.15002z" fill="#29291b" stroke="#29291b" stroke-width="2.5" stroke-linecap="butt"/><path d="M345.19723,236.3658l11.60849,124.66509h-65.61319l14.13207,-117.09433l41.38679,-10.59906z" fill="#e5e61c" stroke="#e5e61c" stroke-width="2.5" stroke-linecap="round"/><path d="M386.6654,192.56393c0,33.0506 -27.79337,59.84341 -62.07824,59.84341c-34.28487,0 -62.07824,-26.79281 -62.07824,-59.84341c0,-33.0506 27.79337,-59.84341 62.07824,-59.84341c34.28487,0 62.07824,26.79281 62.07824,59.84341z" fill="#fafab0" stroke="#fafab0" stroke-width="0.5" stroke-linecap="butt"/><path d="M288.56301,124.82342l15.57295,4.69322v-8.31981l20.05285,5.54652l-0.21333,-2.34662l15.35963,5.54653l-0.42666,-4.05325l25.17273,18.13291l-43.09231,-3.8399l6.61318,5.54653l-22.39947,-2.77327l8.95977,9.59977l-24.10608,-7.67981v3.62658l-14.29299,-12.37303l21.1195,-1.49329z" fill="#29291b" stroke="#29291b" stroke-width="0.5" stroke-linecap="round"/><path d="M312.89534,189.67948c0,7.10806 -2.71163,12.87028 -6.0566,12.87028c-3.34497,0 -6.0566,-5.76222 -6.0566,-12.87028c0,-7.10806 2.71163,-12.87028 6.0566,-12.87028c3.34497,0 6.0566,5.76223 6.0566,12.87028z" fill="#29291b" stroke="#29291b" stroke-width="2.5" stroke-linecap="butt"/><path d="M344.18777,188.67005c0,7.10806 -2.71163,12.87028 -6.0566,12.87028c-3.34497,0 -6.0566,-5.76222 -6.0566,-12.87028c0,-7.10806 2.71163,-12.87028 6.0566,-12.87028c3.34497,0 6.0566,5.76222 6.0566,12.87028z" fill="#29291b" stroke="#29291b" stroke-width="2.5" stroke-linecap="butt"/><path d="M293.09595,143.83119l-15.27707,-45.07895c0,0 9.36019,-4.31871 13.96401,-4.83075c4.8701,-0.54164 9.30805,2.75381 9.30805,2.75381l3.80945,8.12188c0,0 -0.01997,11.57554 -5.32044,13.03397c-4.06105,1.1174 -13.32347,3.66597 -13.32347,3.66597" fill="none" stroke="#29291b" stroke-width="2.5" stroke-linecap="round"/><path d="M327.09035,287.33591l-0.43867,39.91981" fill="none" stroke="#29291b" stroke-width="2.5" stroke-linecap="round"/><path d="M345.13134,282.62705l-38.18972,10.11864" fill="none" stroke="#29291b" stroke-width="2.5" stroke-linecap="round"/></g></g></svg>