<svg version="1.1" xmlns="http://www.w3.org/2000/svg" xmlns:xlink="http://www.w3.org/1999/xlink" width="150.77329" height="284.25301" viewBox="0,0,150.77329,284.25301"><g transform="translate(-242.09651,-25.39514)"><g data-paper-data="{&quot;isPaintingLayer&quot;:true}" fill-rule="nonzero" stroke-linecap="butt" stroke-linejoin="miter" stroke-miterlimit="10" stroke-dasharray="" stroke-dashoffset="0" style="mix-blend-mode: normal"><path d="M282.56373,308.53989c0,0 -0.63536,-94.38387 -0.79335,-118.01201c-0.05451,-8.15261 8.18688,-36.76129 40.20201,-36.9211c31.60235,-0.15775 39.85672,29.48704 39.84884,36.89673c-0.07659,46.24274 0.65429,117.98648 0.65429,117.98648l-10.49667,0.09614l-0.15882,-114.84311c0,0 0.07549,-3.0993 -2.81625,-3.15415c-3.43441,-0.06514 -2.94538,3.11562 -2.94538,3.11562l0.20548,114.86995l-48.21366,0.07222l-0.30539,-115.23309c0,0 0.27949,-2.919 -2.8856,-2.93443c-3.11083,-0.01515 -2.81569,2.90899 -2.81569,2.90899l0.35311,115.0668z" fill="#999999" stroke="#000000" stroke-width="2"/><path d="M321.66272,265.26944c-0.81895,0 -1.48284,-0.66389 -1.48284,-1.48284c0,-0.81895 0.66389,-1.48284 1.48284,-1.48284c0.81895,0 1.48284,0.66389 1.48284,1.48284c0,0.81895 -0.66389,1.48284 -1.48284,1.48284z" data-paper-data="{&quot;index&quot;:null}" fill="#000000" stroke="none" stroke-width="1.5"/><path d="M297.59946,308.55433v-119.20147c0,0 0.75721,-9.73105 0.75721,-14.63937c0,-4.498 -0.75721,-13.6872 -0.75721,-13.6872c0,0 2.67319,-2.35297 4.6557,-3.74807c1.98251,-1.3951 5.17197,-2.80371 5.17197,-2.80371c0,0 -0.6016,40.10902 14.55952,40.03867c15.43477,-0.07162 13.83154,-40.03867 13.83154,-40.03867c0,0 3.91276,1.51959 6.16585,2.94655c2.25309,1.42695 4.75379,3.60523 4.75379,3.60523c0,0 -0.75721,9.42463 -0.75721,14.19201c0,4.84193 0.75721,14.63937 0.75721,14.63937v118.69667z" fill="#0f0e02" stroke="#000000" stroke-width="2"/><path d="M329.18869,162.50066c0.77625,-1.52662 1.18438,-3.35575 1.46817,-5.13248c0.22393,-0.00284 0.39077,-0.05947 0.39077,-0.05947l0.19829,-0.19637c4.55901,0.66754 7.11826,2.80758 10.8143,5.09276c-1.69142,0.38798 -3.3602,0.9109 -5.04759,1.1652c-2.31748,0.34925 -5.27747,-0.98088 -7.71734,-0.85388c-0.03549,-0.00511 -0.0711,-0.01062 -0.10661,-0.01576z" data-paper-data="{&quot;noHover&quot;:false,&quot;origItem&quot;:[&quot;Path&quot;,{&quot;applyMatrix&quot;:true,&quot;segments&quot;:[[[243.06965,148.48691],[-0.03081,0.00007],[2.0588,-0.41176]],[[249.66667,148.22981],[-1.92705,0.5855],[1.40311,-0.42631]],[[253.7895,146.64835],[-1.3899,0.54048],[-3.42721,-1.4829]],[[244.05361,143.69377],[3.9596,0],[0,0]],[243.91054,143.88335],[[243.58661,143.98057],[0.19006,-0.03029],[-0.02011,1.54608]],[[242.97718,148.48708],[0.46997,-1.39472],[0.03084,-0.00005]]],&quot;closed&quot;:true}]}" fill="#999999" stroke="none" stroke-width="0.5"/><path d="M304.52202,154.71932c0.59877,-0.23377 1.35441,-0.37311 2.22012,-0.56008c4.55917,-0.98468 7.50949,1.22785 11.93374,1.81325c1.80938,0.23942 3.05748,-0.44756 4.79135,-0.32009c-0.08686,0.51496 -0.16842,1.04066 -0.24434,1.5592c-0.17802,1.21582 -0.65801,2.85959 -0.37848,4.17345c-2.89067,-0.6094 -5.807,-1.35596 -8.54841,-2.40042c-3.19248,-1.21631 -6.46379,-3.51843 -9.77398,-4.26531z" data-paper-data="{&quot;noHover&quot;:false,&quot;origItem&quot;:[&quot;Path&quot;,{&quot;applyMatrix&quot;:true,&quot;segments&quot;:[[[229.81105,147.32584],[-2.86597,-0.63674],[2.46103,0.54678]],[[237.35022,148.33418],[-2.53379,-0.15827],[-0.40126,-1.08236]],[[237.15078,144.75977],[0,1.05597],[0,-0.45036]],[[237.16616,143.41141],[-0.00974,0.44868],[-1.49016,0.10748]],[[233.13337,144.28406],[1.56831,-0.0217],[-3.83479,0.05306]],[[222.8552,144.22195],[3.75403,-1.40489],[-0.71284,0.26676]],[[221.03849,144.9675],[0.48003,-0.27332],[2.90762,0.22295]]],&quot;closed&quot;:true}]}" fill="#999999" stroke="none" stroke-width="0.5"/><path d="M339.2339,171.75133c-5.07648,2.64292 -11.03484,3.47601 -17.06162,2.59355c-2.8324,-0.39427 -4.09434,-1.8865 -6.22118,-3.55597c-1.89702,-1.48907 -4.58874,-2.54689 -6.04429,-4.54431c-2.07446,-2.84673 -4.1532,-6.63804 -6.90106,-8.86125c-0.00454,-0.24803 0.00538,-0.47499 0.02781,-0.68051c0.24088,0.14213 0.47364,0.1761 0.47364,0.1761c3.28366,0.41994 6.72309,2.98652 9.88941,4.19319c4.27382,1.62873 8.96411,2.59683 13.44452,3.3312c0.27098,0.07267 0.53014,0.12191 0.75313,0.12676c0.56752,0.09 1.13927,0.18728 1.70125,0.27087c2.66113,-0.13851 5.50566,1.12715 8.09713,0.81044c2.59985,-0.31772 4.96586,-1.32789 7.70221,-1.6013l0.12497,-0.02957c1.3735,0.86772 2.44842,1.86444 0.96173,2.35352c-0.60087,0.66687 -1.22654,1.29721 -1.8748,1.88118c-0.47782,0.2491 -0.96674,0.4966 -1.46821,0.73854c-0.48054,-0.06809 -0.89293,0.2399 -0.89293,0.2399l-1.25787,0.9469c-0.48507,0.53385 -0.97051,1.07533 -1.45383,1.61074z" data-paper-data="{&quot;noHover&quot;:false,&quot;origItem&quot;:[&quot;Path&quot;,{&quot;applyMatrix&quot;:true,&quot;segments&quot;:[[[253.61024,153.57032],[-0.34599,0.51432],[0,0]],[254.5619,152.61178],[[255.29132,152.29752],[-0.41708,0.00193],[0.39627,-0.26816]],[[256.44793,151.4889],[-0.37527,0.27129],[0.4785,-0.57725]],[[257.80846,149.66036],[-0.42789,0.64184],[1.20324,-0.60095]],[[256.69903,147.78435],[1.27591,0.56681],[0,0]],[[256.69211,147.79591],[0,0],[-2.29265,0.57316]],[[250.24624,150.14399],[2.17108,-0.59385],[-2.16407,0.59194]],[[243.26673,150.47717],[2.24549,-0.44909],[-0.48826,-0.00111]],[[241.79335,150.46712],[0.49376,0.00587],[-0.1902,0.02364]],[[241.14262,150.45773],[0.23946,0.02805],[-3.90109,-0.06661]],[[229.37227,149.27711],[3.83678,0.85279],[-2.84253,-0.6318]],[[220.44226,146.94034],[2.84436,-0.05176],[0,0]],[[220.01764,146.84947],[0.22251,0.09087],[0.00652,0.17755]],[[220.07911,147.43028],[-0.03474,-0.21033],[2.61328,1.54826]],[[227.05221,154.08748],[-2.11832,-2.16228],[1.48632,1.51717]],[[232.74987,157.17625],[-1.79841,-1.02996],[2.0163,1.15474]],[[238.44592,159.40229],[-2.45745,0.01739],[5.23439,0]],[[252.57511,155.11512],[-3.98744,2.87929],[0.3443,-0.51542]]],&quot;closed&quot;:true}]}" fill="#999999" stroke="none" stroke-width="0.5"/><path d="M333.42363,159.67529c0.42309,0.71005 0.42781,1.50993 -0.65086,1.77712c0.2146,-0.54654 0.46037,-1.22146 0.65086,-1.77712z" data-paper-data="{&quot;noHover&quot;:false,&quot;origItem&quot;:[&quot;Path&quot;,{&quot;applyMatrix&quot;:true,&quot;segments&quot;:[[[243.85545,140.0645],[0.08455,-0.4269],[0.75159,-0.33695]],[[244.08034,138.77845],[0.40211,0.46218],[-0.06576,0.43038]]],&quot;closed&quot;:true}]}" fill="#ffffff" stroke="none" stroke-width="0.5"/><path d="M324.96713,156.05863c-0.28406,1.32951 -0.6123,2.76504 -0.9127,4.08371l-0.43237,-0.30343c-2.48626,-2.28972 -1.12461,-3.8778 1.34507,-3.78028z" data-paper-data="{&quot;noHover&quot;:false,&quot;origItem&quot;:[&quot;Path&quot;,{&quot;applyMatrix&quot;:true,&quot;segments&quot;:[[[236.93463,140.09088],[-2.11501,-1.34267],[0,0]],[[237.28205,140.25838],[0,0],[0.04544,-1.00139]],[[237.40711,137.24758],[-0.03209,1.00714],[-1.81421,0.25412]]],&quot;closed&quot;:true}]}" fill="#999999" stroke="none" stroke-width="0.5"/><path d="M350.0024,108.94964c0,0 2.40859,0.34894 6.74623,1.32095c3.96193,0.88783 7.10937,2.29088 7.10937,2.29088l0.41741,1.80688c0,0 -11.61165,-4.18243 -23.81906,-2.394c-9.76074,1.43002 -15.27075,5.34967 -15.27075,5.34967l-0.33209,-6.52021c0,0 4.7142,-2.96063 12.08794,-3.65424c7.63546,-0.7182 12.67869,0.14082 12.67869,0.14082z" data-paper-data="{&quot;index&quot;:null}" fill="#000000" stroke="none" stroke-width="1.5"/><path d="M287.84563,119.21299c0,0 5.08086,-3.16309 12.31007,-4.33542c8.01087,-1.2991 12.11191,-0.85375 12.11191,-0.85375l0.85998,6.42588c0,0 -6.04913,-0.69131 -12.55821,-0.03847c-8.7051,0.87308 -10.2275,2.8772 -16.81763,4.00288c-5.64678,0.96453 -10.49462,0.89857 -10.49462,0.89857l-0.15935,-1.9187c0,0 5.61556,-0.23187 8.1579,-0.61219c2.09836,-0.31391 6.11142,-1.84742 6.11142,-1.84742z" fill="#000000" stroke="none" stroke-width="1.5"/><path d="M300.58734,199.72012l-0.97785,-0.8638c-3.59111,-3.1994 -7.57806,-4.51816 -11.10273,-7.6318c-0.06202,-0.05479 -1.03483,-0.65497 -1.8255,-1.32748c-0.03568,0.31662 -0.11046,0.60631 -0.22285,0.80082c-0.07622,0.1319 -0.16068,0.25734 -0.25184,0.3775l0.08237,0.04783l-0.82313,1.41731c-0.25114,0.44729 -0.71707,0.76194 -1.26714,0.796c-0.86156,0.05335 -1.60323,-0.60183 -1.65658,-1.46339l-0.09162,-1.47969c-1.65194,-1.97467 -2.91159,-4.63465 -4.6283,-6.43534c-2.32683,-2.44066 -6.03988,-4.62249 -7.67289,-7.78483c-1.12133,-2.17151 -1.04688,-4.57903 -2.58657,-6.53744c-1.25513,-1.76495 -2.54391,-4.76892 -2.9933,-6.96251c-0.1371,-0.66923 -0.64735,-6.07316 -1.39279,-5.95702c-2.3573,0.36726 -3.81804,3.42148 -5.50439,4.72262c-3.70635,2.85975 -7.66538,5.12216 -12.10455,5.14596l0.03013,0.48652l-1.84167,0.11403c-0.86156,0.05335 -1.60323,-0.60183 -1.65658,-1.46339c-0.03406,-0.55007 0.22071,-1.05126 0.6336,-1.35565l1.30493,-0.9917c3.57021,-2.68494 6.51961,-5.46124 9.22607,-8.92166c-1.81676,0.40907 -3.74366,0.35336 -6.01819,-0.00074c-1.06948,-0.1665 -4.49411,-0.74952 -4.91254,-1.58333c-0.50734,-1.01093 1.71937,-4.22283 2.28094,-4.96721c2.73469,-3.62495 7.2373,-7.85855 8.7036,-12.16314c0.62643,-1.83897 0.51263,-3.43018 1.52808,-5.17862c0.43267,-2.53397 0.98179,-4.70041 1.87444,-7.04879c0.07277,-0.19145 0.1227,-0.46917 0.17266,-0.75459c-0.28477,0.20151 -0.58768,0.38227 -0.80024,0.50197c-2.0597,1.15998 -5.93227,2.74039 -7.66656,-0.17229c-1.90971,-3.2073 2.06388,-7.01108 3.87456,-9.01886c1.77401,-1.96713 2.01452,-5.03309 1.86062,-7.51852c2.28211,-12.32152 4.37087,-25.18029 10.93352,-36.48013c4.7653,-8.20509 11.74028,-16.68191 18.14928,-23.54718c1.59033,-1.70357 4.31065,-2.51756 6.2378,-3.94632c3.25929,-1.03262 5.93753,-3.28256 9.44172,-3.94203c10.98819,-2.06796 22.77372,0.30319 33.81491,-0.21493c4.06132,1.6655 8.2989,1.46523 12.48543,3.01991c5.50586,2.04461 10.44054,5.58288 15.76769,7.81969c4.06649,1.70746 6.69123,2.46499 9.46245,6.20291c1.57149,4.84535 4.21616,8.95719 5.14795,13.98887c1.58673,8.56845 -0.0295,19.59303 4.43261,27.28801c0.36463,4.73896 4.06785,8.13551 6.21069,12.2748c2.43798,4.70944 3.11002,9.4023 4.67966,14.3196c1.28638,4.02999 2.85989,7.17087 1.28346,10.50001l0.55199,0.32059l-0.82312,1.4173c-0.25112,0.44729 -0.71708,0.76194 -1.26715,0.79601c-0.74239,0.04597 -1.39578,-0.43416 -1.59644,-1.11909l-0.50258,-1.58631c-2.45347,-3.152 -3.11522,-6.86765 -5.89789,-9.85151c-0.12052,-0.12923 -0.24852,-0.24453 -0.38044,-0.34911c1.82422,7.59142 1.25037,15.87865 -0.08778,23.33637c-1.59591,8.61655 -3.52461,16.5242 -4.90003,25.22497c-0.68555,4.33676 -1.03814,8.42933 -3.42334,11.58329l0.51285,0.45303l-1.29572,1.46677c-0.26483,0.29977 -0.64402,0.49854 -1.07479,0.52521c-0.86155,0.05335 -1.60322,-0.60184 -1.65657,-1.4634l-0.11403,-1.84167c-0.02765,-0.47354 -0.51165,-2.29948 -0.81194,-3.92952c-0.35042,1.28133 -0.79668,2.55334 -0.84968,2.72698c-0.88618,2.90326 -1.9808,4.74012 -3.68531,6.50194l0.18194,0.11962l-1.25722,1.912c-0.25988,0.40474 -0.70249,0.68447 -1.21934,0.71647c-0.86155,0.05335 -1.60322,-0.60183 -1.65657,-1.46339c-0.00884,-0.14273 0.00177,-0.28214 0.02954,-0.41572l0.31365,-1.69348c-0.11853,-1.82672 -0.35492,-4.3961 -0.27656,-6.558c-0.67874,0.68204 -1.42865,1.31724 -1.86739,1.91441c-2.68274,3.65139 -5.37095,6.43483 -8.7041,9.19316c-1.62908,2.21569 -3.48908,4.1873 -5.53594,5.91489c-0.27363,0.47159 -0.54751,0.94306 -0.82132,1.41455c-3.11048,5.35574 -8.31676,9.27421 -13.01333,12.77172c-1.28169,0.95447 -2.0267,2.77288 -3.74192,3.61902c-4.64924,2.29352 -12.64566,-0.13118 -15.19694,-4.32692c-0.90793,-1.22204 -1.18479,-3.22916 -2.32117,-4.15678c-2.80465,-2.28946 -5.5798,-4.47428 -8.2765,-6.87028c-0.5476,-0.05431 -0.95608,-0.41514 -0.95608,-0.41514zM311.88944,204.66277c1.52318,1.42193 1.62454,3.19371 2.85318,4.76646c1.552,2.85825 8.00509,4.92375 11.15656,3.28491c1.57022,-0.81655 1.98197,-2.32145 3.22562,-3.28295c2.73678,-2.11592 5.74305,-4.29375 8.32612,-6.88781c-4.99494,2.45747 -10.58287,3.86519 -16.37048,4.22356c-4.20045,0.23586 -6.68743,-1.24784 -10.15985,-2.98278c0.32809,0.28966 0.65146,0.58232 0.96885,0.87861zM343.98002,193.08442l1.39198,-1.58725c0,0 0.45708,-0.5174 1.10752,-0.5607c0.59228,-0.4566 1.16698,-0.91369 1.72619,-1.37315c0.6907,-0.94672 1.34027,-1.94132 1.94578,-2.98391c1.81899,-1.05369 0.13323,-2.0584 -1.91192,-2.81938l-0.00968,0.0187c-3.52114,1.11558 -6.49916,3.1495 -9.82864,4.2856c-3.31874,1.13246 -7.39621,0.27643 -10.85574,1.19392c-0.76178,0.04544 -1.52858,0.08809 -2.29943,0.12665c-0.29443,0.05526 -0.63977,0.06883 -1.01603,0.0482c-6.09207,0.2729 -12.4079,0.25492 -18.4756,-0.7048c-4.49533,-0.71103 -9.72423,-3.13825 -14.15638,-2.78274c0,0 -0.3153,0.01953 -0.67118,-0.10074c0.02733,0.27635 0.07749,0.57537 0.152,0.90012c4.22623,2.16284 8.00754,6.54308 11.52097,9.71158c2.46519,2.2232 6.28162,2.83505 9.18661,4.26806c3.25693,1.60662 5.26887,3.1869 9.10077,2.92238c8.16557,-0.50561 15.68498,-3.1759 21.6272,-8.05271c0.48731,-0.83731 0.97549,-1.6741 1.46555,-2.50985zM363.80984,144.00316c1.37826,-0.52043 1.69103,-1.8911 2.91381,-3.28152c4.38291,-4.98383 4.89652,-9.98563 4.53696,-16.54521c-1.12237,-4.0233 -4.68614,0.19627 -5.7208,2.321c-0.61905,1.27124 -1.13229,2.60821 -1.53266,3.9865c0.13408,0.7537 0.35853,1.51569 0.20606,2.24843c-0.4102,1.97135 -0.81841,3.95459 -1.21562,5.94967c0.0713,1.79779 0.33756,3.58713 0.81225,5.32112zM354.44304,172.63955c0.55795,-2.39131 2.12971,-4.16777 2.29581,-6.81241c0.33192,-5.28459 -2.11459,-10.56058 1.02594,-15.3012c0.50109,-4.26966 1.22974,-8.48357 2.0913,-12.62675c-0.02325,-2.78341 0.35834,-5.57811 1.1194,-8.22892c-0.07803,-0.45171 -0.12186,-0.9011 -0.03246,-1.34046c0.77419,-3.80477 1.77626,-7.78346 2.108,-11.83226l-0.34562,-0.16931c-2.85058,-0.5592 -5.68526,-1.6074 -8.13012,-3.21447c-1.10592,0.12211 -2.2265,0.19985 -3.35636,0.24868c-0.10114,0.02335 -0.21127,0.03942 -0.3312,0.04685c-0.15776,0.00977 -0.30055,0.00259 -0.4298,-0.01821c-5.81643,0.18805 -11.84583,-0.29325 -17.36508,0.64614c-1.97633,0.33638 -5.77709,4.03591 -7.93407,2.48225c-0.91476,-0.65891 -0.94682,-2.02411 -0.78236,-3.28728c-0.00949,-0.00812 -0.01899,-0.01636 -0.0285,-0.02476c-1.17138,-1.03477 -0.13659,-2.20615 -0.13659,-2.20615l1.25115,-1.29516c1.51929,-0.87787 2.94975,-2.31941 4.49773,-3.08305c2.9857,-1.47288 6.8238,-1.41247 9.994,-1.20315c5.48618,0.36226 11.05489,-1.61896 12.21834,4.8402c1.04984,-0.08645 2.09209,-0.15476 3.12198,-0.18844c2.51203,1.35438 5.0638,2.66039 7.86163,3.16215c-0.00912,-0.40707 -0.02731,-0.81455 -0.05546,-1.22234c-0.39933,-6.44919 -1.92584,-12.15862 -3.86136,-18.33056c-0.70426,-2.24573 -0.4493,-5.00836 -3.44101,-5.60069c-4.16268,-0.82417 -5.29228,1.18094 -8.9361,2.33538c-5.39543,4.24182 -13.44914,8.02394 -19.98367,10.11081c-3.38905,1.08232 -6.61591,1.4591 -9.51548,3.65482l-0.10318,0.01568l0.02068,0.03564l-1.75745,1.0191c-0.20972,0.12757 -0.45263,0.20744 -0.71465,0.22367c-0.86156,0.05335 -1.60322,-0.60184 -1.65658,-1.46339c-0.03407,-0.55008 0.2207,-1.05128 0.63359,-1.35567l1.30493,-0.99169l0.11844,0.15585l0.01287,-0.00748c1.67831,-2.37501 3.6799,-4.40106 5.82589,-6.43367c0.6092,-0.57702 1.33957,-1.59643 2.09105,-2.45058c-1.06506,0.4436 -2.29447,0.48678 -3.32699,1.01062c-3.47005,1.7605 -7.158,3.45422 -10.5715,5.36837c-3.77899,0.29076 -6.03589,2.11164 -9.20217,3.71309c-5.91693,2.99267 -13.00511,4.59729 -18.86504,7.12505c-1.20399,0.51937 -0.98331,5.02517 -1.15889,6.00362c-0.45193,2.35008 -0.58972,4.57728 -0.49306,6.73365c1.92648,-0.28939 3.84068,-0.72819 5.74969,-1.2377c0.13587,-1.29322 1.5835,-4.08953 2.2536,-4.48618c2.12151,-1.25575 5.44382,0.22857 7.64343,-0.59136c2.71441,-1.01183 5.41753,-3.2433 8.34596,-3.80752c2.38659,-0.45981 8.41117,-0.11468 9.96424,1.96271c0.79216,1.05958 0.42424,5.13725 -0.62313,5.90211c-0.81884,0.59798 -2.02684,-0.06503 -3.04026,-0.09753c-2.20351,-0.42374 -4.39482,-0.48232 -6.57685,-0.298c2.91019,1.59554 9.4473,0.79845 11.32443,3.75429c1.44191,2.27049 1.38277,4.83312 0.6652,7.4178c0.4685,0.43461 0.51004,1.10543 0.51004,1.10543c0.27897,4.50532 2.25446,8.18938 3.07685,12.55924c1.23007,6.53604 0.86647,13.80394 1.27788,20.44821c0.31694,5.11851 0.16637,10.15104 0.48038,15.22227c0.06933,1.11967 -0.23065,3.61674 0.46204,4.61549c0.46615,0.67211 1.60809,0.33425 2.37359,0.62244c0.13601,0.0512 0.24372,0.22687 0.34635,0.37884c0.19019,-0.00855 0.38018,-0.01748 0.5699,-0.0267c0.29345,-0.57271 -0.24131,-1.57543 -0.19806,-2.30401c0.18364,-3.09327 0.06572,-6.11171 -0.10976,-9.23684c0.37113,-2.00376 0.59093,-4.02375 0.70647,-6.05477c-0.24914,-0.3656 -0.40576,-0.90822 -0.00473,-1.5987c0.02567,-0.0442 0.05194,-0.0861 0.07876,-0.12585c0.30844,-10.41223 -1.76131,-21.07371 0.07095,-31.28513c0.06439,-0.34757 0.12875,-0.69517 0.19313,-1.04276c-0.01892,-0.10171 -0.03713,-0.20349 -0.05455,-0.30533c-0.46803,-0.07862 -1.21618,-0.37147 -1.28213,-1.43657c-0.06121,-0.9885 0.54276,-1.38942 0.99348,-1.55051c-0.04868,-2.51023 0.41776,-4.91555 1.52131,-6.86876c2.18618,-3.72823 5.95041,-7.41726 10.30622,-8.25648c8.24993,-1.5895 22.35146,2.35993 20.57257,12.95064c0.08775,1.41702 0.43739,3.65962 -0.75628,4.78724c-0.01313,0.01242 -0.02646,0.0247 -0.03996,0.0368c-0.37264,4.88631 -2.56289,9.33868 -6.67595,12.46443c-2.96629,2.10945 -6.30709,1.5339 -9.75983,1.31778c-3.34077,-0.20912 -6.69402,-0.22207 -9.39859,-2.63806c-1.22058,-1.09036 -2.29667,-2.51351 -3.1789,-4.12911c-0.68646,8.59034 0.7958,17.48078 0.5826,26.17011c3.0251,2.08582 4.8387,5.04811 1.51749,8.13438c2.18749,-0.21327 4.50771,-0.48676 6.55064,0.22352c3.90574,1.35791 7.48718,3.43659 11.28399,4.75087c0.11678,-0.03127 0.24618,-0.0525 0.3896,-0.06139c0.71491,-0.04427 1.12246,0.25938 1.35426,0.60135c0.29994,0.08114 0.60168,0.15637 0.90544,0.22497c0.53328,0.12046 1.02757,0.29334 1.47611,0.50924c1.58304,-2.9112 2.36074,-5.9051 3.07452,-8.96436zM284.67705,153.37978c0.57466,9.28066 3.43192,18.1041 4.01262,27.48245l0.1041,1.68121c2.15547,-4.27859 8.70634,-6.21284 13.97077,-5.95568c2.87209,0.1403 6.7182,1.91418 9.57545,0.8491c1.00895,-0.3761 1.7977,-0.7953 2.6401,-1.13589c-5.79059,-3.57179 -3.85108,-9.2389 2.01259,-10.24953c-0.00664,-0.11454 -0.01349,-0.22911 -0.02059,-0.34372c-0.40317,-6.51121 -0.02351,-13.66654 -1.23091,-20.06844c-0.61052,-3.23716 -1.8103,-6.10077 -2.54282,-9.18944c-1.11934,2.29264 -2.32695,4.45419 -2.97054,6.27555c-0.63725,1.80341 -0.86737,3.85545 -2.37789,5.30952c-1.00769,0.97002 -2.37151,1.48906 -3.49426,2.32321c-8.05989,2.5958 -17.53306,-2.68551 -20.74472,-10.27256c0.83429,4.32811 0.79943,8.98795 1.06607,13.29422zM341.79776,108.42593c-3.31775,0.19539 -7.26589,-0.65692 -10.39865,0.97221c-1.24785,0.6489 -2.40267,1.69483 -3.61164,2.52842c-0.06912,0.34021 -0.186,0.85058 -0.31589,1.29055c1.3355,-0.94969 4.64341,-2.17136 5.04836,-2.25288c2.04726,-0.41202 3.9271,-0.03788 5.93472,0.09469c3.43776,0.22699 7.02304,-0.14839 10.57623,-0.50419c-0.81061,-3.12293 -3.79472,-2.33128 -7.23315,-2.12879zM283.47605,129.64472c0,0 0.25516,-0.60048 0.82373,-0.86065l0.127,-0.29091c1.6797,-2.43925 3.86585,-2.60043 6.53411,-3.77773c1.36591,-0.60267 2.49374,-1.79106 3.69222,-2.77129c-4.96213,1.40499 -9.8955,3.24101 -14.83524,4.03152c0.50455,3.47055 1.54403,6.81646 2.75878,10.27261c-0.25762,-2.13842 -0.00342,-4.3727 0.89938,-6.60355zM306.25049,185.64197c3.89199,0.61525 7.89041,0.84262 11.85837,0.84476c-0.73051,-1.64971 -0.55439,-3.90946 -0.65639,-5.55676c-0.0435,-0.70255 -0.07809,-1.40405 -0.10625,-2.10492c-2.31424,0.31161 -3.76237,1.56553 -6.20679,1.75088c-5.97709,0.45319 -10.31924,-1.6583 -16.03977,0.8959c-1.08625,0.48499 -2.03959,0.8658 -2.76203,1.33854c4.55738,0.06694 9.38049,2.11511 13.91286,2.83158zM327.04584,186.17253c3.17192,-0.8412 7.31678,0.06122 10.26639,-1.03829c2.14765,-0.80057 4.16276,-1.8879 6.2788,-2.86529c-5.48963,-1.98226 -9.29632,-4.05115 -15.47322,-3.66868l-0.20487,0.30955c0,0 -0.20239,0.11736 -0.49595,0.18297c0.11797,2.4138 0.08301,4.8678 -0.5154,7.08896c0.0481,-0.00306 0.09619,-0.00612 0.14425,-0.00921zM316.6643,173.66746l0.55815,0.22774c-0.02584,-1.56654 -0.04852,-3.13466 -0.09572,-4.70888c-2.80559,0.57167 -3.89152,2.59089 -0.46242,4.48114zM328.28799,134.42067c-0.0189,0.102 -0.03777,0.20396 -0.05666,0.30595c0.74296,3.2613 2.35004,6.39557 4.32555,8.11061c2.17469,1.88797 4.88262,1.69562 7.51851,1.86062c2.39562,0.14995 5.72095,0.98032 7.67899,-0.68639c2.90115,-2.20474 4.95076,-5.52401 5.44669,-9.06716c-1.5054,0.05453 -3.22515,-0.16382 -4.69301,-0.41228c-2.07426,8.90199 -11.33972,3.57961 -16.55643,0.58496c0,0 -0.67598,-0.3926 -0.79417,-1.10054c-0.94495,0.07318 -1.90255,0.143 -2.87653,0.20424zM352.81913,131.0027l0.62181,0.16341l0.23153,-1.04097c0,0 0.10165,-0.38225 0.39498,-0.71102c-0.03635,-0.13568 -0.06199,-0.26728 -0.06971,-0.39178c0.64927,-3.14584 -0.60162,-4.50855 -2.72182,-6.38991c-0.75369,-0.66879 -0.9819,-2.0205 -1.94611,-2.31313c-1.11418,-0.33814 -2.34325,0.03499 -3.48875,-0.1737c-7.24798,-1.32045 -12.96182,-0.91618 -16.89876,5.94198c-0.82268,1.36443 -1.17358,3.12261 -1.15596,5.00543c3.14762,-0.25149 6.36394,-0.57118 9.55473,-0.67763c5.08351,-0.33545 10.0452,-0.41887 15.47805,0.58736zM299.83263,117.68654c3.46191,-0.64661 6.96529,-0.87606 10.55121,-0.23264c1.43393,1.21915 0.68827,-0.74546 0.54166,-0.92633c-0.64115,-0.79109 -5.64971,-0.91028 -6.83883,-0.6943c-1.45299,0.2639 -2.86291,1.04805 -4.25402,1.85329zM302.28635,142.23364c-2.76754,1.07394 -5.60049,-0.05057 -8.07906,-0.95296c-1.12116,-0.4082 -3.38235,-0.16456 -4.23235,-0.9871c-1.50599,-1.45734 -1.1463,-2.94986 -0.83836,-4.54351c-1.18629,0.05616 -2.37215,0.1188 -3.55707,0.19055c0.93061,7.4185 10.29437,13.8137 17.33729,11.6424c0.85168,-0.66534 1.92687,-1.02888 2.7235,-1.75923c1.13194,-1.03776 1.19353,-2.90128 1.6561,-4.18393c0.74511,-2.06611 2.1713,-4.37968 3.33483,-6.78846l-0.47254,0.02926c-1.35341,0.0838 -2.7102,0.15531 -4.06962,0.2186c-0.48617,2.73439 -0.75233,5.95066 -3.80274,7.13439zM311.89994,131.74042c0.63974,-2.04611 0.82111,-4.11327 0.00252,-6.11408c-0.29166,-0.7129 -1.505,-0.33072 -2.26325,-0.46611c-2.42541,-0.43297 -5.01589,-0.58034 -7.12376,-1.89024c-1.36092,0.15028 -3.36804,-0.14909 -4.62088,0.28613c-1.95342,0.67858 -3.68411,3.11903 -5.67002,4.01847c-1.16433,0.52735 19.61468,4.14976 19.6754,4.16583zM327.45813,172.95781c1.13992,-0.59823 0.89851,-1.34578 0.2266,-2.02794c-0.06101,0.67774 -0.13592,1.35382 -0.2266,2.02794z" fill="#000000" stroke="none" stroke-width="0.5"/><path d="M362.94965,138.74377c0.3972,-1.99508 0.77619,-4.05255 1.18639,-6.0239c0.15248,-0.73274 -0.05444,-1.53276 -0.18852,-2.28647c0.40039,-1.37829 0.95409,-2.7405 1.57313,-4.01175c1.03466,-2.12473 4.64932,-6.33992 5.77169,-2.31662c0.35957,6.55958 -0.19116,11.71073 -4.57406,16.69457c-1.22277,1.39042 -1.55389,2.75758 -2.93213,3.27803c-0.47469,-1.73399 -0.76521,-3.53608 -0.8365,-5.33387z" data-paper-data="{&quot;noHover&quot;:false,&quot;origItem&quot;:[&quot;Path&quot;,{&quot;applyMatrix&quot;:true,&quot;segments&quot;:[[[268.21396,123.01191],[-0.23457,-1.12607],[0.90071,-0.27784]],[[270.20442,121.0316],[-0.83582,0.83955],[2.99592,-3.00929]],[[273.75586,110.64549],[-0.02976,4.20306],[-0.55764,-2.61359]],[[270.01088,111.90144],[0.74473,-1.31591],[-0.44558,0.78732]],[[268.87451,114.38655],[0.31018,-0.86432],[0.05582,0.4866]],[[268.9172,115.83051],[0.12634,-0.46189],[-0.3399,1.24265]],[[267.90567,119.58181],[0.33253,-1.25832],[-0.02556,1.15086]]],&quot;closed&quot;:true}]}" fill="#ffffff" stroke="none" stroke-width="0.5"/><path d="M328.20841,134.1915c0.97398,-0.06124 1.93533,-0.13904 2.88027,-0.21222c0.1182,0.70797 0.7921,1.10468 0.7921,1.10468c5.21672,2.99467 14.61885,8.30799 16.69311,-0.59401c1.46786,0.24847 3.1953,0.48244 4.70071,0.42791c-0.49593,3.54315 -2.55484,6.93335 -5.45598,9.13809c-1.95804,1.66671 -5.36081,0.8689 -7.75643,0.71895c-2.6359,-0.165 -5.40279,-0.01971 -7.57748,-1.90768c-1.97551,-1.71506 -3.58392,-4.90582 -4.32688,-8.16712c0.0189,-0.102 0.03839,-0.20562 0.05727,-0.30761z" data-paper-data="{&quot;noHover&quot;:false,&quot;origItem&quot;:[&quot;Path&quot;,{&quot;applyMatrix&quot;:true,&quot;segments&quot;:[[[245.90918,115.48812],[0,0],[-0.0161,0.06438]],[[245.8609,115.68126],[0.0161,-0.06438],[0.34549,2.11199]],[[248.30242,121.0316],[-1.19371,-1.17332],[1.31407,1.29162]],[[253.03005,122.51705],[-1.67672,-0.20959],[1.52388,0.19048]],[[257.96087,122.38236],[-1.31628,0.98691],[1.9398,-1.2932]],[[261.79756,116.80758],[-0.45679,2.24299],[-0.96348,-0.0247]],[[258.81698,116.35875],[0.92753,0.21671],[-1.67658,5.60265]],[[248.22118,116.07763],[3.2129,2.11862],[0,0]],[[247.75755,115.34344],[0.04748,0.45677],[-0.60632,0.00937]],[[245.91257,115.36011],[0.62439,-0.00059],[0,0]]],&quot;closed&quot;:true}]}" fill="#ffffff" stroke="none" stroke-width="0.5"/><path d="M283.55903,140.02715c3.21165,7.58705 12.76449,12.8537 20.82438,10.2579c1.12275,-0.83415 2.49943,-1.34694 3.5071,-2.31695c1.51052,-1.45407 1.66205,-3.37103 2.29931,-5.17444c0.64359,-1.82136 1.92602,-4.12012 3.04538,-6.41277c0.73251,3.08867 1.95262,5.9679 2.56315,9.20506c1.2074,6.4019 0.8435,13.63868 1.24667,20.14989c0.00709,0.11462 0.01343,0.2305 0.02008,0.34504c-5.86368,1.01063 -7.82535,6.70817 -2.03475,10.27996c-0.8424,0.34059 -1.63933,0.76578 -2.64827,1.14187c-2.85725,1.06507 -6.73689,-0.69698 -9.60899,-0.83728c-5.26444,-0.25718 -11.86016,1.66861 -14.01563,5.9472l-0.10653,-1.68254c-0.5807,-9.37834 -3.47231,-18.29727 -4.04696,-27.57793c-0.26664,-4.30627 -0.21062,-8.9969 -1.04491,-13.32501z" data-paper-data="{&quot;noHover&quot;:false,&quot;origItem&quot;:[&quot;Path&quot;,{&quot;applyMatrix&quot;:true,&quot;segments&quot;:[[[217.31028,125.87069],[0,-2.76046],[0,5.9492]],[[218.78599,143.5792],[0,-6.01182],[0,0]],[[218.78599,144.65691],[0,0],[1.54563,-2.64701]],[[227.94299,141.40613],[-3.35162,-0.37239],[1.82852,0.20316]],[[234.02415,142.32697],[-1.86671,0.56716],[0.65917,-0.20028]],[[235.755,141.706],[-0.55141,0.18419],[-3.55655,-2.50985]],[[237.44548,135.2404],[-3.78441,0.41352],[0.00029,-0.0734]],[[237.44592,135.02009],[0,0.07348],[0,-4.1739]],[[237.45341,122.15603],[0.51789,4.13589],[-0.26187,-2.09134]],[[236.19296,116.18725],[0.34564,2.00134],[-0.80545,1.41978]],[[234.04788,120.07726],[0.48301,-1.13765],[-0.47825,1.12643]],[[232.31946,123.37381],[1.02209,-0.86882],[-0.68185,0.57959]],[[229.99622,124.71921],[0.74995,-0.48828],[-5.24956,1.33894]],[[217.15516,117.33905],[1.75091,4.97196],[0.36163,2.79685]]],&quot;closed&quot;:true}]}" fill="#999999" stroke="none" stroke-width="0.5"/><path d="M337.29512,130.47852c-3.19081,0.10645 -6.43334,0.39287 -9.58096,0.64436c-0.01763,-1.88282 0.32736,-3.66845 1.15004,-5.03288c3.93695,-6.85816 9.78158,-7.32264 17.02955,-6.00219c1.1455,0.20869 2.38803,-0.14834 3.50221,0.18981c0.9642,0.29264 1.20126,1.66401 1.95496,2.3328c2.12021,1.88137 3.3719,3.28501 2.72263,6.43084c0.00772,0.1245 0.03284,0.2581 0.06919,0.39377c-0.29332,0.32879 -0.39632,0.71537 -0.39632,0.71537l-0.2337,1.04657l-0.62203,-0.1629c-5.43283,-1.00623 -10.51206,-0.89102 -15.59558,-0.55557z" data-paper-data="{&quot;noHover&quot;:false,&quot;origItem&quot;:[&quot;Path&quot;,{&quot;applyMatrix&quot;:true,&quot;segments&quot;:[[[261.70952,114.27544],[-3.42953,-0.85738],[0,0]],[262.10014,114.40438],[262.28915,113.74879],[[262.56949,113.31035],[-0.20031,0.19836],[-0.01785,-0.08808]],[[262.54047,113.05741],[0,0.07981],[0.539,-1.98321]],[[261.05502,108.86928],[1.27954,1.28525],[-0.45485,-0.45688]],[[259.90374,107.3152],[0.60415,0.225],[-0.69812,-0.25999]],[[257.68275,107.06633],[0.72325,0.17856],[-4.57623,-1.12981]],[[246.65652,110.19259],[2.78525,-4.22384],[-0.5793,0.83877]],[[245.72042,113.34326],[0.06319,-1.20303],[2.01996,-0.03614]],[[251.84871,113.28834],[-2.04181,-0.05819],[3.25951,-0.01321]]],&quot;closed&quot;:true}]}" fill="#999999" stroke="none" stroke-width="0.5"/><path d="M282.53172,136.31222c-1.21475,-3.45615 -2.28155,-6.89576 -2.78611,-10.36632c4.93974,-0.79051 10.00016,-2.6525 14.96229,-4.05749c-1.19848,0.98023 -2.42859,2.28641 -3.79452,2.88908c-2.66824,1.1773 -4.73047,1.29272 -6.41017,3.73199l-0.12581,0.28359c-0.56858,0.26017 -0.82376,0.84246 -0.82376,0.84246c-0.90281,2.23085 -1.27957,4.53826 -1.02193,6.67668z" data-paper-data="{&quot;noHover&quot;:false,&quot;origItem&quot;:[&quot;Path&quot;,{&quot;applyMatrix&quot;:true,&quot;segments&quot;:[[[217.48184,110.66638],[-0.66473,1.38889],[0,0]],[[218.0419,110.14936],[-0.37337,0.14366],[0,0]],[[218.1345,109.96861],[0,0],[1.16908,-1.49125]],[[222.45645,107.81458],[-1.75045,0.6463],[0.89608,-0.33085]],[[224.92382,106.19087],[-0.80409,0.57857],[-3.22429,0.701]],[[215.29088,108.17873],[3.18569,-0.30949],[0.18497,2.23619]],[[216.6464,114.84774],[-0.63906,-2.25507],[-0.07996,-1.37575]]],&quot;closed&quot;:true}]}" fill="#999999" stroke="none" stroke-width="0.5"/><path d="M306.02984,135.15022c1.35941,-0.06329 2.8431,-0.2249 4.19651,-0.3087l0.47312,-0.02824c-1.16353,2.40878 -2.57979,4.76053 -3.3249,6.82664c-0.46258,1.28265 -0.53491,3.18561 -1.66684,4.22337c-0.79664,0.73035 -1.89259,1.11708 -2.74428,1.78242c-7.04292,2.17129 -16.52482,-4.31812 -17.45543,-11.73662c1.18492,-0.07175 2.50843,-0.06125 3.69471,-0.11743c-0.30796,1.59367 -0.6566,3.05671 0.8494,4.51405c0.85001,0.82254 3.11188,0.57316 4.23303,0.98136c2.47856,0.90239 5.15645,2.00828 7.92398,0.93434c3.05041,-1.18373 3.33451,-4.33681 3.82068,-7.0712z" data-paper-data="{&quot;noHover&quot;:false,&quot;origItem&quot;:[&quot;Path&quot;,{&quot;applyMatrix&quot;:true,&quot;segments&quot;:[[[228.99602,119.44923],[1.99475,-0.63529],[-1.80977,0.57637]],[[223.87455,118.52123],[1.54709,0.67426],[-0.69981,-0.305]],[[221.21087,117.72354],[0.51028,0.55887],[-0.90408,-0.99018]],[[220.85516,114.78898],[-0.25967,1.00552],[-0.75976,-0.01104]],[[218.57615,114.77001],[0.75951,0.00104],[0.30094,4.77413]],[[229.18711,122.89018],[-4.58335,1.10807],[0.57018,-0.3912]],[[230.99585,121.87445],[-0.5376,0.43489],[0.76387,-0.61794]],[[232.21885,119.26816],[-0.34611,0.80079],[0.55751,-1.28992]],[[234.61684,115.06501],[-0.83826,1.4922],[0,0]],[[234.31393,115.06501],[0,0],[-0.86758,0]],[[231.70649,115.04369],[0.8706,0.01334],[-0.41858,1.72692]]],&quot;closed&quot;:true}]}" fill="#ffffff" stroke="none" stroke-width="0.5"/><path d="M285.294,131.19548c0.10698,-0.24709 0.23651,-0.49918 0.39241,-0.7493c0.5547,-0.2138 0.83737,-0.6055 0.83737,-0.6055l0.36873,-0.52713c0.50567,-0.82662 3.72008,-1.46436 5.20047,-1.99792c2.0218,-0.72869 3.97183,-2.48417 5.94521,-3.06785c1.26564,-0.37434 3.28238,-0.32632 4.63318,-0.52473c1.97728,0.68875 4.54062,0.61613 6.89579,0.71501c0.73632,0.03092 1.95992,-0.3025 2.19393,0.13608c0.65671,1.23089 0.31963,2.60229 -0.46252,3.97107c-0.29395,-0.02937 -0.53983,-0.00058 -0.53983,-0.00058l-1.36717,0.16017c-7.92773,0.91768 -16.09344,1.57843 -24.09754,2.49067z" data-paper-data="{&quot;noHover&quot;:false,&quot;origItem&quot;:[&quot;Path&quot;,{&quot;applyMatrix&quot;:true,&quot;segments&quot;:[[[234.31393,113.06501],[-5.13871,0],[0,0]],[235.19936,113.06501],[[235.55002,113.12857],[-0.19141,-0.06355],[0.48943,-1.28132]],[[235.79339,109.22432],[0.44362,1.31005],[-0.15806,-0.46678]],[[234.36654,108.83718],[0.47887,0.11643],[-1.53171,-0.37239]],[[229.89216,107.34842],[1.29426,0.91983],[-0.875,0.04215]],[[226.93003,107.34842],[0.81725,-0.22839],[-1.27426,0.35609]],[[223.15035,109.69035],[1.30373,-0.49584],[-0.95461,0.36307]],[[219.7986,111.07801],[0.31723,-0.76993],[0,0]],[219.56584,111.56081],[[219.02959,112.06827],[0.3575,-0.14996],[-0.09787,0.23264]],[[218.784,112.77044],[0.06612,-0.23527],[5.18841,0.01431]]],&quot;closed&quot;:true}]}" fill="#999999" stroke="none" stroke-width="0.5"/><path d="M352.37345,181.56634c-0.44854,-0.21591 -0.94403,-0.38798 -1.47733,-0.50844c-0.30375,-0.06861 -0.60633,-0.1433 -0.90628,-0.22446c-0.23179,-0.34197 -0.64049,-0.64493 -1.35539,-0.60066c-0.14341,0.00888 -0.27334,0.03043 -0.3901,0.0617c-3.79682,-1.3143 -7.39138,-3.38685 -11.29712,-4.74476c-2.04293,-0.71028 -4.37536,-0.43351 -6.56285,-0.22024c3.32123,-3.08627 1.50757,-6.04853 -1.51754,-8.13437c0.2132,-8.68933 -1.34948,-17.69785 -0.66303,-26.28818c0.88224,1.61562 1.96645,3.0279 3.18705,4.11824c2.70456,2.41598 6.04793,2.44281 9.38869,2.65192c3.45274,0.21612 6.78705,0.80675 9.75334,-1.30269c4.11308,-3.12577 6.3004,-7.54561 6.67304,-12.43192c0.0135,-0.01211 0.02682,-0.02433 0.03995,-0.03673c1.19367,-1.12762 0.84595,-3.36017 0.7582,-4.77719c1.77891,-10.5907 -12.28903,-14.4938 -20.53893,-12.90429c-4.35581,0.83923 -8.09821,4.53783 -10.28439,8.26609c-1.10355,1.9532 -1.52624,4.20852 -1.47756,6.71877c-0.45072,0.16108 -1.06153,0.56017 -1.00032,1.54869c0.06595,1.0651 0.83973,1.36859 1.30776,1.44721c0.01742,0.10184 0.03884,0.20579 0.05778,0.3075c-0.06439,0.34757 -0.12054,0.70196 -0.18491,1.04954c-1.83226,10.21142 0.1897,21.00758 -0.11874,31.41981c-0.02682,0.03972 -0.05332,0.08167 -0.07899,0.12587c-0.40103,0.69049 -0.24468,1.23311 0.00446,1.59871c-0.11553,2.03103 -0.33773,4.05115 -0.70886,6.05491c0.17546,3.12513 0.29296,6.1436 0.10934,9.23686c-0.04325,0.72858 0.49171,1.7313 0.19825,2.30399c-0.18972,0.00923 -0.38062,0.01818 -0.57082,0.02673c-0.10264,-0.15197 -0.2109,-0.3276 -0.34691,-0.37882c-0.7655,-0.28818 -1.91133,0.04964 -2.37748,-0.62248c-0.69269,-0.99877 -0.39383,-3.49586 -0.46316,-4.61553c-0.31401,-5.07121 -0.16684,-10.10399 -0.48378,-15.2225c-0.41141,-6.64428 -0.07806,-13.92135 -1.30813,-20.4574c-0.82239,-4.36986 -2.82097,-8.17209 -3.09993,-12.67741c0,0 -0.03879,-0.67397 -0.50729,-1.10858c0.71757,-2.58468 0.87301,-5.02667 -0.5689,-7.29715c-1.87714,-2.95582 -8.39545,-2.17364 -11.30566,-3.76918c2.18204,-0.18433 4.27006,-0.24203 6.47357,0.18171c1.0134,0.03251 2.22932,0.69046 3.04816,0.09247c1.04738,-0.76487 1.48165,-4.70142 0.68949,-5.761c-1.55307,-2.07738 -7.55903,-2.43288 -9.94562,-1.97307c-2.92844,0.56422 -5.61709,2.78152 -8.33151,3.79335c-2.19961,0.81993 -5.51627,-0.67255 -7.63777,0.58319c-0.67011,0.39665 -2.11332,3.1844 -2.24919,4.47764c-1.90901,0.50951 -3.96838,0.8907 -5.89485,1.18007c-0.09664,-2.15637 0.04539,-4.39336 0.4973,-6.74343c0.17556,-0.97847 -0.04043,-5.49216 1.16357,-6.01152c5.85995,-2.52778 12.97064,-4.1544 18.88757,-7.14707c3.16628,-1.60144 5.43999,-3.43048 9.21898,-3.72124c3.41349,-1.91415 7.12198,-3.61197 10.59201,-5.37248c1.03252,-0.52383 2.2678,-0.56716 3.33285,-1.01076c-0.75148,0.85417 -1.47999,2.02981 -2.0892,2.60682c-2.14599,2.03261 -4.13484,4.05716 -5.81315,6.43217l-0.01286,0.00747l-0.11828,-0.15589l-1.30184,0.991c-0.41288,0.3044 -0.66565,0.80507 -0.63158,1.35515c0.05335,0.86155 0.75607,1.3654 1.61762,1.31205c0.26202,-0.01623 0.50663,-0.09648 0.71635,-0.22405l1.76178,-1.01989l-0.02071,-0.03565l0.10341,-0.01572c2.89956,-2.1957 6.14719,-2.57289 9.53624,-3.65521c6.53454,-2.08686 14.61482,-5.86099 20.01025,-10.10283c3.64382,-1.15444 4.78119,-3.15501 8.94387,-2.33084c2.99171,0.59233 2.74327,3.35979 3.44753,5.60551c1.93553,6.17195 3.47799,11.89934 3.87732,18.34851c0.02814,0.40781 -0.08594,0.8985 -0.07683,1.30556c-2.79783,-0.50175 -5.3423,-1.79774 -7.85433,-3.15212c-1.02989,0.03365 -2.06971,0.10468 -3.11955,0.19113c-1.16344,-6.45916 -6.71192,-4.4625 -12.19811,-4.82474c-3.17018,-0.20932 -6.98945,-0.26266 -9.97515,1.2102c-1.54798,0.76362 -2.96848,2.20683 -4.48777,3.0847l-1.24795,1.29543c0,0 -1.02461,1.0154 0.14676,2.05018c0.00951,0.0084 0.01911,0.01668 0.02859,0.02478c-0.16448,1.26316 -0.12878,2.62873 0.78598,3.28763c2.15698,1.55368 5.97974,-2.13992 7.95608,-2.4763c5.51924,-0.9394 11.57586,-0.43833 17.39229,-0.62638c0.12924,0.02078 0.27244,0.02843 0.43021,0.01866c0.11992,-0.00742 0.2303,-0.02321 0.33144,-0.04657c1.12987,-0.04882 2.25289,-0.12357 3.35881,-0.24569c2.44485,1.60709 5.28665,2.66609 8.13723,3.22529l0.34586,0.16979c-0.33174,4.0488 -1.32701,8.04501 -2.10119,11.84977c-0.0894,0.43936 -0.04498,0.89128 0.03307,1.34299c-0.76106,2.65081 -1.14084,5.46185 -1.11758,8.24527c-0.86155,4.14318 -1.59464,8.38357 -2.09574,12.65322c-3.14053,4.74061 -0.70703,10.03986 -1.03895,15.32444c-0.1661,2.64465 -1.74556,4.42931 -2.3035,6.82061c-0.71379,3.05925 -1.50135,6.0609 -3.08439,8.9721z" data-paper-data="{&quot;noHover&quot;:false,&quot;origItem&quot;:[&quot;Path&quot;,{&quot;applyMatrix&quot;:true,&quot;segments&quot;:[[[261.10017,140.92828],[-0.57678,1.92536],[0.45085,-1.50499]],[[262.83561,136.66876],[-0.21064,1.68226],[0.42092,-3.36153]],[[264.09578,126.93823],[-2.19294,2.9031],[0.48881,-2.70672]],[[265.93053,118.95768],[-0.714,2.6117],[0.09521,-1.77836]],[[266.97074,113.74708],[-0.59082,1.66267],[-0.03197,-0.29154]],[[267.00302,112.8898],[-0.07446,0.27703],[0.64483,-2.39905]],[[268.81701,105.41726],[-0.37194,2.57238],[0,0]],[[268.603,105.29547],[0,0],[-1.79822,-0.46981]],[[263.53834,102.92129],[1.4977,1.12293],[-0.71105,0.03425]],[[261.38518,102.94738],[0.72345,0.0135],[-0.06551,0.01091]],[[261.17184,102.9642],[0.07687,0],[-0.10113,0]],[[260.8981,102.93558],[0.08171,0.01838],[-3.72171,-0.1099]],[[249.78349,102.66156],[3.56164,-0.38165],[-1.27535,0.13666]],[[244.61877,103.93297],[1.31598,1.07744],[-0.5581,-0.45694]],[[244.24916,101.80282],[-0.15498,0.80013],[-0.00574,-0.00556]],[[244.23193,101.78588],[0.00574,0.00574],[-0.70711,-0.7071]],[244.23193,100.37166],[[245.08211,99.59406],[0,0],[1.00491,-0.50052]],[[248.07619,97.80312],[-1.01871,0.42643],[1.96486,-0.8225]],[[254.50576,97.42999],[-2.01615,-0.25902],[3.48906,0.44826]],[[262.11681,101.00398],[-0.48755,-4.17072],[0.67383,-0.01369]],[[264.11791,101.0071],[-0.659,-0.01923],[1.55059,0.96421]],[[269.01318,103.33725],[-1.76681,-0.43104],[0.01027,-0.26031]],[[269.0261,102.55448],[0.00185,0.26153],[0,-4.13414]],[[267.28511,90.6962],[0.99196,4.01784],[-0.36093,-1.46193]],[[265.30919,86.98363],[1.88704,0.49655],[-2.62563,-0.69089]],[[259.5104,88.12162],[2.37253,-0.59313],[-3.61316,2.49542]],[[246.34936,93.78805],[4.25537,-1.07425],[-2.20699,0.55715]],[[240.12841,95.7457],[1.93843,-1.28749],[0,0]],[240.06191,95.75164],[240.0737,95.77522],[[238.91113,96.35651],[0,0],[-0.13897,0.07317]],[[238.44592,96.47108],[0.16796,0],[-0.55229,0]],[[237.44592,95.47108],[0,0.55228],[0,-0.35262]],[[237.90412,94.63042],[-0.2757,0.17806],[0,0]],[238.77664,94.04874],[238.84611,94.15294],[[238.85464,94.14868],[0,0],[1.16565,-1.45028]],[[242.82934,90.2706],[-1.45076,1.21314],[0.41184,-0.34439]],[[244.26156,88.78838],[-0.51366,0.51574],[-0.69767,0.24116]],[[242.09703,89.30218],[0.68006,-0.29369],[-2.28553,0.98702]],[[235.13397,92.31234],[2.25549,-1.08737],[-2.4247,0.03625]],[[229.11079,94.3196],[2.08526,-0.89746],[-3.89679,1.67711]],[[216.78214,98.1236],[3.84202,-1.38249],[-0.78939,0.28405]],[[215.80471,101.91159],[0.1508,-0.61789],[-0.38152,1.48285]],[[215.22359,106.1921],[0.02355,-1.38084],[1.24166,-0.10862]],[[218.94419,105.62907],[-1.23921,0.24988],[0.1379,-0.82046]],[[220.56069,102.85337],[-0.4436,0.22679],[1.40442,-0.71801]],[[225.46503,102.77796],[-1.43705,0.43662],[1.77339,-0.53881]],[[230.94519,100.67655],[-1.89236,0.24451],[1.54222,-0.19926]],[[237.23058,102.32389],[-0.90962,-1.38799],[0.46396,0.70795]],[[236.59928,106.06825],[0.69908,-0.44702],[-0.54654,0.34949]],[[234.66168,105.88576],[0.64586,0.06083],[-1.39037,-0.35772]],[[230.47359,105.43541],[1.4007,-0.03143],[1.79531,1.13396]],[[237.55674,108.2806],[-1.08184,-1.96176],[0.831,1.50691]],[[237.68822,113.04379],[0.56043,-1.62216],[0.28199,0.29606]],[[237.97021,113.76987],[0,0],[0,2.88806]],[[239.43843,121.91166],[-0.35238,-2.82304],[0.52706,4.22245]],[[239.44592,135.02009],[0,-4.2592],[0,3.28113]],[[239.15078,144.75977],[0,-3.25081],[0,0.71775]],[[239.26333,147.72542],[-0.40285,-0.66519],[0.2711,0.44763]],[[240.75445,148.21676],[-0.47744,-0.2143],[0.08483,0.03807]],[[240.96064,148.47237],[-0.05953,-0.1011],[0.12179,0.00206]],[[241.32563,148.47785],[-0.12152,-0.00161],[0.21004,-0.35412]],[[241.29026,146.99872],[-0.05643,0.46355],[0.23958,-1.96805]],[[241.5854,141.09588],[-0.01152,2.0026],[0.31623,-1.26489]],[[242.27595,137.25733],[-0.15409,1.29241],[-0.14464,-0.24332]],[[242.33614,136.23624],[-0.28339,0.42508],[0.01814,-0.02721]],[[242.39141,136.15899],[-0.0187,0.02431],[0.60867,-6.63689]],[[243.67376,116.18361],[-1.57382,6.4484],[0.05486,-0.21941]],[[243.83832,115.52536],[-0.05486,0.21941],[-0.00806,-0.0657]],[[243.81556,115.32823],[0.0071,0.06572],[-0.29577,-0.06871]],[[243.05361,114.36016],[0,0.68277],[0,-0.63366]],[[243.74934,113.40932],[-0.29419,0.08504],[0.06817,-1.60492]],[[244.99242,109.08319],[-0.78194,1.20365],[1.54348,-2.29435]],[[251.90026,104.21825],[-2.81473,0.36369],[5.33112,-0.68882]],[[264.52549,113.30177],[1.55475,-6.69271],[0,0.90836]],[[263.85325,116.32893],[0.80685,-0.67288],[-0.00888,0.00741]],[[263.82628,116.35085],[0.0091,-0.0072],[-0.43117,3.10558]],[[259.07027,124.04646],[2.75014,-1.83343],[-1.97763,1.22977]],[[252.78569,124.50206],[2.19632,0.27454],[-2.12509,-0.26564]],[[246.88821,122.44581],[1.63156,1.64975],[-0.73633,-0.74455]],[[245.02148,119.68333],[0.4995,1.06659],[-0.77803,5.45851]],[[244.35874,136.41818],[0.47973,-5.54044],[1.84931,1.45159]],[[245.00613,141.67266],[2.24292,-1.83952],[1.40533,-0.0497]],[[249.18044,142.07441],[-1.2765,-0.53435],[2.44045,1.02158]],[[256.19835,145.55442],[-2.37262,-0.98942],[0.07581,-0.01535]],[[256.44957,145.53062],[-0.09193,0],[0.45828,0]],[[257.2906,145.96818],[-0.13449,-0.22754],[0.18833,0.06368]],[[257.85989,146.14765],[-0.19126,-0.05582],[0.33578,0.09801]],[[258.78238,146.53121],[-0.27789,-0.15561],[1.12602,-1.79645]]],&quot;closed&quot;:true}]}" fill="#999999" stroke="none" stroke-width="0.5"/><path d="M282.03327,137.30087c0.42278,1.55363 0.92809,3.08834 1.2078,4.70155c1.61925,9.33909 2.1799,18.31426 -0.79436,27.2769c-2.86203,4.22914 -10.24944,3.36909 -12.21573,-1.37516c-4.17316,-10.06893 -4.73084,-23.1047 -5.39626,-33.85134c-0.1712,-2.76479 -1.04661,-6.06716 0.79127,-8.48026c2.23357,-2.93267 10.26202,-2.33793 13.06193,-0.63507c3.08748,1.87774 3.14089,8.85385 3.34537,12.3634z" fill="#c300f0" stroke="none" stroke-width="0.5"/><path d="M362.11449,128.36299c-0.59986,-0.41896 -0.64932,-1.21787 -0.64932,-1.21787l-0.02852,-0.46044c-0.18332,-2.96069 -1.97825,-10.16068 1.00387,-12.073c2.67997,-1.71856 7.2914,0.81696 10.01431,0.64836c4.52168,2.53523 3.81383,6.31059 4.10114,10.95065c0.65438,10.56817 1.54153,22.52115 -4.9368,31.28596c-5.29325,0.50175 -7.56295,-2.76984 -9.5475,-7.19889c-3.35855,-7.49551 -0.60341,-14.47281 0.04282,-21.93477z" fill="#c300f0" stroke="none" stroke-width="0.5"/><path d="M274.34054,126.93593c-0.26553,-0.40084 -0.29324,-0.84849 -0.29324,-0.84849l-0.05702,-0.92083c-0.04301,-0.69465 -0.29449,-4.04505 -0.08907,-4.43086c1.83124,-3.43928 8.54826,-2.04446 9.87782,1.06005c1.86678,4.35892 0.82632,12.2601 1.12123,17.02291c0.51758,8.35891 2.4016,16.13592 1.97331,24.52776c-0.15066,2.95179 -1.1527,11.71694 -6.4479,8.97193c-2.10357,-1.09048 -2.44295,-6.24083 -3.09635,-8.34393c-0.81118,-11.98269 -4.22154,-24.85475 -2.98881,-37.03855z" fill="#00b539" stroke="none" stroke-width="0.5"/><path d="M357.62511,120.877c-0.73146,-0.38372 -0.78835,-1.30239 -0.78835,-1.30239l-0.0285,-0.46042c-0.13875,-2.38826 -0.54879,-8.18542 1.63188,-9.8146c1.17252,-0.876 6.74801,0.84642 7.59164,1.79308c1.75765,1.97227 0.75028,2.83739 0.63175,4.82952c-0.20463,3.43922 0.29542,6.9635 -0.31691,10.37609c-0.96297,5.00759 -0.79039,11.93101 0.16216,16.98174c0.60364,3.2006 2.61517,6.25341 1.95539,9.67368c-0.62948,3.26311 -4.33864,9.31243 -7.99987,5.65945c-1.27296,-1.27009 -1.27292,-4.25549 -2.42931,-5.84404c-0.60505,-6.62943 -1.57754,-13.78944 -1.32092,-20.43716c0.14923,-3.86582 0.75172,-7.62502 0.91105,-11.45496z" fill="#00b539" stroke="none" stroke-width="0.5"/><path d="M372.4059,143.99877c-3.73644,-1.14326 -2.59317,-4.87969 -2.59317,-4.87969l1.08233,-3.50453c2.43745,-15.65884 6.66901,-31.49917 5.69034,-47.30458c-0.66707,-10.99237 -2.31293,-22.84981 -6.05173,-33.17426c-1.2175,-3.36206 -1.38434,-8.45338 -3.16498,-11.51372c-2.08744,-3.58761 -8.52976,-4.61739 -12.06533,-5.17222c-8.51504,-1.3362 -16.69899,-3.59896 -25.39304,-3.92374c-22.95573,-3.10869 -52.64431,-2.78196 -63.94279,21.80208c-2.11852,4.60964 -2.4866,10.23902 -3.27506,15.18013c-0.83556,17.395 -2.72192,35.15352 0.05451,52.58222c1.38435,8.69015 4.61821,17.01251 7.04752,25.44449c0,0 1.08175,3.75472 -2.67295,4.83646c-3.75471,1.08175 -4.83645,-2.67296 -4.83645,-2.67296c-2.516,-8.73289 -5.83818,-17.35177 -7.25248,-26.35878c-2.84595,-18.12481 -1.01202,-36.53964 -0.11372,-54.63355c0.91193,-5.81516 1.47313,-12.18907 3.93764,-17.61922c12.64178,-27.85404 45.38594,-29.96728 71.73044,-26.34638c7.49501,0.28726 14.73893,1.71284 22.00486,3.37822c7.40495,1.69724 16.7245,1.97423 21.38193,9.32648c2.22707,3.51567 2.47559,9.08581 3.89949,13.00667c4.00831,11.03731 5.77187,23.63564 6.51208,35.37509c1.02545,16.56107 -3.24911,33.15992 -5.87566,49.54541l-1.22404,4.03319c0,0 -1.14326,3.73643 -4.8797,2.59317z" fill="#82007c" stroke="none" stroke-width="0.5"/><path d="M281.88268,237.70039c-0.77818,-0.91504 -2.44352,-4.38021 -3.54398,-4.88875c-6.23866,-2.88299 -8.74256,0.83254 -14.10251,3.04167c-1.82419,0.1232 -4.44876,0.54062 -6.15188,-0.45783c-3.8801,-2.27471 -5.38234,-7.98933 -2.97668,-11.75947c1.47101,-2.30535 5.0732,-4.17136 5.19954,-7.15613c0.14759,-3.48661 -5.70058,-5.16768 -6.47683,-8.28797c-0.99708,-4.008 3.58962,-7.41187 5.9115,-10.04027c0.20435,-0.23077 2.854,-3.14361 3.01095,-3.60988c0.59788,-1.77616 -0.91548,-4.69099 -1.36702,-6.2126c-1.19038,-4.0113 -4.89105,-12.05553 -3.68097,-16.22289c1.60584,-5.53036 9.58517,-8.05047 13.07991,-12.07513c0,0 1.29346,-1.46422 2.75769,-0.17075c1.46422,1.29347 0.17076,2.75769 0.17076,2.75769c-3.10983,3.47343 -10.76106,6.22268 -12.31285,10.75754c-0.68671,2.0068 1.80681,6.03502 2.4094,7.81791c1.19309,3.52992 3.92139,10.67601 2.70313,14.41128c-0.49876,1.52919 -2.72683,3.86795 -3.84256,5.13376c-0.80171,0.90754 -5.61936,5.08756 -5.09001,6.35513c1.51789,3.6348 6.74688,4.37649 6.63436,9.38748c-0.11052,4.92111 -7.31906,7.55506 -6.66245,12.04781c0.10548,0.72166 1.9085,1.97721 2.09625,2.22074c0.80238,1.04084 2.41235,1.3624 3.7247,1.29264c2.33833,-0.90977 3.12351,-2.52563 5.47034,-3.49332c3.38805,-1.39702 8.31574,-0.86102 11.50741,0.91306c2.78124,1.54595 3.90882,5.73689 6.2739,8.15574c0.02512,1.44811 0.10364,2.87212 0.23772,4.30726c-1.76617,-0.86268 -3.22539,-2.16171 -4.9798,-4.22472z" fill="#00b539" stroke="none" stroke-width="0.5"/><path d="M350.0024,108.94964c0,0 2.40859,0.34894 6.74623,1.32095c3.96193,0.88783 7.10937,2.29088 7.10937,2.29088l0.41741,1.80688c0,0 -11.61165,-4.18243 -23.81906,-2.394c-9.76074,1.43002 -15.27075,5.34967 -15.27075,5.34967l-0.33209,-6.52021c0,0 4.7142,-2.96063 12.08794,-3.65424c7.63546,-0.7182 12.67869,0.14082 12.67869,0.14082z" data-paper-data="{&quot;index&quot;:null}" fill="#000000" stroke="none" stroke-width="1.5"/><path d="M287.84563,119.21299c0,0 5.08086,-3.16309 12.31007,-4.33542c8.01087,-1.2991 12.11191,-0.85375 12.11191,-0.85375l0.85998,6.42588c0,0 -6.04913,-0.69131 -12.55821,-0.03847c-8.7051,0.87308 -10.2275,2.8772 -16.81763,4.00288c-5.64678,0.96453 -10.49462,0.89857 -10.49462,0.89857l-0.15935,-1.9187c0,0 5.61556,-0.23187 8.1579,-0.61219c2.09836,-0.31391 6.11142,-1.84742 6.11142,-1.84742z" fill="#000000" stroke="none" stroke-width="1.5"/></g></g></svg>