<svg version="1.1" xmlns="http://www.w3.org/2000/svg" xmlns:xlink="http://www.w3.org/1999/xlink" width="153" height="287.84399" viewBox="0,0,153,287.84399"><g transform="translate(-249.27947,-20.00491)"><g data-paper-data="{&quot;isPaintingLayer&quot;:true}" fill-rule="nonzero" stroke-linejoin="miter" stroke-miterlimit="10" stroke-dasharray="" stroke-dashoffset="0" style="mix-blend-mode: normal"><path d="M284.92189,306.8489l11.62059,-93.58516l43.64314,3.40793l11.23626,90.17722z" data-paper-data="{&quot;index&quot;:null}" fill="#9b9d30" stroke="#000000" stroke-width="2" stroke-linecap="butt"/><path d="M317.68104,238.09786l-30.23979,11.89646l10.10835,-47.33816l40.04359,-3.03031l10.15487,49.81105z" data-paper-data="{&quot;index&quot;:null}" fill="#747524" stroke="#000000" stroke-width="2" stroke-linecap="butt"/><path d="M325.76812,49.87065c41.6975,-0.00586 75.50507,36.14241 75.51134,80.7394c0.00627,44.59699 -33.79115,80.75475 -75.48865,80.76061c-41.6975,0.00586 -75.50508,-36.14239 -75.51135,-80.73939c-0.00627,-44.59699 33.79116,-80.75475 75.48866,-80.76061z" data-paper-data="{&quot;index&quot;:null}" fill="#747524" stroke="#000000" stroke-width="2" stroke-linecap="butt"/><path d="M326.6177,66.84797c37.56648,-0.00528 68.02446,30.8455 68.02981,68.90712c0.00535,38.06163 -30.44398,68.92095 -68.01045,68.92623c-37.56648,0.00528 -68.02445,-30.8455 -68.0298,-68.90712c-0.00535,-38.06163 30.44398,-68.92095 68.01045,-68.92623z" data-paper-data="{&quot;index&quot;:null}" fill="#000000" stroke="none" stroke-width="0" stroke-linecap="butt"/><path d="M326.55911,197.74247c-35.47711,0.00498 -64.24082,-26.98746 -64.24549,-60.28931c-0.00467,-33.30184 28.75144,-60.30238 64.22855,-60.30736c35.47711,-0.00498 64.24082,26.98746 64.24549,60.28931c0.00467,33.30184 -28.75144,60.30238 -64.22855,60.30736z" data-paper-data="{&quot;index&quot;:null}" fill="#ffff70" stroke="#000000" stroke-width="2" stroke-linecap="butt"/><path d="M326.63592,196.8963c-35.03529,0.00492 -63.44075,-26.58463 -63.44536,-59.38942c-0.00014,-1.01885 7.95819,57.90287 63.52157,56.92537c58.15366,-1.02307 63.35236,-57.67118 63.35247,-56.94319c0.00461,32.80479 -28.39339,59.40232 -63.42868,59.40724z" data-paper-data="{&quot;index&quot;:null}" fill="#6c6d22" stroke="#000000" stroke-width="0" stroke-linecap="butt"/><path d="M391.0325,152.38002c0,0 -30.32396,16.08534 -64.71882,15.7876c-38.39465,-0.33237 -63.03079,-13.01966 -63.03079,-13.01966c0,0 -16.54101,-80.72337 60.98845,-82.25856c75.489,-1.49481 66.76116,79.49062 66.76116,79.49062z" data-paper-data="{&quot;index&quot;:null}" fill-opacity="0.20144" fill="#000000" stroke="none" stroke-width="0" stroke-linecap="butt"/><path d="M353.76015,161.35044c-12.96799,0.00182 -23.48213,-10.50935 -23.48394,-23.47736c-0.00182,-12.96799 10.50935,-23.48212 23.47735,-23.48394c12.96799,-0.00182 23.48213,10.50935 23.48395,23.47735c0.00182,12.96799 -10.50935,23.48213 -23.47735,23.48395z" data-paper-data="{&quot;index&quot;:null}" fill="#ffffff" stroke="#000000" stroke-width="2" stroke-linecap="butt"/><path d="M355.37326,154.37876c-9.12807,0.00128 -16.52888,-7.39744 -16.53016,-16.52552c-0.00128,-9.12807 7.39744,-16.52889 16.52552,-16.53017c9.12807,-0.00128 16.52888,7.39744 16.53016,16.52552c0.00128,9.12807 -7.39744,16.52889 -16.52552,16.53017z" data-paper-data="{&quot;index&quot;:null}" fill="#000000" stroke="none" stroke-width="0" stroke-linecap="butt"/><path d="M340.864,185.10848c0,0 -6.97913,0.3925 -10.18816,0.39295c-3.36411,0.00047 -9.55324,-0.39017 -9.55324,-0.39017l6.57767,-9.18742z" data-paper-data="{&quot;index&quot;:null}" fill="#000000" stroke="#000000" stroke-width="2" stroke-linecap="round"/><path d="M276.01778,137.8807c-0.00182,-12.96799 10.50935,-23.48213 23.47735,-23.48395c12.96799,-0.00182 23.48213,10.50935 23.48395,23.47735c0.00182,12.96799 -10.50935,23.48213 -23.47735,23.48395c-12.96799,0.00182 -23.48213,-10.50935 -23.48395,-23.47735z" data-paper-data="{&quot;index&quot;:null}" fill="#ffffff" stroke="#000000" stroke-width="2" stroke-linecap="butt"/><path d="M283.5247,139.22538c-0.00128,-9.12807 7.39744,-16.52889 16.52551,-16.53017c9.12806,-0.00128 16.52888,7.39745 16.53016,16.52553c0.00128,9.12807 -7.39744,16.52888 -16.52551,16.53016c-9.12806,0.00128 -16.52887,-7.39744 -16.53015,-16.52552z" data-paper-data="{&quot;index&quot;:null}" fill="#000000" stroke="none" stroke-width="0" stroke-linecap="butt"/><path d="M365.02536,106.60815c0,0 -8.65726,-2.16867 -12.87325,-2.30126c-4.0343,-0.12688 -11.90168,1.52214 -11.90168,1.52214c0,0 6.72812,-3.28951 11.95209,-3.12523c5.22396,0.16429 12.82283,3.90435 12.82283,3.90435z" data-paper-data="{&quot;index&quot;:null}" fill="#000000" stroke="none" stroke-width="0" stroke-linecap="butt"/><path d="M300.99876,104.33159c-4.21781,-0.04792 -12.95992,1.74832 -12.95992,1.74832c0,0 7.75194,-3.41149 12.97815,-3.35208c5.22622,0.05941 11.80743,3.6338 11.80743,3.6338c0,0 -7.78962,-1.98415 -11.82566,-2.03002z" data-paper-data="{&quot;index&quot;:null}" fill="#000000" stroke="none" stroke-width="0" stroke-linecap="butt"/><g data-paper-data="{&quot;index&quot;:null}" stroke="#000000" stroke-width="2" stroke-linecap="butt"><path d="M389.96068,78.65222c0,0 -37.18079,-0.05087 -54.69045,-2.19531c-17.87337,-2.18899 -51.48104,-10.80779 -51.48104,-10.80779l19.178,-43.5433c0,0 26.33598,-2.08142 39.96863,-0.52034c12.42736,1.42305 38.54667,9.51108 38.54667,9.51108l8.47818,47.55565z" fill="#ffffff"/><path d="M389.59719,78.54847c0,0 -35.63156,1.25354 -53.01179,-0.66598c-17.70882,-1.95582 -52.93182,-12.23213 -52.93182,-12.23213l2.6249,-5.69717c0,0 33.63757,7.835 50.41699,9.75376c17.23739,1.97112 51.67042,1.92016 51.67042,1.92016l1.23127,6.92134z" fill="#9b9d30"/><path d="M334.7571,51.32567c0,0 -5.89897,-5.09947 -10.84862,-7.40046c-6.59759,-3.0671 -25.23354,-9.37355 -25.23354,-9.37355l2.668,-6.45058c0,0 16.42862,5.60273 23.40441,8.67416c6.27779,2.7641 16.57747,8.92971 16.57747,8.92971z" fill="#9b9d30"/><path d="M321.46105,66.65179c0,0 3.14522,-12.68141 17.94252,-20.32739c19.58562,-10.1202 41.62292,-9.4346 41.62292,-9.4346l1.62561,6.96488c0,0 -23.35122,0.87856 -40.31616,9.3411c-12.52714,6.24887 -12.98832,14.32703 -12.98832,14.32703z" fill="#9b9d30"/></g></g></g></svg>