<svg version="1.1" xmlns="http://www.w3.org/2000/svg" xmlns:xlink="http://www.w3.org/1999/xlink" width="391.70187" height="243.49332" viewBox="0,0,391.70187,243.49332"><defs><linearGradient x1="332.32736" y1="128.26088" x2="332.32736" y2="371.7542" gradientUnits="userSpaceOnUse" id="color-1"><stop offset="0" stop-color="#a1a147" stop-opacity="0.59608"/><stop offset="1" stop-color="#695d15" stop-opacity="0.59608"/></linearGradient></defs><g transform="translate(-136.47644,-128.26084)"><g data-paper-data="{&quot;isPaintingLayer&quot;:true}" fill-rule="nonzero" stroke-linejoin="miter" stroke-miterlimit="10" stroke-dasharray="" stroke-dashoffset="0" style="mix-blend-mode: normal"><path d="M269.81167,165.23387c0.18286,-0.33978 0.40279,-0.67388 0.67028,-1.00124c0.74955,-0.91734 1.92533,-0.25216 2.87689,-0.49613c2.30736,-0.59157 4.38336,-0.77685 6.74437,-0.77685c9.37917,0 17.45164,0.17426 25.24059,8.94734c4.1241,5.18434 8.63371,8.78068 12.91753,13.48328c3.24104,3.55787 7.02853,10.15669 11.41863,10.75873c2.09636,0.28749 4.56842,-1.54798 6.54503,-2.21055c7.86032,-2.63481 15.17525,-7.79239 22.46154,-13.29543c4.90192,-3.93157 9.99375,-10.17457 15.39055,-12.29735c8.40585,-3.30638 20.1613,-0.42062 28.16322,4.18279c4.61229,2.6534 9.44484,5.78667 13.91637,8.97223c5.82853,4.1523 10.83263,8.65798 17.44654,8.61206c3.27883,0 6.86658,0.25283 9.86405,-2.21834c6.15353,-5.07308 9.3422,-16.4287 15.33879,-21.6109c3.80588,-3.28901 7.14864,-2.56962 11.29716,-2.56962c9.30769,0 20.26148,2.22076 28.07989,10.07782c3.00089,3.35216 4.05432,4.05352 6.38537,8.61043c7.88707,15.41825 6.81778,35.29998 4.42879,53.20806c-0.79286,5.94331 -1.87808,11.47693 -2.41174,17.50598c-0.22657,2.55961 -1.04443,5.20896 -0.58494,7.6965c0.50635,2.74125 3.26486,2.81025 4.57386,3.30177c0.12309,0.04622 6.78199,2.9229 7,3.01701c2.31516,0.71985 3.09985,0.60573 5.10668,2.65349c6.53658,6.66992 5.42925,18.4604 5.4221,28.94021c-0.01138,16.66488 -3.52053,32.96787 -10.58371,45.88708c-2.26945,4.15103 -5.71492,9.90202 -9.38242,11.32666c-0.34003,0.13209 -5.49422,0.10949 -6.53386,0.10949c-0.25427,0 -8.01503,0.00335 -8.16654,-0.01048c-8.59344,-0.78445 -16.35592,-6.45312 -25.1449,-4.03467c-6.0917,1.67626 -11.98754,5.84803 -17.88702,8.55822c-6.72786,3.09075 -14.2473,5.26884 -21.30154,5.2922c-7.22343,-0.00462 -14.81333,-0.64832 -21.93572,-2.50634c-4.53917,-1.18412 -8.992,-3.86867 -13.4425,-5.09063c-5.80393,-1.59355 -12.02238,-2.50918 -17.91374,-3.74915c-7.04624,-1.48302 -13.43937,-4.70762 -20.59456,-4.34607c-8.86762,1.3144 -17.3536,8.46342 -26.31055,7.38071c-2.33683,-0.28247 -5.42413,-1.79743 -7.56829,-3.23199c-0.02266,-0.01516 -3.67512,-3.38885 -4.35313,-3.68949c-6.26791,-2.77932 -13.21838,-3.84559 -19.69868,-2.69969c-3.30094,0.58369 -6.50331,-0.01593 -9.12928,3.14929c-13.02543,9.92821 -24.92412,23.89493 -40.38235,20.02207c-2.1247,-0.53231 -5.24299,-1.1362 -7.1273,-2.58878c-0.98076,-0.75605 -1.62346,-2.25716 -2.51487,-3.23302c-3.22915,-3.53505 -6.28665,-7.4229 -9.49089,-10.97792c-3.15679,-3.50238 -6.64799,-6.59248 -9.87542,-9.99409c-3.18308,-2.99104 -6.08352,-6.35074 -9.90709,-7.12912c-2.28876,-0.46593 -6.58912,-0.75176 -8.87742,-0.03183c-0.87862,0.27642 -1.61678,1.26773 -2.5,1.5085c-4.40972,1.20216 -8.81636,1.27562 -13.18433,3.6383c-1.1282,0.61025 -2.07703,1.8996 -3.23439,2.36944c-7.40944,3.00798 -16.07193,-0.70192 -22.36327,-6.6601c-1.28453,-0.99367 -2.73419,-1.60599 -3.85359,-2.981c-7.23602,-8.8884 0.23404,-20.43832 -2.0315,-31.16711c-0.56339,-2.668 -4.96761,-2.3581 -5.92513,-3.47712c-0.87972,-1.02809 -1.21225,-2.83226 -1.66178,-4.36791c-1.33094,-4.54666 -1.67627,-9.42548 -2.63859,-14.15679c-0.41175,-2.0244 -1.18739,-3.88308 -1.45354,-5.9622c-0.74458,-5.81662 -0.18767,-12.09859 -0.98337,-17.97848c-0.54437,-3.37622 -1.17807,-6.09455 -0.46291,-9.83297c0.36771,-1.9222 1.51042,-3.29834 2.14414,-5.0558c0.96818,-2.68499 1.71786,-6.50128 2.3783,-9.37986c0.8451,-3.6834 0.83593,-9.88313 0.41757,-13.62266c-0.6861,-6.13273 -4.60411,-11.84402 -6.35486,-17.3648c-1.27038,-4.00602 -0.17954,-7.95614 -0.64514,-12.05107c-0.1782,-1.56722 -0.84784,-2.95207 -1,-4.52552c-0.40207,-4.15775 0.06946,-6.82327 0.50138,-10.78455c2.48112,-21.9744 19.43344,-30.7351 32.71716,-28.14302c4.31817,0.84261 8.30356,3.97318 12.576,5.29613c1.7902,0.55433 3.65504,-0.03241 5.48256,-0.02427c1.23673,-0.38085 2.64611,-0.11091 3.71167,-1.13157c1.11122,-1.06439 2.18959,-4.21406 3.03542,-5.48662c0.87981,-1.32368 2.05512,-2.16748 2.88215,-3.56644c3.09689,-5.2385 5.88619,-13.77444 11.48801,-13.96373c5.16164,-0.17442 10.16547,3.79869 14.23496,8.09423c3.48232,3.67576 7.70509,6.31819 10.74486,10.86788c1.78501,2.67166 3.29879,5.73466 5.07684,8.41686c4.4808,8.1027 8.27322,16.50412 11.40595,25.95503c0.96032,2.89713 1.62575,9.86873 3.88258,11.759c0.95068,0.79626 3.84077,-1.74081 4.43225,-2.30963c2.65246,-2.55076 3.9005,-5.08177 4.93173,-8.1658c-0.12934,-0.58195 -0.12934,-1.06803 -0.12934,-1.06803l0.58578,-3.64186c0.50759,-0.7657 1.06463,-1.46882 1.6123,-2.18329c0.76954,-2.48161 1.8631,-5.01494 1.80192,-7.7514c0,0 0,-3.01701 2,-3.01701c0.07206,0 0.14151,0.0039 0.20846,0.01147z" fill="url(#color-1)" stroke="none" stroke-width="0.5" stroke-linecap="butt"/><g stroke="none" stroke-width="0" stroke-linecap="butt"><g fill="#6e6e30"><path d="M429.43657,201.72842c-0.38916,0 -0.70462,-0.18929 -0.70462,-0.42278c0,-0.23349 0.31547,-0.42276 0.70462,-0.42276c0.38915,0 0.70462,0.18928 0.70462,0.42276c0,0.23349 -0.31547,0.42278 -0.70462,0.42278z"/><g><path d="M425.23568,222.67912c0,4.99428 1.415,11.10133 1.20177,16.00613c-0.59812,13.75824 2.90339,24.09941 -2.73532,24.27467c-6.27197,0.19495 -5.14639,-7.46151 -5.70251,-20.30733c-0.16723,-3.86291 -0.4317,-9.4733 -0.4317,-13.86675c0,-19.00354 -5.17869,-34.09091 0.25559,-33.70434c7.5811,0.53929 2.41314,9.4094 12.02101,10.50909c4.13394,0.47315 10.17885,-1.08733 19.46767,0.04234c8.68498,1.05623 12.57862,5.02412 12.62309,5.90424c0.15085,2.98548 -16.50664,-1.7207 -28.45279,2.27079c-5.37127,1.79467 -8.2468,7.30131 -8.2468,8.87117z"/><path d="M433.75823,220.91758c0,6.74528 -0.68351,12.21341 -1.52667,12.21341c-0.84316,0 -1.52667,-5.46813 -1.52667,-12.21341c0,-6.74528 0.68351,-12.21342 1.52667,-12.21342c0.84316,0 1.52667,5.46814 1.52667,12.21343z"/><path d="M429.06077,218.0991c0,1.42689 -1.10415,2.5836 -2.46617,2.5836c-1.36203,0 -2.46617,-1.15671 -2.46617,-2.5836c0,-1.42689 1.10414,-2.58362 2.46617,-2.58362c1.36203,0 2.46617,1.15673 2.46617,2.58362z"/><path d="M438.78453,214.50553c0,1.20637 -0.97795,2.18432 -2.18432,2.18432c-1.20637,0 -2.18432,-0.97795 -2.18432,-2.18432c0,-1.20637 0.97795,-2.18432 2.18432,-2.18432c1.20637,0 2.18432,0.97795 2.18432,2.18432z"/><path d="M449.49476,217.11263c0,4.66982 -0.59939,8.45544 -1.33878,8.45544c-0.73938,0 -1.33878,-3.78564 -1.33878,-8.45544c0,-4.6698 0.59939,-8.45545 1.33878,-8.45545c0.73939,0 1.33878,3.78565 1.33878,8.45545z"/><path d="M447.94459,212.25074c0,1.75118 -1.35651,3.17079 -3.02986,3.17079c-1.67336,0 -3.02987,-1.41961 -3.02987,-3.17079c0,-1.75118 1.35652,-3.17079 3.02987,-3.17079c1.67336,0 3.02986,1.41961 3.02986,3.17079z"/><path d="M429.48354,252.62549c0,1.71226 -1.29342,3.10033 -2.88895,3.10033c-1.59551,0 -2.88894,-1.38807 -2.88894,-3.10033c0,-1.71226 1.29342,-3.10033 2.88894,-3.10033c1.59551,0 2.88895,1.38806 2.88895,3.10033z"/><path d="M429.34262,204.85223c0,1.16746 -1.07259,2.11387 -2.39571,2.11387c-1.32311,0 -2.39571,-0.94641 -2.39571,-2.11387c0,-1.16746 1.07259,-2.11386 2.39571,-2.11386c1.32312,0 2.39571,0.94641 2.39571,2.11386z"/><path d="M433.14756,202.66791c0,0.97288 -0.91486,1.76155 -2.0434,1.76155c-1.12855,0 -2.0434,-0.78867 -2.0434,-1.76155c0,-0.97288 0.91486,-1.76155 2.0434,-1.76155c1.12854,0 2.0434,0.78867 2.0434,1.76155z"/><path d="M432.1611,258.40338c0,1.40095 -1.16724,2.53663 -2.60709,2.53663c-1.43987,0 -2.6071,-1.13568 -2.6071,-2.53663c0,-1.40095 1.16724,-2.53663 2.6071,-2.53663c1.43986,0 2.60709,1.13568 2.60709,2.53663z"/><path d="M432.44295,254.31658c0,0.70048 -0.53629,1.26832 -1.19785,1.26832c-0.66156,0 -1.19786,-0.56785 -1.19786,-1.26832c0,-0.70048 0.53629,-1.26831 1.19786,-1.26831c0.66156,0 1.19785,0.56783 1.19785,1.26831z"/><path d="M421.87364,237.47615c0,2.296 -1.5458,4.15726 -3.45264,4.15726c-1.90684,0 -3.45264,-1.86127 -3.45264,-4.15726c0,-2.296 1.5458,-4.15726 3.45264,-4.15726c1.90684,0 3.45264,1.86127 3.45264,4.15726z"/><path d="M416.65945,230.85272c0,0.89505 -0.72558,1.62063 -1.62063,1.62063c-0.89504,0 -1.62063,-0.72558 -1.62063,-1.62063c0,-0.89505 0.72559,-1.62063 1.62063,-1.62063c0.89504,0 1.62063,0.72558 1.62063,1.62063z"/><path d="M418.77331,247.27038c0,1.01179 -0.78868,1.83201 -1.76155,1.83201c-0.97287,0 -1.76156,-0.82022 -1.76156,-1.83201c0,-1.01179 0.78868,-1.83202 1.76156,-1.83202c0.97287,0 1.76155,0.82022 1.76155,1.83202z"/><path d="M421.30994,258.40338c0,4.43632 -0.59939,8.03267 -1.33878,8.03267c-0.73938,0 -1.33878,-3.59635 -1.33878,-8.03267c0,-4.43632 0.5994,-8.03267 1.33878,-8.03267c0.73939,0 1.33878,3.59635 1.33878,8.03267z"/><path d="M424.83305,262.56064c0,1.90684 -0.31547,3.45264 -0.70462,3.45264c-0.38916,0 -0.70462,-1.5458 -0.70462,-3.45264c0,-1.90684 0.31546,-3.45264 0.70462,-3.45264c0.38915,0 0.70462,1.5458 0.70462,3.45264z"/><path d="M455.69541,215.21015c0,0.73938 -0.59939,1.33878 -1.33878,1.33878c-0.73939,0 -1.33878,-0.59939 -1.33878,-1.33878c0,-0.73938 0.59939,-1.33877 1.33878,-1.33877c0.73938,0 1.33878,0.59939 1.33878,1.33877z"/><path d="M458.65482,205.27501c0,1.63443 -1.16724,2.95941 -2.6071,2.95941c-1.43986,0 -2.60709,-1.32497 -2.60709,-2.95941c0,-1.63443 1.16724,-2.9594 2.60709,-2.9594c1.43987,0 2.6071,1.32497 2.6071,2.9594z"/><path d="M452.73601,204.21808c0,0.73938 -0.59939,1.33878 -1.33878,1.33878c-0.73938,0 -1.33878,-0.5994 -1.33878,-1.33878c0,-0.73938 0.59939,-1.33878 1.33878,-1.33878c0.73939,0 1.33878,0.59939 1.33878,1.33878z"/><path d="M418.91423,213.30768c0,1.71226 -1.32497,3.10034 -2.9594,3.10034c-1.63443,0 -2.9594,-1.38807 -2.9594,-3.10034c0,-1.71226 1.32497,-3.10033 2.9594,-3.10033c1.63443,0 2.9594,1.38807 2.9594,3.10033z"/><path d="M415.39113,207.45933c0,0.81722 -0.72558,1.4797 -1.62063,1.4797c-0.89504,0 -1.62063,-0.66249 -1.62063,-1.4797c0,-0.81722 0.72559,-1.4797 1.62063,-1.4797c0.89504,0 1.62063,0.66249 1.62063,1.4797z"/><path d="M453.02172,207.79805c0.39126,0.54287 -5.69917,-0.35299 -10.57172,-0.04817c-3.0257,0.18929 -8.53431,0.77618 -9.05639,1.05642c-1.8258,0.98001 -5.64056,-0.0995 -2.60537,-1.72608c0.66536,-0.35657 7.71287,-0.73466 11.55966,-0.94752c4.58155,-0.25351 10.12069,0.89794 10.67381,1.66535z"/><path d="M427.5106,208.30487c0,1.2842 -1.0095,2.32525 -2.25478,2.32525c-1.24529,0 -2.25478,-1.04105 -2.25478,-2.32525c0,-1.2842 1.0095,-2.32525 2.25478,-2.32525c1.24528,0 2.25478,1.04105 2.25478,2.32525z"/><path d="M430.61093,210.84151c0,0.73938 -0.63094,1.33877 -1.40925,1.33877c-0.7783,0 -1.40923,-0.59939 -1.40923,-1.33877c0,-0.73938 0.63094,-1.33878 1.40923,-1.33878c0.77831,0 1.40925,0.59939 1.40925,1.33878z"/></g><g><path d="M403.72178,242.91129c0,2.93666 -4.7776,11.21859 -6.29461,0.96095c-1.06273,-7.18595 -2.91243,-25.46135 -8.46896,-25.46135c-1.89352,0 -10.13158,12.33704 -9.69991,20.96096c0.43167,8.62391 7.51696,19.15077 11.63613,17.72065c5.91948,-2.05515 7.55465,-14.48551 8.98559,-12.68055c0.23162,0.29215 2.96015,-2.97736 3.97175,-1.8291c0.55556,0.63062 0.59327,4.69452 -0.58489,6.50066c-0.38936,0.59689 1.53243,4.15943 5.3004,6.01628c4.44458,2.19027 10.83827,2.75084 10.05466,4.05089c-0.17021,0.28239 -6.14097,2.1767 -11.09591,1.56873c-4.50353,-0.55257 -8.03023,-3.6128 -8.2341,-3.39946c-3.01472,3.15457 -7.92026,4.77346 -8.11247,4.77933c-10.25096,0.31293 -16.14262,-6.80013 -17.14315,-12.06346c-3.69871,-19.45712 6.96196,-36.1371 15.15937,-36.1371c8.19741,0 14.52609,19.89706 14.52609,29.01259z"/><path d="M381.36737,259.04191c0,4.57985 -0.77998,8.29254 -1.74213,8.29254c-0.96215,0 -1.74212,-3.71269 -1.74212,-8.29254c0,-4.57985 0.77997,-8.29254 1.74212,-8.29254c0.96215,0 1.74213,3.7127 1.74213,8.29254z"/><path d="M384.43352,261.4112c0,1.42399 -0.40559,2.57836 -0.9059,2.57836c-0.50032,0 -0.90591,-1.15437 -0.90591,-2.57836c0,-1.42398 0.40559,-2.57835 0.90591,-2.57835c0.50032,0 0.9059,1.15437 0.9059,2.57835z"/><path d="M406.87214,261.27183c0,2.65553 -0.62397,4.80827 -1.39369,4.80827c-0.76972,0 -1.39372,-2.15274 -1.39372,-4.80827c0,-2.65553 0.624,-4.80828 1.39372,-4.80828c0.76972,0 1.39369,2.15274 1.39369,4.80828z"/><path d="M403.24852,260.92341c0,0.92366 -0.71758,1.67245 -1.60276,1.67245c-0.88518,0 -1.60276,-0.74878 -1.60276,-1.67245c0,-0.92366 0.71757,-1.67244 1.60276,-1.67244c0.88518,0 1.60276,0.74878 1.60276,1.67244z"/><path d="M388.05715,263.64113c0,0.80821 -0.62398,1.46339 -1.3937,1.46339c-0.76972,0 -1.3937,-0.65518 -1.3937,-1.46339c0,-0.80821 0.62398,-1.46339 1.3937,-1.46339c0.76972,0 1.3937,0.65518 1.3937,1.46339z"/><path d="M376.90752,258.83285c0,1.07761 -0.96717,1.95118 -2.16024,1.95118c-1.19306,0 -2.16024,-0.87357 -2.16024,-1.95118c0,-1.07762 0.96718,-1.95118 2.16024,-1.95118c1.19307,0 2.16024,0.87357 2.16024,1.95118z"/><path d="M386.38471,227.5442c0,4.9647 -0.77998,8.9894 -1.74213,8.9894c-0.96215,0 -1.74212,-4.02469 -1.74212,-8.9894c0,-4.9647 0.77998,-8.98939 1.74212,-8.98939c0.96215,0 1.74213,4.02469 1.74213,8.98939z"/><path d="M384.05395,228.31572c0,1.1216 -0.74879,2.03083 -1.67246,2.03083c-0.92367,0 -1.67244,-0.90923 -1.67244,-2.03083c0,-1.1216 0.74878,-2.03082 1.67244,-2.03082c0.92367,0 1.67246,0.90922 1.67246,2.03082z"/><path d="M389.66859,222.5219c0,0.89067 -0.64182,1.61271 -1.43353,1.61271c-0.79172,0 -1.43352,-0.72204 -1.43352,-1.61271c0,-0.89067 0.64181,-1.61272 1.43352,-1.61272c0.79172,0 1.43353,0.72204 1.43353,1.61272z"/><path d="M411.52982,260.86865c0,1.02263 -0.74878,1.85164 -1.67245,1.85164c-0.92367,0 -1.67244,-0.82901 -1.67244,-1.85164c0,-1.02263 0.74878,-1.85163 1.67244,-1.85163c0.92367,0 1.67245,0.829 1.67245,1.85163z"/><path d="M375.09443,254.65671c0,0.62677 -0.58832,1.13487 -1.31406,1.13487c-0.72574,0 -1.31406,-0.5081 -1.31406,-1.13487c0,-0.62677 0.58833,-1.13487 1.31406,-1.13487c0.72574,0 1.31406,0.5081 1.31406,1.13487z"/><path d="M374.49712,236.73768c0,1.0886 -0.82901,1.97109 -1.85163,1.97109c-1.02263,0 -1.85163,-0.88248 -1.85163,-1.97109c0,-1.0886 0.82899,-1.9711 1.85163,-1.9711c1.02263,0 1.85163,0.8825 1.85163,1.9711z"/><path d="M376.52795,244.80124c0,1.91331 -1.44408,3.46435 -3.22543,3.46435c-1.78136,0 -3.22542,-1.55104 -3.22542,-3.46435c0,-1.91331 1.44407,-3.46435 3.22542,-3.46435c1.78135,0 3.22543,1.55104 3.22543,3.46435z"/><path d="M409.02115,247.96694c0,2.40813 -1.92543,4.3603 -4.30057,4.3603c-2.37513,0 -4.30057,-1.95217 -4.30057,-4.3603c0,-2.40813 1.92544,-4.3603 4.30057,-4.3603c2.37513,0 4.30057,1.95217 4.30057,4.3603z"/><path d="M406.99033,241.39663c0,0.75872 -0.61507,1.37379 -1.3738,1.37379c-0.75873,0 -1.37379,-0.61507 -1.37379,-1.37379c0,-0.75872 0.61506,-1.3738 1.37379,-1.3738c0.75873,0 1.3738,0.61507 1.3738,1.3738z"/><path d="M402.92867,228.0768c0,1.05561 -0.82899,1.91136 -1.85162,1.91136c-1.02263,0 -1.85164,-0.85575 -1.85164,-1.91136c0,-1.05561 0.829,-1.91136 1.85164,-1.91136c1.02263,0 1.85163,0.85575 1.85163,1.91136z"/><path d="M400.89785,218.69917c0,1.35251 -1.12317,2.44893 -2.50867,2.44893c-1.3855,0 -2.50866,-1.09642 -2.50866,-2.44893c0,-1.35251 1.12316,-2.44894 2.50866,-2.44894c1.3855,0 2.50867,1.09643 2.50867,2.44894z"/><path d="M396.95566,216.01131c0,0.72573 -0.53485,1.31406 -1.19461,1.31406c-0.65976,0 -1.19459,-0.58832 -1.19459,-1.31406c0,-0.72573 0.53483,-1.31406 1.19459,-1.31406c0.65976,0 1.19461,0.58833 1.19461,1.31406z"/><path d="M399.622,231.48284c-0.31545,0.59016 -2.1896,-5.27358 -4.6064,-9.51548c-1.50077,-2.63408 -4.15634,-4.79971 -4.63763,-5.14534c-1.68315,-1.2087 -6.29533,1.74411 -5.88895,0.98386c0.55417,-1.03678 3.35792,-4.45582 6.15367,-2.44536c0.61287,0.44072 3.89732,2.44275 5.78038,5.80388c2.24275,4.00313 3.64487,9.48418 3.19895,10.31844z"/><path d="M398.0308,229.15195c0,0.65977 -0.56159,1.1946 -1.25433,1.1946c-0.69274,0 -1.25434,-0.53483 -1.25434,-1.1946c0,-0.65977 0.56159,-1.19461 1.25434,-1.19461c0.69275,0 1.25433,0.53484 1.25433,1.19461z"/></g><g><g><path d="M482.63926,243.61591c0,2.93666 -4.7776,11.21858 -6.29461,0.96094c-1.06273,-7.18595 -2.91244,-25.46134 -8.46896,-25.46134c-1.89353,0 -10.13158,12.33703 -9.69991,20.96095c0.43168,8.62391 7.51696,19.15077 11.63613,17.72065c5.91948,-2.05515 7.55465,-14.48551 8.98559,-12.68055c0.23162,0.29215 2.96015,-2.97736 3.97175,-1.8291c0.55556,0.63062 0.59327,4.69453 -0.58489,6.50066c-0.38936,0.59689 1.53243,4.15942 5.3004,6.01627c4.44458,2.19027 10.83827,2.75084 10.05466,4.05089c-0.17021,0.28238 -6.14096,2.17669 -11.09591,1.56872c-4.50353,-0.55257 -8.03022,-3.6128 -8.2341,-3.39946c-3.01472,3.15457 -7.92026,4.77346 -8.11246,4.77933c-10.25096,0.31293 -16.14262,-6.80013 -17.14315,-12.06346c-3.69871,-19.45712 6.96196,-36.13709 15.15937,-36.13709c8.19741,0 14.52608,19.89706 14.52608,29.01259z"/><path d="M460.28485,259.74653c0,4.57985 -0.77998,8.29253 -1.74213,8.29253c-0.96215,0 -1.74212,-3.71268 -1.74212,-8.29253c0,-4.57985 0.77998,-8.29254 1.74212,-8.29254c0.96215,0 1.74213,3.7127 1.74213,8.29254z"/><path d="M463.351,262.11582c0,1.42398 -0.40559,2.57834 -0.9059,2.57834c-0.50032,0 -0.90591,-1.15436 -0.90591,-2.57834c0,-1.42399 0.4056,-2.57836 0.90591,-2.57836c0.50032,0 0.9059,1.15438 0.9059,2.57836z"/><path d="M485.78962,261.97645c0,2.65553 -0.62397,4.80828 -1.3937,4.80828c-0.76972,0 -1.3937,-2.15274 -1.3937,-4.80828c0,-2.65553 0.62398,-4.80827 1.3937,-4.80827c0.76972,0 1.3937,2.15273 1.3937,4.80827z"/><path d="M482.16599,261.62803c0,0.92366 -0.71757,1.67244 -1.60276,1.67244c-0.88518,0 -1.60276,-0.74878 -1.60276,-1.67244c0,-0.92367 0.71758,-1.67245 1.60276,-1.67245c0.88518,0 1.60276,0.74878 1.60276,1.67245z"/><path d="M466.97463,264.34575c0,0.80821 -0.62398,1.46339 -1.3937,1.46339c-0.76972,0 -1.3937,-0.65519 -1.3937,-1.46339c0,-0.80821 0.62398,-1.46339 1.3937,-1.46339c0.76972,0 1.3937,0.65518 1.3937,1.46339z"/><path d="M455.825,259.53747c0,1.07761 -0.96717,1.95118 -2.16024,1.95118c-1.19306,0 -2.16024,-0.87356 -2.16024,-1.95118c0,-1.07762 0.96717,-1.95119 2.16024,-1.95119c1.19307,0 2.16024,0.87357 2.16024,1.95119z"/><path d="M465.30218,228.24883c0,4.9647 -0.77998,8.98938 -1.74213,8.98938c-0.96215,0 -1.74212,-4.02468 -1.74212,-8.98938c0,-4.9647 0.77998,-8.98939 1.74212,-8.98939c0.96215,0 1.74213,4.02469 1.74213,8.98939z"/><path d="M462.97142,229.02034c0,1.1216 -0.74878,2.03082 -1.67245,2.03082c-0.92367,0 -1.67244,-0.90922 -1.67244,-2.03082c0,-1.1216 0.74877,-2.03082 1.67244,-2.03082c0.92367,0 1.67245,0.90922 1.67245,2.03082z"/><path d="M468.58606,223.22652c0,0.89067 -0.64181,1.61272 -1.43353,1.61272c-0.79172,0 -1.43352,-0.72204 -1.43352,-1.61272c0,-0.89067 0.6418,-1.61271 1.43352,-1.61271c0.79172,0 1.43353,0.72204 1.43353,1.61271z"/><path d="M490.44729,261.57327c0,1.02263 -0.74878,1.85165 -1.67245,1.85165c-0.92367,0 -1.67244,-0.82901 -1.67244,-1.85163c0,-1.02263 0.74878,-1.85163 1.67244,-1.85163c0.92367,0 1.67245,0.829 1.67245,1.85163z"/><path d="M454.01191,255.36134c0,0.62677 -0.58832,1.13487 -1.31406,1.13487c-0.72574,0 -1.31406,-0.5081 -1.31406,-1.13487c0,-0.62677 0.58832,-1.13487 1.31406,-1.13487c0.72574,0 1.31406,0.5081 1.31406,1.13487z"/><path d="M453.4146,237.4423c0,1.0886 -0.82901,1.97109 -1.85163,1.97109c-1.02263,0 -1.85163,-0.88248 -1.85163,-1.97109c0,-1.0886 0.829,-1.9711 1.85163,-1.9711c1.02263,0 1.85163,0.88249 1.85163,1.9711z"/><path d="M455.44543,245.50586c0,1.91331 -1.44408,3.46436 -3.22543,3.46436c-1.78135,0 -3.22542,-1.55104 -3.22542,-3.46436c0,-1.91331 1.44407,-3.46434 3.22542,-3.46434c1.78136,0 3.22543,1.55103 3.22543,3.46434z"/></g><path d="M484.56112,215.98523c0,0.71864 -1.7997,43.09927 -3.87541,43.09927c-2.14033,0 -4.34516,-20.00082 -5.04978,-43.56902c-0.71132,-23.79244 -2.02289,-42.62953 5.04978,-42.62953c6.13319,0 3.87541,19.29621 3.87541,43.09928z"/><path d="M487.61448,198.04677c0,2.52947 -1.41962,4.58003 -3.1708,4.58003c-1.75118,0 -3.17079,-2.05055 -3.17079,-4.58003c0,-2.52947 1.41961,-4.58004 3.17079,-4.58004c1.75118,0 3.1708,2.05056 3.1708,4.58004z"/><path d="M489.72834,190.7657c0,1.23231 -1.05156,2.2313 -2.34873,2.2313c-1.29717,0 -2.34874,-0.99899 -2.34874,-2.2313c0,-1.23231 1.05156,-2.23129 2.34874,-2.23129c1.29717,0 2.34873,0.99899 2.34873,2.23129z"/><path d="M491.13758,250.07124c0,2.07547 -1.47219,3.75797 -3.28823,3.75797c-1.81604,0 -3.28823,-1.68249 -3.28823,-3.75797c0,-2.07547 1.47219,-3.75798 3.28823,-3.75798c1.81604,0 3.28823,1.6825 3.28823,3.75798z"/><path d="M485.97036,242.32042c0,1.29717 -0.84125,2.34873 -1.87898,2.34873c-1.03773,0 -1.87899,-1.05156 -1.87899,-2.34873c0,-1.29717 0.84125,-2.34874 1.87899,-2.34874c1.03773,0 1.87898,1.05157 1.87898,2.34874z"/><path d="M476.57543,236.68346c0,1.94576 -1.26188,3.5231 -2.81848,3.5231c-1.5566,0 -2.81849,-1.57734 -2.81849,-3.5231c0,-1.94576 1.26188,-3.52311 2.81849,-3.52311c1.5566,0 2.81848,1.57735 2.81848,3.52311z"/><path d="M468.11998,254.06409c0,1.81604 -1.47219,3.28822 -3.28823,3.28822c-1.81604,0 -3.28823,-1.47218 -3.28823,-3.28822c0,-1.81604 1.4722,-3.28823 3.28823,-3.28823c1.81604,0 3.28823,1.47219 3.28823,3.28823z"/><path d="M465.3015,216.83665c0,1.75118 -1.36703,3.17079 -3.05336,3.17079c-1.68633,0 -3.05336,-1.41961 -3.05336,-3.17079c0,-1.75118 1.36703,-3.17078 3.05336,-3.17078c1.68633,0 3.05336,1.4196 3.05336,3.17078z"/><path d="M469.99897,213.66585c0,2.07547 -1.41962,3.75797 -3.17079,3.75797c-1.75118,0 -3.17079,-1.6825 -3.17079,-3.75797c0,-2.07547 1.41961,-3.75797 3.17079,-3.75797c1.75118,0 3.17079,1.6825 3.17079,3.75797z"/><path d="M478.68929,194.2888c0,2.52947 -1.47219,4.58004 -3.28823,4.58004c-1.81604,0 -3.28822,-2.05055 -3.28822,-4.58004c0,-2.52947 1.47219,-4.58003 3.28822,-4.58003c1.81604,0 3.28823,2.05056 3.28823,4.58003z"/><path d="M478.45441,204.50579c0,1.29717 -1.10414,2.34873 -2.46617,2.34873c-1.36203,0 -2.46617,-1.05157 -2.46617,-2.34873c0,-1.29717 1.10414,-2.34874 2.46617,-2.34874c1.36203,0 2.46617,1.05157 2.46617,2.34874z"/><path d="M473.05232,180.31383c0,1.42689 -0.89383,2.58361 -1.99642,2.58361c-1.10259,0 -1.99643,-1.15672 -1.99643,-2.58361c0,-1.42689 0.89383,-2.58361 1.99643,-2.58361c1.10259,0 1.99642,1.15671 1.99642,2.58361z"/><path d="M473.52207,187.71234c0,1.36203 -1.10415,2.46617 -2.46618,2.46617c-1.36203,0 -2.46618,-1.10414 -2.46618,-2.46617c0,-1.36203 1.10415,-2.46616 2.46618,-2.46616c1.36203,0 2.46618,1.10414 2.46618,2.46616z"/><path d="M482.88272,200.59525c-1.59467,0.05208 -1.22554,-8.52341 -1.34366,-12.14058c-0.05962,-1.82536 -0.6987,-13.52912 0.09124,-13.55492c1.07726,-0.03518 1.81401,10.01739 1.91096,13.05059c0.04657,1.45683 0.93613,12.59284 -0.65855,12.64491z"/><path d="M480.39212,178.84587c0,1.00531 -0.78868,1.82027 -1.76156,1.82027c-0.97287,0 -1.76155,-0.81496 -1.76155,-1.82027c0,-1.00531 0.78868,-1.82027 1.76155,-1.82027c0.97287,0 1.76156,0.81497 1.76156,1.82027z"/><path d="M480.39212,195.34573c0,0.58372 -0.55207,1.05693 -1.23309,1.05693c-0.68102,0 -1.23309,-0.47321 -1.23309,-1.05693c0,-0.58372 0.55206,-1.05693 1.23309,-1.05693c0.68102,0 1.23309,0.47321 1.23309,1.05693z"/></g><g><path d="M175.49971,201.15005c0.73978,22.16902 1.57912,52.16634 -4.07473,52.3714c-5.65384,0.20506 -5.10534,-17.39386 -5.84513,-39.56287c-0.73978,-22.16901 -0.05987,-33.81841 4.7618,-37.23465c0.66927,-0.47418 4.28441,-2.84771 8.71512,-3.62372c6.01612,-1.05367 13.53588,0.83797 17.22628,14.42898c2.97863,10.96971 8.82598,49.20682 7.29378,66.12274c-0.62634,6.91499 -7.04432,4.67016 -9.09347,0.06429c-2.04915,-4.60587 -0.47656,-37.34338 -5.4498,-51.84345c-2.72746,-7.95223 -13.64969,-4.19403 -13.53385,-0.72271z"/><path d="M201.56118,200.33881c-3.176,15.11004 2.4438,47.30988 0.96593,52.17973c-1.47788,4.86985 -7.61298,8.05394 -9.09396,1.29653c-3.62286,-16.53046 -2.50892,-55.289 -0.88932,-66.60292c2.00663,-14.01748 9.28628,-17.01649 15.42777,-16.87246c4.52304,0.10608 8.42873,1.91692 9.15609,2.28661c5.2402,2.66344 7.36017,14.10352 9.36254,36.1784c2.00236,22.07488 4.7268,39.42918 -0.94776,40.07172c-5.67456,0.64255 -8.54556,-29.20321 -10.54792,-51.27809c-0.31354,-3.45658 -11.69156,-5.54627 -13.43337,2.74047z" data-paper-data="{&quot;index&quot;:null}"/><path d="M169.19631,191.67583c0,2.91863 -2.26086,5.28466 -5.04977,5.28466c-2.78892,0 -5.04978,-2.36602 -5.04978,-5.28466c0,-2.91863 2.26086,-5.28465 5.04978,-5.28465c2.78892,0 5.04977,2.36602 5.04977,5.28465z"/><path d="M177.88663,177.34856c0,4.60495 -3.78563,8.338 -8.45545,8.338c-4.6698,0 -8.45544,-3.73305 -8.45544,-8.338c0,-4.60495 3.78563,-8.338 8.45544,-8.338c4.66982,0 8.45545,3.73305 8.45545,8.33801z"/><path d="M233.7865,203.0672c0,3.63208 -3.04953,6.57646 -6.81133,6.57646c-3.7618,0 -6.81133,-2.94438 -6.81133,-6.57646c0,-3.63208 3.04954,-6.57645 6.81133,-6.57645c3.7618,0 6.81133,2.94438 6.81133,6.57646z"/><path d="M228.38441,195.0815c0,2.3349 -1.84024,4.22772 -4.11029,4.22772c-2.27004,0 -4.11028,-1.89281 -4.11028,-4.22772c0,-2.3349 1.84024,-4.22773 4.11028,-4.22773c2.27005,0 4.11029,1.89282 4.11029,4.22773z"/><path d="M220.6336,168.07105c0,3.11321 -2.47118,5.63696 -5.51952,5.63696c-3.04835,0 -5.51953,-2.52375 -5.51953,-5.63696c0,-3.11321 2.47117,-5.63696 5.51953,-5.63696c3.04835,0 5.51952,2.52375 5.51952,5.63696z"/><path d="M167.55219,236.06691c0,2.52947 -1.9454,4.58004 -4.34515,4.58004c-2.39977,0 -4.34516,-2.05055 -4.34516,-4.58004c0,-2.52947 1.94539,-4.58003 4.34516,-4.58003c2.39977,0 4.34517,2.05055 4.34517,4.58003z"/><path d="M183.99334,248.63265c0,2.20519 -1.89282,3.99285 -4.22773,3.99285c-2.33491,0 -4.22772,-1.78766 -4.22772,-3.99285c0,-2.20519 1.89281,-3.99284 4.22772,-3.99284c2.33491,0 4.22773,1.78766 4.22773,3.99284z"/><path d="M185.40258,230.07765c-0.12972,0 -0.23489,-0.10516 -0.23489,-0.23488c0,-0.12972 0.10517,-0.23488 0.23489,-0.23488c0.12972,0 0.23487,0.10516 0.23487,0.23488c0,0.12972 -0.10515,0.23488 -0.23487,0.23488z"/><path d="M214.52688,246.87109c0,2.52947 -1.84024,4.58004 -4.11028,4.58004c-2.27005,0 -4.11029,-2.05055 -4.11029,-4.58004c0,-2.52947 1.84024,-4.58004 4.11029,-4.58004c2.27004,0 4.11028,2.05056 4.11028,4.58004z"/><path d="M222.51258,250.27676c0,1.16746 -0.89383,2.11387 -1.99643,2.11387c-1.10259,0 -1.99642,-0.9464 -1.99642,-2.11387c0,-1.16746 0.89383,-2.11386 1.99642,-2.11386c1.10259,0 1.99643,0.94641 1.99643,2.11386z"/><path d="M165.61448,243.7003c0,0.84316 -0.73609,1.52668 -1.64411,1.52668c-0.90802,0 -1.64412,-0.68352 -1.64412,-1.52668c0,-0.84316 0.73609,-1.52667 1.64412,-1.52667c0.90802,0 1.64411,0.68351 1.64411,1.52667z"/><path d="M161.50421,183.86629c0,0.87559 -0.7361,1.5854 -1.64411,1.5854c-0.90802,0 -1.64411,-0.7098 -1.64411,-1.5854c0,-0.87559 0.73609,-1.5854 1.64411,-1.5854c0.90802,0 1.64411,0.70981 1.64411,1.5854z"/><path d="M227.85595,184.45347c0,1.13503 -0.81497,2.05515 -1.82026,2.05515c-1.00531,0 -1.82027,-0.92012 -1.82027,-2.05515c0,-1.13503 0.81495,-2.05514 1.82027,-2.05514c1.00531,0 1.82026,0.92012 1.82026,2.05514z"/><path d="M230.43956,189.85557c0,0.74588 -0.52578,1.35052 -1.17437,1.35052c-0.64858,0 -1.17436,-0.60465 -1.17436,-1.35052c0,-0.74588 0.52578,-1.35052 1.17436,-1.35052c0.64859,0 1.17437,0.60465 1.17437,1.35052z"/><path d="M206.83478,167.01412c0,1.23231 -0.92012,2.23131 -2.05515,2.23131c-1.13503,0 -2.05514,-0.999 -2.05514,-2.23131c0,-1.23231 0.92011,-2.23129 2.05514,-2.23129c1.13503,0 2.05515,0.99898 2.05515,2.23129z"/><path d="M180.29408,241.1167c0,0.84316 -0.68352,1.52667 -1.52667,1.52667c-0.84316,0 -1.52669,-0.68352 -1.52669,-1.52667c0,-0.84316 0.68353,-1.52668 1.52669,-1.52668c0.84316,0 1.52667,0.68353 1.52667,1.52668z"/><path d="M183.11256,243.46543c0,0.51888 -0.47321,0.9395 -1.05693,0.9395c-0.58373,0 -1.05693,-0.42062 -1.05693,-0.9395c0,-0.51888 0.4732,-0.93949 1.05693,-0.93949c0.58373,0 1.05693,0.42062 1.05693,0.93949z"/><path d="M169.4899,252.03831c0,4.60495 -0.34175,8.33801 -0.76334,8.33801c-0.42158,0 -0.76335,-3.73305 -0.76335,-8.33801c0,-4.60495 0.34175,-8.33801 0.76335,-8.33801c0.42158,0 0.76334,3.73306 0.76334,8.33802z"/><path d="M171.95607,255.67885c0,4.15095 -0.36805,7.51595 -0.82206,7.51595c-0.454,0 -0.82206,-3.36501 -0.82206,-7.51595c0,-4.15095 0.36804,-7.51595 0.82206,-7.51595c0.45401,0 0.82206,3.36501 0.82206,7.51595z"/><path d="M198.96652,257.55783c0,1.49175 -1.23559,2.70105 -2.75977,2.70105c-1.52417,0 -2.75977,-1.20931 -2.75977,-2.70105c0,-1.49175 1.2356,-2.70104 2.75977,-2.70104c1.52417,0 2.75977,1.20929 2.75977,2.70104z"/><path d="M201.66756,259.90657c0,0.64858 -0.49949,1.17437 -1.11565,1.17437c-0.61616,0 -1.11565,-0.52579 -1.11565,-1.17437c0,-0.64858 0.49949,-1.17436 1.11565,-1.17436c0.61615,0 1.11565,0.52578 1.11565,1.17436z"/><path d="M197.43984,261.37453c0,1.97818 -0.31546,3.58182 -0.70462,3.58182c-0.38916,0 -0.70462,-1.60363 -0.70462,-3.58182c0,-1.97818 0.31547,-3.58182 0.70462,-3.58182c0.38916,0 0.70462,1.60363 0.70462,3.58182z"/><path d="M211.76712,253.21268c0,3.04835 -0.42063,5.51952 -0.93949,5.51952c-0.51887,0 -0.93949,-2.47117 -0.93949,-5.51952c0,-3.04835 0.42062,-5.51953 0.93949,-5.51953c0.51887,0 0.93949,2.47118 0.93949,5.51953z"/><path d="M216.8169,251.86216c0,0.74588 -0.4732,1.35053 -1.05693,1.35053c-0.58373,0 -1.05693,-0.60465 -1.05693,-1.35053c0,-0.74588 0.47321,-1.35053 1.05693,-1.35053c0.58372,0 1.05693,0.60466 1.05693,1.35053z"/><path d="M228.3257,251.97959c0,5.5454 -0.70981,10.04084 -1.5854,10.04084c-0.87559,0 -1.5854,-4.49543 -1.5854,-10.04084c0,-5.5454 0.7098,-10.04084 1.5854,-10.04084c0.87559,0 1.5854,4.49543 1.5854,10.04084z"/><path d="M223.86311,244.46364c0,1.13503 -0.73609,2.05515 -1.64412,2.05515c-0.90802,0 -1.64412,-0.92012 -1.64412,-2.05515c0,-1.13503 0.73609,-2.05515 1.64412,-2.05515c0.90802,0 1.64412,0.92012 1.64412,2.05515z"/><path d="M205.07323,222.62041c0,2.1079 -1.41961,3.81669 -3.17079,3.81669c-1.75118,0 -3.17079,-1.70879 -3.17079,-3.81669c0,-2.1079 1.41961,-3.8167 3.17079,-3.8167c1.75118,0 3.17079,1.70879 3.17079,3.8167z"/><path d="M222.45386,229.31431c0,1.91333 -1.55105,3.46438 -3.46438,3.46438c-1.91333,0 -3.46439,-1.55105 -3.46439,-3.46438c0,-1.91333 1.55105,-3.46439 3.46439,-3.46439c1.91333,0 3.46438,1.55106 3.46438,3.46439z"/><path d="M206.48247,228.37481c0,0.87559 -0.68351,1.5854 -1.52667,1.5854c-0.84316,0 -1.52667,-0.70981 -1.52667,-1.5854c0,-0.87559 0.68351,-1.5854 1.52667,-1.5854c0.84316,0 1.52667,0.70981 1.52667,1.5854z"/><path d="M194.50392,212.57957c0,2.85378 -2.31344,5.16721 -5.16721,5.16721c-2.85377,0 -5.16722,-2.31344 -5.16722,-5.16721c0,-2.85378 2.31345,-5.16721 5.16722,-5.16721c2.85377,0 5.16721,2.31344 5.16721,5.16721z"/><path d="M192.5075,222.2681c0,1.19989 -1.15672,2.17257 -2.58361,2.17257c-1.42689,0 -2.58361,-0.97269 -2.58361,-2.17257c0,-1.19989 1.15672,-2.17258 2.58361,-2.17258c1.42689,0 2.58361,0.97269 2.58361,2.17258z"/><path d="M188.41457,178.09528c-0.1895,1.58422 -2.57466,-0.80473 -6.16814,-1.23459c-3.59349,-0.42985 -7.03453,1.26218 -6.84502,-0.32204c0.1895,-1.58423 3.25623,-2.52004 6.84972,-2.09019c3.59349,0.42985 6.35296,2.06258 6.16346,3.64682z"/><path d="M190.71072,180.98909c0,0.89505 -0.75713,1.62063 -1.6911,1.62063c-0.93397,0 -1.69109,-0.72558 -1.69109,-1.62063c0,-0.89504 0.75712,-1.62062 1.69109,-1.62062c0.93397,0 1.6911,0.72558 1.6911,1.62062z"/><path d="M211.86174,173.55568c0.22286,1.57988 -2.69491,-0.11796 -6.27853,0.38756c-3.58362,0.50552 -6.47606,3.02298 -6.69893,1.4431c-0.22287,-1.57988 2.50158,-3.27043 6.0852,-3.77595c3.58362,-0.50552 6.6694,0.36541 6.89226,1.94529z"/><path d="M218.7546,167.31946c0,0.89504 -0.75712,1.62063 -1.69109,1.62063c-0.93397,0 -1.69109,-0.72559 -1.69109,-1.62063c0,-0.89504 0.75713,-1.62063 1.69109,-1.62063c0.93397,0 1.69109,0.72559 1.69109,1.62063z"/></g><g><path d="M246.45756,243.90288c7.95528,6.23985 20.30088,3.60695 22.55079,0.25172c6.60637,-9.85191 1.97027,-41.82334 7.98489,-39.87701c4.64203,1.50215 11.98173,38.65547 -2.24724,49.66427c-8.72835,6.75304 -36.53968,9.56426 -40.41451,-9.44275c-3.87484,-19.00701 -6.78486,-34.72084 -1.78374,-35.72116c9.71627,-1.94342 2.94411,26.52378 13.90983,35.12492z"/><path d="M251.04994,255.81977c0,2.60731 -2.14519,4.72095 -4.79142,4.72095c-2.64623,0 -4.79142,-2.11364 -4.79142,-4.72095c0,-2.60731 2.14519,-4.72096 4.79142,-4.72096c2.64622,0 4.79142,2.11364 4.79142,4.72096z"/><path d="M240.19879,256.80624c0,1.0507 -0.82021,1.90247 -1.83201,1.90247c-1.0118,0 -1.83202,-0.85177 -1.83202,-1.90247c0,-1.0507 0.82022,-1.90248 1.83202,-1.90248c1.0118,0 1.83201,0.85177 1.83201,1.90248z"/><path d="M260.35093,260.75211c0,4.00826 -0.69403,7.25759 -1.55016,7.25759c-0.85613,0 -1.55016,-3.24933 -1.55016,-7.25759c0,-4.00825 0.69403,-7.25759 1.55016,-7.25759c0.85613,0 1.55016,3.24934 1.55016,7.25759z"/><path d="M265.4242,258.99056c0,2.25707 -0.4101,4.08679 -0.916,4.08679c-0.5059,0 -0.91601,-1.82972 -0.91601,-4.08679c0,-2.25707 0.41011,-4.0868 0.91601,-4.0868c0.5059,0 0.916,1.82972 0.916,4.0868z"/><path d="M272.47041,233.90608c0,1.47878 -1.23033,2.67756 -2.74802,2.67756c-1.51769,0 -2.74802,-1.19878 -2.74802,-2.67756c0,-1.47878 1.23033,-2.67756 2.74802,-2.67756c1.51769,0 2.74802,1.19878 2.74802,2.67756z"/><path d="M271.48393,238.41565c0,0.54481 -0.44165,0.98647 -0.98647,0.98647c-0.54481,0 -0.98647,-0.44166 -0.98647,-0.98647c0,-0.54481 0.44165,-0.98647 0.98647,-0.98647c0.54481,0 0.98647,0.44165 0.98647,0.98647z"/><path d="M289.24037,213.33116c0,1.71226 -1.4827,3.10033 -3.31171,3.10033c-1.82901,0 -3.31172,-1.38807 -3.31172,-3.10033c0,-1.71226 1.48271,-3.10033 3.31172,-3.10033c1.82901,0 3.31171,1.38806 3.31171,3.10033z"/><path d="M286.98558,219.88413c0,0.97288 -0.75712,1.76156 -1.69108,1.76156c-0.93397,0 -1.69109,-0.78868 -1.69109,-1.76156c0,-0.97288 0.75713,-1.76155 1.69109,-1.76155c0.93397,0 1.69108,0.78867 1.69108,1.76155z"/><path d="M289.80406,217.55888c0,0.70048 -0.44165,1.26832 -0.98646,1.26832c-0.54481,0 -0.98647,-0.56784 -0.98647,-1.26832c0,-0.70048 0.44166,-1.26831 0.98647,-1.26831c0.54481,0 0.98646,0.56784 0.98646,1.26831z"/><path d="M245.27205,233.131c0,2.296 -1.95591,4.15725 -4.36864,4.15725c-2.41273,0 -4.36865,-1.86127 -4.36865,-4.15725c0,-2.296 1.95592,-4.15726 4.36865,-4.15726c2.41273,0 4.36864,1.86128 4.36864,4.15726z"/><path d="M242.17173,227.91681c0,0.81722 -0.63094,1.4797 -1.40924,1.4797c-0.7783,0 -1.40924,-0.66249 -1.40924,-1.4797c0,-0.81722 0.63094,-1.4797 1.40924,-1.4797c0.7783,0 1.40924,0.66249 1.40924,1.4797z"/><path d="M243.58097,218.40443c0,2.10142 -1.67199,3.80495 -3.73449,3.80495c-2.0625,0 -3.73449,-1.70353 -3.73449,-3.80495c0,-2.10142 1.67199,-3.80496 3.73449,-3.80496c2.0625,0 3.73449,1.70354 3.73449,3.80496z"/><path d="M240.62156,212.97886c0,0.81722 -0.66249,1.4797 -1.4797,1.4797c-0.81722,0 -1.47971,-0.66248 -1.47971,-1.4797c0,-0.81722 0.66249,-1.4797 1.47971,-1.4797c0.81722,0 1.4797,0.66249 1.4797,1.4797z"/><path d="M281.06677,249.05541c0,7.51062 -0.50475,13.59917 -1.1274,13.59917c-0.62264,0 -1.12739,-6.08855 -1.12739,-13.59917c0,-7.51062 0.50474,-13.59917 1.12739,-13.59917c0.62264,0 1.1274,6.08856 1.1274,13.59917z"/><path d="M275.85258,254.48099c0,1.24528 -1.07259,2.25478 -2.39571,2.25478c-1.32312,0 -2.39571,-1.0095 -2.39571,-2.25478c0,-1.24528 1.07259,-2.25479 2.39571,-2.25479c1.32312,0 2.39571,1.00951 2.39571,2.25479z"/><path d="M278.24829,257.58132c0,0.62264 -0.53629,1.12739 -1.19786,1.12739c-0.66156,0 -1.19786,-0.50474 -1.19786,-1.12739c0,-0.62264 0.53629,-1.12739 1.19786,-1.12739c0.66156,0 1.19786,0.50475 1.19786,1.12739z"/><path d="M235.40737,245.25047c0,1.36203 -1.19879,2.46616 -2.67756,2.46616c-1.47877,0 -2.67756,-1.10414 -2.67756,-2.46616c0,-1.36203 1.19879,-2.46617 2.67756,-2.46617c1.47877,0 2.67756,1.10415 2.67756,2.46617z"/><path d="M232.87074,239.54304c0,0.54481 -0.50475,0.98647 -1.12739,0.98647c-0.62264,0 -1.1274,-0.44165 -1.1274,-0.98647c0,-0.54481 0.50474,-0.98647 1.1274,-0.98647c0.62264,0 1.12739,0.44166 1.12739,0.98647z"/><path d="M232.58763,210.92416c1.59091,-0.12127 0.27346,5.07755 0.54854,8.68618c0.27508,3.60863 2.17944,8.62922 0.58854,8.75049c-1.5909,0.12127 -1.69434,-6.36982 -1.96942,-9.97846c-0.27508,-3.60863 -0.75857,-7.33694 0.83234,-7.45821z"/><path d="M236.39384,216.14965c0,0.85613 -0.56784,1.55017 -1.26832,1.55017c-0.70047,0 -1.26831,-0.69404 -1.26831,-1.55017c0,-0.85613 0.56784,-1.55017 1.26831,-1.55017c0.70048,0 1.26832,0.69404 1.26832,1.55017z"/><path d="M235.97107,212.06284c0,0.62264 -0.47321,1.1274 -1.05693,1.1274c-0.58373,0 -1.05693,-0.50475 -1.05693,-1.1274c0,-0.62264 0.47321,-1.12739 1.05693,-1.12739c0.58372,0 1.05693,0.50474 1.05693,1.12739z"/></g><g><path d="M304.14317,215.61847c-9.65154,8.77246 26.32489,19.86549 23.61451,30.89314c-2.42574,9.86952 -37.14642,11.75072 -38.01167,10.60383c-3.95277,-5.23943 16.86036,-3.21189 20.64852,-14.22797c2.23892,-6.51084 -18.31663,-13.06001 -19.69103,-20.40068c-1.34364,-7.17636 1.09546,-15.54272 21.20063,-19.52258c20.10517,-3.97986 20.56486,7.46312 22.36486,13.56567c1.0826,3.67032 -16.83199,-12.9944 -30.12582,-0.91141z"/><path d="M295.34048,229.78405c0,5.02653 -0.49949,9.10135 -1.11565,9.10135c-0.61615,0 -1.11565,-4.0748 -1.11565,-9.10135c0,-5.02653 0.49949,-9.10135 1.11565,-9.10135c0.61615,0 1.11565,4.07481 1.11565,9.10135z"/><path d="M299.92051,232.1915c0,2.59434 -0.26289,4.69746 -0.58718,4.69746c-0.3243,0 -0.58719,-2.10313 -0.58719,-4.69746c0,-2.59434 0.26289,-4.69747 0.58719,-4.69747c0.3243,0 0.58718,2.10314 0.58718,4.69747z"/><path d="M319.94347,243.46542c0.81073,0 1.46796,3.94337 1.46796,8.80776c0,4.8644 -0.65723,8.80776 -1.46796,8.80776c-0.81073,0 -1.46795,-3.94336 -1.46795,-8.80776c0,-4.8644 0.65722,-8.80776 1.46795,-8.80776z"/><path d="M302.03437,258.43861c0,2.23762 -0.39433,4.05157 -0.88077,4.05157c-0.48645,0 -0.88077,-1.81395 -0.88077,-4.05157c0,-2.23762 0.39433,-4.05157 0.88077,-4.05157c0.48645,0 0.88077,1.81395 0.88077,4.05157z"/><path d="M314.83497,214.2824c0,3.59965 -0.76238,6.51774 -1.70283,6.51774c-0.94045,0 -1.70283,-2.91809 -1.70283,-6.51774c0,-3.59965 0.76238,-6.51774 1.70283,-6.51774c0.94045,0 1.70283,2.91809 1.70283,6.51774z"/><path d="M317.77089,212.99059c0,1.97818 -0.49949,3.58183 -1.11565,3.58183c-0.61615,0 -1.11565,-1.60363 -1.11565,-3.58183c0,-1.97818 0.4995,-3.58181 1.11565,-3.58181c0.61615,0 1.11565,1.60363 1.11565,3.58181z"/><path d="M292.522,228.19866c0,0.84316 -0.68352,1.52667 -1.52667,1.52667c-0.84316,0 -1.52668,-0.68352 -1.52668,-1.52667c0,-0.84316 0.68353,-1.52668 1.52668,-1.52668c0.84316,0 1.52667,0.68352 1.52667,1.52668z"/><path d="M305.44004,237.82847c0,0.71345 -0.55207,1.2918 -1.23308,1.2918c-0.68102,0 -1.23308,-0.57836 -1.23308,-1.2918c0,-0.71345 0.55207,-1.2918 1.23308,-1.2918c0.68102,0 1.23308,0.57836 1.23308,1.2918z"/><path d="M296.86716,250.45291c0,1.52418 -1.28816,2.75976 -2.8772,2.75976c-1.58903,0 -2.8772,-1.23558 -2.8772,-2.75976c0,-1.52418 1.28817,-2.75977 2.8772,-2.75977c1.58903,0 2.8772,1.23559 2.8772,2.75977z"/><path d="M300.27282,250.1006c0,0.55131 -0.44691,0.99821 -0.99821,0.99821c-0.55131,0 -0.99821,-0.4469 -0.99821,-0.99821c0,-0.55131 0.44691,-0.99822 0.99821,-0.99822c0.55131,0 0.99821,0.44691 0.99821,0.99822z"/><path d="M322.5858,234.83382c0,1.78361 -1.31445,3.22951 -2.93592,3.22951c-1.62145,0 -2.93592,-1.4459 -2.93592,-3.22951c0,-1.78361 1.31446,-3.2295 2.93592,-3.2295c1.62145,0 2.93592,1.44589 2.93592,3.2295z"/><path d="M324.8171,236.18435c0,0.58372 -0.36805,1.05693 -0.82205,1.05693c-0.45401,0 -0.82206,-0.47321 -0.82206,-1.05693c0,-0.58372 0.36805,-1.05693 0.82206,-1.05693c0.45401,0 0.82205,0.47321 0.82205,1.05693z"/><path d="M317.53602,257.73399c0,1.26474 -1.02528,2.29001 -2.29002,2.29001c-1.26474,0 -2.29002,-1.02528 -2.29002,-2.29001c0,-1.26474 1.02528,-2.29002 2.29002,-2.29002c1.26474,0 2.29002,1.02528 2.29002,2.29002z"/><path d="M312.72111,257.08809c0,0.45401 -0.36804,0.82206 -0.82206,0.82206c-0.45401,0 -0.82206,-0.36804 -0.82206,-0.82206c0,-0.45401 0.36804,-0.82206 0.82206,-0.82206c0.45401,0 0.82206,0.36804 0.82206,0.82206z"/><path d="M293.93124,260.06137c0,0.92866 -0.70981,1.68148 -1.5854,1.68148c-0.87559,0 -1.58539,-0.75283 -1.58539,-1.68148c0,-0.92865 0.7098,-1.68148 1.58539,-1.68148c0.87559,0 1.5854,0.75283 1.5854,1.68148z"/><path d="M298.86358,261.02222c0,1.45932 -1.10415,2.64233 -2.46617,2.64233c-1.36203,0 -2.46617,-1.18301 -2.46617,-2.64233c0,-1.45932 1.10414,-2.64233 2.46617,-2.64233c1.36203,0 2.46617,1.18301 2.46617,2.64233z"/><path d="M303.67849,206.70774c0,1.5566 -1.26188,2.81848 -2.81849,2.81848c-1.5566,0 -2.81848,-1.26187 -2.81848,-2.81848c0,-1.5566 1.26188,-2.81849 2.81848,-2.81849c1.5566,0 2.81849,1.26188 2.81849,2.81849z"/><path d="M312.83855,204.30028c0,2.23762 -1.86653,4.05156 -4.169,4.05156c-2.30247,0 -4.169,-1.81395 -4.169,-4.05156c0,-2.23762 1.86652,-4.05157 4.169,-4.05157c2.30247,0 4.169,1.81395 4.169,4.05157z"/><path d="M318.24064,201.54051c0,0.45401 -0.42062,0.82206 -0.93949,0.82206c-0.51888,0 -0.9395,-0.36804 -0.9395,-0.82206c0,-0.45401 0.42063,-0.82206 0.9395,-0.82206c0.51888,0 0.93949,0.36804 0.93949,0.82206z"/><path d="M314.48266,200.01384c0,0.7783 -0.60465,1.40923 -1.35052,1.40923c-0.74588,0 -1.35052,-0.63093 -1.35052,-1.40923c0,-0.7783 0.60465,-1.40924 1.35052,-1.40924c0.74588,0 1.35052,0.63094 1.35052,1.40924z"/><path d="M335.50384,210.1134c0,1.42689 -1.05157,2.58361 -2.34874,2.58361c-1.29717,0 -2.34873,-1.15672 -2.34873,-2.58361c0,-1.42689 1.05156,-2.5836 2.34873,-2.5836c1.29717,0 2.34874,1.15671 2.34874,2.5836z"/><path d="M333.1551,205.41592c0,0.71345 -0.49949,1.29182 -1.11564,1.29182c-0.61616,0 -1.11565,-0.57837 -1.11565,-1.29182c0,-0.71345 0.49949,-1.2918 1.11565,-1.2918c0.61615,0 1.11564,0.57836 1.11564,1.2918z"/><path d="M330.68893,217.98166c0,1.5566 -1.15672,2.81848 -2.58361,2.81848c-1.42689,0 -2.58361,-1.26188 -2.58361,-2.81848c0,-1.5566 1.15671,-2.81849 2.58361,-2.81849c1.42689,0 2.58361,1.26188 2.58361,2.81849z"/><path d="M325.99146,216.10267c0,0.51888 -0.4732,0.93949 -1.05693,0.93949c-0.58372,0 -1.05693,-0.42062 -1.05693,-0.93949c0,-0.51888 0.47321,-0.93949 1.05693,-0.93949c0.58372,0 1.05693,0.42063 1.05693,0.93949z"/><path d="M325.65552,205.17912c0.16805,1.58665 -9.45116,0.50583 -13.05012,0.88703c-1.81617,0.19237 -12.17443,4.53315 -12.25768,3.7472c-0.11353,-1.07184 9.16788,-5.54967 12.18596,-5.86723c1.44958,-0.15252 12.95379,-0.35363 13.12184,1.23301z"/><path d="M329.27969,207.52979c0,0.7783 -0.73609,1.40923 -1.64411,1.40923c-0.90802,0 -1.64412,-0.63093 -1.64412,-1.40923c0,-0.7783 0.7361,-1.40924 1.64412,-1.40924c0.90802,0 1.64411,0.63094 1.64411,1.40924z"/><path d="M324.22991,207.82339c0,0.68102 -0.47321,1.23308 -1.05693,1.23308c-0.58372,0 -1.05692,-0.55206 -1.05692,-1.23308c0,-0.68102 0.4732,-1.23309 1.05692,-1.23309c0.58372,0 1.05693,0.55208 1.05693,1.23309z"/></g><g><path d="M361.66329,227.46411c0,20.51181 -1.78388,37.13993 -4.3694,37.13993c-2.58552,0 -3.90125,-16.47206 -3.90125,-36.98387c0,-4.03158 -0.69927,-8.06916 -0.54953,-11.7039c0.07521,-1.8257 -18.37216,-1.40278 -18.29381,-5.74619c0.10565,-5.85672 18.81804,-3.03591 18.96698,-4.6471c0.8519,-9.2156 0.21692,-15.15123 4.24577,-14.73063c3.90619,0.4078 2.48532,5.63654 3.33511,15.01092c0.1375,1.51676 19.3686,-0.46224 19.56295,5.57529c0.20056,6.23056 -19.01239,2.30033 -18.94159,3.92147c0.16645,3.81104 -0.05523,7.9038 -0.05523,12.1641z"/><path d="M349.10133,215.28061c0,1.47322 -1.21681,2.6675 -2.71782,2.6675c-1.50101,0 -2.71783,-1.19428 -2.71783,-2.6675c0,-1.47322 1.21681,-2.66748 2.71783,-2.66748c1.50101,0 2.71782,1.19428 2.71782,2.6675z"/><path d="M342.75975,218.45141c0,4.61422 -0.63094,8.35478 -1.40924,8.35478c-0.7783,0 -1.40924,-3.74056 -1.40924,-8.35478c0,-4.61422 0.63093,-8.35479 1.40924,-8.35479c0.7783,0 1.40924,3.74057 1.40924,8.35479z"/><path d="M340.24325,214.425c0,2.22372 -0.36054,4.0264 -0.80528,4.0264c-0.44474,0 -0.80529,-1.80268 -0.80529,-4.0264c0,-2.22372 0.36055,-4.0264 0.80529,-4.0264c0.44474,0 0.80528,1.80268 0.80528,4.0264z"/><path d="M368.52872,217.99843c0,5.69828 -0.45066,10.31766 -1.0066,10.31766c-0.55593,0 -1.0066,-4.61938 -1.0066,-10.31765c0,-5.69828 0.45067,-10.31765 1.0066,-10.31765c0.55593,0 1.0066,4.61938 1.0066,10.31766z"/><path d="M373.46107,217.69645c0,2.75185 -0.31547,4.98268 -0.70462,4.98268c-0.38916,0 -0.70462,-2.23083 -0.70462,-4.98267c0,-2.75185 0.31547,-4.98266 0.70462,-4.98266c0.38915,0 0.70462,2.23082 0.70462,4.98266z"/><path d="M372.55513,224.84331c0,0.7505 -0.51828,1.35891 -1.15759,1.35891c-0.63932,0 -1.15759,-0.60841 -1.15759,-1.35891c0,-0.7505 0.51827,-1.35891 1.15759,-1.35891c0.63932,0 1.15759,0.60841 1.15759,1.35891z"/><path d="M378.29275,217.09249c0,0.97288 -0.676,1.76155 -1.5099,1.76155c-0.83389,0 -1.50991,-0.78867 -1.50991,-1.76155c0,-0.97288 0.67601,-1.76155 1.50991,-1.76155c0.83389,0 1.5099,0.78867 1.5099,1.76155z"/><path d="M350.81255,219.91097c0,0.69492 -0.49573,1.25825 -1.10725,1.25825c-0.61153,0 -1.10726,-0.56334 -1.10726,-1.25825c0,-0.69492 0.49573,-1.25825 1.10726,-1.25825c0.61152,0 1.10725,0.56334 1.10725,1.25825z"/><path d="M352.62443,202.54711c0,0.88949 -0.67601,1.61057 -1.50991,1.61057c-0.83389,0 -1.5099,-0.72108 -1.5099,-1.61057c0,-0.88949 0.676,-1.61056 1.5099,-1.61056c0.83389,0 1.50991,0.72107 1.50991,1.61056z"/><path d="M347.28945,201.33919c0,1.77898 -1.39708,3.22113 -3.12046,3.22113c-1.72338,0 -3.12046,-1.44215 -3.12046,-3.22113c0,-1.77898 1.39708,-3.22112 3.12046,-3.22112c1.72338,0 3.12046,1.44215 3.12046,3.22113z"/><path d="M349.60463,198.52071c0,0.50034 -0.33801,0.90594 -0.75495,0.90594c-0.41695,0 -0.75495,-0.4056 -0.75495,-0.90594c0,-0.50034 0.338,-0.90594 0.75495,-0.90594c0.41695,0 0.75495,0.4056 0.75495,0.90594z"/><path d="M363.2944,196.91015c0,1.27865 -0.96894,2.31518 -2.16419,2.31518c-1.19525,0 -2.16419,-1.03653 -2.16419,-2.31518c0,-1.27865 0.96894,-2.31519 2.16419,-2.31519c1.19525,0 2.16419,1.03654 2.16419,2.31519z"/><path d="M378.89671,206.72451c0,1.91796 -1.46469,3.47277 -3.27146,3.47277c-1.80678,0 -3.27145,-1.55481 -3.27145,-3.47277c0,-1.91796 1.46467,-3.47277 3.27145,-3.47277c1.80678,0 3.27146,1.55481 3.27146,3.47277z"/><path d="M370.74324,205.01329c0,0.69492 -0.4732,1.25825 -1.05693,1.25825c-0.58372,0 -1.05693,-0.56334 -1.05693,-1.25825c0,-0.69492 0.47321,-1.25825 1.05693,-1.25825c0.58373,0 1.05693,0.56333 1.05693,1.25825z"/><path d="M373.66239,201.94316c0,0.94508 -0.72108,1.71122 -1.61057,1.71122c-0.88949,0 -1.61055,-0.76613 -1.61055,-1.71122c0,-0.94508 0.72107,-1.71123 1.61055,-1.71123c0.88949,0 1.61057,0.76614 1.61057,1.71123z"/><path d="M366.3142,206.42252c0,0.69492 -0.63094,1.25825 -1.40924,1.25825c-0.77831,0 -1.40924,-0.56334 -1.40924,-1.25825c0,-0.69492 0.63094,-1.25825 1.40924,-1.25825c0.7783,0 1.40924,0.56334 1.40924,1.25825z"/><path d="M353.63103,252.4745c0,0.66712 -0.56334,1.20792 -1.25825,1.20792c-0.69491,0 -1.25825,-0.5408 -1.25825,-1.20792c0,-0.66712 0.56334,-1.20792 1.25825,-1.20792c0.69491,0 1.25825,0.54081 1.25825,1.20792z"/><path d="M356.75149,248.49842c0,1.25084 -1.10415,2.26486 -2.46618,2.26486c-1.36203,0 -2.46617,-1.01402 -2.46617,-2.26486c0,-1.25084 1.10414,-2.26485 2.46617,-2.26485c1.36203,0 2.46618,1.014 2.46618,2.26485z"/><path d="M362.99242,260.17499c0,0.80609 -0.63094,1.45956 -1.40923,1.45956c-0.77831,0 -1.40925,-0.65347 -1.40925,-1.45956c0,-0.8061 0.63094,-1.45957 1.40925,-1.45957c0.7783,0 1.40923,0.65348 1.40923,1.45957z"/><path d="M359.2626,197.59012c-0.69506,0.59355 -0.53262,-2.0917 -1.24129,-3.18554c-0.94941,-1.46541 -3.19363,-1.6596 -2.64125,-2.1313c0.75329,-0.64327 2.48176,-1.32621 4.05788,1.11004c0.75701,1.17013 0.93975,3.25457 -0.17534,4.20679z"/><path d="M357.35546,194.89695c0,0.55594 -0.47321,1.0066 -1.05693,1.0066c-0.58372,0 -1.05693,-0.45066 -1.05693,-1.0066c0,-0.55594 0.47321,-1.00661 1.05693,-1.00661c0.58372,0 1.05693,0.45067 1.05693,1.00661z"/></g></g><g><path d="M426.91142,201.36768c-0.38915,0 -0.70462,-0.18928 -0.70462,-0.42277c0,-0.23349 0.31547,-0.42277 0.70462,-0.42277c0.38916,0 0.70463,0.18928 0.70463,0.42277c0,0.23349 -0.31547,0.42277 -0.70463,0.42277z" fill="#ecec68"/><g><path d="M422.71054,222.3184c0,4.99428 1.415,11.10133 1.20177,16.00613c-0.59812,13.75824 2.90338,24.0994 -2.73532,24.27466c-6.27197,0.19494 -5.14639,-7.46151 -5.70252,-20.30733c-0.16724,-3.86291 -0.4317,-9.4733 -0.4317,-13.86675c0,-19.00354 -5.17868,-34.09091 0.25559,-33.70434c7.5811,0.5393 2.41313,9.4094 12.02101,10.50909c4.13394,0.47315 10.17885,-1.08734 19.46767,0.04234c8.68498,1.05623 12.57862,5.02412 12.62309,5.90424c0.15085,2.98548 -16.50664,-1.7207 -28.45279,2.27079c-5.37128,1.79467 -8.2468,7.30131 -8.2468,8.87117z" fill="#ecec68"/><path d="M431.23309,220.55685c0,6.74528 -0.68351,12.21341 -1.52667,12.21341c-0.84316,0 -1.52668,-5.46813 -1.52668,-12.21341c0,-6.74528 0.68352,-12.21342 1.52668,-12.21342c0.84316,0 1.52667,5.46814 1.52667,12.21342z" fill="#ecec68"/><path d="M426.53563,217.73836c0,1.42688 -1.10415,2.58361 -2.46618,2.58361c-1.36203,0 -2.46618,-1.15672 -2.46618,-2.58361c0,-1.42688 1.10415,-2.58361 2.46618,-2.58361c1.36203,0 2.46618,1.15672 2.46618,2.58361z" fill="#ecec68"/><path d="M436.25939,214.1448c0,1.20637 -0.97795,2.18433 -2.18432,2.18433c-1.20637,0 -2.18433,-0.97795 -2.18433,-2.18433c0,-1.20637 0.97796,-2.18433 2.18433,-2.18433c1.20637,0 2.18432,0.97795 2.18432,2.18433z" fill="#ecec68"/><path d="M446.96962,216.75189c0,4.66982 -0.59939,8.45544 -1.33878,8.45544c-0.73938,0 -1.33878,-3.78563 -1.33878,-8.45544c0,-4.66981 0.59939,-8.45544 1.33878,-8.45544c0.73939,0 1.33878,3.78563 1.33878,8.45544z" fill="#ecec68"/><path d="M445.41945,211.89002c0,1.75118 -1.35652,3.17079 -3.02987,3.17079c-1.67336,0 -3.02986,-1.41961 -3.02986,-3.17079c0,-1.75118 1.35652,-3.17079 3.02986,-3.17079c1.67336,0 3.02987,1.41961 3.02987,3.17079z" fill="#ecec68"/><path d="M426.9584,252.26476c0,1.71227 -1.29343,3.10033 -2.88894,3.10033c-1.59552,0 -2.88894,-1.38806 -2.88894,-3.10033c0,-1.71227 1.29343,-3.10033 2.88894,-3.10033c1.59552,0 2.88894,1.38806 2.88894,3.10033z" fill="#ecec68"/><path d="M426.81748,204.4915c0,1.16745 -1.07259,2.11386 -2.39571,2.11386c-1.32311,0 -2.39571,-0.94641 -2.39571,-2.11386c0,-1.16745 1.0726,-2.11386 2.39571,-2.11386c1.32312,0 2.39571,0.94641 2.39571,2.11386z" fill="#ecec68"/><path d="M430.62242,202.30717c0,0.97288 -0.91485,1.76155 -2.0434,1.76155c-1.12853,0 -2.0434,-0.78867 -2.0434,-1.76155c0,-0.97288 0.91486,-1.76155 2.0434,-1.76155c1.12854,0 2.0434,0.78867 2.0434,1.76155z" fill="#ecec68"/><path d="M429.63596,258.04265c0,1.40094 -1.16724,2.53663 -2.60709,2.53663c-1.43986,0 -2.6071,-1.13569 -2.6071,-2.53663c0,-1.40094 1.16724,-2.53663 2.6071,-2.53663c1.43985,0 2.60709,1.13569 2.60709,2.53663z" fill="#ecec68"/><path d="M429.91781,253.95584c0,0.70048 -0.53629,1.26832 -1.19786,1.26832c-0.66156,0 -1.19786,-0.56785 -1.19786,-1.26832c0,-0.70048 0.53629,-1.26831 1.19786,-1.26831c0.66156,0 1.19786,0.56784 1.19786,1.26831z" fill="#ecec68"/><path d="M419.3485,237.11542c0,2.296 -1.54579,4.15726 -3.45263,4.15726c-1.90684,0 -3.45264,-1.86127 -3.45264,-4.15726c0,-2.296 1.5458,-4.15726 3.45264,-4.15726c1.90684,0 3.45263,1.86127 3.45263,4.15726z" fill="#ecec68"/><path d="M414.13431,230.49199c0,0.89505 -0.72558,1.62063 -1.62063,1.62063c-0.89504,0 -1.62063,-0.72558 -1.62063,-1.62063c0,-0.89505 0.72559,-1.62062 1.62063,-1.62062c0.89504,0 1.62063,0.72558 1.62063,1.62062z" fill="#ecec68"/><path d="M416.24817,246.90964c0,1.0118 -0.78867,1.83201 -1.76155,1.83201c-0.97288,0 -1.76155,-0.82022 -1.76155,-1.83201c0,-1.0118 0.78868,-1.83201 1.76155,-1.83201c0.97288,0 1.76155,0.82022 1.76155,1.83201z" fill="#ecec68"/><path d="M418.7848,258.04265c0,4.43632 -0.59939,8.03267 -1.33878,8.03267c-0.73939,0 -1.33878,-3.59634 -1.33878,-8.03267c0,-4.43632 0.59939,-8.03267 1.33878,-8.03267c0.73938,0 1.33878,3.59635 1.33878,8.03267z" fill="#ecec68"/><path d="M422.30791,262.19991c0,1.90684 -0.31547,3.45264 -0.70463,3.45264c-0.38915,0 -0.70462,-1.5458 -0.70462,-3.45264c0,-1.90684 0.31547,-3.45264 0.70462,-3.45264c0.38916,0 0.70463,1.5458 0.70463,3.45264z" fill="#ecec68"/><path d="M453.17028,214.84942c0,0.73938 -0.59938,1.33878 -1.33877,1.33878c-0.73939,0 -1.33878,-0.59939 -1.33878,-1.33878c0,-0.73938 0.59939,-1.33878 1.33878,-1.33878c0.73938,0 1.33877,0.59939 1.33877,1.33878z" fill="#ecec68"/><path d="M456.12968,204.91427c0,1.63443 -1.16723,2.95941 -2.60709,2.95941c-1.43985,0 -2.60709,-1.32497 -2.60709,-2.95941c0,-1.63443 1.16724,-2.95941 2.60709,-2.95941c1.43986,0 2.60709,1.32497 2.60709,2.95941z" fill="#ecec68"/><path d="M450.21087,203.85734c0,0.73938 -0.59939,1.33878 -1.33878,1.33878c-0.73939,0 -1.33878,-0.59939 -1.33878,-1.33878c0,-0.73938 0.59939,-1.33878 1.33878,-1.33878c0.73938,0 1.33878,0.59939 1.33878,1.33878z" fill="#ecec68"/><path d="M416.38909,212.94695c0,1.71227 -1.32497,3.10033 -2.9594,3.10033c-1.63443,0 -2.95941,-1.38806 -2.95941,-3.10033c0,-1.71227 1.32498,-3.10034 2.95941,-3.10034c1.63444,0 2.9594,1.38807 2.9594,3.10034z" fill="#ecec68"/><path d="M412.866,207.0986c0,0.81722 -0.72559,1.4797 -1.62063,1.4797c-0.89504,0 -1.62063,-0.66249 -1.62063,-1.4797c0,-0.81722 0.72558,-1.47971 1.62063,-1.47971c0.89504,0 1.62063,0.66249 1.62063,1.47971z" fill="#ecec68"/><path d="M450.49658,207.43731c0.39126,0.54287 -5.69916,-0.35299 -10.57172,-0.04816c-3.0257,0.18929 -8.53431,0.77618 -9.05639,1.05641c-1.8258,0.98001 -5.64057,-0.0995 -2.60537,-1.72608c0.66536,-0.35657 7.71287,-0.73466 11.55966,-0.94752c4.58155,-0.25351 10.12069,0.89794 10.67381,1.66535z" fill="#ededed"/><path d="M424.98546,207.94414c0,1.2842 -1.0095,2.32525 -2.25479,2.32525c-1.24528,0 -2.25478,-1.04105 -2.25478,-2.32525c0,-1.2842 1.0095,-2.32525 2.25478,-2.32525c1.24529,0 2.25479,1.04105 2.25479,2.32525z" fill="#ededed"/><path d="M428.0858,210.48077c0,0.73938 -0.63094,1.33877 -1.40924,1.33877c-0.77831,0 -1.40924,-0.59939 -1.40924,-1.33877c0,-0.73938 0.63094,-1.33878 1.40924,-1.33878c0.7783,0 1.40924,0.59939 1.40924,1.33878z" fill="#ededed"/></g><g><path d="M401.19664,242.55056c0,2.93667 -4.7776,11.21859 -6.29461,0.96096c-1.06273,-7.18595 -2.91243,-25.46135 -8.46896,-25.46135c-1.89352,0 -10.13158,12.33703 -9.69991,20.96094c0.43168,8.62391 7.51696,19.15077 11.63614,17.72065c5.91947,-2.05515 7.55464,-14.48551 8.98559,-12.68055c0.2316,0.29215 2.96015,-2.97736 3.97175,-1.8291c0.55557,0.63062 0.59327,4.69452 -0.58489,6.50066c-0.38936,0.59688 1.53243,4.15944 5.3004,6.01628c4.44459,2.19027 10.83827,2.75083 10.05466,4.05088c-0.17021,0.28239 -6.14096,2.17669 -11.09591,1.56874c-4.50353,-0.55258 -8.03022,-3.6128 -8.2341,-3.39947c-3.01472,3.15457 -7.92026,4.77347 -8.11246,4.77933c-10.25096,0.31291 -16.14262,-6.80013 -17.14315,-12.06346c-3.69871,-19.45712 6.96196,-36.1371 15.15937,-36.1371c8.19741,0 14.52609,19.89706 14.52609,29.01259z" fill="#ecec68"/><path d="M378.84223,258.68117c0,4.57984 -0.77998,8.29253 -1.74213,8.29253c-0.96215,0 -1.74212,-3.71269 -1.74212,-8.29253c0,-4.57984 0.77997,-8.29254 1.74212,-8.29254c0.96215,0 1.74213,3.7127 1.74213,8.29254z" fill="#ecec68"/><path d="M381.90838,261.05046c0,1.42399 -0.40559,2.57835 -0.9059,2.57835c-0.50032,0 -0.90591,-1.15437 -0.90591,-2.57835c0,-1.42398 0.40559,-2.57835 0.90591,-2.57835c0.50032,0 0.9059,1.15437 0.9059,2.57835z" fill="#ecec68"/><path d="M404.347,260.9111c0,2.65553 -0.62397,4.80828 -1.39369,4.80828c-0.76972,0 -1.39371,-2.15274 -1.39371,-4.80828c0,-2.65553 0.62399,-4.80828 1.39371,-4.80828c0.76972,0 1.39369,2.15274 1.39369,4.80828z" fill="#ecec68"/><path d="M400.72338,260.56267c0,0.92367 -0.71758,1.67245 -1.60276,1.67245c-0.88518,0 -1.60276,-0.74878 -1.60276,-1.67245c0,-0.92366 0.71758,-1.67244 1.60276,-1.67244c0.88518,0 1.60276,0.74878 1.60276,1.67244z" fill="#ecec68"/><path d="M385.53201,263.28039c0,0.80821 -0.62398,1.46338 -1.3937,1.46338c-0.76972,0 -1.3937,-0.65518 -1.3937,-1.46338c0,-0.80821 0.62398,-1.46339 1.3937,-1.46339c0.76972,0 1.3937,0.65518 1.3937,1.46339z" fill="#ecec68"/><path d="M374.38238,258.47211c0,1.07762 -0.96717,1.95118 -2.16023,1.95118c-1.19307,0 -2.16025,-0.87357 -2.16025,-1.95118c0,-1.07762 0.96718,-1.95118 2.16025,-1.95118c1.19306,0 2.16023,0.87358 2.16023,1.95118z" fill="#ecec68"/><path d="M383.85957,227.18348c0,4.9647 -0.77998,8.98938 -1.74213,8.98938c-0.96215,0 -1.74214,-4.02469 -1.74214,-8.98938c0,-4.9647 0.77998,-8.98939 1.74214,-8.98939c0.96215,0 1.74213,4.02469 1.74213,8.98939z" fill="#ecec68"/><path d="M381.52881,227.95499c0,1.1216 -0.74878,2.03083 -1.67244,2.03083c-0.92367,0 -1.67245,-0.90923 -1.67245,-2.03083c0,-1.1216 0.74878,-2.03082 1.67245,-2.03082c0.92367,0 1.67244,0.90922 1.67244,2.03082z" fill="#ecec68"/><path d="M387.14345,222.16117c0,0.89067 -0.64181,1.61272 -1.43353,1.61272c-0.79172,0 -1.43352,-0.72204 -1.43352,-1.61272c0,-0.89067 0.6418,-1.61272 1.43352,-1.61272c0.79172,0 1.43353,0.72204 1.43353,1.61272z" fill="#ecec68"/><path d="M409.00468,260.50792c0,1.02263 -0.74878,1.85165 -1.67245,1.85165c-0.92367,0 -1.67245,-0.82902 -1.67245,-1.85165c0,-1.02263 0.74878,-1.85163 1.67245,-1.85163c0.92367,0 1.67245,0.82901 1.67245,1.85163z" fill="#ecec68"/><path d="M372.56929,254.29598c0,0.62678 -0.58832,1.13487 -1.31406,1.13487c-0.72574,0 -1.31406,-0.5081 -1.31406,-1.13487c0,-0.62678 0.58833,-1.13487 1.31406,-1.13487c0.72574,0 1.31406,0.50809 1.31406,1.13487z" fill="#ecec68"/><path d="M371.97198,236.37694c0,1.08861 -0.829,1.97109 -1.85163,1.97109c-1.02263,0 -1.85163,-0.88249 -1.85163,-1.97109c0,-1.08861 0.82901,-1.9711 1.85163,-1.9711c1.02263,0 1.85163,0.8825 1.85163,1.9711z" fill="#ecec68"/><path d="M374.00281,244.44051c0,1.91331 -1.44407,3.46435 -3.22543,3.46435c-1.78136,0 -3.22544,-1.55104 -3.22544,-3.46435c0,-1.91331 1.44408,-3.46435 3.22544,-3.46435c1.78135,0 3.22543,1.55104 3.22543,3.46435z" fill="#ecec68"/><path d="M406.49601,247.60621c0,2.40813 -1.92543,4.36029 -4.30057,4.36029c-2.37514,0 -4.30057,-1.95217 -4.30057,-4.36029c0,-2.40813 1.92543,-4.3603 4.30057,-4.3603c2.37514,0 4.30057,1.95218 4.30057,4.3603z" fill="#ecec68"/><path d="M404.46519,241.03589c0,0.75872 -0.61507,1.37379 -1.37379,1.37379c-0.75873,0 -1.37379,-0.61507 -1.37379,-1.37379c0,-0.75872 0.61506,-1.3738 1.37379,-1.3738c0.75873,0 1.37379,0.61507 1.37379,1.3738z" fill="#ecec68"/><path d="M400.40353,227.71607c0,1.05561 -0.829,1.91137 -1.85163,1.91137c-1.02263,0 -1.85163,-0.85575 -1.85163,-1.91137c0,-1.05561 0.82901,-1.91136 1.85163,-1.91136c1.02263,0 1.85163,0.85575 1.85163,1.91136z" fill="#ecec68"/><path d="M398.37272,218.33844c0,1.35251 -1.12317,2.44894 -2.50867,2.44894c-1.3855,0 -2.50866,-1.09643 -2.50866,-2.44894c0,-1.35251 1.12317,-2.44894 2.50866,-2.44894c1.3855,0 2.50867,1.09643 2.50867,2.44894z" fill="#ecec68"/><path d="M394.43052,215.65058c0,0.72574 -0.53484,1.31406 -1.19461,1.31406c-0.65976,0 -1.1946,-0.58833 -1.1946,-1.31406c0,-0.72574 0.53483,-1.31406 1.1946,-1.31406c0.65976,0 1.19461,0.58832 1.19461,1.31406z" fill="#ecec68"/><path d="M397.09687,231.1221c-0.31546,0.59016 -2.1896,-5.27359 -4.6064,-9.51549c-1.50077,-2.63409 -4.15634,-4.79971 -4.63763,-5.14534c-1.68315,-1.2087 -6.29533,1.7441 -5.88896,0.98385c0.55417,-1.03677 3.35792,-4.45582 6.15367,-2.44536c0.61286,0.44072 3.89732,2.44275 5.78038,5.80388c2.24275,4.00313 3.64487,9.48418 3.19894,10.31845z" fill="#ededed"/><path d="M395.50567,228.79121c0,0.65976 -0.56158,1.1946 -1.25433,1.1946c-0.69274,0 -1.25433,-0.53484 -1.25433,-1.1946c0,-0.65976 0.56159,-1.1946 1.25433,-1.1946c0.69275,0 1.25433,0.53484 1.25433,1.1946z" fill="#ededed"/></g><g><g fill="#ecec68"><path d="M480.11412,243.25518c0,2.93667 -4.7776,11.21858 -6.29461,0.96095c-1.06273,-7.18595 -2.91243,-25.46135 -8.46896,-25.46135c-1.89352,0 -10.13158,12.33704 -9.69991,20.96095c0.43167,8.62391 7.51696,19.15077 11.63613,17.72065c5.91948,-2.05515 7.55465,-14.48551 8.98559,-12.68055c0.23161,0.29215 2.96015,-2.97736 3.97175,-1.8291c0.55557,0.63062 0.59327,4.69452 -0.58489,6.50066c-0.38936,0.59688 1.53243,4.15943 5.3004,6.01627c4.44458,2.19027 10.83827,2.75084 10.05466,4.05089c-0.17021,0.28239 -6.14097,2.17669 -11.09591,1.56873c-4.50353,-0.55257 -8.03023,-3.6128 -8.2341,-3.39947c-3.01472,3.15457 -7.92026,4.77347 -8.11246,4.77934c-10.25096,0.31291 -16.14262,-6.80013 -17.14316,-12.06346c-3.69871,-19.45712 6.96197,-36.1371 15.15938,-36.1371c8.19741,0 14.52609,19.89706 14.52609,29.01258z"/><path d="M457.75971,259.3858c0,4.57984 -0.77998,8.29253 -1.74213,8.29253c-0.96215,0 -1.74212,-3.71269 -1.74212,-8.29253c0,-4.57984 0.77997,-8.29254 1.74212,-8.29254c0.96215,0 1.74213,3.7127 1.74213,8.29254z"/><path d="M460.82586,261.75509c0,1.42398 -0.40559,2.57835 -0.9059,2.57835c-0.50032,0 -0.90592,-1.15437 -0.90592,-2.57835c0,-1.42398 0.40559,-2.57835 0.90592,-2.57835c0.50032,0 0.9059,1.15437 0.9059,2.57835z"/><path d="M483.26448,261.61572c0,2.65553 -0.62397,4.80828 -1.39369,4.80828c-0.76972,0 -1.3937,-2.15274 -1.3937,-4.80828c0,-2.65553 0.62398,-4.80827 1.3937,-4.80827c0.76972,0 1.39369,2.15273 1.39369,4.80827z"/><path d="M479.64085,261.26729c0,0.92366 -0.71758,1.67244 -1.60276,1.67244c-0.88518,0 -1.60276,-0.74878 -1.60276,-1.67244c0,-0.92366 0.71758,-1.67244 1.60276,-1.67244c0.88518,0 1.60276,0.74878 1.60276,1.67244z"/><path d="M464.44949,263.98502c0,0.80821 -0.62399,1.46338 -1.39371,1.46338c-0.76972,0 -1.3937,-0.65518 -1.3937,-1.46338c0,-0.80821 0.62398,-1.46339 1.3937,-1.46339c0.76972,0 1.39371,0.65518 1.39371,1.46339z"/><path d="M453.29985,259.17674c0,1.07761 -0.96717,1.95119 -2.16024,1.95119c-1.19306,0 -2.16024,-0.87357 -2.16024,-1.95119c0,-1.07762 0.96717,-1.95119 2.16024,-1.95119c1.19307,0 2.16024,0.87358 2.16024,1.95119z"/><path d="M462.77705,227.8881c0,4.9647 -0.77999,8.98939 -1.74213,8.98939c-0.96215,0 -1.74213,-4.02469 -1.74213,-8.98939c0,-4.9647 0.77997,-8.98939 1.74213,-8.98939c0.96215,0 1.74213,4.02468 1.74213,8.98939z"/><path d="M460.44628,228.65961c0,1.1216 -0.74878,2.03083 -1.67245,2.03083c-0.92367,0 -1.67244,-0.90923 -1.67244,-2.03083c0,-1.1216 0.74878,-2.03081 1.67244,-2.03081c0.92367,0 1.67245,0.90922 1.67245,2.03081z"/><path d="M466.06093,222.86579c0,0.89067 -0.64182,1.61271 -1.43353,1.61271c-0.79172,0 -1.43352,-0.72204 -1.43352,-1.61271c0,-0.89067 0.6418,-1.61272 1.43352,-1.61272c0.79172,0 1.43353,0.72204 1.43353,1.61272z"/><path d="M487.92215,261.21253c0,1.02263 -0.74878,1.85165 -1.67244,1.85165c-0.92367,0 -1.67245,-0.82902 -1.67245,-1.85165c0,-1.02263 0.74878,-1.85164 1.67245,-1.85164c0.92367,0 1.67244,0.82901 1.67244,1.85164z"/><path d="M451.48677,255.0006c0,0.62678 -0.58832,1.13487 -1.31406,1.13487c-0.72574,0 -1.31406,-0.5081 -1.31406,-1.13487c0,-0.62678 0.58833,-1.13487 1.31406,-1.13487c0.72574,0 1.31406,0.50809 1.31406,1.13487z"/><path d="M450.88946,237.08157c0,1.08861 -0.82901,1.97108 -1.85163,1.97108c-1.02263,0 -1.85164,-0.88248 -1.85164,-1.97108c0,-1.08861 0.82901,-1.9711 1.85164,-1.9711c1.02263,0 1.85163,0.8825 1.85163,1.9711z"/><path d="M452.92029,245.14513c0,1.91331 -1.44407,3.46435 -3.22543,3.46435c-1.78135,0 -3.22543,-1.55104 -3.22543,-3.46435c0,-1.91331 1.44408,-3.46435 3.22543,-3.46435c1.78136,0 3.22543,1.55104 3.22543,3.46435z"/></g><path d="M482.03598,215.6245c0,0.71864 -1.7997,43.09928 -3.87541,43.09928c-2.14033,0 -4.34516,-20.00082 -5.04977,-43.56902c-0.71132,-23.79244 -2.0229,-42.62953 5.04977,-42.62953c6.13319,0 3.87541,19.29621 3.87541,43.09928z" fill="#ecec68"/><path d="M485.08934,197.68604c0,2.52948 -1.41961,4.58004 -3.17079,4.58004c-1.75118,0 -3.17079,-2.05055 -3.17079,-4.58004c0,-2.52948 1.41961,-4.58004 3.17079,-4.58004c1.75118,0 3.17079,2.05055 3.17079,4.58004z" fill="#ecec68"/><path d="M487.2032,190.40496c0,1.23231 -1.05156,2.2313 -2.34873,2.2313c-1.29717,0 -2.34873,-0.99899 -2.34873,-2.2313c0,-1.23231 1.05156,-2.2313 2.34873,-2.2313c1.29717,0 2.34873,0.99899 2.34873,2.2313z" fill="#ecec68"/><path d="M488.61244,249.71051c0,2.07547 -1.47219,3.75797 -3.28823,3.75797c-1.81604,0 -3.28823,-1.6825 -3.28823,-3.75797c0,-2.07547 1.47219,-3.75798 3.28823,-3.75798c1.81604,0 3.28823,1.6825 3.28823,3.75798z" fill="#ecec68"/><path d="M483.44522,241.95968c0,1.29717 -0.84124,2.34873 -1.87898,2.34873c-1.03774,0 -1.87899,-1.05156 -1.87899,-2.34873c0,-1.29717 0.84125,-2.34874 1.87899,-2.34874c1.03774,0 1.87898,1.05157 1.87898,2.34874z" fill="#ecec68"/><path d="M474.05029,236.32272c0,1.94576 -1.26187,3.52311 -2.81848,3.52311c-1.5566,0 -2.81849,-1.57735 -2.81849,-3.52311c0,-1.94576 1.26188,-3.5231 2.81849,-3.5231c1.5566,0 2.81848,1.57734 2.81848,3.5231z" fill="#ecec68"/><path d="M465.59484,253.70336c0,1.81604 -1.47219,3.28823 -3.28823,3.28823c-1.81604,0 -3.28823,-1.47218 -3.28823,-3.28823c0,-1.81604 1.47218,-3.28823 3.28823,-3.28823c1.81604,0 3.28823,1.47218 3.28823,3.28823z" fill="#ecec68"/><path d="M462.77636,216.47592c0,1.75118 -1.36703,3.17079 -3.05336,3.17079c-1.68633,0 -3.05336,-1.41961 -3.05336,-3.17079c0,-1.75118 1.36703,-3.17079 3.05336,-3.17079c1.68633,0 3.05336,1.41961 3.05336,3.17079z" fill="#ecec68"/><path d="M467.47383,213.30512c0,2.07547 -1.41961,3.75798 -3.17079,3.75798c-1.75118,0 -3.17079,-1.6825 -3.17079,-3.75798c0,-2.07547 1.41961,-3.75797 3.17079,-3.75797c1.75118,0 3.17079,1.6825 3.17079,3.75797z" fill="#ecec68"/><path d="M476.16415,193.92807c0,2.52948 -1.47219,4.58003 -3.28823,4.58003c-1.81604,0 -3.28823,-2.05054 -3.28823,-4.58003c0,-2.52948 1.47218,-4.58004 3.28823,-4.58004c1.81604,0 3.28823,2.05055 3.28823,4.58004z" fill="#ecec68"/><path d="M475.92927,204.14506c0,1.29717 -1.10415,2.34874 -2.46618,2.34874c-1.36203,0 -2.46617,-1.05157 -2.46617,-2.34874c0,-1.29717 1.10414,-2.34874 2.46617,-2.34874c1.36203,0 2.46618,1.05157 2.46618,2.34874z" fill="#ecec68"/><path d="M470.52718,179.95309c0,1.42688 -0.89383,2.58361 -1.99642,2.58361c-1.10259,0 -1.99643,-1.15672 -1.99643,-2.58361c0,-1.42688 0.89383,-2.58361 1.99643,-2.58361c1.10259,0 1.99642,1.15672 1.99642,2.58361z" fill="#ecec68"/><path d="M470.99693,187.35161c0,1.36203 -1.10414,2.46618 -2.46617,2.46618c-1.36203,0 -2.46618,-1.10415 -2.46618,-2.46618c0,-1.36202 1.10415,-2.46617 2.46618,-2.46617c1.36203,0 2.46617,1.10414 2.46617,2.46617z" fill="#ecec68"/><path d="M480.35759,200.23452c-1.59467,0.05208 -1.22554,-8.52341 -1.34366,-12.14059c-0.05961,-1.82536 -0.6987,-13.52912 0.09123,-13.55492c1.07726,-0.03518 1.81401,10.0174 1.91097,13.05059c0.04657,1.45684 0.93613,12.59284 -0.65855,12.64491z" fill="#ededed"/><path d="M477.86698,178.48514c0,1.00531 -0.78868,1.82027 -1.76155,1.82027c-0.97288,0 -1.76155,-0.81496 -1.76155,-1.82027c0,-1.00531 0.78867,-1.82028 1.76155,-1.82028c0.97288,0 1.76155,0.81497 1.76155,1.82028z" fill="#ededed"/><path d="M477.86698,194.985c0,0.58372 -0.55207,1.05693 -1.23308,1.05693c-0.68102,0 -1.23308,-0.47321 -1.23308,-1.05693c0,-0.58372 0.55207,-1.05693 1.23308,-1.05693c0.68102,0 1.23308,0.47321 1.23308,1.05693z" fill="#ededed"/></g><g><path d="M172.97457,200.78932c0.73978,22.16902 1.57911,52.16634 -4.07473,52.3714c-5.65384,0.20506 -5.10534,-17.39386 -5.84513,-39.56287c-0.73978,-22.16902 -0.05987,-33.81841 4.76181,-37.23465c0.66926,-0.47419 4.2844,-2.84771 8.71511,-3.62372c6.01612,-1.05367 13.53589,0.83797 17.22629,14.42898c2.97863,10.96971 8.82597,49.20681 7.29377,66.12274c-0.62635,6.91499 -7.04431,4.67017 -9.09347,0.0643c-2.04915,-4.60587 -0.47656,-37.34338 -5.4498,-51.84345c-2.72746,-7.95223 -13.64969,-4.19403 -13.53385,-0.72271z" fill="#ecec68"/><path d="M199.03604,199.97808c-3.17601,15.11004 2.44381,47.30988 0.96592,52.17973c-1.47788,4.86985 -7.61298,8.05394 -9.09395,1.29653c-3.62286,-16.53046 -2.50893,-55.289 -0.88932,-66.60292c2.00663,-14.01748 9.28629,-17.01649 15.42777,-16.87246c4.52304,0.10608 8.42873,1.91692 9.15608,2.28661c5.24018,2.66344 7.36017,14.10351 9.36254,36.1784c2.00236,22.07488 4.7268,39.42918 -0.94776,40.07172c-5.67456,0.64255 -8.54556,-29.20321 -10.54793,-51.27809c-0.31354,-3.45658 -11.69156,-5.54628 -13.43337,2.74048z" data-paper-data="{&quot;index&quot;:null}" fill="#ecec68"/><path d="M166.67117,191.3151c0,2.91863 -2.26086,5.28465 -5.04977,5.28465c-2.78892,0 -5.04978,-2.36602 -5.04978,-5.28465c0,-2.91863 2.26086,-5.28465 5.04978,-5.28465c2.78892,0 5.04977,2.36602 5.04977,5.28465z" fill="#ecec68"/><path d="M175.36149,176.98782c0,4.60496 -3.78563,8.33801 -8.45545,8.33801c-4.66981,0 -8.45545,-3.73305 -8.45545,-8.33801c0,-4.60496 3.78563,-8.33801 8.45545,-8.33801c4.66982,0 8.45545,3.73305 8.45545,8.33801z" fill="#ecec68"/><path d="M231.26136,202.70646c0,3.63207 -3.04953,6.57646 -6.81132,6.57646c-3.7618,0 -6.81133,-2.94438 -6.81133,-6.57646c0,-3.63207 3.04953,-6.57646 6.81133,-6.57646c3.7618,0 6.81132,2.94438 6.81132,6.57646z" fill="#ecec68"/><path d="M225.85928,194.72076c0,2.33491 -1.84025,4.22772 -4.11029,4.22772c-2.27005,0 -4.11029,-1.89282 -4.11029,-4.22772c0,-2.33491 1.84023,-4.22772 4.11029,-4.22772c2.27005,0 4.11029,1.89282 4.11029,4.22772z" fill="#ecec68"/><path d="M218.10846,167.71032c0,3.11321 -2.47118,5.63696 -5.51953,5.63696c-3.04835,0 -5.51952,-2.52375 -5.51952,-5.63696c0,-3.11321 2.47117,-5.63697 5.51952,-5.63697c3.04835,0 5.51953,2.52376 5.51953,5.63697z" fill="#ecec68"/><path d="M165.02706,235.70618c0,2.52948 -1.9454,4.58004 -4.34516,4.58004c-2.39977,0 -4.34516,-2.05055 -4.34516,-4.58004c0,-2.52948 1.9454,-4.58004 4.34516,-4.58004c2.39977,0 4.34516,2.05055 4.34516,4.58004z" fill="#ecec68"/><path d="M181.4682,248.27191c0,2.20519 -1.89281,3.99284 -4.22772,3.99284c-2.33491,0 -4.22772,-1.78766 -4.22772,-3.99284c0,-2.20519 1.89281,-3.99285 4.22772,-3.99285c2.33491,0 4.22772,1.78766 4.22772,3.99285z" fill="#ecec68"/><path d="M182.87744,229.71691c-0.12972,0 -0.23488,-0.10515 -0.23488,-0.23487c0,-0.12972 0.10515,-0.23488 0.23488,-0.23488c0.12972,0 0.23487,0.10516 0.23487,0.23488c0,0.12972 -0.10515,0.23487 -0.23487,0.23487z" fill="#ecec68"/><path d="M212.00174,246.51036c0,2.52948 -1.84024,4.58004 -4.11029,4.58004c-2.27005,0 -4.11029,-2.05055 -4.11029,-4.58004c0,-2.52948 1.84024,-4.58003 4.11029,-4.58003c2.27005,0 4.11029,2.05054 4.11029,4.58003z" fill="#ecec68"/><path d="M219.98744,249.91603c0,1.16745 -0.89383,2.11386 -1.99642,2.11386c-1.10259,0 -1.99643,-0.94641 -1.99643,-2.11386c0,-1.16745 0.89383,-2.11386 1.99643,-2.11386c1.10259,0 1.99642,0.94641 1.99642,2.11386z" fill="#ecec68"/><path d="M163.08935,243.33957c0,0.84316 -0.73609,1.52668 -1.64411,1.52668c-0.90802,0 -1.64412,-0.68352 -1.64412,-1.52668c0,-0.84316 0.73609,-1.52667 1.64412,-1.52667c0.90802,0 1.64411,0.68351 1.64411,1.52667z" fill="#ecec68"/><path d="M158.97907,183.50556c0,0.87559 -0.73609,1.5854 -1.64412,1.5854c-0.90802,0 -1.64412,-0.70981 -1.64412,-1.5854c0,-0.87559 0.73609,-1.5854 1.64412,-1.5854c0.90802,0 1.64412,0.70981 1.64412,1.5854z" fill="#ecec68"/><path d="M225.33081,184.09274c0,1.13502 -0.81497,2.05515 -1.82028,2.05515c-1.00531,0 -1.82026,-0.92012 -1.82026,-2.05515c0,-1.13502 0.81496,-2.05514 1.82026,-2.05514c1.00531,0 1.82028,0.92012 1.82028,2.05514z" fill="#ecec68"/><path d="M227.91442,189.49484c0,0.74587 -0.52578,1.35052 -1.17436,1.35052c-0.64858,0 -1.17437,-0.60465 -1.17437,-1.35052c0,-0.74588 0.52578,-1.35053 1.17437,-1.35053c0.64858,0 1.17436,0.60465 1.17436,1.35053z" fill="#ecec68"/><path d="M204.30964,166.65339c0,1.23231 -0.92012,2.2313 -2.05514,2.2313c-1.13502,0 -2.05514,-0.99899 -2.05514,-2.2313c0,-1.23231 0.92012,-2.23129 2.05514,-2.23129c1.13502,0 2.05514,0.99899 2.05514,2.23129z" fill="#ecec68"/><path d="M177.76894,240.75596c0,0.84316 -0.68352,1.52667 -1.52668,1.52667c-0.84316,0 -1.52668,-0.68351 -1.52668,-1.52667c0,-0.84316 0.68352,-1.52668 1.52668,-1.52668c0.84316,0 1.52668,0.68352 1.52668,1.52668z" fill="#ecec68"/><path d="M180.58742,243.1047c0,0.51887 -0.4732,0.9395 -1.05693,0.9395c-0.58373,0 -1.05693,-0.42062 -1.05693,-0.9395c0,-0.51887 0.47321,-0.93949 1.05693,-0.93949c0.58373,0 1.05693,0.42062 1.05693,0.93949z" fill="#ecec68"/><path d="M166.96476,251.67758c0,4.60495 -0.34175,8.338 -0.76334,8.338c-0.42158,0 -0.76334,-3.73305 -0.76334,-8.338c0,-4.60495 0.34176,-8.33801 0.76334,-8.33801c0.42159,0 0.76334,3.73306 0.76334,8.33801z" fill="#ecec68"/><path d="M169.43093,255.31811c0,4.15094 -0.36805,7.51595 -0.82206,7.51595c-0.454,0 -0.82206,-3.36501 -0.82206,-7.51595c0,-4.15094 0.36805,-7.51595 0.82206,-7.51595c0.454,0 0.82206,3.36501 0.82206,7.51595z" fill="#ecec68"/><path d="M196.44138,257.1971c0,1.49175 -1.23559,2.70105 -2.75976,2.70105c-1.52417,0 -2.75977,-1.2093 -2.75977,-2.70105c0,-1.49175 1.23559,-2.70104 2.75977,-2.70104c1.52417,0 2.75976,1.20929 2.75976,2.70104z" fill="#ecec68"/><path d="M199.14242,259.54584c0,0.64858 -0.49949,1.17436 -1.11565,1.17436c-0.61616,0 -1.11565,-0.52578 -1.11565,-1.17436c0,-0.64858 0.49949,-1.17436 1.11565,-1.17436c0.61616,0 1.11565,0.52578 1.11565,1.17436z" fill="#ecec68"/><path d="M194.9147,261.0138c0,1.97818 -0.31547,3.58182 -0.70462,3.58182c-0.38916,0 -0.70462,-1.60364 -0.70462,-3.58182c0,-1.97818 0.31547,-3.58182 0.70462,-3.58182c0.38916,0 0.70462,1.60363 0.70462,3.58182z" fill="#ecec68"/><path d="M209.24198,252.85195c0,3.04835 -0.42063,5.51953 -0.93949,5.51953c-0.51887,0 -0.93949,-2.47118 -0.93949,-5.51953c0,-3.04835 0.42062,-5.51952 0.93949,-5.51952c0.51887,0 0.93949,2.47117 0.93949,5.51952z" fill="#ecec68"/><path d="M214.29177,251.50142c0,0.74588 -0.47321,1.35053 -1.05693,1.35053c-0.58372,0 -1.05693,-0.60465 -1.05693,-1.35053c0,-0.74588 0.47321,-1.35052 1.05693,-1.35052c0.58372,0 1.05693,0.60465 1.05693,1.35052z" fill="#ecec68"/><path d="M225.80056,251.61886c0,5.5454 -0.70981,10.04084 -1.5854,10.04084c-0.87559,0 -1.5854,-4.49543 -1.5854,-10.04084c0,-5.5454 0.70981,-10.04084 1.5854,-10.04084c0.87559,0 1.5854,4.49544 1.5854,10.04084z" fill="#ecec68"/><path d="M221.33797,244.10291c0,1.13502 -0.7361,2.05514 -1.64412,2.05514c-0.90802,0 -1.64412,-0.92012 -1.64412,-2.05514c0,-1.13502 0.7361,-2.05515 1.64412,-2.05515c0.90802,0 1.64412,0.92012 1.64412,2.05515z" fill="#ecec68"/><path d="M202.54809,222.25968c0,2.1079 -1.41961,3.81669 -3.17079,3.81669c-1.75118,0 -3.17079,-1.70879 -3.17079,-3.81669c0,-2.1079 1.41961,-3.8167 3.17079,-3.8167c1.75118,0 3.17079,1.7088 3.17079,3.8167z" fill="#ecec68"/><path d="M219.92872,228.95357c0,1.91333 -1.55106,3.46438 -3.46439,3.46438c-1.91333,0 -3.46438,-1.55105 -3.46438,-3.46438c0,-1.91333 1.55105,-3.46438 3.46438,-3.46438c1.91333,0 3.46439,1.55105 3.46439,3.46438z" fill="#ecec68"/><path d="M203.95733,228.01408c0,0.87559 -0.68352,1.58539 -1.52668,1.58539c-0.84316,0 -1.52668,-0.7098 -1.52668,-1.58539c0,-0.87559 0.68352,-1.5854 1.52668,-1.5854c0.84316,0 1.52668,0.70981 1.52668,1.5854z" fill="#ecec68"/><path d="M191.97878,212.21884c0,2.85378 -2.31344,5.16722 -5.16721,5.16722c-2.85377,0 -5.16722,-2.31344 -5.16722,-5.16722c0,-2.85378 2.31345,-5.16721 5.16722,-5.16721c2.85377,0 5.16721,2.31344 5.16721,5.16721z" fill="#ecec68"/><path d="M189.98236,221.90737c0,1.19988 -1.15673,2.17258 -2.58361,2.17258c-1.42688,0 -2.5836,-0.97269 -2.5836,-2.17258c0,-1.19988 1.15671,-2.17258 2.5836,-2.17258c1.42688,0 2.58361,0.9727 2.58361,2.17258z" fill="#ecec68"/><path d="M185.88943,177.73454c-0.1895,1.58422 -2.57466,-0.80472 -6.16814,-1.23458c-3.59349,-0.42985 -7.03452,1.26218 -6.84502,-0.32205c0.1895,-1.58422 3.25623,-2.52003 6.84971,-2.09018c3.59349,0.42985 6.35295,2.06259 6.16345,3.64681z" fill="#ededed"/><path d="M188.18558,180.62835c0,0.89504 -0.75713,1.62063 -1.69109,1.62063c-0.93397,0 -1.69109,-0.72559 -1.69109,-1.62063c0,-0.89504 0.75712,-1.62063 1.69109,-1.62063c0.93397,0 1.69109,0.72558 1.69109,1.62063z" fill="#ededed"/><path d="M209.3366,173.19495c0.22286,1.57988 -2.6949,-0.11796 -6.27854,0.38756c-3.58363,0.50552 -6.47606,3.02296 -6.69892,1.44308c-0.22286,-1.57988 2.50157,-3.27043 6.0852,-3.77595c3.58363,-0.50552 6.6694,0.36541 6.89226,1.94529z" fill="#ededed"/><path d="M216.22947,166.95872c0,0.89505 -0.75712,1.62063 -1.69109,1.62063c-0.93397,0 -1.69109,-0.72558 -1.69109,-1.62063c0,-0.89505 0.75712,-1.62062 1.69109,-1.62062c0.93397,0 1.69109,0.72558 1.69109,1.62062z" fill="#ededed"/></g><g><path d="M243.93242,243.54215c7.95528,6.23985 20.30087,3.60694 22.55078,0.25172c6.60637,-9.8519 1.97028,-41.82334 7.98489,-39.87701c4.64203,1.50215 11.98173,38.65546 -2.24725,49.66428c-8.72835,6.75304 -36.53968,9.56426 -40.41451,-9.44275c-3.87483,-19.007 -6.78486,-34.72084 -1.78374,-35.72116c9.71627,-1.94343 2.9441,26.52379 13.90983,35.12492z" fill="#ecec68"/><path d="M248.5248,255.45904c0,2.60731 -2.14519,4.72096 -4.79142,4.72096c-2.64622,0 -4.79142,-2.11365 -4.79142,-4.72096c0,-2.60731 2.1452,-4.72096 4.79142,-4.72096c2.64622,0 4.79142,2.11364 4.79142,4.72096z" fill="#ecec68"/><path d="M237.67365,256.4455c0,1.05071 -0.82022,1.90248 -1.83201,1.90248c-1.0118,0 -1.83201,-0.85177 -1.83201,-1.90248c0,-1.05071 0.82022,-1.90248 1.83201,-1.90248c1.0118,0 1.83201,0.85177 1.83201,1.90248z" fill="#ecec68"/><path d="M257.82579,260.39138c0,4.00826 -0.69403,7.25759 -1.55016,7.25759c-0.85613,0 -1.55016,-3.24932 -1.55016,-7.25759c0,-4.00825 0.69403,-7.25759 1.55016,-7.25759c0.85613,0 1.55016,3.24933 1.55016,7.25759z" fill="#ecec68"/><path d="M262.89906,258.62983c0,2.25708 -0.41011,4.08679 -0.916,4.08679c-0.5059,0 -0.91601,-1.82972 -0.91601,-4.08679c0,-2.25708 0.41011,-4.08679 0.91601,-4.08679c0.5059,0 0.916,1.82972 0.916,4.08679z" fill="#ecec68"/><path d="M269.94526,233.54534c0,1.47878 -1.23033,2.67756 -2.74802,2.67756c-1.51769,0 -2.74802,-1.19878 -2.74802,-2.67756c0,-1.47878 1.23033,-2.67756 2.74802,-2.67756c1.51769,0 2.74802,1.19878 2.74802,2.67756z" fill="#ecec68"/><path d="M268.95879,238.05491c0,0.54481 -0.44166,0.98647 -0.98647,0.98647c-0.54481,0 -0.98647,-0.44165 -0.98647,-0.98647c0,-0.54481 0.44165,-0.98647 0.98647,-0.98647c0.54481,0 0.98647,0.44165 0.98647,0.98647z" fill="#ecec68"/><path d="M286.71523,212.97043c0,1.71227 -1.4827,3.10034 -3.31171,3.10034c-1.82901,0 -3.31171,-1.38807 -3.31171,-3.10034c0,-1.71227 1.4827,-3.10033 3.31171,-3.10033c1.82901,0 3.31171,1.38806 3.31171,3.10033z" fill="#ecec68"/><path d="M284.46044,219.5234c0,0.97288 -0.75712,1.76156 -1.69108,1.76156c-0.93397,0 -1.69109,-0.78868 -1.69109,-1.76156c0,-0.97288 0.75713,-1.76155 1.69109,-1.76155c0.93397,0 1.69108,0.78867 1.69108,1.76155z" fill="#ecec68"/><path d="M287.27892,217.19815c0,0.70048 -0.44165,1.26832 -0.98647,1.26832c-0.54481,0 -0.98647,-0.56785 -0.98647,-1.26832c0,-0.70048 0.44165,-1.26831 0.98647,-1.26831c0.54481,0 0.98647,0.56785 0.98647,1.26831z" fill="#ecec68"/><path d="M242.74691,232.77026c0,2.296 -1.95591,4.15726 -4.36865,4.15726c-2.41273,0 -4.36864,-1.86127 -4.36864,-4.15726c0,-2.296 1.95591,-4.15726 4.36864,-4.15726c2.41273,0 4.36865,1.86127 4.36865,4.15726z" fill="#ecec68"/><path d="M239.64659,227.55607c0,0.81722 -0.63094,1.4797 -1.40924,1.4797c-0.7783,0 -1.40924,-0.66249 -1.40924,-1.4797c0,-0.81722 0.63094,-1.4797 1.40924,-1.4797c0.7783,0 1.40924,0.66249 1.40924,1.4797z" fill="#ecec68"/><path d="M241.05583,218.0437c0,2.10142 -1.67198,3.80495 -3.73448,3.80495c-2.0625,0 -3.73449,-1.70353 -3.73449,-3.80495c0,-2.10142 1.67199,-3.80495 3.73449,-3.80495c2.0625,0 3.73448,1.70354 3.73448,3.80495z" fill="#ecec68"/><path d="M238.09642,212.61812c0,0.81722 -0.66249,1.4797 -1.4797,1.4797c-0.81722,0 -1.4797,-0.66249 -1.4797,-1.4797c0,-0.81722 0.66249,-1.4797 1.4797,-1.4797c0.81722,0 1.4797,0.66249 1.4797,1.4797z" fill="#ecec68"/><path d="M278.54163,248.69468c0,7.51062 -0.50476,13.59917 -1.1274,13.59917c-0.62264,0 -1.1274,-6.08856 -1.1274,-13.59917c0,-7.51062 0.50476,-13.59917 1.1274,-13.59917c0.62264,0 1.1274,6.08856 1.1274,13.59917z" fill="#ecec68"/><path d="M273.32744,254.12026c0,1.24528 -1.0726,2.25478 -2.39571,2.25478c-1.32312,0 -2.3957,-1.0095 -2.3957,-2.25478c0,-1.24528 1.07259,-2.25478 2.3957,-2.25478c1.32312,0 2.39571,1.0095 2.39571,2.25478z" fill="#ecec68"/><path d="M275.72315,257.22059c0,0.62264 -0.53629,1.12739 -1.19786,1.12739c-0.66156,0 -1.19786,-0.50475 -1.19786,-1.12739c0,-0.62264 0.53629,-1.1274 1.19786,-1.1274c0.66156,0 1.19786,0.50476 1.19786,1.1274z" fill="#ecec68"/><path d="M232.88223,244.88973c0,1.36202 -1.19879,2.46617 -2.67756,2.46617c-1.47877,0 -2.67756,-1.10414 -2.67756,-2.46617c0,-1.36202 1.19878,-2.46618 2.67756,-2.46618c1.47878,0 2.67756,1.10415 2.67756,2.46618z" fill="#ecec68"/><path d="M230.3456,239.18231c0,0.54481 -0.50475,0.98647 -1.1274,0.98647c-0.62264,0 -1.12739,-0.44166 -1.12739,-0.98647c0,-0.54481 0.50475,-0.98647 1.12739,-0.98647c0.62264,0 1.1274,0.44165 1.1274,0.98647z" fill="#ecec68"/><path d="M230.06249,210.56343c1.59091,-0.12127 0.27347,5.07755 0.54855,8.68618c0.27508,3.60863 2.17944,8.62922 0.58854,8.7505c-1.59091,0.12127 -1.69435,-6.36982 -1.96943,-9.97846c-0.27508,-3.60863 -0.75856,-7.33695 0.83234,-7.45822z" fill="#ededed"/><path d="M233.8687,215.78891c0,0.85613 -0.56785,1.55016 -1.26832,1.55016c-0.70047,0 -1.26831,-0.69403 -1.26831,-1.55016c0,-0.85613 0.56785,-1.55017 1.26831,-1.55017c0.70048,0 1.26832,0.69404 1.26832,1.55017z" fill="#ededed"/><path d="M233.44593,211.70212c0,0.62264 -0.47321,1.12739 -1.05693,1.12739c-0.58372,0 -1.05693,-0.50475 -1.05693,-1.12739c0,-0.62264 0.4732,-1.1274 1.05693,-1.1274c0.58373,0 1.05693,0.50476 1.05693,1.1274z" fill="#ededed"/></g><g><path d="M301.61803,215.25774c-9.65154,8.77246 26.32489,19.8655 23.6145,30.89314c-2.42575,9.86952 -37.14641,11.75072 -38.01166,10.60383c-3.95278,-5.23944 16.86036,-3.21189 20.64852,-14.22797c2.23892,-6.51084 -18.31665,-13.06002 -19.69104,-20.40068c-1.34363,-7.17635 1.09547,-15.54272 21.20063,-19.52258c20.10517,-3.97986 20.56486,7.46312 22.36486,13.56567c1.0826,3.67032 -16.83198,-12.9944 -30.12581,-0.91141z" fill="#ecec68"/><path d="M292.81534,229.42331c0,5.02653 -0.49949,9.10134 -1.11565,9.10134c-0.61615,0 -1.11565,-4.07481 -1.11565,-9.10134c0,-5.02653 0.49949,-9.10134 1.11565,-9.10134c0.61615,0 1.11565,4.07481 1.11565,9.10134z" fill="#ecec68"/><path d="M297.39537,231.83077c0,2.59435 -0.2629,4.69746 -0.58718,4.69746c-0.3243,0 -0.58718,-2.10313 -0.58718,-4.69746c0,-2.59435 0.26289,-4.69747 0.58718,-4.69747c0.3243,0 0.58718,2.10313 0.58718,4.69747z" fill="#ecec68"/><path d="M317.41833,243.10469c0.81073,0 1.46796,3.94337 1.46796,8.80775c0,4.86438 -0.65723,8.80776 -1.46796,8.80776c-0.81073,0 -1.46795,-3.94337 -1.46795,-8.80776c0,-4.86438 0.65722,-8.80775 1.46795,-8.80775z" fill="#ecec68"/><path d="M299.50923,258.07788c0,2.23762 -0.39434,4.05156 -0.88077,4.05156c-0.48644,0 -0.88078,-1.81395 -0.88078,-4.05156c0,-2.23762 0.39434,-4.05157 0.88078,-4.05157c0.48644,0 0.88077,1.81395 0.88077,4.05157z" fill="#ecec68"/><path d="M312.30983,213.92166c0,3.59965 -0.76238,6.51774 -1.70283,6.51774c-0.94045,0 -1.70283,-2.91809 -1.70283,-6.51774c0,-3.59965 0.76238,-6.51774 1.70283,-6.51774c0.94045,0 1.70283,2.91809 1.70283,6.51774z" fill="#ecec68"/><path d="M315.24575,212.62986c0,1.97818 -0.4995,3.58182 -1.11565,3.58182c-0.61615,0 -1.11565,-1.60363 -1.11565,-3.58182c0,-1.97818 0.49949,-3.58182 1.11565,-3.58182c0.61615,0 1.11565,1.60364 1.11565,3.58182z" fill="#ecec68"/><path d="M289.99686,227.83792c0,0.84316 -0.68352,1.52668 -1.52668,1.52668c-0.84316,0 -1.52668,-0.68351 -1.52668,-1.52668c0,-0.84316 0.68352,-1.52668 1.52668,-1.52668c0.84316,0 1.52668,0.68352 1.52668,1.52668z" fill="#ecec68"/><path d="M302.9149,237.46773c0,0.71344 -0.55207,1.2918 -1.23308,1.2918c-0.68102,0 -1.23309,-0.57836 -1.23309,-1.2918c0,-0.71344 0.55207,-1.29181 1.23309,-1.29181c0.68102,0 1.23308,0.57836 1.23308,1.29181z" fill="#ecec68"/><path d="M294.34202,250.09218c0,1.52418 -1.28816,2.75976 -2.8772,2.75976c-1.58903,0 -2.87721,-1.23558 -2.87721,-2.75976c0,-1.52418 1.28817,-2.75976 2.87721,-2.75976c1.58903,0 2.8772,1.23558 2.8772,2.75976z" fill="#ecec68"/><path d="M297.74768,249.73987c0,0.5513 -0.44691,0.99821 -0.99821,0.99821c-0.5513,0 -0.99822,-0.44691 -0.99822,-0.99821c0,-0.5513 0.44691,-0.99822 0.99822,-0.99822c0.5513,0 0.99821,0.44691 0.99821,0.99822z" fill="#ecec68"/><path d="M320.06066,234.4731c0,1.78361 -1.31446,3.22951 -2.93591,3.22951c-1.62147,0 -2.93592,-1.4459 -2.93592,-3.22951c0,-1.78361 1.31446,-3.22951 2.93592,-3.22951c1.62147,0 2.93591,1.4459 2.93591,3.22951z" fill="#ecec68"/><path d="M322.29196,235.82362c0,0.58372 -0.36805,1.05693 -0.82206,1.05693c-0.454,0 -0.82206,-0.47321 -0.82206,-1.05693c0,-0.58372 0.36805,-1.05693 0.82206,-1.05693c0.454,0 0.82206,0.47321 0.82206,1.05693z" fill="#ecec68"/><path d="M315.01088,257.37325c0,1.26474 -1.02528,2.29001 -2.29002,2.29001c-1.26474,0 -2.29001,-1.02527 -2.29001,-2.29001c0,-1.26474 1.02527,-2.29002 2.29001,-2.29002c1.26474,0 2.29002,1.02528 2.29002,2.29002z" fill="#ecec68"/><path d="M310.19597,256.72735c0,0.454 -0.36805,0.82206 -0.82206,0.82206c-0.454,0 -0.82206,-0.36805 -0.82206,-0.82206c0,-0.454 0.36805,-0.82206 0.82206,-0.82206c0.454,0 0.82206,0.36805 0.82206,0.82206z" fill="#ecec68"/><path d="M291.4061,259.70064c0,0.92866 -0.70981,1.68149 -1.5854,1.68149c-0.87559,0 -1.5854,-0.75283 -1.5854,-1.68149c0,-0.92865 0.70981,-1.68147 1.5854,-1.68147c0.87559,0 1.5854,0.75282 1.5854,1.68147z" fill="#ecec68"/><path d="M296.33844,260.66148c0,1.45931 -1.10415,2.64233 -2.46618,2.64233c-1.36202,0 -2.46617,-1.18301 -2.46617,-2.64233c0,-1.45932 1.10414,-2.64233 2.46617,-2.64233c1.36202,0 2.46618,1.18301 2.46618,2.64233z" fill="#ecec68"/><path d="M301.15335,206.347c0,1.5566 -1.26188,2.81848 -2.81849,2.81848c-1.5566,0 -2.81848,-1.26188 -2.81848,-2.81848c0,-1.5566 1.26188,-2.81849 2.81848,-2.81849c1.5566,0 2.81849,1.26188 2.81849,2.81849z" fill="#ecec68"/><path d="M310.31341,203.93955c0,2.23762 -1.86652,4.05157 -4.169,4.05157c-2.30248,0 -4.169,-1.81395 -4.169,-4.05157c0,-2.23762 1.86653,-4.05157 4.169,-4.05157c2.30248,0 4.169,1.81395 4.169,4.05157z" fill="#ecec68"/><path d="M315.7155,201.17978c0,0.454 -0.42062,0.82206 -0.9395,0.82206c-0.51887,0 -0.93949,-0.36806 -0.93949,-0.82206c0,-0.454 0.42062,-0.82205 0.93949,-0.82205c0.51887,0 0.9395,0.36805 0.9395,0.82205z" fill="#ecec68"/><path d="M311.95752,199.65311c0,0.7783 -0.60465,1.40923 -1.35053,1.40923c-0.74588,0 -1.35052,-0.63093 -1.35052,-1.40923c0,-0.7783 0.60465,-1.40924 1.35052,-1.40924c0.74588,0 1.35053,0.63094 1.35053,1.40924z" fill="#ecec68"/><path d="M332.9787,209.75266c0,1.42688 -1.05156,2.58361 -2.34874,2.58361c-1.29717,0 -2.34873,-1.15672 -2.34873,-2.58361c0,-1.42688 1.05157,-2.58361 2.34873,-2.58361c1.29717,0 2.34874,1.15672 2.34874,2.58361z" fill="#ecec68"/><path d="M330.62996,205.0552c0,0.71344 -0.49949,1.29181 -1.11564,1.29181c-0.61615,0 -1.11565,-0.57837 -1.11565,-1.29181c0,-0.71344 0.49949,-1.2918 1.11565,-1.2918c0.61615,0 1.11564,0.57836 1.11564,1.2918z" fill="#ecec68"/><path d="M328.16379,217.62092c0,1.5566 -1.15672,2.81848 -2.58361,2.81848c-1.42688,0 -2.58361,-1.26188 -2.58361,-2.81848c0,-1.5566 1.15672,-2.81848 2.58361,-2.81848c1.42688,0 2.58361,1.26188 2.58361,2.81848z" fill="#ecec68"/><path d="M323.46633,215.74194c0,0.51887 -0.47321,0.93949 -1.05693,0.93949c-0.58372,0 -1.05693,-0.42063 -1.05693,-0.93949c0,-0.51887 0.47321,-0.93949 1.05693,-0.93949c0.58372,0 1.05693,0.42062 1.05693,0.93949z" fill="#ecec68"/><path d="M323.13038,204.81838c0.16806,1.58665 -9.45116,0.50584 -13.05013,0.88704c-1.81617,0.19236 -12.17442,4.53315 -12.25767,3.74719c-0.11353,-1.07184 9.16788,-5.54968 12.18596,-5.86723c1.44958,-0.15252 12.9538,-0.35363 13.12185,1.23301z" fill="#ededed"/><path d="M326.75455,207.16906c0,0.7783 -0.7361,1.40923 -1.64411,1.40923c-0.90802,0 -1.64412,-0.63093 -1.64412,-1.40923c0,-0.7783 0.73609,-1.40924 1.64412,-1.40924c0.90802,0 1.64411,0.63094 1.64411,1.40924z" fill="#ededed"/><path d="M321.70477,207.46265c0,0.68102 -0.47321,1.23308 -1.05693,1.23308c-0.58372,0 -1.05693,-0.55206 -1.05693,-1.23308c0,-0.68102 0.47321,-1.23308 1.05693,-1.23308c0.58372,0 1.05693,0.55207 1.05693,1.23308z" fill="#ededed"/></g><g><path d="M359.13815,227.10339c0,20.51181 -1.78387,37.13992 -4.3694,37.13992c-2.58552,0 -3.90125,-16.47206 -3.90125,-36.98387c0,-4.03157 -0.69928,-8.06916 -0.54953,-11.70389c0.07521,-1.8257 -18.37215,-1.40278 -18.29381,-5.74619c0.10565,-5.85672 18.81804,-3.03592 18.96697,-4.6471c0.8519,-9.2156 0.21693,-15.15123 4.24578,-14.73062c3.90619,0.40779 2.48532,5.63653 3.33512,15.0109c0.1375,1.51676 19.3686,-0.46223 19.56295,5.5753c0.20056,6.23056 -19.01239,2.30032 -18.94159,3.92147c0.16645,3.81103 -0.05523,7.90379 -0.05523,12.16409z" fill="#ecec68"/><path d="M346.57619,214.91988c0,1.47321 -1.21681,2.66749 -2.71782,2.66749c-1.50101,0 -2.71783,-1.19427 -2.71783,-2.66749c0,-1.47321 1.21681,-2.6675 2.71783,-2.6675c1.50101,0 2.71782,1.19428 2.71782,2.6675z" fill="#ecec68"/><path d="M340.23461,218.09067c0,4.61422 -0.63093,8.35478 -1.40923,8.35478c-0.7783,0 -1.40924,-3.74056 -1.40924,-8.35478c0,-4.61422 0.63094,-8.35479 1.40924,-8.35479c0.7783,0 1.40923,3.74057 1.40923,8.35479z" fill="#ecec68"/><path d="M337.71811,214.06427c0,2.22373 -0.36054,4.02641 -0.80529,4.02641c-0.44475,0 -0.80528,-1.80268 -0.80528,-4.02641c0,-2.22373 0.36054,-4.0264 0.80528,-4.0264c0.44475,0 0.80529,1.80267 0.80529,4.0264z" fill="#ecec68"/><path d="M366.00358,217.6377c0,5.69828 -0.45067,10.31765 -1.0066,10.31765c-0.55593,0 -1.0066,-4.61937 -1.0066,-10.31765c0,-5.69828 0.45067,-10.31766 1.0066,-10.31766c0.55593,0 1.0066,4.61937 1.0066,10.31766z" fill="#ecec68"/><path d="M370.93593,217.33572c0,2.75186 -0.31547,4.98268 -0.70463,4.98268c-0.38915,0 -0.70462,-2.23083 -0.70462,-4.98268c0,-2.75186 0.31547,-4.98267 0.70462,-4.98267c0.38916,0 0.70463,2.23081 0.70463,4.98267z" fill="#ecec68"/><path d="M370.02999,224.48259c0,0.75051 -0.51827,1.3589 -1.15759,1.3589c-0.63932,0 -1.15759,-0.60841 -1.15759,-1.3589c0,-0.75051 0.51827,-1.35891 1.15759,-1.35891c0.63932,0 1.15759,0.60841 1.15759,1.35891z" fill="#ecec68"/><path d="M375.76761,216.73176c0,0.97288 -0.67601,1.76155 -1.5099,1.76155c-0.83389,0 -1.50991,-0.78867 -1.50991,-1.76155c0,-0.97288 0.67601,-1.76155 1.50991,-1.76155c0.83389,0 1.5099,0.78867 1.5099,1.76155z" fill="#ecec68"/><path d="M348.28742,219.55025c0,0.69491 -0.49574,1.25824 -1.10726,1.25824c-0.61152,0 -1.10726,-0.56333 -1.10726,-1.25824c0,-0.69491 0.49574,-1.25825 1.10726,-1.25825c0.61153,0 1.10726,0.56334 1.10726,1.25825z" fill="#ecec68"/><path d="M350.0993,202.18638c0,0.88949 -0.67601,1.61057 -1.50991,1.61057c-0.8339,0 -1.5099,-0.72108 -1.5099,-1.61057c0,-0.88949 0.67601,-1.61056 1.5099,-1.61056c0.83389,0 1.50991,0.72107 1.50991,1.61056z" fill="#ecec68"/><path d="M344.76431,200.97846c0,1.77898 -1.39708,3.22112 -3.12046,3.22112c-1.72338,0 -3.12046,-1.44215 -3.12046,-3.22112c0,-1.77898 1.39708,-3.22112 3.12046,-3.22112c1.72338,0 3.12046,1.44214 3.12046,3.22112z" fill="#ecec68"/><path d="M347.07949,198.15998c0,0.50034 -0.33801,0.90594 -0.75495,0.90594c-0.41695,0 -0.75495,-0.4056 -0.75495,-0.90594c0,-0.50034 0.338,-0.90594 0.75495,-0.90594c0.41695,0 0.75495,0.4056 0.75495,0.90594z" fill="#ecec68"/><path d="M360.76926,196.54942c0,1.27864 -0.96894,2.31518 -2.16419,2.31518c-1.19525,0 -2.16419,-1.03654 -2.16419,-2.31518c0,-1.27864 0.96894,-2.31518 2.16419,-2.31518c1.19525,0 2.16419,1.03654 2.16419,2.31518z" fill="#ecec68"/><path d="M376.37157,206.36378c0,1.91796 -1.46468,3.47277 -3.27145,3.47277c-1.80678,0 -3.27145,-1.55481 -3.27145,-3.47277c0,-1.91796 1.46467,-3.47277 3.27145,-3.47277c1.80678,0 3.27145,1.55481 3.27145,3.47277z" fill="#ecec68"/><path d="M368.2181,204.65255c0,0.69491 -0.47321,1.25825 -1.05693,1.25825c-0.58373,0 -1.05693,-0.56334 -1.05693,-1.25825c0,-0.69491 0.4732,-1.25825 1.05693,-1.25825c0.58372,0 1.05693,0.56334 1.05693,1.25825z" fill="#ecec68"/><path d="M371.13725,201.58242c0,0.94508 -0.72108,1.71122 -1.61056,1.71122c-0.88949,0 -1.61056,-0.76613 -1.61056,-1.71122c0,-0.94508 0.72107,-1.71123 1.61056,-1.71123c0.88949,0 1.61056,0.76615 1.61056,1.71123z" fill="#ecec68"/><path d="M363.78906,206.06179c0,0.69491 -0.63094,1.25825 -1.40924,1.25825c-0.7783,0 -1.40924,-0.56334 -1.40924,-1.25825c0,-0.69491 0.63094,-1.25825 1.40924,-1.25825c0.77831,0 1.40924,0.56334 1.40924,1.25825z" fill="#ecec68"/><path d="M351.1059,252.11377c0,0.66712 -0.56333,1.20792 -1.25824,1.20792c-0.69491,0 -1.25825,-0.54081 -1.25825,-1.20792c0,-0.66712 0.56334,-1.20792 1.25825,-1.20792c0.69491,0 1.25824,0.54081 1.25824,1.20792z" fill="#ecec68"/><path d="M354.22636,248.13769c0,1.25084 -1.10414,2.26486 -2.46617,2.26486c-1.36203,0 -2.46618,-1.01402 -2.46618,-2.26486c0,-1.25084 1.10415,-2.26485 2.46618,-2.26485c1.36202,0 2.46617,1.014 2.46617,2.26485z" fill="#ecec68"/><path d="M360.46728,259.81426c0,0.80609 -0.63094,1.45958 -1.40924,1.45958c-0.7783,0 -1.40924,-0.65347 -1.40924,-1.45958c0,-0.80609 0.63094,-1.45958 1.40924,-1.45958c0.77831,0 1.40924,0.65347 1.40924,1.45958z" fill="#ecec68"/><path d="M356.73746,197.22939c-0.69506,0.59355 -0.53262,-2.09172 -1.24129,-3.18554c-0.9494,-1.46541 -3.19363,-1.6596 -2.64126,-2.1313c0.75329,-0.64327 2.48176,-1.32622 4.05788,1.11004c0.75701,1.17013 0.93975,3.25457 -0.17534,4.20681z" fill="#ededed"/><path d="M354.83031,194.53622c0,0.55594 -0.47321,1.0066 -1.05693,1.0066c-0.58373,0 -1.05693,-0.45066 -1.05693,-1.0066c0,-0.55594 0.4732,-1.00661 1.05693,-1.00661c0.58372,0 1.05693,0.45068 1.05693,1.00661z" fill="#ededed"/></g></g></g><g stroke="#000000" stroke-width="1" stroke-linecap="butt"><path d="M391.9429,302.78194c0.20579,-0.7717 0.72883,-1.15756 1.56912,-1.15756h1.54341c0.42872,0 0.72883,0.16291 0.90033,0.48874c0.18864,0.32584 0.23152,0.71168 0.12861,1.15756l-9.0032,35.344c-0.20579,0.7717 -0.72883,1.15756 -1.56912,1.15756h-1.54341c-0.42872,0 -0.7374,-0.15434 -0.92604,-0.46302c-0.18864,-0.32584 -0.23152,-0.71168 -0.12861,-1.15756z" fill="#b100ff"/><path d="M368.00522,302.78194c0.20579,-0.7717 0.72883,-1.15756 1.56912,-1.15756h1.54341c0.42872,0 0.72884,0.16291 0.90033,0.48874c0.18864,0.32584 0.23152,0.71168 0.12861,1.15756l-3.7299,14.61091l12.65593,-15.40833c0.44588,-0.56592 1.02035,-0.84888 1.72346,-0.84888h2.21222c0.46302,0 0.76313,0.15434 0.90033,0.46302c0.15434,0.30868 0.08575,0.65165 -0.20579,1.02894l-14.37941,17.05463l5.3762,18.03213c0.32584,1.04608 0.02572,1.56914 -0.90033,1.56914h-1.95498c-0.49731,0 -0.83172,-0.08575 -1.00322,-0.25723c-0.1715,-0.18864 -0.32584,-0.54019 -0.46302,-1.05467l-4.96462,-16.64307l-4.27009,16.7974c-0.20579,0.7717 -0.72883,1.15756 -1.56912,1.15756h-1.54341c-0.42872,0 -0.7374,-0.15434 -0.92604,-0.46302c-0.18864,-0.32584 -0.23152,-0.71168 -0.12861,-1.15756z" fill="#0b00ff"/><path d="M341.05162,302.78194c0.20579,-0.75456 0.71168,-1.1404 1.51769,-1.15756h1.59484c0.70311,0 1.15756,0.54877 1.36334,1.6463l4.65595,26.67521l6.91961,-27.16395c0.20579,-0.7717 0.7374,-1.15756 1.59485,-1.15756h1.51769c0.42872,0 0.7374,0.16291 0.92604,0.48874c0.18865,0.32584 0.2315,0.71168 0.12854,1.15756l-9.0032,35.344c-0.20579,0.7717 -0.7374,1.15756 -1.59485,1.15756h-1.87782c-0.44588,0 -0.72883,-0.20579 -0.84888,-0.61736c-0.06861,-0.25723 -0.12006,-0.47159 -0.15436,-0.64308c-0.01709,-0.1715 -0.03425,-0.29154 -0.05145,-0.36013l-4.65595,-26.57232l-6.89388,27.03534c-0.20579,0.7717 -0.72883,1.15756 -1.56912,1.15756h-1.54341c-0.42872,0 -0.7374,-0.15434 -0.92604,-0.46302c-0.18864,-0.32584 -0.23152,-0.71168 -0.12861,-1.15756z" fill="#4df6ff"/><path d="M271.97105,320.37678l2.93247,-0.15434c2.79527,-0.10289 4.73311,-1.15756 5.8135,-3.16398c0.68595,-1.26903 1.20042,-2.7181 1.54339,-4.34727c0.36013,-1.6463 0.5402,-3.01822 0.5402,-4.11575c0,-2.07503 -1.19185,-3.16398 -3.57556,-3.26687c-0.7717,-0.0343 -1.90355,-0.06002 -3.39551,-0.07718zM271.55946,305.22567c-0.58306,0 -1.1404,0 -1.67203,0c-0.51447,0 -0.87458,-0.14577 -1.08038,-0.43729c-0.20579,-0.30868 -0.25724,-0.66024 -0.15436,-1.05467l0.30868,-1.05467c0.06861,-0.30868 0.23152,-0.55734 0.48874,-0.74597c0.25724,-0.20579 0.49733,-0.30868 0.72026,-0.30868h8.25723c2.82958,0 4.9732,0.59163 6.43085,1.77491c1.47482,1.18328 2.21222,3.1211 2.21222,5.8135c0,1.98927 -0.42873,4.18434 -1.28617,6.5852c-0.8403,2.40086 -1.85209,4.05573 -3.03537,4.96463c-0.58306,0.44588 -0.99463,0.75456 -1.23472,0.92604c-0.22293,0.15434 -0.7717,0.43729 -1.6463,0.84888c-0.8746,0.41157 -1.74062,0.70311 -2.59807,0.8746c-1.80064,0.36013 -3.87568,0.55734 -6.22508,0.59163l-3.7299,14.61091c-0.20579,0.7717 -0.72883,1.15756 -1.56912,1.15756h-1.51768c-0.42872,0 -0.7374,-0.15434 -0.92606,-0.46302c-0.18864,-0.32584 -0.23148,-0.71168 -0.12854,-1.15756z" fill="#ff6f00"/><path d="M294.10292,319.47645l3.2926,-0.15434c2.3837,-0.10289 4.21007,-1.13183 5.4791,-3.08681c1.21757,-1.86923 1.82637,-4.41586 1.82637,-7.63985c0,-0.9089 -0.30868,-1.67203 -0.92606,-2.28938c-0.6002,-0.61736 -1.44051,-0.93462 -2.52088,-0.95176c-1.08039,-0.01716 -2.2551,-0.0343 -3.52412,-0.05145zM293.43408,305.27711c-0.54877,0 -1.08037,0 -1.59484,0c-0.51447,0 -0.8746,-0.14577 -1.08039,-0.43729c-0.20579,-0.30868 -0.25724,-0.66024 -0.15436,-1.05467l0.25724,-1.1061c0.06861,-0.30868 0.23152,-0.55734 0.48874,-0.74597c0.25723,-0.20579 0.49731,-0.30868 0.72024,-0.30868h8.95176c2.41799,0 4.35584,0.60879 5.8135,1.82637c1.45765,1.20042 2.18648,2.98392 2.18648,5.35048c0,2.36656 -0.45445,4.58734 -1.36333,6.66236c-0.89174,2.07503 -1.87782,3.55841 -2.9582,4.45016c-1.06324,0.8746 -1.87782,1.45767 -2.44372,1.74919c-0.56592,0.27438 -1.18328,0.52304 -1.85209,0.74597l2.41799,15.56267c0.18864,1.20042 -0.19722,1.80064 -1.15756,1.80064h-1.80064c-0.46302,0 -0.79742,-0.13718 -1.00322,-0.41157c-0.18864,-0.27438 -0.32582,-0.75456 -0.41157,-1.44051l-1.98071,-14.86815l-3.2926,0.05145l-3.96141,15.51124c-0.20579,0.7717 -0.72883,1.15756 -1.56914,1.15756h-1.51767c-0.42874,0 -0.73742,-0.15434 -0.92606,-0.46302c-0.18864,-0.32584 -0.23148,-0.71168 -0.12854,-1.15756z" fill="#ffe900"/><path d="M256.7805,301.05847c2.28082,0 3.8928,0.93462 4.836,2.80386c0.94319,1.86923 1.4148,4.55305 1.4148,8.05143c0,0.8746 -0.29154,1.39764 -0.8746,1.56912l-1.85209,0.59163c-0.29152,0.08575 -0.57449,0.0343 -0.84888,-0.15434c-0.27438,-0.18864 -0.41157,-0.5059 -0.41157,-0.95176c0,-4.64736 -0.75456,-7.3226 -2.26366,-8.02571c-0.70311,-0.36013 -1.54341,-0.30011 -2.5209,0.18007c-0.97749,0.46302 -1.97214,1.59484 -2.98392,3.39548c-1.01179,1.7835 -1.55198,3.82421 -1.62057,6.12218c-0.0343,0.92604 0.12004,1.63773 0.46302,2.13504c0.34297,0.48018 1.01179,0.89174 2.00643,1.23473l2.16077,0.74597c2.07503,0.70311 3.43837,1.56055 4.09002,2.57234c0.58306,0.92604 0.8746,2.42659 0.8746,4.50161c0,2.05787 -0.55734,4.27009 -1.67203,6.63665c-1.09753,2.36656 -2.58949,4.32155 -4.47588,5.86494c-1.88639,1.52626 -3.85852,2.28938 -5.91639,2.28938c-4.15005,0 -6.22507,-3.36978 -6.22507,-10.10932v-0.18007c0,-1.33762 0.26581,-2.07502 0.79742,-2.21222l1.95498,-0.61736c0.34297,-0.13719 0.62594,-0.11146 0.84888,0.07718c0.24009,0.18864 0.36013,0.49731 0.36013,0.92604c0,2.76099 0.16291,4.84459 0.48874,6.2508c0.32584,1.38907 0.86601,2.27225 1.62057,2.64952c0.53161,0.12004 1.21757,0 2.05787,-0.36013c1.42337,-0.63452 2.70097,-1.94641 3.8328,-3.93568c1.38906,-2.40086 2.05787,-5.11896 2.00643,-8.15432c-0.01721,-0.92604 -0.53168,-1.66345 -1.54341,-2.21222c-0.51447,-0.25723 -1.24329,-0.53161 -2.18648,-0.82315l-2.21222,-0.69454c-0.99465,-0.29154 -1.85209,-0.84888 -2.57233,-1.67203c-0.72026,-0.82315 -1.08039,-1.93784 -1.08039,-3.34405c0,-1.40621 0.28295,-3.00107 0.84888,-4.78456c0.58306,-1.80064 1.35478,-3.47267 2.31511,-5.01608c0.97749,-1.54341 2.19507,-2.82101 3.65273,-3.8328c1.4748,-1.01179 3.01821,-1.51769 4.63022,-1.51769z" fill="#ff0000"/><path d="M311.20385,338.25455c-2.4523,-2.60665 -2.87245,-6.99678 -1.26044,-13.1704l5.68487,-22.30223c0.20579,-0.7717 0.7374,-1.15756 1.59487,-1.15756h1.51767c0.42874,0 0.73742,0.16291 0.92606,0.48874c0.18864,0.32584 0.23148,0.71168 0.12854,1.15756l-5.94211,23.48549c-1.69773,6.63665 -0.50588,9.95498 3.57556,9.95498c1.69776,0 3.18971,-0.69454 4.47588,-2.08359c1.28617,-1.40621 2.37513,-3.8328 3.26687,-7.27973l6.27652,-24.56589c0.20579,-0.7717 0.72883,-1.15756 1.56914,-1.15756h1.31189c0.42872,0 0.72883,0.16291 0.90031,0.48874c0.1715,0.32584 0.20579,0.71168 0.10291,1.15756l-6.14791,24.43728c-1.33762,5.45337 -3.51553,9.08037 -6.53375,10.88101c-1.73205,1.02894 -3.77278,1.54341 -6.12218,1.54341c-2.33227,0 -4.10718,-0.62594 -5.32476,-1.87782z" fill="#00ff15"/></g><path d="M394.86898,346.89524h-153.95895" fill="none" stroke="#000000" stroke-width="4" stroke-linecap="round"/><path d="M278.90359,350.86473h79.38951" fill="none" stroke="#000000" stroke-width="2" stroke-linecap="round"/><text transform="translate(269.62128,296.32423) scale(1.07863,0.91065)" font-size="40" xml:space="preserve" fill-opacity="0.59608" fill="#ffff70" fill-rule="nonzero" stroke="#000000" stroke-width="2" stroke-linecap="butt" stroke-linejoin="miter" stroke-miterlimit="10" stroke-dasharray="" stroke-dashoffset="0" font-family="Marker" font-weight="normal" text-anchor="start" style="mix-blend-mode: normal"><tspan x="0" dy="0">WITH</tspan></text></g></g></svg>