<svg version="1.1" xmlns="http://www.w3.org/2000/svg" xmlns:xlink="http://www.w3.org/1999/xlink" width="177.2017" height="262.2409" viewBox="0,0,177.2017,262.2409"><g transform="translate(-231.39419,-48.62284)"><g data-paper-data="{&quot;isPaintingLayer&quot;:true}" fill-rule="nonzero" stroke-linejoin="miter" stroke-miterlimit="10" stroke-dasharray="" stroke-dashoffset="0" style="mix-blend-mode: normal"><path d="M286.67309,307.49998l15.14285,-131.8421l37.78325,-0.15789l13.57389,132z" fill="#000000" stroke="#ffffff" stroke-width="2" stroke-linecap="butt"/><path d="M340.74352,191.45424l-11.93302,30.77462l-9.4208,88.55554l-8.16469,-89.18359l-12.56107,-29.51852z" fill="#ffffff" stroke="#ffffff" stroke-width="1.5" stroke-linecap="round"/><path d="M325.19586,239.64445l-5.44177,9.94271l-6.75138,-13.47381l5.6862,-31.29142l-2.28077,-8.73814l9.15427,-0.32669l-3.02631,9.71367z" fill="#000000" stroke="none" stroke-width="0" stroke-linecap="butt"/><path d="M292.7128,115.20173c-0.57709,-7.29323 0.335,-17.15448 0.335,-17.15448c0,0 3.41059,-0.04124 13.91429,-3.14424c8.0696,-2.38394 20.54731,-9.48722 20.54731,-9.48722c0,0 -2.16005,3.00503 -3.40781,4.46015c-1.32651,1.54696 -3.99292,4.56297 -3.99292,4.56297c0,0 7.838,-1.66761 14.67476,-4.72931c8.56837,-3.53575 10.59252,-6.05309 12.95042,-4.5927c2.7829,1.72362 1.03006,23.1827 0.71846,28.74062c-0.42163,5.66922 -2.53327,9.49969 -3.15031,12.52053c-0.61704,3.02084 -0.4096,6.13662 -2.20622,16.0397c-1.12121,6.18021 -4.16183,8.92466 -10.01942,14.66081c-5.85759,5.73616 -9.05378,9.25275 -13.01359,9.32173c-3.81077,0.06639 -8.93565,-5.1002 -13.93542,-10.38244c-5.32393,-5.62474 -8.87489,-8.47713 -9.71551,-15.13975c-0.75707,-6.00039 -0.77653,-9.90853 -1.12266,-15.24835c-0.25298,-3.90273 -2.26119,-6.44504 -2.57636,-10.42801z" fill="#5a5a07" stroke="none" stroke-width="0" stroke-linecap="butt"/><path d="M340.78282,100.08137c0,0 1.52429,0.31807 4.2558,1.11029c2.49492,0.72361 4.44935,1.74403 4.44935,1.74403l0.1951,1.17035c0,0 -7.24963,-3.12997 -15.1158,-2.4706c-6.2896,0.52724 -9.96319,2.8124 -9.96319,2.8124l0.04575,-4.17683c0,0 3.12748,-1.70421 7.86366,-1.85557c4.90428,-0.15672 8.09084,0.59125 8.09084,0.59125z" data-paper-data="{&quot;index&quot;:null}" fill="#5a5a07" stroke="none" stroke-width="0" stroke-linecap="butt"/><path d="M328.01867,143.06892c0.5704,0.21186 3.08357,1.39942 6.02385,2.59586c2.9637,1.20597 7.21362,2.29294 7.19412,2.4605c-0.02476,0.21265 -10.43477,0.22694 -13.67937,0.63224c-2.71902,0.33964 -6.68867,0.70564 -6.68867,0.70564c0,0 -7.10401,-1.16169 -13.27235,-2.44521c-4.94371,-1.02869 -10.39929,-1.66108 -10.40995,-1.75461c-0.01439,-0.12613 3.86835,-0.71071 6.82417,-1.39467c1.14585,-0.49661 5.43971,-1.48513 5.43971,-1.48513c0,0 4.95585,-0.27766 7.60826,0.579c2.84203,0.91791 2.83546,2.44556 3.0831,2.46906c0,0 1.18436,-1.74932 2.36886,-2.10461c1.18451,-0.35528 5.08219,-0.41633 5.50828,-0.25808z" fill="#5a5a07" stroke="none" stroke-width="0" stroke-linecap="butt"/><path d="M309.37068,147.62249c5.09114,1.02674 11.91756,2.80736 11.91756,2.80736c0,0 5.78976,-1.55585 8.44678,-1.8344c2.05992,-0.21596 11.216,-0.70654 11.26026,-0.33377c0.04328,0.36447 -9.03119,12.90033 -21.14808,12.44714c-13.76954,-0.43578 -22.86459,-15.13559 -22.82675,-15.30472c0.03784,-0.16913 7.2591,1.19165 12.35024,2.2184z" fill="#5a5a07" stroke="none" stroke-width="0" stroke-linecap="butt"/><path d="M320.34494,144.62883c-1.03376,0 -3.5381,-3.26042 -3.7867,-5.3637c-0.22243,-1.88186 1.31512,-3.82799 3.7867,-3.82799c2.47159,0 4.2021,0.49077 4.02999,4.18853c-0.14607,3.13818 -1.55841,5.00317 -4.02999,5.00317z" fill="#5a5a07" stroke="none" stroke-width="0" stroke-linecap="butt"/><path d="M323.94705,114.53511c0,0 0.1026,3.96976 0.00576,7.12662c-0.19174,6.25113 -1.08147,27.7607 -1.08147,27.7607l-2.98167,0.00864c0,0 -0.80294,-4.17274 -1.12322,-9.49979c-0.43353,-7.21063 -0.4495,-16.29321 -0.76344,-19.63229c-0.29758,-3.16513 -0.89593,-5.71453 -0.89593,-5.71453" fill="#5a5a07" stroke="none" stroke-width="0" stroke-linecap="round"/><path d="M294.41244,125.32495c0,0 -4.93211,-3.51705 -6.16417,-8.97502c-1.29636,-5.74284 -1.46118,-9.7328 0.48013,-9.99193c1.94131,-0.25915 2.70321,2.37692 3.73262,8.35569c1.0294,5.97877 1.95143,10.61127 1.95143,10.61127z" data-paper-data="{&quot;index&quot;:null}" fill="#5a5a07" stroke="none" stroke-width="0" stroke-linecap="butt"/><path d="M294.20984,121.37739c0,0 -3.56385,-2.92338 -4.31816,-8.45061c-0.42079,-3.08327 2.15675,-2.28016 2.15675,-2.28016" fill="#5a5a07" stroke="none" stroke-width="0" stroke-linecap="round"/><path d="M297.22325,114.72149c0.07093,-4.89188 4.83834,-8.93609 10.21137,-8.8582c5.37302,0.0779 9.02724,4.2484 8.95632,9.14029c-0.07093,4.89188 -4.12352,8.79439 -9.49655,8.7165c-5.37302,-0.0779 -9.74207,-4.1067 -9.67114,-8.99859z" fill="#5a5a07" stroke="none" stroke-width="0" stroke-linecap="butt"/><path d="M301.6609,114.83943c0.03999,-2.75843 2.30855,-4.96213 5.06696,-4.92214c2.75843,0.03999 4.96213,2.30855 4.92214,5.06696c-0.03999,2.75843 -2.30854,4.96213 -5.06696,4.92214c-2.75843,-0.03999 -4.96213,-2.30855 -4.92214,-5.06696z" fill="#5a5a07" stroke="none" stroke-width="0" stroke-linecap="butt"/><path d="M324.27952,114.72222c0.20353,-4.88817 4.45264,-8.85847 9.77048,-8.85847c5.31783,0 9.27453,3.96607 9.27453,8.85847c0,4.8924 -3.88585,9.07104 -9.69964,9.14188c-5.52997,0.06739 -9.55792,-4.03692 -9.34537,-9.14188z" fill="#5a5a07" stroke="none" stroke-width="0" stroke-linecap="butt"/><path d="M328.88229,114.80777c0,-2.81845 2.2848,-5.10325 5.10325,-5.10325c2.81845,0 5.10325,2.2848 5.10325,5.10325c0,2.81845 -2.28479,5.10325 -5.10325,5.10325c-2.81845,0 -5.10325,-2.2848 -5.10325,-5.10325z" fill="#5a5a07" stroke="none" stroke-width="0" stroke-linecap="butt"/><path d="M297.15483,114.18931c0,0 0.06357,-9.01512 10.60111,-8.8249c9.47101,0.16586 9.55554,9.40723 9.55554,9.40723z" fill="#5a5a07" stroke="none" stroke-width="0" stroke-linecap="butt"/><path d="M323.90188,114.32021c0,0 -0.24686,-9.4582 11.19813,-9.1032c9.71427,0.33347 9.54677,9.65229 9.54677,9.65229z" fill="#5a5a07" stroke="none" stroke-width="0" stroke-linecap="butt"/><path d="M300.68468,104.17765c0,0 3.36963,-1.819 8.03244,-2.28178c5.16698,-0.51283 7.76823,-0.06628 7.76823,-0.06628l0.29508,4.13747c0,0 -3.83554,-0.68065 -8.01795,-0.52113c-5.59346,0.21333 -6.64488,1.43293 -10.89774,1.89119c-3.64408,0.39266 -6.73723,0.15884 -6.73723,0.15884l-0.02589,-1.23155c0,0 3.59517,0.07398 5.23371,-0.06836c1.35239,-0.11749 3.9757,-0.93808 3.9757,-0.93808z" fill="#5a5a07" stroke="none" stroke-width="0" stroke-linecap="butt"/><path d="M348.64561,114.71368c1.0294,-5.97877 1.7913,-8.61483 3.73262,-8.35569c1.94131,0.25914 1.77649,4.24909 0.48013,9.99193c-1.23206,5.45797 -6.16417,8.97502 -6.16417,8.97502c0,0 0.92203,-4.6325 1.95143,-10.61127z" data-paper-data="{&quot;index&quot;:null}" fill="#5a5a07" stroke="none" stroke-width="0" stroke-linecap="butt"/><path d="M349.05821,110.64662c0,0 2.57754,-0.80312 2.15675,2.28016c-0.75431,5.52723 -4.31816,8.45061 -4.31816,8.45061" data-paper-data="{&quot;index&quot;:null}" fill="#5a5a07" stroke="none" stroke-width="0" stroke-linecap="round"/><path d="M255.763,137.17951c0,-33.30185 28.7599,-60.29833 64.23702,-60.29833c35.47712,0 64.23702,26.99649 64.23702,60.29833c0,33.30185 -28.7599,60.29833 -64.23702,60.29833c-35.47712,0 -64.23702,-26.99649 -64.23702,-60.29833z" fill="#ffffff" stroke="#000000" stroke-width="2" stroke-linecap="butt"/><path d="M256.48607,136.89998c0,-0.72799 5.20666,55.91939 63.36046,56.93429c55.56352,0.9697 63.51358,-57.95314 63.51358,-56.93429c0,32.80479 -28.40173,59.39833 -63.43702,59.39833c-35.03529,0 -63.43702,-26.59354 -63.43702,-59.39833z" fill="#dedeaf" stroke="#000000" stroke-width="0" stroke-linecap="butt"/><g stroke="#000000" stroke-width="2.5" stroke-linecap="butt"><path d="M407.34589,124.34886c-0.6716,12.04459 -40.32243,19.52718 -88.56258,16.71279c-48.24015,-2.81438 -86.80208,-14.85998 -86.13048,-26.90455c0.6716,-12.04459 40.32243,-19.52718 88.56258,-16.71279c48.24015,2.81438 86.80208,14.85998 86.13048,26.90455z" fill="#e2e2e2"/><path d="M265.68773,115.68782l3.11813,-55.92059c0,0 13.19301,-11.41394 56.5669,-9.7236c43.8415,1.70848 52.10038,16.06337 52.10038,16.06337l-3.11813,55.92059c0,0 -11.88109,5.64546 -53.46507,2.22389c-37.16224,-3.05774 -55.2022,-8.56366 -55.2022,-8.56366z" fill="#ffffff"/></g><path d="M355.59566,162.77588c0,0 -19.85211,12.21175 -34.80742,11.86656c-14.95531,-0.34518 -34.81948,-13.47362 -34.81948,-13.47362" fill="none" stroke="#000000" stroke-width="4" stroke-linecap="round"/><path d="M371.89184,158.70904l16.20844,99.61195l-41.38193,-17.69883l-3.58303,-41.21106l23.33554,25.13566l-23.99207,-57.73862z" data-paper-data="{&quot;index&quot;:null}" fill="#000000" stroke="#ffffff" stroke-width="3" stroke-linecap="round"/><path d="M375.9145,153.77101c0,12.83398 -9.84162,23.23798 -21.98187,23.23798c-12.14025,0 -21.98187,-10.404 -21.98187,-23.23798c0,-12.83398 9.84162,-23.23798 21.98187,-23.23798c12.14025,0 21.98187,10.404 21.98187,23.23798z" fill="#000000" stroke="#ffffff" stroke-width="2.5" stroke-linecap="butt"/></g></g></svg>