<svg version="1.1" xmlns="http://www.w3.org/2000/svg" xmlns:xlink="http://www.w3.org/1999/xlink" width="130.35001" height="232.70001" viewBox="0,0,130.35001,232.70001"><g transform="translate(-254.82501,-75.79998)"><g data-paper-data="{&quot;isPaintingLayer&quot;:true}" fill-rule="nonzero" stroke-linejoin="miter" stroke-miterlimit="10" stroke-dasharray="" stroke-dashoffset="0" style="mix-blend-mode: normal"><path d="M335.62757,200.33377c-0.57113,0 -1.03411,-0.46299 -1.03411,-1.03411c0,-0.57113 0.46299,-1.03413 1.03411,-1.03413c0.57113,0 1.03411,0.463 1.03411,1.03413c0,0.57113 -0.46299,1.03411 -1.03411,1.03411z" fill="#5a5a07" stroke="none" stroke-width="0" stroke-linecap="butt"/><path d="M330.36769,204.56936c-4.4635,-0.31439 -6.55245,-1.79392 -6.16985,-2.58011c0.11788,-0.24224 2.84645,1.06355 6.97038,1.3048c6.40897,0.37493 8.51033,-0.63173 8.51033,-0.63173v1.34616c0,0 -2.4135,1.04672 -9.31086,0.56089z" fill="#5a5a07" stroke="none" stroke-width="0" stroke-linecap="butt"/><path d="M302.55494,199.29966c0,-0.57113 0.46299,-1.03413 1.03411,-1.03413c0.57113,0 1.03413,0.463 1.03413,1.03413c0,0.57113 -0.463,1.03411 -1.03413,1.03411c-0.57113,0 -1.03411,-0.46299 -1.03411,-1.03411z" fill="#5a5a07" stroke="none" stroke-width="0" stroke-linecap="butt"/><path d="M308.84893,204.56936c-6.89736,0.48585 -9.31086,-0.56089 -9.31086,-0.56089v-1.34616c0,0 2.10136,1.00666 8.51033,0.63173c4.12393,-0.24126 6.85251,-1.54704 6.97039,-1.3048c0.3826,0.78618 -1.70634,2.26571 -6.16985,2.58011z" fill="#5a5a07" stroke="none" stroke-width="0" stroke-linecap="butt"/><path d="M320.12939,261.12113c-0.81895,0 -1.48284,-0.66389 -1.48284,-1.48284c0,-0.81895 0.66389,-1.48284 1.48284,-1.48284c0.81895,0 1.48284,0.66389 1.48284,1.48284c0,0.81895 -0.66389,1.48284 -1.48284,1.48284z" data-paper-data="{&quot;index&quot;:null}" fill="#5a5a07" stroke="none" stroke-width="0" stroke-linecap="butt"/><path d="M290.00743,119.06706c-1.55172,-7.14957 -1.97278,-17.04396 -1.97278,-17.04396c0,0 3.37413,-0.49909 13.3657,-4.98515c7.67615,-3.44649 19.08639,-12.16178 19.08639,-12.16178c0,0 -1.73673,3.26799 -2.77768,4.87756c-1.10665,1.71115 -3.34367,5.05806 -3.34367,5.05806c0,0 7.54289,-2.70554 13.90632,-6.65802c8.01565,-4.65487 9.68324,-7.42134 12.21597,-6.29098c2.98924,1.3341 4.13536,22.83413 4.57331,28.38352c0.34386,5.67447 -1.234,9.75391 -1.43959,12.83027c-0.20559,3.07635 0.41858,6.13601 -0.03125,16.19069c-0.28072,6.27481 -2.92505,9.4029 -7.95887,15.87402c-5.03382,6.47113 -7.72857,10.38526 -11.64321,10.98562c-3.7673,0.57777 -9.53986,-3.85344 -15.20398,-8.41606c-6.03136,-4.85846 -9.93335,-7.20791 -11.66148,-13.69719c-1.55637,-5.84427 -2.10072,-9.71437 -3.16113,-14.95927c-0.77503,-3.83336 -3.10659,-6.08281 -3.95403,-9.98733z" fill="#5a5a07" stroke="none" stroke-width="0" stroke-linecap="butt"/><path d="M335.61018,97.62548c0,0 1.5532,0.11039 4.36639,0.52845c2.56952,0.38185 4.64332,1.13044 4.64332,1.13044l0.35057,1.13353c0,0 -7.60442,-2.12759 -15.31069,-0.41736c-6.16174,1.36748 -9.49501,4.12548 -9.49501,4.12548l-0.51583,-4.14511c0,0 2.87016,-2.10894 7.54307,-2.89525c4.83876,-0.8142 8.09692,-0.50113 8.09692,-0.50113z" data-paper-data="{&quot;index&quot;:null}" fill="#5a5a07" stroke="none" stroke-width="0" stroke-linecap="butt"/><path d="M328.73722,141.93818c0.59369,0.1333 3.24363,0.97245 6.31799,1.76301c3.09885,0.79686 7.45628,1.30299 7.45947,1.47165c0.00403,0.21405 -10.30968,1.62682 -13.47041,2.46436c-2.64874,0.70187 -6.53322,1.59788 -6.53322,1.59788c0,0 -7.19568,-0.19672 -13.48054,-0.63987c-5.0371,-0.35517 -10.52818,-0.24885 -10.55131,-0.3401c-0.03121,-0.12305 3.73779,-1.22399 6.57492,-2.29887c1.06874,-0.64605 5.19086,-2.2025 5.19086,-2.2025c0,0 4.87361,-0.94097 7.61707,-0.44843c2.93959,0.52776 3.13832,2.04244 3.38687,2.03245c0,0 0.9386,-1.89258 2.06462,-2.40379c1.12604,-0.5112 4.98018,-1.09536 5.42367,-0.99579z" fill="#5a5a07" stroke="none" stroke-width="0" stroke-linecap="butt"/><path d="M310.87009,148.95588c5.18293,0.33343 12.18669,1.18076 12.18669,1.18076c0,0 5.52824,-2.31961 8.12374,-2.95261c2.01223,-0.49076 11.01939,-2.20703 11.11333,-1.84358c0.09185,0.35535 -7.21612,13.99673 -19.28405,15.17558c-13.70325,1.41814 -24.69079,-11.92646 -24.67602,-12.09914c0.01477,-0.17268 7.35339,0.20557 12.53632,0.53901z" fill="#5a5a07" stroke="none" stroke-width="0" stroke-linecap="butt"/><path d="M321.34263,144.51493c-1.02439,0.13889 -3.94407,-2.75551 -4.47299,-4.80632c-0.47325,-1.83491 0.7889,-3.96997 3.23807,-4.30204c2.44918,-0.33206 4.22994,-0.07824 4.55619,3.60912c0.27688,3.12935 -0.87209,5.16719 -3.32127,5.49925z" fill="#5a5a07" stroke="none" stroke-width="0" stroke-linecap="butt"/><path d="M320.86894,114.21009c0,0 0.63502,3.91998 0.96318,7.06123c0.64985,6.22022 2.65804,27.65431 2.65804,27.65431l-2.95348,0.40916c0,0 -1.35628,-4.02703 -2.38935,-9.26275c-1.39836,-7.08701 -2.63445,-16.0851 -3.39416,-19.35173c-0.72012,-3.09645 -1.65557,-5.54235 -1.65557,-5.54235" fill="#5a5a07" stroke="none" stroke-width="0" stroke-linecap="round"/><path d="M293.05173,128.87015c0,0 -5.35992,-2.82252 -7.3141,-8.06548c-2.05617,-5.5166 -2.75555,-9.44825 -0.86666,-9.96585c1.88889,-0.51762 2.99805,1.99219 4.82138,7.77845c1.82333,5.78626 3.35938,10.25289 3.35938,10.25289z" data-paper-data="{&quot;index&quot;:null}" fill="#5a5a07" stroke="none" stroke-width="0" stroke-linecap="butt"/><path d="M292.32062,124.98559c0,0 -3.9243,-2.41807 -5.41437,-7.79384c-0.83122,-2.99878 1.83085,-2.54925 1.83085,-2.54925" fill="#5a5a07" stroke="none" stroke-width="0" stroke-linecap="round"/><path d="M294.41246,117.98518c-0.58695,-4.85706 3.59389,-9.50511 8.92867,-10.14981c5.33477,-0.64468 9.51618,2.99705 10.10314,7.85412c0.58695,4.85706 -2.90459,9.26866 -8.23937,9.91335c-5.33477,0.64468 -10.20549,-2.7606 -10.79244,-7.61767z" fill="#5a5a07" stroke="none" stroke-width="0" stroke-linecap="butt"/><path d="M298.82572,117.50585c-0.33097,-2.73879 1.62095,-5.2273 4.35972,-5.55827c2.73879,-0.33097 5.2273,1.62095 5.55827,4.35972c0.33097,2.73879 -1.62094,5.2273 -4.35972,5.55827c-2.73879,0.33097 -5.2273,-1.62095 -5.55827,-4.35972z" fill="#5a5a07" stroke="none" stroke-width="0" stroke-linecap="butt"/><path d="M321.22354,114.35084c-0.45505,-4.8712 3.22212,-9.37638 8.49174,-10.09084c5.26962,-0.71446 9.72329,2.68406 10.3806,7.5321c0.6573,4.84804 -2.63191,9.51087 -8.38347,10.36216c-5.47078,0.80974 -10.01363,-2.71619 -10.48887,-7.80343z" fill="#5a5a07" stroke="none" stroke-width="0" stroke-linecap="butt"/><path d="M325.79606,113.81722c-0.37866,-2.7929 1.57845,-5.36395 4.37135,-5.74261c2.7929,-0.37866 5.36395,1.57845 5.74261,4.37135c0.37866,2.7929 -1.57844,5.36395 -4.37135,5.74261c-2.7929,0.37866 -5.36395,-1.57845 -5.74261,-4.37135z" fill="#5a5a07" stroke="none" stroke-width="0" stroke-linecap="butt"/><path d="M294.27316,117.46702c0,0 -1.14821,-8.94193 9.31935,-10.16917c9.40743,-1.10809 10.73279,8.03813 10.73279,8.03813z" fill="#5a5a07" stroke="none" stroke-width="0" stroke-linecap="butt"/><path d="M320.7953,114.00321c0,0 -1.51535,-9.33928 9.87357,-10.52516c9.671,-0.97469 10.75702,8.28215 10.75702,8.28215z" fill="#5a5a07" stroke="none" stroke-width="0" stroke-linecap="butt"/><path d="M296.42592,107.07189c0,0 3.09469,-2.25522 7.65305,-3.34027c5.05123,-1.20237 7.6889,-1.10936 7.6889,-1.10936l0.84828,4.06031c0,0 -3.89221,-0.15917 -8.01527,0.56082c-5.51409,0.96289 -6.39212,2.31269 -10.54485,3.33818c-3.55829,0.87869 -6.65481,1.06256 -6.65481,1.06256l-0.19112,-1.21691c0,0 3.57251,-0.40971 5.17708,-0.7709c1.32434,-0.29812 3.81362,-1.46372 3.81362,-1.46372z" fill="#5a5a07" stroke="none" stroke-width="0" stroke-linecap="butt"/><path d="M345.36756,111.06874c0.21681,-6.06287 0.61764,-8.77739 2.57617,-8.78142c1.95853,-0.00403 2.33126,3.97189 1.81821,9.83683c-0.4876,5.57402 -4.90247,9.72182 -4.90247,9.72182c0,0 0.29128,-4.71438 0.50809,-10.77724z" data-paper-data="{&quot;index&quot;:null}" fill="#5a5a07" stroke="none" stroke-width="0" stroke-linecap="butt"/><path d="M345.23,106.98312c0,0 2.44627,-1.14214 2.44354,1.96972c-0.00488,5.57846 -3.14365,8.95415 -3.14365,8.95415" data-paper-data="{&quot;index&quot;:null}" fill="#5a5a07" stroke="none" stroke-width="0" stroke-linecap="round"/><path d="M286.67308,307.49998l15.14285,-131.8421l37.78325,-0.15789l13.57389,132z" fill="#5a5a07" stroke="#000000" stroke-width="2" stroke-linecap="butt"/><path d="M299.62331,204.11263l3.12142,-26.32765l35.83075,-0.14203l2.76735,26.1059c0,0 -7.51543,4.19603 -21.55904,4.50964c-12.48458,0.27879 -20.16049,-4.14586 -20.16049,-4.14586z" fill="#8d8d0b" stroke="#000000" stroke-width="0" stroke-linecap="butt"/><path d="M256.34538,145.80986c-4.47417,-32.99992 20.39795,-63.6156 55.55342,-68.38202c35.15547,-4.76642 67.28166,18.12136 71.75583,51.12127c4.47417,32.99992 -20.39795,63.6156 -55.55342,68.38202c-35.15547,4.76642 -67.28166,-18.12136 -71.75583,-51.12127z" fill="#5a5a07" stroke="#000000" stroke-width="2" stroke-linecap="butt"/><path d="M257.02435,145.43574c-0.09781,-0.72139 12.67234,54.71288 70.43525,47.9055c55.19004,-6.50416 55.15162,-65.9609 55.28851,-64.95128c4.40739,32.50737 -20.16394,62.67564 -54.88159,67.3827c-34.71765,4.70706 -66.43477,-17.82954 -70.84217,-50.33691z" fill="#8d8d0b" stroke="#000000" stroke-width="0" stroke-linecap="butt"/><path d="M269.78566,144.08461c-1.74228,-12.85043 7.26267,-24.68016 20.11309,-26.42244c12.85043,-1.74228 24.68016,7.26267 26.42244,20.11309c1.74228,12.85043 -7.26267,24.68016 -20.11309,26.42244c-12.85043,1.74228 -24.68016,-7.26267 -26.42244,-20.11309z" fill="#5a5a07" stroke="#000000" stroke-width="2" stroke-linecap="butt"/><path d="M273.53471,149.83666c-1.22638,-9.04532 5.11212,-17.37217 14.15743,-18.59854c9.04532,-1.22638 17.37217,5.11213 18.59854,14.15744c1.22638,9.04532 -5.11213,17.37217 -14.15744,18.59854c-9.04532,1.22638 -17.37216,-5.11213 -18.59853,-14.15745z" fill="#000000" stroke="none" stroke-width="0" stroke-linecap="butt"/><path d="M349.97463,156.90798c-12.85043,1.74228 -24.68016,-7.26267 -26.42244,-20.11309c-1.74228,-12.85043 7.26267,-24.68016 20.11309,-26.42244c12.85043,-1.74228 24.68016,7.26267 26.42244,20.11309c1.74228,12.85043 -7.26267,24.68016 -20.11309,26.42244z" data-paper-data="{&quot;index&quot;:null}" fill="#5a5a07" stroke="#000000" stroke-width="2" stroke-linecap="butt"/><path d="M351.60263,143.44861c-9.04531,1.22637 -17.37216,-5.11213 -18.59853,-14.15745c-1.22638,-9.04532 5.11213,-17.37217 14.15743,-18.59854c9.04531,-1.22637 17.37216,5.11213 18.59853,14.15745c1.22638,9.04532 -5.11213,17.37217 -14.15743,18.59854z" data-paper-data="{&quot;index&quot;:null}" fill="#000000" stroke="none" stroke-width="0" stroke-linecap="butt"/></g></g></svg>