<svg version="1.1" xmlns="http://www.w3.org/2000/svg" xmlns:xlink="http://www.w3.org/1999/xlink" width="141.55131" height="269.93596" viewBox="0,0,141.55131,269.93596"><g transform="translate(-249.52611,-57.91019)"><g data-paper-data="{&quot;isPaintingLayer&quot;:true}" fill-rule="nonzero" stroke-linejoin="miter" stroke-miterlimit="10" stroke-dasharray="" stroke-dashoffset="0" style="mix-blend-mode: normal"><path d="M295.52305,176.43687c0,0 2.53763,83.65627 -30.09158,79.73762c-31.94687,-3.8367 -2.59948,-111.11264 -2.59948,-111.11264" data-paper-data="{&quot;index&quot;:null}" fill="#d9d960" stroke="#000000" stroke-width="2" stroke-linecap="round"/><path d="M377.77153,144.43277c0,0 29.34739,107.27593 -2.59948,111.11263c-32.62922,3.91866 -30.09158,-79.73761 -30.09158,-79.73761" data-paper-data="{&quot;index&quot;:null}" fill="#d9d960" stroke="#000000" stroke-width="2" stroke-linecap="round"/><path d="M286.70285,326.84614l15.14285,-137.42216l37.78325,-0.16457l13.57389,137.58674z" fill="#d9d960" stroke="#000000" stroke-width="2" stroke-linecap="butt"/><path d="M299.65308,219.08303l3.12142,-27.44194l35.83075,-0.14804l2.76735,27.2108c0,0 -7.51543,4.37362 -21.55904,4.7005c-12.48458,0.29059 -20.16049,-4.32133 -20.16049,-4.32133z" fill="#b4b44f" stroke="#000000" stroke-width="0" stroke-linecap="butt"/><path d="M256.99983,135.20644c0,-34.71131 28.7599,-62.85038 64.23702,-62.85038c35.47712,0 64.23702,28.13909 64.23702,62.85039c0,34.71131 -28.7599,62.85039 -64.23702,62.85039c-35.47712,0 -64.23702,-28.13909 -64.23702,-62.85039z" fill="#d9d960" stroke="#000000" stroke-width="2" stroke-linecap="butt"/><path d="M257.7229,135.26258c0,-0.7588 5.20666,58.28611 63.36046,59.34397c55.56352,1.01074 63.51358,-60.40593 63.51358,-59.34396c0,34.19322 -28.40173,61.9123 -63.43702,61.9123c-35.03529,0 -63.43702,-27.71908 -63.43702,-61.91229z" fill="#b4b44f" stroke="#000000" stroke-width="0" stroke-linecap="butt"/><path d="M270.55003,135.65411c0,-13.51685 10.51265,-24.47444 23.48065,-24.47444c12.968,0 23.48065,10.95759 23.48065,24.47444c0,13.51685 -10.51265,24.47444 -23.48065,24.47444c-12.968,0 -23.48065,-10.95758 -23.48065,-24.47444z" fill="#ffffff" stroke="#000000" stroke-width="2" stroke-linecap="butt"/><path d="M276.40836,131.59231c0,-9.51441 7.39976,-17.22737 16.52783,-17.22737c9.12808,0 16.52784,7.71296 16.52784,17.22737c0,9.51441 -7.39977,17.22736 -16.52784,17.22736c-9.12808,0 -16.52783,-7.71295 -16.52783,-17.22736z" fill="#ffffff" stroke="#000000" stroke-width="2" stroke-linecap="butt"/><path d="M296.27979,186.37513c0,0 10.19436,-29.02636 23.5727,-28.80033c16.22885,0.27415 22.66064,28.80033 22.66064,28.80033z" data-paper-data="{&quot;index&quot;:null}" fill="#000000" stroke="#000000" stroke-width="2" stroke-linecap="round"/><path d="M283.18772,100.42421c0,0 6.70895,-5.388 11.79721,-6.63288c5.08827,-1.24488 12.33413,0.72897 12.33413,0.72897c0,0 -8.03812,-0.06283 -11.96762,0.89856c-4.10648,1.00468 -12.16372,5.00535 -12.16372,5.00535z" fill="#000000" stroke="none" stroke-width="0" stroke-linecap="butt"/><path d="M347.12223,95.41886c-3.9295,-0.96139 -11.96762,-0.89856 -11.96762,-0.89856c0,0 7.24586,-1.97385 12.33413,-0.72897c5.08826,1.24488 11.79721,6.63288 11.79721,6.63288c0,0 -8.05724,-4.00067 -12.16372,-5.00535z" data-paper-data="{&quot;index&quot;:null}" fill="#000000" stroke="none" stroke-width="0" stroke-linecap="butt"/><path d="M270.49878,135.34147l-3.6,-2.71005" fill="none" stroke="#000000" stroke-width="2" stroke-linecap="round"/><path d="M371.29878,135.13298l4.2,-3.5439" fill="none" stroke="#000000" stroke-width="2" stroke-linecap="round"/><path d="M326.24703,136.46217c0,-13.51685 10.51265,-24.47444 23.48065,-24.47444c12.968,0 23.48065,10.95759 23.48065,24.47444c0,13.51685 -10.51265,24.47444 -23.48065,24.47444c-12.968,0 -23.48065,-10.95759 -23.48065,-24.47444z" fill="#ffffff" stroke="#000000" stroke-width="2" stroke-linecap="butt"/><path d="M349.98718,149.44876c-9.12807,0 -16.52783,-7.71295 -16.52783,-17.22736c0,-9.51441 7.39977,-17.22737 16.52783,-17.22737c9.12807,0 16.52783,7.71296 16.52783,17.22737c0,9.51441 -7.39977,17.22736 -16.52783,17.22736z" data-paper-data="{&quot;index&quot;:null}" fill="#ffffff" stroke="#000000" stroke-width="2" stroke-linecap="butt"/><g fill="#bebe3e" stroke="#000000" stroke-width="2" stroke-linecap="butt"><path d="M271.87145,95.82712c-5.21579,-5.69704 -0.02639,-9.55104 -0.02639,-9.55104c0,0 -5.22478,-0.54728 -6.0976,-7.31774c-1.12167,-8.70084 24.72103,-2.23396 24.72103,-2.23396l2.22052,7.22145c0,0 -16.02437,17.11674 -20.81756,11.8813z"/><path d="M302.43123,80.71328l-2.5369,-7.11647c0,0 16.85077,-20.6329 21.15295,-12.98737c3.34769,5.94928 -0.51357,9.51137 -0.51357,9.51137c0,0 6.46398,-0.01268 5.68845,7.67233c-0.71269,7.06233 -23.79093,2.92014 -23.79093,2.92014z" data-paper-data="{&quot;index&quot;:null}"/><path d="M288.81171,80.9927c-1.34794,-4.06241 0.85259,-8.44838 4.91499,-9.79631c4.06241,-1.34794 8.44838,0.85259 9.79631,4.91499c1.34794,4.06241 -0.85259,8.44838 -4.91499,9.79631c-4.06241,1.34794 -8.44838,-0.85259 -9.79631,-4.91499z"/></g></g></g></svg>