<svg version="1.1" xmlns="http://www.w3.org/2000/svg" xmlns:xlink="http://www.w3.org/1999/xlink" width="35.17311" height="35.17311" viewBox="0,0,35.17311,35.17311"><defs><linearGradient x1="320" y1="162.91346" x2="320" y2="197.08656" gradientUnits="userSpaceOnUse" id="color-1"><stop offset="0" stop-color="#a0a300"/><stop offset="1" stop-color="#f8acff"/></linearGradient></defs><g transform="translate(-302.41345,-162.41345)"><g data-paper-data="{&quot;isPaintingLayer&quot;:true}" stroke-miterlimit="10" stroke-dasharray="" stroke-dashoffset="0" style="mix-blend-mode: normal"><path d="M309.98311,162.91346h20.03379c3.9166,0 7.06966,3.15307 7.06966,7.06966v20.03379c0,3.91659 -3.15306,7.06966 -7.06966,7.06966h-20.03379c-3.91659,0 -7.06966,-3.15307 -7.06966,-7.06966v-20.03379c0,-3.91659 3.15307,-7.06966 7.06966,-7.06966z" fill="url(#color-1)" fill-rule="evenodd" stroke="#000000" stroke-width="1" stroke-linecap="round" stroke-linejoin="round"/><path d="M328.80068,182.72249c0.46818,0.47846 0.97644,0.93531 1.46698,1.09398c0.00515,0.00167 -0.40825,-1.55016 -0.652,-2.45264c-0.01138,0.39718 -0.09271,0.77342 -0.31162,1.09298c-0.10103,0.14749 -0.2761,0.23109 -0.50337,0.26568zM318.44786,175.74535c-0.08224,1.06738 0.25244,2.17298 0.6952,3.23603c0.32776,-0.01121 0.65616,-0.01924 0.98475,-0.02408c0.01719,-0.0806 0.046,-0.1662 0.08894,-0.25685c0.40592,-0.85694 1.26286,-0.45102 1.26286,-0.45102c0.1308,0.06206 0.26203,0.12325 0.39368,0.18355c0.00571,-0.0394 0.01127,-0.07881 0.01669,-0.11825c-0.51471,-0.72057 -0.96616,-1.41433 -1.33166,-2.03863c-0.27662,-0.47249 -0.6382,-1.08594 -0.89772,-1.73922c-0.60187,0.18747 -1.15669,0.48106 -1.21274,1.20847zM320.05256,180.96527c0.07906,0.16984 0.15534,0.33681 0.22721,0.50047c0.10601,0.24141 0.21359,0.48302 0.32224,0.7249c0.26038,-0.34176 0.47196,-0.76914 0.64507,-1.22436c-0.3333,-0.00088 -0.66734,-0.00093 -1.00248,-0.00102c-0.06412,-0.00002 -0.12813,-0.00002 -0.19203,0zM321.54627,184.26912c1.08522,2.39359 2.13311,4.82964 2.66262,7.36575l0.16905,-0.06961l0.52289,1.26989c0.05114,0.11653 0.07953,0.24532 0.07953,0.38073c0,0.52369 -0.42453,0.94822 -0.94822,0.94822c-0.28131,0 -0.534,-0.12249 -0.70765,-0.31705l-0.67874,-0.75416c-2.18181,-2.40297 -4.91747,-4.07984 -7.43389,-6.0272c-1.30388,0.57972 -2.61424,1.12108 -3.95115,1.5515l0.09948,0.19895l-1.67917,0.83958c-0.13177,0.06938 -0.28186,0.10864 -0.44112,0.10864c-0.52369,0 -0.94822,-0.42453 -0.94822,-0.94822c0,-0.30272 0.14185,-0.5723 0.36271,-0.74591l1.10028,-0.88022c0.90312,-0.9038 1.69035,-1.90425 2.35592,-2.98112c-0.89892,-1.18559 -1.52754,-2.79332 -0.43102,-4.02829c0.34692,-0.39072 1.6022,-0.62595 2.45771,-0.75715c0.41055,-1.65034 0.50476,-3.13332 1.06331,-4.60999l-0.26737,-0.08227l0.29712,-0.96564c0.11248,-0.39812 0.47847,-0.68987 0.9126,-0.68987c0.4143,0 0.76655,0.26571 0.89562,0.63601l0.14886,0.39696c0.51896,-0.67118 1.29819,-1.17814 2.18586,-1.54031c0.08433,-0.41445 0.29241,-0.80281 0.67685,-1.13661c0.37372,-0.32449 0.89554,-0.37036 1.40774,-0.43433c-0.29974,-0.69219 -0.4704,-1.47652 -0.0082,-2.0136c0.06678,-0.07759 0.1393,-0.14715 0.2168,-0.20935c-0.01561,-0.06825 -0.02386,-0.13931 -0.02386,-0.21229c0,-0.52369 0.42453,-0.94822 0.94822,-0.94822c0.2492,0 0.47595,0.09613 0.64519,0.25334l0.4733,0.43689c0.72607,0.03526 1.44591,0.18113 1.94622,0.23884c2.4265,0.73255 5.78335,2.17135 6.73033,4.82084c0.22361,0.62561 0.71637,1.63122 0.15532,1.98705c-0.82365,0.52237 -1.9804,0.03802 -2.91648,-0.23589c-0.55205,-0.16153 -1.11556,-0.44093 -1.67888,-0.79333c0.81589,0.96434 1.52491,1.98946 2.14938,3.1105c0.54531,0.97893 0.72944,1.60359 1.11892,2.62546c0.68236,1.79031 1.8867,7.22076 -2.16575,5.19582c-1.01346,-0.50641 -2.07381,-1.31008 -3.10334,-2.26499c-0.83183,0.19922 -1.55484,0.33981 -1.77605,0.40138c-0.88861,0.24736 -1.76106,0.54696 -2.62272,0.87928zM326.02378,179.22495c0.30026,0.03292 0.65034,0.06407 1.0063,0.12372c-0.79451,-1.26584 -1.67898,-2.45385 -2.555,-3.65355l-0.5252,0.50397c0,0 -0.03383,0.02767 -0.09289,0.06388c-0.00076,0.44635 -0.00752,0.90004 -0.02715,1.35496c0.43666,0.52636 0.89698,1.03155 1.37211,1.5249c0.27563,0.02492 0.54968,0.05229 0.82183,0.08212zM317.31354,182.36393c0.1411,0.39153 1.09764,0.41227 1.26033,0.47258c0.10839,0.04019 0.21329,0.07044 0.3148,0.09142c-0.28421,-0.64586 -0.56649,-1.29254 -0.84192,-1.94218c-0.30467,0.00804 -0.60881,0.01916 -0.91339,0.03457c0.00232,0.52222 0.05196,0.98781 0.18018,1.34361zM327.06438,171.04828c0.61837,0.47297 1.24606,0.93284 1.88814,1.37072c0.16615,0.11331 0.35025,0.21473 0.53973,0.31313c-0.13669,-0.17607 -0.28408,-0.34136 -0.45421,-0.48352c-0.61836,-0.51671 -1.27741,-0.89436 -1.97366,-1.20032zM323.86404,181.2886c-0.18975,-0.06819 -0.37898,-0.13798 -0.56763,-0.20935c-0.07022,0.22221 -0.14904,0.44032 -0.23746,0.65343c0.3755,-0.10649 0.75112,-0.21232 1.12726,-0.3165c-0.13703,-0.05635 -0.24678,-0.10048 -0.32217,-0.12758zM316.315,184.09291c-0.28522,-0.25669 -0.53511,-0.57554 -0.73577,-0.96178c-0.05384,-0.10363 -0.07764,-0.93462 -0.08429,-1.62829c-0.28871,0.80832 -0.63019,1.59547 -1.0218,2.35593c0.33405,0.30414 0.60081,0.52377 0.65103,0.56162c0.0622,0.04688 0.12444,0.09369 0.18672,0.14045c0.33263,-0.16059 0.66736,-0.31658 1.0041,-0.46793zM313.52558,181.34873c-0.17491,0.03713 -0.34435,0.09125 -0.50501,0.17285c-0.27151,0.13789 -0.1813,0.46288 0.07536,0.8477c0.15375,-0.33485 0.29702,-0.6752 0.42964,-1.02055zM320.80133,187.35065c-0.3243,-0.79191 -0.66227,-1.57796 -1.00511,-2.36193c-0.81624,0.35349 -1.62592,0.72492 -2.43384,1.09696c1.3684,1.01654 2.72517,2.04278 4.01285,3.15277c-0.1937,-0.69386 -0.36314,-1.37315 -0.5739,-1.8878zM324.15605,171.88661c0.17814,0.01746 0.34887,0.04031 0.51056,0.06832c0.13639,0.02364 0.26258,0.05057 0.38021,0.08078c-0.35751,-0.31941 -0.70549,-0.63622 -1.0403,-0.93642c0.00801,0.18197 0.00823,0.37051 0.00316,0.56149c0.04851,0.07544 0.0973,0.15073 0.14637,0.22582zM322.05437,173.93234c-0.19317,0.03487 -0.38971,0.07664 -0.5901,0.12369c0.18082,0.40009 0.43949,0.80295 0.60725,1.06519c-0.00095,-0.39553 -0.00769,-0.79202 -0.01714,-1.18887zM317.26523,179.07812c-0.00012,0.00096 -0.00022,0.00193 -0.00033,0.00289c0.00047,-0.00004 0.00095,-0.00007 0.00143,-0.00011c-0.00037,-0.00093 -0.00074,-0.00186 -0.00111,-0.00279z" data-paper-data="{&quot;index&quot;:null}" fill="#000000" fill-rule="nonzero" stroke="none" stroke-width="0.5" stroke-linecap="butt" stroke-linejoin="miter"/><path d="M311.43015,179.25567c0.22998,-0.91991 1.14989,-0.68993 1.14989,-0.68993l0.37155,0.09294c-0.13975,-0.62783 -0.16444,-1.16659 0.04076,-1.45522c0.66658,-0.93762 2.53686,0.01746 3.18455,0.40784c0.53513,0.32253 1.05221,0.66085 1.55819,1.00816c0.04278,-0.45353 0.11458,-0.89026 0.19156,-1.28079c-0.21177,-1.27876 -0.18355,-2.61462 0.41834,-3.69328c0.36831,-0.66007 0.95472,-1.21158 1.6542,-1.6292c1.65621,-2.72009 4.12246,-4.92379 7.17897,-5.68473c0.6983,0.00744 1.41028,-0.11549 2.09488,0.0223c3.32704,0.66963 3.22003,5.52243 3.21723,7.97358c-0.00256,2.2372 -0.21298,4.4028 -1.43425,6.34445c-0.07133,0.11341 -0.14606,0.22395 -0.224,0.33159c0.06637,0.22388 0.1284,0.44693 0.18582,0.66872c0.1923,0.74277 0.52704,2.59288 0.019,3.27711c-1.17699,1.58518 -3.9538,1.16622 -5.54285,0.82738c-0.43031,-0.17872 -0.8517,-0.36681 -1.26552,-0.56363c0.64029,1.18603 0.86324,2.53974 0.44368,4.0733c-5.22926,2.38434 -8.64306,-2.7048 -10.39555,-7.02049c-0.12355,-0.30424 -0.36354,-0.84103 -0.61239,-1.45946c-0.21281,-0.05957 -0.4288,-0.11839 -0.64817,-0.17687l-0.89595,-0.22387c0,0 -0.91991,-0.22998 -0.68993,-1.14989zM325.68289,183.80359c0.12444,0.05555 0.25003,0.10987 0.37685,0.16291c0.65098,0.14047 2.88427,0.59363 3.40835,-0.08291c0.1596,-0.20602 0.03747,-0.79339 -0.14948,-1.394c-1.06172,0.7493 -2.33667,1.19723 -3.63571,1.31401zM320.25832,178.84495c0.05427,0.08632 0.10704,0.17027 0.15877,0.25201c0.81414,-2.11984 1.66226,-4.21356 2.56397,-6.29361c-0.52593,-0.04561 -0.97868,0.05457 -1.36207,0.2627c-0.57012,0.97152 -1.03382,2.00281 -1.3955,3.01718c-0.07289,0.20443 -0.1774,0.52557 -0.28341,0.90888c0.01361,0.6603 0.12239,1.30475 0.31824,1.85284zM329.9751,178.6105c0.00331,-0.00758 0.0066,-0.01517 0.00988,-0.02277c0.79274,-1.83859 0.65072,-3.88089 0.60909,-5.83186c-0.05306,-2.48707 -0.41922,-4.58638 -3.18419,-4.54217c-1.77784,0.44711 -3.24589,1.52816 -4.42317,2.91151c0.26352,-0.01224 0.52496,-0.00724 0.78082,0.01585l0.58969,-0.94351c0.16592,-0.2754 0.46784,-0.45959 0.81279,-0.45959c0.48294,0 0.88155,0.36103 0.94066,0.82792l0.2256,1.57921l-0.0187,0.00267c0.01053,0.05225 0.01986,0.10482 0.02787,0.15774c0.01366,0.09022 0.02344,0.18368 0.02955,0.28011c0.47108,0.53039 0.92375,1.10423 1.09402,1.35694c0.94386,1.40091 1.81608,3.01496 2.5061,4.66795zM326.06446,174.84232c-0.62292,2.27439 -2.02156,4.92798 -2.93089,6.2583c-0.08499,0.12434 -0.18791,0.25132 -0.3055,0.37725c1.96391,0.97271 4.23029,0.4421 5.77334,-0.96097c-0.53381,-1.5124 -1.39216,-3.98464 -2.53694,-5.67458zM323.24043,188.0426c-0.01112,-1.30256 -1.05431,-2.34118 -1.9167,-3.17321c-0.60685,-0.58549 -1.21488,-1.08489 -1.8346,-1.51798c-1.12023,0.14429 -2.19777,-0.39617 -3.18465,-1.15009c1.26431,2.93253 3.36326,6.40607 6.93595,5.84128z" data-paper-data="{&quot;index&quot;:null}" fill="#bd00e7" fill-rule="nonzero" stroke="none" stroke-width="0.5" stroke-linecap="butt" stroke-linejoin="miter"/></g></g></svg>