<svg version="1.1" xmlns="http://www.w3.org/2000/svg" xmlns:xlink="http://www.w3.org/1999/xlink" width="34.17311" height="34.17311" viewBox="0,0,34.17311,34.17311"><g transform="translate(-302.91345,-162.91347)"><g data-paper-data="{&quot;isPaintingLayer&quot;:true}" stroke-miterlimit="10" stroke-dasharray="" stroke-dashoffset="0" style="mix-blend-mode: normal"><path d="M309.98311,162.91348h20.03379c3.9166,0 7.06966,3.15307 7.06966,7.06966v20.03379c0,3.91659 -3.15306,7.06966 -7.06966,7.06966h-20.03379c-3.91659,0 -7.06966,-3.15307 -7.06966,-7.06966v-20.03379c0,-3.91659 3.15307,-7.06966 7.06966,-7.06966z" fill-opacity="0.61176" fill="#a3a3a3" fill-rule="evenodd" stroke="none" stroke-width="4.43922" stroke-linecap="round" stroke-linejoin="round"/><path d="M306.46574,191.60704c0,-5.67222 4.8986,-10.27046 10.94133,-10.27046c6.04273,0 10.94133,4.59824 10.94133,10.27046" fill="#919191" fill-rule="nonzero" stroke="#000000" stroke-width="0.5" stroke-linecap="butt" stroke-linejoin="miter"/><path d="M316.49784,181.833c0,-0.91586 0.90274,-6.47964 0.90274,-6.47964c0,0 0.90274,5.56378 0.90274,6.47964" fill="#804400" fill-rule="nonzero" stroke="#000000" stroke-width="0.5" stroke-linecap="butt" stroke-linejoin="miter"/><g fill-rule="nonzero" stroke="#000000" stroke-width="0.5" stroke-linejoin="miter"><path d="M328.35738,189.31184c0,0 -4.17629,-0.20806 -9.16967,-2.58517c-4.85785,-2.31259 -7.10295,-4.44532 -7.10295,-4.44532l9.36127,-15.70812c0,0 2.71965,-0.24998 6.70829,1.56114c3.87097,1.75769 5.37994,3.66151 5.37994,3.66151z" fill="#919191" stroke-linecap="butt"/><path d="M328.35738,189.31184c0,0 -4.17629,-0.20806 -9.16967,-2.58517c-4.85785,-2.31259 -7.10295,-4.44532 -7.10295,-4.44532l9.36127,-15.70812c0,0 3.75751,2.37077 5.75157,3.23229c2.03454,0.87901 6.33667,1.99036 6.33667,1.99036z" fill="#919191" stroke-linecap="butt"/><path d="M328.26692,189.16947c0,0 2.40887,4.03895 -3.18766,4.26469c-6.4119,0.25862 -13.05769,-11.14546 -13.05769,-11.14546" fill="none" stroke-linecap="round"/></g><g fill-rule="nonzero" stroke-linejoin="miter"><path d="M314.28952,180.92489l12.18824,-10.26466l1.76576,16.04708z" fill="#d5d5d5" stroke="none" stroke-width="NaN" stroke-linecap="butt"/><path d="M326.89754,185.33836l-10.91643,-4.41962l9.77882,-8.27936z" fill="#d5d5d5" stroke="#000000" stroke-width="0.5" stroke-linecap="round"/><path d="M324.6783,177.54422c-0.45436,1.09644 -1.1975,1.82996 -1.65985,1.63836c-0.46236,-0.1916 -0.46884,-1.23575 -0.01448,-2.33219c0.45436,-1.09644 1.1975,-1.82996 1.65985,-1.63836c0.46236,0.1916 0.46884,1.23575 0.01448,2.33219z" fill="#000000" stroke="none" stroke-width="0" stroke-linecap="butt"/><path d="M323.0562,181.1881c-0.1697,0.40951 -0.66066,0.59505 -1.09659,0.4144c-0.43593,-0.18065 -0.65176,-0.65907 -0.48206,-1.06859c0.1697,-0.40951 0.66066,-0.59505 1.0966,-0.4144c0.43593,0.18065 0.65176,0.65907 0.48206,1.06859z" fill="#000000" stroke="none" stroke-width="0" stroke-linecap="butt"/></g></g></g></svg>