<svg version="1.1" xmlns="http://www.w3.org/2000/svg" xmlns:xlink="http://www.w3.org/1999/xlink" width="812" height="127.86196" viewBox="0,0,812,127.86196"><defs><linearGradient x1="717.5" y1="330.00014" x2="-46.5" y2="330.00014" gradientUnits="userSpaceOnUse" id="color-1"><stop offset="0" stop-color="#ededa3"/><stop offset="1" stop-color="#ededa3"/></linearGradient><linearGradient x1="340.5" y1="316.00014" x2="340.5" y2="398.00016" gradientUnits="userSpaceOnUse" id="color-2"><stop offset="0" stop-color="#8f8f31" stop-opacity="0"/><stop offset="1" stop-color="#8f8f31"/></linearGradient></defs><g transform="translate(57.5,-270.1382)"><g data-paper-data="{&quot;isPaintingLayer&quot;:true}" stroke-miterlimit="10" stroke-dasharray="" stroke-dashoffset="0" style="mix-blend-mode: normal"><g fill-rule="nonzero" stroke="none" stroke-linecap="butt" stroke-linejoin="miter"><path d="M-45.3,377.00016v-92h764v92z" fill="#4b4b00" stroke-width="NaN"/><path d="M-46.5,371.00016v-82h764v82z" data-paper-data="{&quot;index&quot;:null}" fill="url(#color-1)" stroke-width="NaN"/><path d="M-41.5,398.00016v-82h764v82z" fill="url(#color-2)" stroke-width="NaN"/></g><path d="M-47.5,321.81771v-6.41667h802v6.41667z" fill="#4b4b00" fill-rule="nonzero" stroke="none" stroke-width="0" stroke-linecap="butt" stroke-linejoin="miter"/><path d="M-57.5,339.81772v-6.41667h802v6.41667z" fill="#4b4b00" fill-rule="nonzero" stroke="none" stroke-width="0" stroke-linecap="butt" stroke-linejoin="miter"/><path d="M495.49121,276.92931c1.73219,1.31567 1.2342,17.92207 0,19.55852c-1.50707,1.99825 -104.41697,1.0362 -106.79562,0c-1.44833,-0.63093 -2.01401,-18.45844 0,-19.55852c2.28529,-1.24826 103.23301,-2.70597 106.79562,0z" fill="#ededa3" fill-rule="nonzero" stroke="#4b4b00" stroke-width="2" stroke-linecap="butt" stroke-linejoin="miter"/><path d="M373.49121,276.92931c1.73219,1.31567 1.2342,17.92207 0,19.55852c-1.50707,1.99825 -104.41697,1.0362 -106.79562,0c-1.44833,-0.63093 -2.01401,-18.45844 0,-19.55852c2.28529,-1.24826 103.23301,-2.70597 106.79562,0z" fill="#ededa3" fill-rule="nonzero" stroke="#4b4b00" stroke-width="2" stroke-linecap="butt" stroke-linejoin="miter"/><path d="M617.99121,276.92931c1.73219,1.31567 1.2342,17.92207 0,19.55852c-1.50707,1.99825 -104.41697,1.0362 -106.79562,0c-1.44833,-0.63093 -2.01401,-18.45844 0,-19.55852c2.28529,-1.24826 103.23301,-2.70597 106.79562,0z" fill="#ededa3" fill-rule="nonzero" stroke="#4b4b00" stroke-width="2" stroke-linecap="butt" stroke-linejoin="miter"/><path d="M250.99121,276.92931c1.73219,1.31567 1.2342,17.92207 0,19.55852c-1.50707,1.99825 -104.41697,1.0362 -106.79562,0c-1.44833,-0.63093 -2.01401,-18.45844 0,-19.55852c2.28529,-1.24826 103.23301,-2.70597 106.79562,0z" fill="#ededa3" fill-rule="nonzero" stroke="#4b4b00" stroke-width="2" stroke-linecap="butt" stroke-linejoin="miter"/><path d="M128.49121,276.92931c1.73219,1.31567 1.2342,17.92207 0,19.55852c-1.50707,1.99825 -104.41697,1.0362 -106.79562,0c-1.44833,-0.63093 -2.01401,-18.45844 0,-19.55852c2.28529,-1.24826 103.23301,-2.70597 106.79562,0z" fill="#ededa3" fill-rule="nonzero" stroke="#4b4b00" stroke-width="2" stroke-linecap="butt" stroke-linejoin="miter"/><g fill-rule="evenodd" stroke="none" stroke-width="4.43922" stroke-linecap="round" stroke-linejoin="round"><path d="M426.33691,302.95725h31.12267c6.08447,0 10.98278,4.83681 10.98278,10.84486v30.73185c0,6.00805 -4.89831,10.84486 -10.98278,10.84486h-31.12267c-6.08446,0 -10.98278,-4.83681 -10.98278,-10.84486v-30.73185c0,-6.00805 4.89832,-10.84486 10.98278,-10.84486z" fill="#4b4b00"/><path d="M428.49875,305.96997h27.0025c5.27898,0 9.52882,4.24985 9.52882,9.52882v27.0025c0,5.27897 -4.24984,9.52882 -9.52882,9.52882h-27.0025c-5.27897,0 -9.52882,-4.24985 -9.52882,-9.52882v-27.0025c0,-5.27897 4.24985,-9.52882 9.52882,-9.52882z" fill="#a0a300"/><path d="M304.33691,302.95725h31.12267c6.08447,0 10.98278,4.83681 10.98278,10.84486v30.73185c0,6.00805 -4.89831,10.84486 -10.98278,10.84486h-31.12267c-6.08446,0 -10.98278,-4.83681 -10.98278,-10.84486v-30.73185c0,-6.00805 4.89832,-10.84486 10.98278,-10.84486z" fill="#4b4b00"/><path d="M306.49875,305.96997h27.0025c5.27898,0 9.52882,4.24985 9.52882,9.52882v27.0025c0,5.27897 -4.24984,9.52882 -9.52882,9.52882h-27.0025c-5.27897,0 -9.52882,-4.24985 -9.52882,-9.52882v-27.0025c0,-5.27897 4.24985,-9.52882 9.52882,-9.52882z" fill="#a0a300"/><path d="M181.83691,302.95725h31.12267c6.08447,0 10.98278,4.83681 10.98278,10.84486v30.73185c0,6.00805 -4.89831,10.84486 -10.98278,10.84486h-31.12267c-6.08446,0 -10.98278,-4.83681 -10.98278,-10.84486v-30.73185c0,-6.00805 4.89832,-10.84486 10.98278,-10.84486z" fill="#4b4b00"/><path d="M548.33691,302.95725h31.12267c6.08447,0 10.98278,4.83681 10.98278,10.84486v30.73185c0,6.00805 -4.89831,10.84486 -10.98278,10.84486h-31.12267c-6.08446,0 -10.98278,-4.83681 -10.98278,-10.84486v-30.73185c0,-6.00805 4.89832,-10.84486 10.98278,-10.84486z" fill="#4b4b00"/><path d="M550.49875,305.96997h27.0025c5.27898,0 9.52882,4.24985 9.52882,9.52882v27.0025c0,5.27897 -4.24984,9.52882 -9.52882,9.52882h-27.0025c-5.27897,0 -9.52882,-4.24985 -9.52882,-9.52882v-27.0025c0,-5.27897 4.24985,-9.52882 9.52882,-9.52882z" fill="#a0a300"/><path d="M183.99875,305.96997h27.0025c5.27898,0 9.52882,4.24985 9.52882,9.52882v27.0025c0,5.27897 -4.24984,9.52882 -9.52882,9.52882h-27.0025c-5.27897,0 -9.52882,-4.24985 -9.52882,-9.52882v-27.0025c0,-5.27897 4.24985,-9.52882 9.52882,-9.52882z" fill="#a0a300"/><path d="M59.33691,302.95725h31.12267c6.08447,0 10.98278,4.83681 10.98278,10.84486v30.73185c0,6.00805 -4.89831,10.84486 -10.98278,10.84486h-31.12267c-6.08446,0 -10.98278,-4.83681 -10.98278,-10.84486v-30.73185c0,-6.00805 4.89832,-10.84486 10.98278,-10.84486z" fill="#4b4b00"/><path d="M61.49875,305.96997h27.0025c5.27898,0 9.52882,4.24985 9.52882,9.52882v27.0025c0,5.27897 -4.24984,9.52882 -9.52882,9.52882h-27.0025c-5.27897,0 -9.52882,-4.24985 -9.52882,-9.52882v-27.0025c0,-5.27897 4.24985,-9.52882 9.52882,-9.52882z" fill="#a0a300"/></g><text transform="translate(539.19876,292.6646) scale(0.5,0.5)" font-size="40" xml:space="preserve" fill="#4b4b00" fill-rule="nonzero" stroke="none" stroke-width="1" stroke-linecap="butt" stroke-linejoin="miter" stroke-miterlimit="10" stroke-dasharray="" stroke-dashoffset="0" font-family="Sans Serif" font-weight="normal" text-anchor="start" style="mix-blend-mode: normal"><tspan x="0" dy="0">Black</tspan></text><text transform="translate(418.08075,292.6646) scale(0.5,0.5)" font-size="40" xml:space="preserve" fill="#4b4b00" fill-rule="nonzero" stroke="none" stroke-width="1" stroke-linecap="butt" stroke-linejoin="miter" stroke-miterlimit="10" stroke-dasharray="" stroke-dashoffset="0" font-family="Sans Serif" font-weight="normal" text-anchor="start" style="mix-blend-mode: normal"><tspan x="0" dy="0">Pinki</tspan></text><text transform="translate(295.40994,291.8882) scale(0.5,0.5)" font-size="40" xml:space="preserve" fill="#4b4b00" fill-rule="nonzero" stroke="none" stroke-width="1" stroke-linecap="butt" stroke-linejoin="miter" stroke-miterlimit="10" stroke-dasharray="" stroke-dashoffset="0" font-family="Sans Serif" font-weight="normal" text-anchor="start" style="mix-blend-mode: normal"><tspan x="0" dy="0">Jevin</tspan></text><text transform="translate(162.64596,293.44099) scale(0.5,0.5)" font-size="40" xml:space="preserve" fill="#4b4b00" fill-rule="nonzero" stroke="none" stroke-width="1" stroke-linecap="butt" stroke-linejoin="miter" stroke-miterlimit="10" stroke-dasharray="" stroke-dashoffset="0" font-family="Sans Serif" font-weight="normal" text-anchor="start" style="mix-blend-mode: normal"><tspan x="0" dy="0">Wenda</tspan></text><text transform="translate(24.4472,288.47209) scale(0.29322,0.32503)" font-size="40" xml:space="preserve" fill="#4b4b00" fill-rule="nonzero" stroke="none" stroke-width="1" stroke-linecap="butt" stroke-linejoin="miter" stroke-miterlimit="10" stroke-dasharray="" stroke-dashoffset="0" font-family="Sans Serif" font-weight="normal" text-anchor="start" style="mix-blend-mode: normal"><tspan x="0" dy="0">Mr. Fun computer</tspan></text><path d="M61.46256,306.10376h26.86966c5.25301,0 9.48195,4.22895 9.48195,9.48195v26.86966c0,5.253 -4.22894,9.48195 -9.48195,9.48195h-26.86966c-5.253,0 -9.48195,-4.22895 -9.48195,-9.48195v-26.86966c0,-5.253 4.22895,-9.48195 9.48195,-9.48195z" fill="#a0a300" fill-rule="evenodd" stroke="none" stroke-width="4.43922" stroke-linecap="round" stroke-linejoin="round"/><g stroke="#000000" stroke-width="0.5"><path d="M72.12652,345.22377v-12.78109h5.54172v12.78109z" fill="#a0a300" fill-rule="nonzero" stroke-linecap="butt" stroke-linejoin="miter"/><path d="M60.28206,348.56051l2.31915,-4.44899h23.9113l2.23919,4.44899z" fill="#a0a300" fill-rule="nonzero" stroke-linecap="butt" stroke-linejoin="miter"/><path d="M91.60557,315.76793v17.81704c0,3.48321 -2.80418,6.2874 -6.2874,6.2874h-20.84157c-3.48322,0 -6.2874,-2.80418 -6.2874,-6.2874v-17.81704c0,-3.48321 2.80418,-6.2874 6.2874,-6.2874h20.84157c3.48321,0 6.2874,2.80418 6.2874,6.2874z" fill="#a0a300" fill-rule="evenodd" stroke-linecap="round" stroke-linejoin="round"/><path d="M88.48345,317.43258v14.48773c0,2.83234 -2.28019,5.11253 -5.11253,5.11253h-16.94711c-2.83234,0 -5.11253,-2.28019 -5.11253,-5.11253v-14.48773c0,-2.83234 2.28018,-5.11253 5.11253,-5.11253h16.94711c2.83234,0 5.11253,2.28019 5.11253,5.11253z" fill="#000000" fill-rule="evenodd" stroke-linecap="round" stroke-linejoin="round"/></g><path d="M184.17871,305.87055h27.00638c5.27974,0 9.53019,4.25047 9.53019,9.53019v27.00638c0,5.27973 -4.25046,9.53019 -9.53019,9.53019h-27.00638c-5.27973,0 -9.53019,-4.25047 -9.53019,-9.53019v-27.00638c0,-5.27973 4.25047,-9.53019 9.53019,-9.53019z" fill="#dfe15b" fill-rule="evenodd" stroke="none" stroke-width="4.43922" stroke-linecap="round" stroke-linejoin="round"/><path d="M181.75165,342.66135l-2.91986,-27.51487l15.77785,13.76156c0,0 2.01013,-0.29956 3.02646,-0.29956c1.03159,0 3.11799,0.29956 3.11799,0.29956l15.77785,-13.76156l-2.91986,27.51487" fill="none" fill-rule="nonzero" stroke="#000000" stroke-width="0.5" stroke-linecap="round" stroke-linejoin="miter"/><path d="M306.56044,306.33235h26.86965c5.25301,0 9.48195,4.22895 9.48195,9.48195v26.86966c0,5.253 -4.22895,9.48195 -9.48195,9.48195h-26.86965c-5.253,0 -9.48196,-4.22895 -9.48196,-9.48195v-26.86966c0,-5.253 4.22896,-9.48195 9.48196,-9.48195z" fill="#a0a300" fill-rule="evenodd" stroke="none" stroke-width="4.43922" stroke-linecap="round" stroke-linejoin="round"/><path d="M313.87406,350.22031l1.69162,-17.79425l9.19929,-0.04645l1.54774,17.95568l-6.23714,-2.45372z" fill="#d9db56" fill-rule="nonzero" stroke="#000000" stroke-width="0.5" stroke-linecap="butt" stroke-linejoin="miter"/><path d="M335.88674,325.45608c0,9.1984 -6.97197,16.65518 -15.57233,16.65518c-8.60037,0 -15.57233,-7.45678 -15.57233,-16.65518c0,-9.1984 6.97197,-16.65518 15.57233,-16.65518c8.60037,0 15.57233,7.45678 15.57233,16.65518z" fill="#d9db56" fill-rule="nonzero" stroke="#000000" stroke-width="0.5" stroke-linecap="butt" stroke-linejoin="miter"/><path d="M334.45096,326.51707c0,7.85044 -6.28125,14.21449 -14.02957,14.21449c-7.74832,0 -14.02957,-6.36405 -14.02957,-14.21449c0,-7.85044 6.28125,-14.21449 14.02957,-14.21449c7.74832,0 14.02957,6.36405 14.02957,14.21449z" fill="#000000" fill-rule="nonzero" stroke="none" stroke-width="0" stroke-linecap="butt" stroke-linejoin="miter"/><path d="M428.90338,306.57018h26.59623c5.19955,0 9.38546,4.18592 9.38546,9.38546v26.59623c0,5.19954 -4.1859,9.38546 -9.38546,9.38546h-26.59623c-5.19954,0 -9.38546,-4.18592 -9.38546,-9.38546v-26.59623c0,-5.19954 4.18592,-9.38546 9.38546,-9.38546z" fill="#bfc20d" fill-rule="evenodd" stroke="none" stroke-width="4.43922" stroke-linecap="round" stroke-linejoin="round"/><path d="M426.56667,344.16312c0,0 -8.19931,-28.7546 0.72626,-29.783c9.11621,-1.05037 8.40722,21.37313 8.40722,21.37313c0,0 2.77114,-1.49351 6.61657,-1.49351c4.13892,0 6.38608,1.49351 6.38608,1.49351c0,0 -0.70899,-22.42351 8.40722,-21.37313c8.92557,1.0284 0.72626,29.783 0.72626,29.783" fill="none" fill-rule="nonzero" stroke="#000000" stroke-width="0.5" stroke-linecap="round" stroke-linejoin="miter"/><g fill="#bfc20d" fill-rule="nonzero" stroke="#000000" stroke-width="0.5" stroke-linecap="butt" stroke-linejoin="miter"><path d="M433.70292,336.65644c-0.93684,-2.09249 0.88534,-2.69313 0.88534,-2.69313c0,0 -1.42074,-0.64256 -1.03375,-2.63149c0.49732,-2.55601 7.17309,1.68146 7.17309,1.68146l-0.04947,2.24194c0,0 -6.11429,3.32416 -6.97522,1.40121z"/><path d="M443.72483,335.25522l-0.04947,-2.24194c0,0 6.67577,-4.23747 7.17309,-1.68146c0.38699,1.98892 -1.03375,2.63149 -1.03375,2.63149c0,0 1.82218,0.60065 0.88534,2.69313c-0.86093,1.92294 -6.97522,-1.40121 -6.97522,-1.40121z" data-paper-data="{&quot;index&quot;:null}"/><path d="M439.8619,334.06086c0,-1.27044 1.0299,-2.30033 2.30033,-2.30033c1.27044,0 2.30033,1.0299 2.30033,2.30033c0,1.27044 -1.0299,2.30033 -2.30033,2.30033c-1.27044,0 -2.30033,-1.0299 -2.30033,-2.30033z"/></g><path d="M549.94687,305.63735h27.27981c5.3332,0 9.62669,4.2935 9.62669,9.62669v27.27981c0,5.33318 -4.29349,9.62669 -9.62669,9.62669h-27.27981c-5.33318,0 -9.62669,-4.2935 -9.62669,-9.62669v-27.27981c0,-5.33318 4.2935,-9.62669 9.62669,-9.62669z" fill="#000000" fill-rule="evenodd" stroke="none" stroke-width="4.43922" stroke-linecap="round" stroke-linejoin="round"/><g fill="#000000" fill-rule="nonzero" stroke="#ffffff" stroke-width="0.5" stroke-linecap="butt" stroke-linejoin="miter"><path d="M585.41184,335.38322c0,2.9295 -9.72915,5.30434 -21.73067,5.30434c-12.00151,0 -21.73068,-2.37484 -21.73068,-5.30434c0,-2.9295 9.72915,-5.30434 21.73068,-5.30434c12.00151,0 21.73067,2.37483 21.73067,5.30434z"/><path d="M550.16367,335.28709v-13.60109c0,0 3.11378,-2.95371 13.89302,-3.15739c10.89545,-0.20589 13.14198,3.15739 13.14198,3.15739v13.60109c0,0 -2.86821,1.53669 -13.22753,1.29535c-9.25778,-0.21568 -13.80747,-1.29535 -13.80747,-1.29535z"/></g></g></g></svg>