<svg version="1.1" xmlns="http://www.w3.org/2000/svg" xmlns:xlink="http://www.w3.org/1999/xlink" width="153.06048" height="292.34102" viewBox="0,0,153.06048,292.34102"><g transform="translate(-253.52636,-16.15898)"><g data-paper-data="{&quot;isPaintingLayer&quot;:true}" fill-rule="nonzero" stroke-linejoin="miter" stroke-miterlimit="10" stroke-dasharray="" stroke-dashoffset="0" style="mix-blend-mode: normal"><path d="M285.90287,307.49999l11.23626,-90.17722l43.64314,-3.40793l11.62059,93.58516z" fill="#9b9d30" stroke="#000000" stroke-width="2" stroke-linecap="butt"/><path d="M289.57669,250.088l10.15487,-49.81105l40.04359,3.03031l10.10835,47.33816l-30.23979,-11.89646z" fill="#747524" stroke="#000000" stroke-width="2" stroke-linecap="butt"/><path d="M405.37074,133.97921c-3.12734,44.48721 -39.38184,78.18083 -80.97669,75.25682c-41.59485,-2.92401 -72.77893,-41.35841 -69.65159,-85.84561c3.12734,-44.4872 39.38184,-78.18083 80.97669,-75.25682c41.59485,2.92401 72.77893,41.35841 69.65159,85.84561z" fill="#747524" stroke="#000000" stroke-width="2" stroke-linecap="butt"/><path d="M396.70345,138.52673c-2.66905,37.96792 -35.21142,66.61147 -72.68542,63.97714c-37.47399,-2.63433 -65.68899,-35.54896 -63.01994,-73.51689c2.66905,-37.96792 35.21142,-66.61147 72.68542,-63.97714c37.47399,2.63433 65.68899,35.54896 63.01994,73.51689z" fill="#000000" stroke="none" stroke-width="0" stroke-linecap="butt"/><path d="M264.7309,130.93302c2.33527,-33.21987 32.91749,-58.13312 68.30727,-55.64531c35.38978,2.48781 62.18577,31.43462 59.8505,64.65448c-2.33527,33.21987 -32.91749,58.13312 -68.30727,55.64531c-35.38978,-2.48781 -62.18577,-31.43462 -59.8505,-64.65448z" fill="#ffff70" stroke="#000000" stroke-width="2" stroke-linecap="butt"/><path d="M265.44841,131.03744c0.05105,-0.7262 1.27253,56.14684 59.212,61.23725c55.35874,4.86367 67.42116,-53.35662 67.34971,-52.34028c-2.30042,32.72403 -32.49709,57.26045 -67.44613,54.80362c-34.94904,-2.45683 -61.416,-30.97656 -59.11558,-63.70059z" fill="#6c6d22" stroke="#000000" stroke-width="0" stroke-linecap="butt"/><path d="M263.44075,145.82413c0,0 -3.03872,-81.39767 72.16057,-74.62348c77.23193,6.95728 55.0821,86.32511 55.0821,86.32511c0,0 -25.46365,10.93204 -63.78742,8.57657c-34.33137,-2.11009 -63.45525,-20.27819 -63.45525,-20.27819z" fill-opacity="0.20144" fill="#000000" stroke="none" stroke-width="0" stroke-linecap="butt"/><path d="M278.21764,132.31164c0.90937,-12.93608 12.13334,-22.68565 25.06941,-21.77628c12.93608,0.90937 22.68565,12.13334 21.77628,25.06941c-0.90937,12.93608 -12.13334,22.68565 -25.06941,21.77628c-12.93608,-0.90937 -22.68565,-12.13334 -21.77628,-25.06941z" fill="#ffffff" stroke="#000000" stroke-width="2" stroke-linecap="butt"/><path d="M281.37838,127.32334c0.6401,-9.10561 8.54055,-15.96825 17.64615,-15.32815c9.10561,0.6401 15.96825,8.54056 15.32815,17.64616c-0.6401,9.10561 -8.54056,15.96825 -17.64616,15.32815c-9.10561,-0.6401 -15.96824,-8.54056 -15.32814,-17.64616z" fill="#000000" stroke="none" stroke-width="0" stroke-linecap="butt"/><path d="M323.18573,173.61732l7.52798,12.24257c0,0 -7.88758,-0.05527 -12.15595,-0.35532c-4.0716,-0.28622 -12.89183,-1.40547 -12.89183,-1.40547z" data-paper-data="{&quot;index&quot;:null}" fill="#000000" stroke="#000000" stroke-width="2" stroke-linecap="round"/><path d="M354.11878,161.18588c-12.93608,-0.90937 -22.68565,-12.13334 -21.77628,-25.06941c0.90937,-12.93608 12.13334,-22.68565 25.06941,-21.77628c12.93608,0.90937 22.68565,12.13334 21.77628,25.06941c-0.90937,12.93608 -12.13334,22.68565 -25.06941,21.77628z" data-paper-data="{&quot;index&quot;:null}" fill="#ffffff" stroke="#000000" stroke-width="2" stroke-linecap="butt"/><path d="M358.41998,159.82725c-9.1056,-0.6401 -15.96824,-8.54056 -15.32814,-17.64616c0.6401,-9.10561 8.54056,-15.96825 17.64615,-15.32815c9.1056,0.6401 15.96824,8.54056 15.32814,17.64616c-0.6401,9.10561 -8.54056,15.96825 -17.64615,15.32815z" data-paper-data="{&quot;index&quot;:null}" fill="#000000" stroke="none" stroke-width="0" stroke-linecap="butt"/><path d="M292.58744,101.9846c0,0 7.84198,-3.19909 13.06463,-2.99738c5.22266,0.20172 11.70408,3.95403 11.70408,3.95403c0,0 -7.73269,-2.19557 -11.76598,-2.35134c-4.21494,-0.16279 -13.00274,1.39469 -13.00274,1.39469z" fill="#000000" stroke="none" stroke-width="0" stroke-linecap="butt"/><path d="M356.61637,104.1945c-4.02935,-0.2367 -11.93873,1.19743 -11.93873,1.19743c0,0 6.81523,-3.10505 12.03279,-2.79856c5.21755,0.30649 12.71173,4.25213 12.71173,4.25213c0,0 -8.59497,-2.40365 -12.80579,-2.65102z" data-paper-data="{&quot;index&quot;:null}" fill="#000000" stroke="none" stroke-width="0" stroke-linecap="butt"/><g stroke="#000000" stroke-width="2" stroke-linecap="butt"><path d="M272.83885,69.68085l11.89024,-46.81925c0,0 26.63518,-6.18072 39.13287,-6.70262c13.70979,-0.57253 39.82671,3.40528 39.82671,3.40528l15.98348,44.81454c0,0 -34.14232,6.16934 -52.1271,7.06192c-17.6188,0.8744 -54.70619,-1.75986 -54.70619,-1.75986z" fill="#ffffff"/><path d="M273.20891,69.6036l1.72788,-6.81435c0,0 34.33945,2.53738 51.67417,1.81619c16.87418,-0.70204 50.98972,-6.08746 50.98972,-6.08746l2.20663,5.87185c0,0 -35.87313,7.70588 -53.67696,8.37777c-17.47347,0.65941 -52.92148,-3.16396 -52.92148,-3.16396z" fill="#9b9d30"/><path d="M323.72698,40.33181c0,0 10.71803,-5.40574 17.17904,-7.70928c7.17938,-2.55965 23.96971,-6.96138 23.96971,-6.96138l2.19521,6.62641c0,0 -19.04271,4.9442 -25.84456,7.52686c-5.10289,1.93755 -11.35471,6.59773 -11.35471,6.59773z" fill="#9b9d30"/><path d="M334.09735,62.95762c0,0 0.12338,-8.09037 -11.9198,-15.22757c-16.30953,-9.66555 -39.53633,-12.22811 -39.53633,-12.22811l2.12432,-6.82931c0,0 22.02928,0.90759 40.83295,12.41574c14.20652,8.69459 16.42775,21.57003 16.42775,21.57003z" fill="#9b9d30"/></g></g></g></svg>