<svg version="1.1" xmlns="http://www.w3.org/2000/svg" xmlns:xlink="http://www.w3.org/1999/xlink" width="176.26078" height="294.87614" viewBox="0,0,176.26078,294.87614"><defs><linearGradient x1="254.53921" y1="73.99671" x2="276.31945" y2="118.37986" gradientUnits="userSpaceOnUse" id="color-1"><stop offset="0" stop-color="#ecec68"/><stop offset="1" stop-color="#292912"/></linearGradient></defs><g transform="translate(-223.61024,-34.98203)"><g data-paper-data="{&quot;isPaintingLayer&quot;:true}" fill-rule="nonzero" stroke-linejoin="miter" stroke-miterlimit="10" stroke-dasharray="" stroke-dashoffset="0" style="mix-blend-mode: normal"><path d="M361.75517,245.15347c-12.97077,0.40214 -24.87646,-120.27644 -24.87646,-120.27644l12.35875,-3.30623c0,0 25.10279,123.1925 12.51772,123.58266z" data-paper-data="{&quot;index&quot;:null}" fill="#60602a" stroke="#000000" stroke-width="2" stroke-linecap="butt"/><path d="M369.61472,232.75254c-12.97077,0.40214 -22.3171,-107.83078 -22.3171,-107.83078l12.35874,-3.30623c0,0 22.54344,110.74684 9.95837,111.13702z" data-paper-data="{&quot;index&quot;:null}" fill="#60602a" stroke="#000000" stroke-width="2" stroke-linecap="butt"/><path d="M280.54067,110.31638l12.7922,0.17064c0,0 20.31528,137.76948 7.64281,140.56433c-12.29564,2.71173 -20.43501,-140.73495 -20.43501,-140.73495z" fill="#60602a" stroke="#000000" stroke-width="2" stroke-linecap="butt"/><path d="M291.24538,242.9639c-12.97672,-0.08514 -17.56781,-104.32723 -17.56781,-104.32723l12.47416,-2.83988c0,0 17.6845,107.24973 5.09366,107.16712z" data-paper-data="{&quot;index&quot;:null}" fill="#60602a" stroke="#000000" stroke-width="2" stroke-linecap="butt"/><path d="M289.5041,328.85816l15.14285,-131.8421l37.78325,-0.15789l13.57389,132z" fill="#bebe54" stroke="#000000" stroke-width="2" stroke-linecap="butt"/><path d="M274.34875,234.23692c-12.01547,-0.53429 -11.29666,-97.11816 -11.29666,-97.11816l12.57275,-2.36549c0,0 11.30261,100.04298 -1.27609,99.48365z" data-paper-data="{&quot;index&quot;:null}" fill="#60602a" stroke="#000000" stroke-width="2" stroke-linecap="butt"/><path d="M381.56581,218.22118c-12.9165,1.25172 -28.63823,-76.19398 -28.63823,-76.19398l12.11537,-4.10944c0,0 29.05528,79.08893 16.52286,80.30342z" data-paper-data="{&quot;index&quot;:null}" fill="#60602a" stroke="#000000" stroke-width="2" stroke-linecap="butt"/><path d="M302.45432,225.47079l3.12142,-26.32765l35.83075,-0.14203l2.76735,26.1059c0,0 -7.51543,4.19603 -21.55904,4.50964c-12.48458,0.27879 -20.16049,-4.14586 -20.16049,-4.14586z" fill="#a0a047" stroke="#000000" stroke-width="0" stroke-linecap="butt"/><path d="M382.69973,195.44517c-7.15404,-1.10842 1.05127,-14.84319 -4.24704,-26.71828c-4.54498,-10.18664 1.25115,-15.59705 5.79666,-5.41065c4.24745,9.51848 6.52699,33.38028 -1.54962,32.12893z" data-paper-data="{&quot;index&quot;:null}" fill="#60602a" stroke="#000000" stroke-width="2" stroke-linecap="butt"/><path d="M256.04193,170.64729c-4.11988,-33.04603 21.07927,-63.3931 56.28385,-67.78209c35.20459,-4.38899 67.08337,18.84213 71.20325,51.88815c4.11988,33.04603 -21.07927,63.3931 -56.28385,67.78209c-35.20459,4.38899 -67.08337,-18.84213 -71.20325,-51.88815z" fill="#bebe54" stroke="#000000" stroke-width="2" stroke-linecap="butt"/><path d="M269.54119,169.39711c-1.60431,-12.86838 7.52703,-24.60083 20.39541,-26.20514c12.86838,-1.60431 24.60083,7.52703 26.20514,20.39541c1.60431,12.86838 -7.52703,24.60083 -20.39541,26.20514c-12.86838,1.60431 -24.60083,-7.52703 -26.20514,-20.39541z" fill="#ffffff" stroke="#000000" stroke-width="2" stroke-linecap="butt"/><path d="M274.42147,175.73394c-1.12926,-9.05796 5.2982,-17.31632 14.35615,-18.44558c9.05796,-1.12926 17.31632,5.29821 18.44559,14.35616c1.12926,9.05796 -5.29821,17.31632 -14.35616,18.44559c-9.05796,1.12926 -17.31631,-5.29821 -18.44558,-14.35616z" fill="#000000" stroke="none" stroke-width="0" stroke-linecap="butt"/><path d="M349.83601,183.0491c-12.86838,1.60431 -24.60083,-7.52703 -26.20514,-20.39541c-1.60431,-12.86838 7.52703,-24.60083 20.39541,-26.20514c12.86838,-1.60431 24.60083,7.52703 26.20514,20.39541c1.60431,12.86838 -7.52703,24.60083 -20.39541,26.20514z" data-paper-data="{&quot;index&quot;:null}" fill="#ffffff" stroke="#000000" stroke-width="2" stroke-linecap="butt"/><path d="M348.18174,183.53413c-9.05795,1.12926 -17.31631,-5.29821 -18.44558,-14.35616c-1.12926,-9.05796 5.29821,-17.31632 14.35615,-18.44558c9.05795,-1.12926 17.31631,5.29821 18.44558,14.35616c1.12926,9.05796 -5.29821,17.31632 -14.35615,18.44558z" data-paper-data="{&quot;index&quot;:null}" fill="#000000" stroke="none" stroke-width="0" stroke-linecap="butt"/><path d="M269.45849,169.40742c-1.60431,-12.86838 7.52703,-24.60083 20.39541,-26.20514c12.86838,-1.60431 24.60083,7.52703 26.20514,20.39541c0,0 -46.44819,7.03182 -46.60055,5.80973z" fill="#ecec68" stroke="#000000" stroke-width="2" stroke-linecap="butt"/><path d="M323.38281,162.68462c-1.60431,-12.86838 7.52703,-24.60083 20.39541,-26.20514c12.86838,-1.60431 24.60083,7.52703 26.20514,20.39541c0.15016,1.20448 -46.60055,5.80973 -46.60055,5.80973z" data-paper-data="{&quot;index&quot;:null}" fill="#ecec68" stroke="#000000" stroke-width="2" stroke-linecap="butt"/><path d="M278.51779,139.2465c0,0 6.01791,-5.9595 10.91933,-7.77414c4.90143,-1.81464 12.3259,-0.8319 12.3259,-0.8319c0,0 -7.98383,0.9346 -11.76904,2.336c-3.95569,1.46451 -11.47619,6.27003 -11.47619,6.27003z" fill="#000000" stroke="none" stroke-width="0" stroke-linecap="butt"/><path d="M256.76609,170.61124c-0.09006,-0.7224 12.08463,54.84569 69.91725,48.6584c55.25665,-5.91169 55.8561,-65.36541 55.98215,-64.35439c4.05839,32.55278 -20.83519,62.4557 -55.60134,66.79003c-34.76615,4.33433 -66.23967,-18.54125 -70.29806,-51.09403z" fill="#a0a047" stroke="#000000" stroke-width="0" stroke-linecap="butt"/><path d="M341.36706,126.57176c-4.01342,-0.42913 -11.98233,0.62511 -11.98233,0.62511c0,0 6.95592,-2.77556 12.15286,-2.21989c5.19693,0.55567 12.49384,4.85519 12.49384,4.85519c0,0 -8.47018,-2.81195 -12.66436,-3.26041z" data-paper-data="{&quot;index&quot;:null}" fill="#000000" stroke="none" stroke-width="0" stroke-linecap="butt"/><path d="M252.68128,170.93068c8.01441,-7.75846 11.37655,-0.57767 3.36254,7.18121c-9.34234,9.04491 -6.84702,24.84823 -13.89875,23.21053c-7.9611,-1.84889 3.04731,-23.14202 10.53621,-30.39174z" data-paper-data="{&quot;index&quot;:null}" fill="#60602a" stroke="#000000" stroke-width="2" stroke-linecap="butt"/><path d="M269.45322,169.10582l-3.894,-2.13466" fill="none" stroke="#000000" stroke-width="2" stroke-linecap="round"/><path d="M258.8042,121.16296c15.02687,-19.00556 41.6188,-31.27979 47.94462,-22.71816c4.99941,6.7664 -20.14616,5.47988 -39.80594,33.25497c-16.74204,23.65294 -9.80427,54.02736 -23.14741,52.24757c-13.17676,-1.75759 4.86894,-49.95984 15.00873,-62.78437z" fill="#b1b14e" stroke="#000000" stroke-width="2" stroke-linecap="butt"/><path d="M261.50874,129.521c12.61798,-20.68344 37.53022,-36.08368 44.84507,-28.34996c5.78106,6.11209 -19.33551,7.8762 -35.49178,37.82511c-13.75849,25.50415 -3.19806,54.81652 -16.65852,54.66356c-13.29261,-0.15106 -1.2091,-50.18198 7.30522,-64.13871z" fill="#ecec68" stroke="#000000" stroke-width="2" stroke-linecap="butt"/><path d="M325.58525,96.13406c0.18685,2.91915 -6.56923,5.57159 -15.09013,5.92439c-8.5209,0.3528 -15.57994,-1.72764 -15.76679,-4.64679c-0.18685,-2.91915 6.56923,-5.57159 15.09013,-5.92439c8.5209,-0.3528 15.57994,1.72764 15.76679,4.64679z" fill="#ecec68" stroke="#000000" stroke-width="2" stroke-linecap="butt"/><path d="M395.79591,169.42016c-12.59537,4.75014 -12.7038,-26.40634 -34.35953,-45.66217c-25.42981,-22.61165 -49.63357,-15.67391 -46.29325,-23.39533c4.22658,-9.77003 32.90488,-3.82507 51.83924,11.29142c12.77647,10.20027 41.25187,53.07516 28.81355,57.76607z" data-paper-data="{&quot;index&quot;:null}" fill="#60602a" stroke="#000000" stroke-width="2" stroke-linecap="butt"/><path d="M373.20124,152.54359l-3.74711,3.89348" fill="none" stroke="#000000" stroke-width="2" stroke-linecap="round"/><path d="M303.51106,205.01529c0,0 6.5194,-2.54883 15.91662,-2.5c9.39722,0.04883 16.19298,2.25 16.19298,2.25" data-paper-data="{&quot;index&quot;:null}" fill="none" stroke="#000000" stroke-width="2" stroke-linecap="round"/><path d="M392.50167,179.94931c-13.10476,3.07776 -9.17448,-27.83004 -28.15208,-49.72999c-22.28495,-25.71659 -47.1837,-21.9741 -42.87086,-29.1975c5.45711,-9.13988 33.1231,0.47157 49.93871,17.91443c11.3468,11.77005 34.02558,57.9737 21.08423,61.01307z" data-paper-data="{&quot;index&quot;:null}" fill="#b1b14e" stroke="#000000" stroke-width="2" stroke-linecap="butt"/><path d="M268.70928,157.80213c5.76678,-9.54824 10.85159,-3.46446 5.08532,6.08408c-6.72205,11.13122 -0.2728,25.77289 -7.50892,25.99077c-8.16928,0.24598 -2.96504,-23.15269 2.42361,-32.07484z" data-paper-data="{&quot;index&quot;:null}" fill="#b1b14e" stroke="#000000" stroke-width="2" stroke-linecap="butt"/><path d="M259.0651,157.40375c8.84828,-15.6631 17.08729,-28.46146 21.53449,-37.05706c5.57307,-10.77169 11.0069,-26.45661 18.43396,-24.12954c7.75583,2.43009 2.16835,20.5317 -3.58808,31.65781c-4.42847,8.55939 -18.4945,24.17748 -27.3016,39.76956c-11.03771,19.54116 0.82396,44.47694 -11.6488,45.2163c-14.08123,0.83471 -6.27824,-39.79397 2.57005,-55.45707z" fill="#ecec68" stroke="#000000" stroke-width="2" stroke-linecap="butt"/><g stroke="#000000" stroke-width="2" stroke-linecap="butt"><path d="M262.31915,179.27908c-0.26873,-2.15549 1.05291,-2.90944 2.77247,-3.12382c1.71956,-0.21438 3.18585,0.19199 3.45457,2.34749c0.26873,2.15549 -0.76188,5.24387 -2.48143,5.45825c-1.71956,0.21438 -3.47689,-2.52642 -3.74562,-4.68191z" fill="#ecec68"/><path d="M270.3899,193.29128c0.26873,2.15549 -1.05291,2.90944 -2.77246,3.12382c-1.71956,0.21438 -3.18586,-0.19199 -3.45458,-2.34749c-0.26873,-2.15549 0.76188,-5.24387 2.48144,-5.45825c1.71956,-0.21438 3.47688,2.52642 3.74561,4.68192z" fill="#ecec68"/><path d="M259.34843,190.32056c-2.15549,0.26873 -2.90944,-1.05291 -3.12382,-2.77247c-0.21438,-1.71956 0.19199,-3.18586 2.34749,-3.45458c2.15549,-0.26873 5.24387,0.76188 5.45825,2.48144c0.21438,1.71956 -2.52642,3.47689 -4.68191,3.74562z" fill="#ecec68"/><path d="M273.36061,182.24981c2.15549,-0.26873 2.90944,1.05291 3.12382,2.77247c0.21438,1.71956 -0.19199,3.18586 -2.34749,3.45458c-2.15549,0.26873 -5.24387,-0.76188 -5.45825,-2.48144c-0.21438,-1.71956 2.52642,-3.47689 4.68191,-3.74562z" fill="#ff80ee"/><path d="M258.54703,184.18457c-1.71419,-1.33415 -1.31277,-2.80181 -0.24845,-4.1693c1.06432,-1.3675 2.3885,-2.11698 4.10268,-0.78283c1.71419,1.33415 3.16925,4.24671 2.10492,5.6142c-1.06432,1.3675 -4.24497,0.67208 -5.95916,-0.66206z" fill="#ecec68"/><path d="M274.16202,188.3858c1.71419,1.33415 1.31277,2.80181 0.24845,4.1693c-1.06432,1.3675 -2.3885,2.11698 -4.10268,0.78283c-1.71419,-1.33415 -3.16925,-4.24671 -2.10492,-5.6142c1.06432,-1.3675 4.24497,-0.67208 5.95916,0.66206z" fill="#ff80ee"/><path d="M264.25391,194.09268c-1.33415,1.71419 -2.80181,1.31277 -4.1693,0.24845c-1.3675,-1.06432 -2.11698,-2.3885 -0.78283,-4.10268c1.33415,-1.71419 4.24671,-3.16925 5.6142,-2.10492c1.3675,1.06432 0.67208,4.24497 -0.66206,5.95916z" fill="#ecec68"/><path d="M268.45514,178.47769c1.33415,-1.71419 2.80181,-1.31277 4.1693,-0.24845c1.3675,1.06432 2.11698,2.3885 0.78283,4.10268c-1.33415,1.71419 -4.24671,3.16925 -5.6142,2.10492c-1.3675,-1.06432 -0.67208,-4.24497 0.66206,-5.95916z" fill="#ecec68"/><path d="M262.22146,186.71139c-0.28383,-2.2766 1.33162,-4.35221 3.60822,-4.63604c2.2766,-0.28383 4.35221,1.33163 4.63604,3.60822c0.28383,2.2766 -1.33163,4.35221 -3.60822,4.63604c-2.2766,0.28383 -4.35221,-1.33162 -4.63604,-3.60822z" fill="#b1b14e"/></g><path d="M332.62146,111.26921c0,0 19.87145,-13.73013 19.21833,-23.8739c-0.37329,-5.79745 -10.14646,-14.243 -11.95975,-24.34255c-2.38994,-13.31128 10.00686,-25.17591 10.00686,-25.17591c0,0 -2.05455,10.62339 -0.13283,23.01579c1.53146,9.87575 9.76869,12.47916 13.50533,25.19946c3.65952,12.45773 -6.98018,34.33908 -6.98018,34.33908c0,0 -3.48138,4.42124 -14.22961,0.22716c-9.77419,-3.814 -9.42815,-9.38911 -9.42815,-9.38911z" fill="#60602a" stroke="#000000" stroke-width="2" stroke-linecap="butt"/><path d="M272.63972,167.42763c5.09359,-17.25341 15.78887,-32.90186 18.18607,-42.27819c3.00408,-11.75007 4.76603,-28.25578 12.52636,-27.66109c8.10387,0.62101 6.73647,19.51595 3.63354,31.65263c-2.3871,9.33683 -15.94319,24.3406 -21.01266,41.51554c-6.35342,21.52492 5.26902,44.47225 -8.83351,44.16201c-11.08428,-0.24383 -9.59339,-30.1375 -4.4998,-47.3909z" fill="#b1b14e" stroke="#000000" stroke-width="2" stroke-linecap="butt"/><path d="M321.41779,141.21488c-7.20809,-0.67264 0.14943,-14.87963 -5.85909,-26.41165c-5.15421,-9.89235 0.30324,-15.64421 5.45796,-5.75213c4.81672,9.24345 8.53874,32.92316 0.40113,32.16378z" data-paper-data="{&quot;index&quot;:null}" fill="#b1b14e" stroke="#000000" stroke-width="2" stroke-linecap="butt"/><path d="M385.66301,152.2218c-11.57686,8.05046 -11.02687,-11.62208 -24.82647,-20.44298c-11.01083,-7.03829 -28.20212,-8.09175 -33.88197,-12.12386c-7.38307,-5.24122 -18.55887,-16.42662 -12.08177,-21.30712c6.20252,-4.67361 16.75896,4.9188 23.90687,9.99307c5.70388,4.04916 20.77719,7.06998 31.83916,14.13989c11.06196,7.0699 24.14337,23.41353 15.04421,29.74101z" data-paper-data="{&quot;index&quot;:null}" fill="#ecec68" stroke="#000000" stroke-width="2" stroke-linecap="butt"/><path d="M285.71282,149.37303c4.06957,-12.48154 13.8085,-24.37623 15.65087,-31.12424c2.3088,-8.45636 3.10522,-20.10299 10.86482,-20.42281c8.10311,-0.33398 7.83805,12.93712 5.45329,21.67172c-1.83461,6.71959 -14.45877,18.43626 -18.50887,30.86095c-5.07588,15.57154 7.82505,30.43349 -6.23149,31.55057c-11.04812,0.878 -11.2982,-20.05463 -7.22863,-32.53618z" fill="#ecec68" stroke="#000000" stroke-width="2" stroke-linecap="butt"/><g data-paper-data="{&quot;index&quot;:null}" stroke="#1d1d0d" stroke-width="1.5" stroke-linecap="butt"><path d="M240.22482,81.96257l-8.35732,-17.15207l29.67882,-14.40804l8.35733,17.15208z" fill="#d0d05b"/><path d="M272.65987,120.48811l-14.174,-28.39118l-16.47062,-11.95433l25.34833,-11.85926l-1.88893,20.54513l14.45666,29.17311z" fill="url(#color-1)"/><path d="M225.68256,70.00225l16.18324,-25.62266l30.42995,2.27939z" fill="#bfbf54"/><path d="M266.47355,69.39922l-22.77569,10.77365c0,0 1.09655,-10.76915 7.3859,-13.74421c6.28934,-2.97508 15.3898,2.97057 15.3898,2.97057z" fill="#ffff70"/></g><path d="M241.65829,164.34454c-5.01816,-36.01297 24.80867,-69.85177 66.62006,-75.5811c41.81139,-5.72932 79.77426,18.82045 84.79241,54.83341c0.28965,2.07874 0.46322,4.15023 0.52507,6.20949c-6.14371,0.51176 -12.31805,0.89376 -18.34349,1.66172c-42.3033,5.39167 -84.61845,10.69635 -126.96232,15.75892c-1.0447,0.1249 -2.14,-0.52233 -3.13943,-0.20416c-0.48729,0.15514 -1.50227,0.88065 -2.68254,1.82119c-0.32721,-1.47844 -0.59785,-2.97873 -0.80975,-4.49947z" fill="#bebe54" stroke="#000000" stroke-width="2" stroke-linecap="butt"/><path d="M240.05477,146.23324l5.83542,-17.85911l135.57512,-15.89454l8.92564,15.0111z" fill="#b9b952" stroke="#000000" stroke-width="2" stroke-linecap="butt"/><path d="M296.66162,154.29214l-5.38153,-43.16583l41.00754,-5.11245l5.38153,43.16583z" fill="#d7d75f" stroke="#000000" stroke-width="2" stroke-linecap="butt"/></g></g></svg>