<svg version="1.1" xmlns="http://www.w3.org/2000/svg" xmlns:xlink="http://www.w3.org/1999/xlink" width="301.96868" height="410.34172" viewBox="0,0,301.96868,410.34172"><g transform="translate(-151.87724,94.63634)"><g data-paper-data="{&quot;isPaintingLayer&quot;:true}" fill-rule="nonzero" stroke-linejoin="miter" stroke-miterlimit="10" stroke-dasharray="" stroke-dashoffset="0" style="mix-blend-mode: normal"><g data-paper-data="{&quot;index&quot;:null}"><path d="M192.06596,112.73055l-13.31127,28.8712l4.24328,-30.83974z" fill="#d9db56" stroke="#000000" stroke-width="0.5" stroke-linecap="butt"/><path d="M196.25411,116.60033l-1.9993,7.0105l-17.86548,-5.09501l1.99928,-7.0105z" fill="#d9db56" stroke="#000000" stroke-width="1" stroke-linecap="butt"/><path d="M212.84225,75.54445l-12.31602,43.48071l-27.82766,-7.88224l12.31602,-43.48071z" fill="#d9db56" stroke="#000000" stroke-width="1" stroke-linecap="butt"/><path d="M208.31,92.31l-3.26608,9.97573c0,0 -8.15313,-5.11793 -12.82787,-6.38192c-4.38239,-1.18496 -14.40029,-0.98017 -14.40029,-0.98017l3.26609,-9.97573c0,0 10.15388,-1.3853 14.49397,-0.21182c4.70629,1.2725 12.73419,7.57388 12.73419,7.57388z" fill="#000000" stroke="none" stroke-width="0" stroke-linecap="butt"/><path d="M189.48365,120.89798l1.04215,-4.51338" fill="none" stroke="#000000" stroke-width="0.5" stroke-linecap="round"/><path d="M183.80041,115.05225l-0.76654,4.69957" fill="none" stroke="#000000" stroke-width="0.5" stroke-linecap="round"/></g><g><path d="M436.90289,82.52321l15.88648,27.53827l-22.72954,-21.27118z" fill="#d9db56" stroke="#000000" stroke-width="0.5" stroke-linecap="butt"/><path d="M442.48065,81.33812l4.56944,5.68019l-14.47534,11.6447l-4.56945,-5.68018z" fill="#d9db56" stroke="#000000" stroke-width="1" stroke-linecap="butt"/><path d="M418.53784,44.08904l28.38929,35.16113l-22.5031,18.16915l-28.38929,-35.16112z" fill="#d9db56" stroke="#000000" stroke-width="1" stroke-linecap="butt"/><path d="M429.60943,57.46981l6.25901,8.42658c0,0 -8.88618,3.70168 -12.61736,6.78862c-3.49785,2.89389 -9.11492,11.19139 -9.11492,11.19139l-6.25901,-8.42658c0,0 4.73176,-9.09015 8.1958,-11.95612c3.75634,-3.10778 13.53646,-6.02392 13.53646,-6.02392z" fill="#000000" stroke="none" stroke-width="0" stroke-linecap="butt"/><path d="M442.08029,89.34741l-3.0833,-3.45689" fill="none" stroke="#000000" stroke-width="0.5" stroke-linecap="round"/><path d="M434.02599,90.61227l3.39443,3.33937" fill="none" stroke="#000000" stroke-width="0.5" stroke-linecap="round"/></g><path d="M190.32241,41.45416c-3.40618,-64.33736 46.142,-119.26248 110.66894,-122.6787c64.52694,-3.41621 119.59763,45.97013 123.00381,110.30748c3.40618,64.33736 -46.142,119.26249 -110.66894,122.6787c-64.52694,3.41621 -119.59762,-45.97013 -123.0038,-110.30749z" fill="#7f7f38" stroke="#000000" stroke-width="2" stroke-linecap="butt"/><path d="M286.92427,45.8265c-2.04746,-38.67334 31.61922,-71.89455 75.19663,-74.20165c43.57741,-2.3071 80.56368,27.17358 82.61114,65.84691c2.04746,38.67335 -31.61922,71.89456 -75.19663,74.20166c-43.57741,2.3071 -80.56369,-27.17358 -82.61115,-65.84692z" fill="#00800b" stroke="#000000" stroke-width="2" stroke-linecap="butt"/><path d="M286.92427,45.8265c-2.04746,-38.67334 31.61922,-71.89455 75.19663,-74.20165c43.57741,-2.3071 80.56368,27.17358 82.61114,65.84691c2.04746,38.67335 -31.61922,71.89456 -75.19663,74.20166c-43.57741,2.3071 -80.56369,-27.17358 -82.61115,-65.84692z" fill="#9d9d45" stroke="#000000" stroke-width="2" stroke-linecap="butt"/><path d="M174.66318,53.31497c-2.04746,-38.67334 31.61922,-71.89456 75.19663,-74.20165c43.57741,-2.3071 80.56369,27.17357 82.61115,65.84692c2.04746,38.67335 -31.61922,71.89456 -75.19664,74.20166c-43.57741,2.3071 -80.56369,-27.17358 -82.61115,-65.84692z" fill="#9d9d45" stroke="#000000" stroke-width="2" stroke-linecap="butt"/><path d="M260.12787,314.64572c0,0 5.77437,-63.52773 7.94538,-109.78317c2.20348,-46.94716 -7.06086,-170.20881 -7.06086,-170.20881l90.42133,-4.11977c0,0 3.98535,117.76498 11.17458,167.94543c5.69743,39.76783 19.83025,109.69091 19.83025,109.69091z" fill="#4f4f23" stroke="#000000" stroke-width="2" stroke-linecap="butt"/><path d="M268.64856,143.96244c-1.88085,-47.00231 -5.82917,-98.72277 -5.82917,-98.72277l87.94882,-4.03979c0,0 1.70878,52.05003 5.03346,99.47915c0,0 -15.96998,14.00873 -43.25719,15.32986c-26.04212,1.26085 -43.89592,-12.04645 -43.89592,-12.04645z" fill="#363618" stroke="#000000" stroke-width="0" stroke-linecap="butt"/><path d="M315.35429,189.02241c-6.43837,0.34086 -13.24677,-18.6414 -13.24677,-18.6414l25.07447,-1.32751c0,0 -5.38933,19.62804 -11.8277,19.96891z" fill="#000000" stroke="#000000" stroke-width="2" stroke-linecap="round"/><path d="M283.55036,151.67951c-0.38274,-7.22942 5.16759,-13.40031 12.39701,-13.78305c7.22942,-0.38274 13.4003,5.16759 13.78304,12.39701c0.38274,7.22942 -5.16759,13.40031 -12.39701,13.78305c-7.22942,0.38274 -13.4003,-5.16759 -13.78304,-12.39701z" fill="#000000" stroke="none" stroke-width="0" stroke-linecap="butt"/><path d="M332.1389,162.23383c-7.22941,0.38274 -13.40031,-5.1676 -13.78305,-12.39701c-0.38274,-7.22942 5.1676,-13.4003 12.39701,-13.78304c7.22942,-0.38274 13.4003,5.1676 13.78304,12.39701c0.38274,7.22942 -5.16759,13.4003 -12.397,13.78304z" data-paper-data="{&quot;index&quot;:null}" fill="#000000" stroke="none" stroke-width="0" stroke-linecap="butt"/><path d="M171.84892,14.47446c-2.94651,-55.655 54.58432,-103.94459 128.49872,-107.8578c73.91439,-3.91321 136.22247,38.0318 139.16898,93.68681c2.94651,55.65501 -54.58433,103.94459 -128.49872,107.8578c-73.91439,3.91321 -136.22246,-38.03181 -139.16897,-93.68682z" fill="#c5c556" stroke="#000000" stroke-width="2" stroke-linecap="butt"/><g><path d="M416.34197,-3.28173l31.61284,-3.37111l-28.65451,12.1661z" fill="#d9db56" stroke="#000000" stroke-width="0.5" stroke-linecap="butt"/><path d="M417.51761,-8.86149l7.04417,-1.87718l4.78378,17.95132l-7.04417,1.8772z" fill="#d9db56" stroke="#000000" stroke-width="1" stroke-linecap="butt"/><path d="M373.76307,-2.05768l43.6465,-11.71492l7.49757,27.93375l-43.6465,11.71492z" fill="#d9db56" stroke="#000000" stroke-width="1" stroke-linecap="butt"/><path d="M390.4815,-6.76079l10.23954,-2.30958c0,0 -0.21475,9.62396 1.0964,14.28569c1.22913,4.37022 6.54046,12.86668 6.54046,12.86668l-10.23954,2.30958c0,0 -6.39462,-8.00808 -7.61194,-12.33607c-1.32001,-4.69319 -0.02495,-14.81629 -0.02495,-14.81629z" fill="#000000" stroke="none" stroke-width="0" stroke-linecap="butt"/><path d="M424.67837,-5.25141l-4.40947,1.41891" fill="none" stroke="#000000" stroke-width="0.5" stroke-linecap="round"/><path d="M422.57256,2.62497l4.42805,-1.75099" fill="none" stroke="#000000" stroke-width="0.5" stroke-linecap="round"/></g><g data-paper-data="{&quot;index&quot;:null}"><path d="M181.01739,33.22347l-27.79205,15.43819l21.63668,-22.3819z" fill="#d9db56" stroke="#000000" stroke-width="0.5" stroke-linecap="butt"/><path d="M182.11194,38.81971l-5.75347,4.4768l-11.40864,-14.66211l5.75347,-4.47682z" fill="#d9db56" stroke="#000000" stroke-width="1" stroke-linecap="butt"/><path d="M219.74408,15.48359l-35.61649,27.81585l-17.80216,-22.79455l35.6165,-27.81585z" fill="#d9db56" stroke="#000000" stroke-width="1" stroke-linecap="butt"/><path d="M206.18569,26.33691l-8.52689,6.12165c0,0 -3.55721,-8.94499 -6.5833,-12.7257c-2.83683,-3.54428 -11.04223,-9.29505 -11.04223,-9.29505l8.5269,-6.12166c0,0 9.0123,4.87842 11.82177,8.38844c3.04651,3.80621 5.80379,13.63228 5.80379,13.63228z" fill="#000000" stroke="none" stroke-width="0" stroke-linecap="butt"/><path d="M177.61659,35.26276l-3.50638,3.02688" fill="none" stroke="#000000" stroke-width="0.5" stroke-linecap="round"/><path d="M169.58208,33.55577l3.39392,-3.33988" fill="none" stroke="#000000" stroke-width="0.5" stroke-linecap="round"/></g><g><path d="M265.8673,-56.80146l5.44659,-31.32206l3.82277,30.89468z" fill="#d9db56" stroke="#000000" stroke-width="0.5" stroke-linecap="butt"/><path d="M260.82548,-59.46529l0.13099,-7.28883l18.5748,0.33383l-0.13098,7.28883z" fill="#d9db56" stroke="#000000" stroke-width="1" stroke-linecap="butt"/><path d="M255.34262,-15.52567l0.73116,-45.18541l28.91867,0.46792l-0.73116,45.18541z" fill="#d9db56" stroke="#000000" stroke-width="1" stroke-linecap="butt"/><path d="M255.41517,-32.89286l0.5934,-10.48c0,0 9.19438,2.85136 14.03695,2.87183c4.53973,0.01921 14.16871,-2.75258 14.16871,-2.75258l-0.5934,10.48c0,0 -9.4571,3.94762 -13.95299,3.92862c-4.87524,-0.02061 -14.25265,-4.04785 -14.25265,-4.04785z" fill="#000000" stroke="none" stroke-width="0" stroke-linecap="butt"/><path d="M266.41693,-60.72856l-0.15245,-4.62963" fill="none" stroke="#000000" stroke-width="0.5" stroke-linecap="round"/><path d="M272.79221,-65.90763l0.46664,4.73876" fill="none" stroke="#000000" stroke-width="0.5" stroke-linecap="round"/></g><g><path d="M335.36398,45.44622l8.2023,30.71578l-16.43638,-26.43749z" fill="#d9db56" stroke="#000000" stroke-width="0.5" stroke-linecap="butt"/><path d="M341.05826,45.74801l2.94025,6.67077l-16.99974,7.49288l-2.94027,-6.67076z" fill="#d9db56" stroke="#000000" stroke-width="1" stroke-linecap="butt"/><path d="M327.59324,3.56454l18.30082,41.31992l-26.44475,11.71254l-18.30082,-41.31992z" fill="#d9db56" stroke="#000000" stroke-width="1" stroke-linecap="butt"/><path d="M334.81645,19.35853l3.85989,9.76135c0,0 -9.5421,1.27085 -13.94611,3.28469c-4.1286,1.88789 -11.70512,8.44506 -11.70512,8.44506l-3.85988,-9.76135c0,0 6.92702,-7.55228 11.01573,-9.42198c4.43373,-2.02745 14.63548,-2.30781 14.63548,-2.30781z" fill="#000000" stroke="none" stroke-width="0" stroke-linecap="butt"/><path d="M336.5133,49.24138l2.08145,4.13815" fill="none" stroke="#000000" stroke-width="0.5" stroke-linecap="round"/><path d="M330.48795,52.51263l2.41241,4.10533" fill="none" stroke="#000000" stroke-width="0.5" stroke-linecap="round"/></g></g></g></svg>