<svg version="1.1" xmlns="http://www.w3.org/2000/svg" xmlns:xlink="http://www.w3.org/1999/xlink" width="71.48054" height="52.14146" viewBox="0,0,71.48054,52.14146"><defs><linearGradient x1="443.51469" y1="181.722" x2="443.51469" y2="200.843" gradientTransform="translate(-1223.83619,-492.18324) scale(2.97623,2.51032)" gradientUnits="userSpaceOnUse" id="color-1"><stop offset="0" stop-color="#ffffb6"/><stop offset="1" stop-color="#ffff70"/></linearGradient></defs><g transform="translate(-402.41668,-172.19214)"><g data-paper-data="{&quot;isPaintingLayer&quot;:true}" fill-rule="nonzero" stroke="none" stroke-linejoin="miter" stroke-miterlimit="10" stroke-dasharray="" stroke-dashoffset="0" style="mix-blend-mode: normal"><g><g fill="#805f11" stroke-width="0"><g stroke-linecap="butt"><path d="M438.56536,224.18409c-28.84902,-0.05572 -35.84993,-17.97677 -35.84993,-17.97677c0,0 4.27686,-1.00955 7.36181,-5.53965c6.82398,-10.02068 10.46249,-27.67257 27.55561,-27.77177c17.85304,-0.10361 21.24043,16.19262 28.41033,26.7886c2.88441,4.23801 7.85405,6.93729 7.85405,6.93729c0,0 -5.96502,17.61903 -35.33188,17.56231z"/><path d="M473.27554,205.84466c0,0 -2.29254,7.04014 -9.38827,11.61475c-7.36003,4.74499 -18.94976,5.68855 -18.94976,5.68855c0,0 11.14668,-7.31477 10.41306,-27.14648c-0.41947,-11.33919 -9.79138,-22.3803 -9.79138,-22.3803c0,0 6.8539,3.22503 11.62989,9.67231c3.81708,5.15282 5.45218,11.65214 7.88792,14.5461c1.18849,1.41206 1.9249,3.31508 3.28335,4.62047c2.23465,2.14737 4.91519,3.3846 4.91519,3.3846z"/></g><path d="M412.89881,208.8557c0,-1.90745 1.5463,-3.45375 3.45376,-3.45375c1.90746,0 3.45376,1.5463 3.45376,3.45375c0,1.90745 -1.5463,3.45375 -3.45376,3.45375c-1.90746,0 -3.45376,-1.54629 -3.45376,-3.45375z" stroke-linecap="butt"/><path d="M455.86347,208.92478c0,-1.90745 1.54629,-3.45375 3.45375,-3.45375c1.90746,0 3.45376,1.5463 3.45376,3.45375c0,1.90745 -1.5463,3.45375 -3.45376,3.45375c-1.90746,0 -3.45375,-1.54629 -3.45375,-3.45375z" stroke-linecap="butt"/><g stroke-linecap="butt"><path d="M421.37777,180.60895l-5.33605,9.73958c0,0 -0.96599,-0.27521 -2.66539,-0.61227c-2.30968,-0.4581 -5.71074,-1.29381 -7.43682,-4.15391c-3.14313,-5.20812 -0.71164,-9.09662 0.82649,-10.75534c1.61108,-1.73737 5.36113,-3.57295 9.27573,-2.09261c3.11642,1.17851 4.1021,3.73048 4.64138,5.58618c0.39339,1.35368 0.69467,2.28837 0.69467,2.28837z"/><path d="M410.18762,181.90412c0,-2.37478 1.92514,-4.29993 4.29992,-4.29993c2.37478,0 4.29992,1.92515 4.29992,4.29993c0,2.37478 -1.92514,4.29992 -4.29992,4.29992c-2.37478,0 -4.29992,-1.92514 -4.29992,-4.29992z"/></g><path d="M438.26661,224.33347c-28.84902,-0.05572 -35.84993,-17.97678 -35.84993,-17.97678c0,0 4.27686,-1.00955 7.36181,-5.53964c6.82398,-10.02068 10.46249,-27.67257 27.55561,-27.77177c17.85304,-0.10361 20.76211,16.23611 27.99588,26.78859c3.8543,5.62258 8.26851,6.93729 8.26851,6.93729c0,0 -5.96502,17.61903 -35.33188,17.56231z" stroke-linecap="butt"/><g data-paper-data="{&quot;index&quot;:null}" stroke-linecap="butt"><path d="M454.86962,180.60895c0,0 0.30129,-0.93469 0.69468,-2.28837c0.53928,-1.85571 1.52495,-4.40768 4.64137,-5.58618c3.9146,-1.48034 7.66465,0.35524 9.27573,2.09261c1.53814,1.65872 3.96962,5.54722 0.82649,10.75534c-1.72608,2.8601 -5.12714,3.69581 -7.43682,4.15391c-1.6994,0.33706 -2.66539,0.61227 -2.66539,0.61227l-5.33604,-9.73958z"/><path d="M461.75986,186.20403c-2.37478,0 -4.29993,-1.92514 -4.29993,-4.29992c0,-2.37478 1.92515,-4.29992 4.29993,-4.29992c2.37478,0 4.29992,1.92514 4.29992,4.29992c0,2.37478 -1.92514,4.29992 -4.29992,4.29992z"/></g><path d="M433.47765,173.00337l8.15949,0.15542c0,0 -0.1669,5.66597 -1.32704,10.61419c-0.87598,3.73623 -2.16988,7.02584 -2.16988,7.02584c0,0 -1.78364,-2.85216 -2.81714,-7.00907c-0.77999,-3.13726 -1.84543,-10.78638 -1.84543,-10.78638z" stroke-linecap="butt"/><path d="M429.20364,185.04832c0,0 2.568,-4.7422 8.70345,-4.81798c6.29134,-0.07771 8.39261,4.81798 8.39261,4.81798z" stroke-linecap="butt"/><path d="M427.80487,179.0647c0,0 2.83281,-5.05303 9.97224,-5.12882c7.32083,-0.07771 9.92137,5.12882 9.92137,5.12882z" stroke-linecap="butt"/><g stroke-linecap="butt"><path d="M406.82333,212.47973c0,0 -3.48606,-3.92381 -3.58316,-5.3666c-0.08144,-1.20993 3.0392,-2.71517 3.0392,-2.71517c0,0 2.3065,1.7774 5.73272,3.05544c2.87549,1.07262 5.76827,1.29629 5.76827,1.29629c0,0 -1.25579,1.89345 -4.45011,2.73678c-4.67419,1.23403 -6.50691,0.99326 -6.50691,0.99326z"/><path d="M407.85705,213.62123c0,0 5.3318,1.01444 8.57582,0.73314c2.72258,-0.23608 5.13467,-1.16157 5.13467,-1.16157c0,0 0.20092,1.93972 -2.14484,4.21247c-1.32493,1.28369 -2.67822,2.06376 -3.48013,2.54608c-0.50155,-0.26337 -1.47152,-0.73506 -1.93707,-0.95523c-0.39128,-0.18503 -0.97559,-0.77985 -1.65768,-1.49278c-0.57022,-0.97419 -1.39799,-1.77929 -2.38987,-2.32187c-0.01729,-0.00946 -0.03463,-0.01883 -0.05201,-0.02812c0.3744,-0.60097 -2.04888,-1.53211 -2.04888,-1.53211z"/><path d="M422.05117,219.76425c2.49495,-1.57137 3.85798,-3.42911 3.85798,-3.42911c0,0 0.87404,1.82458 0.06014,4.65158c-0.29587,1.02766 -0.58125,1.8797 -0.84307,2.57996c-1.35931,-0.72849 -2.80935,-1.1656 -4.44743,-1.83133c-0.1372,-0.05576 -1.61138,-0.79353 -1.77467,-0.82101c0.64252,-0.40351 2.03892,-0.45214 3.14706,-1.15008z"/></g><g data-paper-data="{&quot;index&quot;:null}" stroke-linecap="butt"><path d="M462.61693,211.33105c-3.19433,-0.84333 -4.45011,-2.73678 -4.45011,-2.73678c0,0 2.89279,-0.22366 5.76827,-1.29628c3.42622,-1.27804 5.73272,-3.05544 5.73272,-3.05544c0,0 3.12063,1.50524 3.0392,2.71517c-0.09711,1.44279 -3.58316,5.3666 -3.58316,5.3666c0,0 -1.83272,0.24076 -6.50691,-0.99327z"/><path d="M467.59544,215.23105c-0.01738,0.0093 -0.50097,0.32951 -0.51826,0.33897c-0.99189,0.54258 -2.90759,0.80371 -3.4778,1.7779c-0.11738,0.12269 1.16691,0.94127 1.0558,1.05547c-0.53451,0.54944 -2.38954,0.28413 -2.71348,0.43731c-0.46556,0.22017 -1.43552,0.69186 -1.93707,0.95523c-0.80191,-0.48232 -2.15521,-1.26239 -3.48013,-2.54608c-2.34577,-2.27275 -2.14485,-4.21246 -2.14485,-4.21246c0,0 2.41208,0.92549 5.13467,1.16156c3.24402,0.2813 9.11979,-0.88855 9.11979,-0.88855c0,0 -1.41305,1.31967 -1.03866,1.92065z"/><path d="M457.04306,220.7589c-0.16328,0.02748 -1.63748,0.76525 -1.77467,0.82101c-1.63808,0.66574 -3.08812,1.10285 -4.44743,1.83133c-0.26184,-0.70026 -0.54721,-1.55231 -0.84307,-2.57997c-0.8139,-2.827 0.06014,-4.65157 0.06014,-4.65157c0,0 1.36302,1.85774 3.85798,3.42911c1.10814,0.69794 2.50455,0.74656 3.14706,1.15007z"/></g><g stroke-linecap="butt"><path d="M427.80487,199.69654c0,5.34325 -2.43542,9.67482 -5.43966,9.67482c-3.00424,0 -5.43966,-4.33156 -5.43966,-9.67482c0,-5.34325 2.43542,-9.67482 5.43966,-9.67482c3.00424,0 5.43966,4.33157 5.43966,9.67482z"/><path d="M421.49487,203.83068c0,0.78968 -2.6732,1.18118 -2.6732,1.18118c0,0 -0.72393,-0.291 -1.67172,-0.66951c-1.23451,-0.49301 -2.76222,-1.17776 -2.68,-2.00369c0.09587,-0.96315 1.63554,-0.84001 2.82644,-0.71859c0.88707,0.09045 1.52528,0.09691 1.52528,0.09691c0,0 2.6732,1.324 2.6732,2.1137z"/></g><g data-paper-data="{&quot;index&quot;:null}" stroke-linecap="butt"><path d="M453.4147,190.27039c3.00424,0 5.43966,4.33156 5.43966,9.67482c0,5.34325 -2.43542,9.67482 -5.43966,9.67482c-3.00424,0 -5.43966,-4.33157 -5.43966,-9.67482c0,-5.34325 2.43542,-9.67482 5.43966,-9.67482z"/><path d="M456.95825,201.96565c0,0 0.63823,-0.00647 1.5253,-0.09692c1.1909,-0.12142 2.73056,-0.24456 2.82643,0.71859c0.08222,0.82593 -1.44549,1.51068 -2.67999,2.00369c-0.9478,0.37851 -1.67174,0.66951 -1.67174,0.66951c0,0 -2.6732,-0.3915 -2.6732,-1.18118c0,-0.78968 2.6732,-2.11369 2.6732,-2.11369z"/></g><path d="M423.25019,197.34978c0,2.1091 -0.95428,3.81886 -2.13146,3.81886c-1.17717,0 -2.13146,-1.70976 -2.13146,-3.81886c0,-2.1091 0.95428,-3.81886 2.13146,-3.81886c1.17717,0 2.13146,1.70977 2.13146,3.81886z" stroke-linecap="butt"/><path d="M453.9787,197.17216c0,2.1091 -0.95428,3.81886 -2.13146,3.81886c-1.17717,0 -2.13146,-1.70977 -2.13146,-3.81886c0,-2.1091 0.95429,-3.81886 2.13146,-3.81886c1.17717,0 2.13146,1.70977 2.13146,3.81886z" stroke-linecap="butt"/><path d="M430.44386,202.81164c0,-4.09557 3.32012,-7.41569 7.4157,-7.41569c4.09557,0 7.4157,3.32012 7.4157,7.4157c0,4.09557 -3.32012,7.4157 -7.4157,7.4157c-4.09557,0 -7.4157,-3.32012 -7.4157,-7.41569z" stroke-linecap="butt"/><path d="M422.36208,204.4349c0,-0.64854 0.52575,-1.17427 1.17428,-1.17427c0.64854,0 1.17428,0.52574 1.17428,1.17427c0,0.64854 -0.52575,1.17427 -1.17428,1.17427c-0.64854,0 -1.17428,-0.52575 -1.17428,-1.17427z" stroke-linecap="butt"/><path d="M453.51491,204.7112c0,-0.64854 0.52575,-1.17427 1.17428,-1.17427c0.64854,0 1.17428,0.52574 1.17428,1.17427c0,0.64854 -0.52575,1.17427 -1.17428,1.17427c-0.64854,0 -1.17428,-0.52575 -1.17428,-1.17427z" stroke-linecap="butt"/><path d="M443.68036,204.83208c0,0 -0.93798,2.13861 -3.58437,1.55186c-1.87672,-0.4161 -2.06436,-2.33077 -2.06436,-2.33077c0,0 -0.43443,2.21901 -2.24678,2.42111c-2.59041,0.28886 -3.8127,-1.53859 -3.8127,-1.53859" stroke-linecap="round"/><g stroke-linecap="butt"><path d="M442.28159,200.14361c0,1.41629 -2.34116,4.3658 -4.37762,4.27402c-2.03587,-0.09175 -4.48125,-2.85773 -4.48125,-4.27402c0,-1.41629 1.8741,-2.87525 4.37763,-2.87525c2.50353,0 4.48124,1.45896 4.48124,2.87525z"/><path d="M440.62379,199.62555c0,0.58655 -1.2641,1.06204 -2.82344,1.06204c-1.55935,0 -2.82344,-0.47549 -2.82344,-1.06204c0,-0.58655 0.79828,-1.04651 2.92706,-1.11383c2.07695,-0.06569 2.71983,0.52729 2.71983,1.11383z"/></g></g><g stroke-width="1" stroke-linecap="butt" font-family="&quot;Allan-Regular&quot;, Sans Serif" font-weight="normal" font-size="40" text-anchor="start"><text transform="translate(410.50129,196.06462) scale(0.336,0.39836)" font-size="40" xml:space="preserve" fill="#828216" fill-rule="nonzero" stroke="none" stroke-width="1" stroke-linecap="butt" stroke-linejoin="miter" stroke-miterlimit="10" stroke-dasharray="" stroke-dashoffset="0" font-family="&quot;Allan-Regular&quot;, Sans Serif" font-weight="normal" text-anchor="start" style="mix-blend-mode: normal"><tspan x="0" dy="0">JOOPERS</tspan><tspan x="0" dy="48px">  MODE</tspan></text><text transform="translate(411.20284,196.06366) scale(0.336,0.39836)" font-size="40" xml:space="preserve" fill="url(#color-1)" fill-rule="nonzero" stroke="none" stroke-width="1" stroke-linecap="butt" stroke-linejoin="miter" stroke-miterlimit="10" stroke-dasharray="" stroke-dashoffset="0" font-family="&quot;Allan-Regular&quot;, Sans Serif" font-weight="normal" text-anchor="start" style="mix-blend-mode: normal"><tspan x="0" dy="0">JOOPERS</tspan><tspan x="0" dy="48px">  MODE</tspan></text></g></g></g></g></svg>