<svg version="1.1" xmlns="http://www.w3.org/2000/svg" xmlns:xlink="http://www.w3.org/1999/xlink" width="263.04309" height="260.51814" viewBox="0,0,263.04309,260.51814"><g transform="translate(-22.13899,-46.82954)"><g data-paper-data="{&quot;isPaintingLayer&quot;:true}" fill-rule="nonzero" stroke-linejoin="miter" stroke-miterlimit="10" stroke-dasharray="" stroke-dashoffset="0" style="mix-blend-mode: normal"><path d="M256.43846,201.95078c-0.57113,0 -1.03411,-0.46299 -1.03411,-1.03411c0,-0.57113 0.46299,-1.03413 1.03411,-1.03413c0.57113,0 1.03411,0.463 1.03411,1.03413c0,0.57113 -0.46299,1.03411 -1.03411,1.03411z" fill="#000000" stroke="none" stroke-width="1.5" stroke-linecap="butt"/><path d="M251.17858,206.18636c-4.4635,-0.31439 -6.55245,-1.79392 -6.16985,-2.58011c0.11788,-0.24224 2.84645,1.06355 6.97038,1.3048c6.40897,0.37493 8.51033,-0.63173 8.51033,-0.63173v1.34616c0,0 -2.4135,1.04672 -9.31086,0.56089z" fill="#000000" stroke="#000000" stroke-width="0" stroke-linecap="butt"/><path d="M223.36583,200.91667c0,-0.57113 0.46299,-1.03413 1.03411,-1.03413c0.57113,0 1.03413,0.463 1.03413,1.03413c0,0.57113 -0.463,1.03411 -1.03413,1.03411c-0.57113,0 -1.03411,-0.46299 -1.03411,-1.03411z" fill="#000000" stroke="none" stroke-width="1.5" stroke-linecap="butt"/><path d="M229.65982,206.18636c-6.89736,0.48585 -9.31086,-0.56089 -9.31086,-0.56089v-1.34616c0,0 2.10136,1.00666 8.51033,0.63173c4.12393,-0.24126 6.85251,-1.54704 6.97039,-1.3048c0.3826,0.78618 -1.70634,2.26571 -6.16985,2.58011z" fill="#000000" stroke="#000000" stroke-width="0" stroke-linecap="butt"/><path d="M201.84129,306.00852c0,0 -0.63536,-94.38387 -0.79335,-118.01201c-0.05451,-8.15261 8.18688,-36.76129 40.20201,-36.9211c31.60235,-0.15775 39.85672,29.48704 39.84884,36.89673c-0.07659,46.24274 0.65429,117.98648 0.65429,117.98648l-10.49667,0.09614l-0.15882,-114.84311c0,0 0.07549,-3.0993 -2.81625,-3.15415c-3.43441,-0.06514 -2.94538,3.11562 -2.94538,3.11562l0.20548,114.86995l-48.21366,0.07222l-0.30539,-115.23309c0,0 0.27949,-2.919 -2.8856,-2.93443c-3.11083,-0.01515 -2.81569,2.90899 -2.81569,2.90899l0.35311,115.0668z" fill="#ffffff" stroke="#000000" stroke-width="2" stroke-linecap="butt"/><path d="M240.94028,262.73803c-0.81895,0 -1.48284,-0.66389 -1.48284,-1.48284c0,-0.81895 0.66389,-1.48284 1.48284,-1.48284c0.81895,0 1.48284,0.66389 1.48284,1.48284c0,0.81895 -0.66389,1.48284 -1.48284,1.48284z" data-paper-data="{&quot;index&quot;:null}" fill="#000000" stroke="none" stroke-width="1.5" stroke-linecap="butt"/><path d="M215.87702,307.02293v-119.9751c0,0 0.78289,-9.7942 0.78289,-14.73438c0,-4.5272 -0.78289,-14.4427 -0.78289,-14.4427c0,0 2.76386,-2.36824 4.81361,-3.77239c2.04975,-1.40416 5.3474,-2.15524 5.3474,-2.15524c0,0 3.36875,10.57749 5.88115,15.35615c2.50536,4.76525 9.17219,13.27571 9.17219,13.27571c0,0 6.55919,-8.46287 9.02604,-13.40182c2.28632,-4.57751 5.27464,-15.23004 5.27464,-15.23004c0,0 3.98733,1.83393 6.37499,3.29901c2.38766,1.46508 4.91503,3.62862 4.91503,3.62862c0,0 -0.78289,9.15247 -0.78289,13.95079c0,4.87336 0.78289,14.73438 0.78289,14.73438v119.46703z" fill="#1a1a1a" stroke="#000000" stroke-width="0" stroke-linecap="butt"/><path d="M215.54369,306.6896v-61.8888c1.09288,12.79802 11.82738,22.84459 24.90838,22.84459c0.0556,0 0.11115,-0.00018 0.16667,-0.00054c0.05551,0.00036 0.11107,0.00054 0.16667,0.00054c0.11128,0 0.2224,-0.00073 0.33333,-0.00218c0.11094,0.00145 0.22205,0.00218 0.33333,0.00218c13.03567,0 23.74108,-9.97706 24.89667,-22.71164v61.75588z" fill="#131313" stroke="#000000" stroke-width="0" stroke-linecap="butt"/><g stroke="none" stroke-width="0" stroke-linecap="butt"><path d="M196.93523,307.34768c0,0 -1.39618,-119.27696 1,-133c1.38902,-7.95502 24,-21 24,-21c0,0 -0.54171,7.72002 0.14368,19.38256c0.55339,9.41658 2.86037,21.4034 3.73065,33.97205c0.92302,13.33024 0.52657,27.31495 0.98241,39.58191c0.43736,11.76943 1.73875,21.95763 2.05589,28.46946c0.69707,14.31312 0.08737,32.59402 0.08737,32.59402z" fill="#9b9b44"/><path d="M196.93522,307.34761c0,0 -0.43851,-37.4619 -0.40225,-72.81208c1.2043,10.1867 14.54087,21.58705 14.54087,21.58705l2.64592,-65.05555l0.48982,66.29264c0,0 7.68344,2.02355 12.64924,1.63052c0.2376,0.01881 0.47613,0.03429 0.71555,0.04641c0.51004,6.30637 1.07827,11.7083 1.2735,15.717c0.69707,14.31312 0.08738,32.59402 0.08738,32.59402z" fill="#6e6e30"/></g><g data-paper-data="{&quot;index&quot;:null}" stroke="none" stroke-width="0" stroke-linecap="butt"><path d="M252.77769,307.34768c0,0 -0.6097,-18.2809 0.08737,-32.59402c0.31714,-6.51183 1.61853,-16.70003 2.05589,-28.46946c0.45584,-12.26696 0.05939,-26.25167 0.98241,-39.58191c0.87028,-12.56865 3.17726,-24.55547 3.73065,-33.97205c0.68539,-11.66254 0.14368,-19.38256 0.14368,-19.38256c0,0 22.61098,13.04498 24,21c2.39618,13.72304 1,133 1,133z" fill="#9b9b44"/><path d="M252.77767,307.34762c0,0 -0.60969,-18.2809 0.08738,-32.59402c0.19523,-4.0087 0.76346,-9.41063 1.2735,-15.717c0.23942,-0.01212 0.47795,-0.0276 0.71555,-0.04641c4.9658,0.39303 12.64924,-1.63052 12.64924,-1.63052l0.48982,-66.29264l2.64592,65.05555c0,0 13.33657,-11.40035 14.54087,-21.58705c0.03626,35.35018 -0.40225,72.81208 -0.40225,72.81208z" fill="#6e6e30"/></g><path d="M194.09708,108.93023c0,0 5.67554,-6.39085 5.73497,-7.26403c0.15587,-2.29014 -3.34506,-40.03401 32.56642,-44.28871c44.42419,-4.44164 41.68883,32.15175 44.73813,38.77287c4.18105,9.07855 7.51376,16.85863 7.51376,16.85863c0,0 -2.92092,-1.82818 -4.31482,-2.80143c-1.30008,-0.90773 -4.03836,-2.83529 -4.03836,-2.83529c0,0 3.89999,10.07116 2.94385,20.52643c-0.80743,9.57485 -5.91236,17.74873 -5.91236,17.74873l-1.33728,-2.24861c0,0 -0.84559,2.27195 -1.88965,3.49316c-1.04407,1.22121 -3.19755,3.17562 -3.19755,3.17562l-0.38478,-3.68532c0,0 -6.16642,11.5419 -23.41438,12.76369c-16.27536,1.03521 -26.83426,-8.57941 -26.83426,-8.57941l0.09417,2.65571c0,0 -4.14303,-2.97435 -6.92998,-9.18815c-3.32171,-7.40612 -4.19779,-11.94862 -4.19779,-11.94862c0,0 -2.18152,2.07824 -5.47966,3.21794c-4.13276,1.42812 -6.89757,0.89368 -6.89757,0.89368c0,0 3.38171,-2.99406 5.18915,-5.19665c1.60992,-1.9619 2.37114,-3.57599 2.37114,-3.57599c0,0 -2.01517,1.24802 -4.09152,1.94771c-2.16643,0.73006 -3.97545,0.84806 -3.97545,0.84806c0,0 4.56087,-5.41503 6.14852,-11.39637c1.49899,-5.64735 1.22638,-11.08907 1.22638,-11.08907c0,0 -1.30505,0.76727 -3.2568,1.05606c-1.23716,0.18307 -2.37427,0.13935 -2.37427,0.13935z" fill="#000000" stroke="none" stroke-width="1.5" stroke-linecap="butt"/><path d="M211.72594,118.88855c-1.1522,-7.22473 -1.02302,-17.12722 -1.02302,-17.12722c0,0 3.39664,-0.3109 13.62197,-4.23505c7.85574,-3.0148 19.73245,-11.08285 19.73245,-11.08285c0,0 -1.91557,3.16648 -3.04432,4.71574c-1.19998,1.64704 -3.61946,4.86452 -3.61946,4.86452c0,0 7.68153,-2.2824 14.25467,-5.87531c8.26183,-4.20246 10.08051,-6.87202 12.54654,-5.60273c2.91052,1.49808 2.86066,23.02857 2.98968,28.59373c0.02814,5.68481 -1.77388,9.67031 -2.15002,12.7305c-0.37615,3.06018 0.07711,6.14979 -0.93051,16.16396c-0.62882,6.24954 -3.44282,9.22591 -8.82831,15.40744c-5.38549,6.18154 -8.29349,9.93994 -12.23543,10.32194c-3.79358,0.36763 -9.31109,-4.37738 -14.71304,-9.24757c-5.75218,-5.18597 -9.51765,-7.74853 -10.88267,-14.32378c-1.22935,-5.9217 -1.55789,-9.81605 -2.32534,-15.11176c-0.56091,-3.87049 -2.76393,-6.24598 -3.39318,-10.19153z" fill="#ffffff" stroke="#000000" stroke-width="1.5" stroke-linecap="butt"/><path d="M258.85184,103.82721c0,0 1.51961,0.33972 4.23957,1.17071c2.48438,0.75903 4.42409,1.80714 4.42409,1.80714l0.17844,1.17301c0,0 -7.20438,-3.23277 -15.07913,-2.68536c-6.29647,0.43772 -10.00219,2.6704 -10.00219,2.6704l0.10515,-4.17575c0,0 3.1514,-1.65956 7.88926,-1.74353c4.90602,-0.08694 8.08161,0.70627 8.08161,0.70627z" data-paper-data="{&quot;index&quot;:null}" fill="#000000" stroke="none" stroke-width="1.5" stroke-linecap="butt"/><path d="M241.59927,146.03762c-1.03052,0.08177 -3.78492,-2.97033 -4.19912,-5.04735c-0.37059,-1.85837 1.00819,-3.92002 3.47203,-4.11553c2.46385,-0.19551 4.22775,0.15683 4.34869,3.85662c0.10263,3.1399 -1.15776,5.11077 -3.62159,5.30628z" fill="#ffffff" stroke="#000000" stroke-width="1.15" stroke-linecap="butt"/><path d="M243.0588,115.73351c0,0 0.16708,3.96898 0.32026,7.12361c0.30335,6.24671 1.11788,27.75926 1.11788,27.75926l-2.97164,0.24447c0,0 -1.1305,-4.09615 -1.87116,-9.38117c-1.00256,-7.15374 -1.73694,-16.2066 -2.31403,-19.51038c-0.54702,-3.13167 -1.82382,-5.33698 -1.82382,-5.33698" fill="#ffffff" stroke="#000000" stroke-width="1.3" stroke-linecap="round"/><path d="M214.22104,128.8456c0,0 -5.19486,-3.11588 -6.85481,-8.45929c-1.74658,-5.6223 -2.2265,-9.58672 -0.31177,-9.9986c1.91473,-0.4119 2.88276,2.15564 4.38189,8.03424c1.49911,5.87861 2.7847,10.42365 2.7847,10.42365z" data-paper-data="{&quot;index&quot;:null}" fill="#ffffff" stroke="#000000" stroke-width="1" stroke-linecap="butt"/><path d="M213.70682,124.92644c0,0 -3.78393,-2.63231 -4.9731,-8.08255c-0.66337,-3.04032 1.96962,-2.44362 1.96962,-2.44362" fill="none" stroke="#000000" stroke-width="0.25" stroke-linecap="round"/><path d="M216.18427,118.053c-0.31626,-4.88216 4.1163,-9.29082 9.47866,-9.63819c5.36235,-0.34737 9.33501,3.521 9.65128,8.40317c0.10355,1.5986 -0.22684,3.12523 -0.90635,4.46782c-0.46708,0.92285 -1.05161,1.50784 -1.75784,1.88649c-4.52404,2.42562 -8.28911,2.26611 -13.04554,0.33558c-1.06549,-0.43246 -1.93824,-1.13177 -2.51418,-2.23337c-0.51312,-0.98146 -0.83128,-2.06763 -0.90602,-3.22149z" fill="#000000" stroke="#000000" stroke-width="1.4" stroke-linecap="butt"/><path d="M217.65627,117.94704c-0.26756,-4.13039 3.48246,-7.86018 8.01911,-8.15407c4.53663,-0.29388 7.89757,2.97883 8.16514,7.10923c0.26756,4.13039 -3.0265,5.23888 -7.56314,5.53276c-4.53663,0.29388 -8.35355,-0.35752 -8.62111,-4.48791z" fill="#ffffff" stroke="none" stroke-width="0" stroke-linecap="butt"/><path d="M243.15583,115.91351c-0.18378,-4.88895 3.73795,-9.18293 9.03913,-9.60359c5.30117,-0.42066 9.5592,3.22 9.9462,8.09707c0.387,4.87707 -3.15612,9.35 -8.94609,9.88051c-5.50731,0.50462 -9.8473,-3.26821 -10.03924,-8.37398z" fill="#000000" stroke="#000000" stroke-width="1.4" stroke-linecap="butt"/><path d="M244.62671,115.81886c-0.15532,-4.13199 3.1592,-7.76113 7.63959,-8.11666c4.48039,-0.35553 8.07914,2.72144 8.40623,6.84339c0.32708,4.12195 -2.66746,7.90233 -7.56097,8.35069c-4.65461,0.42649 -8.32264,-2.76219 -8.48486,-7.07743z" fill="#ffffff" stroke="none" stroke-width="0" stroke-linecap="butt"/><path d="M218.51598,107.29101c0,0 3.21518,-2.07985 7.82677,-2.91002c5.11022,-0.91995 7.73864,-0.68056 7.73864,-0.68056l0.62144,4.10116c0,0 -3.87736,-0.37511 -8.03405,0.11475c-5.55906,0.65512 -6.51071,1.95407 -10.71399,2.74731c-3.6016,0.67969 -6.70355,0.69128 -6.70355,0.69128l-0.12323,-1.22564c0,0 3.58976,-0.21064 5.2119,-0.48215c1.33886,-0.2241 3.88904,-1.24963 3.88904,-1.24963z" fill="#000000" stroke="none" stroke-width="1.5" stroke-linecap="butt"/><path d="M267.44484,113.97755c0.55323,-6.04146 1.10423,-8.72953 3.05996,-8.62477c1.95573,0.10476 2.10704,4.09525 1.26902,9.92264c-0.79646,5.53833 -5.4349,9.4345 -5.4349,9.4345c0,0 0.55269,-4.69092 1.10593,-10.73238z" data-paper-data="{&quot;index&quot;:null}" fill="#ffffff" stroke="#000000" stroke-width="1" stroke-linecap="butt"/><path d="M267.53438,109.8906c0,0 2.50593,-1.0045 2.33036,2.10241c-0.31472,5.56958 -3.63616,8.76571 -3.63616,8.76571" data-paper-data="{&quot;index&quot;:null}" fill="none" stroke="#000000" stroke-width="0.25" stroke-linecap="round"/><path d="M236.50015,57.93844c0,0 2.74354,-1.44322 5.75644,-3.7159c3.01289,-2.2727 6.21869,-5.31718 6.21869,-5.31718c0,0 0.20671,7.56843 -2.80619,9.84112c-3.01289,2.2727 -9.16892,-0.80804 -9.16892,-0.80804z" data-paper-data="{&quot;index&quot;:null}" fill="#000000" stroke="none" stroke-width="0" stroke-linecap="butt"/><g stroke="#000000" stroke-width="0.5" stroke-linecap="butt"><path d="M223.66266,118.13331c-0.38661,-1.44554 0.47182,-2.93078 1.91736,-3.31738c1.44555,-0.38661 2.93079,0.47182 3.31738,1.91736c0.38661,1.44554 -0.47182,2.93078 -1.91736,3.31738c-1.44555,0.38661 -2.93079,-0.47182 -3.31738,-1.91736z" fill="#000000"/><path d="M224.35716,118.0266c-0.29816,-1.11481 0.36387,-2.26023 1.47868,-2.55839c1.11481,-0.29816 2.26023,0.36388 2.55839,1.47869c0.29816,1.11481 -0.36388,2.26023 -1.47869,2.55838c-1.11481,0.29816 -2.26022,-0.36388 -2.55838,-1.47868z" fill="#ffffff"/></g><g stroke="#000000" stroke-width="0.5" stroke-linecap="butt"><path d="M248.60577,115.90372c-0.14468,-2.23331 1.54849,-4.16102 3.78179,-4.30569c2.23331,-0.14468 4.16103,1.5485 4.30569,3.7818c0.14468,2.23331 -1.54849,4.16102 -3.78179,4.30569c-2.23331,0.14468 -4.16103,-1.54849 -4.30569,-3.78179z" fill="#000000"/><path d="M249.45063,115.8672c-0.11157,-1.72233 1.1942,-3.209 2.91652,-3.32057c1.72234,-0.11157 3.209,1.19421 3.32057,2.91654c0.11157,1.72233 -1.1942,3.20899 -2.91653,3.32056c-1.72233,0.11157 -3.209,-1.1942 -3.32056,-2.91653z" fill="#ffffff"/></g><g fill="#ffffff" stroke="#000000" stroke-linecap="butt"><path d="M255.86805,146.23848c3.0509,0.96433 7.37432,1.70685 7.36833,1.87544c-0.00762,0.21395 -10.38292,1.06333 -13.58456,1.72762c-2.683,0.55667 -6.6105,1.23996 -6.6105,1.23996c0,0 -7.17432,-0.58804 -13.42574,-1.37256c-5.0103,-0.62877 -10.49903,-0.82145 -10.51716,-0.91382c-0.02445,-0.12457 3.79887,-1.01877 6.69029,-1.93764c1.10231,-0.58695 5.30303,-1.91673 5.30303,-1.91673c0,0 4.91761,-0.67435 7.63019,-0.03324c2.90651,0.68695 3.02251,2.21022 3.27124,2.21376c0,0 1.0402,-1.8387 2.19238,-2.28787c1.15218,-0.44917 5.03241,-0.8227 5.46983,-0.69914z" stroke-width="1.4"/><path d="M231.4328,150.16915c5.1571,0.615 11.35438,0.84224 11.35438,0.84224c0,0 6.39629,-1.01531 9.02239,-1.50612c2.03595,-0.38052 11.12317,-1.60406 11.1972,-1.23605c0.07238,0.35982 -8.0474,12.58649 -20.16159,13.10683c-13.76012,0.67027 -23.92491,-12.25573 -23.90076,-12.42735c0.02415,-0.17162 7.33132,0.60545 12.48841,1.22046z" stroke-width="1.9"/></g><path d="M263.65618,224.53238c-0.01615,0.05744 -0.0307,0.11882 -0.04401,0.18353c0.25905,0.1743 0.50528,0.50318 0.71495,1.03269c0.80313,2.02825 -1.41072,3.92671 -2.69159,2.52999c-0.07586,-0.08272 -0.1417,-0.17065 -0.19825,-0.26313c-1.27533,-0.17205 -1.02456,-2.03198 -0.98924,-3.29041c0.4697,-0.8896 1.41404,-2.04968 1.75631,-2.9871c0.68593,-1.87868 0.44948,-5.0348 0.21713,-7.0192c-0.45323,-3.87087 0.58004,-7.37058 -1.24136,-10.90138c0.58436,-4.25215 1.23574,-8.59187 1.23574,-12.91598c0,-3.20583 -0.82848,-6.27218 0.03849,-9.46828c0,0 0.23717,-0.84345 0.94868,-0.5623c0.71151,0.28115 0.47434,1.1246 0.47434,1.1246c-0.80478,2.72996 0.03044,5.3155 0.03849,8.0169c0.01317,4.42156 -0.35359,9.19106 -1.26426,13.45998c1.419,2.25792 1.26426,5.45579 1.26426,8.17423c0,4.00802 0.41164,7.38525 -0.69432,10.74588c0.26185,0.13871 0.44432,0.45016 0.44432,0.81212v1.18544h-0.04657z" fill="#ffffff" stroke="none" stroke-width="0.5" stroke-linecap="butt"/><path d="M218.03394,224.38997h-0.04657v-1.18544c0,-0.36197 0.18247,-0.67341 0.44432,-0.81212c-1.10596,-3.36063 -0.69432,-6.73786 -0.69432,-10.74588c0,-2.71845 -0.15474,-5.91631 1.26426,-8.17423c-0.91067,-4.26892 -1.27743,-9.03842 -1.26426,-13.45998c0.00805,-2.7014 0.84327,-5.28694 0.03849,-8.0169c0,0 -0.23717,-0.84345 0.47434,-1.1246c0.71151,-0.28115 0.94868,0.5623 0.94868,0.5623c0.86697,3.1961 0.03849,6.26245 0.03849,9.46828c0,4.32411 0.65138,8.66383 1.23574,12.91598c-1.8214,3.5308 -0.78813,7.03051 -1.24136,10.90138c-0.23235,1.9844 -0.4688,5.14052 0.21713,7.0192c0.34226,0.93742 1.28661,2.09751 1.75631,2.9871c0.03532,1.25844 0.28609,3.11836 -0.98924,3.29041c-0.05655,0.09248 -0.12239,0.18041 -0.19825,0.26313c-1.28087,1.39672 -3.49472,-0.50173 -2.69159,-2.52999c0.20967,-0.52952 0.4559,-0.85839 0.71495,-1.03269c-0.01332,-0.06471 -0.02786,-0.12609 -0.04401,-0.18353z" data-paper-data="{&quot;index&quot;:null}" fill="#ffffff" stroke="none" stroke-width="0.5" stroke-linecap="butt"/><path d="M162.73021,129.81066c-1.06066,-1.06066 0,-2.12132 0,-2.12132l1.22861,-1.18742c1.65452,-1.0925 2.8778,-2.83206 4.72522,-3.6237c0.3821,-0.16373 0.99383,-0.36527 1.55668,-0.46462c-0.20403,-0.19653 -0.40812,-0.41118 -0.59341,-0.61552l-0.61632,-0.19769c-0.95607,-0.25188 -1.91215,-0.50375 -2.86822,-0.75563c-2.61218,-0.74626 -4.95578,-1.69682 -7.38531,-2.68537c-1.38721,-0.56444 -3.05249,0.00577 -4.46633,-0.48819c-3.0278,-1.05782 -3.32274,-3.53349 -6.04069,-4.51439c-2.31792,-0.83653 -4.73078,-0.19499 -7.127,-0.41409c-5.7553,-0.52623 -12.67465,-2.76891 -16.10065,-7.66069c0,0 -0.83205,-1.24808 0.41603,-2.08013c1.24808,-0.83205 2.08013,0.41603 2.08013,0.41603c1.23161,1.99725 3.26966,2.21931 5.17504,3.64974c4.12918,3.09991 9.26572,2.10344 14.26016,2.69355c1.40897,0.16647 3.69248,0.94008 4.77785,1.83713c1.22728,1.01435 1.9992,2.75444 3.51861,3.23041c1.45128,0.45463 3.10863,-0.01938 4.53367,0.51181c2.38029,0.88727 4.61174,1.88514 7.15298,2.61128c0.01376,0.00363 0.02752,0.00726 0.04127,0.01089c-0.54069,-0.82688 -0.97597,-1.49305 -0.99238,-1.51519c-1.93626,-2.61145 -4.92721,-5.46399 -5.28997,-8.89308l-0.85203,-2.84008c-0.04757,-0.14623 -0.07328,-0.30232 -0.07328,-0.46442c0,-0.82843 0.67157,-1.5 1.5,-1.5c0.55597,0 1.04129,0.30247 1.30038,0.75183l1.428,2.37999c3.42725,3.73985 5.80171,7.25022 7.27463,11.63588l0.27554,-0.11021l1.10154,2.75385c0.06117,0.14323 0.1007,0.29792 0.11447,0.45995c1.08889,1.05651 2.14248,2.34485 1.22231,4.00578c-0.10858,0.19599 -3.52596,0.74433 -4.11003,0.99471c-1.59684,0.68452 -2.8212,2.39937 -4.27478,3.3763l-0.77139,0.81258c0,0 -1.06066,1.06066 -2.12132,0z" fill="#9b9b44" stroke="none" stroke-width="0.5" stroke-linecap="butt"/><text transform="translate(22.29087,60.04269) scale(0.30375,0.30375)" font-size="40" xml:space="preserve" fill="#9b9b44" fill-rule="nonzero" stroke="none" stroke-width="1" stroke-linecap="butt" stroke-linejoin="miter" stroke-miterlimit="10" stroke-dasharray="" stroke-dashoffset="0" font-family="Sans Serif" font-weight="normal" text-anchor="start" style="mix-blend-mode: normal"><tspan x="0" dy="0">gross mustard</tspan><tspan x="0" dy="46.15px">guy that needs to be</tspan><tspan x="0" dy="46.15px">stampede'd (delete this)</tspan></text></g></g></svg>