<svg version="1.1" xmlns="http://www.w3.org/2000/svg" xmlns:xlink="http://www.w3.org/1999/xlink" width="638.59915" height="273.01001" viewBox="0,0,638.59915,273.01001"><defs><linearGradient x1="2.42905" y1="98.82529" x2="2.42905" y2="128.70831" gradientUnits="userSpaceOnUse" id="color-1"><stop offset="0" stop-color="#a0a047"/><stop offset="1" stop-color="#d9d95f"/></linearGradient><linearGradient x1="128.80339" y1="98.82529" x2="128.80339" y2="128.70831" gradientUnits="userSpaceOnUse" id="color-2"><stop offset="0" stop-color="#a0a047"/><stop offset="1" stop-color="#d9d95f"/></linearGradient><linearGradient x1="65.24362" y1="208.5425" x2="65.24362" y2="320.18096" gradientUnits="userSpaceOnUse" id="color-3"><stop offset="0" stop-color="#a0a047"/><stop offset="1" stop-color="#d9d95f"/></linearGradient><linearGradient x1="65.71723" y1="210.35488" x2="65.71723" y2="236.25854" gradientUnits="userSpaceOnUse" id="color-4"><stop offset="0" stop-color="#f5f3cd"/><stop offset="1" stop-color="#e7e77e"/></linearGradient><linearGradient x1="65.30867" y1="124.8541" x2="65.30867" y2="226.84823" gradientUnits="userSpaceOnUse" id="color-5"><stop offset="0" stop-color="#a0a047"/><stop offset="1" stop-color="#d9d95f"/></linearGradient><linearGradient x1="65.24361" y1="175.88564" x2="65.24361" y2="226.13259" gradientUnits="userSpaceOnUse" id="color-6"><stop offset="0" stop-color="#f5f3cd"/><stop offset="1" stop-color="#e7e77e"/></linearGradient><linearGradient x1="42.29919" y1="156.35572" x2="42.29919" y2="176.6773" gradientUnits="userSpaceOnUse" id="color-7"><stop offset="0" stop-color="#a0a047"/><stop offset="1" stop-color="#d9d95f"/></linearGradient><linearGradient x1="88.18804" y1="156.35572" x2="88.18804" y2="176.67063" gradientUnits="userSpaceOnUse" id="color-8"><stop offset="0" stop-color="#a0a047"/><stop offset="1" stop-color="#d9d95f"/></linearGradient><linearGradient x1="4.94388" y1="157.09001" x2="4.94388" y2="195.43048" gradientUnits="userSpaceOnUse" id="color-9"><stop offset="0" stop-color="#a0a047"/><stop offset="1" stop-color="#d9d95f"/></linearGradient><linearGradient x1="126.29311" y1="157.09001" x2="126.29311" y2="195.43048" gradientUnits="userSpaceOnUse" id="color-10"><stop offset="0" stop-color="#a0a047"/><stop offset="1" stop-color="#d9d95f"/></linearGradient><linearGradient x1="39.34686" y1="172.60377" x2="39.34686" y2="195.48887" gradientUnits="userSpaceOnUse" id="color-11"><stop offset="0" stop-color="#000000"/><stop offset="1" stop-color="#000000" stop-opacity="0"/></linearGradient><linearGradient x1="39.34686" y1="195.48887" x2="39.34686" y2="172.60377" gradientUnits="userSpaceOnUse" id="color-12"><stop offset="0" stop-color="#000000"/><stop offset="1" stop-color="#000000" stop-opacity="0"/></linearGradient><linearGradient x1="92.90578" y1="172.26474" x2="92.90578" y2="195.14983" gradientUnits="userSpaceOnUse" id="color-13"><stop offset="0" stop-color="#000000"/><stop offset="1" stop-color="#000000" stop-opacity="0"/></linearGradient><linearGradient x1="92.90578" y1="195.14983" x2="92.90578" y2="172.26473" gradientUnits="userSpaceOnUse" id="color-14"><stop offset="0" stop-color="#000000"/><stop offset="1" stop-color="#000000" stop-opacity="0"/></linearGradient><linearGradient x1="313.67229" y1="60.39474" x2="316.72543" y2="90.29527" gradientUnits="userSpaceOnUse" id="color-15"><stop offset="0" stop-color="#c4c456"/><stop offset="1" stop-color="#e3e364"/></linearGradient><linearGradient x1="521.53624" y1="121.16086" x2="534.04246" y2="157.41533" gradientUnits="userSpaceOnUse" id="color-16"><stop offset="0" stop-color="#ecec68"/><stop offset="1" stop-color="#292912"/></linearGradient></defs><g transform="translate(13.51247,-56.07176)"><g data-paper-data="{&quot;isPaintingLayer&quot;:true}" stroke-miterlimit="10" stroke-dasharray="" stroke-dashoffset="0" style="mix-blend-mode: normal"><g fill-rule="nonzero" stroke="#000000" stroke-width="2" stroke-linecap="butt" stroke-linejoin="miter"><path d="M42.09854,157.82187l-41.86229,-41.86229l4.38557,-4.38556l41.86228,41.86229z" fill="#6e6e30"/><path d="M-8.1362,124.33204c-5.83502,-5.83502 -5.83502,-15.29547 0,-21.13049c5.83502,-5.83502 15.29547,-5.83502 21.13049,0c5.83502,5.83502 5.83502,15.29547 0,21.13049c-5.83502,5.83502 -15.29547,5.83502 -21.13049,0z" fill="url(#color-1)"/></g><g data-paper-data="{&quot;index&quot;:null}" fill-rule="nonzero" stroke="#000000" stroke-width="2" stroke-linecap="butt" stroke-linejoin="miter"><path d="M84.74832,153.4363l41.86229,-41.86228l4.38556,4.38556l-41.86228,41.86229z" fill="#6e6e30"/><path d="M118.23815,124.33204c-5.83502,-5.83502 -5.83502,-15.29547 0,-21.13049c5.83502,-5.83502 15.29547,-5.83502 21.13049,0c5.83502,5.83502 5.83502,15.29547 0,21.13049c-5.83502,5.83502 -15.29547,5.83502 -21.13049,0z" fill="url(#color-2)"/></g><path d="M37.12257,320.18095l12.807,-111.50491l31.95503,-0.13353l11.48006,111.63846z" fill="url(#color-3)" fill-rule="nonzero" stroke="#000000" stroke-width="2" stroke-linecap="butt" stroke-linejoin="miter"/><path d="M48.07517,232.7415l2.63993,-22.2665l30.30371,-0.12012l2.34047,22.07896c0,0 -6.35614,3.54878 -18.23347,3.81401c-10.55878,0.23579 -17.05065,-3.50634 -17.05065,-3.50634z" fill="url(#color-4)" fill-rule="nonzero" stroke="#000000" stroke-width="0" stroke-linecap="butt" stroke-linejoin="miter"/><path d="M10.98048,175.85116c0,-28.1649 24.32357,-50.99706 54.3282,-50.99706c30.00463,0 54.3282,22.83217 54.3282,50.99706c0,28.1649 -24.32357,50.99706 -54.3282,50.99706c-30.00463,0 -54.3282,-22.83217 -54.3282,-50.99706z" fill="url(#color-5)" fill-rule="nonzero" stroke="#000000" stroke-width="2" stroke-linecap="butt" stroke-linejoin="miter"/><path d="M11.59201,175.8967c0,-0.61569 4.40351,47.29359 53.58685,48.15194c46.99262,0.82012 53.71635,-49.01363 53.71635,-48.15194c0,27.74452 -24.02065,50.23589 -53.6516,50.23589c-29.63095,0 -53.6516,-22.49138 -53.6516,-50.23589z" fill="url(#color-6)" fill-rule="nonzero" stroke="#000000" stroke-width="0" stroke-linecap="butt" stroke-linejoin="miter"/><path d="M22.44053,176.21439c0,-10.96763 8.89103,-19.85866 19.85866,-19.85866c10.96763,0 19.85866,8.89103 19.85866,19.85866c0,10.96763 -8.89103,19.85866 -19.85866,19.85866c-10.96763,0 -19.85866,-8.89103 -19.85866,-19.85866z" fill="#ffffff" fill-rule="nonzero" stroke="#000000" stroke-width="2" stroke-linecap="butt" stroke-linejoin="miter"/><path d="M28.41604,175.98127c0,-7.72004 6.25832,-13.97835 13.97834,-13.97835c7.72004,0 13.97835,6.25833 13.97835,13.97835c0,7.72004 -6.25833,13.97835 -13.97835,13.97835c-7.72004,0 -13.97834,-6.25833 -13.97834,-13.97835z" fill="#000000" fill-rule="nonzero" stroke="none" stroke-width="0" stroke-linecap="butt" stroke-linejoin="miter"/><path d="M88.18803,196.07304c-10.96763,0 -19.85866,-8.89103 -19.85866,-19.85866c0,-10.96763 8.89103,-19.85866 19.85866,-19.85866c10.96763,0 19.85866,8.89103 19.85866,19.85866c0,10.96763 -8.89103,19.85866 -19.85866,19.85866z" data-paper-data="{&quot;index&quot;:null}" fill="#ffffff" fill-rule="nonzero" stroke="#000000" stroke-width="2" stroke-linecap="butt" stroke-linejoin="miter"/><path d="M88.09284,189.95962c-7.72003,0 -13.97834,-6.25833 -13.97834,-13.97835c0,-7.72004 6.25833,-13.97835 13.97834,-13.97835c7.72003,0 13.97834,6.25833 13.97834,13.97835c0,7.72004 -6.25833,13.97835 -13.97834,13.97835z" data-paper-data="{&quot;index&quot;:null}" fill="#000000" fill-rule="nonzero" stroke="none" stroke-width="0" stroke-linecap="butt" stroke-linejoin="miter"/><path d="M22.44053,176.21439c0,-10.96763 8.89103,-19.85866 19.85866,-19.85866c10.96763,0 19.85866,8.89103 19.85866,19.85866c0,0 -39.71734,1.04158 -39.71734,0z" fill="url(#color-7)" fill-rule="nonzero" stroke="#000000" stroke-width="2" stroke-linecap="butt" stroke-linejoin="miter"/><path d="M68.32938,176.21439c0,-10.96763 8.89103,-19.85866 19.85866,-19.85866c10.96763,0 19.85866,8.89103 19.85866,19.85866c0,1.02657 -39.71734,0 -39.71734,0z" data-paper-data="{&quot;index&quot;:null}" fill="url(#color-8)" fill-rule="nonzero" stroke="#000000" stroke-width="2" stroke-linecap="butt" stroke-linejoin="miter"/><path d="M9.94168,162.57169l-6.24179,2.53724c0,0 -0.52422,-64.75534 62.14652,-64.84051c62.36103,-0.08475 61.33238,65.40435 61.33238,65.40435l-7.32732,-3.38298c0,0 0.00381,-54.85653 -54.00505,-56.10115c-52.30402,-1.20532 -55.90473,56.38306 -55.90473,56.38306z" fill="#6e6e30" fill-rule="nonzero" stroke="#000000" stroke-width="2" stroke-linecap="butt" stroke-linejoin="miter"/><path d="M75.91404,209.52054c0,0 -3.46475,3.38298 -10.91914,3.5038c-6.14506,0.0996 -10.31719,-3.5038 -10.31719,-3.5038" fill="none" fill-rule="nonzero" stroke="#000000" stroke-width="2" stroke-linecap="round" stroke-linejoin="miter"/><path d="M-3.98231,176.26025c0,-10.58744 7.67983,-19.17024 17.15338,-19.17024c0.85779,0 1.00335,38.34048 0,38.34048c-9.47355,0 -17.15338,-8.58281 -17.15338,-19.17023z" fill="url(#color-9)" fill-rule="nonzero" stroke="#000000" stroke-width="2" stroke-linecap="butt" stroke-linejoin="miter"/><path d="M8.76361,196.55815v-40.87772h8.57669v40.87772z" fill="#6e6e30" fill-rule="nonzero" stroke="#000000" stroke-width="2" stroke-linecap="butt" stroke-linejoin="miter"/><path d="M118.0659,195.43048c-1.00335,0 -0.85778,-38.34048 0,-38.34048c9.47355,0 17.15339,8.58281 17.15339,19.17024c0,10.58743 -7.67984,19.17023 -17.15339,19.17023z" data-paper-data="{&quot;index&quot;:null}" fill="url(#color-10)" fill-rule="nonzero" stroke="#000000" stroke-width="2" stroke-linecap="butt" stroke-linejoin="miter"/><path d="M113.59009,196.55815v-40.87772h8.57669v40.87772z" fill="#6e6e30" fill-rule="nonzero" stroke="#000000" stroke-width="2" stroke-linecap="butt" stroke-linejoin="miter"/><path d="M80.14199,131.10828l4.08777,18.04258l-20.15694,-9.72608l1.12766,9.58513l-19.45216,-15.22343" fill="none" fill-rule="nonzero" stroke="#000000" stroke-width="2" stroke-linecap="round" stroke-linejoin="miter"/><path d="M33.12877,151.84974c0,0 5.67407,-4.37185 9.97744,-5.38195c4.30338,-1.0101 10.43154,0.59149 10.43154,0.59149c0,0 -6.79821,-0.05098 -10.12157,0.72909c-3.47304,0.81521 -10.28742,4.06136 -10.28742,4.06136z" fill="#000000" fill-rule="nonzero" stroke="none" stroke-width="0" stroke-linecap="butt" stroke-linejoin="miter"/><path d="M87.20112,147.78838c-3.32336,-0.78007 -10.12157,-0.72909 -10.12157,-0.72909c0,0 6.12816,-1.60159 10.43154,-0.59149c4.30337,1.0101 9.97744,5.38195 9.97744,5.38195c0,0 -6.81438,-3.24616 -10.28742,-4.06136z" data-paper-data="{&quot;index&quot;:null}" fill="#000000" fill-rule="nonzero" stroke="none" stroke-width="0" stroke-linecap="butt" stroke-linejoin="miter"/><g fill-rule="nonzero" stroke-linecap="butt" stroke-linejoin="miter"><g stroke="#000000" stroke-width="1"><path d="M17.93931,195.48887v-22.88511h40.8908l2.24499,23.05462z" fill="url(#color-11)"/><path d="M58.83014,172.60377l1.92427,22.88511c0,0 -14.7933,0.48108 -21.96879,0.48108c-7.0953,0 -20.84628,-0.48108 -20.84628,-0.48108v-22.88511z" data-paper-data="{&quot;index&quot;:null}" fill="url(#color-12)"/></g><g data-paper-data="{&quot;index&quot;:null}" stroke="#000000" stroke-width="1"><path d="M71.17756,195.31934l2.24499,-23.05462h40.8908l-4.81068,23.05462z" fill="url(#color-13)"/><path d="M114.95474,172.26473l-5.29175,23.22415c0,0 -12.4206,0.85036 -18.75298,0.79411c-6.38871,-0.05677 -19.41178,-1.13316 -19.41178,-1.13316c0,0 0.12465,-17.65894 0.14724,-20.85604c0.00674,-0.95465 0.01313,-1.85956 0.01313,-1.85956z" data-paper-data="{&quot;index&quot;:null}" fill="url(#color-14)"/></g><path d="M58.99048,177.01126v-5.08558h13.63026v5.08558c0,0 -4.63712,-2.37326 -6.89531,-2.37326c-2.28493,0 -6.73495,2.37326 -6.73495,2.37326z" fill="#000000" stroke="none" stroke-width="0"/></g><path d="M224.38614,168.86721c-4.98966,-4.20008 -5.43585,-11.88018 -0.9966,-17.15395c4.43925,-5.27377 40.4419,-29.70668 40.4419,-29.70668c0,0 -17.93352,39.64274 -22.37277,44.91652c-4.43925,5.27378 -12.08289,6.14418 -17.07254,1.9441z" data-paper-data="{&quot;index&quot;:null}" fill="#989843" fill-rule="nonzero" stroke="#000000" stroke-width="2" stroke-linecap="butt" stroke-linejoin="miter"/><path d="M143.59577,166.92309c-4.43925,-5.27377 -22.37277,-44.91652 -22.37277,-44.91652c0,0 36.00266,24.43289 40.44191,29.70668c4.43925,5.27378 3.99306,12.95387 -0.9966,17.15395c-4.98966,4.20008 -12.6333,3.32967 -17.07254,-1.9441z" fill="#989843" fill-rule="nonzero" stroke="#000000" stroke-width="2" stroke-linecap="butt" stroke-linejoin="miter"/><path d="M164.43391,322.16789l12.68267,-110.4224l31.6448,-0.13224l11.36861,110.55464z" fill="#c5c556" fill-rule="nonzero" stroke="#000000" stroke-width="2" stroke-linecap="butt" stroke-linejoin="miter"/><path d="M175.28019,235.57733l2.6143,-22.05033l30.00951,-0.11896l2.31775,21.86461c0,0 -6.29444,3.51432 -18.05645,3.77698c-10.45628,0.2335 -16.88512,-3.4723 -16.88512,-3.4723z" fill="#acac4c" fill-rule="nonzero" stroke="#000000" stroke-width="0" stroke-linecap="butt" stroke-linejoin="miter"/><path d="M138.54563,179.23929c0,-27.89147 24.08743,-50.50197 53.80076,-50.50197c29.71334,0 53.80076,22.61051 53.80076,50.50197c0,27.89147 -24.08743,50.50197 -53.80076,50.50197c-29.71334,0 -53.80076,-22.61051 -53.80076,-50.50197z" fill="#c5c556" fill-rule="nonzero" stroke="#000000" stroke-width="2" stroke-linecap="butt" stroke-linejoin="miter"/><path d="M139.15121,179.28438c0,-0.60972 4.36076,46.83446 53.06661,47.68447c46.5364,0.81216 53.19486,-48.53779 53.19486,-47.68447c0,27.47517 -23.78745,49.74819 -53.13074,49.74819c-29.34329,0 -53.13074,-22.27303 -53.13074,-49.74819z" fill="#acac4c" fill-rule="nonzero" stroke="#000000" stroke-width="0" stroke-linecap="butt" stroke-linejoin="miter"/><path d="M149.8944,179.59898c0,-10.86116 8.80471,-19.66587 19.66587,-19.66587c10.86116,0 19.66587,8.80471 19.66587,19.66587c0,10.86116 -8.80471,19.66587 -19.66587,19.66587c-10.86116,0 -19.66587,-8.80471 -19.66587,-19.66587z" fill="#ffffff" fill-rule="nonzero" stroke="#000000" stroke-width="2" stroke-linecap="butt" stroke-linejoin="miter"/><path d="M155.81192,179.36813c0,-7.64509 6.19756,-13.84265 13.84264,-13.84265c7.64509,0 13.84265,6.19757 13.84265,13.84265c0,7.64509 -6.19757,13.84265 -13.84265,13.84265c-7.64509,0 -13.84264,-6.19757 -13.84264,-13.84265z" fill="#000000" fill-rule="nonzero" stroke="none" stroke-width="0" stroke-linecap="butt" stroke-linejoin="miter"/><path d="M181.81863,212.58178c0,0 6.92441,-0.33501 10.4121,-0.33501c3.52203,0 10.61806,0.33501 10.61806,0.33501" fill="none" fill-rule="nonzero" stroke="#000000" stroke-width="2" stroke-linecap="round" stroke-linejoin="miter"/><path d="M215.00362,199.26484c-10.86116,0 -19.66587,-8.80471 -19.66587,-19.66587c0,-10.86116 8.80471,-19.66587 19.66587,-19.66587c10.86116,0 19.66587,8.80471 19.66587,19.66587c0,10.86116 -8.80471,19.66587 -19.66587,19.66587z" data-paper-data="{&quot;index&quot;:null}" fill="#ffffff" fill-rule="nonzero" stroke="#000000" stroke-width="2" stroke-linecap="butt" stroke-linejoin="miter"/><path d="M214.90935,193.21079c-7.64508,0 -13.84264,-6.19757 -13.84264,-13.84265c0,-7.64509 6.19757,-13.84265 13.84264,-13.84265c7.64508,0 13.84264,6.19757 13.84264,13.84265c0,7.64509 -6.19757,13.84265 -13.84264,13.84265z" data-paper-data="{&quot;index&quot;:null}" fill="#000000" fill-rule="nonzero" stroke="none" stroke-width="0" stroke-linecap="butt" stroke-linejoin="miter"/><path d="M149.8944,179.59898c0,-10.86116 8.80471,-19.66587 19.66587,-19.66587c10.86116,0 19.66587,8.80471 19.66587,19.66587c0,0 -39.33175,1.03147 -39.33175,0z" fill="#c5c556" fill-rule="nonzero" stroke="#000000" stroke-width="2" stroke-linecap="butt" stroke-linejoin="miter"/><path d="M195.33776,179.59898c0,-10.86116 8.80471,-19.66587 19.66587,-19.66587c10.86116,0 19.66587,8.80471 19.66587,19.66587c0,1.0166 -39.33175,0 -39.33175,0z" data-paper-data="{&quot;index&quot;:null}" fill="#c5c556" fill-rule="nonzero" stroke="#000000" stroke-width="2" stroke-linecap="butt" stroke-linejoin="miter"/><path d="M156.08999,151.12253c0,0 9.89323,-1.66334 15.87705,-0.07555c5.98383,1.58779 12.50153,7.60571 12.50153,7.60571c0,0 -8.36765,-4.54326 -12.98877,-5.76944c-4.82924,-1.28141 -15.38981,-1.76071 -15.38981,-1.76071z" fill="#000000" fill-rule="nonzero" stroke="none" stroke-width="0" stroke-linecap="butt" stroke-linejoin="miter"/><path d="M213.24165,152.86569c-4.64459,1.134 -13.10101,5.50984 -13.10101,5.50984c0,0 6.63616,-5.88703 12.6504,-7.35544c6.01422,-1.46841 15.87241,0.39146 15.87241,0.39146c0,0 -10.56801,0.26906 -15.4218,1.45413z" data-paper-data="{&quot;index&quot;:null}" fill="#000000" fill-rule="nonzero" stroke="none" stroke-width="0" stroke-linecap="butt" stroke-linejoin="miter"/><path d="M184.69291,130.8433c0,-2.94085 7.62157,-20.80622 7.62157,-20.80622c0,0 7.62157,17.86539 7.62157,20.80622c0,2.94085 -3.41229,5.32487 -7.62157,5.32487c-4.20928,0 -7.62157,-2.38403 -7.62157,-5.32487z" fill="#989843" fill-rule="nonzero" stroke="#000000" stroke-width="2" stroke-linecap="butt" stroke-linejoin="miter"/><path d="M213.192,136.03537c1.15011,-2.70662 15.15151,-16.16847 15.15151,-16.16847c0,0 0.02771,19.42318 -1.12241,22.1298c-1.15011,2.70662 -5.22299,3.56628 -9.09701,1.92011c-3.87404,-1.64618 -6.0822,-5.17481 -4.93209,-7.88143z" fill="#989843" fill-rule="nonzero" stroke="#000000" stroke-width="2" stroke-linecap="butt" stroke-linejoin="miter"/><path d="M168.388,143.63763c-3.87404,1.64618 -7.94691,0.78651 -9.09702,-1.92011c-1.15011,-2.70662 -1.12241,-22.1298 -1.12241,-22.1298c0,0 14.0014,13.46185 15.15151,16.16847c1.15011,2.70662 -1.05806,6.23526 -4.93209,7.88143z" data-paper-data="{&quot;index&quot;:null}" fill="#989843" fill-rule="nonzero" stroke="#000000" stroke-width="2" stroke-linecap="butt" stroke-linejoin="miter"/><path d="M290.63751,325.7007l12.81639,-111.58662l31.97844,-0.13363l11.48847,111.72026z" fill="#c6c657" fill-rule="nonzero" stroke="#000000" stroke-width="2" stroke-linecap="butt" stroke-linejoin="miter"/><path d="M301.31196,238.19719l2.64186,-22.28282l30.32591,-0.12021l2.34219,22.09514c0,0 -6.3608,3.55138 -18.24683,3.8168c-10.56652,0.23596 -17.06315,-3.50891 -17.06315,-3.50891z" fill="#9e9e45" fill-rule="nonzero" stroke="#000000" stroke-width="0" stroke-linecap="butt" stroke-linejoin="miter"/><path d="M263.6299,181.26516c0,-28.18554 24.34139,-51.03443 54.368,-51.03443c30.02661,0 54.368,22.8489 54.368,51.03443c0,28.18554 -24.34139,51.03443 -54.368,51.03443c-30.02661,0 -54.368,-22.8489 -54.368,-51.03443z" fill="#c6c657" fill-rule="nonzero" stroke="#000000" stroke-width="2" stroke-linecap="butt" stroke-linejoin="miter"/><path d="M264.24188,181.31073c0,-0.61615 4.40674,47.32825 53.62611,48.18722c47.02705,0.82072 53.75571,-49.04954 53.75571,-48.18722c0,27.76485 -24.03825,50.2727 -53.69091,50.2727c-29.65266,0 -53.69091,-22.50786 -53.69091,-50.2727z" fill="#9e9e45" fill-rule="nonzero" stroke="#000000" stroke-width="0" stroke-linecap="butt" stroke-linejoin="miter"/><path d="M275.09835,181.62865c0,-10.97567 8.89755,-19.87321 19.87321,-19.87321c10.97567,0 19.87321,8.89755 19.87321,19.87321c0,10.97567 -8.89755,19.87321 -19.87321,19.87321c-10.97567,0 -19.87321,-8.89755 -19.87321,-19.87321z" fill="#ffffff" fill-rule="nonzero" stroke="#000000" stroke-width="2" stroke-linecap="butt" stroke-linejoin="miter"/><path d="M280.51805,183.39018c0,-7.72569 6.2629,-13.9886 13.98859,-13.9886c7.72569,0 13.9886,6.26291 13.9886,13.9886c0,7.72569 -6.26291,13.9886 -13.9886,13.9886c-7.72569,0 -13.98859,-6.26291 -13.98859,-13.9886z" fill="#000000" fill-rule="nonzero" stroke="none" stroke-width="0" stroke-linecap="butt" stroke-linejoin="miter"/><path d="M307.35915,214.95921h21.25189" fill="none" fill-rule="nonzero" stroke="#000000" stroke-width="2" stroke-linecap="round" stroke-linejoin="miter"/><path d="M340.89403,201.50186c-10.97567,0 -19.87321,-8.89755 -19.87321,-19.87321c0,-10.97567 8.89755,-19.87321 19.87321,-19.87321c10.97567,0 19.87321,8.89755 19.87321,19.87321c0,10.97567 -8.89755,19.87321 -19.87321,19.87321z" data-paper-data="{&quot;index&quot;:null}" fill="#ffffff" fill-rule="nonzero" stroke="#000000" stroke-width="2" stroke-linecap="butt" stroke-linejoin="miter"/><path d="M340.79876,197.37878c-7.72568,0 -13.98859,-6.26291 -13.98859,-13.9886c0,-7.72569 6.26291,-13.9886 13.98859,-13.9886c7.72568,0 13.98859,6.26291 13.98859,13.9886c0,7.72569 -6.26291,13.9886 -13.98859,13.9886z" data-paper-data="{&quot;index&quot;:null}" fill="#000000" fill-rule="nonzero" stroke="none" stroke-width="0" stroke-linecap="butt" stroke-linejoin="miter"/><path d="M285.79446,154.70706c0,0 5.67822,-4.37505 9.98475,-5.38589c4.30654,-1.01084 10.43918,0.59192 10.43918,0.59192c0,0 -6.80319,-0.05102 -10.12898,0.72963c-3.47558,0.8158 -10.29495,4.06434 -10.29495,4.06434z" fill="#000000" fill-rule="nonzero" stroke="none" stroke-width="0" stroke-linecap="butt" stroke-linejoin="miter"/><path d="M339.9064,150.64273c-3.32579,-0.78065 -10.12898,-0.72963 -10.12898,-0.72963c0,0 6.13265,-1.60276 10.43918,-0.59192c4.30653,1.01084 9.98475,5.38589 9.98475,5.38589c0,0 -6.81937,-3.24854 -10.29495,-4.06434z" data-paper-data="{&quot;index&quot;:null}" fill="#000000" fill-rule="nonzero" stroke="none" stroke-width="0" stroke-linecap="butt" stroke-linejoin="miter"/><path d="M275.0278,181.70688c0,-10.97568 8.89755,-19.87321 19.87322,-19.87321c10.97568,0 19.87321,8.89754 19.87321,19.87321c0,0 -5.88945,-12.39616 -19.83294,-12.51672c-13.73223,-0.11874 -19.91348,13.0386 -19.91348,12.51672z" fill="#c6c657" fill-rule="nonzero" stroke="#000000" stroke-width="2" stroke-linecap="butt" stroke-linejoin="miter"/><path d="M321.02082,181.62225c0,-10.97568 8.89754,-19.87321 19.87321,-19.87321c10.97568,0 19.87322,8.89754 19.87322,19.87321c0,0.51295 -6.66322,-12.17444 -19.4029,-12.51013c-12.73967,-0.33569 -20.34354,12.51013 -20.34354,12.51013z" data-paper-data="{&quot;index&quot;:null}" fill="#c6c657" fill-rule="nonzero" stroke="#000000" stroke-width="2" stroke-linecap="butt" stroke-linejoin="miter"/><path d="M265.3591,167.68513c6.72426,-21.01953 27.49618,-36.33402 52.07861,-36.33402c24.94307,0 45.96301,15.76713 52.36546,37.26278c0.46493,1.56098 1.67871,18.68129 -53.8466,18.46757c-51.82214,-0.19946 -50.59747,-19.39633 -50.59747,-19.39633z" fill-opacity="0.20156" fill="#000000" fill-rule="nonzero" stroke="#000000" stroke-width="0" stroke-linecap="butt" stroke-linejoin="miter"/><path d="M399.37977,143.99561c0,8.72545 -35.7458,15.79882 -79.84048,15.79882c-44.09468,0 -79.84048,-7.07337 -79.84048,-15.79882c0,-8.72545 35.7458,-20.03065 79.84048,-20.03065c44.09468,0 79.84048,11.3052 79.84048,20.03065z" fill="#c6c657" fill-rule="nonzero" stroke="#000000" stroke-width="2" stroke-linecap="butt" stroke-linejoin="miter"/><path d="M320.41946,125.12428c6.10395,0 11.8064,0.32024 16.64961,0.87544c0.56913,0.06524 -13.59067,8.71883 -13.59067,8.71883l-5.14387,0.12568z" data-paper-data="{&quot;index&quot;:null}" fill="#ffffff" fill-rule="nonzero" stroke="#000000" stroke-width="0" stroke-linecap="butt" stroke-linejoin="miter"/><path d="M319.11609,158.36014c-14.77769,0 -28.58331,-0.77529 -40.3087,-2.11943c-1.37787,-0.15796 32.903,-21.10827 32.903,-21.10827l12.45331,-0.30425z" fill="#ffffff" fill-rule="nonzero" stroke="#000000" stroke-width="0" stroke-linecap="butt" stroke-linejoin="miter"/><path d="M312.32558,134.31627l2.42118,-33.89486c0,0 0.6546,-5.74807 -2.71467,-4.49005c-2.70525,1.01009 -9.24456,4.67036 -9.24456,4.67036c0,0 3.34778,-6.17561 7.60046,-8.42492c3.4098,-1.80349 7.7634,2.17691 7.7634,2.17691c0,0 4.00367,-3.52304 6.58855,-1.91822c3.39719,2.10914 6.1886,8.32581 6.1886,8.32581c0,0 -5.0604,-2.88386 -7.29659,-4.01722c-2.46687,-1.25025 -2.71529,3.50134 -2.71529,3.50134l2.62327,34.07084c0,0 -2.05881,1.26955 -5.65028,1.12849c-3.10452,-0.12194 -5.56407,-1.12849 -5.56407,-1.12849z" fill="#c6c657" fill-rule="nonzero" stroke="#000000" stroke-width="2" stroke-linecap="butt" stroke-linejoin="miter"/><path d="M311.47377,90.83152l2.28322,-30.44543l8.22008,29.37294c0,0 -2.23756,0.22848 -3.64228,0.37191c-1.92794,0.19686 -6.86103,0.70058 -6.86103,0.70058z" fill="url(#color-15)" fill-rule="nonzero" stroke="#89893c" stroke-width="1.5" stroke-linecap="butt" stroke-linejoin="miter"/><g fill-rule="nonzero" stroke="#89893c" stroke-width="1.4" stroke-linejoin="miter"><path d="M303.14533,94.76307l-0.56219,-5.50577l27.19001,-2.77636l0.56219,5.50577z" fill="#c4c456" stroke-linecap="butt"/><g><path d="M300.08744,103.73184c0,0 -1.76275,-2.60468 -1.74749,-4.54109c0.02557,-3.24411 0.76891,-5.04257 0.76891,-5.04257l36.33805,-3.71047c0,0 1.6202,2.08098 1.76356,4.6984c0.15816,2.88771 -0.78498,4.88526 -0.78498,4.88526z" fill="#c4c456" stroke-linecap="butt"/><path d="M305.2462,102.76492c0,0 -1.14938,-2.87445 -1.30544,-4.40283c-0.14598,-1.42967 0.39728,-4.4911 0.39728,-4.4911" fill="none" stroke-linecap="round"/><path d="M330.88502,91.50265c0,0 0.97181,3.13496 1.10575,4.59389c0.11845,1.29015 -0.34285,3.71575 -0.34285,3.71575" fill="none" stroke-linecap="round"/><path d="M314.27494,101.50065c0,0 -0.92745,-2.14066 -1.06926,-3.3995c-0.16081,-1.42753 0.15423,-4.72344 0.15423,-4.72344" fill="none" stroke-linecap="round"/><path d="M322.3472,92.54561c0,0 0.98624,2.9531 1.12739,4.33542c0.13538,1.32587 -0.29708,3.79618 -0.29708,3.79618" fill="none" stroke-linecap="round"/></g></g><path d="M296.17287,286.11829l1.6875,-13.13241h42.42541l1.92857,13.61455z" fill="#d3d35d" fill-rule="nonzero" stroke="none" stroke-width="0" stroke-linecap="butt" stroke-linejoin="miter"/><text transform="translate(299.22875,282.16769) scale(0.23827,0.23827)" font-size="40" xml:space="preserve" fill="#85853a" fill-rule="nonzero" stroke="none" stroke-width="1" stroke-linecap="butt" stroke-linejoin="miter" stroke-miterlimit="10" stroke-dasharray="" stroke-dashoffset="0" font-family="Sans Serif" font-weight="normal" text-anchor="start" style="mix-blend-mode: normal"><tspan x="0" dy="0">Mustard</tspan></text><path d="M414.03843,327.62759l11.50013,-111.28274l28.69422,-0.13327l10.3086,111.41602z" fill="#ecec68" fill-rule="nonzero" stroke="#000000" stroke-width="2" stroke-linecap="butt" stroke-linejoin="miter"/><path d="M418.97583,287.73206l7.1373,-69.06515l27.4953,-0.1277l6.41822,69.36854c0,0 -12.31739,4.08664 -20.4554,4.05181c-8.13801,-0.03483 -20.59543,-4.2275 -20.59543,-4.2275z" fill="#c8c824" fill-rule="nonzero" stroke="#000000" stroke-width="0" stroke-linecap="butt" stroke-linejoin="miter"/><g fill-rule="nonzero" stroke="#000000" stroke-width="2" stroke-linecap="butt" stroke-linejoin="miter"><path d="M386.97565,174.69141v-59.08425l6.18977,0.00001v59.08425z" fill="#ffe9b3"/><path d="M375.1588,115.60716c0,-8.23552 6.67622,-14.91174 14.91173,-14.91174c8.23552,0 14.91174,6.67622 14.91174,14.91174c0,8.23552 -6.67622,14.91174 -14.91174,14.91174c-8.23552,0 -14.91173,-6.67622 -14.91173,-14.91174z" fill="#dccd27"/></g><g fill-rule="nonzero" stroke="#000000" stroke-width="2" stroke-linecap="butt" stroke-linejoin="miter"><path d="M483.55293,174.69141v-59.08425l6.18978,0.00001v59.08425z" fill="#ffe9b3"/><path d="M471.73608,115.60716c0,-8.23552 6.67622,-14.91174 14.91173,-14.91174c8.23552,0 14.91174,6.67622 14.91174,14.91174c0,8.23552 -6.67622,14.91174 -14.91174,14.91174c-8.23552,0 -14.91173,-6.67622 -14.91173,-14.91174z" fill="#dccd27"/></g><path d="M418.01267,274.65368l6.40149,-58.30882l30.48364,-0.13327l5.76296,58.63022c0,0 -1.37929,5.65461 -21.44961,5.53838c-18.59678,-0.10769 -21.19848,-5.72652 -21.19848,-5.72652z" fill="#dccd27" fill-rule="nonzero" stroke="#000000" stroke-width="2" stroke-linecap="butt" stroke-linejoin="miter"/><path d="M419.27052,255.12857l4.45454,-38.78371l31.89136,-0.13327l3.94551,38.36835c0,0 -5.91384,6.04477 -20.35656,5.96483c-14.44271,-0.07995 -19.93485,-5.41619 -19.93485,-5.41619z" fill="#dccd27" fill-rule="nonzero" stroke="#000000" stroke-width="2" stroke-linecap="butt" stroke-linejoin="miter"/><path d="M421.87434,240.36238l2.63467,-22.22214l30.24333,-0.11988l2.33581,22.03496c0,0 -6.34348,3.5417 -18.19714,3.80641c-10.53774,0.23532 -17.01668,-3.49936 -17.01668,-3.49936z" fill="#b2a730" fill-rule="nonzero" stroke="#000000" stroke-width="0" stroke-linecap="butt" stroke-linejoin="miter"/><path d="M384.85357,183.58538c0,-28.10878 24.2751,-50.89545 54.21995,-50.89545c29.94484,0 54.21995,22.78668 54.21995,50.89545c0,28.10878 -24.2751,50.89545 -54.21995,50.89545c-29.94484,0 -54.21995,-22.78668 -54.21995,-50.89545z" fill="#b9b912" fill-rule="nonzero" stroke="#000000" stroke-width="2" stroke-linecap="butt" stroke-linejoin="miter"/><path d="M385.46389,183.63085c0,-0.61447 4.39474,47.19936 53.48008,48.056c46.89899,0.81849 53.60932,-48.91597 53.60932,-48.056c0,27.68923 -23.97278,50.1358 -53.5447,50.1358c-29.57191,0 -53.5447,-22.44656 -53.5447,-50.1358z" fill="#c8c824" fill-rule="nonzero" stroke="#000000" stroke-width="0" stroke-linecap="butt" stroke-linejoin="miter"/><path d="M421.98038,203.27606h34.05635c2.06331,0 3.72437,1.66107 3.72437,3.72437v15.46812c0,2.0633 -1.66107,3.72437 -3.72437,3.72437h-34.05634c-2.0633,0 -3.72438,-1.66107 -3.72438,-3.72437v-15.46812c0,-2.0633 1.66107,-3.72437 3.72438,-3.72437z" fill="#000000" fill-rule="evenodd" stroke="#000000" stroke-width="2" stroke-linecap="round" stroke-linejoin="round"/><path d="M394.16172,152.6933h89.69367c5.4341,0 9.8088,4.37473 9.8088,9.80881v40.73816c0,5.43408 -4.37473,9.80881 -9.8088,9.80881h-89.69367c-5.43408,0 -9.80882,-4.37473 -9.80882,-9.80881v-40.73816c0,-5.43407 4.37474,-9.80881 9.80882,-9.80881z" fill="#dccd27" fill-rule="evenodd" stroke="#000000" stroke-width="2" stroke-linecap="round" stroke-linejoin="round"/><path d="M400.85667,157.1984h76.30378c4.62287,0 8.3445,3.72165 8.3445,8.3445v34.65658c0,4.62285 -3.72165,8.3445 -8.3445,8.3445h-76.30377c-4.62285,0 -8.34452,-3.72165 -8.34452,-8.3445v-34.65658c0,-4.62285 3.72166,-8.3445 8.34452,-8.3445z" fill="#000000" fill-rule="evenodd" stroke="#000000" stroke-width="2" stroke-linecap="round" stroke-linejoin="round"/><path d="M451.97193,216.4612c0,0 -1.26427,7.42773 -12.54961,7.42773c-9.37064,0 -12.1067,-7.14205 -12.1067,-7.14205" fill="none" fill-rule="nonzero" stroke="#ecec68" stroke-width="2" stroke-linecap="round" stroke-linejoin="miter"/><path d="M426.30188,183.70982c0,8.92085 -3.31951,16.15263 -7.41432,16.15263c-4.09482,0 -7.41432,-7.23178 -7.41432,-16.15263c0,-8.92085 3.31951,-16.15263 7.41432,-16.15263c4.09482,0 7.41432,7.23178 7.41432,16.15263z" fill="#ecec68" fill-rule="nonzero" stroke="none" stroke-width="0" stroke-linecap="butt" stroke-linejoin="miter"/><path d="M466.005,183.69337c0,8.92084 -3.3195,16.15263 -7.41432,16.15263c-4.09482,0 -7.41432,-7.23178 -7.41432,-16.15263c0,-8.92084 3.31951,-16.15263 7.41432,-16.15263c4.09482,0 7.41432,7.23179 7.41432,16.15263z" fill="#ecec68" fill-rule="nonzero" stroke="none" stroke-width="0" stroke-linecap="butt" stroke-linejoin="miter"/><path d="M587.64129,263.19931c-10.02295,-0.93521 -7.60635,-94.97107 -7.60635,-94.97107l9.83053,-1.35897c0,0 7.50073,97.23745 -2.22418,96.33004z" data-paper-data="{&quot;index&quot;:null}" fill="#60602a" fill-rule="nonzero" stroke="#000000" stroke-width="2" stroke-linecap="butt" stroke-linejoin="miter"/><path d="M594.88131,254.40784c-10.02295,-0.93521 -6.83063,-85.14532 -6.83063,-85.14532l9.83052,-1.35897c0,0 6.72501,87.4117 -2.99989,86.5043z" data-paper-data="{&quot;index&quot;:null}" fill="#60602a" fill-rule="nonzero" stroke="#000000" stroke-width="2" stroke-linecap="butt" stroke-linejoin="miter"/><path d="M538.06561,151.61349l9.83052,1.35897c0,0 2.4166,107.99877 -7.60635,108.93399c-9.7249,0.90741 -2.22418,-110.29295 -2.22418,-110.29295z" fill="#60602a" fill-rule="nonzero" stroke="#000000" stroke-width="2" stroke-linecap="butt" stroke-linejoin="miter"/><path d="M533.57592,254.74729c-9.98077,-1.31087 -3.51105,-81.99266 -3.51105,-81.99266l9.87462,-0.98892c0,0 3.32041,84.25348 -6.36357,82.98159z" data-paper-data="{&quot;index&quot;:null}" fill="#60602a" fill-rule="nonzero" stroke="#000000" stroke-width="2" stroke-linecap="butt" stroke-linejoin="miter"/><path d="M537.39525,328.08176l11.74657,-102.27219l29.30912,-0.12248l10.5295,102.39467z" fill="#bebe54" fill-rule="nonzero" stroke="#000000" stroke-width="2" stroke-linecap="butt" stroke-linejoin="miter"/><path d="M521.4071,246.40812c-9.19773,-1.56436 0.62439,-75.8416 0.62439,-75.8416l9.90499,-0.61429c0,0 -0.9005,78.09357 -10.52938,76.45589z" data-paper-data="{&quot;index&quot;:null}" fill="#60602a" fill-rule="nonzero" stroke="#000000" stroke-width="2" stroke-linecap="butt" stroke-linejoin="miter"/><path d="M605.47528,244.36911c-10.0627,-0.27603 -14.73244,-61.39925 -14.73244,-61.39925l9.72027,-2.00061c0,0 14.77565,63.66768 5.01217,63.39986z" data-paper-data="{&quot;index&quot;:null}" fill="#60602a" fill-rule="nonzero" stroke="#000000" stroke-width="2" stroke-linecap="butt" stroke-linejoin="miter"/><path d="M547.44095,247.8824l2.42134,-20.42281l27.79453,-0.11018l2.14668,20.2508c0,0 -5.82985,3.25493 -16.72372,3.49821c-9.6845,0.21626 -15.63884,-3.21601 -15.63884,-3.21601z" fill="#a0a047" fill-rule="nonzero" stroke="#000000" stroke-width="0" stroke-linecap="butt" stroke-linejoin="miter"/><path d="M608.53386,226.94592c-5.40051,-1.53976 2.23367,-11.32478 -0.70513,-20.97419c-2.52096,-8.27741 2.45988,-11.88589 4.98127,-3.60861c2.35605,7.73454 1.82082,26.32112 -4.27613,24.5828z" data-paper-data="{&quot;index&quot;:null}" fill="#60602a" fill-rule="nonzero" stroke="#000000" stroke-width="2" stroke-linecap="butt" stroke-linejoin="miter"/><path d="M513.41775,195.70264c0,-25.83282 22.30955,-46.77445 49.82976,-46.77445c27.52021,0 49.82976,20.94164 49.82976,46.77445c0,25.83282 -22.30955,46.77445 -49.82976,46.77445c-27.52021,0 -49.82976,-20.94164 -49.82976,-46.77445z" fill="#bebe54" fill-rule="nonzero" stroke="#000000" stroke-width="2" stroke-linecap="butt" stroke-linejoin="miter"/><path d="M523.9289,196.03578c0,-10.0595 8.15484,-18.21434 18.21434,-18.21434c10.0595,0 18.21434,8.15484 18.21434,18.21434c0,10.0595 -8.15484,18.21434 -18.21434,18.21434c-10.0595,0 -18.21434,-8.15484 -18.21434,-18.21434z" fill="#ffffff" fill-rule="nonzero" stroke="#000000" stroke-width="2" stroke-linecap="butt" stroke-linejoin="miter"/><path d="M529.09676,197.72509c0,-7.08081 5.74012,-12.82093 12.82092,-12.82093c7.08081,0 12.82093,5.74013 12.82093,12.82093c0,7.08081 -5.74013,12.82093 -12.82093,12.82093c-7.08081,0 -12.82092,-5.74013 -12.82092,-12.82093z" fill="#000000" fill-rule="nonzero" stroke="none" stroke-width="0" stroke-linecap="butt" stroke-linejoin="miter"/><path d="M584.42635,214.25012c-10.0595,0 -18.21434,-8.15484 -18.21434,-18.21434c0,-10.0595 8.15484,-18.21434 18.21434,-18.21434c10.0595,0 18.21434,8.15484 18.21434,18.21434c0,10.0595 -8.15484,18.21434 -18.21434,18.21434z" data-paper-data="{&quot;index&quot;:null}" fill="#ffffff" fill-rule="nonzero" stroke="#000000" stroke-width="2" stroke-linecap="butt" stroke-linejoin="miter"/><path d="M584.30802,211.09678c-7.0808,0 -12.82092,-5.74013 -12.82092,-12.82093c0,-7.08081 5.74013,-12.82093 12.82092,-12.82093c7.0808,0 12.82092,5.74013 12.82092,12.82093c0,7.08081 -5.74013,12.82093 -12.82092,12.82093z" data-paper-data="{&quot;index&quot;:null}" fill="#000000" fill-rule="nonzero" stroke="none" stroke-width="0" stroke-linecap="butt" stroke-linejoin="miter"/><path d="M523.86425,196.03578c0,-10.0595 8.15484,-18.21434 18.21434,-18.21434c10.0595,0 18.21434,8.15484 18.21434,18.21434c0,0 -36.4287,0.95533 -36.4287,0z" fill="#ecec68" fill-rule="nonzero" stroke="#000000" stroke-width="2" stroke-linecap="butt" stroke-linejoin="miter"/><path d="M566.01809,196.03578c0,-10.0595 8.15484,-18.21434 18.21434,-18.21434c10.0595,0 18.21434,8.15484 18.21434,18.21434c0,0.94157 -36.4287,0 -36.4287,0z" data-paper-data="{&quot;index&quot;:null}" fill="#ecec68" fill-rule="nonzero" stroke="#000000" stroke-width="2" stroke-linecap="butt" stroke-linejoin="miter"/><path d="M533.73215,173.68855c0,0 5.20425,-4.00985 9.1513,-4.93632c3.94706,-0.92646 9.5678,0.54251 9.5678,0.54251c0,0 -6.23531,-0.04676 -9.28349,0.66872c-3.18547,0.74771 -9.43561,3.72508 -9.43561,3.72508z" fill="#000000" fill-rule="nonzero" stroke="none" stroke-width="0" stroke-linecap="butt" stroke-linejoin="miter"/><path d="M513.97864,195.74439c0,-0.56471 4.0389,43.37763 49.1498,44.16491c43.10158,0.75221 49.26858,-44.95525 49.26858,-44.16491c0,25.44724 -22.03171,46.07631 -49.20919,46.07631c-27.17748,0 -49.20919,-20.62907 -49.20919,-46.07631z" fill="#a0a047" fill-rule="nonzero" stroke="#000000" stroke-width="0" stroke-linecap="butt" stroke-linejoin="miter"/><path d="M583.32724,169.96349c-3.04818,-0.71548 -9.28349,-0.66872 -9.28349,-0.66872c0,0 5.62074,-1.46898 9.5678,-0.54251c3.94705,0.92646 9.1513,4.93632 9.1513,4.93632c0,0 -6.25014,-2.97737 -9.43561,-3.72508z" data-paper-data="{&quot;index&quot;:null}" fill="#000000" fill-rule="nonzero" stroke="none" stroke-width="0" stroke-linecap="butt" stroke-linejoin="miter"/><path d="M510.80367,195.59828c6.91371,-5.20302 8.81263,0.6471 1.89919,5.85048c-8.05935,6.06584 -7.65515,18.47004 -12.92611,16.53268c-5.95069,-2.1872 4.56655,-17.52132 11.02692,-22.38316z" data-paper-data="{&quot;index&quot;:null}" fill="#60602a" fill-rule="nonzero" stroke="#000000" stroke-width="2" stroke-linecap="butt" stroke-linejoin="miter"/><path d="M523.88913,195.80312l-2.79258,-2.01686" fill="none" fill-rule="nonzero" stroke="#000000" stroke-width="2" stroke-linecap="round" stroke-linejoin="miter"/><path d="M520.29287,157.87676c13.39095,-13.18761 35.03822,-20.08386 39.08595,-12.88642c3.19899,5.68826 -16.03355,2.28483 -33.83231,21.77824c-15.15721,16.60037 -12.73173,40.64712 -22.83192,37.99661c-9.97425,-2.61745 8.54238,-37.98974 17.57829,-46.88844z" fill="#b1b14e" fill-rule="nonzero" stroke="#000000" stroke-width="2" stroke-linecap="butt" stroke-linejoin="miter"/><path d="M521.57262,164.56998c11.69771,-14.71034 32.35202,-24.17406 37.24051,-17.51899c3.86346,5.25962 -15.63952,4.20721 -30.95003,25.71017c-13.03825,18.31167 -7.72228,41.88856 -18.0689,40.47906c-10.2176,-1.39192 3.88507,-38.74402 11.77842,-48.67023z" fill="#ecec68" fill-rule="nonzero" stroke="#000000" stroke-width="2" stroke-linecap="butt" stroke-linejoin="miter"/><path d="M574.10006,145.0193c-0.13631,2.26497 -5.5914,3.65835 -12.18429,3.1122c-6.59289,-0.54615 -11.82699,-2.82501 -11.69068,-5.08998c0.13631,-2.26497 5.5914,-3.65835 12.18429,-3.1122c6.59289,0.54615 11.82699,2.82501 11.69068,5.08998z" fill="#ecec68" fill-rule="nonzero" stroke="#000000" stroke-width="2" stroke-linecap="butt" stroke-linejoin="miter"/><path d="M621.11228,208.16974c-10.15124,2.44773 -7.24473,-21.54564 -22.06649,-38.44619c-17.40484,-19.84591 -36.70168,-16.82828 -33.38944,-22.45134c4.19104,-7.11495 25.69588,0.21338 38.82008,13.66649c8.85591,9.07785 26.66052,44.81383 16.63586,47.23104z" data-paper-data="{&quot;index&quot;:null}" fill="#60602a" fill-rule="nonzero" stroke="#000000" stroke-width="2" stroke-linecap="butt" stroke-linejoin="miter"/><path d="M605.33943,193.01054l-3.25801,2.63744" fill="none" fill-rule="nonzero" stroke="#000000" stroke-width="2" stroke-linecap="round" stroke-linejoin="miter"/><path d="M550.9757,226.58469c0,0 5.05721,-1.97717 12.3468,-1.93929c7.28959,0.03788 12.56117,1.74536 12.56117,1.74536" data-paper-data="{&quot;index&quot;:null}" fill="none" fill-rule="nonzero" stroke="#000000" stroke-width="2" stroke-linecap="round" stroke-linejoin="miter"/><path d="M617.56607,215.95851c-10.38286,1.11151 -4.39138,-22.30284 -16.89788,-40.98172c-14.68609,-21.93416 -34.21126,-21.44279 -30.19821,-26.58918c5.07777,-6.5118 25.45152,3.5417 36.72154,18.58222c7.60476,10.149 20.62793,47.89104 10.37455,48.98869z" data-paper-data="{&quot;index&quot;:null}" fill="#b1b14e" fill-rule="nonzero" stroke="#000000" stroke-width="2" stroke-linecap="butt" stroke-linejoin="miter"/><path d="M524.40125,187.03062c5.35533,-6.79642 8.68557,-1.62541 3.3306,5.17129c-6.24258,7.92325 -2.68332,19.81271 -8.2743,19.28601c-6.31197,-0.59463 -0.06048,-18.10652 4.9437,-24.45729z" data-paper-data="{&quot;index&quot;:null}" fill="#b1b14e" fill-rule="nonzero" stroke="#000000" stroke-width="2" stroke-linecap="butt" stroke-linejoin="miter"/><path d="M517.0158,185.79844c8.31417,-11.20766 15.88443,-20.26864 20.13258,-26.45839c5.32364,-7.75677 11.0116,-19.3089 16.50532,-16.80487c5.73691,2.61488 -0.30125,16.01253 -5.80005,24.02452c-4.23027,6.16368 -16.55652,16.83596 -24.83217,27.9929c-10.37166,13.98271 -3.63404,34.31556 -13.30601,33.68772c-10.91924,-0.7088 -1.01384,-31.23423 7.30034,-42.44189z" fill="#ecec68" fill-rule="nonzero" stroke="#000000" stroke-width="2" stroke-linecap="butt" stroke-linejoin="miter"/><g fill-rule="nonzero" stroke="#000000" stroke-width="2" stroke-linecap="butt" stroke-linejoin="miter"><path d="M517.42133,202.94944c0,-1.685 1.0897,-2.13852 2.43391,-2.13852c1.34422,0 2.43391,0.45352 2.43391,2.13852c0,1.685 -1.0897,3.9634 -2.43391,3.9634c-1.34422,0 -2.43391,-2.2784 -2.43391,-3.9634z" fill="#ecec68"/><path d="M522.28915,214.50996c0,1.685 -1.0897,2.13852 -2.43391,2.13852c-1.34422,0 -2.43391,-0.45352 -2.43391,-2.13852c0,-1.685 1.0897,-3.9634 2.43391,-3.9634c1.34422,0 2.43391,2.2784 2.43391,3.9634z" fill="#ecec68"/><path d="M514.07498,211.16361c-1.685,0 -2.13852,-1.0897 -2.13852,-2.43391c0,-1.34422 0.45352,-2.43391 2.13852,-2.43391c1.685,0 3.9634,1.0897 3.9634,2.43391c0,1.34422 -2.2784,2.43391 -3.9634,2.43391z" fill="#ecec68"/><path d="M525.6355,206.29579c1.685,0 2.13852,1.0897 2.13852,2.43391c0,1.34422 -0.45352,2.43391 -2.13852,2.43391c-1.685,0 -3.9634,-1.0897 -3.9634,-2.43391c0,-1.34422 2.2784,-2.43391 3.9634,-2.43391z" fill="#ff80ee"/><path d="M514.04695,206.36348c-1.19148,-1.19148 -0.74163,-2.2827 0.20887,-3.2332c0.9505,-0.9505 2.04173,-1.40035 3.2332,-0.20887c1.19148,1.19148 2.03201,3.57308 1.0815,4.52358c-0.9505,0.9505 -3.3321,0.10997 -4.52358,-1.0815z" fill="#ecec68"/><path d="M525.66354,211.09593c1.19148,1.19148 0.74163,2.2827 -0.20887,3.2332c-0.9505,0.9505 -2.04173,1.40035 -3.2332,0.20887c-1.19148,-1.19148 -2.03201,-3.57308 -1.0815,-4.52358c0.9505,-0.9505 3.3321,-0.10997 4.52358,1.0815z" fill="#ff80ee"/><path d="M517.48902,214.53799c-1.19148,1.19148 -2.2827,0.74163 -3.2332,-0.20887c-0.9505,-0.9505 -1.40035,-2.04173 -0.20887,-3.2332c1.19148,-1.19148 3.57308,-2.03201 4.52358,-1.0815c0.9505,0.9505 0.10997,3.3321 -1.0815,4.52358z" fill="#ecec68"/><path d="M522.22147,202.92141c1.19148,-1.19148 2.2827,-0.74163 3.2332,0.20887c0.9505,0.9505 1.40035,2.04173 0.20887,3.2332c-1.19148,1.19148 -3.57308,2.03201 -4.52358,1.0815c-0.9505,-0.9505 -0.10997,-3.3321 1.0815,-4.52358z" fill="#ecec68"/><path d="M516.63288,208.66114c0,-1.77967 1.44269,-3.22236 3.22236,-3.22236c1.77967,0 3.22236,1.4427 3.22236,3.22236c0,1.77967 -1.4427,3.22236 -3.22236,3.22236c-1.77967,0 -3.22236,-1.44269 -3.22236,-3.22236z" fill="#b1b14e"/></g><path d="M578.06377,157.34494c0,0 16.61385,-8.66188 17.08456,-16.53281c0.26902,-4.49845 -6.44347,-11.93739 -6.87005,-19.88561c-0.56224,-10.47582 10.11891,-18.41904 10.11891,-18.41904c0,0 -2.601,7.98028 -2.31099,17.70384c0.23111,7.74891 6.32195,10.5434 7.97754,20.69355c1.62142,9.94063 -8.66845,25.76293 -8.66845,25.76293c0,0 -3.10411,3.06919 -10.97516,-1.19071c-7.15774,-3.87385 -6.35636,-8.13213 -6.35636,-8.13213z" fill="#60602a" fill-rule="nonzero" stroke="#000000" stroke-width="2" stroke-linecap="butt" stroke-linejoin="miter"/><path d="M526.50301,194.81711c5.57658,-12.79214 15.31109,-23.81128 18.05617,-30.79873c3.44003,-8.75642 6.3803,-21.29274 12.2968,-20.09024c6.17842,1.25573 3.31258,15.66904 -0.24064,24.71357c-2.73351,6.95802 -14.60828,17.20636 -20.15876,29.94041c-6.95627,15.95926 -0.21197,34.73852 -11.03774,33.14635c-8.50882,-1.25141 -4.4924,-24.11923 1.08418,-36.91136z" fill="#b1b14e" fill-rule="nonzero" stroke="#000000" stroke-width="2" stroke-linecap="butt" stroke-linejoin="miter"/><path d="M566.56587,179.3207c-5.48393,-1.20951 1.54297,-11.43938 -1.97545,-20.89286c-3.01816,-8.10935 1.73474,-12.01316 4.75332,-3.90397c2.82065,7.57746 3.41325,26.1623 -2.77787,24.79682z" data-paper-data="{&quot;index&quot;:null}" fill="#b1b14e" fill-rule="nonzero" stroke="#000000" stroke-width="2" stroke-linecap="butt" stroke-linejoin="miter"/><path d="M614.96286,193.95875c-9.68396,5.08592 -7.3727,-10.0044 -17.14854,-18.11866c-7.80024,-6.47445 -20.93228,-8.93515 -24.91744,-12.58397c-5.1802,-4.743 -12.70944,-14.42556 -7.25528,-17.56077c5.22295,-3.00231 12.42831,5.39459 17.44351,9.98651c4.00203,3.66426 15.31493,7.43609 23.1515,13.93979c7.83656,6.50369 16.33764,20.33971 8.72626,24.33713z" data-paper-data="{&quot;index&quot;:null}" fill="#ecec68" fill-rule="nonzero" stroke="#000000" stroke-width="2" stroke-linecap="butt" stroke-linejoin="miter"/><path d="M538.29878,182.17402c4.33039,-9.21723 12.96851,-17.43865 15.03427,-22.45618c2.58875,-6.28779 4.31948,-15.17644 10.32319,-14.67797c6.26949,0.52055 4.79188,10.71065 2.11796,17.20531c-2.05706,4.99639 -12.89902,12.8039 -17.20897,21.97923c-5.40154,11.49921 3.1028,24.17737 -7.82454,23.68829c-8.58864,-0.3844 -6.77231,-16.52147 -2.44191,-25.73869z" fill="#ecec68" fill-rule="nonzero" stroke="#000000" stroke-width="2" stroke-linecap="butt" stroke-linejoin="miter"/><g data-paper-data="{&quot;index&quot;:null}" fill-rule="nonzero" stroke="#1d1d0d" stroke-width="1.5" stroke-linecap="butt" stroke-linejoin="miter"><path d="M509.75316,125.91894l-4.78709,-14.00497l24.2282,-8.24254l4.7871,14.00498z" fill="#d0d05b"/><path d="M531.02315,158.68697l-8.18595,-23.21457l-11.53118,-10.78257l20.65017,-6.69617l-3.42566,15.63351l8.3285,23.84359z" fill="url(#color-16)"/><path d="M499.70692,115.31682l14.9161,-18.17021l23.20496,4.67484z" fill="#bfbf54"/><path d="M531.164,118.7672l-18.56568,6.1074c0,0 1.87755,-8.18441 7.00434,-9.87092c5.12678,-1.68653 11.56135,3.76352 11.56135,3.76352z" fill="#ffff70"/></g><path d="M502.95068,189.4707c-0.40673,-28.20285 25.80011,-51.38817 58.53459,-51.78587c32.73448,-0.3977 59.60076,22.14285 60.00748,50.34569c0.02347,1.62792 -0.04172,3.23912 -0.19173,4.8302c-4.77829,-0.19566 -9.56769,-0.49414 -14.27952,-0.48124c-33.08073,0.09058 -66.16223,0.11307 -99.24261,-0.05357c-0.81616,-0.00411 -1.59716,-0.60743 -2.39701,-0.45843c-0.38998,0.07265 -1.2409,0.53372 -2.23968,1.14444c-0.10999,-1.16944 -0.17434,-2.35028 -0.19152,-3.54121z" fill="#bebe54" fill-rule="nonzero" stroke="#000000" stroke-width="2" stroke-linecap="butt" stroke-linejoin="miter"/><path d="M503.45444,175.3755l6.20574,-13.18719l105.8854,0.77572l5.43002,12.41148z" fill="#b9b952" fill-rule="nonzero" stroke="#000000" stroke-width="2" stroke-linecap="butt" stroke-linejoin="miter"/><path d="M546.25463,187.01126v-33.7437h32.05651v33.7437z" fill="#d7d75f" fill-rule="nonzero" stroke="#000000" stroke-width="2" stroke-linecap="butt" stroke-linejoin="miter"/></g></g></svg>