<svg version="1.1" xmlns="http://www.w3.org/2000/svg" xmlns:xlink="http://www.w3.org/1999/xlink" width="165.4064" height="321.43925" viewBox="0,0,165.4064,321.43925"><defs><linearGradient x1="356.22425" y1="53.4511" x2="368.89002" y2="59.32492" gradientUnits="userSpaceOnUse" id="color-1"><stop offset="0" stop-color="#131308"/><stop offset="1" stop-color="#131308" stop-opacity="0"/></linearGradient><linearGradient x1="344.44666" y1="76.42895" x2="357.79537" y2="82.61949" gradientUnits="userSpaceOnUse" id="color-2"><stop offset="0" stop-color="#151509"/><stop offset="1" stop-color="#151509" stop-opacity="0"/></linearGradient></defs><g transform="translate(-254.85187,10.49058)"><g data-paper-data="{&quot;isPaintingLayer&quot;:true}" fill-rule="nonzero" stroke-linejoin="miter" stroke-miterlimit="10" stroke-dasharray="" stroke-dashoffset="0" style="mix-blend-mode: normal"><path d="M287.81613,309.94867l15.14285,-131.8421l37.78325,-0.15789l13.57389,132z" fill="#959541" stroke="#000000" stroke-width="2" stroke-linecap="butt"/><path d="M300.76635,206.56131l3.12142,-26.32765l35.83075,-0.14203l2.76735,26.1059c0,0 -7.51543,4.19603 -21.55904,4.50964c-12.48458,0.27879 -20.16049,-4.14586 -20.16049,-4.14586z" fill="#7d7d37" stroke="#000000" stroke-width="0" stroke-linecap="butt"/><path d="M255.85187,136.85379c0.38518,-33.29962 29.45539,-59.96165 64.93015,-59.55132c35.47474,0.41033 63.92048,27.73766 63.5353,61.03727c-0.38518,33.29962 -29.45539,59.96165 -64.93015,59.55132c-35.47474,-0.41033 -63.92048,-27.73766 -63.5353,-61.03727z" fill="#959541" stroke="#000000" stroke-width="2" stroke-linecap="butt"/><path d="M256.57426,136.91599c0.00842,-0.72795 4.55954,55.97587 62.69771,57.66332c55.54859,1.61229 64.17963,-57.21466 64.16784,-56.19587c-0.37943,32.8026 -29.08684,59.06586 -64.11979,58.66063c-35.03295,-0.40523 -63.12519,-27.32549 -62.74577,-60.12808z" fill="#7d7d37" stroke="#000000" stroke-width="0" stroke-linecap="butt"/><path d="M269.39622,137.43996c0.14999,-12.96713 10.78353,-23.35749 23.75066,-23.20749c12.96713,0.14999 23.35749,10.78353 23.20749,23.75066c-0.14999,12.96713 -10.78353,23.35749 -23.75066,23.20749c-12.96713,-0.14999 -23.35749,-10.78353 -23.20749,-23.75066z" fill="#ffffff" stroke="#000000" stroke-width="2" stroke-linecap="butt"/><path d="M272.66817,131.92055c0.10558,-9.12747 7.59043,-16.44115 16.71788,-16.33557c9.12747,0.10558 16.44115,7.59044 16.33557,16.71789c-0.10558,9.12747 -7.59044,16.44115 -16.71789,16.33557c-9.12747,-0.10558 -16.44114,-7.59044 -16.33556,-16.71789z" fill="#000000" stroke="none" stroke-width="0" stroke-linecap="butt"/><path d="M335.27782,174.16381l-25.10959,0.01494" fill="none" stroke="#000000" stroke-width="2" stroke-linecap="round"/><path d="M346.85852,161.81817c-12.96713,-0.14999 -23.35749,-10.78353 -23.20749,-23.75066c0.14999,-12.96713 10.78353,-23.35749 23.75066,-23.20749c12.96713,0.14999 23.35749,10.78353 23.20749,23.75066c-0.14999,12.96713 -10.78353,23.35749 -23.75066,23.20749z" data-paper-data="{&quot;index&quot;:null}" fill="#ffffff" stroke="#000000" stroke-width="2" stroke-linecap="butt"/><path d="M353.20316,158.93048c-9.12746,-0.10558 -16.44114,-7.59044 -16.33556,-16.71789c0.10558,-9.12747 7.59044,-16.44115 16.71788,-16.33557c9.12746,0.10558 16.44114,7.59044 16.33556,16.71789c-0.10558,9.12747 -7.59044,16.44115 -16.71788,16.33557z" data-paper-data="{&quot;index&quot;:null}" fill="#000000" stroke="none" stroke-width="0" stroke-linecap="butt"/><path d="M282.36627,108.77959c0,0 6.76829,-5.09127 11.87003,-6.22667c5.10175,-1.1354 12.32522,0.84198 12.32522,0.84198c0,0 -8.03689,-0.15324 -11.97678,0.7236c-4.11735,0.91633 -12.21845,4.6611 -12.21845,4.6611z" fill="#000000" stroke="none" stroke-width="0" stroke-linecap="butt"/><path d="M346.35202,104.71728c-3.91858,-0.96774 -11.95685,-1.00044 -11.95685,-1.00044c0,0 7.26727,-1.80976 12.34139,-0.55667c5.07411,1.2531 11.72281,6.49957 11.72281,6.49957c0,0 -8.01231,-3.93115 -12.10737,-4.94248z" data-paper-data="{&quot;index&quot;:null}" fill="#000000" stroke="none" stroke-width="0" stroke-linecap="butt"/><path d="M315.41057,80.15505c0.06219,-5.3767 5.73965,-37.97836 5.73965,-37.97836c0,0 4.92183,32.72428 4.85964,38.10097" fill="#804400" stroke="#000000" stroke-width="2" stroke-linecap="butt"/><g stroke="#000000"><path d="M416.10708,22.38745l-31.5811,102.47854c0,0 -24.50342,-1.505 -53.65641,-15.79926c-28.36172,-13.9063 -41.3971,-26.57925 -41.3971,-26.57925l56.02344,-91.58121c0,0 15.98311,-1.28289 39.27604,9.62042c22.60574,10.58164 31.33515,21.86077 31.33515,21.86077z" fill="#333333" stroke-width="2" stroke-linecap="butt"/><path d="M416.10708,22.38745l-31.5811,102.47854c0,0 -24.50342,-1.505 -53.65641,-15.79926c-28.36172,-13.9063 -41.3971,-26.57925 -41.3971,-26.57925l56.02344,-91.58121c0,0 21.89803,14.17311 33.54595,19.36621c11.88437,5.29851 37.06522,12.11497 37.06522,12.11497z" fill="#7d7d37" stroke-width="2" stroke-linecap="butt"/><path d="M384.00453,124.02409c0,0 13.8674,23.87485 -19.00323,24.82001c-37.65959,1.08288 -75.90035,-66.31777 -75.90035,-66.31777" fill="none" stroke-width="2" stroke-linecap="round"/><path d="M414.84657,23.05776l-30.85443,100.98176c0,0 -26.7125,-3.10102 -54.24926,-16.60282c-26.78937,-13.13535 -38.97207,-25.26693 -38.97207,-25.26693l7.366,-12.04115c0,0 15.09262,32.81384 52.40835,30.49695c34.75751,-2.15806 64.30141,-77.56781 64.30141,-77.56781z" fill="#6c6c30" stroke-width="0" stroke-linecap="butt"/></g><g><g><g><path d="M310.10719,77.90448l69.74109,-58.87267l-0.56764,90.9522z" fill="#b4b44f" stroke="none" stroke-width="0" stroke-linecap="butt"/><path d="M379.38163,84.55006l-21.78094,-46.82156l7.23014,-5.77847l14.70944,38.37441z" fill="#cdcd51" stroke="none" stroke-width="0" stroke-linecap="butt"/><path d="M361.42805,101.35647l-21.01234,-48.79344l11.01864,-9.28109l23.21631,64.36592z" fill="#cdcd51" stroke="none" stroke-width="0" stroke-linecap="butt"/><path d="M375.29716,104.60927l-58.96753,-27.34648l60.31299,-51.61572z" fill="none" stroke="#717132" stroke-width="1.5" stroke-linecap="round"/></g><path d="M369.0545,58.94491c-3.5517,7.65859 -11.26249,13.22734 -13.5814,11.96827c-1.50517,-0.81725 -2.79121,-9.9405 0.7605,-17.59909c3.5517,-7.65858 5.72513,-15.13924 12.88269,-11.81989c7.15755,3.31935 3.48992,9.79212 -0.06178,17.45071z" fill="#6d6d30" stroke="none" stroke-width="0" stroke-linecap="butt"/><path d="M357.89617,82.66623c-1.57668,3.39983 -5.84305,4.77016 -9.5292,3.06068c-3.68615,-1.70947 -5.39619,-5.85139 -3.8195,-9.25121c1.57669,-3.39984 5.84306,-4.77017 9.5292,-3.06069c3.68615,1.70947 5.39619,5.85139 3.8195,9.25122z" fill="#6d6d30" stroke="none" stroke-width="0" stroke-linecap="butt"/><path d="M369.02967,58.99869c-3.5152,7.57987 -11.15679,13.08672 -13.45756,11.83796c-1.49341,-0.81056 -2.77704,-9.84507 0.73816,-17.42493c3.5152,-7.57987 5.66377,-14.9848 12.76479,-11.69167c7.10104,3.29314 3.4698,9.69878 -0.0454,17.27864z" fill="url(#color-1)" stroke="none" stroke-width="0" stroke-linecap="butt"/><path d="M357.79537,82.61949c-1.57668,3.39983 -5.84305,4.77016 -9.5292,3.06068c-3.68615,-1.70947 -5.39619,-5.85139 -3.8195,-9.25121c1.57669,-3.39984 5.84306,-4.77017 9.5292,-3.06069c3.68615,1.70947 5.39619,5.85139 3.8195,9.25122z" fill="url(#color-2)" stroke="none" stroke-width="0" stroke-linecap="butt"/></g><g stroke="none" stroke-width="0" stroke-linecap="butt"><path d="M310.10719,77.90448l69.74109,-58.87267l-0.56764,90.9522z" fill="#ffff70"/><path d="M379.38163,84.55006l-21.78094,-46.82156l7.23014,-5.77847l14.70944,38.37441z" fill="#ffffff"/><path d="M361.55765,101.41658l-21.01234,-48.79344l11.01864,-9.28109l23.21631,64.36592z" fill="#ffffff"/><path d="M369.0545,58.94491c-3.5517,7.65859 -11.26249,13.22734 -13.5814,11.96827c-1.50517,-0.81725 -2.79121,-9.9405 0.7605,-17.59909c3.5517,-7.65858 5.72513,-15.13924 12.88269,-11.81989c7.15755,3.31935 3.48992,9.79212 -0.06178,17.45071z" fill="#000000"/><path d="M357.89617,82.66623c-1.57668,3.39983 -5.84305,4.77016 -9.5292,3.06068c-3.68615,-1.70947 -5.39619,-5.85139 -3.8195,-9.25121c1.57669,-3.39984 5.84306,-4.77017 9.5292,-3.06069c3.68615,1.70947 5.39619,5.85139 3.8195,9.25122z" fill="#000000"/></g></g></g></g></svg>