<svg version="1.1" xmlns="http://www.w3.org/2000/svg" xmlns:xlink="http://www.w3.org/1999/xlink" width="176.29782" height="317.49121" viewBox="0,0,176.29782,317.49121"><defs><linearGradient x1="368.48039" y1="58.19459" x2="380.76059" y2="64.83688" gradientUnits="userSpaceOnUse" id="color-1"><stop offset="0" stop-color="#131308"/><stop offset="1" stop-color="#131308" stop-opacity="0"/></linearGradient><linearGradient x1="355.31077" y1="80.40392" x2="368.25311" y2="87.40435" gradientUnits="userSpaceOnUse" id="color-2"><stop offset="0" stop-color="#151509"/><stop offset="1" stop-color="#151509" stop-opacity="0"/></linearGradient><linearGradient x1="393.84843" y1="25.11628" x2="354.47944" y2="97.90122" gradientUnits="userSpaceOnUse" id="color-3"><stop offset="0" stop-color="#ffff70" stop-opacity="0"/><stop offset="1" stop-color="#ffff70"/></linearGradient><linearGradient x1="392.11638" y1="44.68635" x2="372.32645" y2="81.27375" gradientUnits="userSpaceOnUse" id="color-4"><stop offset="0" stop-color="#ffffff" stop-opacity="0"/><stop offset="1" stop-color="#ffffff"/></linearGradient><linearGradient x1="382.94429" y1="57.82066" x2="359.81062" y2="100.58993" gradientUnits="userSpaceOnUse" id="color-5"><stop offset="0" stop-color="#ffffff" stop-opacity="0"/><stop offset="1" stop-color="#ffffff"/></linearGradient><linearGradient x1="382.31272" y1="47.17764" x2="366.88339" y2="75.70322" gradientUnits="userSpaceOnUse" id="color-6"><stop offset="0" stop-color="#131308" stop-opacity="0"/><stop offset="1" stop-color="#131308"/></linearGradient><linearGradient x1="365.10804" y1="77.98845" x2="358.65133" y2="89.92556" gradientUnits="userSpaceOnUse" id="color-7"><stop offset="0" stop-color="#131308" stop-opacity="0"/><stop offset="1" stop-color="#131308"/></linearGradient></defs><g transform="translate(-259.1294,6.54252)"><g data-paper-data="{&quot;isPaintingLayer&quot;:true}" fill-rule="nonzero" stroke-linejoin="miter" stroke-miterlimit="10" stroke-dasharray="" stroke-dashoffset="0" style="mix-blend-mode: normal"><path d="M287.81614,309.94869l15.14285,-131.8421l37.78325,-0.15789l13.57389,132z" fill="#959541" stroke="#000000" stroke-width="2" stroke-linecap="butt"/><path d="M300.76636,206.56132l3.12142,-26.32765l35.83075,-0.14203l2.76735,26.1059c0,0 -7.51543,4.19603 -21.55904,4.50964c-12.48458,0.27879 -20.16049,-4.14586 -20.16049,-4.14586z" fill="#7d7d37" stroke="#000000" stroke-width="0" stroke-linecap="butt"/><path d="M260.1294,135.42388c0.81163,-33.29196 30.22094,-59.57948 65.68753,-58.71484c35.46658,0.86465 63.55999,28.55405 62.74835,61.846c-0.81163,33.29196 -30.22094,59.57948 -65.68753,58.71484c-35.46658,-0.86465 -63.55999,-28.55405 -62.74835,-61.846z" fill="#959541" stroke="#000000" stroke-width="2" stroke-linecap="butt"/><path d="M260.85094,135.49533c0.01774,-0.72777 3.84225,56.02968 61.95404,58.4616c55.52338,2.3236 64.90714,-56.38798 64.88231,-55.36943c-0.79952,32.79505 -29.84094,58.68848 -64.86583,57.8346c-35.02489,-0.85388 -62.77004,-28.13173 -61.97053,-60.92677z" fill="#7d7d37" stroke="#000000" stroke-width="0" stroke-linecap="butt"/><path d="M273.66515,136.18347c0.31606,-12.96414 11.0818,-23.21747 24.04594,-22.90141c12.96414,0.31606 23.21747,11.0818 22.90141,24.04594c-0.31606,12.96414 -11.0818,23.21747 -24.04594,22.90141c-12.96414,-0.31606 -23.21747,-11.0818 -22.90141,-24.04594z" fill="#ffffff" stroke="#000000" stroke-width="2" stroke-linecap="butt"/><path d="M274.18223,138.17103c0.22247,-9.12536 7.80038,-16.34259 16.92573,-16.12011c9.12536,0.22247 16.34259,7.80039 16.12011,16.92574c-0.22247,9.12536 -7.80039,16.34259 -16.92574,16.12011c-9.12536,-0.22247 -16.34258,-7.80039 -16.1201,-16.92574z" fill="#000000" stroke="none" stroke-width="0" stroke-linecap="butt"/><path d="M310.95097,173.06484l25.06605,1.4782" fill="none" stroke="#000000" stroke-width="2" stroke-linecap="round"/><path d="M350.80886,161.55178c-12.96414,-0.31606 -23.21747,-11.0818 -22.90141,-24.04594c0.31606,-12.96414 11.0818,-23.21747 24.04594,-22.90141c12.96414,0.31606 23.21747,11.0818 22.90141,24.04594c-0.31606,12.96414 -11.0818,23.21747 -24.04594,22.90141z" data-paper-data="{&quot;index&quot;:null}" fill="#ffffff" stroke="#000000" stroke-width="2" stroke-linecap="butt"/><path d="M357.4315,151.98192c-9.12535,-0.22246 -16.34258,-7.80039 -16.1201,-16.92574c0.22247,-9.12536 7.80039,-16.34259 16.92573,-16.12011c9.12535,0.22246 16.34258,7.80039 16.1201,16.92574c-0.22247,9.12536 -7.80039,16.34259 -16.92573,16.12011z" data-paper-data="{&quot;index&quot;:null}" fill="#000000" stroke="none" stroke-width="0" stroke-linecap="butt"/><path d="M287.00119,107.69156c0,0 6.83295,-5.00417 11.9488,-6.07414c5.11587,-1.06996 12.31342,0.99976 12.31342,0.99976c0,0 -8.03426,-0.25617 -11.98507,0.57014c-4.12875,0.86352 -12.27714,4.50423 -12.27714,4.50423z" fill="#000000" stroke="none" stroke-width="0" stroke-linecap="butt"/><path d="M351.03372,104.44909c-3.90585,-1.01785 -11.94305,-1.15349 -11.94305,-1.15349c0,0 7.28986,-1.71654 12.34751,-0.39855c5.05764,1.31798 11.63862,6.64918 11.63862,6.64918c0,0 -7.9613,-4.03345 -12.04307,-5.09713z" data-paper-data="{&quot;index&quot;:null}" fill="#000000" stroke="none" stroke-width="0" stroke-linecap="butt"/><path d="M334.96938,86.41911c1.683,-5.10688 16.94081,-34.47185 16.94081,-34.47185c0,0 -5.19042,32.68277 -6.87341,37.78963" fill="#804400" stroke="#000000" stroke-width="2" stroke-linecap="butt"/><g stroke="#000000"><path d="M433.12032,34.05588l-42.83527,98.30746c0,0 -24.18176,-4.23383 -51.55475,-21.6964c-26.63005,-16.98861 -38.16758,-31.0389 -38.16758,-31.0389l65.90673,-84.74694c0,0 16.02635,0.51125 37.95494,13.94926c21.28163,13.04156 28.69592,25.22555 28.69592,25.22555z" fill="#333333" stroke-width="2" stroke-linecap="butt"/><path d="M433.12032,34.05588l-42.83527,98.30746c0,0 -24.18176,-4.23383 -51.55475,-21.6964c-26.63005,-16.98861 -38.16758,-31.0389 -38.16758,-31.0389l65.90673,-84.74694c0,0 20.17702,16.53146 31.17167,22.99367c11.21784,6.59341 35.47921,16.18113 35.47921,16.18113z" fill="#7d7d37" stroke-width="2" stroke-linecap="butt"/><path d="M389.86093,131.46842c0,0 11.11252,25.27499 -21.65783,22.54094c-37.54473,-3.13237 -68.0139,-74.38425 -68.0139,-74.38425" fill="none" stroke-width="2" stroke-linecap="round"/><path d="M431.79279,34.58113l-41.94588,96.90126c0,0 -26.19864,-6.06673 -52.05409,-22.56119c-25.1537,-16.04679 -35.90438,-29.4638 -35.90438,-29.4638l8.66545,-11.14259c0,0 11.33114,34.2949 48.67206,36.16256c34.78097,1.73961 72.56687,-69.89628 72.56687,-69.89628z" fill="#6c6c30" stroke-width="0" stroke-linecap="butt"/></g><g><g><g><path d="M320.9456,79.76293l73.23266,-54.46826l-6.16496,90.74479z" fill="#b4b44f" stroke="none" stroke-width="0" stroke-linecap="butt"/><path d="M389.67963,90.65999l-18.85762,-48.07347l7.57213,-5.32248l12.31947,39.20707z" fill="#cdcd51" stroke="none" stroke-width="0" stroke-linecap="butt"/><path d="M370.72558,106.32944l-17.9691,-49.99429l11.56903,-8.58526l19.21036,65.6729z" fill="#cdcd51" stroke="none" stroke-width="0" stroke-linecap="butt"/><path d="M384.36818,110.42975l-57.17245,-30.92427l63.37574,-47.80537z" fill="none" stroke="#717132" stroke-width="1.5" stroke-linecap="round"/></g><path d="M380.94815,64.46772c-4.01639,7.42544 -12.05532,12.50902 -14.29234,11.1096c-1.45202,-0.90834 -2.17404,-10.09345 1.84234,-17.51891c4.01638,-7.42543 6.64616,-14.75813 13.58581,-11.00451c6.93965,3.75363 2.88057,9.98837 -1.13582,17.41381z" fill="#6d6d30" stroke="none" stroke-width="0" stroke-linecap="butt"/><path d="M368.35085,87.45723c-1.78297,3.29634 -6.12559,4.40146 -9.69953,2.46832c-3.57392,-1.93311 -5.02579,-6.17244 -3.24282,-9.46877c1.78298,-3.29634 6.1256,-4.40146 9.69954,-2.46834c3.57392,1.93311 5.02579,6.17244 3.24282,9.46878z" fill="#6d6d30" stroke="none" stroke-width="0" stroke-linecap="butt"/><path d="M380.92004,64.51988c-3.9751,7.34911 -11.94117,12.37516 -14.1607,10.98716c-1.44068,-0.90094 -2.16578,-9.99733 1.80933,-17.34645c3.9751,-7.34911 6.57538,-14.60777 13.46025,-10.88379c6.88487,3.72399 2.86623,9.89397 -1.10888,17.24308z" fill="url(#color-1)" stroke="none" stroke-width="0" stroke-linecap="butt"/><path d="M368.25311,87.40435c-1.78297,3.29634 -6.12559,4.40146 -9.69953,2.46832c-3.57392,-1.93311 -5.02579,-6.17244 -3.24282,-9.46877c1.78298,-3.29634 6.1256,-4.40146 9.69954,-2.46834c3.57392,1.93311 5.02579,6.17244 3.24282,9.46878z" fill="url(#color-2)" stroke="none" stroke-width="0" stroke-linecap="butt"/></g><g stroke="none" stroke-width="0" stroke-linecap="butt"><path d="M320.9456,79.76293l73.23266,-54.46826l-6.16496,90.74479z" fill="url(#color-3)"/><path d="M389.67963,90.65999l-18.85762,-48.07347l7.57213,-5.32248l12.31947,39.20707z" fill="url(#color-4)"/><path d="M370.85125,106.3974l-17.9691,-49.99429l11.56903,-8.58526l19.21036,65.6729z" fill="url(#color-5)"/><path d="M380.94815,64.46772c-4.01639,7.42544 -12.05532,12.50902 -14.29234,11.1096c-1.45202,-0.90834 -2.17404,-10.09345 1.84234,-17.51891c4.01638,-7.42543 6.64616,-14.75813 13.58581,-11.00451c6.93965,3.75363 2.88057,9.98837 -1.13582,17.41381z" fill="url(#color-6)"/><path d="M368.35085,87.45723c-1.78297,3.29634 -6.12559,4.40146 -9.69953,2.46832c-3.57392,-1.93311 -5.02579,-6.17244 -3.24282,-9.46877c1.78298,-3.29634 6.1256,-4.40146 9.69954,-2.46834c3.57392,1.93311 5.02579,6.17244 3.24282,9.46878z" fill="url(#color-7)"/></g></g></g></g></svg>