<svg version="1.1" xmlns="http://www.w3.org/2000/svg" xmlns:xlink="http://www.w3.org/1999/xlink" width="175.01699" height="256.82833" viewBox="0,0,175.01699,256.82833"><g transform="translate(-232.4915,-50.81161)"><g data-paper-data="{&quot;isPaintingLayer&quot;:true}" fill-rule="nonzero" stroke-linejoin="miter" stroke-miterlimit="10" stroke-dasharray="" stroke-dashoffset="0" style="mix-blend-mode: normal"><path d="M358.0389,123.60204c-5.95755,-5.01481 -6.49029,-14.18469 -1.18992,-20.48147c5.30037,-6.29678 48.28681,-35.46917 48.28681,-35.46917c0,0 -21.41226,47.33263 -26.71263,53.62941c-5.30037,6.29679 -14.42672,7.33603 -20.38427,2.32122z" data-paper-data="{&quot;index&quot;:null}" fill="#989843" stroke="#000000" stroke-width="2" stroke-linecap="butt"/><path d="M261.57684,121.28081c-5.30037,-6.29678 -26.71263,-53.62941 -26.71263,-53.62941c0,0 42.98645,29.17238 48.28682,35.46917c5.30037,6.29679 4.76763,15.46666 -1.18992,20.48147c-5.95755,5.01481 -15.0839,3.97556 -20.38427,-2.32122z" fill="#989843" stroke="#000000" stroke-width="2" stroke-linecap="butt"/><path d="M286.45716,306.63993l15.14285,-131.8421l37.78325,-0.15789l13.57389,132z" fill="#c5c556" stroke="#000000" stroke-width="2" stroke-linecap="butt"/><path d="M299.40739,203.25256l3.12142,-26.32765l35.83075,-0.14203l2.76735,26.1059c0,0 -7.51543,4.19603 -21.55904,4.50964c-12.48458,0.27879 -20.16049,-4.14586 -20.16049,-4.14586z" fill="#acac4c" stroke="#000000" stroke-width="0" stroke-linecap="butt"/><path d="M255.54707,135.98609c0,-33.30185 28.7599,-60.29833 64.23702,-60.29833c35.47712,0 64.23702,26.99649 64.23702,60.29833c0,33.30185 -28.7599,60.29833 -64.23702,60.29833c-35.47712,0 -64.23702,-26.99649 -64.23702,-60.29833z" fill="#c5c556" stroke="#000000" stroke-width="2" stroke-linecap="butt"/><path d="M256.27013,136.03992c0,-0.72799 5.20666,55.91939 63.36046,56.93429c55.56352,0.9697 63.51358,-57.95314 63.51358,-56.93429c0,32.80479 -28.40173,59.39833 -63.43702,59.39833c-35.03529,0 -63.43702,-26.59354 -63.43702,-59.39833z" fill="#acac4c" stroke="#000000" stroke-width="0" stroke-linecap="butt"/><path d="M269.09728,136.41555c0,-12.968 10.51265,-23.48065 23.48065,-23.48065c12.968,0 23.48065,10.51265 23.48065,23.48065c0,12.968 -10.51265,23.48065 -23.48065,23.48065c-12.968,0 -23.48065,-10.51265 -23.48065,-23.48065z" fill="#ffffff" stroke="#000000" stroke-width="2" stroke-linecap="butt"/><path d="M276.16267,136.13992c0,-9.12808 7.39976,-16.52784 16.52783,-16.52784c9.12808,0 16.52784,7.39977 16.52784,16.52784c0,9.12808 -7.39977,16.52784 -16.52784,16.52784c-9.12808,0 -16.52783,-7.39977 -16.52783,-16.52784z" fill="#000000" stroke="none" stroke-width="0" stroke-linecap="butt"/><path d="M307.21416,175.79635c0,0 8.2676,-0.4 12.43184,-0.4c4.20523,0 12.67775,0.4 12.67775,0.4" fill="none" stroke="#000000" stroke-width="2" stroke-linecap="round"/><path d="M346.83636,159.89619c-12.968,0 -23.48065,-10.51265 -23.48065,-23.48065c0,-12.968 10.51265,-23.48065 23.48065,-23.48065c12.968,0 23.48065,10.51265 23.48065,23.48065c0,12.968 -10.51265,23.48065 -23.48065,23.48065z" data-paper-data="{&quot;index&quot;:null}" fill="#ffffff" stroke="#000000" stroke-width="2" stroke-linecap="butt"/><path d="M346.7238,152.66777c-9.12807,0 -16.52783,-7.39977 -16.52783,-16.52784c0,-9.12808 7.39977,-16.52784 16.52783,-16.52784c9.12807,0 16.52783,7.39977 16.52783,16.52784c0,9.12808 -7.39977,16.52784 -16.52783,16.52784z" data-paper-data="{&quot;index&quot;:null}" fill="#000000" stroke="none" stroke-width="0" stroke-linecap="butt"/><path d="M269.09728,136.41555c0,-12.968 10.51265,-23.48065 23.48065,-23.48065c12.968,0 23.48065,10.51265 23.48065,23.48065c0,0 -46.96131,1.23155 -46.96131,0z" fill="#c5c556" stroke="#000000" stroke-width="2" stroke-linecap="butt"/><path d="M323.35573,136.41555c0,-12.968 10.51265,-23.48065 23.48065,-23.48065c12.968,0 23.48065,10.51265 23.48065,23.48065c0,1.2138 -46.96131,0 -46.96131,0z" data-paper-data="{&quot;index&quot;:null}" fill="#c5c556" stroke="#000000" stroke-width="2" stroke-linecap="butt"/><path d="M276.49469,102.41525c0,0 11.81231,-1.986 18.95687,-0.09021c7.14457,1.89579 14.92657,9.08106 14.92657,9.08106c0,0 -9.99081,-5.42456 -15.50833,-6.8886c-5.76602,-1.52998 -18.37512,-2.10225 -18.37512,-2.10225z" fill="#000000" stroke="none" stroke-width="0" stroke-linecap="butt"/><path d="M344.73261,104.49656c-5.54555,1.35397 -15.64234,6.57864 -15.64234,6.57864c0,0 7.92344,-7.029 15.10432,-8.78225c7.18086,-1.75325 18.95133,0.4674 18.95133,0.4674c0,0 -12.61799,0.32125 -18.41331,1.7362z" data-paper-data="{&quot;index&quot;:null}" fill="#000000" stroke="none" stroke-width="0" stroke-linecap="butt"/><path d="M310.64599,78.20227c0,-3.51131 9.1,-24.84221 9.1,-24.84221c0,0 9.1,21.33091 9.1,24.84221c0,3.51131 -4.07421,6.35779 -9.1,6.35779c-5.02579,0 -9.1,-2.84648 -9.1,-6.35779z" fill="#989843" stroke="#000000" stroke-width="2" stroke-linecap="butt"/><path d="M344.67332,84.40149c1.37321,-3.23165 18.0906,-19.30482 18.0906,-19.30482c0,0 0.03308,23.19088 -1.34013,26.42253c-1.37321,3.23165 -6.23614,4.25807 -10.86165,2.29257c-4.62552,-1.9655 -7.26202,-6.17862 -5.88882,-9.41027z" fill="#989843" stroke="#000000" stroke-width="2" stroke-linecap="butt"/><path d="M291.17826,93.47844c-4.62552,1.9655 -9.48845,0.93908 -10.86166,-2.29257c-1.37321,-3.23165 -1.34013,-26.42253 -1.34013,-26.42253c0,0 16.71739,16.07317 18.0906,19.30482c1.37321,3.23165 -1.2633,7.44477 -5.88881,9.41027z" data-paper-data="{&quot;index&quot;:null}" fill="#989843" stroke="#000000" stroke-width="2" stroke-linecap="butt"/></g></g></svg>