<svg version="1.1" xmlns="http://www.w3.org/2000/svg" xmlns:xlink="http://www.w3.org/1999/xlink" width="153.84397" height="327.16398" viewBox="0,0,153.84397,327.16398"><g transform="translate(-257.67309,16.21529)"><g data-paper-data="{&quot;isPaintingLayer&quot;:true}" fill-rule="nonzero" stroke-linejoin="miter" stroke-miterlimit="10" stroke-dasharray="" stroke-dashoffset="0" style="mix-blend-mode: normal"><path d="M287.81614,309.94868l15.14285,-131.8421l37.78325,-0.15789l13.57389,132z" fill="#959541" stroke="#000000" stroke-width="2" stroke-linecap="butt"/><path d="M300.76636,206.56131l3.12142,-26.32765l35.83075,-0.14203l2.76735,26.1059c0,0 -7.51543,4.19603 -21.55904,4.50964c-12.48458,0.27879 -20.16049,-4.14586 -20.16049,-4.14586z" fill="#7d7d37" stroke="#000000" stroke-width="0" stroke-linecap="butt"/><path d="M258.67309,132.81564c0,-33.30185 28.7599,-60.29833 64.23702,-60.29833c35.47712,0 64.23702,26.99649 64.23702,60.29833c0,33.30185 -28.7599,60.29833 -64.23702,60.29833c-35.47712,0 -64.23702,-26.99649 -64.23702,-60.29833z" fill="#959541" stroke="#000000" stroke-width="2" stroke-linecap="butt"/><path d="M259.39615,132.86948c0,-0.72799 5.20666,55.91939 63.36046,56.93429c55.56352,0.9697 63.51358,-57.95314 63.51358,-56.93429c0,32.80479 -28.40173,59.39833 -63.43702,59.39833c-35.03529,0 -63.43702,-26.59354 -63.43702,-59.39833z" fill="#7d7d37" stroke="#000000" stroke-width="0" stroke-linecap="butt"/><path d="M272.22332,133.24511c0,-12.968 10.51265,-23.48065 23.48065,-23.48065c12.968,0 23.48065,10.51265 23.48065,23.48065c0,12.968 -10.51265,23.48065 -23.48065,23.48065c-12.968,0 -23.48065,-10.51265 -23.48065,-23.48065z" fill="#ffffff" stroke="#000000" stroke-width="2" stroke-linecap="butt"/><path d="M273.96673,134.63046c0,-9.12808 7.39976,-16.52784 16.52783,-16.52784c9.12808,0 16.52784,7.39977 16.52784,16.52784c0,9.12808 -7.39977,16.52784 -16.52784,16.52784c-9.12808,0 -16.52783,-7.39977 -16.52783,-16.52784z" fill="#000000" stroke="none" stroke-width="0" stroke-linecap="butt"/><path d="M310.34018,172.62591h25.10959" fill="none" stroke="#000000" stroke-width="2" stroke-linecap="round"/><path d="M349.96239,156.72575c-12.968,0 -23.48065,-10.51265 -23.48065,-23.48065c0,-12.968 10.51265,-23.48065 23.48065,-23.48065c12.968,0 23.48065,10.51265 23.48065,23.48065c0,12.968 -10.51265,23.48065 -23.48065,23.48065z" data-paper-data="{&quot;index&quot;:null}" fill="#ffffff" stroke="#000000" stroke-width="2" stroke-linecap="butt"/><path d="M353.40474,146.99732c-9.12807,0 -16.52783,-7.39977 -16.52783,-16.52784c0,-9.12808 7.39977,-16.52784 16.52783,-16.52784c9.12807,0 16.52783,7.39977 16.52783,16.52784c0,9.12808 -7.39977,16.52784 -16.52783,16.52784z" data-paper-data="{&quot;index&quot;:null}" fill="#000000" stroke="none" stroke-width="0" stroke-linecap="butt"/><path d="M284.861,104.43664c0,0 6.70895,-5.16922 11.79721,-6.36355c5.08827,-1.19433 12.33413,0.69937 12.33413,0.69937c0,0 -8.03812,-0.06028 -11.96762,0.86207c-4.10648,0.96389 -12.16372,4.80211 -12.16372,4.80211z" fill="#000000" stroke="none" stroke-width="0" stroke-linecap="butt"/><path d="M348.79549,99.63454c-3.9295,-0.92235 -11.96762,-0.86207 -11.96762,-0.86207c0,0 7.24586,-1.8937 12.33413,-0.69937c5.08826,1.19433 11.79721,6.36355 11.79721,6.36355c0,0 -8.05724,-3.83822 -12.16372,-4.80211z" data-paper-data="{&quot;index&quot;:null}" fill="#000000" stroke="none" stroke-width="0" stroke-linecap="butt"/><path d="M310.75496,77.70723c-0.59931,-5.34356 1.02688,-38.3959 1.02688,-38.3959c0,0 8.90776,31.87091 9.50707,37.21445" fill="#804400" stroke="#000000" stroke-width="2" stroke-linecap="butt"/><g stroke="#000000"><path d="M403.58535,7.99781l-18.74235,105.5838c0,0 -24.50256,1.51897 -55.19177,-9.08265c-29.85626,-10.31389 -44.35081,-21.28807 -44.35081,-21.28807l44.33902,-97.77419c0,0 15.70412,-3.23819 40.16085,4.71866c23.73519,7.72211 33.78508,17.84246 33.78508,17.84246z" fill="#333333" stroke-width="2" stroke-linecap="butt"/><path d="M403.58535,7.99781l-18.74235,105.5838c0,0 -24.50256,1.51897 -55.19177,-9.08265c-29.85626,-10.31389 -44.35081,-21.28807 -44.35081,-21.28807l44.33902,-97.77419c0,0 23.4744,11.37335 35.67242,15.09501c12.44564,3.7972 38.2735,7.4661 38.2735,7.4661z" fill="#7d7d37" stroke-width="2" stroke-linecap="butt"/><path d="M384.22198,112.81022c0,0 16.69747,21.98881 -15.80758,26.96806c-37.24076,5.7047 -83.47793,-56.48314 -83.47793,-56.48314" fill="none" stroke-width="2" stroke-linecap="round"/><path d="M402.41681,8.81801l-18.20522,104.00905c0,0 -26.8911,0.20666 -55.87892,-9.80722c-28.20105,-9.7421 -41.78283,-20.28386 -41.78283,-20.28386l5.82972,-12.85541c0,0 19.0124,30.70935 55.76019,23.82228c34.22851,-6.41492 54.27707,-84.88485 54.27707,-84.88485z" fill="#6c6c30" stroke-width="0" stroke-linecap="butt"/></g><g stroke-linecap="butt"><path d="M305.20033,75.2722l59.98471,-68.78697l13.26027,89.98217z" fill="#000000" stroke="#ffff70" stroke-width="1"/><path d="M365.61856,47.69407c-1.91979,3.18692 -7.29244,4.21202 -10.65217,6.5532c-3.34029,2.32762 -4.73022,7.67179 -5.91938,7.2412c-0.60262,-0.21821 -2.95608,-6.95811 0.56704,-11.50675c2.86235,-3.69552 9.41902,-4.48546 10.04361,-7.19516c0.23788,-1.03203 0.57978,-2.36087 -1.54083,-4.24702c-1.45029,-1.31841 -3.22937,-1.18135 -4.3119,-1.0282c-2.81147,0.39774 -5.15915,3.69096 -6.07135,5.79991c-0.81383,1.88154 -5.9835,-1.06685 -5.51497,-2.68596c2.34664,-8.10936 8.55758,-12.39548 15.84259,-10.28738c7.285,2.10809 11.44861,10.89654 7.55737,17.35617z" fill="#ffff70" stroke="none" stroke-width="0"/><path d="M353.15789,72.71652c-1.04173,3.59994 -5.05031,5.60267 -8.95342,4.47321c-3.90311,-1.12946 -6.22271,-4.9634 -5.18098,-8.56335c1.04173,-3.59995 5.05031,-5.60269 8.95343,-4.47323c3.90311,1.12946 6.22271,4.96341 5.18097,8.56336z" fill="#ffff70" stroke="none" stroke-width="0"/></g></g></g></svg>