<svg version="1.1" xmlns="http://www.w3.org/2000/svg" xmlns:xlink="http://www.w3.org/1999/xlink" width="178.41783" height="261.89265" viewBox="0,0,178.41783,261.89265"><g transform="translate(-217.35898,-48.74201)"><g data-paper-data="{&quot;isPaintingLayer&quot;:true}" fill-rule="nonzero" stroke-linejoin="miter" stroke-miterlimit="10" stroke-dasharray="" stroke-dashoffset="0" style="mix-blend-mode: normal"><path d="M374.37529,63.18209c0,0 24.46841,28.3667 19.81232,47.30813c-4.65609,18.94143 -37.59113,19.37845 -37.59113,19.37845l-12.72986,-28.74944c0,0 12.07439,-3.27893 18.77063,-10.83776c6.69625,-7.55883 11.73803,-27.09938 11.73803,-27.09938z" data-paper-data="{&quot;index&quot;:null}" fill="#000000" stroke="#ffffff" stroke-width="2" stroke-linecap="round"/><path d="M247.11724,49.74201c0,0 1.08662,20.15123 6.15958,28.88282c5.07295,8.7316 16.26287,14.32874 16.26287,14.32874l-18.15279,25.67208c0,0 -32.20118,-6.92763 -33.02792,-26.41541c-0.82674,-19.48778 28.75825,-42.46823 28.75825,-42.46823z" fill="#000000" stroke="#ffffff" stroke-width="2" stroke-linecap="round"/><path d="M301.4938,201.43434c0,-0.57113 0.46299,-1.03413 1.03411,-1.03413c0.57113,0 1.03413,0.463 1.03413,1.03413c0,0.57113 -0.463,1.03411 -1.03413,1.03411c-0.57113,0 -1.03411,-0.46299 -1.03411,-1.03411z" fill="#5a5a07" stroke="none" stroke-width="0" stroke-linecap="butt"/><path d="M307.78779,206.70403c-6.89736,0.48585 -9.31086,-0.56089 -9.31086,-0.56089v-1.34616c0,0 2.10136,1.00666 8.51033,0.63173c4.12393,-0.24126 6.85251,-1.54704 6.97039,-1.3048c0.3826,0.78618 -1.70634,2.26571 -6.16985,2.58011z" fill="#5a5a07" stroke="none" stroke-width="0" stroke-linecap="butt"/><path d="M319.06825,263.25581c-0.81895,0 -1.48284,-0.66389 -1.48284,-1.48284c0,-0.81895 0.66389,-1.48284 1.48284,-1.48284c0.81895,0 1.48284,0.66389 1.48284,1.48284c0,0.81895 -0.66389,1.48284 -1.48284,1.48284z" data-paper-data="{&quot;index&quot;:null}" fill="#5a5a07" stroke="none" stroke-width="0" stroke-linecap="butt"/><path d="M279.53687,114.88236c0.14892,-7.31451 2.03431,-17.03672 2.03431,-17.03672c0,0 3.39787,0.29714 14.15749,-1.74906c8.26621,-1.57204 21.38676,-7.40308 21.38676,-7.40308c0,0 -2.44737,2.77604 -3.83327,4.10027c-1.47336,1.40781 -4.42569,4.14456 -4.42569,4.14456c0,0 7.96473,-0.88221 15.07138,-3.25092c8.87673,-2.66872 11.14052,-4.97295 13.34199,-3.28596c2.59828,1.99107 -1.27371,23.17059 -2.13488,28.67022c-0.98169,5.59947 -3.46273,9.20169 -4.37627,12.14646c-0.91353,2.94477 -1.01606,6.06576 -3.78578,15.7419c-1.72849,6.03858 -5.02625,8.46801 -11.42375,13.59508c-6.3975,5.12708 -9.92663,8.30942 -13.87376,7.98542c-3.79857,-0.3118 -8.3859,-5.96109 -12.83727,-11.71305c-4.73997,-6.12492 -7.9906,-9.31535 -8.16644,-16.02849c-0.15837,-6.04589 0.20978,-9.9367 0.39483,-15.28452c0.13524,-3.90858 -1.61098,-6.63749 -1.52967,-10.63208z" fill="#5a5a07" stroke="none" stroke-width="0" stroke-linecap="butt"/><path d="M328.86927,104.60293c0,0 1.48524,0.46764 4.12474,1.52681c2.41087,0.96743 4.25449,2.17661 4.25449,2.17661l0.07809,1.18393c0,0 -6.90355,-3.83339 -14.79633,-3.95724c-6.31088,-0.09901 -10.19296,1.81063 -10.19296,1.81063l0.45968,-4.15171c0,0 3.28105,-1.3857 8.0089,-1.0667c4.89565,0.33034 7.99234,1.39059 7.99234,1.39059z" data-paper-data="{&quot;index&quot;:null}" fill="#5a5a07" stroke="none" stroke-width="0" stroke-linecap="butt"/><path d="M311.90557,146.113c0.54658,0.26737 2.92961,1.69828 5.73677,3.18037c2.82952,1.49389 6.95071,2.99691 6.91469,3.16171c-0.04572,0.20915 -10.40585,-0.80885 -13.67465,-0.72726c-2.7393,0.06836 -6.72568,0.03894 -6.72568,0.03894c0,0 -6.95381,-1.86037 -12.96449,-3.74919c-4.81735,-1.51382 -10.18334,-2.68404 -10.18467,-2.77817c-0.00181,-0.12694 3.91976,-0.32364 6.92883,-0.71114c1.18944,-0.38055 5.56016,-0.93843 5.56016,-0.93843c0,0 4.95896,0.21511 7.51335,1.33055c2.73701,1.19519 2.579,2.71466 2.82308,2.7626c0,0 1.35198,-1.62326 2.56587,-1.85935c1.2139,-0.23608 5.09843,0.08965 5.50672,0.28937z" fill="#5a5a07" stroke="none" stroke-width="0" stroke-linecap="butt"/><path d="M292.89796,148.79508c4.96424,1.5265 11.58046,3.97522 11.58046,3.97522c0,0 5.9155,-0.97409 8.58704,-0.98781c2.07118,-0.01064 11.23078,0.40907 11.23786,0.78439c0.00693,0.36697 -10.26583,11.94126 -22.27807,10.28885c-13.65847,-1.79896 -21.25113,-17.32816 -21.19671,-17.4927c0.05442,-0.16454 7.10517,1.90556 12.06941,3.43207z" fill="#5a5a07" stroke="none" stroke-width="0" stroke-linecap="butt"/><path d="M304.11497,146.90433c-1.02867,-0.1025 -3.19737,-3.59518 -3.2362,-5.71274c-0.03474,-1.89464 1.68821,-3.67872 4.14761,-3.43365c2.45941,0.24507 4.13273,0.90501 3.59481,4.56749c-0.45652,3.10823 -2.04682,4.82399 -4.50622,4.57892z" fill="#5a5a07" stroke="none" stroke-width="0" stroke-linecap="butt"/><path d="M310.6833,117.31608c0,0 -0.29153,3.96037 -0.70091,7.09207c-0.81063,6.20131 -3.82877,27.51666 -3.82877,27.51666l-2.96783,-0.28705c0,0 -0.38523,-4.23179 -0.17573,-9.56435c0.28358,-7.21808 1.16828,-16.25749 1.18698,-19.61124c0.01773,-3.17904 -0.32489,-5.7752 -0.32489,-5.7752" fill="#5a5a07" stroke="none" stroke-width="0" stroke-linecap="round"/><path d="M280.22436,125.12422c0,0 -4.55907,-3.98876 -5.24387,-9.542c-0.72054,-5.84308 -0.48892,-9.82972 1.46852,-9.89508c1.95744,-0.06538 2.4542,2.63325 2.88571,8.68462c0.4315,6.05138 0.88964,10.75247 0.88964,10.75247z" data-paper-data="{&quot;index&quot;:null}" fill="#5a5a07" stroke="none" stroke-width="0" stroke-linecap="butt"/><path d="M280.41419,121.17603c0,0 -3.25642,-3.26235 -3.45895,-8.83714c-0.11299,-3.1098 2.37221,-2.05507 2.37221,-2.05507" fill="#5a5a07" stroke="none" stroke-width="0" stroke-linecap="round"/><path d="M284.07271,114.85172c0.55564,-4.86074 5.70056,-8.4123 11.03939,-7.80203c5.33882,0.61028 8.5615,5.12257 8.00587,9.98332c-0.55564,4.86074 -4.97521,8.34218 -10.31404,7.73191c-5.33882,-0.61028 -9.28686,-5.05244 -8.73122,-9.91319z" fill="#5a5a07" stroke="none" stroke-width="0" stroke-linecap="butt"/><path d="M288.4768,115.4091c0.31331,-2.74087 2.7892,-4.70877 5.53005,-4.39547c2.74087,0.31331 4.70877,2.7892 4.39547,5.53005c-0.31331,2.74087 -2.78919,4.70877 -5.53005,4.39547c-2.74087,-0.31331 -4.70877,-2.7892 -4.39547,-5.53005z" fill="#5a5a07" stroke="none" stroke-width="0" stroke-linecap="butt"/><path d="M310.99558,117.53524c0.68722,-4.8439 5.30907,-8.37331 10.6007,-7.84602c5.29162,0.52729 8.83557,4.86615 8.35046,9.73444c-0.48511,4.86829 -4.76615,8.64103 -10.55831,8.13505c-5.5094,-0.48127 -9.11053,-4.96475 -8.39285,-10.02348z" fill="#5a5a07" stroke="none" stroke-width="0" stroke-linecap="butt"/><path d="M315.56718,118.07676c0.27947,-2.80456 2.77956,-4.85155 5.58412,-4.57208c2.80456,0.27947 4.85155,2.77956 4.57208,5.58412c-0.27947,2.80456 -2.77955,4.85155 -5.58412,4.57208c-2.80456,-0.27947 -4.85155,-2.77956 -4.57208,-5.58412z" fill="#5a5a07" stroke="none" stroke-width="0" stroke-linecap="butt"/><path d="M284.0574,114.31538c0,0 0.95716,-8.96439 11.42391,-7.73025c9.40789,1.10415 8.57567,10.30836 8.57567,10.30836z" fill="#5a5a07" stroke="none" stroke-width="0" stroke-linecap="butt"/><path d="M310.65966,117.09776c0,0 0.69219,-9.43607 12.04558,-7.94798c9.63333,1.29505 8.54264,10.55134 8.54264,10.55134z" fill="#5a5a07" stroke="none" stroke-width="0" stroke-linecap="butt"/><path d="M288.56257,104.70307c0,0 3.53339,-1.47592 8.21911,-1.47407c5.19237,0.00203 7.73652,0.70431 7.73652,0.70431l-0.11663,4.14634c0,0 -3.74915,-1.05761 -7.92676,-1.31359c-5.58705,-0.34235 -6.75422,0.76699 -11.03156,0.8013c-3.66506,0.02939 -6.71978,-0.50998 -6.71978,-0.50998l0.09635,-1.22805c0,0 3.57012,0.4301 5.2147,0.45093c1.35738,0.01719 4.04912,-0.53924 4.04912,-0.53924z" fill="#5a5a07" stroke="none" stroke-width="0" stroke-linecap="butt"/><path d="M335.24243,119.94278c1.61716,-5.84724 2.63668,-8.39476 4.54274,-7.9444c1.90605,0.45036 1.34641,4.4043 -0.51299,9.9903c-1.76718,5.30891 -7.02372,8.31958 -7.02372,8.31958c0,0 1.37683,-4.51825 2.99398,-10.36548z" data-paper-data="{&quot;index&quot;:null}" fill="#5a5a07" stroke="none" stroke-width="0" stroke-linecap="butt"/><path d="M336.05627,115.93667c0,0 2.64447,-0.54358 1.92003,2.48278c-1.29865,5.4252 -5.13481,7.98079 -5.13481,7.98079" data-paper-data="{&quot;index&quot;:null}" fill="#5a5a07" stroke="none" stroke-width="0" stroke-linecap="round"/><path d="M285.61194,309.63465l-1.83522,-121.76137l36.72212,-2.81071l31.61309,124.57209z" fill="#000000" stroke="#ffffff" stroke-width="2" stroke-linecap="butt"/><path d="M240.58994,133.08805c3.30207,-33.13774 34.5971,-57.14947 69.89938,-53.6317c35.30229,3.51776 61.2436,33.23292 57.94153,66.37065c-3.30207,33.13774 -34.5971,57.14947 -69.89938,53.6317c-35.30229,-3.51776 -61.2436,-33.23292 -57.94153,-66.37065z" fill="#000000" stroke="#ffffff" stroke-width="2" stroke-linecap="butt"/><path d="M254.06384,134.52728c1.28585,-12.90409 12.78908,-22.32255 25.69318,-21.03669c12.90409,1.28585 22.32255,12.78908 21.03669,25.69318c0,0 -10.60227,-13.17465 -22.35722,-14.19207c-11.63965,-1.00744 -24.43341,10.1453 -24.37266,9.53558z" fill="#ffffff" stroke="none" stroke-width="0" stroke-linecap="butt"/><path d="M308.05491,139.90732c1.28585,-12.90409 12.78908,-22.32255 25.69318,-21.03669c12.90409,1.28585 22.32255,12.78908 21.03669,25.69318c-0.06162,0.61836 -11.19878,-11.75313 -23.13786,-13.10615c-11.381,-1.28978 -23.59202,8.44967 -23.59202,8.44967z" data-paper-data="{&quot;index&quot;:null}" fill="#ffffff" stroke="none" stroke-width="0" stroke-linecap="butt"/><path d="M318.80194,159.23566c0,0 -1.96883,11.78909 -6.64732,13.20062c-4.67849,1.41152 -9.29454,-8.39087 -9.29454,-8.39087c0,0 -3.9962,11.00996 -9.81689,7.55286c-5.82069,-3.4571 -5.28509,-16.52242 -5.28509,-16.52242" fill="none" stroke="#ffffff" stroke-width="2" stroke-linecap="round"/></g></g></svg>