<svg version="1.1" xmlns="http://www.w3.org/2000/svg" xmlns:xlink="http://www.w3.org/1999/xlink" width="101.65471" height="258.24158" viewBox="0,0,101.65471,258.24158"><g transform="translate(-280.77011,-51.40657)"><g data-paper-data="{&quot;isPaintingLayer&quot;:true}" fill-rule="nonzero" stroke-linecap="butt" stroke-linejoin="miter" stroke-miterlimit="10" stroke-dasharray="" stroke-dashoffset="0" style="mix-blend-mode: normal"><path d="M282.56373,308.53989c0,0 -0.63536,-94.38387 -0.79335,-118.01201c-0.05451,-8.15261 8.18688,-36.76129 40.20201,-36.9211c31.60235,-0.15775 39.85672,29.48704 39.84884,36.89673c-0.07659,46.24274 0.65429,117.98648 0.65429,117.98648l-10.49667,0.09614l-0.15882,-114.84311c0,0 0.07549,-3.0993 -2.81625,-3.15415c-3.43441,-0.06514 -2.94538,3.11562 -2.94538,3.11562l0.20548,114.86995l-48.21366,0.07222l-0.30539,-115.23309c0,0 0.27949,-2.919 -2.8856,-2.93443c-3.11083,-0.01515 -2.81569,2.90899 -2.81569,2.90899l0.35311,115.0668z" fill="#999999" stroke="#000000" stroke-width="2"/><path d="M321.66272,265.26944c-0.81895,0 -1.48284,-0.66389 -1.48284,-1.48284c0,-0.81895 0.66389,-1.48284 1.48284,-1.48284c0.81895,0 1.48284,0.66389 1.48284,1.48284c0,0.81895 -0.66389,1.48284 -1.48284,1.48284z" data-paper-data="{&quot;index&quot;:null}" fill="#000000" stroke="none" stroke-width="1.5"/><path d="M297.59946,308.55433v-119.20147c0,0 0.75721,-9.73105 0.75721,-14.63937c0,-4.498 -0.75721,-13.6872 -0.75721,-13.6872c0,0 2.67319,-2.35297 4.6557,-3.74807c1.98251,-1.3951 5.17197,-2.80371 5.17197,-2.80371c0,0 -0.6016,40.10902 14.55952,40.03867c15.43477,-0.07162 13.83154,-40.03867 13.83154,-40.03867c0,0 3.91276,1.51959 6.16585,2.94655c2.25309,1.42695 4.75379,3.60523 4.75379,3.60523c0,0 -0.75721,9.42463 -0.75721,14.19201c0,4.84193 0.75721,14.63937 0.75721,14.63937v118.69667z" fill="#0f0e02" stroke="#000000" stroke-width="2"/><path d="M355.97053,106.77418c0,0 1.51935,0.34087 4.23868,1.17394c2.48379,0.76091 4.42271,1.81051 4.42271,1.81051l0.17755,1.17314c0,0 -7.20191,-3.23825 -15.07709,-2.69683c-6.29679,0.43293 -10.00421,2.66278 -10.00421,2.66278l0.10834,-4.17568c0,0 3.15266,-1.65715 7.89058,-1.73752c4.90608,-0.08321 8.08107,0.71243 8.08107,0.71243z" data-paper-data="{&quot;index&quot;:null}" fill="#000000" stroke="none" stroke-width="1.5"/><path d="M315.84414,110.07331c0,0 3.41634,-1.7297 8.08971,-2.0696c5.17868,-0.37667 7.76729,0.13819 7.76729,0.13819l0.18609,4.14381c0,0 -3.8163,-0.78136 -8.00146,-0.73197c-5.59714,0.06606 -6.68029,1.25756 -10.94374,1.60374c-3.65316,0.29663 -6.73907,-0.01853 -6.73907,-0.01853l0.00653,-1.2318c0,0 3.59198,0.16857 5.23369,0.0694c1.35501,-0.08186 3.99901,-0.83313 3.99901,-0.83313z" fill="#000000" stroke="none" stroke-width="1.5"/><path d="M320.15967,161.89577l-0.58137,-0.59906c-2.13374,-2.21731 -4.61233,-3.25435 -6.70789,-5.41368c-0.03688,-0.03799 -0.62796,-0.46864 -1.09933,-0.93647c-0.0383,0.20023 -0.10024,0.38135 -0.18149,0.49992c-0.0551,0.08041 -0.11513,0.15627 -0.17919,0.22845l0.05019,0.03456l-0.59469,0.86371c-0.18217,0.273 -0.49485,0.45084 -0.84742,0.44556c-0.55223,-0.00828 -0.99318,-0.46265 -0.9849,-1.01487l0.01421,-0.94843c-0.95684,-1.3408 -1.62978,-3.09951 -2.63647,-4.3325c-1.36448,-1.6712 -3.62596,-3.24537 -4.5124,-5.34288c-0.60868,-1.44031 -0.44297,-2.97246 -1.329,-4.29738c-0.714,-1.18753 -1.38863,-3.1671 -1.56759,-4.5885c-0.0546,-0.43365 -0.11473,-3.90597 -0.59597,-3.86849c-1.52179,0.11853 -2.60362,1.99514 -3.74326,2.74235c-2.50478,1.64229 -5.14142,2.89111 -7.97442,2.6883l-0.00467,0.31184l-1.18043,-0.01769c-0.55223,-0.00828 -0.99319,-0.46265 -0.98491,-1.01487c0.00529,-0.35257 0.19242,-0.6598 0.47076,-0.83369l0.88114,-0.56855c2.40935,-1.53745 4.42717,-3.16368 6.3236,-5.23825c-1.17903,0.17174 -2.40551,0.04158 -3.83909,-0.296c-0.67406,-0.15873 -2.83008,-0.69882 -3.05606,-1.25127c-0.274,-0.66981 1.30419,-2.6094 1.69898,-3.05667c1.92251,-2.17814 5.0027,-4.65774 6.14947,-7.33171c0.48991,-1.14235 0.49546,-2.16301 1.22909,-3.2285c0.40044,-1.59522 0.85712,-2.95028 1.54188,-4.40452c0.05583,-0.11856 0.1013,-0.29327 0.14719,-0.47289c-0.19156,0.11456 -0.39367,0.215 -0.53514,0.28093c-1.37089,0.63883 -3.91888,1.45684 -4.88218,-0.48637c-1.06074,-2.13978 1.66087,-4.37116 2.91454,-5.56305c1.22827,-1.16775 1.53226,-3.11178 1.55613,-4.70484c2.06086,-7.74808 4.02477,-15.84837 8.7661,-22.73449c3.44279,-5.00019 8.30854,-10.06521 12.73408,-14.12998c1.09816,-1.00865 2.87347,-1.39433 4.173,-2.21113c2.12988,-0.49868 3.94886,-1.80243 6.21663,-2.05105c7.11113,-0.7796 14.51292,1.31172 21.58175,1.52339c2.50901,1.26189 5.22207,1.34222 7.8164,2.53956c3.4119,1.57466 6.38608,4.07412 9.67453,5.76262c2.51024,1.28892 4.14742,1.90104 5.73169,4.42162c0.76455,3.16812 2.24972,5.921 2.59705,9.17657c0.59145,5.5439 -0.98095,12.49733 1.48765,17.62522c-0.00011,3.04098 2.19546,5.38956 3.35916,8.13532c1.32398,3.12396 1.52224,6.15063 2.28208,9.36455c0.62271,2.63398 1.47225,4.71488 0.30314,6.76119l0.33638,0.23162l-0.59469,0.86371c-0.18216,0.273 -0.49485,0.45085 -0.84742,0.44556c-0.47584,-0.00713 -0.86907,-0.34551 -0.96345,-0.79229l-0.24271,-1.03661c-1.41033,-2.1312 -1.65002,-4.53399 -3.27862,-6.5741c-0.07054,-0.08836 -0.14653,-0.16819 -0.22555,-0.24139c0.79093,4.9323 0.01791,10.19071 -1.20194,14.88242c-1.44119,5.4183 -3.05985,10.36803 -4.36451,15.85089c-0.65028,2.73284 -1.07618,5.32627 -2.75262,7.2211l0.30491,0.31418l-0.89859,0.87205c-0.18366,0.17822 -0.43531,0.28639 -0.71142,0.28225c-0.55221,-0.00827 -0.99318,-0.46265 -0.9849,-1.01487l0.0177,-1.18043c0.00562,-0.30344 -0.21348,-1.49201 -0.32499,-2.54658c-0.28646,0.80018 -0.6336,1.5897 -0.67594,1.69787c-0.70788,1.80854 -1.49635,2.92655 -2.67021,3.96675l0.11019,0.08524l-0.89589,1.15796c-0.18566,0.24543 -0.48174,0.40213 -0.81302,0.39717c-0.55221,-0.00827 -0.99319,-0.46265 -0.98491,-1.01487c0.00137,-0.09148 0.01499,-0.17989 0.03926,-0.26374l0.28325,-1.06491c0.01409,-1.17112 -0.01054,-2.82179 0.14561,-4.19706c-0.46648,0.40176 -0.97605,0.77014 -1.28526,1.12954c-1.89067,2.19755 -3.74221,3.84117 -6.00395,5.43708c-1.14802,1.33344 -2.43137,2.49982 -3.82193,3.50138c-0.19771,0.2874 -0.39558,0.57471 -0.5934,0.86204c-2.24723,3.26379 -5.76084,5.5078 -8.92863,7.5083c-0.86449,0.54593 -1.42903,1.66935 -2.56476,2.1249c-3.07847,1.23478 -8.06047,-0.70466 -9.48195,-3.50648c-0.51918,-0.82415 -0.59724,-2.11813 -1.27659,-2.76568c-1.67672,-1.59822 -3.33975,-3.12823 -4.94237,-4.78911c-0.34666,-0.06153 -0.58952,-0.31178 -0.58952,-0.31178zM327.1268,165.60378c0.90184,0.98188 0.87949,2.1171 1.58603,3.18072c0.84969,1.89954 4.86483,3.53405 6.95568,2.64335c1.04176,-0.44379 1.37834,-1.38357 2.2189,-1.93586c1.84975,-1.2154 3.87445,-2.45705 5.64963,-3.98501c-3.30705,1.3224 -6.94083,1.946 -10.65045,1.89041c-2.69114,-0.05581 -4.20476,-1.12442 -6.33469,-2.40169c0.19507,0.2009 0.38698,0.40347 0.5749,0.60807zM348.16657,159.79354l0.96592,-0.94418c0,0 0.31699,-0.30761 0.73405,-0.30329c0.40024,-0.26219 0.7893,-0.52557 1.16859,-0.7912c0.4871,-0.57002 0.95032,-1.17258 1.38778,-1.80794c1.21211,-0.58285 0.18606,-1.30655 -1.08121,-1.89243l-0.00709,0.01146c-2.30098,0.53874 -4.30059,1.68998 -6.48033,2.25123c-2.1727,0.55945 -4.73176,-0.18685 -6.98372,0.22855c-0.48819,-0.00842 -0.97944,-0.01887 -1.47306,-0.03213c-0.19054,0.02078 -0.4115,0.0125 -0.65051,-0.01914c-3.89965,-0.12506 -7.92776,-0.44668 -11.75134,-1.35687c-2.83274,-0.67433 -6.04918,-2.47946 -8.89399,-2.47032c0,0 -0.2021,-0.00303 -0.42321,-0.09723c0.00385,0.17763 0.02117,0.37086 0.05275,0.58168c2.58979,1.58725 4.78688,4.56716 6.87257,6.76094c1.46342,1.53928 3.86796,2.117 5.65073,3.17379c1.99877,1.18482 3.20462,2.29171 5.66205,2.31114c5.23381,0.07844 10.16171,-1.25575 14.19185,-4.07496c0.35199,-0.51021 0.7045,-1.02003 1.05815,-1.52911zM363.22657,129.45741c0.90477,-0.26432 1.17161,-1.12333 2.01992,-1.95026c3.04068,-2.96406 3.61394,-6.12959 3.70668,-10.33173c-0.51841,-2.62165 -2.99902,-0.10491 -3.76339,1.19969c-0.45733,0.78056 -0.85038,1.60823 -1.17347,2.4678c0.04852,0.48738 0.15429,0.98449 0.02104,1.44444c-0.35848,1.23742 -0.71627,2.48252 -1.06763,3.73571c-0.0428,1.15035 0.03918,2.30488 0.25685,3.43434zM355.8451,147.26516c0.47336,-1.49806 1.56323,-2.55412 1.79906,-4.23304c0.47125,-3.35485 -0.83035,-6.84064 1.40584,-9.71055c0.52931,-2.69909 1.20107,-5.35145 1.95413,-7.95216c0.12185,-1.77673 0.5025,-3.54079 1.11817,-5.19442c-0.0276,-0.29198 -0.03348,-0.58082 0.04513,-0.8567c0.68071,-2.38912 1.51531,-4.878 1.92576,-7.44451l-0.21216,-0.12498c-1.79098,-0.49671 -3.5478,-1.30457 -5.02851,-2.44981c-0.71148,0.02359 -1.43015,0.01816 -2.15331,-0.00618c-0.06567,0.00992 -0.13671,0.01477 -0.21358,0.01362c-0.10112,-0.00151 -0.19185,-0.0131 -0.27328,-0.03271c-3.71965,-0.16566 -7.54228,-0.76878 -11.10925,-0.44055c-1.27726,0.11754 -3.88351,2.2909 -5.1832,1.19387c-0.55119,-0.46525 -0.50461,-1.33772 -0.33766,-2.13544c-0.00566,-0.00565 -0.01131,-0.01137 -0.01696,-0.0172c-0.69643,-0.71762 0.02119,-1.41405 0.02119,-1.41405l0.86174,-0.76478c1.0123,-0.48541 1.99559,-1.33475 3.02058,-1.74587c1.97697,-0.79296 4.42241,-0.56596 6.43446,-0.27675c3.48195,0.5005 7.13164,-0.48992 7.55664,3.68764c0.67396,-0.00359 1.34218,0.00402 2.00082,0.03311c1.53596,0.98734 3.09965,1.94577 4.8598,2.40324c0.01416,-0.26013 0.02258,-0.52096 0.02465,-0.78248c0.06195,-4.13367 -0.63146,-7.85079 -1.56309,-11.88304c-0.33898,-1.46717 -0.04068,-3.21699 -1.92007,-3.74176c-2.61498,-0.73015 -3.43404,0.49346 -5.81519,1.05097c-3.65015,2.441 -8.97349,4.4582 -13.24447,5.46857c-2.21509,0.52402 -4.29207,0.60592 -6.24959,1.86422l-0.0666,0.00493l0.01145,0.02375l-1.17116,0.56381c-0.14006,0.07108 -0.29893,0.1101 -0.46687,0.10759c-0.55223,-0.00828 -0.99318,-0.46265 -0.9849,-1.01487c0.00528,-0.35258 0.19241,-0.65979 0.47074,-0.83369l0.88115,-0.56855l0.06789,0.10523l0.00859,-0.00413c1.18725,-1.43265 2.56359,-2.62682 4.03238,-3.81808c0.41695,-0.33818 0.93293,-0.95262 1.45426,-1.46059c-0.70121,0.23068 -1.48759,0.19785 -2.17198,0.48131c-2.30007,0.95266 -4.73586,1.85203 -7.00738,2.90548c-2.42497,-0.00009 -3.95409,1.05066 -6.05257,1.91678c-3.92149,1.61853 -8.52197,2.29408 -12.38427,3.61883c-0.79356,0.27219 -0.87403,3.15737 -1.03409,3.77292c-0.4037,1.47697 -0.60097,2.89098 -0.6452,4.27131c1.24315,-0.09 2.48581,-0.27593 3.72862,-0.50722c0.15018,-0.8183 1.21096,-2.53104 1.65791,-2.75115c1.41502,-0.69688 3.4615,0.41312 4.90492,-0.00191c1.78127,-0.51217 3.61522,-1.80292 5.51103,-2.01905c1.54503,-0.17613 5.37128,0.33987 6.26,1.74135c0.4533,0.71483 0.01836,3.298 -0.68734,3.73449c-0.55172,0.34126 -1.28976,-0.14102 -1.93465,-0.21152c-1.38485,-0.37851 -2.77986,-0.52349 -4.18088,-0.51305c1.77812,1.16074 5.98742,0.97326 7.03973,2.95102c0.80833,1.51919 0.64476,3.15104 0.06008,4.76462c0.27752,0.30025 0.27108,0.73022 0.27108,0.73022c-0.04327,2.88774 1.03601,5.33487 1.34605,8.16288c0.46373,4.22987 -0.12512,8.84835 -0.18894,13.10706c-0.04917,3.28076 -0.39234,6.48372 -0.44106,9.73418c-0.01076,0.71767 -0.32474,2.29586 0.06809,2.967c0.26436,0.45165 1.00942,0.29219 1.4836,0.51362c0.08425,0.03934 0.14433,0.1567 0.20234,0.25868c0.12174,0.00388 0.24338,0.00752 0.36486,0.01095c0.21533,-0.35093 -0.07658,-1.01684 -0.01321,-1.4795c0.26905,-1.96424 0.34205,-3.89555 0.38357,-5.89775c0.33515,-1.26001 0.57455,-2.53781 0.74799,-3.82777c-0.14098,-0.24546 -0.21425,-0.59929 0.07549,-1.02007c0.01855,-0.02694 0.03735,-0.05238 0.05642,-0.07641c0.70806,-6.62703 -0.08874,-13.52983 1.58153,-19.95392c0.05814,-0.21856 0.11627,-0.43713 0.17441,-0.6557c-0.00707,-0.06582 -0.01369,-0.13163 -0.01981,-0.19745c-0.29471,-0.07313 -0.75758,-0.29669 -0.74735,-0.97938c0.0095,-0.63359 0.41447,-0.85969 0.7099,-0.94031c0.09221,-1.60372 0.50788,-3.11522 1.30777,-4.30702c1.57769,-2.27097 4.16012,-4.43942 6.97998,-4.76088c5.34085,-0.60886 14.14255,2.60303 12.48769,9.2717c-0.01361,0.90826 0.09932,2.35603 -0.71753,3.01674c-0.00899,0.00728 -0.01809,0.01445 -0.02729,0.02151c-0.47766,3.09877 -2.0935,5.83147 -4.87079,7.62347c-1.99583,1.2 -4.09874,0.66879 -6.2907,0.36137c-2.12087,-0.29746 -4.25934,-0.47038 -5.866,-2.14439c-0.72509,-0.7555 -1.34166,-1.7162 -1.82513,-2.79014c-0.85974,5.44624 -0.35075,11.19041 -0.91345,16.72304c1.82735,1.47914 2.83881,3.4579 0.56858,5.2636c1.40591,-0.02864 2.89947,-0.08917 4.16782,0.46425c2.42487,1.05803 4.60746,2.55994 6.96499,3.58479c0.07603,-0.01421 0.15962,-0.02142 0.25154,-0.02004c0.45823,0.00687 0.70331,0.22058 0.83438,0.45012c0.18735,0.0665 0.37614,0.1293 0.56655,0.18798c0.33427,0.10303 0.6411,0.23759 0.91663,0.39734c1.15281,-1.77937 1.79593,-3.65106 2.4015,-5.56757zM312.28577,131.55307c-0.08915,5.94853 1.30026,11.71749 1.21018,17.72863l-0.01615,1.07759c1.58513,-2.62356 5.85904,-3.53576 9.20468,-3.1132c1.82527,0.23054 4.19167,1.55098 6.06667,1.01187c0.6621,-0.19038 1.18586,-0.41906 1.73996,-0.59497c-3.51854,-2.56286 -2.00301,-6.08277 1.78718,-6.43954c0.00139,-0.07339 0.00264,-0.14682 0.00374,-0.22028c0.06255,-4.17343 0.65611,-8.71932 0.20025,-12.8625c-0.2305,-2.09503 -0.85525,-3.98069 -1.17086,-5.98699c-0.82664,1.40755 -1.70312,2.72715 -2.20313,3.85743c-0.49507,1.11914 -0.74263,2.41688 -1.77763,3.27028c-0.69046,0.5693 -1.58596,0.83345 -2.34314,1.31043c-5.26903,1.26012 -11.05281,-2.57412 -12.72903,-7.57176c0.31968,2.80196 0.06861,5.77285 0.02725,8.533zM350.93167,105.68107c-2.12606,-0.03829 -4.60279,-0.77586 -6.68124,0.10956c-0.82788,0.35268 -1.61593,0.96319 -2.42809,1.43559c-0.0608,0.21363 -0.16042,0.53347 -0.26488,0.80776c0.89857,-0.54025 3.06874,-1.15715 3.33107,-1.18926c1.32622,-0.16231 2.50703,0.16869 3.78122,0.35184c2.18187,0.31361 4.48743,0.2502 6.77155,0.19771c-0.36375,-2.03198 -2.30625,-1.6735 -4.50964,-1.71318zM312.68514,116.35304c0,0 0.19226,-0.37053 0.56774,-0.50858l0.0953,-0.17934c1.1913,-1.47356 2.5938,-1.46903 4.35375,-2.08903c0.90094,-0.31739 1.67875,-1.02009 2.49142,-1.58655c-3.23444,0.6526 -6.47168,1.58157 -9.66165,1.84329c0.15144,2.23871 0.65024,4.42418 1.25543,6.68858c-0.05933,-1.3768 0.21255,-2.7896 0.89801,-4.16837zM324.46362,153.19313c2.45256,0.5836 4.99207,0.92499 7.52321,1.1212c-0.385,-1.08825 -0.16168,-2.52115 -0.14585,-3.577c0.00675,-0.45031 0.01913,-0.89951 0.03558,-1.34799c-1.4916,0.08514 -2.47697,0.81392 -4.04541,0.81213c-3.83515,-0.00441 -6.50141,-1.56461 -10.27608,-0.21614c-0.71675,0.25605 -1.3436,0.45216 -1.82767,0.71825c2.90395,0.26649 5.88012,1.80991 8.73623,2.48952zM337.70333,154.55275c2.06474,-0.38086 4.66452,0.39835 6.60013,-0.15821c1.40934,-0.40524 2.74821,-0.99991 4.14606,-1.5195c-3.4046,-1.53409 -5.73136,-3.04081 -9.69051,-3.10014l-0.1459,0.1874c0,0 -0.13487,0.06492 -0.32536,0.09237c-0.04327,1.5456 -0.18608,3.10934 -0.6769,4.49687c0.03084,0.00042 0.06166,0.00082 0.09247,0.00122zM331.69482,146.06573l0.34488,0.17269c0.06044,-1.0006 0.12297,-2.00204 0.17016,-3.00858c-1.81781,0.2269 -2.6097,1.46168 -0.51504,2.8359zM341.03704,121.60022c-0.01706,0.06413 -0.03412,0.12827 -0.05117,0.1924c0.3138,2.11693 1.18508,4.19526 2.36108,5.38632c1.29456,1.31116 3.03145,1.32144 4.70484,1.55613c1.52085,0.21329 3.60137,0.9063 4.93229,-0.06078c1.95896,-1.26399 3.42945,-3.28077 3.9198,-5.51666c-0.963,-0.03914 -2.04934,-0.26287 -2.97352,-0.49345c-1.76034,5.57689 -7.40961,1.72666 -10.5904,-0.43986c0,0 -0.41195,-0.28364 -0.45258,-0.74106c-0.60639,0.00029 -1.2207,-0.0022 -1.84503,-0.01096zM356.85378,120.62444l0.38864,0.13478l0.19882,-0.65269c0,0 0.08361,-0.23885 0.28688,-0.43417c-0.01653,-0.08834 -0.02643,-0.17355 -0.02523,-0.25335c0.56865,-1.97491 -0.1624,-2.90564 -1.42252,-4.20991c-0.44795,-0.46364 -0.52715,-1.33713 -1.12787,-1.57116c-0.69414,-0.27043 -1.49652,-0.09274 -2.21702,-0.28212c-4.55879,-1.19826 -8.2236,-1.22095 -11.07183,2.96068c-0.5918,0.82999 -0.902,1.93435 -0.98321,3.1363c2.02028,-0.00587 4.08774,-0.05186 6.12843,0.03692c3.25934,0.03563 6.42859,0.22607 9.8449,1.13474zM323.70655,109.52787c2.24018,-0.24249 4.48632,-0.21683 6.74225,0.36971c0.85487,0.84813 0.47566,-0.44174 0.39102,-0.56432c-0.37016,-0.53614 -3.55935,-0.85813 -4.32852,-0.77874c-0.93985,0.097 -1.87777,0.52797 -2.80473,0.97334zM324.06642,125.30744c-1.8182,0.54918 -3.57018,-0.30728 -5.10699,-1.00465c-0.69516,-0.31546 -2.14959,-0.27107 -2.65143,-0.83752c-0.88914,-1.00362 -0.58639,-1.93806 -0.31169,-2.93956c-0.75951,-0.02242 -1.51907,-0.0407 -2.27848,-0.05312c0.22936,4.7781 5.88865,9.31754 10.48809,8.27827c0.57598,-0.38261 1.27971,-0.56172 1.82376,-0.98851c0.77305,-0.60643 0.90385,-1.79217 1.26192,-2.58768c0.57677,-1.28142 1.60018,-2.68727 2.4607,-4.16674l-0.30288,-0.00453c-0.86748,-0.013 -1.73653,-0.03401 -2.60683,-0.06039c-0.44441,1.72045 -0.77214,3.7591 -2.77618,4.36442zM329.4794,119.00363l0.88533,0.01326c0,0 0.15923,0.00239 0.34966,0.0688c0.50858,-1.27384 0.72579,-2.58361 0.30185,-3.90017c-0.15105,-0.46909 -0.94383,-0.28488 -1.42089,-0.40848c-1.52596,-0.3953 -3.17124,-0.61652 -4.45157,-1.55564c-0.87554,0.02903 -2.14122,-0.2605 -2.9618,-0.04438c-1.27945,0.33696 -2.50333,1.80877 -3.81435,2.28502c-0.95994,0.34873 -3.04344,0.5722 -3.37216,1.33729l-0.23998,0.47925c0,0 -0.18408,0.35478 -0.54379,0.49936c-0.10134,0.23114 -0.18644,0.46416 -0.25608,0.69841c5.18761,0.09206 10.38564,0.45025 15.52378,0.52725zM338.61526,146.14306c0.75655,-0.32565 0.63926,-0.81438 0.24413,-1.28254c-0.0722,0.42935 -0.15319,0.85695 -0.24413,1.28254z" fill="#000000" stroke="none" stroke-width="0.5"/><path d="M362.76677,126.41622c0.35135,-1.2532 0.69416,-2.54708 1.05264,-3.7845c0.13325,-0.45995 0.04053,-0.98045 -0.00799,-1.46784c0.3231,-0.85958 0.74321,-1.70136 1.20054,-2.48192c0.76436,-1.3046 3.27722,-3.81604 3.79563,-1.19439c-0.09274,4.20214 -0.697,7.46112 -3.73768,10.42518c-0.8483,0.82693 -1.12667,1.68281 -2.03143,1.94714c-0.21767,-1.12946 -0.3145,-2.29331 -0.2717,-3.44366z" data-paper-data="{&quot;noHover&quot;:false,&quot;origItem&quot;:[&quot;Path&quot;,{&quot;applyMatrix&quot;:true,&quot;segments&quot;:[[[268.21396,123.01191],[-0.23457,-1.12607],[0.90071,-0.27784]],[[270.20442,121.0316],[-0.83582,0.83955],[2.99592,-3.00929]],[[273.75586,110.64549],[-0.02976,4.20306],[-0.55764,-2.61359]],[[270.01088,111.90144],[0.74473,-1.31591],[-0.44558,0.78732]],[[268.87451,114.38655],[0.31018,-0.86432],[0.05582,0.4866]],[[268.9172,115.83051],[0.12634,-0.46189],[-0.3399,1.24265]],[[267.90567,119.58181],[0.33253,-1.25832],[-0.02556,1.15086]]],&quot;closed&quot;:true}]}" fill="#ffffff" stroke="none" stroke-width="0.5"/><path d="M340.82819,121.80625c0.62432,0.00876 1.24142,0.00633 1.8478,0.00605c0.04063,0.45743 0.45105,0.74359 0.45105,0.74359c3.18079,2.16652 8.91769,6.01769 10.67804,0.4408c0.92418,0.23059 2.01466,0.46467 2.97767,0.50381c-0.49035,2.23589 -1.97025,4.29745 -3.92921,5.56144c-1.33092,0.96707 -3.46243,0.29104 -4.98329,0.07774c-1.67339,-0.23469 -3.44558,-0.27788 -4.74015,-1.58904c-1.17599,-1.19108 -2.04535,-3.3055 -2.35915,-5.42243c0.01706,-0.06413 0.0346,-0.12929 0.05165,-0.19342z" data-paper-data="{&quot;noHover&quot;:false,&quot;origItem&quot;:[&quot;Path&quot;,{&quot;applyMatrix&quot;:true,&quot;segments&quot;:[[[245.90918,115.48812],[0,0],[-0.0161,0.06438]],[[245.8609,115.68126],[0.0161,-0.06438],[0.34549,2.11199]],[[248.30242,121.0316],[-1.19371,-1.17332],[1.31407,1.29162]],[[253.03005,122.51705],[-1.67672,-0.20959],[1.52388,0.19048]],[[257.96087,122.38236],[-1.31628,0.98691],[1.9398,-1.2932]],[[261.79756,116.80758],[-0.45679,2.24299],[-0.96348,-0.0247]],[[258.81698,116.35875],[0.92753,0.21671],[-1.67658,5.60265]],[[248.22118,116.07763],[3.2129,2.11862],[0,0]],[[247.75755,115.34344],[0.04748,0.45677],[-0.60632,0.00937]],[[245.91257,115.36011],[0.62439,-0.00059],[0,0]]],&quot;closed&quot;:true}]}" fill="#ffffff" stroke="none" stroke-width="0.5"/><path d="M341.08729,154.92222c0.35003,0.50278 0.39546,1.0939 -0.38803,1.34799c0.13,-0.41532 0.27633,-0.92719 0.38803,-1.34799z" data-paper-data="{&quot;noHover&quot;:false,&quot;origItem&quot;:[&quot;Path&quot;,{&quot;applyMatrix&quot;:true,&quot;segments&quot;:[[[243.85545,140.0645],[0.08455,-0.4269],[0.75159,-0.33695]],[[244.08034,138.77845],[0.40211,0.46218],[-0.06576,0.43038]]],&quot;closed&quot;:true}]}" fill="#ffffff" stroke="none" stroke-width="0.5"/><path d="M337.12098,156.40486c-0.1403,0.99784 -0.30773,2.07638 -0.46068,3.06706l-0.33557,-0.20167c-1.95821,-1.56251 -1.03477,-2.80801 0.79625,-2.86539z" data-paper-data="{&quot;noHover&quot;:false,&quot;origItem&quot;:[&quot;Path&quot;,{&quot;applyMatrix&quot;:true,&quot;segments&quot;:[[[236.93463,140.09088],[-2.11501,-1.34267],[0,0]],[[237.28205,140.25838],[0,0],[0.04544,-1.00139]],[[237.40711,137.24758],[-0.03209,1.00714],[-1.81421,0.25412]]],&quot;closed&quot;:true}]}" fill="#999999" stroke="none" stroke-width="0.5"/><path d="M337.34531,154.22439c0.60217,-1.34294 0.87567,-2.93009 1.04465,-4.46703c0.19209,-0.01184 0.33291,-0.06745 0.33291,-0.06745l0.16195,-0.17688c3.94118,0.38153 6.22774,2.11091 9.49613,3.91714c-1.43552,0.40404 -2.84591,0.92297 -4.28357,1.2121c-1.9745,0.3971 -4.57103,-0.6203 -6.65991,-0.40883c-0.03067,-0.0029 -0.06146,-0.00612 -0.09216,-0.00904z" data-paper-data="{&quot;noHover&quot;:false,&quot;origItem&quot;:[&quot;Path&quot;,{&quot;applyMatrix&quot;:true,&quot;segments&quot;:[[[243.06965,148.48691],[-0.03081,0.00007],[2.0588,-0.41176]],[[249.66667,148.22981],[-1.92705,0.5855],[1.40311,-0.42631]],[[253.7895,146.64835],[-1.3899,0.54048],[-3.42721,-1.4829]],[[244.05361,143.69377],[3.9596,0],[0,0]],[243.91054,143.88335],[[243.58661,143.98057],[0.19006,-0.03029],[-0.02011,1.54608]],[[242.97718,148.48708],[0.46997,-1.39472],[0.03084,-0.00005]]],&quot;closed&quot;:true}]}" fill="#999999" stroke="none" stroke-width="0.5"/><path d="M315.62049,150.86153c0.46428,-0.29929 1.07682,-0.54588 1.7739,-0.85141c3.67115,-1.60908 6.53424,-0.25041 10.36032,-0.51414c1.56474,-0.10786 2.49835,-0.89988 3.98036,-1.08909c0.01494,0.44853 0.03616,0.90521 0.06091,1.35489c0.05804,1.05438 -0.06503,2.5208 0.39511,3.57947c-2.53865,-0.01878 -5.12239,-0.14869 -7.60974,-0.55939c-2.89663,-0.47828 -6.04539,-1.8575 -8.96086,-1.9203z" data-paper-data="{&quot;noHover&quot;:false,&quot;origItem&quot;:[&quot;Path&quot;,{&quot;applyMatrix&quot;:true,&quot;segments&quot;:[[[229.81105,147.32584],[-2.86597,-0.63674],[2.46103,0.54678]],[[237.35022,148.33418],[-2.53379,-0.15827],[-0.40126,-1.08236]],[[237.15078,144.75977],[0,1.05597],[0,-0.45036]],[[237.16616,143.41141],[-0.00974,0.44868],[-1.49016,0.10748]],[[233.13337,144.28406],[1.56831,-0.0217],[-3.83479,0.05306]],[[222.8552,144.22195],[3.75403,-1.40489],[-0.71284,0.26676]],[[221.03849,144.9675],[0.48003,-0.27332],[2.90762,0.22295]]],&quot;closed&quot;:true}]}" fill="#999999" stroke="none" stroke-width="0.5"/><path d="M348.59333,160.7854c-3.84631,3.06527 -8.73453,4.74933 -13.96302,4.99773c-2.45385,0.13398 -3.76401,-0.91674 -5.83282,-1.9745c-1.84526,-0.94346 -4.28977,-1.39229 -5.84643,-2.83721c-2.21854,-2.05932 -4.59628,-4.91462 -7.28009,-6.33712c-0.04468,-0.20845 -0.0737,-0.40151 -0.08864,-0.57854c0.22657,0.08021 0.42849,0.0705 0.42849,0.0705c2.8387,-0.18668 6.16235,1.41155 9.03166,1.90774c3.87293,0.66976 7.9883,0.71374 11.88815,0.59514c0.24052,0.01665 0.46722,0.01549 0.65609,-0.01714c0.49348,-0.01757 0.99172,-0.0297 1.47949,-0.05176c2.22165,-0.55515 4.82928,0.04382 6.96282,-0.65014c2.14045,-0.6962 3.96962,-1.93792 6.23249,-2.61923l0.10053,-0.04552c1.30137,0.50563 2.37216,1.16924 1.1988,1.82661c-0.39695,0.66143 -0.82083,1.29613 -1.2714,1.89544c-0.36197,0.28879 -0.73358,0.57807 -1.11668,0.86474c-0.41652,0.02172 -0.7136,0.34942 -0.7136,0.34942l-0.90495,1.00583c-0.32119,0.53016 -0.64144,1.06682 -0.96089,1.59801z" data-paper-data="{&quot;noHover&quot;:false,&quot;origItem&quot;:[&quot;Path&quot;,{&quot;applyMatrix&quot;:true,&quot;segments&quot;:[[[253.61024,153.57032],[-0.34599,0.51432],[0,0]],[254.5619,152.61178],[[255.29132,152.29752],[-0.41708,0.00193],[0.39627,-0.26816]],[[256.44793,151.4889],[-0.37527,0.27129],[0.4785,-0.57725]],[[257.80846,149.66036],[-0.42789,0.64184],[1.20324,-0.60095]],[[256.69903,147.78435],[1.27591,0.56681],[0,0]],[[256.69211,147.79591],[0,0],[-2.29265,0.57316]],[[250.24624,150.14399],[2.17108,-0.59385],[-2.16407,0.59194]],[[243.26673,150.47717],[2.24549,-0.44909],[-0.48826,-0.00111]],[[241.79335,150.46712],[0.49376,0.00587],[-0.1902,0.02364]],[[241.14262,150.45773],[0.23946,0.02805],[-3.90109,-0.06661]],[[229.37227,149.27711],[3.83678,0.85279],[-2.84253,-0.6318]],[[220.44226,146.94034],[2.84436,-0.05176],[0,0]],[[220.01764,146.84947],[0.22251,0.09087],[0.00652,0.17755]],[[220.07911,147.43028],[-0.03474,-0.21033],[2.61328,1.54826]],[[227.05221,154.08748],[-2.11832,-2.16228],[1.48632,1.51717]],[[232.74987,157.17625],[-1.79841,-1.02996],[2.0163,1.15474]],[[238.44592,159.40229],[-2.45745,0.01739],[5.23439,0]],[[252.57511,155.11512],[-3.98744,2.87929],[0.3443,-0.51542]]],&quot;closed&quot;:true}]}" fill="#999999" stroke="none" stroke-width="0.5"/><path d="M311.93966,123.09716c1.61946,5.01632 7.411,8.911 12.69398,7.71068c0.76254,-0.46837 1.66881,-0.71763 2.36567,-1.27908c1.0446,-0.84162 1.24916,-2.05481 1.75689,-3.16826c0.51279,-1.12455 1.4596,-2.51734 2.30214,-3.91543c0.29285,2.00974 0.90826,3.91347 1.115,6.01097c0.40886,4.14809 -0.23073,8.73974 -0.34058,12.9122c-0.00194,0.07345 -0.00441,0.14767 -0.00664,0.22103c-3.79399,0.31378 -5.36516,3.83444 -1.87589,6.43702c-0.55606,0.16961 -1.08792,0.39571 -1.75213,0.57856c-1.88099,0.51783 -4.25431,-0.82371 -6.07685,-1.07492c-3.34066,-0.46046 -7.65274,0.39532 -9.2675,3.00074l0.02689,-1.07832c0.15821,-6.00974 -1.18224,-11.85687 -1.02567,-17.80401c0.07265,-2.7595 0.37259,-5.74579 0.08469,-8.55119z" data-paper-data="{&quot;noHover&quot;:false,&quot;origItem&quot;:[&quot;Path&quot;,{&quot;applyMatrix&quot;:true,&quot;segments&quot;:[[[217.31028,125.87069],[0,-2.76046],[0,5.9492]],[[218.78599,143.5792],[0,-6.01182],[0,0]],[[218.78599,144.65691],[0,0],[1.54563,-2.64701]],[[227.94299,141.40613],[-3.35162,-0.37239],[1.82852,0.20316]],[[234.02415,142.32697],[-1.86671,0.56716],[0.65917,-0.20028]],[[235.755,141.706],[-0.55141,0.18419],[-3.55655,-2.50985]],[[237.44548,135.2404],[-3.78441,0.41352],[0.00029,-0.0734]],[[237.44592,135.02009],[0,0.07348],[0,-4.1739]],[[237.45341,122.15603],[0.51789,4.13589],[-0.26187,-2.09134]],[[236.19296,116.18725],[0.34564,2.00134],[-0.80545,1.41978]],[[234.04788,120.07726],[0.48301,-1.13765],[-0.47825,1.12643]],[[232.31946,123.37381],[1.02209,-0.86882],[-0.68185,0.57959]],[[229.99622,124.71921],[0.74995,-0.48828],[-5.24956,1.33894]],[[217.15516,117.33905],[1.75091,4.97196],[0.36163,2.79685]]],&quot;closed&quot;:true}]}" fill="#999999" stroke="none" stroke-width="0.5"/><path d="M346.80711,119.88388c-2.04071,-0.08878 -4.12324,-0.0653 -6.14352,-0.05943c0.08121,-1.20195 0.38898,-2.3241 0.98077,-3.15409c2.84823,-4.18163 6.59944,-4.19094 11.15823,-2.99268c0.7205,0.18937 1.53066,0.02264 2.22481,0.29306c0.60071,0.23403 0.6846,1.1205 1.13255,1.58414c1.26013,1.30428 1.98968,2.26115 1.42103,4.23606c-0.00119,0.0798 0.00827,0.16626 0.02479,0.25459c-0.20326,0.19534 -0.28794,0.43689 -0.28794,0.43689l-0.20047,0.65615l-0.38881,-0.13446c-3.4163,-0.90868 -6.6621,-1.0846 -9.92145,-1.12024z" data-paper-data="{&quot;noHover&quot;:false,&quot;origItem&quot;:[&quot;Path&quot;,{&quot;applyMatrix&quot;:true,&quot;segments&quot;:[[[261.70952,114.27544],[-3.42953,-0.85738],[0,0]],[262.10014,114.40438],[262.28915,113.74879],[[262.56949,113.31035],[-0.20031,0.19836],[-0.01785,-0.08808]],[[262.54047,113.05741],[0,0.07981],[0.539,-1.98321]],[[261.05502,108.86928],[1.27954,1.28525],[-0.45485,-0.45688]],[[259.90374,107.3152],[0.60415,0.225],[-0.69812,-0.25999]],[[257.68275,107.06633],[0.72325,0.17856],[-4.57623,-1.12981]],[[246.65652,110.19259],[2.78525,-4.22384],[-0.5793,0.83877]],[[245.72042,113.34326],[0.06319,-1.20303],[2.01996,-0.03614]],[[251.84871,113.28834],[-2.04181,-0.05819],[3.25951,-0.01321]]],&quot;closed&quot;:true}]}" fill="#999999" stroke="none" stroke-width="0.5"/><path d="M311.49421,120.67168c-0.57949,-2.27111 -1.06563,-4.52334 -1.19168,-6.76363c3.19273,-0.22554 6.52274,-1.12716 9.76436,-1.74306c-0.81904,0.55721 -1.67658,1.32037 -2.58107,1.62752c-1.76686,0.60001 -3.08765,0.5574 -4.29558,2.01738l-0.09615,0.17365c-0.37703,0.13379 -0.57245,0.49052 -0.57245,0.49052c-0.70105,1.37091 -1.07116,2.82025 -1.02742,4.19763z" data-paper-data="{&quot;noHover&quot;:false,&quot;origItem&quot;:[&quot;Path&quot;,{&quot;applyMatrix&quot;:true,&quot;segments&quot;:[[[217.48184,110.66638],[-0.66473,1.38889],[0,0]],[[218.0419,110.14936],[-0.37337,0.14366],[0,0]],[[218.1345,109.96861],[0,0],[1.16908,-1.49125]],[[222.45645,107.81458],[-1.75045,0.6463],[0.89608,-0.33085]],[[224.92382,106.19087],[-0.80409,0.57857],[-3.22429,0.701]],[[215.29088,108.17873],[3.18569,-0.30949],[0.18497,2.23619]],[[216.6464,114.84774],[-0.63906,-2.25507],[-0.07996,-1.37575]]],&quot;closed&quot;:true}]}" fill="#999999" stroke="none" stroke-width="0.5"/><path d="M326.53555,121.25482c0.86994,0.03624 1.82464,0.01683 2.69192,0.03966l0.30312,0.00866c-0.87724,1.46962 -1.91233,2.88867 -2.5036,4.16347c-0.36707,0.7914 -0.52038,2.00013 -1.30023,2.59775c-0.54886,0.42059 -1.26912,0.60532 -1.8494,0.98138c-4.61092,0.98707 -10.28838,-3.68293 -10.46357,-8.46332c0.75922,0.02103 1.60213,0.10228 2.36134,0.1333c-0.28604,0.99833 -0.59066,1.91112 0.28705,2.92475c0.49539,0.5721 1.95099,0.54059 2.64253,0.8639c1.52881,0.71474 3.17318,1.5704 4.99749,1.04187c2.01078,-0.58257 2.36947,-2.57611 2.83335,-4.29141z" data-paper-data="{&quot;noHover&quot;:false,&quot;origItem&quot;:[&quot;Path&quot;,{&quot;applyMatrix&quot;:true,&quot;segments&quot;:[[[228.99602,119.44923],[1.99475,-0.63529],[-1.80977,0.57637]],[[223.87455,118.52123],[1.54709,0.67426],[-0.69981,-0.305]],[[221.21087,117.72354],[0.51028,0.55887],[-0.90408,-0.99018]],[[220.85516,114.78898],[-0.25967,1.00552],[-0.75976,-0.01104]],[[218.57615,114.77001],[0.75951,0.00104],[0.30094,4.77413]],[[229.18711,122.89018],[-4.58335,1.10807],[0.57018,-0.3912]],[[230.99585,121.87445],[-0.5376,0.43489],[0.76387,-0.61794]],[[232.21885,119.26816],[-0.34611,0.80079],[0.55751,-1.28992]],[[234.61684,115.06501],[-0.83826,1.4922],[0,0]],[[234.31393,115.06501],[0,0],[-0.86758,0]],[[231.70649,115.04369],[0.8706,0.01334],[-0.41858,1.72692]]],&quot;closed&quot;:true}]}" fill="#ffffff" stroke="none" stroke-width="0.5"/><path d="M313.66972,118.62618c0.07229,-0.23345 0.15923,-0.4689 0.26319,-0.69889c0.36133,-0.1405 0.54902,-0.49551 0.54902,-0.49551l0.24506,-0.47933c0.33738,-0.76131 2.42358,-0.97278 3.38741,-1.31059c1.31633,-0.46136 2.59924,-1.96155 3.88243,-2.284c0.82298,-0.20681 2.12621,0.10975 3.00202,0.09064c1.26961,0.95358 2.92774,1.22197 4.44911,1.63454c0.47564,0.129 1.27094,-0.04238 1.41667,0.4284c0.40899,1.32127 0.17371,2.65113 -0.34927,3.91913c-0.18968,-0.06857 -0.34899,-0.07243 -0.34899,-0.07243l-0.88591,-0.02141c-5.13693,-0.13524 -10.42448,-0.5597 -15.61071,-0.71055z" data-paper-data="{&quot;noHover&quot;:false,&quot;origItem&quot;:[&quot;Path&quot;,{&quot;applyMatrix&quot;:true,&quot;segments&quot;:[[[234.31393,113.06501],[-5.13871,0],[0,0]],[235.19936,113.06501],[[235.55002,113.12857],[-0.19141,-0.06355],[0.48943,-1.28132]],[[235.79339,109.22432],[0.44362,1.31005],[-0.15806,-0.46678]],[[234.36654,108.83718],[0.47887,0.11643],[-1.53171,-0.37239]],[[229.89216,107.34842],[1.29426,0.91983],[-0.875,0.04215]],[[226.93003,107.34842],[0.81725,-0.22839],[-1.27426,0.35609]],[[223.15035,109.69035],[1.30373,-0.49584],[-0.95461,0.36307]],[[219.7986,111.07801],[0.31723,-0.76993],[0,0]],[219.56584,111.56081],[[219.02959,112.06827],[0.3575,-0.14996],[-0.09787,0.23264]],[[218.784,112.77044],[0.06612,-0.23527],[5.18841,0.01431]]],&quot;closed&quot;:true}]}" fill="#999999" stroke="none" stroke-width="0.5"/><path d="M353.29859,153.23255c-0.27553,-0.15975 -0.58317,-0.29386 -0.91745,-0.39689c-0.1904,-0.05868 -0.37976,-0.12118 -0.56712,-0.18769c-0.13106,-0.22953 -0.37691,-0.44286 -0.83513,-0.44973c-0.09192,-0.00138 -0.17586,0.00598 -0.25188,0.0202c-2.35753,-1.02486 -4.5488,-2.5235 -6.97366,-3.58154c-1.26835,-0.55342 -2.76984,-0.4914 -4.17576,-0.46276c2.27024,-1.8057 1.25872,-3.78444 -0.56863,-5.26359c0.5627,-5.53263 0.0082,-11.35607 0.86794,-16.80231c0.48346,1.07396 1.10576,2.02811 1.83086,2.7836c1.60665,1.67401 3.73814,1.8553 5.85901,2.15275c2.19196,0.30742 4.28999,0.84793 6.28582,-0.35207c2.77731,-1.79201 4.38968,-4.50411 4.86734,-7.60288c0.00921,-0.00706 0.01831,-0.0142 0.0273,-0.02147c0.81685,-0.66071 0.70464,-2.10197 0.71825,-3.01023c1.65487,-6.66866 -7.12768,-9.84934 -12.46851,-9.24049c-2.81986,0.32147 -5.38885,2.49711 -6.96653,4.76808c-0.79989,1.1918 -1.18028,2.60975 -1.27249,4.21348c-0.29543,0.08062 -0.70467,0.30522 -0.71416,0.93882c-0.01023,0.68269 0.46847,0.91429 0.76317,0.98743c0.00612,0.06582 0.01466,0.13319 0.02175,0.199c-0.05814,0.21856 -0.11136,0.44187 -0.16949,0.66044c-1.67027,6.42409 -0.91058,13.41045 -1.61863,20.03748c-0.01907,0.02402 -0.03803,0.04948 -0.05657,0.07642c-0.28973,0.42078 -0.21664,0.77461 -0.07567,1.02007c-0.17344,1.28996 -0.41438,2.56773 -0.74952,3.82774c-0.04152,2.0022 -0.1148,3.9335 -0.38384,5.89774c-0.06337,0.46266 0.22866,1.12858 0.01333,1.4795c-0.12148,-0.00343 -0.2437,-0.0071 -0.36545,-0.01098c-0.05801,-0.10198 -0.11845,-0.21934 -0.2027,-0.25869c-0.47418,-0.22143 -1.22172,-0.06218 -1.48608,-0.51384c-0.39283,-0.67115 -0.07957,-2.24941 -0.06882,-2.96708c0.04872,-3.25045 0.38974,-6.45373 0.4389,-9.73449c0.06383,-4.25872 0.63381,-8.88453 0.17009,-13.11442c-0.31004,-2.828 -1.39824,-5.35166 -1.35497,-8.2394c0,0 0.00834,-0.43184 -0.26918,-0.7321c0.58468,-1.61358 0.80374,-3.16375 -0.00458,-4.68294c-1.05232,-1.97775 -5.24887,-1.79886 -7.027,-2.9596c1.40101,-0.01044 2.73584,0.05528 4.12069,0.4338c0.64488,0.0705 1.38823,0.54993 1.93994,0.20867c0.7057,-0.43649 1.17604,-2.92637 0.72274,-3.6412c-0.88871,-1.40147 -4.70258,-1.92318 -6.24761,-1.74704c-1.89582,0.21613 -3.71984,1.49855 -5.50111,2.01073c-1.44343,0.41504 -3.48591,-0.69991 -4.90092,-0.00303c-0.44695,0.22012 -1.5045,1.92762 -1.65468,2.74593c-1.24282,0.23128 -2.57524,0.37333 -3.81839,0.46332c0.04424,-1.38034 0.24469,-2.80038 0.64838,-4.27734c0.16004,-0.61556 0.2439,-3.50554 1.03746,-3.77773c3.8623,-1.32476 8.47823,-2.01324 12.39971,-3.63177c2.09848,-0.86611 3.63874,-1.92124 6.06371,-1.92115c2.27153,-1.05345 4.72062,-1.95442 7.02067,-2.90708c0.68439,-0.28347 1.47451,-0.25044 2.17572,-0.48112c-0.52133,0.50799 -1.04379,1.22218 -1.46074,1.56036c-1.46877,1.19127 -2.83693,2.38509 -4.02418,3.81774l-0.00858,0.00413l-0.06779,-0.10524l-0.87914,0.56825c-0.27834,0.17391 -0.46416,0.48088 -0.46944,0.83346c-0.00828,0.55222 0.41526,0.90814 0.96747,0.91642c0.16794,0.00252 0.32792,-0.03667 0.46798,-0.10775l1.17395,-0.56409l-0.01147,-0.02376l0.06674,-0.00495c1.95751,-1.2583 4.04776,-1.33943 6.26285,-1.86344c4.27099,-1.01036 9.61089,-3.02117 13.26104,-5.46218c2.38115,-0.55751 3.20494,-1.77784 5.81993,-1.04769c1.87939,0.52477 1.585,2.27799 1.92398,3.74516c0.93164,4.03226 1.63436,7.76161 1.57241,11.89527c-0.00207,0.26153 -0.09894,0.56896 -0.11312,0.82907c-1.76015,-0.45746 -3.31968,-1.40915 -4.85564,-2.39649c-0.65864,-0.0291 -1.32545,-0.03485 -1.99941,-0.03126c-0.425,-4.17755 -4.06253,-3.17632 -7.54449,-3.6768c-2.01204,-0.2892 -4.44581,-0.51078 -6.42277,0.28217c-1.02499,0.41111 -2.00202,1.26201 -3.01432,1.74742l-0.8597,0.7651c0,0 -0.70349,0.59744 -0.00706,1.31506c0.00565,0.00583 0.01137,0.01157 0.01702,0.01721c-0.16695,0.79771 -0.21123,1.67059 0.33996,2.13585c1.29969,1.09704 3.91967,-1.07146 5.19693,-1.18899c3.56696,-0.32824 7.406,0.28883 11.12564,0.45449c0.08143,0.0196 0.17241,0.03151 0.27353,0.03303c0.07686,0.00115 0.14805,-0.00351 0.21372,-0.01343c0.72316,0.02434 1.44323,0.03179 2.15471,0.0082c1.48071,1.14525 3.24154,1.96036 5.03252,2.45707l0.21229,0.12529c-0.41044,2.56651 -1.24158,5.0669 -1.92228,7.45602c-0.0786,0.27588 -0.07247,0.56636 -0.04486,0.85834c-0.61567,1.65363 -0.99597,3.4282 -1.11781,5.20493c-0.75306,2.60071 -1.42894,5.26973 -1.95827,7.96883c-2.2362,2.86991 -0.94404,6.3699 -1.41528,9.72474c-0.23583,1.67891 -1.33103,2.73983 -1.80437,4.23789c-0.60557,1.9165 -1.25537,3.79264 -2.40818,5.57202z" data-paper-data="{&quot;noHover&quot;:false,&quot;origItem&quot;:[&quot;Path&quot;,{&quot;applyMatrix&quot;:true,&quot;segments&quot;:[[[261.10017,140.92828],[-0.57678,1.92536],[0.45085,-1.50499]],[[262.83561,136.66876],[-0.21064,1.68226],[0.42092,-3.36153]],[[264.09578,126.93823],[-2.19294,2.9031],[0.48881,-2.70672]],[[265.93053,118.95768],[-0.714,2.6117],[0.09521,-1.77836]],[[266.97074,113.74708],[-0.59082,1.66267],[-0.03197,-0.29154]],[[267.00302,112.8898],[-0.07446,0.27703],[0.64483,-2.39905]],[[268.81701,105.41726],[-0.37194,2.57238],[0,0]],[[268.603,105.29547],[0,0],[-1.79822,-0.46981]],[[263.53834,102.92129],[1.4977,1.12293],[-0.71105,0.03425]],[[261.38518,102.94738],[0.72345,0.0135],[-0.06551,0.01091]],[[261.17184,102.9642],[0.07687,0],[-0.10113,0]],[[260.8981,102.93558],[0.08171,0.01838],[-3.72171,-0.1099]],[[249.78349,102.66156],[3.56164,-0.38165],[-1.27535,0.13666]],[[244.61877,103.93297],[1.31598,1.07744],[-0.5581,-0.45694]],[[244.24916,101.80282],[-0.15498,0.80013],[-0.00574,-0.00556]],[[244.23193,101.78588],[0.00574,0.00574],[-0.70711,-0.7071]],[244.23193,100.37166],[[245.08211,99.59406],[0,0],[1.00491,-0.50052]],[[248.07619,97.80312],[-1.01871,0.42643],[1.96486,-0.8225]],[[254.50576,97.42999],[-2.01615,-0.25902],[3.48906,0.44826]],[[262.11681,101.00398],[-0.48755,-4.17072],[0.67383,-0.01369]],[[264.11791,101.0071],[-0.659,-0.01923],[1.55059,0.96421]],[[269.01318,103.33725],[-1.76681,-0.43104],[0.01027,-0.26031]],[[269.0261,102.55448],[0.00185,0.26153],[0,-4.13414]],[[267.28511,90.6962],[0.99196,4.01784],[-0.36093,-1.46193]],[[265.30919,86.98363],[1.88704,0.49655],[-2.62563,-0.69089]],[[259.5104,88.12162],[2.37253,-0.59313],[-3.61316,2.49542]],[[246.34936,93.78805],[4.25537,-1.07425],[-2.20699,0.55715]],[[240.12841,95.7457],[1.93843,-1.28749],[0,0]],[240.06191,95.75164],[240.0737,95.77522],[[238.91113,96.35651],[0,0],[-0.13897,0.07317]],[[238.44592,96.47108],[0.16796,0],[-0.55229,0]],[[237.44592,95.47108],[0,0.55228],[0,-0.35262]],[[237.90412,94.63042],[-0.2757,0.17806],[0,0]],[238.77664,94.04874],[238.84611,94.15294],[[238.85464,94.14868],[0,0],[1.16565,-1.45028]],[[242.82934,90.2706],[-1.45076,1.21314],[0.41184,-0.34439]],[[244.26156,88.78838],[-0.51366,0.51574],[-0.69767,0.24116]],[[242.09703,89.30218],[0.68006,-0.29369],[-2.28553,0.98702]],[[235.13397,92.31234],[2.25549,-1.08737],[-2.4247,0.03625]],[[229.11079,94.3196],[2.08526,-0.89746],[-3.89679,1.67711]],[[216.78214,98.1236],[3.84202,-1.38249],[-0.78939,0.28405]],[[215.80471,101.91159],[0.1508,-0.61789],[-0.38152,1.48285]],[[215.22359,106.1921],[0.02355,-1.38084],[1.24166,-0.10862]],[[218.94419,105.62907],[-1.23921,0.24988],[0.1379,-0.82046]],[[220.56069,102.85337],[-0.4436,0.22679],[1.40442,-0.71801]],[[225.46503,102.77796],[-1.43705,0.43662],[1.77339,-0.53881]],[[230.94519,100.67655],[-1.89236,0.24451],[1.54222,-0.19926]],[[237.23058,102.32389],[-0.90962,-1.38799],[0.46396,0.70795]],[[236.59928,106.06825],[0.69908,-0.44702],[-0.54654,0.34949]],[[234.66168,105.88576],[0.64586,0.06083],[-1.39037,-0.35772]],[[230.47359,105.43541],[1.4007,-0.03143],[1.79531,1.13396]],[[237.55674,108.2806],[-1.08184,-1.96176],[0.831,1.50691]],[[237.68822,113.04379],[0.56043,-1.62216],[0.28199,0.29606]],[[237.97021,113.76987],[0,0],[0,2.88806]],[[239.43843,121.91166],[-0.35238,-2.82304],[0.52706,4.22245]],[[239.44592,135.02009],[0,-4.2592],[0,3.28113]],[[239.15078,144.75977],[0,-3.25081],[0,0.71775]],[[239.26333,147.72542],[-0.40285,-0.66519],[0.2711,0.44763]],[[240.75445,148.21676],[-0.47744,-0.2143],[0.08483,0.03807]],[[240.96064,148.47237],[-0.05953,-0.1011],[0.12179,0.00206]],[[241.32563,148.47785],[-0.12152,-0.00161],[0.21004,-0.35412]],[[241.29026,146.99872],[-0.05643,0.46355],[0.23958,-1.96805]],[[241.5854,141.09588],[-0.01152,2.0026],[0.31623,-1.26489]],[[242.27595,137.25733],[-0.15409,1.29241],[-0.14464,-0.24332]],[[242.33614,136.23624],[-0.28339,0.42508],[0.01814,-0.02721]],[[242.39141,136.15899],[-0.0187,0.02431],[0.60867,-6.63689]],[[243.67376,116.18361],[-1.57382,6.4484],[0.05486,-0.21941]],[[243.83832,115.52536],[-0.05486,0.21941],[-0.00806,-0.0657]],[[243.81556,115.32823],[0.0071,0.06572],[-0.29577,-0.06871]],[[243.05361,114.36016],[0,0.68277],[0,-0.63366]],[[243.74934,113.40932],[-0.29419,0.08504],[0.06817,-1.60492]],[[244.99242,109.08319],[-0.78194,1.20365],[1.54348,-2.29435]],[[251.90026,104.21825],[-2.81473,0.36369],[5.33112,-0.68882]],[[264.52549,113.30177],[1.55475,-6.69271],[0,0.90836]],[[263.85325,116.32893],[0.80685,-0.67288],[-0.00888,0.00741]],[[263.82628,116.35085],[0.0091,-0.0072],[-0.43117,3.10558]],[[259.07027,124.04646],[2.75014,-1.83343],[-1.97763,1.22977]],[[252.78569,124.50206],[2.19632,0.27454],[-2.12509,-0.26564]],[[246.88821,122.44581],[1.63156,1.64975],[-0.73633,-0.74455]],[[245.02148,119.68333],[0.4995,1.06659],[-0.77803,5.45851]],[[244.35874,136.41818],[0.47973,-5.54044],[1.84931,1.45159]],[[245.00613,141.67266],[2.24292,-1.83952],[1.40533,-0.0497]],[[249.18044,142.07441],[-1.2765,-0.53435],[2.44045,1.02158]],[[256.19835,145.55442],[-2.37262,-0.98942],[0.07581,-0.01535]],[[256.44957,145.53062],[-0.09193,0],[0.45828,0]],[[257.2906,145.96818],[-0.13449,-0.22754],[0.18833,0.06368]],[[257.85989,146.14765],[-0.19126,-0.05582],[0.33578,0.09801]],[[258.78238,146.53121],[-0.27789,-0.15561],[1.12602,-1.79645]]],&quot;closed&quot;:true}]}" fill="#999999" stroke="none" stroke-width="0.5"/><path d="M311.12084,121.27369c0.18192,1.01398 0.41753,2.02055 0.50491,3.06444c0.50588,6.04322 0.35761,11.79488 -2.04285,17.33942c-2.06227,2.53409 -6.72199,1.56983 -7.7079,-1.56456c-2.09244,-6.65224 -1.7135,-14.99165 -1.5322,-21.87821c0.04665,-1.7717 -0.32524,-3.92569 0.98201,-5.36008c1.58871,-1.74323 6.67191,-0.91192 8.36043,0.33107c1.86194,1.37065 1.50299,5.81969 1.43561,8.06792z" fill="#c300f0" stroke="none" stroke-width="0.5"/><path d="M362.74376,119.75311c-0.36208,-0.29672 -0.3544,-0.8088 -0.3544,-0.8088l0.00442,-0.29511c0.02844,-1.89768 -0.76302,-6.57885 1.23324,-7.65231c1.79399,-0.9647 4.61121,0.87921 6.35648,0.90536c2.75998,1.83931 2.12303,4.21292 2.07846,7.18702c-0.10152,6.77378 -0.12255,14.44239 -4.6856,19.7155c-3.4013,0.06015 -4.68854,-2.13831 -5.73703,-5.06114c-1.77441,-4.94646 0.32576,-9.26212 1.10443,-13.99052z" fill="#c300f0" stroke="none" stroke-width="0.5"/><path d="M306.80199,114.23453c-0.14664,-0.27042 -0.13909,-0.55729 -0.13909,-0.55729l0.01554,-0.59007c0.01172,-0.44515 0.04019,-2.59459 0.19283,-2.8289c1.36083,-2.08877 5.56316,-0.82144 6.23564,1.23203c0.94419,2.8832 -0.16401,7.86017 -0.24436,10.91223c-0.14101,5.35647 0.62161,10.41907 -0.12409,15.74325c-0.26229,1.87276 -1.39469,7.40253 -4.6148,5.35479c-1.27922,-0.81349 -1.20538,-4.11504 -1.50333,-5.4922c0.15803,-7.68253 -1.29034,-16.07829 0.18166,-23.77385z" fill="#00b539" stroke="none" stroke-width="0.5"/><path d="M360.2475,114.7572c-0.44777,-0.2807 -0.43895,-0.86954 -0.43895,-0.86954l0.00442,-0.2951c0.02877,-1.53033 0.05187,-5.2486 1.52296,-6.1808c0.79099,-0.50123 4.26312,0.87131 4.7548,1.51663c1.02438,1.34446 0.33928,1.84687 0.16585,3.11188c-0.29942,2.1839 -0.15349,4.45666 -0.71168,6.60355c-0.8602,3.14715 -1.0901,7.57221 -0.73046,10.84094c0.22791,2.07137 1.36119,4.1176 0.77234,6.26705c-0.56179,2.05069 -3.225,5.72752 -5.38119,3.21743c-0.74968,-0.87272 -0.60305,-2.77716 -1.26272,-3.84732c-0.06043,-4.25876 -0.32921,-8.87402 0.16093,-13.10213c0.28503,-2.45875 0.85397,-4.82724 1.14368,-7.26261z" fill="#00b539" stroke="none" stroke-width="0.5"/><path d="M368.54105,130.23285c-2.3274,-0.91279 -1.41461,-3.24019 -1.41461,-3.24019l0.86253,-2.18246c2.32383,-9.86938 5.80108,-19.76646 5.9529,-29.8971c0.11425,-7.04501 -0.35341,-14.68991 -2.23147,-21.45968c-0.61158,-2.20451 -0.46798,-5.46055 -1.45361,-7.50024c-1.15545,-2.39111 -5.21456,-3.36439 -7.44272,-3.89194c-5.36629,-1.27053 -10.47589,-3.11585 -16.00604,-3.74997c-14.49126,-3.11035 -33.44623,-4.3598 -41.86097,10.76803c-1.57781,2.83655 -2.08905,6.40955 -2.83466,9.52287c-1.38722,11.05558 -3.4626,22.29146 -2.54732,33.54591c0.45637,5.6116 2.11064,11.0794 3.24629,16.57762c0,0 0.5057,2.44832 -1.94262,2.95401c-2.44833,0.5057 -2.95402,-1.94263 -2.95402,-1.94263c-1.17617,-5.69443 -2.87223,-11.35572 -3.33213,-17.17093c-0.92546,-11.70192 1.14871,-23.35905 2.61028,-34.8574c0.8673,-3.66482 1.53829,-7.70331 3.3771,-11.04628c9.43223,-17.14785 30.42415,-16.88801 47.05202,-13.28451c4.76711,0.5513 9.31813,1.81642 13.87144,3.2356c4.64042,1.44633 10.57195,2.08066 13.18197,6.99951c1.24806,2.35208 1.13306,5.91759 1.84886,8.4887c2.01499,7.23775 2.52135,15.36107 2.41707,22.88624c-0.15909,10.61499 -3.70101,20.99381 -6.18116,31.31747l-0.97889,2.51274c0,0 -0.91279,2.32741 -3.2402,1.41462z" fill="#82007c" stroke="none" stroke-width="0.5"/><path d="M305.36907,185.25204c-0.4444,-0.62701 -1.31057,-2.92926 -1.98326,-3.31535c-3.81363,-2.18884 -5.61873,0.0381 -9.15919,1.14409c-1.16954,-0.02425 -2.86575,0.09393 -3.89494,-0.63834c-2.34474,-1.6683 -2.98022,-5.39498 -1.23466,-7.66226c1.06738,-1.38638 3.46825,-2.37272 3.71691,-4.26786c0.29047,-2.21379 -3.342,-3.6146 -3.66094,-5.64696c-0.40968,-2.61056 2.70528,-4.52154 4.33313,-6.06588c0.14324,-0.13556 1.99599,-1.84271 2.1223,-2.13103c0.4811,-1.0983 -0.31921,-3.04124 -0.52126,-4.03643c-0.53269,-2.62355 -2.43805,-7.95878 -1.43208,-10.54657c1.33498,-3.43416 6.56235,-4.59078 9.01634,-6.95892c0,0 0.90684,-0.86031 1.76716,0.04653c0.86032,0.90684 -0.04652,1.76716 -0.04652,1.76716c-2.17763,2.0385 -7.20881,3.35966 -8.45326,6.16241c-0.5507,1.2403 0.81155,3.94804 1.09516,5.11826c0.56153,2.31691 1.89778,7.02496 0.91093,9.33689c-0.40401,0.94648 -1.95576,2.31151 -2.73815,3.05539c-0.56207,0.53323 -3.86794,2.92586 -3.60198,3.76353c0.76263,2.40205 4.05339,3.1693 3.69939,6.35658c-0.34765,3.1301 -5.09019,4.4027 -4.92481,7.30302c0.02657,0.46587 1.10495,1.36763 1.21088,1.53341c0.45274,0.70855 1.46069,1.0042 2.30102,1.03366c1.54152,-0.44809 2.13295,-1.43368 3.68315,-1.91822c2.23798,-0.69949 5.34831,-0.08029 7.28249,1.23016c1.68547,1.14194 2.168,3.87644 3.53906,5.55127c-0.06556,0.92433 -0.09575,1.8363 -0.09114,2.7585c-1.07703,-0.6493 -1.93383,-1.5594 -2.93574,-2.97304z" fill="#00b539" stroke="none" stroke-width="0.5"/><path d="M355.97053,106.77418c0,0 1.51935,0.34087 4.23868,1.17394c2.48379,0.76091 4.42271,1.81051 4.42271,1.81051l0.17755,1.17314c0,0 -7.20191,-3.23825 -15.07709,-2.69683c-6.29679,0.43293 -10.00421,2.66278 -10.00421,2.66278l0.10834,-4.17568c0,0 3.15266,-1.65715 7.89058,-1.73752c4.90608,-0.08321 8.08107,0.71243 8.08107,0.71243z" data-paper-data="{&quot;index&quot;:null}" fill="#000000" stroke="none" stroke-width="1.5"/><path d="M315.84414,110.07331c0,0 3.41634,-1.7297 8.08971,-2.0696c5.17868,-0.37667 7.76729,0.13819 7.76729,0.13819l0.18609,4.14381c0,0 -3.8163,-0.78136 -8.00146,-0.73197c-5.59714,0.06606 -6.68029,1.25756 -10.94374,1.60374c-3.65316,0.29663 -6.73907,-0.01853 -6.73907,-0.01853l0.00653,-1.2318c0,0 3.59198,0.16857 5.23369,0.0694c1.35501,-0.08186 3.99901,-0.83313 3.99901,-0.83313z" fill="#000000" stroke="none" stroke-width="1.5"/></g></g></svg>