<svg version="1.1" xmlns="http://www.w3.org/2000/svg" xmlns:xlink="http://www.w3.org/1999/xlink" width="138.33535" height="231.37456" viewBox="0,0,138.33535,231.37456"><defs><linearGradient x1="309.3446" y1="104.14273" x2="314.65614" y2="149.10533" gradientUnits="userSpaceOnUse" id="color-1"><stop offset="0" stop-color="#000000"/><stop offset="1" stop-color="#d7d75e"/></linearGradient></defs><g transform="translate(-242.88314,-65.10153)"><g data-paper-data="{&quot;isPaintingLayer&quot;:true}" stroke-miterlimit="10" stroke-dasharray="" stroke-dashoffset="0" style="mix-blend-mode: normal"><path d="M286.60659,295.47608l15.14285,-131.8421l37.78325,-0.15789l13.57389,132z" fill="#e3e364" fill-rule="nonzero" stroke="#000000" stroke-width="2" stroke-linecap="butt" stroke-linejoin="miter"/><path d="M299.55681,192.08871l3.12142,-26.32765l35.83075,-0.14203l2.76735,26.1059c0,0 -7.51543,4.19603 -21.55904,4.50964c-12.48458,0.27879 -20.16049,-4.14586 -20.16049,-4.14586z" fill="#c0c054" fill-rule="nonzero" stroke="#000000" stroke-width="0" stroke-linecap="butt" stroke-linejoin="miter"/><path d="M248.26532,133.9983c-3.90686,-33.07189 21.4873,-63.25596 56.71943,-67.41802c35.23214,-4.16206 66.96057,19.27399 70.86743,52.34587c3.90686,33.07189 -21.4873,63.25596 -56.71943,67.41802c-35.23214,4.16206 -66.96057,-19.274 -70.86743,-52.34587z" fill="#e3e364" fill-rule="nonzero" stroke="#000000" stroke-width="2" stroke-linecap="butt" stroke-linejoin="miter"/><path d="M248.9897,133.96694c-0.0854,-0.72296 11.73098,54.92242 69.60227,49.1079c55.29359,-5.55552 56.27612,-65.00415 56.39565,-63.99234c3.84855,32.57826 -21.23719,62.32015 -56.03054,66.43038c-34.79336,4.11023 -66.11883,-18.96768 -69.96737,-51.54594z" fill="#c0c054" fill-rule="nonzero" stroke="#000000" stroke-width="0" stroke-linecap="butt" stroke-linejoin="miter"/><path d="M261.77236,132.83514c-1.52136,-12.87845 7.68538,-24.55182 20.56383,-26.07318c12.87845,-1.52136 24.55182,7.68539 26.07318,20.56384c1.52136,12.87845 -7.68538,24.55182 -20.56383,26.07318c-12.87845,1.52136 -24.55182,-7.68539 -26.07318,-20.56384z" fill="#ffffff" fill-rule="nonzero" stroke="#000000" stroke-width="2" stroke-linecap="butt" stroke-linejoin="miter"/><path d="M268.75661,131.73253c-1.07088,-9.06505 5.40967,-17.28182 14.4747,-18.3527c9.06505,-1.07088 17.28182,5.40968 18.3527,14.47471c1.07088,9.06505 -5.40968,17.28182 -14.47471,18.3527c-9.06505,1.07088 -17.28181,-5.40968 -18.35269,-14.47471z" fill="#000000" fill-rule="nonzero" stroke="none" stroke-width="0" stroke-linecap="butt" stroke-linejoin="miter"/><path d="M332.47317,164.63251h-25.10959" fill="none" fill-rule="nonzero" stroke="#000000" stroke-width="2" stroke-linecap="round" stroke-linejoin="miter"/><path d="M300.2062,159.64129l30.95716,-3.65704c6.05212,-0.71495 11.34824,2.29744 11.87474,6.75426l0.46779,3.95984c0.52649,4.4568 -3.92192,8.62036 -9.97404,9.33531l-30.95716,3.65704c-6.0521,0.71495 -11.34825,-2.29744 -11.87474,-6.75425l-0.46779,-3.95985c-0.52649,-4.4568 3.92195,-8.62036 9.97405,-9.33531z" fill="#000000" fill-rule="evenodd" stroke="#000000" stroke-width="0" stroke-linecap="round" stroke-linejoin="round"/><path d="M341.72929,147.03355c-12.87845,1.52136 -24.55182,-7.68539 -26.07318,-20.56384c-1.52136,-12.87845 7.68539,-24.55182 20.56384,-26.07318c12.87845,-1.52136 24.55182,7.68539 26.07318,20.56384c1.52136,12.87845 -7.68539,24.55182 -20.56384,26.07318z" data-paper-data="{&quot;index&quot;:null}" fill="#ffffff" fill-rule="nonzero" stroke="#000000" stroke-width="2" stroke-linecap="butt" stroke-linejoin="miter"/><path d="M340.76948,139.86824c-9.06504,1.07088 -17.28181,-5.40968 -18.35269,-14.47472c-1.07088,-9.06505 5.40968,-17.28183 14.4747,-18.3527c9.06504,-1.07088 17.28182,5.40968 18.35269,14.47472c1.07088,9.06505 -5.40968,17.28183 -14.47471,18.3527z" data-paper-data="{&quot;index&quot;:null}" fill="#000000" fill-rule="nonzero" stroke="none" stroke-width="0" stroke-linecap="butt" stroke-linejoin="miter"/><path d="M261.77236,132.83514c-1.52136,-12.87845 7.68538,-24.55182 20.56383,-26.07318c12.87845,-1.52136 24.55182,7.68539 26.07318,20.56384c0,0 -46.49254,6.73239 -46.63702,5.50934z" fill="#ffc533" fill-rule="nonzero" stroke="#000000" stroke-width="2" stroke-linecap="butt" stroke-linejoin="miter"/><path d="M306.83816,131.95454l-59.3374,7.00967c0,0 -4.0187,-0.37656 -4.61762,-4.99275c-0.54744,-4.21932 3.32713,-5.93129 3.32713,-5.93129l59.3374,-7.00967z" fill="#a3a347" fill-rule="nonzero" stroke="#000000" stroke-width="2" stroke-linecap="butt" stroke-linejoin="miter"/><path d="M315.65612,126.46972c-1.52136,-12.87845 7.68538,-24.55182 20.56383,-26.07318c12.87845,-1.52136 24.55182,7.68539 26.07318,20.56384c0.1424,1.20542 -46.63702,5.50934 -46.63702,5.50934z" data-paper-data="{&quot;index&quot;:null}" fill="#ffc533" fill-rule="nonzero" stroke="#000000" stroke-width="2" stroke-linecap="butt" stroke-linejoin="miter"/><path d="M316.26347,119.76462l59.3374,-7.00967c0,0 4.16683,0.76201 4.61762,4.99275c0.4932,4.62868 -3.32714,5.93129 -3.32714,5.93129l-59.3374,7.00967z" data-paper-data="{&quot;index&quot;:null}" fill="#a3a347" fill-rule="nonzero" stroke="#000000" stroke-width="2" stroke-linecap="butt" stroke-linejoin="miter"/><path d="M255.94001,104.96474l105.53068,-12.4666c6.39358,-0.75529 12.14877,3.78383 12.90406,10.1774l3.86338,32.70376c0.75529,6.39356 -3.78383,12.14878 -10.17739,12.90406l-105.53067,12.4666c-6.39356,0.75529 -12.14879,-3.78383 -12.90408,-10.1774l-3.86338,-32.70375c-0.75529,-6.39355 3.78384,-12.14878 10.17741,-12.90407z" fill="#a3a347" fill-rule="evenodd" stroke="#000000" stroke-width="2" stroke-linecap="round" stroke-linejoin="round"/><path d="M267.18614,109.45866l85.0572,-10.04802c5.15319,-0.60876 9.79185,3.04975 10.40061,8.20293l3.11386,26.35906c0.60876,5.15318 -3.04975,9.79185 -8.20293,10.40061l-85.0572,10.04802c-5.15318,0.60876 -9.79186,-3.04975 -10.40062,-8.20293l-3.11386,-26.35906c-0.60876,-5.15318 3.04976,-9.79186 8.20294,-10.40061z" fill="#000000" fill-rule="evenodd" stroke="#000000" stroke-width="0" stroke-linecap="round" stroke-linejoin="round"/><path d="M266.816,109.16673l85.0572,-10.04801c5.15319,-0.60876 9.79185,3.04975 10.40061,8.20293l3.11386,26.35906c0.60876,5.15318 -3.04975,9.79186 -8.20293,10.40061l-85.0572,10.04801c-5.15318,0.60876 -9.79186,-3.04975 -10.40062,-8.20293l-3.11386,-26.35906c-0.60876,-5.15318 3.04976,-9.79186 8.20294,-10.40061z" fill="url(#color-1)" fill-rule="evenodd" stroke="#000000" stroke-width="2" stroke-linecap="round" stroke-linejoin="round"/></g></g></svg>