<svg version="1.1" xmlns="http://www.w3.org/2000/svg" xmlns:xlink="http://www.w3.org/1999/xlink" width="134.62002" height="437.146" viewBox="0,0,134.62002,437.146"><g transform="translate(-252.81851,74.86511)"><g data-paper-data="{&quot;isPaintingLayer&quot;:true}" fill-rule="nonzero" stroke-linejoin="miter" stroke-miterlimit="10" stroke-dasharray="" stroke-dashoffset="0" style="mix-blend-mode: normal"><path d="M341.60261,40.76879l12.40838,124.58801l-65.61184,0.42112l13.38024,-117.18262l41.31791,-10.86447z" fill="#b5b54a" stroke="#b5b54a" stroke-width="2.5" stroke-linecap="round"/><path d="M368.95142,26.77381l-5.52002,0.59401l-95.90158,9.81229c0,0 -7.20838,-10.17192 -11.42959,-22.74471c-2.80791,-8.36336 -3.18544,-17.90835 -3.27924,-25.79376c-0.09794,-8.23383 2.68653,-16.4604 11.00139,-27.7068c9.02631,-12.20865 26.40436,-24.61762 40.47098,-26.68335c12.10022,-1.77696 31.16657,1.39597 43.41813,9.22773c13.50402,8.63237 21.85695,22.08077 24.8454,29.26039c10.21374,24.5381 -3.60547,54.03421 -3.60547,54.03421z" fill="#fafab0" stroke="none" stroke-width="0" stroke-linecap="round"/><path d="M345.19724,236.36581l11.60849,124.66508h-65.61319l14.13207,-117.09433l41.38678,-10.59906z" fill="#e5e61c" stroke="#e5e61c" stroke-width="2.5" stroke-linecap="round"/><path d="M310.99763,132.1094l0.15217,-47.59703c0,0 10.25453,-1.05314 14.7759,-0.04596c4.78289,1.06544 7.91376,5.621 7.91376,5.621l0.97255,8.91801c0,0 -3.76927,10.94469 -9.25635,10.60715c-4.20403,-0.25861 -13.79254,-0.84847 -13.79254,-0.84847" fill="none" stroke="#29291b" stroke-width="2.5" stroke-linecap="round"/><path d="M327.09036,287.33592l-0.43867,39.91981" fill="none" stroke="#29291b" stroke-width="2.5" stroke-linecap="round"/><path d="M306.94164,292.7457l38.18971,-10.11864" fill="none" stroke="#29291b" stroke-width="2.5" stroke-linecap="round"/><path d="M371.78306,35.24177c0,0 -6.28692,9.96069 -18.30691,18.04742c-8.73649,5.87767 -21.8148,10.4763 -31.31691,10.94786c-9.33592,0.46331 -21.38284,-1.72423 -30.64648,-6.58665c-13.13706,-6.89555 -22.10371,-17.32816 -22.10371,-17.32816z" fill="#fafab0" stroke="none" stroke-width="0" stroke-linecap="round"/><path d="M294.71314,5.09958c0.76051,7.06726 -1.31904,13.08653 -4.64482,13.44442c-3.32577,0.35788 -6.63833,-5.08115 -7.39884,-12.14839c-0.76051,-7.06725 1.31904,-13.08652 4.64482,-13.44441c3.32577,-0.35788 6.63835,5.08114 7.39884,12.1484z" fill="#29291b" stroke="#29291b" stroke-width="2.5" stroke-linecap="butt"/><path d="M323.07687,1.39916c0.76051,7.06726 -1.31904,13.08651 -4.64482,13.44441c-3.32577,0.35788 -6.63833,-5.08113 -7.39884,-12.14839c-0.76051,-7.06725 1.31904,-13.08652 4.64482,-13.44441c3.32577,-0.35788 6.63833,5.08113 7.39884,12.1484z" fill="#29291b" stroke="#29291b" stroke-width="2.5" stroke-linecap="butt"/><path d="M271.19514,-69.29328l15.98569,3.00011l-0.89015,-8.27204l20.53117,3.36921l-0.46318,-2.31032l15.86491,3.87135l-0.85788,-3.98432l26.96831,15.33553l-43.2558,0.79266l7.16866,4.80714l-22.5676,-0.36078l9.93545,8.58603l-24.7894,-5.05657l0.388,3.60577l-15.53474,-10.77278l20.8385,-3.74434z" fill="#fcfc00" stroke="#fcfc00" stroke-width="0.5" stroke-linecap="round"/><path d="M376.86736,220.72449l-5.55092,0.10384l-96.39351,1.2985c0,0 -6.28123,-10.76918 -9.37479,-23.66583c-2.05782,-8.57878 -1.5903,-18.11979 -0.98685,-25.98263c0.63011,-8.21026 4.13071,-16.15859 13.40697,-26.62612c10.06993,-11.36317 28.47666,-22.18778 42.67079,-23.00228c12.20993,-0.70064 30.92124,4.14489 42.43275,13.02874c12.68828,9.79202 19.82002,23.92601 22.16226,31.34164c8.0052,25.34474 -8.36668,53.50415 -8.36668,53.50415z" fill="#fafab0" stroke="none" stroke-width="0" stroke-linecap="round"/><path d="M375.27866,220.41993c0,0 -6.77291,9.63683 -19.17894,17.11784c-9.01708,5.43741 -22.30726,9.38216 -31.82106,9.38216c-9.34741,0 -21.2711,-2.78196 -30.28234,-8.09756c-12.77913,-7.53823 -21.21766,-18.40245 -21.21766,-18.40245z" fill="#fafab0" stroke="none" stroke-width="0" stroke-linecap="round"/><path d="M314.57147,178.80515c0.13296,7.10681 -2.47042,12.91875 -5.81481,12.98131c-3.34439,0.06256 -6.16332,-5.64793 -6.29627,-12.75474c-0.13296,-7.10681 2.47042,-12.91875 5.81481,-12.98131c3.34439,-0.06256 6.16332,5.64793 6.29627,12.75474z" fill="#29291b" stroke="#29291b" stroke-width="2.5" stroke-linecap="butt"/><path d="M348.1213,179.35273c0.13296,7.10681 -2.47042,12.91875 -5.81481,12.98131c-3.34439,0.06256 -6.16332,-5.64793 -6.29627,-12.75474c-0.13296,-7.10681 2.47042,-12.91875 5.81481,-12.98131c3.34439,-0.06256 6.16332,5.64793 6.29627,12.75474z" fill="#29291b" stroke="#29291b" stroke-width="2.5" stroke-linecap="butt"/><path d="M288.48346,116.40664l15.65801,4.40113l-0.15562,-8.31833l20.15308,5.17049l-0.25718,-2.3422l15.46069,5.25827l-0.5024,-4.04454l25.50748,17.65888l-43.15659,-3.03321l6.71576,5.42187l-22.44741,-2.3538l9.13778,9.4305l-24.24553,-7.22759l0.06783,3.62596l-14.52191,-12.10352l21.08787,-1.88807z" fill="#29291b" stroke="none" stroke-width="0" stroke-linecap="round"/></g></g></svg>