<svg version="1.1" xmlns="http://www.w3.org/2000/svg" xmlns:xlink="http://www.w3.org/1999/xlink" width="191.70112" height="250.35692" viewBox="0,0,191.70112,250.35692"><g transform="translate(-194.42036,-58.14307)"><g data-paper-data="{&quot;isPaintingLayer&quot;:true}" fill-rule="nonzero" stroke-linejoin="miter" stroke-miterlimit="10" stroke-dasharray="" stroke-dashoffset="0" style="mix-blend-mode: normal"><path d="M285.90286,307.49998l10.58516,-87.56737l45.59644,-1.46009l10.3184,89.02747z" fill="#9b9d30" stroke="#000000" stroke-width="2" stroke-linecap="butt"/><path d="M289.57668,250.08801l7.55047,-52.41545l43.29909,-2.17848l9.45725,55.15135l-30.23979,-11.89646z" fill="#747524" stroke="#000000" stroke-width="2" stroke-linecap="butt"/><path d="M383.32785,124.45038c9.00807,43.67776 -16.79521,85.91328 -57.63324,94.33569c-40.83803,8.4224 -81.24627,-20.15771 -90.25434,-63.83546c-9.00807,-43.67775 16.79521,-85.91329 57.63324,-94.33569c40.83803,-8.4224 81.24628,20.15771 90.25434,63.83546z" fill="#747524" stroke="#000000" stroke-width="2" stroke-linecap="butt"/><path d="M376.21148,131.17042c7.688,37.27709 -15.90558,73.64743 -52.69774,81.23542c-36.79215,7.58799 -72.85045,-16.47978 -80.53846,-53.75689c-7.688,-37.27709 15.90558,-73.64743 52.69774,-81.23542c36.79215,-7.58799 72.85045,16.47978 80.53846,53.75689z" fill="#000000" stroke="none" stroke-width="0" stroke-linecap="butt"/><path d="M247.09505,159.51414c-6.72658,-32.61543 15.98754,-64.86462 50.73341,-72.03058c34.74586,-7.16596 68.36594,13.46491 75.09252,46.08033c6.72658,32.61543 -15.98755,64.86462 -50.73341,72.03058c-34.74586,7.16596 -68.36593,-13.46492 -75.09252,-46.08033z" fill="#ffff70" stroke="#000000" stroke-width="2" stroke-linecap="butt"/><path d="M247.81408,159.4208c-0.14704,-0.71299 16.3944,53.71509 73.55453,42.96269c54.61411,-10.27347 50.49858,-69.58761 50.70437,-68.58976c6.62618,32.12862 -15.81854,63.91083 -50.13169,70.98754c-34.31314,7.07672 -67.50103,-13.23186 -74.12721,-45.36047z" fill="#6c6d22" stroke="#000000" stroke-width="0" stroke-linecap="butt"/><path d="M249.876,174.20005c0,0 -24.91693,-77.54973 49.31608,-91.34406c76.23953,-14.16719 76.3562,68.23338 76.3562,68.23338c0,0 -21.56321,17.40502 -59.0982,25.49107c-33.62476,7.24368 -66.57408,-2.38039 -66.57408,-2.38039z" fill-opacity="0.20144" fill="#000000" stroke="none" stroke-width="0" stroke-linecap="butt"/><path d="M260.4527,157.19775c-2.61938,-12.7007 5.55314,-25.12009 18.25385,-27.73948c12.7007,-2.61938 25.1201,5.55314 27.73948,18.25385c2.61938,12.7007 -5.55314,25.1201 -18.25385,27.73948c-12.7007,2.61938 -25.1201,-5.55315 -27.73948,-18.25385z" fill="#ffffff" stroke="#000000" stroke-width="2" stroke-linecap="butt"/><path d="M261.82184,160.49234c-1.84377,-8.93993 3.90881,-17.68183 12.84873,-19.5256c8.93993,-1.84377 17.68183,3.90882 19.52559,12.84874c1.84377,8.93993 -3.90882,17.68183 -12.84874,19.52559c-8.93993,1.84377 -17.68182,-3.90882 -19.52558,-12.84874z" fill="#000000" stroke="none" stroke-width="0" stroke-linecap="butt"/><path d="M328.9725,170.04991l21.95105,56.43708c0,0 -5.43953,11.02542 -10.79113,12.58007c-5.3516,1.55465 -16.67723,-4.60048 -16.67723,-4.60048c0,0 -8.62192,8.07563 -15.73307,7.73432c-7.11115,-0.34131 -15.72668,-9.24426 -15.72668,-9.24426l3.35497,-24.41794l4.50178,-32.93583c0,0 7.1141,-3.40687 11.08227,-5.00767c3.78524,-1.52701 12.20392,-4.38621 12.20392,-4.38621z" fill="#000000" stroke="#000000" stroke-width="2" stroke-linecap="round"/><path d="M341.33224,164.49205c-12.7007,2.61938 -25.1201,-5.55315 -27.73948,-18.25385c-2.61938,-12.7007 5.55315,-25.1201 18.25385,-27.73948c12.7007,-2.61938 25.1201,5.55315 27.73948,18.25385c2.61938,12.7007 -5.55315,25.1201 -18.25385,27.73948z" data-paper-data="{&quot;index&quot;:null}" fill="#ffffff" stroke="#000000" stroke-width="2" stroke-linecap="butt"/><path d="M345.28407,153.9149c-8.93992,1.84376 -17.68182,-3.90882 -19.52559,-12.84874c-1.84377,-8.93993 3.90882,-17.68184 12.84873,-19.5256c8.93992,-1.84376 17.68182,3.90882 19.52558,12.84874c1.84377,8.93993 -3.90882,17.68183 -12.84873,19.52559z" data-paper-data="{&quot;index&quot;:null}" fill="#000000" stroke="none" stroke-width="0" stroke-linecap="butt"/><path d="M266.09467,124.11622c0,0 6.68606,-5.19879 11.76899,-6.41559c5.08294,-1.21679 12.33709,0.64489 12.33709,0.64489c0,0 -8.03831,-0.02477 -11.96369,0.91492c-4.10218,0.98201 -12.1424,4.85578 -12.1424,4.85578z" fill="#000000" stroke="none" stroke-width="0" stroke-linecap="butt"/><path d="M328.33958,108.94525c-3.94346,0.86072 -11.17125,4.37839 -11.17125,4.37839c0,0 5.7229,-4.83085 10.82924,-5.94538c5.10633,-1.11453 13.38782,0.65967 13.38782,0.65967c0,0 -8.92474,0.00783 -13.0458,0.90731z" data-paper-data="{&quot;index&quot;:null}" fill="#000000" stroke="none" stroke-width="0" stroke-linecap="butt"/><g stroke="#000000" stroke-width="2" stroke-linecap="butt"><path d="M256.68641,281.68301l-47.94546,-5.88655c0,0 -9.49268,-25.64222 -11.58763,-37.97411c-2.29814,-13.52793 -1.64809,-39.93803 -1.64809,-39.93803l42.43911,-21.51131c0,0 10.42881,33.09077 13.58392,50.81912c3.09091,17.36759 5.15815,54.4909 5.15815,54.4909z" fill="#ffffff"/><path d="M256.56309,281.32566l-6.97793,-0.85409c0,0 -1.81655,-34.38512 -4.71963,-51.49023c-2.82596,-16.65066 -12.47373,-49.8138 -12.47373,-49.8138l5.54642,-2.93002c0,0 12.17148,34.61383 15.08484,52.19051c2.85929,17.25055 3.54005,52.89765 3.54005,52.89765z" fill="#9b9d30"/><path d="M221.14992,234.90561c0,0 -6.71514,-9.95013 -9.81564,-16.06877c-3.44524,-6.79896 -9.93072,-22.89953 -9.93072,-22.89953l6.2964,-3.01392c0,0 7.30787,18.26649 10.72827,24.68803c2.56604,4.81757 7.97795,10.43129 7.97795,10.43129z" fill="#9b9d30"/><path d="M242.28608,221.76276c0,0 -8.04126,0.89861 -13.60153,13.74622c-7.53,17.39892 -7.14083,40.76342 -7.14083,40.76342l-7.0428,-1.24548c0,0 -1.87975,-21.96768 7.16333,-42.07333c6.83221,-15.19019 19.32438,-19.01855 19.32438,-19.01855z" fill="#9b9d30"/></g></g></g></svg>