<svg version="1.1" xmlns="http://www.w3.org/2000/svg" xmlns:xlink="http://www.w3.org/1999/xlink" width="218.55167" height="316.37822" viewBox="0,0,218.55167,316.37822"><g transform="translate(-205.49805,-19.80547)"><g data-paper-data="{&quot;isPaintingLayer&quot;:true}" fill-rule="nonzero" stroke-linejoin="miter" stroke-miterlimit="10" stroke-dasharray="" stroke-dashoffset="0" style="mix-blend-mode: normal"><path d="M358.67663,313.2927l-12.51775,-56.50517l-10.77637,-63.37034l12.30703,-15.79004l16.0325,70.24225l24.06993,56.31176z" fill="#000000" stroke="#ffffff" stroke-width="3" stroke-linecap="round"/><path d="M318.58303,188.11433l-73.09871,12.14939l-25.42638,-64.01944l21.52931,-10.40991l16.06262,48.32946l47.09468,-6.78958z" fill="#000000" stroke="#ffffff" stroke-width="3" stroke-linecap="round"/><path d="M273.95685,289.23794l31.55174,-128.90357l37.50497,4.58004l-3.08135,132.6603z" fill="#000000" stroke="#ffffff" stroke-width="2" stroke-linecap="butt"/><path d="M341.73679,175.2139l-15.69693,29.03585l-20.44823,86.67586l3.0802,-89.50356l-8.76138,-30.86036z" fill="#ffffff" stroke="#ffffff" stroke-width="1.5" stroke-linecap="round"/><path d="M320.27043,221.07479l-6.6453,9.18206l-5.00898,-14.2139l9.56419,-30.33171l-1.16732,-8.95513l9.12301,0.82351l-4.22019,9.25764z" fill="#000000" stroke="none" stroke-width="0" stroke-linecap="butt"/><path d="M315.5965,96.5326c1.18412,-7.21956 4.42843,-16.57641 4.42843,-16.57641c0,0 3.32146,0.77574 14.26246,0.27517c8.40558,-0.38459 22.22012,-4.29715 22.22012,-4.29715c0,0 -2.81612,2.40114 -4.37571,3.51557c-1.65802,1.18477 -4.96843,3.47546 -4.96843,3.47546c0,0 8.00936,0.25555 15.38,-1.082c9.16537,-1.38366 11.73288,-3.34378 13.67303,-1.36179c2.28985,2.33922 -4.54488,22.75615 -6.17683,28.07821c-1.7654,5.40381 -4.73196,8.61802 -6.05363,11.40358c-1.32168,2.78557 -1.86553,5.86052 -5.9787,15.04642c-2.5669,5.73263 -6.1757,7.67014 -13.23529,11.83872c-7.05958,4.16859 -11.00413,6.8186 -14.8655,5.93845c-3.71603,-0.84703 -7.45637,-7.08946 -11.04755,-13.41427c-3.82402,-6.73489 -6.58964,-10.35384 -5.81224,-17.02413c0.70013,-6.0073 1.61601,-9.80665 2.55716,-15.07427c0.68785,-3.84995 -0.65398,-6.79882 -0.00731,-10.74156z" fill="#5a5a07" stroke="none" stroke-width="0" stroke-linecap="butt"/><path d="M365.88781,93.34895c0,0 1.40396,0.67343 3.8667,2.09601c2.24942,1.29936 3.90305,2.75764 3.90305,2.75764l-0.09049,1.18305c0,0 -6.29054,-4.77315 -14.08609,-6.01441c-6.23314,-0.99246 -10.34668,0.34768 -10.34668,0.34768l1.04347,-4.04465c0,0 3.44432,-0.90668 8.07923,0.07919c4.79941,1.02087 7.71456,2.50933 7.71456,2.50933z" data-paper-data="{&quot;index&quot;:null}" fill="#5a5a07" stroke="none" stroke-width="0" stroke-linecap="butt"/><path d="M343.21203,132.03565c0.50316,0.34214 2.65934,2.09635 5.22809,3.96135c2.58922,1.87985 6.45578,3.9518 6.39677,4.10984c-0.07491,0.20056 -10.18616,-2.27553 -13.43352,-2.65807c-2.72133,-0.32058 -6.6633,-0.9147 -6.6633,-0.9147c0,0 -6.61994,-2.82716 -12.30223,-5.54883c-4.55416,-2.18131 -9.70012,-4.10026 -9.6881,-4.19362c0.01619,-0.12591 3.92606,0.23519 6.95968,0.27808c1.23138,-0.20812 5.63704,-0.1409 5.63704,-0.1409c0,0 4.87841,0.91578 7.24892,2.382c2.53998,1.57104 2.16821,3.05278 2.40304,3.13483c0,0 1.5684,-1.41526 2.8035,-1.47691c1.23511,-0.06165 5.03425,0.81136 5.41012,1.06693z" fill="#5a5a07" stroke="none" stroke-width="0" stroke-linecap="butt"/><path d="M324.01617,131.99667c4.69778,2.21469 10.90014,5.57642 10.90014,5.57642c0,0 5.99384,-0.12584 8.64036,0.23922c2.05178,0.28301 11.05943,1.99671 11.01325,2.36925c-0.04516,0.36424 -11.85465,10.36571 -23.51143,7.02746c-13.26562,-3.71665 -18.58063,-20.1652 -18.50344,-20.32037c0.0772,-0.15517 6.76336,2.89335 11.46114,5.10805z" fill="#5a5a07" stroke="none" stroke-width="0" stroke-linecap="butt"/><path d="M335.38793,131.71482c-1.00375,-0.24726 -2.65555,-4.01205 -2.39384,-6.11375c0.23414,-1.88044 2.19256,-3.40232 4.5924,-2.81114c2.39985,0.59118 3.96274,1.48162 2.91116,5.03088c-0.89245,3.01215 -2.70988,4.48519 -5.10971,3.89402z" fill="#5a5a07" stroke="none" stroke-width="0" stroke-linecap="butt"/><path d="M346.08357,103.35621c0,0 -0.8499,3.87907 -1.69901,6.92114c-1.68137,6.02382 -7.69012,26.69622 -7.69012,26.69622l-2.89718,-0.70479c0,0 0.21844,-4.24368 1.18162,-9.4927c1.30376,-7.10503 3.4607,-15.92778 3.95455,-19.24504c0.46812,-3.14443 0.49693,-5.76295 0.49693,-5.76295" fill="#5a5a07" stroke="none" stroke-width="0" stroke-linecap="round"/><path d="M314.82545,106.76851c0,0 -3.9477,-4.59466 -3.83852,-10.1889c0.11489,-5.88622 0.90921,-9.79979 2.85615,-9.58706c1.94694,0.21271 2.05621,2.95451 1.62569,9.00595c-0.43053,6.05144 -0.64331,10.77002 -0.64331,10.77002z" data-paper-data="{&quot;index&quot;:null}" fill="#5a5a07" stroke="none" stroke-width="0" stroke-linecap="butt"/><path d="M315.57294,102.88708c0,0 -2.76116,-3.69095 -2.17153,-9.23817c0.32891,-3.09442 2.63954,-1.69811 2.63954,-1.69811" fill="#5a5a07" stroke="none" stroke-width="0" stroke-linecap="round"/><path d="M320.0909,97.14514c1.23896,-4.73291 6.83531,-7.51943 12.03375,-6.15863c5.19842,1.3608 7.74904,6.28429 6.51009,11.01723c-1.23896,4.73291 -6.10735,7.55281 -11.30578,6.19202c-5.19842,-1.3608 -8.47701,-6.31769 -7.23806,-11.05062z" fill="#5a5a07" stroke="none" stroke-width="0" stroke-linecap="butt"/><path d="M324.37152,98.3211c0.69861,-2.66879 3.42842,-4.26591 6.0972,-3.56731c2.66879,0.69861 4.26591,3.42842 3.56731,6.0972c-0.69861,2.66879 -3.42841,4.26591 -6.0972,3.56731c-2.66879,-0.69861 -4.26591,-3.42842 -3.56731,-6.0972z" fill="#5a5a07" stroke="none" stroke-width="0" stroke-linecap="butt"/><path d="M346.36162,103.61741c1.36682,-4.6976 6.44224,-7.53632 11.60572,-6.26434c5.16347,1.27196 8.05668,6.06931 6.88647,10.8197c-1.17021,4.75039 -5.94274,7.87828 -11.60472,6.55647c-5.38557,-1.25728 -8.3149,-6.20589 -6.88747,-11.11183z" fill="#5a5a07" stroke="none" stroke-width="0" stroke-linecap="butt"/><path d="M350.81034,104.80141c0.67414,-2.73664 3.43912,-4.40862 6.17576,-3.73447c2.73664,0.67414 4.40862,3.43912 3.73447,6.17576c-0.67414,2.73664 -3.43911,4.40862 -6.17576,3.73447c-2.73664,-0.67414 -4.40862,-3.43912 -3.73447,-6.17576z" fill="#5a5a07" stroke="none" stroke-width="0" stroke-linecap="butt"/><path d="M320.15175,96.61204c0,0 2.21804,-8.73823 12.40421,-6.03307c9.15643,2.4264 7.02807,11.41975 7.02807,11.41975z" fill="#5a5a07" stroke="none" stroke-width="0" stroke-linecap="butt"/><path d="M346.0911,103.13675c0,0 2.0226,-9.2427 13.05047,-6.1605c9.35253,2.64733 6.96094,11.6556 6.96094,11.6556z" fill="#5a5a07" stroke="none" stroke-width="0" stroke-linecap="butt"/><path d="M325.97382,87.7353c0,0 3.70691,-0.96022 8.34506,-0.29428c5.13966,0.73794 7.5586,1.79372 7.5586,1.79372l-0.70312,4.08795c0,0 -3.56141,-1.57831 -7.66057,-2.42381c-5.48213,-1.13076 -6.79474,-0.19805 -11.03377,-0.77032c-3.63223,-0.49036 -6.57966,-1.45724 -6.57966,-1.45724l0.26944,-1.202c0,0 3.47311,0.93176 5.09814,1.18547c1.34124,0.2094 4.08467,0.04009 4.08467,0.04009z" fill="#5a5a07" stroke="none" stroke-width="0" stroke-linecap="butt"/><path d="M370.02249,109.43721c2.42957,-5.55901 3.79988,-7.9363 5.62286,-7.22035c1.82298,0.71596 0.70859,4.55067 -1.92376,9.81674c-2.50178,5.00485 -8.13196,7.2401 -8.13196,7.2401c0,0 2.00331,-4.27749 4.43288,-9.8365z" data-paper-data="{&quot;index&quot;:null}" fill="#5a5a07" stroke="none" stroke-width="0" stroke-linecap="butt"/><path d="M371.39591,105.5869c0,0 2.69482,-0.16329 1.54875,2.72985c-2.05447,5.18636 -6.21411,7.17245 -6.21411,7.17245" data-paper-data="{&quot;index&quot;:null}" fill="#5a5a07" stroke="none" stroke-width="0" stroke-linecap="round"/><path d="M274.4624,109.03445c7.96543,-32.3352 42.34777,-51.66901 76.7951,-43.18328c34.44733,8.48573 55.91516,41.57764 47.94973,73.91283c-7.96543,32.3352 -42.34777,51.66901 -76.7951,43.18328c-34.44733,-8.48573 -55.91516,-41.57764 -47.94973,-73.91283z" fill="#ffffff" stroke="#000000" stroke-width="2" stroke-linecap="butt"/><path d="M275.23134,108.936c0.17413,-0.70686 -8.31977,55.5416 47.90326,70.43677c53.71874,14.23173 75.53172,-41.0792 75.28802,-40.08993c-7.84654,31.85257 -41.78473,50.88081 -75.80305,42.50076c-34.01832,-8.38005 -55.23476,-40.99504 -47.38823,-72.8476z" fill="#dedeaf" stroke="#000000" stroke-width="0" stroke-linecap="butt"/><g stroke="#000000" stroke-width="2.5" stroke-linecap="butt"><path d="M422.593,104.68852c-2.99477,9.73281 -37.74614,7.67693 -77.61933,-4.59199c-39.87319,-12.26892 -69.76906,-30.10487 -66.77429,-39.83768c2.99477,-9.73281 37.74614,-7.67693 77.61933,4.59199c39.87319,12.26892 69.76906,30.10487 66.77429,39.83768z" fill="#e2e2e2"/><path d="M305.58465,68.33559l13.90412,-45.18752c0,0 13.36458,-6.63009 49.38515,3.71262c36.40892,10.45416 40.43445,23.92473 40.43445,23.92473l-13.90412,45.18752c0,0 -11.10012,2.17329 -45.27062,-9.21866c-30.53706,-10.18061 -44.54897,-18.41868 -44.54897,-18.41868z" fill="#ffffff"/></g><path d="M308.40438,113.2055c0.6605,-2.68127 3.36954,-4.31942 6.05081,-3.65893c2.68127,0.6605 4.31942,3.36954 3.65893,6.05081c-0.6605,2.68127 -3.36954,4.31942 -6.05081,3.65893c-2.68127,-0.6605 -4.31942,-3.36954 -3.65893,-6.05081z" fill="#000000" stroke="none" stroke-width="0.5" stroke-linecap="butt"/><path d="M349.25959,123.28291c0.6605,-2.68127 3.36954,-4.31942 6.05081,-3.65893c2.68127,0.6605 4.31942,3.36954 3.65893,6.05081c-0.6605,2.68127 -3.36954,4.31942 -6.05081,3.65893c-2.68127,-0.6605 -4.31942,-3.36954 -3.65893,-6.05081z" fill="#000000" stroke="none" stroke-width="0.5" stroke-linecap="butt"/><path d="M373.70202,148.28238c0,0 -19.94169,12.06491 -34.89404,11.60936c-14.95236,-0.45554 -34.7191,-13.73022 -34.7191,-13.73022" fill="none" stroke="#000000" stroke-width="4" stroke-linecap="round"/><path d="M245.29564,125.1055c-0.40356,10.57166 -9.30075,18.81453 -19.87241,18.41097c-10.57166,-0.40356 -18.81453,-9.30075 -18.41097,-19.87241c0.40356,-10.57166 9.30075,-18.81453 19.87241,-18.41097c10.57166,0.40356 18.81453,9.30075 18.41097,19.87241z" fill="#000000" stroke="#ffffff" stroke-width="3" stroke-linecap="butt"/><path d="M396.35884,316.2585c-0.40356,10.57166 -9.30075,18.81453 -19.87242,18.41097c-10.57166,-0.40356 -18.81453,-9.30075 -18.41097,-19.87241c0.40356,-10.57166 9.30075,-18.81453 19.87241,-18.41097c10.57167,0.40357 18.81454,9.30075 18.41098,19.87241z" fill="#000000" stroke="#ffffff" stroke-width="3" stroke-linecap="butt"/></g></g></svg>