<svg version="1.1" xmlns="http://www.w3.org/2000/svg" xmlns:xlink="http://www.w3.org/1999/xlink" width="167.69792" height="317.83347" viewBox="0,0,167.69792,317.83347"><defs><linearGradient x1="364.96363" y1="57.59173" x2="377.27894" y2="64.16871" gradientUnits="userSpaceOnUse" id="color-1"><stop offset="0" stop-color="#131308"/><stop offset="1" stop-color="#131308" stop-opacity="0"/></linearGradient><linearGradient x1="351.91216" y1="79.87069" x2="364.89151" y2="86.80231" gradientUnits="userSpaceOnUse" id="color-2"><stop offset="0" stop-color="#151509"/><stop offset="1" stop-color="#151509" stop-opacity="0"/></linearGradient></defs><g transform="translate(-258.92618,6.30909)"><g data-paper-data="{&quot;isPaintingLayer&quot;:true}" fill-rule="nonzero" stroke-linejoin="miter" stroke-miterlimit="10" stroke-dasharray="" stroke-dashoffset="0" style="mix-blend-mode: normal"><path d="M288.39185,310.52437l15.14285,-131.8421l37.78325,-0.15789l13.57389,132z" fill="#959541" stroke="#000000" stroke-width="2" stroke-linecap="butt"/><path d="M301.34207,207.13701l3.12142,-26.32765l35.83075,-0.14203l2.76735,26.1059c0,0 -7.51543,4.19603 -21.55904,4.50964c-12.48458,0.27879 -20.16049,-4.14586 -20.16049,-4.14586z" fill="#7d7d37" stroke="#000000" stroke-width="0" stroke-linecap="butt"/><path d="M260.05868,135.2163c2.25771,-33.22523 32.78166,-58.20981 68.17717,-55.80464c35.39549,2.40518 62.259,31.28934 60.00129,64.51456c-2.25771,33.22523 -32.78166,58.20981 -68.17717,55.80464c-35.39549,-2.40518 -62.259,-31.28934 -60.00129,-64.51456z" fill="#959541" stroke="#000000" stroke-width="2" stroke-linecap="butt"/><path d="M260.77643,135.31904c0.04936,-0.72633 1.40362,56.14372 59.35481,61.09884c55.36994,4.73441 67.2964,-53.5139 67.22732,-52.49738c-2.22401,32.72932 -32.3633,57.33617 -67.31799,54.96094c-34.95469,-2.37523 -61.48815,-30.83309 -59.26415,-63.5624z" fill="#7d7d37" stroke="#000000" stroke-width="0" stroke-linecap="butt"/><path d="M273.54861,136.56343c0.87917,-12.93816 12.08034,-22.71393 25.01851,-21.83474c12.93816,0.87917 22.71392,12.08034 21.83474,25.01851c-0.87917,12.93816 -12.08034,22.71392 -25.0185,21.83474c-12.93816,-0.87917 -22.71393,-12.08034 -21.83474,-25.0185z" fill="#ffffff" stroke="#000000" stroke-width="2" stroke-linecap="butt"/><path d="M275.33099,135.34108c0.61884,-9.10708 8.50325,-15.98815 17.61031,-15.36931c9.10708,0.61884 15.98815,8.50326 15.36931,17.61032c-0.61884,9.10708 -8.50326,15.98814 -17.61032,15.3693c-9.10708,-0.61884 -15.98814,-8.50325 -15.3693,-17.61031z" fill="#000000" stroke="none" stroke-width="0" stroke-linecap="butt"/><path d="M349.51696,165.26038c-12.93816,-0.87917 -22.71393,-12.08034 -21.83474,-25.0185c0.87917,-12.93816 12.08034,-22.71393 25.01851,-21.83474c12.93816,0.87917 22.71392,12.08034 21.83474,25.01851c-0.87917,12.93816 -12.08034,22.71392 -25.0185,21.83474z" data-paper-data="{&quot;index&quot;:null}" fill="#ffffff" stroke="#000000" stroke-width="2" stroke-linecap="butt"/><path d="M359.00552,155.68494c-9.10707,-0.61884 -15.98814,-8.50326 -15.3693,-17.61032c0.61884,-9.10708 8.50325,-15.98815 17.6103,-15.36931c9.10707,0.61884 15.98814,8.50326 15.3693,17.61032c-0.61884,9.10708 -8.50325,15.98815 -17.6103,15.36931z" data-paper-data="{&quot;index&quot;:null}" fill="#000000" stroke="none" stroke-width="0" stroke-linecap="butt"/><path d="M288.1103,108.67802c0,0 7.04397,-4.70248 12.20149,-5.54911c5.15754,-0.84662 12.25834,1.53395 12.25834,1.53395c0,0 -8.01554,-0.60508 -11.99852,0.04874c-4.16237,0.68327 -12.4613,3.96642 -12.4613,3.96642z" fill="#000000" stroke="none" stroke-width="0" stroke-linecap="butt"/><path d="M352.22325,108.22142c-3.85794,-1.18663 -11.88164,-1.67144 -11.88164,-1.67144c0,0 7.35756,-1.39811 12.35316,0.13842c4.99559,1.53654 11.33864,7.1487 11.33864,7.1487c0,0 -7.77849,-4.37563 -11.81018,-5.61571z" data-paper-data="{&quot;index&quot;:null}" fill="#000000" stroke="none" stroke-width="0" stroke-linecap="butt"/><path d="M322.71245,81.95758c0.36454,-5.36469 7.86689,-37.59536 7.86689,-37.59536c0,0 3.07326,32.94932 2.70872,38.314" fill="#804400" stroke="#000000" stroke-width="2" stroke-linecap="butt"/><g stroke="#000000"><path d="M424.72286,30.50673l-37.29563,100.53981c0,0 -24.37997,-2.88096 -52.68273,-18.79248c-27.53457,-15.47966 -39.83644,-28.8658 -39.83644,-28.8658l61.08628,-88.28483c0,0 16.02997,-0.38179 38.6727,11.81451c21.97472,11.83649 30.05584,23.58879 30.05584,23.58879z" fill="#333333" stroke-width="2" stroke-linecap="butt"/><path d="M424.72286,30.50673l-37.29563,100.53981c0,0 -24.37997,-2.88096 -52.68273,-18.79248c-27.53457,-15.47966 -39.83644,-28.8658 -39.83644,-28.8658l61.08628,-88.28483c0,0 21.06611,15.38246 32.40347,21.22255c11.56751,5.95863 36.32505,14.18075 36.32505,14.18075z" fill="#7d7d37" stroke-width="2" stroke-linecap="butt"/><path d="M386.95396,130.17664c0,0 12.50246,24.6171 -20.3693,23.71176c-37.66087,-1.03723 -72.04972,-70.48224 -72.04972,-70.48224" fill="none" stroke-width="2" stroke-linecap="round"/><path d="M423.42664,31.10508l-36.48591,99.08627c0,0 -26.49577,-4.59872 -53.22944,-19.62811c-26.00808,-14.62148 -37.48907,-27.41915 -37.48907,-27.41915l8.03167,-11.60774c0,0 13.22291,33.61086 50.60988,33.39669c34.82387,-0.19949 68.56288,-73.82796 68.56288,-73.82796z" fill="#6c6c30" stroke-width="0" stroke-linecap="butt"/></g><g><g><g><path d="M317.54406,79.41225l72.94232,-54.85643l-5.6829,90.77626z" fill="#b4b44f" stroke="none" stroke-width="0" stroke-linecap="butt"/><path d="M386.33499,89.94408l-19.11269,-47.97262l7.54374,-5.36262l12.52754,39.14107z" fill="#cdcd51" stroke="none" stroke-width="0" stroke-linecap="butt"/><path d="M367.46446,105.71397l-18.23438,-49.89815l11.52327,-8.64658l19.5589,65.56995z" fill="#cdcd51" stroke="none" stroke-width="0" stroke-linecap="butt"/><path d="M381.12864,109.74177l-57.33589,-30.62017l63.12094,-48.14132z" fill="none" stroke="#717132" stroke-width="1.5" stroke-linecap="round"/></g><path d="M377.46453,63.79856c-3.97688,7.44668 -11.98871,12.57287 -14.23312,11.18535c-1.45682,-0.90062 -2.22763,-10.08177 1.74927,-17.52845c3.97688,-7.44667 6.56767,-14.79322 13.52717,-11.07651c6.9595,3.71671 2.93358,9.97293 -1.04331,17.41961z" fill="#6d6d30" stroke="none" stroke-width="0" stroke-linecap="butt"/><path d="M364.98952,86.85465c-1.76543,3.30576 -6.10212,4.43393 -9.68628,2.5198c-3.58416,-1.91412 -5.0585,-6.14567 -3.29306,-9.45141c1.76544,-3.30577 6.10213,-4.43394 9.68628,-2.51981c3.58416,1.91412 5.0585,6.14567 3.29306,9.45142z" fill="#6d6d30" stroke="none" stroke-width="0" stroke-linecap="butt"/><path d="M377.43672,63.85086c-3.93601,7.37014 -11.87527,12.43841 -14.10215,11.06221c-1.44545,-0.89328 -2.21885,-9.98569 1.71717,-17.35581c3.93601,-7.37014 6.49771,-14.64248 13.40224,-10.95512c6.90456,3.68737 2.91874,9.8786 -1.01727,17.24873z" fill="url(#color-1)" stroke="none" stroke-width="0" stroke-linecap="butt"/><path d="M364.89151,86.80231c-1.76543,3.30576 -6.10212,4.43393 -9.68628,2.51981c-3.58416,-1.91412 -5.0585,-6.14567 -3.29306,-9.45141c1.76544,-3.30577 6.10213,-4.43394 9.68628,-2.51982c3.58416,1.91412 5.0585,6.14567 3.29306,9.45142z" fill="url(#color-2)" stroke="none" stroke-width="0" stroke-linecap="butt"/></g><g stroke="none" stroke-width="0" stroke-linecap="butt"><path d="M317.54406,79.41225l72.94232,-54.85643l-5.6829,90.77626z" fill="#ffff70"/><path d="M386.33499,89.94408l-19.11269,-47.97262l7.54374,-5.36262l12.52754,39.14107z" fill="#ffffff"/><path d="M367.59048,105.78127l-18.23438,-49.89815l11.52327,-8.64658l19.55889,65.56995z" fill="#ffffff"/><path d="M377.46453,63.79856c-3.97688,7.44668 -11.98871,12.57287 -14.23312,11.18535c-1.45682,-0.90062 -2.22763,-10.08177 1.74927,-17.52845c3.97688,-7.44667 6.56767,-14.79322 13.52717,-11.07651c6.9595,3.71671 2.93358,9.97293 -1.04331,17.41961z" fill="#000000"/><path d="M364.98952,86.85465c-1.76543,3.30576 -6.10212,4.43393 -9.68628,2.5198c-3.58416,-1.91412 -5.0585,-6.14567 -3.29306,-9.45141c1.76544,-3.30577 6.10213,-4.43394 9.68628,-2.51981c3.58416,1.91412 5.0585,6.14567 3.29306,9.45142z" fill="#000000"/></g></g><path d="M327.3995,174.07652l-24.69405,-4.54924" fill="none" stroke="#000000" stroke-width="2" stroke-linecap="round"/></g></g></svg>