<svg version="1.1" xmlns="http://www.w3.org/2000/svg" xmlns:xlink="http://www.w3.org/1999/xlink" width="180.27166" height="243.08471" viewBox="0,0,180.27166,243.08471"><g transform="translate(-252.94562,-53.27502)"><g data-paper-data="{&quot;isPaintingLayer&quot;:true}" fill-rule="nonzero" stroke-linejoin="miter" stroke-miterlimit="10" stroke-dasharray="" stroke-dashoffset="0" style="mix-blend-mode: normal"><path d="M320.45619,122.25136c-7.70879,10.31824 -21.91786,12.73602 -31.73683,5.40023c-9.81897,-7.33577 -33.95443,-54.47832 -33.95443,-54.47832c0,0 52.05145,9.77687 61.87042,17.11265c9.81898,7.33579 11.52963,21.6472 3.82083,31.96544z" data-paper-data="{&quot;index&quot;:null}" fill="#9b9b44" stroke="#000000" stroke-width="2" stroke-linecap="butt"/><path d="M379.75072,118.41274c-9.95558,-8.17177 -11.7222,-22.47639 -3.94583,-31.95025c7.77637,-9.47386 55.97155,-31.43211 55.97155,-31.43211c0,0 -12.14282,51.55087 -19.91919,61.02473c-7.77637,9.47386 -22.15096,10.52941 -32.10654,2.35764z" data-paper-data="{&quot;index&quot;:null}" fill="#9b9b44" stroke="#000000" stroke-width="2" stroke-linecap="butt"/><path d="M288.2354,295.35973l38.29258,-117.39344l36.77929,-0.06228l-11.09135,117.4557z" data-paper-data="{&quot;index&quot;:null}" fill="#9b9b44" stroke="#000000" stroke-width="2" stroke-linecap="butt"/><path d="M361.52263,198.53648c0,0 -8.00535,3.5517 -19.85741,1.75995c-13.33211,-2.01552 -19.83718,-7.17253 -19.83718,-7.17253l2.1653,-13.09099l37.98395,5.4279z" data-paper-data="{&quot;index&quot;:null}" fill="#6e6e30" stroke="#000000" stroke-width="0" stroke-linecap="butt"/><path d="M354.67859,191.15103c-35.35647,2.92343 -66.24315,-21.61134 -68.98732,-54.79994c-2.74417,-33.18859 23.69331,-62.46316 59.04978,-65.38659c35.35647,-2.92342 66.24315,21.61133 68.98733,54.79993c2.74418,33.1886 -23.69332,62.46317 -59.04978,65.3866z" data-paper-data="{&quot;index&quot;:null}" fill="#9b9b44" stroke="#000000" stroke-width="2" stroke-linecap="butt"/><path d="M378.80737,153.74346c-12.9239,1.0686 -24.26706,-8.54202 -25.33567,-21.46592c-1.0686,-12.92391 8.54201,-24.26707 21.46591,-25.33567c12.9239,-1.06861 24.26707,8.54201 25.33568,21.46591c1.0686,12.92391 -8.54202,24.26708 -21.46593,25.33569z" data-paper-data="{&quot;index&quot;:null}" fill="#000000" stroke="#000000" stroke-width="2" stroke-linecap="butt"/><path d="M378.70436,152.49772c-12.9239,1.0686 -24.26706,-8.54202 -25.33567,-21.46593c-1.0686,-12.92391 8.54201,-24.26706 21.46591,-25.33567c12.9239,-1.06861 24.26708,8.54201 25.33568,21.46591c1.06861,12.9239 -8.54202,24.26708 -21.46593,25.33568z" data-paper-data="{&quot;index&quot;:null}" fill="#000000" stroke="#000000" stroke-width="2" stroke-linecap="butt"/><path d="M364.38227,169.13074l-25.0242,2.0691" data-paper-data="{&quot;index&quot;:null}" fill="none" stroke="#000000" stroke-width="2" stroke-linecap="round"/><path d="M299.39777,136.74861c-1.0686,-12.92391 8.54203,-24.26707 21.46593,-25.33567c12.9239,-1.06861 24.26707,8.54201 25.33567,21.46591c1.0686,12.92391 -8.54201,24.26708 -21.46591,25.33568c-12.9239,1.0686 -24.26708,-8.54202 -25.33569,-21.46593z" data-paper-data="{&quot;index&quot;:null}" fill="#000000" stroke="#000000" stroke-width="2" stroke-linecap="butt"/><path d="M299.29477,135.50286c-1.0686,-12.92391 8.54202,-24.26707 21.46592,-25.33568c12.9239,-1.06861 24.26707,8.54201 25.33567,21.46592c1.0686,12.92391 -8.54201,24.26708 -21.46591,25.33568c-12.9239,1.0686 -24.26707,-8.54202 -25.33568,-21.46592z" data-paper-data="{&quot;index&quot;:null}" fill="#000000" stroke="#000000" stroke-width="2" stroke-linecap="butt"/><path d="M354.59615,190.15442c-34.91614,2.88701 -65.41266,-21.27569 -68.11588,-53.96892c-0.08396,-1.01539 12.69449,57.05195 67.98913,51.50695c57.87239,-5.8035 58.39342,-62.68727 58.45342,-61.96175c2.70322,32.69323 -23.41053,61.53671 -58.32667,64.42373z" data-paper-data="{&quot;index&quot;:null}" fill="#6e6e30" stroke="#000000" stroke-width="0" stroke-linecap="butt"/><path d="M372.6836,95.70949c-3.99214,-0.59541 -11.99795,0.12703 -11.99795,0.12703c0,0 7.06517,-2.48434 12.23455,-1.71336c5.16937,0.77098 12.28147,5.36978 12.28147,5.36978c0,0 -8.34612,-3.16123 -12.51806,-3.78345z" data-paper-data="{&quot;index&quot;:null}" fill="#000000" stroke="none" stroke-width="0" stroke-linecap="butt"/><path d="M309.36221,105.76368c0,0 6.26018,-5.70448 11.23271,-7.31404c4.97255,-1.60956 12.34981,-0.31938 12.34981,-0.31938c0,0 -8.01575,0.60229 -11.85588,1.84531c-4.01308,1.299 -11.72664,5.78811 -11.72664,5.78811z" data-paper-data="{&quot;index&quot;:null}" fill="#000000" stroke="none" stroke-width="0" stroke-linecap="butt"/><path d="M397.32935,152.85876c-0.4128,0.03413 -0.77512,-0.27285 -0.80925,-0.68565c-0.03413,-0.4128 0.27284,-0.77512 0.68564,-0.80925c0.4128,-0.03413 0.77512,0.27284 0.80925,0.68564c0.03413,0.4128 -0.27285,0.77513 -0.68564,0.80926z" data-paper-data="{&quot;index&quot;:null}" fill="#000000" stroke="none" stroke-width="0.5" stroke-linecap="butt"/><path d="M386.92865,158.13374c-0.4128,0.03413 -0.77513,-0.27285 -0.80926,-0.68565c-0.03413,-0.4128 0.27285,-0.77512 0.68565,-0.80925c0.4128,-0.03413 0.77512,0.27284 0.80925,0.68564c0.03413,0.4128 -0.27285,0.77512 -0.68565,0.80925z" data-paper-data="{&quot;index&quot;:null}" fill="#000000" stroke="none" stroke-width="0.5" stroke-linecap="butt"/><path d="M393.5031,162.40652c-0.4128,0.03413 -0.77512,-0.27285 -0.80925,-0.68565c-0.03413,-0.4128 0.27285,-0.77512 0.68565,-0.80925c0.4128,-0.03413 0.77512,0.27284 0.80925,0.68564c0.03413,0.4128 -0.27285,0.77513 -0.68565,0.80926z" data-paper-data="{&quot;index&quot;:null}" fill="#000000" stroke="none" stroke-width="0.5" stroke-linecap="butt"/><path d="M305.50844,159.69833c-0.03413,-0.41281 0.27284,-0.77512 0.68565,-0.80926c0.41281,-0.03413 0.77511,0.27284 0.80925,0.68565c0.03413,0.41281 -0.27283,0.77511 -0.68564,0.80925c-0.41281,0.03413 -0.77512,-0.27283 -0.80926,-0.68564z" data-paper-data="{&quot;index&quot;:null}" fill="#000000" stroke="none" stroke-width="0.5" stroke-linecap="butt"/><path d="M316.63428,163.19341c-0.03413,-0.41281 0.27284,-0.77511 0.68565,-0.80925c0.41281,-0.03413 0.77512,0.27283 0.80926,0.68564c0.03413,0.41281 -0.27284,0.77512 -0.68565,0.80926c-0.41281,0.03413 -0.77512,-0.27284 -0.80925,-0.68565z" data-paper-data="{&quot;index&quot;:null}" fill="#000000" stroke="none" stroke-width="0.5" stroke-linecap="butt"/><path d="M310.85092,168.488c-0.03413,-0.41281 0.27284,-0.77512 0.68565,-0.80925c0.41281,-0.03413 0.77512,0.27284 0.80925,0.68565c0.03413,0.41281 -0.27284,0.77511 -0.68565,0.80925c-0.41281,0.03413 -0.77512,-0.27283 -0.80925,-0.68564z" data-paper-data="{&quot;index&quot;:null}" fill="#000000" stroke="none" stroke-width="0.5" stroke-linecap="butt"/></g></g></svg>