<svg version="1.1" xmlns="http://www.w3.org/2000/svg" xmlns:xlink="http://www.w3.org/1999/xlink" width="97.66744" height="261.52164" viewBox="0,0,97.66744,261.52164"><g transform="translate(-189.63295,-45.09087)"><g data-paper-data="{&quot;isPaintingLayer&quot;:true}" fill-rule="nonzero" stroke-linecap="butt" stroke-linejoin="miter" stroke-miterlimit="10" stroke-dasharray="" stroke-dashoffset="0" style="mix-blend-mode: normal"><path d="M195.2837,306.61251v-253.22501h91.18203v253.22501z" fill-opacity="0.01" fill="#000000" stroke="none" stroke-width="0"/><path d="M201.0304,304.39158c0,0 -0.63536,-94.38387 -0.79335,-118.01201c-0.05451,-8.15261 8.18688,-36.76129 40.20201,-36.9211c31.60235,-0.15775 39.85672,29.48704 39.84884,36.89673c-0.07659,46.24274 0.65429,117.98648 0.65429,117.98648l-10.49667,0.09614l-0.15882,-114.84311c0,0 0.07549,-3.0993 -2.81625,-3.15415c-3.43441,-0.06514 -2.94538,3.11562 -2.94538,3.11562l0.20548,114.86995l-48.21366,0.07222l-0.30539,-115.23309c0,0 0.27949,-2.919 -2.8856,-2.93443c-3.11083,-0.01515 -2.81569,2.90899 -2.81569,2.90899l0.35311,115.0668z" fill="#ffffff" stroke="#000000" stroke-width="2"/><path d="M240.12939,261.12113c-0.81895,0 -1.48284,-0.66389 -1.48284,-1.48284c0,-0.81895 0.66389,-1.48284 1.48284,-1.48284c0.81895,0 1.48284,0.66389 1.48284,1.48284c0,0.81895 -0.66389,1.48284 -1.48284,1.48284z" data-paper-data="{&quot;index&quot;:null}" fill="#000000" stroke="none" stroke-width="1.5"/><path d="M216.06613,304.40602v-119.20147c0,0 0.75721,-9.73105 0.75721,-14.63937c0,-4.498 -0.75721,-13.6872 -0.75721,-13.6872c0,0 2.67319,-2.35297 4.6557,-3.74807c1.98251,-1.3951 5.17197,-2.80371 5.17197,-2.80371c0,0 -0.6016,40.10902 14.55952,40.03867c15.43477,-0.07162 13.83154,-40.03867 13.83154,-40.03867c0,0 3.91276,1.51959 6.16585,2.94655c2.25309,1.42695 4.75379,3.60523 4.75379,3.60523c0,0 -0.75721,9.42463 -0.75721,14.19201c0,4.84193 0.75721,14.63937 0.75721,14.63937v118.69667z" fill="#ffffff" stroke="#000000" stroke-width="2"/><path d="M260.7828,100.08134c0,0 1.52429,0.31807 4.2558,1.11029c2.49492,0.72361 4.44935,1.74403 4.44935,1.74403l0.1951,1.17035c0,0 -7.24963,-3.12997 -15.1158,-2.4706c-6.2896,0.52724 -9.96319,2.8124 -9.96319,2.8124l0.04575,-4.17683c0,0 3.12748,-1.70421 7.86366,-1.85557c4.90428,-0.15672 8.09084,0.59125 8.09084,0.59125z" data-paper-data="{&quot;index&quot;:null}" fill="#000000" stroke="none" stroke-width="1.5"/><path d="M220.68467,104.17762c0,0 3.36963,-1.819 8.03244,-2.28178c5.16698,-0.51283 7.76823,-0.06628 7.76823,-0.06628l0.29508,4.13747c0,0 -3.83554,-0.68065 -8.01795,-0.52113c-5.59346,0.21333 -6.64488,1.43293 -10.89774,1.89119c-3.64408,0.39266 -6.73723,0.15884 -6.73723,0.15884l-0.02589,-1.23155c0,0 3.59517,0.07398 5.23371,-0.06836c1.35239,-0.11749 3.9757,-0.93808 3.9757,-0.93808z" fill="#000000" stroke="none" stroke-width="1.5"/><path d="M225.63799,156.09199l-0.59028,-0.59028c-2.16672,-2.18508 -4.66058,-3.18487 -6.78826,-5.31256c-0.03744,-0.03744 -0.63492,-0.45917 -1.11324,-0.91989c-0.0353,0.20078 -0.09452,0.38281 -0.17398,0.50258c-0.05389,0.08122 -0.11277,0.15798 -0.17574,0.23111l0.0507,0.0338l-0.58168,0.87252c-0.17806,0.2757 -0.48804,0.45821 -0.84065,0.45821c-0.55229,0 -1,-0.44771 -1,-1v-0.94853c-0.97682,-1.32631 -1.67604,-3.07474 -2.7011,-4.29251c-1.38937,-1.65057 -3.67419,-3.19067 -4.59196,-5.27466c-0.6302,-1.43103 -0.48746,-2.96549 -1.39325,-4.27698c-0.73172,-1.1767 -1.43594,-3.14594 -1.63617,-4.5645c-0.06109,-0.43278 -0.17325,-3.90382 -0.65387,-3.85913c-1.51985,0.14132 -2.57343,2.03393 -3.70175,2.79814c-2.47989,1.67964 -5.09752,2.96783 -7.93324,2.8075v0.31187h-1.18057c-0.55229,0 -1,-0.44771 -1,-1c0,-0.35261 0.18251,-0.6626 0.45821,-0.84065l0.87252,-0.58168c2.38604,-1.57339 4.37926,-3.22967 6.24439,-5.33242c-1.17633,0.18939 -2.40461,0.07762 -3.84309,-0.23844c-0.67637,-0.14861 -2.84023,-0.65633 -3.07447,-1.20533c-0.28401,-0.66563 1.26494,-2.62865 1.65298,-3.08179c1.88966,-2.2067 4.93235,-4.73218 6.03892,-7.42304c0.47274,-1.14957 0.46299,-2.17019 1.18057,-3.24656c0.37649,-1.60104 0.81282,-2.96279 1.47571,-4.42713c0.05404,-0.11938 0.0969,-0.29475 0.14009,-0.47504c-0.18982,0.11742 -0.3904,0.22087 -0.53087,0.28891c-1.36116,0.6593 -3.89661,1.5154 -4.88893,-0.41316c-1.09269,-2.12364 1.59519,-4.39556 2.83085,-5.6061c1.21064,-1.18603 1.48545,-3.13439 1.48545,-4.72763c1.94452,-7.77809 3.78682,-15.9069 8.42443,-22.8633c3.36748,-5.05122 8.15677,-10.18858 12.52091,-14.31921c1.08292,-1.02499 2.85226,-1.43723 4.1394,-2.27341c2.12216,-0.53054 3.92141,-1.86141 6.1852,-2.14398c7.09865,-0.88608 14.53094,1.0941 21.60215,1.19982c2.52764,1.22415 5.24161,1.26382 7.85359,2.42215c3.43511,1.52336 6.44641,3.97797 9.7598,5.617c2.52928,1.25115 4.17544,1.83868 5.7973,4.33523c0.81194,3.1563 2.3382,5.88662 2.73427,9.13662c0.67446,5.53441 -0.79357,12.51062 1.7516,17.60095c0.04546,3.04064 2.27598,5.35606 3.48069,8.08407c1.37064,3.10377 1.61424,6.12713 2.42215,9.3293c0.66211,2.62435 1.54274,4.69229 0.40442,6.75589l0.33981,0.22655l-0.58168,0.87252c-0.17805,0.2757 -0.48804,0.45821 -0.84065,0.45821c-0.4759,0 -0.87415,-0.33244 -0.97521,-0.77776l-0.25822,-1.03286c-1.44211,-2.10983 -1.71778,-4.50875 -3.37676,-6.52423c-0.07185,-0.08729 -0.14903,-0.16598 -0.22914,-0.23798c0.86475,4.91989 0.17062,10.18929 -0.97879,14.89876c-1.35983,5.43929 -2.90414,10.41272 -4.1265,15.91451c-0.60926,2.74228 -0.99624,5.34179 -2.6441,7.26154l0.30958,0.30958l-0.88542,0.88542c-0.18097,0.18096 -0.43097,0.29289 -0.70711,0.29289c-0.55228,0 -1,-0.44771 -1,-1v-1.18057c0.00107,-0.30349 -0.23581,-1.48864 -0.36311,-2.54143c-0.27444,0.80438 -0.60971,1.59902 -0.65042,1.70781c-0.6807,1.81894 -1.45233,2.94864 -2.61047,4.00631l0.11145,0.08358l-0.87844,1.17126c-0.18196,0.24818 -0.47566,0.40931 -0.80698,0.40931c-0.55228,0 -1,-0.44771 -1,-1c0,-0.09149 0.01229,-0.1801 0.0353,-0.2643l0.26726,-1.06903c-0.00346,-1.1712 -0.05282,-2.82131 0.0827,-4.19877c-0.4604,0.4087 -0.9644,0.78468 -1.26819,1.14867c-1.85753,2.22564 -3.68423,3.89681 -5.9218,5.52644c-1.12791,1.35049 -2.39364,2.53598 -3.76904,3.55826c-0.19338,0.29033 -0.38692,0.58057 -0.58042,0.87083c-2.19807,3.2971 -5.67766,5.59351 -8.81511,7.64126c-0.85621,0.55883 -1.40386,1.69058 -2.53263,2.16309c-3.05962,1.28077 -8.07012,-0.58379 -9.53343,-3.364c-0.53147,-0.81628 -0.62891,-2.10894 -1.3179,-2.74624c-1.70048,-1.57291 -3.38625,-3.07783 -5.01358,-4.71451c-0.34754,-0.05633 -0.59412,-0.30291 -0.59412,-0.30291zM232.6599,159.69518c0.91645,0.96825 0.91112,2.10368 1.63352,3.1566c0.87806,1.8866 4.91724,3.46076 6.99451,2.53883c1.035,-0.45935 1.35745,-1.40407 2.18964,-1.9689c1.83133,-1.24298 3.8372,-2.51483 5.58928,-4.06922c-3.28686,1.3718 -6.91089,2.04979 -10.62093,2.04979c-2.69167,-0.01548 -4.22114,-1.06128 -6.36997,-2.30649c0.19806,0.19795 0.39298,0.39762 0.58395,0.59938zM253.61024,153.57032l0.95166,-0.95855c0,0 0.31234,-0.31233 0.72942,-0.31426c0.39627,-0.26816 0.78134,-0.53733 1.15661,-0.80862c0.4785,-0.57725 0.93264,-1.1867 1.36053,-1.82854c1.20324,-0.60095 0.16647,-1.30919 -1.10944,-1.87601l-0.00692,0.01156c-2.29265,0.57316 -4.27479,1.75423 -6.44587,2.34808c-2.16407,0.59194 -4.73403,-0.11592 -6.97951,0.33318c-0.48826,-0.00111 -0.97961,-0.00419 -1.47338,-0.01005c-0.1902,0.02364 -0.41127,0.01866 -0.65073,-0.00939c-3.90109,-0.06661 -7.93356,-0.32783 -11.77035,-1.18062c-2.84253,-0.6318 -6.08565,-2.38854 -8.93001,-2.33677c0,0 -0.20212,0 -0.42462,-0.09087c0.00652,0.17755 0.02673,0.37049 0.06147,0.58082c2.61328,1.54826 4.85477,4.49492 6.9731,6.6572c1.48632,1.51717 3.89925,2.0588 5.69766,3.08876c2.0163,1.15474 3.2386,2.24344 5.69605,2.22604c5.23439,0 10.14175,-1.40788 14.12919,-4.28717c0.3443,-0.51542 0.68913,-1.03048 1.03512,-1.5448zM268.21396,123.01191c0.90071,-0.27784 1.15464,-1.14076 1.99046,-1.98031c2.99592,-3.00929 3.52168,-6.18305 3.55144,-10.38611c-0.55764,-2.61359 -3.00025,-0.05996 -3.74498,1.25595c-0.44558,0.78732 -0.82619,1.62079 -1.13636,2.48511c0.05582,0.4866 0.16902,0.98207 0.04268,1.44396c-0.3399,1.24265 -0.67899,2.49298 -1.01153,3.7513c-0.02556,1.15086 0.07372,2.30403 0.30829,3.4301zM261.10017,140.92828c0.45085,-1.50499 1.52479,-2.57726 1.73543,-4.25952c0.42092,-3.36153 -0.93277,-6.82743 1.26017,-9.73053c0.48881,-2.70672 1.12074,-5.36885 1.83474,-7.98055c0.09521,-1.77836 0.44939,-3.54792 1.04021,-5.21059c-0.03197,-0.29154 -0.04218,-0.58025 0.03228,-0.85728c0.64483,-2.39905 1.44205,-4.90016 1.81399,-7.47254l-0.21401,-0.12179c-1.79822,-0.46981 -3.56696,-1.25126 -5.06466,-2.37418c-0.71105,0.03425 -1.42971,0.03959 -2.15315,0.02609c-0.06551,0.01091 -0.13647,0.01682 -0.21335,0.01682c-0.10113,0 -0.19203,-0.01023 -0.27374,-0.02862c-3.72171,-0.1099 -7.55296,-0.65567 -11.11461,-0.27402c-1.27535,0.13666 -3.84874,2.34884 -5.16472,1.27141c-0.5581,-0.45694 -0.52459,-1.33001 -0.36962,-2.13014c-0.00574,-0.00556 -0.01148,-0.0112 -0.01722,-0.01694c-0.70711,-0.7071 0,-1.41421 0,-1.41421l0.85018,-0.7776c1.00491,-0.50052 1.97537,-1.3645 2.99408,-1.79094c1.96486,-0.8225 4.41342,-0.63216 6.42958,-0.37314c3.48906,0.44826 7.12349,-0.59673 7.61105,3.57399c0.67383,-0.01369 1.3421,-0.0161 2.0011,0.00312c1.55059,0.96421 3.12846,1.89911 4.89527,2.33015c0.01027,-0.26031 0.01477,-0.52124 0.01292,-0.78276c0,-4.13414 -0.74904,-7.84045 -1.74099,-11.85828c-0.36093,-1.46193 -0.08888,-3.21602 -1.97592,-3.71257c-2.62563,-0.69089 -3.42626,0.54486 -5.79879,1.13799c-3.61316,2.49542 -8.90568,4.59217 -13.16104,5.66643c-2.20699,0.55715 -4.28251,0.67016 -6.22095,1.95766l-0.06651,0.00593l0.0118,0.02358l-1.16258,0.58129c-0.13897,0.07317 -0.29725,0.11457 -0.46521,0.11457c-0.55229,0 -1,-0.44772 -1,-1c0,-0.35262 0.1825,-0.6626 0.4582,-0.84065l0.87252,-0.58168l0.06947,0.1042l0.00852,-0.00426c1.16565,-1.45028 2.52394,-2.66494 3.97471,-3.87808c0.41184,-0.34439 0.91855,-0.96649 1.43221,-1.48222c-0.69767,0.24116 -1.48446,0.22012 -2.16452,0.51381c-2.28553,0.98702 -4.70757,1.92278 -6.96306,3.01015c-2.4247,0.03625 -3.93791,1.1098 -6.02317,2.00726c-3.89679,1.67711 -8.48664,2.42152 -12.32865,3.804c-0.78939,0.28405 -0.82662,3.17011 -0.97743,3.78799c-0.38152,1.48285 -0.55758,2.89966 -0.58112,4.2805c1.24166,-0.10862 2.48139,-0.31315 3.7206,-0.56303c0.1379,-0.82046 1.1729,-2.5489 1.6165,-2.77569c1.40442,-0.71801 3.4673,0.36121 4.90435,-0.07541c1.77339,-0.53881 3.5878,-1.8569 5.48015,-2.10141c1.54222,-0.19926 5.37577,0.25935 6.28539,1.64735c0.46396,0.70795 0.06778,3.29734 -0.6313,3.74436c-0.54654,0.34949 -1.29173,-0.12167 -1.9376,-0.1825c-1.39037,-0.35772 -2.78739,-0.48178 -4.18809,-0.45035c1.79531,1.13396 6.00132,0.88343 7.08315,2.8452c0.831,1.50691 0.69191,3.14103 0.13148,4.76319c0.28199,0.29606 0.28199,0.72608 0.28199,0.72608c0,2.88806 1.11584,5.31875 1.46822,8.14179c0.52706,4.22245 0.00749,8.84923 0.00749,13.10842c0,3.28113 -0.29514,6.48887 -0.29514,9.73969c0,0.71775 -0.2903,2.30047 0.11255,2.96565c0.2711,0.44763 1.01368,0.27703 1.49112,0.49133c0.08483,0.03807 0.14667,0.15452 0.2062,0.25562c0.12179,0.00206 0.24346,0.00387 0.36498,0.00548c0.21004,-0.35412 -0.0918,-1.01558 -0.03537,-1.47913c0.23958,-1.96805 0.28363,-3.90024 0.29514,-5.90284c0.31623,-1.26489 0.53646,-2.54614 0.69055,-3.83855c-0.14464,-0.24332 -0.2232,-0.59601 0.06019,-1.02109c0.01814,-0.02721 0.03657,-0.05293 0.05527,-0.07725c0.60867,-6.63689 -0.29147,-13.52698 1.28235,-19.97538c0.05486,-0.21941 0.1097,-0.43883 0.16456,-0.65825c-0.00806,-0.0657 -0.01566,-0.13141 -0.02276,-0.19713c-0.29577,-0.06871 -0.76194,-0.2853 -0.76194,-0.96807c0,-0.63366 0.40154,-0.8658 0.69573,-0.95084c0.06817,-1.60492 0.46114,-3.12248 1.24308,-4.32613c1.54348,-2.29435 4.09312,-4.50126 6.90785,-4.86494c5.33112,-0.68882 14.17997,2.39081 12.62523,9.08353c0,0.90836 0.13461,2.35427 -0.67224,3.02715c-0.00888,0.00741 -0.01787,0.01472 -0.02697,0.02192c-0.43117,3.10558 -2.00588,5.86219 -4.75601,7.69561c-1.97763,1.22977 -4.08826,0.73014 -6.28458,0.4556c-2.12509,-0.26564 -4.26591,-0.4065 -5.89748,-2.05625c-0.73633,-0.74455 -1.36723,-1.6959 -1.86673,-2.76248c-0.77803,5.45851 -0.18302,11.19441 -0.66275,16.73485c1.84931,1.45159 2.89031,3.41497 0.6474,5.25449c1.40533,-0.0497 2.8978,-0.1326 4.1743,0.40175c2.44045,1.02158 4.6453,2.4906 7.01792,3.48001c0.07581,-0.01535 0.15929,-0.0238 0.25122,-0.0238c0.45828,0 0.70653,0.21002 0.84103,0.43756c0.18833,0.06368 0.37803,0.12365 0.5693,0.17947c0.33578,0.09801 0.64459,0.22795 0.92248,0.38356c1.12602,-1.79645 1.74102,-3.67756 2.3178,-5.60293zM217.31028,125.87069c0,5.9492 1.47571,11.69669 1.47571,17.70851v1.07771c1.54563,-2.64701 5.80539,-3.62316 9.157,-3.25078c1.82852,0.20316 4.21444,1.488 6.08115,0.92084c0.65917,-0.20028 1.17944,-0.43678 1.73085,-0.62097c-3.55655,-2.50985 -2.09393,-6.05208 1.69048,-6.4656c0.00029,-0.0734 0.00044,-0.14684 0.00044,-0.22031c0,-4.1739 0.52538,-8.72817 0.00749,-12.86406c-0.26187,-2.09134 -0.91481,-3.96743 -1.26045,-5.96877c-0.80545,1.41978 -1.66207,2.75236 -2.14508,3.89001c-0.47825,1.12643 -0.70633,2.42773 -1.72842,3.29655c-0.68185,0.57959 -1.57329,0.85712 -2.32324,1.3454c-5.24956,1.33894 -11.09014,-2.4082 -12.84106,-7.38016c0.36163,2.79685 0.15511,5.77117 0.15511,8.53163zM255.56415,99.42249c-2.12639,-0.00642 -4.6139,-0.70681 -6.67885,0.20966c-0.82251,0.36504 -1.60132,0.9873 -2.40631,1.47181c-0.05759,0.21452 -0.15241,0.53581 -0.25275,0.81163c0.89038,-0.55365 3.05106,-1.203 3.31288,-1.23904c1.32364,-0.18216 2.50928,0.1311 3.78607,0.29514c2.18632,0.28088 4.49067,0.18293 6.77375,0.09622c-0.39416,-2.0263 -2.33107,-1.63876 -4.5348,-1.64541zM217.48184,110.66638c0,0 0.18669,-0.37337 0.56006,-0.51703l0.0926,-0.18075c1.16908,-1.49125 2.57149,-1.50773 4.32195,-2.15403c0.89608,-0.33085 1.66328,-1.04514 2.46737,-1.62371c-3.22429,0.701 -6.44726,1.67837 -9.63295,1.98786c0.18497,2.23619 0.71646,4.41394 1.35552,6.66901c-0.07996,-1.37575 0.17072,-2.79247 0.83544,-4.18136zM229.81105,147.32584c2.46103,0.54678 5.00537,0.85008 7.53916,1.00834c-0.40126,-1.08236 -0.19944,-2.51844 -0.19944,-3.57441c0,-0.45036 0.00565,-0.89969 0.01538,-1.34837c-1.49016,0.10748 -2.46449,0.85095 -4.03279,0.87266c-3.83479,0.05306 -6.52413,-1.467 -10.27817,-0.06212c-0.71284,0.26676 -1.33668,0.47224 -1.81671,0.74556c2.90762,0.22295 5.90659,1.72159 8.77256,2.35833zM243.06965,148.48691c2.0588,-0.41176 4.66996,0.3284 6.59701,-0.2571c1.40311,-0.42631 2.73292,-1.04098 4.12283,-1.58146c-3.42721,-1.4829 -5.77629,-2.95458 -9.73588,-2.95458l-0.14307,0.18957c0,0 -0.13388,0.06694 -0.32394,0.09723c-0.02011,1.54608 -0.13947,3.11178 -0.60943,4.50651c0.03084,-0.00005 0.06167,-0.0001 0.09248,-0.00017zM236.93463,140.09088l0.34742,0.1675c0.04544,-1.00139 0.09296,-2.00366 0.12506,-3.0108c-1.81421,0.25412 -2.5875,1.50063 -0.47248,2.8433zM245.90918,115.48812c-0.0161,0.06438 -0.03219,0.12876 -0.04828,0.19314c0.34549,2.11199 1.24782,4.17703 2.44153,5.35034c1.31407,1.29162 3.05091,1.27586 4.72763,1.48545c1.52388,0.19048 3.61454,0.85223 4.93082,-0.13468c1.9398,-1.2932 3.3799,-3.33179 3.83669,-5.57478c-0.96348,-0.0247 -2.05305,-0.23213 -2.98058,-0.44884c-1.67658,5.60265 -7.3829,1.8375 -10.5958,-0.28111c0,0 -0.41615,-0.27743 -0.46363,-0.73419c-0.60632,0.00937 -1.22059,0.01609 -1.84498,0.01668zM261.70952,114.27544l0.39062,0.12894l0.18901,-0.65559c0,0 0.08002,-0.24008 0.28034,-0.43843c-0.01785,-0.08808 -0.02902,-0.17313 -0.02902,-0.25294c0.539,-1.98321 -0.20592,-2.90288 -1.48545,-4.18812c-0.45485,-0.45688 -0.54713,-1.32908 -1.15129,-1.55408c-0.69812,-0.25999 -1.49774,-0.07031 -2.22099,-0.24887c-4.57623,-1.12981 -8.24098,-1.09758 -11.02623,3.12626c-0.5793,0.83877 -0.87291,1.94765 -0.9361,3.15068c2.01996,-0.03614 4.08649,-0.11311 6.12829,-0.05492c3.25951,-0.01321 6.43127,0.12971 9.86081,0.98709zM228.39973,103.67683c2.23629,-0.27603 4.48256,-0.28403 6.74703,0.26864c0.86748,0.83523 0.46899,-0.44882 0.38252,-0.57012c-0.37815,-0.53053 -3.57182,-0.80469 -4.33971,-0.71379c-0.93829,0.11107 -1.86965,0.55606 -2.78983,1.01527zM228.99602,119.44923c-1.80977,0.57637 -3.57438,-0.25374 -5.12147,-0.928c-0.69981,-0.305 -2.15341,-0.23883 -2.66368,-0.7977c-0.90408,-0.99018 -0.61537,-1.92905 -0.35571,-2.93456c-0.75976,-0.01104 -1.51951,-0.01793 -2.27902,-0.01897c0.30094,4.77413 6.02761,9.22825 10.61096,8.12018c0.57018,-0.3912 1.27115,-0.58084 1.80874,-1.01573c0.76387,-0.61794 0.87689,-1.80551 1.223,-2.6063c0.55751,-1.28992 1.55973,-2.71094 2.39799,-4.20314h-0.30291c-0.86758,0 -1.73684,-0.00798 -2.60744,-0.02132c-0.41858,1.72692 -0.71572,3.77025 -2.71047,4.40554zM234.31393,113.06501h0.88542c0,0 0.15926,0 0.35066,0.06355c0.48943,-1.28132 0.68699,-2.5942 0.24337,-3.90425c-0.15806,-0.46678 -0.94799,-0.27071 -1.42685,-0.38714c-1.53171,-0.37239 -3.18012,-0.56893 -4.47438,-1.48876c-0.875,0.04215 -2.14488,-0.22839 -2.96213,0c-1.27426,0.35609 -2.47595,1.84609 -3.77968,2.34193c-0.95461,0.36307 -3.03452,0.61774 -3.35174,1.38767l-0.23277,0.48279c0,0 -0.17875,0.3575 -0.53625,0.50746c-0.09787,0.23264 -0.17947,0.4669 -0.24559,0.70217c5.18841,0.01431 10.39122,0.29457 15.52993,0.29457zM243.85545,140.0645c0.75159,-0.33695 0.62699,-0.82387 0.22489,-1.28605c-0.06576,0.43038 -0.14033,0.85915 -0.22489,1.28605z" fill="#000000" stroke="none" stroke-width="0.5"/><path d="M267.87262,119.61933c0.33253,-1.25832 0.6559,-2.5572 0.9958,-3.79985c0.12634,-0.46189 0.02584,-0.98095 -0.02998,-1.46756c0.31018,-0.86432 0.71763,-1.71231 1.16321,-2.49963c0.74473,-1.31591 3.21967,-3.86473 3.77731,-1.25114c-0.02976,4.20306 -0.58512,7.47073 -3.58104,10.48002c-0.83582,0.83955 -1.10133,1.69951 -2.00203,1.97736c-0.23457,-1.12607 -0.34883,-2.28834 -0.32327,-3.4392z" data-paper-data="{&quot;noHover&quot;:false,&quot;origItem&quot;:[&quot;Path&quot;,{&quot;applyMatrix&quot;:true,&quot;segments&quot;:[[[268.21396,123.01191],[-0.23457,-1.12607],[0.90071,-0.27784]],[[270.20442,121.0316],[-0.83582,0.83955],[2.99592,-3.00929]],[[273.75586,110.64549],[-0.02976,4.20306],[-0.55764,-2.61359]],[[270.01088,111.90144],[0.74473,-1.31591],[-0.44558,0.78732]],[[268.87451,114.38655],[0.31018,-0.86432],[0.05582,0.4866]],[[268.9172,115.83051],[0.12634,-0.46189],[-0.3399,1.24265]],[[267.90567,119.58181],[0.33253,-1.25832],[-0.02556,1.15086]]],&quot;closed&quot;:true}]}" fill="#ffffff" stroke="none" stroke-width="0.5"/><path d="M245.86742,115.33863c0.62439,-0.00059 1.24137,-0.01227 1.84769,-0.02164c0.04748,0.45677 0.46214,0.73675 0.46214,0.73675c3.2129,2.11862 9.00686,5.88339 10.68344,0.28074c0.92753,0.21671 2.02139,0.43443 2.98488,0.45913c-0.45679,2.24299 -1.90563,4.3265 -3.84543,5.6197c-1.31628,0.98691 -3.45768,0.34289 -4.98156,0.15241c-1.67672,-0.20959 -3.44936,-0.22621 -4.76343,-1.51783c-1.19371,-1.17332 -2.09465,-3.27449 -2.44014,-5.38648c0.0161,-0.06438 0.03265,-0.12979 0.04874,-0.19417z" data-paper-data="{&quot;noHover&quot;:false,&quot;origItem&quot;:[&quot;Path&quot;,{&quot;applyMatrix&quot;:true,&quot;segments&quot;:[[[245.90918,115.48812],[0,0],[-0.0161,0.06438]],[[245.8609,115.68126],[0.0161,-0.06438],[0.34549,2.11199]],[[248.30242,121.0316],[-1.19371,-1.17332],[1.31407,1.29162]],[[253.03005,122.51705],[-1.67672,-0.20959],[1.52388,0.19048]],[[257.96087,122.38236],[-1.31628,0.98691],[1.9398,-1.2932]],[[261.79756,116.80758],[-0.45679,2.24299],[-0.96348,-0.0247]],[[258.81698,116.35875],[0.92753,0.21671],[-1.67658,5.60265]],[[248.22118,116.07763],[3.2129,2.11862],[0,0]],[[247.75755,115.34344],[0.04748,0.45677],[-0.60632,0.00937]],[[245.91257,115.36011],[0.62439,-0.00059],[0,0]]],&quot;closed&quot;:true}]}" fill="#ffffff" stroke="none" stroke-width="0.5"/><path d="M244.07661,138.72859c0.40211,0.46218 0.5109,1.04498 -0.24069,1.38193c0.08455,-0.4269 0.17493,-0.95155 0.24069,-1.38193z" data-paper-data="{&quot;noHover&quot;:false,&quot;origItem&quot;:[&quot;Path&quot;,{&quot;applyMatrix&quot;:true,&quot;segments&quot;:[[[243.85545,140.0645],[0.08455,-0.4269],[0.75159,-0.33695]],[[244.08034,138.77845],[0.40211,0.46218],[-0.06576,0.43038]]],&quot;closed&quot;:true}]}" fill="#ffffff" stroke="none" stroke-width="0.5"/><path d="M237.43219,137.20433c-0.03209,1.00714 -0.08246,2.09744 -0.1279,3.09883l-0.35533,-0.16438c-2.11501,-1.34267 -1.33098,-2.68033 0.48323,-2.93445z" data-paper-data="{&quot;noHover&quot;:false,&quot;origItem&quot;:[&quot;Path&quot;,{&quot;applyMatrix&quot;:true,&quot;segments&quot;:[[[236.93463,140.09088],[-2.11501,-1.34267],[0,0]],[[237.28205,140.25838],[0,0],[0.04544,-1.00139]],[[237.40711,137.24758],[-0.03209,1.00714],[-1.81421,0.25412]]],&quot;closed&quot;:true}]}" fill="#ffffff" stroke="none" stroke-width="0.5"/><path d="M242.93147,148.50734c0.46997,-1.39472 0.58927,-3.00083 0.60937,-4.5469c0.19006,-0.03029 0.32486,-0.09922 0.32486,-0.09922l0.14416,-0.19166c3.9596,0 6.40215,1.50102 9.82937,2.98392c-1.3899,0.54048 -2.74374,1.19289 -4.14685,1.6192c-1.92705,0.5855 -4.60952,-0.17698 -6.66831,0.23478c-0.03081,0.00007 -0.06177,-0.00017 -0.09261,-0.00012z" data-paper-data="{&quot;noHover&quot;:false,&quot;origItem&quot;:[&quot;Path&quot;,{&quot;applyMatrix&quot;:true,&quot;segments&quot;:[[[243.06965,148.48691],[-0.03081,0.00007],[2.0588,-0.41176]],[[249.66667,148.22981],[-1.92705,0.5855],[1.40311,-0.42631]],[[253.7895,146.64835],[-1.3899,0.54048],[-3.42721,-1.4829]],[[244.05361,143.69377],[3.9596,0],[0,0]],[243.91054,143.88335],[[243.58661,143.98057],[0.19006,-0.03029],[-0.02011,1.54608]],[[242.97718,148.48708],[0.46997,-1.39472],[0.03084,-0.00005]]],&quot;closed&quot;:true}]}" fill="#ffffff" stroke="none" stroke-width="0.5"/><path d="M220.98879,144.96199c0.48003,-0.27332 1.10519,-0.48588 1.81802,-0.75264c3.75403,-1.40489 6.53813,0.10907 10.37292,0.05601c1.56831,-0.0217 2.54403,-0.76122 4.0342,-0.8687c-0.00974,0.44868 -0.01364,0.90583 -0.01364,1.35619c0,1.05597 -0.20347,2.51342 0.19779,3.59578c-2.53379,-0.15827 -5.10647,-0.42998 -7.5675,-0.97676c-2.86597,-0.63674 -5.93417,-2.18693 -8.84179,-2.40987z" data-paper-data="{&quot;noHover&quot;:false,&quot;origItem&quot;:[&quot;Path&quot;,{&quot;applyMatrix&quot;:true,&quot;segments&quot;:[[[229.81105,147.32584],[-2.86597,-0.63674],[2.46103,0.54678]],[[237.35022,148.33418],[-2.53379,-0.15827],[-0.40126,-1.08236]],[[237.15078,144.75977],[0,1.05597],[0,-0.45036]],[[237.16616,143.41141],[-0.00974,0.44868],[-1.49016,0.10748]],[[233.13337,144.28406],[1.56831,-0.0217],[-3.83479,0.05306]],[[222.8552,144.22195],[3.75403,-1.40489],[-0.71284,0.26676]],[[221.03849,144.9675],[0.48003,-0.27332],[2.90762,0.22295]]],&quot;closed&quot;:true}]}" fill="#ffffff" stroke="none" stroke-width="0.5"/><path d="M252.62457,155.12246c-3.98744,2.87929 -8.95007,4.32949 -14.18446,4.32949c-2.45745,0.01739 -3.71626,-1.09432 -5.73255,-2.24906c-1.79841,-1.02996 -4.21887,-1.59429 -5.7052,-3.11146c-2.11832,-2.16228 -4.35789,-5.12719 -6.97117,-6.67545c-0.03474,-0.21033 -0.05456,-0.40455 -0.06108,-0.58209c0.22251,0.09087 0.42466,0.09076 0.42466,0.09076c2.84436,-0.05176 6.08842,1.70238 8.93095,2.33418c3.83678,0.85279 7.94543,1.09201 11.84652,1.15861c0.23946,0.02805 0.46595,0.03765 0.65616,0.01401c0.49376,0.00587 0.99202,0.0174 1.48028,0.01851c2.24549,-0.44909 4.82176,0.27294 6.98583,-0.319c2.17108,-0.59385 4.05711,-1.74736 6.34976,-2.32052l0.10258,-0.0407c1.27591,0.56681 2.314,1.28049 1.11077,1.88144c-0.42789,0.64184 -0.88141,1.25572 -1.35991,1.83297c-0.37527,0.27129 -0.76019,0.54261 -1.15646,0.81077c-0.41708,0.00193 -0.72938,0.31516 -0.72938,0.31516l-0.95166,0.96175c-0.34599,0.51432 -0.69134,1.03518 -1.03564,1.55061z" data-paper-data="{&quot;noHover&quot;:false,&quot;origItem&quot;:[&quot;Path&quot;,{&quot;applyMatrix&quot;:true,&quot;segments&quot;:[[[253.61024,153.57032],[-0.34599,0.51432],[0,0]],[254.5619,152.61178],[[255.29132,152.29752],[-0.41708,0.00193],[0.39627,-0.26816]],[[256.44793,151.4889],[-0.37527,0.27129],[0.4785,-0.57725]],[[257.80846,149.66036],[-0.42789,0.64184],[1.20324,-0.60095]],[[256.69903,147.78435],[1.27591,0.56681],[0,0]],[[256.69211,147.79591],[0,0],[-2.29265,0.57316]],[[250.24624,150.14399],[2.17108,-0.59385],[-2.16407,0.59194]],[[243.26673,150.47717],[2.24549,-0.44909],[-0.48826,-0.00111]],[[241.79335,150.46712],[0.49376,0.00587],[-0.1902,0.02364]],[[241.14262,150.45773],[0.23946,0.02805],[-3.90109,-0.06661]],[[229.37227,149.27711],[3.83678,0.85279],[-2.84253,-0.6318]],[[220.44226,146.94034],[2.84436,-0.05176],[0,0]],[[220.01764,146.84947],[0.22251,0.09087],[0.00652,0.17755]],[[220.07911,147.43028],[-0.03474,-0.21033],[2.61328,1.54826]],[[227.05221,154.08748],[-2.11832,-2.16228],[1.48632,1.51717]],[[232.74987,157.17625],[-1.79841,-1.02996],[2.0163,1.15474]],[[238.44592,159.40229],[-2.45745,0.01739],[5.23439,0]],[[252.57511,155.11512],[-3.98744,2.87929],[0.3443,-0.51542]]],&quot;closed&quot;:true}]}" fill="#ffffff" stroke="none" stroke-width="0.5"/><path d="M217.1243,117.29971c1.75091,4.97196 7.64295,8.71288 12.89251,7.37394c0.74995,-0.48828 1.64935,-0.7613 2.33119,-1.34089c1.02209,-0.86882 1.19465,-2.08697 1.6729,-3.2134c0.48301,-1.13765 1.39284,-2.55489 2.1983,-3.97467c0.34564,2.00134 1.01094,3.88821 1.27281,5.97955c0.51789,4.13589 -0.00064,8.74279 -0.00064,12.91669c0,0.07348 -0.00053,0.14773 -0.00082,0.22113c-3.78441,0.41352 -5.26239,3.97431 -1.70584,6.48416c-0.55141,0.18419 -1.07713,0.4242 -1.7363,0.62447c-1.86671,0.56716 -4.27451,-0.71146 -6.10303,-0.91462c-3.35162,-0.37239 -7.63969,0.59658 -9.18532,3.24359l-0.0015,-1.07865c0,-6.01182 -1.49387,-11.82165 -1.49387,-17.77085c0,-2.76046 0.22125,-5.7536 -0.14038,-8.55045z" data-paper-data="{&quot;noHover&quot;:false,&quot;origItem&quot;:[&quot;Path&quot;,{&quot;applyMatrix&quot;:true,&quot;segments&quot;:[[[217.31028,125.87069],[0,-2.76046],[0,5.9492]],[[218.78599,143.5792],[0,-6.01182],[0,0]],[[218.78599,144.65691],[0,0],[1.54563,-2.64701]],[[227.94299,141.40613],[-3.35162,-0.37239],[1.82852,0.20316]],[[234.02415,142.32697],[-1.86671,0.56716],[0.65917,-0.20028]],[[235.755,141.706],[-0.55141,0.18419],[-3.55655,-2.50985]],[[237.44548,135.2404],[-3.78441,0.41352],[0.00029,-0.0734]],[[237.44592,135.02009],[0,0.07348],[0,-4.1739]],[[237.45341,122.15603],[0.51789,4.13589],[-0.26187,-2.09134]],[[236.19296,116.18725],[0.34564,2.00134],[-0.80545,1.41978]],[[234.04788,120.07726],[0.48301,-1.13765],[-0.47825,1.12643]],[[232.31946,123.37381],[1.02209,-0.86882],[-0.68185,0.57959]],[[229.99622,124.71921],[0.74995,-0.48828],[-5.24956,1.33894]],[[217.15516,117.33905],[1.75091,4.97196],[0.36163,2.79685]]],&quot;closed&quot;:true}]}" fill="#ffffff" stroke="none" stroke-width="0.5"/><path d="M251.81686,113.32688c-2.04181,-0.05819 -4.12376,-0.0035 -6.14372,0.03264c0.06319,-1.20303 0.3541,-2.32967 0.9334,-3.16844c2.78525,-4.22384 6.5359,-4.28935 11.11213,-3.15954c0.72325,0.17856 1.53083,-0.0003 2.22895,0.25969c0.60415,0.225 0.70131,1.11011 1.15616,1.56699c1.27954,1.28525 2.02335,2.23108 1.48435,4.21429c0,0.07981 0.01076,0.16612 0.02861,0.25419c-0.20031,0.19836 -0.28137,0.44115 -0.28137,0.44115l-0.19062,0.65908l-0.39078,-0.12862c-3.42953,-0.85738 -6.6776,-0.98465 -9.93712,-0.97144z" data-paper-data="{&quot;noHover&quot;:false,&quot;origItem&quot;:[&quot;Path&quot;,{&quot;applyMatrix&quot;:true,&quot;segments&quot;:[[[261.70952,114.27544],[-3.42953,-0.85738],[0,0]],[262.10014,114.40438],[262.28915,113.74879],[[262.56949,113.31035],[-0.20031,0.19836],[-0.01785,-0.08808]],[[262.54047,113.05741],[0,0.07981],[0.539,-1.98321]],[[261.05502,108.86928],[1.27954,1.28525],[-0.45485,-0.45688]],[[259.90374,107.3152],[0.60415,0.225],[-0.69812,-0.25999]],[[257.68275,107.06633],[0.72325,0.17856],[-4.57623,-1.12981]],[[246.65652,110.19259],[2.78525,-4.22384],[-0.5793,0.83877]],[[245.72042,113.34326],[0.06319,-1.20303],[2.01996,-0.03614]],[[251.84871,113.28834],[-2.04181,-0.05819],[3.25951,-0.01321]]],&quot;closed&quot;:true}]}" fill="#ffffff" stroke="none" stroke-width="0.5"/><path d="M216.61517,114.88679c-0.63906,-2.25507 -1.1843,-4.49373 -1.36927,-6.72992c3.18569,-0.30949 6.49082,-1.29843 9.71511,-1.99943c-0.80409,0.57857 -1.64126,1.36403 -2.53735,1.69488c-1.75045,0.6463 -3.07192,0.63847 -4.241,2.12973l-0.09155,0.17612c-0.37337,0.14366 -0.55935,0.50541 -0.55935,0.50541c-0.66473,1.38889 -0.99656,2.84746 -0.91659,4.22321z" data-paper-data="{&quot;noHover&quot;:false,&quot;origItem&quot;:[&quot;Path&quot;,{&quot;applyMatrix&quot;:true,&quot;segments&quot;:[[[217.48184,110.66638],[-0.66473,1.38889],[0,0]],[[218.0419,110.14936],[-0.37337,0.14366],[0,0]],[[218.1345,109.96861],[0,0],[1.16908,-1.49125]],[[222.45645,107.81458],[-1.75045,0.6463],[0.89608,-0.33085]],[[224.92382,106.19087],[-0.80409,0.57857],[-3.22429,0.701]],[[215.29088,108.17873],[3.18569,-0.30949],[0.18497,2.23619]],[[216.6464,114.84774],[-0.63906,-2.25507],[-0.07996,-1.37575]]],&quot;closed&quot;:true}]}" fill="#ffffff" stroke="none" stroke-width="0.5"/><path d="M231.66664,115.07389c0.8706,0.01334 1.82445,-0.0312 2.69203,-0.0312l0.30324,0.00068c-0.83826,1.4922 -1.83565,2.93799 -2.39316,4.22791c-0.34611,0.80079 -0.46755,2.01313 -1.23141,2.63107c-0.5376,0.43489 -1.25275,0.63851 -1.82293,1.02971c-4.58335,1.10807 -10.38174,-3.41089 -10.68268,-8.18502c0.75951,0.00104 1.60427,0.06008 2.36403,0.07111c-0.25967,1.00552 -0.54016,1.926 0.36392,2.91618c0.51028,0.55887 1.96454,0.48906 2.66435,0.79406c1.54709,0.67426 3.21341,1.48635 5.02318,0.90998c1.99475,-0.63529 2.30085,-2.63757 2.71943,-4.36449z" data-paper-data="{&quot;noHover&quot;:false,&quot;origItem&quot;:[&quot;Path&quot;,{&quot;applyMatrix&quot;:true,&quot;segments&quot;:[[[228.99602,119.44923],[1.99475,-0.63529],[-1.80977,0.57637]],[[223.87455,118.52123],[1.54709,0.67426],[-0.69981,-0.305]],[[221.21087,117.72354],[0.51028,0.55887],[-0.90408,-0.99018]],[[220.85516,114.78898],[-0.25967,1.00552],[-0.75976,-0.01104]],[[218.57615,114.77001],[0.75951,0.00104],[0.30094,4.77413]],[[229.18711,122.89018],[-4.58335,1.10807],[0.57018,-0.3912]],[[230.99585,121.87445],[-0.5376,0.43489],[0.76387,-0.61794]],[[232.21885,119.26816],[-0.34611,0.80079],[0.55751,-1.28992]],[[234.61684,115.06501],[-0.83826,1.4922],[0,0]],[[234.31393,115.06501],[0,0],[-0.86758,0]],[[231.70649,115.04369],[0.8706,0.01334],[-0.41858,1.72692]]],&quot;closed&quot;:true}]}" fill="#ffffff" stroke="none" stroke-width="0.5"/><path d="M218.73609,112.78475c0.06612,-0.23527 0.14683,-0.47293 0.2447,-0.70557c0.3575,-0.14996 0.53579,-0.50979 0.53579,-0.50979l0.23236,-0.48561c0.31723,-0.76993 2.39714,-1.03623 3.35175,-1.39929c1.30373,-0.49584 2.54672,-2.02928 3.82098,-2.38538c0.81725,-0.22839 2.12836,0.05376 3.00336,0.01161c1.29426,0.91983 2.95888,1.14449 4.49059,1.51688c0.47887,0.11643 1.26938,-0.07581 1.42745,0.39097c0.44362,1.31005 0.24342,2.64564 -0.24601,3.92696c-0.19141,-0.06355 -0.35078,-0.06322 -0.35078,-0.06322l-0.88617,0.00191c-5.13871,0 -10.43559,-0.28516 -15.624,-0.29947z" data-paper-data="{&quot;noHover&quot;:false,&quot;origItem&quot;:[&quot;Path&quot;,{&quot;applyMatrix&quot;:true,&quot;segments&quot;:[[[234.31393,113.06501],[-5.13871,0],[0,0]],[235.19936,113.06501],[[235.55002,113.12857],[-0.19141,-0.06355],[0.48943,-1.28132]],[[235.79339,109.22432],[0.44362,1.31005],[-0.15806,-0.46678]],[[234.36654,108.83718],[0.47887,0.11643],[-1.53171,-0.37239]],[[229.89216,107.34842],[1.29426,0.91983],[-0.875,0.04215]],[[226.93003,107.34842],[0.81725,-0.22839],[-1.27426,0.35609]],[[223.15035,109.69035],[1.30373,-0.49584],[-0.95461,0.36307]],[[219.7986,111.07801],[0.31723,-0.76993],[0,0]],[219.56584,111.56081],[[219.02959,112.06827],[0.3575,-0.14996],[-0.09787,0.23264]],[[218.784,112.77044],[0.06612,-0.23527],[5.18841,0.01431]]],&quot;closed&quot;:true}]}" fill="#ffffff" stroke="none" stroke-width="0.5"/><path d="M258.80734,146.57453c-0.27789,-0.15561 -0.58751,-0.28509 -0.9233,-0.3831c-0.19126,-0.05582 -0.38153,-0.11548 -0.56986,-0.17917c-0.13449,-0.22754 -0.38351,-0.43716 -0.84178,-0.43716c-0.09193,0 -0.17575,0.00862 -0.25155,0.02397c-2.37262,-0.98942 -4.5861,-2.45505 -7.02655,-3.47663c-1.2765,-0.53435 -2.77689,-0.44984 -4.18222,-0.40014c2.24292,-1.83952 1.20187,-3.80288 -0.64744,-5.25448c0.47973,-5.54044 -0.16197,-11.35492 0.61606,-16.81343c0.4995,1.06659 1.13602,2.01132 1.87236,2.75586c1.63156,1.64975 3.76552,1.79908 5.89061,2.06471c2.19632,0.27454 4.30221,0.78355 6.27984,-0.44622c2.75014,-1.83343 4.32169,-4.56939 4.75286,-7.67497c0.0091,-0.0072 0.01809,-0.01447 0.02697,-0.02187c0.80685,-0.67288 0.67306,-2.1123 0.67306,-3.02066c1.55475,-6.69271 -7.27447,-9.74142 -12.60558,-9.0526c-2.81473,0.36369 -5.35082,2.57758 -6.8943,4.87194c-0.78194,1.20365 -1.14104,2.62714 -1.20921,4.23207c-0.29419,0.08504 -0.70002,0.31574 -0.70002,0.94941c0,0.68277 0.48212,0.90717 0.77789,0.97588c0.0071,0.06572 0.01666,0.13295 0.02473,0.19865c-0.05486,0.21941 -0.10473,0.44349 -0.15958,0.66291c-1.57382,6.4484 -0.70952,13.4226 -1.31819,20.05949c-0.0187,0.02431 -0.03728,0.05004 -0.05542,0.07725c-0.28339,0.42508 -0.20501,0.77777 -0.06037,1.02109c-0.15409,1.29241 -0.37586,2.57365 -0.69208,3.83854c-0.01152,2.0026 -0.05584,3.93478 -0.29541,5.90283c-0.05643,0.46355 0.24554,1.12502 0.0355,1.47913c-0.12152,-0.00161 -0.24378,-0.00344 -0.36558,-0.0055c-0.05953,-0.1011 -0.12172,-0.21755 -0.20655,-0.25563c-0.47744,-0.2143 -1.22251,-0.04387 -1.49361,-0.49151c-0.40285,-0.66519 -0.11327,-2.24797 -0.11327,-2.96572c0,-3.25081 0.29298,-6.45884 0.29298,-9.73997c0,-4.2592 0.50061,-8.89303 -0.02645,-13.11549c-0.35238,-2.82304 -1.47829,-5.33011 -1.47829,-8.21817c0,0 0.00187,-0.43192 -0.28012,-0.72798c0.56043,-1.62216 0.75625,-3.17543 -0.07475,-4.68234c-1.08184,-1.96176 -5.27525,-1.72001 -7.07057,-2.85397c1.4007,-0.03143 2.73636,0.01428 4.12673,0.372c0.64586,0.06083 1.39631,0.52907 1.94285,0.17958c0.69908,-0.44702 1.13205,-2.94367 0.66809,-3.65162c-0.90962,-1.38799 -4.73087,-1.85249 -6.27309,-1.65323c-1.89236,0.24451 -3.69697,1.55413 -5.47036,2.09294c-1.43705,0.43662 -3.49601,-0.6476 -4.90042,0.07041c-0.4436,0.22679 -1.47544,1.94995 -1.61334,2.77042c-1.23921,0.24988 -2.56936,0.41187 -3.81102,0.52048c0.02355,-1.38084 0.2027,-2.80373 0.58421,-4.28658c0.1508,-0.61789 0.19134,-3.5088 0.98073,-3.79285c3.84202,-1.38249 8.44711,-2.14006 12.3439,-3.81717c2.08526,-0.89746 3.60954,-1.97555 6.03424,-2.0118c2.25549,-1.08737 4.6908,-2.02494 6.97632,-3.01196c0.68006,-0.29369 1.4706,-0.27251 2.16827,-0.51367c-0.51366,0.51574 -1.02536,1.23769 -1.4372,1.58207c-1.45076,1.21314 -2.80087,2.42734 -3.96652,3.87762l-0.00851,0.00426l-0.06936,-0.10422l-0.87052,0.58136c-0.2757,0.17806 -0.4569,0.48778 -0.4569,0.8404c0,0.55228 0.42882,0.90182 0.9811,0.90182c0.16796,0 0.32734,-0.04158 0.46631,-0.11475l1.16537,-0.58163l-0.01182,-0.02358l0.06666,-0.00595c1.93843,-1.28749 4.02723,-1.39994 6.23422,-1.95709c4.25537,-1.07425 9.56454,-3.16485 13.1777,-5.66028c2.37253,-0.59313 3.17794,-1.82568 5.80357,-1.13479c1.88704,0.49655 1.61896,2.25398 1.97989,3.71591c0.99196,4.01784 1.75048,7.73625 1.75048,11.87038c0.00185,0.26153 -0.09041,0.57037 -0.10069,0.83067c-1.76681,-0.43104 -3.34042,-1.35925 -4.89101,-2.32346c-0.659,-0.01923 -1.32582,-0.01499 -1.99965,-0.0013c-0.48755,-4.17072 -4.10967,-3.11508 -7.59874,-3.56333c-2.01615,-0.25902 -4.45296,-0.4441 -6.41782,0.37839c-1.01871,0.42643 -1.98288,1.29187 -2.98779,1.79239l-0.84815,0.77789c0,0 -0.69445,0.60791 0.01265,1.31502c0.00574,0.00574 0.01154,0.0114 0.01728,0.01695c-0.15498,0.80013 -0.18618,1.67357 0.37192,2.13051c1.31598,1.07744 3.90318,-1.13007 5.17854,-1.26673c3.56164,-0.38165 7.40949,0.17781 11.1312,0.28771c0.08171,0.01838 0.17286,0.02893 0.27399,0.02893c0.07687,0 0.14798,-0.00572 0.21349,-0.01663c0.72345,0.0135 1.44355,0.01016 2.1546,-0.02409c1.4977,1.12293 3.27055,1.91157 5.06877,2.38138l0.21415,0.1221c-0.37194,2.57238 -1.16552,5.08494 -1.81034,7.48399c-0.07446,0.27703 -0.06397,0.56738 -0.03199,0.85892c-0.59082,1.66267 -0.94449,3.44274 -1.03969,5.2211c-0.714,2.6117 -1.34981,5.29055 -1.83863,7.99727c-2.19294,2.9031 -0.84848,6.38334 -1.2694,9.74486c-0.21064,1.68226 -1.28982,2.75947 -1.74067,4.26445c-0.57678,1.92536 -1.19839,3.81103 -2.32441,5.60748z" data-paper-data="{&quot;noHover&quot;:false,&quot;origItem&quot;:[&quot;Path&quot;,{&quot;applyMatrix&quot;:true,&quot;segments&quot;:[[[261.10017,140.92828],[-0.57678,1.92536],[0.45085,-1.50499]],[[262.83561,136.66876],[-0.21064,1.68226],[0.42092,-3.36153]],[[264.09578,126.93823],[-2.19294,2.9031],[0.48881,-2.70672]],[[265.93053,118.95768],[-0.714,2.6117],[0.09521,-1.77836]],[[266.97074,113.74708],[-0.59082,1.66267],[-0.03197,-0.29154]],[[267.00302,112.8898],[-0.07446,0.27703],[0.64483,-2.39905]],[[268.81701,105.41726],[-0.37194,2.57238],[0,0]],[[268.603,105.29547],[0,0],[-1.79822,-0.46981]],[[263.53834,102.92129],[1.4977,1.12293],[-0.71105,0.03425]],[[261.38518,102.94738],[0.72345,0.0135],[-0.06551,0.01091]],[[261.17184,102.9642],[0.07687,0],[-0.10113,0]],[[260.8981,102.93558],[0.08171,0.01838],[-3.72171,-0.1099]],[[249.78349,102.66156],[3.56164,-0.38165],[-1.27535,0.13666]],[[244.61877,103.93297],[1.31598,1.07744],[-0.5581,-0.45694]],[[244.24916,101.80282],[-0.15498,0.80013],[-0.00574,-0.00556]],[[244.23193,101.78588],[0.00574,0.00574],[-0.70711,-0.7071]],[244.23193,100.37166],[[245.08211,99.59406],[0,0],[1.00491,-0.50052]],[[248.07619,97.80312],[-1.01871,0.42643],[1.96486,-0.8225]],[[254.50576,97.42999],[-2.01615,-0.25902],[3.48906,0.44826]],[[262.11681,101.00398],[-0.48755,-4.17072],[0.67383,-0.01369]],[[264.11791,101.0071],[-0.659,-0.01923],[1.55059,0.96421]],[[269.01318,103.33725],[-1.76681,-0.43104],[0.01027,-0.26031]],[[269.0261,102.55448],[0.00185,0.26153],[0,-4.13414]],[[267.28511,90.6962],[0.99196,4.01784],[-0.36093,-1.46193]],[[265.30919,86.98363],[1.88704,0.49655],[-2.62563,-0.69089]],[[259.5104,88.12162],[2.37253,-0.59313],[-3.61316,2.49542]],[[246.34936,93.78805],[4.25537,-1.07425],[-2.20699,0.55715]],[[240.12841,95.7457],[1.93843,-1.28749],[0,0]],[240.06191,95.75164],[240.0737,95.77522],[[238.91113,96.35651],[0,0],[-0.13897,0.07317]],[[238.44592,96.47108],[0.16796,0],[-0.55229,0]],[[237.44592,95.47108],[0,0.55228],[0,-0.35262]],[[237.90412,94.63042],[-0.2757,0.17806],[0,0]],[238.77664,94.04874],[238.84611,94.15294],[[238.85464,94.14868],[0,0],[1.16565,-1.45028]],[[242.82934,90.2706],[-1.45076,1.21314],[0.41184,-0.34439]],[[244.26156,88.78838],[-0.51366,0.51574],[-0.69767,0.24116]],[[242.09703,89.30218],[0.68006,-0.29369],[-2.28553,0.98702]],[[235.13397,92.31234],[2.25549,-1.08737],[-2.4247,0.03625]],[[229.11079,94.3196],[2.08526,-0.89746],[-3.89679,1.67711]],[[216.78214,98.1236],[3.84202,-1.38249],[-0.78939,0.28405]],[[215.80471,101.91159],[0.1508,-0.61789],[-0.38152,1.48285]],[[215.22359,106.1921],[0.02355,-1.38084],[1.24166,-0.10862]],[[218.94419,105.62907],[-1.23921,0.24988],[0.1379,-0.82046]],[[220.56069,102.85337],[-0.4436,0.22679],[1.40442,-0.71801]],[[225.46503,102.77796],[-1.43705,0.43662],[1.77339,-0.53881]],[[230.94519,100.67655],[-1.89236,0.24451],[1.54222,-0.19926]],[[237.23058,102.32389],[-0.90962,-1.38799],[0.46396,0.70795]],[[236.59928,106.06825],[0.69908,-0.44702],[-0.54654,0.34949]],[[234.66168,105.88576],[0.64586,0.06083],[-1.39037,-0.35772]],[[230.47359,105.43541],[1.4007,-0.03143],[1.79531,1.13396]],[[237.55674,108.2806],[-1.08184,-1.96176],[0.831,1.50691]],[[237.68822,113.04379],[0.56043,-1.62216],[0.28199,0.29606]],[[237.97021,113.76987],[0,0],[0,2.88806]],[[239.43843,121.91166],[-0.35238,-2.82304],[0.52706,4.22245]],[[239.44592,135.02009],[0,-4.2592],[0,3.28113]],[[239.15078,144.75977],[0,-3.25081],[0,0.71775]],[[239.26333,147.72542],[-0.40285,-0.66519],[0.2711,0.44763]],[[240.75445,148.21676],[-0.47744,-0.2143],[0.08483,0.03807]],[[240.96064,148.47237],[-0.05953,-0.1011],[0.12179,0.00206]],[[241.32563,148.47785],[-0.12152,-0.00161],[0.21004,-0.35412]],[[241.29026,146.99872],[-0.05643,0.46355],[0.23958,-1.96805]],[[241.5854,141.09588],[-0.01152,2.0026],[0.31623,-1.26489]],[[242.27595,137.25733],[-0.15409,1.29241],[-0.14464,-0.24332]],[[242.33614,136.23624],[-0.28339,0.42508],[0.01814,-0.02721]],[[242.39141,136.15899],[-0.0187,0.02431],[0.60867,-6.63689]],[[243.67376,116.18361],[-1.57382,6.4484],[0.05486,-0.21941]],[[243.83832,115.52536],[-0.05486,0.21941],[-0.00806,-0.0657]],[[243.81556,115.32823],[0.0071,0.06572],[-0.29577,-0.06871]],[[243.05361,114.36016],[0,0.68277],[0,-0.63366]],[[243.74934,113.40932],[-0.29419,0.08504],[0.06817,-1.60492]],[[244.99242,109.08319],[-0.78194,1.20365],[1.54348,-2.29435]],[[251.90026,104.21825],[-2.81473,0.36369],[5.33112,-0.68882]],[[264.52549,113.30177],[1.55475,-6.69271],[0,0.90836]],[[263.85325,116.32893],[0.80685,-0.67288],[-0.00888,0.00741]],[[263.82628,116.35085],[0.0091,-0.0072],[-0.43117,3.10558]],[[259.07027,124.04646],[2.75014,-1.83343],[-1.97763,1.22977]],[[252.78569,124.50206],[2.19632,0.27454],[-2.12509,-0.26564]],[[246.88821,122.44581],[1.63156,1.64975],[-0.73633,-0.74455]],[[245.02148,119.68333],[0.4995,1.06659],[-0.77803,5.45851]],[[244.35874,136.41818],[0.47973,-5.54044],[1.84931,1.45159]],[[245.00613,141.67266],[2.24292,-1.83952],[1.40533,-0.0497]],[[249.18044,142.07441],[-1.2765,-0.53435],[2.44045,1.02158]],[[256.19835,145.55442],[-2.37262,-0.98942],[0.07581,-0.01535]],[[256.44957,145.53062],[-0.09193,0],[0.45828,0]],[[257.2906,145.96818],[-0.13449,-0.22754],[0.18833,0.06368]],[[257.85989,146.14765],[-0.19126,-0.05582],[0.33578,0.09801]],[[258.78238,146.53121],[-0.27789,-0.15561],[1.12602,-1.79645]]],&quot;closed&quot;:true}]}" fill="#ffffff" stroke="none" stroke-width="0.5"/><path d="M216.25777,115.49842c0.20855,1.00884 0.47055,2.00886 0.58538,3.05009c0.66475,6.02782 0.66789,11.78138 -1.58582,17.38718c-1.99487,2.58749 -6.67835,1.74618 -7.7464,-1.36117c-2.26678,-6.59487 -2.10745,-14.94136 -2.10745,-21.8303c0,-1.77232 -0.42844,-3.91577 0.84061,-5.38407c1.54228,-1.78444 6.6456,-1.0872 8.36625,0.11093c1.89737,1.32118 1.65563,5.77813 1.64744,8.02735z" fill="#c300f0" stroke="none" stroke-width="0.5"/><path d="M267.74976,112.95731c-0.36649,-0.29126 -0.36649,-0.80339 -0.36649,-0.80339v-0.29515c0,-1.8979 -0.86152,-6.56667 1.11843,-7.66993c1.77934,-0.99148 4.62387,0.81001 6.36934,0.81001c2.78723,1.79775 2.18592,4.18064 2.18592,7.15507c0,6.77454 0.09389,14.4426 -4.38963,19.7835c-3.40002,0.11111 -4.72006,-2.06782 -5.81223,-4.97461c-1.84834,-4.91931 0.18694,-9.26596 0.89466,-14.0055z" fill="#c300f0" stroke="none" stroke-width="0.5"/><path d="M211.75516,108.57536c-0.15371,-0.26647 -0.15371,-0.55343 -0.15371,-0.55343v-0.59028c0,-0.4453 -0.02811,-2.59475 0.11832,-2.833c1.30539,-2.12386 5.53962,-0.96756 6.2659,1.0675c1.01974,2.85735 0.0429,7.86177 0.0429,10.91489c0,5.35833 0.8956,10.3991 0.29028,15.74106c-0.21292,1.87901 -1.19939,7.43667 -4.47228,5.47438c-1.30019,-0.77954 -1.31326,-4.08189 -1.64735,-5.45073c-0.0442,-7.68403 -1.71303,-16.03876 -0.44407,-23.7704z" fill="#00b539" stroke="none" stroke-width="0.5"/><path d="M265.17892,107.99937c-0.45193,-0.27396 -0.45193,-0.86286 -0.45193,-0.86286v-0.29514c0.00583,-1.53059 -0.02679,-5.24878 1.43017,-6.20292c0.78339,-0.51303 4.2757,0.80733 4.777,1.44521c1.04442,1.32896 0.36692,1.84158 0.21246,3.10904c-0.26666,2.18814 -0.08669,4.45846 -0.61265,6.61347c-0.81294,3.15969 -0.9765,7.5877 -0.56792,10.85068c0.25892,2.06772 1.42274,4.09673 0.86617,6.25477c-0.531,2.05888 -3.13881,5.77521 -5.33237,3.29771c-0.76267,-0.86139 -0.6446,-2.76782 -1.32024,-3.82797c-0.12424,-4.25737 -0.46215,-8.86809 -0.03542,-13.10307c0.24815,-2.46275 0.78154,-4.83949 1.03472,-7.27893z" fill="#00b539" stroke="none" stroke-width="0.5"/><path d="M273.70344,123.349c-2.34082,-0.87781 -1.46301,-3.21863 -1.46301,-3.21863l0.82973,-2.19514c2.17568,-9.9031 5.50422,-19.85116 5.50422,-29.98294c0.00867,-7.04593 -0.5735,-14.68297 -2.5528,-21.42383c-0.64454,-2.1951 -0.54976,-5.45293 -1.56584,-7.47762c-1.19115,-2.37353 -5.26439,-3.28587 -7.50021,-3.77997c-5.38473,-1.18997 -10.5214,-2.95853 -16.06044,-3.5097c-14.53624,-2.89285 -33.50781,-3.85811 -41.69491,11.39411c-1.53512,2.85987 -1.99277,6.44014 -2.69164,9.56428c-1.22139,11.07513 -3.12817,22.34085 -2.04434,33.58032c0.54041,5.60413 2.27643,11.04653 3.49434,16.52711c0,0 0.54233,2.44047 -1.89814,2.98279c-2.44047,0.54233 -2.98279,-1.89814 -2.98279,-1.89814c-1.26137,-5.67617 -3.04207,-11.31141 -3.58907,-17.11907c-1.10071,-11.68674 0.79855,-23.37364 2.08764,-34.8926c0.81228,-3.67741 1.42268,-7.7255 3.21119,-11.09565c9.17421,-17.28727 30.16766,-17.34202 46.84766,-13.98809c4.77483,0.4798 9.34431,1.67658 13.91837,3.02737c4.66157,1.37663 10.60194,1.92201 13.28538,6.8012c1.28316,2.33311 1.22161,5.89994 1.97586,8.46004c2.12322,7.20674 2.75125,15.32156 2.75975,22.84745c0,10.61618 -3.386,21.04691 -5.71117,31.40657l-0.94113,2.52713c0,0 -0.87781,2.34082 -3.21863,1.46301z" fill="#82007c" stroke="none" stroke-width="0.5"/><path d="M212.19173,179.60598c-0.46075,-0.6151 -1.3872,-2.89375 -2.06982,-3.26201c-3.86991,-2.08771 -5.61579,0.18596 -9.12591,1.38474c-1.16977,0.00654 -2.86229,0.16932 -3.91039,-0.53562c-2.38783,-1.60601 -3.12117,-5.31468 -1.43588,-7.62711c1.03052,-1.41399 3.40461,-2.46317 3.60331,-4.3642c0.23211,-2.22066 -3.43597,-3.5254 -3.80829,-5.54866c-0.47824,-2.59887 2.58535,-4.59117 4.17199,-6.17781c0.13962,-0.13928 1.94681,-1.8946 2.06548,-2.18615c0.45203,-1.11058 -0.39913,-3.03179 -0.62731,-4.02132c-0.60155,-2.60862 -2.64666,-7.89186 -1.70914,-10.50523c1.24414,-3.4681 6.43926,-4.76189 8.83008,-7.19379c0,0 0.88388,-0.88388 1.76777,0c0.88388,0.88388 0,1.76777 0,1.76777c-2.12323,2.09511 -7.11789,3.5482 -8.28815,6.38273c-0.51787,1.25436 0.91517,3.92531 1.22948,5.08766c0.62231,2.30133 2.082,6.97258 1.15634,9.30969c-0.37896,0.95679 -1.89425,2.36219 -2.65679,3.1264c-0.54784,0.54784 -3.7896,3.02664 -3.50169,3.85702c0.82558,2.38115 4.1354,3.06153 3.8654,6.25702c-0.26516,3.13817 -4.97256,4.53514 -4.73091,7.4301c0.03882,0.46501 1.14056,1.33808 1.25082,1.50102c0.47123,0.69639 1.48661,0.9654 2.32742,0.97274c1.52919,-0.48851 2.09449,-1.48932 3.6314,-2.01448c2.2188,-0.75815 5.34434,-0.22102 7.31234,1.03808c1.71493,1.09719 2.26927,3.81804 3.68393,5.4562c-0.04122,0.92573 -0.04739,1.83819 -0.01851,2.75995c-1.09374,-0.62073 -1.9742,-1.50797 -3.01297,-2.89475z" fill="#00b539" stroke="none" stroke-width="0.5"/><path d="M260.7828,100.08134c0,0 1.52429,0.31807 4.2558,1.11029c2.49492,0.72361 4.44935,1.74403 4.44935,1.74403l0.1951,1.17035c0,0 -7.24963,-3.12997 -15.1158,-2.4706c-6.2896,0.52724 -9.96319,2.8124 -9.96319,2.8124l0.04575,-4.17683c0,0 3.12748,-1.70421 7.86366,-1.85557c4.90428,-0.15672 8.09084,0.59125 8.09084,0.59125z" data-paper-data="{&quot;index&quot;:null}" fill="#000000" stroke="none" stroke-width="1.5"/><path d="M220.68467,104.17762c0,0 3.36963,-1.819 8.03244,-2.28178c5.16698,-0.51283 7.76823,-0.06628 7.76823,-0.06628l0.29508,4.13747c0,0 -3.83554,-0.68065 -8.01795,-0.52113c-5.59346,0.21333 -6.64488,1.43293 -10.89774,1.89119c-3.64408,0.39266 -6.73723,0.15884 -6.73723,0.15884l-0.02589,-1.23155c0,0 3.59517,0.07398 5.23371,-0.06836c1.35239,-0.11749 3.9757,-0.93808 3.9757,-0.93808z" fill="#000000" stroke="none" stroke-width="1.5"/></g></g></svg>