<svg version="1.1" xmlns="http://www.w3.org/2000/svg" xmlns:xlink="http://www.w3.org/1999/xlink" width="252.76568" height="231.13505" viewBox="0,0,252.76568,231.13505"><g transform="translate(-181.49243,-84.29378)"><g data-paper-data="{&quot;isPaintingLayer&quot;:true}" stroke-miterlimit="10" stroke-dasharray="" stroke-dashoffset="0" style="mix-blend-mode: normal"><path d="M290.72614,314.42882l13.62477,-131.8421l33.99545,-0.15789l12.2131,132z" fill="#ecec68" fill-rule="nonzero" stroke="#000000" stroke-width="2" stroke-linecap="butt" stroke-linejoin="miter"/><path d="M296.57572,267.16265l8.45591,-81.82486l32.57503,-0.15129l7.60398,82.1843c0,0 -14.59301,4.84164 -24.23451,4.80038c-9.6415,-0.04126 -24.40041,-5.00852 -24.40041,-5.00852z" fill="#c8c824" fill-rule="nonzero" stroke="#000000" stroke-width="0" stroke-linecap="butt" stroke-linejoin="miter"/><g fill-rule="nonzero" stroke="#000000" stroke-width="2" stroke-linecap="butt" stroke-linejoin="miter"><path d="M265.78468,135.89188l-66.72866,-21.14914l2.21563,-6.99061l66.72866,21.14914z" fill="#ffe9b3"/><path d="M194.8262,128.08847c-9.30104,-2.94789 -14.4513,-12.87764 -11.50341,-22.17868c2.94789,-9.30104 12.87764,-14.4513 22.17869,-11.5034c9.30104,2.94789 14.4513,12.87764 11.5034,22.17869c-2.94789,9.30104 -12.87763,14.45129 -22.17868,11.50339z" fill="#dccd27"/></g><g fill-rule="nonzero" stroke="#000000" stroke-width="2" stroke-linecap="butt" stroke-linejoin="miter"><path d="M346.61293,95.49282l69.43962,8.8396l-0.92606,7.27462l-69.43962,-8.8396z" fill="#ffe9b3"/><path d="M417.82048,90.44449c9.67891,1.23212 16.52641,10.07727 15.2943,19.75618c-1.23212,9.67891 -10.07727,16.52641 -19.75619,15.29429c-9.67891,-1.23212 -16.52641,-10.07728 -15.29429,-19.75619c1.23212,-9.67891 10.07727,-16.5264 19.75619,-15.29428z" fill="#dccd27"/></g><path d="M295.43463,251.66804l7.58416,-69.08131l36.11546,-0.15789l6.82766,69.46209c0,0 -1.63411,6.69929 -25.4124,6.56159c-22.03251,-0.12759 -25.11488,-6.78449 -25.11488,-6.78449z" fill="#dccd27" fill-rule="nonzero" stroke="#000000" stroke-width="2" stroke-linecap="butt" stroke-linejoin="miter"/><path d="M296.92485,228.53569l5.27751,-45.94896l37.78325,-0.15789l4.67444,45.45686c0,0 -7.00642,7.16153 -24.11741,7.06682c-17.11099,-0.09472 -23.61779,-6.41683 -23.61779,-6.41683z" fill="#dccd27" fill-rule="nonzero" stroke="#000000" stroke-width="2" stroke-linecap="butt" stroke-linejoin="miter"/><path d="M300.00973,211.04147l3.12142,-26.32765l35.83075,-0.14203l2.76735,26.1059c0,0 -7.51543,4.19603 -21.55904,4.50964c-12.48458,0.27879 -20.16049,-4.14586 -20.16049,-4.14586z" fill="#b2a730" fill-rule="nonzero" stroke="#000000" stroke-width="0" stroke-linecap="butt" stroke-linejoin="miter"/><path d="M248.85665,159.89437c-7.3061,-32.49052 14.83037,-65.13893 49.44317,-72.92226c34.6128,-7.78333 68.59479,12.24581 75.90089,44.73633c7.3061,32.49052 -14.83037,65.13893 -49.44317,72.92226c-34.6128,7.78333 -68.59479,-12.24581 -75.90089,-44.73633z" fill="#b9b912" fill-rule="nonzero" stroke="#000000" stroke-width="2" stroke-linecap="butt" stroke-linejoin="miter"/><path d="M249.57392,159.78828c-0.15971,-0.71025 17.34797,53.41475 74.30764,41.64655c54.42258,-11.24401 49.25187,-70.47549 49.47539,-69.48146c7.19705,32.00557 -14.67838,64.18228 -48.86011,71.86868c-34.18173,7.6864 -67.72588,-12.02819 -74.92292,-44.03377z" fill="#c8c824" fill-rule="nonzero" stroke="#000000" stroke-width="0" stroke-linecap="butt" stroke-linejoin="miter"/><path d="M296.88903,173.00444l39.36522,-8.852c2.38495,-0.5363 4.73669,0.95196 5.27299,3.33689l4.02051,17.87937c0.5363,2.38494 -0.95196,4.73669 -3.33689,5.27299l-39.36522,8.852c-2.38494,0.5363 -4.7367,-0.95196 -5.273,-3.33689l-4.02051,-17.87937c-0.5363,-2.38494 0.95196,-4.73669 3.3369,-5.27299z" fill="#000000" fill-rule="evenodd" stroke="#000000" stroke-width="2" stroke-linecap="round" stroke-linejoin="round"/><path d="M251.58627,121.76728l103.67558,-23.31338c6.28119,-1.41244 12.47494,2.50716 13.88738,8.78833l10.58875,47.08863c1.41244,6.28117 -2.50716,12.47495 -8.78832,13.88739l-103.67557,23.31337c-6.28117,1.41244 -12.47496,-2.50716 -13.8874,-8.78833l-10.58875,-47.08863c-1.41244,-6.28116 2.50717,-12.47495 8.78834,-13.88739z" fill="#dccd27" fill-rule="evenodd" stroke="#000000" stroke-width="2" stroke-linecap="round" stroke-linejoin="round"/><path d="M260.49583,125.23449l88.1984,-19.83305c5.34351,-1.20159 10.61263,2.13288 11.81421,7.47636l9.00801,40.05902c1.20158,5.34349 -2.13288,10.61263 -7.47636,11.81421l-88.19838,19.83304c-5.34349,1.20158 -10.61264,-2.13287 -11.81423,-7.47636l-9.00801,-40.05902c-1.20158,-5.34349 2.13289,-10.61263 7.47638,-11.81421z" fill="#000000" fill-rule="evenodd" stroke="#000000" stroke-width="2" stroke-linecap="round" stroke-linejoin="round"/><path d="M334.26928,179.49191c0,0 0.56044,8.90895 -12.45344,11.97554c-10.80591,2.5463 -15.90176,-4.9462 -15.90176,-4.9462" fill="none" fill-rule="nonzero" stroke="#ecec68" stroke-width="2" stroke-linecap="round" stroke-linejoin="miter"/><path d="M296.79848,149.26487c2.31873,10.31148 0.36146,19.5334 -4.37168,20.59773c-4.73314,1.06433 -10.4498,-6.43196 -12.76853,-16.74344c-2.31873,-10.31148 -0.36146,-19.5334 4.37168,-20.59773c4.73314,-1.06433 10.4498,6.43196 12.76853,16.74344z" fill="#ecec68" fill-rule="nonzero" stroke="none" stroke-width="0" stroke-linecap="butt" stroke-linejoin="miter"/><path d="M342.68645,138.92614c2.31873,10.31147 0.36147,19.53339 -4.37168,20.59773c-4.73314,1.06433 -10.4498,-6.43196 -12.76853,-16.74344c-2.31873,-10.31147 -0.36146,-19.5334 4.37168,-20.59773c4.73314,-1.06433 10.44981,6.43197 12.76853,16.74344z" fill="#ecec68" fill-rule="nonzero" stroke="none" stroke-width="0" stroke-linecap="butt" stroke-linejoin="miter"/></g></g></svg>