<svg version="1.1" xmlns="http://www.w3.org/2000/svg" xmlns:xlink="http://www.w3.org/1999/xlink" width="150.44552" height="268.85588" viewBox="0,0,150.44552,268.85588"><g transform="translate(-247.62135,-46.57295)"><g data-paper-data="{&quot;isPaintingLayer&quot;:true}" stroke-miterlimit="10" stroke-dasharray="" stroke-dashoffset="0" style="mix-blend-mode: normal"><path d="M290.72614,314.42882l13.62477,-131.8421l33.99545,-0.15789l12.2131,132z" data-paper-data="{&quot;index&quot;:null}" fill="#ecec68" fill-rule="nonzero" stroke="#000000" stroke-width="2" stroke-linecap="butt" stroke-linejoin="miter"/><path d="M296.57572,267.16265l8.45591,-81.82486l32.57503,-0.15129l7.60398,82.1843c0,0 -14.59301,4.84164 -24.23451,4.80038c-9.6415,-0.04126 -24.40041,-5.00852 -24.40041,-5.00852z" data-paper-data="{&quot;index&quot;:null}" fill="#c8c824" fill-rule="nonzero" stroke="#000000" stroke-width="0" stroke-linecap="butt" stroke-linejoin="miter"/><g data-paper-data="{&quot;index&quot;:null}" fill-rule="nonzero" stroke="#000000" stroke-width="2" stroke-linecap="butt" stroke-linejoin="miter"><path d="M257.19513,134.75101l5.38474,-69.79258l7.31159,0.56412l-5.38474,69.79258z" fill="#ffe9b3"/><path d="M248.62135,63.88148c0.75056,-9.72811 9.24521,-17.00587 18.97332,-16.25532c9.72811,0.75056 17.00587,9.24521 16.25532,18.97333c-0.75056,9.72811 -9.24521,17.00587 -18.97333,16.25532c-9.72811,-0.75056 -17.00586,-9.24521 -16.25531,-18.97333z" fill="#dccd27"/></g><g data-paper-data="{&quot;index&quot;:null}" fill-rule="nonzero" stroke="#000000" stroke-width="2" stroke-linecap="butt" stroke-linejoin="miter"><path d="M370.35879,143.48198l5.38474,-69.79258l7.3116,0.56413l-5.38474,69.79258z" fill="#ffe9b3"/><path d="M361.78502,72.61245c0.75056,-9.72811 9.24521,-17.00587 18.97332,-16.25532c9.72811,0.75056 17.00587,9.24521 16.25532,18.97333c-0.75056,9.72811 -9.24522,17.00587 -18.97333,16.25532c-9.72811,-0.75056 -17.00586,-9.24521 -16.25531,-18.97333z" fill="#dccd27"/></g><path d="M295.43462,251.66804l7.58416,-69.08131l36.11546,-0.15789l6.82766,69.46209c0,0 -1.63411,6.69929 -25.4124,6.56159c-22.03251,-0.12759 -25.11488,-6.78449 -25.11488,-6.78449z" data-paper-data="{&quot;index&quot;:null}" fill="#dccd27" fill-rule="nonzero" stroke="#000000" stroke-width="2" stroke-linecap="butt" stroke-linejoin="miter"/><path d="M296.92485,228.53569l5.27751,-45.94896l37.78325,-0.15789l4.67444,45.45686c0,0 -7.00642,7.16153 -24.11741,7.06682c-17.11099,-0.09472 -23.61779,-6.41683 -23.61779,-6.41683z" data-paper-data="{&quot;index&quot;:null}" fill="#dccd27" fill-rule="nonzero" stroke="#000000" stroke-width="2" stroke-linecap="butt" stroke-linejoin="miter"/><path d="M300.00973,211.04147l3.12142,-26.32765l35.83075,-0.14203l2.76735,26.1059c0,0 -7.51543,4.19603 -21.55904,4.50964c-12.48458,0.27879 -20.16049,-4.14586 -20.16049,-4.14586z" data-paper-data="{&quot;index&quot;:null}" fill="#b2a730" fill-rule="nonzero" stroke="#000000" stroke-width="0" stroke-linecap="butt" stroke-linejoin="miter"/><path d="M252.96077,144.99276c2.56174,-33.20317 33.31312,-57.90731 68.68512,-55.17823c35.372,2.72907 61.96998,31.85792 59.40824,65.06109c-2.56174,33.20317 -33.31312,57.90731 -68.68512,55.17823c-35.372,-2.72907 -61.96998,-31.85792 -59.40824,-65.06109z" data-paper-data="{&quot;index&quot;:null}" fill="#b9b912" fill-rule="nonzero" stroke="#000000" stroke-width="2" stroke-linecap="butt" stroke-linejoin="miter"/><path d="M253.67755,145.10208c0.056,-0.72583 0.88964,56.15422 58.79305,61.63958c55.32429,5.24104 67.78342,-52.89564 67.70505,-51.87981c-2.5235,32.70759 -32.88678,57.03753 -67.81826,54.34244c-34.93148,-2.69509 -61.20334,-31.39463 -58.67984,-64.10221z" data-paper-data="{&quot;index&quot;:null}" fill="#c8c824" fill-rule="nonzero" stroke="#000000" stroke-width="0" stroke-linecap="butt" stroke-linejoin="miter"/><path d="M296.58702,170.89954l40.20458,3.4016c2.4358,0.20609 4.23082,2.33294 4.02474,4.76873l-1.54498,18.2606c-0.20609,2.43579 -2.33294,4.23082 -4.76873,4.02474l-40.20457,-3.4016c-2.43579,-0.20609 -4.23083,-2.33294 -4.02475,-4.76873l1.54498,-18.2606c0.20609,-2.43579 2.33294,-4.23082 4.76874,-4.02474z" data-paper-data="{&quot;index&quot;:null}" fill="#000000" fill-rule="evenodd" stroke="#000000" stroke-width="2" stroke-linecap="round" stroke-linejoin="round"/><path d="M266.77131,109.35016l105.94961,8.17438c6.41896,0.49525 11.18784,6.06154 10.69259,12.48049l-3.71274,48.12148c-0.49524,6.41894 -6.06154,11.18785 -12.48048,10.6926l-105.9496,-8.17438c-6.41894,-0.49524 -11.18786,-6.06155 -10.69261,-12.48049l3.71274,-48.12148c0.49524,-6.41893 6.06155,-11.18785 12.4805,-10.6926z" data-paper-data="{&quot;index&quot;:null}" fill="#dccd27" fill-rule="evenodd" stroke="#000000" stroke-width="2" stroke-linecap="round" stroke-linejoin="round"/><path d="M274.29788,114.65514l90.13295,6.95407c5.46071,0.42131 9.51767,5.15665 9.09636,10.61734l-3.15849,40.93768c-0.42131,5.46069 -5.15665,9.51767 -10.61734,9.09636l-90.13293,-6.95407c-5.46069,-0.42131 -9.51769,-5.15665 -9.09638,-10.61734l3.15849,-40.93768c0.42131,-5.46069 5.15666,-9.51767 10.61736,-9.09635z" data-paper-data="{&quot;index&quot;:null}" fill="#000000" fill-rule="evenodd" stroke="#000000" stroke-width="2" stroke-linecap="round" stroke-linejoin="round"/><path d="M329.10989,189.73893c0,0 -2.304,8.6241 -15.61718,7.38954c-11.05443,-1.02511 -13.50082,-9.74981 -13.50082,-9.74981" data-paper-data="{&quot;index&quot;:null}" fill="none" fill-rule="nonzero" stroke="#ecec68" stroke-width="2" stroke-linecap="round" stroke-linejoin="miter"/><path d="M301.90976,148.91722c-0.81302,10.53765 -5.39322,18.77757 -10.23017,18.40438c-4.83695,-0.37319 -8.099,-9.21817 -7.28599,-19.75582c0.81302,-10.53765 5.39322,-18.77758 10.23018,-18.40439c4.83695,0.37319 8.099,9.21817 7.28598,19.75582z" data-paper-data="{&quot;index&quot;:null}" fill="#ecec68" fill-rule="nonzero" stroke="none" stroke-width="0" stroke-linecap="butt" stroke-linejoin="miter"/><path d="M348.81011,152.5162c-0.81302,10.53765 -5.39322,18.77757 -10.23017,18.40438c-4.83695,-0.37319 -8.099,-9.21817 -7.28599,-19.75582c0.81302,-10.53765 5.39322,-18.77758 10.23018,-18.40439c4.83695,0.37319 8.099,9.21817 7.28598,19.75582z" data-paper-data="{&quot;index&quot;:null}" fill="#ecec68" fill-rule="nonzero" stroke="none" stroke-width="0" stroke-linecap="butt" stroke-linejoin="miter"/></g></g></svg>