<svg version="1.1" xmlns="http://www.w3.org/2000/svg" xmlns:xlink="http://www.w3.org/1999/xlink" width="141.55131" height="251.44026" viewBox="0,0,141.55131,251.44026"><g transform="translate(-249.52611,-76.40589)"><g data-paper-data="{&quot;isPaintingLayer&quot;:true}" fill-rule="nonzero" stroke-linejoin="miter" stroke-miterlimit="10" stroke-dasharray="" stroke-dashoffset="0" style="mix-blend-mode: normal"><path d="M295.52305,188.5061c0,0 2.53763,80.25939 -30.09158,76.49985c-31.94687,-3.68091 -2.59948,-106.60088 -2.59948,-106.60088" data-paper-data="{&quot;index&quot;:null}" fill="#d9d960" stroke="#000000" stroke-width="2" stroke-linecap="round"/><path d="M377.77153,157.80154c0,0 29.34739,102.91997 -2.59948,106.60088c-32.62922,3.75954 -30.09158,-76.49985 -30.09158,-76.49985" data-paper-data="{&quot;index&quot;:null}" fill="#d9d960" stroke="#000000" stroke-width="2" stroke-linecap="round"/><path d="M286.70285,326.84614l15.14285,-131.8421l37.78325,-0.15789l13.57389,132z" fill="#d9d960" stroke="#000000" stroke-width="2" stroke-linecap="butt"/><path d="M299.65308,223.45877l3.12142,-26.32765l35.83075,-0.14203l2.76735,26.1059c0,0 -7.51543,4.19603 -21.55904,4.50964c-12.48458,0.27879 -20.16049,-4.14586 -20.16049,-4.14586z" fill="#b4b44f" stroke="#000000" stroke-width="0" stroke-linecap="butt"/><path d="M256.99983,148.94985c0,-33.30185 28.7599,-60.29833 64.23702,-60.29833c35.47712,0 64.23702,26.99649 64.23702,60.29833c0,33.30185 -28.7599,60.29833 -64.23702,60.29833c-35.47712,0 -64.23702,-26.99649 -64.23702,-60.29833z" fill="#d9d960" stroke="#000000" stroke-width="2" stroke-linecap="butt"/><path d="M257.7229,149.00371c0,-0.72799 5.20666,55.91939 63.36046,56.93429c55.56352,0.9697 63.51358,-57.95314 63.51358,-56.93429c0,32.80479 -28.40173,59.39833 -63.43702,59.39833c-35.03529,0 -63.43702,-26.59354 -63.43702,-59.39833z" fill="#b4b44f" stroke="#000000" stroke-width="0" stroke-linecap="butt"/><path d="M270.55004,149.37934c0,-12.968 10.51265,-23.48065 23.48065,-23.48065c12.968,0 23.48065,10.51265 23.48065,23.48065c0,12.968 -10.51265,23.48065 -23.48065,23.48065c-12.968,0 -23.48065,-10.51265 -23.48065,-23.48065z" fill="#ffffff" stroke="#000000" stroke-width="2" stroke-linecap="butt"/><path d="M273.39068,148.50014c0,-9.12808 7.39976,-16.52784 16.52783,-16.52784c9.12808,0 16.52784,7.39977 16.52784,16.52784c0,9.12808 -7.39977,16.52784 -16.52784,16.52784c-9.12808,0 -16.52783,-7.39977 -16.52783,-16.52784z" fill="#000000" stroke="none" stroke-width="0" stroke-linecap="butt"/><path d="M308.06339,187.47357c0,0 4.93308,-4.26062 12.19893,-4.14285c8.81398,0.14285 12.91066,4.14285 12.91066,4.14285" data-paper-data="{&quot;index&quot;:null}" fill="none" stroke="#000000" stroke-width="2" stroke-linecap="round"/><path d="M347.6856,169.23874c-12.968,0 -22.87711,-6.89144 -22.87711,-19.85944c0,-12.968 10.51265,-23.48065 23.48065,-23.48065c12.968,0 23.48065,10.51265 23.48065,23.48065c0,12.968 -11.11619,19.85944 -24.08419,19.85944z" data-paper-data="{&quot;index&quot;:null}" fill="#ffffff" stroke="#000000" stroke-width="2" stroke-linecap="butt"/><path d="M345.76243,165.02799c-9.12807,0 -16.52783,-7.39977 -16.52783,-16.52784c0,-9.12808 7.39977,-16.52784 16.52783,-16.52784c9.12807,0 16.52783,7.39977 16.52783,16.52784c0,9.12808 -7.39977,16.52784 -16.52783,16.52784z" data-paper-data="{&quot;index&quot;:null}" fill="#000000" stroke="none" stroke-width="0" stroke-linecap="butt"/><path d="M283.18772,115.57996c0,0 6.70895,-5.16922 11.79721,-6.36355c5.08827,-1.19433 12.33413,0.69937 12.33413,0.69937c0,0 -8.03812,-0.06028 -11.96762,0.86207c-4.10648,0.96389 -12.16372,4.80211 -12.16372,4.80211z" fill="#000000" stroke="none" stroke-width="0" stroke-linecap="butt"/><path d="M347.12223,110.77786c-3.9295,-0.92235 -11.96762,-0.86207 -11.96762,-0.86207c0,0 7.24586,-1.8937 12.33413,-0.69937c5.08826,1.19433 11.79721,6.36355 11.79721,6.36355c0,0 -8.05724,-3.83822 -12.16372,-4.80211z" data-paper-data="{&quot;index&quot;:null}" fill="#000000" stroke="none" stroke-width="0" stroke-linecap="butt"/><path d="M270.49878,149.0794l-3.6,-2.6" fill="none" stroke="#000000" stroke-width="2" stroke-linecap="round"/><path d="M371.29878,148.87938l4.2,-3.4" fill="none" stroke="#000000" stroke-width="2" stroke-linecap="round"/><g fill="#bebe3e" stroke="#000000" stroke-width="2" stroke-linecap="butt"><path d="M283.91459,104.60233c-3.9968,-6.60956 1.84783,-9.37062 1.84783,-9.37062c0,0 -5.01589,-1.56163 -4.54353,-8.37176c0.60704,-8.75182 24.67891,2.65918 24.67891,2.65918l0.76068,7.51674c0,0 -19.07092,13.6405 -22.74389,7.56647z"/><path d="M316.84554,95.77734l-1.09151,-7.47587c0,0 20.57106,-16.92621 23.28975,-8.58525c2.11552,6.49042 -2.36952,9.2258 -2.36952,9.2258c0,0 6.34086,1.25566 4.07277,8.63919c-2.08432,6.78528 -23.9015,-1.80387 -23.9015,-1.80387z" data-paper-data="{&quot;index&quot;:null}"/><path d="M303.43586,93.37948c-0.52479,-4.24791 2.49341,-8.11695 6.74131,-8.64174c4.24791,-0.52479 8.11695,2.49341 8.64174,6.74131c0.52479,4.24791 -2.49341,8.11695 -6.74131,8.64174c-4.24791,0.52479 -8.11695,-2.49341 -8.64174,-6.74131z"/></g></g></g></svg>