<svg version="1.1" xmlns="http://www.w3.org/2000/svg" xmlns:xlink="http://www.w3.org/1999/xlink" width="94.14233" height="243.53444" viewBox="0,0,94.14233,243.53444"><defs><linearGradient x1="132.58509" y1="236.53408" x2="142.01118" y2="313.55902" gradientUnits="userSpaceOnUse" id="color-1"><stop offset="0" stop-color="#2a2a12" stop-opacity="0"/><stop offset="1" stop-color="#2a2a12"/></linearGradient><linearGradient x1="115.96349" y1="140.55639" x2="127.78088" y2="139.11021" gradientUnits="userSpaceOnUse" id="color-2"><stop offset="0" stop-color="#131308"/><stop offset="1" stop-color="#131308" stop-opacity="0"/></linearGradient><linearGradient x1="117.7748" y1="162.49991" x2="130.22939" y2="160.97574" gradientUnits="userSpaceOnUse" id="color-3"><stop offset="0" stop-color="#151509"/><stop offset="1" stop-color="#151509" stop-opacity="0"/></linearGradient></defs><g transform="translate(-83.32082,-101.50659)"><g stroke-miterlimit="10"><g stroke="none" stroke-width="0" stroke-linecap="butt"><path d="M167.1582,311.31923l-8.32551,-68.03163l10.22767,-1.25163l8.32551,68.03163z" fill="#959541"/><path d="M159.849,250.66607l-0.44886,-3.66786l10.20416,-1.24876l0.44886,3.66786z" fill="#85853a"/><path d="M160.57212,257.35495l-0.44886,-3.66786l10.20416,-1.24876l0.44886,3.66786z" fill="#85853a"/><path d="M161.47179,263.92676l-0.44886,-3.66785l10.20416,-1.24876l0.44886,3.66785z" fill="#85853a"/><path d="M162.16236,269.56961l-0.44886,-3.66786l10.20416,-1.24876l0.44886,3.66786z" fill="#85853a"/><path d="M162.85094,275.97636l-0.44886,-3.66786l10.20416,-1.24876l0.44886,3.66786z" fill="#85853a"/><path d="M163.58754,281.99539l-0.44886,-3.66785l10.20416,-1.24876l0.44886,3.66785z" fill="#85853a"/><path d="M164.40665,287.90887l-0.44886,-3.66785l10.20416,-1.24876l0.44886,3.66785z" fill="#85853a"/><path d="M165.0492,293.93943l-0.44886,-3.66785l10.20416,-1.24876l0.44886,3.66785z" fill="#85853a"/><path d="M165.72827,299.48823l-0.44886,-3.66785l10.20416,-1.24876l0.44886,3.66785z" fill="#85853a"/><path d="M166.47635,305.60132l-0.44886,-3.66785l10.20416,-1.24876l0.44886,3.66785z" fill="#85853a"/><path d="M167.259,311.99655l-0.44886,-3.66786l10.20416,-1.24876l0.44886,3.66786z" fill="#85853a"/></g><g stroke="none" stroke-width="0" stroke-linecap="butt"><path d="M107.86221,318.19387l-8.32551,-68.03163l10.22767,-1.25163l8.32551,68.03163z" fill="#959541"/><path d="M100.55301,257.5407l-0.44886,-3.66786l10.20416,-1.24876l0.44886,3.66786z" fill="#85853a"/><path d="M101.27611,264.22959l-0.44886,-3.66786l10.20415,-1.24875l0.44886,3.66786z" fill="#85853a"/><path d="M102.17581,270.8014l-0.44886,-3.66786l10.20415,-1.24875l0.44886,3.66786z" fill="#85853a"/><path d="M102.86638,276.44425l-0.44886,-3.66785l10.20415,-1.24875l0.44886,3.66785z" fill="#85853a"/><path d="M103.55494,282.85101l-0.44886,-3.66785l10.20415,-1.24875l0.44886,3.66785z" fill="#85853a"/><path d="M104.29155,288.87003l-0.44886,-3.66785l10.20415,-1.24875l0.44886,3.66785z" fill="#85853a"/><path d="M105.11069,294.78353l-0.44886,-3.66785l10.20415,-1.24875l0.44886,3.66785z" fill="#85853a"/><path d="M105.75322,300.81408l-0.44886,-3.66785l10.20415,-1.24875l0.44886,3.66785z" fill="#85853a"/><path d="M106.43227,306.36287l-0.44886,-3.66786l10.20415,-1.24875l0.44886,3.66786z" fill="#85853a"/><path d="M107.18038,312.47596l-0.44886,-3.66786l10.20415,-1.24875l0.44886,3.66786z" fill="#85853a"/><path d="M107.96301,318.8712l-0.44886,-3.66785l10.20415,-1.24875l0.44886,3.66785z" fill="#85853a"/></g><path d="M99.56373,250.21851c0,0 -0.75511,-13.4103 -3.33632,-33.39345c-0.89061,-6.89495 3.12175,-31.9638 30.20369,-35.41531c26.73277,-3.407 36.79021,20.83016 37.55105,27.10274c4.72515,39.14908 5.21398,33.33265 5.21398,33.33265l-8.487,1.21668l-4.85671,-30.77135c0,0 -0.25714,-2.63115 -2.71047,-2.37805c-2.91373,0.30061 -2.17033,2.94224 -2.17033,2.94224l16.57254,125.95784l-40.80191,5.05527l-16.69472,-126.25487c0,0 -0.06579,-2.49968 -2.74641,-2.18489c-2.63466,0.30941 -2.08196,2.7539 -2.08196,2.7539l0.70663,31.37594z" fill="#ffffff" stroke="#000000" stroke-width="2" stroke-linecap="butt"/><g stroke="none" stroke-width="0" stroke-linecap="butt"><g fill="#6e6e30"><path d="M124.1669,344.8798l-18.91542,-154.31738c0,0 10.13156,9.50896 23.22307,7.99501c17.96375,-2.07737 19.94539,-13.5233 19.94539,-13.5233l20.60763,154.35575z"/><path d="M95.30189,252.35866c0,0 -0.27877,-24.46796 -0.2961,-42.48036c-0.00957,-9.94163 10.5328,-19.58117 10.5328,-19.58117l3.48724,6.20891c0,0 0.79833,14.62369 1.26235,18.41539c0.39698,3.24387 -4.64717,-0.1734 -4.27084,2.90171c1.17926,9.63626 4.07896,32.79111 4.07896,32.79111z"/><path d="M158.94904,244.80762c0,0 -3.28818,-23.26534 -4.48075,-33.0104c-0.38057,-3.10982 -4.5225,1.47715 -4.92395,-1.80334c-0.46926,-3.83452 -4.58226,-20.18242 -4.58226,-20.18242l3.24801,-5.1444c0,0 12.76017,6.88211 15.18164,16.64083c4.38727,17.68099 10.09509,41.76121 10.09509,41.76121z"/></g><path d="M124.18663,345.04103l-13.92609,-105.77493l44.64907,-5.46402l13.92609,105.77493c0,0 -33.84848,4.14228 -40.42969,4.94767c-2.12608,0.26018 -4.21937,0.51635 -4.21937,0.51635z" fill="url(#color-1)"/></g><path d="M126.3682,212.71528c-0.27796,0.28257 -0.67681,0.33138 -0.67681,0.33138c-1.89627,0.23206 -4.53117,0.04043 -6.20123,1.0409c-6.57076,3.93627 -6.33638,12.44049 -4.41602,18.95952c1.33971,3.29046 3.20894,7.89789 6.17321,9.97273c2.66446,1.865 6.14755,1.92251 9.20699,1.91306c2.12203,-0.00655 4.76718,0.22628 6.74373,-0.6904c1.79768,-2.03056 4.61625,-2.96197 6.19673,-5.3252c3.47331,-5.19348 3.38519,-12.87751 0.39641,-18.30996c-1.48447,-2.48078 -3.55899,-5.64113 -6.0722,-7.17361c-2.90095,-1.7689 -7.84163,-1.16365 -11.35077,-0.71844zM124.16617,211.0515c0.27404,-0.24494 0.63208,-0.28876 0.63208,-0.28876l0.36275,-0.04439c4.04619,-0.49516 10.0054,-1.32879 13.65612,0.8881c2.84078,1.72506 5.14098,5.1379 6.82292,7.93949c3.36399,6.13367 3.46814,14.72713 -0.48978,20.5809c-1.73164,2.5611 -4.70014,3.63955 -6.67557,5.82295c-2.49838,1.2013 -5.27275,1.1106 -8.00831,1.11491c-4.39091,0.0069 -9.59383,-0.4764 -12.60503,-4.24554c-1.97336,-2.47007 -3.59385,-6.12764 -4.79883,-9.06621c-2.19278,-7.42075 -2.2324,-17.15274 5.35892,-21.51003c1.64972,-0.94691 3.78729,-1.03813 5.74473,-1.19144z" fill="#5b5b28" stroke="none" stroke-width="0.5" stroke-linecap="butt"/><path d="M121.03676,217.57511c0.30396,0.09681 0.5718,0.3155 0.78561,0.65055c0.0208,0.0109 0.04141,0.02232 0.06188,0.03429c0.48441,0.28339 0.75572,0.92523 0.83231,1.66057c0.68773,1.33877 0.20357,3.67925 -0.77129,4.37135c-1.14743,0.81461 -2.53124,0.6229 -3.57852,-0.0997c-0.16833,0.05189 -0.32285,0.07612 -0.45815,0.06784c-0.78893,-0.04825 -0.97063,-1.24772 -1.45594,-1.87159c-0.22248,-2.23649 -0.15013,-3.93042 2.41976,-4.14977c0.35988,-0.24913 0.73103,-0.47156 1.08251,-0.66993c0,0 0.58373,-0.32062 1.08182,0.0064z" fill="#5b5b28" stroke="none" stroke-width="0.5" stroke-linecap="butt"/><path d="M133.85602,226.65899c-0.13969,0.017 -0.27796,0.0088 -0.41398,-0.03949c-2.13495,-0.75773 -2.2823,-4.47547 -0.69713,-5.76696c3.25469,-2.65171 6.08126,4.08324 3.20884,5.58832c-1.00253,0.52531 -1.66818,0.52361 -2.09774,0.21814z" fill="#5b5b28" stroke="none" stroke-width="0.5" stroke-linecap="butt"/><path d="M130.69216,237.943c-0.02535,0.02295 -0.05081,0.04567 -0.07641,0.06816c0.01014,0.01153 0.02003,0.0233 0.02969,0.03529c0.01563,-0.03444 0.03121,-0.06894 0.04673,-0.10346zM125.43433,236.7934c0.46196,0.34063 1.09936,-0.40785 1.67331,-0.40613c0.40908,0.00123 0.65437,0.53711 1.05248,0.63117c0.67642,0.1598 1.62216,-1.00403 2.34132,-2.05514c-0.40854,0.07968 -0.80991,0.14486 -1.16363,0.2164c-2.15994,0.43687 -4.25064,-0.24085 -6.10821,-1.41576c0.49242,1.15294 1.07952,2.19981 2.20472,3.02948zM118.99055,227.17799c0.79624,-0.20461 1.17621,0.59516 1.17621,0.59516l0.19642,0.48277c1.70116,2.10583 4.55399,4.91595 7.46335,4.97523c1.4957,0.03048 2.962,-0.56701 4.31624,-1.29597l0.8004,-0.9082c0.16673,-0.19097 0.4018,-0.32348 0.67324,-0.3567c0.58434,-0.07151 1.116,0.34422 1.18751,0.92855c0.01062,0.08677 0.01049,0.17237 0.00066,0.25549l-0.10644,1.09498l-0.00783,-0.00076l0.00543,0.02297c-0.17922,1.21474 -0.49429,2.4382 -1.06065,3.52767c-0.66077,1.48605 -1.43735,3.79445 -2.48392,5.03232c-2.53228,2.99512 -8.04328,0.93666 -9.79291,-1.8124c-2.20002,-3.45679 -1.97391,-7.41158 -3.39118,-11.07672c0,0 -0.38223,-0.99504 0.61282,-1.37727c0.15066,-0.05788 0.28727,-0.08417 0.41065,-0.08713z" fill="#5b5b28" stroke="none" stroke-width="0.5" stroke-linecap="butt"/><g><path d="M84.03361,147.44164c0,0 4.60337,-5.65085 4.62231,-6.39693c0.04966,-1.95678 -4.30327,-33.98631 26.13775,-38.9149c37.68679,-5.3969 36.68483,25.87885 39.52311,31.40914c3.89172,7.58286 7.01352,14.09025 7.01352,14.09025c0,0 -2.55491,-1.45151 -3.7778,-2.23009c-1.14058,-0.72616 -3.54349,-2.26897 -3.54349,-2.26897c0,0 3.68829,8.43874 3.25326,17.38102c-0.3403,8.1868 -4.39281,15.33602 -4.39281,15.33602l-1.22096,-1.8672c0,0 -0.63793,1.96633 -1.48311,3.04467c-0.84519,1.07833 -2.60893,2.82161 -2.60893,2.82161l-0.4616,-3.12581c0,0 -4.83459,10.05721 -19.48496,11.72429c-13.82852,1.47282 -23.17342,-6.33521 -23.17342,-6.33521l0.17664,2.25917c0,0 -3.63772,-2.38365 -6.23769,-7.57643c-3.09886,-6.1892 -4.01017,-10.02746 -4.01017,-10.02746c0,0 -1.78314,1.84979 -4.55168,2.94052c-3.46914,1.36675 -5.84407,1.01179 -5.84407,1.01179c0,0 2.77242,-2.67362 4.23233,-4.61577c1.30038,-1.72992 1.89032,-3.13272 1.89032,-3.13272c0,0 -1.67156,1.13643 -3.41515,1.80793c-1.81923,0.70064 -3.35618,0.86684 -3.35618,0.86684c0,0 3.68913,-4.77901 4.82462,-9.93257c1.07207,-4.86579 0.64227,-9.49207 0.64227,-9.49207c0,0 -1.084,0.70106 -2.73635,1.01796c-1.04738,0.20088 -2.01775,0.20492 -2.01775,0.20492z" fill="#000000" stroke="none" stroke-width="1.5" stroke-linecap="butt"/><path d="M99.4144,155.28584c-1.24392,-6.11341 -1.49336,-14.55473 -1.49336,-14.55473c0,0 2.88255,-0.38818 11.45175,-4.10266c6.5834,-2.85371 16.40909,-10.15861 16.40909,-10.15861c0,0 -1.51706,2.76728 -2.42247,4.12819c-0.96256,1.44679 -2.90707,4.27582 -2.90707,4.27582c0,0 6.46156,-2.2234 11.93125,-5.52308c6.88626,-3.88029 8.3388,-6.22072 10.48587,-5.22883c2.53406,1.17066 3.27321,19.51578 3.58517,24.25244c0.23036,4.84226 -1.16022,8.30321 -1.36959,10.92405c-0.20937,2.62084 0.28895,5.23663 -0.20596,13.80497c-0.30886,5.34724 -2.59824,7.98518 -6.9621,13.44716c-4.36385,5.462 -6.70494,8.76961 -10.04949,9.23817c-3.21866,0.45093 -8.09168,-3.39137 -12.87078,-7.3445c-5.08895,-4.20947 -8.39004,-6.25599 -9.79171,-11.80834c-1.26234,-5.00047 -1.68363,-8.30642 -2.52973,-12.79034c-0.61839,-3.27718 -2.58153,-5.22104 -3.26088,-8.55969z" fill="#ffffff" stroke="#000000" stroke-width="1.5" stroke-linecap="butt"/><path d="M132.18484,175.21631c0.50475,0.12024 2.75497,0.8651 5.36764,1.57323c2.63348,0.71377 6.34332,1.1936 6.34417,1.33744c0.00107,0.18256 -8.80878,1.27296 -11.51311,1.9521c-2.26628,0.56913 -5.58839,1.29011 -5.58839,1.29011c0,0 -6.13336,-0.24743 -11.48737,-0.69489c-4.29105,-0.35863 -8.97431,-0.32879 -8.99302,-0.40685c-0.02525,-0.10527 3.20066,-1.00226 5.63171,-1.88736c0.91844,-0.53903 4.45049,-1.82052 4.45049,-1.82052c0,0 4.16601,-0.74837 6.49982,-0.29801c2.50066,0.48256 2.65333,1.77628 2.86538,1.77052c0,0 0.82127,-1.60335 1.78707,-2.02677c0.9658,-0.42342 4.25858,-0.87882 4.63563,-0.78902z" fill="#ffffff" stroke="#000000" stroke-width="1.4" stroke-linecap="butt"/><path d="M116.87234,181.00222c4.41564,0.3417 10.37815,1.14176 10.37815,1.14176c0,0 4.73946,-1.91664 6.95957,-2.42763c1.72121,-0.39617 9.42035,-1.75983 9.49643,-1.44889c0.07439,0.30402 -6.30799,11.85468 -16.61101,12.7262c-11.70007,1.05744 -20.92102,-10.4428 -20.90651,-10.58987c0.01451,-0.14708 6.26774,0.25672 10.68338,0.59844z" fill="#ffffff" stroke="#000000" stroke-width="1.9" stroke-linecap="butt"/><path d="M125.85116,177.33153c-0.875,0.10708 -3.33248,-2.39322 -3.76076,-4.14774c-0.3832,-1.56982 0.71664,-3.37634 2.80865,-3.63235c2.09202,-0.25602 3.60761,-0.01986 3.84496,3.12785c0.20143,2.67137 -0.80083,4.39624 -2.89285,4.65226z" fill="#ffffff" stroke="#000000" stroke-width="1.15" stroke-linecap="butt"/><path d="M125.78287,151.48625c0,0 0.49804,3.34949 0.74307,6.03158c0.48521,5.311 1.96016,23.60945 1.96016,23.60945l-2.52287,0.31616c0,0 -1.11185,-3.44875 -1.93475,-7.92453c-1.11386,-6.05837 -2.06817,-13.74447 -2.67977,-16.53824c-0.57974,-2.64823 -1.35028,-4.74413 -1.35028,-4.74413" fill="#ffffff" stroke="#000000" stroke-width="1.3" stroke-linecap="round"/><path d="M101.90162,163.67837c0,0 -4.53898,-2.46604 -6.14719,-6.9582c-1.69214,-4.72662 -2.24494,-8.08676 -0.6286,-8.50719c1.61634,-0.42044 2.53428,1.73189 4.02491,6.68585c1.49061,4.95397 2.7509,8.77954 2.7509,8.77954z" fill="#ffffff" stroke="#000000" stroke-width="1" stroke-linecap="butt"/><path d="M101.32123,160.35802c0,0 -3.31935,-2.10528 -4.53035,-6.70554c-0.67554,-2.56618 1.58935,-2.15339 1.58935,-2.15339" fill="none" stroke="#000000" stroke-width="0.25" stroke-linecap="round"/><path d="M146.70692,149.07903c0.25201,-5.16722 0.62385,-7.47739 2.29388,-7.45913c1.67002,0.01826 1.94381,3.41253 1.44139,8.40772c-0.4775,4.7474 -4.28786,8.23521 -4.28786,8.23521c0,0 0.30059,-4.01659 0.55259,-9.18381z" fill="#ffffff" stroke="#000000" stroke-width="1" stroke-linecap="butt"/><path d="M146.63486,145.59383c0,0 2.09851,-0.94677 2.06172,1.70659c-0.06594,4.75653 -2.77967,7.60012 -2.77967,7.60012" fill="none" stroke="#000000" stroke-width="0.25" stroke-linecap="round"/><g><g><path d="M93.56703,179.02395l24.01595,-74.02987l40.52417,66.13164z" fill="#b4b44f" stroke="none" stroke-width="0" stroke-linecap="butt"/><path d="M146.73312,152.65862l-36.84902,-24.10952l2.63601,-7.43942l27.92533,21.17402z" fill="#cdcd51" stroke="none" stroke-width="0" stroke-linecap="butt"/><path d="M141.29358,172.91187l-36.78815,-25.83517l3.42351,-11.63495l45.7733,36.07577z" fill="#cdcd51" stroke="none" stroke-width="0" stroke-linecap="butt"/><path d="M152.8029,169.02571l-55.01781,6.73292l20.4534,-64.53034z" fill="none" stroke="#717132" stroke-width="1.5" stroke-linecap="round"/></g><path d="M127.72899,138.76093c0.87446,7.1456 -2.20406,14.64946 -4.45032,14.7812c-1.45801,0.08551 -6.49562,-5.9436 -7.37008,-13.0892c-0.87446,-7.14559 -2.66711,-13.542 4.01102,-14.35925c6.67813,-0.81725 6.93492,5.52166 7.80938,12.66726z" fill="#6d6d30" stroke="none" stroke-width="0" stroke-linecap="butt"/><path d="M130.32343,160.96424c0.38819,3.17211 -2.08517,6.08481 -5.52442,6.50569c-3.43924,0.42088 -6.54199,-1.80943 -6.93019,-4.98153c-0.38819,-3.17212 2.08517,-6.08482 5.52441,-6.5057c3.43924,-0.42088 6.54199,1.80943 6.93019,4.98155z" fill="#6d6d30" stroke="none" stroke-width="0" stroke-linecap="butt"/><path d="M127.7352,138.81107c0.86547,7.07215 -2.19079,14.50003 -4.41926,14.63108c-1.44648,0.08506 -6.44241,-5.88086 -7.30788,-12.953c-0.86547,-7.07215 -2.64206,-13.40253 3.98334,-14.21333c6.6254,-0.8108 6.87834,5.4631 7.74381,12.53525z" fill="url(#color-2)" stroke="none" stroke-width="0" stroke-linecap="butt"/><path d="M130.22939,160.97574c0.38819,3.17211 -2.08517,6.08481 -5.52442,6.50569c-3.43924,0.42088 -6.54199,-1.80943 -6.93019,-4.98153c-0.38819,-3.17212 2.08517,-6.08482 5.52441,-6.5057c3.43924,-0.42088 6.54199,1.80943 6.93019,4.98155z" fill="url(#color-3)" stroke="none" stroke-width="0" stroke-linecap="butt"/></g></g><path d="M148.06781,184.85197c0.12001,0.9807 -0.87477,4.29756 -3.38691,7.28769c-2.2852,2.72003 -5.82214,5.06338 -8.77693,6.9152c-2.98614,1.87148 -7.09228,2.69624 -7.09228,2.69624c0,0 -6.77615,-0.88323 -10.89085,-2.14254c-7.12286,-2.17994 -11.98109,-7.37073 -12.2004,-9.16287c-0.07383,-0.6033 3.3087,-3.82218 4.15953,-3.52072c1.41076,0.49987 4.56127,3.68519 8.43504,6.12688c4.73934,2.98726 10.18482,5.27331 10.18482,5.27331c0,0 4.30594,-3.32598 8.55123,-7.62093c3.228,-3.26576 5.91997,-8.01989 7.02742,-8.35604c0.40426,-0.12271 3.94223,2.11868 3.98935,2.50377z" fill="#575726" stroke="none" stroke-width="0" stroke-linecap="butt"/></g></g></svg>