<svg version="1.1" xmlns="http://www.w3.org/2000/svg" xmlns:xlink="http://www.w3.org/1999/xlink" width="165.74793" height="296.21855" viewBox="0,0,165.74793,296.21855"><defs><linearGradient x1="268.27222" y1="65.23789" x2="285.2926" y2="111.65502" gradientUnits="userSpaceOnUse" id="color-1"><stop offset="0" stop-color="#ecec68"/><stop offset="1" stop-color="#292912"/></linearGradient></defs><g transform="translate(-237.73421,-33.63962)"><g data-paper-data="{&quot;isPaintingLayer&quot;:true}" fill-rule="nonzero" stroke-linejoin="miter" stroke-miterlimit="10" stroke-dasharray="" stroke-dashoffset="0" style="mix-blend-mode: normal"><path d="M357.00529,246.66652c-12.94173,-0.95623 -12.16464,-122.21817 -12.16464,-122.21817l12.63669,-1.99595c0,0 12.08484,125.14192 -0.47205,124.21412z" data-paper-data="{&quot;index&quot;:null}" fill="#60602a" stroke="#000000" stroke-width="2" stroke-linecap="butt"/><path d="M366.11833,235.15531c-12.94173,-0.95623 -10.92056,-109.57314 -10.92056,-109.57314l12.63668,-1.99595c0,0 10.84077,112.49689 -1.71611,111.5691z" data-paper-data="{&quot;index&quot;:null}" fill="#60602a" stroke="#000000" stroke-width="2" stroke-linecap="butt"/><path d="M290.33377,104.07708l12.70425,1.50718c0,0 5.79946,139.13846 -7.09576,140.59301c-12.51177,1.41131 -5.60849,-142.10018 -5.60849,-142.10018z" fill="#60602a" stroke="#000000" stroke-width="2" stroke-linecap="butt"/><path d="M287.11088,237.11681c-12.8967,-1.44145 -6.56362,-105.59221 -6.56362,-105.59221l12.70271,-1.52009c0,0 6.3741,108.51091 -6.13909,107.11231z" data-paper-data="{&quot;index&quot;:null}" fill="#60602a" stroke="#000000" stroke-width="2" stroke-linecap="butt"/><path d="M289.5041,328.85816l15.14285,-131.8421l37.78325,-0.15789l13.57389,132z" fill="#bebe54" stroke="#000000" stroke-width="2" stroke-linecap="butt"/><path d="M271.2193,226.67103c-11.89375,-1.78763 -1.08059,-97.767 -1.08059,-97.767l12.75117,-1.03798c0,0 0.78069,100.6764 -11.67059,98.80498z" data-paper-data="{&quot;index&quot;:null}" fill="#60602a" stroke="#000000" stroke-width="2" stroke-linecap="butt"/><path d="M379.52324,221.95313c-12.97658,-0.10562 -20.51483,-78.77064 -20.51483,-78.77064l12.47863,-2.82019c0,0 20.62691,81.69333 8.0362,81.59083z" data-paper-data="{&quot;index&quot;:null}" fill="#60602a" stroke="#000000" stroke-width="2" stroke-linecap="butt"/><path d="M302.45432,225.47079l3.12142,-26.32765l35.83075,-0.14203l2.76735,26.1059c0,0 -7.51543,4.19603 -21.55904,4.50964c-12.48458,0.27879 -20.16049,-4.14586 -20.16049,-4.14586z" fill="#a0a047" stroke="#000000" stroke-width="0" stroke-linecap="butt"/><path d="M383.03228,199.42051c-6.99895,-1.85032 2.59743,-14.65192 -1.43024,-27.01588c-3.45501,-10.606 2.87504,-15.38075 6.3306,-4.77492c3.22897,9.9104 3.00115,33.87976 -4.90036,31.79082z" data-paper-data="{&quot;index&quot;:null}" fill="#60602a" stroke="#000000" stroke-width="2" stroke-linecap="butt"/><path d="M259.66142,161.51587c-0.64218,-33.29566 27.59179,-60.84171 63.06231,-61.52583c35.47052,-0.68413 64.74566,25.75274 65.38785,59.0484c0.64218,33.29567 -27.59179,60.84171 -63.06231,61.52583c-35.47052,0.68413 -64.74566,-25.75274 -65.38784,-59.0484z" fill="#bebe54" stroke="#000000" stroke-width="2" stroke-linecap="butt"/><path d="M273.21741,161.68396c-0.25007,-12.96558 10.05791,-23.67901 23.0235,-23.92908c12.96559,-0.25007 23.679,10.05791 23.92907,23.02349c0.25007,12.96558 -10.05791,23.67901 -23.0235,23.92907c-12.96559,0.25007 -23.679,-10.05791 -23.92907,-23.02349z" fill="#ffffff" stroke="#000000" stroke-width="2" stroke-linecap="butt"/><path d="M277.9084,167.4963c-0.17603,-9.12638 7.07967,-16.66745 16.20604,-16.84348c9.12638,-0.17603 16.66745,7.07969 16.84348,16.20606c0.17603,9.12638 -7.07967,16.66745 -16.20604,16.84348c-9.12638,0.17603 -16.66745,-7.07969 -16.84348,-16.20606z" fill="#000000" stroke="none" stroke-width="0" stroke-linecap="butt"/><path d="M351.64477,183.65632c-12.96559,0.25007 -23.67901,-10.05791 -23.92908,-23.02349c-0.25007,-12.96558 10.05791,-23.679 23.0235,-23.92907c12.96559,-0.25007 23.679,10.05791 23.92907,23.02349c0.25007,12.96558 -10.0579,23.679 -23.02349,23.92907z" data-paper-data="{&quot;index&quot;:null}" fill="#ffffff" stroke="#000000" stroke-width="2" stroke-linecap="butt"/><path d="M350.94885,182.96574c-9.12637,0.17603 -16.66744,-7.07969 -16.84346,-16.20606c-0.17603,-9.12638 7.07968,-16.66746 16.20604,-16.84348c9.12637,-0.17603 16.66744,7.07968 16.84347,16.20605c0.17603,9.12638 -7.07968,16.66747 -16.20604,16.84349z" data-paper-data="{&quot;index&quot;:null}" fill="#000000" stroke="none" stroke-width="0" stroke-linecap="butt"/><path d="M273.13409,161.68556c-0.25007,-12.96558 10.05791,-23.67901 23.0235,-23.92908c12.96559,-0.25007 23.679,10.05791 23.92907,23.0235c0,0 -46.92882,2.1369 -46.95257,0.90558z" fill="#ecec68" stroke="#000000" stroke-width="2" stroke-linecap="butt"/><path d="M327.46575,160.63765c-0.25007,-12.96558 10.05791,-23.679 23.0235,-23.92907c12.96559,-0.25007 23.679,10.05791 23.92907,23.02349c0.02341,1.21357 -46.95257,0.90558 -46.95257,0.90558z" data-paper-data="{&quot;index&quot;:null}" fill="#ecec68" stroke="#000000" stroke-width="2" stroke-linecap="butt"/><path d="M285.29721,132.63714c0,0 6.60802,-5.29763 11.67231,-6.58987c5.06429,-1.29223 12.34532,0.4614 12.34532,0.4614c0,0 -8.03779,0.09474 -11.94878,1.09269c-4.08713,1.04289 -12.06886,5.03578 -12.06886,5.03578z" fill="#000000" stroke="none" stroke-width="0" stroke-linecap="butt"/><path d="M260.38538,161.55573c-0.01404,-0.72785 6.28402,55.80858 64.44658,55.70189c55.57189,-0.10195 62.38423,-59.16713 62.40387,-58.14846c0.6326,32.79869 -27.25104,59.93497 -62.27982,60.61058c-35.02878,0.6756 -63.93805,-25.36531 -64.57063,-58.164z" fill="#a0a047" stroke="#000000" stroke-width="0" stroke-linecap="butt"/><path d="M349.12721,126.60305c-3.94655,-0.84641 -11.98202,-0.63114 -11.98202,-0.63114c0,0 7.208,-2.03307 12.31835,-0.93708c5.11034,1.09599 11.91772,6.13487 11.91772,6.13487c0,0 -8.12975,-3.68214 -12.25406,-4.56666z" data-paper-data="{&quot;index&quot;:null}" fill="#000000" stroke="none" stroke-width="0" stroke-linecap="butt"/><path d="M256.28956,161.44633c8.78168,-6.87799 11.37459,0.61497 2.59328,7.49341c-10.23683,8.01856 -9.4075,23.99615 -16.24934,21.63014c-7.72415,-2.67112 5.45022,-22.69657 13.65607,-29.12355z" data-paper-data="{&quot;index&quot;:null}" fill="#60602a" stroke="#000000" stroke-width="2" stroke-linecap="butt"/><path d="M273.16038,161.38506l-3.64947,-2.53009" fill="none" stroke="#000000" stroke-width="2" stroke-linecap="round"/><path d="M267.58238,112.59156c16.93163,-17.33026 44.66116,-26.75691 50.05714,-17.58081c4.26454,7.25202 -20.60869,3.34347 -43.06474,28.91081c-19.12331,21.77285 -15.39934,52.70615 -28.48327,49.54103c-12.92078,-3.12565 10.06579,-49.17696 21.49087,-60.87103z" fill="#b1b14e" stroke="#000000" stroke-width="2" stroke-linecap="butt"/><path d="M269.39822,121.18657c14.71137,-19.25081 41.09724,-31.96195 47.56341,-23.50581c5.11033,6.68303 -20.05303,5.81142 -39.25205,33.90696c-16.34966,23.92585 -8.91186,54.18171 -22.28255,52.62223c-13.20396,-1.54003 4.0443,-50.03336 13.9712,-63.02338z" fill="#ecec68" stroke="#000000" stroke-width="2" stroke-linecap="butt"/><path d="M336.6143,94.68211c-0.11938,2.92268 -7.11576,4.85422 -15.62685,4.31418c-8.51108,-0.54003 -15.31391,-3.34712 -15.19453,-6.26981c0.11938,-2.92268 7.11575,-4.85422 15.62684,-4.31418c8.51108,0.54003 15.31391,3.34712 15.19454,6.26981z" fill="#ecec68" stroke="#000000" stroke-width="2" stroke-linecap="butt"/><path d="M398.77774,174.9074c-13.02299,3.4072 -9.87327,-27.58985 -29.39702,-49.00435c-22.92627,-25.14652 -47.72275,-20.77742 -43.59342,-28.10728c5.22491,-9.27457 33.12446,-0.36375 50.37454,16.64957c11.63995,11.48021 35.47652,57.09735 22.61592,60.46206z" data-paper-data="{&quot;index&quot;:null}" fill="#60602a" stroke="#000000" stroke-width="2" stroke-linecap="butt"/><path d="M378.07143,155.76096l-4.13365,3.48036" fill="none" stroke="#000000" stroke-width="2" stroke-linecap="round"/><path d="M308.51106,198.01529c0,0 6.5194,-2.54883 15.91662,-2.5c9.39722,0.04883 16.19298,2.25 16.19298,2.25" data-paper-data="{&quot;index&quot;:null}" fill="none" stroke="#000000" stroke-width="2" stroke-linecap="round"/><path d="M394.40067,185.03443c-13.35473,1.69072 -6.21443,-28.63674 -22.79828,-52.40086c-19.47401,-27.90564 -44.62759,-26.78694 -39.58315,-33.51984c6.38281,-8.51922 32.89225,3.93216 47.79196,23.03757c10.05399,12.8919 27.77766,61.21349 14.58947,62.88312z" data-paper-data="{&quot;index&quot;:null}" fill="#b1b14e" stroke="#000000" stroke-width="2" stroke-linecap="butt"/><path d="M273.60236,150.06554c6.73348,-8.89296 11.15435,-2.31088 4.42133,6.58243c-7.84903,10.36739 -2.96599,25.60311 -10.18523,25.06323c-8.15022,-0.60951 -0.52806,-23.33581 5.76391,-31.64565z" data-paper-data="{&quot;index&quot;:null}" fill="#b1b14e" stroke="#000000" stroke-width="2" stroke-linecap="butt"/><path d="M264.0527,148.66099c10.43743,-14.65213 19.96942,-26.5189 25.29096,-34.60242c6.66875,-10.12996 13.71275,-25.16077 20.85578,-22.06993c7.45926,3.22768 0.00978,20.64588 -6.8784,31.10915c-5.29912,8.04947 -20.921,22.11127 -31.31005,36.69708c-13.02034,18.28001 -3.83083,44.31931 -16.31253,43.75054c-14.09131,-0.64213 -2.08319,-40.23228 8.35427,-54.88441z" fill="#ecec68" stroke="#000000" stroke-width="2" stroke-linecap="butt"/><g stroke="#000000" stroke-width="2" stroke-linecap="butt"><path d="M265.00174,170.75666c-0.04188,-2.17178 1.35133,-2.78341 3.08388,-2.81683c1.73254,-0.03342 3.14832,0.52404 3.1902,2.69582c0.04188,2.17178 -1.30597,5.13547 -3.03852,5.16889c-1.73254,0.03342 -3.19369,-2.8761 -3.23557,-5.04788z" fill="#ecec68"/><path d="M271.56322,185.53589c0.04188,2.17178 -1.35134,2.78341 -3.08387,2.81683c-1.73254,0.03342 -3.14833,-0.52404 -3.19021,-2.69581c-0.04188,-2.17178 1.30598,-5.13547 3.03853,-5.16889c1.73254,-0.03342 3.19368,2.8761 3.23556,5.04788z" fill="#ecec68"/><path d="M260.89287,181.42702c-2.17177,0.04188 -2.7834,-1.35134 -2.81682,-3.08388c-0.03342,-1.73255 0.52403,-3.14831 2.6958,-3.1902c2.17177,-0.04188 5.13547,1.30597 5.16889,3.03853c0.03342,1.73255 -2.8761,3.19368 -5.04788,3.23556z" fill="#ecec68"/><path d="M275.67209,174.86555c2.17177,-0.04188 2.78339,1.35134 2.81681,3.08388c0.03342,1.73255 -0.52403,3.14832 -2.69581,3.19021c-2.17177,0.04188 -5.13546,-1.30597 -5.16888,-3.03852c-0.03342,-1.73255 2.87611,-3.19369 5.04788,-3.23557z" fill="#ff80ee"/><path d="M260.73741,175.24087c-1.56531,-1.50606 -1.01262,-2.92372 0.18884,-4.17243c1.20147,-1.24872 2.59675,-1.85565 4.16204,-0.34959c1.56531,1.50606 2.70787,4.55479 1.50638,5.80351c-1.20147,1.24872 -4.29196,0.22457 -5.85727,-1.28148z" fill="#ecec68"/><path d="M275.82756,181.0517c1.56531,1.50606 1.01263,2.92372 -0.18884,4.17243c-1.20147,1.24872 -2.59675,1.85565 -4.16204,0.34959c-1.56531,-1.50606 -2.70787,-4.5548 -1.50639,-5.80352c1.20147,-1.24872 4.29197,-0.22456 5.85727,1.28149z" fill="#ff80ee"/><path d="M265.37707,185.69135c-1.50606,1.5653 -2.92372,1.01264 -4.17243,-0.18883c-1.24872,-1.20146 -1.85565,-2.59676 -0.34959,-4.16205c1.50606,-1.5653 4.55479,-2.70788 5.80351,-1.50639c1.24872,1.20146 0.22457,4.29198 -1.28148,5.85728z" fill="#ecec68"/><path d="M271.1879,170.60122c1.50606,-1.5653 2.92371,-1.01263 4.17242,0.18884c1.24872,1.20146 1.85565,2.59676 0.34959,4.16205c-1.50606,1.5653 -4.55479,2.70787 -5.80351,1.50639c-1.24872,-1.20146 -0.22456,-4.29198 1.28149,-5.85728z" fill="#ecec68"/><path d="M264.1275,178.13803c-0.04424,-2.2938 1.77937,-4.18915 4.07316,-4.23338c2.2938,-0.04424 4.18914,1.77938 4.23338,4.07316c0.04424,2.2938 -1.77938,4.18914 -4.07316,4.23338c-2.2938,0.04424 -4.18914,-1.77936 -4.23338,-4.07315z" fill="#b1b14e"/></g><path d="M342.02948,110.46999c0,0 21.1981,-11.5772 21.60913,-21.73367c0.23491,-5.80469 -8.60168,-15.22581 -9.34908,-25.45959c-0.98508,-13.4882 12.58428,-23.99166 12.58428,-23.99166c0,0 -3.15402,10.35036 -2.53852,22.87576c0.49051,9.98175 8.41039,13.43213 10.79659,26.4734c2.33695,12.77207 -10.53225,33.42107 -10.53225,33.42107c0,0 -3.92456,4.03301 -14.17537,-1.26186c-9.32185,-4.81504 -8.39481,-10.32342 -8.39481,-10.32342z" fill="#60602a" stroke="#000000" stroke-width="2" stroke-linecap="butt"/><path d="M276.50487,160.04923c6.8696,-16.62628 19.14239,-31.07073 22.50679,-40.14503c4.21614,-11.37157 7.69418,-27.60259 15.3498,-26.19979c7.99452,1.46491 4.65906,20.1133 0.3042,31.85904c-3.35023,9.03607 -18.40074,22.54026 -25.23814,39.09103c-8.56913,20.74266 0.59036,44.7794 -13.40245,42.99638c-10.99804,-1.40141 -6.3898,-30.97535 0.47981,-47.60164z" fill="#b1b14e" stroke="#000000" stroke-width="2" stroke-linecap="butt"/><path d="M327.75627,139.08013c-7.09825,-1.42259 1.70434,-14.78246 -3.06552,-26.87949c-4.09167,-10.37703 1.93727,-15.52676 6.02947,-5.14994c3.82387,9.6964 5.04967,33.63548 -2.96394,32.02943z" data-paper-data="{&quot;index&quot;:null}" fill="#b1b14e" stroke="#000000" stroke-width="2" stroke-linecap="butt"/><path d="M390.49855,156.74387c-12.35513,6.79593 -9.7513,-12.71128 -22.553,-22.92665c-10.2146,-8.15094 -27.20152,-10.99608 -32.42865,-15.59994c-6.79462,-5.98443 -16.73967,-18.277 -9.7878,-22.45354c6.65718,-3.99948 16.15282,6.64406 22.73101,12.43787c5.24925,4.62334 19.92412,9.20358 30.18626,17.39133c10.26214,8.18773 21.56304,25.80951 11.85217,31.15095z" data-paper-data="{&quot;index&quot;:null}" fill="#ecec68" stroke="#000000" stroke-width="2" stroke-linecap="butt"/><path d="M291.39402,143.46044c5.35227,-11.98764 16.28148,-22.79888 18.81927,-29.31727c3.1803,-8.16861 5.19007,-19.66815 12.94058,-19.17492c8.09361,0.51506 6.44246,13.68573 3.15751,22.12311c-2.52711,6.49093 -16.30712,16.82348 -21.63408,28.75661c-6.67613,14.95549 4.60019,31.08483 -9.49609,30.72611c-11.07936,-0.28194 -9.13947,-21.12599 -3.7872,-33.11362z" fill="#ecec68" stroke="#000000" stroke-width="2" stroke-linecap="butt"/><g data-paper-data="{&quot;index&quot;:null}" stroke="#1d1d0d" stroke-width="1.5" stroke-linecap="butt"><path d="M253.20342,71.66347l-6.51819,-17.93185l31.02258,-11.22601l6.5182,17.93187z" fill="#d0d05b"/><path d="M281.43266,113.36909l-11.12787,-29.71753l-15.13046,-13.6109l26.44934,-9.14397l-4.02666,20.23503l11.32725,30.52473z" fill="url(#color-1)"/><path d="M239.99137,58.24823l18.77351,-23.79019l30.02486,5.44849z" fill="#bfbf54"/><path d="M280.62184,61.91341l-23.7773,8.33329c0,0 2.2165,-10.59546 8.78244,-12.89664c6.56593,-2.30119 14.99486,4.56337 14.99486,4.56337z" fill="#ffff70"/></g><path d="M246.01561,153.74378c-1.22533,-36.34026 31.97603,-66.87506 74.15728,-68.20141c42.18125,-1.32635 77.36927,27.05807 78.59459,63.39832c0.07073,2.09763 0.02674,4.17591 -0.12705,6.23036c-6.16354,-0.13339 -12.34398,-0.39906 -18.41669,-0.2653c-42.63517,0.9391 -85.27302,1.79047 -127.91412,2.39803c-1.05204,0.015 -2.07366,-0.74322 -3.10089,-0.53128c-0.50084,0.10334 -1.5861,0.71875 -2.85824,1.53073c-0.17083,-1.50455 -0.28313,-3.02492 -0.33488,-4.55948z" fill="#bebe54" stroke="#000000" stroke-width="2" stroke-linecap="butt"/><path d="M246.3145,135.5641l7.6707,-17.15111l136.49389,-1.63239l7.30725,15.86205z" fill="#b9b952" stroke="#000000" stroke-width="2" stroke-linecap="butt"/><path d="M301.76849,149.49734l-0.83884,-43.49191l41.31732,-0.79691l0.83883,43.49192z" fill="#d7d75f" stroke="#000000" stroke-width="2" stroke-linecap="butt"/></g></g></svg>