<svg version="1.1" xmlns="http://www.w3.org/2000/svg" xmlns:xlink="http://www.w3.org/1999/xlink" width="180.27166" height="254.67432" viewBox="0,0,180.27166,254.67432"><g transform="translate(-217.54751,-45.71656)"><g data-paper-data="{&quot;isPaintingLayer&quot;:true}" fill-rule="nonzero" stroke-linejoin="miter" stroke-miterlimit="10" stroke-dasharray="" stroke-dashoffset="0" style="mix-blend-mode: normal"><path d="M334.12943,82.72747c9.81897,-7.33578 61.87042,-17.11265 61.87042,-17.11265c0,0 -24.13546,47.14255 -33.95443,54.47832c-9.81897,7.33578 -24.02804,4.91801 -31.73682,-5.40023c-7.70879,-10.31824 -5.99815,-24.62965 3.82083,-31.96544z" data-paper-data="{&quot;index&quot;:null}" fill="#9b9b44" stroke="#000000" stroke-width="2" stroke-linecap="butt"/><path d="M271.01408,110.85429c-9.95559,8.17177 -24.33018,7.11622 -32.10654,-2.35764c-7.77637,-9.47386 -19.91919,-61.02473 -19.91919,-61.02473c0,0 48.19518,21.95826 55.97155,31.43212c7.77637,9.47386 6.00976,23.77848 -3.94583,31.95025z" data-paper-data="{&quot;index&quot;:null}" fill="#9b9b44" stroke="#000000" stroke-width="2" stroke-linecap="butt"/><path d="M288.47095,299.39086l-11.09135,-129.54919l36.77929,0.06869l38.29258,129.48053z" fill="#9b9b44" stroke="#000000" stroke-width="2" stroke-linecap="butt"/><path d="M279.16425,192.59849l-0.45466,-14.42196l37.98395,-5.98677l2.16529,14.43888c0,0 -6.50507,5.68799 -19.83718,7.91102c-11.85206,1.97624 -19.85741,-1.94116 -19.85741,-1.94116z" fill="#6e6e30" stroke="#000000" stroke-width="0" stroke-linecap="butt"/><path d="M237.03642,118.20598c2.74417,-33.18859 33.63086,-57.72336 68.98732,-54.79993c35.35648,2.92342 61.79396,32.198 59.04979,65.38659c-2.74417,33.18859 -33.63085,57.72337 -68.98732,54.79994c-35.35647,-2.92342 -61.79396,-32.19801 -59.04979,-65.3866z" fill="#9b9b44" stroke="#000000" stroke-width="2" stroke-linecap="butt"/><path d="M250.4915,120.84934c1.0686,-12.92391 12.41178,-22.53452 25.33568,-21.46592c12.92391,1.0686 22.53452,12.41177 21.46592,25.33567c-1.0686,12.92391 -12.41177,22.53453 -25.33567,21.46593c-12.92391,-1.0686 -22.53453,-12.41178 -21.46593,-25.33568z" fill="#000000" stroke="#000000" stroke-width="2" stroke-linecap="butt"/><path d="M250.5945,119.60359c1.0686,-12.92391 12.41178,-22.53452 25.33568,-21.46592c12.92391,1.0686 22.53452,12.41177 21.46592,25.33567c-1.0686,12.92391 -12.41177,22.53453 -25.33567,21.46593c-12.92391,-1.0686 -22.53453,-12.41178 -21.46593,-25.33568z" fill="#000000" stroke="#000000" stroke-width="2" stroke-linecap="butt"/><path d="M286.38252,161.57229l25.0242,2.06911" fill="none" stroke="#000000" stroke-width="2" stroke-linecap="round"/><path d="M326.03134,150.65609c-12.92391,-1.0686 -22.53452,-12.41178 -21.46592,-25.33568c1.0686,-12.92391 12.41177,-22.53452 25.33567,-21.46592c12.92391,1.0686 22.53453,12.41177 21.46593,25.33567c-1.0686,12.92391 -12.41178,22.53453 -25.33568,21.46593z" data-paper-data="{&quot;index&quot;:null}" fill="#000000" stroke="#000000" stroke-width="2" stroke-linecap="butt"/><path d="M326.13434,149.41034c-12.92391,-1.0686 -22.53452,-12.41178 -21.46592,-25.33568c1.0686,-12.92391 12.41177,-22.53452 25.33567,-21.46592c12.92391,1.0686 22.53453,12.41177 21.46593,25.33567c-1.0686,12.92391 -12.41178,22.53453 -25.33568,21.46593z" data-paper-data="{&quot;index&quot;:null}" fill="#000000" stroke="#000000" stroke-width="2" stroke-linecap="butt"/><path d="M237.84197,118.17225c0.05999,-0.72551 0.58102,56.15826 58.45342,61.96176c55.29465,5.54501 68.07309,-52.52233 67.98914,-51.50695c-2.70322,32.69322 -33.19974,56.85593 -68.11588,53.96892c-34.91614,-2.88702 -61.02989,-31.7305 -58.32667,-64.42373z" fill="#6e6e30" stroke="#000000" stroke-width="0" stroke-linecap="butt"/><path d="M265.56313,91.93449c0,0 7.11209,-4.5988 12.28146,-5.36978c5.16938,-0.77098 12.23455,1.71336 12.23455,1.71336c0,0 -8.00582,-0.72244 -11.99796,-0.12703c-4.17194,0.62223 -12.51806,3.78345 -12.51806,3.78345z" fill="#000000" stroke="none" stroke-width="0" stroke-linecap="butt"/><path d="M329.67594,92.41713c-3.84013,-1.24302 -11.85588,-1.84531 -11.85588,-1.84531c0,0 7.37726,-1.29018 12.34981,0.31938c4.97254,1.60956 11.23271,7.31403 11.23271,7.31403c0,0 -7.71356,-4.48911 -11.72664,-5.78811z" data-paper-data="{&quot;index&quot;:null}" fill="#000000" stroke="none" stroke-width="0" stroke-linecap="butt"/><path d="M252.7498,144.49106c0.03413,-0.4128 0.39645,-0.71978 0.80925,-0.68565c0.4128,0.03413 0.71978,0.39645 0.68565,0.80925c-0.03413,0.4128 -0.39645,0.71978 -0.80925,0.68565c-0.4128,-0.03413 -0.71978,-0.39645 -0.68565,-0.80925z" fill="#000000" stroke="none" stroke-width="0.5" stroke-linecap="butt"/><path d="M263.1505,149.76605c0.03413,-0.4128 0.39645,-0.71978 0.80925,-0.68565c0.4128,0.03413 0.71978,0.39645 0.68565,0.80925c-0.03413,0.4128 -0.39645,0.71978 -0.80925,0.68565c-0.4128,-0.03413 -0.71978,-0.39645 -0.68565,-0.80925z" fill="#000000" stroke="none" stroke-width="0.5" stroke-linecap="butt"/><path d="M256.57605,154.03882c0.03413,-0.4128 0.39645,-0.71978 0.80925,-0.68565c0.4128,0.03413 0.71978,0.39645 0.68565,0.80925c-0.03413,0.4128 -0.39645,0.71978 -0.80925,0.68565c-0.4128,-0.03413 -0.71978,-0.39645 -0.68565,-0.80925z" fill="#000000" stroke="none" stroke-width="0.5" stroke-linecap="butt"/><path d="M344.4471,152.82554c-0.41281,-0.03413 -0.71978,-0.39644 -0.68565,-0.80925c0.03413,-0.41281 0.39644,-0.71978 0.80925,-0.68565c0.41281,0.03413 0.71978,0.39644 0.68565,0.80925c-0.03413,0.41281 -0.39644,0.71978 -0.80925,0.68565z" data-paper-data="{&quot;index&quot;:null}" fill="#000000" stroke="none" stroke-width="0.5" stroke-linecap="butt"/><path d="M333.32125,156.32062c-0.41281,-0.03413 -0.71978,-0.39644 -0.68565,-0.80925c0.03413,-0.41281 0.39644,-0.71978 0.80925,-0.68565c0.41281,0.03413 0.71978,0.39644 0.68565,0.80925c-0.03413,0.41281 -0.39644,0.71978 -0.80925,0.68565z" data-paper-data="{&quot;index&quot;:null}" fill="#000000" stroke="none" stroke-width="0.5" stroke-linecap="butt"/><path d="M339.10462,161.6152c-0.41281,-0.03413 -0.71978,-0.39644 -0.68565,-0.80925c0.03413,-0.41281 0.39644,-0.71978 0.80925,-0.68565c0.41281,0.03413 0.71978,0.39644 0.68565,0.80925c-0.03413,0.41281 -0.39644,0.71978 -0.80925,0.68565z" data-paper-data="{&quot;index&quot;:null}" fill="#000000" stroke="none" stroke-width="0.5" stroke-linecap="butt"/></g></g></svg>