<svg version="1.1" xmlns="http://www.w3.org/2000/svg" xmlns:xlink="http://www.w3.org/1999/xlink" width="187.75881" height="312.64334" viewBox="0,0,187.75881,312.64334"><defs><linearGradient x1="351.86495" y1="-1.91524" x2="342.56637" y2="32.3576" gradientUnits="userSpaceOnUse" id="color-1"><stop offset="0" stop-color="#c4c456"/><stop offset="1" stop-color="#e3e364"/></linearGradient></defs><g transform="translate(-236.6186,6.12898)"><g data-paper-data="{&quot;isPaintingLayer&quot;:true}" fill-rule="nonzero" stroke-linejoin="miter" stroke-miterlimit="10" stroke-dasharray="" stroke-dashoffset="0" style="mix-blend-mode: normal"><path d="M286.4263,305.51436l15.14285,-131.8421l37.78325,-0.15789l13.57389,132z" fill="#c6c657" stroke="#000000" stroke-width="2" stroke-linecap="butt"/><path d="M299.0384,202.12699l3.12142,-26.32765l35.83075,-0.14203l2.76735,26.1059c0,0 -7.51543,4.19603 -21.55904,4.50964c-12.48458,0.27879 -20.16049,-4.14586 -20.16049,-4.14586z" fill="#9e9e45" stroke="#000000" stroke-width="0" stroke-linecap="butt"/><path d="M260.555,131.16115c2.7927,-33.18454 33.71523,-57.67412 69.06738,-54.699c35.35215,2.97512 61.74681,32.28833 58.95411,65.47287c-2.7927,33.18454 -33.71523,57.67412 -69.06738,54.699c-35.35215,-2.97512 -61.74681,-32.28833 -58.95411,-65.47287z" fill="#c6c657" stroke="#000000" stroke-width="2" stroke-linecap="butt"/><path d="M261.271,131.27544c0.06105,-0.72543 0.4989,56.15905 58.36275,62.04717c55.28648,5.62586 68.14982,-52.42273 68.06438,-51.40747c-2.75102,32.68924 -33.28285,56.80732 -68.19473,53.86925c-34.91188,-2.93807 -60.98342,-31.81971 -58.2324,-64.50895z" fill="#9e9e45" stroke="#000000" stroke-width="0" stroke-linecap="butt"/><path d="M274.02148,132.72543c1.0875,-12.92232 12.44471,-22.51635 25.36703,-21.42885c12.92232,1.0875 22.51635,12.44471 21.42885,25.36703c-1.0875,12.92232 -12.44471,22.51635 -25.36703,21.42885c-12.92232,-1.0875 -22.51635,-12.44471 -21.42885,-25.36703z" fill="#ffffff" stroke="#000000" stroke-width="2" stroke-linecap="butt"/><path d="M287.51041,134.09611c0.76548,-9.09593 8.75972,-15.84908 17.85564,-15.08359c9.09593,0.76548 15.84907,8.75973 15.08359,17.85565c-0.76548,9.09593 -8.75973,15.84907 -17.85565,15.08359c-9.09593,-0.76548 -15.84906,-8.75973 -15.08358,-17.85565z" fill="#000000" stroke="none" stroke-width="0" stroke-linecap="butt"/><path d="M308.42845,172.13129l24.59055,5.079" fill="none" stroke="#000000" stroke-width="2" stroke-linecap="round"/><path d="M349.51762,162.64259c-12.92232,-1.0875 -22.51635,-12.44471 -21.42885,-25.36703c1.0875,-12.92232 12.44471,-22.51635 25.36703,-21.42885c12.92232,1.0875 22.51635,12.44471 21.42885,25.36703c-1.0875,12.92232 -12.44471,22.51635 -25.36703,21.42885z" data-paper-data="{&quot;index&quot;:null}" fill="#ffffff" stroke="#000000" stroke-width="2" stroke-linecap="butt"/><path d="M355.77276,157.86228c-9.09592,-0.76548 -15.84906,-8.75973 -15.08358,-17.85565c0.76548,-9.09593 8.75973,-15.84907 17.85564,-15.08359c9.09592,0.76548 15.84906,8.75973 15.08358,17.85565c-0.76548,9.09593 -8.75973,15.84907 -17.85564,15.08359z" data-paper-data="{&quot;index&quot;:null}" fill="#000000" stroke="none" stroke-width="0" stroke-linecap="butt"/><path d="M289.28212,102.08881c0,0 7.11881,-4.5884 12.2893,-5.35182c5.1705,-0.76342 12.23203,1.73125 12.23203,1.73125c0,0 -8.00475,-0.73415 -11.99776,-0.14457c-4.17285,0.61612 -12.52358,3.76514 -12.52358,3.76514z" fill="#000000" stroke="none" stroke-width="0" stroke-linecap="butt"/><path d="M353.3941,102.66519c-3.83831,-1.24863 -11.85317,-1.86264 -11.85317,-1.86264c0,0 7.37914,-1.27939 12.34933,0.33744c4.97018,1.61683 11.22201,7.33045 11.22201,7.33045c0,0 -7.70698,-4.50038 -11.71817,-5.80525z" data-paper-data="{&quot;index&quot;:null}" fill="#000000" stroke="none" stroke-width="0" stroke-linecap="butt"/><path d="M273.93066,132.81055c1.0875,-12.92233 12.44471,-22.51635 25.36704,-21.42884c12.92233,1.0875 22.51635,12.4447 21.42885,25.36703c0,0 -5.70576,-15.17829 -22.11034,-16.7018c-16.15602,-1.50042 -24.73725,13.37805 -24.68554,12.76361z" fill="#c6c657" stroke="#000000" stroke-width="2" stroke-linecap="butt"/><path d="M328.08942,137.26802c1.0875,-12.92233 12.4447,-22.51635 25.36703,-21.42885c12.92233,1.0875 22.51636,12.4447 21.42886,25.36703c-0.05082,0.60393 -6.63874,-14.99392 -21.60467,-16.65143c-14.96593,-1.65751 -25.19122,12.71324 -25.19122,12.71324z" data-paper-data="{&quot;index&quot;:null}" fill="#c6c657" stroke="#000000" stroke-width="2" stroke-linecap="butt"/><path d="M263.93644,115.34389c9.99955,-24.08131 35.97299,-40.05384 64.91538,-37.61815c29.36699,2.47143 52.55279,23.11774 57.96093,49.06024c0.39273,1.8839 0.12545,22.16094 -65.22669,16.40772c-60.99358,-5.36952 -57.64963,-27.84981 -57.64963,-27.84981z" fill-opacity="0.20156" fill="#000000" stroke="#000000" stroke-width="0" stroke-linecap="butt"/><path d="M423.37741,110.13863c-1.82129,10.14716 -44.86791,10.91172 -96.14731,1.70769c-51.2794,-9.20403 -91.37312,-24.89126 -89.55183,-35.03842c1.82129,-10.14716 45.75123,-15.83307 97.03063,-6.62905c51.2794,9.20403 90.4898,29.81262 88.66851,39.95977z" fill="#c6c657" stroke="#000000" stroke-width="2" stroke-linecap="butt"/><path d="M338.98937,72.45524c7.07049,1.42147 13.60132,3.12038 19.08213,4.89136c0.64406,0.2081 -17.7731,6.93447 -17.7731,6.93447l-5.98765,-1.05231z" data-paper-data="{&quot;index&quot;:null}" fill="#ffffff" stroke="#000000" stroke-width="0" stroke-linecap="butt"/><path d="M326.86928,111.3203c-17.20777,-2.95804 -33.12845,-6.62429 -46.51294,-10.53653c-1.57284,-0.45974 42.53891,-17.9932 42.53891,-17.9932l14.56208,2.13849z" fill="#ffffff" stroke="#000000" stroke-width="0" stroke-linecap="butt"/><path d="M332.54304,84.77068c-4.21411,-0.5249 -6.37064,-2.40015 -6.37064,-2.40015l9.59788,-39.21722c0,0 0.62241,-5.58722 -2.49351,-4.60313c-2.82455,0.89207 -9.27764,3.28286 -9.27764,3.28286c0,0 4.44753,-6.71177 8.81291,-8.51861c3.32155,-1.3748 7.31293,3.50093 7.31293,3.50093c0,0 5.83955,-3.80482 9.46862,-1.04779c4.52616,3.43857 7.24374,11.28084 7.24374,11.28084c0,0 -6.92116,-5.52242 -9.88113,-7.21925c-3.68651,-2.11334 -4.02666,4.71357 -4.02666,4.71357l-3.68314,39.98029c0,0 -3.06061,0.70138 -6.70335,0.24765z" data-paper-data="{&quot;index&quot;:null}" fill="#c6c657" stroke="#000000" stroke-width="2" stroke-linecap="butt"/><path d="M340.72166,31.85711c-1.61012,-0.43684 -4.17488,-1.13269 -4.17488,-1.13269l15.22108,-32.66601l-3.18189,35.93237c0,0 -5.65444,-1.53411 -7.86431,-2.13367z" data-paper-data="{&quot;index&quot;:null}" fill="url(#color-1)" stroke="#89893c" stroke-width="1.5" stroke-linecap="butt"/><g data-paper-data="{&quot;index&quot;:null}" stroke="#89893c" stroke-width="1.4"><path d="M326.3749,31.71723l1.7122,-6.31087l31.16597,8.45564l-1.7122,6.31087z" fill="#c4c456" stroke-linecap="butt"/><g><path d="M317.73265,39.9153c0,0 -0.71612,-2.50984 0.02253,-5.84605c0.66953,-3.02393 2.95783,-5.13902 2.95783,-5.13902l41.65171,11.30054c0,0 0.52141,2.23937 -0.07146,6.02635c-0.35389,2.26045 -2.9089,4.95871 -2.9089,4.95871z" fill="#c4c456" stroke-linecap="butt"/><path d="M356.32161,38.90392c0,0 0.04574,3.67338 -0.39886,5.31211c-0.4753,1.75187 -2.36701,4.88237 -2.36701,4.88237" fill="none" stroke-linecap="round"/><path d="M323.34261,40.58857c0,0 -0.07222,-2.91637 0.31351,-4.39773c0.43619,-1.67515 2.17087,-5.14345 2.17087,-5.14345" fill="none" stroke-linecap="round"/><path d="M345.89833,36.59717c0,0 -0.26534,3.90293 -0.72681,5.53632c-0.40695,1.44037 -1.89907,3.758 -1.89907,3.758" fill="none" stroke-linecap="round"/><path d="M333.05163,43.22273c0,0 -0.03003,-2.96297 0.3823,-4.48271c0.42988,-1.58445 2.14649,-4.83796 2.14649,-4.83796" fill="none" stroke-linecap="round"/></g></g><path d="M292.96645,258.74685l1.99382,-15.51624h50.12658l2.27865,16.0859z" fill="#d3d35d" stroke="none" stroke-width="0" stroke-linecap="butt"/><text transform="translate(296.57704,254.07913) scale(0.28152,0.28152)" font-size="40" xml:space="preserve" fill="#85853a" fill-rule="nonzero" stroke="none" stroke-width="1" stroke-linecap="butt" stroke-linejoin="miter" stroke-miterlimit="10" stroke-dasharray="" stroke-dashoffset="0" font-family="Sans Serif" font-weight="normal" text-anchor="start" style="mix-blend-mode: normal"><tspan x="0" dy="0">Mustard</tspan></text></g></g></svg>