<svg version="1.1" xmlns="http://www.w3.org/2000/svg" xmlns:xlink="http://www.w3.org/1999/xlink" width="140.60275" height="277.49413" viewBox="0,0,140.60275,277.49413"><g transform="translate(-259.68078,-32.15402)"><g data-paper-data="{&quot;isPaintingLayer&quot;:true}" fill-rule="nonzero" stroke-linecap="butt" stroke-linejoin="miter" stroke-miterlimit="10" stroke-dasharray="" stroke-dashoffset="0" style="mix-blend-mode: normal"><path d="M282.56373,308.53989c0,0 -0.63536,-94.38387 -0.79335,-118.01201c-0.05451,-8.15261 8.18688,-36.76129 40.20201,-36.9211c31.60235,-0.15775 39.85672,29.48704 39.84884,36.89673c-0.07659,46.24274 0.65429,117.98648 0.65429,117.98648l-10.49667,0.09614l-0.15882,-114.84311c0,0 0.07549,-3.0993 -2.81625,-3.15415c-3.43441,-0.06514 -2.94538,3.11562 -2.94538,3.11562l0.20548,114.86995l-48.21366,0.07222l-0.30539,-115.23309c0,0 0.27949,-2.919 -2.8856,-2.93443c-3.11083,-0.01515 -2.81569,2.90899 -2.81569,2.90899l0.35311,115.0668z" fill="#999999" stroke="#000000" stroke-width="2"/><path d="M321.66272,265.26944c-0.81895,0 -1.48284,-0.66389 -1.48284,-1.48284c0,-0.81895 0.66389,-1.48284 1.48284,-1.48284c0.81895,0 1.48284,0.66389 1.48284,1.48284c0,0.81895 -0.66389,1.48284 -1.48284,1.48284z" data-paper-data="{&quot;index&quot;:null}" fill="#000000" stroke="none" stroke-width="1.5"/><path d="M297.59946,308.55433v-119.20147c0,0 0.75721,-9.73105 0.75721,-14.63937c0,-4.498 -0.75721,-13.6872 -0.75721,-13.6872c0,0 2.67319,-2.35297 4.6557,-3.74807c1.98251,-1.3951 5.17197,-2.80371 5.17197,-2.80371c0,0 -0.6016,40.10902 14.55952,40.03867c15.43477,-0.07162 13.83154,-40.03867 13.83154,-40.03867c0,0 3.91276,1.51959 6.16585,2.94655c2.25309,1.42695 4.75379,3.60523 4.75379,3.60523c0,0 -0.75721,9.42463 -0.75721,14.19201c0,4.84193 0.75721,14.63937 0.75721,14.63937v118.69667z" fill="#0f0e02" stroke="#000000" stroke-width="2"/><path d="M329.18869,162.50066c0.77625,-1.52662 1.18438,-3.35575 1.46817,-5.13248c0.22393,-0.00284 0.39077,-0.05947 0.39077,-0.05947l0.19829,-0.19637c4.55901,0.66754 7.11826,2.80758 10.8143,5.09276c-1.69142,0.38798 -3.3602,0.9109 -5.04759,1.1652c-2.31748,0.34925 -5.27747,-0.98088 -7.71734,-0.85388c-0.03549,-0.00511 -0.0711,-0.01062 -0.10661,-0.01576z" data-paper-data="{&quot;noHover&quot;:false,&quot;origItem&quot;:[&quot;Path&quot;,{&quot;applyMatrix&quot;:true,&quot;segments&quot;:[[[243.06965,148.48691],[-0.03081,0.00007],[2.0588,-0.41176]],[[249.66667,148.22981],[-1.92705,0.5855],[1.40311,-0.42631]],[[253.7895,146.64835],[-1.3899,0.54048],[-3.42721,-1.4829]],[[244.05361,143.69377],[3.9596,0],[0,0]],[243.91054,143.88335],[[243.58661,143.98057],[0.19006,-0.03029],[-0.02011,1.54608]],[[242.97718,148.48708],[0.46997,-1.39472],[0.03084,-0.00005]]],&quot;closed&quot;:true}]}" fill="#999999" stroke="none" stroke-width="0.5"/><path d="M304.52202,154.71932c0.59877,-0.23377 1.35441,-0.37311 2.22012,-0.56008c4.55917,-0.98468 7.50949,1.22785 11.93374,1.81325c1.80938,0.23942 3.05748,-0.44756 4.79135,-0.32009c-0.08686,0.51496 -0.16842,1.04066 -0.24434,1.5592c-0.17802,1.21582 -0.65801,2.85959 -0.37848,4.17345c-2.89067,-0.6094 -5.807,-1.35596 -8.54841,-2.40042c-3.19248,-1.21631 -6.46379,-3.51843 -9.77398,-4.26531z" data-paper-data="{&quot;noHover&quot;:false,&quot;origItem&quot;:[&quot;Path&quot;,{&quot;applyMatrix&quot;:true,&quot;segments&quot;:[[[229.81105,147.32584],[-2.86597,-0.63674],[2.46103,0.54678]],[[237.35022,148.33418],[-2.53379,-0.15827],[-0.40126,-1.08236]],[[237.15078,144.75977],[0,1.05597],[0,-0.45036]],[[237.16616,143.41141],[-0.00974,0.44868],[-1.49016,0.10748]],[[233.13337,144.28406],[1.56831,-0.0217],[-3.83479,0.05306]],[[222.8552,144.22195],[3.75403,-1.40489],[-0.71284,0.26676]],[[221.03849,144.9675],[0.48003,-0.27332],[2.90762,0.22295]]],&quot;closed&quot;:true}]}" fill="#999999" stroke="none" stroke-width="0.5"/><path d="M339.2339,171.75133c-5.07648,2.64292 -11.03484,3.47601 -17.06162,2.59355c-2.8324,-0.39427 -4.09434,-1.8865 -6.22118,-3.55597c-1.89702,-1.48907 -4.58874,-2.54689 -6.04429,-4.54431c-2.07446,-2.84673 -4.1532,-6.63804 -6.90106,-8.86125c-0.00454,-0.24803 0.00538,-0.47499 0.02781,-0.68051c0.24088,0.14213 0.47364,0.1761 0.47364,0.1761c3.28366,0.41994 6.72309,2.98652 9.88941,4.19319c4.27382,1.62873 8.96411,2.59683 13.44452,3.3312c0.27098,0.07267 0.53014,0.12191 0.75313,0.12676c0.56752,0.09 1.13927,0.18728 1.70125,0.27087c2.66113,-0.13851 5.50566,1.12715 8.09713,0.81044c2.59985,-0.31772 4.96586,-1.32789 7.70221,-1.6013l0.12497,-0.02957c1.3735,0.86772 2.44842,1.86444 0.96173,2.35352c-0.60087,0.66687 -1.22654,1.29721 -1.8748,1.88118c-0.47782,0.2491 -0.96674,0.4966 -1.46821,0.73854c-0.48054,-0.06809 -0.89293,0.2399 -0.89293,0.2399l-1.25787,0.9469c-0.48507,0.53385 -0.97051,1.07533 -1.45383,1.61074z" data-paper-data="{&quot;noHover&quot;:false,&quot;origItem&quot;:[&quot;Path&quot;,{&quot;applyMatrix&quot;:true,&quot;segments&quot;:[[[253.61024,153.57032],[-0.34599,0.51432],[0,0]],[254.5619,152.61178],[[255.29132,152.29752],[-0.41708,0.00193],[0.39627,-0.26816]],[[256.44793,151.4889],[-0.37527,0.27129],[0.4785,-0.57725]],[[257.80846,149.66036],[-0.42789,0.64184],[1.20324,-0.60095]],[[256.69903,147.78435],[1.27591,0.56681],[0,0]],[[256.69211,147.79591],[0,0],[-2.29265,0.57316]],[[250.24624,150.14399],[2.17108,-0.59385],[-2.16407,0.59194]],[[243.26673,150.47717],[2.24549,-0.44909],[-0.48826,-0.00111]],[[241.79335,150.46712],[0.49376,0.00587],[-0.1902,0.02364]],[[241.14262,150.45773],[0.23946,0.02805],[-3.90109,-0.06661]],[[229.37227,149.27711],[3.83678,0.85279],[-2.84253,-0.6318]],[[220.44226,146.94034],[2.84436,-0.05176],[0,0]],[[220.01764,146.84947],[0.22251,0.09087],[0.00652,0.17755]],[[220.07911,147.43028],[-0.03474,-0.21033],[2.61328,1.54826]],[[227.05221,154.08748],[-2.11832,-2.16228],[1.48632,1.51717]],[[232.74987,157.17625],[-1.79841,-1.02996],[2.0163,1.15474]],[[238.44592,159.40229],[-2.45745,0.01739],[5.23439,0]],[[252.57511,155.11512],[-3.98744,2.87929],[0.3443,-0.51542]]],&quot;closed&quot;:true}]}" fill="#999999" stroke="none" stroke-width="0.5"/><path d="M364.86969,112.36766c0,0 1.94758,0.78773 5.38433,2.4944c3.13908,1.55886 5.48937,3.38223 5.48937,3.38223l-0.02152,1.60067c0,0 -8.87512,-5.89368 -19.47724,-6.90399c-8.47721,-0.80779 -13.90252,1.34558 -13.90252,1.34558l1.06206,-5.53468c0,0 4.56096,-1.51295 10.88556,-0.57851c6.54907,0.96763 10.60061,2.72464 10.60061,2.72464z" data-paper-data="{&quot;index&quot;:null}" fill="#000000" stroke="none" stroke-width="1.5"/><path d="M310.64869,108.19357c0,0 4.90999,-1.60731 11.21183,-1.10393c6.98323,0.55779 10.32991,1.77429 10.32991,1.77429l-0.60009,5.56413c0,0 -4.92934,-1.82321 -10.52064,-2.61406c-7.47767,-1.05769 -9.16604,0.30954 -14.9225,-0.10157c-4.93244,-0.35226 -8.98322,-1.40423 -8.98322,-1.40423l0.26086,-1.64136c0,0 4.75564,0.9601 6.96528,1.16392c1.82376,0.16822 5.50349,-0.29241 5.50349,-0.29241z" fill="#000000" stroke="none" stroke-width="1.5"/><path d="M304.7798,178.30867l-0.64222,-0.92523c-2.35296,-3.4206 -5.42441,-5.34589 -7.7393,-8.68094c-0.04073,-0.05869 -0.73292,-0.76186 -1.25755,-1.48823c-0.095,0.25811 -0.21726,0.4856 -0.35147,0.62558c-0.09102,0.09491 -0.18761,0.18271 -0.28875,0.26471l0.05922,0.05703l-0.98147,1.01902c-0.30251,0.32336 -0.75783,0.49137 -1.226,0.40684c-0.73328,-0.1324 -1.22039,-0.83417 -1.08798,-1.56745l0.2274,-1.25938c-0.97898,-1.99514 -1.48819,-4.48419 -2.55725,-6.34679c-1.449,-2.52456 -4.11338,-5.11713 -4.83233,-8.10409c-0.49367,-2.05108 0.06371,-4.05419 -0.82452,-6.01262c-0.68943,-1.73774 -1.15233,-4.52117 -1.07811,-6.45262c0.02264,-0.58926 0.70584,-5.2247 0.057,-5.28058c-2.05181,-0.17673 -3.90438,2.08355 -5.58568,2.82772c-3.69525,1.63558 -7.47955,2.7184 -11.20616,1.82572l-0.07476,0.41408l-1.56746,-0.28302c-0.73328,-0.1324 -1.22039,-0.83417 -1.08798,-1.56745c0.08453,-0.46817 0.40117,-0.83599 0.8099,-1.00629l1.29791,-0.56314c3.54518,-1.51701 6.58868,-3.23825 9.56914,-5.58297c-1.60723,-0.03054 -3.21125,-0.4734 -5.04538,-1.23789c-0.8624,-0.35946 -3.61368,-1.55232 -3.79307,-2.33739c-0.21751,-0.95185 2.30965,-3.18686 2.93349,-3.69548c3.03795,-2.47686 7.68322,-5.10055 9.79751,-8.40798c0.90325,-1.41297 1.13498,-2.77041 2.34577,-4.02749c0.88369,-2.03547 1.78946,-3.73889 3.02064,-5.52421c0.10037,-0.14555 0.19932,-0.36812 0.29988,-0.59714c-0.28018,0.1104 -0.57129,0.19967 -0.77411,0.25633c-1.96529,0.54905 -5.53688,1.07788 -6.39207,-1.72059c-0.94168,-3.08155 3.17171,-5.45364 5.10252,-6.76467c1.89172,-1.28448 2.72367,-3.80548 3.10562,-5.92085c4.44643,-9.86095 8.84121,-20.21205 16.66631,-28.33641c5.68199,-5.8993 13.27241,-11.57212 20.057,-16.01021c1.68353,-1.10129 4.13154,-1.22446 6.04096,-2.0261c2.94482,-0.19566 5.65276,-1.53134 8.72618,-1.36381c9.63743,0.5253 19.0307,4.93619 28.39392,6.77174c3.06252,2.23128 6.6564,2.93457 9.84668,5.09868c4.19566,2.8461 7.60537,6.82702 11.61169,9.79752c3.05823,2.26752 5.10302,3.44223 6.65789,7.14575c0.32136,4.38533 1.69325,8.37631 1.44,12.78635c-0.43128,7.50982 -4.05282,16.42033 -1.89387,23.78901c-0.66858,4.04801 1.73785,7.65695 2.68337,11.56779c1.07575,4.44951 0.67438,8.52208 0.9794,12.96734c0.24996,3.64313 0.92343,6.59988 -1.08264,9.06686l0.39686,0.38226l-0.98147,1.01901c-0.30249,0.32337 -0.75783,0.49137 -1.226,0.40684c-0.63186,-0.11409 -1.08094,-0.65095 -1.10835,-1.26643l-0.09523,-1.43325c-1.40892,-3.14698 -1.19984,-6.39815 -2.91932,-9.47185c-0.07448,-0.13312 -0.15808,-0.2561 -0.24718,-0.3709c-0.03131,6.73953 -2.21617,13.5694 -4.87126,19.5467c-3.10944,6.89585 -6.35213,13.12893 -9.29403,20.14072c-1.46634,3.49492 -2.60332,6.85355 -5.25144,9.0074l0.33682,0.48525l-1.38785,0.96333c-0.28366,0.19688 -0.64243,0.28556 -1.00906,0.21936c-0.73327,-0.13239 -1.22038,-0.83417 -1.08798,-1.56745l0.28302,-1.56746c0.07417,-0.40269 0.04379,-2.03303 0.12715,-3.46136c-0.55721,1.0022 -1.19286,1.97688 -1.27299,2.11156c-1.33983,2.25185 -2.63517,3.56679 -4.42641,4.69344l0.12794,0.13769l-1.44711,1.34451c-0.30109,0.28589 -0.72967,0.42942 -1.16957,0.34999c-0.73327,-0.13239 -1.22038,-0.83416 -1.08798,-1.56745c0.02193,-0.12147 0.05949,-0.23618 0.11023,-0.34245l0.61112,-1.3553c0.27618,-1.55585 0.60623,-3.75856 1.11638,-5.55495c-0.70926,0.43227 -1.46856,0.81064 -1.95917,1.22109c-2.99983,2.50971 -5.82581,4.29063 -9.18735,5.9179c-1.8213,1.52267 -3.78603,2.79323 -5.85725,3.8208c-0.32635,0.33911 -0.6529,0.67808 -0.9794,1.01707c-3.70884,3.85067 -8.87926,6.06549 -13.53582,8.03218c-1.27077,0.5367 -2.26921,1.90806 -3.88118,2.26482c-4.36935,0.96701 -10.57489,-2.70977 -11.85125,-6.75191c-0.50996,-1.21119 -0.32943,-2.95084 -1.09144,-3.96217c-1.88068,-2.49604 -3.75813,-4.89829 -5.5264,-7.46145c-0.44793,-0.15811 -0.71621,-0.54461 -0.71621,-0.54461zM313.23911,184.77606c0.98467,1.50527 0.70539,3.01152 1.41212,4.58268c0.71354,2.71537 5.69905,5.77373 8.6781,5.04765c1.48431,-0.36176 2.13891,-1.53879 3.37923,-2.08922c2.72947,-1.2113 5.6976,-2.41909 8.3965,-4.06285c-4.69288,1.0334 -9.66711,1.06479 -14.59299,0.17537c-3.57006,-0.66582 -5.35006,-2.42102 -7.90459,-4.58945c0.21551,0.3103 0.42646,0.62214 0.63164,0.9358zM342.52357,181.66643l1.49333,-1.04454c0,0 0.48958,-0.33981 1.0438,-0.24239c0.59042,-0.26104 1.16622,-0.5261 1.7295,-0.79633c0.7737,-0.65171 1.52277,-1.35202 2.24476,-2.10163c1.74163,-0.50943 0.53488,-1.69833 -1.02328,-2.75678l-0.01196,0.01369c-3.1814,0.21138 -6.09626,1.30433 -9.1212,1.57232c-3.01518,0.26713 -6.25767,-1.28882 -9.34669,-1.23085c-0.648,-0.11852 -1.29964,-0.24041 -1.95383,-0.36656c-0.2582,-0.01421 -0.55052,-0.07382 -0.86173,-0.16847c-5.16358,-1.02366 -10.45494,-2.33719 -15.34467,-4.38925c-3.62262,-1.5203 -7.50741,-4.63023 -11.29633,-5.24337c0,0 -0.26836,-0.04845 -0.54199,-0.22244c-0.03391,0.2373 -0.05332,0.49831 -0.05762,0.7859c3.09853,2.68214 5.36819,7.13183 7.66237,10.51056c1.6097,2.37069 4.68354,3.66827 6.82441,5.46691c2.40025,2.01654 3.76212,3.75505 7.02909,4.32107c6.9498,1.25485 13.8029,0.56203 19.78735,-2.30494c0.5807,-0.60179 1.162,-1.20299 1.74468,-1.80291zM369.23899,144.59446c1.2625,-0.15296 1.80652,-1.2378 3.11752,-2.15212c4.69915,-3.27727 6.15807,-7.36508 7.20518,-12.93843c-0.11383,-3.60379 -3.96911,-0.79887 -5.27337,0.76975c-0.78035,0.93851 -1.4855,1.95389 -2.10452,3.0271c-0.04254,0.65945 -0.01102,1.34444 -0.2895,1.92741c-0.74919,1.5684 -1.49915,3.14719 -2.24233,4.73817c-0.30983,1.52189 -0.45447,3.07678 -0.41298,4.62811zM355.49877,166.67694c0.95939,-1.89012 2.64234,-3.05633 3.3253,-5.2394c1.36472,-4.36226 0.3983,-9.28852 4.00587,-12.6173c1.29789,-3.47658 2.77511,-6.85963 4.34921,-10.15607c0.55274,-2.33834 1.44722,-4.60291 2.63025,-6.66883c0.02744,-0.39475 0.0831,-0.78052 0.24837,-1.13049c1.43128,-3.03068 3.08937,-6.16032 4.19988,-9.48655l-0.25495,-0.21301c-2.2749,-1.05487 -4.43595,-2.51643 -6.15527,-4.3664c-0.95229,-0.12499 -1.90774,-0.29019 -2.86503,-0.48154c-0.08959,-0.00122 -0.18522,-0.01038 -0.2873,-0.02881c-0.13427,-0.02424 -0.25251,-0.05962 -0.35659,-0.10363c-4.91504,-1.03813 -9.87102,-2.68122 -14.69137,-3.02834c-1.72607,-0.12429 -5.67313,2.19593 -7.16209,0.44993c-0.63146,-0.74048 -0.37767,-1.89163 0.01991,-2.91683c-0.00629,-0.00876 -0.01255,-0.01762 -0.0188,-0.02662c-0.76933,-1.10835 0.33904,-1.87767 0.33904,-1.87767l1.31521,-0.82862c1.45423,-0.42364 2.94985,-1.33811 4.40464,-1.66009c2.80596,-0.62101 6.01133,0.21871 8.62612,1.04595c4.52502,1.4316 9.60103,0.91545 9.24852,6.56986c0.89794,0.14336 1.78579,0.30036 2.65615,0.48386c1.82759,1.65192 3.69844,3.27148 5.94093,4.26734c0.07604,-0.34316 0.14457,-0.68852 0.20481,-1.03619c0.99108,-5.48897 0.88508,-10.58947 0.53126,-16.16182c-0.12874,-2.02756 0.65297,-4.29128 -1.73344,-5.40293c-3.32046,-1.54676 -4.67973,-0.09795 -7.97197,0.12078c-5.39549,2.44703 -12.92511,3.96214 -18.83256,4.36831c-3.06383,0.21065 -5.84662,-0.13687 -8.72897,1.10786l-0.08973,-0.00807l0.01001,0.03413l-1.68293,0.49308c-0.20206,0.06384 -0.42213,0.08086 -0.64513,0.04059c-0.73328,-0.1324 -1.22038,-0.83418 -1.08798,-1.56745c0.08453,-0.46818 0.40116,-0.836 0.80989,-1.00631l1.2979,-0.56313l0.06726,0.15501l0.01233,-0.00362c1.89533,-1.64612 3.98995,-2.93322 6.20699,-4.19613c0.62937,-0.35852 1.45127,-1.06302 2.2569,-1.62462c-0.98412,0.15294 -2.02372,-0.06361 -2.99705,0.1633c-3.27116,0.76257 -6.71127,1.42435 -9.9666,2.32736c-3.22801,-0.53315 -5.49449,0.52946 -8.47828,1.22113c-5.57589,1.29255 -11.84837,1.18058 -17.28089,2.09507c-1.11618,0.1879 -1.8575,4.01084 -2.20586,4.79506c-0.86204,1.87734 -1.43544,3.71626 -1.79773,5.54398c1.67461,0.15345 3.36965,0.1791 5.07488,0.1444c0.37978,-1.05628 2.16834,-3.10304 2.81168,-3.29781c2.0368,-0.61663 4.51699,1.31081 6.52967,1.07561c2.48373,-0.29025 5.20873,-1.60534 7.77986,-1.47632c2.0954,0.10516 7.07534,1.63309 7.95031,3.69403c0.44629,1.05119 -0.70048,4.39418 -1.73583,4.82011c-0.80943,0.333 -1.68589,-0.47121 -2.52884,-0.70681c-1.76026,-0.80827 -3.58536,-1.30789 -5.45264,-1.60195c2.11182,1.93597 7.75627,2.61165 8.72234,5.47568c0.74208,2.19997 0.16565,4.33627 -0.96732,6.35569c0.30343,0.46069 0.20034,1.03163 0.20034,1.03163c-0.69236,3.83453 0.20646,7.3293 -0.00246,11.16198c-0.31246,5.73258 -2.11149,11.75109 -3.13256,17.40608c-0.78659,4.35641 -1.94745,8.54464 -2.72678,12.8608c-0.17207,0.95297 -0.93693,2.98478 -0.56153,3.96453c0.25263,0.65932 1.27947,0.61083 1.86201,1.00982c0.10351,0.07088 0.15768,0.24032 0.21249,0.38882c0.1612,0.03193 0.32233,0.0635 0.48328,0.09477c0.36377,-0.41982 0.12158,-1.37041 0.30763,-1.97235c0.7899,-2.55558 1.31159,-5.11043 1.80696,-7.76655c0.7231,-1.60361 1.32266,-3.25194 1.83708,-4.93096c-0.13371,-0.35774 -0.15347,-0.84485 0.3247,-1.34129c0.03061,-0.03178 0.06124,-0.06151 0.0919,-0.08931c2.39921,-8.666 2.85585,-18.02988 6.49133,-26.21424c0.12544,-0.27816 0.25085,-0.55635 0.37629,-0.83452c0.00505,-0.08916 0.01071,-0.17823 0.01704,-0.26719c-0.37623,-0.16213 -0.94325,-0.56146 -0.77957,-1.46798c0.15191,-0.84132 0.74069,-1.05328 1.15168,-1.09566c0.47526,-2.11454 1.36082,-4.03522 2.68757,-5.44586c2.59933,-2.67623 6.5136,-4.99516 10.33796,-4.80324c7.24336,0.36348 18.25384,6.5737 14.58513,15.08702c-0.21776,1.20604 -0.38567,3.15808 -1.61825,3.85804c-0.01356,0.00771 -0.02726,0.01526 -0.04107,0.02264c-1.31698,4.01997 -4.06859,7.30246 -8.15952,9.07744c-2.92055,1.15869 -5.60309,-0.01067 -8.45336,-0.9017c-2.75784,-0.86215 -5.56648,-1.56239 -7.33724,-4.14393c-0.79914,-1.16508 -1.40873,-2.57944 -1.81623,-4.1153c-2.34158,7.06084 -2.92665,14.81914 -4.89182,22.06027c2.10737,2.37064 3.01884,5.22701 -0.4001,7.13168c1.8778,0.27092 3.87925,0.51864 5.44598,1.53413c2.99532,1.94142 5.57058,4.42044 8.48355,6.30288c0.10434,-0.0022 0.21719,0.0066 0.33925,0.02863c0.60847,0.10986 0.88773,0.44822 1.01176,0.78258c0.23478,0.1297 0.47228,0.25479 0.71285,0.37476c0.42233,0.21063 0.80119,0.45718 1.13285,0.73041c1.9257,-2.11523 3.19321,-4.46538 4.42058,-6.88345zM300.96794,136.1869c-1.42621,7.89886 -0.84473,15.88367 -2.28595,23.86567l-0.25837,1.43089c2.68673,-3.14395 8.5765,-3.4188 12.93722,-2.1209c2.37906,0.70809 5.23887,2.98598 7.8533,2.68047c0.9232,-0.10789 1.67067,-0.29717 2.44694,-0.40953c-4.1204,-4.18499 -1.32927,-8.53744 3.79449,-8.17924c0.01798,-0.09739 0.03579,-0.19486 0.0534,-0.2924c1.00062,-5.54176 2.78996,-11.46259 3.09386,-17.07804c0.15367,-2.83949 -0.26348,-5.48694 -0.24261,-8.22701c-1.40977,1.69198 -2.86659,3.25591 -3.78062,4.65059c-0.90502,1.38093 -1.51981,3.05401 -3.08514,3.96253c-1.04425,0.60608 -2.29436,0.76084 -3.40714,1.22935c-7.29092,0.51925 -14.14725,-5.85606 -15.28004,-12.87717c-0.19035,3.80012 -1.17759,7.69967 -1.83936,11.36478zM358.09875,110.24182c-2.8217,-0.51828 -5.95652,-2.04453 -8.91789,-1.32276c-1.17957,0.28748 -2.36278,0.92696 -3.54774,1.37727c-0.12789,0.27102 -0.33081,0.67486 -0.53016,1.01702c1.3149,-0.52164 4.33935,-0.8658 4.69561,-0.85089c1.80109,0.07547 3.30019,0.77561 4.95608,1.2995c2.83548,0.89706 5.91849,1.31944 8.97056,1.75164c-0.03756,-2.78485 -2.70213,-2.73464 -5.62647,-3.27178zM304.84068,116.041c0,0 0.33737,-0.45097 0.86754,-0.5522l0.16628,-0.21778c1.90971,-1.69969 3.77567,-1.38538 6.25472,-1.82384c1.26905,-0.22446 2.45892,-0.98891 3.66523,-1.56432c-4.449,0.15776 -8.9625,0.6828 -13.2664,0.33c-0.2905,3.01337 -0.1069,6.03222 0.20098,9.17952c0.22365,-1.84577 0.89611,-3.66669 2.11163,-5.35139zM312.42196,167.67011c3.13648,1.31596 6.44192,2.32861 9.76815,3.14616c-0.27329,-1.53327 0.33894,-3.39159 0.59209,-4.79362c0.10796,-0.59795 0.22319,-1.19318 0.34367,-1.78657c-2.00428,-0.21454 -3.47615,0.53901 -5.56361,0.19186c-5.10424,-0.84887 -8.31051,-3.5118 -13.63161,-2.54647c-1.0104,0.18329 -1.88795,0.30655 -2.59081,0.55437c3.80706,0.99306 7.42957,3.70178 11.08212,5.23425zM329.7473,172.39018c2.83222,-0.05314 6.12166,1.55557 8.8206,1.24016c1.96513,-0.22965 3.87811,-0.72697 5.85309,-1.11136c-4.19487,-2.79048 -6.96098,-5.30761 -12.2182,-6.25685l-0.2354,0.2174c0,0 -0.19381,0.05678 -0.45341,0.05143c-0.39734,2.04794 -0.93117,4.09814 -1.8895,5.83728c0.04096,0.00732 0.0819,0.01464 0.12283,0.02194zM323.61451,159.77187l0.42112,0.30568c0.3004,-1.31867 0.60377,-2.63801 0.88783,-3.96751c-2.46968,-0.09752 -3.79523,1.37211 -1.30895,3.66183zM341.42824,129.25784c-0.03681,0.08162 -0.07361,0.16323 -0.1104,0.24486c-0.0476,2.88695 0.65538,5.84505 1.95901,7.68905c1.43508,2.02993 3.74489,2.42539 5.92085,3.10562c1.97761,0.61823 4.59478,1.99804 6.57902,1.00325c2.88553,-1.25197 5.28629,-3.6134 6.43049,-6.48195c-1.2733,-0.26377 -2.67022,-0.80039 -3.84976,-1.31047c-3.56916,7.03681 -10.24292,0.66977 -14.00084,-2.91338c0,0 -0.48601,-0.46812 -0.43956,-1.08594c-0.80727,-0.13291 -1.62446,-0.27125 -2.45362,-0.42015zM362.69734,131.43558l0.48772,0.26484l0.40812,-0.82513c0,0 0.16381,-0.29958 0.47732,-0.51491c-0.00258,-0.12123 0.00298,-0.23683 0.02211,-0.34279c1.19108,-2.50393 0.42251,-3.90357 -0.96823,-5.91675c-0.49438,-0.71565 -0.40782,-1.8958 -1.15603,-2.33938c-0.86458,-0.51256 -1.97173,-0.45241 -2.88919,-0.86287c-5.80509,-2.59713 -10.67857,-3.4329 -15.38918,1.50746c-0.97023,0.97477 -1.62589,2.37666 -1.99819,3.9588c2.69061,0.43627 5.45283,0.82948 8.14981,1.39623c4.33088,0.76387 8.50781,1.714 12.85573,3.67452zM321.01216,109.37821c3.03533,0.16962 6.01967,0.6975 8.89375,1.97415c0.95154,1.31691 0.73029,-0.48348 0.64456,-0.66526c-0.37489,-0.79505 -4.54946,-1.92468 -5.5908,-1.98807c-1.27241,-0.07747 -2.61567,0.29008 -3.9475,0.67919zM318.02274,130.46245c-2.54103,0.33139 -4.68494,-1.19379 -6.5774,-2.4599c-0.85603,-0.57272 -2.80186,-0.83334 -3.34538,-1.69769c-0.96298,-1.53141 -0.35459,-2.70876 0.23122,-3.98154c-1.0061,-0.1968 -2.01318,-0.38808 -3.02135,-0.57154c-0.74494,6.41085 5.79066,13.69752 12.1417,13.32509c0.85082,-0.38271 1.82697,-0.46646 2.645,-0.91499c1.16235,-0.63733 1.5971,-2.187 2.24861,-3.16724c1.04945,-1.579 2.72078,-3.22545 4.19148,-5.00571l-0.40218,-0.07261c-1.1519,-0.20799 -2.30411,-0.42698 -3.45682,-0.6534c-0.96975,2.19251 -1.85412,4.83425 -4.65489,5.19953zM328.23985,123.64159c0.957,-1.58389 1.53404,-3.27967 1.25909,-5.1254c-0.09796,-0.65765 -1.19376,-0.58668 -1.80164,-0.85607c-1.9444,-0.86162 -4.08591,-1.51775 -5.58381,-3.0493c-1.17186,-0.1538 -2.79304,-0.81743 -3.93288,-0.71012c-1.77722,0.16731 -3.72992,1.85752 -5.57978,2.20331c-1.08456,0.20274 15.59141,7.51162 15.63901,7.53757zM332.80973,161.39598c1.07867,-0.26719 1.02997,-0.94355 0.6069,-1.65359c-0.19048,0.55566 -0.39228,1.10707 -0.6069,1.65359z" fill="#000000" stroke="none" stroke-width="0.5"/><path d="M369.5991,140.00824c0.74317,-1.59098 1.48389,-3.238 2.23309,-4.80641c0.27847,-0.58297 0.26947,-1.29622 0.31202,-1.95569c0.61904,-1.07321 1.3633,-2.10144 2.14365,-3.03995c1.30425,-1.56862 5.20131,-4.35942 5.31514,-0.75562c-1.04712,5.57334 -2.56785,9.77875 -7.267,13.05602c-1.311,0.91431 -1.86968,1.99244 -3.13216,2.14542c-0.04149,-1.55134 0.08544,-3.1219 0.39527,-4.64378z" data-paper-data="{&quot;noHover&quot;:false,&quot;origItem&quot;:[&quot;Path&quot;,{&quot;applyMatrix&quot;:true,&quot;segments&quot;:[[[268.21396,123.01191],[-0.23457,-1.12607],[0.90071,-0.27784]],[[270.20442,121.0316],[-0.83582,0.83955],[2.99592,-3.00929]],[[273.75586,110.64549],[-0.02976,4.20306],[-0.55764,-2.61359]],[[270.01088,111.90144],[0.74473,-1.31591],[-0.44558,0.78732]],[[268.87451,114.38655],[0.31018,-0.86432],[0.05582,0.4866]],[[268.9172,115.83051],[0.12634,-0.46189],[-0.3399,1.24265]],[[267.90567,119.58181],[0.33253,-1.25832],[-0.02556,1.15086]]],&quot;closed&quot;:true}]}" fill="#ffffff" stroke="none" stroke-width="0.5"/><path d="M341.40863,129.04934c0.82915,0.1489 1.65113,0.28131 2.45839,0.41422c-0.04646,0.61784 0.43697,1.08898 0.43697,1.08898c3.75792,3.58316 10.54813,9.97071 14.11729,2.9339c1.17955,0.51009 2.57969,1.06139 3.85301,1.32516c-1.14421,2.86855 -3.56733,5.28754 -6.45286,6.53951c-1.98424,0.99479 -4.67303,-0.37365 -6.65065,-0.99188c-2.17596,-0.68024 -4.52553,-1.12727 -5.96061,-3.15719c-1.30363,-1.84401 -1.99611,-4.84975 -1.94851,-7.7367c0.03681,-0.08162 0.07446,-0.1645 0.11126,-0.24612z" data-paper-data="{&quot;noHover&quot;:false,&quot;origItem&quot;:[&quot;Path&quot;,{&quot;applyMatrix&quot;:true,&quot;segments&quot;:[[[245.90918,115.48812],[0,0],[-0.0161,0.06438]],[[245.8609,115.68126],[0.0161,-0.06438],[0.34549,2.11199]],[[248.30242,121.0316],[-1.19371,-1.17332],[1.31407,1.29162]],[[253.03005,122.51705],[-1.67672,-0.20959],[1.52388,0.19048]],[[257.96087,122.38236],[-1.31628,0.98691],[1.9398,-1.2932]],[[261.79756,116.80758],[-0.45679,2.24299],[-0.96348,-0.0247]],[[258.81698,116.35875],[0.92753,0.21671],[-1.67658,5.60265]],[[248.22118,116.07763],[3.2129,2.11862],[0,0]],[[247.75755,115.34344],[0.04748,0.45677],[-0.60632,0.00937]],[[245.91257,115.36011],[0.62439,-0.00059],[0,0]]],&quot;closed&quot;:true}]}" fill="#ffffff" stroke="none" stroke-width="0.5"/><path d="M333.42363,159.67529c0.42309,0.71005 0.42781,1.50992 -0.65086,1.77711c0.2146,-0.54653 0.46038,-1.22145 0.65086,-1.77711z" data-paper-data="{&quot;noHover&quot;:false,&quot;origItem&quot;:[&quot;Path&quot;,{&quot;applyMatrix&quot;:true,&quot;segments&quot;:[[[243.85545,140.0645],[0.08455,-0.4269],[0.75159,-0.33695]],[[244.08034,138.77845],[0.40211,0.46218],[-0.06576,0.43038]]],&quot;closed&quot;:true}]}" fill="#ffffff" stroke="none" stroke-width="0.5"/><path d="M324.96713,156.05863c-0.28405,1.32951 -0.6123,2.76504 -0.9127,4.08371l-0.43237,-0.30342c-2.48626,-2.28972 -1.12461,-3.87781 1.34507,-3.78029z" data-paper-data="{&quot;noHover&quot;:false,&quot;origItem&quot;:[&quot;Path&quot;,{&quot;applyMatrix&quot;:true,&quot;segments&quot;:[[[236.93463,140.09088],[-2.11501,-1.34267],[0,0]],[[237.28205,140.25838],[0,0],[0.04544,-1.00139]],[[237.40711,137.24758],[-0.03209,1.00714],[-1.81421,0.25412]]],&quot;closed&quot;:true}]}" fill="#999999" stroke="none" stroke-width="0.5"/><path d="M302.77575,124.76248c1.13278,7.02111 8.05893,13.4005 15.34984,12.88125c1.11278,-0.46851 2.37238,-0.61539 3.41662,-1.22147c1.56533,-0.90852 2.08647,-2.48451 2.99149,-3.86544c0.91403,-1.39468 2.46179,-3.05826 3.87158,-4.75024c-0.02087,2.74007 0.41012,5.4048 0.25645,8.24429c-0.30389,5.61545 -2.09677,11.60781 -3.09739,17.14956c-0.01762,0.09756 -0.03612,0.19601 -0.0541,0.2934c-5.12376,-0.35821 -7.93973,4.0152 -3.81933,8.20019c-0.77627,0.11236 -1.53182,0.30499 -2.45502,0.41287c-2.61443,0.30552 -5.50478,-1.96935 -7.88384,-2.67745c-4.36073,-1.29792 -10.28637,-1.03938 -12.9731,2.10457l0.25659,-1.4325c1.44122,-7.982 0.85058,-16.05393 2.27679,-23.95279c0.66177,-3.66511 1.67308,-7.58612 1.86343,-11.38624z" data-paper-data="{&quot;noHover&quot;:false,&quot;origItem&quot;:[&quot;Path&quot;,{&quot;applyMatrix&quot;:true,&quot;segments&quot;:[[[217.31028,125.87069],[0,-2.76046],[0,5.9492]],[[218.78599,143.5792],[0,-6.01182],[0,0]],[[218.78599,144.65691],[0,0],[1.54563,-2.64701]],[[227.94299,141.40613],[-3.35162,-0.37239],[1.82852,0.20316]],[[234.02415,142.32697],[-1.86671,0.56716],[0.65917,-0.20028]],[[235.755,141.706],[-0.55141,0.18419],[-3.55655,-2.50985]],[[237.44548,135.2404],[-3.78441,0.41352],[0.00029,-0.0734]],[[237.44592,135.02009],[0,0.07348],[0,-4.1739]],[[237.45341,122.15603],[0.51789,4.13589],[-0.26187,-2.09134]],[[236.19296,116.18725],[0.34564,2.00134],[-0.80545,1.41978]],[[234.04788,120.07726],[0.48301,-1.13765],[-0.47825,1.12643]],[[232.31946,123.37381],[1.02209,-0.86882],[-0.68185,0.57959]],[[229.99622,124.71921],[0.74995,-0.48828],[-5.24956,1.33894]],[[217.15516,117.33905],[1.75091,4.97196],[0.36163,2.79685]]],&quot;closed&quot;:true}]}" fill="#999999" stroke="none" stroke-width="0.5"/><path d="M349.79008,127.80458c-2.697,-0.56674 -5.47435,-0.99324 -8.16495,-1.42951c0.3723,-1.58214 1.02864,-3.00826 1.99887,-3.98303c4.71061,-4.94036 9.70612,-4.12818 15.51121,-1.53105c0.91746,0.41047 2.03258,0.36658 2.89716,0.87914c0.7482,0.44357 0.66502,1.64204 1.1594,2.35769c1.39075,2.0132 2.15158,3.4473 0.9605,5.95123c-0.01913,0.10596 -0.02553,0.22314 -0.02295,0.34435c-0.3135,0.21535 -0.47934,0.51827 -0.47934,0.51827l-0.41109,0.82938l-0.48801,-0.26446c-4.34791,-1.96053 -8.62992,-2.90816 -12.96081,-3.67203z" data-paper-data="{&quot;noHover&quot;:false,&quot;origItem&quot;:[&quot;Path&quot;,{&quot;applyMatrix&quot;:true,&quot;segments&quot;:[[[261.70952,114.27544],[-3.42953,-0.85738],[0,0]],[262.10014,114.40438],[262.28915,113.74879],[[262.56949,113.31035],[-0.20031,0.19836],[-0.01785,-0.08808]],[[262.54047,113.05741],[0,0.07981],[0.539,-1.98321]],[[261.05502,108.86928],[1.27954,1.28525],[-0.45485,-0.45688]],[[259.90374,107.3152],[0.60415,0.225],[-0.69812,-0.25999]],[[257.68275,107.06633],[0.72325,0.17856],[-4.57623,-1.12981]],[[246.65652,110.19259],[2.78525,-4.22384],[-0.5793,0.83877]],[[245.72042,113.34326],[0.06319,-1.20303],[2.01996,-0.03614]],[[251.84871,113.28834],[-2.04181,-0.05819],[3.25951,-0.01321]]],&quot;closed&quot;:true}]}" fill="#999999" stroke="none" stroke-width="0.5"/><path d="M302.67822,121.43675c-0.30788,-3.1473 -0.49513,-6.25032 -0.20463,-9.2637c4.30389,0.3528 8.92925,-0.1679 13.37825,-0.32566c-1.20631,0.57541 -2.50614,1.41759 -3.77521,1.64204c-2.47904,0.43847 -4.2317,0.11127 -6.14141,1.81098l-0.16378,0.21189c-0.53017,0.10123 -0.86382,0.53694 -0.86382,0.53694c-1.21554,1.6847 -2.00577,3.54173 -2.22941,5.3875z" data-paper-data="{&quot;noHover&quot;:false,&quot;origItem&quot;:[&quot;Path&quot;,{&quot;applyMatrix&quot;:true,&quot;segments&quot;:[[[217.48184,110.66638],[-0.66473,1.38889],[0,0]],[[218.0419,110.14936],[-0.37337,0.14366],[0,0]],[[218.1345,109.96861],[0,0],[1.16908,-1.49125]],[[222.45645,107.81458],[-1.75045,0.6463],[0.89608,-0.33085]],[[224.92382,106.19087],[-0.80409,0.57857],[-3.22429,0.701]],[[215.29088,108.17873],[3.18569,-0.30949],[0.18497,2.23619]],[[216.6464,114.84774],[-0.63906,-2.25507],[-0.07996,-1.37575]]],&quot;closed&quot;:true}]}" fill="#999999" stroke="none" stroke-width="0.5"/><path d="M322.61747,125.29347c1.15272,0.22642 2.42983,0.39595 3.58173,0.60394l0.40246,0.0736c-1.4707,1.78026 -3.14155,3.46076 -4.19101,5.03976c-0.65151,0.98025 -1.10338,2.56078 -2.26571,3.19811c-0.81804,0.44853 -1.81637,0.54745 -2.66719,0.93015c-6.35103,0.37243 -12.96632,-7.01752 -12.22138,-13.42837c1.00817,0.18346 2.11561,0.46435 3.12172,0.66114c-0.58582,1.27279 -1.1789,2.4277 -0.21592,3.95911c0.54353,0.86435 2.4911,1.12029 3.34714,1.69301c1.89246,1.26611 3.91019,2.7438 6.45122,2.41241c2.80076,-0.36528 3.68718,-2.95036 4.65693,-5.14287z" data-paper-data="{&quot;noHover&quot;:false,&quot;origItem&quot;:[&quot;Path&quot;,{&quot;applyMatrix&quot;:true,&quot;segments&quot;:[[[228.99602,119.44923],[1.99475,-0.63529],[-1.80977,0.57637]],[[223.87455,118.52123],[1.54709,0.67426],[-0.69981,-0.305]],[[221.21087,117.72354],[0.51028,0.55887],[-0.90408,-0.99018]],[[220.85516,114.78898],[-0.25967,1.00552],[-0.75976,-0.01104]],[[218.57615,114.77001],[0.75951,0.00104],[0.30094,4.77413]],[[229.18711,122.89018],[-4.58335,1.10807],[0.57018,-0.3912]],[[230.99585,121.87445],[-0.5376,0.43489],[0.76387,-0.61794]],[[232.21885,119.26816],[-0.34611,0.80079],[0.55751,-1.28992]],[[234.61684,115.06501],[-0.83826,1.4922],[0,0]],[[234.31393,115.06501],[0,0],[-0.86758,0]],[[231.70649,115.04369],[0.8706,0.01334],[-0.41858,1.72692]]],&quot;closed&quot;:true}]}" fill="#ffffff" stroke="none" stroke-width="0.5"/><path d="M306.046,117.71487c0.14049,-0.18516 0.30091,-0.36988 0.48304,-0.54752c0.50901,-0.06521 0.82651,-0.33548 0.82651,-0.33548l0.41751,-0.36613c0.59389,-0.58906 3.41989,-0.4629 4.77072,-0.60586c1.84485,-0.19526 3.84062,-1.26612 5.61506,-1.34976c1.13805,-0.05364 2.81897,0.40124 3.99224,0.5126c1.51611,0.98393 3.6801,1.45005 5.6343,2.01714c0.61096,0.1773 1.70535,0.14933 1.81137,0.56513c0.29752,1.16697 -0.26703,2.24742 -1.20417,3.23418c-0.2404,-0.08506 -0.45246,-0.11147 -0.45246,-0.11147l-1.17914,-0.14679c-6.83511,-0.86048 -13.81692,-1.98529 -20.71494,-2.86603z" data-paper-data="{&quot;noHover&quot;:false,&quot;origItem&quot;:[&quot;Path&quot;,{&quot;applyMatrix&quot;:true,&quot;segments&quot;:[[[234.31393,113.06501],[-5.13871,0],[0,0]],[235.19936,113.06501],[[235.55002,113.12857],[-0.19141,-0.06355],[0.48943,-1.28132]],[[235.79339,109.22432],[0.44362,1.31005],[-0.15806,-0.46678]],[[234.36654,108.83718],[0.47887,0.11643],[-1.53171,-0.37239]],[[229.89216,107.34842],[1.29426,0.91983],[-0.875,0.04215]],[[226.93003,107.34842],[0.81725,-0.22839],[-1.27426,0.35609]],[[223.15035,109.69035],[1.30373,-0.49584],[-0.95461,0.36307]],[[219.7986,111.07801],[0.31723,-0.76993],[0,0]],[219.56584,111.56081],[[219.02959,112.06827],[0.3575,-0.14996],[-0.09787,0.23264]],[[218.784,112.77044],[0.06612,-0.23527],[5.18841,0.01431]]],&quot;closed&quot;:true}]}" fill="#999999" stroke="none" stroke-width="0.5"/><path d="M351.92843,173.73549c-0.33166,-0.27322 -0.7117,-0.51935 -1.13404,-0.72998c-0.24055,-0.11996 -0.47888,-0.2448 -0.71366,-0.37451c-0.12402,-0.33435 -0.40439,-0.67237 -1.01284,-0.78223c-0.12206,-0.02203 -0.23541,-0.03069 -0.33974,-0.02848c-2.91297,-1.88246 -5.50049,-4.35904 -8.49582,-6.30046c-1.56673,-1.01548 -3.57909,-1.26297 -5.45688,-1.53389c3.41895,-1.90466 2.50741,-4.76102 0.40005,-7.13168c1.96516,-7.24113 2.50708,-15.11495 4.84866,-22.17579c0.4075,1.53588 1.02613,2.9428 1.8253,4.10787c1.77075,2.58153 4.56825,3.29138 7.32609,4.15351c2.85028,0.89104 5.52427,2.0717 8.44483,0.91302c4.09094,-1.77499 6.83341,-5.03081 8.15039,-9.05078c0.01381,-0.00738 0.02748,-0.01489 0.04105,-0.02258c1.23258,-0.69997 1.40003,-2.64318 1.61779,-3.84922c3.66872,-8.51331 -7.32312,-14.67778 -14.56646,-15.04125c-3.82435,-0.1919 -7.72229,2.13953 -10.32163,4.81578c-1.32674,1.41065 -2.14479,3.21456 -2.62005,5.32911c-0.41099,0.04239 -1.00513,0.2514 -1.15704,1.09274c-0.16368,0.90652 0.42264,1.32004 0.79887,1.48217c-0.00633,0.08896 -0.00974,0.18051 -0.01478,0.26968c-0.12544,0.27816 -0.24537,0.56373 -0.3708,0.8419c-3.63548,8.18436 -4.15986,17.65133 -6.55908,26.31732c-0.03066,0.02779 -0.06149,0.05751 -0.0921,0.08929c-0.47817,0.49645 -0.45865,0.98351 -0.32494,1.34125c-0.51442,1.67902 -1.11601,3.32697 -1.8391,4.93058c-0.49539,2.65612 -1.01744,5.21089 -1.80732,7.76648c-0.18605,0.60194 0.05631,1.55257 -0.30746,1.97238c-0.16095,-0.03127 -0.32284,-0.06301 -0.48406,-0.09494c-0.05481,-0.14851 -0.10946,-0.31802 -0.21296,-0.38892c-0.58254,-0.39898 -1.61263,-0.35132 -1.86526,-1.01066c-0.3754,-0.97976 0.38852,-3.01182 0.56059,-3.96479c0.77932,-4.31616 1.93738,-8.50528 2.72396,-12.8617c1.02106,-5.65501 2.79661,-11.68743 3.10908,-17.42001c0.20892,-3.83267 -0.68496,-7.43127 0.0074,-11.26579c0,0 0.10603,-0.57302 -0.19739,-1.03371c1.13297,-2.01942 1.76534,-4.03477 1.02326,-6.23474c-0.96608,-2.86402 -6.59171,-3.54833 -8.70354,-5.48431c1.86727,0.29407 3.62969,0.67496 5.38995,1.48323c0.84294,0.23559 1.72707,1.03718 2.53651,0.70419c1.03535,-0.42592 2.20874,-3.63697 1.76244,-4.68816c-0.87498,-2.06093 -5.83716,-3.59372 -7.93256,-3.69888c-2.57114,-0.12902 -5.28111,1.17716 -7.76484,1.46741c-2.01267,0.2352 -4.48646,-1.69793 -6.52325,-1.08129c-0.64335,0.19477 -2.42643,2.23527 -2.80622,3.29156c-1.70523,0.03469 -3.51012,-0.0691 -5.18473,-0.22256c0.3623,-1.82772 0.94127,-3.67397 1.80329,-5.55132c0.34834,-0.78423 1.09522,-4.61282 2.2114,-4.80072c5.43254,-0.9145 11.72842,-0.81636 17.30431,-2.10891c2.98379,-0.69167 5.26604,-1.75765 8.49405,-1.22451c3.25533,-0.90301 6.7135,-1.56401 9.98464,-2.32659c0.97333,-0.2269 2.01787,-0.00926 3.00199,-0.1622c-0.80563,0.56162 -1.6581,1.39749 -2.28747,1.756c-2.21703,1.26291 -4.30067,2.55136 -6.196,4.19749l-0.01232,0.00362l-0.06711,-0.15501l-1.29517,0.56319c-0.40873,0.17032 -0.72358,0.5381 -0.80811,1.00628c-0.13239,0.73327 0.35316,1.30017 1.08643,1.43256c0.22301,0.04026 0.44458,0.02327 0.64664,-0.04057l1.68672,-0.49286l-0.01004,-0.03414l0.08993,0.00808c2.88234,-1.24472 5.68263,-0.89327 8.74645,-1.10392c5.90746,-0.40616 13.45772,-1.90911 18.85321,-4.35615c3.29224,-0.21873 4.65709,-1.66214 7.97755,-0.11538c2.38641,1.11166 1.60917,3.38076 1.73791,5.40832c0.35384,5.57236 0.46952,10.6912 -0.52156,16.18015c-0.06025,0.34768 -0.25677,0.73562 -0.33282,1.07876c-2.24249,-0.99586 -4.10929,-2.60551 -5.93687,-4.25743c-0.87036,-0.18352 -1.75672,-0.33775 -2.65466,-0.4811c0.35252,-5.65442 -4.7097,-5.12116 -9.23474,-6.55275c-2.61478,-0.82724 -5.80581,-1.65715 -8.61176,-1.03616c-1.45479,0.32196 -2.94241,1.23988 -4.39664,1.66352l-1.31259,0.8295c0,0 -1.06776,0.64064 -0.29845,1.749c0.00625,0.009 0.01259,0.01791 0.01888,0.02665c-0.39759,1.02519 -0.6484,2.1774 -0.01695,2.91788c1.48895,1.74602 5.45324,-0.5647 7.17932,-0.4404c4.82034,0.34711 9.79508,2.01237 14.71012,3.0505c0.10408,0.04399 0.22257,0.07985 0.35684,0.10409c0.10207,0.01843 0.19785,0.02788 0.28744,0.0291c0.9573,0.19135 1.91418,0.35956 2.86647,0.48455c1.71932,1.84998 3.88411,3.32207 6.15901,4.37694l0.25506,0.21346c-1.11051,3.32623 -2.7665,6.47195 -4.19777,9.50263c-0.16527,0.34997 -0.22095,0.73798 -0.24838,1.13273c-1.18303,2.06592 -2.07935,4.34456 -2.63208,6.6829c-1.5741,3.29643 -3.06047,6.70078 -4.35838,10.17735c-3.60757,3.32878 -2.65683,8.27186 -4.02156,12.63411c-0.68296,2.18307 -2.37405,3.35458 -3.33344,5.24469c-1.22737,2.41806 -2.50475,4.77268 -4.43045,6.88792z" data-paper-data="{&quot;noHover&quot;:false,&quot;origItem&quot;:[&quot;Path&quot;,{&quot;applyMatrix&quot;:true,&quot;segments&quot;:[[[261.10017,140.92828],[-0.57678,1.92536],[0.45085,-1.50499]],[[262.83561,136.66876],[-0.21064,1.68226],[0.42092,-3.36153]],[[264.09578,126.93823],[-2.19294,2.9031],[0.48881,-2.70672]],[[265.93053,118.95768],[-0.714,2.6117],[0.09521,-1.77836]],[[266.97074,113.74708],[-0.59082,1.66267],[-0.03197,-0.29154]],[[267.00302,112.8898],[-0.07446,0.27703],[0.64483,-2.39905]],[[268.81701,105.41726],[-0.37194,2.57238],[0,0]],[[268.603,105.29547],[0,0],[-1.79822,-0.46981]],[[263.53834,102.92129],[1.4977,1.12293],[-0.71105,0.03425]],[[261.38518,102.94738],[0.72345,0.0135],[-0.06551,0.01091]],[[261.17184,102.9642],[0.07687,0],[-0.10113,0]],[[260.8981,102.93558],[0.08171,0.01838],[-3.72171,-0.1099]],[[249.78349,102.66156],[3.56164,-0.38165],[-1.27535,0.13666]],[[244.61877,103.93297],[1.31598,1.07744],[-0.5581,-0.45694]],[[244.24916,101.80282],[-0.15498,0.80013],[-0.00574,-0.00556]],[[244.23193,101.78588],[0.00574,0.00574],[-0.70711,-0.7071]],[244.23193,100.37166],[[245.08211,99.59406],[0,0],[1.00491,-0.50052]],[[248.07619,97.80312],[-1.01871,0.42643],[1.96486,-0.8225]],[[254.50576,97.42999],[-2.01615,-0.25902],[3.48906,0.44826]],[[262.11681,101.00398],[-0.48755,-4.17072],[0.67383,-0.01369]],[[264.11791,101.0071],[-0.659,-0.01923],[1.55059,0.96421]],[[269.01318,103.33725],[-1.76681,-0.43104],[0.01027,-0.26031]],[[269.0261,102.55448],[0.00185,0.26153],[0,-4.13414]],[[267.28511,90.6962],[0.99196,4.01784],[-0.36093,-1.46193]],[[265.30919,86.98363],[1.88704,0.49655],[-2.62563,-0.69089]],[[259.5104,88.12162],[2.37253,-0.59313],[-3.61316,2.49542]],[[246.34936,93.78805],[4.25537,-1.07425],[-2.20699,0.55715]],[[240.12841,95.7457],[1.93843,-1.28749],[0,0]],[240.06191,95.75164],[240.0737,95.77522],[[238.91113,96.35651],[0,0],[-0.13897,0.07317]],[[238.44592,96.47108],[0.16796,0],[-0.55229,0]],[[237.44592,95.47108],[0,0.55228],[0,-0.35262]],[[237.90412,94.63042],[-0.2757,0.17806],[0,0]],[238.77664,94.04874],[238.84611,94.15294],[[238.85464,94.14868],[0,0],[1.16565,-1.45028]],[[242.82934,90.2706],[-1.45076,1.21314],[0.41184,-0.34439]],[[244.26156,88.78838],[-0.51366,0.51574],[-0.69767,0.24116]],[[242.09703,89.30218],[0.68006,-0.29369],[-2.28553,0.98702]],[[235.13397,92.31234],[2.25549,-1.08737],[-2.4247,0.03625]],[[229.11079,94.3196],[2.08526,-0.89746],[-3.89679,1.67711]],[[216.78214,98.1236],[3.84202,-1.38249],[-0.78939,0.28405]],[[215.80471,101.91159],[0.1508,-0.61789],[-0.38152,1.48285]],[[215.22359,106.1921],[0.02355,-1.38084],[1.24166,-0.10862]],[[218.94419,105.62907],[-1.23921,0.24988],[0.1379,-0.82046]],[[220.56069,102.85337],[-0.4436,0.22679],[1.40442,-0.71801]],[[225.46503,102.77796],[-1.43705,0.43662],[1.77339,-0.53881]],[[230.94519,100.67655],[-1.89236,0.24451],[1.54222,-0.19926]],[[237.23058,102.32389],[-0.90962,-1.38799],[0.46396,0.70795]],[[236.59928,106.06825],[0.69908,-0.44702],[-0.54654,0.34949]],[[234.66168,105.88576],[0.64586,0.06083],[-1.39037,-0.35772]],[[230.47359,105.43541],[1.4007,-0.03143],[1.79531,1.13396]],[[237.55674,108.2806],[-1.08184,-1.96176],[0.831,1.50691]],[[237.68822,113.04379],[0.56043,-1.62216],[0.28199,0.29606]],[[237.97021,113.76987],[0,0],[0,2.88806]],[[239.43843,121.91166],[-0.35238,-2.82304],[0.52706,4.22245]],[[239.44592,135.02009],[0,-4.2592],[0,3.28113]],[[239.15078,144.75977],[0,-3.25081],[0,0.71775]],[[239.26333,147.72542],[-0.40285,-0.66519],[0.2711,0.44763]],[[240.75445,148.21676],[-0.47744,-0.2143],[0.08483,0.03807]],[[240.96064,148.47237],[-0.05953,-0.1011],[0.12179,0.00206]],[[241.32563,148.47785],[-0.12152,-0.00161],[0.21004,-0.35412]],[[241.29026,146.99872],[-0.05643,0.46355],[0.23958,-1.96805]],[[241.5854,141.09588],[-0.01152,2.0026],[0.31623,-1.26489]],[[242.27595,137.25733],[-0.15409,1.29241],[-0.14464,-0.24332]],[[242.33614,136.23624],[-0.28339,0.42508],[0.01814,-0.02721]],[[242.39141,136.15899],[-0.0187,0.02431],[0.60867,-6.63689]],[[243.67376,116.18361],[-1.57382,6.4484],[0.05486,-0.21941]],[[243.83832,115.52536],[-0.05486,0.21941],[-0.00806,-0.0657]],[[243.81556,115.32823],[0.0071,0.06572],[-0.29577,-0.06871]],[[243.05361,114.36016],[0,0.68277],[0,-0.63366]],[[243.74934,113.40932],[-0.29419,0.08504],[0.06817,-1.60492]],[[244.99242,109.08319],[-0.78194,1.20365],[1.54348,-2.29435]],[[251.90026,104.21825],[-2.81473,0.36369],[5.33112,-0.68882]],[[264.52549,113.30177],[1.55475,-6.69271],[0,0.90836]],[[263.85325,116.32893],[0.80685,-0.67288],[-0.00888,0.00741]],[[263.82628,116.35085],[0.0091,-0.0072],[-0.43117,3.10558]],[[259.07027,124.04646],[2.75014,-1.83343],[-1.97763,1.22977]],[[252.78569,124.50206],[2.19632,0.27454],[-2.12509,-0.26564]],[[246.88821,122.44581],[1.63156,1.64975],[-0.73633,-0.74455]],[[245.02148,119.68333],[0.4995,1.06659],[-0.77803,5.45851]],[[244.35874,136.41818],[0.47973,-5.54044],[1.84931,1.45159]],[[245.00613,141.67266],[2.24292,-1.83952],[1.40533,-0.0497]],[[249.18044,142.07441],[-1.2765,-0.53435],[2.44045,1.02158]],[[256.19835,145.55442],[-2.37262,-0.98942],[0.07581,-0.01535]],[[256.44957,145.53062],[-0.09193,0],[0.45828,0]],[[257.2906,145.96818],[-0.13449,-0.22754],[0.18833,0.06368]],[[257.85989,146.14765],[-0.19126,-0.05582],[0.33578,0.09801]],[[258.78238,146.53121],[-0.27789,-0.15561],[1.12602,-1.79645]]],&quot;closed&quot;:true}]}" fill="#999999" stroke="none" stroke-width="0.5"/><path d="M302.05707,122.16313c0.03504,1.38945 0.14317,2.78 0.04601,4.18999c-0.56246,8.1626 -1.9376,15.80247 -6.27377,22.7051c-3.26892,2.95723 -9.28557,0.71742 -9.95871,-3.66431c-1.42864,-9.29954 0.78381,-20.34312 2.43531,-29.48969c0.42488,-2.35314 0.36988,-5.30176 2.40682,-6.94701c2.4755,-1.9995 9.08412,0.14967 11.08143,2.15294c2.20244,2.20901 0.81301,8.06863 0.26293,11.05299z" fill="#c300f0" stroke="none" stroke-width="0.5"/><path d="M371.03307,131.13351c-0.41678,-0.47457 -0.294,-1.15453 -0.294,-1.15453l0.07075,-0.39188c0.45499,-2.51987 0.43038,-8.92522 3.32368,-9.91538c2.60015,-0.88984 5.94501,2.18395 8.2625,2.60239c3.26968,3.05509 1.90006,6.07474 1.187,10.02395c-1.62407,8.99467 -3.33769,19.1982 -10.57092,25.21457c-4.5409,-0.66757 -5.77118,-3.87702 -6.52443,-7.99825c-1.27476,-6.97456 2.46954,-12.25777 4.54541,-18.38087z" fill="#c300f0" stroke="none" stroke-width="0.5"/><path d="M297.73855,111.89185c-0.1402,-0.39064 -0.07141,-0.77164 -0.07141,-0.77164l0.14151,-0.78373c0.10675,-0.59123 0.58472,-3.45184 0.83625,-3.73306c2.24234,-2.50694 7.58701,0.04338 8.06344,2.91948c0.66893,4.03822 -1.82775,10.4485 -2.55968,14.50217c-1.28456,7.11435 -1.30389,14.02177 -3.38822,20.96927c-0.73316,2.44375 -3.37525,9.58627 -7.2503,6.19628c-1.5394,-1.3467 -0.76509,-5.73443 -0.88051,-7.63195c1.78342,-10.21282 1.57058,-21.70561 5.10891,-31.66684z" fill="#00b539" stroke="none" stroke-width="0.5"/><path d="M368.8083,123.93445c-0.53436,-0.47208 -0.39318,-1.25398 -0.39318,-1.25398l0.07076,-0.39186c0.37467,-2.03079 1.22272,-6.97532 3.3859,-7.89287c1.16311,-0.49336 5.48338,2.09693 5.99604,3.06403c1.06811,2.01486 0.04569,2.53306 -0.46324,4.17886c-0.87862,2.8413 -1.18394,5.89879 -2.39889,8.63395c-1.83683,4.00029 -3.11552,9.84023 -3.35529,14.27049c-0.15192,2.80742 0.90689,5.78038 -0.34943,8.51222c-1.1986,2.60631 -5.55195,6.91538 -7.87044,3.10009c-0.80611,-1.32652 -0.19232,-3.82942 -0.83523,-5.39897c0.85566,-5.68237 1.51236,-11.88512 3.0942,-17.40567c0.91987,-3.21034 2.19784,-6.23812 3.1188,-9.41631z" fill="#00b539" stroke="none" stroke-width="0.5"/><path d="M376.44666,146.35802c-2.89751,-1.72665 -1.17086,-4.62416 -1.17086,-4.62416l1.62789,-2.71562c5.26277,-12.62694 12.067,-25.0372 14.4959,-38.48934c1.70064,-9.35293 2.75852,-19.63233 1.74657,-29.05679c-0.32953,-3.06899 0.57731,-7.37175 -0.28638,-10.30355c-1.0125,-3.43694 -6.2019,-5.62474 -9.05198,-6.81677c-6.86413,-2.87083 -13.26019,-6.4504 -20.48235,-8.51008c-18.60652,-7.32568 -43.564,-13.15536 -58.09059,5.13258c-2.72381,3.42908 -4.18973,8.07297 -5.86659,12.0534c-4.27672,14.41184 -9.50913,28.91241 -10.76456,44.09508c-0.62598,7.57026 0.37425,15.2124 0.67743,22.78104c0,0 0.135,3.37027 -3.23526,3.50526c-3.37027,0.135 -3.50526,-3.23527 -3.50526,-3.23527c-0.31399,-7.83874 -1.32731,-15.74763 -0.66129,-23.5897c1.34025,-15.78057 6.66364,-30.84216 11.13665,-45.82705c1.96007,-4.68783 3.74097,-9.91622 6.92354,-13.96207c16.32507,-20.75327 44.21156,-15.79317 65.55384,-7.34138c6.22461,1.78171 12.00468,4.46615 17.75391,7.35616c5.85923,2.9453 13.61561,5.09351 16.00877,12.215c1.14436,3.40533 0.20756,8.12631 0.59525,11.70622c1.09135,10.07752 -0.02018,21.00227 -1.81309,30.99656c-2.54503,14.09529 -9.54126,27.13263 -15.11197,40.32991l-1.85538,3.12969c0,0 -1.72665,2.89751 -4.62417,1.17086z" fill="#82007c" stroke="none" stroke-width="0.5"/><path d="M281.28992,206.30512c-0.46429,-0.92713 -1.14808,-4.17464 -1.96613,-4.82723c-4.63766,-3.69963 -7.50075,-1.09938 -12.44859,-0.34923c-1.55469,-0.27175 -3.8409,-0.46137 -5.06349,-1.64859c-2.78535,-2.70477 -2.86993,-7.80464 -0.07798,-10.47087c1.70722,-1.63034 5.11085,-2.4542 5.83041,-4.9306c0.84054,-2.89276 -3.71684,-5.50445 -3.72614,-8.28002c-0.01194,-3.56521 4.53326,-5.47599 7.02024,-7.20223c0.21877,-0.15146 3.03902,-2.04879 3.26647,-2.40744c0.86641,-1.36617 0.19689,-4.12105 0.13115,-5.48956c-0.17332,-3.60772 -1.62209,-11.11265 0.24917,-14.35771c2.48328,-4.3064 9.69109,-4.77876 13.44843,-7.43448c0,0 1.38544,-0.96165 2.3471,0.42379c0.96165,1.38544 -0.42379,2.3471 -0.42379,2.3471c-3.32131,2.27271 -10.30116,3.00463 -12.53446,6.48753c-0.9883,1.54128 0.27407,5.43109 0.41273,7.04972c0.27455,3.2047 1.09276,9.75674 -0.69654,12.63786c-0.73253,1.1795 -3.08132,2.6822 -4.27696,3.51406c-0.85871,0.59604 -5.7571,3.11004 -5.5739,4.28157c0.5253,3.35941 4.7567,5.05624 3.63216,9.23422c-1.10437,4.10304 -7.68938,4.8293 -8.06255,8.73092c-0.05994,0.62671 1.19356,2.05001 1.3009,2.29279c0.45871,1.03757 1.74237,1.63816 2.85696,1.84948c2.14745,-0.28201 3.13793,-1.47528 5.30441,-1.8041c3.12769,-0.4747 7.14876,0.98775 9.45986,3.13127c2.01391,1.86788 2.09764,5.6133 3.58319,8.12745c-0.27666,1.21923 -0.50358,2.42923 -0.68622,3.65999c-1.30337,-1.08636 -2.25968,-2.47543 -3.30641,-4.56571z" fill="#00b539" stroke="none" stroke-width="0.5"/><path d="M364.86969,112.36766c0,0 1.94758,0.78773 5.38433,2.4944c3.13908,1.55886 5.48937,3.38223 5.48937,3.38223l-0.02152,1.60067c0,0 -8.87512,-5.89368 -19.47724,-6.90399c-8.47721,-0.80779 -13.90252,1.34558 -13.90252,1.34558l1.06206,-5.53468c0,0 4.56096,-1.51295 10.88556,-0.57851c6.54907,0.96763 10.60061,2.72464 10.60061,2.72464z" data-paper-data="{&quot;index&quot;:null}" fill="#000000" stroke="none" stroke-width="1.5"/><path d="M310.64869,108.19357c0,0 4.90999,-1.60731 11.21183,-1.10393c6.98323,0.55779 10.32991,1.77429 10.32991,1.77429l-0.60009,5.56413c0,0 -4.92934,-1.82321 -10.52064,-2.61406c-7.47767,-1.05769 -9.16604,0.30954 -14.9225,-0.10157c-4.93244,-0.35226 -8.98322,-1.40423 -8.98322,-1.40423l0.26086,-1.64136c0,0 4.75564,0.9601 6.96528,1.16392c1.82376,0.16822 5.50349,-0.29241 5.50349,-0.29241z" fill="#000000" stroke="none" stroke-width="1.5"/></g></g></svg>