<svg version="1.1" xmlns="http://www.w3.org/2000/svg" xmlns:xlink="http://www.w3.org/1999/xlink" width="95.3338" height="234.65316" viewBox="0,0,95.3338,234.65316"><defs><linearGradient x1="400.78819" y1="171.50049" x2="392.51169" y2="306.79346" gradientUnits="userSpaceOnUse" id="color-1"><stop offset="0" stop-color="#d0d05b"/><stop offset="1" stop-color="#929240"/></linearGradient><linearGradient x1="461.03864" y1="175.31721" x2="452.76212" y2="310.61017" gradientUnits="userSpaceOnUse" id="color-2"><stop offset="0" stop-color="#d0d05b"/><stop offset="1" stop-color="#929240"/></linearGradient><linearGradient x1="431.68832" y1="171.66409" x2="426.99882" y2="248.32159" gradientUnits="userSpaceOnUse" id="color-3"><stop offset="0" stop-color="#919140"/><stop offset="1" stop-color="#89893c"/></linearGradient><linearGradient x1="428.39754" y1="215.46288" x2="422.3752" y2="313.90828" gradientUnits="userSpaceOnUse" id="color-4"><stop offset="0" stop-color="#89893c"/><stop offset="1" stop-color="#919140"/></linearGradient><linearGradient x1="420.48066" y1="130.27476" x2="419.75602" y2="142.12014" gradientUnits="userSpaceOnUse" id="color-5"><stop offset="0" stop-color="#000000"/><stop offset="1" stop-color="#000000" stop-opacity="0"/></linearGradient><linearGradient x1="419.75602" y1="142.12014" x2="420.48066" y2="130.27476" gradientUnits="userSpaceOnUse" id="color-6"><stop offset="0" stop-color="#000000"/><stop offset="1" stop-color="#000000" stop-opacity="0"/></linearGradient><linearGradient x1="448.21359" y1="131.79517" x2="447.48895" y2="143.64055" gradientUnits="userSpaceOnUse" id="color-7"><stop offset="0" stop-color="#000000"/><stop offset="1" stop-color="#000000" stop-opacity="0"/></linearGradient><linearGradient x1="447.48895" y1="143.64055" x2="448.21359" y2="131.79517" gradientUnits="userSpaceOnUse" id="color-8"><stop offset="0" stop-color="#000000"/><stop offset="1" stop-color="#000000" stop-opacity="0"/></linearGradient><linearGradient x1="411.04699" y1="132.63618" x2="416.31161" y2="132.95824" gradientUnits="userSpaceOnUse" id="color-9"><stop offset="0" stop-color="#ffffff"/><stop offset="1" stop-color="#ffffff" stop-opacity="0"/></linearGradient><linearGradient x1="410.95162" y1="134.19473" x2="414.39023" y2="134.40511" gradientUnits="userSpaceOnUse" id="color-10"><stop offset="0" stop-color="#ffffff"/><stop offset="1" stop-color="#ffffff" stop-opacity="0"/></linearGradient></defs><g transform="translate(-379.88225,-79.32319)"><g stroke-miterlimit="10"><path d="M460.548,173.55318c-0.47726,5.19896 -13.3662,5.80021 -29.14923,4.47201c-14.53069,-1.22281 -26.28978,-2.66 -27.67782,-7.43642c-0.11962,-0.41166 -0.62406,-1.15082 -0.5862,-1.56334c0.47726,-5.19896 14.19824,-6.54616 29.98126,-5.21797c5.2447,0.44135 16.3627,1.82183 22.73554,4.5957c3.04974,1.32745 4.77503,4.29406 4.69644,5.15003z" fill="#47471f" stroke="none" stroke-width="0" stroke-linecap="butt"/><path d="M387.12036,302.56923c0,0 4.69152,-86.20857 5.86697,-107.79004c0.40558,-7.44643 9.5279,-33.10604 38.76684,-31.46381c28.86197,1.62105 34.7425,29.14796 34.32146,35.91263c-2.65272,42.21564 -5.99251,107.75895 -5.99251,107.75895l-9.5889,-0.49849l6.26932,-104.86137c0,0 0.24203,-2.82547 -2.39508,-3.03706c-3.132,-0.25129 -2.86317,2.68008 -2.86317,2.68008l-6.2282,104.88849l-44.02341,-2.62694l6.15728,-105.22561c0,0 0.41821,-2.64945 -2.47068,-2.84032c-2.83936,-0.18759 -2.73322,2.49866 -2.73322,2.49866l-6.10442,105.07645z" fill="#ffffff" stroke="#000000" stroke-width="2" stroke-linecap="butt"/><path d="M405.63131,171.79676c6.45427,0.39484 6.08558,20.3648 4.67897,43.35813c-1.17916,19.27523 -13.29151,91.6867 -13.29151,91.6867c0,0 -11.48953,-0.11592 -14.61581,-1.01846c-4.52769,-1.30714 2.29642,-36.9091 4.38716,-64.97791c0.77805,-10.44539 1.48732,-22.06183 1.86881,-28.29783c1.40661,-22.99332 10.51811,-41.14545 16.97239,-40.75061z" fill="url(#color-1)" stroke="#adad4c" stroke-width="2" stroke-linecap="butt"/><path d="M456.1955,175.02094c6.45428,0.39484 13.28522,19.52225 11.87862,42.51556c-0.38148,6.236 -1.09346,17.85228 -1.59445,28.31462c-1.34623,28.11435 1.08734,64.28266 -3.56592,65.02816c-3.21299,0.51475 -14.63097,-0.77071 -14.63097,-0.77071c0,0 -3.19558,-73.34794 -2.01641,-92.62316c1.40661,-22.99333 3.47488,-42.85931 9.92914,-42.46448z" fill="url(#color-2)" stroke="#adad4c" stroke-width="2" stroke-linecap="butt"/><path d="M456.07278,211.1205c-1.05907,17.31223 -1.06916,39.09641 -29.79623,37.15576c-28.17891,-1.90362 -25.73888,-23.1761 -24.67981,-40.48831c0.54132,-8.84874 -3.16309,-30.844 2.30935,-36.23028c5.23419,-5.15175 19.49209,6.1001 26.84629,6.55c8.13772,0.49783 24.59956,-7.93588 29.19236,-1.11943c3.8973,5.78423 -3.38578,26.18524 -3.87194,34.13225z" fill="url(#color-3)" stroke="#8d8d3e" stroke-width="2" stroke-linecap="butt"/><path d="M460.17214,173.70454c-0.47726,5.19895 -7.53947,14.35985 -30.23189,12.05791c-22.85217,-2.31814 -27.40079,-11.66878 -26.92353,-16.86773c0.17818,-1.94104 5.31424,-4.00625 10.42755,-2.87067c4.61897,1.02578 6.42242,6.04044 9.58714,8.68546c2.58236,2.1583 13.069,2.91863 13.069,2.91863c0,0 7.31124,-7.42295 13.53912,-9.09349c4.16868,-1.11819 10.69121,3.44242 10.53263,5.16988z" fill="#6e6e30" stroke="none" stroke-width="0" stroke-linecap="butt"/><path d="M452.07081,311.69239c0,0 -19.5998,2.70986 -29.47825,2.22612c-9.76815,-0.47834 -29.46529,-5.11254 -29.46529,-5.11254c0,0 8.03862,-73.00237 8.57994,-81.85111c1.05907,-17.31222 53.17248,-14.30748 52.11341,3.00474c-0.48615,7.94704 -1.74978,81.7328 -1.74978,81.7328z" fill="url(#color-4)" stroke="none" stroke-width="0" stroke-linecap="butt"/><path d="M412.64923,227.47986l2.93228,-47.93283l4.56504,0.27927l-2.93228,47.93283z" fill="#6e6e30" stroke="none" stroke-width="0" stroke-linecap="butt"/><path d="M439.66185,224.09202l2.62508,-42.9113l4.56504,0.27927l-2.62508,42.9113z" fill="#6e6e30" stroke="none" stroke-width="0" stroke-linecap="butt"/><path d="M418.65844,230.36764c-0.16195,2.64727 -2.18377,4.67763 -4.51589,4.53495c-2.33211,-0.14266 -4.09138,-2.40433 -3.92943,-5.0516c0.16195,-2.64727 2.18377,-4.67763 4.51589,-4.53496c2.33211,0.14266 4.09138,2.40434 3.92943,5.0516z" fill="#6e6e30" stroke="none" stroke-width="0" stroke-linecap="butt"/><path d="M445.96915,225.8525c-0.16195,2.64727 -2.18379,4.67763 -4.51589,4.53495c-2.33211,-0.14266 -4.09138,-2.40434 -3.92943,-5.0516c0.16195,-2.64727 2.18377,-4.67763 4.51589,-4.53495c2.33209,0.14266 4.09138,2.40434 3.92943,5.0516z" fill="#6e6e30" stroke="none" stroke-width="0" stroke-linecap="butt"/><path d="M399.23647,296.92935c0,0 3.27073,-11.52715 4.11528,-17.60766c0.78952,-5.68428 1.58059,-17.71895 1.58059,-17.71895c0,0 14.09822,2.6953 21.58849,3.15352c6.92054,0.42336 19.56201,-0.63614 19.56201,-0.63614c0,0 -0.28242,13.65249 -0.14111,19.76741c0.13344,5.77402 2.40145,16.0459 2.40145,16.0459c0,0 -17.73072,3.49746 -26.51189,2.96026c-7.32053,-0.44783 -22.5948,-5.96434 -22.5948,-5.96434z" fill="#818139" stroke="none" stroke-width="0" stroke-linecap="butt"/><path d="M393.72114,121.12885c0,0 5.95788,-5.06247 6.1234,-5.84573c0.43409,-2.05432 2.09063,-36.68773 35.1608,-35.94826c40.80429,1.65892 33.64651,34.45269 35.56151,40.83963c2.62576,8.75745 4.6492,16.23033 4.6492,16.23033c0,0 -2.41173,-2.02942 -3.54976,-3.0892c-1.06142,-0.98844 -3.29503,-3.08451 -3.29503,-3.08451c0,0 2.24423,9.62053 0.04101,18.96787c-1.95594,8.56894 -7.62504,15.31932 -7.62504,15.31932l-0.92361,-2.20766c0,0 -1.05646,1.94961 -2.15828,2.92217c-1.10183,0.97254 -3.30226,2.46728 -3.30226,2.46728l0.12286,-3.38711c0,0 -7.06131,9.66512 -22.83952,8.56573c-14.87344,-1.14399 -23.20721,-11.2027 -23.20721,-11.2027l-0.25437,2.41739c0,0 -3.37204,-3.22385 -5.1015,-9.2083c-2.06133,-7.13277 -2.27384,-11.35908 -2.27384,-11.35908c0,0 -2.24166,1.60331 -5.37465,2.21373c-3.92581,0.76491 -6.36162,-0.07278 -6.36162,-0.07278c0,0 3.44585,-2.27927 5.3646,-4.04305c1.70908,-1.57104 2.60497,-2.93561 2.60497,-2.93561c0,0 -1.98481,0.87262 -3.95491,1.24078c-2.05557,0.38415 -3.70914,0.25965 -3.70914,0.25965c0,0 4.82348,-4.32121 7.02648,-9.53562c2.07998,-4.92324 2.52905,-9.88683 2.52905,-9.88683c0,0 -1.28015,0.52801 -3.08483,0.53996c-1.14393,0.00757 -2.16827,-0.17745 -2.16827,-0.17745z" fill="#000000" stroke="none" stroke-width="1.5" stroke-linecap="butt"/><path d="M408.41443,132.4031c-0.11954,-6.691 1.26398,-15.64344 1.26398,-15.64344c0,0 3.1162,0.15284 12.87944,-2.09356c7.50074,-1.72585 19.28972,-7.51427 19.28972,-7.51427c0,0 -2.13998,2.62297 -3.36046,3.88181c-1.29752,1.3383 -3.90042,3.943 -3.90042,3.943c0,0 7.24928,-1.08476 13.66229,-3.49826c8.02046,-2.74959 10.00913,-4.93489 12.08033,-3.46985c2.44453,1.72911 -0.35437,21.22348 -0.9493,26.2805c-0.70159,5.15249 -2.84348,8.53178 -3.57556,11.25536c-0.73208,2.72358 -0.71672,5.5799 -2.91017,14.52113c-1.36886,5.57995 -4.29824,7.91582 -9.96664,12.82581c-5.66839,4.90999 -8.78295,7.94214 -12.40213,7.78395c-3.48296,-0.15222 -7.87345,-5.1556 -12.14324,-10.25756c-4.54663,-5.43278 -7.62936,-8.23535 -8.02472,-14.36532c-0.35607,-5.52068 -0.15555,-9.08992 -0.17333,-13.98455c-0.01299,-3.57736 -1.70451,-6.01065 -1.76981,-9.66474z" fill="#ffffff" stroke="#000000" stroke-width="1.5" stroke-linecap="butt"/><path d="M452.76,120.95379c0,0 1.37392,0.37553 3.82356,1.25141c2.23747,0.80002 3.96488,1.84082 3.96488,1.84082l0.11276,1.07943c0,0 -6.44414,-3.26259 -13.66283,-3.09993c-5.77189,0.13008 -9.25353,2.01126 -9.25353,2.01126l0.27507,-3.81091c0,0 2.95059,-1.38128 7.2832,-1.25494c4.4864,0.13084 7.35397,0.99171 7.35397,0.99171z" fill="#000000" stroke="none" stroke-width="1.5" stroke-linecap="butt"/><path d="M439.09245,159.81795c0.50895,0.22529 2.73715,1.44991 5.35483,2.70649c2.63852,1.26659 6.45801,2.49636 6.43086,2.64825c-0.03449,0.19277 -9.53968,-0.3756 -12.52466,-0.18678c-2.50146,0.15822 -6.1462,0.27068 -6.1462,0.27068c0,0 -6.42112,-1.45741 -11.98116,-2.9738c-4.45618,-1.21533 -9.40184,-2.09741 -9.40636,-2.18339c-0.0061,-0.11596 3.57152,-0.43283 6.3084,-0.89219c1.0739,-0.38942 5.04943,-1.05211 5.04943,-1.05211c0,0 4.54022,0.0233 6.91405,0.95358c2.54352,0.99678 2.4522,2.39119 2.67698,2.42647c0,0 1.17903,-1.531 2.28034,-1.78922c1.10131,-0.25822 4.66333,-0.09626 5.04351,0.07202z" fill="#ffffff" stroke="#000000" stroke-width="1.4" stroke-linecap="butt"/><path d="M421.81236,162.93388c4.59089,1.22178 10.72401,3.22878 10.72401,3.22878c0,0 5.37299,-1.09713 7.81442,-1.20305c1.89279,-0.08212 10.27974,-0.01862 10.29933,0.32418c0.01916,0.33518 -8.96606,11.27366 -20.00355,10.18313c-12.54734,-1.16693 -20.03015,-15.09594 -19.98616,-15.24825c0.04399,-0.15231 6.56104,1.49343 11.15195,2.71522z" fill="#ffffff" stroke="#000000" stroke-width="1.9" stroke-linecap="butt"/><path d="M431.99915,160.81355c-0.94383,-0.05774 -3.0482,-3.17439 -3.15769,-5.10859c-0.09798,-1.73057 1.41453,-3.42153 3.67109,-3.28348c2.25658,0.13805 3.80914,0.68277 3.44546,4.04924c-0.30864,2.85702 -1.70228,4.48089 -3.95885,4.34284z" fill="#ffffff" stroke="#000000" stroke-width="1.15" stroke-linecap="butt"/><path d="M436.96872,133.539c0,0 -0.12805,3.63015 -0.39279,6.50697c-0.5242,5.69661 -2.53791,25.28529 -2.53791,25.28529l-2.72276,-0.15865c0,0 -0.50003,-3.85459 -0.49491,-8.7361c0.00691,-6.60756 0.49963,-14.90091 0.39949,-17.96705c-0.09491,-2.90642 -0.49882,-5.26745 -0.49882,-5.26745" fill="#ffffff" stroke="#000000" stroke-width="1.3" stroke-linecap="round"/><path d="M409.40079,141.74059c0,0 -4.30662,-3.48656 -5.12665,-8.53853c-0.86284,-5.31565 -0.79046,-8.96772 0.99644,-9.09588c1.7869,-0.12819 2.33529,2.32112 2.94122,7.83728c0.60592,5.51615 1.18901,9.79715 1.18901,9.79715z" fill="#ffffff" stroke="#000000" stroke-width="1" stroke-linecap="butt"/><path d="M409.43629,138.12513c0,0 -3.09054,-2.86811 -3.47052,-7.95664c-0.21197,-2.83855 2.09648,-1.96134 2.09648,-1.96134" fill="none" stroke="#000000" stroke-width="0.25" stroke-linecap="round"/><path d="M412.55933,132.21655c0.33799,-4.46237 4.91654,-7.88847 9.81779,-7.51726c4.90125,0.37122 8.00465,4.38301 7.66666,8.84537c-0.33799,4.46237 -4.256,7.79901 -9.15725,7.42782c-4.90125,-0.37122 -8.6652,-4.29356 -8.32721,-8.75593z" fill="#ffffff" stroke="#000000" stroke-width="1.4" stroke-linecap="butt"/><path d="M416.60432,132.57208c0.19058,-2.51623 2.38487,-4.40152 4.90109,-4.21094c2.51623,0.19058 4.40153,2.38487 4.21095,4.90109c-0.19058,2.51623 -2.38486,4.40153 -4.90109,4.21095c-2.51623,-0.19058 -4.40153,-2.38488 -4.21095,-4.9011z" fill="#000000" stroke="none" stroke-width="1.5" stroke-linecap="butt"/><path d="M437.26183,133.7284c0.45884,-4.45156 4.56007,-7.83915 9.41529,-7.54212c4.85521,0.29701 8.24619,4.13905 7.97293,8.60584c-0.27326,4.46679 -4.05446,8.06488 -9.36643,7.80484c-5.05266,-0.24734 -8.50097,-4.21956 -8.02178,-8.86856z" fill="#ffffff" stroke="#000000" stroke-width="1.4" stroke-linecap="butt"/><path d="M441.4594,134.06357c0.15742,-2.57326 2.37107,-4.53169 4.94433,-4.37427c2.57326,0.15742 4.53169,2.37106 4.37427,4.94432c-0.15742,2.57326 -2.37106,4.5317 -4.94433,4.37428c-2.57326,-0.15742 -4.53169,-2.37107 -4.37427,-4.94433z" fill="#000000" stroke="none" stroke-width="1.5" stroke-linecap="butt"/><path d="M412.52656,131.72685c0,0 0.56156,-8.22731 10.17178,-7.46509c8.63783,0.68041 8.19886,9.12257 8.19886,9.12257z" fill="#ffffff" stroke="#000000" stroke-width="1.15" stroke-linecap="butt"/><path d="M436.9395,133.34026c0,0 0.30287,-8.64918 10.7324,-7.68584c8.85056,0.84703 8.17716,9.34582 8.17716,9.34582z" fill="#ffffff" stroke="#000000" stroke-width="1.15" stroke-linecap="butt"/><path d="M416.54891,120.21534c0,0 3.17809,-1.47254 7.46112,-1.63464c4.74612,-0.17962 7.09614,0.37336 7.09614,0.37336l0.03831,3.79402c0,0 -3.46385,-0.83566 -7.29132,-0.92362c-5.11878,-0.11763 -6.14685,0.93714 -10.05534,1.118c-3.349,0.15497 -6.16,-0.23127 -6.16,-0.23127l0.04516,-1.12587c0,0 3.27828,0.26835 4.78222,0.22991c1.24131,-0.03173 3.68224,-0.63442 3.68224,-0.63442z" fill="#000000" stroke="none" stroke-width="1.5" stroke-linecap="butt"/><path d="M459.50868,135.08151c1.27378,-5.40116 2.11664,-7.76535 3.87459,-7.42033c1.75795,0.34502 1.38463,3.97868 -0.11971,9.14952c-1.42972,4.91435 -6.12921,7.84996 -6.12921,7.84996c0,0 1.10056,-4.178 2.37434,-9.57916z" fill="#ffffff" stroke="#000000" stroke-width="1" stroke-linecap="butt"/><path d="M460.11254,131.3913c0,0 2.39816,-0.58928 1.84178,2.20226c-0.99741,5.00427 -4.41449,7.47428 -4.41449,7.47428" fill="none" stroke="#000000" stroke-width="0.25" stroke-linecap="round"/><g stroke-linecap="butt"><g stroke="#000000" stroke-width="1"><path d="M408.67543,141.44229l0.72464,-11.84538l21.16515,1.29477l0.43201,12.0042z" fill="url(#color-5)"/><path d="M430.56522,130.89169l0.27137,11.9063c0,0 -7.67228,-0.2194 -11.38632,-0.44662c-3.67255,-0.22466 -10.77484,-0.90908 -10.77484,-0.90908l0.72464,-11.84538z" fill="url(#color-6)"/></g><g stroke="#000000" stroke-width="1"><path d="M436.23699,143.04028l1.89201,-11.86202l21.16516,1.29477l-3.22003,11.78078z" fill="url(#color-7)"/><path d="M459.62616,132.49332l-3.47439,11.8533c0,0 -6.45585,0.04686 -9.73172,-0.18277c-3.30502,-0.23167 -10.01169,-1.20118 -10.01169,-1.20118c0,0 0.62367,-9.13636 0.7366,-10.79046c0.0337,-0.49391 0.06568,-0.9621 0.06568,-0.9621z" fill="url(#color-8)"/></g><path d="M430.50867,133.17809l0.16103,-2.63232l7.05506,0.4316l-0.16104,2.63232c0,0 -2.32504,-1.37524 -3.49388,-1.44675c-1.18268,-0.07235 -3.56116,1.01515 -3.56116,1.01515z" fill="#000000" stroke="none" stroke-width="0"/></g><path d="M410.99876,133.42467l0.09647,-1.57701l5.2646,0.32206l-0.09647,1.57701z" fill="url(#color-9)" stroke="none" stroke-width="0" stroke-linecap="butt"/><path d="M410.90341,134.98325l0.09647,-1.57703l3.43859,0.21036l-0.09647,1.57702z" fill="url(#color-10)" stroke="none" stroke-width="0" stroke-linecap="butt"/></g></g></svg>