<svg version="1.1" xmlns="http://www.w3.org/2000/svg" xmlns:xlink="http://www.w3.org/1999/xlink" width="76.35562" height="40.79266" viewBox="0,0,76.35562,40.79266"><defs><radialGradient cx="240" cy="180.00001" r="19.39634" gradientUnits="userSpaceOnUse" id="color-1"><stop offset="0" stop-color="#ffff70"/><stop offset="1" stop-color="#c2bb57"/></radialGradient><linearGradient x1="239.64286" y1="162.09524" x2="239.64286" y2="182.66667" gradientUnits="userSpaceOnUse" id="color-2"><stop offset="0" stop-color="#23230f"/><stop offset="1" stop-color="#f6f56c"/></linearGradient></defs><g transform="translate(-183.45688,-159.60368)"><g data-paper-data="{&quot;isPaintingLayer&quot;:true}" fill-rule="nonzero" stroke-linejoin="miter" stroke-miterlimit="10" stroke-dasharray="" stroke-dashoffset="0" style="mix-blend-mode: normal"><path d="M258.8125,180.00001c0,10.7123 -8.42264,19.39633 -18.8125,19.39633c-10.38986,0 -18.8125,-8.68403 -18.8125,-19.39633c0,-10.7123 8.42264,-19.39633 18.8125,-19.39633c10.38986,0 18.8125,8.68403 18.8125,19.39633z" fill="url(#color-1)" stroke="#23230f" stroke-width="2" stroke-linecap="butt"/><path d="M222.5,178.19048c-0.5428,-0.87332 1.71429,-9.57143 1.71429,-9.57143c0,0 5.79483,-7.19442 15.80787,-7.55303c9.33066,-0.33417 16.52546,8.36255 16.52546,8.36255c0,0 1.44716,8.00827 0.33333,9c-2.62503,2.33727 -10.73436,3.25621 -16.85668,3.19317c-6.20977,-0.06393 -16.51604,-1.8091 -17.52427,-3.43127z" fill="url(#color-2)" stroke="none" stroke-width="0" stroke-linecap="butt"/><path d="M238.18985,172.96667c0,3.95804 -3.23847,7.16667 -7.23333,7.16667c-3.99486,0 -7.23333,-3.20863 -7.23333,-7.16667c0,-3.95804 3.23847,-7.16667 7.23333,-7.16667c3.99486,0 7.23333,3.20863 7.23333,7.16667z" fill="#ffffff" stroke="#23230f" stroke-width="1.5" stroke-linecap="butt"/><path d="M256.66811,172.92318c0,3.95804 -3.23847,7.16667 -7.23333,7.16667c-3.99486,0 -7.23333,-3.20863 -7.23333,-7.16667c0,-3.95804 3.23847,-7.16667 7.23333,-7.16667c3.99486,0 7.23333,3.20863 7.23333,7.16667z" fill="#ffffff" stroke="#23230f" stroke-width="1.5" stroke-linecap="butt"/><g fill="none" stroke="#23230f" stroke-width="1.5" stroke-linecap="butt"><path d="M234.34928,172.43913c0,2.74301 -1.47746,4.96667 -3.3,4.96667c-1.82254,0 -3.3,-2.22365 -3.3,-4.96667c0,-2.74301 1.47746,-4.96667 3.3,-4.96667c1.82254,0 3.3,2.22365 3.3,4.96667z"/><path d="M231.63044,172.65217c0,0.9605 -0.32119,1.73913 -0.71739,1.73913c-0.3962,0 -0.71739,-0.77864 -0.71739,-1.73913c0,-0.9605 0.32119,-1.73913 0.71739,-1.73913c0.3962,0 0.71739,0.77864 0.71739,1.73913z"/></g><g fill="none" stroke="#23230f" stroke-width="1.5" stroke-linecap="butt"><path d="M252.6971,172.4826c0,2.74301 -1.47746,4.96667 -3.3,4.96667c-1.82254,0 -3.3,-2.22365 -3.3,-4.96667c0,-2.74301 1.47746,-4.96667 3.3,-4.96667c1.82254,0 3.3,2.22365 3.3,4.96667z"/><path d="M249.97826,172.69564c0,0.9605 -0.32119,1.73913 -0.71739,1.73913c-0.3962,0 -0.71739,-0.77864 -0.71739,-1.73913c0,-0.9605 0.32119,-1.73913 0.71739,-1.73913c0.3962,0 0.71739,0.77864 0.71739,1.73913z"/></g><g stroke="#23230f" stroke-width="1" stroke-linecap="round"><g><path d="M246.21124,192.65165l-6.78425,-1.1411l-6.35943,0.42738l-5.54569,-8.66899l8.76131,2.40872l6.28421,-0.81545l1.82663,0.49149l8.87243,-3.2498z" fill="#ffffff"/><path d="M254.53031,181.17576l-9.63637,4.27273l-1.81818,-0.63636l-7.18182,0.54546l-10.27273,-3.18182" fill="none"/><path d="M230.98485,188.26667l6,-0.45454l3.0909,0.81818l2.45455,-0.27272l5.36364,1" fill="none"/><path d="M252.43939,183.08485l-6.63636,9.36364l1.81818,-3.63636l4.18182,-5.36364" fill="none"/><path d="M229.34849,184.35758l3,3.72727l0.18182,2.27273l-4,-6.54546" fill="none"/><path d="M234.5303,193.90304l-2.63636,0.45455l-1.45454,-2.45455" fill="none"/><path d="M248.4394,192.5394l-1.45454,1.90909l-2.54546,-0.63636" fill="none"/><path d="M233.89394,195.26667l0.81818,-0.18182" fill="none"/><path d="M244.34849,195.08486l1,0.36363" fill="none"/></g><path d="M245.03334,187.73334l-0.53333,1.73333" fill="none"/><path d="M234.3,187.33334l0.2,1" fill="none"/><path d="M226.43334,183.53334l-1.06667,-1.26667l1.46667,-0.6" fill="none"/><path d="M252.56667,181.13334h2.2l-0.93333,1.66667" fill="none"/></g><g stroke="none" stroke-width="0.5" stroke-linecap="butt"><path d="M189.20109,172.00137c1.0318,-0.424 2.05081,-0.87346 3.02948,-1.37859c0.59252,-0.30582 1.86888,-0.68138 2.5356,-0.67186c0.88407,0.01263 0.30659,5.8142 -0.73468,8.36734c-0.07797,1.27747 -0.23806,2.54726 -0.77308,3.15326c-2.53283,2.86896 -5.23229,-0.90889 -7.17857,-2.47459c-0.2162,-0.17392 -2.98918,-3.83504 -2.58227,-4.69288c0.29996,-0.6324 1.28462,-0.55673 1.93495,-0.81552c0.38251,-0.15221 0.76792,-0.30285 1.1548,-0.4535c0.31421,-3.32803 2.24134,-6.17731 4.22586,-9.20444c2.84183,-3.50023 5.42605,-3.636 9.66958,-3.45149c7.39413,0.32149 14.78411,3.60529 17.05167,11.10965c3.341,11.18555 -13.00691,19.07278 -21.81002,14.89635c0,0 -1.10498,-0.53018 -0.5748,-1.63514c0.53018,-1.10498 1.63514,-0.5748 1.63514,-0.5748c5.89649,2.8668 15.13756,-0.7634 17.78537,-6.66218c0.83458,-1.85929 1.25995,-3.32936 0.61936,-5.3105c-1.92216,-6.48622 -8.49389,-9.10131 -14.81368,-9.37456c-3.38604,-0.14641 -5.31232,-0.36302 -7.5827,2.4477c-1.47962,2.25857 -3.0203,4.28717 -3.59203,6.72576z" fill="#262610"/><path d="M189.85395,173.82927c1.0318,-0.424 2.05081,-0.87346 3.02948,-1.37859c0.59252,-0.30582 1.86888,-0.68138 2.5356,-0.67186c0.88407,0.01263 0.30659,5.8142 -0.73468,8.36734c-0.07797,1.27747 -0.23806,2.54726 -0.77308,3.15326c-2.53283,2.86896 -5.23229,-0.90889 -7.17857,-2.47459c-0.2162,-0.17392 -2.98918,-3.83504 -2.58227,-4.69288c0.29996,-0.6324 1.28462,-0.55673 1.93495,-0.81552c0.38251,-0.15221 0.76792,-0.30285 1.1548,-0.4535c0.31421,-3.32803 2.24134,-6.17731 4.22586,-9.20444c2.84183,-3.50023 5.42605,-3.636 9.66958,-3.45149c7.39413,0.32149 14.78411,3.60529 17.05167,11.10965c3.341,11.18555 -13.00691,19.07278 -21.81002,14.89635c0,0 -1.10498,-0.53018 -0.5748,-1.63514c0.53018,-1.10498 1.63514,-0.5748 1.63514,-0.5748c5.89649,2.8668 15.13756,-0.7634 17.78537,-6.66218c0.83458,-1.85929 1.25995,-3.32936 0.61936,-5.3105c-1.92216,-6.48622 -8.49389,-9.10131 -14.81368,-9.37456c-3.38604,-0.14641 -5.31232,-0.36302 -7.5827,2.4477c-1.47962,2.25857 -3.0203,4.28717 -3.59203,6.72576z" fill="#6d6d2f"/></g></g></g></svg>