<svg version="1.1" xmlns="http://www.w3.org/2000/svg" xmlns:xlink="http://www.w3.org/1999/xlink" width="131.12412" height="452.20625" viewBox="0,0,131.12412,452.20625"><g transform="translate(-259.68635,89.92537)"><g data-paper-data="{&quot;isPaintingLayer&quot;:true}" fill-rule="nonzero" stroke-linejoin="miter" stroke-miterlimit="10" stroke-dasharray="" stroke-dashoffset="0" style="mix-blend-mode: normal"><path d="M342.86134,34.44425l6.21785,125.0499l-65.55207,-2.83149l19.17202,-116.37539l41.80563,-8.80317z" fill="#b5b54a" stroke="#b5b54a" stroke-width="2.5" stroke-linecap="round"/><path d="M376.57771,24.79505l-5.53761,-0.39789l-96.11687,-7.41228c0,0 -5.28298,-11.29244 -7.19917,-24.41577c-1.27465,-8.72957 0.05262,-18.18937 1.36371,-25.96558c1.36902,-8.1198 5.57316,-15.7195 15.75684,-25.30652c11.05501,-10.40729 30.36411,-19.52532 44.5738,-19.0546c12.2233,0.40492 30.42056,6.9205 41.08269,16.80768c11.7521,10.89791 17.57822,25.61821 19.24118,33.21508c5.68356,25.96414 -13.16456,52.52989 -13.16456,52.52989z" fill="#fafab0" stroke="none" stroke-width="0" stroke-linecap="round"/><path d="M345.19723,236.3658l11.60849,124.66508h-65.61319l14.13207,-117.09433l41.38678,-10.59906z" fill="#e5e61c" stroke="#e5e61c" stroke-width="2.5" stroke-linecap="round"/><path d="M307.76663,124.15562l2.51116,-47.53098c0,0 10.29413,-0.54357 14.76003,0.68648c4.7242,1.3012 7.62542,6.00634 7.62542,6.00634l0.52933,8.95526c0,0 -4.30712,10.74441 -9.77073,10.13531c-4.18604,-0.46667 -13.73353,-1.53106 -13.73353,-1.53106" fill="none" stroke="#29291b" stroke-width="2.5" stroke-linecap="round"/><path d="M326.65168,327.25572l0.43867,-39.91981" fill="none" stroke="#29291b" stroke-width="2.5" stroke-linecap="round"/><path d="M306.94163,292.74569l38.18971,-10.11864" fill="none" stroke="#29291b" stroke-width="2.5" stroke-linecap="round"/><path d="M373.27864,30.41991c0,0 -6.7729,9.63683 -19.17894,17.11784c-9.01708,5.43741 -22.30726,9.38216 -31.82106,9.38216c-9.34741,0 -21.2711,-2.78196 -30.28234,-8.09756c-12.77913,-7.53822 -21.21766,-18.40244 -21.21766,-18.40244z" fill="#fafab0" stroke="none" stroke-width="0" stroke-linecap="round"/><path d="M316.91988,-18.18774c-0.50942,7.08978 -3.62704,12.64285 -6.96341,12.40312c-3.33637,-0.23973 -5.62806,-6.18147 -5.11864,-13.27125c0.50942,-7.08978 3.62704,-12.64285 6.96341,-12.40312c3.33637,0.23973 5.62806,6.18147 5.11864,13.27125z" fill="#29291b" stroke="#29291b" stroke-width="2.5" stroke-linecap="butt"/><path d="M353.81401,-14.79432c-0.50942,7.08978 -3.62704,12.64285 -6.96341,12.40312c-3.33637,-0.23973 -5.62806,-6.18147 -5.11864,-13.27125c0.50942,-7.08978 3.62704,-12.64285 6.96341,-12.40312c3.33637,0.23973 5.62806,6.18147 5.11864,13.27125z" fill="#29291b" stroke="#29291b" stroke-width="2.5" stroke-linecap="butt"/><path d="M297.97612,-87.07861l15.19655,5.79724l0.59626,-8.29839l19.60378,6.96942l-0.04461,-2.35585l14.92262,6.63306l-0.13508,-4.07339l23.80845,19.89034l-42.7063,-6.91837l6.19867,6.00622l-22.14311,-4.37145l8.24875,10.21721l-23.49371,-9.38771l-0.25991,3.61726l-13.36948,-13.36556l21.17221,0.02413z" fill="#fcfc00" stroke="#fcfc00" stroke-width="0.5" stroke-linecap="round"/><path d="M374.0267,211.63165l-5.54188,0.33329l-96.25736,5.28337c0,0 -6.72118,-10.50023 -10.34539,-23.25793c-2.4108,-8.48635 -2.33821,-18.03854 -2.06043,-25.9196c0.29007,-8.2293 3.45901,-16.31558 12.29448,-27.15775c9.59144,-11.76985 27.53482,-23.34634 41.68312,-24.74709c12.17051,-1.20494 31.06619,2.86271 42.93521,11.26295c13.08234,9.25898 20.79243,23.08596 23.43932,30.3984c9.04639,24.99204 -6.14708,53.80435 -6.14708,53.80435z" fill="#fafab0" stroke="none" stroke-width="0" stroke-linecap="round"/><path d="M375.27865,220.41992c0,0 -6.77291,9.63683 -19.17894,17.11784c-9.01708,5.43741 -22.30726,9.38216 -31.82106,9.38216c-9.34741,0 -21.2711,-2.78196 -30.28234,-8.09756c-12.77913,-7.53823 -21.21766,-18.40245 -21.21766,-18.40245z" fill="#fafab0" stroke="none" stroke-width="0" stroke-linecap="round"/><path d="M309.23761,176.86168c0.42671,7.09524 -1.93411,13.00985 -5.27304,13.21066c-3.33894,0.20081 -6.3916,-5.38824 -6.81831,-12.48348c-0.42671,-7.09524 1.93411,-13.00985 5.27304,-13.21066c3.33894,-0.20081 6.3916,5.38824 6.81831,12.48348z" fill="#29291b" stroke="#29291b" stroke-width="2.5" stroke-linecap="butt"/><path d="M346.25772,175.37716c0.42671,7.09524 -1.93411,13.00985 -5.27304,13.21066c-3.33894,0.20081 -6.3916,-5.38824 -6.81831,-12.48348c-0.42671,-7.09524 1.93411,-13.00985 5.27304,-13.21066c3.33894,-0.20081 6.3916,5.38824 6.81831,12.48348z" fill="#29291b" stroke="#29291b" stroke-width="2.5" stroke-linecap="butt"/><path d="M281.40474,111.05781l15.82661,3.74989l-0.49946,-8.30477l20.34965,4.33271l-0.35382,-2.32956l15.6649,4.61445l-0.66922,-4.02031l26.21589,16.58901l-43.24511,-1.24604l6.93422,5.13952l-22.52555,-1.42357l9.51993,9.04457l-24.52366,-6.21882l0.21771,3.62005l-15.00998,-11.49267l20.99176,-2.75846z" fill="#29291b" stroke="none" stroke-width="0" stroke-linecap="round"/></g></g></svg>