<svg version="1.1" xmlns="http://www.w3.org/2000/svg" xmlns:xlink="http://www.w3.org/1999/xlink" width="228.44684" height="305.78909" viewBox="0,0,228.44684,305.78909"><g transform="translate(-174.2799,-16.83944)"><g data-paper-data="{&quot;isPaintingLayer&quot;:true}" fill-rule="nonzero" stroke-linejoin="miter" stroke-miterlimit="10" stroke-dasharray="" stroke-dashoffset="0" style="mix-blend-mode: normal"><path d="M265.79889,180.5096l-88.86719,-64.14182l82.3043,-10.1445" fill="#d9d97d" stroke="#000000" stroke-width="2" stroke-linecap="round"/><path d="M317.90543,80.38234l56.18734,-60.99091l0.37252,109.59658" data-paper-data="{&quot;index&quot;:null}" fill="#d9d97d" stroke="#000000" stroke-width="2" stroke-linecap="round"/><path d="M296.58119,198.53997l-31.67995,12.50524l5.94838,-25.18057l-32.73834,7.85146l18.22556,-21.69348" fill="#d9d97d" stroke="#000000" stroke-width="2" stroke-linecap="round"/><path d="M295.62556,198.06492l-29.23312,11.53938l5.5982,-25.0781l-30.78879,7.28422l3.10146,-4.04749l27.66973,-3.19892l-4.4578,20.04927z" fill="#b6b14b" stroke="none" stroke-width="0" stroke-linecap="round"/><path d="M372.22878,139.54198l27.30669,7.55797l-31.42891,12.06931l19.16282,17.38478l-33.19212,7.63434" data-paper-data="{&quot;index&quot;:null}" fill="#d9d97d" stroke="#000000" stroke-width="2" stroke-linecap="round"/><path d="M383.54707,172.33157l-14.72399,-14.31954l24.89103,-12.50133l4.81329,1.6833l-29.73977,10.79607l18.43574,17.899l-30.77284,6.3848z" data-paper-data="{&quot;index&quot;:null}" fill="#b6b14b" stroke="none" stroke-width="0" stroke-linecap="round"/><path d="M286.35186,321.62852l15.14285,-131.8421l37.78325,-0.15789l13.57389,132z" fill="#d9d97d" stroke="#000000" stroke-width="2" stroke-linecap="butt"/><path d="M299.88496,217.6583l3.12142,-26.32765l35.83075,-0.14203l2.76735,26.1059c0,0 -7.51543,4.19603 -21.55904,4.50964c-12.48458,0.27879 -20.16049,-4.14586 -20.16049,-4.14586z" fill="#b6b14b" stroke="#000000" stroke-width="0" stroke-linecap="butt"/><path d="M251.75518,164.39516c-12.63488,-30.8119 3.73208,-66.70152 36.55661,-80.1617c32.82453,-13.46019 69.67666,0.60615 82.31154,31.41805c12.63488,30.8119 -3.73207,66.70152 -36.5566,80.16171c-32.82453,13.46018 -69.67666,-0.60616 -82.31154,-31.41806z" fill="#d9d97d" stroke="#000000" stroke-width="2" stroke-linecap="butt"/><path d="M328.44019,194.14432c21.78111,-6.60825 34.2737,-21.82175 33.55883,-20.86537c-7.80771,10.44543 -19.05036,18.77466 -32.72955,23.18694c-13.54719,4.3697 -27.39983,4.22537 -39.74885,0.41983c-0.46859,-0.1444 17.13847,3.86687 38.91958,-2.7414z" fill="#b6b14b" stroke="#000000" stroke-width="0" stroke-linecap="butt"/><path d="M264.46801,159.47998c-4.92012,-11.99841 0.81796,-25.71357 12.81636,-30.63369c11.99841,-4.92012 25.71357,0.81795 30.63369,12.81635c4.92012,11.99841 -0.81794,25.71357 -12.81635,30.6337c-11.99841,4.92012 -25.71358,-0.81795 -30.6337,-12.81636z" fill="#c5c556" stroke="#000000" stroke-width="2" stroke-linecap="butt"/><path d="M339.70994,169.5809c0,0 -10.2351,15.40662 -18.75219,16.28834c-8.51708,0.88172 -24.85149,-11.77429 -24.85149,-11.77429z" fill="#000000" stroke="#000000" stroke-width="2" stroke-linecap="round"/><path d="M345.30329,151.71044c-11.99841,4.92012 -25.71357,-0.81796 -30.63369,-12.81636c-4.92012,-11.99841 0.81795,-25.71357 12.81635,-30.63369c11.99841,-4.92012 25.71357,0.81794 30.6337,12.81635c4.92012,11.99841 -0.81795,25.71358 -12.81636,30.6337z" data-paper-data="{&quot;index&quot;:null}" fill="#c5c556" stroke="#000000" stroke-width="2" stroke-linecap="butt"/><path d="M264.30681,159.22191l-4.31728,-1.03975" fill="none" stroke="#000000" stroke-width="2" stroke-linecap="round"/><path d="M357.4942,120.79287l2.59599,-4.73928" fill="none" stroke="#000000" stroke-width="2" stroke-linecap="round"/><path d="M265.23072,128.0307c0,0 4.2461,-7.32813 8.50078,-10.36367c4.25469,-3.03554 11.67726,-4.03254 11.67726,-4.03254c0,0 -7.45999,2.99392 -10.74574,5.33818c-3.43374,2.44984 -9.43231,9.05803 -9.43231,9.05803z" fill="#000000" stroke="none" stroke-width="0" stroke-linecap="butt"/><path d="M322.56299,99.33059c-3.98564,0.63749 -11.39989,3.74296 -11.39989,3.74296c0,0 5.98561,-4.50122 11.14657,-5.32671c5.16095,-0.82548 13.3295,1.41183 13.3295,1.41183c0,0 -8.91104,-0.49428 -13.07619,0.17191z" data-paper-data="{&quot;index&quot;:null}" fill="#000000" stroke="none" stroke-width="0" stroke-linecap="butt"/></g></g></svg>