<svg version="1.1" xmlns="http://www.w3.org/2000/svg" xmlns:xlink="http://www.w3.org/1999/xlink" width="190.66666" height="342.5534" viewBox="0,0,190.66666,342.5534"><defs><linearGradient x1="324.07389" y1="-36.03905" x2="324.07389" y2="-12.34144" gradientUnits="userSpaceOnUse" id="color-1"><stop offset="0" stop-color="#ecec68"/><stop offset="1" stop-color="#ecec68" stop-opacity="0"/></linearGradient><linearGradient x1="335.59625" y1="-25.75711" x2="335.59625" y2="-11.2119" gradientUnits="userSpaceOnUse" id="color-2"><stop offset="0" stop-color="#ecec68"/><stop offset="1" stop-color="#ecec68" stop-opacity="0"/></linearGradient><linearGradient x1="312.92898" y1="-25.96318" x2="312.92898" y2="-11.41798" gradientUnits="userSpaceOnUse" id="color-3"><stop offset="0" stop-color="#ecec68"/><stop offset="1" stop-color="#ecec68" stop-opacity="0"/></linearGradient><linearGradient x1="323.3588" y1="-7.95061" x2="319.75145" y2="27.37754" gradientUnits="userSpaceOnUse" id="color-4"><stop offset="0" stop-color="#c4c456"/><stop offset="1" stop-color="#e3e364"/></linearGradient></defs><g transform="translate(-225.24106,36.03904)"><g data-paper-data="{&quot;isPaintingLayer&quot;:true}" fill-rule="nonzero" stroke-linejoin="miter" stroke-miterlimit="10" stroke-dasharray="" stroke-dashoffset="0" style="mix-blend-mode: normal"><g stroke="none" stroke-linecap="butt"><path d="M330.46194,-27.69337c0,6.54391 -6.38805,15.35193 -6.38805,15.35193c0,0 -6.38805,-8.80802 -6.38805,-15.35193c0,-6.54391 2.86003,-8.34567 6.38805,-8.34567c3.52803,0 6.38805,1.80177 6.38805,8.34567z" fill="url(#color-1)" stroke-width="NaN"/><path d="M339.94661,-16.92604c-3.03026,3.69662 -10.71752,5.71413 -10.71752,5.71413c0,0 0.47011,-7.93368 3.50037,-11.6303c3.03026,-3.69662 5.48021,-3.39005 7.47317,-1.75634c1.99296,1.63371 2.77424,3.97589 -0.25602,7.67251z" fill="url(#color-2)" stroke-width="NaN"/><path d="M308.32262,-24.80462c1.99296,-1.63371 4.44291,-1.94027 7.47317,1.75635c3.03026,3.69662 3.50037,11.6303 3.50037,11.6303c0,0 -7.68726,-2.01751 -10.71752,-5.71413c-3.03026,-3.69662 -2.24898,-6.03881 -0.25602,-7.67251z" data-paper-data="{&quot;index&quot;:null}" fill="url(#color-3)" stroke-width="NaN"/></g><path d="M286.4263,305.51436l15.14285,-131.8421l37.78325,-0.15789l13.57389,132z" fill="#c6c657" stroke="#000000" stroke-width="2" stroke-linecap="butt"/><path d="M299.0384,202.12699l3.12142,-26.32765l35.83075,-0.14203l2.76735,26.1059c0,0 -7.51543,4.19603 -21.55904,4.50964c-12.48458,0.27879 -20.16049,-4.14586 -20.16049,-4.14586z" fill="#9e9e45" stroke="#000000" stroke-width="0" stroke-linecap="butt"/><path d="M254.5162,134.86052c0,-33.30185 28.7599,-60.29833 64.23702,-60.29833c35.47712,0 64.23702,26.99649 64.23702,60.29833c0,33.30185 -28.7599,60.29833 -64.23702,60.29833c-35.47712,0 -64.23702,-26.99649 -64.23702,-60.29833z" fill="#c6c657" stroke="#000000" stroke-width="2" stroke-linecap="butt"/><path d="M255.23926,134.91436c0,-0.72799 5.20666,55.91939 63.36046,56.93429c55.56352,0.9697 63.51358,-57.95314 63.51358,-56.93429c0,32.80479 -28.40173,59.39833 -63.43702,59.39833c-35.03529,0 -63.43702,-26.59354 -63.43702,-59.39833z" fill="#9e9e45" stroke="#000000" stroke-width="0" stroke-linecap="butt"/><path d="M268.06643,135.28999c0,-12.968 10.51265,-23.48065 23.48065,-23.48065c12.968,0 23.48065,10.51265 23.48065,23.48065c0,12.968 -10.51265,23.48065 -23.48065,23.48065c-12.968,0 -23.48065,-10.51265 -23.48065,-23.48065z" fill="#ffffff" stroke="#000000" stroke-width="2" stroke-linecap="butt"/><path d="M274.46992,137.37128c0,-9.12808 7.39976,-16.52784 16.52783,-16.52784c9.12808,0 16.52784,7.39977 16.52784,16.52784c0,9.12808 -7.39977,16.52784 -16.52784,16.52784c-9.12808,0 -16.52783,-7.39977 -16.52783,-16.52784z" fill="#000000" stroke="none" stroke-width="0" stroke-linecap="butt"/><path d="M306.18329,174.67079h25.10959" fill="none" stroke="#000000" stroke-width="2" stroke-linecap="round"/><path d="M345.8055,158.77063c-12.968,0 -23.48065,-10.51265 -23.48065,-23.48065c0,-12.968 10.51265,-23.48065 23.48065,-23.48065c12.968,0 23.48065,10.51265 23.48065,23.48065c0,12.968 -10.51265,23.48065 -23.48065,23.48065z" data-paper-data="{&quot;index&quot;:null}" fill="#ffffff" stroke="#000000" stroke-width="2" stroke-linecap="butt"/><path d="M345.69294,153.89912c-9.12807,0 -16.52783,-7.39977 -16.52783,-16.52784c0,-9.12808 7.39977,-16.52784 16.52783,-16.52784c9.12807,0 16.52783,7.39977 16.52783,16.52784c0,9.12808 -7.39977,16.52784 -16.52783,16.52784z" data-paper-data="{&quot;index&quot;:null}" fill="#000000" stroke="none" stroke-width="0" stroke-linecap="butt"/><path d="M280.70412,103.48152c0,0 6.70895,-5.16922 11.79721,-6.36355c5.08827,-1.19433 12.33413,0.69937 12.33413,0.69937c0,0 -8.03812,-0.06028 -11.96762,0.86207c-4.10648,0.96389 -12.16372,4.80211 -12.16372,4.80211z" fill="#000000" stroke="none" stroke-width="0" stroke-linecap="butt"/><path d="M344.6386,98.67942c-3.9295,-0.92235 -11.96762,-0.86207 -11.96762,-0.86207c0,0 7.24586,-1.8937 12.33413,-0.69937c5.08826,1.19433 11.79721,6.36355 11.79721,6.36355c0,0 -8.05724,-3.83822 -12.16372,-4.80211z" data-paper-data="{&quot;index&quot;:null}" fill="#000000" stroke="none" stroke-width="0" stroke-linecap="butt"/><path d="M267.98307,135.38242c0,-12.96801 10.51265,-23.48065 23.48066,-23.48065c12.96801,0 23.48065,10.51264 23.48065,23.48065c0,0 -6.95852,-14.64634 -23.43307,-14.78879c-16.22494,-0.14029 -23.52823,15.4054 -23.52823,14.78879z" fill="#c6c657" stroke="#000000" stroke-width="2" stroke-linecap="butt"/><path d="M322.32486,135.28241c0,-12.96801 10.51264,-23.48065 23.48065,-23.48065c12.96801,0 23.48066,10.51264 23.48066,23.48065c0,0.60606 -7.87275,-14.38438 -22.92496,-14.781c-15.05221,-0.39662 -24.03635,14.781 -24.03635,14.781z" data-paper-data="{&quot;index&quot;:null}" fill="#c6c657" stroke="#000000" stroke-width="2" stroke-linecap="butt"/><path d="M256.55929,118.81541c7.94486,-24.83505 32.48735,-42.92946 61.53205,-42.92946c29.4708,0 54.30633,18.62922 61.87097,44.02681c0.54933,1.84433 1.98343,22.07236 -63.62097,21.81985c-61.22902,-0.23567 -59.78205,-22.9172 -59.78205,-22.9172z" fill-opacity="0.20156" fill="#000000" stroke="#000000" stroke-width="0" stroke-linecap="butt"/><path d="M414.90772,90.8257c0,10.30931 -42.23447,18.66666 -94.33333,18.66666c-52.09886,0 -94.33333,-8.35735 -94.33333,-18.66666c0,-10.30931 42.23447,-23.66666 94.33333,-23.66666c52.09886,0 94.33333,13.35735 94.33333,23.66666z" fill="#c6c657" stroke="#000000" stroke-width="2" stroke-linecap="butt"/><path d="M321.61434,68.5288c7.21196,0 13.94953,0.37837 19.67189,1.03435c0.67244,0.07708 -16.05768,10.30149 -16.05768,10.30149l-6.0776,0.14849z" data-paper-data="{&quot;index&quot;:null}" fill="#ffffff" stroke="#000000" stroke-width="0" stroke-linecap="butt"/><path d="M320.07438,107.79772c-17.46017,0 -33.77183,-0.91602 -47.62564,-2.50415c-1.62799,-0.18663 38.87564,-24.9399 38.87564,-24.9399l14.71387,-0.35948z" fill="#ffffff" stroke="#000000" stroke-width="0" stroke-linecap="butt"/><path d="M318.3759,80.7227c-4.2434,0.16666 -6.67593,-1.33334 -6.67593,-1.33334l3.09945,-40.25547c0,0 -0.29352,-5.61411 -3.20818,-4.13691c-2.64211,1.33908 -8.62109,4.74643 -8.62109,4.74643c0,0 3.29811,-7.34513 7.31197,-9.83713c3.05409,-1.89613 7.78452,2.26642 7.78452,2.26642c0,0 5.14388,-4.70293 9.17263,-2.57207c5.02464,2.65761 8.98012,9.95423 8.98012,9.95423c0,0 -7.72635,-4.3247 -10.92266,-5.51814c-3.98086,-1.48638 -3.20744,5.3051 -3.20744,5.3051l2.86068,40.04754c0,0 -2.90601,1.18927 -6.57407,1.33334z" data-paper-data="{&quot;index&quot;:null}" fill="#c6c657" stroke="#000000" stroke-width="2" stroke-linecap="butt"/><path d="M317.84994,27.18338c-1.6597,-0.16947 -4.30343,-0.43942 -4.30343,-0.43942l9.71221,-34.70479l2.69768,35.97196c0,0 -5.82855,-0.59515 -8.10646,-0.82775z" data-paper-data="{&quot;index&quot;:null}" fill="url(#color-4)" stroke="#89893c" stroke-width="1.5" stroke-linecap="butt"/><g data-paper-data="{&quot;index&quot;:null}" stroke="#89893c" stroke-width="1.4"><path d="M303.67103,29.37602l0.66424,-6.50519l32.12561,3.28033l-0.66424,6.50519z" fill="#c4c456" stroke-linecap="butt"/><g><path d="M296.47538,38.86915c0,0 -1.11434,-2.36016 -0.92747,-5.77205c0.16939,-3.09253 2.08369,-5.55126 2.08369,-5.55126l42.93422,4.384c0,0 0.87828,2.12492 0.90849,5.95791c0.01803,2.28791 -2.0647,5.3654 -2.0647,5.3654z" fill="#c4c456" stroke-linecap="butt"/><path d="M334.38743,31.60233c0,0 0.64188,3.61715 0.4694,5.30634c-0.18439,1.80581 -1.54241,5.20204 -1.54241,5.20204" fill="none" stroke-linecap="round"/><path d="M302.12019,38.62212c0,0 -0.54503,-2.8659 -0.40508,-4.39024c0.15826,-1.72376 1.30647,-5.42779 1.30647,-5.42779" fill="none" stroke-linecap="round"/><path d="M323.72788,31.01951c0,0 0.37223,3.89419 0.18223,5.58085c-0.16755,1.48735 -1.26335,4.01659 -1.26335,4.01659" fill="none" stroke-linecap="round"/><path d="M312.12817,39.64404c0,0 -0.51097,-2.91873 -0.35101,-4.48527c0.16677,-1.63324 1.33204,-5.1224 1.33204,-5.1224" fill="none" stroke-linecap="round"/></g></g><path d="M292.96645,258.74685l1.99382,-15.51624h50.12658l2.27865,16.0859z" fill="#d3d35d" stroke="none" stroke-width="0" stroke-linecap="butt"/><text transform="translate(296.57704,254.07913) scale(0.28152,0.28152)" font-size="40" xml:space="preserve" fill="#85853a" fill-rule="nonzero" stroke="none" stroke-width="1" stroke-linecap="butt" stroke-linejoin="miter" stroke-miterlimit="10" stroke-dasharray="" stroke-dashoffset="0" font-family="Sans Serif" font-weight="normal" text-anchor="start" style="mix-blend-mode: normal"><tspan x="0" dy="0">Mustard</tspan></text></g></g></svg>