<svg version="1.1" xmlns="http://www.w3.org/2000/svg" xmlns:xlink="http://www.w3.org/1999/xlink" width="153" height="289.45335" viewBox="0,0,153,289.45335"><g transform="translate(-245.45329,-19.04665)"><g data-paper-data="{&quot;isPaintingLayer&quot;:true}" fill-rule="nonzero" stroke-linejoin="miter" stroke-miterlimit="10" stroke-dasharray="" stroke-dashoffset="0" style="mix-blend-mode: normal"><path d="M285.90286,307.49998l11.88736,-92.12506l43.64314,-0.80899l10.96949,92.93407z" fill="#9b9d30" stroke="#000000" stroke-width="2" stroke-linecap="butt"/><path d="M289.57668,250.08801l11.45707,-49.81105l39.39249,-3.48067l9.45725,53.84916l-30.23979,-11.89646z" fill="#747524" stroke="#000000" stroke-width="2" stroke-linecap="butt"/><path d="M397.45329,133.27805c0,44.597 -33.8025,80.75 -75.5,80.75c-41.6975,0 -75.5,-36.15301 -75.5,-80.75c0,-44.59699 33.8025,-80.75 75.5,-80.75c41.6975,0 75.5,36.15301 75.5,80.75z" fill="#747524" stroke="#000000" stroke-width="2" stroke-linecap="butt"/><path d="M389.12623,138.42216c0,38.06162 -30.45365,68.91667 -68.02013,68.91667c-37.56647,0 -68.02013,-30.85504 -68.02013,-68.91667c0,-38.06162 30.45365,-68.91667 68.02013,-68.91667c37.56647,0 68.02013,30.85504 68.02013,68.91667z" fill="#000000" stroke="none" stroke-width="0" stroke-linecap="butt"/><path d="M256.94606,140.10165c0,-33.30185 28.7599,-60.29833 64.23702,-60.29833c35.47712,0 64.23702,26.99649 64.23702,60.29833c0,33.30185 -28.7599,60.29833 -64.23702,60.29833c-35.47712,0 -64.23702,-26.99649 -64.23702,-60.29833z" fill="#ffff70" stroke="#000000" stroke-width="2" stroke-linecap="butt"/><path d="M257.66912,140.15548c0,-0.72799 5.20666,55.91939 63.36046,56.93429c55.56352,0.9697 63.51358,-57.95314 63.51358,-56.93429c0,32.80479 -28.40173,59.39833 -63.43702,59.39833c-35.03529,0 -63.43702,-26.59354 -63.43702,-59.39833z" fill="#6c6d22" stroke="#000000" stroke-width="0" stroke-linecap="butt"/><path d="M256.70331,155.04657c0,0 -8.73921,-80.9842 66.75,-79.5c77.52968,1.52431 61,82.25 61,82.25c0,0 -24.63436,12.69075 -63.02896,13.02851c-34.39482,0.30257 -64.72104,-15.77851 -64.72104,-15.77851z" fill-opacity="0.20144" fill="#000000" stroke="none" stroke-width="0" stroke-linecap="butt"/><path d="M270.49627,140.53111c0,-12.968 10.51265,-23.48065 23.48065,-23.48065c12.968,0 23.48065,10.51265 23.48065,23.48065c0,12.968 -10.51265,23.48065 -23.48065,23.48065c-12.968,0 -23.48065,-10.51265 -23.48065,-23.48065z" fill="#ffffff" stroke="#000000" stroke-width="2" stroke-linecap="butt"/><path d="M278.21276,142.20879c0,-9.12808 7.39976,-16.52784 16.52783,-16.52784c9.12808,0 16.52784,7.39977 16.52784,16.52784c0,9.12808 -7.39977,16.52784 -16.52784,16.52784c-9.12808,0 -16.52783,-7.39977 -16.52783,-16.52784z" fill="#000000" stroke="none" stroke-width="0" stroke-linecap="butt"/><path d="M319.0538,189.76649l-10.44066,-9.85457c0,0 7.87204,-0.49798 12.15094,-0.49798c4.08165,0 12.95865,0.49798 12.95865,0.49798z" fill="#000000" stroke="#000000" stroke-width="2" stroke-linecap="round"/><path d="M348.23535,164.01176c-12.968,0 -23.48065,-10.51265 -23.48065,-23.48065c0,-12.968 10.51265,-23.48065 23.48065,-23.48065c12.968,0 23.48065,10.51265 23.48065,23.48065c0,12.968 -10.51265,23.48065 -23.48065,23.48065z" data-paper-data="{&quot;index&quot;:null}" fill="#ffffff" stroke="#000000" stroke-width="2" stroke-linecap="butt"/><path d="M348.77388,156.78333c-9.12807,0 -16.52783,-7.39977 -16.52783,-16.52784c0,-9.12808 7.39977,-16.52784 16.52783,-16.52784c9.12807,0 16.52783,7.39977 16.52783,16.52784c0,9.12808 -7.39977,16.52784 -16.52783,16.52784z" data-paper-data="{&quot;index&quot;:null}" fill="#000000" stroke="none" stroke-width="0" stroke-linecap="butt"/><path d="M270.49627,140.53111c0,-12.968 10.51265,-23.48065 23.48065,-23.48065c12.968,0 23.48065,10.51265 23.48065,23.48065c0,0 -46.96131,1.23155 -46.96131,0z" fill="#ffff70" stroke="#000000" stroke-width="2" stroke-linecap="butt"/><path d="M324.75472,140.53111c0,-12.968 10.51265,-23.48065 23.48065,-23.48065c12.968,0 23.48065,10.51265 23.48065,23.48065c0,1.2138 -46.96131,0 -46.96131,0z" data-paper-data="{&quot;index&quot;:null}" fill="#ffff70" stroke="#000000" stroke-width="2" stroke-linecap="butt"/><path d="M282.70403,109.27106c0,0 7.59834,-3.74113 12.82228,-3.90615c5.22395,-0.16501 11.95254,3.12355 11.95254,3.12355c0,0 -7.86762,-1.64791 -11.9019,-1.52047c-4.21598,0.13318 -12.87293,2.30307 -12.87293,2.30307z" fill="#000000" stroke="none" stroke-width="0" stroke-linecap="butt"/><path d="M346.7303,106.98553c-4.03603,0.04644 -11.82537,2.03168 -11.82537,2.03168c0,0 6.58071,-3.57532 11.80692,-3.63546c5.2262,-0.06014 12.97862,3.35026 12.97862,3.35026c0,0 -8.74237,-1.79502 -12.96017,-1.74649z" data-paper-data="{&quot;index&quot;:null}" fill="#000000" stroke="none" stroke-width="0" stroke-linecap="butt"/><g stroke="#000000" stroke-width="2" stroke-linecap="butt"><path d="M285.67243,60.58443l26.35612,-40.48177c0,0 27.2052,2.74069 39.20326,6.27777c13.16173,3.88011 36.59976,16.06924 36.59976,16.06924l0.67445,47.57479c0,0 -34.30745,-5.17287 -51.6189,-10.12894c-16.95917,-4.85523 -51.2147,-19.31109 -51.2147,-19.31109z" fill="#ffffff"/><path d="M286.04763,60.63067l3.83347,-5.89282c0,0 31.68571,13.47784 48.32657,18.38646c16.19876,4.77819 50.228,10.68444 50.228,10.68444l0.19475,6.26974c0,0 -36.44135,-4.27672 -53.51033,-9.3833c-16.75226,-5.01184 -49.07248,-20.06449 -49.07248,-20.06449z" fill="#9b9d30"/><path d="M343.30721,49.21778c0,0 11.88878,-1.65976 18.74747,-1.75621c7.62128,-0.10717 24.93397,1.14203 24.93397,1.14203l-0.05944,6.98031c0,0 -19.61968,-1.46219 -26.89102,-1.2115c-5.4551,0.18808 -12.87592,2.58267 -12.87592,2.58267z" fill="#9b9d30"/><path d="M345.82544,73.97925c0,0 2.7263,-7.61819 -6.37114,-18.2584c-12.32025,-14.40953 -33.47912,-24.32686 -33.47912,-24.32686l4.21355,-5.77911c0,0 20.55913,7.96456 34.64591,24.92268c10.64281,12.81215 8.59241,25.71591 8.59241,25.71591z" fill="#9b9d30"/></g></g></g></svg>