<svg version="1.1" xmlns="http://www.w3.org/2000/svg" xmlns:xlink="http://www.w3.org/1999/xlink" width="95.96114" height="262.91523" viewBox="0,0,95.96114,262.91523"><g transform="translate(-273.33743,-46.73293)"><g data-paper-data="{&quot;isPaintingLayer&quot;:true}" fill-rule="nonzero" stroke-linecap="butt" stroke-linejoin="miter" stroke-miterlimit="10" stroke-dasharray="" stroke-dashoffset="0" style="mix-blend-mode: normal"><path d="M282.56373,308.53989c0,0 -0.63536,-94.38387 -0.79335,-118.01201c-0.05451,-8.15261 8.18688,-36.76129 40.20201,-36.9211c31.60235,-0.15775 39.85672,29.48704 39.84884,36.89673c-0.07659,46.24274 0.65429,117.98648 0.65429,117.98648l-10.49667,0.09614l-0.15882,-114.84311c0,0 0.07549,-3.0993 -2.81625,-3.15415c-3.43441,-0.06514 -2.94538,3.11562 -2.94538,3.11562l0.20548,114.86995l-48.21366,0.07222l-0.30539,-115.23309c0,0 0.27949,-2.919 -2.8856,-2.93443c-3.11083,-0.01515 -2.81569,2.90899 -2.81569,2.90899l0.35311,115.0668z" fill="#999999" stroke="#000000" stroke-width="2"/><path d="M321.66272,265.26944c-0.81895,0 -1.48284,-0.66389 -1.48284,-1.48284c0,-0.81895 0.66389,-1.48284 1.48284,-1.48284c0.81895,0 1.48284,0.66389 1.48284,1.48284c0,0.81895 -0.66389,1.48284 -1.48284,1.48284z" data-paper-data="{&quot;index&quot;:null}" fill="#000000" stroke="none" stroke-width="1.5"/><path d="M297.59946,308.55433v-119.20147c0,0 0.75721,-9.73105 0.75721,-14.63937c0,-4.498 -0.75721,-13.6872 -0.75721,-13.6872c0,0 2.67319,-2.35297 4.6557,-3.74807c1.98251,-1.3951 5.17197,-2.80371 5.17197,-2.80371c0,0 -0.6016,40.10902 14.55952,40.03867c15.43477,-0.07162 13.83154,-40.03867 13.83154,-40.03867c0,0 3.91276,1.51959 6.16585,2.94655c2.25309,1.42695 4.75379,3.60523 4.75379,3.60523c0,0 -0.75721,9.42463 -0.75721,14.19201c0,4.84193 0.75721,14.63937 0.75721,14.63937v118.69667z" fill="#0f0e02" stroke="#000000" stroke-width="2"/><path d="M341.50621,99.55184c0,0 1.54643,0.18213 4.33726,0.72989c2.5491,0.50032 4.58605,1.34406 4.58605,1.34406l0.29776,1.14853c0,0 -7.49785,-2.47713 -15.27499,-1.12526c-6.21841,1.08095 -9.6757,3.68178 -9.6757,3.68178l-0.32351,-4.16453c0,0 2.96465,-1.9739 7.66893,-2.54317c4.87125,-0.58947 8.11144,-0.12599 8.11144,-0.12599z" data-paper-data="{&quot;index&quot;:null}" fill="#000000" stroke="none" stroke-width="1.5"/><path d="M301.93513,106.97757c0,0 3.21942,-2.07328 7.8327,-2.89404c5.11209,-0.90951 7.74002,-0.66476 7.74002,-0.66476l0.61307,4.10243c0,0 -3.87659,-0.38304 -8.03427,0.09834c-5.56039,0.64377 -6.51468,1.94077 -10.71958,2.72543c-3.60298,0.67234 -6.70495,0.67758 -6.70495,0.67758l-0.12072,-1.22589c0,0 3.59018,-0.20331 5.21287,-0.47151c1.33931,-0.22137 3.89158,-1.24169 3.89158,-1.24169z" fill="#000000" stroke="none" stroke-width="1.5"/><path d="M311.44815,158.44891l-0.64013,-0.53581c-2.35133,-1.98508 -4.92377,-2.76059 -7.23114,-4.69195c-0.0406,-0.03398 -0.67301,-0.40127 -1.19017,-0.81792c-0.01742,0.20312 -0.06032,0.38966 -0.12889,0.51599c-0.0465,0.08567 -0.09837,0.16732 -0.15463,0.24573l0.05349,0.02919l-0.50231,0.92051c-0.153,0.29035 -0.44564,0.49954 -0.79687,0.53069c-0.55013,0.0488 -1.03566,-0.3576 -1.08445,-0.90772l-0.08381,-0.94482c-1.0902,-1.23481 -1.94118,-2.91461 -3.06984,-4.03704c-1.52978,-1.52134 -3.94175,-2.85353 -5.04008,-4.84827c-0.75418,-1.36974 -0.7476,-2.91082 -1.76573,-4.13714c-0.83283,-1.10744 -1.7083,-3.00675 -2.0331,-4.40207c-0.09909,-0.42569 -0.51752,-3.87323 -0.99231,-3.78625c-1.50142,0.27507 -2.38364,2.25337 -3.44002,3.11429c-2.32177,1.8922 -4.81534,3.40665 -7.65413,3.49752l0.02756,0.31065l-1.17595,0.10431c-0.55013,0.0488 -1.03566,-0.35759 -1.08446,-0.90772c-0.03116,-0.35123 0.12325,-0.67614 0.38214,-0.87785l0.8177,-0.65651c2.23768,-1.77807 4.07675,-3.604 5.74878,-5.86333c-1.15499,0.29259 -2.38835,0.2898 -3.84913,0.10208c-0.68685,-0.08826 -2.88712,-0.4028 -3.16895,-0.92895c-0.34172,-0.63793 1.02772,-2.73014 1.3742,-3.2158c1.68728,-2.36505 4.4949,-5.1495 5.35937,-7.92762c0.36931,-1.18684 0.26942,-2.20261 0.88908,-3.33818c0.23354,-1.62805 0.54784,-3.02303 1.07874,-4.54021c0.04328,-0.12369 0.07047,-0.30216 0.09756,-0.48556c-0.1787,0.13374 -0.36936,0.25451 -0.50326,0.33469c-1.29758,0.777 -3.74746,1.85379 -4.90631,0.02046c-1.27607,-2.01878 1.20054,-4.51932 2.3244,-5.83432c1.1011,-1.28837 1.20268,-3.25339 1.06189,-4.84039c1.24962,-7.91949 2.36643,-16.17929 6.37121,-23.51828c2.90797,-5.32902 7.22457,-10.86948 11.20664,-15.36958c0.98811,-1.11667 2.7141,-1.68364 3.92232,-2.63029c2.06698,-0.71599 3.74159,-2.20063 5.97155,-2.68214c6.99259,-1.50987 14.57078,-0.19418 21.62367,-0.71371c2.62592,0.99601 5.33277,0.79571 8.03689,1.71871c3.55628,1.21386 6.7727,3.39278 10.21796,4.73262c2.62994,1.02277 4.32158,1.46253 6.1577,3.80601c1.08766,3.07221 2.84921,5.65698 3.53091,8.85927c1.16086,5.45317 0.31501,12.53181 3.30002,17.37732c0.31397,3.02473 2.74036,5.134 4.18141,7.74488c1.63954,2.97051 2.14934,5.96053 3.23704,9.07878c0.89142,2.55558 1.95133,4.53761 0.99981,6.69372l0.3585,0.19564l-0.50231,0.92051c-0.15299,0.29035 -0.44565,0.49955 -0.79688,0.5307c-0.47404,0.04205 -0.90011,-0.2539 -1.04012,-0.68855l-0.34847,-1.006c-1.6229,-1.97415 -2.10946,-4.33933 -3.94005,-6.20033c-0.07928,-0.0806 -0.16312,-0.15216 -0.24927,-0.2168c1.29611,4.82424 1.07031,10.13436 0.34154,14.92697c-0.87388,5.53817 -1.97268,10.62861 -2.7041,16.21689c-0.36456,2.78539 -0.52033,5.40893 -1.99211,7.46678l0.33572,0.28101l-0.80371,0.9602c-0.16427,0.19624 -0.40341,0.32982 -0.67847,0.35422c-0.55012,0.0488 -1.03565,-0.3576 -1.08445,-0.90772l-0.10431,-1.17595c-0.02575,-0.3024 -0.36643,-1.46198 -0.58626,-2.4994c-0.20229,0.82549 -0.46602,1.64664 -0.49696,1.7586c-0.51731,1.87197 -1.1861,3.06544 -2.24625,4.22131l0.1184,0.0734l-0.77151,1.2443c-0.15932,0.26329 -0.43764,0.44974 -0.76766,0.47902c-0.55012,0.0488 -1.03566,-0.3576 -1.08445,-0.90773c-0.00809,-0.09113 -0.00367,-0.18048 0.01181,-0.26638l0.17175,-1.08846c-0.10694,-1.16631 -0.30192,-2.80561 -0.28864,-4.18965c-0.42249,0.44778 -0.8913,0.86683 -1.16173,1.25624c-1.6536,2.38107 -3.32548,4.20712 -5.4103,6.02809c-1.00416,1.44488 -2.16019,2.73757 -3.43988,3.87738c-0.16697,0.30628 -0.33411,0.61249 -0.5012,0.91871c-1.89813,3.47843 -5.16119,6.07332 -8.10542,8.3903c-0.80348,0.6323 -1.24898,1.80802 -2.33159,2.37842c-2.93448,1.54612 -8.09014,0.1316 -9.79339,-2.50844c-0.60152,-0.76612 -0.8128,-2.04512 -1.55541,-2.61905c-1.83282,-1.4165 -3.64497,-2.76657 -5.41056,-4.25305c-0.35116,-0.0254 -0.61856,-0.24923 -0.61856,-0.24923zM318.76098,161.41752c0.99843,0.88348 1.09344,2.01495 1.90606,2.99991c1.04133,1.80163 5.20381,3.01272 7.19149,1.91084c0.99036,-0.54901 1.22807,-1.51853 2.0071,-2.15468c1.71433,-1.39994 3.59997,-2.84406 5.20785,-4.54719c-3.15279,1.65687 -6.70273,2.65244 -10.39826,2.98027c-2.68251,0.22242 -4.2984,-0.68414 -6.54886,-1.7346c0.21478,0.17967 0.42658,0.36135 0.63463,0.54544zM339.08816,153.46538l0.86324,-1.03889c0,0 0.28352,-0.3387 0.6988,-0.37748c0.37103,-0.30213 0.7308,-0.60427 1.08063,-0.90766c0.42562,-0.61727 0.82413,-1.26446 1.19363,-1.94161c1.14543,-0.70492 0.05013,-1.31878 -1.27087,-1.77064l-0.00587,0.01213c-2.23303,0.7735 -4.10306,2.1251 -6.21317,2.90847c-2.1033,0.78085 -4.72576,0.30284 -6.92277,0.9486c-0.48645,0.04204 -0.97615,0.08239 -1.4685,0.12018c-0.18737,0.04035 -0.40801,0.05493 -0.64901,0.04815c-3.89172,0.27836 -7.9315,0.37449 -11.82864,-0.13594c-2.88724,-0.37815 -6.2729,-1.84144 -9.10156,-1.53854c0,0 -0.20133,0.01786 -0.43099,-0.053c0.02218,0.17628 0.05936,0.36669 0.11255,0.57312c2.73987,1.31129 5.23297,4.04835 7.53408,6.01499c1.61457,1.3799 4.06592,1.7062 5.94831,2.57322c2.11045,0.97206 3.42417,1.94849 5.87047,1.71401c5.21392,-0.46253 9.97768,-2.29853 13.6951,-5.5189c0.29741,-0.54383 0.59538,-1.08734 0.89457,-1.63022zM350.93452,121.73608c0.87263,-0.35635 1.04933,-1.23833 1.80769,-2.14845c2.71829,-3.26225 2.96155,-6.47006 2.6198,-10.6593c-0.7864,-2.55409 -2.99382,0.20539 -3.61936,1.58196c-0.37426,0.82361 -0.67974,1.68746 -0.91232,2.5758c0.0986,0.47976 0.25514,0.9633 0.17011,1.43454c-0.22876,1.26783 -0.45605,2.54322 -0.6761,3.826c0.07623,1.14862 0.27702,2.28851 0.61017,3.38945zM345.4317,140.21096c0.3161,-1.53894 1.29109,-2.70191 1.35226,-4.39621c0.12224,-3.38557 -1.53241,-6.7183 0.39542,-9.80382c0.24772,-2.73932 0.64195,-5.44688 1.12238,-8.11146c-0.06231,-1.77981 0.13413,-3.57375 0.57572,-5.28213c-0.0576,-0.28757 -0.09329,-0.57426 -0.0436,-0.85678c0.43032,-2.44664 1.00341,-5.00842 1.14659,-7.6036l-0.22393,-0.1024c-1.8327,-0.30908 -3.66357,-0.93117 -5.25463,-1.91736c-0.70524,0.09695 -1.42063,0.16577 -2.14243,0.21625c-0.06429,0.01665 -0.13445,0.02881 -0.21103,0.03561c-0.10074,0.00894 -0.19218,0.00678 -0.2752,-0.00432c-3.71686,0.21939 -7.58135,0.0143 -11.09534,0.70917c-1.25829,0.24882 -3.62614,2.67974 -5.03217,1.7228c-0.59629,-0.40584 -0.64007,-1.27845 -0.5564,-2.08914c-0.00621,-0.00503 -0.01242,-0.01014 -0.01865,-0.01535c-0.76682,-0.64186 -0.12496,-1.40868 -0.12496,-1.40868l0.77814,-0.84968c0.95675,-0.58736 1.84707,-1.53372 2.82411,-2.0485c1.8845,-0.9929 4.3403,-1.01967 6.37146,-0.93982c3.51502,0.1382 7.0429,-1.22385 7.89709,2.88747c0.66999,-0.07318 1.33542,-0.13462 1.99354,-0.17371c1.62972,0.82343 3.28403,1.61524 5.08202,1.88847c-0.01278,-0.2602 -0.03135,-0.5205 -0.0563,-0.78084c-0.36531,-4.11797 -1.43892,-7.74359 -2.78201,-11.65806c-0.4887,-1.42432 -0.37271,-3.19559 -2.29624,-3.52345c-2.67641,-0.45618 -3.36471,0.84548 -5.67555,1.64594c-3.37853,2.80493 -8.46507,5.36114 -12.60886,6.80722c-2.14912,0.74999 -4.20653,1.04596 -6.02363,2.49971l-0.06573,0.01178l0.01384,0.02245l-1.10667,0.68175c-0.13196,0.08516 -0.28597,0.14039 -0.45327,0.15523c-0.55013,0.0488 -1.03565,-0.35761 -1.08445,-0.90772c-0.03116,-0.35124 0.12323,-0.67614 0.38212,-0.87785l0.81771,-0.65651l0.0784,0.09766l0.00811,-0.005c1.03294,-1.54761 2.27858,-2.87754 3.61648,-4.21412c0.3798,-0.37943 0.82956,-1.04388 1.29564,-1.60298c-0.67363,0.30187 -1.45921,0.35043 -2.11065,0.70306c-2.18937,1.18512 -4.51925,2.33124 -6.66984,3.61366c-2.41201,0.25036 -3.82444,1.45342 -5.82224,2.53163c-3.73335,2.01488 -8.23947,3.16195 -11.94429,4.87852c-0.7612,0.35269 -0.54327,3.23076 -0.63889,3.85954c-0.249,1.51077 -0.29918,2.93759 -0.20061,4.3151c1.22721,-0.21791 2.44402,-0.53119 3.6563,-0.88959c0.06486,-0.82943 0.94308,-2.64257 1.36491,-2.90767c1.33548,-0.8393 3.48565,0.05341 4.8785,-0.50848c1.71884,-0.6934 3.40968,-2.16666 5.27303,-2.57743c1.51858,-0.33476 5.37766,-0.21669 6.40637,1.08551c0.5247,0.66419 0.35888,3.27846 -0.29796,3.7855c-0.51352,0.39642 -1.29743,-0.00706 -1.94615,-0.01058c-1.41654,-0.23346 -2.81906,-0.23359 -4.21151,-0.07851c1.88849,0.97088 6.05591,0.34968 7.30686,2.20818c0.9609,1.42758 0.96675,3.0676 0.55185,4.73294c0.30705,0.26998 0.34505,0.69832 0.34505,0.69832c0.2552,2.87676 1.58146,5.19935 2.18191,7.98021c0.89811,4.15936 0.7894,8.81395 1.16576,13.05648c0.28993,3.26829 0.2794,6.48957 0.56665,9.72768c0.06342,0.71494 -0.08589,2.31712 0.37416,2.9441c0.30959,0.42193 1.0342,0.18637 1.52871,0.35765c0.08786,0.03043 0.15975,0.14096 0.22798,0.2364c0.1215,-0.00871 0.24286,-0.01766 0.36404,-0.02679c0.17793,-0.37129 -0.18118,-1.00349 -0.16594,-1.47022c0.06474,-1.98152 -0.06211,-3.91004 -0.2276,-5.90583c0.20322,-1.28789 0.30937,-2.58358 0.34866,-3.88455c-0.16557,-0.22959 -0.27499,-0.57396 -0.03027,-1.02242c0.01566,-0.02871 0.03175,-0.05595 0.04823,-0.08183c0.01983,-6.66471 -1.48562,-13.44832 -0.48776,-20.01056c0.03526,-0.2234 0.0705,-0.44681 0.10576,-0.67021c-0.01383,-0.06473 -0.02721,-0.12952 -0.04009,-0.19435c-0.30068,-0.04231 -0.78417,-0.21686 -0.8445,-0.89696c-0.05599,-0.63118 0.32347,-0.8979 0.60899,-1.0086c-0.07391,-1.60467 0.18342,-3.15101 0.85594,-4.41905c1.33471,-2.42176 3.67937,-4.84533 6.45095,-5.45631c5.2494,-1.1572 14.33577,1.12847 13.37849,7.93239c0.08027,0.90481 0.34212,2.33317 -0.40212,3.07471c-0.00819,0.00816 -0.0165,0.01624 -0.02493,0.02422c-0.15507,3.13153 -1.48003,6.0165 -4.0574,8.08576c-1.86123,1.39971 -4.00775,1.08854 -6.21974,1.00914c-2.14025,-0.07682 -4.28514,-0.02796 -6.05611,-1.52708c-0.79924,-0.67657 -1.51173,-1.56846 -2.10353,-2.58673c-0.29266,5.50591 0.80687,11.16679 0.81858,16.72795c1.97034,1.2825 3.18076,3.14622 1.10917,5.17673c1.39544,-0.17368 2.87475,-0.38815 4.19347,0.03132c2.52117,0.80194 4.84721,2.07039 7.29797,2.84628c0.07416,-0.02199 0.15656,-0.03779 0.24813,-0.04591c0.45649,-0.04049 0.72233,0.14677 0.87641,0.36153c0.19322,0.04679 0.38748,0.08976 0.58293,0.12846c0.34313,0.06796 0.66221,0.1701 0.95276,0.30055c0.96288,-1.88892 1.40925,-3.81702 1.81364,-5.78582zM300.48257,129.08168c0.52569,5.92593 2.50349,11.52054 3.03472,17.50884l0.09523,1.0735c1.30569,-2.77324 5.46253,-4.12197 8.83393,-4.0472c1.83932,0.04079 4.32944,1.10978 6.13873,0.37989c0.63889,-0.25774 1.13623,-0.5393 1.66921,-0.77149c-3.76442,-2.18577 -2.62053,-5.84338 1.11254,-6.58968c-0.0062,-0.07314 -0.01254,-0.1463 -0.01903,-0.21949c-0.36882,-4.15757 -0.24793,-8.74045 -1.12925,-12.8144c-0.44565,-2.06002 -1.26181,-3.87108 -1.78294,-5.83405c-0.67684,1.4854 -1.41236,2.88846 -1.79295,4.06434c-0.37684,1.16429 -0.48904,2.48065 -1.43037,3.43638c-0.62797,0.63757 -1.4914,0.99279 -2.19527,1.54543c-5.11071,1.79757 -11.25956,-1.41882 -13.44297,-6.21662c0.60736,2.75395 0.66447,5.73489 0.90839,8.48455zM336.24975,99.35671c-2.11864,0.1815 -4.65831,-0.29634 -6.6342,0.79901c-0.78703,0.43629 -1.50782,1.12493 -2.26684,1.67868c-0.03841,0.21877 -0.10447,0.54719 -0.18004,0.83079c0.83797,-0.63017 2.93282,-1.4679 3.19044,-1.52693c1.30237,-0.29841 2.51105,-0.09114 3.79734,-0.04056c2.20259,0.08659 4.48927,-0.2146 6.75576,-0.50271c-0.57167,-1.98355 -2.46676,-1.42637 -4.66246,-1.23826zM299.30995,113.92169c0,0 0.15296,-0.38841 0.51218,-0.5645l0.07627,-0.18822c1.03274,-1.58872 2.4282,-1.72906 4.11471,-2.52751c0.86334,-0.40874 1.56442,-1.18802 2.31424,-1.83538c-3.14974,0.98317 -6.27373,2.24151 -9.41961,2.83128c0.38184,2.2111 1.10369,4.33337 1.93952,6.52315c-0.20121,-1.3633 -0.0767,-2.79663 0.46269,-4.23882zM314.83028,149.3483c2.49972,0.32718 5.06091,0.40446 7.59877,0.33821c-0.49533,-1.04267 -0.4212,-2.49096 -0.51451,-3.5428c-0.0398,-0.4486 -0.07387,-0.89668 -0.10383,-1.34446c-1.47483,0.23873 -2.37966,1.06539 -3.9399,1.2256c-3.8151,0.39171 -6.62824,-0.88477 -10.24345,0.84633c-0.68648,0.32871 -1.28972,0.5885 -1.74372,0.90317c2.91595,-0.03485 6.03561,1.19293 8.94663,1.57394zM328.13961,149.33326c2.01436,-0.59207 4.68071,-0.08553 6.54849,-0.83902c1.35996,-0.54862 2.63024,-1.2784 3.96696,-1.93958c-3.54483,-1.17426 -6.01477,-2.43262 -9.95887,-2.08273l-0.12576,0.20147c0,0 -0.12744,0.07851 -0.31408,0.12547c0.11659,1.54181 0.13604,3.11193 -0.20884,4.54273c0.03071,-0.00277 0.06142,-0.00555 0.0921,-0.00834zM321.28669,141.51218l0.36087,0.13614c-0.04322,-1.00149 -0.08445,-2.00403 -0.14148,-3.01007c-1.78465,0.41343 -2.44478,1.7234 -0.21939,2.87393zM328.05216,116.21264c-0.01034,0.06555 -0.02069,0.13111 -0.03103,0.19666c0.53076,2.0732 1.61203,4.05043 2.90475,5.11367c1.42306,1.17045 3.15172,1.00128 4.8404,1.06189c1.53475,0.05508 3.67571,0.52951 4.89964,-0.56986c1.81794,-1.45955 3.07227,-3.61742 3.32907,-5.89199c-0.96189,0.06053 -2.06553,-0.04981 -3.00858,-0.18371c-1.17495,5.72888 -7.19166,2.48269 -10.57919,0.65627c0,0 -0.43904,-0.23958 -0.52669,-0.69036c-0.60312,0.06291 -1.2144,0.12389 -1.83629,0.17965zM343.68354,113.60853l0.40048,0.09393l0.13034,-0.66973c0,0 0.05849,-0.24621 0.2405,-0.46148c-0.02556,-0.08616 -0.04421,-0.16989 -0.05126,-0.24939c0.36165,-2.02308 -0.46163,-2.87333 -1.84972,-4.04048c-0.49344,-0.4149 -0.66243,-1.27553 -1.28411,-1.44627c-0.71836,-0.19729 -1.4981,0.06231 -2.2343,-0.05164c-4.65816,-0.72102 -8.30573,-0.36509 -10.70685,4.08834c-0.50291,0.88668 -0.6974,2.01716 -0.65404,3.22107c2.00887,-0.21449 4.06052,-0.47376 6.09947,-0.59622c3.24559,-0.30118 6.41757,-0.43908 9.90945,0.1119zM309.56752,105.99474c2.20315,-0.47256 4.43993,-0.67902 6.74437,-0.3286c0.93789,0.75531 0.42749,-0.4885 0.33065,-0.60169c-0.42355,-0.49504 -3.62895,-0.48593 -4.38581,-0.32753c-0.92481,0.19354 -1.8132,0.71909 -2.6892,1.25781zM311.55517,121.65276c-1.75176,0.73403 -3.58282,0.06309 -5.18344,-0.47182c-0.72403,-0.24197 -2.16609,-0.04761 -2.72375,-0.55921c-0.98804,-0.90642 -0.78342,-1.86713 -0.61362,-2.89165c-0.75776,0.05614 -1.51515,0.11641 -2.27178,0.18248c0.72162,4.72886 6.81947,8.65954 11.28698,7.1508c0.53338,-0.44006 1.21485,-0.69089 1.71191,-1.17158c0.70628,-0.68302 0.71392,-1.87594 0.98792,-2.70418c0.44135,-1.33414 1.31408,-2.83816 2.01721,-4.39859l-0.30173,0.02677c-0.86418,0.07666 -1.73075,0.14552 -2.59912,0.20916c-0.26435,1.75715 -0.37977,3.81874 -2.31058,4.62781zM316.28815,114.8236l0.88196,-0.07824c0,0 0.15863,-0.01407 0.3549,0.03232c0.37429,-1.31955 0.45507,-2.64476 -0.10257,-3.91048c-0.19869,-0.45099 -0.96821,-0.18588 -1.45548,-0.25954c-1.55862,-0.23559 -3.21795,-0.2857 -4.58843,-1.08757c-0.86785,0.1193 -2.15667,-0.03797 -2.95055,0.26175c-1.23781,0.46729 -2.30314,2.05765 -3.55796,2.66675c-0.91879,0.446 -2.96806,0.88347 -3.21601,1.67841l-0.1892,0.50147c0,0 -0.14646,0.37189 -0.48931,0.55286c-0.07693,0.24038 -0.13751,0.48093 -0.18258,0.72112c5.16938,-0.44421 10.3766,-0.62478 15.49521,-1.07885zM328.17811,140.87435c0.71888,-0.40205 0.55174,-0.87605 0.11037,-1.30089c-0.02747,0.43451 -0.06387,0.86819 -0.11037,1.30089z" fill="#000000" stroke="none" stroke-width="0.5"/><path d="M362.76678,126.41622c0.35135,-1.2532 0.69416,-2.54708 1.05264,-3.7845c0.13325,-0.45995 0.04053,-0.98045 -0.00799,-1.46784c0.3231,-0.85958 0.74321,-1.70136 1.20054,-2.48192c0.76436,-1.3046 3.27722,-3.81604 3.79563,-1.19439c-0.09274,4.20214 -0.697,7.46112 -3.73768,10.42518c-0.8483,0.82693 -1.12667,1.68281 -2.03143,1.94714c-0.21767,-1.12946 -0.3145,-2.29331 -0.2717,-3.44366z" data-paper-data="{&quot;noHover&quot;:false,&quot;origItem&quot;:[&quot;Path&quot;,{&quot;applyMatrix&quot;:true,&quot;segments&quot;:[[[268.21396,123.01191],[-0.23457,-1.12607],[0.90071,-0.27784]],[[270.20442,121.0316],[-0.83582,0.83955],[2.99592,-3.00929]],[[273.75586,110.64549],[-0.02976,4.20306],[-0.55764,-2.61359]],[[270.01088,111.90144],[0.74473,-1.31591],[-0.44558,0.78732]],[[268.87451,114.38655],[0.31018,-0.86432],[0.05582,0.4866]],[[268.9172,115.83051],[0.12634,-0.46189],[-0.3399,1.24265]],[[267.90567,119.58181],[0.33253,-1.25832],[-0.02556,1.15086]]],&quot;closed&quot;:true}]}" fill="#ffffff" stroke="none" stroke-width="0.5"/><path d="M327.99735,116.06742c0.62189,-0.05576 1.23543,-0.12192 1.83855,-0.18483c0.08766,0.45079 0.52544,0.69303 0.52544,0.69303c3.38754,1.82643 9.49151,5.0645 10.66646,-0.66438c0.94305,0.1339 2.05187,0.25412 3.01377,0.19358c-0.25681,2.27458 -1.51587,4.47796 -3.33381,5.93751c-1.22392,1.09936 -3.41386,0.64708 -4.94861,0.592c-1.68868,-0.06061 -3.45586,0.07946 -4.87892,-1.09099c-1.29272,-1.06325 -2.3758,-3.07659 -2.90656,-5.14979c0.01034,-0.06555 0.02106,-0.13217 0.03139,-0.19772z" data-paper-data="{&quot;noHover&quot;:false,&quot;origItem&quot;:[&quot;Path&quot;,{&quot;applyMatrix&quot;:true,&quot;segments&quot;:[[[245.90918,115.48812],[0,0],[-0.0161,0.06438]],[[245.8609,115.68126],[0.0161,-0.06438],[0.34549,2.11199]],[[248.30242,121.0316],[-1.19371,-1.17332],[1.31407,1.29162]],[[253.03005,122.51705],[-1.67672,-0.20959],[1.52388,0.19048]],[[257.96087,122.38236],[-1.31628,0.98691],[1.9398,-1.2932]],[[261.79756,116.80758],[-0.45679,2.24299],[-0.96348,-0.0247]],[[258.81698,116.35875],[0.92753,0.21671],[-1.67658,5.60265]],[[248.22118,116.07763],[3.2129,2.11862],[0,0]],[[247.75755,115.34344],[0.04748,0.45677],[-0.60632,0.00937]],[[245.91257,115.36011],[0.62439,-0.00059],[0,0]]],&quot;closed&quot;:true}]}" fill="#ffffff" stroke="none" stroke-width="0.5"/><path d="M341.08729,154.92222c0.35003,0.50278 0.39546,1.0939 -0.38803,1.34799c0.13,-0.41532 0.27633,-0.92719 0.38803,-1.34799z" data-paper-data="{&quot;noHover&quot;:false,&quot;origItem&quot;:[&quot;Path&quot;,{&quot;applyMatrix&quot;:true,&quot;segments&quot;:[[[243.85545,140.0645],[0.08455,-0.4269],[0.75159,-0.33695]],[[244.08034,138.77845],[0.40211,0.46218],[-0.06576,0.43038]]],&quot;closed&quot;:true}]}" fill="#ffffff" stroke="none" stroke-width="0.5"/><path d="M321.62915,138.95429c-0.1403,0.99784 -0.30773,2.07638 -0.46068,3.06706l-0.33557,-0.20167c-1.95821,-1.56251 -1.03477,-2.80801 0.79625,-2.86539z" data-paper-data="{&quot;noHover&quot;:false,&quot;origItem&quot;:[&quot;Path&quot;,{&quot;applyMatrix&quot;:true,&quot;segments&quot;:[[[236.93463,140.09088],[-2.11501,-1.34267],[0,0]],[[237.28205,140.25838],[0,0],[0.04544,-1.00139]],[[237.40711,137.24758],[-0.03209,1.00714],[-1.81421,0.25412]]],&quot;closed&quot;:true}]}" fill="#999999" stroke="none" stroke-width="0.5"/><path d="M327.78081,149.62037c0.30584,-1.43965 0.23895,-3.04879 0.08046,-4.58685c0.18529,-0.05203 0.31123,-0.13606 0.31123,-0.13606l0.12107,-0.20702c3.93314,-0.45705 6.53262,0.752 10.1081,1.82939c-1.31823,0.6973 -2.58771,1.50162 -3.93223,2.08704c-1.84659,0.80402 -4.59915,0.35627 -6.59664,1.00292c-0.0306,0.00362 -0.06138,0.00696 -0.09201,0.01058z" data-paper-data="{&quot;noHover&quot;:false,&quot;origItem&quot;:[&quot;Path&quot;,{&quot;applyMatrix&quot;:true,&quot;segments&quot;:[[[243.06965,148.48691],[-0.03081,0.00007],[2.0588,-0.41176]],[[249.66667,148.22981],[-1.92705,0.5855],[1.40311,-0.42631]],[[253.7895,146.64835],[-1.3899,0.54048],[-3.42721,-1.4829]],[[244.05361,143.69377],[3.9596,0],[0,0]],[243.91054,143.88335],[[243.58661,143.98057],[0.19006,-0.03029],[-0.02011,1.54608]],[[242.97718,148.48708],[0.46997,-1.39472],[0.03084,-0.00005]]],&quot;closed&quot;:true}]}" fill="#999999" stroke="none" stroke-width="0.5"/><path d="M305.38353,147.81782c0.44964,-0.32088 1.04985,-0.59611 1.73173,-0.93421c3.59109,-1.7806 6.51514,-0.55861 10.32449,-1.00268c1.5579,-0.18161 2.45308,-1.01682 3.9245,-1.27579c0.0361,0.44733 0.07885,0.9025 0.12481,1.3505c0.10775,1.05046 0.05405,2.52106 0.56365,3.55683c-2.53671,0.10109 -5.12369,0.0933 -7.62766,-0.19951c-2.91598,-0.34099 -6.12634,-1.57002 -9.04153,-1.49512z" data-paper-data="{&quot;noHover&quot;:false,&quot;origItem&quot;:[&quot;Path&quot;,{&quot;applyMatrix&quot;:true,&quot;segments&quot;:[[[229.81105,147.32584],[-2.86597,-0.63674],[2.46103,0.54678]],[[237.35022,148.33418],[-2.53379,-0.15827],[-0.40126,-1.08236]],[[237.15078,144.75977],[0,1.05597],[0,-0.45036]],[[237.16616,143.41141],[-0.00974,0.44868],[-1.49016,0.10748]],[[233.13337,144.28406],[1.56831,-0.0217],[-3.83479,0.05306]],[[222.8552,144.22195],[3.75403,-1.40489],[-0.71284,0.26676]],[[221.03849,144.9675],[0.48003,-0.27332],[2.90762,0.22295]]],&quot;closed&quot;:true}]}" fill="#999999" stroke="none" stroke-width="0.5"/><path d="M337.84344,155.13126c-3.7458,3.18731 -8.57737,5.02762 -13.79518,5.44394c-2.44828,0.21278 -3.79152,-0.79529 -5.89327,-1.786c-1.87463,-0.88366 -4.3323,-1.25369 -5.9346,-2.64783c-2.28358,-1.98695 -4.75187,-4.76435 -7.48001,-6.09986c-0.05136,-0.20691 -0.08657,-0.39892 -0.10719,-0.57538c0.22903,0.07289 0.43053,0.05669 0.43053,0.05669c2.83123,-0.27782 6.20454,1.21274 9.08831,1.61646c3.89246,0.54493 8.00711,0.45662 11.90114,0.21273c0.24093,0.00891 0.46748,0.00046 0.6552,-0.03822c0.49266,-0.03342 0.99025,-0.06156 1.47706,-0.09929c2.20266,-0.62627 4.82819,-0.11142 6.93833,-0.8736c2.11697,-0.76464 3.90528,-2.06451 6.14508,-2.8182l0.09901,-0.04873c1.31695,0.46354 2.40852,1.09239 1.25689,1.78714c-0.37549,0.67385 -0.77875,1.32184 -1.20982,1.93533c-0.3525,0.30028 -0.71462,0.60135 -1.08831,0.90018c-0.41561,0.0351 -0.702,0.37218 -0.702,0.37218l-0.87215,1.0344c-0.30398,0.54021 -0.60682,1.08689 -0.90903,1.62807z" data-paper-data="{&quot;noHover&quot;:false,&quot;origItem&quot;:[&quot;Path&quot;,{&quot;applyMatrix&quot;:true,&quot;segments&quot;:[[[253.61024,153.57032],[-0.34599,0.51432],[0,0]],[254.5619,152.61178],[[255.29132,152.29752],[-0.41708,0.00193],[0.39627,-0.26816]],[[256.44793,151.4889],[-0.37527,0.27129],[0.4785,-0.57725]],[[257.80846,149.66036],[-0.42789,0.64184],[1.20324,-0.60095]],[[256.69903,147.78435],[1.27591,0.56681],[0,0]],[[256.69211,147.79591],[0,0],[-2.29265,0.57316]],[[250.24624,150.14399],[2.17108,-0.59385],[-2.16407,0.59194]],[[243.26673,150.47717],[2.24549,-0.44909],[-0.48826,-0.00111]],[[241.79335,150.46712],[0.49376,0.00587],[-0.1902,0.02364]],[[241.14262,150.45773],[0.23946,0.02805],[-3.90109,-0.06661]],[[229.37227,149.27711],[3.83678,0.85279],[-2.84253,-0.6318]],[[220.44226,146.94034],[2.84436,-0.05176],[0,0]],[[220.01764,146.84947],[0.22251,0.09087],[0.00652,0.17755]],[[220.07911,147.43028],[-0.03474,-0.21033],[2.61328,1.54826]],[[227.05221,154.08748],[-2.11832,-2.16228],[1.48632,1.51717]],[[232.74987,157.17625],[-1.79841,-1.02996],[2.0163,1.15474]],[[238.44592,159.40229],[-2.45745,0.01739],[5.23439,0]],[[252.57511,155.11512],[-3.98744,2.87929],[0.3443,-0.51542]]],&quot;closed&quot;:true}]}" fill="#999999" stroke="none" stroke-width="0.5"/><path d="M299.39663,120.33502c2.12888,4.82224 8.2917,8.09795 13.42246,6.35842c0.71009,-0.54462 1.58577,-0.88615 2.22092,-1.51656c0.95209,-0.94501 1.03026,-2.17283 1.42028,-3.33277c0.3939,-1.17149 1.1918,-2.65463 1.88545,-4.13226c0.49885,1.96875 1.30758,3.79874 1.72985,5.86367c0.83509,4.08368 0.67314,8.71684 0.99481,12.87832c0.00566,0.07326 0.01086,0.14733 0.01622,0.22053c-3.74129,0.70395 -4.94044,4.36805 -1.20105,6.59634c-0.53557,0.22614 -1.04123,0.50595 -1.68301,0.75643c-1.81745,0.70933 -4.31663,-0.37992 -6.15537,-0.44156c-3.37035,-0.11298 -7.57099,1.18357 -8.90803,3.94183l-0.08462,-1.07533c-0.46331,-5.99394 -2.40049,-11.67136 -2.85898,-17.60287c-0.21274,-2.75225 -0.22283,-5.75354 -0.79893,-8.5142z" data-paper-data="{&quot;noHover&quot;:false,&quot;origItem&quot;:[&quot;Path&quot;,{&quot;applyMatrix&quot;:true,&quot;segments&quot;:[[[217.31028,125.87069],[0,-2.76046],[0,5.9492]],[[218.78599,143.5792],[0,-6.01182],[0,0]],[[218.78599,144.65691],[0,0],[1.54563,-2.64701]],[[227.94299,141.40613],[-3.35162,-0.37239],[1.82852,0.20316]],[[234.02415,142.32697],[-1.86671,0.56716],[0.65917,-0.20028]],[[235.755,141.706],[-0.55141,0.18419],[-3.55655,-2.50985]],[[237.44548,135.2404],[-3.78441,0.41352],[0.00029,-0.0734]],[[237.44592,135.02009],[0,0.07348],[0,-4.1739]],[[237.45341,122.15603],[0.51789,4.13589],[-0.26187,-2.09134]],[[236.19296,116.18725],[0.34564,2.00134],[-0.80545,1.41978]],[[234.04788,120.07726],[0.48301,-1.13765],[-0.47825,1.12643]],[[232.31946,123.37381],[1.02209,-0.86882],[-0.68185,0.57959]],[[229.99622,124.71921],[0.74995,-0.48828],[-5.24956,1.33894]],[[217.15516,117.33905],[1.75091,4.97196],[0.36163,2.79685]]],&quot;closed&quot;:true}]}" fill="#999999" stroke="none" stroke-width="0.5"/><path d="M333.74576,113.53783c-2.03896,0.12246 -4.10794,0.3609 -6.1168,0.57539c-0.04336,-1.20391 0.14686,-2.35184 0.64978,-3.23852c2.40112,-4.45343 6.13131,-4.85011 10.78947,-4.12909c0.7362,0.11395 1.52482,-0.13557 2.24318,0.06172c0.62167,0.17073 0.79666,1.0438 1.2901,1.4587c1.3881,1.16716 2.21258,2.04356 1.85093,4.06664c0.00705,0.0795 0.0254,0.16452 0.05096,0.25067c-0.182,0.21529 -0.24128,0.46429 -0.24128,0.46429l-0.13164,0.67335l-0.40062,-0.09358c-3.49188,-0.55098 -6.73849,-0.39075 -9.98409,-0.08957z" data-paper-data="{&quot;noHover&quot;:false,&quot;origItem&quot;:[&quot;Path&quot;,{&quot;applyMatrix&quot;:true,&quot;segments&quot;:[[[261.70952,114.27544],[-3.42953,-0.85738],[0,0]],[262.10014,114.40438],[262.28915,113.74879],[[262.56949,113.31035],[-0.20031,0.19836],[-0.01785,-0.08808]],[[262.54047,113.05741],[0,0.07981],[0.539,-1.98321]],[[261.05502,108.86928],[1.27954,1.28525],[-0.45485,-0.45688]],[[259.90374,107.3152],[0.60415,0.225],[-0.69812,-0.25999]],[[257.68275,107.06633],[0.72325,0.17856],[-4.57623,-1.12981]],[[246.65652,110.19259],[2.78525,-4.22384],[-0.5793,0.83877]],[[245.72042,113.34326],[0.06319,-1.20303],[2.01996,-0.03614]],[[251.84871,113.28834],[-2.04181,-0.05819],[3.25951,-0.01321]]],&quot;closed&quot;:true}]}" fill="#999999" stroke="none" stroke-width="0.5"/><path d="M298.70306,117.96852c-0.81095,-2.19911 -1.5271,-4.38909 -1.88385,-6.60438c3.15236,-0.55408 6.37144,-1.79479 9.53212,-2.7422c-0.75711,0.63882 -1.53125,1.48646 -2.39918,1.88538c-1.69544,0.77928 -3.01357,0.87332 -4.06425,2.45024l-0.0777,0.18265c-0.36119,0.17201 -0.51873,0.54701 -0.51873,0.54701c-0.55571,1.43599 -0.77415,2.91579 -0.5884,4.28129z" data-paper-data="{&quot;noHover&quot;:false,&quot;origItem&quot;:[&quot;Path&quot;,{&quot;applyMatrix&quot;:true,&quot;segments&quot;:[[[217.48184,110.66638],[-0.66473,1.38889],[0,0]],[[218.0419,110.14936],[-0.37337,0.14366],[0,0]],[[218.1345,109.96861],[0,0],[1.16908,-1.49125]],[[222.45645,107.81458],[-1.75045,0.6463],[0.89608,-0.33085]],[[224.92382,106.19087],[-0.80409,0.57857],[-3.22429,0.701]],[[215.29088,108.17873],[3.18569,-0.30949],[0.18497,2.23619]],[[216.6464,114.84774],[-0.63906,-2.25507],[-0.07996,-1.37575]]],&quot;closed&quot;:true}]}" fill="#999999" stroke="none" stroke-width="0.5"/><path d="M313.72419,116.99508c0.86904,-0.0538 1.81662,-0.17171 2.68162,-0.23857l0.30239,-0.02269c-0.72077,1.55236 -1.60376,3.07072 -2.06021,4.39977c-0.28337,0.82508 -0.31102,2.04318 -1.02498,2.71815c-0.50249,0.47503 -1.19982,0.73316 -1.73815,1.16714c-4.48432,1.458 -10.61373,-2.60066 -11.2817,-7.33739c0.75733,-0.05749 1.60413,-0.06373 2.36248,-0.11129c-0.1814,1.02254 -0.39013,1.9619 0.58758,2.87946c0.55183,0.51788 1.99639,0.3362 2.71763,0.58636c1.59445,0.55302 3.3184,1.23428 5.07837,0.52015c1.93986,-0.78713 2.09074,-2.80705 2.37498,-4.56109z" data-paper-data="{&quot;noHover&quot;:false,&quot;origItem&quot;:[&quot;Path&quot;,{&quot;applyMatrix&quot;:true,&quot;segments&quot;:[[[228.99602,119.44923],[1.99475,-0.63529],[-1.80977,0.57637]],[[223.87455,118.52123],[1.54709,0.67426],[-0.69981,-0.305]],[[221.21087,117.72354],[0.51028,0.55887],[-0.90408,-0.99018]],[[220.85516,114.78898],[-0.25967,1.00552],[-0.75976,-0.01104]],[[218.57615,114.77001],[0.75951,0.00104],[0.30094,4.77413]],[[229.18711,122.89018],[-4.58335,1.10807],[0.57018,-0.3912]],[[230.99585,121.87445],[-0.5376,0.43489],[0.76387,-0.61794]],[[232.21885,119.26816],[-0.34611,0.80079],[0.55751,-1.28992]],[[234.61684,115.06501],[-0.83826,1.4922],[0,0]],[[234.31393,115.06501],[0,0],[-0.86758,0]],[[231.70649,115.04369],[0.8706,0.01334],[-0.41858,1.72692]]],&quot;closed&quot;:true}]}" fill="#ffffff" stroke="none" stroke-width="0.5"/><path d="M300.65568,115.70928c0.04779,-0.23966 0.10995,-0.48284 0.1896,-0.72233c0.34488,-0.17707 0.49491,-0.54957 0.49491,-0.54957l0.19424,-0.50208c0.25695,-0.79209 2.31015,-1.21788 3.23394,-1.65343c1.26164,-0.59484 2.38276,-2.21951 3.62578,-2.67276c0.79722,-0.2907 2.12618,-0.11043 2.99532,-0.21989c1.3613,0.81735 3.03828,0.91306 4.59413,1.1663c0.48642,0.07918 1.25977,-0.17341 1.45334,0.2798c0.54326,1.27196 0.44658,2.61901 0.05736,3.93424c-0.19574,-0.04861 -0.3546,-0.036 -0.3546,-0.036l-0.88339,0.07021c-5.12343,0.39602 -10.42653,0.51993 -15.60061,0.90552z" data-paper-data="{&quot;noHover&quot;:false,&quot;origItem&quot;:[&quot;Path&quot;,{&quot;applyMatrix&quot;:true,&quot;segments&quot;:[[[234.31393,113.06501],[-5.13871,0],[0,0]],[235.19936,113.06501],[[235.55002,113.12857],[-0.19141,-0.06355],[0.48943,-1.28132]],[[235.79339,109.22432],[0.44362,1.31005],[-0.15806,-0.46678]],[[234.36654,108.83718],[0.47887,0.11643],[-1.53171,-0.37239]],[[229.89216,107.34842],[1.29426,0.91983],[-0.875,0.04215]],[[226.93003,107.34842],[0.81725,-0.22839],[-1.27426,0.35609]],[[223.15035,109.69035],[1.30373,-0.49584],[-0.95461,0.36307]],[[219.7986,111.07801],[0.31723,-0.76993],[0,0]],[219.56584,111.56081],[[219.02959,112.06827],[0.3575,-0.14996],[-0.09787,0.23264]],[[218.784,112.77044],[0.06612,-0.23527],[5.18841,0.01431]]],&quot;closed&quot;:true}]}" fill="#999999" stroke="none" stroke-width="0.5"/><path d="M343.64676,146.03772c-0.29055,-0.13044 -0.6104,-0.23206 -0.95354,-0.30001c-0.19544,-0.0387 -0.39025,-0.08132 -0.58347,-0.12811c-0.15407,-0.21477 -0.42063,-0.40156 -0.87711,-0.36107c-0.09157,0.00812 -0.1743,0.02412 -0.24845,0.04611c-2.45076,-0.7759 -4.7851,-2.04021 -7.30627,-2.84214c-1.31872,-0.41947 -2.80578,-0.2027 -4.20122,-0.02902c2.0716,-2.03052 0.86113,-3.8942 -1.10921,-5.17671c-0.01172,-5.56116 -1.16469,-11.29619 -0.87204,-16.8021c0.59179,1.01828 1.3093,1.90307 2.10855,2.57963c1.77095,1.49913 3.90977,1.45931 6.05001,1.53612c2.21199,0.07939 4.35462,0.40033 6.21584,-0.99938c2.57737,-2.06927 3.90102,-4.93339 4.05608,-8.06492c0.00843,-0.00798 0.01675,-0.01602 0.02494,-0.02417c0.74424,-0.74155 0.48378,-2.16351 0.40351,-3.06832c0.95728,-6.80391 -8.1068,-9.06053 -13.35619,-7.90333c-2.77158,0.61099 -5.10213,3.04031 -6.43683,5.46209c-0.67252,1.26804 -0.90444,2.71769 -0.83052,4.32237c-0.28553,0.1107 -0.66938,0.37636 -0.61339,1.00755c0.06033,0.6801 0.56039,0.86102 0.86107,0.90332c0.01288,0.06483 0.02834,0.13096 0.04219,0.19569c-0.03526,0.2234 -0.06513,0.45101 -0.10038,0.67442c-0.99786,6.56224 0.47932,13.43279 0.45949,20.0975c-0.01648,0.02587 -0.03271,0.05314 -0.04838,0.08185c-0.24472,0.44846 -0.13548,0.79284 0.03009,1.02243c-0.03929,1.30097 -0.14697,2.5968 -0.35018,3.88468c0.16548,1.99578 0.29206,3.92432 0.22733,5.90584c-0.01525,0.46673 0.34399,1.09892 0.16606,1.47021c-0.12118,0.00913 -0.24313,0.01811 -0.36463,0.02682c-0.06823,-0.09544 -0.14047,-0.20594 -0.22833,-0.23638c-0.49451,-0.17127 -1.22161,0.06433 -1.5312,-0.35761c-0.46005,-0.62699 -0.31146,-2.22917 -0.37489,-2.94411c-0.28725,-3.23809 -0.27888,-6.45946 -0.56882,-9.72776c-0.37636,-4.24254 -0.28717,-8.90248 -1.18528,-13.06185c-0.60045,-2.78086 -1.94349,-5.17864 -2.19869,-8.0554c0,0 -0.03631,-0.4304 -0.34335,-0.70038c0.4149,-1.66534 0.4727,-3.22984 -0.48821,-4.65742c-1.25095,-1.85849 -5.40659,-1.24714 -7.29509,-2.21803c1.39245,-0.15508 2.72692,-0.22757 4.14346,0.00589c0.64871,0.00352 1.4376,0.40361 1.95112,0.0072c0.65685,-0.50704 0.86752,-3.03218 0.34281,-3.69637c-1.02871,-1.30218 -4.87606,-1.42721 -6.39464,-1.09245c-1.86336,0.41077 -3.54518,1.87472 -5.26403,2.56813c-1.39285,0.56189 -3.53956,-0.33614 -4.87502,0.50316c-0.42182,0.2651 -1.29737,2.0727 -1.36223,2.90214c-1.21228,0.35841 -2.52292,0.6373 -3.75012,0.8552c-0.09856,-1.37752 -0.04584,-2.81068 0.20315,-4.32144c0.09561,-0.6288 -0.11946,-3.51198 0.64174,-3.86468c3.70483,-1.71658 8.22496,-2.8781 11.95832,-4.89298c1.9978,-1.07821 3.42086,-2.28677 5.83287,-2.53713c2.15058,-1.28242 4.49352,-2.43151 6.68289,-3.61663c0.65145,-0.35263 1.44076,-0.40139 2.1144,-0.70325c-0.46608,0.55911 -0.91198,1.32345 -1.29178,1.70288c-1.33789,1.33659 -2.57543,2.66534 -3.60836,4.21295l-0.0081,0.00499l-0.0783,-0.09768l-0.81575,0.656c-0.25889,0.20172 -0.41201,0.52625 -0.38085,0.87749c0.0488,0.55012 0.50683,0.8604 1.05695,0.81159c0.1673,-0.01484 0.32238,-0.07034 0.45435,-0.15551l1.10942,-0.68232l-0.01386,-0.02244l0.06588,-0.01182c1.81708,-1.45374 3.88777,-1.75032 6.0369,-2.5003c4.1438,-1.44606 9.24747,-3.99763 12.62599,-6.80257c2.31084,-0.80045 3.00419,-2.09934 5.6806,-1.64317c1.92353,0.32786 1.81179,2.1021 2.30049,3.52642c1.34311,3.91447 2.42724,7.55131 2.79254,11.66927c0.02495,0.26035 -0.03965,0.57613 -0.02689,0.83632c-1.79799,-0.27323 -3.44746,-1.05876 -5.07719,-1.88219c-0.65812,0.03908 -1.32196,0.10222 -1.99194,0.1754c-0.85418,-4.11132 -4.36886,-2.73975 -7.88389,-2.87794c-2.03115,-0.07986 -4.47478,-0.04889 -6.35928,0.94401c-0.97704,0.51478 -1.86097,1.46203 -2.81772,2.04939l-0.77609,0.84979c0,0 -0.63802,0.6669 0.1288,1.30876c0.00623,0.00521 0.0125,0.01033 0.01871,0.01535c-0.08367,0.81069 -0.03757,1.68347 0.55873,2.08931c1.40604,0.95694 3.78805,-1.47055 5.04635,-1.71937c3.51398,-0.69487 7.39623,-0.47761 11.11309,-0.697c0.08301,0.01109 0.17474,0.01354 0.27547,0.0046c0.07657,-0.00679 0.14689,-0.01878 0.21119,-0.03543c0.72181,-0.05048 1.4388,-0.11744 2.14404,-0.21438c1.59107,0.9862 3.42667,1.6151 5.25937,1.92417l0.2241,0.1027c-0.14318,2.59518 -0.71164,5.16804 -1.14195,7.61468c-0.04969,0.28252 -0.01358,0.57081 0.04403,0.85839c-0.44159,1.70837 -0.63659,3.51273 -0.57427,5.29254c-0.48043,2.66457 -0.87704,5.38913 -1.12478,8.12846c-1.92783,3.08552 -0.28111,6.43334 -0.40335,9.81891c-0.06117,1.69429 -1.04094,2.86265 -1.35704,4.40158c-0.40439,1.96879 -0.85695,3.90202 -1.81983,5.79094z" data-paper-data="{&quot;noHover&quot;:false,&quot;origItem&quot;:[&quot;Path&quot;,{&quot;applyMatrix&quot;:true,&quot;segments&quot;:[[[261.10017,140.92828],[-0.57678,1.92536],[0.45085,-1.50499]],[[262.83561,136.66876],[-0.21064,1.68226],[0.42092,-3.36153]],[[264.09578,126.93823],[-2.19294,2.9031],[0.48881,-2.70672]],[[265.93053,118.95768],[-0.714,2.6117],[0.09521,-1.77836]],[[266.97074,113.74708],[-0.59082,1.66267],[-0.03197,-0.29154]],[[267.00302,112.8898],[-0.07446,0.27703],[0.64483,-2.39905]],[[268.81701,105.41726],[-0.37194,2.57238],[0,0]],[[268.603,105.29547],[0,0],[-1.79822,-0.46981]],[[263.53834,102.92129],[1.4977,1.12293],[-0.71105,0.03425]],[[261.38518,102.94738],[0.72345,0.0135],[-0.06551,0.01091]],[[261.17184,102.9642],[0.07687,0],[-0.10113,0]],[[260.8981,102.93558],[0.08171,0.01838],[-3.72171,-0.1099]],[[249.78349,102.66156],[3.56164,-0.38165],[-1.27535,0.13666]],[[244.61877,103.93297],[1.31598,1.07744],[-0.5581,-0.45694]],[[244.24916,101.80282],[-0.15498,0.80013],[-0.00574,-0.00556]],[[244.23193,101.78588],[0.00574,0.00574],[-0.70711,-0.7071]],[244.23193,100.37166],[[245.08211,99.59406],[0,0],[1.00491,-0.50052]],[[248.07619,97.80312],[-1.01871,0.42643],[1.96486,-0.8225]],[[254.50576,97.42999],[-2.01615,-0.25902],[3.48906,0.44826]],[[262.11681,101.00398],[-0.48755,-4.17072],[0.67383,-0.01369]],[[264.11791,101.0071],[-0.659,-0.01923],[1.55059,0.96421]],[[269.01318,103.33725],[-1.76681,-0.43104],[0.01027,-0.26031]],[[269.0261,102.55448],[0.00185,0.26153],[0,-4.13414]],[[267.28511,90.6962],[0.99196,4.01784],[-0.36093,-1.46193]],[[265.30919,86.98363],[1.88704,0.49655],[-2.62563,-0.69089]],[[259.5104,88.12162],[2.37253,-0.59313],[-3.61316,2.49542]],[[246.34936,93.78805],[4.25537,-1.07425],[-2.20699,0.55715]],[[240.12841,95.7457],[1.93843,-1.28749],[0,0]],[240.06191,95.75164],[240.0737,95.77522],[[238.91113,96.35651],[0,0],[-0.13897,0.07317]],[[238.44592,96.47108],[0.16796,0],[-0.55229,0]],[[237.44592,95.47108],[0,0.55228],[0,-0.35262]],[[237.90412,94.63042],[-0.2757,0.17806],[0,0]],[238.77664,94.04874],[238.84611,94.15294],[[238.85464,94.14868],[0,0],[1.16565,-1.45028]],[[242.82934,90.2706],[-1.45076,1.21314],[0.41184,-0.34439]],[[244.26156,88.78838],[-0.51366,0.51574],[-0.69767,0.24116]],[[242.09703,89.30218],[0.68006,-0.29369],[-2.28553,0.98702]],[[235.13397,92.31234],[2.25549,-1.08737],[-2.4247,0.03625]],[[229.11079,94.3196],[2.08526,-0.89746],[-3.89679,1.67711]],[[216.78214,98.1236],[3.84202,-1.38249],[-0.78939,0.28405]],[[215.80471,101.91159],[0.1508,-0.61789],[-0.38152,1.48285]],[[215.22359,106.1921],[0.02355,-1.38084],[1.24166,-0.10862]],[[218.94419,105.62907],[-1.23921,0.24988],[0.1379,-0.82046]],[[220.56069,102.85337],[-0.4436,0.22679],[1.40442,-0.71801]],[[225.46503,102.77796],[-1.43705,0.43662],[1.77339,-0.53881]],[[230.94519,100.67655],[-1.89236,0.24451],[1.54222,-0.19926]],[[237.23058,102.32389],[-0.90962,-1.38799],[0.46396,0.70795]],[[236.59928,106.06825],[0.69908,-0.44702],[-0.54654,0.34949]],[[234.66168,105.88576],[0.64586,0.06083],[-1.39037,-0.35772]],[[230.47359,105.43541],[1.4007,-0.03143],[1.79531,1.13396]],[[237.55674,108.2806],[-1.08184,-1.96176],[0.831,1.50691]],[[237.68822,113.04379],[0.56043,-1.62216],[0.28199,0.29606]],[[237.97021,113.76987],[0,0],[0,2.88806]],[[239.43843,121.91166],[-0.35238,-2.82304],[0.52706,4.22245]],[[239.44592,135.02009],[0,-4.2592],[0,3.28113]],[[239.15078,144.75977],[0,-3.25081],[0,0.71775]],[[239.26333,147.72542],[-0.40285,-0.66519],[0.2711,0.44763]],[[240.75445,148.21676],[-0.47744,-0.2143],[0.08483,0.03807]],[[240.96064,148.47237],[-0.05953,-0.1011],[0.12179,0.00206]],[[241.32563,148.47785],[-0.12152,-0.00161],[0.21004,-0.35412]],[[241.29026,146.99872],[-0.05643,0.46355],[0.23958,-1.96805]],[[241.5854,141.09588],[-0.01152,2.0026],[0.31623,-1.26489]],[[242.27595,137.25733],[-0.15409,1.29241],[-0.14464,-0.24332]],[[242.33614,136.23624],[-0.28339,0.42508],[0.01814,-0.02721]],[[242.39141,136.15899],[-0.0187,0.02431],[0.60867,-6.63689]],[[243.67376,116.18361],[-1.57382,6.4484],[0.05486,-0.21941]],[[243.83832,115.52536],[-0.05486,0.21941],[-0.00806,-0.0657]],[[243.81556,115.32823],[0.0071,0.06572],[-0.29577,-0.06871]],[[243.05361,114.36016],[0,0.68277],[0,-0.63366]],[[243.74934,113.40932],[-0.29419,0.08504],[0.06817,-1.60492]],[[244.99242,109.08319],[-0.78194,1.20365],[1.54348,-2.29435]],[[251.90026,104.21825],[-2.81473,0.36369],[5.33112,-0.68882]],[[264.52549,113.30177],[1.55475,-6.69271],[0,0.90836]],[[263.85325,116.32893],[0.80685,-0.67288],[-0.00888,0.00741]],[[263.82628,116.35085],[0.0091,-0.0072],[-0.43117,3.10558]],[[259.07027,124.04646],[2.75014,-1.83343],[-1.97763,1.22977]],[[252.78569,124.50206],[2.19632,0.27454],[-2.12509,-0.26564]],[[246.88821,122.44581],[1.63156,1.64975],[-0.73633,-0.74455]],[[245.02148,119.68333],[0.4995,1.06659],[-0.77803,5.45851]],[[244.35874,136.41818],[0.47973,-5.54044],[1.84931,1.45159]],[[245.00613,141.67266],[2.24292,-1.83952],[1.40533,-0.0497]],[[249.18044,142.07441],[-1.2765,-0.53435],[2.44045,1.02158]],[[256.19835,145.55442],[-2.37262,-0.98942],[0.07581,-0.01535]],[[256.44957,145.53062],[-0.09193,0],[0.45828,0]],[[257.2906,145.96818],[-0.13449,-0.22754],[0.18833,0.06368]],[[257.85989,146.14765],[-0.19126,-0.05582],[0.33578,0.09801]],[[258.78238,146.53121],[-0.27789,-0.15561],[1.12602,-1.79645]]],&quot;closed&quot;:true}]}" fill="#999999" stroke="none" stroke-width="0.5"/><path d="M298.39386,118.60587c0.28568,0.98977 0.62397,1.96662 0.8187,2.99591c1.12732,5.95866 1.57386,11.69487 -0.24112,17.45769c-1.78953,2.73353 -6.52391,2.25567 -7.82826,-0.76012c-2.76829,-6.40057 -3.25267,-14.73451 -3.78358,-21.60296c-0.13659,-1.76705 -0.72894,-3.87111 0.42318,-5.43284c1.40017,-1.89799 6.54205,-1.59612 8.34991,-0.53416c1.99355,1.17102 2.09601,5.63335 2.26118,7.87651z" fill="#c300f0" stroke="none" stroke-width="0.5"/><path d="M349.58368,111.76183c-0.39079,-0.25774 -0.43604,-0.76787 -0.43604,-0.76787l-0.02608,-0.29399c-0.1677,-1.89047 -1.4384,-6.46486 0.43632,-7.73876c1.68477,-1.14483 4.67736,0.39826 6.416,0.24403c2.93518,1.54443 2.54678,3.97113 2.80961,6.93392c0.59862,6.74804 1.36971,14.37781 -2.62433,20.094c-3.3769,0.41111 -4.88431,-1.64265 -6.22906,-4.44156c-2.27579,-4.73674 -0.63257,-9.24623 -0.34641,-14.02977z" fill="#c300f0" stroke="none" stroke-width="0.5"/><path d="M293.3711,112.0504c-0.17378,-0.25383 -0.19591,-0.53994 -0.19591,-0.53994l-0.04549,-0.58852c-0.03432,-0.44398 -0.228,-2.58487 -0.10037,-2.83369c1.13783,-2.21815 5.44858,-1.3916 6.32954,0.58143c1.23692,2.77026 0.64866,7.83508 0.88395,10.87912c0.41295,5.34239 1.69436,10.29915 1.50254,15.67188c-0.06747,1.88983 -0.6227,7.50699 -4.03708,5.80276c-1.3564,-0.67702 -1.62393,-3.96854 -2.06252,-5.30756c-0.63626,-7.65777 -2.94401,-15.85904 -2.27467,-23.66548z" fill="#00b539" stroke="none" stroke-width="0.5"/><path d="M346.58479,107.05045c-0.47437,-0.23295 -0.52641,-0.81956 -0.52641,-0.81956l-0.02608,-0.29398c-0.12944,-1.52512 -0.49048,-5.22588 0.87647,-6.30503c0.73499,-0.58025 4.33031,0.42636 4.88601,1.01745c1.15776,1.23147 0.52821,1.80195 0.48636,3.0781c-0.07227,2.20315 0.30761,4.44868 -0.02587,6.64174c-0.53056,3.21917 -0.30221,7.6443 0.3931,10.85841c0.44062,2.03675 1.77917,3.95499 1.41547,6.15377c-0.34699,2.09775 -2.61622,6.02997 -5.02012,3.75599c-0.83581,-0.79063 -0.88665,-2.70003 -1.65332,-3.69633c-0.49995,-4.22974 -1.24396,-8.79256 -1.19311,-13.04869c0.02957,-2.47504 0.35085,-4.88962 0.38748,-7.34189z" fill="#00b539" stroke="none" stroke-width="0.5"/><path d="M356.43231,121.58678c-2.40923,-0.66754 -1.74169,-3.07676 -1.74169,-3.07676l0.63251,-2.25987c1.2921,-10.05661 3.72858,-20.25988 2.8333,-30.35203c-0.61397,-7.01913 -1.86869,-14.57485 -4.43589,-21.11445c-0.83599,-2.12956 -1.02945,-5.38302 -2.22046,-7.31001c-1.39622,-2.25899 -5.53415,-2.80784 -7.80488,-3.10245c-5.46882,-0.70951 -10.74167,-2.01725 -16.30775,-2.07682c-14.735,-1.59706 -33.71765,-0.88217 -40.52499,15.03383c-1.27641,2.98433 -1.41591,6.59104 -1.83598,9.76471c-0.23798,11.13973 -1.14183,22.52987 0.93092,33.62961c1.03349,5.53446 3.24363,10.80216 4.94106,16.15369c0,0 0.75586,2.383 -1.62715,3.13885c-2.383,0.75586 -3.13885,-1.62715 -3.13885,-1.62715c-1.758,-5.54251 -4.02968,-10.99836 -5.08772,-16.73496c-2.12908,-11.54376 -1.26994,-23.35277 -1.00374,-34.94058c0.48416,-3.7348 0.73447,-7.82099 2.21818,-11.33599c7.61077,-18.03031 28.51726,-19.93989 45.42838,-18.07298c4.79855,0.056 9.4559,0.84433 14.13143,1.78566c4.76498,0.95933 10.7303,0.97767 13.83439,5.60065c1.4843,2.2106 1.73817,5.76892 2.71569,8.25236c2.75172,6.99094 4.09435,15.01852 4.76783,22.51421c0.93808,10.57465 -1.51298,21.26378 -2.91365,31.78838l-0.71415,2.6004c0,0 -0.66753,2.40924 -3.07677,1.7417z" fill="#82007c" stroke="none" stroke-width="0.5"/><path d="M299.28052,182.83613c-0.50678,-0.57776 -1.60609,-2.77824 -2.31506,-3.0928c-4.01929,-1.78326 -5.58475,0.6182 -8.99205,2.08393c-1.16579,0.09667 -2.84072,0.38941 -3.94003,-0.23266c-2.5045,-1.41721 -3.52148,-5.05834 -2.01941,-7.49377c0.91848,-1.4892 3.20465,-2.71823 3.25626,-4.62892c0.06028,-2.23195 -3.69744,-3.25011 -4.22458,-5.23866c-0.67711,-2.55428 2.22383,-4.77676 3.68348,-6.48096c0.12847,-0.14963 1.79501,-2.039 1.89085,-2.33883c0.3651,-1.14211 -0.6316,-2.99201 -0.93535,-3.96101c-0.8008,-2.5545 -3.24699,-7.66441 -2.51367,-10.34227c0.97316,-3.55367 6.05312,-5.24399 8.24941,-7.85291c0,0 0.81313,-0.94937 1.76251,-0.13624c0.94937,0.81313 0.13624,1.76251 0.13624,1.76251c-1.95545,2.25251 -6.82328,4.08621 -7.7716,7.0025c-0.41966,1.29054 1.21496,3.84311 1.61792,4.97778c0.79782,2.24653 2.61317,6.79139 1.87038,9.19288c-0.3041,0.98315 -1.70657,2.50114 -2.40794,3.32185c-0.50399,0.58843 -3.54508,3.30969 -3.19403,4.11542c1.00663,2.31044 4.35904,2.73372 4.33611,5.94052c-0.02252,3.14927 -4.60825,4.90487 -4.14422,7.7726c0.07454,0.46063 1.24029,1.2462 1.36278,1.40016c0.5235,0.658 1.55659,0.84797 2.39547,0.79048c1.48699,-0.60491 1.97348,-1.64631 3.46535,-2.28835c2.15377,-0.92689 5.31142,-0.63224 7.3706,0.47145c1.79439,0.96176 2.55676,3.6318 4.09347,5.15607c0.03025,0.92615 0.09441,1.83637 0.19424,2.75317c-1.13833,-0.53459 -2.08454,-1.35134 -3.2271,-2.65394z" fill="#00b539" stroke="none" stroke-width="0.5"/><path d="M341.50621,99.55184c0,0 1.54643,0.18213 4.33726,0.72989c2.5491,0.50032 4.58605,1.34406 4.58605,1.34406l0.29776,1.14853c0,0 -7.49785,-2.47713 -15.27499,-1.12526c-6.21841,1.08095 -9.6757,3.68178 -9.6757,3.68178l-0.32351,-4.16453c0,0 2.96465,-1.9739 7.66893,-2.54317c4.87125,-0.58947 8.11144,-0.12599 8.11144,-0.12599z" data-paper-data="{&quot;index&quot;:null}" fill="#000000" stroke="none" stroke-width="1.5"/><path d="M301.93513,106.97757c0,0 3.21942,-2.07328 7.8327,-2.89404c5.11209,-0.90951 7.74002,-0.66476 7.74002,-0.66476l0.61307,4.10243c0,0 -3.87659,-0.38304 -8.03427,0.09834c-5.56039,0.64377 -6.51468,1.94077 -10.71958,2.72543c-3.60298,0.67234 -6.70495,0.67758 -6.70495,0.67758l-0.12072,-1.22589c0,0 3.59018,-0.20331 5.21287,-0.47151c1.33931,-0.22137 3.89158,-1.24169 3.89158,-1.24169z" fill="#000000" stroke="none" stroke-width="1.5"/></g></g></svg>