<svg version="1.1" xmlns="http://www.w3.org/2000/svg" xmlns:xlink="http://www.w3.org/1999/xlink" width="158.47917" height="290.60604" viewBox="0,0,158.47917,290.60604"><g transform="translate(-240.88542,-34.57198)"><g data-paper-data="{&quot;isPaintingLayer&quot;:true}" fill-rule="nonzero" stroke-linejoin="miter" stroke-miterlimit="10" stroke-dasharray="" stroke-dashoffset="0" style="mix-blend-mode: normal"><path d="M251.66371,204.80352l21.80772,1.28891l0.31952,36.28527l14.67575,-29.20475l15.8796,5.14326c0,0 -35.62117,60.35981 -37.24449,46.29818c-1.72485,-14.94108 -15.43809,-59.81087 -15.43809,-59.81087z" data-paper-data="{&quot;index&quot;:null}" fill="#000000" stroke="#ffffff" stroke-width="2" stroke-linecap="butt"/><path d="M281.53821,199.81039c-0.31444,13.01905 -9.44405,23.01046 -20.39156,22.31643c-10.94751,-0.69403 -19.56733,-11.81069 -19.2529,-24.82974c0.31444,-13.01905 9.44405,-23.01046 20.39156,-22.31643c10.94751,0.69403 19.56733,11.81069 19.2529,24.82974z" data-paper-data="{&quot;index&quot;:null}" fill="#000000" stroke="#ffffff" stroke-width="2" stroke-linecap="butt"/><path d="M357.70694,298.31121c0,0 -17.84362,-36.87688 -23.82656,-55.0636c-5.63078,-17.11622 -16.3952,-49.83745 -16.3952,-49.83745l22.20557,-7.83504c0,0 10.8117,32.86494 16.45327,50.01399c5.97444,18.16084 21.62109,53.9454 21.62109,53.9454l-20.05817,8.77671z" data-paper-data="{&quot;index&quot;:null}" fill="#000000" stroke="#ffffff" stroke-width="2" stroke-linecap="butt"/><path d="M378.81833,322.57936c-9.92313,4.67559 -22.08986,-1.25306 -27.17514,-13.24199c-5.08528,-11.98893 -1.16342,-25.4982 8.75971,-30.17379c9.92313,-4.67559 22.08986,1.25306 27.17514,13.24199c5.08528,11.98893 1.16342,25.4982 -8.75971,30.17379z" data-paper-data="{&quot;index&quot;:null}" fill="#000000" stroke="#ffffff" stroke-width="2" stroke-linecap="butt"/><path d="M269.25005,304.49055l28.01569,-129.70494l37.53646,4.3143l0.54405,132.70776z" data-paper-data="{&quot;index&quot;:null}" fill="#000000" stroke="#ffffff" stroke-width="2" stroke-linecap="butt"/><path d="M336.12785,195.77139l-15.73278,27.95716l-17.92816,87.7437l0.38035,-89.05443l-8.47437,-31.90077z" data-paper-data="{&quot;index&quot;:null}" fill="#ffffff" stroke="#ffffff" stroke-width="1.5" stroke-linecap="round"/><path d="M310.92748,206.45187l-1.93912,-9.98768l9.06274,1.33197l-3.22839,8.43413l2.20862,31.72708l-8.19294,12.64913l-4.31471,-10.48111z" data-paper-data="{&quot;index&quot;:null}" fill="#000000" stroke="none" stroke-width="0" stroke-linecap="butt"/><path d="M350.50216,120.01247c-0.75151,3.92411 -3.02726,6.23001 -3.70813,10.08121c-0.93158,5.26931 -1.38094,9.15158 -2.79365,15.03223c-1.56862,6.52967 -5.41187,8.97403 -11.32238,13.97881c-5.55063,4.70003 -11.21288,9.27135 -14.9932,8.78605c-3.92818,-0.50427 -6.71802,-4.35119 -11.90888,-10.69704c-5.19086,-6.34584 -7.91104,-9.40819 -8.34542,-15.67425c-0.69606,-10.04063 -0.14704,-13.11467 -0.42794,-16.18506c-0.2809,-3.07039 -1.95825,-7.10995 -1.75352,-12.79114c0.30184,-5.55846 0.92083,-27.08011 3.87648,-28.48705c2.50427,-1.19208 4.23915,1.5327 12.36644,5.98977c6.45836,3.79537 14.06528,6.31529 14.06528,6.31529c0,0 -2.31836,-3.29109 -3.4666,-4.97462c-1.08008,-1.58358 -2.89636,-4.80803 -2.89636,-4.80803c0,0 11.62035,8.43309 19.37865,11.69047c10.09849,4.2399 13.48384,4.65617 13.48384,4.65617c0,0 -0.1785,9.90173 -1.55458,17.08718z" data-paper-data="{&quot;index&quot;:null}" fill="#5a5a07" stroke="none" stroke-width="0" stroke-linecap="butt"/><path d="M304.68342,98.64616c0,0 3.24951,-0.39281 8.10677,0.30259c4.69077,0.67157 7.61174,2.70956 7.61174,2.70956l-0.41411,4.1565c0,0 -3.39984,-2.6755 -9.59324,-3.8916c-7.74585,-1.52089 -15.29586,0.79238 -15.29586,0.79238l0.32269,-1.14178c0,0 2.05484,-0.79917 4.61423,-1.24387c2.80209,-0.48686 4.35212,-0.63527 4.35212,-0.63527z" data-paper-data="{&quot;index&quot;:null}" fill="#5a5a07" stroke="none" stroke-width="0" stroke-linecap="butt"/><path d="M312.3444,143.82566c0.44092,-0.11041 4.30821,0.37914 5.44644,0.8626c1.13822,0.48347 2.1229,2.35248 2.1229,2.35248c0.24872,0.00389 0.41028,-1.5152 3.33606,-2.11483c2.73056,-0.55961 7.62577,0.26167 7.62577,0.26167c0,0 4.15902,1.45498 5.24327,2.07465c2.86261,1.00504 6.65746,2.0133 6.62927,2.13708c-0.02089,0.09179 -5.51293,0.12005 -10.53981,0.59853c-6.27211,0.59701 -13.46081,0.96998 -13.46081,0.96998c0,0 -3.90527,-0.80057 -6.57041,-1.43733c-3.1803,-0.75985 -13.52553,-1.91949 -13.52674,-2.13357c-0.00094,-0.16869 4.34277,-0.78143 7.42117,-1.65398c3.05408,-0.86565 5.68265,-1.76947 6.2729,-1.91728z" data-paper-data="{&quot;index&quot;:null}" fill="#5a5a07" stroke="none" stroke-width="0" stroke-linecap="butt"/><path d="M330.37811,150.40348c5.1732,-0.46033 12.50035,-1.01827 12.51934,-0.84601c0.019,0.17227 -10.63827,13.78207 -24.37216,12.70012c-12.09318,-0.88281 -19.7332,-14.34103 -19.65008,-14.69852c0.08501,-0.36564 9.13151,1.12943 11.15516,1.57073c2.61024,0.56922 8.19365,2.75268 8.19365,2.75268c0,0 6.98089,-1.01868 12.1541,-1.479z" data-paper-data="{&quot;index&quot;:null}" fill="#5a5a07" stroke="none" stroke-width="0" stroke-linecap="butt"/><path d="M319.7999,146.22047c-2.45657,-0.27195 -3.65513,-2.28103 -3.45501,-5.41622c0.23581,-3.69425 2.00981,-3.99162 4.4664,-3.71966c2.45657,0.27195 3.77064,2.37544 3.3425,4.2214c-0.47852,2.06316 -3.3264,5.02822 -4.35388,4.91447z" data-paper-data="{&quot;index&quot;:null}" fill="#5a5a07" stroke="none" stroke-width="0" stroke-linecap="butt"/><path d="M326.32394,116.71479c0,0 -0.87523,2.46808 -1.51927,5.58125c-0.67944,3.28426 -1.69469,12.30993 -2.91899,19.42908c-0.90448,5.25946 -2.16168,9.31852 -2.16168,9.31852l-2.96261,-0.33667c0,0 1.48242,-21.47686 1.97966,-27.71113c0.2511,-3.14835 0.78988,-7.08271 0.78988,-7.08271" data-paper-data="{&quot;index&quot;:null}" fill="#5a5a07" stroke="none" stroke-width="0" stroke-linecap="round"/><path d="M347.69897,129.88721c0,0 1.42616,-4.50292 3.10716,-10.33212c1.68101,-5.8292 2.72834,-8.36543 4.62935,-7.89425c1.90101,0.47116 1.29816,4.41877 -0.62222,9.98409c-1.82513,5.28926 -7.11428,8.24227 -7.11428,8.24227z" data-paper-data="{&quot;index&quot;:null}" fill="#5a5a07" stroke="none" stroke-width="0" stroke-linecap="butt"/><path d="M351.66372,115.55811c0,0 2.65026,-0.51462 1.89277,2.50363c-1.3579,5.41067 -5.22178,7.92416 -5.22178,7.92416" data-paper-data="{&quot;index&quot;:null}" fill="#5a5a07" stroke="none" stroke-width="0" stroke-linecap="round"/><path d="M335.46941,126.91866c-5.34898,-0.51379 -8.94756,-4.83852 -8.4798,-9.7085c0.46777,-4.86999 4.5587,-8.61308 9.90767,-8.09931c5.34898,0.51379 9.64245,5.05801 9.17468,9.92799c-0.46776,4.86999 -5.25358,8.39359 -10.60255,7.87982z" data-paper-data="{&quot;index&quot;:null}" fill="#5a5a07" stroke="none" stroke-width="0" stroke-linecap="butt"/><path d="M336.1985,123.16239c-2.74607,-0.26377 -4.75837,-2.7037 -4.4946,-5.44978c0.26376,-2.74606 2.7037,-4.75837 5.44978,-4.4946c2.74606,0.26376 4.75837,2.7037 4.4946,5.44978c-0.26376,2.74606 -2.70371,4.75837 -5.44978,4.4946z" data-paper-data="{&quot;index&quot;:null}" fill="#5a5a07" stroke="none" stroke-width="0" stroke-linecap="butt"/><path d="M308.88537,124.1206c-5.7707,-0.71011 -9.17316,-5.29095 -8.63484,-10.15364c0.53832,-4.86269 4.90738,-8.36932 10.19293,-7.78419c5.28555,0.58513 9.072,4.99886 8.73644,9.87975c-0.35045,5.09735 -4.80555,8.73354 -10.29452,8.05808z" data-paper-data="{&quot;index&quot;:null}" fill="#5a5a07" stroke="none" stroke-width="0" stroke-linecap="butt"/><path d="M308.96188,120.15184c-2.80135,-0.31012 -4.82086,-2.83245 -4.51074,-5.63378c0.31012,-2.80134 2.83245,-4.82086 5.63378,-4.51074c2.80134,0.31012 4.82086,2.83244 4.51074,5.63378c-0.31012,2.80134 -2.83245,4.82086 -5.63378,4.51074z" data-paper-data="{&quot;index&quot;:null}" fill="#5a5a07" stroke="none" stroke-width="0" stroke-linecap="butt"/><path d="M326.10019,116.87834c0,0 1.10086,-9.17595 10.53261,-8.29869c10.49449,0.9704 9.56572,9.93778 9.56572,9.93778z" data-paper-data="{&quot;index&quot;:null}" fill="#5a5a07" stroke="none" stroke-width="0" stroke-linecap="butt"/><path d="M298.92012,113.96765c0,0 0.85889,-9.28067 10.55086,-8.54323c11.41456,0.90647 10.12849,10.28008 10.12849,10.28008z" data-paper-data="{&quot;index&quot;:null}" fill="#5a5a07" stroke="none" stroke-width="0" stroke-linecap="butt"/><path d="M344.04422,109.29303c0,0 2.51709,1.10426 3.84834,1.36984c1.61293,0.32177 5.19441,0.64382 5.19441,0.64382l-0.16124,1.22123c0,0 -3.10009,-0.10794 -6.67884,-0.89918c-4.17662,-0.92343 -5.08746,-2.25131 -10.62348,-3.07881c-4.13946,-0.61875 -8.02661,-0.36427 -8.02661,-0.36427l0.74854,-4.07988c0,0 2.63459,-0.15761 7.71377,0.92064c4.58358,0.97303 7.7326,3.15175 7.7326,3.15175z" data-paper-data="{&quot;index&quot;:null}" fill="#5a5a07" stroke="none" stroke-width="0" stroke-linecap="butt"/><path d="M294.96268,113.37297c0.36529,6.05573 0.772,10.76156 0.772,10.76156c0,0 -4.51517,-4.03839 -5.1392,-9.59878c-0.65659,-5.85061 -0.38139,-9.83447 1.57664,-9.87843c1.95804,-0.04396 2.42527,2.65993 2.79056,8.71566z" data-paper-data="{&quot;index&quot;:null}" fill="#5a5a07" stroke="none" stroke-width="0" stroke-linecap="butt"/><path d="M295.96766,120.18865c0,0 -3.22055,-3.29776 -3.3621,-8.87443c-0.07898,-3.11086 2.39455,-2.029 2.39455,-2.029" data-paper-data="{&quot;index&quot;:null}" fill="#5a5a07" stroke="none" stroke-width="0" stroke-linecap="round"/><path d="M314.32764,198.78653c-35.2617,-3.90362 -60.8765,-33.90068 -57.21223,-67.00033c3.66427,-33.09963 35.22002,-56.76769 70.48172,-52.86407c35.2617,3.90362 60.87649,33.90068 57.21223,67.00033c-3.66427,33.09963 -35.22002,56.76769 -70.48172,52.86407z" data-paper-data="{&quot;index&quot;:null}" fill="#ffffff" stroke="#000000" stroke-width="2" stroke-linecap="butt"/><path d="M314.53389,197.62265c-34.82256,-3.85501 -60.1257,-33.41217 -56.51612,-66.01777c0.11211,-1.01266 1.5305,58.42716 56.86334,63.57712c57.91236,5.39004 69.32043,-50.34048 69.24033,-49.61691c-3.60958,32.6056 -34.76499,55.91257 -69.58755,52.05756z" data-paper-data="{&quot;index&quot;:null}" fill="#dedeaf" stroke="#000000" stroke-width="0" stroke-linecap="butt"/><g data-paper-data="{&quot;index&quot;:null}" stroke="#000000" stroke-width="2.5" stroke-linecap="butt"><path d="M323.65994,76.41138c41.65887,2.22173 74.99044,12.26618 74.44812,22.43487c-0.54232,10.16868 -34.75314,16.61099 -76.41201,14.38926c-41.65887,-2.22173 -74.99044,-12.26618 -74.44812,-22.43487c0.54232,-10.16868 34.75314,-16.61099 76.41201,-14.38926z" fill="#e2e2e2"/><path d="M369.61685,96.9921c0,0 -15.99243,2.90542 -48.16735,1.94026c-36.00324,-1.07999 -45.67472,-6.945 -45.67472,-6.945l2.51785,-47.21119c0,0 8.42062,-11.25852 46.20205,-8.52687c37.37847,2.70246 47.64003,13.53161 47.64003,13.53161l-2.51785,47.21119z" fill="#ffffff"/></g><path d="M328.14544,139.288c-2.74465,-0.30384 -4.72332,-2.77515 -4.41948,-5.5198c0.30384,-2.74465 2.77515,-4.72332 5.5198,-4.41948c2.74465,0.30384 4.72332,2.77515 4.41948,5.5198c-0.30384,2.74465 -2.77515,4.72333 -5.5198,4.41948z" data-paper-data="{&quot;index&quot;:null}" fill="#000000" stroke="none" stroke-width="0.5" stroke-linecap="butt"/><path d="M286.10844,145.27624c-2.74465,-0.30384 -4.72332,-2.77515 -4.41948,-5.5198c0.30384,-2.74465 2.77515,-4.72333 5.5198,-4.41948c2.74465,0.30384 4.72332,2.77515 4.41948,5.5198c-0.30384,2.74465 -2.77515,4.72332 -5.5198,4.41948z" data-paper-data="{&quot;index&quot;:null}" fill="#000000" stroke="none" stroke-width="0.5" stroke-linecap="butt"/><path d="M367.12518,154.32106c0,0 -17.16213,16.50463 -31.80837,19.54897c-14.64624,3.04436 -36.37961,-5.37549 -36.37961,-5.37549" data-paper-data="{&quot;index&quot;:null}" fill="none" stroke="#000000" stroke-width="4" stroke-linecap="round"/></g></g></svg>