<svg version="1.1" xmlns="http://www.w3.org/2000/svg" xmlns:xlink="http://www.w3.org/1999/xlink" width="113.21563" height="263.18044" viewBox="0,0,113.21563,263.18044"><g transform="translate(-248.17187,-46.47767)"><g data-paper-data="{&quot;isPaintingLayer&quot;:true}" fill-rule="nonzero" stroke-linecap="butt" stroke-linejoin="miter" stroke-miterlimit="10" stroke-dasharray="" stroke-dashoffset="0" style="mix-blend-mode: normal"><path d="M291.85692,279.99626c0,0 -20.39523,-37.3563 -26.59199,-70.83513c-3.93583,-21.26382 4.36931,-43.5426 6.34985,-45.40982c7.36113,-6.93995 18.99252,-11.89825 23.84682,-12.71022c31.16971,-5.2137 44.06236,22.72781 45.24051,30.04324c7.32559,45.65887 19.5297,116.36077 19.5297,116.36077l-10.34597,1.7749l-18.53752,-113.33721c0,0 -0.42153,-3.07143 -3.28477,-2.66275c-3.40056,0.48538 -2.40875,3.54687 -2.40875,3.54687l18.58788,113.35624l-47.58057,7.78793c0,0 -18.93592,-116.62482 -22.06268,-116.13347c-1.12527,0.17683 52.42288,69.06684 52.42288,69.06684z" fill="#999999" stroke="#000000" stroke-width="2"/><path d="M314.88423,261.93271c-0.80839,0.13107 -1.56997,-0.418 -1.70104,-1.22639c-0.13107,-0.80839 0.418,-1.56998 1.22639,-1.70105c0.80839,-0.13107 1.56997,0.41801 1.70105,1.2264c0.13107,0.80839 -0.418,1.56997 -1.22639,1.70105z" data-paper-data="{&quot;index&quot;:null}" fill="#000000" stroke="none" stroke-width="1.5"/><path d="M298.05896,308.51095l-19.07831,-117.66482c0,0 -0.81001,-9.7268 -1.59559,-14.57184c-0.71991,-4.44002 -2.9381,-13.38956 -2.9381,-13.38956c0,0 2.26214,-2.75049 3.9958,-4.4449c1.73366,-1.69442 4.65656,-3.59535 4.65656,-3.59535c0,0 5.82564,39.68825 20.78006,37.19226c15.22433,-2.54105 7.245,-41.73628 7.245,-41.73628c0,0 4.10554,0.87377 6.55797,1.92172c2.45243,1.04794 5.26952,2.7979 5.26952,2.7979c0,0 0.76097,9.42433 1.524,14.13025c0.77496,4.77951 3.0905,14.32946 3.0905,14.32946l18.99752,117.16652z" fill="#0f0e02" stroke="#000000" stroke-width="2"/><path d="M317.3749,100.04705c0,0 1.54,0.23026 4.31239,0.86476c2.53227,0.57955 4.54192,1.48638 4.54192,1.48638l0.26179,1.15726c0,0 -7.41697,-2.70969 -15.23247,-1.60095c-6.24909,0.88654 -9.78578,3.37832 -9.78578,3.37832l-0.19351,-4.1726c0,0 3.02476,-1.8805 7.7445,-2.30283c4.88726,-0.43731 8.11142,0.12696 8.11142,0.12696z" data-paper-data="{&quot;index&quot;:null}" fill="#000000" stroke="none" stroke-width="1.5"/><path d="M277.57714,106.43281c0,0 3.25994,-2.00898 7.8886,-2.73801c5.12913,-0.80787 7.75169,-0.51102 7.75169,-0.51102l0.53152,4.11379c0,0 -3.86823,-0.4599 -8.03463,-0.06114c-5.57206,0.53329 -6.55193,1.81109 -10.77157,2.51214c-3.61561,0.60069 -6.71708,0.54439 -6.71708,0.54439l-0.09637,-1.22805c0,0 3.59351,-0.13201 5.2212,-0.36795c1.34344,-0.19474 3.91546,-1.16421 3.91546,-1.16421z" fill="#000000" stroke="none" stroke-width="1.5"/><path d="M285.49518,157.97834l-0.62312,-0.55551c-2.28829,-2.05742 -4.8353,-2.91275 -7.08134,-4.91511c-0.03952,-0.03524 -0.66017,-0.42205 -1.16409,-0.85463c-0.02375,0.20247 -0.07245,0.38759 -0.14492,0.51172c-0.04915,0.08418 -0.10354,0.16417 -0.16222,0.24079l0.05256,0.03084l-0.53076,0.9044c-0.16198,0.28545 -0.461,0.4854 -0.81304,0.5056c-0.55138,0.03162 -1.024,-0.38971 -1.05562,-0.9411l-0.05432,-0.94698c-1.05117,-1.2682 -1.84937,-2.97371 -2.94248,-4.13079c-1.48161,-1.5683 -3.85088,-2.97503 -4.88648,-5.00305c-0.71111,-1.39259 -0.65647,-2.93271 -1.63588,-4.19017c-0.79791,-1.13287 -1.61373,-3.05855 -1.89487,-4.46332c-0.08577,-0.42857 -0.39652,-3.8875 -0.87379,-3.81536c-1.50926,0.22812 -2.45274,2.17797 -3.53544,3.00553c-2.37964,1.81889 -4.9192,3.25486 -7.75945,3.25718l0.01786,0.31136l-1.17864,0.0676c-0.55138,0.03162 -1.024,-0.38971 -1.05562,-0.94109c-0.0202,-0.35203 0.14427,-0.67196 0.40931,-0.86551l0.83778,-0.6307c2.29202,-1.70744 4.18713,-3.47515 5.92878,-5.68125c-1.16355,0.25644 -2.39621,0.21519 -3.85044,-0.01798c-0.68377,-0.10963 -2.87315,-0.4926 -3.13845,-1.02729c-0.32166,-0.64827 1.11234,-2.69677 1.4738,-3.17139c1.76019,-2.31129 4.65326,-5.00686 5.60393,-7.75667c0.40613,-1.17475 0.33795,-2.19314 0.99272,-3.30884c0.28419,-1.61997 0.64182,-3.00447 1.21977,-4.50437c0.04711,-0.12228 0.07986,-0.29982 0.11265,-0.48229c-0.18279,0.1281 -0.37711,0.24287 -0.51345,0.31884c-1.32117,0.73616 -3.80343,1.73604 -4.90456,-0.13253c-1.21251,-2.05758 1.34086,-4.4797 2.50518,-5.75901c1.14074,-1.25341 1.30352,-3.21431 1.21229,-4.80493c1.49592,-7.87668 2.86971,-16.09765 7.10135,-23.3082c3.0727,-5.23576 7.55995,-10.63896 11.68038,-15.01272c1.02245,-1.08532 2.76526,-1.59821 4.00242,-2.50672c2.0883,-0.65119 3.80838,-2.08291 6.05228,-2.49465c7.03626,-1.29112 14.56975,0.2602 21.63541,-0.03918c2.59359,1.0774 5.30538,0.96158 7.9794,1.96843c3.5167,1.32415 6.66363,3.6023 10.06544,5.0489c2.59678,1.10426 4.27388,1.59656 6.03604,3.99614c0.99135,3.10463 2.67146,5.74306 3.25299,8.96504c0.99028,5.4867 -0.07585,12.53553 2.75663,17.47176c0.21951,3.03304 2.57896,5.21694 3.93791,7.87149c1.54613,3.02019 1.96246,6.02464 2.95241,9.17529c0.8113,2.58213 1.80891,4.59625 0.79063,6.72164l0.35222,0.20672l-0.53076,0.9044c-0.16197,0.28544 -0.46099,0.4854 -0.81303,0.5056c-0.47512,0.02725 -0.89176,-0.28183 -1.01815,-0.72064l-0.31694,-1.01638c-1.56057,-2.02379 -1.97315,-4.40299 -3.74483,-6.32015c-0.07673,-0.08303 -0.15829,-0.15717 -0.24239,-0.22447c1.14506,4.8623 0.75382,10.16281 -0.12402,14.93037c-1.04612,5.50823 -2.30309,10.56194 -3.20839,16.1247c-0.45122,2.77267 -0.68871,5.39008 -2.22393,7.40103l0.3268,0.29135l-0.83327,0.93467c-0.17031,0.19102 -0.41349,0.31709 -0.68918,0.3329c-0.55137,0.03162 -1.024,-0.38972 -1.05562,-0.9411l-0.0676,-1.17863c-0.01631,-0.30306 -0.32067,-1.47269 -0.50804,-2.51646c-0.22793,0.81877 -0.51715,1.63131 -0.55157,1.74225c-0.57542,1.85493 -1.28109,3.02698 -2.37676,4.14923l0.11605,0.07705l-0.80992,1.21964c-0.16745,0.25819 -0.45144,0.43587 -0.78222,0.45484c-0.55137,0.03162 -1.024,-0.38971 -1.05563,-0.94109c-0.00524,-0.09134 0.00196,-0.1805 0.02011,-0.26588l0.2056,-1.08259c-0.07052,-1.16908 -0.2143,-2.81366 -0.15788,-4.19661c-0.43624,0.43439 -0.91788,0.83861 -1.20033,1.2194c-1.72703,2.32836 -3.45503,4.10139 -5.59562,5.85648c-1.04872,1.41287 -2.24449,2.66889 -3.55909,3.76825c-0.17644,0.30093 -0.35303,0.60178 -0.5296,0.90264c-2.00565,3.41756 -5.34804,5.90946 -8.36307,8.13351c-0.82281,0.60694 -1.30476,1.76819 -2.40461,2.30457c-2.98125,1.45388 -8.0903,-0.1207 -9.71042,-2.81255c-0.57734,-0.7845 -0.74865,-2.06946 -1.473,-2.66627c-1.78776,-1.47295 -3.55695,-2.87886 -5.27533,-4.41967c-0.35019,-0.03634 -0.61049,-0.26839 -0.61049,-0.26839zM292.7119,161.17352c0.9704,0.91418 1.03009,2.04805 1.8116,3.05787c0.98465,1.83322 5.10734,3.1735 7.12841,2.13413c1.007,-0.51787 1.27483,-1.4795 2.0733,-2.09106c1.75715,-1.34581 3.68689,-2.73044 5.34709,-4.38261c-3.20291,1.55776 -6.78217,2.44217 -10.48613,2.65463c-2.68814,0.13868 -4.27498,-0.81781 -6.4916,-1.93793c0.20907,0.18629 0.41511,0.37447 0.61732,0.56496zM313.27713,153.85899l0.8952,-1.01147c0,0 0.29394,-0.3297 0.71023,-0.35551c0.38027,-0.29041 0.74928,-0.58119 1.1084,-0.87352c0.44466,-0.60371 0.86316,-1.23816 1.25359,-1.90345c1.16685,-0.66886 0.09122,-1.31658 -1.21506,-1.8094l-0.00624,0.01194c-2.25607,0.70351 -4.16731,1.99614 -6.30083,2.71334c-2.12662,0.71489 -4.73291,0.15536 -6.94898,0.73231c-0.48752,0.02685 -0.97824,0.05192 -1.47154,0.07434c-0.18854,0.0345 -0.40953,0.04218 -0.6502,0.02789c-3.8985,0.15689 -7.9393,0.12702 -11.81864,-0.50466c-2.87404,-0.46799 -6.21244,-2.03613 -9.04917,-1.82156c0,0 -0.20179,0.01157 -0.42913,-0.06641c0.01668,0.17688 0.0479,0.36836 0.09463,0.57635c2.69765,1.39607 5.1042,4.20953 7.34288,6.24696c1.57076,1.42957 4.01074,1.83213 5.86518,2.75742c2.07912,1.03738 3.36176,2.0543 5.81418,1.89621c5.22581,-0.29975 10.04449,-1.98634 13.86051,-5.08924c0.31422,-0.53429 0.629,-1.06824 0.94496,-1.60153zM326.10698,122.51445c0.88332,-0.32896 1.08741,-1.20502 1.87379,-2.09105c2.81868,-3.17591 3.16184,-6.37457 2.95086,-10.57244c-0.70639,-2.57737 -2.99876,0.11194 -3.66691,1.46834c-0.39976,0.81155 -0.73202,1.66544 -0.99219,2.5461c0.08359,0.48261 0.22498,0.97079 0.1253,1.43915c-0.26818,1.26008 -0.53512,2.52778 -0.79506,3.80307c0.04038,1.15044 0.20555,2.29603 0.50421,3.40682zM320.03082,140.80879c0.36393,-1.52833 1.37472,-2.66034 1.48867,-4.3519c0.22774,-3.38012 -1.32221,-6.76283 0.70089,-9.78673c0.33301,-2.73027 0.81144,-5.42422 1.37472,-8.07252c-0.00678,-1.7809 0.24549,-3.56781 0.74012,-5.26159c-0.04861,-0.28923 -0.07534,-0.57689 -0.01686,-0.85773c0.50639,-2.43204 1.15908,-4.97469 1.3831,-7.56415l-0.22063,-0.10934c-1.82217,-0.36606 -3.63276,-1.04494 -5.1923,-2.08025c-0.70793,0.07491 -1.4251,0.12139 -2.14813,0.14934c-0.06478,0.01464 -0.13528,0.02462 -0.21204,0.02902c-0.10096,0.00579 -0.1923,0.00078 -0.27493,-0.0129c-3.72189,0.1034 -7.5781,-0.22208 -11.11206,0.3629c-1.26543,0.20947 -3.70792,2.56539 -5.08344,1.56509c-0.58335,-0.42423 -0.59988,-1.29779 -0.49099,-2.10548c-0.00605,-0.00522 -0.01211,-0.01053 -0.01816,-0.01593c-0.74644,-0.66545 -0.08098,-1.41189 -0.08098,-1.41189l0.80425,-0.82501c0.9746,-0.55724 1.894,-1.47537 2.88662,-1.95945c1.91454,-0.93367 4.36997,-0.88386 6.39766,-0.74072c3.50901,0.24772 7.07763,-1.00367 7.80323,3.13229c0.67194,-0.05225 1.33897,-0.09294 1.99799,-0.11149c1.60326,0.87383 3.23207,1.71685 5.02067,2.04601c-0.00465,-0.26047 -0.0151,-0.52124 -0.03193,-0.78223c-0.23674,-4.12736 -1.19678,-7.78468 -2.41719,-11.73912c-0.44406,-1.43886 -0.2729,-3.20565 -2.18528,-3.59333c-2.66088,-0.5394 -3.38944,0.74017 -5.72411,1.46819c-3.46433,2.69823 -8.6281,5.09461 -12.81496,6.41079c-2.17147,0.68262 -4.2371,0.9143 -6.09863,2.31069l-0.06606,0.00973l0.01313,0.02287l-1.12738,0.64691c-0.13456,0.08101 -0.29021,0.1314 -0.4579,0.14102c-0.55138,0.03162 -1.024,-0.38972 -1.05562,-0.9411c-0.0202,-0.35204 0.14427,-0.67196 0.40931,-0.86551l0.83778,-0.63069l0.07532,0.10006l0.00826,-0.00474c1.08069,-1.51465 2.3672,-2.8051 3.74612,-4.09932c0.39144,-0.3674 0.86169,-1.0175 1.34497,-1.5618c-0.68272,0.28072 -1.46941,0.30477 -2.13154,0.63692c-2.22526,1.11628 -4.58974,2.1892 -6.77926,3.40395c-2.41865,0.17504 -3.86789,1.33348 -5.89834,2.34888c-3.79436,1.89751 -8.33405,2.90353 -12.09059,4.50375c-0.77182,0.32879 -0.64372,3.21224 -0.75891,3.83774c-0.29598,1.50226 -0.39062,2.92684 -0.33505,4.30676c1.2334,-0.17954 2.45939,-0.45473 3.68226,-0.77517c0.09069,-0.82701 1.02501,-2.61188 1.4549,-2.8637c1.361,-0.79726 3.48229,0.16206 4.89197,-0.35614c1.73963,-0.63948 3.47559,-2.05931 5.35083,-2.41178c1.52828,-0.28725 5.38179,-0.04892 6.3694,1.28471c0.50374,0.68022 0.2565,3.28805 -0.41584,3.77437c-0.52563,0.38021 -1.29658,-0.0475 -1.94487,-0.07124c-1.40857,-0.27751 -2.81041,-0.32137 -4.20701,-0.20978c1.8573,1.02929 6.04206,0.53832 7.23445,2.43492c0.91593,1.45685 0.87064,3.09625 0.40402,4.74784c0.29848,0.27943 0.32311,0.70874 0.32311,0.70874c0.16539,2.88332 1.41859,5.24613 1.93205,8.04436c0.76799,4.18534 0.51423,8.83427 0.75813,13.08648c0.1879,3.27575 0.07692,6.49511 0.26308,9.7406c0.0411,0.71657 -0.15808,2.31332 0.2822,2.95434c0.29629,0.43137 1.02788,0.21853 1.51681,0.40514c0.08687,0.03315 0.15527,0.14587 0.22049,0.24339c0.12171,-0.00492 0.24329,-0.01007 0.3647,-0.01542c0.18942,-0.36556 -0.14981,-1.00867 -0.12001,-1.47469c0.12649,-1.97854 0.05981,-3.91008 -0.04337,-5.91005c0.24328,-1.28093 0.38978,-2.57268 0.46961,-3.87179c-0.15834,-0.23464 -0.25697,-0.58226 0.00162,-1.02287c0.01655,-0.0282 0.03348,-0.05493 0.05075,-0.08028c0.22761,-6.66085 -1.06561,-13.48809 0.13637,-20.01603c0.04221,-0.22219 0.0844,-0.44439 0.1266,-0.6666c-0.0118,-0.06513 -0.02316,-0.13029 -0.03401,-0.1955c-0.29922,-0.05166 -0.77704,-0.2412 -0.81613,-0.92285c-0.03629,-0.63262 0.35131,-0.88737 0.64015,-0.98912c-0.02385,-1.60619 0.28158,-3.14376 0.99331,-4.39022c1.40956,-2.37897 3.82864,-4.72826 6.61793,-5.25253c5.28293,-0.99298 14.29361,1.57488 13.12467,8.34565c0.05202,0.90687 0.2692,2.3427 -0.49779,3.06068c-0.00844,0.0079 -0.017,0.01571 -0.02567,0.02342c-0.25263,3.12518 -1.6669,5.96744 -4.30752,7.95534c-1.90396,1.341 -4.03974,0.96305 -6.24817,0.81474c-2.13682,-0.14351 -4.28219,-0.16155 -6.00555,-1.71516c-0.77776,-0.70116 -1.46211,-1.61482 -2.02187,-2.65105c-0.46417,5.49411 0.45832,11.18652 0.29665,16.74535c1.9294,1.34331 3.08112,3.24385 0.94723,5.20879c1.40018,-0.1301 2.88545,-0.29833 4.19045,0.16205c2.49495,0.88016 4.78031,2.22051 7.20569,3.07242c0.0748,-0.01967 0.15767,-0.03288 0.24945,-0.03814c0.45753,-0.02624 0.7174,0.16922 0.86471,0.38868c0.19167,0.05279 0.38449,0.1018 0.57864,0.14657c0.34084,0.07862 0.65659,0.19067 0.94293,0.3301c1.0213,-1.85798 1.52756,-3.77122 1.99314,-5.72646zM275.45053,128.28351c0.34069,5.93944 2.14309,11.593 2.48735,17.59495l0.06171,1.07594c1.39152,-2.73117 5.58838,-3.94966 8.95582,-3.76982c1.83715,0.09812 4.29274,1.24422 6.1239,0.5711c0.64662,-0.2377 1.1525,-0.5036 1.69245,-0.71906c-3.69444,-2.30207 -2.43706,-5.92224 1.31746,-6.55179c-0.00391,-0.07329 -0.00797,-0.14662 -0.01218,-0.21997c-0.23902,-4.16705 0.02471,-8.74393 -0.72917,-12.84338c-0.3812,-2.07291 -1.1405,-3.90853 -1.60019,-5.88679c-0.72282,1.46358 -1.50173,2.84302 -1.9188,4.00646c-0.41296,1.15196 -0.56615,2.46418 -1.53681,3.39011c-0.64754,0.61768 -1.52162,0.94581 -2.24238,1.47624c-5.16427,1.63736 -11.20986,-1.76918 -13.24261,-6.63272c0.5212,2.77156 0.48534,5.75282 0.64342,8.50875zM312.12708,99.68813c-2.12327,0.11536 -4.64681,-0.44144 -6.65588,0.59178c-0.80025,0.41154 -1.54215,1.07738 -2.31808,1.60719c-0.04522,0.21747 -0.12148,0.54365 -0.20586,0.82477c0.85722,-0.60373 2.97716,-1.37575 3.23649,-1.42672c1.31104,-0.25766 2.51268,-0.0128 3.79676,0.07785c2.19881,0.15522 4.49377,-0.07452 6.76815,-0.29183c-0.50955,-2.0004 -2.42109,-1.50258 -4.62159,-1.38302zM274.75114,113.09433c0,0 0.165,-0.38344 0.52953,-0.54825l0.0821,-0.18576c1.08177,-1.55575 2.48093,-1.65251 4.19151,-2.39799c0.87567,-0.38163 1.60069,-1.13867 2.37033,-1.76234c-3.17885,0.88449 -6.34057,2.04482 -9.5033,2.53622c0.31272,2.22193 0.96804,4.36568 1.73519,6.58045c-0.15861,-1.36891 0.01053,-2.79766 0.59463,-4.22234zM289.15941,148.98761c2.4883,0.40495 5.04583,0.56206 7.58453,0.57496c-0.46258,-1.05761 -0.34334,-2.50289 -0.4038,-3.55713c-0.02578,-0.44962 -0.04588,-0.89853 -0.06186,-1.34703c-1.48156,0.19263 -2.41171,0.99068 -3.9762,1.10216c-3.82546,0.27257 -6.59744,-1.09099 -10.26487,0.52656c-0.6964,0.30715 -1.30743,0.54802 -1.77103,0.84837c2.91562,0.05608 5.99548,1.38052 8.89321,1.8521zM302.46273,149.38752c2.03184,-0.52898 4.68111,0.06044 6.57147,-0.63445c1.3764,-0.50596 2.66883,-1.19578 4.02551,-1.81496c-3.5065,-1.28421 -5.936,-2.61896 -9.8891,-2.39221l-0.13198,0.19746c0,0 -0.12983,0.07449 -0.31784,0.11562c0.06846,1.5447 0.03896,3.11466 -0.35036,4.53402c0.03079,-0.00181 0.06156,-0.00363 0.09231,-0.00546zM295.85698,141.35659l0.35645,0.14734c-0.01198,-1.00235 -0.02194,-2.0057 -0.04756,-3.01303c-1.79667,0.35759 -2.49733,1.64634 -0.30889,2.86569zM303.40795,116.28028c-0.01239,0.06519 -0.02476,0.13039 -0.03714,0.19559c0.46586,2.08874 1.48497,4.09872 2.74391,5.20175c1.38588,1.21425 3.11896,1.09905 4.80493,1.21229c1.53228,0.1029 3.65742,0.64385 4.91502,-0.41681c1.86256,-1.40216 3.18356,-3.51987 3.51115,-5.78534c-0.96332,0.03051 -2.06297,-0.11419 -3.00138,-0.27742c-1.353,5.68947 -7.26557,2.25726 -10.59452,0.32611c0,0 -0.43135,-0.25314 -0.50491,-0.70644c-0.60479,0.04408 -1.21767,0.08596 -1.841,0.1223zM319.11292,114.16479l0.39736,0.10636l0.15116,-0.66533c0,0 0.06614,-0.24427 0.25477,-0.45377c-0.02286,-0.08691 -0.03888,-0.17119 -0.04345,-0.25087c0.42455,-2.01082 -0.37182,-2.88632 -1.72285,-4.09618c-0.48026,-0.43009 -0.62234,-1.29557 -1.23839,-1.4856c-0.71186,-0.21959 -1.4993,0.01558 -2.23159,-0.12127c-4.63342,-0.8659 -8.29032,-0.62387 -10.82912,3.75253c-0.53031,0.87057 -0.75995,1.99444 -0.75414,3.19912c2.01458,-0.15175 4.07331,-0.34693 6.11509,-0.40576c3.2534,-0.19984 6.42815,-0.23879 9.90116,0.4208zM285.25087,105.49104c2.21681,-0.40364 4.45894,-0.54025 6.75134,-0.11816c0.91388,0.78418 0.44252,-0.47494 0.34925,-0.59109c-0.40791,-0.508 -3.61204,-0.59883 -4.37346,-0.46411c-0.93039,0.16462 -1.83474,0.66221 -2.72711,1.17336zM286.74938,121.20341c-1.7738,0.67906 -3.58305,-0.04864 -5.16621,-0.6332c-0.71613,-0.26443 -2.16355,-0.11512 -2.70499,-0.64386c-0.9593,-0.93678 -0.72483,-1.89064 -0.52317,-2.90937c-0.75914,0.03248 -1.51805,0.06911 -2.27637,0.11157c0.57383,4.74907 6.54617,8.86794 11.05855,7.49922c0.54684,-0.42321 1.23579,-0.65267 1.7476,-1.11763c0.72723,-0.66067 0.77206,-1.85277 1.07175,-2.67207c0.48273,-1.31973 1.40193,-2.7958 2.15336,-4.33356l-0.30241,0.01734c-0.86615,0.04968 -1.73445,0.0915 -2.60438,0.12803c-0.319,1.74806 -0.49864,3.80505 -2.45374,4.55353zM291.69297,114.52514l0.88396,-0.0507c0,0 0.159,-0.00913 0.35373,0.04336c0.41526,-1.30724 0.5373,-2.62928 0.0194,-3.91178c-0.18453,-0.45697 -0.96194,-0.21598 -1.44668,-0.3048c-1.55052,-0.28407 -3.20748,-0.38588 -4.55229,-1.23009c-0.87115,0.09219 -2.15445,-0.10519 -2.95727,0.16962c-1.25178,0.42848 -2.36617,1.98485 -3.63937,2.55453c-0.93225,0.41714 -2.99417,0.79051 -3.26678,1.57733l-0.20474,0.49532c0,0 -0.15799,0.36715 -0.50631,0.53734c-0.08439,0.23786 -0.15244,0.47641 -0.20498,0.71509c5.18072,-0.28282 10.39104,-0.30096 15.52132,-0.59523zM302.76494,140.93394c0.73106,-0.37944 0.57878,-0.85843 0.15088,-1.29682c-0.041,0.43344 -0.09091,0.86578 -0.15088,1.29682z" fill="#000000" stroke="none" stroke-width="0.5"/><path d="M325.57192,119.14699c0.25993,-1.27529 0.50839,-2.59056 0.77657,-3.85064c0.09968,-0.46836 -0.03038,-0.98081 -0.11397,-1.46343c0.26018,-0.88066 0.6184,-1.7506 1.01816,-2.56214c0.66815,-1.3564 2.99307,-4.04276 3.69947,-1.46539c0.21098,4.19787 -0.15635,7.49197 -2.97503,10.66789c-0.78638,0.88603 -1.00221,1.75979 -1.88552,2.08876c-0.29867,-1.11079 -0.4793,-2.2646 -0.51968,-3.41504z" data-paper-data="{&quot;noHover&quot;:false,&quot;origItem&quot;:[&quot;Path&quot;,{&quot;applyMatrix&quot;:true,&quot;segments&quot;:[[[268.21396,123.01191],[-0.23457,-1.12607],[0.90071,-0.27784]],[[270.20442,121.0316],[-0.83582,0.83955],[2.99592,-3.00929]],[[273.75586,110.64549],[-0.02976,4.20306],[-0.55764,-2.61359]],[[270.01088,111.90144],[0.74473,-1.31591],[-0.44558,0.78732]],[[268.87451,114.38655],[0.31018,-0.86432],[0.05582,0.4866]],[[268.9172,115.83051],[0.12634,-0.46189],[-0.3399,1.24265]],[[267.90567,119.58181],[0.33253,-1.25832],[-0.02556,1.15086]]],&quot;closed&quot;:true}]}" fill="#ffffff" stroke="none" stroke-width="0.5"/><path d="M303.3577,116.13342c0.62333,-0.03634 1.23863,-0.08333 1.84342,-0.12741c0.07356,0.45331 0.50357,0.70908 0.50357,0.70908c3.32895,1.93115 9.32898,5.35796 10.68198,-0.33151c0.93841,0.16323 2.04295,0.31797 3.00628,0.28745c-0.32759,2.26547 -1.65475,4.42853 -3.51732,5.83068c-1.25761,1.06067 -3.43237,0.54033 -4.96465,0.43743c-1.68597,-0.11323 -3.45666,-0.02832 -4.84253,-1.24256c-1.25894,-1.10303 -2.27873,-3.14917 -2.74459,-5.23791c0.01239,-0.06519 0.02516,-0.13145 0.03754,-0.19665z" data-paper-data="{&quot;noHover&quot;:false,&quot;origItem&quot;:[&quot;Path&quot;,{&quot;applyMatrix&quot;:true,&quot;segments&quot;:[[[245.90918,115.48812],[0,0],[-0.0161,0.06438]],[[245.8609,115.68126],[0.0161,-0.06438],[0.34549,2.11199]],[[248.30242,121.0316],[-1.19371,-1.17332],[1.31407,1.29162]],[[253.03005,122.51705],[-1.67672,-0.20959],[1.52388,0.19048]],[[257.96087,122.38236],[-1.31628,0.98691],[1.9398,-1.2932]],[[261.79756,116.80758],[-0.45679,2.24299],[-0.96348,-0.0247]],[[258.81698,116.35875],[0.92753,0.21671],[-1.67658,5.60265]],[[248.22118,116.07763],[3.2129,2.11862],[0,0]],[[247.75755,115.34344],[0.04748,0.45677],[-0.60632,0.00937]],[[245.91257,115.36011],[0.62439,-0.00059],[0,0]]],&quot;closed&quot;:true}]}" fill="#ffffff" stroke="none" stroke-width="0.5"/><path d="M302.90924,139.58755c0.42792,0.43839 0.5699,1.01401 -0.16116,1.39345c0.05996,-0.43104 0.12016,-0.96 0.16116,-1.39345z" data-paper-data="{&quot;noHover&quot;:false,&quot;origItem&quot;:[&quot;Path&quot;,{&quot;applyMatrix&quot;:true,&quot;segments&quot;:[[[243.85545,140.0645],[0.08455,-0.4269],[0.75159,-0.33695]],[[244.08034,138.77845],[0.40211,0.46218],[-0.06576,0.43038]]],&quot;closed&quot;:true}]}" fill="#ffffff" stroke="none" stroke-width="0.5"/><path d="M296.18844,138.44628c0.02563,1.00732 0.03779,2.09872 0.04976,3.10107l-0.36417,-0.14376c-2.18843,-1.21935 -1.48227,-2.59972 0.3144,-2.95731z" data-paper-data="{&quot;noHover&quot;:false,&quot;origItem&quot;:[&quot;Path&quot;,{&quot;applyMatrix&quot;:true,&quot;segments&quot;:[[[236.93463,140.09088],[-2.11501,-1.34267],[0,0]],[[237.28205,140.25838],[0,0],[0.04544,-1.00139]],[[237.40711,137.24758],[-0.03209,1.00714],[-1.81421,0.25412]]],&quot;closed&quot;:true}]}" fill="#999999" stroke="none" stroke-width="0.5"/><path d="M302.32595,149.41583c0.38933,-1.41934 0.41647,-3.02965 0.348,-4.57433c0.18801,-0.04113 0.31864,-0.11766 0.31864,-0.11766l0.13295,-0.19961c3.95311,-0.22674 6.4776,1.13195 9.98411,2.41616c-1.35667,0.61919 -2.67092,1.34805 -4.04732,1.85401c-1.89036,0.69489 -4.6121,0.08727 -6.64393,0.61625c-0.03076,0.00184 -0.06168,0.00336 -0.09247,0.00518z" data-paper-data="{&quot;noHover&quot;:false,&quot;origItem&quot;:[&quot;Path&quot;,{&quot;applyMatrix&quot;:true,&quot;segments&quot;:[[[243.06965,148.48691],[-0.03081,0.00007],[2.0588,-0.41176]],[[249.66667,148.22981],[-1.92705,0.5855],[1.40311,-0.42631]],[[253.7895,146.64835],[-1.3899,0.54048],[-3.42721,-1.4829]],[[244.05361,143.69377],[3.9596,0],[0,0]],[243.91054,143.88335],[[243.58661,143.98057],[0.19006,-0.03029],[-0.02011,1.54608]],[[242.97718,148.48708],[0.46997,-1.39472],[0.03084,-0.00005]]],&quot;closed&quot;:true}]}" fill="#999999" stroke="none" stroke-width="0.5"/><path d="M280.21626,147.13283c0.46359,-0.30036 1.07555,-0.54837 1.77193,-0.85551c3.66742,-1.61756 6.53364,-0.2655 10.3591,-0.53808c1.5645,-0.11147 2.49627,-0.90565 3.97784,-1.09829c0.01597,0.4485 0.03826,0.90512 0.06405,1.35474c0.06046,1.05424 -0.05921,2.52095 0.40337,3.57856c-2.5387,-0.01291 -5.12272,-0.13686 -7.61102,-0.54182c-2.89773,-0.47158 -6.04966,-1.84352 -8.96528,-1.8996z" data-paper-data="{&quot;noHover&quot;:false,&quot;origItem&quot;:[&quot;Path&quot;,{&quot;applyMatrix&quot;:true,&quot;segments&quot;:[[[229.81105,147.32584],[-2.86597,-0.63674],[2.46103,0.54678]],[[237.35022,148.33418],[-2.53379,-0.15827],[-0.40126,-1.08236]],[[237.15078,144.75977],[0,1.05597],[0,-0.45036]],[[237.16616,143.41141],[-0.00974,0.44868],[-1.49016,0.10748]],[[233.13337,144.28406],[1.56831,-0.0217],[-3.83479,0.05306]],[[222.8552,144.22195],[3.75403,-1.40489],[-0.71284,0.26676]],[[221.03849,144.9675],[0.48003,-0.27332],[2.90762,0.22295]]],&quot;closed&quot;:true}]}" fill="#999999" stroke="none" stroke-width="0.5"/><path d="M312.38195,155.46503c-3.81602,3.1029 -8.68745,4.8349 -13.91325,5.13465c-2.45242,0.15808 -3.77283,-0.87972 -5.85193,-1.9171c-1.85444,-0.92529 -4.30324,-1.35008 -5.87401,-2.77964c-2.23867,-2.03743 -4.64435,-4.86923 -7.342,-6.2653c-0.04673,-0.20799 -0.07762,-0.40076 -0.0943,-0.57764c0.22735,0.07798 0.42915,0.06629 0.42915,0.06629c2.83673,-0.21456 6.17592,1.35094 9.04997,1.81893c3.87932,0.63168 7.99492,0.63523 11.89342,0.47832c0.24067,0.01429 0.46733,0.01092 0.65588,-0.02359c0.49329,-0.02241 0.99139,-0.03944 1.47891,-0.06629c2.21608,-0.57694 4.82948,-0.00363 6.9561,-0.71852c2.13351,-0.7172 3.95039,-1.97682 6.20646,-2.68033l0.10008,-0.0465c1.30628,0.49281 2.38353,1.14587 1.21669,1.81473c-0.39043,0.66529 -0.80806,1.30414 -1.25272,1.90785c-0.35912,0.29233 -0.72786,0.58525 -1.10813,0.87566c-0.41628,0.02581 -0.71013,0.35641 -0.71013,0.35641l-0.89503,1.01467c-0.31597,0.53329 -0.63092,1.07307 -0.94514,1.60737z" data-paper-data="{&quot;noHover&quot;:false,&quot;origItem&quot;:[&quot;Path&quot;,{&quot;applyMatrix&quot;:true,&quot;segments&quot;:[[[253.61024,153.57032],[-0.34599,0.51432],[0,0]],[254.5619,152.61178],[[255.29132,152.29752],[-0.41708,0.00193],[0.39627,-0.26816]],[[256.44793,151.4889],[-0.37527,0.27129],[0.4785,-0.57725]],[[257.80846,149.66036],[-0.42789,0.64184],[1.20324,-0.60095]],[[256.69903,147.78435],[1.27591,0.56681],[0,0]],[[256.69211,147.79591],[0,0],[-2.29265,0.57316]],[[250.24624,150.14399],[2.17108,-0.59385],[-2.16407,0.59194]],[[243.26673,150.47717],[2.24549,-0.44909],[-0.48826,-0.00111]],[[241.79335,150.46712],[0.49376,0.00587],[-0.1902,0.02364]],[[241.14262,150.45773],[0.23946,0.02805],[-3.90109,-0.06661]],[[229.37227,149.27711],[3.83678,0.85279],[-2.84253,-0.6318]],[[220.44226,146.94034],[2.84436,-0.05176],[0,0]],[[220.01764,146.84947],[0.22251,0.09087],[0.00652,0.17755]],[[220.07911,147.43028],[-0.03474,-0.21033],[2.61328,1.54826]],[[227.05221,154.08748],[-2.11832,-2.16228],[1.48632,1.51717]],[[232.74987,157.17625],[-1.79841,-1.02996],[2.0163,1.15474]],[[238.44592,159.40229],[-2.45745,0.01739],[5.23439,0]],[[252.57511,155.11512],[-3.98744,2.87929],[0.3443,-0.51542]]],&quot;closed&quot;:true}]}" fill="#999999" stroke="none" stroke-width="0.5"/><path d="M274.77403,119.73724c2.03275,4.86354 8.12935,8.26092 13.29362,6.62357c0.72076,-0.53043 1.60305,-0.85451 2.25058,-1.47219c0.97066,-0.92593 1.07319,-2.15196 1.48614,-3.30392c0.41707,-1.16344 1.24425,-2.63046 1.96709,-4.09403c0.45968,1.97826 1.23194,3.82394 1.61314,5.89685c0.75388,4.09945 0.5,8.72848 0.73902,12.89553c0.00421,0.07336 0.00794,0.14753 0.01185,0.22082c-3.75452,0.62956 -5.02617,4.26913 -1.33173,6.5712c-0.53996,0.21546 -1.05107,0.48519 -1.69769,0.72288c-1.83117,0.67313 -4.30824,-0.46552 -6.14539,-0.56364c-3.36745,-0.17985 -7.59299,1.03309 -8.9845,3.76426l-0.06326,-1.0768c-0.34427,-6.00196 -2.16837,-11.7167 -2.50906,-17.65614c-0.15808,-2.75593 -0.1086,-5.75682 -0.6298,-8.52838z" data-paper-data="{&quot;noHover&quot;:false,&quot;origItem&quot;:[&quot;Path&quot;,{&quot;applyMatrix&quot;:true,&quot;segments&quot;:[[[217.31028,125.87069],[0,-2.76046],[0,5.9492]],[[218.78599,143.5792],[0,-6.01182],[0,0]],[[218.78599,144.65691],[0,0],[1.54563,-2.64701]],[[227.94299,141.40613],[-3.35162,-0.37239],[1.82852,0.20316]],[[234.02415,142.32697],[-1.86671,0.56716],[0.65917,-0.20028]],[[235.755,141.706],[-0.55141,0.18419],[-3.55655,-2.50985]],[[237.44548,135.2404],[-3.78441,0.41352],[0.00029,-0.0734]],[[237.44592,135.02009],[0,0.07348],[0,-4.1739]],[[237.45341,122.15603],[0.51789,4.13589],[-0.26187,-2.09134]],[[236.19296,116.18725],[0.34564,2.00134],[-0.80545,1.41978]],[[234.04788,120.07726],[0.48301,-1.13765],[-0.47825,1.12643]],[[232.31946,123.37381],[1.02209,-0.86882],[-0.68185,0.57959]],[[229.99622,124.71921],[0.74995,-0.48828],[-5.24956,1.33894]],[[217.15516,117.33905],[1.75091,4.97196],[0.36163,2.79685]]],&quot;closed&quot;:true}]}" fill="#999999" stroke="none" stroke-width="0.5"/><path d="M309.18217,113.78429c-2.04179,0.05883 -4.11719,0.23265 -6.13177,0.3844c-0.0058,-1.20468 0.22012,-2.34612 0.75043,-3.21669c2.5388,-4.37641 6.27954,-4.65659 10.91296,-3.79069c0.73229,0.13685 1.5283,-0.08797 2.24017,0.13162c0.61604,0.19003 0.76373,1.06813 1.24399,1.49821c1.35104,1.20987 2.1478,2.11156 1.72325,4.12238c0.00457,0.07968 0.02025,0.16522 0.04311,0.25213c-0.18862,0.20951 -0.25564,0.45655 -0.25564,0.45655l-0.15258,0.66892l-0.3975,-0.10603c-3.473,-0.65959 -6.72303,-0.60064 -9.97645,-0.4008z" data-paper-data="{&quot;noHover&quot;:false,&quot;origItem&quot;:[&quot;Path&quot;,{&quot;applyMatrix&quot;:true,&quot;segments&quot;:[[[261.70952,114.27544],[-3.42953,-0.85738],[0,0]],[262.10014,114.40438],[262.28915,113.74879],[[262.56949,113.31035],[-0.20031,0.19836],[-0.01785,-0.08808]],[[262.54047,113.05741],[0,0.07981],[0.539,-1.98321]],[[261.05502,108.86928],[1.27954,1.28525],[-0.45485,-0.45688]],[[259.90374,107.3152],[0.60415,0.225],[-0.69812,-0.25999]],[[257.68275,107.06633],[0.72325,0.17856],[-4.57623,-1.12981]],[[246.65652,110.19259],[2.78525,-4.22384],[-0.5793,0.83877]],[[245.72042,113.34326],[0.06319,-1.20303],[2.01996,-0.03614]],[[251.84871,113.28834],[-2.04181,-0.05819],[3.25951,-0.01321]]],&quot;closed&quot;:true}]}" fill="#999999" stroke="none" stroke-width="0.5"/><path d="M274.12758,117.35744c-0.76715,-2.21477 -1.43968,-4.41854 -1.75241,-6.64046c3.16274,-0.4914 6.40582,-1.66799 9.58467,-2.55248c-0.76964,0.62367 -1.56045,1.45577 -2.43613,1.8374c-1.71057,0.74548 -3.03032,0.81333 -4.11208,2.36909l-0.08131,0.18108c-0.36453,0.1648 -0.52949,0.53661 -0.52949,0.53661c-0.58411,1.42468 -0.83187,2.89985 -0.67325,4.26877z" data-paper-data="{&quot;noHover&quot;:false,&quot;origItem&quot;:[&quot;Path&quot;,{&quot;applyMatrix&quot;:true,&quot;segments&quot;:[[[217.48184,110.66638],[-0.66473,1.38889],[0,0]],[[218.0419,110.14936],[-0.37337,0.14366],[0,0]],[[218.1345,109.96861],[0,0],[1.16908,-1.49125]],[[222.45645,107.81458],[-1.75045,0.6463],[0.89608,-0.33085]],[[224.92382,106.19087],[-0.80409,0.57857],[-3.22429,0.701]],[[215.29088,108.17873],[3.18569,-0.30949],[0.18497,2.23619]],[[216.6464,114.84774],[-0.63906,-2.25507],[-0.07996,-1.37575]]],&quot;closed&quot;:true}]}" fill="#999999" stroke="none" stroke-width="0.5"/><path d="M289.16506,116.68232c0.86993,-0.03654 1.81968,-0.13563 2.68583,-0.18531l0.30277,-0.01668c-0.75143,1.53776 -1.66439,3.03829 -2.14712,4.35802c-0.29969,0.8193 -0.3515,2.0366 -1.07872,2.69727c-0.51182,0.46496 -1.21413,0.7092 -1.76098,1.13241c-4.51238,1.36872 -10.56003,-2.81079 -11.13386,-7.55985c0.75832,-0.04245 1.60509,-0.03188 2.36423,-0.06437c-0.20166,1.01874 -0.42898,1.95376 0.53031,2.89055c0.54145,0.52873 1.98932,0.37576 2.70545,0.64019c1.58316,0.58456 3.29325,1.29989 5.06705,0.62083c1.9551,-0.74848 2.14604,-2.765 2.46504,-4.51306z" data-paper-data="{&quot;noHover&quot;:false,&quot;origItem&quot;:[&quot;Path&quot;,{&quot;applyMatrix&quot;:true,&quot;segments&quot;:[[[228.99602,119.44923],[1.99475,-0.63529],[-1.80977,0.57637]],[[223.87455,118.52123],[1.54709,0.67426],[-0.69981,-0.305]],[[221.21087,117.72354],[0.51028,0.55887],[-0.90408,-0.99018]],[[220.85516,114.78898],[-0.25967,1.00552],[-0.75976,-0.01104]],[[218.57615,114.77001],[0.75951,0.00104],[0.30094,4.77413]],[[229.18711,122.89018],[-4.58335,1.10807],[0.57018,-0.3912]],[[230.99585,121.87445],[-0.5376,0.43489],[0.76387,-0.61794]],[[232.21885,119.26816],[-0.34611,0.80079],[0.55751,-1.28992]],[[234.61684,115.06501],[-0.83826,1.4922],[0,0]],[[234.31393,115.06501],[0,0],[-0.86758,0]],[[231.70649,115.04369],[0.8706,0.01334],[-0.41858,1.72692]]],&quot;closed&quot;:true}]}" fill="#ffffff" stroke="none" stroke-width="0.5"/><path d="M276.12464,115.13739c0.05254,-0.23867 0.11951,-0.48056 0.2039,-0.71842c0.34832,-0.17019 0.50571,-0.53964 0.50571,-0.53964l0.20417,-0.49811c0.27262,-0.78683 2.33386,-1.1718 3.26612,-1.58893c1.2732,-0.56968 2.42634,-2.17179 3.67812,-2.60027c0.80282,-0.27482 2.12794,-0.06821 2.99909,-0.1604c1.34481,0.84421 3.01957,0.97317 4.57009,1.25724c0.48475,0.08882 1.26296,-0.14837 1.4475,0.30859c0.51791,1.2825 0.39453,2.62736 -0.02073,3.9346c-0.19474,-0.05248 -0.35382,-0.04303 -0.35382,-0.04303l-0.88461,0.05266c-5.13028,0.29427 -10.43479,0.3129 -15.61551,0.59572z" data-paper-data="{&quot;noHover&quot;:false,&quot;origItem&quot;:[&quot;Path&quot;,{&quot;applyMatrix&quot;:true,&quot;segments&quot;:[[[234.31393,113.06501],[-5.13871,0],[0,0]],[235.19936,113.06501],[[235.55002,113.12857],[-0.19141,-0.06355],[0.48943,-1.28132]],[[235.79339,109.22432],[0.44362,1.31005],[-0.15806,-0.46678]],[[234.36654,108.83718],[0.47887,0.11643],[-1.53171,-0.37239]],[[229.89216,107.34842],[1.29426,0.91983],[-0.875,0.04215]],[[226.93003,107.34842],[0.81725,-0.22839],[-1.27426,0.35609]],[[223.15035,109.69035],[1.30373,-0.49584],[-0.95461,0.36307]],[[219.7986,111.07801],[0.31723,-0.76993],[0,0]],[219.56584,111.56081],[[219.02959,112.06827],[0.3575,-0.14996],[-0.09787,0.23264]],[[218.784,112.77044],[0.06612,-0.23527],[5.18841,0.01431]]],&quot;closed&quot;:true}]}" fill="#999999" stroke="none" stroke-width="0.5"/><path d="M318.06509,146.57707c-0.28634,-0.13944 -0.60288,-0.25098 -0.94373,-0.3296c-0.19414,-0.04477 -0.38752,-0.09345 -0.57919,-0.14625c-0.1473,-0.21947 -0.40791,-0.41447 -0.86543,-0.38823c-0.09178,0.00527 -0.17497,0.01867 -0.24976,0.03833c-2.42539,-0.85193 -4.71917,-2.1884 -7.21411,-3.06855c-1.30501,-0.46037 -2.79809,-0.29009 -4.19826,-0.15999c2.1339,-1.96494 0.98212,-3.86546 -0.94728,-5.20878c0.16167,-5.55882 -0.81193,-11.32702 -0.34776,-16.82112c0.55976,1.03624 1.24933,1.94296 2.0271,2.64411c1.72335,1.55361 3.86236,1.5805 5.99917,1.724c2.20844,0.14832 4.34002,0.53591 6.24398,-0.80509c2.64064,-1.9879 4.05294,-4.80937 4.30556,-7.93455c0.00867,-0.00772 0.01723,-0.01549 0.02567,-0.02338c0.76699,-0.71798 0.551,-2.14738 0.49898,-3.05424c1.16895,-6.77076 -7.82036,-9.30887 -13.10328,-8.3159c-2.78928,0.52428 -5.19444,2.87976 -6.604,5.25875c-0.71173,1.24646 -0.98872,2.68817 -0.96488,4.29437c-0.28884,0.10175 -0.68078,0.35531 -0.6445,0.98794c0.0391,0.68165 0.53326,0.87807 0.83249,0.92972c0.01085,0.06521 0.02425,0.13179 0.03607,0.19691c-0.04221,0.22219 -0.07916,0.44876 -0.12136,0.67096c-1.20198,6.52794 0.06028,13.4412 -0.16733,20.10206c-0.01728,0.02534 -0.03436,0.05209 -0.05091,0.0803c-0.25859,0.44061 -0.16013,0.78823 -0.0018,1.02287c-0.07983,1.29911 -0.22786,2.59095 -0.47113,3.87187c0.10317,1.99997 0.16957,3.93152 0.0431,5.91007c-0.02979,0.46602 0.30957,1.10911 0.12014,1.47466c-0.12141,0.00536 -0.24358,0.01053 -0.36529,0.01545c-0.06522,-0.09752 -0.13397,-0.21022 -0.22085,-0.24338c-0.48892,-0.18661 -1.22302,0.0262 -1.51931,-0.40518c-0.44028,-0.64103 -0.24181,-2.23779 -0.28292,-2.95436c-0.18616,-3.24548 -0.07736,-6.46501 -0.26525,-9.74076c-0.2439,-4.25221 -0.00946,-8.9071 -0.77746,-13.09245c-0.51346,-2.79823 -1.7811,-5.23671 -1.94648,-8.12003c0,0 -0.02286,-0.43132 -0.32134,-0.71074c0.46662,-1.65159 0.57318,-3.21353 -0.34276,-4.67038c-1.1924,-1.89659 -5.3651,-1.41509 -7.2224,-2.44439c1.3966,-0.11159 2.73268,-0.14244 4.14126,0.13507c0.64828,0.02374 1.42432,0.44824 1.94995,0.06803c0.67234,-0.48632 0.96162,-3.00367 0.45789,-3.68388c-0.98761,-1.33362 -4.82919,-1.57854 -6.35747,-1.29129c-1.87526,0.35248 -3.6019,1.76329 -5.34153,2.40276c-1.40969,0.5182 -3.52736,-0.44634 -4.88835,0.35091c-0.42989,0.25182 -1.36136,2.03124 -1.45205,2.85826c-1.22287,0.32043 -2.54156,0.55833 -3.77496,0.73786c-0.05556,-1.37992 0.04181,-2.81074 0.33778,-4.313c0.11517,-0.62551 -0.0099,-3.514 0.76193,-3.84278c3.75655,-1.60023 8.31069,-2.62026 12.10505,-4.51777c2.03045,-1.0154 3.49048,-2.17901 5.90913,-2.35405c2.18952,-1.21475 4.56715,-2.29024 6.7924,-3.40651c0.66213,-0.33215 1.45257,-0.35628 2.13529,-0.637c-0.48328,0.54431 -0.9528,1.29438 -1.34424,1.66178c-1.37891,1.29423 -2.65727,2.58374 -3.73796,4.0984l-0.00826,0.00475l-0.07521,-0.10008l-0.83581,0.63026c-0.26505,0.19356 -0.42822,0.51314 -0.40803,0.86518c0.03162,0.55137 0.47976,0.87579 1.03113,0.84416c0.16768,-0.00962 0.32442,-0.06026 0.45898,-0.14127l1.13014,-0.64742l-0.01315,-0.02286l0.06621,-0.00976c1.86152,-1.39638 3.94045,-1.62826 6.11192,-2.31088c4.18687,-1.31617 9.36761,-3.70736 12.83194,-6.4056c2.33467,-0.72802 3.06818,-2.00467 5.72906,-1.46527c1.91238,0.38768 1.74537,2.15758 2.18943,3.59644c1.22042,3.95445 2.19063,7.62332 2.42736,11.75067c0.01682,0.261 -0.0576,0.57461 -0.05296,0.83507c-1.7886,-0.32916 -3.41277,-1.16573 -5.01603,-2.03957c-0.65902,0.01854 -1.32451,0.06095 -1.99644,0.11321c-0.72558,-4.13596 -4.28131,-2.87463 -7.79033,-3.12235c-2.02767,-0.14314 -4.47108,-0.18838 -6.38562,0.74529c-0.99262,0.48407 -1.90565,1.4033 -2.88025,1.96054l-0.80221,0.82518c0,0 -0.65849,0.64668 0.08794,1.31214c0.00605,0.0054 0.01217,0.01072 0.01822,0.01594c-0.1089,0.80769 -0.09004,1.68149 0.49331,2.10572c1.37552,1.00032 3.83206,-1.35174 5.0975,-1.56121c3.53395,-0.58498 7.40751,-0.24677 11.12941,-0.35017c0.08263,0.01367 0.17424,0.01898 0.2752,0.01319c0.07674,-0.0044 0.14741,-0.01418 0.21219,-0.02883c0.72304,-0.02795 1.44176,-0.07252 2.14968,-0.14743c1.55955,1.03532 3.37465,1.72115 5.19682,2.08721l0.22079,0.10964c-0.22402,2.58946 -0.87242,5.14334 -1.37881,7.57538c-0.05848,0.28084 -0.03138,0.57011 0.01725,0.85934c-0.49464,1.69378 -0.74579,3.49119 -0.739,5.27208c-0.56328,2.6483 -1.04463,5.35917 -1.37765,8.08944c-2.02309,3.02391 -0.48154,6.42145 -0.70928,9.80155c-0.11396,1.69156 -1.12969,2.82882 -1.49362,4.35714c-0.46557,1.95523 -0.97818,3.87341 -1.99948,5.73138z" data-paper-data="{&quot;noHover&quot;:false,&quot;origItem&quot;:[&quot;Path&quot;,{&quot;applyMatrix&quot;:true,&quot;segments&quot;:[[[261.10017,140.92828],[-0.57678,1.92536],[0.45085,-1.50499]],[[262.83561,136.66876],[-0.21064,1.68226],[0.42092,-3.36153]],[[264.09578,126.93823],[-2.19294,2.9031],[0.48881,-2.70672]],[[265.93053,118.95768],[-0.714,2.6117],[0.09521,-1.77836]],[[266.97074,113.74708],[-0.59082,1.66267],[-0.03197,-0.29154]],[[267.00302,112.8898],[-0.07446,0.27703],[0.64483,-2.39905]],[[268.81701,105.41726],[-0.37194,2.57238],[0,0]],[[268.603,105.29547],[0,0],[-1.79822,-0.46981]],[[263.53834,102.92129],[1.4977,1.12293],[-0.71105,0.03425]],[[261.38518,102.94738],[0.72345,0.0135],[-0.06551,0.01091]],[[261.17184,102.9642],[0.07687,0],[-0.10113,0]],[[260.8981,102.93558],[0.08171,0.01838],[-3.72171,-0.1099]],[[249.78349,102.66156],[3.56164,-0.38165],[-1.27535,0.13666]],[[244.61877,103.93297],[1.31598,1.07744],[-0.5581,-0.45694]],[[244.24916,101.80282],[-0.15498,0.80013],[-0.00574,-0.00556]],[[244.23193,101.78588],[0.00574,0.00574],[-0.70711,-0.7071]],[244.23193,100.37166],[[245.08211,99.59406],[0,0],[1.00491,-0.50052]],[[248.07619,97.80312],[-1.01871,0.42643],[1.96486,-0.8225]],[[254.50576,97.42999],[-2.01615,-0.25902],[3.48906,0.44826]],[[262.11681,101.00398],[-0.48755,-4.17072],[0.67383,-0.01369]],[[264.11791,101.0071],[-0.659,-0.01923],[1.55059,0.96421]],[[269.01318,103.33725],[-1.76681,-0.43104],[0.01027,-0.26031]],[[269.0261,102.55448],[0.00185,0.26153],[0,-4.13414]],[[267.28511,90.6962],[0.99196,4.01784],[-0.36093,-1.46193]],[[265.30919,86.98363],[1.88704,0.49655],[-2.62563,-0.69089]],[[259.5104,88.12162],[2.37253,-0.59313],[-3.61316,2.49542]],[[246.34936,93.78805],[4.25537,-1.07425],[-2.20699,0.55715]],[[240.12841,95.7457],[1.93843,-1.28749],[0,0]],[240.06191,95.75164],[240.0737,95.77522],[[238.91113,96.35651],[0,0],[-0.13897,0.07317]],[[238.44592,96.47108],[0.16796,0],[-0.55229,0]],[[237.44592,95.47108],[0,0.55228],[0,-0.35262]],[[237.90412,94.63042],[-0.2757,0.17806],[0,0]],[238.77664,94.04874],[238.84611,94.15294],[[238.85464,94.14868],[0,0],[1.16565,-1.45028]],[[242.82934,90.2706],[-1.45076,1.21314],[0.41184,-0.34439]],[[244.26156,88.78838],[-0.51366,0.51574],[-0.69767,0.24116]],[[242.09703,89.30218],[0.68006,-0.29369],[-2.28553,0.98702]],[[235.13397,92.31234],[2.25549,-1.08737],[-2.4247,0.03625]],[[229.11079,94.3196],[2.08526,-0.89746],[-3.89679,1.67711]],[[216.78214,98.1236],[3.84202,-1.38249],[-0.78939,0.28405]],[[215.80471,101.91159],[0.1508,-0.61789],[-0.38152,1.48285]],[[215.22359,106.1921],[0.02355,-1.38084],[1.24166,-0.10862]],[[218.94419,105.62907],[-1.23921,0.24988],[0.1379,-0.82046]],[[220.56069,102.85337],[-0.4436,0.22679],[1.40442,-0.71801]],[[225.46503,102.77796],[-1.43705,0.43662],[1.77339,-0.53881]],[[230.94519,100.67655],[-1.89236,0.24451],[1.54222,-0.19926]],[[237.23058,102.32389],[-0.90962,-1.38799],[0.46396,0.70795]],[[236.59928,106.06825],[0.69908,-0.44702],[-0.54654,0.34949]],[[234.66168,105.88576],[0.64586,0.06083],[-1.39037,-0.35772]],[[230.47359,105.43541],[1.4007,-0.03143],[1.79531,1.13396]],[[237.55674,108.2806],[-1.08184,-1.96176],[0.831,1.50691]],[[237.68822,113.04379],[0.56043,-1.62216],[0.28199,0.29606]],[[237.97021,113.76987],[0,0],[0,2.88806]],[[239.43843,121.91166],[-0.35238,-2.82304],[0.52706,4.22245]],[[239.44592,135.02009],[0,-4.2592],[0,3.28113]],[[239.15078,144.75977],[0,-3.25081],[0,0.71775]],[[239.26333,147.72542],[-0.40285,-0.66519],[0.2711,0.44763]],[[240.75445,148.21676],[-0.47744,-0.2143],[0.08483,0.03807]],[[240.96064,148.47237],[-0.05953,-0.1011],[0.12179,0.00206]],[[241.32563,148.47785],[-0.12152,-0.00161],[0.21004,-0.35412]],[[241.29026,146.99872],[-0.05643,0.46355],[0.23958,-1.96805]],[[241.5854,141.09588],[-0.01152,2.0026],[0.31623,-1.26489]],[[242.27595,137.25733],[-0.15409,1.29241],[-0.14464,-0.24332]],[[242.33614,136.23624],[-0.28339,0.42508],[0.01814,-0.02721]],[[242.39141,136.15899],[-0.0187,0.02431],[0.60867,-6.63689]],[[243.67376,116.18361],[-1.57382,6.4484],[0.05486,-0.21941]],[[243.83832,115.52536],[-0.05486,0.21941],[-0.00806,-0.0657]],[[243.81556,115.32823],[0.0071,0.06572],[-0.29577,-0.06871]],[[243.05361,114.36016],[0,0.68277],[0,-0.63366]],[[243.74934,113.40932],[-0.29419,0.08504],[0.06817,-1.60492]],[[244.99242,109.08319],[-0.78194,1.20365],[1.54348,-2.29435]],[[251.90026,104.21825],[-2.81473,0.36369],[5.33112,-0.68882]],[[264.52549,113.30177],[1.55475,-6.69271],[0,0.90836]],[[263.85325,116.32893],[0.80685,-0.67288],[-0.00888,0.00741]],[[263.82628,116.35085],[0.0091,-0.0072],[-0.43117,3.10558]],[[259.07027,124.04646],[2.75014,-1.83343],[-1.97763,1.22977]],[[252.78569,124.50206],[2.19632,0.27454],[-2.12509,-0.26564]],[[246.88821,122.44581],[1.63156,1.64975],[-0.73633,-0.74455]],[[245.02148,119.68333],[0.4995,1.06659],[-0.77803,5.45851]],[[244.35874,136.41818],[0.47973,-5.54044],[1.84931,1.45159]],[[245.00613,141.67266],[2.24292,-1.83952],[1.40533,-0.0497]],[[249.18044,142.07441],[-1.2765,-0.53435],[2.44045,1.02158]],[[256.19835,145.55442],[-2.37262,-0.98942],[0.07581,-0.01535]],[[256.44957,145.53062],[-0.09193,0],[0.45828,0]],[[257.2906,145.96818],[-0.13449,-0.22754],[0.18833,0.06368]],[[257.85989,146.14765],[-0.19126,-0.05582],[0.33578,0.09801]],[[258.78238,146.53121],[-0.27789,-0.15561],[1.12602,-1.79645]]],&quot;closed&quot;:true}]}" fill="#999999" stroke="none" stroke-width="0.5"/><path d="M273.80578,117.98853c0.26598,0.99524 0.58482,1.97862 0.75908,3.01157c1.00884,5.97986 1.34145,11.7238 -0.58755,17.44946c-1.84343,2.69748 -6.5674,2.12574 -7.81163,-0.91535c-2.64071,-6.45424 -2.95961,-14.79616 -3.3541,-21.67379c-0.10149,-1.76942 -0.65197,-3.88481 0.53091,-5.42337c1.43756,-1.86983 6.57244,-1.46598 8.35888,-0.36834c1.96991,1.21037 1.98378,5.67384 2.10441,7.91984z" fill="#c300f0" stroke="none" stroke-width="0.5"/><path d="M325.06776,112.50293c-0.38257,-0.2698 -0.41189,-0.78108 -0.41189,-0.78108l-0.01691,-0.29468c-0.10868,-1.89478 -1.23614,-6.50655 0.67738,-7.72138c1.71964,-1.09174 4.66267,0.5439 6.40527,0.44395c2.88561,1.63519 2.42173,4.0486 2.59206,7.01815c0.38794,6.76343 0.92079,14.41353 -3.24953,20.00241c-3.38808,0.30562 -4.83073,-1.79414 -6.08756,-4.63362c-2.12701,-4.8054 -0.34399,-9.26146 0.09117,-14.03375z" fill="#c300f0" stroke="none" stroke-width="0.5"/><path d="M268.91412,111.33467c-0.16871,-0.25723 -0.18515,-0.54371 -0.18515,-0.54371l-0.0338,-0.58931c-0.0255,-0.44457 -0.17665,-2.58888 -0.0441,-2.83513c1.18162,-2.19513 5.47512,-1.28319 6.31674,0.70694c1.1817,2.79427 0.49303,7.84641 0.66787,10.89452c0.30684,5.34954 1.48963,10.33075 1.19121,15.69861c-0.10497,1.88812 -0.77157,7.49315 -4.15146,5.7215c-1.34269,-0.7038 -1.54485,-3.99999 -1.95678,-5.34745c-0.48415,-7.66889 -2.62867,-15.91435 -1.80454,-23.70597z" fill="#00b539" stroke="none" stroke-width="0.5"/><path d="M322.21723,107.70035c-0.46688,-0.24763 -0.5006,-0.83556 -0.5006,-0.83556l-0.0169,-0.29465c-0.08183,-1.52842 -0.32732,-5.23864 1.07262,-6.27465c0.75273,-0.55704 4.31492,0.56116 4.85192,1.16928c1.11881,1.26697 0.47177,1.81756 0.39014,3.09178c-0.14092,2.19982 0.16877,4.4561 -0.23292,6.6377c-0.63067,3.20106 -0.54039,7.63117 0.05437,10.8654c0.3769,2.0495 1.655,4.00853 1.22292,6.1949c-0.41223,2.0859 -2.80294,5.94548 -5.13477,3.59765c-0.81075,-0.8163 -0.80204,-2.72636 -1.53729,-3.74608c-0.36783,-4.24327 -0.96922,-8.82708 -0.7857,-13.07954c0.10672,-2.47292 0.50313,-4.8763 0.6162,-7.32624z" fill="#00b539" stroke="none" stroke-width="0.5"/><path d="M331.60675,122.53664c-2.38725,-0.74232 -1.64492,-3.12957 -1.64492,-3.12957l0.70267,-2.23905c1.60501,-10.01144 4.35842,-20.13379 3.77823,-30.24894c-0.39482,-7.03487 -1.41337,-14.62603 -3.77543,-21.24248c-0.76919,-2.15459 -0.86112,-5.4125 -1.99148,-7.37568c-1.32511,-2.30142 -5.44392,-2.97902 -7.70436,-3.34428c-5.44404,-0.87966 -10.67356,-2.35116 -16.23507,-2.58424c-14.67804,-2.0557 -33.67376,-1.93297 -40.97401,13.76305c-1.36883,2.94308 -1.62071,6.54368 -2.13953,9.70272c-0.58517,11.1269 -1.8437,22.48332 -0.11803,33.64228c0.86044,5.56399 2.90526,10.89805 4.43502,16.29989c0,0 0.6812,2.40541 -1.72421,3.08659c-2.40541,0.6812 -3.0866,-1.72422 -3.0866,-1.72422c-1.58434,-5.59462 -3.68481,-11.11864 -4.56349,-16.88544c-1.76813,-11.60453 -0.54124,-23.38101 0.0861,-34.95489c0.60036,-3.71789 0.97795,-7.7943 2.57053,-11.26133c8.1692,-17.78426 29.12508,-19.0411 45.96977,-16.64785c4.79447,0.20559 9.42499,1.13874 14.06889,2.22538c4.73276,1.10743 10.6946,1.31174 13.65304,6.02926c1.41466,2.2558 1.55747,5.8203 2.45708,8.33301c2.53243,7.07333 3.62412,15.13887 4.06357,22.65192c0.60793,10.59876 -2.17521,21.20627 -3.90332,31.68208l-0.79487,2.57688c0,0 -0.74233,2.38725 -3.12957,1.64492z" fill="#82007c" stroke="none" stroke-width="0.5"/><path d="M273.4175,182.22373c-0.49522,-0.58771 -1.55063,-2.80957 -2.25322,-3.13812c-3.98312,-1.86268 -5.59593,0.50724 -9.03164,1.90505c-1.16747,0.07351 -2.84789,0.33296 -3.93464,-0.3108c-2.47588,-1.46664 -3.4204,-5.12723 -1.87029,-7.53237c0.94786,-1.47068 3.25797,-2.65409 3.34749,-4.56338c0.10457,-2.23031 -3.63221,-3.32286 -4.11978,-5.32148c-0.62628,-2.56722 2.3182,-4.73168 3.81138,-6.40658c0.13141,-0.14705 1.83512,-2.00298 1.9369,-2.30084c0.38769,-1.13464 -0.57209,-3.00396 -0.85657,-3.9788c-0.74994,-2.56989 -3.09423,-7.72735 -2.30791,-10.39012c1.0435,-3.53365 6.15601,-5.12281 8.40364,-7.68763c0,0 0.83182,-0.93305 1.76487,-0.10123c0.93304,0.83181 0.10122,1.76487 0.10122,1.76487c-1.99977,2.21326 -6.90301,3.94999 -7.90904,6.84688c-0.44519,1.28196 1.13844,3.86646 1.5188,5.00891c0.75307,2.26191 2.47786,6.84191 1.68756,9.22819c-0.32355,0.97693 -1.75587,2.46678 -2.47339,3.27341c-0.51557,0.57831 -3.61007,3.23869 -3.27508,4.05122c0.96058,2.32997 4.30393,2.81969 4.21736,6.02539c-0.08502,3.1482 -4.7047,4.81245 -4.29767,7.68883c0.06538,0.46203 1.21532,1.27056 1.33473,1.42692c0.51033,0.66826 1.53944,0.87868 2.3793,0.83787c1.4987,-0.57527 2.00577,-1.60682 3.51009,-2.21913c2.17175,-0.88396 5.32291,-0.52669 7.35979,0.61765c1.77495,0.99718 2.48418,3.68182 3.99033,5.23628c0.01186,0.92657 0.05795,1.83789 0.13957,2.75648c-1.12749,-0.55708 -2.05731,-1.39244 -3.17379,-2.71747z" fill="#00b539" stroke="none" stroke-width="0.5"/><path d="M317.3749,100.04705c0,0 1.54,0.23026 4.31239,0.86476c2.53227,0.57955 4.54192,1.48638 4.54192,1.48638l0.26179,1.15726c0,0 -7.41697,-2.70969 -15.23247,-1.60095c-6.24909,0.88654 -9.78578,3.37832 -9.78578,3.37832l-0.19351,-4.1726c0,0 3.02476,-1.8805 7.7445,-2.30283c4.88726,-0.43731 8.11142,0.12696 8.11142,0.12696z" data-paper-data="{&quot;index&quot;:null}" fill="#000000" stroke="none" stroke-width="1.5"/><path d="M277.57714,106.43281c0,0 3.25994,-2.00898 7.8886,-2.73801c5.12913,-0.80787 7.75169,-0.51102 7.75169,-0.51102l0.53152,4.11379c0,0 -3.86823,-0.4599 -8.03463,-0.06114c-5.57206,0.53329 -6.55193,1.81109 -10.77157,2.51214c-3.61561,0.60069 -6.71708,0.54439 -6.71708,0.54439l-0.09637,-1.22805c0,0 3.59351,-0.13201 5.2212,-0.36795c1.34344,-0.19474 3.91546,-1.16421 3.91546,-1.16421z" fill="#000000" stroke="none" stroke-width="1.5"/></g></g></svg>