<svg version="1.1" xmlns="http://www.w3.org/2000/svg" xmlns:xlink="http://www.w3.org/1999/xlink" width="303.65112" height="411.73632" viewBox="0,0,303.65112,411.73632"><g transform="translate(-145.14174,94.85437)"><g data-paper-data="{&quot;isPaintingLayer&quot;:true}" fill-rule="nonzero" stroke-linejoin="miter" stroke-miterlimit="10" stroke-dasharray="" stroke-dashoffset="0" style="mix-blend-mode: normal"><g data-paper-data="{&quot;index&quot;:null}"><path d="M187.16525,115.96229l-12.4572,29.24986l3.33528,-30.95111z" fill="#d9db56" stroke="#000000" stroke-width="0.5" stroke-linecap="butt"/><path d="M191.4653,119.70735l-1.79245,7.06621l-18.00747,-4.56787l1.79243,-7.06622z" fill="#d9db56" stroke="#000000" stroke-width="1" stroke-linecap="butt"/><path d="M206.83993,78.18178l-11.0331,43.82382l-28.04725,-7.06117l11.0331,-43.82382z" fill="#d9db56" stroke="#000000" stroke-width="1" stroke-linecap="butt"/><path d="M202.80226,95.07326l-2.97156,10.06739c0,0 -8.29999,-4.87615 -13.00986,-6.00224c-4.41532,-1.05568 -14.42287,-0.55662 -14.42287,-0.55662l2.97156,-10.06739c0,0 10.10879,-1.68305 14.48149,-0.63761c4.74164,1.13367 12.95124,7.19643 12.95124,7.19643z" fill="#000000" stroke="none" stroke-width="0" stroke-linecap="butt"/><path d="M184.82404,124.20207l0.90908,-4.54206" fill="none" stroke="#000000" stroke-width="0.5" stroke-linecap="round"/><path d="M178.97149,118.52586l-0.62813,4.72006" fill="none" stroke="#000000" stroke-width="0.5" stroke-linecap="round"/></g><g><path d="M431.00888,78.57392l16.68878,27.05959l-23.34474,-20.59413z" fill="#d9db56" stroke="#000000" stroke-width="0.5" stroke-linecap="butt"/><path d="M436.54941,77.22546l4.73437,5.54347l-14.12693,12.06501l-4.73438,-5.54346z" fill="#d9db56" stroke="#000000" stroke-width="1" stroke-linecap="butt"/><path d="M411.52244,40.69597l29.41017,34.31178l-21.95952,18.82252l-29.41017,-34.31178z" fill="#d9db56" stroke="#000000" stroke-width="1" stroke-linecap="butt"/><path d="M422.98242,53.74564l6.50391,8.23903c0,0 -8.77358,3.96119 -12.41244,7.15643c-3.4113,2.99541 -8.78214,11.45439 -8.78214,11.45439l-6.50391,-8.23903c0,0 4.46262,-9.22526 7.84096,-12.19178c3.6634,-3.21681 13.35361,-6.41906 13.35361,-6.41906z" fill="#000000" stroke="none" stroke-width="0" stroke-linecap="butt"/><path d="M436.38456,85.24305l-3.18354,-3.3648" fill="none" stroke="#000000" stroke-width="0.5" stroke-linecap="round"/><path d="M428.3709,86.74403l3.49109,3.23818" fill="none" stroke="#000000" stroke-width="0.5" stroke-linecap="round"/></g><path d="M183.32813,44.76791c-5.29514,-64.20949 42.61777,-120.56678 107.01647,-125.87752c64.3987,-5.31074 120.89673,42.43612 126.19187,106.64562c5.29514,64.20949 -42.61777,120.56679 -107.01647,125.87753c-64.3987,5.31074 -120.89673,-42.43613 -126.19187,-106.64563z" fill="#7f7f38" stroke="#000000" stroke-width="2" stroke-linecap="butt"/><path d="M280.01676,46.2999c-3.18292,-38.59648 29.49308,-72.79258 72.98389,-76.37912c43.49081,-3.58654 81.32734,24.79463 84.51026,63.39111c3.18292,38.59649 -29.49308,72.79259 -72.98389,76.37913c-43.49081,3.58654 -81.32734,-24.79463 -84.51026,-63.39111z" fill="#00800b" stroke="#000000" stroke-width="2" stroke-linecap="butt"/><path d="M280.01676,46.2999c-3.18292,-38.59648 29.49308,-72.79258 72.98389,-76.37912c43.49081,-3.58654 81.32734,24.79463 84.51026,63.39111c3.18292,38.59649 -29.49308,72.79259 -72.98389,76.37913c-43.49081,3.58654 -81.32734,-24.79463 -84.51026,-63.39111z" fill="#9d9d45" stroke="#000000" stroke-width="2" stroke-linecap="butt"/><path d="M168.02417,57.08372c-3.18292,-38.59648 29.49308,-72.79259 72.98389,-76.37913c43.49081,-3.58654 81.32735,24.79463 84.51027,63.39112c3.18292,38.59649 -29.49308,72.79259 -72.9839,76.37913c-43.49081,3.58654 -81.32734,-24.79463 -84.51026,-63.39111z" fill="#9d9d45" stroke="#000000" stroke-width="2" stroke-linecap="butt"/><path d="M261.13067,315.79041c0,0 3.90523,-63.66997 4.71618,-109.96923c0.82307,-46.99163 -12.05907,-169.92784 -12.05907,-169.92784l90.26123,-6.77485c0,0 7.44393,117.59702 16.10451,167.54457c6.86347,39.58325 23.04475,109.06087 23.04475,109.06087z" fill="#4f4f23" stroke="#000000" stroke-width="2" stroke-linecap="butt"/><path d="M264.63247,144.93047c-3.26111,-46.92675 -8.72743,-98.50886 -8.72743,-98.50886l87.79214,-6.62226c0,0 3.23743,51.97735 7.9543,99.2883c0,0 -15.55146,14.47193 -42.78807,16.59427c-25.99383,2.0255 -44.23093,-10.75144 -44.23093,-10.75144z" fill="#363618" stroke="#000000" stroke-width="0" stroke-linecap="butt"/><path d="M312.64203,188.59862c-6.42557,0.5299 -13.7888,-18.24412 -13.7888,-18.24412l25.02464,-2.0637c0,0 -4.81027,19.77793 -11.23584,20.30782z" fill="#000000" stroke="#000000" stroke-width="2" stroke-linecap="round"/><path d="M279.7546,152.20634c-0.595,-7.21506 4.77162,-13.54636 11.98666,-14.14136c7.21506,-0.595 13.54635,4.77162 14.14135,11.98667c0.595,7.21506 -4.77161,13.54636 -11.98667,14.14136c-7.21506,0.595 -13.54635,-4.77162 -14.14135,-11.98667z" fill="#000000" stroke="none" stroke-width="0" stroke-linecap="butt"/><path d="M328.63227,161.32842c-7.21505,0.595 -13.54636,-4.77162 -14.14136,-11.98667c-0.595,-7.21506 4.77162,-13.54635 11.98667,-14.14135c7.21506,-0.595 13.54635,4.77162 14.14135,11.98667c0.595,7.21506 -4.77161,13.54635 -11.98666,14.14135z" data-paper-data="{&quot;index&quot;:null}" fill="#000000" stroke="none" stroke-width="0" stroke-linecap="butt"/><path d="M164.06986,18.34267c-4.58056,-55.54439 51.50653,-105.50356 125.27403,-111.58692c73.7675,-6.08336 137.28115,34.01274 141.8617,89.55714c4.58056,55.5444 -51.50654,105.50356 -125.27403,111.58692c-73.7675,6.08336 -137.28114,-34.01274 -141.86169,-89.55714z" fill="#c5c556" stroke="#000000" stroke-width="2" stroke-linecap="butt"/><g><path d="M407.93561,-6.58982l31.50014,-4.29854l-28.28466,13.00281z" fill="#d9db56" stroke="#000000" stroke-width="0.5" stroke-linecap="butt"/><path d="M408.94681,-12.20171l6.98598,-2.08335l5.30918,17.80301l-6.98598,2.08337z" fill="#d9db56" stroke="#000000" stroke-width="1" stroke-linecap="butt"/><path d="M365.41107,-4.1152l43.28343,-12.99234l8.31511,27.70139l-43.28343,12.99234z" fill="#d9db56" stroke="#000000" stroke-width="1" stroke-linecap="butt"/><path d="M381.98408,-9.30752l10.16726,-2.60946c0,0 0.06813,9.62612 1.51568,14.24731c1.35702,4.33222 6.9157,12.66895 6.9157,12.66895l-10.16726,2.60945c0,0 -6.62716,-7.81673 -7.97112,-12.10708c-1.45734,-4.65237 -0.46029,-14.80916 -0.46029,-14.80916z" fill="#000000" stroke="none" stroke-width="0" stroke-linecap="butt"/><path d="M416.21054,-8.8036l-4.36587,1.54787" fill="none" stroke="#000000" stroke-width="0.5" stroke-linecap="round"/><path d="M414.33708,-0.86875l4.37469,-1.88034" fill="none" stroke="#000000" stroke-width="0.5" stroke-linecap="round"/></g><g data-paper-data="{&quot;index&quot;:null}"><path d="M173.78528,36.81419l-27.32643,16.24815l20.96968,-23.00799z" fill="#d9db56" stroke="#000000" stroke-width="0.5" stroke-linecap="butt"/><path d="M175.0438,42.37585l-5.61945,4.64392l-11.83453,-14.32055l5.61944,-4.64394z" fill="#d9db56" stroke="#000000" stroke-width="1" stroke-linecap="butt"/><path d="M211.974,17.94405l-34.7838,28.85036l-18.46425,-22.26162l34.78381,-28.85036z" fill="#d9db56" stroke="#000000" stroke-width="1" stroke-linecap="butt"/><path d="M198.74036,29.19108l-8.34334,6.36955c0,0 -3.81851,-8.83661 -6.95437,-12.52676c-2.93975,-3.45939 -11.31058,-8.96659 -11.31058,-8.96659l8.34334,-6.36956c0,0 9.15175,4.6115 12.06314,8.03746c3.15703,3.71505 6.20185,13.45586 6.20185,13.45586z" fill="#000000" stroke="none" stroke-width="0" stroke-linecap="butt"/><path d="M170.44587,38.95252l-3.41593,3.12861" fill="none" stroke="#000000" stroke-width="0.5" stroke-linecap="round"/><path d="M162.36467,37.48235l3.29432,-3.43816" fill="none" stroke="#000000" stroke-width="0.5" stroke-linecap="round"/></g><g><path d="M255.95334,-55.66503l4.52389,-31.46857l4.7289,30.76902z" fill="#d9db56" stroke="#000000" stroke-width="0.5" stroke-linecap="butt"/><path d="M250.83543,-58.17956l-0.08323,-7.28953l18.57659,-0.2121l0.08325,7.28953z" fill="#d9db56" stroke="#000000" stroke-width="1" stroke-linecap="butt"/><path d="M246.64601,-14.09781l-0.59684,-45.18739l28.91993,-0.382l0.59684,45.18738z" fill="#d9db56" stroke="#000000" stroke-width="1" stroke-linecap="butt"/><path d="M246.20823,-31.45964l0.28521,-10.49291c0,0 9.27419,2.57997 14.11527,2.45815c4.53834,-0.11418 14.08171,-3.16771 14.08171,-3.16771l-0.28521,10.49291c0,0 -9.33703,4.22379 -13.83153,4.3369c-4.87374,0.12265 -14.36543,-3.62731 -14.36543,-3.62731z" fill="#000000" stroke="none" stroke-width="0" stroke-linecap="butt"/><path d="M256.38735,-59.60658l-0.28842,-4.62316" fill="none" stroke="#000000" stroke-width="0.5" stroke-linecap="round"/><path d="M262.6077,-64.97074l0.60568,4.723" fill="none" stroke="#000000" stroke-width="0.5" stroke-linecap="round"/></g><g><path d="M328.42437,44.49648l9.10129,30.46151l-17.2061,-25.94312z" fill="#d9db56" stroke="#000000" stroke-width="0.5" stroke-linecap="butt"/><path d="M334.12506,44.63082l3.13499,6.5815l-16.77224,7.98915l-3.135,-6.58149z" fill="#d9db56" stroke="#000000" stroke-width="1" stroke-linecap="butt"/><path d="M319.42637,2.86121l19.50703,40.76434l-26.08918,12.48451l-19.50703,-40.76434z" fill="#d9db56" stroke="#000000" stroke-width="1" stroke-linecap="butt"/><path d="M327.11054,18.43613l4.14504,9.64371c0,0 -9.50064,1.55067 -13.84357,3.69306c-4.07135,2.00839 -11.45193,8.78535 -11.45193,8.78535l-4.14504,-9.64371c0,0 6.70212,-7.75255 10.73413,-9.74158c4.37224,-2.15685 14.56135,-2.73685 14.56135,-2.73685z" fill="#000000" stroke="none" stroke-width="0" stroke-linecap="butt"/><path d="M329.68472,48.25623l2.20214,4.0752" fill="none" stroke="#000000" stroke-width="0.5" stroke-linecap="round"/><path d="M323.75808,51.7031l2.532,4.03267" fill="none" stroke="#000000" stroke-width="0.5" stroke-linecap="round"/></g></g></g></svg>