<svg version="1.1" xmlns="http://www.w3.org/2000/svg" xmlns:xlink="http://www.w3.org/1999/xlink" width="34.17311" height="34.17311" viewBox="0,0,34.17311,34.17311"><defs><linearGradient x1="311.55994" y1="175.15468" x2="314.33741" y2="183.20633" gradientUnits="userSpaceOnUse" id="color-1"><stop offset="0" stop-color="#ecec68"/><stop offset="1" stop-color="#292912"/></linearGradient></defs><g transform="translate(-302.91348,-162.91348)"><g data-paper-data="{&quot;isPaintingLayer&quot;:true}" stroke-miterlimit="10" stroke-dasharray="" stroke-dashoffset="0" style="mix-blend-mode: normal"><path d="M309.98314,162.91349h20.03379c3.9166,0 7.06966,3.15307 7.06966,7.06966v20.03379c0,3.91659 -3.15306,7.06966 -7.06966,7.06966h-20.03379c-3.91659,0 -7.06966,-3.15307 -7.06966,-7.06966v-20.03379c0,-3.91659 3.15307,-7.06966 7.06966,-7.06966z" fill="#a0a300" fill-rule="evenodd" stroke="none" stroke-width="4.43922" stroke-linecap="round" stroke-linejoin="round"/><path d="M322.34409,181.4208c0,0 3.68972,-1.92369 3.79426,-3.67173c0.05975,-0.99905 -1.43101,-2.65114 -1.52575,-4.41634c-0.12487,-2.32655 2.24728,-4.09063 2.24728,-4.09063c0,0 -0.57765,1.77232 -0.51324,3.9318c0.05133,1.72093 1.40402,2.34155 1.77171,4.59577c0.3601,2.20769 -1.92515,5.72162 -1.92515,5.72162c0,0 -0.68938,0.68163 -2.43744,-0.26444c-1.58964,-0.86033 -1.41167,-1.80604 -1.41167,-1.80604z" fill="#60602a" fill-rule="nonzero" stroke="#000000" stroke-width="0.5" stroke-linecap="butt" stroke-linejoin="miter"/><g data-paper-data="{&quot;index&quot;:null}" fill-rule="nonzero" stroke="#1d1d0d" stroke-width="0.5" stroke-linecap="butt" stroke-linejoin="miter"><path d="M308.94307,176.21139l-1.06315,-3.11033l5.38077,-1.83056l1.06315,3.11033z" fill="#d0d05b"/><path d="M313.66686,183.48875l-1.818,-5.15566l-2.56093,-2.39467l4.58614,-1.48713l-0.7608,3.472l1.84965,5.29536z" fill="url(#color-1)"/><path d="M306.71193,173.85679l3.31267,-4.03537l5.15353,1.03822z" fill="#bfbf54"/><path d="M313.69814,174.62308l-4.1232,1.35638c0,0 0.41698,-1.81765 1.55557,-2.1922c1.13859,-0.37456 2.56763,0.83583 2.56763,0.83583z" fill="#ffff70"/></g><path d="M306.96035,189.97144c-0.09033,-6.26349 5.72987,-11.41266 12.99979,-11.50098c7.26991,-0.08832 13.23657,4.91764 13.3269,11.18114c0.00521,0.36154 -0.00927,0.71937 -0.04258,1.07273c-1.0612,-0.04345 -2.12486,-0.10974 -3.1713,-0.10688c-7.34681,0.02012 -14.69379,0.02511 -22.04052,-0.0119c-0.18126,-0.00091 -0.35471,-0.1349 -0.53235,-0.10181c-0.08661,0.01614 -0.27559,0.11853 -0.4974,0.25417c-0.02443,-0.25972 -0.03872,-0.52197 -0.04253,-0.78646z" fill="#bebe54" fill-rule="nonzero" stroke="#000000" stroke-width="0.5" stroke-linecap="butt" stroke-linejoin="miter"/><path d="M307.07223,187.31305l1.37822,-2.92871l23.5158,0.17228l1.20594,2.75643z" fill="#b9b952" fill-rule="nonzero" stroke="#000000" stroke-width="0.5" stroke-linecap="butt" stroke-linejoin="miter"/><path d="M316.34162,189.07125v-7.49405h7.11934v7.49405z" fill="#ffff70" fill-rule="nonzero" stroke="#000000" stroke-width="0.5" stroke-linecap="butt" stroke-linejoin="miter"/><g fill-rule="nonzero" stroke="#000000" stroke-width="0.5" stroke-linecap="butt" stroke-linejoin="miter"><path d="M311.944,186.35728c0,-0.37422 0.24201,-0.47494 0.54054,-0.47494c0.29853,0 0.54054,0.10072 0.54054,0.47494c0,0.37422 -0.24201,0.88022 -0.54054,0.88022c-0.29853,0 -0.54054,-0.506 -0.54054,-0.88022z" fill="#ecec68"/><path d="M313.02508,188.92472c0,0.37422 -0.24201,0.47494 -0.54054,0.47494c-0.29853,0 -0.54054,-0.10072 -0.54054,-0.47494c0,-0.37422 0.24201,-0.88022 0.54054,-0.88022c0.29853,0 0.54054,0.506 0.54054,0.88022z" fill="#ecec68"/><path d="M311.20082,188.18154c-0.37422,0 -0.47494,-0.24201 -0.47494,-0.54054c0,-0.29853 0.10072,-0.54054 0.47494,-0.54054c0.37422,0 0.88022,0.24201 0.88022,0.54054c0,0.29853 -0.506,0.54054 -0.88022,0.54054z" fill="#ecec68"/><path d="M313.76826,187.10046c0.37422,0 0.47494,0.24201 0.47494,0.54054c0,0.29853 -0.10072,0.54054 -0.47494,0.54054c-0.37422,0 -0.88022,-0.24201 -0.88022,-0.54054c0,-0.29853 0.506,-0.54054 0.88022,-0.54054z" fill="#ecec68"/><path d="M311.19459,187.11549c-0.26461,-0.26461 -0.16471,-0.50696 0.04639,-0.71805c0.21109,-0.21109 0.45344,-0.311 0.71805,-0.04639c0.26461,0.26461 0.45128,0.79353 0.24019,1.00463c-0.21109,0.21109 -0.74002,0.02442 -1.00463,-0.24019z" fill="#ecec68"/><path d="M313.77449,188.1665c0.26461,0.26461 0.16471,0.50696 -0.04639,0.71805c-0.21109,0.21109 -0.45344,0.311 -0.71805,0.04639c-0.26461,-0.26461 -0.45128,-0.79353 -0.24019,-1.00463c0.21109,-0.21109 0.74002,-0.02442 1.00463,0.24019z" fill="#ecec68"/><path d="M311.95903,188.93094c-0.26461,0.26461 -0.50696,0.16471 -0.71805,-0.04639c-0.21109,-0.21109 -0.311,-0.45344 -0.04639,-0.71805c0.26461,-0.26461 0.79353,-0.45128 1.00463,-0.24019c0.21109,0.21109 0.02442,0.74002 -0.24019,1.00463z" fill="#ecec68"/><path d="M313.01005,186.35105c0.26461,-0.26461 0.50696,-0.16471 0.71805,0.04639c0.21109,0.21109 0.311,0.45344 0.04639,0.71805c-0.26461,0.26461 -0.79353,0.45128 -1.00463,0.24019c-0.21109,-0.21109 -0.02442,-0.74002 0.24019,-1.00463z" fill="#ecec68"/><path d="M311.76889,187.62577c0,-0.39524 0.3204,-0.71565 0.71565,-0.71565c0.39524,0 0.71565,0.32041 0.71565,0.71565c0,0.39524 -0.32041,0.71565 -0.71565,0.71565c-0.39524,0 -0.71565,-0.3204 -0.71565,-0.71565z" fill="#b1b14e"/></g></g></g></svg>