<svg version="1.1" xmlns="http://www.w3.org/2000/svg" xmlns:xlink="http://www.w3.org/1999/xlink" width="156.59811" height="277.45448" viewBox="0,0,156.59811,277.45448"><g transform="translate(-236.92088,-41.02836)"><g data-paper-data="{&quot;isPaintingLayer&quot;:true}" fill-rule="nonzero" stroke-linejoin="miter" stroke-miterlimit="10" stroke-dasharray="" stroke-dashoffset="0" style="mix-blend-mode: normal"><path d="M283.8965,315.6624l12.94732,-132.07578l37.77539,-0.78647l15.76807,131.7559z" fill="#000000" stroke="#ffffff" stroke-width="2" stroke-linecap="butt"/><path d="M336.02881,198.73314l-11.41938,30.96889l-7.94621,88.70001l-9.64729,-89.03541l-13.05042,-29.30546z" fill="#ffffff" stroke="#ffffff" stroke-width="1.5" stroke-linecap="round"/><path d="M321.28503,247.17534l-5.2756,10.03187l-6.97461,-13.35963l5.16483,-31.38169l-2.42583,-8.69898l9.14757,-0.47894l-2.86428,9.76268z" fill="#000000" stroke="none" stroke-width="0" stroke-linecap="butt"/><path d="M286.73614,123.29026c-0.69835,-7.28262 0.04956,-17.15768 0.04956,-17.15768c0,0 3.40943,-0.09798 13.86005,-3.37529c8.02882,-2.51787 20.38663,-9.82775 20.38663,-9.82775c0,0 -2.10976,3.04055 -3.33313,4.51623c-1.30059,1.56881 -3.91646,4.62877 -3.91646,4.62877c0,0 7.80917,-1.79778 14.59405,-4.97279c8.50836,-3.67781 10.49035,-6.22848 12.87222,-4.80752c2.81119,1.67709 1.4156,23.16236 1.19651,28.72468c-0.32726,5.67545 -2.37488,9.54052 -2.94157,12.57121c-0.56669,3.03069 -0.30745,6.14259 -1.93906,16.07419c-1.01823,6.19801 -4.01278,8.99267 -9.77412,14.82548c-5.76135,5.83282 -8.89859,9.40209 -12.8567,9.53694c-3.80914,0.12978 -9.01927,-4.95084 -14.10622,-10.14916c-5.41677,-5.53539 -9.01469,-8.32831 -9.96604,-14.97602c-0.85679,-5.98697 -0.94127,-9.89424 -1.37619,-15.22756c-0.31787,-3.89798 -2.3681,-6.40653 -2.74949,-10.3837z" fill="#5a5a07" stroke="none" stroke-width="0" stroke-linecap="butt"/><path d="M334.54795,107.37226c0,0 1.52937,0.29267 4.27369,1.03934c2.50661,0.682 4.47775,1.66977 4.47775,1.66977l0.21455,1.16694c0,0 -7.3007,-3.00892 -15.15481,-2.21878c-6.27996,0.6318 -9.91502,2.97777 -9.91502,2.97777l-0.02374,-4.17702c0,0 3.09869,-1.75601 7.8317,-1.98614c4.901,-0.23829 8.09955,0.45656 8.09955,0.45656z" data-paper-data="{&quot;index&quot;:null}" fill="#5a5a07" stroke="none" stroke-width="0" stroke-linecap="butt"/><path d="M322.50075,150.56621c0.57385,0.20234 3.10643,1.34793 6.06621,2.49528c2.98335,1.1565 7.25077,2.17261 7.23406,2.34047c-0.02122,0.21304 -10.42955,0.40051 -13.66696,0.85974c-2.71299,0.38483 -6.67601,0.81682 -6.67601,0.81682c0,0 -7.12236,-1.04335 -13.31119,-2.22406c-4.96014,-0.9463 -10.42548,-1.48784 -10.4377,-1.58118c-0.01648,-0.12587 3.85599,-0.77496 6.80002,-1.50801c1.13743,-0.5156 5.41425,-1.57543 5.41425,-1.57543c0,0 4.95055,-0.36007 7.61684,0.45234c2.85691,0.8705 2.87576,2.39805 3.12375,2.41743c0,0 1.1551,-1.76878 2.33352,-2.14373c1.17844,-0.37494 5.07457,-0.50082 5.50323,-0.34968z" fill="#5a5a07" stroke="none" stroke-width="0" stroke-linecap="butt"/><path d="M303.93109,155.4294c5.10751,0.9419 11.96262,2.6087 11.96262,2.6087c0,0 5.76307,-1.65196 8.41509,-1.97467c2.05605,-0.2502 11.20269,-0.89304 11.25314,-0.52106c0.04934,0.3637 -8.81532,13.04879 -20.93808,12.79725c-13.77488,-0.20664 -23.11324,-14.7531 -23.07822,-14.92284c0.03502,-0.16973 7.27793,1.07071 12.38544,2.01263z" fill="#5a5a07" stroke="none" stroke-width="0" stroke-linecap="butt"/><path d="M314.85403,152.25358c-1.03361,0.01719 -3.59186,-3.20111 -3.87541,-5.29996c-0.2537,-1.8779 1.25125,-3.84934 3.72249,-3.89046c2.47125,-0.04112 4.20968,0.4208 4.09911,4.1209c-0.09384,3.14018 -1.47496,5.02841 -3.94619,5.06952z" fill="#5a5a07" stroke="none" stroke-width="0" stroke-linecap="butt"/><path d="M317.95498,122.1041c0,0 0.16863,3.96751 0.12433,7.12554c-0.08771,6.25346 -0.61947,27.77485 -0.61947,27.77485l-2.98111,0.05824c0,0 -0.87225,-4.1588 -1.28111,-9.47979c-0.55343,-7.20242 -0.72051,-16.28347 -1.08996,-19.61687c-0.35019,-3.15974 -0.99088,-5.69884 -0.99088,-5.69884" fill="#5a5a07" stroke="none" stroke-width="0" stroke-linecap="round"/><path d="M288.60396,133.3838c0,0 -4.98994,-3.43451 -6.31263,-8.87123c-1.39172,-5.72047 -1.6229,-9.70714 0.31383,-9.99854c1.93673,-0.29142 2.74238,2.33162 3.87111,8.29243c1.12873,5.96082 2.1277,10.57733 2.1277,10.57733z" data-paper-data="{&quot;index&quot;:null}" fill="#5a5a07" stroke="none" stroke-width="0" stroke-linecap="butt"/><path d="M288.33571,129.44016c0,0 -3.61199,-2.86368 -4.45815,-8.3776c-0.47203,-3.07584 2.11852,-2.31573 2.11852,-2.31573" fill="#5a5a07" stroke="none" stroke-width="0" stroke-linecap="round"/><path d="M291.23798,122.73505c-0.01047,-4.89239 4.68901,-9.01534 10.06258,-9.02685c5.37358,-0.0115 9.09667,4.09763 9.10715,8.99002c0.01047,4.89239 -3.97664,8.86177 -9.35022,8.87329c-5.37358,0.0115 -9.80904,-3.94405 -9.81951,-8.83645z" fill="#5a5a07" stroke="none" stroke-width="0" stroke-linecap="butt"/><path d="M295.67697,122.77914c-0.00591,-2.75871 2.22567,-4.99985 4.98437,-5.00576c2.75871,-0.00591 4.99985,2.22567 5.00576,4.98437c0.00591,2.75871 -2.22566,4.99985 -4.98437,5.00576c-2.75871,0.00591 -4.99985,-2.22567 -5.00576,-4.98437z" fill="#5a5a07" stroke="none" stroke-width="0" stroke-linecap="butt"/><path d="M318.29051,122.28564c0.12218,-4.89088 4.30464,-8.93132 9.62175,-9.0198c5.3171,-0.08848 9.33923,3.81122 9.42063,8.70295c0.0814,4.89172 -3.7344,9.13443 -9.5462,9.30198c-5.52808,0.15938 -9.62376,-3.87734 -9.49617,-8.98513z" fill="#5a5a07" stroke="none" stroke-width="0" stroke-linecap="butt"/><path d="M322.89407,122.29461c-0.04689,-2.81806 2.19958,-5.14056 5.01764,-5.18744c2.81806,-0.04689 5.14056,2.19958 5.18744,5.01764c0.04689,2.81806 -2.19957,5.14056 -5.01764,5.18744c-2.81806,0.04689 -5.14056,-2.19958 -5.18744,-5.01764z" fill="#5a5a07" stroke="none" stroke-width="0" stroke-linecap="butt"/><path d="M291.16071,122.20408c0,0 -0.08643,-9.01493 10.45283,-9.00005c9.47246,0.00827 9.71073,9.24695 9.71073,9.24695z" fill="#5a5a07" stroke="none" stroke-width="0" stroke-linecap="butt"/><path d="M317.90624,121.88997c0,0 -0.40418,-9.45279 11.04514,-9.28824c9.71848,0.17181 9.70603,9.49213 9.70603,9.49213z" fill="#5a5a07" stroke="none" stroke-width="0" stroke-linecap="butt"/><path d="M294.52351,112.13508c0,0 3.3389,-1.87481 7.99336,-2.4151c5.15773,-0.59872 7.76605,-0.19551 7.76605,-0.19551l0.36388,4.13198c0,0 -3.84633,-0.61675 -8.02551,-0.38766c-5.58914,0.30636 -6.62012,1.54328 -10.86477,2.07224c-3.63704,0.45323 -6.73365,0.2709 -6.73365,0.2709l-0.04638,-1.23094c0,0 3.5959,0.01416 5.23185,-0.15542c1.35025,-0.13998 3.95954,-1.0041 3.95954,-1.0041z" fill="#5a5a07" stroke="none" stroke-width="0" stroke-linecap="butt"/><path d="M342.65309,121.87173c0.92979,-5.99506 1.64772,-8.64344 3.59309,-8.41663c1.94536,0.2268 1.84694,4.21894 0.6463,9.98256c-1.14108,5.47772 -6.014,9.07633 -6.014,9.07633c0,0 0.84483,-4.6472 1.77462,-10.64226z" data-paper-data="{&quot;index&quot;:null}" fill="#5a5a07" stroke="none" stroke-width="0" stroke-linecap="butt"/><path d="M342.99797,117.79837c0,0 2.56382,-0.84589 2.19439,2.24397c-0.66225,5.53902 -4.17697,8.52128 -4.17697,8.52128" data-paper-data="{&quot;index&quot;:null}" fill="#5a5a07" stroke="none" stroke-width="0" stroke-linecap="round"/><path d="M250.1571,145.87973c-0.55404,-33.29724 27.75275,-60.76846 63.22495,-61.35869c35.47221,-0.59023 64.67727,25.92406 65.2313,59.22129c0.55404,33.29724 -27.75275,60.76846 -63.22495,61.35869c-35.47221,0.59023 -64.67727,-25.92406 -65.2313,-59.22129z" fill="#ffffff" stroke="#000000" stroke-width="2" stroke-linecap="butt"/><path d="M250.87541,145.58822c-0.01211,-0.72789 6.13626,55.82503 64.29889,55.87229c55.57197,0.04516 62.54064,-59.00178 62.55758,-57.98307c0.54577,32.80025 -27.4096,59.86263 -62.44005,60.4455c-35.03044,0.58288 -63.87067,-25.53447 -64.41644,-58.33472z" fill="#dedeaf" stroke="#000000" stroke-width="0" stroke-linecap="butt"/><g stroke="#000000" stroke-width="2.5" stroke-linecap="butt"><path d="M392.26899,103.85865c-0.41064,10.17486 -34.53521,17.05946 -76.21936,15.37715c-41.68414,-1.68232 -75.14292,-11.29447 -74.73228,-21.46931c0.41064,-10.17486 34.53521,-17.05946 76.21936,-15.37715c41.68414,1.68232 75.14292,11.29447 74.73228,21.46931z" fill="#e2e2e2"/><path d="M269.85713,98.58385l1.90652,-47.23982c0,0 11.22894,-9.82248 48.69636,-9.01892c37.87136,0.81215 45.20264,12.80855 45.20264,12.80855l-1.90652,47.23982c0,0 -10.17739,4.93523 -46.12394,2.64487c-32.12425,-2.04682 -47.77505,-6.43449 -47.77505,-6.43449z" fill="#ffffff"/></g><path d="M287.50231,149.91748c-0.04594,-2.76104 2.15509,-5.03655 4.91613,-5.08249c2.76104,-0.04594 5.03655,2.15509 5.08249,4.91613c0.04594,2.76104 -2.15509,5.03655 -4.91613,5.08249c-2.76104,0.04594 -5.03655,-2.15509 -5.08249,-4.91613z" fill="#000000" stroke="none" stroke-width="0.5" stroke-linecap="butt"/><path d="M330.20404,149.20695c-0.04594,-2.76104 2.15509,-5.03655 4.91613,-5.08249c2.76104,-0.04594 5.03655,2.15509 5.08249,4.91613c0.04594,2.76104 -2.15509,5.03655 -4.91613,5.08249c-2.76104,0.04594 -5.03655,-2.15509 -5.08249,-4.91613z" fill="#000000" stroke="none" stroke-width="0.5" stroke-linecap="butt"/><path d="M350.50627,176.09133c0,0 -19.6462,12.54034 -34.60519,12.444c-14.95898,-0.09632 -35.03882,-12.89247 -35.03882,-12.89247" fill="none" stroke="#000000" stroke-width="4" stroke-linecap="round"/><g data-paper-data="{&quot;index&quot;:null}"><path d="M249.55501,177.96045l0.18308,-40.83827l10.08844,38.25037z" fill="#d9db56" stroke="#000000" stroke-width="0.5" stroke-linecap="butt"/><path d="M243.42256,175.70307l-1.22659,-9.25233l20.80719,-3.67973l1.22661,9.25233z" fill="#d9db56" stroke="#000000" stroke-width="1" stroke-linecap="butt"/><path d="M245.57556,232.51581l-7.69435,-57.33979l32.38447,-5.79446l7.69435,57.33979z" fill="#d9db56" stroke="#000000" stroke-width="1" stroke-linecap="butt"/><path d="M242.38539,210.52307l-1.31125,-13.39261c0,0 10.80533,1.5776 16.21736,0.53406c5.07358,-0.97826 15.30513,-6.61226 15.30513,-6.61226l1.31125,13.39261c0,0 -9.81813,7.08394 -14.84271,8.0528c-5.44855,1.0506 -16.67978,-1.97456 -16.67978,-1.97456z" fill="#000000" stroke="none" stroke-width="0" stroke-linecap="butt"/><path d="M248.38688,167.04492l1.04228,5.82474" fill="none" stroke="#000000" stroke-width="0.5" stroke-linecap="round"/><path d="M256.98727,170.80145l-1.41371,-5.89343" fill="none" stroke="#000000" stroke-width="0.5" stroke-linecap="round"/></g><path d="M281.6052,223.35656c-2.65833,12.46525 -14.4726,20.51039 -26.38791,17.96934c-11.91531,-2.54105 -19.41957,-14.70606 -16.76124,-27.1713c2.65833,-12.46525 14.4726,-20.51039 26.38791,-17.96934c11.91531,2.54105 19.41957,14.70606 16.76124,27.1713z" fill="#000000" stroke="#ffffff" stroke-width="2" stroke-linecap="butt"/></g></g></svg>