<svg version="1.1" xmlns="http://www.w3.org/2000/svg" xmlns:xlink="http://www.w3.org/1999/xlink" width="34.17311" height="34.17311" viewBox="0,0,34.17311,34.17311"><g transform="translate(-302.91344,-162.91344)"><g data-paper-data="{&quot;isPaintingLayer&quot;:true}" stroke-miterlimit="10" stroke-dasharray="" stroke-dashoffset="0" style="mix-blend-mode: normal"><path d="M309.9831,162.91345h20.03379c3.9166,0 7.06966,3.15307 7.06966,7.06966v20.03379c0,3.91659 -3.15306,7.06966 -7.06966,7.06966h-20.03379c-3.91659,0 -7.06966,-3.15307 -7.06966,-7.06966v-20.03379c0,-3.91659 3.15307,-7.06966 7.06966,-7.06966z" fill-opacity="0.61176" fill="#a3a3a3" fill-rule="evenodd" stroke="none" stroke-width="4.43922" stroke-linecap="round" stroke-linejoin="round"/><g stroke="#000000" stroke-width="0.5"><path d="M317.93407,192.081v-9.52947h4.13186v9.52947z" fill="#a3a3a3" fill-rule="nonzero" stroke-linecap="butt" stroke-linejoin="miter"/><path d="M309.10294,194.56885l1.72914,-3.31713h17.82806l1.66952,3.31713z" fill="#a3a3a3" fill-rule="nonzero" stroke-linecap="butt" stroke-linejoin="miter"/><path d="M332.45748,170.11898v13.28423c0,2.59705 -2.09077,4.68783 -4.68783,4.68783h-15.5393c-2.59706,0 -4.68783,-2.09077 -4.68783,-4.68783v-13.28423c0,-2.59705 2.09077,-4.68783 4.68783,-4.68783h15.5393c2.59705,0 4.68783,2.09077 4.68783,4.68783z" fill="#a3a3a3" fill-rule="evenodd" stroke-linecap="round" stroke-linejoin="round"/><path d="M330.12966,171.36013v10.80193c0,2.11177 -1.70009,3.81186 -3.81186,3.81186h-12.63562c-2.11177,0 -3.81186,-1.70009 -3.81186,-3.81186v-10.80193c0,-2.11177 1.70008,-3.81186 3.81186,-3.81186h12.63562c2.11177,0 3.81186,1.70009 3.81186,3.81186z" fill="#000000" fill-rule="evenodd" stroke-linecap="round" stroke-linejoin="round"/></g></g></g></svg>