<svg version="1.1" xmlns="http://www.w3.org/2000/svg" xmlns:xlink="http://www.w3.org/1999/xlink" width="300.33205" height="408.99852" viewBox="0,0,300.33205,408.99852"><g transform="translate(-158.44453,93.45666)"><g data-paper-data="{&quot;isPaintingLayer&quot;:true}" fill-rule="nonzero" stroke-linejoin="miter" stroke-miterlimit="10" stroke-dasharray="" stroke-dashoffset="0" style="mix-blend-mode: normal"><g data-paper-data="{&quot;index&quot;:null}"><path d="M197.04498,110.95657l-14.02883,28.52943l5.01288,-30.72403z" fill="#d9db56" stroke="#000000" stroke-width="0.5" stroke-linecap="butt"/><path d="M201.1351,114.92984l-2.17393,6.95833l-17.73253,-5.54002l2.1739,-6.95833z" fill="#d9db56" stroke="#000000" stroke-width="1" stroke-linecap="butt"/><path d="M218.74435,74.30145l-13.39909,43.15925l-27.62192,-8.57541l13.39909,-43.15925z" fill="#d9db56" stroke="#000000" stroke-width="1" stroke-linecap="butt"/><path d="M213.79442,90.94847l-3.51444,9.89097c0,0 -8.02265,-5.32014 -12.66433,-6.70059c-4.3514,-1.29414 -14.37129,-1.33984 -14.37129,-1.33984l3.51444,-9.89097c0,0 10.18533,-1.13104 14.49473,0.15056c4.673,1.38975 12.54088,7.88983 12.54088,7.88983z" fill="#000000" stroke="none" stroke-width="0" stroke-linecap="butt"/><path d="M194.25932,119.05689l1.15465,-4.48592" fill="none" stroke="#000000" stroke-width="0.5" stroke-linecap="round"/><path d="M188.72399,113.07093l-0.88378,4.67893" fill="none" stroke="#000000" stroke-width="0.5" stroke-linecap="round"/></g><g><path d="M442.56052,86.87904l15.19313,27.92679l-22.19071,-21.83272z" fill="#d9db56" stroke="#000000" stroke-width="0.5" stroke-linecap="butt"/><path d="M448.16616,85.83375l4.42602,5.79264l-14.76191,11.27921l-4.42603,-5.79263z" fill="#d9db56" stroke="#000000" stroke-width="1" stroke-linecap="butt"/><path d="M425.16198,47.99779l27.50147,35.85981l-22.95026,17.60094l-27.50147,-35.8598z" fill="#d9db56" stroke="#000000" stroke-width="1" stroke-linecap="butt"/><path d="M435.89562,61.65114l6.04641,8.58041c0,0 -8.97594,3.47839 -12.78312,6.47109c-3.56909,2.80554 -9.39183,10.96005 -9.39183,10.96005l-6.04641,-8.58041c0,0 4.95752,-8.96902 8.49212,-11.74751c3.83285,-3.01291 13.68281,-5.68366 13.68281,-5.68366z" fill="#000000" stroke="none" stroke-width="0" stroke-linecap="butt"/><path d="M447.56571,93.83053l-2.99592,-3.53288" fill="none" stroke="#000000" stroke-width="0.5" stroke-linecap="round"/><path d="M439.48231,94.89366l3.30989,3.42317" fill="none" stroke="#000000" stroke-width="0.5" stroke-linecap="round"/></g><path d="M197.08373,39.65888c-1.79683,-64.4024 49.10887,-118.07177 113.70105,-119.87389c64.59217,-1.80212 118.4111,48.94543 120.20793,113.34783c1.79683,64.4024 -49.10888,118.07178 -113.70105,119.87389c-64.59217,1.80212 -118.4111,-48.94543 -120.20793,-113.34783z" fill="#7f7f38" stroke="#000000" stroke-width="2" stroke-linecap="butt"/><path d="M293.54611,46.44467c-1.08007,-38.71244 33.40654,-71.08167 77.02801,-72.29871c43.62146,-1.21704 79.85923,29.17899 80.9393,67.89143c1.08007,38.71245 -33.40654,71.08168 -77.028,72.29872c-43.62146,1.21704 -79.85923,-29.17899 -80.93931,-67.89143z" fill="#00800b" stroke="#000000" stroke-width="2" stroke-linecap="butt"/><path d="M293.54611,46.44467c-1.08007,-38.71244 33.40654,-71.08167 77.02801,-72.29871c43.62146,-1.21704 79.85923,29.17899 80.9393,67.89143c1.08007,38.71245 -33.40654,71.08168 -77.028,72.29872c-43.62146,1.21704 -79.85923,-29.17899 -80.93931,-67.89143z" fill="#9d9d45" stroke="#000000" stroke-width="2" stroke-linecap="butt"/><path d="M181.13289,51.12453c-1.08007,-38.71244 33.40654,-71.08168 77.02801,-72.29872c43.62146,-1.21704 79.85924,29.17899 80.93932,67.89143c1.08007,38.71245 -33.40654,71.08168 -77.02801,72.29873c-43.62146,1.21704 -79.85924,-29.17899 -80.93931,-67.89143z" fill="#9d9d45" stroke="#000000" stroke-width="2" stroke-linecap="butt"/><path d="M260.03821,314.51004c0,0 7.36061,-63.36353 10.68722,-109.55025c3.37636,-46.87741 -2.80382,-170.33213 -2.80382,-170.33213l90.49606,-1.85816c0,0 1.04025,117.8278 6.97283,168.17229c4.70154,39.89783 17.08204,110.15234 17.08204,110.15234z" fill="#4f4f23" stroke="#000000" stroke-width="2" stroke-linecap="butt"/><path d="M272.82292,144.09309c-0.70531,-47.03464 -3.3595,-98.83764 -3.3595,-98.83764l88.02232,-1.84001c0,0 0.40711,52.07648 2.54514,99.57389c0,0 -16.31518,13.60514 -43.62689,14.24374c-26.0655,0.60946 -43.58106,-13.13998 -43.58106,-13.13998z" fill="#363618" stroke="#000000" stroke-width="0" stroke-linecap="butt"/><path d="M318.38766,190.30652c-6.44487,0.17981 -12.77664,-18.96671 -12.77664,-18.96671l25.09981,-0.70029c0,0 -5.8783,19.48719 -12.32318,19.667z" fill="#000000" stroke="#000000" stroke-width="2" stroke-linecap="round"/><path d="M287.52717,152.18026c-0.2019,-7.23673 5.50095,-13.26694 12.73768,-13.46884c7.23673,-0.2019 13.26694,5.50095 13.46884,12.73768c0.2019,7.23673 -5.50095,13.26694 -12.73769,13.46884c-7.23673,0.2019 -13.26693,-5.50095 -13.46883,-12.73768z" fill="#000000" stroke="none" stroke-width="0" stroke-linecap="butt"/><path d="M335.83669,163.94589c-7.23672,0.2019 -13.26694,-5.50096 -13.46885,-12.73768c-0.2019,-7.23673 5.50096,-13.26694 12.73769,-13.46884c7.23673,-0.2019 13.26693,5.50096 13.46883,12.73769c0.2019,7.23673 -5.50095,13.26693 -12.73767,13.46884z" data-paper-data="{&quot;index&quot;:null}" fill="#000000" stroke="none" stroke-width="0" stroke-linecap="butt"/><path d="M179.29044,12.2258c-1.55434,-55.71126 57.16564,-102.54762 131.15476,-104.61191c73.98911,-2.0643 135.2292,41.42517 136.78354,97.13644c1.55434,55.71127 -57.16565,102.54762 -131.15476,104.61192c-73.98911,2.0643 -135.22918,-41.42518 -136.78352,-97.13645z" fill="#c5c556" stroke="#000000" stroke-width="2" stroke-linecap="butt"/><g><path d="M424.15095,0.58694l31.68724,-2.5798l-28.94968,11.446z" fill="#d9db56" stroke="#000000" stroke-width="0.5" stroke-linecap="butt"/><path d="M425.46571,-4.96169l7.0889,-1.70051l4.33354,18.0653l-7.0889,1.70052z" fill="#d9db56" stroke="#000000" stroke-width="1" stroke-linecap="butt"/><path d="M381.55476,0.74623l43.92571,-10.6202l6.79695,28.11245l-43.92571,10.6202z" fill="#d9db56" stroke="#000000" stroke-width="1" stroke-linecap="butt"/><path d="M398.38553,-3.53749l10.29408,-2.05289c0,0 -0.45526,9.61558 0.73894,14.30864c1.11951,4.39958 6.21678,13.02615 6.21678,13.02615l-10.29408,2.0529c0,0 -6.19243,-8.16543 -7.30118,-12.5225c-1.20228,-4.72472 0.34543,-14.81228 0.34543,-14.81228z" fill="#000000" stroke="none" stroke-width="0" stroke-linecap="butt"/><path d="M432.53399,-1.17373l-4.44356,1.30824" fill="none" stroke="#000000" stroke-width="0.5" stroke-linecap="round"/><path d="M430.23195,6.64754l4.47044,-1.63975" fill="none" stroke="#000000" stroke-width="0.5" stroke-linecap="round"/></g><g data-paper-data="{&quot;index&quot;:null}"><path d="M187.98736,31.19815l-28.16928,14.73863l22.18941,-21.83404z" fill="#d9db56" stroke="#000000" stroke-width="0.5" stroke-linecap="butt"/><path d="M188.94169,36.82l-5.86358,4.33158l-11.03856,-14.94271l5.86358,-4.3316z" fill="#d9db56" stroke="#000000" stroke-width="1" stroke-linecap="butt"/><path d="M227.14541,14.43189l-36.3007,26.91682l-17.22678,-23.23244l36.3007,-26.91683z" fill="#d9db56" stroke="#000000" stroke-width="1" stroke-linecap="butt"/><path d="M213.31994,24.9429l-8.67725,5.90658c0,0 -3.33249,-9.03112 -6.26312,-12.88629c-2.74734,-3.61408 -10.80642,-9.56818 -10.80642,-9.56818l8.67726,-5.90659c0,0 8.88753,5.10218 11.60838,8.68134c2.95041,3.88118 5.46121,13.7731 5.46121,13.7731z" fill="#000000" stroke="none" stroke-width="0" stroke-linecap="butt"/><path d="M184.53665,33.15179l-3.58095,2.93828" fill="none" stroke="#000000" stroke-width="0.5" stroke-linecap="round"/><path d="M176.54732,31.24449l3.47635,-3.254" fill="none" stroke="#000000" stroke-width="0.5" stroke-linecap="round"/></g><g><path d="M275.06118,-56.67759l6.22787,-31.17611l3.04927,30.98059z" fill="#d9db56" stroke="#000000" stroke-width="0.5" stroke-linecap="butt"/><path d="M270.08752,-59.46663l0.31315,-7.28328l18.56066,0.79806l-0.31314,7.28328z" fill="#d9db56" stroke="#000000" stroke-width="1" stroke-linecap="butt"/><path d="M263.50798,-15.6778l1.86047,-45.15302l28.89794,1.19068l-1.86046,45.15301z" fill="#d9db56" stroke="#000000" stroke-width="1" stroke-linecap="butt"/><path d="M264.01465,-33.03775l0.85519,-10.46189c0,0 9.12023,3.0803 13.96077,3.22182c4.53783,0.13269 14.23309,-2.39753 14.23309,-2.39753l-0.85519,10.46189c0,0 -9.55283,3.70997 -14.04684,3.57859c-4.8732,-0.14248 -14.147,-4.40287 -14.147,-4.40287z" fill="#000000" stroke="none" stroke-width="0" stroke-linecap="butt"/><path d="M275.70881,-60.58973l-0.03668,-4.632" fill="none" stroke="#000000" stroke-width="0.5" stroke-linecap="round"/><path d="M282.21156,-65.60781l0.34804,4.74894" fill="none" stroke="#000000" stroke-width="0.5" stroke-linecap="round"/></g><g><path d="M341.98018,47.2754l7.43192,30.91122l-15.77037,-26.84011z" fill="#d9db56" stroke="#000000" stroke-width="0.5" stroke-linecap="butt"/><path d="M347.66514,47.71943l2.77257,6.74219l-17.18173,7.06559l-2.77259,-6.74218z" fill="#d9db56" stroke="#000000" stroke-width="1" stroke-linecap="butt"/><path d="M335.25882,5.21255l17.2622,41.76449l-26.72927,11.04783l-17.2622,-41.76449z" fill="#d9db56" stroke="#000000" stroke-width="1" stroke-linecap="butt"/><path d="M342.08496,21.18217l3.61467,9.85478c0,0 -9.57089,1.03192 -14.02386,2.93505c-4.1745,1.7841 -11.91257,8.14982 -11.91257,8.14982l-3.61467,-9.85478c0,0 7.11364,-7.37676 11.24782,-9.14366c4.48302,-1.91598 14.6886,-1.94124 14.6886,-1.94124z" fill="#000000" stroke="none" stroke-width="0" stroke-linecap="butt"/><path d="M343.03428,51.0981l1.97735,4.18889" fill="none" stroke="#000000" stroke-width="0.5" stroke-linecap="round"/><path d="M336.92904,54.2177l2.30904,4.16435" fill="none" stroke="#000000" stroke-width="0.5" stroke-linecap="round"/></g></g></g></svg>