<svg version="1.1" xmlns="http://www.w3.org/2000/svg" xmlns:xlink="http://www.w3.org/1999/xlink" width="152.97662" height="287.32879" viewBox="0,0,152.97662,287.32879"><g transform="translate(-233.34557,-21.17121)"><g data-paper-data="{&quot;isPaintingLayer&quot;:true}" fill-rule="nonzero" stroke-linejoin="miter" stroke-miterlimit="10" stroke-dasharray="" stroke-dashoffset="0" style="mix-blend-mode: normal"><path d="M285.90286,307.49998l11.23626,-90.17721l43.64314,-3.40793l11.62059,93.58516z" fill="#9b9d30" stroke="#000000" stroke-width="2" stroke-linecap="butt"/><path d="M289.57668,250.088l10.15486,-49.81105l40.04359,3.03032l10.10835,47.33816l-30.23979,-11.89646z" fill="#747524" stroke="#000000" stroke-width="2" stroke-linecap="butt"/><path d="M385.32219,133.98418c-1.21527,44.58044 -35.99038,79.7989 -77.67239,78.66264c-41.68201,-1.13625 -74.4868,-38.19695 -73.27153,-82.77738c1.21527,-44.58043 35.99038,-79.7989 77.67239,-78.66265c41.68201,1.13625 74.4868,38.19695 73.27153,82.77738z" fill="#747524" stroke="#000000" stroke-width="2" stroke-linecap="butt"/><path d="M376.85804,138.89947c-1.03718,38.04748 -32.32031,68.06122 -69.87284,67.03753c-37.55252,-1.02369 -67.15407,-32.69712 -66.1169,-70.74462c1.03718,-38.04748 32.32032,-68.06122 69.87285,-67.03754c37.55252,1.02369 67.15407,32.69713 66.11689,70.74462z" fill="#000000" stroke="none" stroke-width="0" stroke-linecap="butt"/><path d="M244.6812,136.97644c0.90747,-33.28948 30.39234,-59.49223 65.85629,-58.52548c35.46395,0.96675 63.47751,28.73692 62.57004,62.02639c-0.90747,33.28948 -30.39234,59.49223 -65.85629,58.52548c-35.46395,-0.96675 -63.47751,-28.73692 -62.57004,-62.02639z" fill="#ffff70" stroke="#000000" stroke-width="2" stroke-linecap="butt"/><path d="M245.40252,137.04996c0.01984,-0.72772 3.68093,56.04051 61.78547,58.63972c55.51646,2.48344 65.06921,-56.20088 65.04145,-55.18241c-0.89393,32.79261 -30.00979,58.60233 -65.03206,57.64762c-35.02228,-0.95471 -62.68878,-28.31232 -61.79486,-61.10493z" fill="#6c6d22" stroke="#000000" stroke-width="0" stroke-linecap="butt"/><path d="M244.03129,151.90919c0,0 -6.52915,-81.19227 68.89159,-77.65155c77.45935,3.63642 58.73604,83.8817 58.73604,83.8817c0,0 -24.97104,12.01475 -63.36058,11.30614c-34.39029,-0.6348 -64.26704,-17.53629 -64.26704,-17.53629z" fill-opacity="0.20144" fill="#000000" stroke="none" stroke-width="0" stroke-linecap="butt"/><path d="M258.21467,137.77499c0.35338,-12.96318 11.14859,-23.18546 24.11178,-22.83209c12.96318,0.35338 23.18546,11.14859 22.83209,24.11178c-0.35338,12.96318 -11.14859,23.18546 -24.11178,22.83208c-12.96318,-0.35338 -23.18546,-11.14859 -22.83209,-24.11177z" fill="#ffffff" stroke="#000000" stroke-width="2" stroke-linecap="butt"/><path d="M261.37836,143.55189c0.24874,-9.12469 7.8474,-16.32006 16.97208,-16.07132c9.12469,0.24874 16.32006,7.84741 16.07132,16.97209c-0.24874,9.12469 -7.84741,16.32006 -16.97209,16.07132c-9.12469,-0.24874 -16.32005,-7.8474 -16.07131,-16.97208z" fill="#000000" stroke="none" stroke-width="0" stroke-linecap="butt"/><path d="M304.91398,177.11279l8.04645,11.90822c0,0 -7.88269,0.28329 -12.16,0.16669c-4.08013,-0.11123 -12.94027,-0.85092 -12.94027,-0.85092z" data-paper-data="{&quot;index&quot;:null}" fill="#000000" stroke="#000000" stroke-width="2" stroke-linecap="round"/><path d="M335.28504,163.3653c-12.96318,-0.35338 -23.18546,-11.14859 -22.83209,-24.11178c0.35338,-12.96318 11.14859,-23.18546 24.11178,-22.83209c12.96318,0.35338 23.18546,11.14859 22.83209,24.11178c-0.35338,12.96318 -11.14859,23.18546 -24.11178,22.83209z" data-paper-data="{&quot;index&quot;:null}" fill="#ffffff" stroke="#000000" stroke-width="2" stroke-linecap="butt"/><path d="M332.11399,160.69417c-9.12468,-0.24874 -16.32005,-7.8474 -16.07131,-16.97208c0.24874,-9.12469 7.8474,-16.32006 16.97207,-16.07132c9.12468,0.24874 16.32005,7.8474 16.07131,16.97208c-0.24874,9.12469 -7.84741,16.32006 -16.97208,16.07132z" data-paper-data="{&quot;index&quot;:null}" fill="#000000" stroke="none" stroke-width="0" stroke-linecap="butt"/><path d="M271.26973,106.8592c0,0 7.69747,-3.53269 12.92396,-3.55529c5.22651,-0.02259 11.86298,3.4481 11.86298,3.4481c0,0 -7.81979,-1.86169 -11.85604,-1.84423c-4.21804,0.01825 -12.93091,1.95143 -12.93091,1.95143z" fill="#000000" stroke="none" stroke-width="0" stroke-linecap="butt"/><path d="M335.33451,106.31923c-4.0358,-0.06356 -11.87634,1.70868 -11.87634,1.70868c0,0 6.6757,-3.39467 11.9016,-3.31238c5.2259,0.08229 12.88251,3.70269 12.88251,3.70269c0,0 -8.69021,-2.03258 -12.90777,-2.099z" data-paper-data="{&quot;index&quot;:null}" fill="#000000" stroke="none" stroke-width="0" stroke-linecap="butt"/><g stroke="#000000" stroke-width="2" stroke-linecap="butt"><path d="M247.10145,78.23755l9.76427,-47.30833c0,0 26.32897,-7.37697 38.79034,-8.4626c13.66997,-1.19093 39.93984,1.60367 39.93984,1.60367l17.99051,44.0472c0,0 -33.82897,7.70455 -51.75511,9.4082c-17.56135,1.66897 -54.72987,0.71186 -54.72987,0.71186z" fill="#ffffff"/><path d="M247.46764,78.14367l1.41846,-6.88541c0,0 34.419,0.98441 51.70348,-0.51869c16.82526,-1.46317 50.66288,-8.38339 50.66288,-8.38339l2.46949,5.76623c0,0 -35.48864,9.31766 -53.24396,10.79267c-17.42588,1.44765 -53.01036,-0.77139 -53.01036,-0.77139z" fill="#9b9d30"/><path d="M296.61261,46.6209c0,0 10.46304,-5.88413 16.81345,-8.47703c7.0565,-2.88119 23.63096,-8.03649 23.63096,-8.03649l2.49215,6.52055c0,0 -18.80006,5.79892 -25.47837,8.68603c-5.01021,2.16597 -11.04525,7.10364 -11.04525,7.10364z" fill="#9b9d30"/><path d="M307.99394,68.75542c0,0 -0.24202,-8.0877 -12.59515,-14.67387c-16.72929,-8.91934 -40.0481,-10.43061 -40.0481,-10.43061l1.81382,-6.91825c0,0 22.04779,-0.08792 41.35185,10.55951c14.58458,8.04432 17.38486,20.80634 17.38486,20.80634z" fill="#9b9d30"/></g></g></g></svg>