<svg version="1.1" xmlns="http://www.w3.org/2000/svg" xmlns:xlink="http://www.w3.org/1999/xlink" width="197.55267" height="288.56828" viewBox="0,0,197.55267,288.56828"><g transform="translate(-239.02886,-34.06025)"><g data-paper-data="{&quot;isPaintingLayer&quot;:true}" fill-rule="nonzero" stroke-linejoin="miter" stroke-miterlimit="10" stroke-dasharray="" stroke-dashoffset="0" style="mix-blend-mode: normal"><path d="M273.53395,144.3379l-18.98269,-107.94077l66.07271,50.11294" fill="#d9d97d" stroke="#000000" stroke-width="2" stroke-linecap="round"/><path d="M358.19029,89.37642l76.43032,-32.1763l-45.13947,99.86982" data-paper-data="{&quot;index&quot;:null}" fill="#d9d97d" stroke="#000000" stroke-width="2" stroke-linecap="round"/><path d="M288.48348,184.0031l-33.35158,-6.90451l18.77693,-17.80089l-31.68606,-11.37709l27.13435,-8.15506" fill="#d9d97d" stroke="#000000" stroke-width="2" stroke-linecap="round"/><path d="M287.94454,183.08198l-30.77563,-6.37124l18.42785,-17.90711l-29.74453,-10.78296l4.81255,-1.68541l24.89654,12.49036l-14.71768,14.32603z" fill="#b6b14b" stroke="none" stroke-width="0" stroke-linecap="round"/><path d="M394.51355,158.93781l20.79599,19.24331l-33.46332,-3.69465l9.05142,24.23872l-32.99537,-8.44427" data-paper-data="{&quot;index&quot;:null}" fill="#d9d97d" stroke="#000000" stroke-width="2" stroke-linecap="round"/><path d="M388.75221,193.13506l-6.59339,-19.45179l27.85332,0.19711l3.51976,3.68952l-31.39467,-3.92231l8.26931,24.32835l-30.30683,-8.32042z" data-paper-data="{&quot;index&quot;:null}" fill="#b6b14b" stroke="none" stroke-width="0" stroke-linecap="round"/><path d="M286.35186,321.62853l24.46842,-131.8421l32.53762,3.92204l9.49395,127.92007z" fill="#d9d97d" stroke="#000000" stroke-width="2" stroke-linecap="butt"/><path d="M306.6553,218.10879l4.76494,-25.96323l31.70808,2.92955l0.46137,26.24702c0,0 -6.96777,3.53644 -19.41516,2.64522c-11.06556,-0.79229 -17.51925,-5.85857 -17.51925,-5.85857z" fill="#b6b14b" stroke="#000000" stroke-width="0" stroke-linecap="butt"/><path d="M268.7253,137.50291c1.56694,-33.26496 31.56525,-58.87831 67.00307,-57.20902c35.43784,1.66929 62.89562,29.98909 61.32868,63.25407c-1.56694,33.26496 -31.56523,58.87832 -67.00306,57.20903c-35.43783,-1.66929 -62.89561,-29.9891 -61.32868,-63.25408z" fill="#d9d97d" stroke="#000000" stroke-width="2" stroke-linecap="butt"/><path d="M324.98846,196.86059c22.43226,3.85739 40.41937,-4.14132 39.35161,-3.60691c-11.66185,5.83683 -25.44546,8.24215 -39.65108,6.05388c-14.06855,-2.16716 -26.38651,-8.50627 -35.71909,-17.44402c-0.35413,-0.33915 13.58631,11.13966 36.01857,14.99704z" fill="#b6b14b" stroke="#000000" stroke-width="0" stroke-linecap="butt"/><path d="M282.32438,138.41942c0.61018,-12.95364 11.60583,-22.95999 24.55947,-22.34981c12.95364,0.61018 22.95999,11.60582 22.34981,24.55946c-0.61018,12.95364 -11.60583,22.96 -24.55947,22.34982c-12.95364,-0.61018 -22.96,-11.60584 -22.34983,-24.55948z" fill="#ffffff" stroke="#000000" stroke-width="2" stroke-linecap="butt"/><path d="M290.89326,138.54712c0.39052,-8.29045 7.42783,-14.69461 15.71829,-14.30409c8.29045,0.39052 14.69461,7.42784 14.3041,15.71831c-0.39052,8.29045 -7.42784,14.69462 -15.7183,14.3041c-8.29045,-0.39052 -14.6946,-7.42784 -14.30408,-15.7183z" fill="none" stroke="#000000" stroke-width="5" stroke-linecap="butt"/><path d="M353.44439,175.26355c0,0 -14.60141,10.55049 -23.98895,10.12117c-9.38754,-0.4293 -24.07107,-12.31903 -24.07107,-12.31903z" fill="#000000" stroke="#000000" stroke-width="2" stroke-linecap="round"/><path d="M282.34007,138.08645c0.61018,-12.95364 11.60583,-22.95999 24.55947,-22.34981c12.95364,0.61018 22.95999,11.60582 22.34981,24.55946c0,0 -6.8531,-18.23274 -23.06008,-18.88547c-15.91211,-0.64087 -23.87782,17.2832 -23.84922,16.67582z" fill="#c5c556" stroke="#000000" stroke-width="2" stroke-linecap="butt"/><path d="M358.87255,165.5319c-12.95364,-0.61018 -22.95999,-11.60583 -22.34981,-24.55947c0.61018,-12.95364 11.60582,-22.95999 24.55946,-22.34981c12.95364,0.61018 22.96,11.60583 22.34982,24.55947c-0.61018,12.95364 -11.60584,22.96 -24.55948,22.34983z" data-paper-data="{&quot;index&quot;:null}" fill="#ffffff" stroke="#000000" stroke-width="2" stroke-linecap="butt"/><path d="M374.8891,142.50372c-0.39052,8.29047 -7.42783,14.69462 -15.71829,14.3041c-8.29045,-0.39052 -14.69461,-7.42786 -14.3041,-15.71831c0.39052,-8.29047 7.42785,-14.69462 15.7183,-14.3041c8.29045,0.39052 14.6946,7.42785 14.30408,15.71829z" data-paper-data="{&quot;index&quot;:null}" fill="none" stroke="#000000" stroke-width="5" stroke-linecap="butt"/><path d="M360.70119,123.72861c-16.19658,-0.87362 -24.17845,17.24382 -24.17845,17.24382c0.61018,-12.95364 11.60582,-22.95999 24.55946,-22.34981c12.95364,0.61018 22.96,11.60583 22.34982,24.55947c-0.02861,0.60737 -6.82896,-18.59575 -22.73085,-19.45347z" data-paper-data="{&quot;index&quot;:null}" fill="#c5c556" stroke="#000000" stroke-width="2" stroke-linecap="butt"/><path d="M278.81365,135.35089l3.47367,2.76651" fill="none" stroke="#000000" stroke-width="2" stroke-linecap="round"/><path d="M387.34041,139.46191l-4.35533,3.19861" fill="none" stroke="#000000" stroke-width="2" stroke-linecap="round"/><path d="M296.30358,110.23749c0,0 6.94474,-4.84781 12.08357,-5.80141c5.13884,-0.95359 12.28756,1.27895 12.28756,1.27895c0,0 -8.02638,-0.43843 -11.99493,0.298c-4.14729,0.7696 -12.3762,4.22445 -12.3762,4.22445z" fill="#000000" stroke="none" stroke-width="0" stroke-linecap="butt"/><path d="M360.39326,108.44901c-3.88175,-1.10622 -11.91379,-1.42423 -11.91379,-1.42423c0,0 7.32694,-1.55066 12.35337,-0.11824c5.02643,1.43242 11.48472,6.91159 11.48472,6.91159c0,0 -7.86772,-4.21309 -11.92429,-5.36912z" data-paper-data="{&quot;index&quot;:null}" fill="#000000" stroke="none" stroke-width="0" stroke-linecap="butt"/></g></g></svg>