<svg version="1.1" xmlns="http://www.w3.org/2000/svg" xmlns:xlink="http://www.w3.org/1999/xlink" width="247.2038" height="277.85534" viewBox="0,0,247.2038,277.85534"><g transform="translate(-157.27622,-20.88714)"><g data-paper-data="{&quot;isPaintingLayer&quot;:true}" fill-rule="nonzero" stroke-linejoin="miter" stroke-miterlimit="10" stroke-dasharray="" stroke-dashoffset="0" style="mix-blend-mode: normal"><path d="M403.29762,178.82476l-66.0152,30.7562l-9.75136,-26.66385l54.98582,-17.63583l-27.621,-69.38397l23.58382,-10.06549z" data-paper-data="{&quot;index&quot;:null}" fill="#000000" stroke="#ffffff" stroke-width="2" stroke-linecap="butt"/><path d="M354.75482,60.48041c11.67228,-5.33562 25.81062,0.56848 31.57886,13.18716c5.76824,12.61869 0.98206,27.17353 -10.69023,32.50915c-11.67228,5.33562 -25.81062,-0.56848 -31.57885,-13.18717c-5.76824,-12.61869 -0.98206,-27.17353 10.69022,-32.50914z" data-paper-data="{&quot;index&quot;:null}" fill="#000000" stroke="#ffffff" stroke-width="2" stroke-linecap="butt"/><path d="M191.19633,214.31743l-0.65038,-25.63372c0,0 41.62555,0.50459 61.85711,-1.35884c19.10439,-1.75962 55.71663,-5.1318 55.71663,-5.1318l2.53454,27.51788c0,0 -36.45214,3.35743 -55.51997,5.11368c-20.26038,1.86609 -63.93793,-0.50721 -63.93793,-0.50721z" fill="#000000" stroke="#ffffff" stroke-width="2" stroke-linecap="butt"/><path d="M291.9965,297.64576l3.23621,-132.66941l37.61626,-3.5519l25.37858,130.24661z" fill="#000000" stroke="#ffffff" stroke-width="2" stroke-linecap="butt"/><path d="M335.42208,177.21135l-9.1198,31.72229l-1.4264,89.04381l-16.1444,-88.08935l-15.16237,-28.27059z" fill="#ffffff" stroke="#ffffff" stroke-width="1.5" stroke-linecap="round"/><path d="M324.26697,226.60355l-4.52646,10.39142l-7.93463,-12.81274l2.85181,-31.67575l-3.05663,-8.49788l9.0879,-1.14784l-2.14134,9.94629z" fill="#000000" stroke="none" stroke-width="0" stroke-linecap="butt"/><path d="M280.73468,105.58256c-1.23002,-7.21189 -1.20761,-17.1152 -1.20761,-17.1152c0,0 3.39309,-0.3475 13.57552,-4.38166c7.82278,-3.09931 19.61183,-11.29493 19.61183,-11.29493c0,0 -1.88133,3.18695 -2.9933,4.74829c-1.18216,1.65988 -3.56681,4.90326 -3.56681,4.90326c0,0 7.65647,-2.36507 14.1905,-6.02864c8.21605,-4.29128 10.00584,-6.9803 12.48541,-5.73766c2.9265,1.46662 3.10875,22.9964 3.29777,28.55983c0.08943,5.68417 -1.66952,9.68887 -2.01266,12.75293c-0.34314,3.06406 0.1434,6.1486 -0.75621,16.17305c-0.56141,6.25595 -3.34316,9.26249 -8.66169,15.50172c-5.31853,6.23924 -8.18585,10.02877 -12.12345,10.45324c-3.78939,0.4085 -9.35774,-4.27675 -14.81188,-9.08842c-5.80776,-5.12366 -9.60063,-7.64548 -11.03645,-14.20563c-1.29312,-5.9081 -1.66362,-9.79869 -2.48811,-15.08582c-0.6026,-3.86422 -2.8311,-6.21582 -3.50285,-10.15436z" fill="#5a5a07" stroke="none" stroke-width="0" stroke-linecap="butt"/><path d="M327.25179,86.20448c0,0 1.5467,0.17983 4.33834,0.72344c2.54984,0.49653 4.58805,1.33722 4.58805,1.33722l0.29946,1.14809c0,0 -7.50152,-2.46597 -15.27664,-1.10252c-6.21679,1.0902 -9.67022,3.69617 -9.67022,3.69617l-0.3297,-4.16405c0,0 2.96172,-1.97831 7.66514,-2.55458c4.87037,-0.59671 8.11124,-0.13807 8.11124,-0.13807z" data-paper-data="{&quot;index&quot;:null}" fill="#5a5a07" stroke="none" stroke-width="0" stroke-linecap="butt"/><path d="M318.4015,130.16498c0.58713,0.15976 3.19683,1.11672 6.23271,2.04415c3.06006,0.93482 7.39046,1.63556 7.38609,1.80419c-0.00555,0.21401 -10.37218,1.16354 -13.56724,1.85871c-2.67751,0.58256 -6.59822,1.30373 -6.59822,1.30373c0,0 -7.17965,-0.51873 -13.43836,-1.24286c-5.01614,-0.58036 -10.50647,-0.72003 -10.52549,-0.81223c-0.02566,-0.12433 3.78885,-1.05539 6.67127,-2.00215c1.0966,-0.59755 5.28428,-1.96786 5.28428,-1.96786c0,0 4.91086,-0.7218 7.62951,-0.10691c2.91301,0.65885 3.04371,2.18092 3.29246,2.18207c0,0 1.0224,-1.84865 2.17019,-2.30893c1.1478,-0.46027 5.02423,-0.87126 5.46282,-0.75193z" fill="#5a5a07" stroke="none" stroke-width="0" stroke-linecap="butt"/><path d="M300.23804,136.37558c5.1628,0.56517 12.12159,1.72527 12.12159,1.72527c0,0 5.62656,-2.06974 8.24781,-2.58589c2.03219,-0.40016 11.10716,-1.71139 11.18473,-1.3441c0.07585,0.35911 -7.83563,13.65957 -19.94423,14.29686c-13.75301,0.80311 -24.13198,-13.0201 -24.10949,-13.19195c0.02249,-0.17185 7.33681,0.53463 12.49961,1.09982z" fill="#5a5a07" stroke="none" stroke-width="0" stroke-linecap="butt"/><path d="M310.89895,132.40803c-1.02958,0.09288 -3.81672,-2.92935 -4.25329,-5.00179c-0.39061,-1.85426 0.96587,-3.93067 3.42746,-4.15273c2.46159,-0.22206 4.2292,0.11125 4.39001,3.80951c0.13647,3.13861 -1.1026,5.12295 -3.56418,5.34501z" fill="#5a5a07" stroke="none" stroke-width="0" stroke-linecap="butt"/><path d="M311.78271,102.11238c0,0 0.45885,3.94449 0.64603,7.09728c0.37067,6.24308 1.41707,27.74559 1.41707,27.74559l-2.96884,0.27649c0,0 -1.17459,-4.08372 -1.97219,-9.36045c-1.07962,-7.14252 -1.91155,-16.18693 -2.52422,-19.4843c-0.58075,-3.12559 -1.40573,-5.61092 -1.40573,-5.61092" fill="#5a5a07" stroke="none" stroke-width="0" stroke-linecap="round"/><path d="M283.33697,115.51213c0,0 -5.22815,-3.0597 -6.9456,-8.3849c-1.80708,-5.60314 -2.32972,-9.56216 -0.41954,-9.99466c1.91018,-0.43252 2.90583,2.12444 4.46824,7.98654c1.5624,5.8621 2.89691,10.39303 2.89691,10.39303z" data-paper-data="{&quot;index&quot;:null}" fill="#5a5a07" stroke="none" stroke-width="0" stroke-linecap="butt"/><path d="M282.78052,111.59874c0,0 -3.81209,-2.59136 -5.05994,-8.02847c-0.69611,-3.03299 1.94317,-2.46471 1.94317,-2.46471" fill="#5a5a07" stroke="none" stroke-width="0" stroke-linecap="round"/><path d="M285.18374,104.69902c-0.36887,-4.87847 4.01591,-9.33465 9.3742,-9.73982c5.35829,-0.40516 9.37243,3.42016 9.74131,8.29864c0.36887,4.87847 -3.31671,9.1293 -8.67501,9.53447c-5.35829,0.40516 -10.07164,-3.21481 -10.44051,-8.09329z" fill="#5a5a07" stroke="none" stroke-width="0" stroke-linecap="butt"/><path d="M289.61404,104.41778c-0.208,-2.75087 1.85339,-5.14947 4.60424,-5.35748c2.75087,-0.208 5.14947,1.85339 5.35748,4.60424c0.208,2.75087 -1.85338,5.14947 -4.60424,5.35748c-2.75087,0.208 -5.14947,-1.85339 -5.35748,-4.60424z" fill="#5a5a07" stroke="none" stroke-width="0" stroke-linecap="butt"/><path d="M312.13065,102.26887c-0.23647,-4.88669 3.63874,-9.22269 8.93507,-9.70048c5.29632,-0.47778 9.59335,3.11676 10.03291,7.98937c0.43956,4.87261 -3.05514,9.38348 -8.83906,9.97638c-5.50155,0.56396 -9.88196,-3.16186 -10.12893,-8.26527z" fill="#5a5a07" stroke="none" stroke-width="0" stroke-linecap="butt"/><path d="M316.72249,101.94053c-0.25322,-2.80705 1.81706,-5.28789 4.62411,-5.54111c2.80705,-0.25322 5.28789,1.81706 5.54111,4.62411c0.25322,2.80705 -1.81705,5.28789 -4.62411,5.54111c-2.80705,0.25322 -5.28789,-1.81706 -5.54111,-4.62411z" fill="#5a5a07" stroke="none" stroke-width="0" stroke-linecap="butt"/><path d="M285.06778,104.17514c0,0 -0.74665,-8.98437 9.76536,-9.74167c9.44761,-0.68574 10.36209,8.51066 10.36209,8.51066z" fill="#5a5a07" stroke="none" stroke-width="0" stroke-linecap="butt"/><path d="M311.71842,101.90241c0,0 -1.09564,-9.39777 10.33496,-10.07248c9.70494,-0.54066 10.37537,8.75552 10.37537,8.75552z" fill="#5a5a07" stroke="none" stroke-width="0" stroke-linecap="butt"/><path d="M287.68385,93.88683c0,0 3.19257,-2.11439 7.79495,-2.99423c5.10001,-0.97499 7.73086,-0.76395 7.73086,-0.76395l0.66562,4.09423c0,0 -3.88118,-0.33329 -8.03234,0.20135c-5.55167,0.71501 -6.48926,2.02415 -10.68375,2.86265c-3.59406,0.71848 -6.69571,0.76351 -6.69571,0.76351l-0.13643,-1.22424c0,0 3.58728,-0.24933 5.2064,-0.53831c1.33636,-0.23852 3.87534,-1.29148 3.87534,-1.29148z" fill="#5a5a07" stroke="none" stroke-width="0" stroke-linecap="butt"/><path d="M336.39743,100.07118c0.48807,-6.04708 1.01005,-8.74093 2.9668,-8.65726c1.95674,0.08367 2.15107,4.0723 1.37592,9.90838c-0.7367,5.54659 -5.33288,9.49254 -5.33288,9.49254c0,0 0.50209,-4.69661 0.99016,-10.74368z" data-paper-data="{&quot;index&quot;:null}" fill="#5a5a07" stroke="none" stroke-width="0" stroke-linecap="butt"/><path d="M336.44295,95.9835c0,0 2.49496,-1.03145 2.35289,2.07716c-0.25466,5.57265 -3.54145,8.8044 -3.54145,8.8044" data-paper-data="{&quot;index&quot;:null}" fill="#5a5a07" stroke="none" stroke-width="0" stroke-linecap="round"/><path d="M245.90891,130.79122c-2.99202,-33.16717 23.22606,-62.63841 58.5597,-65.82586c35.33364,-3.18745 66.40274,21.11591 69.39475,54.28307c2.99202,33.16717 -23.22606,62.63841 -58.5597,65.82586c-35.33364,3.18745 -66.40274,-21.11591 -69.39475,-54.28307z" fill="#ffffff" stroke="#000000" stroke-width="2" stroke-linecap="butt"/><path d="M246.60395,130.44788c-0.06541,-0.72505 10.2097,55.22544 68.21949,51.01139c55.42593,-4.02635 58.04989,-63.42516 58.14143,-62.41043c2.94736,32.67212 -22.9502,61.70987 -57.8438,64.85763c-34.8936,3.14776 -65.56977,-20.78647 -68.51713,-53.45859z" fill="#dedeaf" stroke="#000000" stroke-width="0" stroke-linecap="butt"/><g stroke="#000000" stroke-width="2.5" stroke-linecap="butt"><path d="M384.5603,78.47149c0.33591,10.1776 -33.19257,19.54378 -74.88794,20.91991c-41.69537,1.37613 -75.76846,-5.75889 -76.10437,-15.93648c-0.33591,-10.1776 33.19257,-19.54378 74.88794,-20.91991c41.69537,-1.37613 75.76846,5.75889 76.10437,15.93648z" fill="#e2e2e2"/><path d="M262.09095,82.17915l-1.55955,-47.25255c0,0 10.47914,-10.61875 47.90474,-12.56234c37.82908,-1.96461 46.01956,9.46243 46.01956,9.46243l1.55955,47.25255c0,0 -9.78847,5.6676 -45.80622,6.01696c-32.18788,0.31221 -48.11808,-2.91704 -48.11808,-2.91704z" fill="#ffffff"/></g><path d="M297.26676,120.77713c-0.2481,-2.75025 1.7803,-5.1809 4.53055,-5.42901c2.75025,-0.2481 5.1809,1.7803 5.42901,4.53055c0.2481,2.75025 -1.7803,5.1809 -4.53055,5.42901c-2.75025,0.2481 -5.1809,-1.7803 -5.42901,-4.53055z" fill="#000000" stroke="none" stroke-width="0.5" stroke-linecap="butt"/><path d="M339.17363,127.61695c-0.2481,-2.75025 1.7803,-5.1809 4.53055,-5.42901c2.75025,-0.2481 5.1809,1.7803 5.42901,4.53055c0.2481,2.75025 -1.7803,5.1809 -4.53055,5.42901c-2.75025,0.2481 -5.1809,-1.7803 -5.42901,-4.53055z" fill="#000000" stroke="none" stroke-width="0.5" stroke-linecap="butt"/><path d="M331.30548,155.10077c0,0 -21.89971,7.97721 -36.48117,4.63634c-14.58147,-3.34085 -31.40523,-20.19025 -31.40523,-20.19025" fill="none" stroke="#000000" stroke-width="4" stroke-linecap="round"/><path d="M158.27622,203.27969c0,12.83398 11.24757,23.23798 25.12214,23.23798c13.87457,0 25.12214,-10.404 25.12214,-23.23798c0,-12.83398 -11.24757,-23.23798 -25.12214,-23.23798c-13.87457,0 -25.12214,10.404 -25.12214,23.23798z" fill="#000000" stroke="#ffffff" stroke-width="2" stroke-linecap="butt"/></g></g></svg>