<svg version="1.1" xmlns="http://www.w3.org/2000/svg" xmlns:xlink="http://www.w3.org/1999/xlink" width="107.18078" height="280.02333" viewBox="0,0,107.18078,280.02333"><g transform="translate(-196.40962,-62.98834)"><g data-paper-data="{&quot;isPaintingLayer&quot;:true}" fill-rule="nonzero" stroke-linejoin="miter" stroke-miterlimit="10" stroke-dasharray="" stroke-dashoffset="0" style="mix-blend-mode: normal"><path d="M205.89295,336.08415c0,0 -0.69715,-103.56323 -0.87051,-129.48934c-0.05981,-8.9455 8.9831,-40.33653 44.11188,-40.51188c34.67585,-0.17309 43.73301,32.35482 43.72436,40.48514c-0.08404,50.7401 0.71792,129.46132 0.71792,129.46132l-11.51753,0.10549l-0.17427,-126.01224c0,0 0.08283,-3.40072 -3.09015,-3.46091c-3.76843,-0.07148 -3.23183,3.41863 -3.23183,3.41863l0.22546,126.04169l-52.90271,0.07924l-0.33509,-126.44015c0,0 0.30667,-3.20289 -3.16624,-3.21982c-3.41338,-0.01662 -3.08953,3.19191 -3.08953,3.19191l0.38745,126.25769z" fill="#ffffff" stroke="#000000" stroke-width="2" stroke-linecap="butt"/><g stroke="none" stroke-width="0" stroke-linecap="butt"><path d="M282.05674,222.08854c0,25.4519 -15.79824,45.53611 -32.91767,45.53611c-17.11943,0 -32.91767,-17.8897 -32.91767,-43.3416c0,-8.13098 -7.08737,-31.68034 -4.60145,-38.31208c5.29561,-14.1272 26.96599,-23.13423 38.61637,-23.13423c10.93127,0 31.06615,6.15075 36.26166,22.57802c2.94117,9.29942 -4.44125,27.47369 -4.44125,36.67378z" fill="#c5c556"/><path d="M286.72009,290.52985c0,20.70958 4.36195,39.41673 -9.32559,47.04679c-5.38726,3.0031 -51.42323,2.83663 -56.65723,0.03539c-14.30823,-7.65778 -7.80762,-25.69933 -7.80762,-46.53354c0,-19.0369 -0.3168,-59.17894 7.97883,-73.09051c4.28084,-7.17888 13.47158,5.307 20.68698,4.64919c6.36551,-0.58033 12.95151,-0.76105 17.68029,0.84555c9.26828,3.14889 14.36058,-15.6636 18.47209,-6.90115c6.68132,14.23927 8.97226,58.98949 8.97226,73.94829z" fill="#c5c556"/><path d="M218.62166,201.65215v-9.18952h7.94086l8.50806,5.48628l7.79906,-5.48628h20.27756l7.37366,-6.30922l7.23186,6.30922h3.68683v9.18952l-3.8311,0.03742l-6.94759,-5.97121l-7.09071,5.97254l-21.11288,0.34197l-7.67029,5.65419l-7.99231,-5.88205z" fill="#acac4c"/><path d="M218.75882,224.06359v-9.18952h8.06223l8.6381,5.48628l7.91826,-5.48628h20.58747l7.48636,-6.30922l7.34238,6.30922h3.74318v9.18952l-3.88966,0.03742l-7.05377,-5.97121l-7.19908,5.97254l-21.43556,0.34197l-7.78752,5.65419l-8.11447,-5.88205z" fill="#acac4c"/><path d="M218.48451,247.24312v-9.18952h8.16626l8.74956,5.48628l8.02043,-5.48628h20.85311l7.58295,-6.30922l7.43713,6.30922h3.79148v9.18952l-3.93985,0.03742l-7.14479,-5.97121l-7.29197,5.97254l-21.71214,0.34197l-7.88801,5.65419l-8.21917,-5.88205z" fill="#acac4c"/><path d="M217.66156,271.08099v-9.18952h8.53036l9.13967,5.48628l8.37803,-5.48628h21.78287l7.92104,-6.30922l7.76872,6.30922h3.96052v9.18952l-4.11551,0.03742l-7.46335,-5.97121l-7.61709,5.97254l-22.6802,0.34197l-8.2397,5.65419l-8.58562,-5.88205z" fill="#acac4c"/><path d="M218.48451,295.33034v-9.18952h8.53036l9.13967,5.48628l8.37803,-5.48628h21.78287l7.92103,-6.30922l7.76872,6.30922h3.96052v9.18952l-4.11551,0.03742l-7.46335,-5.9712l-7.61709,5.97254l-22.6802,0.34197l-8.2397,5.65419l-8.58562,-5.88205z" fill="#acac4c"/><path d="M217.27754,318.07096v-9.18952h8.53036l9.13967,5.48628l8.37803,-5.48628h21.78287l7.92103,-6.30922l7.76872,6.30922h3.96052v9.18952l-4.11551,0.03742l-7.46335,-5.97121l-7.61708,5.97254l-22.6802,0.34197l-8.2397,5.65419l-8.58562,-5.88206z" fill="#acac4c"/></g><path d="M200.29312,116.0718c0,0 6.7627,-6.4978 6.9035,-7.44774c0.36927,-2.49146 -0.18408,-44.08023 39.46581,-45.61711c48.97746,-1.00247 42.80931,38.78658 45.56999,46.29354c3.78532,10.29318 6.75541,19.09242 6.75541,19.09242c0,0 -3.03627,-2.25323 -4.47647,-3.43877c-1.34326,-1.10574 -4.17114,-3.4518 -4.17114,-3.4518c0,0 3.39174,11.35451 1.43841,22.70768c-1.71424,10.40306 -8.00757,18.9007 -8.00757,18.9007l-1.26757,-2.57564c0,0 -1.12212,2.4117 -2.37013,3.65687c-1.24802,1.24515 -3.77317,3.19601 -3.77317,3.19601l-0.101,-4.06447c0,0 -7.74673,12.08951 -26.7189,11.92886c-17.89212,-0.28032 -28.60711,-11.71342 -28.60711,-11.71342l-0.1275,2.91304c0,0 -4.27356,-3.613 -6.78263,-10.65165c-2.99052,-8.38925 -3.55452,-13.43396 -3.55452,-13.43396c0,0 -2.56657,2.08386 -6.27305,3.04423c-4.64444,1.20339 -7.62225,0.37884 -7.62225,0.37884c0,0 3.95884,-2.98143 6.12703,-5.23379c1.93125,-2.00622 2.90397,-3.70567 2.90397,-3.70567c0,0 -2.31255,1.19019 -4.64443,1.7753c-2.43304,0.61051 -4.42203,0.58257 -4.42203,0.58257c0,0 5.45876,-5.52718 7.71452,-11.93188c2.1298,-6.04706 2.30393,-12.02297 2.30393,-12.02297c0,0 -1.49408,0.72598 -3.654,0.87246c-1.36911,0.09286 -2.60911,-0.05366 -2.60911,-0.05366z" fill="#000000" stroke="none" stroke-width="1.5" stroke-linecap="butt"/><g fill="#84843a" stroke="none" stroke-width="0" stroke-linecap="butt"><path d="M241.89756,178.50046c5.33081,4.24976 11.32061,8.32623 9.3059,10.85343c-2.0147,2.5272 -7.96941,1.13078 -13.30021,-3.11898c-5.33081,-4.24976 -11.18223,-18.1442 -11.18223,-18.1442c0,0 9.84573,6.15999 15.17654,10.40975z"/><path d="M271.39675,169.18794c0,0 -5.85142,12.98007 -11.18222,17.22982c-5.33081,4.24976 -11.28551,5.64617 -13.30022,3.11897c-2.0147,-2.52719 3.9751,-6.60367 9.30591,-10.85342c5.33081,-4.24976 15.17653,-9.49538 15.17653,-9.49538z" data-paper-data="{&quot;index&quot;:null}"/></g><path d="M218.71153,128.49451c-0.63322,-8.00254 0.36758,-18.82285 0.36758,-18.82285c0,0 3.74229,-0.04525 15.26753,-3.45003c8.85441,-2.61579 22.54565,-10.40991 22.54565,-10.40991c0,0 -2.37013,3.29729 -3.73924,4.89392c-1.45552,1.69741 -4.38125,5.00674 -4.38125,5.00674c0,0 8.60029,-1.82979 16.10196,-5.18926c9.40169,-3.87962 11.6227,-6.64179 14.20992,-5.03937c3.05355,1.89125 1.13024,25.43735 0.78833,31.53581c-0.46264,6.22058 -2.77964,10.42359 -3.4567,13.73822c-0.67705,3.31463 -0.44944,6.73344 -2.42079,17.59965c-1.23025,6.78127 -4.56659,9.79263 -10.99386,16.08666c-6.42727,6.29403 -9.93431,10.15263 -14.27923,10.22832c-4.18139,0.07285 -9.80469,-5.59622 -15.29072,-11.39219c-5.84171,-6.17178 -9.73802,-9.30158 -10.6604,-16.61218c-0.8307,-6.58396 -0.85205,-10.87219 -1.23184,-16.73134c-0.27758,-4.28229 -2.4811,-7.07186 -2.82693,-11.44219z" fill="#ffffff" stroke="#000000" stroke-width="1.5" stroke-linecap="butt"/><path d="M271.4566,111.90361c0,0 1.67254,0.349 4.6697,1.21827c2.73756,0.79399 4.88207,1.91365 4.88207,1.91365l0.21407,1.28417c0,0 -7.9547,-3.43438 -16.5859,-2.71088c-6.9013,0.57852 -10.93217,3.08592 -10.93217,3.08592l0.0502,-4.58305c0,0 3.43164,-1.86995 8.62844,-2.03603c5.38125,-0.17196 8.87772,0.64875 8.87772,0.64875z" data-paper-data="{&quot;index&quot;:null}" fill="#000000" stroke="none" stroke-width="1.5" stroke-linecap="butt"/><path d="M257.45109,159.07194c0.62587,0.23246 3.38346,1.53552 6.6097,2.84832c3.25194,1.32326 7.91518,2.51594 7.89379,2.6998c-0.02717,0.23333 -11.44961,0.24901 -15.00976,0.69373c-2.98346,0.37267 -7.33918,0.77427 -7.33918,0.77427c0,0 -7.79491,-1.27467 -14.56316,-2.68302c-5.42451,-1.12874 -11.41068,-1.82263 -11.42238,-1.92526c-0.01579,-0.1384 4.24457,-0.77983 7.48786,-1.53031c1.25729,-0.54491 5.96875,-1.62957 5.96875,-1.62957c0,0 5.43783,-0.30466 8.34821,0.63531c3.11843,1.00718 3.11122,2.6834 3.38295,2.70919c0,0 1.29955,-1.91945 2.59924,-2.3093c1.29971,-0.38983 5.57646,-0.45682 6.04399,-0.28318z" fill="#ffffff" stroke="#000000" stroke-width="1.4" stroke-linecap="butt"/><path d="M236.98948,164.06838c5.58628,1.1266 13.07661,3.08039 13.07661,3.08039c0,0 6.35285,-1.70717 9.26828,-2.01281c2.26026,-0.23696 12.30682,-0.77525 12.35538,-0.36623c0.04749,0.39992 -9.90952,14.15496 -23.20485,13.65769c-15.1087,-0.47816 -25.0883,-16.60761 -25.04678,-16.79319c0.04152,-0.18558 7.96509,1.30754 13.55137,2.43415z" fill="#ffffff" stroke="#000000" stroke-width="1.9" stroke-linecap="butt"/><path d="M249.03105,160.78356c-1.1343,0 -3.8822,-3.57751 -4.15498,-5.88535c-0.24406,-2.06488 1.44302,-4.20028 4.15498,-4.20028c2.71197,0 4.61078,0.5385 4.42193,4.59589c-0.16028,3.44339 -1.70997,5.48976 -4.42193,5.48976z" fill="#ffffff" stroke="#000000" stroke-width="1.15" stroke-linecap="butt"/><path d="M252.98348,127.76306c0,0 0.11258,4.35584 0.00632,7.81972c-0.21039,6.85909 -1.18665,30.46058 -1.18665,30.46058l-3.27165,0.00948c0,0 -0.88103,-4.57856 -1.23246,-10.4237c-0.47569,-7.9119 -0.49322,-17.87782 -0.83769,-21.54164c-0.32652,-3.47296 -0.98306,-6.2703 -0.98306,-6.2703" fill="#ffffff" stroke="#000000" stroke-width="1.3" stroke-linecap="round"/><path d="M220.57647,139.60227c0,0 -5.41179,-3.8591 -6.76367,-9.84789c-1.42244,-6.30136 -1.60329,-10.67937 0.52683,-10.9637c2.13011,-0.28435 2.96611,2.60809 4.09564,9.16833c1.12951,6.56024 2.14122,11.64328 2.14122,11.64328z" data-paper-data="{&quot;index&quot;:null}" fill="#ffffff" stroke="#000000" stroke-width="1" stroke-linecap="butt"/><path d="M220.35418,135.27079c0,0 -3.91045,-3.20769 -4.73813,-9.27248c-0.46171,-3.38314 2.36651,-2.50192 2.36651,-2.50192" fill="none" stroke="#000000" stroke-width="0.25" stroke-linecap="round"/><path d="M223.66065,127.96756c0.07783,-5.36764 5.3089,-9.80517 11.20448,-9.71971c5.89558,0.08548 9.90519,4.66158 9.82737,10.02923c-0.07783,5.36764 -4.52456,9.64969 -10.42014,9.56423c-5.89558,-0.08548 -10.68954,-4.5061 -10.61171,-9.87375z" fill="#ffffff" stroke="#000000" stroke-width="1.4" stroke-linecap="butt"/><path d="M228.52987,128.09697c0.04388,-3.0267 2.53307,-5.44472 5.55975,-5.40085c3.0267,0.04388 5.44472,2.53307 5.40085,5.55975c-0.04388,3.0267 -2.53306,5.44472 -5.55975,5.40085c-3.0267,-0.04388 -5.44472,-2.53307 -5.40085,-5.55975z" fill="#000000" stroke="none" stroke-width="1.5" stroke-linecap="butt"/><path d="M253.34829,127.96836c0.22332,-5.36357 4.88568,-9.72001 10.72071,-9.72001c5.83502,0 10.17653,4.35179 10.17653,9.72001c0,5.36821 -4.26377,9.95325 -10.64298,10.03098c-6.06779,0.07394 -10.48748,-4.42953 -10.25426,-10.03098z" fill="#ffffff" stroke="#000000" stroke-width="1.4" stroke-linecap="butt"/><path d="M258.39869,128.06223c0,-3.09256 2.50701,-5.59957 5.59957,-5.59957c3.09256,0 5.59957,2.50701 5.59957,5.59957c0,3.09256 -2.507,5.59957 -5.59957,5.59957c-3.09256,0 -5.59957,-2.50701 -5.59957,-5.59957z" fill="#000000" stroke="none" stroke-width="1.5" stroke-linecap="butt"/><path d="M223.58555,127.38362c0,0 0.06975,-9.89189 11.63213,-9.68317c10.39212,0.18199 10.48487,10.32214 10.48487,10.32214z" fill="#ffffff" stroke="#000000" stroke-width="1.15" stroke-linecap="butt"/><path d="M252.93392,127.52725c0,0 -0.27087,-10.37806 12.28721,-9.98854c10.65904,0.3659 10.47525,10.59103 10.47525,10.59103z" fill="#ffffff" stroke="#000000" stroke-width="1.15" stroke-linecap="butt"/><path d="M227.45871,116.39827c0,0 3.69735,-1.99591 8.81364,-2.5037c5.6695,-0.56271 8.52373,-0.07273 8.52373,-0.07273l0.32378,4.53986c0,0 -4.20857,-0.74685 -8.79774,-0.57181c-6.13746,0.23408 -7.29113,1.57229 -11.95761,2.07512c-3.99849,0.43085 -7.39246,0.17429 -7.39246,0.17429l-0.02841,-1.35133c0,0 3.94482,0.08117 5.74272,-0.07501c1.48392,-0.12892 4.36236,-1.02931 4.36236,-1.02931z" fill="#000000" stroke="none" stroke-width="1.5" stroke-linecap="butt"/><path d="M280.08408,127.95899c1.12951,-6.56024 1.96551,-9.45267 4.09564,-9.16833c2.13011,0.28434 1.94926,4.66234 0.52683,10.9637c-1.35188,5.98879 -6.76367,9.84789 -6.76367,9.84789c0,0 1.0117,-5.08304 2.14122,-11.64328z" data-paper-data="{&quot;index&quot;:null}" fill="#ffffff" stroke="#000000" stroke-width="1" stroke-linecap="butt"/><path d="M280.53681,123.49639c0,0 2.82822,-0.88123 2.36651,2.50192c-0.82767,6.06478 -4.73813,9.27248 -4.73813,9.27248" data-paper-data="{&quot;index&quot;:null}" fill="none" stroke="#000000" stroke-width="0.25" stroke-linecap="round"/><g><path d="M218.75979,100.50972c-2.32298,2.27539 -2.49282,-1.96179 -5.3089,-4.83677c-2.81607,-2.87497 -5.13489,-4.84401 -2.81191,-7.11941c2.32298,-2.2754 4.06339,1.56583 6.87946,4.4408c2.81607,2.87497 3.56433,5.23999 1.24135,7.51538z" fill="#caca59" stroke="none" stroke-width="0" stroke-linecap="butt"/><path d="M249.76384,90.18841c-2.49854,0.62535 -5.71028,-3.60732 -7.1736,-9.45392c-1.46333,-5.84659 -0.6241,-11.09316 1.87444,-11.7185c2.49854,-0.62536 5.71027,3.6073 7.17359,9.45391c1.46333,5.84661 0.62411,11.09316 -1.87443,11.71851z" fill="#caca59" stroke="none" stroke-width="0" stroke-linecap="butt"/><g data-paper-data="{&quot;index&quot;:null}" fill="#caca59" stroke="none" stroke-width="0" stroke-linecap="butt"><path d="M264.82621,84.68195c2.39641,-5.53003 3.24632,-10.44648 5.60959,-9.42236c2.36327,1.02411 -0.19081,5.41461 -2.58721,10.94464c-2.39641,5.53003 -3.72768,10.10548 -6.09094,9.08138c-2.36327,-1.0241 0.67216,-5.07362 3.06856,-10.60366z"/><path d="M272.5822,90.64433c3.56949,-4.8562 8.14552,-7.55632 10.22081,-6.03089c2.07529,1.52543 0.864,6.69877 -2.70549,11.55497c-3.56949,4.8562 -8.14552,7.55633 -10.22083,6.0309c-2.07529,-1.52543 -0.86399,-6.69877 2.7055,-11.55497z"/></g><g fill="#caca59" stroke="none" stroke-width="0" stroke-linecap="butt"><path d="M237.07286,93.97982c-2.36327,1.0241 -3.69454,-3.55136 -6.09094,-9.08138c-2.39641,-5.53003 -4.95047,-9.92054 -2.58721,-10.94464c2.36327,-1.02411 3.21318,3.89234 5.60959,9.42237c2.39641,5.53003 5.43183,9.57955 3.06857,10.60366z"/><path d="M228.76723,94.36449c-2.07531,1.52543 -6.65133,-1.1747 -10.22083,-6.0309c-3.56949,-4.8562 -4.78079,-10.02953 -2.70549,-11.55496c2.07531,-1.52543 6.65132,1.1747 10.22083,6.0309c3.56949,4.8562 4.7808,10.02953 2.7055,11.55496z"/></g><g fill="#caca59" stroke="none" stroke-width="0" stroke-linecap="butt"><path d="M223.79781,108.55501c-1.30016,2.22337 -5.07943,-0.67909 -10.28211,-3.72151c-5.20267,-3.04239 -9.85863,-5.07263 -8.55846,-7.296c1.30016,-2.22337 4.89288,1.23874 10.09556,4.28113c5.20267,3.04239 10.04518,4.51301 8.74501,6.73638z"/><path d="M217.32749,113.77677c-0.77149,2.45736 -6.05839,2.98595 -11.80859,1.18065c-5.7502,-1.8053 -9.78627,-5.26086 -9.01477,-7.71822c0.77149,-2.45736 6.05839,-2.98595 11.80859,-1.18065c5.7502,1.8053 9.78627,5.26086 9.01477,7.71822z"/></g><g data-paper-data="{&quot;index&quot;:null}" fill="#caca59" stroke="none" stroke-width="0" stroke-linecap="butt"><path d="M284.64912,99.76668c5.20267,-3.04239 8.79539,-6.50451 10.09556,-4.28114c1.30017,2.22337 -3.35579,4.2536 -8.55846,7.296c-5.20267,3.04239 -8.98194,5.94488 -10.28211,3.72152c-1.30017,-2.22337 3.54234,-3.69397 8.74501,-6.73637z"/><path d="M291.38917,104.00655c5.75021,-1.8053 11.03711,-1.2767 11.8086,1.18066c0.7715,2.45736 -3.26455,5.91291 -9.01477,7.71821c-5.75021,1.8053 -11.03711,1.27671 -11.80861,-1.18065c-0.7715,-2.45736 3.26455,-5.91292 9.01478,-7.71822z"/></g><path d="M293.19183,130.26596c0,26.95813 -29.04573,49.18511 -44.45936,48.81202c-12.61179,-0.30527 -44.45936,-21.8539 -44.45936,-48.81202c0,-3.97081 0.43187,-7.83088 1.24683,-11.52667c0.20021,-0.90794 1.20737,-4.53623 1.51228,-5.43928c0.68859,-2.03932 -6.00337,-7.23692 -4.48413,-11.51102c1.33894,-3.76685 8.7141,2.11836 9.75716,0.48522c0.36215,-0.56704 0.73502,-1.12524 1.11827,-1.67425c0.34119,-0.48876 -3.65339,-2.62683 -1.86671,-4.2423c1.80197,-1.62929 3.7666,1.69369 4.20878,1.15752c0.3765,-0.45655 0.76077,-0.90525 1.15257,-1.34585c1.42177,-1.59882 -5.91952,-12.05693 -1.41752,-14.53752c3.71541,-2.04717 8.53718,8.00024 9.89664,7.07811c0.8655,-0.58708 -1.89914,-5.32932 0.08935,-7.14442c1.61537,-1.47451 4.53954,4.38958 5.55731,3.90449c1.38473,-0.66 -3.69271,-11.74452 0.29562,-13.17566c4.10652,-1.47356 6.25758,10.68456 7.43198,10.38943c1.38518,-0.34809 -0.46672,-7.36866 3.06028,-7.82287c3.9904,-0.51387 4.95743,6.59304 6.90065,6.59304c0.7691,0 1.53367,0.02145 2.29319,0.06382c0.82068,0.04579 1.37153,-9.29403 4.0761,-9.11716c3.46323,0.2265 1.09716,9.71542 2.43094,10.00945c0.89035,0.19628 1.77106,0.42173 2.6413,0.67546c0.64624,0.18842 1.73797,-6.87423 4.60259,-5.91739c2.3695,0.79146 -0.60595,7.29328 0.40524,7.73565c1.09363,0.47845 2.16589,1.00319 3.21478,1.57201c1.57774,0.85563 5.88661,-10.94101 9.81419,-8.56708c3.05139,1.84435 -2.48068,13.52861 -1.18691,14.70162c1.40014,1.26946 2.72828,2.63123 3.97668,4.07682c0.56864,0.65846 8.73982,-12.2045 11.33251,-8.93259c1.81219,2.28694 -8.08492,13.11123 -7.35185,14.24225c0.59991,0.92559 5.7779,-6.3786 7.54178,-4.38145c1.32542,1.50072 -5.01703,8.73272 -4.63801,9.50387c0.45181,0.91927 4.52707,-2.6796 5.80645,-0.52134c0.60881,1.02706 -3.93773,4.79627 -3.66565,5.54276c0.42757,1.17308 1.80527,6.02515 2.06343,7.27373c0.72161,3.48994 1.10262,7.12191 1.10262,10.85161z" fill="#ecec68" stroke="none" stroke-width="0" stroke-linecap="butt"/><g stroke="none" stroke-width="0" stroke-linecap="butt"><path d="M244.67074,118.30286c0,6.70402 -5.80003,12.13872 -12.95473,12.13872c-7.1547,0 -12.95474,-5.43471 -12.95474,-12.13872c0,-6.70402 5.80003,-12.13872 12.95474,-12.13872c7.1547,0 12.95473,5.43468 12.95473,12.13872z" fill="#cccc5a"/><path d="M243.1784,117.41005c0,6.38753 -5.13189,11.56564 -11.46239,11.56564c-6.33051,0 -11.46239,-5.17811 -11.46239,-11.56564c0,-6.38753 5.13189,-11.56566 11.46239,-11.56566c6.33051,0 11.46239,5.17812 11.46239,11.56566z" fill="#ffffff"/><path d="M236.12142,118.0513c0,2.92977 -1.85306,5.3048 -4.13891,5.3048c-2.28586,0 -4.13891,-2.37504 -4.13891,-5.3048c0,-2.92976 1.85307,-5.30481 4.13891,-5.30481c2.28586,0 4.13891,2.37505 4.13891,5.30481z" fill="#000000"/></g><g stroke="none" stroke-width="0" stroke-linecap="butt"><path d="M281.27975,118.76921c0,6.70402 -5.80003,12.13873 -12.95473,12.13873c-7.1547,0 -12.95474,-5.43471 -12.95474,-12.13872c0,-6.70402 5.80003,-12.13872 12.95474,-12.13872c7.1547,0 12.95473,5.43468 12.95473,12.13872z" fill="#cccc5a"/><path d="M279.7874,117.87641c0,6.38753 -5.13188,11.56566 -11.46239,11.56566c-6.33051,0 -11.46239,-5.17812 -11.46239,-11.56566c0,-6.38753 5.13189,-11.56564 11.46239,-11.56564c6.33051,0 11.46239,5.17811 11.46239,11.56564z" fill="#ffffff"/><path d="M272.73043,118.51766c0,2.92977 -1.85306,5.3048 -4.13891,5.3048c-2.28586,0 -4.13891,-2.37504 -4.13891,-5.3048c0,-2.92976 1.85306,-5.3048 4.13891,-5.3048c2.28586,0 4.13891,2.37504 4.13891,5.3048z" fill="#000000"/></g><path d="M261.1881,132.21688c0,0 -1.50121,14.6012 -11.53898,14.58768c-10.9698,-0.01477 -11.4291,-14.93744 -11.4291,-14.93744" fill="none" stroke="#cccc5a" stroke-width="1.5" stroke-linecap="round"/><path d="M240.4352,141.42743c0,0 -3.30695,1.48363 -5.29038,-0.01466c-1.87945,-1.41973 -1.59236,-4.53232 -1.59236,-4.53232" fill="none" stroke="#cccc5a" stroke-width="1.5" stroke-linecap="round"/><path d="M266.0686,136.64728c0,0 0.2968,3.11258 -1.64619,4.53231c-2.05047,1.49829 -5.4692,0.01466 -5.4692,0.01466" data-paper-data="{&quot;index&quot;:null}" fill="none" stroke="#cccc5a" stroke-width="1.5" stroke-linecap="round"/><path d="M275.41198,149.99672c0,0 -5.87285,13.25542 -24.54203,13.58264c-19.36799,0.33948 -27.45676,-13.46606 -27.45676,-13.46606c0,0 18.34321,3.68869 27.28108,3.66865c8.35585,-0.01873 24.71771,-3.78524 24.71771,-3.78524z" fill="#ffffff" stroke="#cccc5a" stroke-width="1.5" stroke-linecap="butt"/><path d="M233.43987,152.03703l0.11658,7.34513" fill="none" stroke="#cccc5a" stroke-width="1.5" stroke-linecap="round"/><path d="M243.00018,162.87986v-9.09396" fill="none" stroke="#cccc5a" stroke-width="1.5" stroke-linecap="round"/><path d="M255.7084,153.55268l0.11659,8.86078" fill="none" stroke="#cccc5a" stroke-width="1.5" stroke-linecap="round"/><path d="M265.03554,159.73195l0.11659,-6.76218" fill="none" stroke="#cccc5a" stroke-width="1.5" stroke-linecap="round"/><path d="M297.9629,131.53767c-1.43964,8.44205 -5.33388,14.82061 -8.698,14.24692c-3.36413,-0.57369 -4.92422,-7.8824 -3.48457,-16.32445c1.43964,-8.44205 9.36437,-18.15454 9.36437,-18.15454c0,0 4.25785,11.79003 2.81819,20.23209z" fill="#ecec68" stroke="none" stroke-width="0" stroke-linecap="butt"/><path d="M201.30647,108.6629c0,0 7.92474,9.71249 9.3644,18.15455c1.43964,8.44205 -0.12045,15.75076 -3.48457,16.32446c-3.36413,0.57369 -7.25836,-5.80488 -8.69801,-14.24693c-1.43964,-8.44205 2.81819,-20.23209 2.81819,-20.23209z" data-paper-data="{&quot;index&quot;:null}" fill="#ecec68" stroke="none" stroke-width="0" stroke-linecap="butt"/><path d="M249.29193,178.77333c0,0 0.14395,1.45041 -9.61025,-2.17907c-1.70766,-0.20035 -8.87306,-4.73487 -15.17123,-9.75898c-3.74865,-2.99034 -7.62155,-6.83924 -10.4397,-10.61288c-4.93814,-6.61242 -7.60334,-12.85582 -7.60334,-12.85582c0,0 10.0919,17.19107 19.32894,22.88608c7.60033,5.21159 23.49559,12.52066 23.49559,12.52066z" fill="#cccc5a" stroke="none" stroke-width="0" stroke-linecap="butt"/><path d="M270.83667,167.04207c9.23705,-5.38084 19.32895,-21.62354 19.32895,-21.62354c0,0 -2.29211,6.41196 -7.23026,12.6596c-2.81815,3.56547 -6.85686,7.72538 -10.60552,10.55075c-3.04246,2.29312 -3.81345,3.04211 -5.54418,4.10366c-1.13994,0.69918 -2.27002,1.59246 -5.78832,3.18069c-1.10146,0.49723 -2.46991,1.02507 -4.07707,1.69789c-1.71282,0.60217 -2.37298,0.57246 -2.74966,0.68593c-0.69243,0.20857 -0.53789,0.23523 -4.9868,0.85848c-1.18086,0.16543 -1.8427,-0.28354 -1.8427,-0.28354c0,0 15.89525,-6.90585 23.49559,-11.82993z" data-paper-data="{&quot;index&quot;:null}" fill="#cccc5a" stroke="none" stroke-width="0" stroke-linecap="butt"/><path d="M207.04299,144.11959c0,0 3.13731,-9.00919 3.13731,-13.31238c0,-4.31732 -3.81565,-14.16028 -3.81565,-14.16028c0,0 4.83315,8.60551 4.83315,13.48195c0,4.87643 -4.15481,13.99071 -4.15481,13.99071z" fill="#cccc5a" stroke="none" stroke-width="0" stroke-linecap="butt"/><path d="M286.41231,130.92494c0.09948,-5.08617 5.10724,-13.96731 5.10724,-13.96731c0,0 -4.01569,10.19173 -4.10377,14.69472c-0.08777,4.48826 2.86518,13.94629 2.86518,13.94629c0,0 -3.96812,-9.58752 -3.86864,-14.6737z" data-paper-data="{&quot;index&quot;:null}" fill="#cccc5a" stroke="none" stroke-width="0" stroke-linecap="butt"/><path d="M208.33248,141.18782c0,0 -0.38336,1.63894 -1.57786,2.5783c-0.5241,0.41216 -2.5114,-1.18605 -3.73943,-3.10978c-1.57074,-2.46065 -2.65372,-5.54716 -2.65372,-5.54716c0,0 3.32597,5.15672 5.2513,7.6007c0.9488,1.20438 2.71971,-1.52206 2.71971,-1.52206z" fill="#cccc5a" stroke="none" stroke-width="0" stroke-linecap="butt"/><path d="M291.67636,144.08492c2.4858,-1.99405 4.90547,-7.43189 4.90547,-7.43189c0,0 -0.83218,3.14521 -2.14972,5.69453c-1.03007,1.99307 -3.61954,3.70612 -4.1268,3.3257c-1.15608,-0.867 -0.76101,-2.48037 -0.76101,-2.48037c0,0 1.32076,2.15047 2.13207,0.89202z" data-paper-data="{&quot;index&quot;:null}" fill="#cccc5a" stroke="none" stroke-width="0" stroke-linecap="butt"/></g><g fill="#727232" stroke="none" stroke-width="0" stroke-linecap="butt"><path d="M235.67485,228.39775v-46.08473h3.29177v46.08473z"/><path d="M240.74965,232.30672c0,2.99212 -1.56588,5.4177 -3.4975,5.4177c-1.93162,0 -3.4975,-2.42558 -3.4975,-5.4177c0,-2.99212 1.56588,-5.4177 3.4975,-5.4177c1.93162,0 3.4975,2.42558 3.4975,5.4177z"/></g><g fill="#727232" stroke="none" stroke-width="0" stroke-linecap="butt"><path d="M259.81447,228.80922v-46.08473h3.29177v46.08473z"/><path d="M264.88928,232.7182c0,2.99211 -1.56588,5.4177 -3.4975,5.4177c-1.93162,0 -3.4975,-2.42559 -3.4975,-5.4177c0,-2.99211 1.56588,-5.4177 3.4975,-5.4177c1.93162,0 3.4975,2.42559 3.4975,5.4177z"/></g><path d="M220.06181,234.43266c0,23.96268 2.60394,78.65215 -1.03358,102.66003c-0.80027,5.28185 -14.44404,2.3259 -16.65966,2.12789c-8.67664,-0.77545 -2.89606,-75.55338 -3.42892,-104.78791c-0.82294,-45.14959 22.35658,-60.62337 22.35658,-60.62337c0,0 -1.23441,31.38399 -1.23441,60.62337z" fill="#707031" stroke="none" stroke-width="0" stroke-linecap="butt"/><path d="M279.5691,174.90653c0,0 23.45384,18.49124 22.6309,61.99494c-0.55301,29.23416 5.24771,104.01245 -3.42892,104.78791c-2.21563,0.19802 -17.77959,3.7026 -18.57986,-1.57926c-3.63752,-24.00788 0.88662,-79.24597 0.88662,-103.20865c0,-29.23938 -1.50873,-61.99494 -1.50873,-61.99494z" data-paper-data="{&quot;index&quot;:null}" fill="#707031" stroke="none" stroke-width="0" stroke-linecap="butt"/><path d="M264.7384,181.00088c0,0.98021 -3.00058,3.59318 -6.37238,6.57131c-4.58106,4.04621 -9.84361,6.23 -9.84361,6.23c0,0 -4.34386,-2.71797 -8.14472,-5.68601c-3.33006,-2.6004 -6.17958,-5.41401 -6.17958,-6.47525c0,-2.27249 10.69889,4.38902 13.85677,4.38902c3.15788,0 16.68352,-7.30158 16.68352,-5.02908z" fill="#84843a" stroke="none" stroke-width="0" stroke-linecap="butt"/></g></g></svg>