<svg version="1.1" xmlns="http://www.w3.org/2000/svg" xmlns:xlink="http://www.w3.org/1999/xlink" width="164.87263" height="300.00082" viewBox="0,0,164.87263,300.00082"><defs><linearGradient x1="277.96865" y1="61.85794" x2="292.92477" y2="108.98073" gradientUnits="userSpaceOnUse" id="color-1"><stop offset="0" stop-color="#ecec68"/><stop offset="1" stop-color="#292912"/></linearGradient></defs><g transform="translate(-243.64611,-29.85735)"><g data-paper-data="{&quot;isPaintingLayer&quot;:true}" fill-rule="nonzero" stroke-linejoin="miter" stroke-miterlimit="10" stroke-dasharray="" stroke-dashoffset="0" style="mix-blend-mode: normal"><path d="M358.61154,247.02442c-12.88694,-1.52623 -6.76109,-122.63584 -6.76109,-122.63584l12.71244,-1.43652c0,0 6.55239,125.5532 -5.95134,124.07236z" data-paper-data="{&quot;index&quot;:null}" fill="#60602a" stroke="#000000" stroke-width="2" stroke-linecap="butt"/><path d="M368.22355,235.92643c-12.88694,-1.52623 -6.07607,-109.94823 -6.07607,-109.94823l12.71243,-1.43653c0,0 5.86737,112.8656 -6.63636,111.38476z" data-paper-data="{&quot;index&quot;:null}" fill="#60602a" stroke="#000000" stroke-width="2" stroke-linecap="butt"/><path d="M298.29533,101.63256l12.62539,2.06617c0,0 -0.34432,139.25883 -13.29116,140.1431c-12.56185,0.85797 0.66577,-142.20926 0.66577,-142.20926z" fill="#60602a" stroke="#000000" stroke-width="2" stroke-linecap="butt"/><path d="M289.20648,234.40059c-12.82055,-2.009 -1.89899,-105.77898 -1.89899,-105.77898l12.7574,-0.95822c0,0 1.5809,108.68646 -10.85841,106.73721z" data-paper-data="{&quot;index&quot;:null}" fill="#60602a" stroke="#000000" stroke-width="2" stroke-linecap="butt"/><path d="M289.5041,328.85816l13.64285,-120.3421l40.28325,-0.15789l12.57389,120.5z" fill="#bebe54" stroke="#000000" stroke-width="2" stroke-linecap="butt"/><path d="M273.79119,223.26392c-11.80331,-2.3106 3.2335,-97.71948 3.2335,-97.71948l12.78454,-0.47445c0,0 -3.66145,100.61283 -16.01804,98.19393z" data-paper-data="{&quot;index&quot;:null}" fill="#60602a" stroke="#000000" stroke-width="2" stroke-linecap="butt"/><path d="M382.19782,223.32848c-12.95929,-0.67799 -17.01985,-79.59897 -17.01985,-79.59897l12.5909,-2.26695c0,0 17.00289,82.52375 4.42896,81.86592z" data-paper-data="{&quot;index&quot;:null}" fill="#60602a" stroke="#000000" stroke-width="2" stroke-linecap="butt"/><path d="M302.45432,225.47079l3.12142,-26.32765l35.83075,-0.14203l2.76735,26.1059c0,0 -7.51543,4.19603 -21.55904,4.50964c-12.48458,0.27879 -20.16049,-4.14586 -20.16049,-4.14586z" fill="#a0a047" stroke="#000000" stroke-width="0" stroke-linecap="butt"/><path d="M386.69748,200.97261c-6.9105,-2.15729 3.24128,-14.52308 -0.23703,-27.05268c-2.98375,-10.7481 3.55077,-15.23895 6.53508,-4.49099c2.78863,10.0432 1.50362,33.97917 -6.29805,31.54369z" data-paper-data="{&quot;index&quot;:null}" fill="#60602a" stroke="#000000" stroke-width="2" stroke-linecap="butt"/><path d="M265.1189,157.66231c0.82729,-33.29158 30.24897,-59.56525 65.71514,-58.68392c35.46617,0.88133 63.54654,28.58396 62.71924,61.87552c-0.82729,33.29158 -30.24897,59.56525 -65.71514,58.68392c-35.46617,-0.88133 -63.54654,-28.58396 -62.71924,-61.87552z" fill="#bebe54" stroke="#000000" stroke-width="2" stroke-linecap="butt"/><path d="M278.65428,158.42826c0.32216,-12.96399 11.09273,-23.21224 24.05672,-22.89009c12.96399,0.32216 23.21225,11.09273 22.89009,24.05672c-0.32216,12.96399 -11.09273,23.21224 -24.05672,22.89009c-12.96399,-0.32216 -23.21225,-11.09273 -22.89009,-24.05672z" fill="#ffffff" stroke="#000000" stroke-width="2" stroke-linecap="butt"/><path d="M285.26016,160.77082c0.22677,-9.12526 7.80807,-16.33891 16.93333,-16.11214c9.12526,0.22677 16.33891,7.80808 16.11214,16.93334c-0.22677,9.12526 -7.80808,16.33891 -16.93333,16.11214c-9.12526,-0.22677 -16.3389,-7.80808 -16.11213,-16.93333z" fill="#000000" stroke="none" stroke-width="0" stroke-linecap="butt"/><path d="M356.03595,183.83909c-12.96399,-0.32216 -23.21225,-11.09272 -22.89009,-24.05672c0.32216,-12.96399 11.09273,-23.21225 24.05672,-22.89009c12.96399,0.32216 23.21225,11.09273 22.89009,24.05672c-0.32216,12.96399 -11.09273,23.21224 -24.05672,22.89009z" data-paper-data="{&quot;index&quot;:null}" fill="#ffffff" stroke="#000000" stroke-width="2" stroke-linecap="butt"/><path d="M355.98445,179.77149c-9.12525,-0.22677 -16.3389,-7.80808 -16.11213,-16.93333c0.22677,-9.12526 7.80808,-16.33891 16.93332,-16.11214c9.12525,0.22677 16.3389,7.80808 16.11213,16.93333c-0.22677,9.12526 -7.80808,16.33891 -16.93332,16.11214z" data-paper-data="{&quot;index&quot;:null}" fill="#000000" stroke="none" stroke-width="0" stroke-linecap="butt"/><path d="M278.57097,158.4262c0.32216,-12.96399 11.09273,-23.21225 24.05672,-22.89009c12.96399,0.32216 23.21225,11.09273 22.89009,24.05672c0,0 -46.97741,0.06454 -46.94682,-1.16663z" fill="#ecec68" stroke="#000000" stroke-width="2" stroke-linecap="butt"/><path d="M332.89597,159.77617c0.32216,-12.96399 11.09273,-23.21225 24.05672,-22.89009c12.96399,0.32216 23.21224,11.09273 22.89009,24.05672c-0.03015,1.21343 -46.94682,-1.16663 -46.94682,-1.16663z" data-paper-data="{&quot;index&quot;:null}" fill="#ecec68" stroke="#000000" stroke-width="2" stroke-linecap="butt"/><path d="M292.00372,129.94264c0,0 6.83529,-5.00096 11.95165,-6.06852c5.11637,-1.06755 12.31295,1.00557 12.31295,1.00557c0,0 -8.03415,-0.25995 -11.98535,0.5645c-4.12916,0.86158 -12.27926,4.49845 -12.27926,4.49845z" fill="#000000" stroke="none" stroke-width="0" stroke-linecap="butt"/><path d="M265.8404,157.73407c0.01809,-0.72777 3.81589,56.03147 61.92652,58.49074c55.52228,2.34972 64.93367,-56.35742 64.90836,-55.33889c-0.81495,32.79467 -29.86856,58.67443 -64.89304,57.80407c-35.02447,-0.87035 -62.75679,-28.16125 -61.94185,-60.95592z" fill="#a0a047" stroke="#000000" stroke-width="0" stroke-linecap="butt"/><path d="M356.03777,126.73031c-3.90538,-1.01969 -11.94251,-1.15911 -11.94251,-1.15911c0,0 7.29067,-1.71311 12.3477,-0.39275c5.05702,1.32036 11.63548,6.65466 11.63548,6.65466c0,0 -7.95941,-4.03719 -12.04067,-5.1028z" data-paper-data="{&quot;index&quot;:null}" fill="#000000" stroke="none" stroke-width="0" stroke-linecap="butt"/><path d="M261.7534,157.44409c9.07654,-6.48389 11.33639,1.11617 2.26019,7.60053c-10.58061,7.55915 -10.45693,23.55777 -17.18774,20.89223c-7.5988,-3.00928 6.44618,-22.43403 14.92757,-28.49275z" data-paper-data="{&quot;index&quot;:null}" fill="#60602a" stroke="#000000" stroke-width="2" stroke-linecap="butt"/><path d="M278.61049,158.12714l-3.5343,-2.68863" fill="none" stroke="#000000" stroke-width="2" stroke-linecap="round"/><path d="M275.19046,109.13507c17.67968,-16.56645 45.79806,-24.76061 50.78399,-15.3554c3.94046,7.43309 -20.73612,2.43106 -44.29822,26.98283c-20.06521,20.90802 -17.7095,51.97549 -30.64106,48.23625c-12.7703,-3.69261 12.22545,-48.68502 24.1553,-59.86368z" fill="#b1b14e" stroke="#000000" stroke-width="2" stroke-linecap="butt"/><path d="M276.62536,117.80182c15.5463,-18.58306 42.46724,-30.11781 48.55407,-21.38466c4.81053,6.90197 -20.28988,4.92111 -40.70966,32.14234c-17.38924,23.18128 -11.29343,53.7358 -24.58231,51.588c-13.12316,-2.12103 6.24759,-49.80622 16.73789,-62.34567z" fill="#ecec68" stroke="#000000" stroke-width="2" stroke-linecap="butt"/><path d="M344.94525,94.28843c-0.24821,2.91457 -7.32298,4.53558 -15.80195,3.62059c-8.47898,-0.91498 -15.15135,-4.01945 -14.90314,-6.93402c0.24821,-2.91457 7.32298,-4.53557 15.80196,-3.62059c8.47898,0.91498 15.15134,4.01944 14.90314,6.93401z" fill="#ecec68" stroke="#000000" stroke-width="2" stroke-linecap="butt"/><path d="M403.509,177.17797c-13.16062,2.82937 -8.64652,-27.99856 -27.20655,-50.25351c-21.79461,-26.13344 -46.75969,-22.86251 -42.31101,-30.00305c5.62898,-9.03504 33.10826,1.0979 49.59099,18.85566c11.12217,11.98254 32.9231,58.60681 19.92659,61.4009z" data-paper-data="{&quot;index&quot;:null}" fill="#60602a" stroke="#000000" stroke-width="2" stroke-linecap="butt"/><path d="M379.38433,160.43131l4.28317,-3.29461" fill="none" stroke="#000000" stroke-width="2" stroke-linecap="round"/><path d="M312.27236,196.61268c0,0 6.59022,-2.35972 15.98212,-2.03984c9.3919,0.31988 16.12133,2.71616 16.12133,2.71616" data-paper-data="{&quot;index&quot;:null}" fill="none" stroke="#000000" stroke-width="2" stroke-linecap="round"/><path d="M398.68945,187.10204c-13.41632,1.09993 -4.94506,-28.88302 -20.4644,-53.3556c-18.22398,-28.73758 -43.40244,-28.72962 -38.06588,-35.23342c6.75243,-8.22934 32.68676,5.37938 46.72912,25.1235c9.47547,13.32288 25.05016,62.37932 11.80115,63.46553z" data-paper-data="{&quot;index&quot;:null}" fill="#b1b14e" stroke="#000000" stroke-width="2" stroke-linecap="butt"/><path d="M279.55141,146.83814c7.11925,-8.58725 11.24543,-1.81656 4.12663,6.77107c-8.29875,10.01102 -4.09259,25.44734 -11.28098,24.5895c-8.11539,-0.96846 0.50192,-23.33639 7.15435,-31.36056z" data-paper-data="{&quot;index&quot;:null}" fill="#b1b14e" stroke="#000000" stroke-width="2" stroke-linecap="butt"/><path d="M270.073,145.01368c11.07366,-14.17741 21.11988,-25.61214 26.79283,-33.45302c7.10916,-9.8259 14.80936,-24.53133 21.8091,-21.12838c7.30959,3.55361 -0.90104,20.62621 -8.24409,30.77541c-5.64907,7.80785 -21.87609,21.16681 -32.89848,35.28009c-13.81409,17.68782 -5.78227,44.10717 -18.22673,42.98831c-14.04928,-1.26314 -0.30628,-40.28501 10.76739,-54.46242z" fill="#ecec68" stroke="#000000" stroke-width="2" stroke-linecap="butt"/><g stroke="#000000" stroke-width="2" stroke-linecap="butt"><path d="M270.04636,167.12971c0.05396,-2.17151 1.47281,-2.72108 3.20515,-2.67804c1.73234,0.04305 3.12213,0.66241 3.06817,2.83393c-0.05396,2.17151 -1.53125,5.07285 -3.26358,5.02981c-1.73234,-0.04305 -3.0637,-3.01418 -3.00974,-5.1857z" fill="#ecec68"/><path d="M275.94945,182.184c-0.05396,2.17151 -1.47281,2.72108 -3.20514,2.67804c-1.73234,-0.04305 -3.12214,-0.66241 -3.06817,-2.83393c0.05396,-2.17151 1.53125,-5.07285 3.26359,-5.02981c1.73234,0.04305 3.06369,3.01418 3.00973,5.1857z" fill="#ecec68"/><path d="M265.47075,177.6084c-2.17151,-0.05396 -2.72107,-1.47281 -2.67803,-3.20515c0.04305,-1.73234 0.66241,-3.12214 2.83393,-3.06817c2.17151,0.05396 5.07285,1.53125 5.02981,3.26359c-0.04305,1.73234 -3.01419,3.06369 -5.18571,3.00973z" fill="#ecec68"/><path d="M280.52505,171.70531c2.17151,0.05396 2.72108,1.47281 2.67804,3.20515c-0.04305,1.73234 -0.66241,3.12214 -2.83393,3.06818c-2.17151,-0.05396 -5.07285,-1.53125 -5.02981,-3.26359c0.04305,-1.73234 3.01418,-3.06369 5.1857,-3.00973z" fill="#ff80ee"/><path d="M265.58835,171.42142c-1.49734,-1.57365 -0.88266,-2.96553 0.37272,-4.16004c1.25539,-1.19451 2.67609,-1.73929 4.17341,-0.16564c1.49734,1.57365 2.5043,4.66982 1.2489,5.86431c-1.25539,1.19451 -4.29771,0.03501 -5.79505,-1.53864z" fill="#ecec68"/><path d="M280.40747,177.89229c1.49734,1.57365 0.88267,2.96553 -0.37272,4.16004c-1.25539,1.19451 -2.67609,1.73929 -4.17341,0.16564c-1.49734,-1.57365 -2.5043,-4.66982 -1.2489,-5.86431c1.25539,-1.19451 4.29771,-0.03501 5.79505,1.53864z" fill="#ff80ee"/><path d="M269.76246,182.0664c-1.57365,1.49734 -2.96552,0.88267 -4.16003,-0.37272c-1.19451,-1.25539 -1.73929,-2.67609 -0.16564,-4.17341c1.57365,-1.49734 4.66982,-2.5043 5.86431,-1.2489c1.19451,1.25539 0.03501,4.29771 -1.53864,5.79504z" fill="#ecec68"/><path d="M276.23335,167.24731c1.57365,-1.49734 2.96552,-0.88267 4.16003,0.37272c1.19451,1.25539 1.73929,2.67609 0.16564,4.17341c-1.57365,1.49734 -4.66982,2.5043 -5.86431,1.2489c-1.19451,-1.25539 -0.03501,-4.29771 1.53863,-5.79504z" fill="#ecec68"/><path d="M268.84734,174.4653c0.057,-2.29351 1.96244,-4.10656 4.25596,-4.04957c2.29351,0.057 4.10656,1.96245 4.04956,4.25596c-0.057,2.29351 -1.96245,4.10656 -4.25595,4.04956c-2.29351,-0.057 -4.10656,-1.96244 -4.04957,-4.25595z" fill="#b1b14e"/></g><path d="M349.65869,110.29982c0,0 21.68819,-10.63078 22.54688,-20.75922c0.49075,-5.78868 -7.92161,-15.59044 -8.21681,-25.84723c-0.38909,-13.51852 13.63043,-23.41315 13.63043,-23.41315c0,0 -3.60755,10.20114 -3.54522,22.74149c0.04968,9.99367 7.80965,13.79008 9.6182,26.92392c1.77122,12.86274 -11.99637,32.92389 -11.99637,32.92389c0,0 -4.09865,3.85595 -14.1059,-1.88598c-9.10036,-5.22159 -7.93121,-10.6837 -7.93121,-10.6837z" fill="#60602a" stroke="#000000" stroke-width="2" stroke-linecap="butt"/><path d="M282.01065,156.94015c7.5964,-16.30704 20.49445,-30.19602 24.25589,-39.11305c4.7137,-11.17451 8.90439,-27.2363 16.49067,-25.49711c7.92211,1.81617 3.76722,20.29927 -1.10158,31.84144c-3.74559,8.87948 -19.3772,21.70655 -26.93808,37.93957c-9.47586,20.34443 -1.38567,44.76185 -15.2862,42.36327c-10.92551,-1.88522 -5.01708,-31.22709 2.5793,-47.53412z" fill="#b1b14e" stroke="#000000" stroke-width="2" stroke-linecap="butt"/><path d="M334.1372,138.25244c-7.02859,-1.73435 2.35482,-14.69287 -1.87674,-26.98855c-3.6299,-10.54743 2.62035,-15.42619 6.25079,-4.87894c3.39239,9.85565 3.56091,33.82549 -4.37405,31.86749z" data-paper-data="{&quot;index&quot;:null}" fill="#b1b14e" stroke="#000000" stroke-width="2" stroke-linecap="butt"/><path d="M396.03916,158.66689c-12.64291,6.24426 -9.18104,-13.1291 -21.51962,-23.89928c-9.84507,-8.59364 -26.68994,-12.18536 -31.7089,-17.01534c-6.524,-6.27835 -15.91707,-18.99769 -8.78772,-22.86347c6.82714,-3.70191 15.844,7.35019 22.16018,13.42856c5.04019,4.85041 19.4987,10.07358 29.38964,18.70608c9.89094,8.63248 20.40346,26.73564 10.46641,31.64349z" data-paper-data="{&quot;index&quot;:null}" fill="#ecec68" stroke="#000000" stroke-width="2" stroke-linecap="butt"/><path d="M297.61713,141.02436c5.8759,-11.73985 17.2714,-22.05843 20.0943,-28.45852c3.53757,-8.02037 6.05267,-19.42003 13.77388,-18.58536c8.06302,0.87162 5.83243,13.95661 2.17848,22.24086c-2.81102,6.37314 -17.03343,16.08771 -22.88163,27.77422c-7.3294,14.64641 3.22439,31.25751 -10.84235,30.27728c-11.05614,-0.77044 -8.19858,-21.50862 -2.32268,-33.24847z" fill="#ecec68" stroke="#000000" stroke-width="2" stroke-linecap="butt"/><g data-paper-data="{&quot;index&quot;:null}" stroke="#1d1d0d" stroke-width="1.5" stroke-linecap="butt"><path d="M262.63105,67.61248l-5.72076,-18.20195l31.48762,-9.84651l5.72077,18.20196z" fill="#d0d05b"/><path d="M288.99296,110.52284l-9.80605,-30.17951l-14.51528,-14.26513l26.82698,-7.96824l-4.91542,20.03769l9.96961,30.99472z" fill="url(#color-1)"/><path d="M250.02369,53.62746l19.80474,-22.93883l29.75526,6.76774z" fill="#bfbf54"/><path d="M290.45291,59.08149l-24.12178,7.27623c0,0 2.68177,-10.48737 9.34283,-12.49664c6.66105,-2.00929 14.77895,5.22042 14.77895,5.22042z" fill="#ffff70"/></g><path d="M251.82923,149.2958c0.37903,-36.35893 34.89513,-65.39932 77.09383,-64.86353c42.1987,0.53579 76.10026,30.44491 75.72123,66.80383c-0.02189,2.09871 -0.15751,4.17303 -0.40178,6.21869c-6.15167,-0.40518 -12.31435,-0.94321 -18.38706,-1.07749c-42.63509,-0.94267 -85.26899,-1.97314 -127.89539,-3.24728c-1.05167,-0.03143 -2.03885,-0.83397 -3.07442,-0.66757c-0.50491,0.08114 -1.61628,0.64807 -2.923,1.40315c-0.1043,-1.51061 -0.14941,-3.03446 -0.13341,-4.56981z" fill="#bebe54" stroke="#000000" stroke-width="2" stroke-linecap="butt"/><path d="M252.92984,131.147l8.41985,-16.79602l136.43303,4.39068l6.60037,16.16896z" fill="#b9b952" stroke="#000000" stroke-width="2" stroke-linecap="butt"/><path d="M307.71518,147.51305l1.08065,-43.48657l41.31224,1.02661l-1.08065,43.48657z" fill="#d7d75f" stroke="#000000" stroke-width="2" stroke-linecap="butt"/></g></g></svg>