<svg version="1.1" xmlns="http://www.w3.org/2000/svg" xmlns:xlink="http://www.w3.org/1999/xlink" width="141.55131" height="271.26923" viewBox="0,0,141.55131,271.26923"><g transform="translate(-249.5261,-56.57692)"><g data-paper-data="{&quot;isPaintingLayer&quot;:true}" fill-rule="nonzero" stroke-linejoin="miter" stroke-miterlimit="10" stroke-dasharray="" stroke-dashoffset="0" style="mix-blend-mode: normal"><path d="M295.52305,178.24748c0,0 2.53763,83.65627 -30.09158,79.73761c-31.94687,-3.8367 -2.59948,-111.11263 -2.59948,-111.11263" data-paper-data="{&quot;index&quot;:null}" fill="#d9d960" stroke="#000000" stroke-width="2" stroke-linecap="round"/><path d="M377.77153,146.24338c0,0 29.34739,107.27593 -2.59948,111.11263c-32.62922,3.91866 -30.09158,-79.73761 -30.09158,-79.73761" data-paper-data="{&quot;index&quot;:null}" fill="#d9d960" stroke="#000000" stroke-width="2" stroke-linecap="round"/><path d="M286.70285,326.84614l15.14285,-137.42216l37.78325,-0.16457l13.57389,137.58674z" fill="#d9d960" stroke="#000000" stroke-width="2" stroke-linecap="butt"/><path d="M299.65308,219.08303l3.12142,-27.44194l35.83075,-0.14804l2.76735,27.2108c0,0 -7.51543,4.37362 -21.55904,4.7005c-12.48458,0.29059 -20.16049,-4.32133 -20.16049,-4.32133z" fill="#b4b44f" stroke="#000000" stroke-width="0" stroke-linecap="butt"/><path d="M256.99983,137.01705c0,-34.71131 28.7599,-62.85038 64.23702,-62.85038c35.47712,0 64.23702,28.13908 64.23702,62.85038c0,34.71131 -28.7599,62.85039 -64.23702,62.85039c-35.47712,0 -64.23702,-28.13909 -64.23702,-62.85039z" fill="#d9d960" stroke="#000000" stroke-width="2" stroke-linecap="butt"/><path d="M257.72291,137.07319c0,-0.7588 5.20666,58.28611 63.36046,59.34397c55.56352,1.01074 63.51358,-60.40593 63.51358,-59.34396c0,34.19322 -28.40173,61.91229 -63.43702,61.91229c-35.03529,0 -63.43702,-27.71908 -63.43702,-61.91229z" fill="#b4b44f" stroke="#000000" stroke-width="0" stroke-linecap="butt"/><path d="M270.55003,137.46472c0,-13.51685 10.51265,-24.47444 23.48065,-24.47444c12.968,0 23.48065,10.95759 23.48065,24.47444c0,13.51685 -10.51265,24.47444 -23.48065,24.47444c-12.968,0 -23.48065,-10.95758 -23.48065,-24.47444z" fill="#ffffff" stroke="#000000" stroke-width="2" stroke-linecap="butt"/><path d="M276.40836,133.40292c0,-9.51441 7.39976,-17.22736 16.52783,-17.22736c9.12808,0 16.52784,7.71296 16.52784,17.22736c0,9.51441 -7.39977,17.22736 -16.52784,17.22736c-9.12808,0 -16.52783,-7.71295 -16.52783,-17.22736z" fill="#ffffff" stroke="#000000" stroke-width="2" stroke-linecap="butt"/><path d="M296.27979,188.18574c0,0 10.19436,-29.02636 23.5727,-28.80033c16.22885,0.27415 22.66064,28.80033 22.66064,28.80033z" data-paper-data="{&quot;index&quot;:null}" fill="#000000" stroke="#000000" stroke-width="2" stroke-linecap="round"/><path d="M283.18773,102.23482c0,0 6.70895,-5.388 11.79721,-6.63288c5.08827,-1.24488 12.33413,0.72897 12.33413,0.72897c0,0 -8.03812,-0.06283 -11.96762,0.89855c-4.10648,1.00468 -12.16372,5.00536 -12.16372,5.00536z" fill="#000000" stroke="none" stroke-width="0" stroke-linecap="butt"/><path d="M347.12224,97.22947c-3.9295,-0.96139 -11.96762,-0.89856 -11.96762,-0.89856c0,0 7.24586,-1.97385 12.33413,-0.72897c5.08826,1.24488 11.79721,6.63288 11.79721,6.63288c0,0 -8.05724,-4.00067 -12.16372,-5.00536z" data-paper-data="{&quot;index&quot;:null}" fill="#000000" stroke="none" stroke-width="0" stroke-linecap="butt"/><path d="M270.49879,137.15208l-3.6,-2.71005" fill="none" stroke="#000000" stroke-width="2" stroke-linecap="round"/><path d="M371.29878,136.94359l4.2,-3.5439" fill="none" stroke="#000000" stroke-width="2" stroke-linecap="round"/><path d="M326.24703,138.27278c0,-13.51685 10.51265,-24.47444 23.48065,-24.47444c12.968,0 23.48065,10.95758 23.48065,24.47444c0,13.51685 -10.51265,24.47444 -23.48065,24.47444c-12.968,0 -23.48065,-10.95759 -23.48065,-24.47444z" fill="#ffffff" stroke="#000000" stroke-width="2" stroke-linecap="butt"/><path d="M349.98719,151.25937c-9.12807,0 -16.52783,-7.71295 -16.52783,-17.22736c0,-9.51441 7.39977,-17.22737 16.52783,-17.22737c9.12807,0 16.52783,7.71296 16.52783,17.22737c0,9.51441 -7.39977,17.22736 -16.52783,17.22736z" data-paper-data="{&quot;index&quot;:null}" fill="#ffffff" stroke="#000000" stroke-width="2" stroke-linecap="butt"/><g fill="#bebe3e" stroke="#000000" stroke-width="2" stroke-linecap="butt"><path d="M274.65794,92.2248c-4.93552,-5.9415 0.43338,-9.54123 0.43338,-9.54123c0,0 -5.19238,-0.79814 -5.73828,-7.60277c-0.70155,-8.74475 24.7999,-1.0414 24.7999,-1.0414l1.87034,7.31996c0,0 -16.82971,16.32556 -21.36534,10.86546z"/><path d="M305.90979,78.59949l-2.1914,-7.23033c0,0 17.82442,-19.79785 21.75359,-11.9541c3.05744,6.10353 -0.97081,9.47563 -0.97081,9.47563c0,0 6.45709,0.29849 5.31254,7.93725c-1.05182,7.01984 -23.90392,1.77156 -23.90392,1.77156z" data-paper-data="{&quot;index&quot;:null}"/><path d="M292.29263,78.22301c-1.15083,-4.12259 1.25826,-8.39755 5.38085,-9.54838c4.12259,-1.15083 8.39755,1.25827 9.54838,5.38085c1.15083,4.12259 -1.25826,8.39754 -5.38085,9.54837c-4.12259,1.15083 -8.39754,-1.25826 -9.54837,-5.38084z"/></g></g></g></svg>