<svg version="1.1" xmlns="http://www.w3.org/2000/svg" xmlns:xlink="http://www.w3.org/1999/xlink" width="213.96854" height="282.85257" viewBox="0,0,213.96854,282.85257"><defs><linearGradient x1="405.14132" y1="90.39784" x2="413.39298" y2="101.65988" gradientUnits="userSpaceOnUse" id="color-1"><stop offset="0" stop-color="#131308"/><stop offset="1" stop-color="#131308" stop-opacity="0"/></linearGradient><linearGradient x1="383.72815" y1="104.82591" x2="392.42474" y2="116.69519" gradientUnits="userSpaceOnUse" id="color-2"><stop offset="0" stop-color="#151509"/><stop offset="1" stop-color="#151509" stop-opacity="0"/></linearGradient><linearGradient x1="442.23271" y1="71.37312" x2="375.48245" y2="120.28084" gradientUnits="userSpaceOnUse" id="color-3"><stop offset="0" stop-color="#ffff70" stop-opacity="0"/><stop offset="1" stop-color="#ffff70"/></linearGradient><linearGradient x1="432.28529" y1="88.31528" x2="398.73138" y2="112.90012" gradientUnits="userSpaceOnUse" id="color-4"><stop offset="0" stop-color="#ffffff" stop-opacity="0"/><stop offset="1" stop-color="#ffffff"/></linearGradient><linearGradient x1="418.37143" y1="96.25517" x2="379.1482" y2="124.9939" gradientUnits="userSpaceOnUse" id="color-5"><stop offset="0" stop-color="#ffffff" stop-opacity="0"/><stop offset="1" stop-color="#ffffff"/></linearGradient><linearGradient x1="422.35938" y1="86.36734" x2="396.19888" y2="105.53506" gradientUnits="userSpaceOnUse" id="color-6"><stop offset="0" stop-color="#131308" stop-opacity="0"/><stop offset="1" stop-color="#131308"/></linearGradient><linearGradient x1="393.61581" y1="106.83962" x2="382.66842" y2="114.86074" gradientUnits="userSpaceOnUse" id="color-7"><stop offset="0" stop-color="#131308" stop-opacity="0"/><stop offset="1" stop-color="#131308"/></linearGradient></defs><g transform="translate(-265.03849,-33.09613)"><g data-paper-data="{&quot;isPaintingLayer&quot;:true}" fill-rule="nonzero" stroke-linejoin="miter" stroke-miterlimit="10" stroke-dasharray="" stroke-dashoffset="0" style="mix-blend-mode: normal"><path d="M292.81615,314.9487l15.14285,-131.8421l37.78325,-0.15789l13.57389,132z" fill="#959541" stroke="#000000" stroke-width="2" stroke-linecap="butt"/><path d="M305.76638,211.56133l3.12142,-26.32765l35.83075,-0.14203l2.76735,26.1059c0,0 -7.51543,4.19603 -21.55904,4.50964c-12.48458,0.27879 -20.16049,-4.14586 -20.16049,-4.14586z" fill="#7d7d37" stroke="#000000" stroke-width="0" stroke-linecap="butt"/><path d="M266.57366,133.36124c4.53718,-32.99132 36.70703,-55.81769 71.85333,-50.98413c35.1463,4.83356 59.95992,35.49667 55.42273,68.48798c-4.53718,32.99132 -36.70702,55.81769 -71.85333,50.98415c-35.1463,-4.83356 -59.95992,-35.49668 -55.42273,-68.48799z" fill="#959541" stroke="#000000" stroke-width="2" stroke-linecap="butt"/><path d="M267.28264,133.5131c0.09919,-0.7212 -2.46059,56.10733 55.01268,65.0359c54.91329,8.53087 70.81711,-48.75939 70.6783,-47.75002c-4.46947,32.4989 -36.22958,54.97489 -70.93817,50.20153c-34.70859,-4.77335 -59.22227,-34.9885 -54.75281,-67.4874z" fill="#7d7d37" stroke="#000000" stroke-width="0" stroke-linecap="butt"/><path d="M279.93903,135.63285c1.76682,-12.84708 13.61372,-21.82942 26.4608,-20.0626c12.84708,1.76682 21.82941,13.61372 20.06259,26.4608c-1.76681,12.84707 -13.61372,21.82941 -26.46079,20.06259c-12.84708,-1.76682 -21.82942,-13.61372 -20.0626,-26.46079z" fill="#ffffff" stroke="#000000" stroke-width="2" stroke-linecap="butt"/><path d="M289.17689,141.68905c1.24365,-9.04296 9.58259,-15.36556 18.62554,-14.1219c9.04296,1.24364 15.36555,9.58258 14.12189,18.62554c-1.24365,9.04296 -9.5826,15.36556 -18.62554,14.1219c-9.04296,-1.24364 -15.36554,-9.58258 -14.12188,-18.62554z" fill="#000000" stroke="none" stroke-width="0" stroke-linecap="butt"/><path d="M315.94739,178.8904l25.07323,-1.35093" fill="none" stroke="#000000" stroke-width="2" stroke-linecap="round"/><path d="M353.7541,169.48605c-12.84708,-1.76682 -21.82942,-13.61372 -20.0626,-26.4608c1.76681,-12.84707 13.61372,-21.82941 26.4608,-20.06259c12.84708,1.76682 21.82942,13.61372 20.0626,26.46079c-1.76681,12.84707 -13.61372,21.82942 -26.4608,20.0626z" data-paper-data="{&quot;index&quot;:null}" fill="#ffffff" stroke="#000000" stroke-width="2" stroke-linecap="butt"/><path d="M358.73733,155.86048c-9.04296,-1.24364 -15.36554,-9.58259 -14.12188,-18.62554c1.24365,-9.04296 9.58259,-15.36555 18.62554,-14.1219c9.04296,1.24364 15.36554,9.58258 14.12189,18.62554c-1.24365,9.04296 -9.5826,15.36556 -18.62554,14.1219z" data-paper-data="{&quot;index&quot;:null}" fill="#000000" stroke="none" stroke-width="0" stroke-linecap="butt"/><path d="M287.47282,109.02274c0,0 7.35067,-4.20696 12.5542,-4.69691c5.20355,-0.48994 12.12383,2.37331 12.12383,2.37331c0,0 -7.95494,-1.15487 -11.97347,-0.77649c-4.19952,0.39542 -12.70455,3.1001 -12.70455,3.1001z" fill="#000000" stroke="none" stroke-width="0" stroke-linecap="butt"/><path d="M360.37643,112.76821c-3.76719,-1.44912 -11.73858,-2.48455 -11.73858,-2.48455c0,0 7.4363,-0.88884 12.31441,0.9876c4.87808,1.87644 10.82021,7.91152 10.82021,7.91152c0,0 -7.45918,-4.90019 -11.39604,-6.41458z" data-paper-data="{&quot;index&quot;:null}" fill="#000000" stroke="none" stroke-width="0" stroke-linecap="butt"/><path d="M367.22241,100.56353c3.70696,-3.89502 30.06561,-23.90311 30.06561,-23.90311c0,0 -18.68025,27.31577 -22.3872,31.21079" fill="#804400" stroke="#000000" stroke-width="2" stroke-linecap="butt"/><g stroke="#000000"><path d="M474.86888,98.90307l-81.64385,69.52337c0,0 -19.86835,-14.41983 -36.79659,-42.12645c-16.46877,-26.95464 -20.66702,-44.6436 -20.66702,-44.6436l96.42022,-47.21106c0,0 14.17504,7.49491 27.97832,29.19543c13.39605,21.06029 14.70893,35.26233 14.70893,35.26233z" fill="#333333" stroke-width="2" stroke-linecap="butt"/><path d="M474.86888,98.90307l-81.64385,69.52337c0,0 -19.86835,-14.41983 -36.79659,-42.12645c-16.46877,-26.95464 -20.66702,-44.6436 -20.66702,-44.6436l96.42022,-47.21106c0,0 10.87151,23.711 17.91315,34.34388c7.18458,10.84871 24.77413,30.11388 24.77413,30.11388z" fill="#7d7d37" stroke-width="2" stroke-linecap="butt"/><path d="M393.23684,167.43618c0,0 -1.11124,27.58764 -29.35474,10.74497c-32.35835,-19.29649 -28.45502,-96.69135 -28.45502,-96.69135" fill="none" stroke-width="2" stroke-linecap="round"/><path d="M473.44553,98.79221l-80.22744,68.65036c0,0 -20.87586,-16.95205 -36.86561,-43.12266c-15.55575,-25.46029 -19.32505,-42.23486 -19.32505,-42.23486l12.67738,-6.20735c0,0 -4.87455,35.7879 27.85589,53.85861c30.48658,16.83185 95.88483,-30.94413 95.88483,-30.94413z" fill="#6c6c30" stroke-width="0" stroke-linecap="butt"/></g><g><g><g><path d="M352.94944,89.52732l89.50491,-17.8517l-44.43889,79.35874z" fill="#b4b44f" stroke="none" stroke-width="0" stroke-linecap="butt"/><path d="M410.39182,128.81452l3.55073,-51.51757l9.1221,-1.56621l-5.66108,40.70522z" fill="#cdcd51" stroke="none" stroke-width="0" stroke-linecap="butt"/><path d="M386.55289,134.85539l5.17635,-52.87271l14.13134,-2.80258l-10.77023,67.57197z" fill="#cdcd51" stroke="none" stroke-width="0" stroke-linecap="butt"/><path d="M397.12443,144.40398l-38.41694,-52.43223l77.74409,-16.05291z" fill="none" stroke="#717132" stroke-width="1.5" stroke-linecap="round"/></g><path d="M413.72058,101.40663c-6.80979,4.98951 -16.2514,6.1399 -17.67342,3.91718c-0.92301,-1.44273 2.35874,-10.0519 9.16853,-15.04142c6.80979,-4.98951 12.32688,-10.48913 16.98997,-4.12484c4.66309,6.36429 -1.67529,10.25956 -8.48509,15.24907z" fill="#6d6d30" stroke="none" stroke-width="0" stroke-linecap="butt"/><path d="M392.49041,116.78482c-3.02303,2.21497 -7.42048,1.35353 -9.82199,-1.92409c-2.4015,-3.27761 -1.89764,-7.73023 1.1254,-9.9452c3.02304,-2.21497 7.42049,-1.35354 9.82199,1.92408c2.4015,3.27761 1.89764,7.73023 -1.1254,9.94521z" fill="#6d6d30" stroke="none" stroke-width="0" stroke-linecap="butt"/><path d="M413.67285,101.44171c-6.73979,4.93823 -16.09091,6.06785 -17.50203,3.86293c-0.91594,-1.4312 2.32505,-9.9615 9.06484,-14.89972c6.73979,-4.93823 12.19853,-10.38357 16.8248,-4.06954c4.62627,6.31403 -1.64782,10.16812 -8.38761,15.10634z" fill="url(#color-1)" stroke="none" stroke-width="0" stroke-linecap="butt"/><path d="M392.42474,116.69519c-3.02303,2.21497 -7.42048,1.35353 -9.82199,-1.92409c-2.4015,-3.27761 -1.89764,-7.73023 1.1254,-9.9452c3.02304,-2.21497 7.42049,-1.35354 9.82199,1.92408c2.4015,3.27761 1.89764,7.73023 -1.1254,9.94521z" fill="url(#color-2)" stroke="none" stroke-width="0" stroke-linecap="butt"/></g><g stroke="none" stroke-width="0" stroke-linecap="butt"><path d="M352.94944,89.52732l89.50491,-17.8517l-44.43889,79.35874z" fill="url(#color-3)"/><path d="M410.39182,128.81452l3.55073,-51.51757l9.1221,-1.56621l-5.66108,40.70522z" fill="url(#color-4)"/><path d="M386.63732,134.97063l5.17635,-52.87271l14.13134,-2.80258l-10.77023,67.57197z" fill="url(#color-5)"/><path d="M413.72058,101.40663c-6.80979,4.98951 -16.2514,6.1399 -17.67342,3.91718c-0.92301,-1.44273 2.35874,-10.0519 9.16853,-15.04142c6.80979,-4.98951 12.32688,-10.48913 16.98997,-4.12484c4.66309,6.36429 -1.67529,10.25956 -8.48509,15.24907z" fill="url(#color-6)"/><path d="M392.49041,116.78482c-3.02303,2.21497 -7.42048,1.35353 -9.82199,-1.92409c-2.4015,-3.27761 -1.89764,-7.73023 1.1254,-9.9452c3.02304,-2.21497 7.42049,-1.35354 9.82199,1.92408c2.4015,3.27761 1.89764,7.73023 -1.1254,9.94521z" fill="url(#color-7)"/></g></g></g></g></svg>