<svg version="1.1" xmlns="http://www.w3.org/2000/svg" xmlns:xlink="http://www.w3.org/1999/xlink" width="222.87184" height="271.28976" viewBox="0,0,222.87184,271.28976"><g transform="translate(-207.33631,-51.33877)"><g data-paper-data="{&quot;isPaintingLayer&quot;:true}" fill-rule="nonzero" stroke-linejoin="miter" stroke-miterlimit="10" stroke-dasharray="" stroke-dashoffset="0" style="mix-blend-mode: normal"><path d="M269.63239,165.12192l-60.0629,-91.67332l80.49159,19.95026" fill="#d9d97d" stroke="#000000" stroke-width="2" stroke-linecap="round"/><path d="M354.09138,90.24042l74.2786,-36.87273l-38.83358,102.48659" data-paper-data="{&quot;index&quot;:null}" fill="#d9d97d" stroke="#000000" stroke-width="2" stroke-linecap="round"/><path d="M294.88451,193.73225l-34.02476,1.52195l13.81458,-21.87697l-33.51204,-3.22304l24.29016,-14.58649" fill="#d9d97d" stroke="#000000" stroke-width="2" stroke-linecap="round"/><path d="M293.3798,190.65925l-31.26987,3.15088l12.20984,-22.60909l-31.60918,-1.36701l4.08565,-3.05103l27.49632,4.44964l-9.7443,18.0802z" fill="#b6b14b" stroke="none" stroke-width="0" stroke-linecap="round"/><path d="M383.67459,164.91118l22.79998,16.82079l-33.66665,0.03561l11.6812,23.08667l-33.7278,-4.7366" data-paper-data="{&quot;index&quot;:null}" fill="#d9d97d" stroke="#000000" stroke-width="2" stroke-linecap="round"/><path d="M382.52237,199.58009l-8.63156,-18.63709l27.7153,-2.77643l3.89339,3.29284l-31.63395,-0.5496l10.81833,23.30696l-31.02169,-5.03866z" data-paper-data="{&quot;index&quot;:null}" fill="#b6b14b" stroke="none" stroke-width="0" stroke-linecap="round"/><path d="M286.35186,321.62853l15.14285,-131.8421l37.78325,-0.15789l13.57389,132z" fill="#d9d97d" stroke="#000000" stroke-width="2" stroke-linecap="butt"/><path d="M299.88496,217.65831l3.12142,-26.32765l35.83075,-0.14203l2.76735,26.1059c0,0 -7.51543,4.19603 -21.55904,4.50964c-12.48458,0.27879 -20.16049,-4.14586 -20.16049,-4.14586z" fill="#b6b14b" stroke="#000000" stroke-width="0" stroke-linecap="butt"/><path d="M262.27784,145.05175c-0.7844,-33.29262 27.33165,-60.95902 62.79893,-61.79465c35.46728,-0.83564 64.85508,25.47593 65.63947,58.76855c0.7844,33.29262 -27.33164,60.95902 -62.79892,61.79466c-35.46728,0.83563 -64.85507,-25.47594 -65.63947,-58.76856z" fill="#d9d97d" stroke="#000000" stroke-width="2" stroke-linecap="butt"/><path d="M329.93648,201.35441c22.72924,-1.21135 38.49566,-12.99843 37.57294,-12.24061c-10.07779,8.27681 -22.98524,13.67783 -37.32252,14.6931c-14.19893,1.00547 -27.61566,-2.44527 -38.69737,-9.0918c-0.4205,-0.2522 15.7177,7.85069 38.44695,6.63932z" fill="#b6b14b" stroke="#000000" stroke-width="0" stroke-linecap="butt"/><path d="M275.90769,145.00633c-0.30544,-12.96442 9.95666,-23.72175 22.92107,-24.0272c12.96442,-0.30544 23.72175,9.95665 24.02721,22.92106c0.30544,12.96442 -9.95665,23.72175 -22.92108,24.02722c-12.96442,0.30544 -23.72176,-9.95666 -24.02721,-22.92108z" fill="#c5c556" stroke="#000000" stroke-width="2" stroke-linecap="butt"/><path d="M344.20574,177.91076c0,0 -14.00614,25.49563 -22.59574,24.8963c-8.58959,-0.59933 -21.37914,-27.96454 -21.37914,-27.96454z" fill="#000000" stroke="#000000" stroke-width="2" stroke-linecap="round"/><path d="M354.17828,166.64941c-12.96442,0.30544 -23.72175,-9.95667 -24.02719,-22.92108c-0.30544,-12.96442 9.95665,-23.72175 22.92106,-24.0272c12.96442,-0.30544 23.72176,9.95664 24.02722,22.92107c0.30544,12.96442 -9.95666,23.72176 -22.92109,24.02721z" data-paper-data="{&quot;index&quot;:null}" fill="#ffffff" stroke="#000000" stroke-width="2" stroke-linecap="butt"/><path d="M274.09305,133.62951l3.7444,2.38735" fill="none" stroke="#000000" stroke-width="2" stroke-linecap="round"/><path d="M376.61674,142.13348l4.11875,-3.49798" fill="none" stroke="#000000" stroke-width="2" stroke-linecap="round"/><path d="M287.86332,115.90818c0,0 6.58533,-5.32581 11.64404,-6.63965c5.05872,-1.31384 12.34718,0.40866 12.34718,0.40866c0,0 -8.03731,0.12906 -11.944,1.14371c-4.08264,1.06035 -12.04723,5.08728 -12.04723,5.08728z" fill="#000000" stroke="none" stroke-width="0" stroke-linecap="butt"/><path d="M351.66701,109.60149c-3.95014,-0.82953 -11.98461,-0.57994 -11.98461,-0.57994c0,0 7.19924,-2.06384 12.31423,-0.9897c5.11498,1.07415 11.94383,6.0839 11.94383,6.0839c0,0 -8.14541,-3.64737 -12.27346,-4.51427z" data-paper-data="{&quot;index&quot;:null}" fill="#000000" stroke="none" stroke-width="0" stroke-linecap="butt"/><path d="M367.9435,146.80263c-1.34712,8.1896 -9.07815,13.73652 -17.26774,12.38939c-8.18958,-1.34712 -13.7365,-9.07818 -12.38938,-17.26776c1.34712,-8.1896 9.07817,-13.73652 17.26775,-12.38939c8.18958,1.34712 13.7365,9.07817 12.38937,17.26775z" data-paper-data="{&quot;index&quot;:null}" fill="none" stroke="#000000" stroke-width="5" stroke-linecap="butt"/></g></g></svg>