<svg version="1.1" xmlns="http://www.w3.org/2000/svg" xmlns:xlink="http://www.w3.org/1999/xlink" width="151.16724" height="275.26517" viewBox="0,0,151.16724,275.26517"><g transform="translate(-218.87249,-36.22661)"><g data-paper-data="{&quot;isPaintingLayer&quot;:true}" fill-rule="nonzero" stroke-linejoin="miter" stroke-miterlimit="10" stroke-dasharray="" stroke-dashoffset="0" style="mix-blend-mode: normal"><path d="M277.88034,308.12803l15.14285,-131.8421l37.78325,-0.15789l13.57389,132z" fill="#000000" stroke="#ffffff" stroke-width="2" stroke-linecap="butt"/><path d="M331.95077,192.08227l-11.93302,30.77462l-9.4208,88.55554l-8.16469,-89.18359l-12.56107,-29.51852z" fill="#ffffff" stroke="#ffffff" stroke-width="1.5" stroke-linecap="round"/><path d="M316.40311,240.27248l-5.44177,9.94271l-6.75138,-13.47381l5.6862,-31.29142l-2.28077,-8.73814l9.15427,-0.32669l-3.02631,9.71367z" fill="#000000" stroke="none" stroke-width="0" stroke-linecap="butt"/><path d="M327.53572,113.86636c0.44862,3.97015 -1.03904,6.8482 -0.54463,10.72774c0.67646,5.3081 1.40115,9.14851 1.7999,15.18331c0.44276,6.70083 -2.50043,10.1769 -6.65657,16.71207c-3.90308,6.13724 -7.95099,12.18476 -11.70475,12.84484c-3.90056,0.6859 -7.7076,-2.15812 -14.54983,-6.67463c-6.84222,-4.5165 -10.34958,-6.6321 -12.62651,-12.48597c-3.64852,-9.38015 -4.03786,-12.47846 -5.21854,-15.32665c-1.18068,-2.84819 -3.98274,-6.20677 -5.47561,-11.69212c-1.36368,-5.39703 -7.16853,-26.1303 -4.76453,-28.35205c2.03686,-1.88245 4.50311,0.20365 13.58779,2.04406c7.2945,1.70458 15.30662,1.85 15.30662,1.85c0,0 -3.19168,-2.45342 -4.78836,-3.71965c-1.50189,-1.19105 -4.19437,-3.73006 -4.19437,-3.73006c0,0 13.60153,4.59872 21.97735,5.40329c10.90228,1.04724 14.25838,0.43863 14.25838,0.43863c0,0 2.77219,9.50742 3.59369,16.77718z" data-paper-data="{&quot;index&quot;:null}" fill="#5a5a07" stroke="none" stroke-width="0" stroke-linecap="butt"/><path d="M277.43734,107.08194c0,0 2.98597,-1.34076 7.83043,-2.12028c4.67842,-0.75279 8.07308,0.32506 8.07308,0.32506l0.83984,4.09178c0,0 -4.04135,-1.54424 -10.31634,-0.86482c-7.84789,0.84976 -14.36932,5.30225 -14.36932,5.30225l-0.0312,-1.18609c0,0 1.7245,-1.37373 4.03611,-2.55895c2.53081,-1.2976 3.96671,-1.89995 3.96671,-1.89995z" data-paper-data="{&quot;index&quot;:null}" fill="#5a5a07" stroke="none" stroke-width="0" stroke-linecap="butt"/><path d="M298.17879,147.94353c0.38818,-0.23645 4.22624,-0.91832 5.45672,-0.79496c1.23047,0.12336 2.72611,1.61531 2.72611,1.61531c0.23864,-0.0702 -0.05855,-1.56868 2.55684,-3.0107c2.44089,-1.3458 7.35901,-2.01641 7.35901,-2.01641c0,0 4.40351,0.15325 5.62293,0.42271c3.03196,0.10891 6.95499,-0.05615 6.96487,0.07042c0.00734,0.09385 -5.22817,1.75298 -9.88575,3.70374c-5.81132,2.43401 -12.5644,4.92649 -12.5644,4.92649c0,0 -3.96675,0.39619 -6.70071,0.58023c-3.26243,0.21961 -13.48489,2.1868 -13.54967,1.98275c-0.05103,-0.16079 3.91434,-2.03673 6.59435,-3.7847c2.65883,-1.73416 4.90006,-3.37832 5.41971,-3.69486z" data-paper-data="{&quot;index&quot;:null}" fill="#5a5a07" stroke="none" stroke-width="0" stroke-linecap="butt"/><path d="M317.35258,148.86485c4.80268,-1.97692 11.63297,-4.68716 11.70231,-4.52833c0.06934,0.15884 -6.06184,16.32092 -19.49677,19.36933c-11.80917,2.75097 -23.10359,-7.82873 -23.13046,-8.19477c-0.02749,-0.37438 9.0546,-1.63533 11.11797,-1.81536c2.66147,-0.23222 8.64151,0.1933 8.64151,0.1933c0,0 6.36277,-3.04727 11.16544,-5.02418z" data-paper-data="{&quot;index&quot;:null}" fill="#5a5a07" stroke="none" stroke-width="0" stroke-linecap="butt"/><path d="M306.00916,148.0145c-2.42641,0.47039 -4.16787,-1.09172 -4.90853,-4.14474c-0.87272,-3.59742 0.73276,-4.40857 3.15918,-4.87895c2.42641,-0.47039 4.30624,1.14755 4.44602,3.03735c0.15624,2.11215 -1.68181,5.7896 -2.69668,5.98634z" data-paper-data="{&quot;index&quot;:null}" fill="#5a5a07" stroke="none" stroke-width="0" stroke-linecap="butt"/><path d="M303.46985,117.90303c0,0 -0.10222,2.61668 0.20802,5.78059c0.32729,3.3378 2.04019,12.25741 2.98689,19.41876c0.69941,5.29064 0.70529,9.53993 0.70529,9.53993l-2.92882,0.55898c0,0 -4.96713,-20.9471 -6.34507,-27.04748c-0.69588,-3.08073 -1.35067,-6.99746 -1.35067,-6.99746" data-paper-data="{&quot;index&quot;:null}" fill="#5a5a07" stroke="none" stroke-width="0" stroke-linecap="round"/><path d="M327.79379,124.12802c0,0 0.02353,-4.72331 -0.10375,-10.78871c-0.12727,-6.06541 0.11901,-8.7983 2.07416,-8.91335c1.95514,-0.11507 2.5527,3.83333 2.373,9.71792c-0.17079,5.5927 -4.3434,9.98413 -4.3434,9.98413z" data-paper-data="{&quot;index&quot;:null}" fill="#5a5a07" stroke="none" stroke-width="0" stroke-linecap="butt"/><path d="M327.32104,109.26805c0,0 2.37758,-1.27898 2.55129,1.82802c0.31141,5.56976 -2.63093,9.11798 -2.63093,9.11798" data-paper-data="{&quot;index&quot;:null}" fill="#5a5a07" stroke="none" stroke-width="0" stroke-linecap="round"/><path d="M315.23455,124.92802c-5.26,1.09905 -9.98124,-1.96085 -10.98188,-6.74982c-1.00064,-4.78898 1.79307,-9.57872 7.05306,-10.67778c5.26,-1.09905 10.70996,1.96392 11.71061,6.75289c1.00065,4.78898 -2.52179,9.57565 -7.78178,10.67471z" data-paper-data="{&quot;index&quot;:null}" fill="#5a5a07" stroke="none" stroke-width="0" stroke-linecap="butt"/><path d="M314.81439,121.12478c-2.70039,0.56424 -5.34688,-1.16744 -5.91112,-3.86784c-0.56423,-2.70038 1.16744,-5.34688 3.86784,-5.91112c2.70038,-0.56423 5.34688,1.16744 5.91112,3.86784c0.56423,2.70038 -1.16744,5.34688 -3.86784,5.91112z" data-paper-data="{&quot;index&quot;:null}" fill="#5a5a07" stroke="none" stroke-width="0" stroke-linecap="butt"/><path d="M289.02003,130.1567c-5.72101,1.03692 -10.33111,-2.32579 -11.26222,-7.12877c-0.93111,-4.80298 2.19845,-9.44959 7.41909,-10.46167c5.22064,-1.01208 10.14771,2.07697 11.27783,6.83706c1.18023,4.9712 -1.99297,9.76709 -7.43469,10.75338z" data-paper-data="{&quot;index&quot;:null}" fill="#5a5a07" stroke="none" stroke-width="0" stroke-linecap="butt"/><path d="M287.91362,126.34451c-2.76695,0.5364 -5.44481,-1.2718 -5.98122,-4.03873c-0.5364,-2.76694 1.2718,-5.44481 4.03873,-5.98122c2.76694,-0.5364 5.44481,1.2718 5.98122,4.03873c0.5364,2.76694 -1.2718,5.44481 -4.03873,5.98122z" data-paper-data="{&quot;index&quot;:null}" fill="#5a5a07" stroke="none" stroke-width="0" stroke-linecap="butt"/><path d="M303.30481,118.12569c0,0 -1.67582,-9.08855 7.59052,-11.05388c10.30874,-2.19223 12.08689,6.64602 12.08689,6.64602z" data-paper-data="{&quot;index&quot;:null}" fill="#5a5a07" stroke="none" stroke-width="0" stroke-linecap="butt"/><path d="M276.48772,123.42397c0,0 -1.93798,-9.11662 7.53527,-11.29279c11.16824,-2.5267 12.72596,6.80561 12.72596,6.80561z" data-paper-data="{&quot;index&quot;:null}" fill="#5a5a07" stroke="none" stroke-width="0" stroke-linecap="butt"/><path d="M318.18391,105.55042c0,0 2.73154,0.30633 4.08157,0.16429c1.63568,-0.17211 5.15106,-0.92896 5.15106,-0.92896l0.20897,1.21397c0,0 -2.99211,0.81823 -6.64432,1.12628c-4.26234,0.35951 -5.52666,-0.63769 -11.05848,0.21741c-4.13633,0.63938 -7.77222,2.03757 -7.77222,2.03757l-0.49775,-4.11801c0,0 2.46872,-0.93345 7.63886,-1.41337c4.66566,-0.4331 8.31989,0.71136 8.31989,0.71136z" data-paper-data="{&quot;index&quot;:null}" fill="#5a5a07" stroke="none" stroke-width="0" stroke-linecap="butt"/><path d="M272.53235,124.03224c2.14845,5.67358 3.93528,10.04593 3.93528,10.04593c0,0 -5.51132,-2.5141 -7.75961,-7.63783c-2.36563,-5.39115 -3.2868,-9.27681 -1.43029,-9.90068c1.85652,-0.62387 3.10618,1.819 5.25464,7.49258z" data-paper-data="{&quot;index&quot;:null}" fill="#5a5a07" stroke="none" stroke-width="0" stroke-linecap="butt"/><path d="M275.51743,130.24133c0,0 -4.05508,-2.19168 -5.84754,-7.47433c-0.9999,-2.94684 1.68337,-2.64895 1.68337,-2.64895" data-paper-data="{&quot;index&quot;:null}" fill="#5a5a07" stroke="none" stroke-width="0" stroke-linecap="round"/><path d="M316.4059,199.83191c-34.82869,6.75194 -68.20085,-14.27758 -74.53879,-46.97076c-6.33794,-32.69316 16.75837,-64.66976 51.58706,-71.4217c34.82869,-6.75194 68.20085,14.27758 74.53879,46.97076c6.33794,32.69316 -16.75837,64.66976 -51.58706,71.4217z" data-paper-data="{&quot;index&quot;:null}" fill="#ffffff" stroke="#000000" stroke-width="2" stroke-linecap="butt"/><path d="M316.25694,198.65931c-34.39493,6.66785 -67.33878,-14.03426 -73.58213,-46.23946c-0.19391,-1.00023 18.82493,55.33261 73.18834,43.80589c56.89774,-12.06407 51.22821,-68.667 51.36676,-67.95232c6.24335,32.2052 -16.57804,63.71804 -50.97297,70.38589z" data-paper-data="{&quot;index&quot;:null}" fill="#dedeaf" stroke="#000000" stroke-width="0" stroke-linecap="butt"/><g data-paper-data="{&quot;index&quot;:null}" stroke="#000000" stroke-width="2.5" stroke-linecap="butt"><path d="M288.9487,80.21222c40.437,-10.25897 75.2477,-10.57392 77.75186,-0.70348c2.50415,9.87043 -28.2465,26.18856 -68.6835,36.44754c-40.437,10.25897 -75.2477,10.57392 -77.75186,0.70348c-2.50415,-9.87043 28.2465,-26.18856 68.6835,-36.44754z" fill="#e2e2e2"/><path d="M338.94554,86.20547c0,0 -14.40646,7.52683 -45.41456,16.16714c-34.69759,9.66837 -45.6751,6.94254 -45.6751,6.94254l-11.62629,-45.82647c0,0 4.69433,-13.25234 41.58062,-21.87211c36.49286,-8.5279 49.50904,-1.23757 49.50904,-1.23757l11.62629,45.82647z" fill="#ffffff"/></g><path d="M326.42518,137.04404c-2.71095,0.52555 -5.33465,-1.24607 -5.8602,-3.95702c-0.52555,-2.71095 1.24607,-5.33465 3.95702,-5.8602c2.71095,-0.52555 5.33465,1.24607 5.8602,3.95702c0.52555,2.71095 -1.24607,5.33465 -3.95702,5.8602z" data-paper-data="{&quot;index&quot;:null}" fill="#000000" stroke="none" stroke-width="0.5" stroke-linecap="butt"/><path d="M289.58009,140.09012c-2.71095,0.52555 -5.33465,-1.24607 -5.8602,-3.95702c-0.52555,-2.71095 1.24607,-5.33465 3.95702,-5.8602c2.71095,-0.52555 5.33465,1.24607 5.8602,3.95702c0.52555,2.71095 -1.24607,5.33465 -3.95702,5.8602z" data-paper-data="{&quot;index&quot;:null}" fill="#000000" stroke="none" stroke-width="0.5" stroke-linecap="butt"/><path d="M344.10019,149.26488c0,0 -17.00252,16.669 -31.61879,19.85413c-14.61627,3.18515 -36.42965,-5.02519 -36.42965,-5.02519" data-paper-data="{&quot;index&quot;:null}" fill="none" stroke="#000000" stroke-width="4" stroke-linecap="round"/></g></g></svg>