<svg version="1.1" xmlns="http://www.w3.org/2000/svg" xmlns:xlink="http://www.w3.org/1999/xlink" width="171.28838" height="225.63792" viewBox="0,0,171.28838,225.63792"><g transform="translate(-234.35582,-73.74517)"><g data-paper-data="{&quot;isPaintingLayer&quot;:true}" fill-rule="nonzero" stroke-linejoin="miter" stroke-miterlimit="10" stroke-dasharray="" stroke-dashoffset="0" style="mix-blend-mode: normal"><path d="M346.1936,101.80447c8.3699,-8.52236 57.87822,-26.42725 57.87822,-26.42725c0,0 -15.43499,48.22139 -23.80489,56.74375c-8.3699,8.52236 -22.78262,8.64452 -32.19171,0.27286c-9.40909,-8.37166 -10.25152,-22.06698 -1.88162,-30.58934z" data-paper-data="{&quot;index&quot;:null}" fill="#9b9b44" stroke="#000000" stroke-width="2" stroke-linecap="butt"/><path d="M291.92479,132.39382c-9.40909,8.37166 -23.82181,8.2495 -32.19171,-0.27286c-8.3699,-8.52236 -23.80489,-56.74375 -23.80489,-56.74375c0,0 49.50832,17.90489 57.87822,26.42725c8.3699,8.52236 7.52747,22.21768 -1.88162,30.58934z" data-paper-data="{&quot;index&quot;:null}" fill="#9b9b44" stroke="#000000" stroke-width="2" stroke-linecap="butt"/><path d="M286.95926,298.38307l14.13506,-114.45801l39.79883,-2.06874l12.5661,116.52677z" fill="#9b9b44" stroke="#000000" stroke-width="2" stroke-linecap="butt"/><path d="M299.90951,199.97754l1.60973,-12.10942l37.34244,-0.13518l2.76735,11.89836c0,0 -7.51543,3.99384 -21.55904,4.29234c-12.48458,0.26535 -20.16049,-3.94609 -20.16049,-3.94609z" fill="#6e6e30" stroke="#000000" stroke-width="0" stroke-linecap="butt"/><path d="M255.97223,137.82301c0,-31.69717 28.7599,-57.39279 64.23702,-57.39279c35.47713,0 64.23702,25.69562 64.23702,57.39279c0,31.69717 -28.75989,57.3928 -64.23702,57.3928c-35.47712,0 -64.23702,-25.69563 -64.23702,-57.3928z" fill="#9b9b44" stroke="#000000" stroke-width="2" stroke-linecap="butt"/><path d="M269.59937,139.27512c0,-12.34313 10.51265,-22.34921 23.48066,-22.34921c12.96801,0 23.48065,10.00607 23.48065,22.34921c0,12.34313 -10.51264,22.34922 -23.48065,22.34922c-12.96801,0 -23.48066,-10.00608 -23.48066,-22.34922z" fill="#000000" stroke="#000000" stroke-width="2" stroke-linecap="butt"/><path d="M269.59937,138.08536c0,-12.34313 10.51265,-22.34921 23.48066,-22.34921c12.96801,0 23.48065,10.00608 23.48065,22.34921c0,12.34313 -10.51264,22.34922 -23.48065,22.34922c-12.96801,0 -23.48066,-10.00608 -23.48066,-22.34922z" fill="#000000" stroke="#000000" stroke-width="2" stroke-linecap="butt"/><path d="M333.83363,175.08894h-25.1096" fill="none" stroke="#000000" stroke-width="2" stroke-linecap="round"/><path d="M347.33847,161.62434c-12.96801,0 -23.48065,-10.00608 -23.48065,-22.34922c0,-12.34313 10.51264,-22.34921 23.48065,-22.34921c12.96801,0 23.48066,10.00607 23.48066,22.34921c0,12.34313 -10.51265,22.34922 -23.48066,22.34922z" data-paper-data="{&quot;index&quot;:null}" fill="#000000" stroke="#000000" stroke-width="2" stroke-linecap="butt"/><path d="M347.33847,160.43458c-12.96801,0 -23.48065,-10.00608 -23.48065,-22.34922c0,-12.34313 10.51264,-22.34921 23.48065,-22.34921c12.96801,0 23.48066,10.00608 23.48066,22.34921c0,12.34313 -10.51265,22.34922 -23.48066,22.34922z" data-paper-data="{&quot;index&quot;:null}" fill="#000000" stroke="#000000" stroke-width="2" stroke-linecap="butt"/><path d="M256.77226,137.72782c0,-0.69291 5.20666,53.22486 63.36046,54.19085c55.56352,0.92297 63.51358,-55.16061 63.51358,-54.19085c0,31.22406 -28.40173,56.53616 -63.43702,56.53616c-35.03529,0 -63.43702,-25.31211 -63.43702,-56.53616z" fill="#6e6e30" stroke="#000000" stroke-width="0" stroke-linecap="butt"/><path d="M282.23707,110.66506c0,0 6.70895,-4.92014 11.79721,-6.05692c5.08827,-1.13678 12.33413,0.66567 12.33413,0.66567c0,0 -8.03812,-0.05737 -11.96762,0.82053c-4.10648,0.91744 -12.16372,4.57072 -12.16372,4.57072z" fill="#000000" stroke="none" stroke-width="0" stroke-linecap="butt"/><path d="M346.17161,106.09435c-3.9295,-0.87791 -11.96762,-0.82053 -11.96762,-0.82053c0,0 7.24586,-1.80245 12.33413,-0.66567c5.08826,1.13678 11.79721,6.05692 11.79721,6.05692c0,0 -8.05724,-3.65327 -12.16372,-4.57072z" data-paper-data="{&quot;index&quot;:null}" fill="#000000" stroke="none" stroke-width="0" stroke-linecap="butt"/><path d="M273.79814,161.52398c0,-0.39425 0.33579,-0.71386 0.75,-0.71386c0.41421,0 0.75,0.31961 0.75,0.71386c0,0.39425 -0.33579,0.71386 -0.75,0.71386c-0.41421,0 -0.75,-0.31961 -0.75,-0.71386z" fill="#000000" stroke="none" stroke-width="0.5" stroke-linecap="butt"/><path d="M284.59814,165.71196c0,-0.39425 0.33579,-0.71386 0.75,-0.71386c0.41421,0 0.75,0.31961 0.75,0.71386c0,0.39425 -0.33579,0.71386 -0.75,0.71386c-0.41421,0 -0.75,-0.31961 -0.75,-0.71386z" fill="#000000" stroke="none" stroke-width="0.5" stroke-linecap="butt"/><path d="M278.39814,170.28067c0,-0.39425 0.33579,-0.71386 0.75,-0.71386c0.41421,0 0.75,0.31961 0.75,0.71386c0,0.39425 -0.33579,0.71386 -0.75,0.71386c-0.41421,0 -0.75,-0.31961 -0.75,-0.71386z" fill="#000000" stroke="none" stroke-width="0.5" stroke-linecap="butt"/><path d="M365.87037,162.23784c-0.41422,0 -0.75,-0.3196 -0.75,-0.71386c0,-0.39426 0.33578,-0.71386 0.75,-0.71386c0.41422,0 0.75,0.3196 0.75,0.71386c0,0.39426 -0.33578,0.71386 -0.75,0.71386z" data-paper-data="{&quot;index&quot;:null}" fill="#000000" stroke="none" stroke-width="0.5" stroke-linecap="butt"/><path d="M355.07037,166.42582c-0.41422,0 -0.75,-0.3196 -0.75,-0.71386c0,-0.39426 0.33578,-0.71386 0.75,-0.71386c0.41422,0 0.75,0.3196 0.75,0.71386c0,0.39426 -0.33578,0.71386 -0.75,0.71386z" data-paper-data="{&quot;index&quot;:null}" fill="#000000" stroke="none" stroke-width="0.5" stroke-linecap="butt"/><path d="M361.27036,170.99453c-0.41422,0 -0.75,-0.3196 -0.75,-0.71386c0,-0.39426 0.33578,-0.71386 0.75,-0.71386c0.41422,0 0.75,0.3196 0.75,0.71386c0,0.39426 -0.33578,0.71386 -0.75,0.71386z" data-paper-data="{&quot;index&quot;:null}" fill="#000000" stroke="none" stroke-width="0.5" stroke-linecap="butt"/></g></g></svg>