<svg version="1.1" xmlns="http://www.w3.org/2000/svg" xmlns:xlink="http://www.w3.org/1999/xlink" width="131.13488" height="436.93607" viewBox="0,0,131.13488,436.93607"><g transform="translate(-267.34066,74.65518)"><g data-paper-data="{&quot;isPaintingLayer&quot;:true}" fill-rule="nonzero" stroke-linejoin="miter" stroke-miterlimit="10" stroke-dasharray="" stroke-dashoffset="0" style="mix-blend-mode: normal"><path d="M355.96944,40.20244l3.2679,125.16174l-65.4671,-4.37618l21.91041,-115.89103l42.00156,-7.8151z" fill="#b5b54a" stroke="#b5b54a" stroke-width="2.5" stroke-linecap="round"/><path d="M386.07548,37.20482l-5.54978,-0.1529l-96.35045,-3.15958c0,0 -5.77661,-11.04806 -8.27059,-24.07395c-1.65897,-8.66475 -0.75084,-18.17395 0.2155,-26.00048c1.00904,-8.17235 4.87338,-15.95032 14.62366,-25.97779c10.58454,-10.88543 29.47203,-20.84744 43.68865,-21.00481c12.22926,-0.13537 30.69655,5.57008 41.78498,14.97667c12.22199,10.36818 18.69263,24.81678 20.68952,32.33277c6.82484,25.68775 -10.83148,53.06011 -10.83148,53.06011z" fill="#fafab0" stroke="none" stroke-width="0" stroke-linecap="round"/><path d="M345.19724,236.36581l11.60849,124.66508h-65.61319l14.13207,-117.09433l41.38678,-10.59906z" fill="#e5e61c" stroke="#e5e61c" stroke-width="2.5" stroke-linecap="round"/><path d="M318.76941,129.06148l3.63107,-47.45856c0,0 10.30407,-0.30072 14.73972,1.03427c4.69221,1.41221 7.4817,6.18445 7.4817,6.18445l0.31805,8.96524c0,0 -4.55924,10.63988 -10.00696,9.90214c-4.17388,-0.56523 -13.69363,-1.85442 -13.69363,-1.85442" fill="none" stroke="#29291b" stroke-width="2.5" stroke-linecap="round"/><path d="M327.09036,287.33592l-0.43867,39.91981" fill="none" stroke="#29291b" stroke-width="2.5" stroke-linecap="round"/><path d="M306.94164,292.7457l38.18971,-10.11864" fill="none" stroke="#29291b" stroke-width="2.5" stroke-linecap="round"/><path d="M386.47317,36.89637c0,0 -6.99822,9.47448 -19.57718,16.66092c-9.14278,5.22331 -22.52225,8.85363 -32.0334,8.62933c-9.3448,-0.22037 -21.19959,-3.28268 -30.08301,-8.80926c-12.59785,-7.83742 -20.77791,-18.89757 -20.77791,-18.89757z" fill="#fafab0" stroke="none" stroke-width="0" stroke-linecap="round"/><path d="M323.99559,11.89742c-0.19575,7.10537 -3.06505,12.79072 -6.40876,12.6986c-3.3437,-0.09213 -5.89558,-5.92687 -5.69983,-13.0322c0.19575,-7.10536 3.06505,-12.7907 6.40877,-12.69858c3.3437,0.09213 5.89561,5.92685 5.69982,13.03221z" fill="#29291b" stroke="#29291b" stroke-width="2.5" stroke-linecap="butt"/><path d="M360.32209,16.11622c-0.19575,7.10537 -3.06507,12.7907 -6.40878,12.69859c-3.3437,-0.09213 -5.89558,-5.92685 -5.69983,-13.0322c0.19575,-7.10536 3.06506,-12.7907 6.40877,-12.69858c3.3437,0.09213 5.89558,5.92685 5.69982,13.03221z" fill="#29291b" stroke="#29291b" stroke-width="2.5" stroke-linecap="butt"/><path d="M302.11046,-71.12361l15.43778,5.12036l0.22913,-8.31664l19.89247,6.09672l-0.14862,-2.3516l15.20105,5.96747l-0.31487,-4.06345l24.66376,18.81932l-42.97021,-5.02528l6.45792,5.72656l-22.31458,-3.38912l8.69197,9.84288l-23.88543,-8.34082l-0.0999,3.62522l-13.94677,-12.76199l21.15261,-0.91105z" fill="#fcfc00" stroke="#fcfc00" stroke-width="0.5" stroke-linecap="round"/><path d="M378.36289,212.95709l-5.5495,-0.16279l-96.3447,-3.33086c0,0 -5.75695,-11.05832 -8.22778,-24.08863c-1.64357,-8.66769 -0.71852,-18.17524 0.26172,-26.00005c1.02356,-8.17053 4.90172,-15.94164 14.66983,-25.95175c10.60387,-10.8666 29.50906,-20.79503 43.72593,-20.92713c12.22948,-0.11363 30.68657,5.62464 41.7583,15.05093c12.20354,10.3899 18.64847,24.84998 20.63199,32.36951c6.77916,25.69985 -10.92577,53.04077 -10.92577,53.04077z" fill="#fafab0" stroke="none" stroke-width="0" stroke-linecap="round"/><path d="M375.27866,220.41993c0,0 -6.77291,9.63683 -19.17894,17.11784c-9.01708,5.43741 -22.30726,9.38216 -31.82106,9.38216c-9.34741,0 -21.2711,-2.78196 -30.28234,-8.09756c-12.77913,-7.53823 -21.21766,-18.40245 -21.21766,-18.40245z" fill="#fafab0" stroke="none" stroke-width="0" stroke-linecap="round"/><path d="M319.92014,155.41185c-0.38689,7.09751 -3.40816,12.70361 -6.74817,12.52153c-3.34002,-0.18208 -5.73398,-6.08336 -5.34707,-13.18087c0.38689,-7.09751 3.40817,-12.7036 6.74818,-12.52152c3.34002,0.18208 5.73397,6.08335 5.34706,13.18086z" fill="#29291b" stroke="#29291b" stroke-width="2.5" stroke-linecap="butt"/><path d="M349.77644,159.1519c-0.38689,7.09751 -3.40815,12.70361 -6.74817,12.52153c-3.34002,-0.18208 -5.73397,-6.08336 -5.34706,-13.18087c0.38689,-7.09751 3.40815,-12.7036 6.74817,-12.52152c3.34002,0.18208 5.73397,6.08335 5.34706,13.18087z" fill="#29291b" stroke="#29291b" stroke-width="2.5" stroke-linecap="butt"/><path d="M296.83151,106.69524l15.29439,5.53394l0.45287,-8.30745l19.72121,6.62983l-0.08529,-2.35474l15.03496,6.37437l-0.2054,-4.07045l24.1484,19.4762l-42.81941,-6.1798l6.30145,5.89828l-22.2153,-3.98838l8.42397,10.07323l-23.65233,-8.98059l-0.1974,3.62123l-13.59831,-13.13269l21.16948,-0.34152z" fill="#29291b" stroke="none" stroke-width="0" stroke-linecap="round"/></g></g></svg>