<svg version="1.1" xmlns="http://www.w3.org/2000/svg" xmlns:xlink="http://www.w3.org/1999/xlink" width="108.30585" height="245.34678" viewBox="0,0,108.30585,245.34678"><g transform="translate(-280.77011,-64.30137)"><g data-paper-data="{&quot;isPaintingLayer&quot;:true}" fill-rule="nonzero" stroke-linecap="butt" stroke-linejoin="miter" stroke-miterlimit="10" stroke-dasharray="" stroke-dashoffset="0" style="mix-blend-mode: normal"><path d="M321.66272,265.26945c-0.81895,0 -1.48284,-0.66389 -1.48284,-1.48284c0,-0.81895 0.66389,-1.48284 1.48284,-1.48284c0.81895,0 1.48284,0.66389 1.48284,1.48284c0,0.81895 -0.66389,1.48284 -1.48284,1.48284z" data-paper-data="{&quot;index&quot;:null}" fill="#000000" stroke="none" stroke-width="1.5"/><path d="M282.56373,308.53989c0,0 -0.63536,-94.38387 -0.79335,-118.01201c-0.05451,-8.15261 8.18688,-36.76129 40.20201,-36.9211c31.60235,-0.15775 39.85672,29.48704 39.84884,36.89673c-0.07659,46.24274 0.65429,117.98648 0.65429,117.98648l-10.49667,0.09614l-0.15882,-114.84311c0,0 0.07549,-3.0993 -2.81625,-3.15415c-3.43441,-0.06514 -2.94538,3.11562 -2.94538,3.11562l0.20548,114.86995l-48.21366,0.07222l-0.30539,-115.23309c0,0 0.27949,-2.919 -2.8856,-2.93443c-3.11083,-0.01515 -2.81569,2.90899 -2.81569,2.90899l0.35311,115.0668z" fill="#999999" stroke="#000000" stroke-width="2"/><path d="M321.66272,265.26944c-0.81895,0 -1.48284,-0.66389 -1.48284,-1.48284c0,-0.81895 0.66389,-1.48284 1.48284,-1.48284c0.81895,0 1.48284,0.66389 1.48284,1.48284c0,0.81895 -0.66389,1.48284 -1.48284,1.48284z" data-paper-data="{&quot;index&quot;:null}" fill="#000000" stroke="none" stroke-width="1.5"/><path d="M297.59946,308.55433v-119.20147c0,0 0.75721,-9.73105 0.75721,-14.63937c0,-4.498 -0.75721,-13.6872 -0.75721,-13.6872c0,0 2.67319,-2.35297 4.6557,-3.74807c1.98251,-1.3951 5.17197,-2.80371 5.17197,-2.80371c0,0 -0.6016,40.10902 14.55952,40.03867c15.43477,-0.07162 13.83154,-40.03867 13.83154,-40.03867c0,0 3.91276,1.51959 6.16585,2.94655c2.25309,1.42695 4.75379,3.60523 4.75379,3.60523c0,0 -0.75721,9.42463 -0.75721,14.19201c0,4.84193 0.75721,14.63937 0.75721,14.63937v118.69667z" fill="#0f0e02" stroke="#000000" stroke-width="2"/><path d="M364.33149,122.01074c0,0 1.4812,0.48028 4.11158,1.56189c2.40254,0.98793 4.23579,2.21278 4.23579,2.21278l0.06801,1.18455c0,0 -6.87064,-3.89207 -14.76209,-4.08316c-6.30981,-0.15277 -10.20801,1.72373 -10.20801,1.72373l0.49503,-4.14764c0,0 3.29273,-1.3577 8.0177,-0.99842c4.89266,0.37203 7.98021,1.45863 7.98021,1.45863z" data-paper-data="{&quot;index&quot;:null}" fill="#000000" stroke="none" stroke-width="1.5"/><path d="M324.0254,121.76747c0,0 3.54583,-1.44576 8.23136,-1.404c5.19216,0.04627 7.73024,0.7702 7.73024,0.7702l-0.15195,4.1452c0,0 -3.74,-1.08951 -7.91529,-1.38107c-5.58393,-0.38993 -6.7605,0.70942 -11.03798,0.70728c-3.66517,-0.00183 -6.71519,-0.56721 -6.71519,-0.56721l0.10681,-1.22718c0,0 3.56633,0.4605 5.21067,0.49534c1.35718,0.02875 4.05357,-0.50473 4.05357,-0.50473z" fill="#000000" stroke="none" stroke-width="1.5"/><path d="M323.36242,173.9134l-0.52332,-0.65038c-1.91895,-2.40559 -4.29072,-3.66798 -6.17704,-6.01232c-0.03319,-0.04125 -0.58181,-0.52484 -1.00777,-1.03437c-0.05671,0.19582 -0.13517,0.37042 -0.22706,0.48094c-0.06232,0.07495 -0.12912,0.14492 -0.19959,0.21085l0.04677,0.03906l-0.67221,0.80485c-0.2067,0.25493 -0.53453,0.40302 -0.88509,0.36507c-0.54908,-0.05945 -0.946,-0.55274 -0.88656,-1.10182l0.10209,-0.94302c-0.8284,-1.42374 -1.33537,-3.23727 -2.22341,-4.55829c-1.20365,-1.79052 -3.30944,-3.56759 -3.99757,-5.73825c-0.47252,-1.49054 -0.16545,-3.00073 -0.92482,-4.40209c-0.60082,-1.24862 -1.089,-3.28221 -1.13539,-4.71408c-0.01416,-0.43684 0.24792,-3.89979 -0.23472,-3.90708c-1.52623,-0.02308 -2.77739,1.74514 -3.98141,2.38347c-2.64627,1.40297 -5.38734,2.40194 -8.18933,1.93734l-0.03357,0.31006l-1.17371,-0.12707c-0.54908,-0.05945 -0.94601,-0.55274 -0.88657,-1.10182c0.03795,-0.35056 0.25277,-0.63911 0.54603,-0.78645l0.93006,-0.48439c2.54152,-1.30744 4.70143,-2.73957 6.78204,-4.62936c-1.18988,0.06168 -2.399,-0.18164 -3.7951,-0.65068c-0.65645,-0.22054 -2.75309,-0.95821 -2.92688,-1.52923c-0.21072,-0.69233 1.54052,-2.47724 1.97507,-2.88598c2.11619,-1.9905 5.41302,-4.17382 6.80278,-6.72995c0.59372,-1.09201 0.69388,-2.10775 1.52314,-3.10064c0.54662,-1.55122 1.12698,-2.8581 1.94363,-4.24258c0.06658,-0.11287 0.12806,-0.28261 0.1904,-0.45721c-0.20135,0.09631 -0.4119,0.17757 -0.55888,0.23009c-1.42422,0.50897 -4.03708,1.08721 -4.81606,-0.93695c-0.85778,-2.22891 2.05901,-4.19834 3.41778,-5.26886c1.33126,-1.04884 1.81418,-2.9563 1.98566,-4.54028c2.77038,-7.52362 5.47688,-15.40692 10.83627,-21.82377c3.89158,-4.65944 9.20598,-9.25149 13.98935,-12.88841c1.18695,-0.90248 2.99038,-1.12189 4.36004,-1.81468c2.16694,-0.29905 4.09897,-1.42854 6.38002,-1.46582c7.15278,-0.11691 14.32878,2.6517 21.34753,3.51788c2.3812,1.48909 5.07514,1.82063 7.54727,3.25336c3.25119,1.88423 5.98082,4.64869 9.09855,6.63482c2.37993,1.51611 3.95329,2.2774 5.29703,4.93401c0.46751,3.22535 1.69104,6.10408 1.73501,9.37783c0.07488,5.57486 -2.13547,12.35254 -0.15296,17.68723c-0.28206,3.02787 1.68629,5.56991 2.59039,8.41173c1.02862,3.23326 0.9454,6.26528 1.40397,9.5358c0.37581,2.68037 1.02875,4.83108 -0.32506,6.76017l0.31345,0.26181l-0.67221,0.80485c-0.20669,0.25493 -0.53453,0.40302 -0.88509,0.36507c-0.47314,-0.05122 -0.83329,-0.4246 -0.88583,-0.87821l-0.14555,-1.05465c-1.20666,-2.25279 -1.22253,-4.66744 -2.65494,-6.84977c-0.06204,-0.09452 -0.1303,-0.18105 -0.2022,-0.26126c0.3302,4.98439 -0.92705,10.14847 -2.57666,14.70687c-1.93736,5.26134 -4.00798,10.03966 -5.8154,15.37793c-0.90087,2.66078 -1.56539,5.20353 -3.4103,6.93478l0.27446,0.3411l-0.97557,0.78498c-0.19939,0.16043 -0.45999,0.2448 -0.73453,0.21508c-0.54907,-0.05944 -0.946,-0.55274 -0.88656,-1.10182l0.12707,-1.17371c0.03373,-0.30161 -0.07422,-1.50538 -0.08747,-2.56575c-0.35942,0.77017 -0.77827,1.52411 -0.83045,1.62788c-0.87252,1.73511 -1.76126,2.7752 -3.0265,3.70208l0.10181,0.09509l-0.9994,1.06991c-0.20761,0.22716 -0.51696,0.35574 -0.84635,0.32008c-0.54907,-0.05944 -0.946,-0.55274 -0.88656,-1.10182c0.00984,-0.09096 0.0316,-0.17773 0.06354,-0.25896l0.38077,-1.03405c0.12261,-1.16477 0.25114,-2.81061 0.53413,-4.16548c-0.50171,0.35677 -1.04325,0.67632 -1.38446,1.0055c-2.08628,2.01279 -4.08224,3.47764 -6.48221,4.85698c-1.26671,1.22125 -2.65268,2.26362 -4.13012,3.13193c-0.2235,0.26783 -0.44716,0.53555 -0.67077,0.8033c-2.54017,3.04137 -6.24671,4.94993 -9.58633,6.6481c-0.91138,0.46343 -1.57766,1.52967 -2.75073,1.87794c-3.17969,0.94403 -7.96041,-1.44898 -9.11599,-4.37054c-0.44052,-0.86874 -0.39827,-2.16438 -1.01466,-2.87214c-1.52131,-1.74679 -3.03532,-3.42441 -4.47704,-5.22673c-0.33946,-0.09341 -0.55807,-0.36509 -0.55807,-0.36509zM329.95573,178.25143c0.80692,1.06126 0.6794,2.18953 1.28428,3.31408c0.6699,1.97015 4.5162,3.9699 6.68063,3.27689c1.07842,-0.34528 1.50069,-1.24981 2.38884,-1.72179c1.95448,-1.03866 4.08558,-2.08722 5.99478,-3.44401c-3.41541,1.01007 -7.09136,1.29407 -10.77985,0.89476c-2.67437,-0.30509 -4.0824,-1.50943 -6.08472,-2.97869c0.17561,0.21812 0.3479,0.43761 0.51605,0.65875zM351.44359,174.41702l1.0493,-0.85056c0,0 0.34414,-0.27689 0.75901,-0.23392c0.42283,-0.22395 0.83463,-0.45012 1.23692,-0.67944c0.53785,-0.52239 1.05495,-1.07942 1.54944,-1.67148c1.26093,-0.46795 0.3064,-1.28367 -0.90109,-1.98452l-0.00812,0.01075c-2.34102,0.32307 -4.43877,1.28394 -6.66115,1.64067c-2.21521,0.35558 -4.69405,-0.62477 -6.97483,-0.41996c-0.4853,-0.05365 -0.97346,-0.1096 -1.46373,-0.16857c-0.19164,0.00303 -0.41089,-0.02571 -0.64594,-0.07937c-3.87126,-0.4861 -7.8522,-1.17981 -11.57491,-2.4406c-2.75802,-0.93407 -5.79322,-3.02966 -8.62663,-3.28433c0,0 -0.20094,-0.02175 -0.41237,-0.13604c-0.01263,0.17722 -0.01331,0.37122 -0.0014,0.58406c2.43146,1.82054 4.34278,4.99133 6.21608,7.36904c1.31439,1.66833 3.65501,2.46651 5.33212,3.68406c1.88031,1.36505 2.97832,2.57897 5.42337,2.82617c5.20398,0.56338 10.23437,-0.30815 14.50854,-2.74155c0.39778,-0.47537 0.79603,-0.95032 1.19537,-1.42441zM369.25147,145.60792c0.92538,-0.17928 1.27071,-1.00986 2.19204,-1.75458c3.30241,-2.66936 4.1667,-5.7681 4.64866,-9.94354c-0.2731,-2.65842 -2.97637,-0.38252 -3.85841,0.84558c-0.52773,0.73479 -0.99583,1.52245 -1.39723,2.34837c0.00313,0.48978 0.06234,0.99456 -0.11298,1.44017c-0.47167,1.19885 -0.94336,2.40542 -1.4094,3.62063c-0.14928,1.14142 -0.17469,2.29859 -0.06268,3.44336zM360.25067,162.65456c0.61021,-1.44772 1.79332,-2.39818 2.1838,-4.04799c0.78028,-3.2967 -0.19252,-6.88817 2.30014,-9.53838c0.77729,-2.63838 1.69208,-5.21704 2.68303,-7.73672c0.28606,-1.75778 0.82864,-3.47895 1.59498,-5.06836c-0.00041,-0.29328 0.02052,-0.58142 0.12436,-0.84883c0.89929,-2.31571 1.96108,-4.71648 2.60772,-7.23389l-0.19966,-0.14412c-1.73721,-0.66062 -3.41156,-1.6279 -4.7797,-2.9055c-0.7106,-0.04248 -1.42567,-0.11452 -2.14346,-0.2058c-0.0663,0.00379 -0.13748,0.00203 -0.21392,-0.00624c-0.10055,-0.01089 -0.18982,-0.03083 -0.26907,-0.05791c-3.68826,-0.50983 -7.43851,-1.46479 -11.02055,-1.46869c-1.28265,-0.0014 -4.07919,1.92096 -5.27156,0.70815c-0.50568,-0.51435 -0.3784,-1.37874 -0.13821,-2.15754c-0.00511,-0.00615 -0.01021,-0.01237 -0.0153,-0.01869c-0.62689,-0.7791 0.15221,-1.406 0.15221,-1.406l0.92894,-0.68158c1.05295,-0.38945 2.11075,-1.14397 3.16944,-1.45829c2.04197,-0.60625 4.45583,-0.15348 6.43239,0.32104c3.42055,0.82118 7.14633,0.17343 7.18217,4.37241c0.67139,0.05891 1.33604,0.12844 1.98914,0.21848c1.43781,1.1255 2.90589,2.2248 4.61604,2.84349c0.03823,-0.25769 0.07078,-0.51662 0.09709,-0.77682c0.44495,-4.11012 0.09918,-7.87553 -0.45457,-11.97678c-0.20148,-1.49228 0.25777,-3.2069 -1.56486,-3.90367c-2.53602,-0.96947 -3.465,0.17293 -5.88759,0.50726c-3.86075,2.09204 -9.3482,3.60698 -13.69446,4.21699c-2.25414,0.31637 -4.32976,0.20534 -6.39551,1.27673l-0.06677,-0.00127l0.0092,0.02472l-1.21839,0.45279c-0.14604,0.05779 -0.30786,0.08191 -0.47484,0.06383c-0.54908,-0.05944 -0.946,-0.55275 -0.88656,-1.10182c0.03795,-0.35057 0.25276,-0.63911 0.54602,-0.78645l0.93006,-0.48439l0.05785,0.11107l0.00893,-0.00332c1.31497,-1.31639 2.79611,-2.37781 4.36901,-3.42776c0.44651,-0.29806 1.01724,-0.86201 1.58343,-1.31946c-0.71958,0.16467 -1.49953,0.05907 -2.20725,0.27786c-2.37849,0.73529 -4.88718,1.40494 -7.2466,2.24323c-2.41451,-0.22493 -4.03448,0.67951 -6.20422,1.34732c-4.05466,1.24796 -8.69797,1.49404 -12.66645,2.45498c-0.81538,0.19744 -1.16302,3.06272 -1.37946,3.66078c-0.5389,1.43318 -0.86643,2.82281 -1.03845,4.19309c1.24614,0.02565 2.50068,-0.04426 3.75959,-0.15931c0.22541,-0.80085 1.44042,-2.40785 1.90585,-2.58558c1.47354,-0.56268 3.40828,0.7323 4.88398,0.45288c1.82108,-0.34481 3.76682,-1.45996 5.67449,-1.49938c1.55471,-0.03212 5.31663,0.83643 6.07157,2.31427c0.38507,0.75378 -0.2875,3.28549 -1.03063,3.65467c-0.58098,0.28863 -1.27113,-0.26 -1.9067,-0.38999c-1.34379,-0.50529 -2.71935,-0.77898 -4.1153,-0.89849c1.66283,1.3206 5.87138,1.52422 6.73578,3.59103c0.66399,1.58759 0.34982,3.19725 -0.38194,4.74967c0.24849,0.32469 0.2022,0.75221 0.2022,0.75221c-0.31084,2.87129 0.5369,5.40795 0.58339,8.25252c0.06953,4.25465 -0.945,8.79863 -1.40341,13.03308c-0.35314,3.26207 -0.99182,6.41942 -1.3417,9.65135c-0.07725,0.71358 -0.53621,2.25586 -0.2073,2.96053c0.22134,0.47421 0.97798,0.38452 1.42958,0.64897c0.08024,0.04698 0.12918,0.16941 0.17749,0.27633c0.12086,0.01515 0.24163,0.03005 0.36227,0.04473c0.24694,-0.32945 0.01803,-1.01956 0.12403,-1.47434c0.45001,-1.93083 0.70177,-3.84705 0.92875,-5.83678c0.45054,-1.2235 0.80738,-2.47361 1.09968,-3.74193c-0.11761,-0.25747 -0.15776,-0.61657 0.16974,-1.00868c0.02096,-0.0251 0.04205,-0.04869 0.06326,-0.07085c1.31946,-6.53283 1.16613,-13.47978 3.42485,-19.72133c0.07815,-0.21223 0.1563,-0.42447 0.23446,-0.63671c-0.00094,-0.06618 -0.00143,-0.13233 -0.00142,-0.19843c-0.28665,-0.10014 -0.72681,-0.36565 -0.65332,-1.04445c0.0682,-0.62998 0.49239,-0.81755 0.79403,-0.87043c0.24051,-1.58826 0.79453,-3.05471 1.70148,-4.16721c1.78145,-2.1149 4.55382,-4.03457 7.39134,-4.09319c5.37429,-0.11103 13.84028,3.90311 11.57423,10.38962c-0.09776,0.90309 -0.11956,2.35509 -0.99415,2.93722c-0.00963,0.00641 -0.01936,0.01271 -0.02918,0.01889c-0.76292,3.04113 -2.62517,5.61224 -5.55665,7.13902c-2.0985,1.00977 -4.1431,0.28588 -6.29711,-0.22346c-2.08416,-0.49282 -4.19738,-0.86328 -5.64191,-2.67905c-0.65191,-0.81948 -1.17676,-1.8332 -1.55856,-2.94735c-1.36101,5.34306 -1.38681,11.10968 -2.46007,16.56631c1.68234,1.6422 2.50597,3.70622 0.0781,5.29365c1.40251,0.10184 2.89524,0.18006 4.10681,0.84869c2.31632,1.27831 4.35025,2.97611 6.6026,4.21514c0.07702,-0.0071 0.16093,-0.00652 0.25232,0.00338c0.45562,0.04933 0.67982,0.28485 0.78905,0.52554c0.18038,0.08358 0.36253,0.16362 0.54668,0.2397c0.32328,0.13358 0.61631,0.296 0.87583,0.48062c1.31283,-1.66482 2.12672,-3.46882 2.90738,-5.32092zM318.3358,142.97135c-0.64031,5.91464 0.20822,11.78757 -0.43883,17.76447l-0.11599,1.07145c1.82155,-2.46528 6.16163,-2.97728 9.45369,-2.24633c1.79603,0.39879 4.02981,1.93296 5.94671,1.57001c0.6769,-0.12817 1.2196,-0.30731 1.78763,-0.43108c-3.26576,-2.87806 -1.43039,-6.24229 2.37655,-6.24609c0.00819,-0.07294 0.01624,-0.14594 0.02415,-0.21899c0.44923,-4.14965 1.46173,-8.62092 1.392,-12.78852c-0.03526,-2.10737 -0.48248,-4.04284 -0.61071,-6.06976c-0.95358,1.32484 -1.94865,2.55748 -2.5513,3.63654c-0.59671,1.06841 -0.96352,2.33761 -2.07318,3.09137c-0.74027,0.50284 -1.65641,0.68281 -2.45455,1.08754c-5.36318,0.76615 -10.76652,-3.58784 -11.97214,-8.71937c0.05851,2.81952 -0.46694,5.75434 -0.76405,8.49876zM359.21406,120.79403c-2.11334,-0.23525 -4.51103,-1.19929 -6.66262,-0.5104c-0.85702,0.27439 -1.69828,0.80921 -2.55074,1.20427c-0.08035,0.20708 -0.2092,0.51629 -0.33864,0.77971c0.94479,-0.45461 3.16281,-0.86763 3.42699,-0.87528c1.33555,-0.03864 2.48059,0.40041 3.73231,0.70092c2.14339,0.51456 4.44489,0.66519 6.72404,0.82471c-0.17378,-2.05696 -2.14114,-1.88013 -4.33136,-2.12393zM320.14279,127.87382c0,0 0.22579,-0.35111 0.61246,-0.45375l0.11152,-0.16973c1.32279,-1.35676 2.71882,-1.22221 4.52868,-1.67635c0.92649,-0.23248 1.7661,-0.86005 2.62779,-1.34871c-3.28101,0.3499 -6.59045,0.97471 -9.79094,0.93952c-0.05678,2.24311 0.23723,4.46542 0.62986,6.77616c0.06858,-1.37637 0.47028,-2.75787 1.28062,-4.06715zM328.45474,165.64732c2.38788,0.80848 4.8848,1.38387 7.38684,1.81392c-0.28244,-1.11926 0.07278,-2.52527 0.18643,-3.57511c0.04847,-0.44774 0.10245,-0.89386 0.16042,-1.33889c-1.49307,-0.05353 -2.54176,0.58076 -4.10329,0.43355c-3.81822,-0.35998 -6.32834,-2.16067 -10.21178,-1.16799c-0.73741,0.18849 -1.37974,0.32563 -1.8864,0.54569c2.86674,0.5346 5.68698,2.34731 8.46777,3.28882zM341.51135,168.22866c2.09116,-0.18778 4.60748,0.82912 6.58636,0.45443c1.44085,-0.27282 2.82909,-0.74079 4.26909,-1.12853c-3.2477,-1.84315 -5.42473,-3.55912 -9.36133,-3.98529l-0.16264,0.17307c0,0 -0.14031,0.05214 -0.33253,0.0618c-0.1864,1.53493 -0.47358,3.07869 -1.09092,4.41474c0.03066,0.00327 0.06132,0.00654 0.09196,0.00978zM336.31563,159.22109l0.32738,0.20392c0.15296,-0.99068 0.30807,-1.98201 0.44838,-2.97985c-1.83102,0.05738 -2.73399,1.21342 -0.77576,2.77593zM347.88604,135.72718c-0.02294,0.06227 -0.04586,0.12455 -0.06878,0.18682c0.11617,2.13691 0.791,4.28707 1.85149,5.58204c1.16742,1.42555 2.89587,1.59682 4.54029,1.98566c1.49453,0.35339 3.50182,1.23631 4.91667,0.39681c2.06772,-1.07691 3.71886,-2.94866 4.41442,-5.12946c-0.95522,-0.12825 -2.01614,-0.45175 -2.91496,-0.76703c-2.26985,5.38966 -7.53778,1.03221 -10.50399,-1.4199c0,0 -0.38387,-0.32062 -0.38192,-0.77983c-0.60381,-0.05594 -1.21523,-0.11538 -1.83606,-0.18199zM363.72512,136.22213l0.37447,0.17023l0.25848,-0.63144c0,0 0.10539,-0.23007 0.3259,-0.40571c-0.00826,-0.08949 -0.01022,-0.17525 -0.00163,-0.25459c0.74932,-1.91368 0.10771,-2.90818 -1.02605,-4.32367c-0.40303,-0.50318 -0.4009,-1.38025 -0.97733,-1.66896c-0.66608,-0.33362 -1.48147,-0.2311 -2.18131,-0.48647c-4.42804,-1.61578 -8.07497,-1.97818 -11.29865,1.92135c-0.66621,0.77155 -1.07747,1.84239 -1.26977,3.03163c2.01211,0.18148 4.07493,0.32737 6.0986,0.60498c3.24199,0.33768 6.37995,0.82115 9.69729,2.04267zM331.74955,122.09996c2.25301,-0.03373 4.48709,0.20008 6.67892,0.99326c0.77254,0.92374 0.51457,-0.39574 0.44166,-0.52564c-0.31885,-0.56815 -3.46446,-1.18445 -4.23767,-1.17672c-0.94479,0.00943 -1.91863,0.35159 -2.8829,0.7091zM330.64479,137.84492c-1.86129,0.37823 -3.52631,-0.63698 -4.99184,-1.47384c-0.66292,-0.37855 -2.11519,-0.46921 -2.56235,-1.07976c-0.79226,-1.08174 -0.40417,-1.98408 -0.0378,-2.9558c-0.75416,-0.09275 -1.50876,-0.18137 -2.26374,-0.26415c-0.21465,4.77878 4.99936,9.82339 9.67535,9.21506c0.60897,-0.32756 1.32628,-0.44065 1.90756,-0.81515c0.82594,-0.53214 1.06612,-1.70065 1.49641,-2.45953c0.69311,-1.22242 1.84245,-2.52732 2.83644,-3.92063l-0.30115,-0.0326c-0.86254,-0.09338 -1.72589,-0.19487 -2.58999,-0.30183c-0.60201,1.67183 -1.11735,3.67131 -3.16889,4.08822zM336.61894,132.07015l0.88028,0.0953c0,0 0.15833,0.01714 0.34178,0.10092c0.6245,-1.2212 0.96222,-2.50519 0.66217,-3.85538c-0.1069,-0.48108 -0.91335,-0.37117 -1.37689,-0.53846c-1.48273,-0.53508 -3.10041,-0.9079 -4.28815,-1.96169c-0.87446,-0.05227 -2.10784,-0.45791 -2.94493,-0.31881c-1.30518,0.21688 -2.66026,1.56888 -4.00978,1.92152c-0.98814,0.25822 -3.08338,0.28755 -3.48163,1.01886l-0.28338,0.45494c0,0 -0.21619,0.33619 -0.58775,0.44679c-0.12234,0.22075 -0.22868,0.44488 -0.31974,0.67166c5.15673,0.57265 10.29916,1.41126 15.40802,1.96434zM343.19909,159.93975c0.78349,-0.2541 0.71202,-0.7516 0.362,-1.25438c-0.1117,0.4208 -0.23198,0.83906 -0.362,1.25438z" fill="#000000" stroke="none" stroke-width="0.5"/><path d="M369.27725,142.19831c0.46603,-1.21522 0.92732,-2.47175 1.399,-3.6706c0.17532,-0.44561 0.13127,-0.97247 0.12815,-1.46226c0.40141,-0.82592 0.89776,-1.62512 1.42549,-2.35992c0.88203,-1.22811 3.61693,-3.49574 3.89003,-0.83732c-0.48196,4.17544 -1.38579,7.36435 -4.6882,10.03372c-0.92133,0.74471 -1.27785,1.5711 -2.20322,1.75039c-0.11201,-1.14478 -0.10051,-2.31259 0.04877,-3.45402z" data-paper-data="{&quot;noHover&quot;:false,&quot;origItem&quot;:[&quot;Path&quot;,{&quot;applyMatrix&quot;:true,&quot;segments&quot;:[[[268.21396,123.01191],[-0.23457,-1.12607],[0.90071,-0.27784]],[[270.20442,121.0316],[-0.83582,0.83955],[2.99592,-3.00929]],[[273.75586,110.64549],[-0.02976,4.20306],[-0.55764,-2.61359]],[[270.01088,111.90144],[0.74473,-1.31591],[-0.44558,0.78732]],[[268.87451,114.38655],[0.31018,-0.86432],[0.05582,0.4866]],[[268.9172,115.83051],[0.12634,-0.46189],[-0.3399,1.24265]],[[267.90567,119.58181],[0.33253,-1.25832],[-0.02556,1.15086]]],&quot;closed&quot;:true}]}" fill="#ffffff" stroke="none" stroke-width="0.5"/><path d="M347.86061,135.57406c0.62083,0.06662 1.23548,0.12141 1.83929,0.17735c-0.00196,0.45923 0.38016,0.78221 0.38016,0.78221c2.96621,2.45211 8.32131,6.81862 10.59116,1.42897c0.89882,0.31528 1.96289,0.64947 2.91812,0.77772c-0.69555,2.18079 -2.36022,4.09627 -4.42794,5.17318c-1.41485,0.8395 -3.4745,-0.03125 -4.96902,-0.38464c-1.64442,-0.38883 -3.40498,-0.59615 -4.5724,-2.0217c-1.06049,-1.29498 -1.73005,-3.48091 -1.84622,-5.61782c0.02294,-0.06227 0.04643,-0.12552 0.06935,-0.18779z" data-paper-data="{&quot;noHover&quot;:false,&quot;origItem&quot;:[&quot;Path&quot;,{&quot;applyMatrix&quot;:true,&quot;segments&quot;:[[[245.90918,115.48812],[0,0],[-0.0161,0.06438]],[[245.8609,115.68126],[0.0161,-0.06438],[0.34549,2.11199]],[[248.30242,121.0316],[-1.19371,-1.17332],[1.31407,1.29162]],[[253.03005,122.51705],[-1.67672,-0.20959],[1.52388,0.19048]],[[257.96087,122.38236],[-1.31628,0.98691],[1.9398,-1.2932]],[[261.79756,116.80758],[-0.45679,2.24299],[-0.96348,-0.0247]],[[258.81698,116.35875],[0.92753,0.21671],[-1.67658,5.60265]],[[248.22118,116.07763],[3.2129,2.11862],[0,0]],[[247.75755,115.34344],[0.04748,0.45677],[-0.60632,0.00937]],[[245.91257,115.36011],[0.62439,-0.00059],[0,0]]],&quot;closed&quot;:true}]}" fill="#ffffff" stroke="none" stroke-width="0.5"/><path d="M341.08729,154.92222c0.35003,0.50278 0.39546,1.0939 -0.38803,1.34799c0.13,-0.41532 0.27633,-0.92719 0.38803,-1.34799z" data-paper-data="{&quot;noHover&quot;:false,&quot;origItem&quot;:[&quot;Path&quot;,{&quot;applyMatrix&quot;:true,&quot;segments&quot;:[[[243.85545,140.0645],[0.08455,-0.4269],[0.75159,-0.33695]],[[244.08034,138.77845],[0.40211,0.46218],[-0.06576,0.43038]]],&quot;closed&quot;:true}]}" fill="#ffffff" stroke="none" stroke-width="0.5"/><path d="M337.12098,156.40486c-0.1403,0.99784 -0.30773,2.07639 -0.46068,3.06707l-0.33557,-0.20167c-1.95821,-1.56251 -1.03477,-2.80802 0.79625,-2.8654z" data-paper-data="{&quot;noHover&quot;:false,&quot;origItem&quot;:[&quot;Path&quot;,{&quot;applyMatrix&quot;:true,&quot;segments&quot;:[[[236.93463,140.09088],[-2.11501,-1.34267],[0,0]],[[237.28205,140.25838],[0,0],[0.04544,-1.00139]],[[237.40711,137.24758],[-0.03209,1.00714],[-1.81421,0.25412]]],&quot;closed&quot;:true}]}" fill="#999999" stroke="none" stroke-width="0.5"/><path d="M340.75292,168.85296c0.61735,-1.33604 0.90883,-2.91997 1.09521,-4.4549c0.19221,-0.00966 0.33365,-0.06368 0.33365,-0.06368l0.16395,-0.17503c3.9366,0.42617 6.20341,2.18136 9.45112,4.02451c-1.44,0.38774 -2.85619,0.89066 -4.29703,1.16347c-1.97888,0.37469 -4.56369,-0.67207 -6.65485,-0.48429c-0.03064,-0.00324 -0.0614,-0.00682 -0.09206,-0.01009z" data-paper-data="{&quot;noHover&quot;:false,&quot;origItem&quot;:[&quot;Path&quot;,{&quot;applyMatrix&quot;:true,&quot;segments&quot;:[[[243.06965,148.48691],[-0.03081,0.00007],[2.0588,-0.41176]],[[249.66667,148.22981],[-1.92705,0.5855],[1.40311,-0.42631]],[[253.7895,146.64835],[-1.3899,0.54048],[-3.42721,-1.4829]],[[244.05361,143.69377],[3.9596,0],[0,0]],[243.91054,143.88335],[[243.58661,143.98057],[0.19006,-0.03029],[-0.02011,1.54608]],[[242.97718,148.48708],[0.46997,-1.39472],[0.03084,-0.00005]]],&quot;closed&quot;:true}]}" fill="#999999" stroke="none" stroke-width="0.5"/><path d="M319.31929,162.96652c0.50666,-0.22007 1.15107,-0.3641 1.88846,-0.55259c3.88343,-0.99268 6.48841,0.81214 10.30663,1.17212c1.56153,0.14722 2.61118,-0.48298 4.10426,-0.42945c-0.05797,0.44502 -0.11106,0.8991 -0.15953,1.34684c-0.11365,1.04984 -0.47281,2.47692 -0.19037,3.59618c-2.50203,-0.43006 -5.03053,-0.97709 -7.41841,-1.78557c-2.78079,-0.94151 -5.66432,-2.81292 -8.53105,-3.34751z" data-paper-data="{&quot;noHover&quot;:false,&quot;origItem&quot;:[&quot;Path&quot;,{&quot;applyMatrix&quot;:true,&quot;segments&quot;:[[[229.81105,147.32584],[-2.86597,-0.63674],[2.46103,0.54678]],[[237.35022,148.33418],[-2.53379,-0.15827],[-0.40126,-1.08236]],[[237.15078,144.75977],[0,1.05597],[0,-0.45036]],[[237.16616,143.41141],[-0.00974,0.44868],[-1.49016,0.10748]],[[233.13337,144.28406],[1.56831,-0.0217],[-3.83479,0.05306]],[[222.8552,144.22195],[3.75403,-1.40489],[-0.71284,0.26676]],[[221.03849,144.9675],[0.48003,-0.27332],[2.90762,0.22295]]],&quot;closed&quot;:true}]}" fill="#999999" stroke="none" stroke-width="0.5"/><path d="M351.76311,175.70121c-4.32164,2.34806 -9.42854,3.15449 -14.62032,2.48791c-2.43966,-0.2957 -3.54665,-1.55866 -5.39947,-2.96077c-1.6526,-1.2506 -3.98149,-2.11856 -5.26252,-3.81266c-1.82572,-2.41443 -3.66947,-5.64041 -6.06431,-7.50886c-0.00767,-0.21304 -0.0026,-0.4082 0.01354,-0.58513c0.20912,0.11846 0.40965,0.1441 0.40965,0.1441c2.82779,0.31088 5.82206,2.46386 8.56099,3.4525c3.69695,1.33444 7.74168,2.09494 11.60252,2.65778c0.23394,0.05831 0.45737,0.09668 0.64904,0.09745c0.48899,0.0687 0.98172,0.14359 1.46587,0.20687c2.2844,-0.15948 4.74775,0.88475 6.96958,0.57322c2.22903,-0.31253 4.2466,-1.21648 6.59357,-1.49301l0.10692,-0.02731c1.19334,0.72468 2.1321,1.56475 0.86214,2.00758c-0.50614,0.58212 -1.03415,1.13325 -1.58226,1.64487c-0.40676,0.22129 -0.8231,0.44138 -1.25029,0.6569c-0.41393,-0.0512 -0.76358,0.21971 -0.76358,0.21971l-1.06639,0.83273c-0.40867,0.46607 -0.81754,0.93871 -1.22467,1.4061z" data-paper-data="{&quot;noHover&quot;:false,&quot;origItem&quot;:[&quot;Path&quot;,{&quot;applyMatrix&quot;:true,&quot;segments&quot;:[[[253.61024,153.57032],[-0.34599,0.51432],[0,0]],[254.5619,152.61178],[[255.29132,152.29752],[-0.41708,0.00193],[0.39627,-0.26816]],[[256.44793,151.4889],[-0.37527,0.27129],[0.4785,-0.57725]],[[257.80846,149.66036],[-0.42789,0.64184],[1.20324,-0.60095]],[[256.69903,147.78435],[1.27591,0.56681],[0,0]],[[256.69211,147.79591],[0,0],[-2.29265,0.57316]],[[250.24624,150.14399],[2.17108,-0.59385],[-2.16407,0.59194]],[[243.26673,150.47717],[2.24549,-0.44909],[-0.48826,-0.00111]],[[241.79335,150.46712],[0.49376,0.00587],[-0.1902,0.02364]],[[241.14262,150.45773],[0.23946,0.02805],[-3.90109,-0.06661]],[[229.37227,149.27711],[3.83678,0.85279],[-2.84253,-0.6318]],[[220.44226,146.94034],[2.84436,-0.05176],[0,0]],[[220.01764,146.84947],[0.22251,0.09087],[0.00652,0.17755]],[[220.07911,147.43028],[-0.03474,-0.21033],[2.61328,1.54826]],[[227.05221,154.08748],[-2.11832,-2.16228],[1.48632,1.51717]],[[232.74987,157.17625],[-1.79841,-1.02996],[2.0163,1.15474]],[[238.44592,159.40229],[-2.45745,0.01739],[5.23439,0]],[[252.57511,155.11512],[-3.98744,2.87929],[0.3443,-0.51542]]],&quot;closed&quot;:true}]}" fill="#999999" stroke="none" stroke-width="0.5"/><path d="M319.07339,134.43014c1.20561,5.13153 6.66079,9.48487 12.02397,8.71872c0.79814,-0.40473 1.72171,-0.57936 2.46197,-1.0822c1.10967,-0.75376 1.41233,-1.94627 2.00904,-3.01468c0.60265,-1.07906 1.65973,-2.39013 2.61332,-3.71497c0.12823,2.02692 0.58658,3.97443 0.62184,6.08181c0.06973,4.16761 -0.94162,8.69194 -1.39086,12.84159c-0.00791,0.07306 -0.01643,0.14682 -0.02462,0.21975c-3.80694,0.0038 -5.65957,3.38484 -2.39381,6.2629c-0.56803,0.12377 -1.11653,0.3058 -1.79343,0.43397c-1.91691,0.36295 -4.17311,-1.16739 -5.96914,-1.56618c-3.29207,-0.73096 -7.65952,-0.22915 -9.48107,2.23613l0.11461,-1.07254c0.64705,-5.9769 -0.21283,-11.91377 0.42748,-17.82841c0.2971,-2.74443 0.83922,-5.69636 0.78071,-8.51589z" data-paper-data="{&quot;noHover&quot;:false,&quot;origItem&quot;:[&quot;Path&quot;,{&quot;applyMatrix&quot;:true,&quot;segments&quot;:[[[217.31028,125.87069],[0,-2.76046],[0,5.9492]],[[218.78599,143.5792],[0,-6.01182],[0,0]],[[218.78599,144.65691],[0,0],[1.54563,-2.64701]],[[227.94299,141.40613],[-3.35162,-0.37239],[1.82852,0.20316]],[[234.02415,142.32697],[-1.86671,0.56716],[0.65917,-0.20028]],[[235.755,141.706],[-0.55141,0.18419],[-3.55655,-2.50985]],[[237.44548,135.2404],[-3.78441,0.41352],[0.00029,-0.0734]],[[237.44592,135.02009],[0,0.07348],[0,-4.1739]],[[237.45341,122.15603],[0.51789,4.13589],[-0.26187,-2.09134]],[[236.19296,116.18725],[0.34564,2.00134],[-0.80545,1.41978]],[[234.04788,120.07726],[0.48301,-1.13765],[-0.47825,1.12643]],[[232.31946,123.37381],[1.02209,-0.86882],[-0.68185,0.57959]],[[229.99622,124.71921],[0.74995,-0.48828],[-5.24956,1.33894]],[[217.15516,117.33905],[1.75091,4.97196],[0.36163,2.79685]]],&quot;closed&quot;:true}]}" fill="#999999" stroke="none" stroke-width="0.5"/><path d="M353.99202,134.21434c-2.02369,-0.27761 -4.09943,-0.44732 -6.11154,-0.6288c0.1923,-1.18924 0.60279,-2.27802 1.269,-3.04957c3.22368,-3.89953 6.95959,-3.56098 11.38764,-1.9452c0.69983,0.25537 1.52197,0.16447 2.18805,0.49809c0.57642,0.28871 0.57776,1.17915 0.98079,1.68232c1.13378,1.4155 1.77147,2.43589 1.02215,4.34957c-0.00859,0.07934 -0.00718,0.16631 0.00108,0.25579c-0.2205,0.17565 -0.32722,0.4083 -0.32722,0.4083l-0.26045,0.63474l-0.37466,-0.16993c-3.31733,-1.22152 -6.53283,-1.69764 -9.77484,-2.03533z" data-paper-data="{&quot;noHover&quot;:false,&quot;origItem&quot;:[&quot;Path&quot;,{&quot;applyMatrix&quot;:true,&quot;segments&quot;:[[[261.70952,114.27544],[-3.42953,-0.85738],[0,0]],[262.10014,114.40438],[262.28915,113.74879],[[262.56949,113.31035],[-0.20031,0.19836],[-0.01785,-0.08808]],[[262.54047,113.05741],[0,0.07981],[0.539,-1.98321]],[[261.05502,108.86928],[1.27954,1.28525],[-0.45485,-0.45688]],[[259.90374,107.3152],[0.60415,0.225],[-0.69812,-0.25999]],[[257.68275,107.06633],[0.72325,0.17856],[-4.57623,-1.12981]],[[246.65652,110.19259],[2.78525,-4.22384],[-0.5793,0.83877]],[[245.72042,113.34326],[0.06319,-1.20303],[2.01996,-0.03614]],[[251.84871,113.28834],[-2.04181,-0.05819],[3.25951,-0.01321]]],&quot;closed&quot;:true}]}" fill="#999999" stroke="none" stroke-width="0.5"/><path d="M318.82692,131.97644c-0.39263,-2.31075 -0.69376,-4.59509 -0.63698,-6.8382c3.20049,0.03518 6.59286,-0.59228 9.87387,-0.94218c-0.86169,0.48866 -1.77853,1.17946 -2.70503,1.41194c-1.80984,0.45414 -3.12279,0.30413 -4.44559,1.6609l-0.10997,0.16524c-0.38666,0.10264 -0.6105,0.44227 -0.6105,0.44227c-0.81036,1.30927 -1.29725,2.72366 -1.36581,4.10003z" data-paper-data="{&quot;noHover&quot;:false,&quot;origItem&quot;:[&quot;Path&quot;,{&quot;applyMatrix&quot;:true,&quot;segments&quot;:[[[217.48184,110.66638],[-0.66473,1.38889],[0,0]],[[218.0419,110.14936],[-0.37337,0.14366],[0,0]],[[218.1345,109.96861],[0,0],[1.16908,-1.49125]],[[222.45645,107.81458],[-1.75045,0.6463],[0.89608,-0.33085]],[[224.92382,106.19087],[-0.80409,0.57857],[-3.22429,0.701]],[[215.29088,108.17873],[3.18569,-0.30949],[0.18497,2.23619]],[[216.6464,114.84774],[-0.63906,-2.25507],[-0.07996,-1.37575]]],&quot;closed&quot;:true}]}" fill="#999999" stroke="none" stroke-width="0.5"/><path d="M333.77082,133.78243c0.8641,0.10697 1.81721,0.16535 2.67975,0.25872l0.3014,0.03331c-0.99399,1.39331 -2.1412,2.72335 -2.8343,3.94577c-0.43029,0.75888 -0.68151,1.95111 -1.50744,2.48325c-0.58128,0.3745 -1.3142,0.49997 -1.92317,0.82753c-4.67599,0.60833 -9.95432,-4.50846 -9.73967,-9.28724c0.75498,0.08278 1.58848,0.23239 2.34264,0.32513c-0.36638,0.97173 -0.74432,1.85667 0.04794,2.93841c0.44716,0.61055 1.90049,0.69766 2.56341,1.07621c1.46553,0.83686 3.03477,1.82357 4.89606,1.44534c2.05154,-0.41691 2.57136,-2.37461 3.17338,-4.04645z" data-paper-data="{&quot;noHover&quot;:false,&quot;origItem&quot;:[&quot;Path&quot;,{&quot;applyMatrix&quot;:true,&quot;segments&quot;:[[[228.99602,119.44923],[1.99475,-0.63529],[-1.80977,0.57637]],[[223.87455,118.52123],[1.54709,0.67426],[-0.69981,-0.305]],[[221.21087,117.72354],[0.51028,0.55887],[-0.90408,-0.99018]],[[220.85516,114.78898],[-0.25967,1.00552],[-0.75976,-0.01104]],[[218.57615,114.77001],[0.75951,0.00104],[0.30094,4.77413]],[[229.18711,122.89018],[-4.58335,1.10807],[0.57018,-0.3912]],[[230.99585,121.87445],[-0.5376,0.43489],[0.76387,-0.61794]],[[232.21885,119.26816],[-0.34611,0.80079],[0.55751,-1.28992]],[[234.61684,115.06501],[-0.83826,1.4922],[0,0]],[[234.31393,115.06501],[0,0],[-0.86758,0]],[[231.70649,115.04369],[0.8706,0.01334],[-0.41858,1.72692]]],&quot;closed&quot;:true}]}" fill="#ffffff" stroke="none" stroke-width="0.5"/><path d="M321.16176,130.11488c0.09106,-0.22679 0.19688,-0.45438 0.31922,-0.67514c0.37156,-0.11061 0.58754,-0.44916 0.58754,-0.44916l0.28328,-0.45779c0.39826,-0.73131 2.49474,-0.7722 3.48288,-1.03041c1.34953,-0.35264 2.75034,-1.74339 4.05552,-1.96027c0.83709,-0.13911 2.11021,0.28253 2.98467,0.33479c1.18774,1.05379 2.81851,1.45631 4.30124,1.99139c0.46355,0.16729 1.27017,0.06126 1.37708,0.54233c0.30005,1.35019 -0.04274,2.65647 -0.66724,3.87767c-0.18346,-0.08378 -0.34193,-0.10061 -0.34193,-0.10061l-0.88123,-0.09347c-5.10886,-0.55308 -10.34428,-1.40669 -15.50101,-1.97934z" data-paper-data="{&quot;noHover&quot;:false,&quot;origItem&quot;:[&quot;Path&quot;,{&quot;applyMatrix&quot;:true,&quot;segments&quot;:[[[234.31393,113.06501],[-5.13871,0],[0,0]],[235.19936,113.06501],[[235.55002,113.12857],[-0.19141,-0.06355],[0.48943,-1.28132]],[[235.79339,109.22432],[0.44362,1.31005],[-0.15806,-0.46678]],[[234.36654,108.83718],[0.47887,0.11643],[-1.53171,-0.37239]],[[229.89216,107.34842],[1.29426,0.91983],[-0.875,0.04215]],[[226.93003,107.34842],[0.81725,-0.22839],[-1.27426,0.35609]],[[223.15035,109.69035],[1.30373,-0.49584],[-0.95461,0.36307]],[[219.7986,111.07801],[0.31723,-0.76993],[0,0]],[219.56584,111.56081],[[219.02959,112.06827],[0.3575,-0.14996],[-0.09787,0.23264]],[[218.784,112.77044],[0.06612,-0.23527],[5.18841,0.01431]]],&quot;closed&quot;:true}]}" fill="#999999" stroke="none" stroke-width="0.5"/><path d="M357.36345,168.02123c-0.25952,-0.18462 -0.55341,-0.34667 -0.8767,-0.48024c-0.18414,-0.07608 -0.36689,-0.15588 -0.54727,-0.23946c-0.10922,-0.24069 -0.33423,-0.4759 -0.78983,-0.52522c-0.09139,-0.0099 -0.17566,-0.01035 -0.25267,-0.00324c-2.25234,-1.23904 -4.29522,-2.93439 -6.61154,-4.2127c-1.21157,-0.66863 -2.71235,-0.7461 -4.11486,-0.84794c2.42788,-1.58743 1.60419,-3.65143 -0.07814,-5.29364c1.07326,-5.45663 1.0611,-11.30639 2.42211,-16.64945c0.3818,1.11416 0.91294,2.1219 1.56487,2.94137c1.44452,1.81577 3.55001,2.19391 5.63417,2.68672c2.15402,0.50933 4.19288,1.24204 6.29138,0.23227c2.93149,-1.52678 4.78839,-4.0777 5.55131,-7.11883c0.00982,-0.00618 0.01954,-0.01244 0.02917,-0.01884c0.87459,-0.58213 0.8965,-2.02759 0.99426,-2.93067c2.26605,-6.48649 -6.18375,-10.46779 -11.55803,-10.35675c-2.83753,0.05863 -5.59716,1.9867 -7.37861,4.10161c-0.90695,1.1125 -1.41718,2.48907 -1.65769,4.07734c-0.30163,0.05288 -0.72994,0.23856 -0.79814,0.86855c-0.07349,0.67881 0.38168,0.95379 0.66834,1.05393c-0.00002,0.0661 0.00225,0.13398 0.0032,0.20016c-0.07815,0.21223 -0.15185,0.42964 -0.23,0.64189c-2.25871,6.24155 -2.15007,13.26826 -3.46953,19.80109c-0.02121,0.02215 -0.04244,0.04574 -0.06341,0.07084c-0.32749,0.39211 -0.28753,0.75118 -0.16992,1.00866c-0.2923,1.26832 -0.65067,2.51825 -1.1012,3.74176c-0.22699,1.98972 -0.47902,3.90591 -0.92902,5.83674c-0.106,0.45478 0.12303,1.14492 -0.1239,1.47436c-0.12064,-0.01468 -0.24199,-0.02967 -0.36286,-0.04482c-0.04831,-0.10692 -0.0976,-0.22939 -0.17784,-0.27638c-0.4516,-0.26444 -1.21069,-0.17519 -1.43203,-0.64941c-0.32891,-0.70469 0.12934,-2.24711 0.20659,-2.96069c0.34988,-3.23192 0.98645,-6.38978 1.33959,-9.65185c0.45842,-4.23446 1.45485,-8.78749 1.38531,-13.04215c-0.04649,-2.84457 -0.89602,-5.45826 -0.58518,-8.32954c0,0 0.04835,-0.42921 -0.20014,-0.7539c0.73176,-1.55242 1.09362,-3.07559 0.42964,-4.66318c-0.86441,-2.0668 -5.05948,-2.27779 -6.72232,-3.5984c1.39594,0.11951 2.71893,0.30871 4.06272,0.814c0.63556,0.12999 1.33125,0.67628 1.91224,0.38765c0.74313,-0.36918 1.4423,-2.80473 1.05723,-3.5585c-0.75495,-1.47783 -4.50401,-2.35091 -6.05872,-2.31879c-1.90769,0.03942 -3.84276,1.14719 -5.66384,1.492c-1.47569,0.27942 -3.406,-1.02011 -4.87953,-0.45743c-0.46543,0.17773 -1.67674,1.77982 -1.90215,2.58068c-1.25891,0.11505 -2.59877,0.13294 -3.8449,0.10728c0.17203,-1.37028 0.50328,-2.76562 1.04218,-4.1988c0.21643,-0.59807 0.56788,-3.46783 1.38326,-3.66527c3.9685,-0.96094 8.62838,-1.21847 12.68304,-2.46643c2.16974,-0.66781 3.8012,-1.57558 6.21571,-1.35065c2.35942,-0.8383 4.8815,-1.50831 7.25997,-2.24361c0.70772,-0.21879 1.49138,-0.11265 2.21096,-0.27732c-0.56619,0.45746 -1.15262,1.12014 -1.59913,1.4182c-1.5729,1.04995 -3.04585,2.11178 -4.36082,3.42818l-0.00892,0.00332l-0.05774,-0.11107l-0.92804,0.48428c-0.29327,0.14735 -0.50674,0.43577 -0.54469,0.78634c-0.05944,0.54907 0.32927,0.94273 0.87833,1.00217c0.16699,0.01807 0.32991,-0.00611 0.47595,-0.0639l1.2212,-0.45282l-0.00921,-0.02472l0.06691,0.00126c2.06574,-1.07138 4.15451,-0.95836 6.40864,-1.27473c4.34627,-0.61001 9.84961,-2.11704 13.71037,-4.20909c2.42259,-0.33433 3.35598,-1.47303 5.892,-0.50356c1.82263,0.69676 1.36696,2.41514 1.56844,3.90742c0.55376,4.10126 0.90766,7.87971 0.46271,11.98982c-0.02631,0.26021 -0.15127,0.55733 -0.18951,0.81501c-1.71015,-0.6187 -3.17472,-1.71088 -4.61253,-2.83638c-0.6531,-0.09005 -1.31651,-0.1576 -1.98789,-0.21652c-0.03582,-4.19897 -3.75053,-3.5393 -7.17108,-4.36048c-1.97656,-0.47451 -4.3793,-0.92079 -6.42127,-0.31456c-1.05869,0.31431 -2.1104,1.07095 -3.16335,1.4604l-0.92694,0.68209c0,0 -0.75585,0.52964 -0.12896,1.30875c0.00509,0.00633 0.01024,0.01257 0.01535,0.01871c-0.2402,0.7788 -0.36523,1.64381 0.14045,2.15817c1.19237,1.21282 4.00214,-0.70341 5.2848,-0.70201c3.58202,0.00391 7.34731,0.97426 11.03557,1.48409c0.07925,0.02707 0.16874,0.04736 0.26928,0.05825c0.07642,0.00827 0.14774,0.01024 0.21404,0.00644c0.7178,0.09128 1.43407,0.16547 2.14468,0.20795c1.36814,1.2776 3.04581,2.25247 4.78302,2.91309l0.19977,0.14444c-0.64664,2.5174 -1.70604,4.92996 -2.60533,7.24567c-0.10384,0.2674 -0.12466,0.55719 -0.12425,0.85048c-0.76634,1.58942 -1.30955,3.32108 -1.5956,5.07887c-0.99095,2.51968 -1.91139,5.11454 -2.68869,7.75293c-2.49266,2.65021 -1.53058,6.25493 -2.31086,9.55163c-0.39048,1.64981 -1.57933,2.60462 -2.18954,4.05233c-0.78066,1.85209 -1.60161,3.65991 -2.91444,5.32473z" data-paper-data="{&quot;noHover&quot;:false,&quot;origItem&quot;:[&quot;Path&quot;,{&quot;applyMatrix&quot;:true,&quot;segments&quot;:[[[261.10017,140.92828],[-0.57678,1.92536],[0.45085,-1.50499]],[[262.83561,136.66876],[-0.21064,1.68226],[0.42092,-3.36153]],[[264.09578,126.93823],[-2.19294,2.9031],[0.48881,-2.70672]],[[265.93053,118.95768],[-0.714,2.6117],[0.09521,-1.77836]],[[266.97074,113.74708],[-0.59082,1.66267],[-0.03197,-0.29154]],[[267.00302,112.8898],[-0.07446,0.27703],[0.64483,-2.39905]],[[268.81701,105.41726],[-0.37194,2.57238],[0,0]],[[268.603,105.29547],[0,0],[-1.79822,-0.46981]],[[263.53834,102.92129],[1.4977,1.12293],[-0.71105,0.03425]],[[261.38518,102.94738],[0.72345,0.0135],[-0.06551,0.01091]],[[261.17184,102.9642],[0.07687,0],[-0.10113,0]],[[260.8981,102.93558],[0.08171,0.01838],[-3.72171,-0.1099]],[[249.78349,102.66156],[3.56164,-0.38165],[-1.27535,0.13666]],[[244.61877,103.93297],[1.31598,1.07744],[-0.5581,-0.45694]],[[244.24916,101.80282],[-0.15498,0.80013],[-0.00574,-0.00556]],[[244.23193,101.78588],[0.00574,0.00574],[-0.70711,-0.7071]],[244.23193,100.37166],[[245.08211,99.59406],[0,0],[1.00491,-0.50052]],[[248.07619,97.80312],[-1.01871,0.42643],[1.96486,-0.8225]],[[254.50576,97.42999],[-2.01615,-0.25902],[3.48906,0.44826]],[[262.11681,101.00398],[-0.48755,-4.17072],[0.67383,-0.01369]],[[264.11791,101.0071],[-0.659,-0.01923],[1.55059,0.96421]],[[269.01318,103.33725],[-1.76681,-0.43104],[0.01027,-0.26031]],[[269.0261,102.55448],[0.00185,0.26153],[0,-4.13414]],[[267.28511,90.6962],[0.99196,4.01784],[-0.36093,-1.46193]],[[265.30919,86.98363],[1.88704,0.49655],[-2.62563,-0.69089]],[[259.5104,88.12162],[2.37253,-0.59313],[-3.61316,2.49542]],[[246.34936,93.78805],[4.25537,-1.07425],[-2.20699,0.55715]],[[240.12841,95.7457],[1.93843,-1.28749],[0,0]],[240.06191,95.75164],[240.0737,95.77522],[[238.91113,96.35651],[0,0],[-0.13897,0.07317]],[[238.44592,96.47108],[0.16796,0],[-0.55229,0]],[[237.44592,95.47108],[0,0.55228],[0,-0.35262]],[[237.90412,94.63042],[-0.2757,0.17806],[0,0]],[238.77664,94.04874],[238.84611,94.15294],[[238.85464,94.14868],[0,0],[1.16565,-1.45028]],[[242.82934,90.2706],[-1.45076,1.21314],[0.41184,-0.34439]],[[244.26156,88.78838],[-0.51366,0.51574],[-0.69767,0.24116]],[[242.09703,89.30218],[0.68006,-0.29369],[-2.28553,0.98702]],[[235.13397,92.31234],[2.25549,-1.08737],[-2.4247,0.03625]],[[229.11079,94.3196],[2.08526,-0.89746],[-3.89679,1.67711]],[[216.78214,98.1236],[3.84202,-1.38249],[-0.78939,0.28405]],[[215.80471,101.91159],[0.1508,-0.61789],[-0.38152,1.48285]],[[215.22359,106.1921],[0.02355,-1.38084],[1.24166,-0.10862]],[[218.94419,105.62907],[-1.23921,0.24988],[0.1379,-0.82046]],[[220.56069,102.85337],[-0.4436,0.22679],[1.40442,-0.71801]],[[225.46503,102.77796],[-1.43705,0.43662],[1.77339,-0.53881]],[[230.94519,100.67655],[-1.89236,0.24451],[1.54222,-0.19926]],[[237.23058,102.32389],[-0.90962,-1.38799],[0.46396,0.70795]],[[236.59928,106.06825],[0.69908,-0.44702],[-0.54654,0.34949]],[[234.66168,105.88576],[0.64586,0.06083],[-1.39037,-0.35772]],[[230.47359,105.43541],[1.4007,-0.03143],[1.79531,1.13396]],[[237.55674,108.2806],[-1.08184,-1.96176],[0.831,1.50691]],[[237.68822,113.04379],[0.56043,-1.62216],[0.28199,0.29606]],[[237.97021,113.76987],[0,0],[0,2.88806]],[[239.43843,121.91166],[-0.35238,-2.82304],[0.52706,4.22245]],[[239.44592,135.02009],[0,-4.2592],[0,3.28113]],[[239.15078,144.75977],[0,-3.25081],[0,0.71775]],[[239.26333,147.72542],[-0.40285,-0.66519],[0.2711,0.44763]],[[240.75445,148.21676],[-0.47744,-0.2143],[0.08483,0.03807]],[[240.96064,148.47237],[-0.05953,-0.1011],[0.12179,0.00206]],[[241.32563,148.47785],[-0.12152,-0.00161],[0.21004,-0.35412]],[[241.29026,146.99872],[-0.05643,0.46355],[0.23958,-1.96805]],[[241.5854,141.09588],[-0.01152,2.0026],[0.31623,-1.26489]],[[242.27595,137.25733],[-0.15409,1.29241],[-0.14464,-0.24332]],[[242.33614,136.23624],[-0.28339,0.42508],[0.01814,-0.02721]],[[242.39141,136.15899],[-0.0187,0.02431],[0.60867,-6.63689]],[[243.67376,116.18361],[-1.57382,6.4484],[0.05486,-0.21941]],[[243.83832,115.52536],[-0.05486,0.21941],[-0.00806,-0.0657]],[[243.81556,115.32823],[0.0071,0.06572],[-0.29577,-0.06871]],[[243.05361,114.36016],[0,0.68277],[0,-0.63366]],[[243.74934,113.40932],[-0.29419,0.08504],[0.06817,-1.60492]],[[244.99242,109.08319],[-0.78194,1.20365],[1.54348,-2.29435]],[[251.90026,104.21825],[-2.81473,0.36369],[5.33112,-0.68882]],[[264.52549,113.30177],[1.55475,-6.69271],[0,0.90836]],[[263.85325,116.32893],[0.80685,-0.67288],[-0.00888,0.00741]],[[263.82628,116.35085],[0.0091,-0.0072],[-0.43117,3.10558]],[[259.07027,124.04646],[2.75014,-1.83343],[-1.97763,1.22977]],[[252.78569,124.50206],[2.19632,0.27454],[-2.12509,-0.26564]],[[246.88821,122.44581],[1.63156,1.64975],[-0.73633,-0.74455]],[[245.02148,119.68333],[0.4995,1.06659],[-0.77803,5.45851]],[[244.35874,136.41818],[0.47973,-5.54044],[1.84931,1.45159]],[[245.00613,141.67266],[2.24292,-1.83952],[1.40533,-0.0497]],[[249.18044,142.07441],[-1.2765,-0.53435],[2.44045,1.02158]],[[256.19835,145.55442],[-2.37262,-0.98942],[0.07581,-0.01535]],[[256.44957,145.53062],[-0.09193,0],[0.45828,0]],[[257.2906,145.96818],[-0.13449,-0.22754],[0.18833,0.06368]],[[257.85989,146.14765],[-0.19126,-0.05582],[0.33578,0.09801]],[[258.78238,146.53121],[-0.27789,-0.15561],[1.12602,-1.79645]]],&quot;closed&quot;:true}]}" fill="#999999" stroke="none" stroke-width="0.5"/><path d="M318.40576,132.54605c0.09875,1.02543 0.25161,2.04784 0.2537,3.09538c0.01211,6.06435 -0.60402,11.78483 -3.44799,17.1155c-2.26177,2.35775 -6.8275,1.01725 -7.5549,-2.187c-1.54381,-6.80054 -0.48707,-15.08139 0.25438,-21.93032c0.19076,-1.76202 -0.0045,-3.93913 1.41521,-5.26232c1.72538,-1.60808 6.72401,-0.36562 8.30571,1.01075c1.74415,1.51772 1.02411,5.92275 0.77389,8.15803z" fill="#c300f0" stroke="none" stroke-width="0.5"/><path d="M369.87214,135.56177c-0.33301,-0.32901 -0.27789,-0.83817 -0.27789,-0.83817l0.03177,-0.29343c0.20427,-1.88688 -0.14975,-6.62125 1.93744,-7.505c1.87572,-0.79421 4.50983,1.30297 6.24516,1.49083c2.57755,2.0873 1.72326,4.39163 1.40313,7.34878c-0.72914,6.73519 -1.46111,14.36881 -6.49343,19.19612c-3.39223,-0.25548 -4.47008,-2.56383 -5.24305,-5.57128c-1.30814,-5.08967 1.18315,-9.19201 2.39687,-13.82785z" fill="#c300f0" stroke="none" stroke-width="0.5"/><path d="M314.67444,125.17859c-0.12414,-0.28146 -0.09325,-0.56676 -0.09325,-0.56676l0.06354,-0.58685c0.04793,-0.44272 0.25132,-2.58271 0.42254,-2.80381c1.52639,-1.97102 5.61158,-0.36571 6.11461,1.7357c0.70628,2.95051 -0.80351,7.82071 -1.13211,10.8561c-0.57671,5.3272 -0.22886,10.43509 -1.40562,15.68087c-0.41392,1.84518 -1.99283,7.26438 -5.03551,4.96123c-1.20873,-0.91495 -0.8663,-4.19952 -1.05112,-5.59637c0.78309,-7.64415 0.02316,-16.12996 2.11691,-23.68011z" fill="#00b539" stroke="none" stroke-width="0.5"/><path d="M367.84985,130.35593c-0.41982,-0.32101 -0.35644,-0.90649 -0.35644,-0.90649l0.03177,-0.29342c0.17053,-1.52107 0.5383,-5.22118 2.08949,-6.01296c0.83405,-0.42574 4.16397,1.26283 4.5937,1.95096c0.89531,1.43365 0.16658,1.87037 -0.1234,3.11384c-0.50062,2.14673 -0.56605,4.42323 -1.3209,6.50912c-1.1483,3.05384 -1.78749,7.43852 -1.73248,10.72652c0.03487,2.08357 0.97355,4.22607 0.18794,6.31167c-0.74951,1.98977 -3.74216,5.40383 -5.65633,2.70463c-0.66553,-0.93847 -0.34295,-2.82112 -0.90056,-3.94783c0.3347,-4.24601 0.495,-8.86632 1.37507,-13.03077c0.51178,-2.42174 1.29787,-4.72726 1.81214,-7.12528z" fill="#00b539" stroke="none" stroke-width="0.5"/><path d="M374.67278,146.53388c-2.23275,-1.12466 -1.10809,-3.3574 -1.10809,-3.3574l1.06117,-2.09309c3.22891,-9.61141 7.60882,-19.14343 8.6993,-29.21636c0.76697,-7.00406 1.01015,-14.6594 -0.23213,-21.57413c-0.40454,-2.25172 0.04033,-5.48042 -0.75193,-7.60271c-0.92877,-2.48794 -4.88016,-3.83339 -7.0498,-4.56526c-5.22537,-1.76261 -10.14186,-4.07375 -15.5894,-5.21789c-14.14044,-4.44057 -32.89791,-7.44213 -42.67905,6.84031c-1.83401,2.67803 -2.67435,6.18825 -3.70541,9.21903c-2.40631,10.87933 -5.51454,21.87438 -5.6467,33.16522c-0.0659,5.62974 1.07428,11.22737 1.69524,16.8072c0,0 0.27652,2.48466 -2.20815,2.76117c-2.48467,0.27652 -2.76117,-2.20815 -2.76117,-2.20815c-0.64312,-5.77896 -1.80696,-11.57312 -1.7257,-17.40591c0.16352,-11.73732 3.30961,-23.15192 5.83099,-34.46522c1.20336,-3.56862 2.2459,-7.5275 4.38675,-10.68557c10.98154,-16.19943 31.85894,-13.99434 48.08106,-8.86463c4.69545,0.99093 9.10958,2.67256 13.51169,4.50781c4.48633,1.87036 10.33349,3.05193 12.4762,8.19159c1.02459,2.45767 0.5795,5.99715 1.05383,8.62356c1.33522,7.3934 1.08622,15.52867 0.28466,23.01176c-1.14261,10.55451 -5.63161,20.56022 -9.05828,30.60944l-1.20765,2.41116c0,0 -1.12465,2.23275 -3.3574,1.10809z" fill="#82007c" stroke="none" stroke-width="0.5"/><path d="M307.46347,195.84358c-0.39187,-0.66111 -1.06769,-3.02624 -1.70671,-3.46583c-3.62273,-2.4921 -5.60318,-0.41955 -9.22193,0.39447c-1.16368,-0.1194 -2.86389,-0.13973 -3.83003,-0.95338c-2.2011,-1.85368 -2.53102,-5.61974 -0.60663,-7.73735c1.17672,-1.29486 3.64994,-2.08243 4.0521,-3.95103c0.46977,-2.18278 -3.03658,-3.87473 -3.18897,-5.92631c-0.19574,-2.63524 3.06448,-4.28624 4.81268,-5.69289c0.1538,-0.12345 2.13941,-1.67406 2.28877,-1.95114c0.56894,-1.05548 -0.07051,-3.05713 -0.19085,-4.06547c-0.31729,-2.65821 -1.78188,-8.13088 -0.56853,-10.62816c1.61019,-3.31405 6.91438,-4.04118 9.55305,-6.20163c0,0 0.97388,-0.78361 1.7575,0.19027c0.78361,0.97387 -0.19026,1.7575 -0.19026,1.7575c-2.33639,1.85441 -7.45844,2.76149 -8.92698,5.45361c-0.64987,1.19134 0.48737,4.00101 0.67476,5.19044c0.37101,2.35494 1.31945,7.15616 0.14763,9.38006c-0.47974,0.91045 -2.13749,2.14459 -2.97785,2.82229c-0.60362,0.48569 -4.09334,2.60118 -3.89648,3.45773c0.5645,2.45618 3.78187,3.48883 3.16951,6.63671c-0.60138,3.0914 -5.43179,3.9736 -5.50313,6.87775c-0.01146,0.46649 0.98992,1.45307 1.082,1.62693c0.39354,0.74307 1.37407,1.1198 2.2092,1.21759c1.57288,-0.32109 2.24262,-1.25524 3.82712,-1.61193c2.28751,-0.51494 5.33709,0.35547 7.15814,1.81907c1.58688,1.2754 1.84515,4.0401 3.07528,5.82101c-0.14062,0.91592 -0.24496,1.82241 -0.31545,2.74193c-1.02058,-0.73485 -1.80043,-1.7117 -2.68391,-3.20222z" fill="#00b539" stroke="none" stroke-width="0.5"/><path d="M364.33149,122.01074c0,0 1.4812,0.48028 4.11158,1.56189c2.40254,0.98793 4.23579,2.21278 4.23579,2.21278l0.06801,1.18455c0,0 -6.87064,-3.89207 -14.76209,-4.08316c-6.30981,-0.15277 -10.20801,1.72373 -10.20801,1.72373l0.49503,-4.14764c0,0 3.29273,-1.3577 8.0177,-0.99842c4.89266,0.37203 7.98021,1.45863 7.98021,1.45863z" data-paper-data="{&quot;index&quot;:null}" fill="#000000" stroke="none" stroke-width="1.5"/><path d="M324.0254,121.76747c0,0 3.54583,-1.44576 8.23136,-1.404c5.19216,0.04627 7.73024,0.7702 7.73024,0.7702l-0.15195,4.1452c0,0 -3.74,-1.08951 -7.91529,-1.38107c-5.58393,-0.38993 -6.7605,0.70942 -11.03798,0.70728c-3.66517,-0.00183 -6.71519,-0.56721 -6.71519,-0.56721l0.10681,-1.22718c0,0 3.56633,0.4605 5.21067,0.49534c1.35718,0.02875 4.05357,-0.50473 4.05357,-0.50473z" fill="#000000" stroke="none" stroke-width="1.5"/></g></g></svg>