<svg version="1.1" xmlns="http://www.w3.org/2000/svg" xmlns:xlink="http://www.w3.org/1999/xlink" width="183.93429" height="121.72206" viewBox="0,0,183.93429,121.72206"><g transform="translate(-170.96077,-191.28591)"><g data-paper-data="{&quot;isPaintingLayer&quot;:true}" fill="#000000" fill-rule="nonzero" stroke="none" stroke-miterlimit="10" stroke-dasharray="" stroke-dashoffset="0" style="mix-blend-mode: normal"><path d="M218.78055,203.62063c1.37695,-2.16797 2.09961,-4.56055 2.16797,-7.17774c0.0293,-1.17187 -0.03418,-1.958 -0.19043,-2.35839c-0.14648,-0.40039 -0.44434,-0.60547 -0.89355,-0.61524c-0.44922,-0.01953 -0.85937,0.19043 -1.23047,0.62988c-0.36133,0.42969 -0.71289,1.00098 -1.05469,1.71387c-0.9082,1.875 -1.39648,3.97949 -1.46484,6.31348c-0.03906,1.80664 0.27344,2.73437 0.9375,2.7832c0.58594,0.01953 1.16211,-0.41015 1.72852,-1.28906zM213.68289,202.41944c0.09766,-2.69531 0.6543,-5.01465 1.66992,-6.95801c0.43945,-0.85937 0.80078,-1.47949 1.08399,-1.86035c0.2832,-0.39063 0.625,-0.77637 1.02539,-1.15723c0.83008,-0.79102 1.83105,-1.17676 3.00293,-1.15723c1.00586,0.04883 1.78711,0.55176 2.34375,1.50879c0.41016,0.6543 0.58594,1.74805 0.52734,3.28125c-0.04883,1.52344 -0.30762,3.01758 -0.77637,4.48242c-0.45898,1.45508 -0.97656,2.6709 -1.55273,3.64747c-1.15234,1.92383 -2.62207,2.85644 -4.40918,2.79785c-0.6543,-0.02933 -1.24512,-0.30765 -1.77246,-0.83496c-0.35156,-0.33203 -0.63965,-0.82032 -0.86426,-1.46485c-0.21484,-0.65429 -0.30762,-1.41601 -0.27832,-2.28515z" stroke-width="1" stroke-linecap="butt" stroke-linejoin="miter"/><g><path d="M285.09779,306.79017c2.27265,1.36822 4.23223,1.46099 5.87875,0.27828c1.66971,-1.1827 3.28143,-3.90758 4.83519,-8.1746c1.57693,-4.2902 2.58572,-7.64121 3.02633,-10.053c0.46381,-2.435 0.66093,-4.0815 0.59136,-4.93956c-0.06957,-0.85804 -0.49856,-1.48419 -1.28706,-1.87842c-0.76526,-0.39422 -2.05233,0.42901 -3.86119,2.46977c-1.80885,2.04077 -3.37419,4.74244 -4.69604,8.10503c-1.29865,3.36259 -2.72487,7.87314 -4.27863,13.53156zM288.50675,312.04278c-1.57693,0 -3.09592,-0.4522 -4.55691,-1.35664c-0.39422,0.71891 -1.03195,1.07837 -1.91318,1.07837h-1.21747c-1.66971,0 -2.36542,-0.76526 -2.08713,-2.29584l13.04455,-50.1955c0.27826,-1.04357 0.99718,-1.56534 2.15669,-1.56534h1.63493c1.32185,0 1.84362,0.54498 1.56535,1.63493l-6.19182,24.28028l1.04357,-1.77405c0.99721,-1.66971 2.13352,-3.09593 3.40899,-4.27863c1.29865,-1.1827 2.35381,-1.77407 3.16548,-1.77407h0.13917c0.37104,0 0.96239,0.27828 1.77405,0.83486c0.81166,0.53339 1.60013,1.28706 2.36542,2.26105c0.78846,0.974 1.32185,1.99437 1.60012,3.06113c0.30145,1.06675 0.23188,3.01473 -0.20873,5.84398c-0.41743,2.82923 -1.53058,6.7136 -3.3394,11.65316c-1.80885,4.93956 -3.64089,8.27893 -5.49612,10.01821c-1.83206,1.71607 -4.12789,2.57412 -6.88752,2.57412z" stroke-width="1.20157" stroke-linecap="round" stroke-linejoin="round"/><path d="M305.2531,302.09985c0.20871,-6.35415 1.79726,-12.37205 4.76562,-18.05368c2.96835,-5.68162 6.7484,-8.47606 11.34007,-8.38331c2.38859,0.13916 4.24384,1.33346 5.56567,3.5829c0.99721,1.55376 1.403,4.18587 1.21747,7.89632c-0.18553,7.02668 -2.11033,13.53155 -5.7744,19.51468c-2.52774,4.38297 -5.92513,6.49329 -10.19217,6.33098c-1.50738,-0.04632 -2.91038,-0.70729 -4.20902,-1.98278c-1.94802,-1.85521 -2.85243,-4.8236 -2.71328,-8.9051zM317.39323,304.95229c3.22345,-5.07869 4.92794,-10.76033 5.11347,-17.04491c0.04632,-2.78285 -0.10435,-4.64965 -0.45221,-5.60047c-0.32466,-0.95081 -1.02038,-1.4378 -2.08713,-1.461c-1.06675,-0.02335 -2.04076,0.47527 -2.92197,1.49577c-0.88123,1.02039 -1.73928,2.435 -2.57412,4.24385c-2.11033,4.22066 -3.25825,9.1602 -3.44376,14.81863c-0.09274,4.267 0.64936,6.47009 2.22629,6.60924c1.36822,0.04632 2.74805,-0.974 4.13946,-3.06113z" stroke-width="1.20157" stroke-linecap="round" stroke-linejoin="round"/><path d="M324.41421,310.99045c5.75122,-6.9803 10.05303,-12.44162 12.90544,-16.38398c-1.1827,-4.98592 -2.56254,-10.12258 -4.13946,-15.40999c-0.60295,-1.73928 -0.2203,-2.6089 1.14792,-2.6089h1.98278c1.04357,0 1.73928,0.54495 2.08713,1.63491c1.27548,4.40618 2.34224,8.3949 3.20028,11.9662c2.08713,-3.03795 4.71924,-7.27018 7.89632,-12.69672c0.32466,-0.60295 0.96239,-0.90442 1.91318,-0.90442h2.435c1.27548,0 1.39142,0.84645 0.34785,2.53933c-2.55094,4.42935 -6.29617,10.01822 -11.23572,16.76662c1.08995,4.84677 2.06393,9.97186 2.92197,15.37518c0.13916,0.95081 -0.24348,1.4494 -1.14792,1.49579l-2.15669,0.20873c-0.64935,0.09274 -1.10153,-0.00002 -1.35664,-0.27828c-0.2319,-0.27826 -0.46379,-0.91599 -0.69571,-1.91318c-0.46381,-3.24665 -1.07836,-6.62085 -1.84362,-10.12259c-3.26984,4.17426 -5.43811,6.89915 -6.5049,8.1746c-1.04357,1.25229 -1.65811,1.99437 -1.84362,2.22629c-0.18553,0.2319 -0.30147,0.38263 -0.34785,0.45218c-0.04632,0.06957 -0.15073,0.20871 -0.31306,0.41741c-0.16234,0.18553 -0.31308,0.30147 -0.45222,0.34785c-0.11597,0.04632 -0.26671,0.11595 -0.45221,0.20873c-0.27826,0.18553 -0.66092,0.27828 -1.14792,0.27828h-2.05233c-0.6725,0 -1.11315,-0.19713 -1.32185,-0.59136c-0.20871,-0.41743 -0.15072,-0.81166 0.17394,-1.18269z" stroke-width="1.20157" stroke-linecap="round" stroke-linejoin="round"/><path d="M198.20525,260.65089c1.11481,0.80646 2.07545,2.27707 2.88191,4.41183c0.83019,2.11103 1.29272,3.93743 1.38759,5.4792c0.1186,1.54178 0.18974,2.45496 0.21347,2.7396c0.04744,0.64042 -0.45068,1.11481 -1.49432,1.42318l-2.02801,0.60484c-0.47438,0.1186 -0.9725,-0.01185 -1.49432,-0.39136c-0.52182,-0.40324 -0.79461,-0.93691 -0.81831,-1.60107c-0.37951,-3.72395 -1.2097,-6.36868 -2.49054,-7.93416c-0.64042,-0.2372 -1.35201,-0.35581 -2.13476,-0.35581c-2.37194,-0.1186 -4.75576,1.56548 -7.15144,5.05226c-2.39567,3.46304 -4.44739,8.19507 -6.15521,14.19612c-2.22963,7.61397 -2.70402,13.85217 -1.42318,18.71468c0.71159,2.70402 1.79081,4.23392 3.23772,4.58972c3.55791,-0.30835 6.49914,-2.92937 8.82364,-7.86302c0.07117,-0.14231 0.16604,-0.34393 0.28464,-0.60484c0.14231,-0.28464 0.2372,-0.46253 0.28464,-0.5337c0.04744,-0.09487 0.1186,-0.23718 0.21347,-0.42695c0.1186,-0.21347 0.20162,-0.33208 0.24906,-0.35578c0.04744,-0.04744 0.1186,-0.13045 0.21347,-0.24906c0.09487,-0.1186 0.17789,-0.17789 0.24906,-0.17789c0.09487,0 0.18974,-0.01185 0.28464,-0.03558c0.1186,-0.04744 0.23718,-0.04744 0.35578,0c0.14231,0.04744 0.29649,0.09487 0.46253,0.14231c0.16604,0.02373 0.34393,0.08302 0.5337,0.17789l2.31265,0.96064c0.45068,0.16604 0.676,0.54555 0.676,1.13854c0.02373,0.56928 -0.13045,1.16227 -0.46253,1.77896c-2.27707,4.12719 -4.49485,7.05654 -6.65332,8.78806c-2.15847,1.70782 -4.83878,2.56171 -8.04091,2.56171c-1.47061,0 -3.02424,-0.50997 -4.66087,-1.5299c-2.63285,-1.61292 -4.21021,-5.08784 -4.73203,-10.42471c-0.49811,-5.3606 0.10675,-11.39721 1.81454,-18.10984c1.0911,-4.43554 2.68031,-8.45601 4.76762,-12.06136c2.08733,-3.62908 4.50671,-6.49914 7.25816,-8.61017c2.77518,-2.11103 5.58593,-3.16655 8.43228,-3.16655c0.59299,0 1.38759,0.16604 2.38382,0.49811c1.01993,0.33208 1.82639,0.72344 2.41938,1.17412z" stroke-width="1" stroke-linecap="butt" stroke-linejoin="miter"/><path d="M241.60369,262.85265c0,0 -4.00244,15.68784 -12.00732,47.06351c-0.25754,0.96573 -0.91209,1.4486 -1.96367,1.4486h-1.12668c-0.79405,0 -1.3413,-0.19315 -1.64175,-0.57944c-0.3219,-0.40776 -0.40776,-0.92281 -0.25754,-1.54517l12.03952,-46.4519c0.25754,-0.96573 0.92281,-1.4486 1.99585,-1.4486h1.51299c1.20182,0 1.68467,0.50432 1.4486,1.51299z" stroke-width="1" stroke-linecap="butt" stroke-linejoin="miter"/><path d="M272.93479,285.61923c2.93405,-4.76507 5.20626,-7.68808 6.81667,-8.76905c0.52946,-0.37504 1.47806,-0.56253 2.84581,-0.56253h0.66182c1.30156,0 1.75381,0.50739 1.35671,1.52218c-0.19854,0.55151 -0.75005,1.2354 -1.65453,2.05162c-0.90448,0.79417 -2.10676,2.13985 -3.60689,4.03707c-1.50011,1.89722 -2.25016,3.13259 -2.25016,3.70615c0,1.19128 0.56253,2.30532 1.68763,3.34218c0.26473,0.22059 0.34194,0.46325 0.23164,0.72798c-0.08826,0.26473 -0.3199,0.43018 -0.69491,0.49637l-2.58108,0.46327c-0.72801,0.11024 -1.27952,0.03303 -1.65453,-0.23164c-0.37502,-0.28678 -0.84931,-0.97067 -1.42289,-2.05162l-0.56253,-1.02583l-5.22835,20.11915c-0.26473,0.99271 -0.9486,1.48908 -2.05162,1.48908h-1.95236c-1.23538,0 -1.73174,-0.51842 -1.48908,-1.55525l8.27268,-31.50238c0.24266,-0.90448 0.87138,-1.35673 1.88617,-1.35673h2.08471c0.59563,0 0.99274,0.11031 1.19128,0.3309c0.19854,0.19854 0.23159,0.56253 0.09917,1.092z" stroke-width="1" stroke-linecap="butt" stroke-linejoin="miter"/><path d="M213.34469,303.45326c3.41802,-5.24367 5.21189,-11.03061 5.38158,-17.36082c0.07273,-2.83441 -0.08485,-4.73582 -0.47271,-5.70424c-0.36361,-0.96842 -1.10299,-1.46445 -2.21807,-1.48808c-1.1151,-0.04724 -2.13322,0.46059 -3.05441,1.52349c-0.89693,1.03929 -1.76962,2.42107 -2.61807,4.14534c-2.25444,4.53507 -3.4665,9.6252 -3.63619,15.27043c-0.09696,4.36972 0.67876,6.61363 2.32717,6.73173c1.45449,0.04724 2.88472,-0.99203 4.29073,-3.11785zM200.69071,300.54794c0.24242,-6.51915 1.62418,-12.12895 4.14526,-16.82936c1.09085,-2.07856 1.98779,-3.57845 2.6908,-4.49963c0.70299,-0.94482 1.55144,-1.87781 2.54534,-2.799c2.06052,-1.91324 4.54524,-2.84623 7.45421,-2.799c2.49686,0.11811 4.43616,1.33454 5.81792,3.64931c1.01814,1.58256 1.45449,4.22801 1.30902,7.93637c-0.12121,3.68475 -0.76361,7.29863 -1.92719,10.84164c-1.13933,3.51941 -2.42413,6.46011 -3.85436,8.82215c-2.86047,4.65317 -6.50879,6.90888 -10.94496,6.76717c-1.62418,-0.07094 -3.09078,-0.74411 -4.3998,-2.01952c-0.87268,-0.80308 -1.58781,-1.98411 -2.14536,-3.54304c-0.5333,-1.58253 -0.76361,-3.42491 -0.69088,-5.5271z" stroke-width="1" stroke-linecap="butt" stroke-linejoin="miter"/><path d="M251.3447,302.45326c3.41802,-5.24367 5.21188,-11.03061 5.38157,-17.36082c0.07273,-2.83441 -0.08485,-4.73582 -0.4727,-5.70425c-0.36361,-0.96843 -1.10299,-1.46445 -2.21807,-1.48809c-1.1151,-0.04724 -2.13322,0.4606 -3.05441,1.5235c-0.89694,1.03929 -1.76962,2.42107 -2.61807,4.14534c-2.25444,4.53506 -3.4665,9.6252 -3.63619,15.27043c-0.09696,4.36973 0.67876,6.61363 2.32717,6.73173c1.45449,0.04724 2.88472,-0.99203 4.29073,-3.11785zM238.69072,299.54794c0.24242,-6.51916 1.62417,-12.12895 4.14526,-16.82936c1.09085,-2.07856 1.98779,-3.57845 2.6908,-4.49963c0.70299,-0.94482 1.55145,-1.87781 2.54534,-2.799c2.06052,-1.91324 4.54523,-2.84623 7.45421,-2.79899c2.49686,0.11811 4.43616,1.33454 5.81792,3.64932c1.01815,1.58256 1.45448,4.22801 1.30902,7.93637c-0.12121,3.68475 -0.7636,7.29863 -1.92719,10.84164c-1.13933,3.51941 -2.42413,6.46012 -3.85436,8.82215c-2.86047,4.65317 -6.5088,6.90887 -10.94496,6.76716c-1.62418,-0.07094 -3.09078,-0.74412 -4.3998,-2.01952c-0.87268,-0.80308 -1.58781,-1.98411 -2.14536,-3.54303c-0.5333,-1.58254 -0.7636,-3.42491 -0.69087,-5.5271z" stroke-width="1" stroke-linecap="butt" stroke-linejoin="miter"/></g></g></g></svg>