<svg version="1.1" xmlns="http://www.w3.org/2000/svg" xmlns:xlink="http://www.w3.org/1999/xlink" width="812" height="127.41891" viewBox="0,0,812,127.41891"><defs><linearGradient x1="717.16667" y1="330.33342" x2="-46.83333" y2="330.33342" gradientUnits="userSpaceOnUse" id="color-1"><stop offset="0" stop-color="#ededa3"/><stop offset="1" stop-color="#ededa3"/></linearGradient><linearGradient x1="340.16667" y1="316.33342" x2="340.16667" y2="398.33353" gradientUnits="userSpaceOnUse" id="color-2"><stop offset="0" stop-color="#8f8f31" stop-opacity="0"/><stop offset="1" stop-color="#8f8f31"/></linearGradient><linearGradient x1="552.84699" y1="322.65415" x2="556.49636" y2="333.23337" gradientUnits="userSpaceOnUse" id="color-3"><stop offset="0" stop-color="#ecec68"/><stop offset="1" stop-color="#292912"/></linearGradient></defs><g transform="translate(57.5,-270.91462)"><g data-paper-data="{&quot;isPaintingLayer&quot;:true}" stroke-miterlimit="10" stroke-dasharray="" stroke-dashoffset="0" style="mix-blend-mode: normal"><g fill-rule="nonzero" stroke="none" stroke-linecap="butt" stroke-linejoin="miter"><path d="M-45.63333,377.33354v-92h764v92z" fill="#4b4b00" stroke-width="NaN"/><path d="M-46.83333,371.33354v-82h764v82z" data-paper-data="{&quot;index&quot;:null}" fill="url(#color-1)" stroke-width="NaN"/><path d="M-41.83333,398.33353v-82h764v82z" fill="url(#color-2)" stroke-width="NaN"/></g><path d="M-47.5,321.81766v-6.41667h802v6.41667z" fill="#4b4b00" fill-rule="nonzero" stroke="none" stroke-width="0" stroke-linecap="butt" stroke-linejoin="miter"/><path d="M-57.5,339.81777v-6.41667h802v6.41667z" fill="#4b4b00" fill-rule="nonzero" stroke="none" stroke-width="0" stroke-linecap="butt" stroke-linejoin="miter"/><path d="M495.49121,276.92931c1.73219,1.31567 1.2342,17.92207 0,19.55852c-1.50707,1.99825 -104.41697,1.0362 -106.79562,0c-1.44833,-0.63093 -2.01401,-18.45844 0,-19.55852c2.28529,-1.24826 103.23301,-2.70597 106.79562,0z" fill="#ededa3" fill-rule="nonzero" stroke="#4b4b00" stroke-width="2" stroke-linecap="butt" stroke-linejoin="miter"/><path d="M373.49121,276.92931c1.73219,1.31567 1.2342,17.92207 0,19.55852c-1.50707,1.99825 -104.41697,1.0362 -106.79562,0c-1.44833,-0.63093 -2.01401,-18.45844 0,-19.55852c2.28529,-1.24826 103.23301,-2.70597 106.79562,0z" fill="#ededa3" fill-rule="nonzero" stroke="#4b4b00" stroke-width="2" stroke-linecap="butt" stroke-linejoin="miter"/><path d="M617.99121,276.92931c1.73219,1.31567 1.2342,17.92207 0,19.55852c-1.50707,1.99825 -104.41697,1.0362 -106.79562,0c-1.44833,-0.63093 -2.01401,-18.45844 0,-19.55852c2.28529,-1.24826 103.23301,-2.70597 106.79562,0z" fill="#ededa3" fill-rule="nonzero" stroke="#4b4b00" stroke-width="2" stroke-linecap="butt" stroke-linejoin="miter"/><path d="M250.99121,276.92931c1.73219,1.31567 1.2342,17.92207 0,19.55852c-1.50707,1.99825 -104.41697,1.0362 -106.79562,0c-1.44833,-0.63093 -2.01401,-18.45844 0,-19.55852c2.28529,-1.24826 103.23301,-2.70597 106.79562,0z" fill="#ededa3" fill-rule="nonzero" stroke="#4b4b00" stroke-width="2" stroke-linecap="butt" stroke-linejoin="miter"/><path d="M128.49121,276.92931c1.73219,1.31567 1.2342,17.92207 0,19.55852c-1.50707,1.99825 -104.41697,1.0362 -106.79562,0c-1.44833,-0.63093 -2.01401,-18.45844 0,-19.55852c2.28529,-1.24826 103.23301,-2.70597 106.79562,0z" fill="#ededa3" fill-rule="nonzero" stroke="#4b4b00" stroke-width="2" stroke-linecap="butt" stroke-linejoin="miter"/><g fill-rule="evenodd" stroke="none" stroke-width="4.43922" stroke-linecap="round" stroke-linejoin="round"><path d="M426.33691,302.95725h31.12267c6.08447,0 10.98278,4.83681 10.98278,10.84486v30.73185c0,6.00805 -4.89831,10.84486 -10.98278,10.84486h-31.12267c-6.08446,0 -10.98278,-4.83681 -10.98278,-10.84486v-30.73185c0,-6.00805 4.89832,-10.84486 10.98278,-10.84486z" fill="#4b4b00"/><path d="M428.49875,305.96997h27.0025c5.27898,0 9.52882,4.24985 9.52882,9.52882v27.0025c0,5.27897 -4.24984,9.52882 -9.52882,9.52882h-27.0025c-5.27897,0 -9.52882,-4.24985 -9.52882,-9.52882v-27.0025c0,-5.27897 4.24985,-9.52882 9.52882,-9.52882z" fill="#a0a300"/><path d="M304.33691,302.95725h31.12267c6.08447,0 10.98278,4.83681 10.98278,10.84486v30.73185c0,6.00805 -4.89831,10.84486 -10.98278,10.84486h-31.12267c-6.08446,0 -10.98278,-4.83681 -10.98278,-10.84486v-30.73185c0,-6.00805 4.89832,-10.84486 10.98278,-10.84486z" fill="#4b4b00"/><path d="M306.49875,305.96997h27.0025c5.27898,0 9.52882,4.24985 9.52882,9.52882v27.0025c0,5.27897 -4.24984,9.52882 -9.52882,9.52882h-27.0025c-5.27897,0 -9.52882,-4.24985 -9.52882,-9.52882v-27.0025c0,-5.27897 4.24985,-9.52882 9.52882,-9.52882z" fill="#a0a300"/><path d="M181.83691,302.95725h31.12267c6.08447,0 10.98278,4.83681 10.98278,10.84486v30.73185c0,6.00805 -4.89831,10.84486 -10.98278,10.84486h-31.12267c-6.08446,0 -10.98278,-4.83681 -10.98278,-10.84486v-30.73185c0,-6.00805 4.89832,-10.84486 10.98278,-10.84486z" fill="#4b4b00"/><path d="M548.33691,302.95725h31.12267c6.08447,0 10.98278,4.83681 10.98278,10.84486v30.73185c0,6.00805 -4.89831,10.84486 -10.98278,10.84486h-31.12267c-6.08446,0 -10.98278,-4.83681 -10.98278,-10.84486v-30.73185c0,-6.00805 4.89832,-10.84486 10.98278,-10.84486z" fill="#4b4b00"/><path d="M550.49875,305.96997h27.0025c5.27898,0 9.52882,4.24985 9.52882,9.52882v27.0025c0,5.27897 -4.24984,9.52882 -9.52882,9.52882h-27.0025c-5.27897,0 -9.52882,-4.24985 -9.52882,-9.52882v-27.0025c0,-5.27897 4.24985,-9.52882 9.52882,-9.52882z" fill="#a0a300"/><path d="M183.99875,305.96997h27.0025c5.27898,0 9.52882,4.24985 9.52882,9.52882v27.0025c0,5.27897 -4.24984,9.52882 -9.52882,9.52882h-27.0025c-5.27897,0 -9.52882,-4.24985 -9.52882,-9.52882v-27.0025c0,-5.27897 4.24985,-9.52882 9.52882,-9.52882z" fill="#a0a300"/><path d="M59.33691,302.95725h31.12267c6.08447,0 10.98278,4.83681 10.98278,10.84486v30.73185c0,6.00805 -4.89831,10.84486 -10.98278,10.84486h-31.12267c-6.08446,0 -10.98278,-4.83681 -10.98278,-10.84486v-30.73185c0,-6.00805 4.89832,-10.84486 10.98278,-10.84486z" fill="#4b4b00"/><path d="M61.49875,305.96997h27.0025c5.27898,0 9.52882,4.24985 9.52882,9.52882v27.0025c0,5.27897 -4.24984,9.52882 -9.52882,9.52882h-27.0025c-5.27897,0 -9.52882,-4.24985 -9.52882,-9.52882v-27.0025c0,-5.27897 4.24985,-9.52882 9.52882,-9.52882z" fill="#a0a300"/></g><g fill="#d9db56" fill-rule="nonzero" stroke="#000000" stroke-linecap="butt" stroke-linejoin="miter"><g><path d="M56.26235,338.34966l-2.09867,-9.69342l17.32008,-3.74988l3.06512,9.55935z" stroke-width="1"/><path d="M71.48375,324.90637l2.91374,9.51697c0,0 -6.22187,1.56038 -9.26118,2.2184c-3.00535,0.65066 -8.87395,1.70793 -8.87395,1.70793l-2.09867,-9.69342z" data-paper-data="{&quot;index&quot;:null}" stroke-width="0.5"/></g><g data-paper-data="{&quot;index&quot;:null}"><path d="M78.79685,333.39565l-1.16331,-9.97109l17.32008,-3.74988l0.07656,10.20638z" stroke-width="1"/><path d="M95.2253,319.61582l-0.11167,10.32231c0,0 -7.77,2.0353 -7.87036,2.0561c-2.71126,0.56182 -8.32612,1.30019 -8.32612,1.30019c0,0 -1.56663,-7.49121 -1.85024,-8.84747c-0.0847,-0.40497 -0.16497,-0.78886 -0.16497,-0.78886z" data-paper-data="{&quot;index&quot;:null}" stroke-width="0.5"/></g><path d="M72.05883,326.59118l-0.56935,-1.98675l5.62533,-1.39798l0.18318,2.30212c0,0 -1.80205,-0.16809 -2.75856,0.039c-0.54716,0.11846 -2.48062,1.04361 -2.48062,1.04361z" stroke-width="0.5"/></g><g fill-rule="nonzero" stroke="none" stroke-width="0" stroke-linecap="butt" stroke-linejoin="miter"><path d="M198.88676,319.19489l1.61107,-9.62666l1.86786,0.31259z" fill="#000000"/><g fill="#d9db56"><path d="M207.14915,338.66638c-1.04843,6.26469 -7.33383,10.32064 -12.97724,9.37618c-5.6434,-0.94446 -10.13749,-6.91734 -9.08906,-13.18203c1.04843,-6.26469 7.90011,-12.65173 13.54351,-11.70727c5.6434,0.94446 9.57121,9.24843 8.52278,15.51312z"/><path d="M204.68693,326.67319c-0.77982,4.65969 -4.32901,7.94894 -7.92733,7.34674c-3.59832,-0.60219 -5.88316,-4.8678 -5.10334,-9.52749c0.77982,-4.65969 5.25154,-8.85463 8.0999,-8.37795c3.03584,0.50807 5.71059,5.899 4.93077,10.55869z"/></g></g><g fill-rule="nonzero" stroke-linejoin="miter"><path d="M320.14606,322.77977l9.95155,-13.84244l-5.3783,15.80335z" fill="#d9db56" stroke="#000000" stroke-width="0.5" stroke-linecap="butt"/><path d="M318.3357,320.31548l1.76734,-3.48692l8.88603,4.50387l-1.76734,3.48692z" fill="#d9db56" stroke="#000000" stroke-width="1" stroke-linecap="butt"/><path d="M305.41667,340.23857l10.91715,-21.63527l13.84658,6.98697l-10.91715,21.63527z" fill="#d9db56" stroke="#000000" stroke-width="1" stroke-linecap="butt"/><path d="M309.51214,331.87424l2.73659,-4.91885c0,0 3.7705,3.52568 6.1027,4.66775c2.18636,1.07066 7.48128,1.98425 7.48128,1.98425l-2.73659,4.91885c0,0 -5.48689,-0.30597 -7.65213,-1.36627c-2.34794,-1.14978 -5.93186,-5.28572 -5.93186,-5.28572z" fill="#000000" stroke="none" stroke-width="0" stroke-linecap="butt"/><path d="M321.32945,321.01311l1.00884,-2.26988" fill="none" stroke="#000000" stroke-width="0.5" stroke-linecap="round"/><path d="M325.61701,320.00426l-0.88273,2.39599" fill="none" stroke="#000000" stroke-width="0.5" stroke-linecap="round"/></g><g fill-rule="nonzero" stroke-linecap="butt" stroke-linejoin="miter"><g stroke="none" stroke-width="0"><g fill="#000000"><path d="M462.92833,336.19119c-0.31721,2.00401 -9.4192,2.22858 -20.32989,0.5016c-10.91068,-1.72699 -19.49839,-4.75156 -19.1812,-6.75556c0.31721,-2.00401 9.4192,-2.22858 20.32988,-0.5016c10.91069,1.72699 19.4984,4.75156 19.1812,6.75556z"/><path d="M457.11991,333.52396c-0.54119,3.37817 -27.88105,-1.0018 -27.33985,-4.37998c0.54119,-3.37817 7.10016,-5.13622 14.64985,-3.92672c7.54969,1.2095 13.2312,4.92853 12.69,8.30671z"/></g><g fill="#d9db56"><path d="M461.25655,335.35301c-0.31721,2.00401 -9.41921,2.22857 -20.3299,0.50157c-10.91068,-1.72699 -19.49839,-4.75156 -19.1812,-6.75556c0.31721,-2.00401 9.4192,-2.22857 20.32988,-0.50157c10.91069,1.72699 19.49842,4.75155 19.1812,6.75556z"/><path d="M455.44812,332.68582c-0.54119,3.37816 -27.88105,-1.00183 -27.33986,-4.38c0.54119,-3.37816 7.10017,-5.13623 14.64986,-3.92672c7.54969,1.2095 13.23119,4.92856 12.69,8.30672z"/></g></g><g><path d="M434.6733,326.75962c0,1.8467 -1.57189,3.34373 -3.51092,3.34373c-1.93903,0 -3.51092,-1.49703 -3.51092,-3.34373c0,-1.8467 1.57189,-3.34374 3.51092,-3.34374c1.93903,0 3.51092,1.49704 3.51092,3.34374z" fill="#d9db56" stroke="#000000" stroke-width="0.5"/><path d="M432.2271,326.16123c0,1.04971 -0.85094,1.90065 -1.90066,1.90065c-1.04971,0 -1.90065,-0.85093 -1.90065,-1.90065c0,-1.04971 0.85094,-1.90066 1.90065,-1.90066c1.04971,0 1.90066,0.85096 1.90066,1.90066z" fill="#000000" stroke="none" stroke-width="0"/></g><g><path d="M450.93442,330.63129c0,1.8467 -1.57189,3.34374 -3.51092,3.34374c-1.93903,0 -3.51092,-1.49704 -3.51092,-3.34374c0,-1.8467 1.57189,-3.34373 3.51092,-3.34373c1.93903,0 3.51092,1.49703 3.51092,3.34373z" fill="#d9db56" stroke="#000000" stroke-width="0.5"/><path d="M449.54412,330.24413c0,1.04971 -0.85094,1.90066 -1.90066,1.90066c-1.04971,0 -1.90065,-0.85096 -1.90065,-1.90066c0,-1.04971 0.85095,-1.90065 1.90065,-1.90065c1.04971,0 1.90066,0.85093 1.90066,1.90065z" fill="#000000" stroke="none" stroke-width="0"/></g><g fill="#000000" stroke="none" stroke-width="0"><path d="M443.94966,325.61181c-0.78139,-0.0131 1.22196,-6.22511 1.22196,-6.22511l1.59003,0.63649c0,0 -1.51036,5.61042 -2.81199,5.58862z"/><path d="M443.05774,324.89948c0,0 -0.1868,0.83191 0.69054,1.12959c0.87734,0.29768 1.76468,-0.4706 1.76468,-0.4706c0,0 -1.40448,1.05028 -2.00644,0.84603c-0.57633,-0.19555 -0.4488,-1.50502 -0.4488,-1.50502z"/></g></g><text transform="translate(50.06832,293.44101) scale(0.5,0.5)" font-size="40" xml:space="preserve" fill="#4b4b00" fill-rule="nonzero" stroke="none" stroke-width="1" stroke-linecap="butt" stroke-linejoin="miter" stroke-miterlimit="10" stroke-dasharray="" stroke-dashoffset="0" font-family="Sans Serif" font-weight="normal" text-anchor="start" style="mix-blend-mode: normal"><tspan x="0" dy="0">Oren</tspan></text><text transform="translate(169.63354,292.66462) scale(0.5,0.5)" font-size="40" xml:space="preserve" fill="#4b4b00" fill-rule="nonzero" stroke="none" stroke-width="1" stroke-linecap="butt" stroke-linejoin="miter" stroke-miterlimit="10" stroke-dasharray="" stroke-dashoffset="0" font-family="Sans Serif" font-weight="normal" text-anchor="start" style="mix-blend-mode: normal"><tspan x="0" dy="0">Raddy</tspan></text><text transform="translate(297.24738,291.50002) scale(0.46635,0.46635)" font-size="40" xml:space="preserve" fill="#4b4b00" fill-rule="nonzero" stroke="none" stroke-width="1" stroke-linecap="butt" stroke-linejoin="miter" stroke-miterlimit="10" stroke-dasharray="" stroke-dashoffset="0" font-family="Sans Serif" font-weight="normal" text-anchor="start" style="mix-blend-mode: normal"><tspan x="0" dy="0">Clukr</tspan></text><text transform="translate(404.88199,294.21741) scale(0.5,0.5)" font-size="40" xml:space="preserve" fill="#4b4b00" fill-rule="nonzero" stroke="none" stroke-width="1" stroke-linecap="butt" stroke-linejoin="miter" stroke-miterlimit="10" stroke-dasharray="" stroke-dashoffset="0" font-family="Sans Serif" font-weight="normal" text-anchor="start" style="mix-blend-mode: normal"><tspan x="0" dy="0">Fun bot</tspan></text><text transform="translate(531.27834,293.13103) scale(0.5,0.5)" font-size="40" xml:space="preserve" fill="#4b4b00" fill-rule="nonzero" stroke="none" stroke-width="1" stroke-linecap="butt" stroke-linejoin="miter" stroke-miterlimit="10" stroke-dasharray="" stroke-dashoffset="0" font-family="Sans Serif" font-weight="normal" text-anchor="start" style="mix-blend-mode: normal"><tspan x="0" dy="0">Vineria</tspan></text><path d="M60.72608,305.33583h27.77149c5.42932,0 9.80019,4.37089 9.80019,9.80019v27.77149c0,5.4293 -4.37087,9.80019 -9.80019,9.80019h-27.77149c-5.4293,0 -9.80019,-4.37089 -9.80019,-9.80019v-27.77149c0,-5.4293 4.37089,-9.80019 9.80019,-9.80019z" fill="#a0a300" fill-rule="evenodd" stroke="none" stroke-width="4.43922" stroke-linecap="round" stroke-linejoin="round"/><g fill-rule="nonzero" stroke="#000000" stroke-width="0.5" stroke-linecap="butt" stroke-linejoin="miter"><path d="M68.07608,334.71431l-11.63382,-11.63382l1.21878,-1.21878l11.63382,11.63382z" fill="#f4f660"/><path d="M54.1155,325.40725c-1.62159,-1.62159 -1.62159,-4.25071 0,-5.87232c1.62159,-1.62159 4.25071,-1.62159 5.87232,0c1.62159,1.62159 1.62159,4.25071 0,5.87232c-1.62159,1.62159 -4.25071,1.62159 -5.87232,0z" fill="#d9db56"/></g><g data-paper-data="{&quot;index&quot;:null}" fill-rule="nonzero" stroke="#000000" stroke-width="0.5" stroke-linecap="butt" stroke-linejoin="miter"><path d="M79.92875,333.4955l11.63382,-11.63382l1.21878,1.21878l-11.63382,11.63382z" fill="#f4f660"/><path d="M89.2358,325.40725c-1.62159,-1.62159 -1.62159,-4.25071 0,-5.87232c1.62159,-1.62159 4.25071,-1.62159 5.87232,0c1.62159,1.62159 1.62159,4.25071 0,5.87232c-1.62159,1.62159 -4.25071,1.62159 -5.87232,0z" fill="#d9db56"/></g><path d="M59.42814,339.72477c0,-7.82722 6.75968,-14.17244 15.09818,-14.17244c8.33849,0 15.09819,6.34523 15.09819,14.17244" fill="#d9db56" fill-rule="nonzero" stroke="#000000" stroke-width="0.5" stroke-linecap="butt" stroke-linejoin="miter"/><path d="M183.83167,304.99422h27.77149c5.42932,0 9.80019,4.37089 9.80019,9.80019v27.77149c0,5.4293 -4.37087,9.80019 -9.80019,9.80019h-27.77149c-5.4293,0 -9.80019,-4.37089 -9.80019,-9.80019v-27.77149c0,-5.4293 4.37089,-9.80019 9.80019,-9.80019z" fill="#a0a300" fill-rule="evenodd" stroke="none" stroke-width="4.43922" stroke-linecap="round" stroke-linejoin="round"/><g fill-rule="nonzero" stroke="#000000" stroke-width="0.5" stroke-linecap="butt" stroke-linejoin="miter"><path d="M207.42041,336.05938c-1.51966,-1.27919 -1.65555,-3.61826 -0.30353,-5.22445c1.35203,-1.6062 12.31708,-9.04754 12.31708,-9.04754c0,0 -5.46188,12.07368 -6.8139,13.67988c-1.35203,1.6062 -3.67999,1.87129 -5.19965,0.5921z" data-paper-data="{&quot;index&quot;:null}" fill="#a0a300"/><path d="M182.8147,335.46727c-1.35203,-1.6062 -6.8139,-13.67988 -6.8139,-13.67988c0,0 10.96506,7.44134 12.31708,9.04754c1.35203,1.6062 1.21614,3.94526 -0.30353,5.22445c-1.51966,1.27919 -3.84763,1.0141 -5.19965,-0.5921z" fill="#a0a300"/><path d="M181.27662,339.21833c0,-8.49469 7.33612,-15.381 16.38568,-15.381c9.04956,0 16.38568,6.8863 16.38568,15.381" fill="#d9db56"/><path d="M195.33134,324.47873c0,-0.89567 2.32125,-6.33679 2.32125,-6.33679c0,0 2.32125,5.44113 2.32125,6.33679c0,0.89567 -1.03926,1.62175 -2.32125,1.62175c-1.28199,0 -2.32125,-0.72608 -2.32125,-1.62175z" fill="#a0a300"/><path d="M204.01108,326.06004c0.35029,-0.82434 4.61457,-4.9243 4.61457,-4.9243c0,0 0.00844,5.91557 -0.34184,6.7399c-0.35029,0.82434 -1.59073,1.08615 -2.77061,0.5848c-1.17989,-0.50136 -1.85241,-1.57605 -1.50214,-2.40039z" fill="#a0a300"/><path d="M190.36548,328.3754c-1.17989,0.50136 -2.42033,0.23954 -2.77061,-0.5848c-0.35029,-0.82434 -0.34184,-6.7399 -0.34184,-6.7399c0,0 4.2643,4.09998 4.61457,4.9243c0.35029,0.82434 -0.32224,1.89903 -1.50212,2.40039z" data-paper-data="{&quot;index&quot;:null}" fill="#a0a300"/></g><path d="M306.04023,305.69094h28.22664c5.5183,0 9.96082,4.44253 9.96082,9.96081v28.22664c0,5.51828 -4.44252,9.96081 -9.96082,9.96081h-28.22664c-5.51828,0 -9.96082,-4.44253 -9.96082,-9.96081v-28.22664c0,-5.51828 4.44253,-9.96081 9.96082,-9.96081z" fill="#a0a300" fill-rule="evenodd" stroke="none" stroke-width="4.43922" stroke-linecap="round" stroke-linejoin="round"/><g fill-rule="nonzero" stroke="#000000" stroke-linecap="butt" stroke-linejoin="miter"><path d="M304.61363,342.21118c0,-7.83411 6.76565,-14.18492 15.11148,-14.18492c8.34584,0 15.11147,6.35081 15.11147,14.18492" fill="#d9db56" stroke-width="0.5"/><path d="M342.34504,331.85219c0,2.42521 -9.93547,4.39126 -22.19149,4.39126c-12.25603,0 -22.1915,-1.96603 -22.1915,-4.39126c0,-2.42521 9.93548,-5.56747 22.1915,-5.56747c12.25603,0 22.19149,3.14226 22.19149,5.56747z" fill="#d9db56" stroke-width="0.5"/><path d="M320.39819,326.60693c1.69657,0 3.28156,0.089 4.62773,0.24332c0.15819,0.01813 -3.7775,2.42338 -3.7775,2.42338l-1.42973,0.03493z" data-paper-data="{&quot;index&quot;:null}" fill="#ffffff" stroke-width="0"/><path d="M320.03592,335.84478c-4.10744,0 -7.94468,-0.21549 -11.20372,-0.58909c-0.38298,-0.0439 9.14533,-5.86701 9.14533,-5.86701l3.46137,-0.08456z" fill="#ffffff" stroke-width="0"/><path d="M318.1485,329.16184l0.67296,-9.42102c0,0 0.18194,-1.59767 -0.75453,-1.24801c-0.75191,0.28075 -2.56951,1.29813 -2.56951,1.29813c0,0 0.93052,-1.7165 2.11254,-2.3417c0.94774,-0.50128 2.15783,0.60507 2.15783,0.60507c0,0 1.11282,-0.97922 1.83127,-0.53316c0.94423,0.58623 1.7201,2.31414 1.7201,2.31414c0,0 -1.40652,-0.80156 -2.02807,-1.11658c-0.68566,-0.34751 -0.75471,0.97319 -0.75471,0.97319l0.72913,9.46992c0,0 -0.57224,0.35287 -1.57048,0.31366c-0.8629,-0.03388 -1.54653,-0.31366 -1.54653,-0.31366z" fill="#d9db56" stroke-width="0.5"/></g><path d="M427.84188,306.10379h27.55325c5.38665,0 9.72318,4.33654 9.72318,9.72318v27.55325c0,5.38664 -4.33653,9.72318 -9.72318,9.72318h-27.55325c-5.38664,0 -9.72318,-4.33654 -9.72318,-9.72318v-27.55325c0,-5.38664 4.33654,-9.72318 9.72318,-9.72318z" fill="#a0a300" fill-rule="evenodd" stroke="none" stroke-width="4.43922" stroke-linecap="round" stroke-linejoin="round"/><g fill-rule="nonzero" stroke="#000000" stroke-width="0.5" stroke-linecap="butt" stroke-linejoin="miter"><path d="M426.63746,332.90765v-17.35728h1.81838v17.35728z" fill="#f8fa7e"/><path d="M423.16599,315.55036c0,-2.41937 1.96129,-4.38066 4.38065,-4.38066c2.41937,0 4.38065,1.96129 4.38065,4.38066c0,2.41937 -1.96129,4.38065 -4.38065,4.38065c-2.41937,0 -4.38065,-1.96127 -4.38065,-4.38065z" fill="#d9db56"/></g><g fill-rule="nonzero" stroke="#000000" stroke-width="0.5" stroke-linecap="butt" stroke-linejoin="miter"><path d="M454.78106,332.90765v-17.35728h1.81839v17.35728z" fill="#f8fa7e"/><path d="M451.30961,315.55036c0,-2.41937 1.96127,-4.38066 4.38065,-4.38066c2.41937,0 4.38066,1.96129 4.38066,4.38066c0,2.41937 -1.96129,4.38065 -4.38066,4.38065c-2.41937,0 -4.38065,-1.96127 -4.38065,-4.38065z" fill="#d9db56"/></g><path d="M436.69277,341.30501h10.00481c0.60614,0 1.09411,0.48797 1.09411,1.09411v4.54411c0,0.60614 -0.48797,1.09411 -1.09411,1.09411h-10.00479c-0.60614,0 -1.09411,-0.48797 -1.09411,-1.09411v-4.54411c0,-0.60614 0.48797,-1.09411 1.09411,-1.09411z" fill="#000000" fill-rule="evenodd" stroke="#000000" stroke-width="0.5" stroke-linecap="round" stroke-linejoin="round"/><path d="M428.52044,326.44522h26.34948c1.59638,0 2.88155,1.28517 2.88155,2.88155v11.96772c0,1.59638 -1.28517,2.88155 -2.88155,2.88155h-26.34947c-1.59638,0 -2.88155,-1.28517 -2.88155,-2.88155v-11.96772c0,-1.59638 1.28517,-2.88155 2.88155,-2.88155z" fill="#d9db56" fill-rule="evenodd" stroke="#000000" stroke-width="0.5" stroke-linecap="round" stroke-linejoin="round"/><path d="M430.48723,327.76869h22.4159c1.35808,0 2.45139,1.09331 2.45139,2.45138v10.18114c0,1.35806 -1.09333,2.45138 -2.45139,2.45138h-22.4159c-1.35806,0 -2.45139,-1.09331 -2.45139,-2.45138v-10.18114c0,-1.35806 1.09333,-2.45138 2.45139,-2.45138z" fill="#000000" fill-rule="evenodd" stroke="#000000" stroke-width="0.5" stroke-linecap="round" stroke-linejoin="round"/><path d="M550.7752,306.57021h26.32279c5.1461,0 9.28897,4.14288 9.28897,9.28897v26.32279c0,5.14608 -4.14287,9.28897 -9.28897,9.28897h-26.32279c-5.14608,0 -9.28897,-4.14288 -9.28897,-9.28897v-26.32279c0,-5.14608 4.14288,-9.28897 9.28897,-9.28897z" fill="#a0a300" fill-rule="evenodd" stroke="none" stroke-width="4.43922" stroke-linecap="round" stroke-linejoin="round"/><path d="M567.0165,330.88733c0,0 4.848,-2.52757 4.98535,-4.82436c0.07851,-1.31267 -1.88023,-3.48339 -2.00471,-5.80272c-0.16407,-3.0569 2.95275,-5.37476 2.95275,-5.37476c0,0 -0.75899,2.32869 -0.67436,5.16607c0.06744,2.26116 1.84477,3.07661 2.32788,6.03847c0.47314,2.90073 -2.52949,7.51775 -2.52949,7.51775c0,0 -0.90579,0.89561 -3.2026,-0.34745c-2.08866,-1.1304 -1.85482,-2.37299 -1.85482,-2.37299z" fill="#60602a" fill-rule="nonzero" stroke="#000000" stroke-width="0.5" stroke-linecap="butt" stroke-linejoin="miter"/><g data-paper-data="{&quot;index&quot;:null}" fill-rule="nonzero" stroke="#1d1d0d" stroke-width="0.5" stroke-linecap="butt" stroke-linejoin="miter"><path d="M549.40863,324.04258l-1.39689,-4.08672l7.0699,-2.40521l1.39689,4.08672z" fill="#d0d05b"/><path d="M555.61531,333.60445l-2.38871,-6.77412l-3.36486,-3.1464l6.02582,-1.95397l-0.99963,4.56193l2.43029,6.95768z" fill="url(#color-3)"/><path d="M546.47709,320.94883l4.35258,-5.30215l6.77132,1.36414z" fill="#bfbf54"/><path d="M555.65641,321.95567l-5.41755,1.78217c0,0 0.54788,-2.38825 2.04389,-2.88037c1.49602,-0.49214 3.37366,1.09821 3.37366,1.09821z" fill="#ffff70"/></g><path d="M546.8035,342.12218c-0.11869,-8.22972 7.52859,-14.99532 17.08068,-15.11136c9.55208,-0.11605 17.39179,6.46138 17.51048,14.69112c0.00685,0.47503 -0.01218,0.94519 -0.05595,1.40948c-1.39433,-0.05709 -2.7919,-0.14419 -4.16683,-0.14043c-9.65312,0.02644 -19.30646,0.03299 -28.95947,-0.01564c-0.23816,-0.0012 -0.46606,-0.17725 -0.69947,-0.13377c-0.1138,0.02121 -0.3621,0.15574 -0.65354,0.33396c-0.0321,-0.34125 -0.05087,-0.68583 -0.05588,-1.03335z" fill="#bebe54" fill-rule="nonzero" stroke="#000000" stroke-width="0.5" stroke-linecap="butt" stroke-linejoin="miter"/><path d="M546.9505,338.62927l1.81087,-3.84809l30.89787,0.22636l1.58451,3.62173z" fill="#b9b952" fill-rule="nonzero" stroke="#000000" stroke-width="0.5" stroke-linecap="butt" stroke-linejoin="miter"/><path d="M559.12973,340.93941v-9.84658h9.35424v9.84658z" fill="#ffff70" fill-rule="nonzero" stroke="#000000" stroke-width="0.5" stroke-linecap="butt" stroke-linejoin="miter"/><g fill-rule="nonzero" stroke="#000000" stroke-width="0.5" stroke-linecap="butt" stroke-linejoin="miter"><path d="M553.35161,337.37347c0,-0.4917 0.31798,-0.62403 0.71023,-0.62403c0.39224,0 0.71023,0.13234 0.71023,0.62403c0,0.4917 -0.31798,1.15654 -0.71023,1.15654c-0.39224,0 -0.71023,-0.66484 -0.71023,-1.15654z" fill="#ecec68"/><path d="M554.77207,340.74688c0,0.4917 -0.31798,0.62403 -0.71023,0.62403c-0.39224,0 -0.71023,-0.13234 -0.71023,-0.62403c0,-0.4917 0.31798,-1.15654 0.71023,-1.15654c0.39224,0 0.71023,0.66484 0.71023,1.15654z" fill="#ecec68"/><path d="M552.37514,339.7704c-0.4917,0 -0.62403,-0.31798 -0.62403,-0.71023c0,-0.39224 0.13234,-0.71023 0.62403,-0.71023c0.4917,0 1.15654,0.31798 1.15654,0.71023c0,0.39224 -0.66484,0.71023 -1.15654,0.71023z" fill="#ecec68"/><path d="M555.74855,338.34995c0.4917,0 0.62403,0.31798 0.62403,0.71023c0,0.39224 -0.13234,0.71023 -0.62403,0.71023c-0.4917,0 -1.15654,-0.31798 -1.15654,-0.71023c0,-0.39224 0.66484,-0.71023 1.15654,-0.71023z" fill="#ecec68"/><path d="M552.36695,338.3697c-0.34768,-0.34768 -0.21642,-0.6661 0.06095,-0.94346c0.27736,-0.27736 0.59578,-0.40863 0.94346,-0.06095c0.34768,0.34768 0.59295,1.04263 0.31559,1.32c-0.27736,0.27736 -0.97233,0.03209 -1.32,-0.31559z" fill="#ecec68"/><path d="M555.75673,339.75064c0.34768,0.34768 0.21642,0.6661 -0.06095,0.94346c-0.27736,0.27736 -0.59578,0.40863 -0.94346,0.06095c-0.34768,-0.34768 -0.59295,-1.04263 -0.31559,-1.32c0.27736,-0.27736 0.97233,-0.03209 1.32,0.31559z" fill="#ecec68"/><path d="M553.37136,340.75505c-0.34768,0.34768 -0.6661,0.21642 -0.94346,-0.06095c-0.27736,-0.27736 -0.40863,-0.59578 -0.06095,-0.94346c0.34768,-0.34768 1.04263,-0.59295 1.32,-0.31559c0.27736,0.27736 0.03209,0.97233 -0.31559,1.32z" fill="#ecec68"/><path d="M554.75232,337.36528c0.34768,-0.34768 0.6661,-0.21642 0.94346,0.06095c0.27736,0.27736 0.40863,0.59578 0.06095,0.94346c-0.34768,0.34768 -1.04263,0.59295 -1.32,0.31559c-0.27736,-0.27736 -0.03209,-0.97233 0.31559,-1.32z" fill="#ecec68"/><path d="M553.12153,339.04016c0,-0.51931 0.42098,-0.94031 0.94031,-0.94031c0.51931,0 0.94031,0.42099 0.94031,0.94031c0,0.51931 -0.42099,0.94031 -0.94031,0.94031c-0.51931,0 -0.94031,-0.42098 -0.94031,-0.94031z" fill="#b1b14e"/></g></g></g></svg>