<svg version="1.1" xmlns="http://www.w3.org/2000/svg" xmlns:xlink="http://www.w3.org/1999/xlink" width="118.06371" height="244.69304" viewBox="0,0,118.06371,244.69304"><g transform="translate(-259.20111,-62.94689)"><g data-paper-data="{&quot;isPaintingLayer&quot;:true}" fill-rule="nonzero" stroke-linejoin="miter" stroke-miterlimit="10" stroke-dasharray="" stroke-dashoffset="0" style="mix-blend-mode: normal"><path d="M285.16238,306.63993l14.93332,-120.959l37.26044,-0.14486l13.38607,121.10386z" fill="#c5c556" stroke="#000000" stroke-width="2" stroke-linecap="butt"/><path d="M297.93343,211.78682l3.07823,-24.15439l35.33495,-0.13031l2.72906,23.95095c0,0 -7.41144,3.84966 -21.26072,4.13739c-12.31183,0.25578 -19.88153,-3.80363 -19.88153,-3.80363z" fill="#acac4c" stroke="#000000" stroke-width="0" stroke-linecap="butt"/><path d="M343.63946,130.76219c-3.97909,-4.60086 -4.33492,-13.01379 -0.79475,-18.7908c3.54016,-5.777 32.25117,-32.54131 32.25117,-32.54131c0,0 -14.30143,43.42549 -17.84159,49.20249c-3.54016,5.77701 -9.63573,6.73047 -13.61483,2.12961z" data-paper-data="{&quot;index&quot;:null}" fill="#989843" stroke="#000000" stroke-width="2" stroke-linecap="butt"/><path d="M279.21164,128.63257c-3.54016,-5.777 -17.84159,-49.20249 -17.84159,-49.20249c0,0 28.71101,26.7643 32.25118,32.54131c3.54016,5.77701 3.18434,14.18994 -0.79475,18.7908c-3.97909,4.60086 -10.07466,3.64739 -13.61483,-2.12961z" fill="#989843" stroke="#000000" stroke-width="2" stroke-linecap="butt"/><path d="M274.78537,142.66438c0,-30.5529 19.20898,-55.32091 42.90445,-55.32091c23.69547,0 42.90445,24.76802 42.90445,55.32091c0,30.5529 -19.20898,55.32091 -42.90445,55.32091c-23.69547,0 -42.90445,-24.76802 -42.90445,-55.32091z" fill="#c5c556" stroke="#000000" stroke-width="2" stroke-linecap="butt"/><path d="M275.66723,142.17337c0,-0.6679 3.47757,51.30344 42.31899,52.23456c37.11135,0.88965 42.42126,-53.16931 42.42126,-52.23456c0,30.09687 -18.96976,54.49521 -42.37012,54.49521c-23.40037,0 -42.37012,-24.39834 -42.37012,-54.49521z" fill="#acac4c" stroke="#000000" stroke-width="0" stroke-linecap="butt"/><path d="M284.23459,142.51799c0,-11.89754 7.02148,-21.5424 15.68292,-21.5424c8.66144,0 15.68292,9.64487 15.68292,21.5424c0,11.89754 -7.02148,21.5424 -15.68292,21.5424c-8.66144,0 -15.68292,-9.64487 -15.68292,-21.5424z" fill="#ffffff" stroke="#000000" stroke-width="2" stroke-linecap="butt"/><path d="M336.15718,164.06039c-8.66144,0 -15.68292,-9.64487 -15.68292,-21.5424c0,-11.89754 7.02148,-21.5424 15.68292,-21.5424c8.66144,0 15.68292,9.64487 15.68292,21.5424c0,11.89754 -7.02148,21.5424 -15.68292,21.5424z" data-paper-data="{&quot;index&quot;:null}" fill="#ffffff" stroke="#000000" stroke-width="2" stroke-linecap="butt"/><path d="M293.05586,112.37319c0,0 8.00253,0.15803 12.46016,3.04729c4.45763,2.88926 8.68038,10.65517 8.68038,10.65517c0,0 -5.8908,-6.54218 -9.33329,-8.77345c-3.59754,-2.33176 -11.80725,-4.92901 -11.80725,-4.92901z" fill="#000000" stroke="none" stroke-width="0" stroke-linecap="butt"/><path d="M330.08329,116.29747c-3.36326,2.44147 -9.02573,9.34014 -9.02573,9.34014c0,0 3.95429,-8.01786 8.30934,-11.1793c4.35504,-3.16144 12.3447,-3.81398 12.3447,-3.81398c0,0 -8.11356,3.1017 -11.62831,5.65314z" data-paper-data="{&quot;index&quot;:null}" fill="#000000" stroke="none" stroke-width="0" stroke-linecap="butt"/><path d="M311.98532,89.11002c0,-3.22146 6.07797,-22.79157 6.07797,-22.79157c0,0 6.07797,19.57012 6.07797,22.79157c0,3.22146 -2.7212,5.83298 -6.07797,5.83298c-3.35677,0 -6.07797,-2.61151 -6.07797,-5.83298z" fill="#989843" stroke="#000000" stroke-width="2" stroke-linecap="butt"/><path d="M334.71248,94.79751c0.91718,-2.96489 12.08287,-17.71127 12.08287,-17.71127c0,0 0.02209,21.27655 -0.89509,24.24144c-0.91718,2.96489 -4.16517,3.90658 -7.25459,2.10333c-3.08943,-1.80325 -4.85036,-5.6686 -3.9332,-8.63349z" fill="#989843" stroke="#000000" stroke-width="2" stroke-linecap="butt"/><path d="M298.98267,103.12519c-3.08943,1.80325 -6.33742,0.86156 -7.2546,-2.10333c-0.91718,-2.96489 -0.89509,-24.24144 -0.89509,-24.24144c0,0 11.16569,14.74639 12.08287,17.71127c0.91718,2.96489 -0.84377,6.83023 -3.93319,8.63349z" data-paper-data="{&quot;index&quot;:null}" fill="#989843" stroke="#000000" stroke-width="2" stroke-linecap="butt"/><path d="M290.53745,144.96711c0,-8.37459 5.01171,-15.16352 11.19397,-15.16352c6.18227,0 11.19398,6.78894 11.19398,15.16352c0,8.37459 -5.01172,15.16352 -11.19398,15.16352c-6.18227,0 -11.19397,-6.78894 -11.19397,-15.16352z" fill="#000000" stroke="none" stroke-width="0" stroke-linecap="butt"/><path d="M323.04577,144.6908c0,-8.37459 5.01171,-15.16352 11.19397,-15.16352c6.18227,0 11.19398,6.78894 11.19398,15.16352c0,8.37459 -5.01172,15.16352 -11.19398,15.16352c-6.18227,0 -11.19397,-6.78894 -11.19397,-15.16352z" fill="#000000" stroke="none" stroke-width="0" stroke-linecap="butt"/><path d="M311.61119,187.98152c-4.91311,-0.21741 -4.84478,-8.20709 -4.84478,-8.20709c0,0 9.69319,-2.17406 13.54935,-2.17406c3.89412,0 11.73983,1.52184 11.73983,1.52184c0,0 -12.0184,9.23216 -20.44441,8.85931z" fill="#ffffff" stroke="#000000" stroke-width="2" stroke-linecap="round"/><path d="M330.19704,180.15078c0,0 -10.72917,3.70309 -14.87397,3.30124c-3.95321,-0.38329 -7.79153,-2.39538 -7.79153,-2.39538" fill="none" stroke="#000000" stroke-width="0.5" stroke-linecap="round"/></g></g></svg>