<svg version="1.1" xmlns="http://www.w3.org/2000/svg" xmlns:xlink="http://www.w3.org/1999/xlink" width="812" height="128.63837" viewBox="0,0,812,128.63837"><defs><linearGradient x1="717.5" y1="330.00013" x2="-46.5" y2="330.00013" gradientUnits="userSpaceOnUse" id="color-1"><stop offset="0" stop-color="#ededa3"/><stop offset="1" stop-color="#ededa3"/></linearGradient><linearGradient x1="340.5" y1="316.00013" x2="340.5" y2="398.00017" gradientUnits="userSpaceOnUse" id="color-2"><stop offset="0" stop-color="#8f8f31" stop-opacity="0"/><stop offset="1" stop-color="#8f8f31"/></linearGradient></defs><g transform="translate(57.5,-269.3618)"><g data-paper-data="{&quot;isPaintingLayer&quot;:true}" stroke-miterlimit="10" stroke-dasharray="" stroke-dashoffset="0" style="mix-blend-mode: normal"><text transform="translate(451.00018,310.27428) scale(0.47817,0.32445)" font-size="40" xml:space="preserve" fill="#edeaa4" fill-rule="nonzero" stroke="none" stroke-width="1" stroke-linecap="butt" stroke-linejoin="miter" stroke-miterlimit="10" stroke-dasharray="" stroke-dashoffset="0" font-family="&quot;Allan-Regular&quot;, Sans Serif" font-weight="normal" text-anchor="start" style="mix-blend-mode: normal"><tspan x="0" dy="0">GAY GUITAR GUY</tspan></text><g fill-rule="nonzero" stroke="none" stroke-linecap="butt" stroke-linejoin="miter"><path d="M-45.3,377.00017v-92h764v92z" fill="#4b4b00" stroke-width="NaN"/><path d="M-46.5,371.00017v-82h764v82z" data-paper-data="{&quot;index&quot;:null}" fill="url(#color-1)" stroke-width="NaN"/><path d="M-41.5,398.00017v-82h764v82z" fill="url(#color-2)" stroke-width="NaN"/></g><path d="M-47.5,321.81768v-6.41667h802v6.41667z" fill="#4b4b00" fill-rule="nonzero" stroke="none" stroke-width="0" stroke-linecap="butt" stroke-linejoin="miter"/><path d="M-57.5,339.81772v-6.41667h802v6.41667z" fill="#4b4b00" fill-rule="nonzero" stroke="none" stroke-width="0" stroke-linecap="butt" stroke-linejoin="miter"/><path d="M495.49121,276.92931c1.73219,1.31567 1.2342,17.92207 0,19.55852c-1.50707,1.99825 -104.41697,1.0362 -106.79562,0c-1.44833,-0.63093 -2.01401,-18.45844 0,-19.55852c2.28529,-1.24826 103.23301,-2.70597 106.79562,0z" fill="#ededa3" fill-rule="nonzero" stroke="#4b4b00" stroke-width="2" stroke-linecap="butt" stroke-linejoin="miter"/><path d="M373.49121,276.92931c1.73219,1.31567 1.2342,17.92207 0,19.55852c-1.50707,1.99825 -104.41697,1.0362 -106.79562,0c-1.44833,-0.63093 -2.01401,-18.45844 0,-19.55852c2.28529,-1.24826 103.23301,-2.70597 106.79562,0z" fill="#ededa3" fill-rule="nonzero" stroke="#4b4b00" stroke-width="2" stroke-linecap="butt" stroke-linejoin="miter"/><path d="M617.99121,276.92931c1.73219,1.31567 1.2342,17.92207 0,19.55852c-1.50707,1.99825 -104.41697,1.0362 -106.79562,0c-1.44833,-0.63093 -2.01401,-18.45844 0,-19.55852c2.28529,-1.24826 103.23301,-2.70597 106.79562,0z" fill="#ededa3" fill-rule="nonzero" stroke="#4b4b00" stroke-width="2" stroke-linecap="butt" stroke-linejoin="miter"/><path d="M250.99121,276.92931c1.73219,1.31567 1.2342,17.92207 0,19.55852c-1.50707,1.99825 -104.41697,1.0362 -106.79562,0c-1.44833,-0.63093 -2.01401,-18.45844 0,-19.55852c2.28529,-1.24826 103.23301,-2.70597 106.79562,0z" fill="#ededa3" fill-rule="nonzero" stroke="#4b4b00" stroke-width="2" stroke-linecap="butt" stroke-linejoin="miter"/><path d="M128.49121,276.92931c1.73219,1.31567 1.2342,17.92207 0,19.55852c-1.50707,1.99825 -104.41697,1.0362 -106.79562,0c-1.44833,-0.63093 -2.01401,-18.45844 0,-19.55852c2.28529,-1.24826 103.23301,-2.70597 106.79562,0z" fill="#ededa3" fill-rule="nonzero" stroke="#4b4b00" stroke-width="2" stroke-linecap="butt" stroke-linejoin="miter"/><g fill-rule="evenodd" stroke="none" stroke-width="4.43922" stroke-linecap="round" stroke-linejoin="round"><path d="M426.33691,302.95727h31.12267c6.08447,0 10.98278,4.83681 10.98278,10.84486v30.73185c0,6.00805 -4.89831,10.84486 -10.98278,10.84486h-31.12267c-6.08446,0 -10.98278,-4.83681 -10.98278,-10.84486v-30.73185c0,-6.00805 4.89832,-10.84486 10.98278,-10.84486z" fill="#4b4b00"/><path d="M428.49875,305.96997h27.0025c5.27898,0 9.52882,4.24985 9.52882,9.52882v27.0025c0,5.27897 -4.24984,9.52882 -9.52882,9.52882h-27.0025c-5.27897,0 -9.52882,-4.24985 -9.52882,-9.52882v-27.0025c0,-5.27897 4.24985,-9.52882 9.52882,-9.52882z" fill="#a0a300"/><path d="M304.33691,302.95727h31.12267c6.08447,0 10.98278,4.83681 10.98278,10.84486v30.73185c0,6.00805 -4.89831,10.84486 -10.98278,10.84486h-31.12267c-6.08446,0 -10.98278,-4.83681 -10.98278,-10.84486v-30.73185c0,-6.00805 4.89832,-10.84486 10.98278,-10.84486z" fill="#4b4b00"/><path d="M306.49875,305.96997h27.0025c5.27898,0 9.52882,4.24985 9.52882,9.52882v27.0025c0,5.27897 -4.24984,9.52882 -9.52882,9.52882h-27.0025c-5.27897,0 -9.52882,-4.24985 -9.52882,-9.52882v-27.0025c0,-5.27897 4.24985,-9.52882 9.52882,-9.52882z" fill="#a0a300"/><path d="M181.83691,302.95727h31.12267c6.08447,0 10.98278,4.83681 10.98278,10.84486v30.73185c0,6.00805 -4.89831,10.84486 -10.98278,10.84486h-31.12267c-6.08446,0 -10.98278,-4.83681 -10.98278,-10.84486v-30.73185c0,-6.00805 4.89832,-10.84486 10.98278,-10.84486z" fill="#4b4b00"/><path d="M548.33691,302.95727h31.12267c6.08447,0 10.98278,4.83681 10.98278,10.84486v30.73185c0,6.00805 -4.89831,10.84486 -10.98278,10.84486h-31.12267c-6.08446,0 -10.98278,-4.83681 -10.98278,-10.84486v-30.73185c0,-6.00805 4.89832,-10.84486 10.98278,-10.84486z" fill="#4b4b00"/><path d="M550.49875,305.96997h27.0025c5.27898,0 9.52882,4.24985 9.52882,9.52882v27.0025c0,5.27897 -4.24984,9.52882 -9.52882,9.52882h-27.0025c-5.27897,0 -9.52882,-4.24985 -9.52882,-9.52882v-27.0025c0,-5.27897 4.24985,-9.52882 9.52882,-9.52882z" fill="#a0a300"/><path d="M183.99875,305.96997h27.0025c5.27898,0 9.52882,4.24985 9.52882,9.52882v27.0025c0,5.27897 -4.24984,9.52882 -9.52882,9.52882h-27.0025c-5.27897,0 -9.52882,-4.24985 -9.52882,-9.52882v-27.0025c0,-5.27897 4.24985,-9.52882 9.52882,-9.52882z" fill="#a0a300"/><path d="M59.33691,302.95727h31.12267c6.08447,0 10.98278,4.83681 10.98278,10.84486v30.73185c0,6.00805 -4.89831,10.84486 -10.98278,10.84486h-31.12267c-6.08446,0 -10.98278,-4.83681 -10.98278,-10.84486v-30.73185c0,-6.00805 4.89832,-10.84486 10.98278,-10.84486z" fill="#4b4b00"/><path d="M61.49875,305.96997h27.0025c5.27898,0 9.52882,4.24985 9.52882,9.52882v27.0025c0,5.27897 -4.24984,9.52882 -9.52882,9.52882h-27.0025c-5.27897,0 -9.52882,-4.24985 -9.52882,-9.52882v-27.0025c0,-5.27897 4.24985,-9.52882 9.52882,-9.52882z" fill="#a0a300"/></g><text transform="translate(39.97516,294.21739) scale(0.5,0.5)" font-size="40" xml:space="preserve" fill="#4b4b00" fill-rule="nonzero" stroke="none" stroke-width="1" stroke-linecap="butt" stroke-linejoin="miter" stroke-miterlimit="10" stroke-dasharray="" stroke-dashoffset="0" font-family="Sans Serif" font-weight="normal" text-anchor="start" style="mix-blend-mode: normal"><tspan x="0" dy="0">Mr. Sun</tspan></text><text transform="translate(158.76398,293.44099) scale(0.5,0.5)" font-size="40" xml:space="preserve" fill="#4b4b00" fill-rule="nonzero" stroke="none" stroke-width="1" stroke-linecap="butt" stroke-linejoin="miter" stroke-miterlimit="10" stroke-dasharray="" stroke-dashoffset="0" font-family="Sans Serif" font-weight="normal" text-anchor="start" style="mix-blend-mode: normal"><tspan x="0" dy="0">Mr. Tree</tspan></text><text transform="translate(288.42236,293.44099) scale(0.5,0.5)" font-size="40" xml:space="preserve" fill="#4b4b00" fill-rule="nonzero" stroke="none" stroke-width="1" stroke-linecap="butt" stroke-linejoin="miter" stroke-miterlimit="10" stroke-dasharray="" stroke-dashoffset="0" font-family="Sans Serif" font-weight="normal" text-anchor="start" style="mix-blend-mode: normal"><tspan x="0" dy="0">Simon</tspan></text><text transform="translate(407.98758,291.1118) scale(0.5,0.5)" font-size="40" xml:space="preserve" fill="#4b4b00" fill-rule="nonzero" stroke="none" stroke-width="1" stroke-linecap="butt" stroke-linejoin="miter" stroke-miterlimit="10" stroke-dasharray="" stroke-dashoffset="0" font-family="Sans Serif" font-weight="normal" text-anchor="start" style="mix-blend-mode: normal"><tspan x="0" dy="0">Durple</tspan></text><text transform="translate(530.65839,293.44099) scale(0.5,0.5)" font-size="40" xml:space="preserve" fill="#4b4b00" fill-rule="nonzero" stroke="none" stroke-width="1" stroke-linecap="butt" stroke-linejoin="miter" stroke-miterlimit="10" stroke-dasharray="" stroke-dashoffset="0" font-family="Sans Serif" font-weight="normal" text-anchor="start" style="mix-blend-mode: normal"><tspan x="0" dy="0">Tunner</tspan></text><path d="M61.69579,305.87055h26.86966c5.25301,0 9.48195,4.22895 9.48195,9.48195v26.86966c0,5.253 -4.22894,9.48195 -9.48195,9.48195h-26.86966c-5.253,0 -9.48195,-4.22895 -9.48195,-9.48195v-26.86966c0,-5.253 4.22895,-9.48195 9.48195,-9.48195z" fill="#a0a300" fill-rule="evenodd" stroke="none" stroke-width="4.43922" stroke-linecap="round" stroke-linejoin="round"/><g fill-rule="nonzero" stroke="#000000" stroke-width="0.5" stroke-linecap="butt" stroke-linejoin="miter"><path d="M67.20174,319.58726c3.33707,-3.13245 7.92885,-10.60864 7.92885,-10.60864c0,0 4.21672,8.64103 7.67627,11.88847c3.57111,3.35214 13.42633,7.92022 13.42633,7.92022c0,0 -8.60518,4.32532 -12.04574,7.55491c-3.5875,3.36753 -9.05686,12.25377 -9.05686,12.25377c0,0 -4.45327,-8.75325 -7.92459,-12.01173c-3.56061,-3.34229 -13.17801,-7.79696 -13.17801,-7.79696z" fill="#a0a300"/><path d="M60.20879,343.70912c0,0 2.65088,-10.79492 2.80982,-15.82067c0.14468,-4.57464 -1.8949,-13.10797 -1.8949,-13.10797c0,0 9.0918,3.12847 13.83436,2.97848c4.89548,-0.15483 15.0943,-3.89341 15.0943,-3.89341c0,0 -3.02632,9.14324 -3.17548,13.85975c-0.15554,4.91795 2.26055,15.0689 2.26055,15.0689c0,0 -9.33841,-3.04054 -14.09712,-2.89004c-4.88108,0.15437 -14.83154,3.80497 -14.83154,3.80497z" fill="#a0a300"/><path d="M60.92141,328.78733c0,-7.30945 6.31253,-13.23493 14.09944,-13.23493c7.78691,0 14.09944,5.92548 14.09944,13.23493c0,7.30945 -6.31253,13.23493 -14.09944,13.23493c-7.78691,0 -14.09944,-5.92548 -14.09944,-13.23493z" fill="#d9db56"/></g><path d="M183.71233,306.33699h27.00638c5.27974,0 9.53019,4.25047 9.53019,9.53019v27.00638c0,5.27973 -4.25046,9.53019 -9.53019,9.53019h-27.00638c-5.27973,0 -9.53019,-4.25047 -9.53019,-9.53019v-27.00638c0,-5.27973 4.25047,-9.53019 9.53019,-9.53019z" fill="#a0a300" fill-rule="evenodd" stroke="none" stroke-width="4.43922" stroke-linecap="round" stroke-linejoin="round"/><path d="M190.36277,350.56053c0,0 0.95406,-6.60108 1.43643,-11.41865c0.48958,-4.88962 0.20365,-17.8107 0.20365,-17.8107l9.46376,0.06968c0,0 -0.23487,12.31798 0.23837,17.59712c0.37504,4.18369 1.46415,11.56256 1.46415,11.56256z" fill="#a0a300" fill-rule="nonzero" stroke="#000000" stroke-width="0.5" stroke-linecap="butt" stroke-linejoin="miter"/><path d="M180.81552,320.52875c0,-6.81996 7.34251,-12.34861 16.39996,-12.34861c9.05746,0 16.39997,5.52867 16.39997,12.34863c0,6.81996 -7.34253,12.34861 -16.39997,12.34861c-9.05745,0 -16.39996,-5.52865 -16.39996,-12.34861z" fill="#d9db56" fill-rule="nonzero" stroke="#000000" stroke-width="0.5" stroke-linecap="butt" stroke-linejoin="miter"/><path d="M306.2435,305.87054h27.2798c5.3332,0 9.62669,4.2935 9.62669,9.62669v27.27981c0,5.33318 -4.2935,9.62669 -9.62669,9.62669h-27.2798c-5.33318,0 -9.6267,-4.2935 -9.6267,-9.62669v-27.27981c0,-5.33318 4.29352,-9.62669 9.6267,-9.62669z" fill="#a0a300" fill-rule="evenodd" stroke="none" stroke-width="4.43922" stroke-linecap="round" stroke-linejoin="round"/><g fill="#cfd200" fill-rule="nonzero" stroke="#000000" stroke-width="0.5" stroke-linecap="butt" stroke-linejoin="miter"><path d="M305.25034,338.00711v-16.73004h1.75267v16.73004z"/><path d="M301.90433,321.27709c0,-2.33194 1.89041,-4.22234 4.22234,-4.22234c2.33194,0 4.22234,1.89041 4.22234,4.22234c0,2.33194 -1.89041,4.22234 -4.22234,4.22234c-2.33194,0 -4.22234,-1.89041 -4.22234,-4.22234z"/></g><path d="M324.11577,339.24423c0.77754,-1.89131 2.63817,-3.22298 4.80982,-3.22298c2.87092,0 13.08527,5.19827 13.08527,5.19827" data-paper-data="{&quot;index&quot;:null}" fill="none" fill-rule="nonzero" stroke="#000000" stroke-width="0.5" stroke-linecap="butt" stroke-linejoin="miter"/><g fill="#cfd200" fill-rule="nonzero" stroke="#000000" stroke-width="0.5" stroke-linecap="butt" stroke-linejoin="miter"><path d="M332.3769,338.00711v-16.73004h1.75267v16.73004z"/><path d="M329.0309,321.27709c0,-2.33194 1.89041,-4.22234 4.22234,-4.22234c2.33194,0 4.22234,1.89041 4.22234,4.22234c0,2.33194 -1.89041,4.22234 -4.22234,4.22234c-2.33194,0 -4.22234,-1.89041 -4.22234,-4.22234z"/></g><path d="M297.75593,341.2195c0,0 10.21435,-5.19827 13.08527,-5.19827c2.13706,0 3.97292,1.28959 4.77184,3.13302" data-paper-data="{&quot;index&quot;:null}" fill="none" fill-rule="nonzero" stroke="#000000" stroke-width="0.5" stroke-linecap="butt" stroke-linejoin="miter"/><path d="M304.4296,340.37419c0,-7.95916 6.87363,-14.41132 15.35267,-14.41132c8.47905,0 15.35267,6.45218 15.35267,14.41132" fill="#cfd200" fill-rule="nonzero" stroke="#000000" stroke-width="0.5" stroke-linecap="butt" stroke-linejoin="miter"/><path d="M314.54739,328.61826l7.94677,-4.66051l-0.77675,3.28626l5.3775,-1.43401l-3.4655,3.70451" fill="#cfd200" fill-rule="nonzero" stroke="#000000" stroke-width="0.5" stroke-linecap="round" stroke-linejoin="miter"/><path d="M428.17157,305.87058h27.82668c5.44011,0 9.81967,4.37957 9.81967,9.81967v27.82668c0,5.44009 -4.37956,9.81967 -9.81967,9.81967h-27.82668c-5.44009,0 -9.81967,-4.37957 -9.81967,-9.81967v-27.82668c0,-5.44009 4.37957,-9.81967 9.81967,-9.81967z" fill="#a0a300" fill-rule="evenodd" stroke="none" stroke-width="4.43922" stroke-linecap="round" stroke-linejoin="round"/><path d="M422.2937,347.25734c0,-10.26017 8.86082,-18.57769 19.79118,-18.57769c10.93037,0 19.79118,8.31752 19.79118,18.57769" fill="#d9db56" fill-rule="nonzero" stroke="#000000" stroke-width="0.5" stroke-linecap="butt" stroke-linejoin="miter"/><path d="M430.74735,331.82186c-0.2801,-1.73583 0.0181,-19.87213 0.0181,-19.87213c0,0 5.9878,17.12194 6.2679,18.85777c0.2801,1.73583 -0.89999,3.37007 -2.63581,3.65019c-1.73583,0.2801 -3.37007,-0.89998 -3.65019,-2.63581z" fill="#868735" fill-rule="nonzero" stroke="#000000" stroke-width="0.5" stroke-linecap="butt" stroke-linejoin="miter"/><path d="M449.83883,334.45767c-1.73583,-0.28012 -2.91593,-1.91436 -2.63581,-3.65018c0.28012,-1.73583 6.2679,-18.85777 6.2679,-18.85777c0,0 0.2982,18.1363 0.0181,19.87213c-0.2801,1.73583 -1.91436,2.91593 -3.65018,2.63581z" data-paper-data="{&quot;index&quot;:null}" fill="#868735" fill-rule="nonzero" stroke="#000000" stroke-width="0.5" stroke-linecap="butt" stroke-linejoin="miter"/><path d="M550.36506,305.40416h27.1431c5.30647,0 9.57844,4.27199 9.57844,9.57844v27.1431c0,5.30645 -4.27197,9.57844 -9.57844,9.57844h-27.1431c-5.30645,0 -9.57844,-4.27199 -9.57844,-9.57844v-27.1431c0,-5.30645 4.27199,-9.57844 9.57844,-9.57844z" fill="#a0a300" fill-rule="evenodd" stroke="none" stroke-width="4.43922" stroke-linecap="round" stroke-linejoin="round"/><path d="M549.4088,334.77078c0,-7.55367 1.08567,-13.57449 14.35583,-13.67713c15.1167,-0.11691 14.35583,6.12346 14.35583,13.67713c0,0 -28.71165,0.31227 -28.71165,0z" fill="#d9db56" fill-rule="nonzero" stroke="#000000" stroke-width="0.5" stroke-linecap="butt" stroke-linejoin="miter"/><path d="M543.04522,336.01617l1.1142,-1.97129l39.98282,0.08571l0.68567,1.88558z" fill="#d9db56" fill-rule="nonzero" stroke="#000000" stroke-width="0.5" stroke-linecap="butt" stroke-linejoin="miter"/></g></g></svg>