<svg version="1.1" xmlns="http://www.w3.org/2000/svg" xmlns:xlink="http://www.w3.org/1999/xlink" width="61.78243" height="97.99242" viewBox="0,0,61.78243,97.99242"><defs><linearGradient x1="320.00002" y1="132.50379" x2="320.00002" y2="227.49621" gradientUnits="userSpaceOnUse" id="color-1"><stop offset="0" stop-color="#ffffff"/><stop offset="1" stop-color="#63ffb4"/></linearGradient><linearGradient x1="320.00002" y1="139.79281" x2="320.00002" y2="177.11966" gradientUnits="userSpaceOnUse" id="color-2"><stop offset="0" stop-color="#ffffff"/><stop offset="1" stop-color="#63ffb4"/></linearGradient><linearGradient x1="342.57248" y1="181.12862" x2="342.57248" y2="187.35957" gradientUnits="userSpaceOnUse" id="color-3"><stop offset="0" stop-color="#ffffff"/><stop offset="1" stop-color="#63ffb4"/></linearGradient><linearGradient x1="320.00002" y1="191.87406" x2="320.00002" y2="221.67675" gradientUnits="userSpaceOnUse" id="color-4"><stop offset="0" stop-color="#ffffff"/><stop offset="1" stop-color="#63ffb4"/></linearGradient></defs><g transform="translate(-289.1088,-131.00379)"><g data-paper-data="{&quot;isPaintingLayer&quot;:true}" fill-rule="nonzero" stroke-linecap="butt" stroke-linejoin="miter" stroke-miterlimit="10" stroke-dasharray="" stroke-dashoffset="0" style="mix-blend-mode: normal"><path d="M290.6088,227.49621v-94.99242h58.78243v94.99242z" fill="#000000" stroke="url(#color-1)" stroke-width="3"/><path d="M297.31,177.11966v-37.32685h45.38004v37.32685z" fill="none" stroke="url(#color-2)" stroke-width="1"/><path d="M339.45701,184.24409c0,-1.72063 1.39484,-3.11547 3.11547,-3.11547c1.72063,0 3.11547,1.39484 3.11547,3.11547c0,1.72063 -1.39484,3.11548 -3.11547,3.11548c-1.72063,0 -3.11547,-1.39485 -3.11547,-3.11548z" fill="url(#color-3)" stroke="none" stroke-width="0"/><path d="M297.31,221.67675v-29.80269h45.38004v29.80269z" fill="none" stroke="url(#color-4)" stroke-width="1"/></g></g></svg>