<svg version="1.1" xmlns="http://www.w3.org/2000/svg" xmlns:xlink="http://www.w3.org/1999/xlink" width="193.76272" height="284.78479" viewBox="0,0,193.76272,284.78479"><g transform="translate(-250.05199,-30.64404)"><g data-paper-data="{&quot;isPaintingLayer&quot;:true}" stroke-miterlimit="10" stroke-dasharray="" stroke-dashoffset="0" style="mix-blend-mode: normal"><path d="M290.72614,314.42882l13.62477,-131.8421l33.99545,-0.15789l12.2131,132z" fill="#ecec68" fill-rule="nonzero" stroke="#000000" stroke-width="2" stroke-linecap="butt" stroke-linejoin="miter"/><path d="M296.57572,267.16265l8.45591,-81.82486l32.57503,-0.15129l7.60398,82.1843c0,0 -14.59301,4.84164 -24.23451,4.80038c-9.6415,-0.04126 -24.40041,-5.00852 -24.40041,-5.00852z" fill="#c8c824" fill-rule="nonzero" stroke="#000000" stroke-width="0" stroke-linecap="butt" stroke-linejoin="miter"/><g fill-rule="nonzero" stroke="#000000" stroke-width="2" stroke-linecap="butt" stroke-linejoin="miter"><path d="M280.64214,118.38965l-15.49533,-68.26342l7.15139,-1.62331l15.49533,68.26342z" fill="#ffe9b3"/><path d="M251.49413,53.22529c-2.15983,-9.51497 3.80269,-18.97929 13.31765,-21.13912c9.51497,-2.15983 18.97928,3.80269 21.13912,13.31767c2.15983,9.51497 -3.80269,18.97928 -13.31767,21.13912c-9.51497,2.15983 -18.97927,-3.80269 -21.13911,-13.31766z" fill="#dccd27"/></g><g fill-rule="nonzero" stroke="#000000" stroke-width="2" stroke-linecap="butt" stroke-linejoin="miter"><path d="M362.38818,117.02029l60.95389,-34.41835l3.60573,6.38565l-60.95389,34.41835z" fill="#ffe9b3"/><path d="M416.4584,70.41116c8.49612,-4.79744 19.2727,-1.79906 24.07014,6.69706c4.79744,8.49612 1.79906,19.2727 -6.69707,24.07014c-8.49612,4.79744 -19.27271,1.79905 -24.07014,-6.69707c-4.79744,-8.49612 -1.79906,-19.27269 6.69707,-24.07013z" fill="#dccd27"/></g><path d="M295.43463,251.66804l7.58416,-69.08131l36.11546,-0.15789l6.82766,69.46209c0,0 -1.63411,6.69929 -25.4124,6.56159c-22.03251,-0.12759 -25.11488,-6.78449 -25.11488,-6.78449z" fill="#dccd27" fill-rule="nonzero" stroke="#000000" stroke-width="2" stroke-linecap="butt" stroke-linejoin="miter"/><path d="M296.92485,228.53569l5.27751,-45.94896l37.78325,-0.15789l4.67444,45.45686c0,0 -7.00642,7.16153 -24.11741,7.06682c-17.11099,-0.09472 -23.61779,-6.41683 -23.61779,-6.41683z" fill="#dccd27" fill-rule="nonzero" stroke="#000000" stroke-width="2" stroke-linecap="butt" stroke-linejoin="miter"/><path d="M300.63717,206.02198l3.12142,-26.32765l35.83075,-0.14203l2.76735,26.1059c0,0 -7.51543,4.19603 -21.55904,4.50964c-12.48458,0.27879 -20.16049,-4.14586 -20.16049,-4.14586z" fill="#b2a730" fill-rule="nonzero" stroke="#000000" stroke-width="0" stroke-linecap="butt" stroke-linejoin="miter"/><path d="M265.5716,127.97325c2.99154,-33.16721 34.06027,-57.47102 69.39396,-54.28408c35.33369,3.18694 61.5522,32.65781 58.56066,65.82501c-2.99154,33.16721 -34.06027,57.47102 -69.39396,54.28408c-35.33369,-3.18694 -61.55219,-32.65781 -58.56066,-65.82501z" fill="#b9b912" fill-rule="nonzero" stroke="#000000" stroke-width="2" stroke-linecap="butt" stroke-linejoin="miter"/><path d="M266.28691,128.09185c0.0654,-0.72505 0.16232,56.16103 57.98984,62.39583c55.25177,5.9571 68.46278,-52.01336 68.37126,-50.99863c-2.94688,32.67216 -33.6227,56.60683 -68.51635,53.45958c-34.89365,-3.14725 -60.79163,-32.18462 -57.84475,-64.85678z" fill="#c8c824" fill-rule="nonzero" stroke="#000000" stroke-width="0" stroke-linecap="butt" stroke-linejoin="miter"/><path d="M307.2841,155.15873l40.18509,3.62452c2.43462,0.21959 4.21782,2.35637 3.99823,4.79097l-1.64622,18.25175c-0.21959,2.43461 -2.35637,4.21782 -4.79098,3.99823l-40.18508,-3.62452c-2.43461,-0.21959 -4.21783,-2.35637 -3.99824,-4.79097l1.64622,-18.25175c0.21959,-2.43461 2.35637,-4.21782 4.79098,-3.99823z" fill="#000000" fill-rule="evenodd" stroke="#000000" stroke-width="2" stroke-linecap="round" stroke-linejoin="round"/><path d="M279.84259,92.5125l105.83486,9.54583c6.41201,0.57834 11.10839,6.20593 10.53006,12.61792l-4.33564,48.06936c-0.57833,6.41199 -6.20593,11.10841 -12.61791,10.53007l-105.83485,-9.54583c-6.41199,-0.57833 -11.10842,-6.20593 -10.53009,-12.61792l4.33564,-48.06936c0.57833,-6.41198 6.20594,-11.10841 12.61793,-10.53008z" fill="#dccd27" fill-rule="evenodd" stroke="#000000" stroke-width="2" stroke-linecap="round" stroke-linejoin="round"/><path d="M287.26288,98.54085l90.03533,8.12078c5.4548,0.492 9.45009,5.27948 8.95809,10.73425l-3.68839,40.89334c-0.492,5.45477 -5.27948,9.45009 -10.73425,8.95809l-90.03531,-8.12078c-5.45477,-0.492 -9.4501,-5.27948 -8.95811,-10.73426l3.68839,-40.89334c0.492,-5.45477 5.27949,-9.45008 10.73427,-8.95809z" fill="#000000" fill-rule="evenodd" stroke="#000000" stroke-width="2" stroke-linecap="round" stroke-linejoin="round"/><path d="M340.88343,172.77849c0,0 -2.19391,8.65276 -15.52174,7.58796c-11.0666,-0.88414 -13.62398,-9.57696 -13.62398,-9.57696" fill="none" fill-rule="nonzero" stroke="#ecec68" stroke-width="2" stroke-linecap="round" stroke-linejoin="miter"/><path d="M314.46567,132.53131c-0.94942,10.52624 -5.63596,18.70615 -10.46767,18.27036c-4.83172,-0.4358 -7.97894,-9.32229 -7.02952,-19.84853c0.94942,-10.52624 5.63595,-18.70616 10.46767,-18.27036c4.83172,0.4358 7.97894,9.32229 7.02952,19.84853z" fill="#ecec68" fill-rule="nonzero" stroke="none" stroke-width="0" stroke-linecap="butt" stroke-linejoin="miter"/><path d="M361.31547,136.73738c-0.94942,10.52623 -5.63595,18.70616 -10.46767,18.27036c-4.83172,-0.4358 -7.97894,-9.32228 -7.02952,-19.84852c0.94942,-10.52623 5.63596,-18.70615 10.46767,-18.27036c4.83172,0.4358 7.97894,9.32229 7.02952,19.84852z" fill="#ecec68" fill-rule="nonzero" stroke="none" stroke-width="0" stroke-linecap="butt" stroke-linejoin="miter"/></g></g></svg>