<svg version="1.1" xmlns="http://www.w3.org/2000/svg" xmlns:xlink="http://www.w3.org/1999/xlink" width="193.83887" height="182.98498" viewBox="0,0,193.83887,182.98498"><g transform="translate(-215.75378,-45.98855)"><g data-paper-data="{&quot;isPaintingLayer&quot;:true}" fill-rule="nonzero" stroke-linecap="butt" stroke-linejoin="miter" stroke-miterlimit="10" stroke-dasharray="" stroke-dashoffset="0" style="mix-blend-mode: normal"><path d="M216.75378,150.33549c0,0 39.42559,-31.78557 53.88547,-49.55423c13.16195,-16.17371 29.34674,-52.72354 29.34674,-52.72354c0,0 24.29598,36.45087 41.89209,49.0091c18.16351,12.96319 65.4408,27.59372 65.4408,27.59372c0,0 -36.22289,24.76454 -49.79302,41.43985c-14.14969,17.38749 -33.43919,60.83792 -33.43919,60.83792c0,0 -25.43232,-36.81361 -43.08833,-49.4146c-18.11009,-12.92506 -64.24456,-27.18823 -64.24456,-27.18823z" fill="#d8d871" stroke="#000000" stroke-width="2"/><path d="M253.73885,213.95042c0,0 5.4023,-50.3539 3.06265,-73.14291c-2.12965,-20.74344 -16.5299,-58.03245 -16.5299,-58.03245c0,0 42.95451,8.59481 64.27685,5.03249c22.0099,-3.67718 65.78534,-26.76193 65.78534,-26.76193c0,0 -8.10227,43.12463 -5.90657,64.51137c2.28947,22.30016 19.37383,66.66398 19.37383,66.66398c0,0 -44.01452,-8.04778 -65.40944,-4.47335c-21.94517,3.66637 -64.65274,26.20278 -64.65274,26.20278z" fill="#d8d871" stroke="#000000" stroke-width="2"/><path d="M247.87899,146.14197c-4.4466,-33.00365 20.45109,-63.59853 55.61053,-68.33559c35.15944,-4.73705 67.2665,18.17756 71.7131,51.1812c4.4466,33.00365 -20.45109,63.59853 -55.61053,68.33559c-35.15944,4.73705 -67.2665,-18.17756 -71.7131,-51.1812z" fill="#ecec68" stroke="#000000" stroke-width="2"/><path d="M285.20264,152.51939c-0.20445,-1.51751 55.41643,-9.57154 55.69502,-7.50382c1.94507,14.43674 -8.9459,27.81983 -24.32564,29.89196c-15.37975,2.07212 -29.4243,-7.95139 -31.36937,-22.38813z" fill="#000000" stroke="#000000" stroke-width="2"/><path d="M272.25961,132.97631c-0.82764,-6.1429 3.48123,-11.79362 9.62413,-12.62126c6.14291,-0.82764 11.79363,3.48123 12.62127,9.62412c0.82764,6.1429 -3.48124,11.79362 -9.62414,12.62126c-6.14291,0.82764 -11.79361,-3.48124 -12.62125,-9.62413z" fill="#000000" stroke="none" stroke-width="0"/><path d="M338.38607,135.0571c-5.96143,0.80319 -11.44523,-3.3784 -12.24842,-9.33982c-0.80319,-5.96144 3.3784,-11.44523 9.33982,-12.24842c5.96143,-0.80319 11.44522,3.3784 12.24841,9.33982c0.80319,5.96144 -3.3784,11.44524 -9.33981,12.24843z" data-paper-data="{&quot;index&quot;:null}" fill="#000000" stroke="none" stroke-width="0"/></g></g></svg>