<svg version="1.1" xmlns="http://www.w3.org/2000/svg" xmlns:xlink="http://www.w3.org/1999/xlink" width="35.17311" height="35.17311" viewBox="0,0,35.17311,35.17311"><defs><linearGradient x1="320.00003" y1="162.91348" x2="320.00003" y2="197.0866" gradientUnits="userSpaceOnUse" id="color-1"><stop offset="0" stop-color="#e3e3e3"/><stop offset="1" stop-color="#e2e3bd"/></linearGradient></defs><g transform="translate(-302.41346,-162.41347)"><g data-paper-data="{&quot;isPaintingLayer&quot;:true}" stroke-miterlimit="10" stroke-dasharray="" stroke-dashoffset="0" style="mix-blend-mode: normal"><path d="M309.98312,162.91348h20.03379c3.9166,0 7.06966,3.15307 7.06966,7.06966v20.03379c0,3.91659 -3.15306,7.06966 -7.06966,7.06966h-20.03379c-3.91659,0 -7.06966,-3.15307 -7.06966,-7.06966v-20.03379c0,-3.91659 3.15307,-7.06966 7.06966,-7.06966z" fill="url(#color-1)" fill-rule="evenodd" stroke="#000000" stroke-width="1" stroke-linecap="round" stroke-linejoin="round"/><path d="M314.73398,179.84953c-0.09988,-1.26225 0.05798,-2.96896 0.05798,-2.96896c0,0 0.59028,-0.00714 2.40817,-0.54418c1.39662,-0.41259 3.55616,-1.64197 3.55616,-1.64197c0,0 -0.37384,0.52009 -0.5898,0.77193c-0.22958,0.26774 -0.69106,0.78972 -0.69106,0.78972c0,0 1.35654,-0.28862 2.53979,-0.81851c1.48294,-0.61194 1.83327,-1.04762 2.24136,-0.79487c0.48164,0.29831 0.17827,4.01228 0.12435,4.9742c-0.07297,0.98118 -0.43844,1.64413 -0.54523,2.16695c-0.10679,0.52282 -0.07089,1.06208 -0.38183,2.77602c-0.19405,1.06962 -0.7203,1.54461 -1.73408,2.53738c-1.01378,0.99277 -1.56696,1.60139 -2.25229,1.61333c-0.65954,0.01149 -1.54651,-0.8827 -2.41183,-1.79691c-0.92142,-0.97349 -1.53599,-1.46715 -1.68148,-2.62027c-0.13103,-1.0385 -0.1344,-1.71489 -0.1943,-2.63906c-0.04378,-0.67545 -0.39135,-1.11546 -0.4459,-1.8048z" fill="#5a5a07" fill-rule="nonzero" stroke="none" stroke-width="0.5" stroke-linecap="butt" stroke-linejoin="miter"/><path d="M323.05355,177.23262c0,0 0.26381,0.05505 0.73656,0.19216c0.4318,0.12524 0.77006,0.30184 0.77006,0.30184l0.03377,0.20255c0,0 -1.25471,-0.54171 -2.61612,-0.42759c-1.08855,0.09125 -1.72435,0.48675 -1.72435,0.48675l0.00792,-0.72289c0,0 0.54128,-0.29495 1.36098,-0.32115c0.84879,-0.02712 1.4003,0.10233 1.4003,0.10233z" data-paper-data="{&quot;index&quot;:null}" fill="#5a5a07" fill-rule="nonzero" stroke="none" stroke-width="0.5" stroke-linecap="butt" stroke-linejoin="miter"/><path d="M320.84443,184.67256c0.09872,0.03667 0.53368,0.2422 1.04256,0.44927c0.51293,0.20872 1.24848,0.39684 1.2451,0.42584c-0.00429,0.0368 -1.80597,0.03928 -2.36752,0.10942c-0.47059,0.05878 -1.15762,0.12213 -1.15762,0.12213c0,0 -1.22951,-0.20106 -2.29707,-0.4232c-0.85562,-0.17804 -1.79983,-0.28749 -1.80167,-0.30367c-0.00249,-0.02183 0.6695,-0.123 1.18107,-0.24138c0.19831,-0.08595 0.94146,-0.25703 0.94146,-0.25703c0,0 0.85772,-0.04806 1.31678,0.10021c0.49188,0.15886 0.49074,0.42326 0.5336,0.42733c0,0 0.20498,-0.30276 0.40998,-0.36425c0.20501,-0.06149 0.87958,-0.07206 0.95333,-0.04467z" fill="#5a5a07" fill-rule="nonzero" stroke="none" stroke-width="0.5" stroke-linecap="butt" stroke-linejoin="miter"/><path d="M317.61699,185.46066c0.88113,0.1777 2.0626,0.48588 2.0626,0.48588c0,0 1.00205,-0.26927 1.4619,-0.31748c0.35651,-0.03738 1.94118,-0.12228 1.94884,-0.05777c0.00749,0.06308 -1.56305,2.23269 -3.66014,2.15425c-2.38312,-0.07542 -3.95722,-2.61955 -3.95067,-2.64882c0.00655,-0.02927 1.25635,0.20624 2.13748,0.38394z" fill="#5a5a07" fill-rule="nonzero" stroke="none" stroke-width="0.5" stroke-linecap="butt" stroke-linejoin="miter"/><path d="M319.51633,184.94254c-0.17891,0 -0.61235,-0.56429 -0.65537,-0.92831c-0.0385,-0.3257 0.22761,-0.66252 0.65537,-0.66252c0.42776,0 0.72727,0.08494 0.69748,0.72492c-0.02528,0.54313 -0.26972,0.86591 -0.69748,0.86591z" fill="#5a5a07" fill-rule="nonzero" stroke="none" stroke-width="0.5" stroke-linecap="butt" stroke-linejoin="miter"/><path d="M320.13973,179.73416c0,0 0.01776,0.68705 0.001,1.23342c-0.03318,1.0819 -0.18717,4.8046 -0.18717,4.8046l-0.51604,0.0015c0,0 -0.13897,-0.72218 -0.1944,-1.64415c-0.07503,-1.24796 -0.0778,-2.8199 -0.13213,-3.3978c-0.0515,-0.5478 -0.15506,-0.98903 -0.15506,-0.98903" fill="#5a5a07" fill-rule="nonzero" stroke="none" stroke-width="0.5" stroke-linecap="round" stroke-linejoin="miter"/><path d="M315.02813,181.60158c0,0 -0.85361,-0.6087 -1.06685,-1.55332c-0.22436,-0.99392 -0.25289,-1.68448 0.0831,-1.72932c0.33599,-0.04485 0.46785,0.41138 0.64601,1.44614c0.17816,1.03476 0.33774,1.83651 0.33774,1.83651z" data-paper-data="{&quot;index&quot;:null}" fill="#5a5a07" fill-rule="nonzero" stroke="none" stroke-width="0.5" stroke-linecap="butt" stroke-linejoin="miter"/><path d="M314.99307,180.91836c0,0 -0.6168,-0.50596 -0.74735,-1.46256c-0.07283,-0.53363 0.37327,-0.39463 0.37327,-0.39463" fill="#5a5a07" fill-rule="nonzero" stroke="none" stroke-width="0.5" stroke-linecap="round" stroke-linejoin="miter"/><path d="M315.5146,179.76641c0.01228,-0.84665 0.83738,-1.54659 1.7673,-1.53311c0.92992,0.01348 1.56236,0.73528 1.55009,1.58193c-0.01228,0.84665 -0.71367,1.52206 -1.64359,1.50858c-0.92992,-0.01348 -1.68608,-0.71075 -1.6738,-1.5574z" fill="#5a5a07" fill-rule="nonzero" stroke="none" stroke-width="0.5" stroke-linecap="butt" stroke-linejoin="miter"/><path d="M316.28263,179.78683c0.00692,-0.47741 0.39955,-0.85881 0.87695,-0.85188c0.47741,0.00692 0.85881,0.39955 0.85188,0.87695c-0.00692,0.47741 -0.39954,0.85881 -0.87695,0.85188c-0.47741,-0.00692 -0.85881,-0.39955 -0.85188,-0.87695z" fill="#5a5a07" fill-rule="nonzero" stroke="none" stroke-width="0.5" stroke-linecap="butt" stroke-linejoin="miter"/><path d="M320.19728,179.76654c0.03523,-0.84601 0.77063,-1.53315 1.691,-1.53315c0.92037,0 1.60516,0.68642 1.60516,1.53315c0,0.84674 -0.67253,1.56994 -1.67874,1.5822c-0.95708,0.01166 -1.65421,-0.69868 -1.61742,-1.5822z" fill="#5a5a07" fill-rule="nonzero" stroke="none" stroke-width="0.5" stroke-linecap="butt" stroke-linejoin="miter"/><path d="M320.99388,179.78135c0,-0.48779 0.39543,-0.88323 0.88323,-0.88323c0.48779,0 0.88323,0.39543 0.88323,0.88323c0,0.48779 -0.39543,0.88323 -0.88323,0.88323c-0.48779,0 -0.88323,-0.39543 -0.88323,-0.88323z" fill="#5a5a07" fill-rule="nonzero" stroke="none" stroke-width="0.5" stroke-linecap="butt" stroke-linejoin="miter"/><path d="M315.50275,179.67431c0,0 0.011,-1.56026 1.83476,-1.52734c1.63917,0.02871 1.6538,1.62813 1.6538,1.62813z" fill="#5a5a07" fill-rule="nonzero" stroke="none" stroke-width="0.5" stroke-linecap="butt" stroke-linejoin="miter"/><path d="M320.13192,179.69696c0,0 -0.04272,-1.63695 1.93808,-1.57551c1.68127,0.05771 1.65228,1.67054 1.65228,1.67054z" fill="#5a5a07" fill-rule="nonzero" stroke="none" stroke-width="0.5" stroke-linecap="butt" stroke-linejoin="miter"/><path d="M316.11368,177.94157c0,0 0.58319,-0.31482 1.39019,-0.39491c0.89426,-0.08876 1.34446,-0.01147 1.34446,-0.01147l0.05107,0.71608c0,0 -0.66382,-0.1178 -1.38768,-0.09019c-0.96807,0.03692 -1.15004,0.248 -1.88609,0.32731c-0.63069,0.06796 -1.16603,0.02749 -1.16603,0.02749l-0.00448,-0.21315c0,0 0.62222,0.0128 0.90581,-0.01183c0.23406,-0.02033 0.68808,-0.16236 0.68808,-0.16236z" fill="#5a5a07" fill-rule="nonzero" stroke="none" stroke-width="0.5" stroke-linecap="butt" stroke-linejoin="miter"/><path d="M324.41436,179.76506c0.17816,-1.03476 0.31002,-1.49099 0.64601,-1.44614c0.33599,0.04485 0.30746,0.7354 0.0831,1.72932c-0.21324,0.94462 -1.06685,1.55332 -1.06685,1.55332c0,0 0.15958,-0.80176 0.33774,-1.83651z" data-paper-data="{&quot;index&quot;:null}" fill="#5a5a07" fill-rule="nonzero" stroke="none" stroke-width="0.5" stroke-linecap="butt" stroke-linejoin="miter"/><path d="M324.48578,179.06117c0,0 0.4461,-0.139 0.37327,0.39463c-0.13055,0.95661 -0.74735,1.46256 -0.74735,1.46256" data-paper-data="{&quot;index&quot;:null}" fill="#5a5a07" fill-rule="nonzero" stroke="none" stroke-width="0.5" stroke-linecap="round" stroke-linejoin="miter"/><path d="M308.33898,183.65327c0,-5.76362 4.97753,-10.43595 11.11763,-10.43595c6.1401,0 11.11763,4.67234 11.11763,10.43595c0,5.76362 -4.97753,10.43595 -11.11763,10.43595c-6.1401,0 -11.11763,-4.67234 -11.11763,-10.43595z" fill="#ffffff" fill-rule="nonzero" stroke="#000000" stroke-width="0.5" stroke-linecap="butt" stroke-linejoin="miter"/><path d="M308.46414,183.60489c0,-0.12599 0.90113,9.67808 10.96592,9.85373c9.61649,0.16783 10.99242,-10.03007 10.99242,-9.85373c0,5.67759 -4.91554,10.28019 -10.97917,10.28019c-6.06363,0 -10.97917,-4.6026 -10.97917,-10.28019z" fill="#dedeaf" fill-rule="nonzero" stroke="none" stroke-width="0" stroke-linecap="butt" stroke-linejoin="miter"/><g fill-rule="nonzero" stroke="#000000" stroke-width="0.5" stroke-linecap="butt" stroke-linejoin="miter"><path d="M333.05217,176.7908c-0.10036,1.75956 -6.02537,2.85267 -13.23389,2.44152c-7.20851,-0.41114 -12.97082,-2.17085 -12.87046,-3.9304c0.10036,-1.75956 6.02537,-2.85267 13.23389,-2.44152c7.20851,0.41114 12.97082,2.17085 12.87046,3.9304z" fill="#e2e2e2"/><path d="M311.88424,175.52553l0.46594,-8.16927c0,0 1.97143,-1.66743 8.45278,-1.42049c6.55123,0.24959 7.78535,2.34665 7.78535,2.34665l-0.46594,8.16927c0,0 -1.77539,0.82473 -7.98927,0.32488c-5.55314,-0.4467 -8.24885,-1.25104 -8.24885,-1.25104z" fill="#ffffff"/></g><path d="M314.78988,184.45952c0,-0.47792 0.38744,-0.86536 0.86536,-0.86536c0.47792,0 0.86536,0.38744 0.86536,0.86536c0,0.47792 -0.38744,0.86536 -0.86536,0.86536c-0.47792,0 -0.86536,-0.38744 -0.86536,-0.86536z" fill="#000000" fill-rule="nonzero" stroke="none" stroke-width="0.5" stroke-linecap="butt" stroke-linejoin="miter"/><path d="M322.18138,184.45952c0,-0.47792 0.38744,-0.86536 0.86536,-0.86536c0.47792,0 0.86536,0.38744 0.86536,0.86536c0,0.47792 -0.38744,0.86536 -0.86536,0.86536c-0.47792,0 -0.86536,-0.38744 -0.86536,-0.86536z" fill="#000000" fill-rule="nonzero" stroke="none" stroke-width="0.5" stroke-linecap="butt" stroke-linejoin="miter"/><path d="M325.61724,189.17027c0,0 -3.43584,2.11351 -6.02419,2.05377c-2.58835,-0.05974 -6.02628,-2.33191 -6.02628,-2.33191" fill="none" fill-rule="nonzero" stroke="#000000" stroke-width="0.5" stroke-linecap="round" stroke-linejoin="miter"/></g></g></svg>