<svg version="1.1" xmlns="http://www.w3.org/2000/svg" xmlns:xlink="http://www.w3.org/1999/xlink" width="171.30317" height="218.07099" viewBox="0,0,171.30317,218.07099"><g transform="translate(-234.85232,-81.3121)"><g data-paper-data="{&quot;isPaintingLayer&quot;:true}" fill-rule="nonzero" stroke-linejoin="miter" stroke-miterlimit="10" stroke-dasharray="" stroke-dashoffset="0" style="mix-blend-mode: normal"><path d="M346.6975,108.93721c8.3699,-8.38508 57.87822,-26.00156 57.87822,-26.00156c0,0 -15.43499,47.44463 -23.80489,55.82972c-8.3699,8.38508 -22.78262,8.50527 -32.19171,0.26846c-9.40909,-8.23681 -10.25152,-21.71152 -1.88162,-30.0966z" data-paper-data="{&quot;index&quot;:null}" fill="#9b9b44" stroke="#000000" stroke-width="2" stroke-linecap="butt"/><path d="M292.42869,139.03382c-9.40909,8.23681 -23.82181,8.11662 -32.19171,-0.26846c-8.3699,-8.38508 -23.80489,-55.82972 -23.80489,-55.82972c0,0 49.50832,17.61648 57.87822,26.00156c8.3699,8.38508 7.52747,21.85979 -1.88162,30.0966z" data-paper-data="{&quot;index&quot;:null}" fill="#9b9b44" stroke="#000000" stroke-width="2" stroke-linecap="butt"/><path d="M286.95926,298.38307l14.13506,-112.61431l39.79883,-2.03542l12.5661,114.64974z" fill="#9b9b44" stroke="#000000" stroke-width="2" stroke-linecap="butt"/><path d="M299.90951,201.56267l1.60973,-11.91436l37.34244,-0.13301l2.76735,11.7067c0,0 -7.51543,3.92951 -21.55904,4.2232c-12.48458,0.26108 -20.16049,-3.88252 -20.16049,-3.88252z" fill="#6e6e30" stroke="#000000" stroke-width="0" stroke-linecap="butt"/><path d="M256.47613,144.37556c0,-31.18658 28.7599,-56.4683 64.23702,-56.4683c35.47713,0 64.23702,25.28172 64.23702,56.4683c0,31.18658 -28.75989,56.46831 -64.23702,56.46831c-35.47712,0 -64.23702,-25.28173 -64.23702,-56.46831z" fill="#9b9b44" stroke="#000000" stroke-width="2" stroke-linecap="butt"/><path d="M270.10327,145.80428c0,-12.14431 10.51265,-21.98921 23.48066,-21.98921c12.96801,0 23.48065,9.8449 23.48065,21.98921c0,12.14431 -10.51264,21.98922 -23.48065,21.98922c-12.96801,0 -23.48066,-9.84491 -23.48066,-21.98922z" fill="#000000" stroke="#000000" stroke-width="2" stroke-linecap="butt"/><path d="M270.10327,144.63368c0,-12.14431 10.51265,-21.98921 23.48066,-21.98921c12.96801,0 23.48065,9.8449 23.48065,21.98921c0,12.14431 -10.51264,21.98922 -23.48065,21.98922c-12.96801,0 -23.48066,-9.84491 -23.48066,-21.98922z" fill="#000000" stroke="#000000" stroke-width="2" stroke-linecap="butt"/><path d="M334.33753,181.04121h-25.1096" fill="none" stroke="#000000" stroke-width="2" stroke-linecap="round"/><path d="M347.84237,167.7935c-12.96801,0 -23.48065,-9.84491 -23.48065,-21.98922c0,-12.14431 10.51264,-21.98921 23.48065,-21.98921c12.96801,0 23.48066,9.8449 23.48066,21.98921c0,12.14431 -10.51265,21.98922 -23.48066,21.98922z" data-paper-data="{&quot;index&quot;:null}" fill="#000000" stroke="#000000" stroke-width="2" stroke-linecap="butt"/><path d="M347.84237,166.62289c-12.96801,0 -23.48065,-9.84491 -23.48065,-21.98922c0,-12.14431 10.51264,-21.98921 23.48065,-21.98921c12.96801,0 23.48066,9.8449 23.48066,21.98921c0,12.14431 -10.51265,21.98922 -23.48066,21.98922z" data-paper-data="{&quot;index&quot;:null}" fill="#000000" stroke="#000000" stroke-width="2" stroke-linecap="butt"/><path d="M257.27616,144.28191c0,-0.68175 5.20666,52.3675 63.36046,53.31794c55.56352,0.90811 63.51358,-54.27207 63.51358,-53.31794c0,30.7211 -28.40173,55.62547 -63.43702,55.62547c-35.03529,0 -63.43702,-24.90437 -63.43702,-55.62547z" fill="#6e6e30" stroke="#000000" stroke-width="0" stroke-linecap="butt"/><path d="M282.74097,117.65507c0,0 6.70895,-4.84088 11.79721,-5.95935c5.08827,-1.11847 12.33413,0.65495 12.33413,0.65495c0,0 -8.03812,-0.05645 -11.96762,0.80731c-4.10648,0.90267 -12.16372,4.49709 -12.16372,4.49709z" fill="#000000" stroke="none" stroke-width="0" stroke-linecap="butt"/><path d="M346.67551,113.15799c-3.9295,-0.86376 -11.96762,-0.80731 -11.96762,-0.80731c0,0 7.24586,-1.77342 12.33413,-0.65495c5.08826,1.11847 11.79721,5.95935 11.79721,5.95935c0,0 -8.05724,-3.59442 -12.16372,-4.49709z" data-paper-data="{&quot;index&quot;:null}" fill="#000000" stroke="none" stroke-width="0" stroke-linecap="butt"/><path d="M274.30204,167.69475c0,-0.3879 0.33579,-0.70236 0.75,-0.70236c0.41421,0 0.75,0.31446 0.75,0.70236c0,0.3879 -0.33579,0.70236 -0.75,0.70236c-0.41421,0 -0.75,-0.31446 -0.75,-0.70236z" fill="#000000" stroke="none" stroke-width="0.5" stroke-linecap="butt"/><path d="M285.10204,171.81527c0,-0.3879 0.33579,-0.70236 0.75,-0.70236c0.41421,0 0.75,0.31446 0.75,0.70236c0,0.3879 -0.33579,0.70236 -0.75,0.70236c-0.41421,0 -0.75,-0.31446 -0.75,-0.70236z" fill="#000000" stroke="none" stroke-width="0.5" stroke-linecap="butt"/><path d="M278.90204,176.31039c0,-0.3879 0.33579,-0.70236 0.75,-0.70236c0.41421,0 0.75,0.31446 0.75,0.70236c0,0.3879 -0.33579,0.70236 -0.75,0.70236c-0.41421,0 -0.75,-0.31446 -0.75,-0.70236z" fill="#000000" stroke="none" stroke-width="0.5" stroke-linecap="butt"/><path d="M366.37427,168.39712c-0.41422,0 -0.75,-0.31445 -0.75,-0.70236c0,-0.38791 0.33578,-0.70236 0.75,-0.70236c0.41422,0 0.75,0.31445 0.75,0.70236c0,0.38791 -0.33578,0.70236 -0.75,0.70236z" data-paper-data="{&quot;index&quot;:null}" fill="#000000" stroke="none" stroke-width="0.5" stroke-linecap="butt"/><path d="M355.57427,172.51764c-0.41422,0 -0.75,-0.31445 -0.75,-0.70236c0,-0.38791 0.33578,-0.70236 0.75,-0.70236c0.41422,0 0.75,0.31445 0.75,0.70236c0,0.38791 -0.33578,0.70236 -0.75,0.70236z" data-paper-data="{&quot;index&quot;:null}" fill="#000000" stroke="none" stroke-width="0.5" stroke-linecap="butt"/><path d="M361.77426,177.01275c-0.41422,0 -0.75,-0.31445 -0.75,-0.70236c0,-0.38791 0.33578,-0.70236 0.75,-0.70236c0.41422,0 0.75,0.31445 0.75,0.70236c0,0.38791 -0.33578,0.70236 -0.75,0.70236z" data-paper-data="{&quot;index&quot;:null}" fill="#000000" stroke="none" stroke-width="0.5" stroke-linecap="butt"/></g></g></svg>