<svg version="1.1" xmlns="http://www.w3.org/2000/svg" xmlns:xlink="http://www.w3.org/1999/xlink" width="247.13757" height="73.30014" viewBox="0,0,247.13757,73.30014"><g transform="translate(-119.76454,-4.34993)"><g data-paper-data="{&quot;isPaintingLayer&quot;:true}" fill-rule="nonzero" stroke="none" stroke-miterlimit="10" stroke-dasharray="" stroke-dashoffset="0" style="mix-blend-mode: normal"><path d="M274.3861,69.4084c3.01239,1.81357 5.60981,1.93654 7.79226,0.36886c2.21319,-1.56766 4.34952,-5.17948 6.40903,-10.8354c2.09022,-5.68664 3.42736,-10.1284 4.01139,-13.32522c0.61478,-3.22758 0.87606,-5.41001 0.78385,-6.54737c-0.09221,-1.13733 -0.66084,-1.96729 -1.70599,-2.48984c-1.01435,-0.52254 -2.72036,0.56865 -5.11799,3.27367c-2.39762,2.70503 -4.47248,6.28609 -6.22458,10.74319c-1.72136,4.4571 -3.61181,10.43582 -5.67131,17.93603zM278.90466,76.37071c-2.09022,0 -4.10363,-0.59939 -6.04017,-1.79822c-0.52254,0.95291 -1.36785,1.42938 -2.53591,1.42938h-1.61375c-2.21319,0 -3.13536,-1.01435 -2.76648,-3.04313l17.2905,-66.53396c0.36883,-1.38325 1.32176,-2.07485 2.85868,-2.07485h2.16709c1.75211,0 2.44371,0.72237 2.07487,2.16709l-8.20724,32.18342l1.38325,-2.3515c1.3218,-2.21319 2.82797,-4.10364 4.5186,-5.67131c1.72136,-1.56766 3.11997,-2.35152 4.19583,-2.35152h0.18447c0.49181,0 1.27564,0.36886 2.3515,1.1066c1.07585,0.70701 2.12097,1.70599 3.13536,2.99701c1.0451,1.29103 1.75211,2.64353 2.12095,4.05752c0.39957,1.41397 0.30736,3.99601 -0.27667,7.74617c-0.5533,3.75013 -2.02878,8.89885 -4.42636,15.44622c-2.39762,6.54737 -4.82599,10.97369 -7.28509,13.2791c-2.42839,2.27464 -5.4715,3.41199 -9.12938,3.41199z" fill="#000000" stroke-width="1.20157" stroke-linecap="round" stroke-linejoin="round"/><path d="M301.1019,63.19138c0.27664,-8.4224 2.38226,-16.39911 6.31681,-23.93009c3.93454,-7.53097 8.94498,-11.23499 15.03122,-11.11205c3.16607,0.18446 5.62519,1.7675 7.37728,4.74912c1.3218,2.0595 1.85967,5.54836 1.61375,10.46654c-0.24592,9.31384 -2.79723,17.93602 -7.65395,25.86664c-3.35051,5.80961 -7.85374,8.60683 -13.50969,8.39169c-1.99803,-0.0614 -3.8577,-0.93751 -5.57904,-2.62817c-2.58209,-2.45907 -3.78089,-6.39366 -3.59644,-11.80368zM317.1936,66.97228c4.27267,-6.73179 6.53197,-14.26278 6.77789,-22.59297c0.0614,-3.68866 -0.13832,-6.16309 -0.5994,-7.4234c-0.43034,-1.2603 -1.35251,-1.9058 -2.76648,-1.93655c-1.41397,-0.03095 -2.70502,0.62997 -3.87306,1.98264c-1.16807,1.35252 -2.30541,3.22758 -3.41199,5.62521c-2.79723,5.59447 -4.3188,12.14181 -4.56469,19.64204c-0.12293,5.65589 0.86072,8.57608 2.95094,8.76052c1.81357,0.0614 3.64253,-1.29103 5.48684,-4.05752z" fill="#000000" stroke-width="1.20157" stroke-linecap="round" stroke-linejoin="round"/><path d="M326.49987,74.97585c7.62322,-9.25236 13.32526,-16.49132 17.10611,-21.71691c-1.56766,-6.60882 -3.39664,-13.41744 -5.48684,-20.42589c-0.79921,-2.30541 -0.29201,-3.45809 1.52156,-3.45809h2.62817c1.38325,0 2.30541,0.72233 2.76648,2.16707c1.69064,5.84038 3.10463,11.12741 4.24196,15.86116c2.76648,-4.02679 6.25534,-9.6366 10.46654,-16.82946c0.43034,-0.79921 1.27564,-1.19881 2.53591,-1.19881h3.22758c1.69064,0 1.84432,1.12197 0.46107,3.36587c-3.38126,5.87109 -8.34555,13.27911 -14.89291,22.2241c1.44472,6.42438 2.73573,13.21766 3.87306,20.37975c0.18446,1.2603 -0.32273,1.92117 -1.52156,1.98266l-2.85868,0.27667c-0.86071,0.12293 -1.46007,-0.00003 -1.79822,-0.36886c-0.30738,-0.36883 -0.61475,-1.21414 -0.92216,-2.53591c-0.61478,-4.30342 -1.42936,-8.77591 -2.44371,-13.41746c-4.33416,5.53297 -7.2082,9.1448 -8.62222,10.8354c-1.38325,1.65991 -2.19782,2.64353 -2.44371,2.95094c-0.24592,0.30738 -0.3996,0.50717 -0.46107,0.59936c-0.0614,0.09221 -0.19979,0.27664 -0.41496,0.55328c-0.21518,0.24592 -0.41499,0.3996 -0.59942,0.46107c-0.15372,0.0614 -0.35352,0.15369 -0.5994,0.27667c-0.36883,0.24592 -0.87605,0.36886 -1.52156,0.36886h-2.72036c-0.8914,0 -1.47548,-0.2613 -1.75211,-0.78385c-0.27664,-0.5533 -0.19978,-1.07585 0.23056,-1.56765z" fill="#000000" stroke-width="1.20157" stroke-linecap="round" stroke-linejoin="round"/><path d="M159.21036,8.25094c1.47766,1.06896 2.751,3.01825 3.81996,5.84786c1.10041,2.79818 1.7135,5.21905 1.83925,7.26266c0.1572,2.04361 0.2515,3.25405 0.28295,3.63134c0.06288,0.84887 -0.59736,1.47766 -1.98072,1.88641l-2.68812,0.80171c-0.6288,0.1572 -1.28905,-0.01572 -1.98072,-0.51876c-0.69167,-0.53449 -1.05325,-1.24187 -1.08468,-2.12221c-0.50304,-4.93608 -1.60345,-8.44166 -3.3012,-10.51671c-0.84887,-0.31442 -1.79207,-0.47161 -2.82962,-0.47161c-3.14401,-0.1572 -6.30374,2.07505 -9.4792,6.69675c-3.17547,4.59025 -5.895,10.86254 -8.15871,18.81691c-2.95538,10.09229 -3.58417,18.36102 -1.88641,24.80625c0.94321,3.58417 2.37371,5.61205 4.29157,6.08366c4.71601,-0.40872 8.61459,-3.88287 11.69572,-10.42241c0.09434,-0.18863 0.22009,-0.45588 0.37729,-0.80171c0.18863,-0.37729 0.31441,-0.61308 0.37729,-0.7074c0.06288,-0.12575 0.15722,-0.31438 0.28295,-0.56592c0.1572,-0.28297 0.26725,-0.44016 0.33011,-0.47159c0.06288,-0.06287 0.15722,-0.17291 0.28297,-0.33011c0.12575,-0.1572 0.23579,-0.23579 0.33011,-0.23579c0.12575,0 0.2515,-0.01571 0.37729,-0.04716c0.1572,-0.06287 0.31438,-0.06287 0.47159,0c0.18863,0.06288 0.393,0.12575 0.61308,0.18863c0.22009,0.03145 0.45588,0.11004 0.70742,0.23579l3.06541,1.27332c0.59737,0.22009 0.89605,0.72312 0.89605,1.50913c0.03145,0.75458 -0.17292,1.54058 -0.6131,2.35801c-3.01825,5.47059 -5.95791,9.35342 -8.81895,11.64854c-2.86104,2.2637 -6.4138,3.39554 -10.65821,3.39554c-1.94929,0 -4.00862,-0.67596 -6.17797,-2.02788c-3.48983,-2.13792 -5.58062,-6.74391 -6.27229,-13.81792c-0.66026,-7.10546 0.1415,-15.10696 2.40517,-24.00453c1.44625,-5.87929 3.55274,-11.20841 6.31945,-15.98729c2.76674,-4.81033 5.97363,-8.61457 9.62067,-11.41275c3.67849,-2.79818 7.40413,-4.19725 11.17696,-4.19725c0.78599,0 1.83925,0.22009 3.15974,0.66026c1.35193,0.44016 2.42087,0.95892 3.20688,1.55629z" fill="#000000" stroke-width="1" stroke-linecap="butt" stroke-linejoin="miter"/><path d="M216.73482,11.16936c0,0 -5.30522,20.79418 -15.91566,62.38253c-0.34136,1.28007 -1.20896,1.92011 -2.60284,1.92011h-1.49341c-1.05251,0 -1.77789,-0.25602 -2.17613,-0.76805c-0.42668,-0.54048 -0.54048,-1.22318 -0.34136,-2.0481l15.95833,-61.57183c0.34136,-1.28007 1.22318,-1.92011 2.64549,-1.92011h2.00546c1.59301,0 2.23302,0.66847 1.92013,2.00546z" fill="#000000" stroke-width="1" stroke-linecap="butt" stroke-linejoin="miter"/><path d="M258.26409,41.34639c3.88907,-6.3161 6.90088,-10.19051 9.03547,-11.62334c0.7018,-0.49711 1.95916,-0.74564 3.77211,-0.74564h0.87724c1.72521,0 2.32468,0.67254 1.79831,2.01764c-0.26318,0.73102 -0.99419,1.63752 -2.19307,2.71942c-1.19889,1.05267 -2.7925,2.83636 -4.78092,5.35111c-1.98838,2.51476 -2.98258,4.15224 -2.98258,4.91249c0,1.57904 0.74563,3.05571 2.23693,4.43005c0.3509,0.29239 0.45325,0.61405 0.30704,0.96493c-0.11699,0.3509 -0.42403,0.5702 -0.92111,0.65794l-3.42121,0.61406c-0.96497,0.14612 -1.69599,0.04378 -2.19307,-0.30702c-0.49707,-0.38013 -1.12576,-1.28662 -1.88604,-2.71942l-0.74564,-1.35973l-6.93016,26.66787c-0.3509,1.31583 -1.25735,1.97378 -2.7194,1.97378h-2.58785c-1.63748,0 -2.29542,-0.68716 -1.97377,-2.06148l10.96541,-41.75629c0.32164,-1.19889 1.15501,-1.79833 2.50011,-1.79833h2.76328c0.78951,0 1.31587,0.1462 1.57904,0.43859c0.26318,0.26318 0.30697,0.74563 0.13145,1.44744z" fill="#000000" stroke-width="1" stroke-linecap="butt" stroke-linejoin="miter"/><path d="M179.27763,64.98532c4.53057,-6.95048 6.90833,-14.62103 7.13325,-23.01171c0.0964,-3.757 -0.11247,-6.27731 -0.62656,-7.56096c-0.48196,-1.28365 -1.46201,-1.94112 -2.94004,-1.97246c-1.47806,-0.06262 -2.82758,0.61052 -4.04861,2.01939c-1.18889,1.37758 -2.34563,3.20912 -3.47024,5.49463c-2.98825,6.01121 -4.59483,12.75817 -4.81976,20.2409c-0.12852,5.79206 0.89969,8.76634 3.08466,8.9229c1.92792,0.06262 3.82369,-1.31493 5.68735,-4.1327zM162.50483,61.13433c0.32133,-8.64111 2.15283,-16.07688 5.49453,-22.30726c1.44592,-2.75512 2.63481,-4.74322 3.56665,-5.96424c0.93181,-1.25236 2.05644,-2.48903 3.37384,-3.71006c2.73121,-2.53599 6.02469,-3.77267 9.88053,-3.71005c3.30958,0.15655 5.88013,1.76893 7.71163,4.83716c1.34955,2.09768 1.92791,5.60421 1.7351,10.51963c-0.16066,4.88412 -1.01215,9.67432 -2.55448,14.37057c-1.51018,4.66495 -3.21316,8.56285 -5.10894,11.69373c-3.79154,6.16777 -8.62739,9.15768 -14.50751,8.96985c-2.15284,-0.09403 -4.09682,-0.98632 -5.83192,-2.67687c-1.15673,-1.06448 -2.10464,-2.62993 -2.84367,-4.69629c-0.70689,-2.09765 -1.01215,-4.53971 -0.91575,-7.32615z" fill="#000000" stroke-width="1" stroke-linecap="butt" stroke-linejoin="miter"/><path d="M229.6465,63.65982c4.53057,-6.95048 6.90833,-14.62103 7.13325,-23.01171c0.0964,-3.757 -0.11247,-6.27731 -0.62658,-7.56096c-0.48196,-1.28365 -1.46201,-1.94112 -2.94004,-1.97246c-1.47806,-0.06262 -2.82758,0.61052 -4.04861,2.01939c-1.18889,1.37758 -2.34563,3.20912 -3.47024,5.49463c-2.98825,6.01121 -4.59483,12.75817 -4.81976,20.2409c-0.12852,5.79206 0.89969,8.76634 3.08466,8.9229c1.92792,0.06262 3.82369,-1.31493 5.68735,-4.13271zM212.87369,59.80883c0.32133,-8.64111 2.15283,-16.07688 5.49453,-22.30724c1.44592,-2.75512 2.63481,-4.74322 3.56665,-5.96424c0.93181,-1.25236 2.05644,-2.48903 3.37384,-3.71006c2.73121,-2.53599 6.02469,-3.77267 9.88053,-3.71005c3.30958,0.15655 5.88013,1.76893 7.71163,4.83716c1.34955,2.09768 1.92791,5.60421 1.7351,10.51963c-0.16066,4.88412 -1.01215,9.67432 -2.55448,14.37057c-1.51018,4.66495 -3.21318,8.56285 -5.10894,11.69373c-3.79154,6.16777 -8.62739,9.15768 -14.50751,8.96985c-2.15284,-0.09403 -4.09682,-0.98632 -5.83192,-2.67687c-1.15673,-1.06448 -2.10464,-2.62993 -2.84367,-4.69629c-0.70689,-2.09765 -1.01215,-4.53971 -0.91575,-7.32615z" fill="#000000" stroke-width="1" stroke-linecap="butt" stroke-linejoin="miter"/><g fill="#969642"><path d="M271.05275,69.40839c3.01239,1.81357 5.6098,1.93654 7.79226,0.36886c2.21319,-1.56767 4.34953,-5.17948 6.40903,-10.83541c2.09022,-5.68664 3.42736,-10.12839 4.01139,-13.32521c0.61478,-3.22759 0.87606,-5.41001 0.78385,-6.54737c-0.09222,-1.13733 -0.66084,-1.96729 -1.706,-2.48984c-1.01435,-0.52254 -2.72036,0.56866 -5.118,3.27368c-2.39763,2.70504 -4.47248,6.28608 -6.22458,10.74318c-1.72136,4.4571 -3.6118,10.43582 -5.67131,17.93604zM275.57132,76.3707c-2.09022,0 -4.10364,-0.59939 -6.04017,-1.79822c-0.52254,0.95291 -1.36785,1.42938 -2.53591,1.42938h-1.61375c-2.21319,0 -3.13536,-1.01435 -2.76648,-3.04313l17.2905,-66.53395c0.36883,-1.38325 1.32176,-2.07485 2.85868,-2.07485h2.1671c1.7521,0 2.44371,0.72236 2.07486,2.16709l-8.20724,32.18343l1.38325,-2.35149c1.3218,-2.2132 2.82797,-4.10364 4.5186,-5.67131c1.72136,-1.56767 3.11996,-2.35153 4.19583,-2.35153h0.18447c0.49181,0 1.27564,0.36886 2.3515,1.10661c1.07585,0.70701 2.12097,1.706 3.13536,2.99702c1.0451,1.29103 1.75211,2.64353 2.12095,4.05751c0.39957,1.41397 0.30735,3.99602 -0.27667,7.74618c-0.5533,3.75014 -2.02878,8.89885 -4.42636,15.44622c-2.39763,6.54737 -4.82599,10.97369 -7.28508,13.2791c-2.42839,2.27464 -5.47151,3.41199 -9.12939,3.41199z" stroke-width="1.20157" stroke-linecap="round" stroke-linejoin="round"/><path d="M297.76856,63.19137c0.27664,-8.4224 2.38226,-16.39911 6.31681,-23.93009c3.93453,-7.53097 8.94499,-11.23498 15.03123,-11.11204c3.16607,0.18446 5.6252,1.76749 7.37727,4.74912c1.3218,2.05951 1.85967,5.54835 1.61375,10.46654c-0.24592,9.31384 -2.79724,17.93601 -7.65395,25.86664c-3.35051,5.80961 -7.85374,8.60683 -13.50968,8.39169c-1.99802,-0.0614 -3.8577,-0.93752 -5.57904,-2.62817c-2.58209,-2.45908 -3.78089,-6.39366 -3.59644,-11.80367zM313.86026,66.97227c4.27267,-6.73179 6.53197,-14.26278 6.77789,-22.59297c0.0614,-3.68866 -0.13832,-6.16309 -0.5994,-7.4234c-0.43034,-1.2603 -1.35251,-1.9058 -2.76648,-1.93655c-1.41397,-0.03095 -2.70503,0.62996 -3.87307,1.98263c-1.16807,1.35252 -2.30541,3.22759 -3.41198,5.62521c-2.79724,5.59447 -4.3188,12.14181 -4.56469,19.64204c-0.12293,5.65589 0.86073,8.57608 2.95094,8.76053c1.81357,0.0614 3.64253,-1.29104 5.48684,-4.05752z" stroke-width="1.20157" stroke-linecap="round" stroke-linejoin="round"/><path d="M323.16652,74.97584c7.62322,-9.25236 13.32526,-16.49132 17.10612,-21.7169c-1.56766,-6.60882 -3.39664,-13.41745 -5.48684,-20.42589c-0.79921,-2.30541 -0.29201,-3.45809 1.52157,-3.45809h2.62817c1.38325,0 2.30541,0.72233 2.76648,2.16707c1.69065,5.84037 3.10463,11.12741 4.24196,15.86115c2.76648,-4.02679 6.25534,-9.63659 10.46654,-16.82945c0.43034,-0.79921 1.27564,-1.1988 2.53591,-1.1988h3.22758c1.69065,0 1.84432,1.12197 0.46107,3.36587c-3.38126,5.87109 -8.34555,13.27912 -14.89291,22.2241c1.44473,6.42437 2.73573,13.21767 3.87306,20.37975c0.18446,1.2603 -0.32274,1.92118 -1.52157,1.98266l-2.85868,0.27667c-0.86071,0.12293 -1.46008,-0.00003 -1.79822,-0.36886c-0.30739,-0.36883 -0.61476,-1.21415 -0.92217,-2.53591c-0.61478,-4.30343 -1.42936,-8.77591 -2.44371,-13.41746c-4.33416,5.53296 -7.20819,9.1448 -8.62222,10.83541c-1.38325,1.65991 -2.19782,2.64353 -2.44371,2.95094c-0.24592,0.30739 -0.3996,0.50717 -0.46108,0.59936c-0.0614,0.09222 -0.19979,0.27665 -0.41496,0.55328c-0.21518,0.24592 -0.41499,0.3996 -0.59942,0.46107c-0.15372,0.0614 -0.35352,0.15369 -0.5994,0.27667c-0.36883,0.24592 -0.87605,0.36886 -1.52157,0.36886h-2.72035c-0.89139,0 -1.47548,-0.2613 -1.75211,-0.78385c-0.27664,-0.5533 -0.19977,-1.07585 0.23056,-1.56765z" stroke-width="1.20157" stroke-linecap="round" stroke-linejoin="round"/><path d="M155.87701,8.25094c1.47767,1.06896 2.751,3.01825 3.81996,5.84786c1.10041,2.79817 1.71349,5.21905 1.83925,7.26266c0.15721,2.04361 0.2515,3.25405 0.28296,3.63134c0.06288,0.84887 -0.59736,1.47767 -1.98072,1.88641l-2.68812,0.80171c-0.6288,0.15721 -1.28905,-0.01572 -1.98072,-0.51875c-0.69167,-0.53449 -1.05325,-1.24187 -1.08468,-2.12221c-0.50304,-4.93608 -1.60345,-8.44166 -3.30121,-10.51672c-0.84887,-0.31442 -1.79207,-0.47161 -2.82961,-0.47161c-3.14401,-0.15721 -6.30374,2.07505 -9.47919,6.69675c-3.17547,4.59025 -5.895,10.86254 -8.15871,18.81691c-2.95538,10.09229 -3.58416,18.36102 -1.8864,24.80626c0.94321,3.58417 2.37371,5.61204 4.29157,6.08365c4.71601,-0.40872 8.61459,-3.88287 11.69572,-10.4224c0.09434,-0.18863 0.22008,-0.45588 0.37729,-0.80171c0.18863,-0.37729 0.3144,-0.61308 0.37729,-0.7074c0.06288,-0.12575 0.15722,-0.31438 0.28296,-0.56592c0.15721,-0.28296 0.26725,-0.44016 0.33012,-0.47159c0.06288,-0.06287 0.15722,-0.17291 0.28297,-0.33011c0.12575,-0.15721 0.23579,-0.2358 0.33012,-0.2358c0.12575,0 0.2515,-0.0157 0.37729,-0.04716c0.15721,-0.06287 0.31438,-0.06287 0.47158,0c0.18863,0.06288 0.393,0.12575 0.61309,0.18863c0.22009,0.03145 0.45587,0.11005 0.70741,0.2358l3.06541,1.27332c0.59737,0.22009 0.89605,0.72313 0.89605,1.50913c0.03145,0.75458 -0.17292,1.54058 -0.61309,2.358c-3.01825,5.47059 -5.95791,9.35341 -8.81895,11.64854c-2.86104,2.2637 -6.41381,3.39554 -10.65822,3.39554c-1.94929,0 -4.00862,-0.67597 -6.17796,-2.02788c-3.48983,-2.13792 -5.58062,-6.74391 -6.27229,-13.81791c-0.66026,-7.10546 0.1415,-15.10697 2.40517,-24.00453c1.44625,-5.87929 3.55274,-11.20841 6.31945,-15.98729c2.76674,-4.81034 5.97363,-8.61457 9.62067,-11.41274c3.67849,-2.79817 7.40413,-4.19726 11.17696,-4.19726c0.786,0 1.83924,0.22009 3.15974,0.66026c1.35192,0.44016 2.42088,0.95892 3.20688,1.55629z" stroke-width="1" stroke-linecap="butt" stroke-linejoin="miter"/><path d="M213.40148,11.16935c0,0 -5.30522,20.79418 -15.91566,62.38253c-0.34135,1.28007 -1.20896,1.92012 -2.60284,1.92012h-1.49341c-1.05251,0 -1.77788,-0.25603 -2.17613,-0.76805c-0.42667,-0.54048 -0.54049,-1.22317 -0.34136,-2.0481l15.95833,-61.57183c0.34135,-1.28007 1.22318,-1.92012 2.64549,-1.92012h2.00547c1.59301,0 2.23302,0.66848 1.92012,2.00546z" stroke-width="1" stroke-linecap="butt" stroke-linejoin="miter"/><path d="M254.93074,41.34638c3.88908,-6.31609 6.90088,-10.19051 9.03548,-11.62334c0.70179,-0.49712 1.95916,-0.74565 3.77211,-0.74565h0.87724c1.72521,0 2.32468,0.67255 1.79832,2.01765c-0.26318,0.73102 -0.99419,1.63752 -2.19308,2.71941c-1.19889,1.05267 -2.79251,2.83637 -4.78092,5.35111c-1.98838,2.51476 -2.98258,4.15223 -2.98258,4.91249c0,1.57904 0.74563,3.05571 2.23694,4.43005c0.3509,0.29239 0.45326,0.61405 0.30704,0.96493c-0.11699,0.3509 -0.42403,0.5702 -0.92112,0.65794l-3.42121,0.61406c-0.96497,0.14613 -1.69598,0.04378 -2.19307,-0.30702c-0.49707,-0.38012 -1.12576,-1.28662 -1.88604,-2.71942l-0.74564,-1.35974l-6.93016,26.66788c-0.3509,1.31583 -1.25735,1.97378 -2.7194,1.97378h-2.58784c-1.63748,0 -2.29541,-0.68716 -1.97377,-2.06148l10.96541,-41.75629c0.32164,-1.19888 1.15501,-1.79833 2.50011,-1.79833h2.76327c0.78951,0 1.31587,0.1462 1.57904,0.43859c0.26317,0.26317 0.30697,0.74563 0.13145,1.44744z" stroke-width="1" stroke-linecap="butt" stroke-linejoin="miter"/><path d="M175.94429,64.98531c4.53057,-6.95048 6.90832,-14.62104 7.13325,-23.01171c0.09641,-3.757 -0.11247,-6.27731 -0.62656,-7.56096c-0.48197,-1.28365 -1.46201,-1.94112 -2.94004,-1.97246c-1.47806,-0.06261 -2.82757,0.61052 -4.04861,2.01939c-1.18889,1.37758 -2.34563,3.20912 -3.47025,5.49463c-2.98825,6.0112 -4.59483,12.75817 -4.81975,20.2409c-0.12852,5.79206 0.8997,8.76635 3.08465,8.9229c1.92792,0.06261 3.82369,-1.31493 5.68735,-4.1327zM159.17147,61.13432c0.32133,-8.64111 2.15283,-16.07689 5.49453,-22.30726c1.44592,-2.75512 2.63481,-4.74322 3.56664,-5.96424c0.93181,-1.25235 2.05644,-2.48903 3.37384,-3.71007c2.73121,-2.536 6.02469,-3.77267 9.88053,-3.71005c3.30958,0.15655 5.88013,1.76893 7.71163,4.83716c1.34956,2.09768 1.92791,5.60421 1.7351,10.51963c-0.16066,4.88413 -1.01215,9.67432 -2.55448,14.37057c-1.51018,4.66495 -3.21316,8.56285 -5.10894,11.69373c-3.79155,6.16778 -8.62739,9.15768 -14.50751,8.96984c-2.15285,-0.09403 -4.09682,-0.98631 -5.83192,-2.67686c-1.15673,-1.06448 -2.10464,-2.62993 -2.84367,-4.69628c-0.70688,-2.09765 -1.01215,-4.53971 -0.91574,-7.32615z" stroke-width="1" stroke-linecap="butt" stroke-linejoin="miter"/><path d="M226.31315,63.65982c4.53057,-6.95048 6.90832,-14.62104 7.13325,-23.01171c0.09641,-3.757 -0.11247,-6.27732 -0.62658,-7.56097c-0.48197,-1.28365 -1.46201,-1.94112 -2.94004,-1.97246c-1.47806,-0.06261 -2.82757,0.61052 -4.04861,2.01939c-1.18889,1.37758 -2.34563,3.20912 -3.47024,5.49464c-2.98825,6.0112 -4.59483,12.75817 -4.81976,20.2409c-0.12852,5.79206 0.8997,8.76634 3.08465,8.92289c1.92792,0.06261 3.82369,-1.31493 5.68735,-4.13271zM209.54035,59.80882c0.32133,-8.64111 2.15283,-16.07687 5.49453,-22.30724c1.44592,-2.75512 2.63481,-4.74322 3.56664,-5.96425c0.93181,-1.25235 2.05644,-2.48903 3.37384,-3.71006c2.73121,-2.536 6.02469,-3.77266 9.88053,-3.71005c3.30958,0.15655 5.88013,1.76892 7.71163,4.83716c1.34956,2.09768 1.92791,5.60421 1.7351,10.51963c-0.16066,4.88413 -1.01215,9.67433 -2.55448,14.37057c-1.51018,4.66495 -3.21317,8.56285 -5.10894,11.69373c-3.79155,6.16778 -8.62739,9.15768 -14.50751,8.96985c-2.15285,-0.09403 -4.09682,-0.98632 -5.83192,-2.67687c-1.15673,-1.06448 -2.10464,-2.62993 -2.84367,-4.69629c-0.70688,-2.09765 -1.01215,-4.5397 -0.91574,-7.32615z" stroke-width="1" stroke-linecap="butt" stroke-linejoin="miter"/></g></g></g></svg>