<svg version="1.1" xmlns="http://www.w3.org/2000/svg" xmlns:xlink="http://www.w3.org/1999/xlink" width="164.52117" height="299.52958" viewBox="0,0,164.52117,299.52958"><defs><linearGradient x1="269.05978" y1="62.1103" x2="285.18192" y2="108.84701" gradientUnits="userSpaceOnUse" id="color-1"><stop offset="0" stop-color="#ecec68"/><stop offset="1" stop-color="#292912"/></linearGradient></defs><g transform="translate(-237.73942,-30.32859)"><g data-paper-data="{&quot;isPaintingLayer&quot;:true}" fill-rule="nonzero" stroke-linejoin="miter" stroke-miterlimit="10" stroke-dasharray="" stroke-dashoffset="0" style="mix-blend-mode: normal"><path d="M354.27776,245.21627c-12.92088,-1.20561 -9.80557,-122.43002 -9.80557,-122.43002l12.67283,-1.75189c0,0 9.66941,125.35168 -2.86725,124.18191z" data-paper-data="{&quot;index&quot;:null}" fill="#60602a" stroke="#000000" stroke-width="2" stroke-linecap="butt"/><path d="M363.61109,233.88293c-12.92088,-1.20561 -8.80557,-109.76335 -8.80557,-109.76335l12.67282,-1.75189c0,0 8.66941,112.68501 -3.86725,111.51525z" data-paper-data="{&quot;index&quot;:null}" fill="#60602a" stroke="#000000" stroke-width="2" stroke-linecap="butt"/><path d="M290.36828,101.36769l12.67282,1.75189c0,0 3.11531,139.22441 -9.80557,140.43003c-12.53666,1.16977 -2.86725,-142.18191 -2.86725,-142.18191z" fill="#60602a" stroke="#000000" stroke-width="2" stroke-linecap="butt"/><path d="M284.5805,234.32053c-12.8665,-1.68988 -4.5262,-105.69916 -4.5262,-105.69916l12.72966,-1.27485c0,0 4.28044,108.61365 -8.20346,106.97402z" data-paper-data="{&quot;index&quot;:null}" fill="#60602a" stroke="#000000" stroke-width="2" stroke-linecap="butt"/><path d="M289.5041,328.85816l15.14285,-131.8421l37.78325,-0.15789l13.57389,132z" fill="#bebe54" stroke="#000000" stroke-width="2" stroke-linecap="butt"/><path d="M268.89331,223.57025c-11.85707,-2.01666 0.80492,-97.76965 0.80492,-97.76965l12.76881,-0.7919c0,0 -1.16086,100.67273 -13.57373,98.56155z" data-paper-data="{&quot;index&quot;:null}" fill="#60602a" stroke="#000000" stroke-width="2" stroke-linecap="butt"/><path d="M377.26809,220.94171c-12.97213,-0.35584 -18.99203,-79.15159 -18.99203,-79.15159l12.53069,-2.57904c0,0 19.04773,82.07589 6.46134,81.73063z" data-paper-data="{&quot;index&quot;:null}" fill="#60602a" stroke="#000000" stroke-width="2" stroke-linecap="butt"/><path d="M302.45432,225.47079l3.12142,-26.32765l35.83075,-0.14203l2.76735,26.1059c0,0 -7.51543,4.19603 -21.55904,4.50964c-12.48458,0.27879 -20.16049,-4.14586 -20.16049,-4.14586z" fill="#a0a047" stroke="#000000" stroke-width="0" stroke-linecap="butt"/><path d="M381.21099,198.48095c-6.96196,-1.98495 2.87949,-14.59911 -0.90901,-27.03845c-3.24984,-10.67066 3.1711,-15.32245 6.4215,-4.65196c3.03726,9.97082 2.34727,33.93133 -5.51249,31.69041z" data-paper-data="{&quot;index&quot;:null}" fill="#60602a" stroke="#000000" stroke-width="2" stroke-linecap="butt"/><path d="M258.594,158.20432c0,-33.30185 28.7599,-60.29833 64.23702,-60.29833c35.47712,0 64.23702,26.99649 64.23702,60.29833c0,33.30185 -28.7599,60.29833 -64.23702,60.29833c-35.47712,0 -64.23702,-26.99649 -64.23702,-60.29833z" fill="#bebe54" stroke="#000000" stroke-width="2" stroke-linecap="butt"/><path d="M272.14423,158.63378c0,-12.968 10.51265,-23.48065 23.48065,-23.48065c12.968,0 23.48065,10.51265 23.48065,23.48065c0,12.968 -10.51265,23.48065 -23.48065,23.48065c-12.968,0 -23.48065,-10.51265 -23.48065,-23.48065z" fill="#ffffff" stroke="#000000" stroke-width="2" stroke-linecap="butt"/><path d="M278.80627,160.81152c0,-9.12808 7.39976,-16.52784 16.52783,-16.52784c9.12808,0 16.52784,7.39977 16.52784,16.52784c0,9.12808 -7.39977,16.52784 -16.52784,16.52784c-9.12808,0 -16.52783,-7.39977 -16.52783,-16.52784z" fill="#000000" stroke="none" stroke-width="0" stroke-linecap="butt"/><path d="M350.13329,182.11443c-12.968,0 -23.48065,-10.51265 -23.48065,-23.48065c0,-12.968 10.51265,-23.48065 23.48065,-23.48065c12.968,0 23.48065,10.51265 23.48065,23.48065c0,12.968 -10.51265,23.48065 -23.48065,23.48065z" data-paper-data="{&quot;index&quot;:null}" fill="#ffffff" stroke="#000000" stroke-width="2" stroke-linecap="butt"/><path d="M349.98075,178.04936c-9.12807,0 -16.52783,-7.39977 -16.52783,-16.52784c0,-9.12808 7.39977,-16.52784 16.52783,-16.52784c9.12807,0 16.52783,7.39977 16.52783,16.52784c0,9.12808 -7.39977,16.52784 -16.52783,16.52784z" data-paper-data="{&quot;index&quot;:null}" fill="#000000" stroke="none" stroke-width="0" stroke-linecap="butt"/><path d="M272.06089,158.63378c0,-12.968 10.51265,-23.48065 23.48065,-23.48065c12.968,0 23.48065,10.51265 23.48065,23.48065c0,0 -12.60821,8.83065 -24.75871,8.97797c-11.29921,0.137 -22.2026,-8.38455 -22.2026,-8.97797z" fill="#ecec68" stroke="#000000" stroke-width="2" stroke-linecap="butt"/><path d="M326.40266,158.63378c0,-12.968 10.51265,-23.48065 23.48065,-23.48065c12.968,0 23.48065,10.51265 23.48065,23.48065c0,0.62633 -11.50426,9.10628 -23.60811,8.94015c-11.35273,-0.15582 -23.3532,-8.94015 -23.3532,-8.94015z" data-paper-data="{&quot;index&quot;:null}" fill="#ecec68" stroke="#000000" stroke-width="2" stroke-linecap="butt"/><path d="M284.7819,129.82531c0,0 6.70895,-5.16922 11.79721,-6.36355c5.08827,-1.19433 12.33413,0.69937 12.33413,0.69937c0,0 -8.03812,-0.06028 -11.96762,0.86207c-4.10648,0.96389 -12.16372,4.80211 -12.16372,4.80211z" fill="#000000" stroke="none" stroke-width="0" stroke-linecap="butt"/><path d="M259.31706,158.25814c0,-0.72799 5.20666,55.91939 63.36046,56.93429c55.56352,0.9697 63.51358,-57.95314 63.51358,-56.93429c0,32.80479 -28.40173,59.39833 -63.43702,59.39833c-35.03529,0 -63.43702,-26.59354 -63.43702,-59.39833z" fill="#a0a047" stroke="#000000" stroke-width="0" stroke-linecap="butt"/><path d="M348.71639,125.02322c-3.9295,-0.92235 -11.96762,-0.86207 -11.96762,-0.86207c0,0 7.24586,-1.8937 12.33413,-0.69937c5.08826,1.19433 11.79721,6.36355 11.79721,6.36355c0,0 -8.05724,-3.83822 -12.16372,-4.80211z" data-paper-data="{&quot;index&quot;:null}" fill="#000000" stroke="none" stroke-width="0" stroke-linecap="butt"/><path d="M255.22411,158.06978c8.91267,-6.70737 11.36062,0.8342 2.4483,7.54203c-10.38955,7.81966 -9.86848,23.81028 -16.66343,21.31277c-7.67121,-2.81958 5.88687,-22.58725 14.21513,-28.8548z" data-paper-data="{&quot;index&quot;:null}" fill="#60602a" stroke="#000000" stroke-width="2" stroke-linecap="butt"/><path d="M272.09297,158.33385l-3.6,-2.6" fill="none" stroke="#000000" stroke-width="2" stroke-linecap="round"/><path d="M267.45692,109.44186c17.26267,-17.00054 45.16881,-25.8907 50.38685,-16.61226c4.12391,7.33291 -20.66933,2.94544 -43.61423,28.07498c-19.53961,21.40003 -16.41285,52.3994 -29.43331,48.98256c-12.8581,-3.37423 11.01223,-48.9737 22.66069,-60.44528z" fill="#b1b14e" stroke="#000000" stroke-width="2" stroke-linecap="butt"/><path d="M269.10668,118.07028c15.07986,-18.96354 41.70594,-31.1635 48.00784,-22.58425c4.9805,6.78033 -20.16137,5.42364 -39.8986,33.14374c-16.808,23.60612 -9.95502,53.99978 -23.29315,52.18276c-13.17181,-1.79437 5.00836,-49.94606 15.18391,-62.74224z" fill="#ecec68" stroke="#000000" stroke-width="2" stroke-linecap="butt"/><path d="M336.82136,92.86693c-0.17572,2.91984 -7.20804,4.71609 -15.70713,4.01203c-8.49909,-0.70406 -15.24652,-3.64181 -15.0708,-6.56165c0.17572,-2.91984 7.20804,-4.71609 15.70713,-4.01203c8.49909,0.70406 15.24652,3.64181 15.0708,6.56165z" fill="#ecec68" stroke="#000000" stroke-width="2" stroke-linecap="butt"/><path d="M397.42621,174.27603c-13.08627,3.15544 -9.3394,-27.77512 -28.44657,-49.56212c-22.4371,-25.58395 -47.31322,-21.69383 -43.04331,-28.94269c5.40279,-9.17209 33.12532,0.27508 50.04411,17.61788c11.41641,11.70253 34.36887,57.77084 21.44578,60.88693z" data-paper-data="{&quot;index&quot;:null}" fill="#60602a" stroke="#000000" stroke-width="2" stroke-linecap="butt"/><path d="M377.09296,154.73385l-4.2,3.4" fill="none" stroke="#000000" stroke-width="2" stroke-linecap="round"/><path d="M307.01106,198.01529c0,0 6.5194,-2.54883 15.91662,-2.5c9.39722,0.04883 16.19298,2.25 16.19298,2.25" data-paper-data="{&quot;index&quot;:null}" fill="none" stroke="#000000" stroke-width="2" stroke-linecap="round"/><path d="M392.85468,184.31676c-13.38485,1.43288 -5.66106,-28.75125 -21.78356,-52.83075c-18.93227,-28.27598 -44.10275,-27.64254 -38.92941,-34.2769c6.54591,-8.39455 32.81031,4.56571 47.33883,23.95489c9.80352,13.08338 26.59208,61.73776 13.37414,63.15277z" data-paper-data="{&quot;index&quot;:null}" fill="#b1b14e" stroke="#000000" stroke-width="2" stroke-linecap="butt"/><path d="M272.75316,147.02496c6.90372,-8.76146 11.19683,-2.09536 4.29357,6.66646c-8.04749,10.2141 -3.45915,25.54115 -10.66664,24.86216c-8.13695,-0.76656 -0.07797,-23.34165 6.37307,-31.52861z" data-paper-data="{&quot;index&quot;:null}" fill="#b1b14e" stroke="#000000" stroke-width="2" stroke-linecap="butt"/><path d="M263.23235,145.43652c10.71804,-14.44813 20.47709,-26.1289 25.95351,-34.10829c6.86286,-9.99948 14.19538,-24.89167 21.27749,-21.66365c7.39562,3.37092 -0.38835,20.64223 -7.47701,30.97072c-5.45336,7.94578 -21.3435,21.70373 -32.01189,36.08648c-13.37042,18.02553 -4.68475,44.2372 -17.15317,43.42784c-14.07632,-0.91374 -1.30697,-40.26497 9.41108,-54.7131z" fill="#ecec68" stroke="#000000" stroke-width="2" stroke-linecap="butt"/><g stroke="#000000" stroke-width="2" stroke-linecap="butt"><path d="M263.75513,167.54638c0,-2.17218 1.40476,-2.75683 3.13763,-2.75683c1.73287,0 3.13762,0.58465 3.13762,2.75683c0,2.17218 -1.40476,5.10933 -3.13762,5.10933c-1.73287,0 -3.13763,-2.93715 -3.13763,-5.10933z" fill="#ecec68"/><path d="M270.03039,182.44939c0,2.17218 -1.40476,2.75683 -3.13762,2.75683c-1.73287,0 -3.13763,-0.58465 -3.13763,-2.75683c0,-2.17218 1.40476,-5.10933 3.13763,-5.10933c1.73287,0 3.13762,2.93715 3.13762,5.10933z" fill="#ecec68"/><path d="M259.44126,178.13552c-2.17218,0 -2.75683,-1.40476 -2.75683,-3.13763c0,-1.73287 0.58465,-3.13763 2.75683,-3.13763c2.17218,0 5.10933,1.40476 5.10933,3.13763c0,1.73287 -2.93715,3.13763 -5.10933,3.13763z" fill="#ecec68"/><path d="M274.34426,171.86026c2.17218,0 2.75683,1.40476 2.75683,3.13763c0,1.73287 -0.58465,3.13763 -2.75683,3.13763c-2.17218,0 -5.10933,-1.40476 -5.10933,-3.13763c0,-1.73287 2.93715,-3.13763 5.10933,-3.13763z" fill="#ff80ee"/><path d="M259.40512,171.94752c-1.53597,-1.53597 -0.95606,-2.94269 0.26926,-4.16801c1.22532,-1.22532 2.63205,-1.80523 4.16801,-0.26926c1.53597,1.53597 2.61953,4.60616 1.3942,5.83148c-1.22532,1.22532 -4.29551,0.14176 -5.83148,-1.3942z" fill="#ecec68"/><path d="M274.38041,178.04826c1.53597,1.53597 0.95606,2.94269 -0.26926,4.16801c-1.22532,1.22532 -2.63205,1.80523 -4.16801,0.26926c-1.53597,-1.53597 -2.61953,-4.60616 -1.3942,-5.83148c1.22532,-1.22532 4.29551,-0.14176 5.83148,1.3942z" fill="#ff80ee"/><path d="M263.84239,182.48553c-1.53597,1.53597 -2.94269,0.95606 -4.16801,-0.26926c-1.22532,-1.22532 -1.80523,-2.63205 -0.26926,-4.16801c1.53597,-1.53597 4.60616,-2.61953 5.83148,-1.3942c1.22532,1.22532 0.14176,4.29551 -1.3942,5.83148z" fill="#ecec68"/><path d="M269.94313,167.51025c1.53597,-1.53597 2.94269,-0.95606 4.16801,0.26926c1.22532,1.22532 1.80523,2.63205 0.26926,4.16801c-1.53597,1.53597 -4.60616,2.61953 -5.83148,1.3942c-1.22532,-1.22532 -0.14176,-4.29551 1.3942,-5.83148z" fill="#ecec68"/><path d="M262.73872,174.90951c0,-2.29422 1.85982,-4.15404 4.15404,-4.15404c2.29422,0 4.15404,1.85983 4.15404,4.15404c0,2.29422 -1.85983,4.15404 -4.15404,4.15404c-2.29422,0 -4.15404,-1.85982 -4.15404,-4.15404z" fill="#b1b14e"/></g><path d="M341.9311,108.75628c0,0 21.4174,-11.16629 22.02421,-21.31294c0.3468,-5.79909 -8.30647,-15.38884 -8.85638,-25.63513c-0.7248,-13.50469 13.04458,-23.74453 13.04458,-23.74453c0,0 -3.35302,10.28761 -2.97917,22.82255c0.29793,9.98935 8.14981,13.59181 10.28408,26.67667c2.09022,12.81476 -11.17476,33.21175 -11.17476,33.21175c0,0 -4.0016,3.95658 -14.1484,-1.53498c-9.22726,-4.9939 -8.19417,-10.48337 -8.19417,-10.48337z" fill="#60602a" stroke="#000000" stroke-width="2" stroke-linecap="butt"/><path d="M275.4626,157.06276c7.18894,-16.49072 19.73798,-30.69582 23.27674,-39.70355c4.43464,-11.28816 8.22503,-27.4491 15.85217,-25.89892c7.96479,1.6188 4.27034,20.19942 -0.31022,31.85899c-3.52385,8.96979 -18.83197,22.18123 -25.98726,38.59707c-8.96753,20.57356 -0.27326,44.78246 -14.22908,42.72994c-10.96897,-1.61323 -5.79129,-31.09281 1.39765,-47.58353z" fill="#b1b14e" stroke="#000000" stroke-width="2" stroke-linecap="butt"/><path d="M327.10882,137.08587c-7.0695,-1.55921 1.98909,-14.74684 -2.54661,-26.9336c-3.8908,-10.454 2.23631,-15.48652 6.12765,-5.03272c3.63618,9.76833 4.40012,33.7266 -3.58104,31.96632z" data-paper-data="{&quot;index&quot;:null}" fill="#b1b14e" stroke="#000000" stroke-width="2" stroke-linecap="butt"/><path d="M389.49881,155.95622c-12.48388,6.55641 -9.50436,-12.89697 -22.10669,-23.3573c-10.05552,-8.34641 -26.98442,-11.51856 -32.12181,-16.22237c-6.67795,-6.11434 -16.38411,-18.59641 -9.35299,-22.63811c6.73306,-3.87037 16.0217,6.95432 22.48694,12.8739c5.15913,4.7237 19.74293,9.58608 29.84528,17.97019c10.10234,8.3841 21.06134,26.22052 11.24928,31.37371z" data-paper-data="{&quot;index&quot;:null}" fill="#ecec68" stroke="#000000" stroke-width="2" stroke-linecap="butt"/><path d="M290.66887,140.76417c5.58244,-11.8822 16.71809,-22.48068 19.38112,-28.94892c3.33723,-8.10577 5.56837,-19.5644 13.30793,-18.9218c8.08218,0.67105 6.17735,13.80741 2.73032,22.17988c-2.65182,6.441 -16.62851,16.50589 -22.18459,28.33408c-6.96329,14.82397 3.99991,31.16776 -10.08684,30.53728c-11.07187,-0.49554 -8.73038,-21.29831 -3.14794,-33.18051z" fill="#ecec68" stroke="#000000" stroke-width="2" stroke-linecap="butt"/><g data-paper-data="{&quot;index&quot;:null}" stroke="#1d1d0d" stroke-width="1.5" stroke-linecap="butt"><path d="M253.86987,68.24409l-6.17118,-18.05422l31.23329,-10.6257l6.17119,18.05423z" fill="#d0d05b"/><path d="M281.28964,110.48632l-10.55275,-29.92659l-14.86518,-13.90013l26.62075,-8.63223l-4.41612,20.15362l10.73651,30.73748z" fill="url(#color-1)"/><path d="M240.91897,54.57658l19.22878,-23.42375l29.9142,6.02647z" fill="#bfbf54"/><path d="M281.47121,59.02457l-23.93357,7.87323c0,0 2.42041,-10.55076 9.0295,-12.72489c6.60908,-2.17415 14.90408,4.85167 14.90408,4.85167z" fill="#ffff70"/></g><path d="M245.10059,150.17054c-0.52433,-36.35713 33.25968,-66.24601 75.45867,-66.7587c42.19899,-0.51269 76.8331,28.545 77.35742,64.90212c0.03026,2.0986 -0.05378,4.17565 -0.24716,6.22675c-6.15983,-0.25223 -12.33399,-0.63701 -18.40815,-0.62038c-42.64535,0.11677 -85.29169,0.14576 -127.93658,-0.06906c-1.05213,-0.0053 -2.05894,-0.78306 -3.09006,-0.59098c-0.50274,0.09366 -1.59968,0.68803 -2.88724,1.47533c-0.14179,-1.50756 -0.22475,-3.02981 -0.24689,-4.56508z" fill="#bebe54" stroke="#000000" stroke-width="2" stroke-linecap="butt"/><path d="M245.75,132l8,-17l136.5,1l7,16z" fill="#b9b952" stroke="#000000" stroke-width="2" stroke-linecap="butt"/><path d="M300.925,147v-43.5h41.325v43.5z" fill="#d7d75f" stroke="#000000" stroke-width="2" stroke-linecap="butt"/></g></g></svg>