<svg version="1.1" xmlns="http://www.w3.org/2000/svg" xmlns:xlink="http://www.w3.org/1999/xlink" width="14.22415" height="13.71441" viewBox="0,0,14.22415,13.71441"><g transform="translate(-232.88793,-173.1428)"><g data-paper-data="{&quot;isPaintingLayer&quot;:true}" fill="#383819" fill-rule="nonzero" stroke="none" stroke-width="0" stroke-linecap="butt" stroke-linejoin="miter" stroke-miterlimit="10" stroke-dasharray="" stroke-dashoffset="0" style="mix-blend-mode: normal"><path d="M234.08899,186.16744c-0.44937,-1.20623 -0.89116,-3.11798 -1.15319,-3.8213c-0.19919,-0.53467 0.26505,-1.34646 0.62172,-1.47683c0.30067,-0.1099 1.09612,-0.34655 1.09612,-0.34655c0,0 -0.88493,-3.20767 0.36356,-4.98279c0.50277,-0.71483 1.24993,-1.47948 2.01731,-1.84762c1.49085,-0.71524 3.20795,-0.52724 3.20795,-0.52724l0.0976,1.37962c0,0 -1.62902,-0.18006 -2.79229,0.54183c-0.67196,0.41699 -1.34771,1.20059 -1.49637,2.11559c-0.22657,1.39458 0.08811,3.03558 0.08811,3.03558l1.58352,5.88622c0,0 -1.07586,0.36935 -2.07085,0.63233c-0.91339,0.2414 -1.32464,0.05134 -1.56314,-0.58887z" data-paper-data="{&quot;index&quot;:null}"/><path d="M245.911,186.16744c-0.23852,0.64021 -0.64975,0.83028 -1.56314,0.58887c-0.99502,-0.26297 -2.07088,-0.63233 -2.07088,-0.63233l1.73046,-5.8862c0,0 0.16775,-1.64102 -0.05883,-3.0356c-0.14867,-0.91499 -0.8244,-1.6986 -1.49636,-2.11559c-1.16329,-0.72189 -2.74233,-0.54183 -2.74233,-0.54183l0.04761,-1.37962c0,0 1.71712,-0.188 3.20795,0.52724c0.76737,0.36817 1.51453,1.13278 2.01731,1.84762c1.2485,1.7751 0.36358,4.98277 0.36358,4.98277c0,0 0.79546,0.23663 1.09611,0.34654c0.35665,0.13036 0.82092,0.94215 0.6217,1.47683c-0.26203,0.70334 -0.70382,2.61506 -1.15319,3.8213z" data-paper-data="{&quot;index&quot;:null}"/></g></g></svg>