<svg version="1.1" xmlns="http://www.w3.org/2000/svg" xmlns:xlink="http://www.w3.org/1999/xlink" width="148.51324" height="323.6647" viewBox="0,0,148.51324,323.6647"><defs><linearGradient x1="339.28683" y1="49.44868" x2="352.68408" y2="53.37768" gradientUnits="userSpaceOnUse" id="color-1"><stop offset="0" stop-color="#131308"/><stop offset="1" stop-color="#131308" stop-opacity="0"/></linearGradient><linearGradient x1="331.04987" y1="73.92" x2="345.1695" y2="78.06086" gradientUnits="userSpaceOnUse" id="color-2"><stop offset="0" stop-color="#151509"/><stop offset="1" stop-color="#151509" stop-opacity="0"/></linearGradient><linearGradient x1="357.18114" y1="11.79891" x2="333.89387" y2="91.20461" gradientUnits="userSpaceOnUse" id="color-3"><stop offset="0" stop-color="#ffff70" stop-opacity="0"/><stop offset="1" stop-color="#ffff70"/></linearGradient><linearGradient x1="359.57756" y1="31.29878" x2="347.87156" y2="71.2143" gradientUnits="userSpaceOnUse" id="color-4"><stop offset="0" stop-color="#ffffff" stop-opacity="0"/><stop offset="1" stop-color="#ffffff"/></linearGradient><linearGradient x1="353.35314" y1="46.06002" x2="339.66927" y2="92.71972" gradientUnits="userSpaceOnUse" id="color-5"><stop offset="0" stop-color="#ffffff" stop-opacity="0"/><stop offset="1" stop-color="#ffffff"/></linearGradient><linearGradient x1="350.5111" y1="35.78404" x2="341.38445" y2="66.90441" gradientUnits="userSpaceOnUse" id="color-6"><stop offset="0" stop-color="#131308" stop-opacity="0"/><stop offset="1" stop-color="#131308"/></linearGradient><linearGradient x1="340.12592" y1="69.51022" x2="336.30669" y2="82.53317" gradientUnits="userSpaceOnUse" id="color-7"><stop offset="0" stop-color="#131308" stop-opacity="0"/><stop offset="1" stop-color="#131308"/></linearGradient></defs><g transform="translate(-250.86317,12.71601)"><g data-paper-data="{&quot;isPaintingLayer&quot;:true}" fill-rule="nonzero" stroke-linejoin="miter" stroke-miterlimit="10" stroke-dasharray="" stroke-dashoffset="0" style="mix-blend-mode: normal"><path d="M287.81613,309.94867l15.14285,-131.8421l37.78325,-0.15789l13.57389,132z" fill="#959541" stroke="#000000" stroke-width="2" stroke-linecap="butt"/><path d="M300.76635,206.56131l3.12142,-26.32765l35.83075,-0.14203l2.76735,26.1059c0,0 -7.51543,4.19603 -21.55904,4.50964c-12.48458,0.27879 -20.16049,-4.14586 -20.16049,-4.14586z" fill="#7d7d37" stroke="#000000" stroke-width="0" stroke-linecap="butt"/><path d="M252.40402,146.82424c-4.56117,-32.98801 20.23013,-63.66916 55.37291,-68.52827c35.14278,-4.85911 67.32921,17.94388 71.89038,50.93188c4.56117,32.98801 -20.23013,63.66916 -55.37291,68.52827c-35.14278,4.85911 -67.32921,-17.94388 -71.89038,-50.93188z" fill="#959541" stroke="#000000" stroke-width="2" stroke-linecap="butt"/><path d="M253.12764,146.77855c-0.09971,-0.72113 12.81657,54.67927 70.56133,47.7196c55.1727,-6.64967 54.9775,-66.1061 55.11704,-65.09685c4.49309,32.49564 -19.9986,62.72859 -54.70372,67.52718c-34.70512,4.79859 -66.48156,-17.6543 -70.97465,-50.14993z" fill="#7d7d37" stroke="#000000" stroke-width="0" stroke-linecap="butt"/><path d="M265.88538,145.39377c-1.77616,-12.84579 7.19756,-24.69923 20.04335,-26.47538c12.84579,-1.77616 24.69923,7.19756 26.47538,20.04335c1.77616,12.84579 -7.19756,24.69923 -20.04335,26.47538c-12.84579,1.77616 -24.69923,-7.19756 -26.47538,-20.04335z" fill="#ffffff" stroke="#000000" stroke-width="2" stroke-linecap="butt"/><path d="M275.4491,150.22692c-1.25022,-9.04206 5.0663,-17.38559 14.10834,-18.63581c9.04206,-1.25022 17.38559,5.06631 18.63581,14.10835c1.25022,9.04206 -5.06631,17.38559 -14.10835,18.63581c-9.04206,1.25022 -17.38558,-5.06631 -18.6358,-14.10835z" fill="#000000" stroke="none" stroke-width="0" stroke-linecap="butt"/><path d="M311.65837,175.67462l24.82929,-3.74135" fill="none" stroke="#000000" stroke-width="2" stroke-linecap="round"/><path d="M346.10785,158.00563c-12.84579,1.77616 -24.69923,-7.19756 -26.47538,-20.04335c-1.77616,-12.84579 7.19756,-24.69923 20.04335,-26.47538c12.84579,-1.77616 24.69923,7.19756 26.47538,20.04335c1.77616,12.84579 -7.19756,24.69923 -20.04335,26.47538z" data-paper-data="{&quot;index&quot;:null}" fill="#ffffff" stroke="#000000" stroke-width="2" stroke-linecap="butt"/><path d="M339.69406,146.69296c-9.04205,1.25022 -17.38558,-5.06631 -18.6358,-14.10835c-1.25022,-9.04206 5.06631,-17.38559 14.10834,-18.63581c9.04205,-1.25022 17.38558,5.06631 18.6358,14.10835c1.25022,9.04206 -5.06631,17.38559 -14.10834,18.63581z" data-paper-data="{&quot;index&quot;:null}" fill="#000000" stroke="none" stroke-width="0" stroke-linecap="butt"/><path d="M274.45822,115.12588c0,0 5.93772,-6.03939 10.81445,-7.91938c4.87674,-1.87999 12.31368,-0.99656 12.31368,-0.99656c0,0 -7.97062,1.04123 -11.73676,2.49309c-3.93576,1.51725 -11.39137,6.42285 -11.39137,6.42285z" fill="#000000" stroke="none" stroke-width="0" stroke-linecap="butt"/><path d="M337.13247,101.61227c-4.0188,-0.37546 -11.97291,0.78519 -11.97291,0.78519c0,0 6.9182,-2.86828 12.1221,-2.38212c5.20389,0.48616 12.55761,4.68778 12.55761,4.68778c0,0 -8.50701,-2.69849 -12.70681,-3.09086z" data-paper-data="{&quot;index&quot;:null}" fill="#000000" stroke="none" stroke-width="0" stroke-linecap="butt"/><path d="M302.88834,81.91415c-0.73647,-5.32639 0.03962,-38.40961 0.03962,-38.40961c0,0 9.72402,31.63142 10.46049,36.95779" fill="#804400" stroke="#000000" stroke-width="2" stroke-linecap="butt"/><g stroke="#000000"><path d="M393.89625,9.84167l-16.02225,106.03067c0,0 -24.45542,2.14828 -55.407,-7.66101c-30.1115,-9.54306 -44.88334,-20.14105 -44.88334,-20.14105l41.8112,-98.88157c0,0 15.6157,-3.64078 40.26887,3.68482c23.92584,7.10948 34.23254,16.96815 34.23254,16.96815z" fill="#333333" stroke-width="2" stroke-linecap="butt"/><path d="M393.89625,9.84167l-16.02225,106.03067c0,0 -24.45542,2.14828 -55.407,-7.66101c-30.1115,-9.54306 -44.88334,-20.14105 -44.88334,-20.14105l41.8112,-98.88157c0,0 23.75899,10.76621 36.04864,14.1731c12.53913,3.47604 38.45276,6.47986 38.45276,6.47986z" fill="#7d7d37" stroke-width="2" stroke-linecap="butt"/><path d="M377.23337,115.11716c0,0 17.25715,21.55235 -15.10917,27.36546c-37.08182,6.66004 -84.90218,-54.31877 -84.90218,-54.31877" fill="none" stroke-width="2" stroke-linecap="round"/><path d="M392.74918,10.69163l-15.52577,104.44263c0,0 -26.8769,0.89779 -56.11254,-8.36768c-28.44214,-9.014 -42.2904,-19.20317 -42.2904,-19.20317l5.49736,-13.00101c0,0 19.79546,30.21051 56.35409,22.38116c34.05231,-7.29261 52.07727,-86.25193 52.07727,-86.25193z" fill="#6c6c30" stroke-width="0" stroke-linecap="butt"/></g><g><g><g><path d="M297.30968,80.47558l60.2313,-68.57115l12.93709,90.0292z" fill="#b4b44f" stroke="none" stroke-width="0" stroke-linecap="butt"/><path d="M366.80323,76.76638l-28.48864,-43.07047l6.29248,-6.78752l20.24178,35.76637z" fill="#cdcd51" stroke="none" stroke-width="0" stroke-linecap="butt"/><path d="M351.54276,96.05121l-28.0212,-45.13458l9.51919,-10.81361l32.51191,60.20751z" fill="#cdcd51" stroke="none" stroke-width="0" stroke-linecap="butt"/><path d="M365.74103,97.20963l-62.37306,-18.29211l51.98463,-59.99531z" fill="none" stroke="#717132" stroke-width="1.5" stroke-linecap="round"/></g><path d="M352.79034,52.97747c-2.37574,8.10089 -9.17466,14.75235 -11.65475,13.85138c-1.60979,-0.58481 -4.23559,-9.41617 -1.85985,-17.51705c2.37574,-8.10088 3.41488,-15.82126 10.9858,-13.60094c7.57092,2.22032 4.90454,9.16573 2.5288,17.26662z" fill="#6d6d30" stroke="none" stroke-width="0" stroke-linecap="butt"/><path d="M345.27612,78.09212c-1.05465,3.59618 -5.07039,5.58451 -8.96943,4.44104c-3.89903,-1.14347 -6.20485,-4.98572 -5.1502,-8.5819c1.05465,-3.59619 5.0704,-5.58452 8.96943,-4.44105c3.89903,1.14347 6.20485,4.98572 5.1502,8.58191z" fill="#6d6d30" stroke="none" stroke-width="0" stroke-linecap="butt"/><path d="M352.77376,53.03434c-2.35132,8.01762 -9.091,14.5976 -11.55162,13.70413c-1.59716,-0.57995 -4.20741,-9.3239 -1.85609,-17.34151c2.35132,-8.01762 3.37711,-15.65943 10.88824,-13.45665c7.51114,2.20279 4.87079,9.07641 2.51947,17.09403z" fill="url(#color-1)" stroke="none" stroke-width="0" stroke-linecap="butt"/><path d="M345.1695,78.06086c-1.05465,3.59618 -5.07039,5.58451 -8.96943,4.44104c-3.89903,-1.14347 -6.20485,-4.98572 -5.1502,-8.5819c1.05465,-3.59619 5.0704,-5.58452 8.96943,-4.44105c3.89903,1.14347 6.20485,4.98572 5.1502,8.58191z" fill="url(#color-2)" stroke="none" stroke-width="0" stroke-linecap="butt"/></g><g stroke="none" stroke-width="0" stroke-linecap="butt"><path d="M297.30968,80.47558l60.2313,-68.57115l12.93709,90.0292z" fill="url(#color-3)"/><path d="M366.80323,76.76638l-28.48864,-43.07047l6.29248,-6.78752l20.24178,35.76637z" fill="url(#color-4)"/><path d="M351.67984,96.09141l-28.0212,-45.13458l9.51919,-10.81361l32.51191,60.20751z" fill="url(#color-5)"/><path d="M352.79034,52.97747c-2.37574,8.10089 -9.17466,14.75235 -11.65475,13.85138c-1.60979,-0.58481 -4.23559,-9.41617 -1.85985,-17.51705c2.37574,-8.10088 3.41488,-15.82126 10.9858,-13.60094c7.57092,2.22032 4.90454,9.16573 2.5288,17.26662z" fill="url(#color-6)"/><path d="M345.27612,78.09212c-1.05465,3.59618 -5.07039,5.58451 -8.96943,4.44104c-3.89903,-1.14347 -6.20485,-4.98572 -5.1502,-8.5819c1.05465,-3.59619 5.0704,-5.58452 8.96943,-4.44105c3.89903,1.14347 6.20485,4.98572 5.1502,8.58191z" fill="url(#color-7)"/></g></g></g></g></svg>