<svg version="1.1" xmlns="http://www.w3.org/2000/svg" xmlns:xlink="http://www.w3.org/1999/xlink" width="138.16462" height="240.32802" viewBox="0,0,138.16462,240.32802"><g transform="translate(-263.46867,-56.14808)"><g data-paper-data="{&quot;isPaintingLayer&quot;:true}" stroke-miterlimit="10" stroke-dasharray="" stroke-dashoffset="0" style="mix-blend-mode: normal"><path d="M286.60659,295.47609l15.14285,-131.8421l37.78325,-0.15789l13.57389,132z" fill="#e3e364" fill-rule="nonzero" stroke="#000000" stroke-width="2" stroke-linecap="butt" stroke-linejoin="miter"/><path d="M299.55681,192.08872l3.12142,-26.32765l35.83075,-0.14203l2.76735,26.1059c0,0 -7.51543,4.19603 -21.55904,4.50964c-12.48458,0.27879 -20.16049,-4.14586 -20.16049,-4.14586z" fill="#c0c054" fill-rule="nonzero" stroke="#000000" stroke-width="0" stroke-linecap="butt" stroke-linejoin="miter"/><path d="M269.712,105.78032c6.12522,-32.7337 39.35993,-53.97977 74.23179,-47.45445c34.87185,6.52532 58.17561,38.35106 52.05039,71.08474c-6.12522,32.7337 -39.35993,53.97977 -74.23179,47.45445c-34.87185,-6.52532 -58.17561,-38.35106 -52.05039,-71.08474z" fill="#e3e364" fill-rule="nonzero" stroke="#000000" stroke-width="2" stroke-linecap="butt" stroke-linejoin="miter"/><path d="M270.41282,105.96623c0.1339,-0.71557 -5.16745,55.92303 51.80753,67.61687c54.43721,11.17298 73.08934,-45.28233 72.90194,-44.28087c-6.0338,32.24512 -38.84234,53.16101 -73.2799,46.71695c-34.43756,-6.44406 -57.46337,-37.80784 -51.42957,-70.05295z" fill="#c0c054" fill-rule="nonzero" stroke="#000000" stroke-width="0" stroke-linecap="butt" stroke-linejoin="miter"/><path d="M282.95206,108.69476c2.38521,-12.74676 14.6521,-21.14646 27.39886,-18.76125c12.74676,2.38521 21.14646,14.6521 18.76125,27.39886c-2.38521,12.74676 -14.6521,21.14646 -27.39886,18.76125c-12.74676,-2.38521 -21.14646,-14.6521 -18.76125,-27.39886z" fill="#ffffff" fill-rule="nonzero" stroke="#000000" stroke-width="2" stroke-linecap="butt" stroke-linejoin="miter"/><path d="M289.94758,109.72337c1.67893,-8.97235 10.31349,-14.88482 19.28583,-13.20589c8.97235,1.67893 14.88482,10.3135 13.20589,19.28584c-1.67893,8.97235 -10.3135,14.88482 -19.28584,13.20589c-8.97235,-1.67893 -14.88481,-10.3135 -13.20588,-19.28583z" fill="#000000" fill-rule="nonzero" stroke="none" stroke-width="0" stroke-linecap="butt" stroke-linejoin="miter"/><path d="M332.47317,164.63252h-25.10959" fill="none" fill-rule="nonzero" stroke="#000000" stroke-width="2" stroke-linecap="round" stroke-linejoin="miter"/><path d="M311.6524,145.73554l30.6406,5.73356c5.99023,1.12091 10.14815,5.57458 9.32271,9.98582l-0.7334,3.91935c-0.82544,4.41122 -6.31242,7.06013 -12.30265,5.93922l-30.6406,-5.73356c-5.99021,-1.12091 -10.14816,-5.57458 -9.32272,-9.98582l0.7334,-3.91935c0.82544,-4.41122 6.31245,-7.06012 12.30265,-5.93921z" fill="#000000" fill-rule="evenodd" stroke="#000000" stroke-width="0" stroke-linecap="round" stroke-linejoin="round"/><path d="M355.04604,146.07339c-12.74676,-2.38521 -21.14646,-14.6521 -18.76125,-27.39886c2.38521,-12.74676 14.6521,-21.14646 27.39886,-18.76125c12.74676,2.38521 21.14646,14.6521 18.76125,27.39886c-2.38521,12.74676 -14.6521,21.14646 -27.39886,18.76125z" data-paper-data="{&quot;index&quot;:null}" fill="#ffffff" fill-rule="nonzero" stroke="#000000" stroke-width="2" stroke-linecap="butt" stroke-linejoin="miter"/><path d="M356.26492,138.94758c-8.97234,-1.67893 -14.88481,-10.3135 -13.20588,-19.28583c1.67893,-8.97235 10.3135,-14.88482 19.28583,-13.20589c8.97234,1.67893 14.88481,10.3135 13.20588,19.28583c-1.67893,8.97235 -10.3135,14.88482 -19.28583,13.20589z" data-paper-data="{&quot;index&quot;:null}" fill="#000000" fill-rule="nonzero" stroke="none" stroke-width="0" stroke-linecap="butt" stroke-linejoin="miter"/><path d="M282.95206,108.69476c2.38521,-12.74676 14.6521,-21.14646 27.39886,-18.76125c12.74676,2.38521 21.14646,14.6521 18.76125,27.39886c0,0 -46.38663,-7.42708 -46.16012,-8.63762z" fill="#ffc533" fill-rule="nonzero" stroke="#000000" stroke-width="2" stroke-linecap="butt" stroke-linejoin="miter"/><path d="M326.23306,121.28267l-58.73062,-10.98985c0,0 -3.72394,-1.55693 -2.92014,-6.14189c0.73469,-4.19078 4.94337,-4.67044 4.94337,-4.67044l58.73062,10.98985z" fill="#a3a347" fill-rule="nonzero" stroke="#000000" stroke-width="2" stroke-linecap="butt" stroke-linejoin="miter"/><path d="M336.2848,118.67454c2.38521,-12.74676 14.6521,-21.14646 27.39886,-18.76125c12.74676,2.38521 21.14646,14.6521 18.76125,27.39886c-0.22325,1.19309 -46.16012,-8.63762 -46.16012,-8.63762z" data-paper-data="{&quot;index&quot;:null}" fill="#ffc533" fill-rule="nonzero" stroke="#000000" stroke-width="2" stroke-linecap="butt" stroke-linejoin="miter"/><path d="M338.86252,112.455l58.73062,10.98985c0,0 3.75048,1.96901 2.92014,6.14189c-0.90844,4.56538 -4.94337,4.67044 -4.94337,4.67044l-58.73062,-10.98985z" data-paper-data="{&quot;index&quot;:null}" fill="#a3a347" fill-rule="nonzero" stroke="#000000" stroke-width="2" stroke-linecap="butt" stroke-linejoin="miter"/><path d="M285.68935,80.35252l104.45153,19.54528c6.3282,1.18415 10.4694,7.23199 9.28526,13.56017l-6.05704,32.36933c-1.18415,6.32818 -7.23199,10.46941 -13.56016,9.28527l-104.45152,-19.54527c-6.32818,-1.18415 -10.46942,-7.23199 -9.28527,-13.56017l6.05704,-32.36933c1.18415,-6.32817 7.232,-10.46941 13.56018,-9.28526z" fill="#a3a347" fill-rule="evenodd" stroke="#000000" stroke-width="2" stroke-linecap="round" stroke-linejoin="round"/><path d="M295.08552,87.99337l84.18741,15.75339c5.10049,0.95442 8.43829,5.82895 7.48388,10.92943l-4.88195,26.08952c-0.95442,5.10048 -5.82895,8.43829 -10.92943,7.48388l-84.18741,-15.75339c-5.10048,-0.95442 -8.4383,-5.82895 -7.48389,-10.92943l4.88195,-26.08952c0.95442,-5.10048 5.82896,-8.43829 10.92944,-7.48387z" fill="#000000" fill-rule="evenodd" stroke="#000000" stroke-width="0" stroke-linecap="round" stroke-linejoin="round"/><path d="M294.81919,87.60441l84.18741,15.75339c5.10049,0.95442 8.43829,5.82895 7.48388,10.92943l-4.88195,26.08952c-0.95442,5.10048 -5.82895,8.43829 -10.92943,7.48388l-84.18741,-15.75339c-5.10048,-0.95442 -8.4383,-5.82895 -7.48389,-10.92943l4.88195,-26.08952c0.95442,-5.10048 5.82896,-8.43829 10.92944,-7.48387z" fill="#d7d75e" fill-rule="evenodd" stroke="#000000" stroke-width="2" stroke-linecap="round" stroke-linejoin="round"/></g></g></svg>