<svg version="1.1" xmlns="http://www.w3.org/2000/svg" xmlns:xlink="http://www.w3.org/1999/xlink" width="190.09255" height="316.56529" viewBox="0,0,190.09255,316.56529"><defs><linearGradient x1="302.35809" y1="-5.76568" x2="308.73613" y2="29.16872" gradientUnits="userSpaceOnUse" id="color-1"><stop offset="0" stop-color="#c4c456"/><stop offset="1" stop-color="#e3e364"/></linearGradient></defs><g transform="translate(-222.0062,10.05093)"><g data-paper-data="{&quot;isPaintingLayer&quot;:true}" fill-rule="nonzero" stroke-linejoin="miter" stroke-miterlimit="10" stroke-dasharray="" stroke-dashoffset="0" style="mix-blend-mode: normal"><path d="M286.4263,305.51436l15.14285,-131.8421l37.78325,-0.15789l13.57389,132z" fill="#c6c657" stroke="#000000" stroke-width="2" stroke-linecap="butt"/><path d="M299.0384,202.12699l3.12142,-26.32765l35.83075,-0.14203l2.76735,26.1059c0,0 -7.51543,4.19603 -21.55904,4.50964c-12.48458,0.27879 -20.16049,-4.14586 -20.16049,-4.14586z" fill="#9e9e45" stroke="#000000" stroke-width="0" stroke-linecap="butt"/><path d="M254.66103,141.25785c-2.62233,-33.19844 23.92245,-62.37577 59.28941,-65.16939c35.36696,-2.79362 66.16337,21.85437 68.7857,55.0528c2.62233,33.19844 -23.92245,62.37577 -59.28941,65.16939c-35.36696,2.79362 -66.16337,-21.85437 -68.7857,-55.0528z" fill="#c6c657" stroke="#000000" stroke-width="2" stroke-linecap="butt"/><path d="M255.38608,141.25459c-0.05732,-0.72573 9.59382,55.33576 67.64696,51.76823c55.46735,-3.40862 58.75289,-62.77451 58.83312,-61.75883c2.58319,32.70293 -23.63626,61.45036 -58.56276,64.20919c-34.9265,2.75883 -65.33413,-21.51567 -67.91731,-54.21859z" fill="#9e9e45" stroke="#000000" stroke-width="0" stroke-linecap="butt"/><path d="M268.203,140.61898c-1.02115,-12.92773 8.63104,-24.23555 21.55877,-25.2567c12.92773,-1.02115 24.23555,8.63104 25.2567,21.55877c1.02115,12.92773 -8.63104,24.23555 -21.55877,25.2567c-12.92773,1.02115 -24.23555,-8.63104 -25.2567,-21.55877z" fill="#ffffff" stroke="#000000" stroke-width="2" stroke-linecap="butt"/><path d="M274.7505,142.18957c-0.71878,-9.09974 6.07531,-17.05921 15.17504,-17.77799c9.09974,-0.71878 17.05921,6.07532 17.77799,15.17505c0.71878,9.09974 -6.07532,17.05921 -15.17505,17.77799c-9.09974,0.71878 -17.0592,-6.07532 -17.77798,-15.17505z" fill="#000000" stroke="none" stroke-width="0" stroke-linecap="butt"/><path d="M307.50705,177.3183h25.10959" fill="none" stroke="#000000" stroke-width="2" stroke-linecap="round"/><path d="M347.54964,157.90521c-12.92773,1.02115 -24.23555,-8.63104 -25.2567,-21.55877c-1.02115,-12.92773 8.63104,-24.23555 21.55877,-25.2567c12.92773,-1.02115 24.23555,8.63104 25.2567,21.55877c1.02115,12.92773 -8.63104,24.23555 -21.55877,25.2567z" data-paper-data="{&quot;index&quot;:null}" fill="#ffffff" stroke="#000000" stroke-width="2" stroke-linecap="butt"/><path d="M347.05383,153.05769c-9.09973,0.71878 -17.0592,-6.07532 -17.77798,-15.17505c-0.71878,-9.09974 6.07532,-17.05921 15.17504,-17.77799c9.09973,-0.71878 17.0592,6.07532 17.77798,15.17505c0.71878,9.09974 -6.07532,17.05921 -15.17504,17.77799z" data-paper-data="{&quot;index&quot;:null}" fill="#000000" stroke="none" stroke-width="0" stroke-linecap="butt"/><path d="M278.29672,107.91414c0,0 6.28107,-5.68146 11.25949,-7.27275c4.97842,-1.59129 12.3509,-0.27404 12.3509,-0.27404c0,0 -8.01791,0.57286 -11.86258,1.80177c-4.01783,1.28426 -11.74781,5.74502 -11.74781,5.74502z" fill="#000000" stroke="none" stroke-width="0" stroke-linecap="butt"/><path d="M341.65453,98.09248c-3.98993,-0.61006 -11.99834,0.08299 -11.99834,0.08299c0,0 7.07424,-2.45839 12.24076,-1.66844c5.16651,0.78995 12.26167,5.41483 12.26167,5.41483c0,0 -8.33446,-3.19184 -12.50409,-3.82938z" data-paper-data="{&quot;index&quot;:null}" fill="#000000" stroke="none" stroke-width="0" stroke-linecap="butt"/><path d="M268.12718,140.71769c-1.02116,-12.92774 8.63104,-24.23555 21.55878,-25.25671c12.92774,-1.02116 24.23555,8.63103 25.2567,21.55877c0,0 -8.22886,-7.40256 -24.66347,-6.24729c-16.18561,1.13777 -22.10345,10.55991 -22.15201,9.94522z" fill="#c6c657" stroke="#000000" stroke-width="2" stroke-linecap="butt"/><path d="M322.29235,136.3389c-1.02116,-12.92774 8.63103,-24.23555 21.55877,-25.2567c12.92774,-1.02116 24.23556,8.63103 25.25671,21.55877c0.04772,0.60418 -8.35556,-5.80189 -23.39226,-5.012c-15.0367,0.78989 -23.42323,8.70994 -23.42323,8.70994z" data-paper-data="{&quot;index&quot;:null}" fill="#c6c657" stroke="#000000" stroke-width="2" stroke-linecap="butt"/><path d="M256.19838,126.36921c5.96457,-25.38355 29.00603,-45.35435 57.96054,-47.64145c29.37929,-2.32065 55.60464,14.29506 65.14571,39.01812c0.69285,1.79535 3.71534,21.84764 -61.70523,26.76188c-61.05745,4.58649 -61.40101,-18.13855 -61.40101,-18.13855z" fill-opacity="0.20156" fill="#000000" stroke="#000000" stroke-width="0" stroke-linecap="butt"/><path d="M411.08702,84.72986c0.8118,10.2773 -40.63343,21.93442 -92.57052,26.0369c-51.93709,4.10248 -94.6985,-0.9032 -95.5103,-11.18049c-0.8118,-10.2773 40.23971,-26.91889 92.1768,-31.02137c51.93709,-4.10248 95.09223,5.88767 95.90402,16.16497z" fill="#c6c657" stroke="#000000" stroke-width="2" stroke-linecap="butt"/><path d="M316.32758,69.84851c7.18957,-0.5679 13.93601,-0.72125 19.69225,-0.51791c0.67642,0.02389 -15.19664,11.53395 -15.19664,11.53395l-6.04704,0.6266z" data-paper-data="{&quot;index&quot;:null}" fill="#ffffff" stroke="#000000" stroke-width="0" stroke-linecap="butt"/><path d="M317.8846,109.11676c-17.40595,1.37489 -33.73909,1.74616 -47.67494,1.25387c-1.63763,-0.05786 36.79105,-27.92369 36.79105,-27.92369l14.63987,-1.517z" fill="#ffffff" stroke="#000000" stroke-width="0" stroke-linecap="butt"/><path d="M307.64938,81.42839l-0.30171,-40.14845c0,0 0.23623,-6.83129 -3.61523,-5.03606c-3.09241,1.44143 -10.45422,6.3611 -10.45422,6.3611c0,0 3.36863,-7.58543 8.1684,-10.63045c3.84845,-2.44148 9.34668,1.84179 9.34668,1.84179c0,0 4.38796,-4.52212 7.58188,-2.87237c4.19763,2.16819 8.06388,9.23081 8.06388,9.23081c0,0 -6.22872,-2.92596 -8.96807,-4.05283c-3.02193,-1.2431 -2.87246,4.37669 -2.87246,4.37669l6.25971,39.88641c0,0 -2.30686,1.68689 -6.55021,1.85489c-3.66801,0.14522 -6.65865,-0.81153 -6.65865,-0.81153z" fill="#c6c657" stroke="#000000" stroke-width="2" stroke-linecap="butt"/><path d="M302.60034,30.28894l-0.14328,-36.07269l12.41485,33.83225c0,0 -2.61426,0.47729 -4.25547,0.77693c-2.25252,0.41125 -8.01611,1.46352 -8.01611,1.46352z" fill="url(#color-1)" stroke="#89893c" stroke-width="1.5" stroke-linecap="butt"/><g stroke="#89893c" stroke-width="1.4"><path d="M293.15644,35.6946l-1.17442,-6.43269l31.76755,-5.79985l1.17442,6.43269z" fill="#c4c456" stroke-linecap="butt"/><g><path d="M290.38912,46.543c0,0 -2.3186,-2.90393 -2.48078,-5.18616c-0.27171,-3.82347 0.43652,-6.01095 0.43652,-6.01095l42.45569,-7.75121c0,0 2.10197,2.30036 2.51435,5.36994c0.45496,3.38658 -0.47007,5.82716 -0.47007,5.82716z" fill="#c4c456" stroke-linecap="butt"/><path d="M296.37543,44.92414c0,0 -1.62124,-3.27875 -1.94725,-5.06443c-0.30496,-1.67036 0.0501,-5.32683 0.0501,-5.32683" fill="none" stroke-linecap="round"/><path d="M325.52638,29.27346c0,0 1.43632,3.60211 1.72982,5.30806c0.25955,1.50859 -0.05812,4.40851 -0.05812,4.40851" fill="none" stroke-linecap="round"/><path d="M306.89234,42.59501c0,0 -1.29156,-2.4351 -1.57571,-3.90464c-0.32222,-1.66646 -0.2578,-5.57787 -0.2578,-5.57787" fill="none" stroke-linecap="round"/><path d="M315.56712,31.29625c0,0 1.4364,3.38657 1.73126,5.0016c0.28282,1.54908 0.00327,4.49898 0.00327,4.49898" fill="none" stroke-linecap="round"/></g></g><path d="M292.96645,258.74685l1.99382,-15.51624h50.12658l2.27865,16.0859z" fill="#d3d35d" stroke="none" stroke-width="0" stroke-linecap="butt"/><text transform="translate(296.57704,254.07913) scale(0.28152,0.28152)" font-size="40" xml:space="preserve" fill="#85853a" fill-rule="nonzero" stroke="none" stroke-width="1" stroke-linecap="butt" stroke-linejoin="miter" stroke-miterlimit="10" stroke-dasharray="" stroke-dashoffset="0" font-family="Sans Serif" font-weight="normal" text-anchor="start" style="mix-blend-mode: normal"><tspan x="0" dy="0">Mustard</tspan></text></g></g></svg>