<svg version="1.1" xmlns="http://www.w3.org/2000/svg" xmlns:xlink="http://www.w3.org/1999/xlink" width="208.80499" height="294.87183" viewBox="0,0,208.80499,294.87183"><defs><radialGradient cx="320.28693" cy="115.86484" r="104.40249" gradientUnits="userSpaceOnUse" id="color-1"><stop offset="0" stop-color="#d9db56"/><stop offset="1" stop-color="#000000"/></radialGradient></defs><g transform="translate(-215.88444,-32.97432)"><g data-paper-data="{&quot;isPaintingLayer&quot;:true}" fill-rule="nonzero" stroke-linejoin="miter" stroke-miterlimit="10" stroke-dasharray="" stroke-dashoffset="0" style="mix-blend-mode: normal"><path d="M295.52305,188.50611c0,0 2.53763,80.25939 -30.09158,76.49985c-31.94687,-3.68091 -2.59948,-106.60088 -2.59948,-106.60088" data-paper-data="{&quot;index&quot;:null}" fill="#d9d960" stroke="#000000" stroke-width="2" stroke-linecap="round"/><path d="M377.77153,157.80154c0,0 29.34739,102.91997 -2.59948,106.60088c-32.62922,3.75954 -30.09158,-76.49985 -30.09158,-76.49985" data-paper-data="{&quot;index&quot;:null}" fill="#d9d960" stroke="#000000" stroke-width="2" stroke-linecap="round"/><path d="M286.70285,326.84614l15.14285,-140.28149l37.78325,-0.168l13.57389,140.4495z" fill="#d9d960" stroke="#000000" stroke-width="2" stroke-linecap="butt"/><path d="M300.25661,217.42341l3.12142,-26.32765l35.83075,-0.14203l2.76735,26.1059c0,0 -7.51543,4.19603 -21.55904,4.50964c-12.48458,0.27879 -20.16049,-4.14586 -20.16049,-4.14586z" fill="#b4b44f" stroke="#000000" stroke-width="0" stroke-linecap="butt"/><path d="M424.68943,32.97432v165.78104h-208.80499v-165.78104z" data-paper-data="{&quot;index&quot;:null}" fill="url(#color-1)" stroke="none" stroke-width="0" stroke-linecap="butt"/><g><path d="M323.03799,100.229l21.83013,-40.56324l-8.89216,44.22036z" fill="#d9db56" stroke="#000000" stroke-width="0.5" stroke-linecap="butt"/><path d="M317.32698,94.25839l3.51776,-9.95972l25.38125,8.96462l-3.51773,9.95973z" fill="#d9db56" stroke="#000000" stroke-width="1" stroke-linecap="butt"/><path d="M289.66921,152.14996l21.69624,-61.77999l39.53921,13.88558l-21.69624,61.77999z" fill="#d9db56" stroke="#000000" stroke-width="1" stroke-linecap="butt"/><path d="M297.72167,128.3091l5.61469,-14.13476c0,0 11.33349,8.12991 17.98102,10.37556c6.2318,2.10524 20.73768,2.70421 20.73768,2.70421l-5.61469,14.13476c0,0 -14.80803,1.09608 -20.97967,-0.98877c-6.69239,-2.26079 -17.73905,-12.09096 -17.73905,-12.09096z" fill="#000000" stroke="none" stroke-width="0" stroke-linecap="butt"/><path d="M325.59183,95.08225l1.91041,-6.43401" fill="none" stroke="#000000" stroke-width="0.5" stroke-linecap="round"/><path d="M335.19882,97.60998l1.52848,-6.72787" fill="none" stroke="#000000" stroke-width="0.5" stroke-linecap="round"/></g></g></g></svg>