<svg version="1.1" xmlns="http://www.w3.org/2000/svg" xmlns:xlink="http://www.w3.org/1999/xlink" width="143.5565" height="434.64258" viewBox="0,0,143.5565,434.64258"><g transform="translate(-243.3589,72.36169)"><g data-paper-data="{&quot;isPaintingLayer&quot;:true}" fill-rule="nonzero" stroke-linejoin="miter" stroke-miterlimit="10" stroke-dasharray="" stroke-dashoffset="0" style="mix-blend-mode: normal"><path d="M330.4252,40.80533l22.88761,123.09466l-65.34179,5.96165l3.43435,-117.89403l40.25257,-14.31564z" fill="#b5b54a" stroke="#b5b54a" stroke-width="2.5" stroke-linecap="round"/><path d="M367.51482,-9.07283c3.12845,34.28889 -22.01386,64.61086 -56.15691,67.726c-34.14305,3.11514 -64.35755,-22.15618 -67.486,-56.44507c-3.12845,-34.28889 22.01385,-64.61087 56.15688,-67.72601c34.14305,-3.11514 64.35758,22.15619 67.48602,56.44508z" fill="#fafab0" stroke="#fafab0" stroke-width="0.5" stroke-linecap="butt"/><path d="M262.71285,-67.03071l15.93496,3.25885l-0.75594,-8.28537l20.47386,3.70157l-0.42566,-2.31751l15.80006,4.128l-0.79317,-3.9977l26.71617,15.77068l-43.26295,0.09138l7.08978,4.92271l-22.55878,-0.72656l9.79496,8.74597l-24.70418,-5.45776l0.32951,3.61159l-15.35808,-11.02318l20.89646,-3.40605z" fill="#fcfc00" stroke="#fcfc00" stroke-width="0.5" stroke-linecap="round"/><path d="M294.01496,-2.7529c0.64584,7.07866 -1.53101,13.06343 -4.86214,13.36735c-3.33113,0.30393 -6.55511,-5.18808 -7.20095,-12.26674c-0.64584,-7.07866 1.53101,-13.06342 4.86215,-13.36735c3.33113,-0.30393 6.5551,5.18808 7.20094,12.26674z" fill="#29291b" stroke="#29291b" stroke-width="2.5" stroke-linecap="butt"/><path d="M325.08626,-6.60141c0.64584,7.07866 -1.53101,13.06343 -4.86214,13.36735c-3.33113,0.30393 -6.55511,-5.18808 -7.20095,-12.26674c-0.64584,-7.07866 1.53101,-13.06342 4.86215,-13.36735c3.33113,-0.30393 6.5551,5.18808 7.20094,12.26674z" fill="#29291b" stroke="#29291b" stroke-width="2.5" stroke-linecap="butt"/><path d="M345.19723,236.3658l11.60849,124.66509h-65.61319l14.13207,-117.09433l41.38679,-10.59906z" fill="#e5e61c" stroke="#e5e61c" stroke-width="2.5" stroke-linecap="round"/><path d="M386.6654,192.56393c0,33.0506 -27.79337,59.84341 -62.07824,59.84341c-34.28487,0 -62.07824,-26.79281 -62.07824,-59.84341c0,-33.0506 27.79337,-59.84341 62.07824,-59.84341c34.28487,0 62.07824,26.79281 62.07824,59.84341z" fill="#fafab0" stroke="#fafab0" stroke-width="0.5" stroke-linecap="butt"/><path d="M288.56301,124.82342l15.57295,4.69322v-8.31981l20.05285,5.54652l-0.21333,-2.34662l15.35963,5.54653l-0.42666,-4.05325l25.17273,18.13291l-43.09231,-3.8399l6.61318,5.54653l-22.39947,-2.77327l8.95977,9.59977l-24.10608,-7.67981v3.62658l-14.29299,-12.37303l21.1195,-1.49329z" fill="#29291b" stroke="#29291b" stroke-width="0.5" stroke-linecap="round"/><path d="M312.89534,189.67948c0,7.10806 -2.71163,12.87028 -6.0566,12.87028c-3.34497,0 -6.0566,-5.76222 -6.0566,-12.87028c0,-7.10806 2.71163,-12.87028 6.0566,-12.87028c3.34497,0 6.0566,5.76223 6.0566,12.87028z" fill="#29291b" stroke="#29291b" stroke-width="2.5" stroke-linecap="butt"/><path d="M344.18777,188.67005c0,7.10806 -2.71163,12.87028 -6.0566,12.87028c-3.34497,0 -6.0566,-5.76222 -6.0566,-12.87028c0,-7.10806 2.71163,-12.87028 6.0566,-12.87028c3.34497,0 6.0566,5.76222 6.0566,12.87028z" fill="#29291b" stroke="#29291b" stroke-width="2.5" stroke-linecap="butt"/><path d="M307.64486,134.40461l-3.86875,-47.43978c0,0 10.12893,-1.91554 14.71923,-1.29387c4.85579,0.65765 8.36026,4.93246 8.36026,4.93246l1.72235,8.80399c0,0 -2.83133,11.22396 -8.32732,11.3511c-4.21085,0.09741 -13.81492,0.31958 -13.81492,0.31958" fill="none" stroke="#29291b" stroke-width="2.5" stroke-linecap="round"/><path d="M327.09035,287.33591l-0.43867,39.91981" fill="none" stroke="#29291b" stroke-width="2.5" stroke-linecap="round"/><path d="M306.94162,292.74569l38.18972,-10.11864" fill="none" stroke="#29291b" stroke-width="2.5" stroke-linecap="round"/></g></g></svg>