<svg version="1.1" xmlns="http://www.w3.org/2000/svg" xmlns:xlink="http://www.w3.org/1999/xlink" width="34.17311" height="34.17311" viewBox="0,0,34.17311,34.17311"><defs><linearGradient x1="319.33292" y1="175.67411" x2="319.33292" y2="184.11628" gradientUnits="userSpaceOnUse" id="color-1"><stop offset="0" stop-color="#000000"/><stop offset="1" stop-color="#d7d75e"/></linearGradient></defs><g transform="translate(-302.9135,-162.9135)"><g data-paper-data="{&quot;isPaintingLayer&quot;:true}" stroke-miterlimit="10" stroke-dasharray="" stroke-dashoffset="0" style="mix-blend-mode: normal"><path d="M309.98317,162.9135h20.03379c3.9166,0 7.06966,3.15307 7.06966,7.06966v20.03379c0,3.91659 -3.15306,7.06966 -7.06966,7.06966h-20.03379c-3.91659,0 -7.06966,-3.15307 -7.06966,-7.06966v-20.03379c0,-3.91659 3.15307,-7.06966 7.06966,-7.06966z" fill="#a0a300" fill-rule="evenodd" stroke="none" stroke-width="4.43922" stroke-linecap="round" stroke-linejoin="round"/><path d="M317.422,181.29335h-11.14118c0,0 -0.73593,-0.15764 -0.74585,-1.02555c-0.00907,-0.79329 0.74585,-1.02555 0.74585,-1.02555h11.14118z" fill="#a3a347" fill-rule="nonzero" stroke="#000000" stroke-width="0.5" stroke-linecap="butt" stroke-linejoin="miter"/><path d="M322.578,179.24226h11.14118c0,0 0.75493,0.23226 0.74585,1.02555c-0.00993,0.86791 -0.74585,1.02555 -0.74585,1.02555h-11.14118z" data-paper-data="{&quot;index&quot;:null}" fill="#a3a347" fill-rule="nonzero" stroke="#000000" stroke-width="0.5" stroke-linecap="butt" stroke-linejoin="miter"/><path d="M309.53051,174.76289h19.81442c1.20046,0 2.16688,0.96643 2.16688,2.16689v6.14045c0,1.20045 -0.96643,2.16689 -2.16688,2.16689h-19.81442c-1.20045,0 -2.16689,-0.96643 -2.16689,-2.16689v-6.14045c0,-1.20045 0.96643,-2.16689 2.16689,-2.16689z" fill="#a3a347" fill-rule="evenodd" stroke="#000000" stroke-width="0.5" stroke-linecap="round" stroke-linejoin="round"/><path d="M311.30512,175.84107h15.97032c0.96756,0 1.7465,0.77894 1.7465,1.7465v4.94917c0,0.96756 -0.77894,1.7465 -1.7465,1.7465h-15.97032c-0.96756,0 -1.7465,-0.77894 -1.7465,-1.7465v-4.94917c0,-0.96756 0.77894,-1.7465 1.7465,-1.7465z" fill="#000000" fill-rule="evenodd" stroke="#000000" stroke-width="0.5" stroke-linecap="round" stroke-linejoin="round"/><path d="M311.34776,175.67411h15.97032c0.96756,0 1.7465,0.77894 1.7465,1.7465v4.94917c0,0.96756 -0.77894,1.7465 -1.7465,1.7465h-15.97032c-0.96756,0 -1.7465,-0.77894 -1.7465,-1.7465v-4.94917c0,-0.96756 0.77894,-1.7465 1.7465,-1.7465z" fill="url(#color-1)" fill-rule="evenodd" stroke="#000000" stroke-width="0.5" stroke-linecap="round" stroke-linejoin="round"/></g></g></svg>