<svg version="1.1" xmlns="http://www.w3.org/2000/svg" xmlns:xlink="http://www.w3.org/1999/xlink" width="105.89647" height="263.16355" viewBox="0,0,105.89647,263.16355"><g transform="translate(-253.61725,-49.11792)"><g data-paper-data="{&quot;isPaintingLayer&quot;:true}" fill-rule="nonzero" stroke-linecap="butt" stroke-linejoin="miter" stroke-miterlimit="10" stroke-dasharray="" stroke-dashoffset="0" style="mix-blend-mode: normal"><path d="M291.0988,283.04259c0,0 -18.29962,-38.42633 -22.63676,-72.19645c-2.7547,-21.44884 6.76895,-43.2346 8.84965,-44.98951c7.73341,-6.52255 19.62103,-10.83048 24.51279,-11.37294c31.4102,-3.48319 42.739,25.12812 43.51107,32.49748c4.79113,45.99393 13.06935,117.26223 13.06935,117.26223l-10.42824,1.20043l-12.24578,-114.18846c0,0 -0.25114,-3.09003 -3.1326,-2.84021c-3.42219,0.29671 -2.60108,3.40833 -2.60108,3.40833l12.29501,114.21024l-47.93824,5.14657c0,0 -12.46189,-117.49306 -15.61102,-117.17526c-1.13332,0.11438 48.52589,71.85836 48.52589,71.85836z" fill="#999999" stroke="#000000" stroke-width="2"/><path d="M313.26962,265.55869c-0.8144,0.0862 -1.54448,-0.50412 -1.63067,-1.31852c-0.0862,-0.8144 0.50412,-1.54449 1.31852,-1.63068c0.8144,-0.0862 1.54448,0.50413 1.63068,1.31853c0.0862,0.8144 -0.50412,1.54448 -1.31852,1.63068z" data-paper-data="{&quot;index&quot;:null}" fill="#000000" stroke="none" stroke-width="1.5"/><path d="M293.89599,311.13592l-12.54659,-118.53934c0,0 -0.27124,-9.75669 -0.78786,-14.63775c-0.47344,-4.47301 -2.19366,-13.53147 -2.19366,-13.53147c0,0 2.41068,-2.62127 4.23533,-4.21729c1.82465,-1.59602 4.84814,-3.33251 4.84814,-3.33251c0,0 3.62343,39.94954 18.69293,38.2838c15.34149,-1.69581 9.54042,-41.27211 9.54042,-41.27211c0,0 4.05098,1.09931 6.44174,2.2812c2.39076,1.18187 5.10685,3.08484 5.10685,3.08484c0,0 0.23899,9.45198 0.74078,14.19288c0.50964,4.81504 2.29388,14.47835 2.29388,14.47835l12.49346,118.03734z" fill="#0f0e02" stroke="#000000" stroke-width="2"/><path d="M324.70285,104.05807c0,0 1.52492,0.31501 4.25802,1.10176c2.49637,0.71861 4.45284,1.73511 4.45284,1.73511l0.19744,1.16996c0,0 -7.25589,-3.11544 -15.12072,-2.44031c-6.28853,0.53984 -9.95753,2.83237 -9.95753,2.83237l0.03738,-4.17691c0,0 3.12406,-1.71047 7.85992,-1.87133c4.90396,-0.16655 8.09201,0.57504 8.09201,0.57504z" data-paper-data="{&quot;index&quot;:null}" fill="#000000" stroke="none" stroke-width="1.5"/><path d="M284.61301,108.2347c0,0 3.36598,-1.82575 8.02785,-2.29787c5.16594,-0.52319 7.76808,-0.08185 7.76808,-0.08185l0.30337,4.13687c0,0 -3.8369,-0.67297 -8.01898,-0.50507c-5.59302,0.22454 -6.642,1.44625 -10.89393,1.91303c-3.64328,0.39996 -6.7369,0.17234 -6.7369,0.17234l-0.02836,-1.2315c0,0 3.59531,0.06678 5.23356,-0.07884c1.35215,-0.1202 3.97381,-0.94605 3.97381,-0.94605z" fill="#000000" stroke="none" stroke-width="1.5"/><path d="M289.67036,160.13904l-0.59146,-0.5891c-2.1711,-2.18073 -4.66695,-3.17552 -6.79889,-5.29894c-0.03752,-0.03737 -0.63583,-0.45789 -1.11508,-0.91765c-0.0349,0.20085 -0.09376,0.383 -0.17297,0.50292c-0.05373,0.08133 -0.11246,0.1582 -0.17528,0.23146l0.05077,0.03369l-0.57993,0.87369c-0.17751,0.27606 -0.48713,0.45918 -0.83973,0.45989c-0.55229,0.00111 -1.00089,-0.44571 -1.002,-0.99799l-0.0019,-0.94853c-0.97948,-1.32435 -1.68221,-3.07138 -2.7097,-4.28709c-1.39268,-1.64778 -3.68057,-3.1833 -4.60252,-5.26545c-0.63307,-1.42976 -0.4934,-2.96451 -1.40182,-4.27418c-0.73408,-1.17523 -1.44224,-3.14305 -1.64532,-4.56121c-0.06196,-0.43266 -0.18107,-3.90347 -0.6616,-3.85781c-1.51956,0.14436 -2.56935,2.03909 -3.69613,2.80556c-2.47652,1.68461 -5.09156,2.97804 -7.9276,2.82339l0.00063,0.31187l-1.18057,0.00236c-0.55229,0.00111 -1.00089,-0.4457 -1.002,-0.99799c-0.00071,-0.35261 0.18118,-0.66296 0.45652,-0.84156l0.87135,-0.58344c2.38288,-1.57817 4.37278,-3.23844 6.23369,-5.34492c-1.17595,0.19175 -2.40445,0.08244 -3.84356,-0.23074c-0.67666,-0.14725 -2.84154,-0.65063 -3.07688,-1.19916c-0.28535,-0.66506 1.25967,-2.63118 1.6468,-3.0851c1.88523,-2.21048 4.92285,-4.74205 6.02403,-7.43512c0.47044,-1.15051 0.45864,-2.17111 1.17406,-3.24892c0.37328,-1.60179 0.80687,-2.96441 1.46683,-4.43008c0.0538,-0.11948 0.0963,-0.29495 0.13913,-0.47532c-0.18958,0.1178 -0.38996,0.22165 -0.53029,0.28998c-1.35983,0.66203 -3.89356,1.5232 -4.88975,-0.40337c-1.09694,-2.12145 1.58638,-4.39875 2.81961,-5.61176c1.20826,-1.18845 1.47916,-3.13736 1.47597,-4.7306c1.92893,-7.78197 3.75493,-15.91445 8.37859,-22.88013c3.35735,-5.05796 8.13634,-10.20491 12.49219,-14.34428c1.08086,-1.02716 2.84936,-1.44294 4.13483,-2.2817c2.1211,-0.53479 3.91767,-1.86926 6.18089,-2.15637c7.09686,-0.9003 14.5331,1.06498 21.60451,1.15653c2.53009,1.21908 5.24413,1.25331 7.85843,2.4064c3.43815,1.51647 6.45437,3.96505 9.77104,5.59743c2.53178,1.24608 4.17912,1.83031 5.80598,4.3236c0.81827,3.15467 2.34999,5.88192 2.75257,9.13112c0.68555,5.53305 -0.7685,12.51218 1.78687,17.5974c0.05155,3.04054 2.28671,5.35149 3.49689,8.07708c1.37686,3.10102 1.62651,6.12389 2.44084,9.32443c0.66737,2.62302 1.55214,4.68919 0.41796,6.75507l0.34026,0.22586l-0.57993,0.87368c-0.1775,0.27605 -0.48712,0.45919 -0.83972,0.4599c-0.4759,0.00095 -0.87482,-0.33069 -0.97677,-0.77581l-0.26029,-1.03235c-1.44634,-2.10694 -1.72681,-4.5053 -3.38983,-6.51745c-0.07203,-0.08714 -0.14937,-0.16568 -0.22962,-0.23752c0.8746,4.91815 0.19104,10.18893 -0.94893,14.90069c-1.34893,5.44201 -2.88327,10.41852 -4.0946,15.92275c-0.60376,2.7435 -0.98553,5.34378 -2.62954,7.26682l0.3102,0.30896l-0.88364,0.88719c-0.18061,0.18132 -0.43038,0.29375 -0.70652,0.29431c-0.55228,0.00111 -1.00089,-0.44571 -1.002,-0.998l-0.00237,-1.18056c0.00046,-0.30349 -0.23879,-1.48817 -0.3682,-2.5407c-0.27283,0.80493 -0.60651,1.60024 -0.647,1.7091c-0.67705,1.8203 -1.44641,2.95155 -2.60243,4.01154l0.11161,0.08335l-0.87609,1.17302c-0.18146,0.24855 -0.47484,0.41026 -0.80616,0.41092c-0.55228,0.00111 -1.0009,-0.4457 -1.002,-0.99799c-0.00018,-0.09149 0.01194,-0.18012 0.03477,-0.26437l0.26511,-1.06957c-0.0058,-1.17119 -0.05847,-2.8212 0.07428,-4.19892c-0.45958,0.40962 -0.96282,0.78661 -1.26588,1.15121c-1.85306,2.22936 -3.67641,3.90419 -5.91071,5.5383c-1.1252,1.35275 -2.38855,2.54077 -3.7619,3.56581c-0.1928,0.29072 -0.38575,0.58135 -0.57867,0.872c-2.19146,3.3015 -5.66644,5.60487 -8.79978,7.65891c-0.85509,0.56054 -1.40048,1.69338 -2.52829,2.16816c-3.05704,1.2869 -8.07127,-0.56761 -9.54015,-3.34489c-0.5331,-0.81521 -0.63314,-2.10767 -1.3234,-2.74359c-1.70363,-1.5695 -3.39242,-3.07104 -5.02302,-4.70445c-0.34765,-0.05564 -0.59472,-0.30172 -0.59472,-0.30172zM296.69948,163.72815c0.91839,0.96641 0.91533,2.10185 1.63984,3.15332c0.88184,1.88484 4.92416,3.4509 6.99958,2.52481c1.03408,-0.46143 1.35464,-1.40679 2.18569,-1.97329c1.82883,-1.24665 3.83215,-2.52251 5.58111,-4.08041c-3.28411,1.37838 -6.90677,2.06363 -10.6168,2.07107c-2.69169,-0.01009 -4.22326,-1.05282 -6.37458,-2.29372c0.19846,0.19755 0.39378,0.39683 0.58515,0.59821zM317.6375,157.56131l0.94973,-0.96045c0,0 0.31171,-0.31295 0.72879,-0.31572c0.39573,-0.26895 0.78026,-0.5389 1.15499,-0.81094c0.47734,-0.57821 0.93027,-1.18857 1.35687,-1.83126c1.20203,-0.60336 0.16384,-1.30953 -1.1132,-1.87379l-0.0069,0.01158c-2.2915,0.57775 -4.27126,1.76279 -6.44115,2.36099c-2.16288,0.59627 -4.73426,-0.10643 -6.97883,0.34717c-0.48826,-0.00013 -0.97961,-0.00223 -1.4734,-0.0071c-0.19016,0.02402 -0.41124,0.01949 -0.65075,-0.00809c-3.90121,-0.05879 -7.93419,-0.31193 -11.77269,-1.15703c-2.84379,-0.6261 -6.09043,-2.37634 -8.93468,-2.31887c0,0 -0.20212,0.0004 -0.4248,-0.09002c0.00688,0.17754 0.02747,0.37044 0.06263,0.5807c2.61638,1.54302 4.86377,4.48518 6.98643,6.64321c1.48936,1.51419 3.90336,2.05098 5.70383,3.07733c2.01861,1.1507 3.24309,2.23695 5.7005,2.21462c5.23438,-0.01049 10.13891,-1.42821 14.12057,-4.31549c0.34327,-0.51611 0.68707,-1.03185 1.03203,-1.54687zM332.17995,126.9737c0.90015,-0.27965 1.15235,-1.14308 1.98648,-1.9843c2.98988,-3.01529 3.50928,-6.1901 3.53062,-10.3932c-0.56288,-2.61247 -3.00037,-0.05396 -3.74246,1.26345c-0.444,0.78821 -0.82294,1.62244 -1.13138,2.48738c0.05679,0.48649 0.17099,0.98174 0.04558,1.44388c-0.33741,1.24333 -0.674,2.49434 -1.00402,3.75332c-0.02325,1.15091 0.07834,2.30388 0.31517,3.42948zM325.10208,144.90429c0.44783,-1.50589 1.51963,-2.5803 1.7269,-4.26298c0.41419,-3.36237 -0.94645,-6.82556 1.24066,-9.73304c0.48339,-2.7077 1.10997,-5.37109 1.81874,-7.98421c0.09165,-1.77855 0.44228,-3.5488 1.02976,-5.21265c-0.03255,-0.29148 -0.04334,-0.58017 0.03057,-0.85735c0.64002,-2.40034 1.43222,-4.90304 1.79901,-7.47616l-0.21426,-0.12137c-1.79916,-0.4662 -3.56946,-1.24411 -5.0694,-2.36402c-0.71098,0.03568 -1.42964,0.04245 -2.1531,0.0304c-0.06549,0.01104 -0.13643,0.0171 -0.21332,0.01725c-0.10113,0.0002 -0.19205,-0.00985 -0.27379,-0.02807c-3.72192,-0.10244 -7.55426,-0.64053 -11.11514,-0.25175c-1.27508,0.13921 -3.84403,2.35655 -5.16216,1.28176c-0.55901,-0.45582 -0.52724,-1.32895 -0.37388,-2.12939c-0.00575,-0.00555 -0.01151,-0.01118 -0.01725,-0.01691c-0.70853,-0.70568 -0.00284,-1.41421 -0.00284,-1.41421l0.84861,-0.7793c1.0039,-0.50253 1.97264,-1.36845 2.99049,-1.79694c1.96321,-0.82644 4.41214,-0.64101 6.42882,-0.38603c3.48995,0.44126 7.12228,-0.611 7.6182,3.55873c0.6738,-0.01504 1.34206,-0.0188 2.0011,-0.0009c1.55252,0.9611 3.13226,1.89284 4.89993,2.32034c0.00975,-0.26033 0.01372,-0.52127 0.01135,-0.78279c-0.00828,-4.13414 -0.76475,-7.83893 -1.76475,-11.85476c-0.36387,-1.4612 -0.09533,-3.21583 -1.98336,-3.7086c-2.62701,-0.68563 -3.42516,0.55173 -5.7965,1.14962c-3.60815,2.50266 -8.89646,4.61 -13.14966,5.69279c-2.20587,0.56157 -4.28115,0.67874 -6.21701,1.97013l-0.0665,0.00606l0.01184,0.02356l-1.1614,0.58361c-0.13883,0.07345 -0.29703,0.11517 -0.46499,0.1155c-0.55229,0.00111 -1.0009,-0.44572 -1.002,-0.99799c-0.00071,-0.35262 0.18118,-0.66296 0.45652,-0.84157l0.87135,-0.58343l0.06968,0.10406l0.00851,-0.00428c1.16274,-1.45262 2.51859,-2.66999 3.96693,-3.88603c0.41115,-0.34521 0.91661,-0.96833 1.42923,-1.48509c-0.69719,0.24256 -1.48401,0.2231 -2.16349,0.51815c-2.28355,0.9916 -4.70371,1.93221 -6.95701,3.0241c-2.42462,0.04111 -3.93567,1.11769 -6.01913,2.01933c-3.89343,1.68492 -8.48177,2.43852 -12.321,3.82869c-0.78881,0.28563 -0.82026,3.17176 -0.96984,3.78994c-0.37855,1.48361 -0.55177,2.90078 -0.57254,4.28166c1.24144,-0.11111 2.48076,-0.31813 3.71947,-0.57049c0.13625,-0.82073 1.16778,-2.55124 1.61093,-2.77892c1.40298,-0.72082 3.46801,0.35426 4.90418,-0.08524c1.77231,-0.54236 3.58408,-1.86409 5.47594,-2.11239c1.54182,-0.20235 5.37627,0.24857 6.28867,1.63475c0.46537,0.70702 0.07439,3.2972 -0.62379,3.74562c-0.54584,0.35058 -1.29197,-0.11908 -1.93796,-0.17862c-1.39109,-0.35493 -2.78835,-0.4762 -4.18898,-0.44195c1.79758,1.13036 6.00307,0.8714 7.08884,2.831c0.83402,1.50524 0.6982,3.13964 0.14102,4.76292c0.28258,0.29549 0.28345,0.72551 0.28345,0.72551c0.00579,2.88806 1.1265,5.31651 1.48454,8.13884c0.53552,4.22138 0.02523,8.84919 0.03377,13.10837c0.00658,3.28112 -0.28214,6.48944 -0.27562,9.74026c0.00144,0.71775 -0.28568,2.30105 0.1185,2.96543c0.272,0.44708 1.01423,0.275 1.4921,0.48834c0.08491,0.0379 0.14697,0.15423 0.20671,0.25521c0.12179,0.00182 0.24347,0.00339 0.36499,0.00475c0.20933,-0.35454 -0.09383,-1.0154 -0.03833,-1.47906c0.23563,-1.96853 0.2758,-3.9008 0.2833,-5.90342c0.3137,-1.26552 0.53136,-2.54721 0.68286,-3.83992c-0.14513,-0.24303 -0.22439,-0.59557 0.05814,-1.02121c0.01808,-0.02724 0.03646,-0.053 0.05511,-0.07735c0.59536,-6.6381 -0.31858,-13.52637 1.24231,-19.97791c0.05442,-0.21952 0.10883,-0.43905 0.16324,-0.65858c-0.00819,-0.06568 -0.01593,-0.13138 -0.02316,-0.19708c-0.29591,-0.06812 -0.76251,-0.28377 -0.76388,-0.96654c-0.00127,-0.63366 0.39981,-0.8666 0.69383,-0.95223c0.06495,-1.60505 0.45488,-3.1234 1.23441,-4.32862c1.53888,-2.29744 4.08409,-4.50946 6.89809,-4.87877c5.32973,-0.69951 14.18472,2.36239 12.6434,9.05821c0.00182,0.90836 0.13933,2.354 -0.66617,3.02849c-0.00886,0.00743 -0.01785,0.01475 -0.02693,0.02197c-0.42495,3.10644 -1.99413,5.8662 -4.74058,7.70513c-1.97516,1.23373 -4.08678,0.73833 -6.28365,0.46819c-2.12562,-0.26138 -4.26671,-0.39795 -5.90158,-2.04442c-0.73782,-0.74308 -1.37063,-1.69315 -1.87227,-2.75873c-0.76709,5.46006 -0.16059,11.19475 -0.62921,16.73615c1.85222,1.44788 2.89715,3.40917 0.65793,5.25318c1.40523,-0.05252 2.89753,-0.13841 4.1751,0.39338c2.4425,1.01669 4.65029,2.48129 7.02488,3.46594c0.07577,-0.0155 0.15925,-0.02412 0.25118,-0.0243c0.45828,-0.00092 0.70695,0.20861 0.8419,0.43588c0.18846,0.0633 0.37828,0.12289 0.56966,0.17833c0.33598,0.09733 0.64505,0.22666 0.92325,0.38171c1.12242,-1.7987 1.73364,-3.68104 2.30656,-5.60756zM281.2821,129.93449c0.01193,5.94919 1.49914,11.69372 1.51119,17.70552l0.00216,1.0777c1.54033,-2.6501 5.79812,-3.63479 9.15046,-3.26913c1.82892,0.1995 4.21742,1.47956 6.08299,0.90865c0.65877,-0.2016 1.17856,-0.43915 1.7296,-0.62444c-3.56157,-2.50272 -2.10605,-6.04787 1.67752,-6.46898c0.00015,-0.0734 0.00015,-0.14684 0,-0.22031c-0.00837,-4.1739 0.50789,-8.72921 -0.01829,-12.86405c-0.26606,-2.09081 -0.92276,-3.96559 -1.27242,-5.96623c-0.8026,1.42139 -1.65655,2.75568 -2.13728,3.8943c-0.47599,1.12738 -0.70146,2.42913 -1.72181,3.3c-0.68069,0.58096 -1.57157,0.86027 -2.32054,1.35006c-5.24686,1.34946 -11.09495,-2.38597 -12.85583,-7.35441c0.36724,2.79612 0.16668,5.77085 0.17221,8.53131zM319.48289,103.40968c-2.1264,-0.00216 -4.61531,-0.69756 -6.67842,0.22305c-0.82177,0.36669 -1.59933,0.99051 -2.40335,1.47663c-0.05716,0.21464 -0.15134,0.53611 -0.25113,0.81213c0.88927,-0.55543 3.04864,-1.20911 3.31039,-1.24568c1.32327,-0.18481 2.50954,0.12608 3.78666,0.28756c2.18688,0.2765 4.49102,0.17393 6.77393,0.08264c-0.39822,-2.0255 -2.33435,-1.63408 -4.53809,-1.63632zM281.42319,114.72987c0,0 0.18594,-0.37374 0.55902,-0.51814l0.09224,-0.18094c1.16609,-1.49359 2.56846,-1.51288 4.31762,-2.16269c0.89542,-0.33265 1.66118,-1.04847 2.46411,-1.62865c-3.22288,0.70746 -6.44388,1.69129 -9.62894,2.00716c0.18945,2.23582 0.7253,4.4125 1.36888,6.66628c-0.08271,-1.37558 0.16512,-2.7928 0.82706,-4.18302zM293.82585,151.36454c2.46212,0.54184 5.00706,0.84005 7.54117,0.99323c-0.40343,-1.08156 -0.20449,-2.51804 -0.20661,-3.57401c-0.0009,-0.45035 0.00385,-0.8997 0.01268,-1.3484c-1.48994,0.11046 -2.46278,0.85589 -4.03103,0.88074c-3.83468,0.06075 -6.52706,-1.45392 -10.27828,-0.04152c-0.7123,0.26819 -1.33572,0.47492 -1.8152,0.74921c2.90806,0.21712 5.91002,1.70974 8.77726,2.34074zM307.08674,152.49904c2.05797,-0.41588 4.67062,0.31905 6.59649,-0.27032c1.40225,-0.42912 2.73083,-1.04647 4.11965,-1.58973c-3.43018,-1.47603 -5.7822,-2.943 -9.74178,-2.93506l-0.14269,0.18986c0,0 -0.13374,0.0672 -0.32374,0.09788c-0.01701,1.54612 -0.13323,3.11205 -0.6004,4.50772c0.03084,-0.00011 0.06166,-0.00022 0.09247,-0.00035zM300.93491,144.11532l0.34776,0.16681c0.04343,-1.00148 0.08894,-2.00385 0.11903,-3.01105c-1.81369,0.25776 -2.58449,1.50581 -0.46678,2.84424zM309.86013,119.49462c-0.01597,0.06441 -0.03193,0.12882 -0.04789,0.19324c0.34972,2.11129 1.25619,4.17452 2.45225,5.34543c1.31666,1.28898 3.05346,1.26974 4.7306,1.47597c1.52426,0.18743 3.61624,0.84499 4.93054,-0.14456c1.9372,-1.29708 3.37321,-3.33856 3.8255,-5.58246c-0.96353,-0.02277 -2.0535,-0.22802 -2.98146,-0.44286c-1.66536,5.606 -7.37921,1.85229 -10.59635,-0.25988c0,0 -0.41671,-0.27659 -0.4651,-0.73326c-0.6063,0.01058 -1.22056,0.01854 -1.84494,0.02037zM325.65801,118.25028l0.39088,0.12816l0.1877,-0.65596c0,0 0.07953,-0.24024 0.27946,-0.439c-0.01803,-0.08804 -0.02936,-0.17307 -0.02952,-0.25288c0.53503,-1.98429 -0.21174,-2.90246 -1.49384,-4.18513c-0.45576,-0.45597 -0.54979,-1.32798 -1.1544,-1.55177c-0.69864,-0.25859 -1.49787,-0.06731 -2.22148,-0.24441c-4.57849,-1.12064 -8.24317,-1.08107 -11.01995,3.14834c-0.57762,0.83993 -0.869,1.94939 -0.92978,3.15255c2.01989,-0.04019 4.08625,-0.1213 6.12817,-0.0672c3.25948,-0.01974 6.43152,0.11682 9.86277,0.96732zM292.32705,107.71845c2.23573,-0.28051 4.48198,-0.29301 6.74755,0.25512c0.86915,0.83349 0.4681,-0.44975 0.38138,-0.57088c-0.37921,-0.52977 -3.57342,-0.79753 -4.34113,-0.70509c-0.93806,0.11295 -1.86853,0.5598 -2.78779,1.02086zM292.95495,123.48962c-1.80861,0.58 -3.57489,-0.24658 -5.12332,-0.91774c-0.70042,-0.3036 -2.15388,-0.23451 -2.66527,-0.79236c-0.90606,-0.98837 -0.61924,-1.92781 -0.36159,-2.93384c-0.75978,-0.00952 -1.51954,-0.01489 -2.27906,-0.01441c0.31051,4.77352 6.0461,9.21615 10.62722,8.0989c0.5694,-0.39234 1.26998,-0.58338 1.8067,-1.01935c0.76263,-0.61947 0.87327,-1.80727 1.21777,-2.60875c0.55492,-1.29103 1.5543,-2.71406 2.38956,-4.20794l-0.30291,0.00061c-0.86758,0.00174 -1.73686,-0.00449 -2.60748,-0.01609c-0.41512,1.72776 -0.70816,3.77167 -2.70163,4.41096zM298.26005,117.09476l0.88542,-0.00177c0,0 0.15926,-0.00032 0.35079,0.06284c0.48686,-1.28229 0.68178,-2.59557 0.23554,-3.90473c-0.15899,-0.46646 -0.94853,-0.2688 -1.42762,-0.38428c-1.53246,-0.36932 -3.18125,-0.56255 -4.47735,-1.47979c-0.87491,0.04391 -2.14534,-0.22409 -2.96213,0.00594c-1.27354,0.35864 -2.47224,1.85105 -3.77498,2.3495c-0.95388,0.36498 -3.03328,0.62383 -3.34896,1.39439l-0.2318,0.48325c0,0 -0.17804,0.35785 -0.53523,0.50853c-0.0974,0.23284 -0.17854,0.46726 -0.24419,0.70266c5.18843,0.00392 10.39179,0.27375 15.53049,0.26345zM307.85566,144.07507c0.75091,-0.33846 0.62534,-0.82513 0.22232,-1.2865c-0.06489,0.43051 -0.13861,0.85943 -0.22232,1.2865z" fill="#000000" stroke="none" stroke-width="0.5"/><path d="M331.83181,123.58181c0.33001,-1.25898 0.65078,-2.55851 0.98819,-3.80184c0.12541,-0.46214 0.02386,-0.981 -0.03293,-1.4675c0.30845,-0.86494 0.7142,-1.71374 1.1582,-2.50196c0.74209,-1.3174 3.21192,-3.87117 3.7748,-1.25871c-0.02134,4.20311 -0.57015,7.47188 -3.56003,10.48717c-0.83414,0.84122 -1.09793,1.70172 -1.99807,1.98137c-0.23683,-1.1256 -0.35342,-2.28763 -0.33016,-3.43854z" data-paper-data="{&quot;noHover&quot;:false,&quot;origItem&quot;:[&quot;Path&quot;,{&quot;applyMatrix&quot;:true,&quot;segments&quot;:[[[268.21396,123.01191],[-0.23457,-1.12607],[0.90071,-0.27784]],[[270.20442,121.0316],[-0.83582,0.83955],[2.99592,-3.00929]],[[273.75586,110.64549],[-0.02976,4.20306],[-0.55764,-2.61359]],[[270.01088,111.90144],[0.74473,-1.31591],[-0.44558,0.78732]],[[268.87451,114.38655],[0.31018,-0.86432],[0.05582,0.4866]],[[268.9172,115.83051],[0.12634,-0.46189],[-0.3399,1.24265]],[[267.90567,119.58181],[0.33253,-1.25832],[-0.02556,1.15086]]],&quot;closed&quot;:true}]}" fill="#ffffff" stroke="none" stroke-width="0.5"/><path d="M309.81808,119.34522c0.62439,-0.00184 1.24134,-0.01476 1.84764,-0.02534c0.0484,0.45668 0.46361,0.73582 0.46361,0.73582c3.21714,2.11217 9.01862,5.86533 10.68398,0.25933c0.92796,0.21485 2.02226,0.43038 2.9858,0.45315c-0.45229,2.2439 -1.89696,4.33031 -3.83416,5.6274c-1.3143,0.98954 -3.45699,0.34982 -4.98124,0.16239c-1.67714,-0.20623 -3.44981,-0.2193 -4.76646,-1.50828c-1.19606,-1.17092 -2.10121,-3.27029 -2.45093,-5.38158c0.01597,-0.06441 0.03239,-0.12985 0.04835,-0.19427z" data-paper-data="{&quot;noHover&quot;:false,&quot;origItem&quot;:[&quot;Path&quot;,{&quot;applyMatrix&quot;:true,&quot;segments&quot;:[[[245.90918,115.48812],[0,0],[-0.0161,0.06438]],[[245.8609,115.68126],[0.0161,-0.06438],[0.34549,2.11199]],[[248.30242,121.0316],[-1.19371,-1.17332],[1.31407,1.29162]],[[253.03005,122.51705],[-1.67672,-0.20959],[1.52388,0.19048]],[[257.96087,122.38236],[-1.31628,0.98691],[1.9398,-1.2932]],[[261.79756,116.80758],[-0.45679,2.24299],[-0.96348,-0.0247]],[[258.81698,116.35875],[0.92753,0.21671],[-1.67658,5.60265]],[[248.22118,116.07763],[3.2129,2.11862],[0,0]],[[247.75755,115.34344],[0.04748,0.45677],[-0.60632,0.00937]],[[245.91257,115.36011],[0.62439,-0.00059],[0,0]]],&quot;closed&quot;:true}]}" fill="#ffffff" stroke="none" stroke-width="0.5"/><path d="M308.07415,142.73872c0.40303,0.46137 0.51299,1.04395 -0.23792,1.38241c0.08369,-0.42707 0.17303,-0.9519 0.23792,-1.38241z" data-paper-data="{&quot;noHover&quot;:false,&quot;origItem&quot;:[&quot;Path&quot;,{&quot;applyMatrix&quot;:true,&quot;segments&quot;:[[[243.85545,140.0645],[0.08455,-0.4269],[0.75159,-0.33695]],[[244.08034,138.77845],[0.40211,0.46218],[-0.06576,0.43038]]],&quot;closed&quot;:true}]}" fill="#ffffff" stroke="none" stroke-width="0.5"/><path d="M301.42668,141.22778c-0.03007,1.0072 -0.07825,2.0976 -0.12169,3.09908l-0.35567,-0.16367c-2.1177,-1.33843 -1.33634,-2.67765 0.47736,-2.93541z" data-paper-data="{&quot;noHover&quot;:false,&quot;origItem&quot;:[&quot;Path&quot;,{&quot;applyMatrix&quot;:true,&quot;segments&quot;:[[[236.93463,140.09088],[-2.11501,-1.34267],[0,0]],[[237.28205,140.25838],[0,0],[0.04544,-1.00139]],[[237.40711,137.24758],[-0.03209,1.00714],[-1.81421,0.25412]]],&quot;closed&quot;:true}]}" fill="#999999" stroke="none" stroke-width="0.5"/><path d="M306.94861,152.51975c0.46717,-1.39566 0.58326,-3.002 0.60026,-4.54811c0.19,-0.03068 0.32466,-0.09987 0.32466,-0.09987l0.14378,-0.19196c3.95959,-0.00793 6.40515,1.48819 9.83533,2.96422c-1.38881,0.54327 -2.74134,1.19839 -4.1436,1.6275c-1.92587,0.58936 -4.60987,-0.16774 -6.66783,0.24815c-0.03081,0.00013 -0.06177,-0.00005 -0.09261,0.00006z" data-paper-data="{&quot;noHover&quot;:false,&quot;origItem&quot;:[&quot;Path&quot;,{&quot;applyMatrix&quot;:true,&quot;segments&quot;:[[[243.06965,148.48691],[-0.03081,0.00007],[2.0588,-0.41176]],[[249.66667,148.22981],[-1.92705,0.5855],[1.40311,-0.42631]],[[253.7895,146.64835],[-1.3899,0.54048],[-3.42721,-1.4829]],[[244.05361,143.69377],[3.9596,0],[0,0]],[243.91054,143.88335],[[243.58661,143.98057],[0.19006,-0.03029],[-0.02011,1.54608]],[[242.97718,148.48708],[0.46997,-1.39472],[0.03084,-0.00005]]],&quot;closed&quot;:true}]}" fill="#999999" stroke="none" stroke-width="0.5"/><path d="M284.99887,149.01838c0.47949,-0.27428 1.10421,-0.48809 1.8165,-0.75628c3.75121,-1.41241 6.53833,0.09597 10.37301,0.03522c1.56826,-0.02485 2.5425,-0.76631 4.03245,-0.87678c-0.00884,0.4487 -0.01182,0.90586 -0.01092,1.35621c0.00211,1.05597 -0.19844,2.51382 0.205,3.59538c-2.5341,-0.15319 -5.10732,-0.41975 -7.56944,-0.9616c-2.86724,-0.63099 -5.93854,-2.17503 -8.8466,-2.39215z" data-paper-data="{&quot;noHover&quot;:false,&quot;origItem&quot;:[&quot;Path&quot;,{&quot;applyMatrix&quot;:true,&quot;segments&quot;:[[[229.81105,147.32584],[-2.86597,-0.63674],[2.46103,0.54678]],[[237.35022,148.33418],[-2.53379,-0.15827],[-0.40126,-1.08236]],[[237.15078,144.75977],[0,1.05597],[0,-0.45036]],[[237.16616,143.41141],[-0.00974,0.44868],[-1.49016,0.10748]],[[233.13337,144.28406],[1.56831,-0.0217],[-3.83479,0.05306]],[[222.8552,144.22195],[3.75403,-1.40489],[-0.71284,0.26676]],[[221.03849,144.9675],[0.48003,-0.27332],[2.90762,0.22295]]],&quot;closed&quot;:true}]}" fill="#999999" stroke="none" stroke-width="0.5"/><path d="M316.65494,159.11543c-3.98167,2.88728 -8.94137,4.34741 -14.17575,4.35791c-2.45741,0.02231 -3.71845,-1.08687 -5.73705,-2.23757c-1.80047,-1.02636 -4.22206,-1.58582 -5.71142,-3.10001c-2.12265,-2.15803 -4.36816,-5.11845 -6.98454,-6.66147c-0.03517,-0.21026 -0.05536,-0.40444 -0.06224,-0.58197c0.22269,0.09042 0.42484,0.08991 0.42484,0.08991c2.84425,-0.05746 6.09182,1.69017 8.93561,2.31628c3.83848,0.8451 7.9476,1.07608 11.84882,1.13487c0.23951,0.02757 0.46601,0.03672 0.65618,0.0127c0.49378,0.00488 0.99206,0.01541 1.48032,0.01554c2.24458,-0.45359 4.8223,0.26327 6.98518,-0.333c2.16989,-0.5982 4.0536,-1.75549 6.3451,-2.33324l0.1025,-0.0409c1.27704,0.56425 2.31656,1.27584 1.11454,1.8792c-0.4266,0.64269 -0.8789,1.25749 -1.35624,1.8357c-0.37473,0.27204 -0.7591,0.54413 -1.15483,0.81308c-0.41708,0.00277 -0.72874,0.31662 -0.72874,0.31662l-0.94974,0.96365c-0.34496,0.51502 -0.68926,1.03657 -1.03252,1.55268z" data-paper-data="{&quot;noHover&quot;:false,&quot;origItem&quot;:[&quot;Path&quot;,{&quot;applyMatrix&quot;:true,&quot;segments&quot;:[[[253.61024,153.57032],[-0.34599,0.51432],[0,0]],[254.5619,152.61178],[[255.29132,152.29752],[-0.41708,0.00193],[0.39627,-0.26816]],[[256.44793,151.4889],[-0.37527,0.27129],[0.4785,-0.57725]],[[257.80846,149.66036],[-0.42789,0.64184],[1.20324,-0.60095]],[[256.69903,147.78435],[1.27591,0.56681],[0,0]],[[256.69211,147.79591],[0,0],[-2.29265,0.57316]],[[250.24624,150.14399],[2.17108,-0.59385],[-2.16407,0.59194]],[[243.26673,150.47717],[2.24549,-0.44909],[-0.48826,-0.00111]],[[241.79335,150.46712],[0.49376,0.00587],[-0.1902,0.02364]],[[241.14262,150.45773],[0.23946,0.02805],[-3.90109,-0.06661]],[[229.37227,149.27711],[3.83678,0.85279],[-2.84253,-0.6318]],[[220.44226,146.94034],[2.84436,-0.05176],[0,0]],[[220.01764,146.84947],[0.22251,0.09087],[0.00652,0.17755]],[[220.07911,147.43028],[-0.03474,-0.21033],[2.61328,1.54826]],[[227.05221,154.08748],[-2.11832,-2.16228],[1.48632,1.51717]],[[232.74987,157.17625],[-1.79841,-1.02996],[2.0163,1.15474]],[[238.44592,159.40229],[-2.45745,0.01739],[5.23439,0]],[[252.57511,155.11512],[-3.98744,2.87929],[0.3443,-0.51542]]],&quot;closed&quot;:true}]}" fill="#999999" stroke="none" stroke-width="0.5"/><path d="M281.07894,121.3639c1.76087,4.96844 7.6604,8.69755 12.90727,7.34809c0.74897,-0.48979 1.64782,-0.76461 2.3285,-1.34556c1.02035,-0.87087 1.19046,-2.08936 1.66646,-3.21675c0.48073,-1.13862 1.38772,-2.55767 2.19033,-3.97907c0.34966,2.00064 1.01874,3.88618 1.28479,5.97699c0.52618,4.13485 0.01688,8.74277 0.02524,12.91667c0.00014,0.07348 -0.00023,0.14773 -0.00037,0.22113c-3.78357,0.4211 -5.25442,3.98485 -1.69285,6.48757c-0.55104,0.18529 -1.07628,0.42636 -1.73504,0.62795c-1.86557,0.5709 -4.27593,-0.70289 -6.10485,-0.90239c-3.35236,-0.36567 -7.63847,0.61189 -9.1788,3.26199l-0.00365,-1.07865c-0.01205,-6.01181 -1.51756,-11.81863 -1.52948,-17.76782c-0.00553,-2.76046 0.20971,-5.75403 -0.15753,-8.55015z" data-paper-data="{&quot;noHover&quot;:false,&quot;origItem&quot;:[&quot;Path&quot;,{&quot;applyMatrix&quot;:true,&quot;segments&quot;:[[[217.31028,125.87069],[0,-2.76046],[0,5.9492]],[[218.78599,143.5792],[0,-6.01182],[0,0]],[[218.78599,144.65691],[0,0],[1.54563,-2.64701]],[[227.94299,141.40613],[-3.35162,-0.37239],[1.82852,0.20316]],[[234.02415,142.32697],[-1.86671,0.56716],[0.65917,-0.20028]],[[235.755,141.706],[-0.55141,0.18419],[-3.55655,-2.50985]],[[237.44548,135.2404],[-3.78441,0.41352],[0.00029,-0.0734]],[[237.44592,135.02009],[0,0.07348],[0,-4.1739]],[[237.45341,122.15603],[0.51789,4.13589],[-0.26187,-2.09134]],[[236.19296,116.18725],[0.34564,2.00134],[-0.80545,1.41978]],[[234.04788,120.07726],[0.48301,-1.13765],[-0.47825,1.12643]],[[232.31946,123.37381],[1.02209,-0.86882],[-0.68185,0.57959]],[[229.99622,124.71921],[0.74995,-0.48828],[-5.24956,1.33894]],[[217.15516,117.33905],[1.75091,4.97196],[0.36163,2.79685]]],&quot;closed&quot;:true}]}" fill="#999999" stroke="none" stroke-width="0.5"/><path d="M315.76347,117.32155c-2.04192,-0.0541 -4.12375,0.00476 -6.14364,0.04495c0.06078,-1.20316 0.34943,-2.33038 0.92705,-3.1703c2.77678,-4.22942 6.52728,-4.30244 11.10577,-3.18181c0.72361,0.17711 1.53083,-0.00337 2.22947,0.25522c0.6046,0.22379 0.70353,1.1087 1.1593,1.56467c1.28211,1.28268 2.02783,2.22702 1.4928,4.21131c0.00016,0.07981 0.01109,0.16609 0.02912,0.25413c-0.19991,0.19876 -0.28048,0.44172 -0.28048,0.44172l-0.18931,0.65947l-0.39103,-0.12784c-3.43124,-0.85051 -6.67956,-0.97126 -9.93905,-0.95152z" data-paper-data="{&quot;noHover&quot;:false,&quot;origItem&quot;:[&quot;Path&quot;,{&quot;applyMatrix&quot;:true,&quot;segments&quot;:[[[261.70952,114.27544],[-3.42953,-0.85738],[0,0]],[262.10014,114.40438],[262.28915,113.74879],[[262.56949,113.31035],[-0.20031,0.19836],[-0.01785,-0.08808]],[[262.54047,113.05741],[0,0.07981],[0.539,-1.98321]],[[261.05502,108.86928],[1.27954,1.28525],[-0.45485,-0.45688]],[[259.90374,107.3152],[0.60415,0.225],[-0.69812,-0.25999]],[[257.68275,107.06633],[0.72325,0.17856],[-4.57623,-1.12981]],[[246.65652,110.19259],[2.78525,-4.22384],[-0.5793,0.83877]],[[245.72042,113.34326],[0.06319,-1.20303],[2.01996,-0.03614]],[[251.84871,113.28834],[-2.04181,-0.05819],[3.25951,-0.01321]]],&quot;closed&quot;:true}]}" fill="#999999" stroke="none" stroke-width="0.5"/><path d="M280.56498,118.95201c-0.64358,-2.25378 -1.1933,-4.49135 -1.38275,-6.72716c3.18506,-0.31587 6.4882,-1.31144 9.71108,-2.0189c-0.80293,0.58018 -1.63851,1.36732 -2.53394,1.69996c-1.74915,0.64981 -3.07064,0.64462 -4.23673,2.13822l-0.0912,0.17631c-0.37308,0.14441 -0.55833,0.50653 -0.55833,0.50653c-0.66195,1.39022 -0.99085,2.84945 -0.90813,4.22504z" data-paper-data="{&quot;noHover&quot;:false,&quot;origItem&quot;:[&quot;Path&quot;,{&quot;applyMatrix&quot;:true,&quot;segments&quot;:[[[217.48184,110.66638],[-0.66473,1.38889],[0,0]],[[218.0419,110.14936],[-0.37337,0.14366],[0,0]],[[218.1345,109.96861],[0,0],[1.16908,-1.49125]],[[222.45645,107.81458],[-1.75045,0.6463],[0.89608,-0.33085]],[[224.92382,106.19087],[-0.80409,0.57857],[-3.22429,0.701]],[[215.29088,108.17873],[3.18569,-0.30949],[0.18497,2.23619]],[[216.6464,114.84774],[-0.63906,-2.25507],[-0.07996,-1.37575]]],&quot;closed&quot;:true}]}" fill="#999999" stroke="none" stroke-width="0.5"/><path d="M295.61679,119.10894c0.87062,0.0116 1.82439,-0.03486 2.69197,-0.0366l0.30323,0.00007c-0.83527,1.49388 -1.82975,2.94167 -2.38468,4.2327c-0.3445,0.80148 -0.46352,2.01406 -1.22613,2.63353c-0.53673,0.43597 -1.25147,0.64102 -1.82086,1.03336c-4.58112,1.11726 -10.38856,-3.39007 -10.69907,-8.1636c0.75951,-0.00048 1.6044,0.05687 2.36418,0.06638c-0.25765,1.00604 -0.5363,1.92707 0.36976,2.91544c0.5114,0.55784 1.96552,0.48513 2.66593,0.78873c1.54844,0.67116 3.21638,1.4799 5.02499,0.89991c1.99347,-0.63929 2.29556,-2.64218 2.71068,-4.36994z" data-paper-data="{&quot;noHover&quot;:false,&quot;origItem&quot;:[&quot;Path&quot;,{&quot;applyMatrix&quot;:true,&quot;segments&quot;:[[[228.99602,119.44923],[1.99475,-0.63529],[-1.80977,0.57637]],[[223.87455,118.52123],[1.54709,0.67426],[-0.69981,-0.305]],[[221.21087,117.72354],[0.51028,0.55887],[-0.90408,-0.99018]],[[220.85516,114.78898],[-0.25967,1.00552],[-0.75976,-0.01104]],[[218.57615,114.77001],[0.75951,0.00104],[0.30094,4.77413]],[[229.18711,122.89018],[-4.58335,1.10807],[0.57018,-0.3912]],[[230.99585,121.87445],[-0.5376,0.43489],[0.76387,-0.61794]],[[232.21885,119.26816],[-0.34611,0.80079],[0.55751,-1.28992]],[[234.61684,115.06501],[-0.83826,1.4922],[0,0]],[[234.31393,115.06501],[0,0],[-0.86758,0]],[[231.70649,115.04369],[0.8706,0.01334],[-0.41858,1.72692]]],&quot;closed&quot;:true}]}" fill="#ffffff" stroke="none" stroke-width="0.5"/><path d="M282.68168,116.84572c0.06565,-0.2354 0.14589,-0.47322 0.24329,-0.70606c0.35719,-0.15068 0.53476,-0.51087 0.53476,-0.51087l0.23139,-0.48607c0.31568,-0.77056 2.39505,-1.04103 3.34893,-1.40601c1.30273,-0.49845 2.54265,-2.03438 3.8162,-2.39304c0.81679,-0.23003 2.12846,0.0495 3.00338,0.00559c1.2961,0.91724 2.96117,1.13855 4.49362,1.50787c0.4791,0.11547 1.26923,-0.07835 1.42823,0.38811c0.44624,1.30916 0.24872,2.64515 -0.23814,3.92744c-0.19154,-0.06317 -0.3509,-0.06252 -0.3509,-0.06252l-0.88617,0.00369c-5.1387,0.0103 -10.43614,-0.26424 -15.62457,-0.26816z" data-paper-data="{&quot;noHover&quot;:false,&quot;origItem&quot;:[&quot;Path&quot;,{&quot;applyMatrix&quot;:true,&quot;segments&quot;:[[[234.31393,113.06501],[-5.13871,0],[0,0]],[235.19936,113.06501],[[235.55002,113.12857],[-0.19141,-0.06355],[0.48943,-1.28132]],[[235.79339,109.22432],[0.44362,1.31005],[-0.15806,-0.46678]],[[234.36654,108.83718],[0.47887,0.11643],[-1.53171,-0.37239]],[[229.89216,107.34842],[1.29426,0.91983],[-0.875,0.04215]],[[226.93003,107.34842],[0.81725,-0.22839],[-1.27426,0.35609]],[[223.15035,109.69035],[1.30373,-0.49584],[-0.95461,0.36307]],[[219.7986,111.07801],[0.31723,-0.76993],[0,0]],[219.56584,111.56081],[[219.02959,112.06827],[0.3575,-0.14996],[-0.09787,0.23264]],[[218.784,112.77044],[0.06612,-0.23527],[5.18841,0.01431]]],&quot;closed&quot;:true}]}" fill="#999999" stroke="none" stroke-width="0.5"/><path d="M322.82057,150.55512c-0.2782,-0.15505 -0.58808,-0.28391 -0.92407,-0.38125c-0.19137,-0.05544 -0.38176,-0.11472 -0.57022,-0.17803c-0.13494,-0.22727 -0.38439,-0.43638 -0.84266,-0.43547c-0.09193,0.00019 -0.17573,0.00897 -0.2515,0.02447c-2.3746,-0.98466 -4.59102,-2.44585 -7.03351,-3.46254c-1.27757,-0.53179 -2.77778,-0.44428 -4.18301,-0.39176c2.23923,-1.84401 1.19424,-3.80528 -0.65798,-5.25317c0.46862,-5.54139 -0.18472,-11.35457 0.58237,-16.81463c0.50164,1.06559 1.14005,2.00903 1.87788,2.7521c1.63486,1.64648 3.76911,1.79153 5.89473,2.0529c2.19687,0.27014 4.30378,0.77494 6.27893,-0.4588c2.74646,-1.83894 4.31252,-4.57805 4.73747,-7.68449c0.00908,-0.00722 0.01806,-0.0145 0.02692,-0.02192c0.8055,-0.6745 0.66883,-2.11365 0.66701,-3.022c1.54134,-6.69581 -7.29397,-9.72682 -12.62369,-9.02732c-2.814,0.36933 -5.34565,2.5883 -6.88453,4.88575c-0.77953,1.20522 -1.13577,2.62942 -1.20072,4.23449c-0.29402,0.08563 -0.69938,0.31714 -0.69811,0.95081c0.00137,0.68277 0.48392,0.9062 0.77984,0.97431c0.00723,0.06571 0.01693,0.13293 0.02513,0.19861c-0.05442,0.21952 -0.10384,0.4437 -0.15825,0.66323c-1.5609,6.45154 -0.68262,13.42399 -1.27799,20.06209c-0.01866,0.02434 -0.03718,0.05012 -0.05527,0.07736c-0.28254,0.42564 -0.20345,0.77818 -0.05832,1.02121c-0.1515,1.29271 -0.3707,2.5744 -0.68439,3.83992c-0.00751,2.00262 -0.04796,3.93489 -0.28358,5.90342c-0.0555,0.46366 0.2478,1.12452 0.03847,1.47905c-0.12152,-0.00136 -0.24378,-0.00294 -0.36559,-0.00476c-0.05973,-0.10098 -0.12215,-0.21731 -0.20706,-0.25522c-0.47786,-0.21334 -1.2226,-0.04143 -1.49459,-0.48852c-0.40418,-0.66438 -0.11778,-2.24774 -0.11922,-2.96549c-0.00651,-3.2508 0.28004,-6.45941 0.27346,-9.74054c-0.00854,-4.2592 0.48279,-8.89402 -0.05274,-13.11541c-0.35804,-2.82233 -1.48897,-5.32714 -1.49476,-8.21519c0,0 0.00101,-0.43192 -0.28157,-0.72741c0.55718,-1.62328 0.74989,-3.17694 -0.08413,-4.68218c-1.08577,-1.95959 -5.27869,-1.70943 -7.07628,-2.83979c1.40063,-0.03424 2.73638,0.00879 4.12747,0.36372c0.64598,0.05954 1.39737,0.52627 1.94321,0.17569c0.69818,-0.44842 1.12614,-2.94593 0.66077,-3.65295c-0.9124,-1.38616 -4.73457,-1.84301 -6.27639,-1.64066c-1.89187,0.24831 -3.69384,1.56154 -5.46615,2.1039c-1.43617,0.4395 -3.4973,-0.6406 -4.90027,0.08023c-0.44315,0.22768 -1.47153,1.95291 -1.60779,2.77365c-1.23871,0.25237 -2.56853,0.41702 -3.80997,0.52812c0.02078,-1.38088 0.19708,-2.80413 0.57562,-4.28774c0.14956,-0.61819 0.18431,-3.50918 0.97313,-3.79481c3.83924,-1.39019 8.4428,-2.15698 12.33622,-3.8419c2.08346,-0.90164 3.60557,-1.98278 6.03019,-2.02389c2.25331,-1.09189 4.68674,-2.03434 6.97027,-3.02593c0.67947,-0.29505 1.47004,-0.27546 2.16723,-0.51802c-0.51262,0.51677 -1.02288,1.23975 -1.43403,1.58495c-1.44833,1.21605 -2.79599,2.43295 -3.95874,3.88556l-0.0085,0.00428l-0.06956,-0.10408l-0.86936,0.5831c-0.27535,0.17861 -0.45592,0.48869 -0.45522,0.84131c0.00111,0.55228 0.43062,0.90096 0.9829,0.89985c0.16796,-0.00034 0.32725,-0.04223 0.46608,-0.11568l1.1642,-0.58397l-0.01186,-0.02355l0.06665,-0.00609c1.93584,-1.29137 4.02441,-1.40801 6.23029,-1.96958c4.25321,-1.08278 9.55818,-3.18401 13.16633,-5.68668c2.37134,-0.59788 3.17428,-1.83205 5.80128,-1.14642c1.88803,0.49277 1.62347,2.25074 1.98733,3.71193c1.00001,4.01585 1.76598,7.73273 1.77427,11.86685c0.00237,0.26153 -0.08927,0.57055 -0.09903,0.83086c-1.76767,-0.4275 -3.34313,-1.35256 -4.89565,-2.31365c-0.65904,-0.01791 -1.32585,-0.01233 -1.99965,0.00271c-0.49591,-4.16973 -4.1159,-3.10684 -7.60587,-3.54809c-2.01667,-0.25498 -4.45384,-0.43518 -6.41705,0.39125c-1.01786,0.42847 -1.98029,1.29584 -2.98419,1.79837l-0.84659,0.77959c0,0 -0.69323,0.6093 0.01529,1.31499c0.00575,0.00573 0.01156,0.01138 0.01731,0.01692c-0.15337,0.80044 -0.18283,1.67394 0.37619,2.12976c1.31814,1.0748 3.90091,-1.1379 5.17599,-1.27711c3.56087,-0.38879 7.40983,0.16297 11.13175,0.26541c0.08175,0.01822 0.17292,0.02858 0.27405,0.02838c0.07687,-0.00015 0.14796,-0.00602 0.21346,-0.01705c0.72348,0.01205 1.44356,0.00726 2.15455,-0.02841c1.49995,1.11992 3.27437,1.90502 5.07353,2.37122l0.21439,0.12167c-0.36678,2.57312 -1.15532,5.08727 -1.79534,7.48761c-0.07391,0.27718 -0.06283,0.5675 -0.03027,0.85898c-0.58749,1.66385 -0.93759,3.44464 -1.02923,5.22318c-0.70877,2.61312 -1.3392,5.29325 -1.8226,8.00094c-2.18712,2.90749 -0.83568,6.38502 -1.24987,9.74738c-0.20727,1.68268 -1.28429,2.76206 -1.73212,4.26794c-0.57292,1.92651 -1.19074,3.81343 -2.31316,5.61213z" data-paper-data="{&quot;noHover&quot;:false,&quot;origItem&quot;:[&quot;Path&quot;,{&quot;applyMatrix&quot;:true,&quot;segments&quot;:[[[261.10017,140.92828],[-0.57678,1.92536],[0.45085,-1.50499]],[[262.83561,136.66876],[-0.21064,1.68226],[0.42092,-3.36153]],[[264.09578,126.93823],[-2.19294,2.9031],[0.48881,-2.70672]],[[265.93053,118.95768],[-0.714,2.6117],[0.09521,-1.77836]],[[266.97074,113.74708],[-0.59082,1.66267],[-0.03197,-0.29154]],[[267.00302,112.8898],[-0.07446,0.27703],[0.64483,-2.39905]],[[268.81701,105.41726],[-0.37194,2.57238],[0,0]],[[268.603,105.29547],[0,0],[-1.79822,-0.46981]],[[263.53834,102.92129],[1.4977,1.12293],[-0.71105,0.03425]],[[261.38518,102.94738],[0.72345,0.0135],[-0.06551,0.01091]],[[261.17184,102.9642],[0.07687,0],[-0.10113,0]],[[260.8981,102.93558],[0.08171,0.01838],[-3.72171,-0.1099]],[[249.78349,102.66156],[3.56164,-0.38165],[-1.27535,0.13666]],[[244.61877,103.93297],[1.31598,1.07744],[-0.5581,-0.45694]],[[244.24916,101.80282],[-0.15498,0.80013],[-0.00574,-0.00556]],[[244.23193,101.78588],[0.00574,0.00574],[-0.70711,-0.7071]],[244.23193,100.37166],[[245.08211,99.59406],[0,0],[1.00491,-0.50052]],[[248.07619,97.80312],[-1.01871,0.42643],[1.96486,-0.8225]],[[254.50576,97.42999],[-2.01615,-0.25902],[3.48906,0.44826]],[[262.11681,101.00398],[-0.48755,-4.17072],[0.67383,-0.01369]],[[264.11791,101.0071],[-0.659,-0.01923],[1.55059,0.96421]],[[269.01318,103.33725],[-1.76681,-0.43104],[0.01027,-0.26031]],[[269.0261,102.55448],[0.00185,0.26153],[0,-4.13414]],[[267.28511,90.6962],[0.99196,4.01784],[-0.36093,-1.46193]],[[265.30919,86.98363],[1.88704,0.49655],[-2.62563,-0.69089]],[[259.5104,88.12162],[2.37253,-0.59313],[-3.61316,2.49542]],[[246.34936,93.78805],[4.25537,-1.07425],[-2.20699,0.55715]],[[240.12841,95.7457],[1.93843,-1.28749],[0,0]],[240.06191,95.75164],[240.0737,95.77522],[[238.91113,96.35651],[0,0],[-0.13897,0.07317]],[[238.44592,96.47108],[0.16796,0],[-0.55229,0]],[[237.44592,95.47108],[0,0.55228],[0,-0.35262]],[[237.90412,94.63042],[-0.2757,0.17806],[0,0]],[238.77664,94.04874],[238.84611,94.15294],[[238.85464,94.14868],[0,0],[1.16565,-1.45028]],[[242.82934,90.2706],[-1.45076,1.21314],[0.41184,-0.34439]],[[244.26156,88.78838],[-0.51366,0.51574],[-0.69767,0.24116]],[[242.09703,89.30218],[0.68006,-0.29369],[-2.28553,0.98702]],[[235.13397,92.31234],[2.25549,-1.08737],[-2.4247,0.03625]],[[229.11079,94.3196],[2.08526,-0.89746],[-3.89679,1.67711]],[[216.78214,98.1236],[3.84202,-1.38249],[-0.78939,0.28405]],[[215.80471,101.91159],[0.1508,-0.61789],[-0.38152,1.48285]],[[215.22359,106.1921],[0.02355,-1.38084],[1.24166,-0.10862]],[[218.94419,105.62907],[-1.23921,0.24988],[0.1379,-0.82046]],[[220.56069,102.85337],[-0.4436,0.22679],[1.40442,-0.71801]],[[225.46503,102.77796],[-1.43705,0.43662],[1.77339,-0.53881]],[[230.94519,100.67655],[-1.89236,0.24451],[1.54222,-0.19926]],[[237.23058,102.32389],[-0.90962,-1.38799],[0.46396,0.70795]],[[236.59928,106.06825],[0.69908,-0.44702],[-0.54654,0.34949]],[[234.66168,105.88576],[0.64586,0.06083],[-1.39037,-0.35772]],[[230.47359,105.43541],[1.4007,-0.03143],[1.79531,1.13396]],[[237.55674,108.2806],[-1.08184,-1.96176],[0.831,1.50691]],[[237.68822,113.04379],[0.56043,-1.62216],[0.28199,0.29606]],[[237.97021,113.76987],[0,0],[0,2.88806]],[[239.43843,121.91166],[-0.35238,-2.82304],[0.52706,4.22245]],[[239.44592,135.02009],[0,-4.2592],[0,3.28113]],[[239.15078,144.75977],[0,-3.25081],[0,0.71775]],[[239.26333,147.72542],[-0.40285,-0.66519],[0.2711,0.44763]],[[240.75445,148.21676],[-0.47744,-0.2143],[0.08483,0.03807]],[[240.96064,148.47237],[-0.05953,-0.1011],[0.12179,0.00206]],[[241.32563,148.47785],[-0.12152,-0.00161],[0.21004,-0.35412]],[[241.29026,146.99872],[-0.05643,0.46355],[0.23958,-1.96805]],[[241.5854,141.09588],[-0.01152,2.0026],[0.31623,-1.26489]],[[242.27595,137.25733],[-0.15409,1.29241],[-0.14464,-0.24332]],[[242.33614,136.23624],[-0.28339,0.42508],[0.01814,-0.02721]],[[242.39141,136.15899],[-0.0187,0.02431],[0.60867,-6.63689]],[[243.67376,116.18361],[-1.57382,6.4484],[0.05486,-0.21941]],[[243.83832,115.52536],[-0.05486,0.21941],[-0.00806,-0.0657]],[[243.81556,115.32823],[0.0071,0.06572],[-0.29577,-0.06871]],[[243.05361,114.36016],[0,0.68277],[0,-0.63366]],[[243.74934,113.40932],[-0.29419,0.08504],[0.06817,-1.60492]],[[244.99242,109.08319],[-0.78194,1.20365],[1.54348,-2.29435]],[[251.90026,104.21825],[-2.81473,0.36369],[5.33112,-0.68882]],[[264.52549,113.30177],[1.55475,-6.69271],[0,0.90836]],[[263.85325,116.32893],[0.80685,-0.67288],[-0.00888,0.00741]],[[263.82628,116.35085],[0.0091,-0.0072],[-0.43117,3.10558]],[[259.07027,124.04646],[2.75014,-1.83343],[-1.97763,1.22977]],[[252.78569,124.50206],[2.19632,0.27454],[-2.12509,-0.26564]],[[246.88821,122.44581],[1.63156,1.64975],[-0.73633,-0.74455]],[[245.02148,119.68333],[0.4995,1.06659],[-0.77803,5.45851]],[[244.35874,136.41818],[0.47973,-5.54044],[1.84931,1.45159]],[[245.00613,141.67266],[2.24292,-1.83952],[1.40533,-0.0497]],[[249.18044,142.07441],[-1.2765,-0.53435],[2.44045,1.02158]],[[256.19835,145.55442],[-2.37262,-0.98942],[0.07581,-0.01535]],[[256.44957,145.53062],[-0.09193,0],[0.45828,0]],[[257.2906,145.96818],[-0.13449,-0.22754],[0.18833,0.06368]],[[257.85989,146.14765],[-0.19126,-0.05582],[0.33578,0.09801]],[[258.78238,146.53121],[-0.27789,-0.15561],[1.12602,-1.79645]]],&quot;closed&quot;:true}]}" fill="#999999" stroke="none" stroke-width="0.5"/><path d="M280.2088,119.56435c0.21057,1.00842 0.47458,2.00792 0.59149,3.04892c0.67683,6.02647 0.6915,11.78002 -1.55097,17.39032c-1.98968,2.59148 -6.67484,1.75956 -7.74911,-1.34564c-2.27999,-6.59032 -2.1374,-14.93711 -2.1512,-21.82603c-0.00356,-1.77232 -0.43629,-3.9149 0.82982,-5.38574c1.5387,-1.78753 6.64341,-1.10052 8.36646,0.09416c1.90001,1.31738 1.6672,5.7748 1.66352,8.02404z" fill="#c300f0" stroke="none" stroke-width="0.5"/><path d="M331.69559,116.92005c-0.36707,-0.29053 -0.36809,-0.80265 -0.36809,-0.80265l-0.0006,-0.29516c-0.0038,-1.89789 -0.87467,-6.56493 1.10306,-7.67215c1.77735,-0.99504 4.62549,0.80074 6.37095,0.79725c2.79083,1.79216 2.19429,4.17625 2.20025,7.15067c0.01358,6.77453 0.12284,14.44239 -4.34997,19.79226c-3.39979,0.11792 -4.72419,-2.05836 -5.82219,-4.96295c-1.8582,-4.9156 0.16836,-9.26632 0.86658,-14.00727z" fill="#c300f0" stroke="none" stroke-width="0.5"/><path d="M275.69233,112.65033c-0.15424,-0.26617 -0.15482,-0.55312 -0.15482,-0.55312l-0.00118,-0.59028c-0.00089,-0.4453 -0.03331,-2.59469 0.11264,-2.83323c1.30113,-2.12647 5.53766,-0.97866 6.26802,1.05494c1.02547,2.8553 0.05866,7.86166 0.06478,10.91478c0.01074,5.35832 0.91644,10.39728 0.32183,15.74045c-0.20916,1.87943 -1.18449,7.43906 -4.4613,5.48333c-1.30174,-0.77693 -1.32144,-4.07925 -1.65827,-5.44742c-0.0596,-7.68393 -1.74517,-16.0353 -0.4917,-23.76946z" fill="#00b539" stroke="none" stroke-width="0.5"/><path d="M329.11482,111.96727c-0.45248,-0.27305 -0.45365,-0.86195 -0.45365,-0.86195l-0.0006,-0.29514c0.00276,-1.5306 -0.03731,-5.24872 1.41774,-6.20578c0.78236,-0.5146 4.27731,0.79876 4.77989,1.43563c1.04708,1.32686 0.37061,1.84085 0.21869,3.10861c-0.26227,2.18867 -0.07775,4.45862 -0.59939,6.61468c-0.8066,3.16131 -0.96129,7.58964 -0.54617,10.8518c0.26306,2.0672 1.43095,4.09387 0.8787,6.25302c-0.52687,2.05994 -3.12723,5.78149 -5.32574,3.30839c-0.7644,-0.85986 -0.65015,-2.76651 -1.32792,-3.82531c-0.13277,-4.25711 -0.47992,-8.86715 -0.06168,-13.10298c0.24322,-2.46324 0.77184,-4.84105 1.02013,-7.28099z" fill="#00b539" stroke="none" stroke-width="0.5"/><path d="M337.67009,127.29979c-2.34258,-0.87312 -1.46946,-3.21569 -1.46946,-3.21569l0.82533,-2.1968c2.15582,-9.90744 5.46443,-19.86216 5.44412,-29.99391c-0.00545,-7.04594 -0.60293,-14.68179 -2.59573,-21.41867c-0.64894,-2.19381 -0.56069,-5.45181 -1.58083,-7.47446c-1.19591,-2.37114 -5.27097,-3.27532 -7.50777,-3.76494c-5.3871,-1.17917 -10.52731,-2.93743 -16.06744,-3.4775c-14.54201,-2.86371 -33.51548,-3.79095 -41.67199,11.47765c-1.52939,2.86294 -1.97986,6.44412 -2.67247,9.56965c-1.19919,11.07756 -3.08339,22.34708 -1.97703,33.58435c0.55164,5.60303 2.29856,11.04195 3.52746,16.52008c0,0 0.54722,2.43937 -1.89216,2.98658c-2.43937,0.54722 -2.98659,-1.89216 -2.98659,-1.89216c-1.27274,-5.67363 -3.06473,-11.30529 -3.62337,-17.11184c-1.12413,-11.68451 0.7517,-23.37519 2.0177,-34.89671c0.80491,-3.67903 1.40719,-7.72834 3.18894,-11.10206c9.13954,-17.30562 30.13284,-17.40245 46.81953,-14.08196c4.77578,0.47023 9.34766,1.65786 13.92441,2.99948c4.66432,1.36728 10.60577,1.90075 13.29898,6.77456c1.28784,2.33053 1.23343,5.89748 1.99281,8.45606c2.13766,7.20247 2.78195,15.31601 2.80553,22.84187c0.02128,10.61616 -3.34381,21.05366 -5.64822,31.41795l-0.93606,2.52901c0,0 -0.87312,2.34258 -3.21569,1.46946z" fill="#82007c" stroke="none" stroke-width="0.5"/><path d="M276.27125,183.67993c-0.46198,-0.61418 -1.393,-2.89097 -2.07635,-3.25785c-3.87409,-2.07995 -5.61541,0.19721 -9.12312,1.40302c-1.16975,0.00888 -2.86194,0.17506 -3.91145,-0.52777c-2.39104,-1.60123 -3.13182,-5.30842 -1.45117,-7.62422c1.02768,-1.41605 3.39967,-2.46999 3.59456,-4.37141c0.22766,-2.22112 -3.44302,-3.51851 -3.8194,-5.54102c-0.48345,-2.59791 2.57615,-4.59634 4.1596,-6.18616c0.13934,-0.13956 1.94301,-1.8985 2.06109,-2.19028c0.44981,-1.11148 -0.40521,-3.03098 -0.63537,-4.02006c-0.60677,-2.60741 -2.66246,-7.88653 -1.73019,-10.50178c1.23718,-3.47059 6.42971,-4.77478 8.81565,-7.21147c0,0 0.88211,-0.88565 1.76777,-0.00355c0.88565,0.8821 0.00354,1.76777 0.00354,1.76777c-2.11902,2.09936 -7.11076,3.56246 -8.27534,6.39933c-0.51536,1.2554 0.92303,3.92347 1.23967,5.08518c0.62691,2.30008 2.09597,6.96839 1.175,9.30735c-0.37704,0.95755 -1.88951,2.36598 -2.65051,3.13172c-0.54675,0.54893 -3.78353,3.03423 -3.49396,3.86404c0.83035,2.37949 4.14153,3.05323 3.87793,6.24925c-0.25887,3.13869 -4.96346,4.5451 -4.71601,7.43957c0.03975,0.46493 1.14324,1.33578 1.25383,1.4985c0.47262,0.69545 1.48853,0.96242 2.32936,0.96808c1.5282,-0.49157 2.0915,-1.49352 3.62736,-2.02175c2.21728,-0.76259 5.34389,-0.23173 7.31441,1.02343c1.71713,1.09375 2.27691,3.81348 3.69485,5.4488c-0.03936,0.92581 -0.0437,1.83828 -0.01298,2.75998c-1.09498,-0.61854 -1.97722,-1.50401 -3.01876,-2.88871z" fill="#00b539" stroke="none" stroke-width="0.5"/><path d="M324.70285,104.05807c0,0 1.52492,0.31501 4.25802,1.10176c2.49637,0.71861 4.45284,1.73511 4.45284,1.73511l0.19744,1.16996c0,0 -7.25589,-3.11544 -15.12072,-2.44031c-6.28853,0.53984 -9.95753,2.83237 -9.95753,2.83237l0.03738,-4.17691c0,0 3.12406,-1.71047 7.85992,-1.87133c4.90396,-0.16655 8.09201,0.57504 8.09201,0.57504z" data-paper-data="{&quot;index&quot;:null}" fill="#000000" stroke="none" stroke-width="1.5"/><path d="M284.61301,108.2347c0,0 3.36598,-1.82575 8.02785,-2.29787c5.16594,-0.52319 7.76808,-0.08185 7.76808,-0.08185l0.30337,4.13687c0,0 -3.8369,-0.67297 -8.01898,-0.50507c-5.59302,0.22454 -6.642,1.44625 -10.89393,1.91303c-3.64328,0.39996 -6.7369,0.17234 -6.7369,0.17234l-0.02836,-1.2315c0,0 3.59531,0.06678 5.23356,-0.07884c1.35215,-0.1202 3.97381,-0.94605 3.97381,-0.94605z" fill="#000000" stroke="none" stroke-width="1.5"/></g></g></svg>