<svg version="1.1" xmlns="http://www.w3.org/2000/svg" xmlns:xlink="http://www.w3.org/1999/xlink" width="167.78985" height="320.02153" viewBox="0,0,167.78985,320.02153"><defs><linearGradient x1="354.76778" y1="53.02124" x2="367.54994" y2="58.63727" gradientUnits="userSpaceOnUse" id="color-1"><stop offset="0" stop-color="#131308"/><stop offset="1" stop-color="#131308" stop-opacity="0"/></linearGradient><linearGradient x1="343.45807" y1="76.23295" x2="356.92945" y2="82.1518" gradientUnits="userSpaceOnUse" id="color-2"><stop offset="0" stop-color="#151509"/><stop offset="1" stop-color="#151509" stop-opacity="0"/></linearGradient></defs><g transform="translate(-255.90604,9.07284)"><g data-paper-data="{&quot;isPaintingLayer&quot;:true}" fill-rule="nonzero" stroke-linejoin="miter" stroke-miterlimit="10" stroke-dasharray="" stroke-dashoffset="0" style="mix-blend-mode: normal"><path d="M287.81614,309.94868l15.14285,-131.8421l37.78325,-0.15789l13.57389,132z" fill="#959541" stroke="#000000" stroke-width="2" stroke-linecap="butt"/><path d="M300.76636,206.56131l3.12142,-26.32765l35.83075,-0.14203l2.76735,26.1059c0,0 -7.51543,4.19603 -21.55904,4.50964c-12.48458,0.27879 -20.16049,-4.14586 -20.16049,-4.14586z" fill="#7d7d37" stroke="#000000" stroke-width="0" stroke-linecap="butt"/><path d="M256.90604,139.29484c0,-33.30185 28.7599,-60.29833 64.23702,-60.29833c35.47712,0 64.23702,26.99649 64.23702,60.29833c0,33.30185 -28.7599,60.29833 -64.23702,60.29833c-35.47712,0 -64.23702,-26.99649 -64.23702,-60.29833z" fill="#959541" stroke="#000000" stroke-width="2" stroke-linecap="butt"/><path d="M257.6291,139.34868c0,-0.72799 5.20666,55.91939 63.36046,56.93429c55.56352,0.9697 63.51358,-57.95314 63.51358,-56.93429c0,32.80479 -28.40173,59.39833 -63.43702,59.39833c-35.03529,0 -63.43702,-26.59354 -63.43702,-59.39833z" fill="#7d7d37" stroke="#000000" stroke-width="0" stroke-linecap="butt"/><path d="M270.45627,139.72431c0,-12.968 10.51265,-23.48065 23.48065,-23.48065c12.968,0 23.48065,10.51265 23.48065,23.48065c0,12.968 -10.51265,23.48065 -23.48065,23.48065c-12.968,0 -23.48065,-10.51265 -23.48065,-23.48065z" fill="#ffffff" stroke="#000000" stroke-width="2" stroke-linecap="butt"/><path d="M271.02164,141.69868c0,-9.12808 7.39976,-16.52784 16.52783,-16.52784c9.12808,0 16.52784,7.39977 16.52784,16.52784c0,9.12808 -7.39977,16.52784 -16.52784,16.52784c-9.12808,0 -16.52783,-7.39977 -16.52783,-16.52784z" fill="#000000" stroke="none" stroke-width="0" stroke-linecap="butt"/><path d="M308.57313,179.10511h25.10959" fill="none" stroke="#000000" stroke-width="2" stroke-linecap="round"/><path d="M348.19534,163.20495c-12.968,0 -23.48065,-10.51265 -23.48065,-23.48065c0,-12.968 10.51265,-23.48065 23.48065,-23.48065c12.968,0 23.48065,10.51265 23.48065,23.48065c0,12.968 -10.51265,23.48065 -23.48065,23.48065z" data-paper-data="{&quot;index&quot;:null}" fill="#ffffff" stroke="#000000" stroke-width="2" stroke-linecap="butt"/><path d="M354.58278,153.47652c-9.12807,0 -16.52783,-7.39977 -16.52783,-16.52784c0,-9.12808 7.39977,-16.52784 16.52783,-16.52784c9.12807,0 16.52783,7.39977 16.52783,16.52784c0,9.12808 -7.39977,16.52784 -16.52783,16.52784z" data-paper-data="{&quot;index&quot;:null}" fill="#000000" stroke="none" stroke-width="0" stroke-linecap="butt"/><path d="M283.09395,110.91584c0,0 6.70895,-5.16922 11.79721,-6.36355c5.08827,-1.19433 12.33413,0.69937 12.33413,0.69937c0,0 -8.03812,-0.06028 -11.96762,0.86207c-4.10648,0.96389 -12.16372,4.80211 -12.16372,4.80211z" fill="#000000" stroke="none" stroke-width="0" stroke-linecap="butt"/><path d="M347.02844,106.11374c-3.9295,-0.92235 -11.96762,-0.86207 -11.96762,-0.86207c0,0 7.24586,-1.8937 12.33413,-0.69937c5.08826,1.19433 11.79721,6.36355 11.79721,6.36355c0,0 -8.05724,-3.83822 -12.16372,-4.80211z" data-paper-data="{&quot;index&quot;:null}" fill="#000000" stroke="none" stroke-width="0" stroke-linecap="butt"/><path d="M315.80497,81.91103c0,-5.37706 5.3,-38.04221 5.3,-38.04221c0,0 5.3,32.66517 5.3,38.04221" fill="#804400" stroke="#000000" stroke-width="2" stroke-linecap="butt"/><g stroke="#000000"><path d="M415.8266,22.98262l-30.3937,102.83695c0,0 -24.51919,-1.22149 -53.83555,-15.17761c-28.52067,-13.57734 -41.70175,-26.09867 -41.70175,-26.09867l54.96044,-92.22305c0,0 15.96719,-1.46767 39.38468,9.1655c22.72661,10.31947 31.58589,21.49689 31.58589,21.49689z" fill="#333333" stroke-width="2" stroke-linecap="butt"/><path d="M415.8266,22.98262l-30.3937,102.83695c0,0 -24.51919,-1.22149 -53.83555,-15.17761c-28.52067,-13.57734 -41.70175,-26.09867 -41.70175,-26.09867l54.96044,-92.22305c0,0 22.06049,13.91889 33.7677,18.97692c11.94487,5.1607 37.20287,11.68546 37.20287,11.68546z" fill="#7d7d37" stroke-width="2" stroke-linecap="butt"/><path d="M384.90173,124.98376c0,0 14.14261,23.71286 -18.71488,25.03815c-37.64455,1.51838 -76.66231,-65.43546 -76.66231,-65.43546" fill="none" stroke-width="2" stroke-linecap="round"/><path d="M414.57392,23.66746l-29.6844,101.33188c0,0 -26.74658,-2.79185 -54.43766,-15.97425c-26.9395,-12.82462 -39.2617,-24.81449 -39.2617,-24.81449l7.22623,-12.12554c0,0 15.47114,32.63708 52.75758,29.88875c34.73023,-2.55992 63.39995,-78.30635 63.39995,-78.30635z" fill="#6c6c30" stroke-width="0" stroke-linecap="butt"/></g><g><g><path d="M309.15555,78.4038l68.53417,-60.27337l1.27494,90.94504z" fill="#b4b44f" stroke="none" stroke-width="0" stroke-linecap="butt"/><path d="M378.5504,83.6447l-22.72496,-46.37072l7.11161,-5.92375l15.48379,38.06856z" fill="#cdcd51" stroke="none" stroke-width="0" stroke-linecap="butt"/><path d="M360.94095,100.81136l-21.99646,-48.35777l10.82837,-9.5024l24.51543,63.88241z" fill="#cdcd51" stroke="none" stroke-width="0" stroke-linecap="butt"/><path d="M374.87312,103.78254l-59.5094,-26.14633l59.25501,-52.82692z" fill="none" stroke="#717132" stroke-width="1.5" stroke-linecap="round"/></g><path d="M367.70669,58.25401c-3.39583,7.72896 -10.99223,13.45278 -13.33617,12.24094c-1.52142,-0.78659 -2.992,-9.88192 0.40383,-17.61088c3.39583,-7.72895 5.41728,-15.25211 12.64061,-12.07843c7.22332,3.17367 3.68756,9.71941 0.29173,17.44838z" fill="#6d6d30" stroke="none" stroke-width="0" stroke-linecap="butt"/><path d="M357.03117,82.19649c-1.50749,3.43107 -5.74522,4.88754 -9.46525,3.25309c-3.72002,-1.63444 -5.51362,-5.74087 -4.00613,-9.17194c1.5075,-3.43108 5.74523,-4.88755 9.46525,-3.2531c3.72002,1.63444 5.51362,5.74087 4.00612,9.17195z" fill="#6d6d30" stroke="none" stroke-width="0" stroke-linecap="butt"/><path d="M367.68294,58.30828c-3.36093,7.64951 -10.8894,13.31004 -13.21499,12.10815c-1.50952,-0.78014 -2.97589,-9.7868 0.38503,-17.43631c3.36093,-7.64951 5.35905,-15.09647 12.52533,-11.94785c7.16629,3.14861 3.66556,9.6265 0.30463,17.27602z" fill="url(#color-1)" stroke="none" stroke-width="0" stroke-linecap="butt"/><path d="M356.92945,82.1518c-1.50749,3.43107 -5.74522,4.88754 -9.46525,3.25309c-3.72002,-1.63444 -5.51362,-5.74087 -4.00613,-9.17194c1.5075,-3.43108 5.74523,-4.88755 9.46525,-3.2531c3.72002,1.63444 5.51362,5.74087 4.00612,9.17195z" fill="url(#color-2)" stroke="none" stroke-width="0" stroke-linecap="butt"/></g></g></g></svg>