<svg version="1.1" xmlns="http://www.w3.org/2000/svg" xmlns:xlink="http://www.w3.org/1999/xlink" width="198.1997" height="263.93037" viewBox="0,0,198.1997,263.93037"><defs><linearGradient x1="351.126" y1="222.67244" x2="261.26484" y2="236.90316" gradientUnits="userSpaceOnUse" id="color-1"><stop offset="0" stop-color="#b8b851"/><stop offset="1" stop-color="#ffff65"/></linearGradient></defs><g transform="translate(-242.13331,-49.56965)"><g data-paper-data="{&quot;isPaintingLayer&quot;:true}" fill-rule="nonzero" stroke-linejoin="miter" stroke-miterlimit="10" stroke-dasharray="" stroke-dashoffset="0" style="mix-blend-mode: normal"><path d="M392.15506,149.29866c3.16787,25.2547 -3.79332,35.45607 -3.79332,35.45607c0,0 -12.10918,-21.47411 -19.77288,-32.6764c-7.92295,-11.58124 -27.01293,-35.71203 -27.01293,-35.71203l31.81283,-16.85064c0,0 15.26168,21.8436 18.7663,49.783z" data-paper-data="{&quot;index&quot;:null}" fill="#aeae47" stroke="#000000" stroke-width="2" stroke-linecap="butt"/><path d="M277.83529,99.51566l31.81283,16.85064c0,0 -19.08998,24.13078 -27.01292,35.71203c-7.6637,11.20229 -19.77288,32.6764 -19.77288,32.6764c0,0 -6.96119,-10.20136 -3.79332,-35.45607c3.50463,-27.9394 18.7663,-49.783 18.7663,-49.783z" data-paper-data="{&quot;index&quot;:null}" fill="#aeae47" stroke="#000000" stroke-width="2" stroke-linecap="butt"/><path d="M378.33655,194.8103c-9.02164,23.80012 -19.94816,29.5566 -19.94816,29.5566c0,0 -0.6493,-24.64443 -2.17813,-38.13095c-1.58056,-13.94275 -7.1552,-44.20238 -7.1552,-44.20238h36c0,0 3.26217,26.44655 -6.71851,52.77673z" data-paper-data="{&quot;index&quot;:null}" fill="#c2c250" stroke="#000000" stroke-width="2" stroke-linecap="butt"/><path d="M264.89814,142.03357h36c0,0 -5.57464,30.25964 -7.1552,44.20238c-1.52884,13.48652 -2.17814,38.13095 -2.17814,38.13095c0,0 -10.92652,-5.75649 -19.94816,-29.5566c-9.98068,-26.33018 -6.71851,-52.77673 -6.71851,-52.77673z" fill="#c2c250" stroke="#000000" stroke-width="2" stroke-linecap="butt"/><path d="M291.75007,312.50001l15.14285,-131.8421l37.78325,-0.15789l13.57389,132z" fill="#ecec60" stroke="#000000" stroke-width="2" stroke-linecap="butt"/><path d="M304.7003,209.11264l3.12142,-26.32765l35.83075,-0.14203l2.76735,26.1059c0,0 -7.51543,4.19603 -21.55904,4.50964c-12.48458,0.27879 -20.16049,-4.14586 -20.16049,-4.14586z" fill="#d2d256" stroke="#000000" stroke-width="0" stroke-linecap="butt"/><path d="M260.83998,141.84617c0,-33.30185 28.7599,-60.29833 64.23702,-60.29833c35.47712,0 64.23702,26.99649 64.23702,60.29833c0,33.30185 -28.7599,60.29833 -64.23702,60.29833c-35.47712,0 -64.23702,-26.99649 -64.23702,-60.29833z" fill="#ecec60" stroke="#000000" stroke-width="2" stroke-linecap="butt"/><path d="M261.56304,141.9c0,-0.72799 5.20666,55.91939 63.36046,56.93429c55.56352,0.9697 63.51358,-57.95314 63.51358,-56.93429c0,32.80479 -28.40173,59.39833 -63.43702,59.39833c-35.03529,0 -63.43702,-26.59354 -63.43702,-59.39833z" fill="#d2d256" stroke="#000000" stroke-width="0" stroke-linecap="butt"/><path d="M274.39019,142.27564c0,-12.968 10.51265,-23.48065 23.48065,-23.48065c12.968,0 23.48065,10.51265 23.48065,23.48065c0,12.968 -10.51265,23.48065 -23.48065,23.48065c-12.968,0 -23.48065,-10.51265 -23.48065,-23.48065z" fill="#ffffff" stroke="#000000" stroke-width="2" stroke-linecap="butt"/><path d="M283.24176,149.14472c0,-9.12808 7.39976,-16.52784 16.52783,-16.52784c9.12808,0 16.52784,7.39977 16.52784,16.52784c0,9.12808 -7.39977,16.52784 -16.52784,16.52784c-9.12808,0 -16.52783,-7.39977 -16.52783,-16.52784z" fill="#000000" stroke="none" stroke-width="0" stroke-linecap="butt"/><path d="M337.61666,181.65644c0,0 -7.66582,2.98556 -11.69844,2.98556c-4.31774,0 -13.41115,-2.98556 -13.41115,-2.98556" fill="none" stroke="#000000" stroke-width="2" stroke-linecap="round"/><path d="M352.12928,165.75628c-12.968,0 -23.48065,-10.51265 -23.48065,-23.48065c0,-12.968 10.51265,-23.48065 23.48065,-23.48065c12.968,0 23.48065,10.51265 23.48065,23.48065c0,12.968 -10.51265,23.48065 -23.48065,23.48065z" data-paper-data="{&quot;index&quot;:null}" fill="#ffffff" stroke="#000000" stroke-width="2" stroke-linecap="butt"/><path d="M354.39829,166.26796c-9.12807,0 -16.52783,-7.39977 -16.52783,-16.52784c0,-9.12808 7.39977,-16.52784 16.52783,-16.52784c9.12807,0 16.52783,7.39977 16.52783,16.52784c0,9.12808 -7.39977,16.52784 -16.52783,16.52784z" data-paper-data="{&quot;index&quot;:null}" fill="#000000" stroke="none" stroke-width="0" stroke-linecap="butt"/><path d="M281.80313,119.43829c0,0 6.70895,-5.16922 11.79721,-6.36355c5.08827,-1.19433 12.33413,0.69937 12.33413,0.69937c0,0 -8.03812,-0.06028 -11.96762,0.86207c-4.10648,0.96389 -12.16372,4.80211 -12.16372,4.80211z" fill="#000000" stroke="none" stroke-width="0" stroke-linecap="butt"/><path d="M355.4407,115.75578c-3.9295,-0.92235 -11.96762,-0.86207 -11.96762,-0.86207c0,0 7.24586,-1.8937 12.33413,-0.69937c5.08826,1.19433 11.79721,6.36355 11.79721,6.36355c0,0 -8.05724,-3.83822 -12.16372,-4.80211z" data-paper-data="{&quot;index&quot;:null}" fill="#000000" stroke="none" stroke-width="0" stroke-linecap="butt"/><path d="M274.24017,142.36807c0,-12.96801 10.51265,-23.48065 23.48066,-23.48065c12.96801,0 23.48065,10.51264 23.48065,23.48065c0,0 -11.70863,-7.69294 -23.43307,-7.53879c-11.75617,0.15456 -23.52823,8.1554 -23.52823,7.53879z" fill="#d2d256" stroke="#000000" stroke-width="2" stroke-linecap="butt"/><path d="M328.64862,142.26807c0,-12.96801 10.51264,-23.48065 23.48065,-23.48065c12.96801,0 23.48066,10.51264 23.48066,23.48065c0,0.60606 -11.37275,-7.38438 -22.92496,-7.531c-11.92261,-0.15132 -24.03635,7.531 -24.03635,7.531z" data-paper-data="{&quot;index&quot;:null}" fill="#d2d256" stroke="#000000" stroke-width="2" stroke-linecap="butt"/><path d="M268.59625,103.76233c0,-29.37751 4.22233,-52.79352 55.83225,-53.19268c58.79142,-0.45471 55.83225,23.81518 55.83225,53.19268c0,0 -111.6645,1.21448 -111.6645,0z" fill="#c5c528" stroke="#000000" stroke-width="2" stroke-linecap="butt"/><path d="M243.84721,108.6059l4.33333,-7.66667l155.5,0.33333l2.66667,7.33333z" fill="#c5c528" stroke="#000000" stroke-width="2" stroke-linecap="butt"/><g data-paper-data="{&quot;index&quot;:null}"><path d="M261.38834,236.99951c0,0 -6.69889,-27.48024 8.96507,-36.9433c5.04572,-3.04827 15.21479,-5.38816 22.88371,-4.19994c6.48555,1.00486 10.30809,5.34005 16.71649,5.6162c13.60303,0.58616 22.42026,-4.01383 26.83108,-3.40463c15.02586,2.07528 13.30791,23.51502 13.30791,23.51502l0.38723,2.44513c0,0 8.25831,19.85987 -5.39112,26.47625c-4.00677,1.94223 -13.81385,0.29165 -26.57017,5.05217c-6.0095,2.24269 -8.30553,7.54684 -14.16325,10.50644c-6.92653,3.49962 -17.32101,4.41621 -23.06169,3.0761c-17.82137,-4.16019 -19.94108,-32.36561 -19.94108,-32.36561z" data-paper-data="{&quot;index&quot;:null}" fill="url(#color-1)" stroke="none" stroke-width="0" stroke-linecap="round"/><g fill="#7d7d00" stroke="none" stroke-width="1" stroke-linecap="butt"><path d="M308.00334,220.70079c-0.00398,-0.02515 -0.00796,-0.05033 0.01122,-0.09204c-0.22066,-0.41637 -0.10035,-0.79647 0.18948,-1.16473c-0.4714,0.03598 -0.79258,-0.11948 -0.9967,-0.51267c-0.16899,-0.33429 -0.10494,-0.74416 0.1505,-1.00383c0.3653,-0.38021 0.7778,-0.38106 1.18841,-0.14952c0.07337,-0.26951 0.16131,-0.52843 0.23467,-0.79794c-0.67937,-0.13743 -1.0338,-0.58417 -0.89504,-1.17351c0.06277,-0.25493 0.21099,-0.45894 0.44863,-0.58683c0.35546,-0.19813 0.69845,-0.14928 1.02761,0.05647c0.039,-0.16091 0.03825,-0.32842 0.09381,-0.46616c0.04298,-0.13575 0.14024,-0.25431 0.20838,-0.39404c-0.49196,-0.01236 -0.82309,-0.23069 -0.95173,-0.63585c-0.10809,-0.35682 0.02282,-0.75149 0.32198,-0.97939c0.36866,-0.2776 0.72423,-0.23076 1.24879,0.15038c-0.09488,-0.4363 -0.01229,-0.81042 0.35838,-1.07543c0.40442,-0.29614 0.81229,-0.24468 1.2057,0.04116c-0.0342,-0.94878 0.88459,-1.41663 1.63432,-0.91644c-0.00484,-0.43766 0.1592,-0.786 0.56696,-0.97951c0.3952,-0.19152 0.7713,-0.09635 1.12499,0.1829c-0.04655,-0.45684 0.1069,-0.79061 0.50011,-0.99472c0.33229,-0.18157 0.68388,-0.15989 0.97929,0.07702c0.44112,0.34277 0.4731,0.78901 0.2621,1.24794c0.22778,0.05419 0.45757,0.12094 0.64561,0.16853c0.10649,-0.22317 0.22359,-0.4609 0.34266,-0.68608c-0.49655,0.03994 -0.85087,-0.16184 -0.99607,-0.59015c-0.12066,-0.35484 0.03141,-0.77865 0.35973,-0.98538c0.33891,-0.22129 0.77194,-0.17382 1.06075,0.10281c0.18084,0.16479 0.29415,0.39183 0.25454,0.6302c-0.02902,0.2238 -0.12495,0.43241 -0.1957,0.63703c0.46082,-0.0214 0.46083,-0.0214 0.96086,0.28624c0.01896,-0.53169 0.19095,-0.82971 0.56696,-0.97951c0.32767,-0.12925 0.72697,-0.05066 0.96148,0.20878c0.36102,0.40705 0.32614,0.8381 -0.00405,1.27722c0.41511,-0.06575 0.74291,0.04998 1.02112,0.34117c0.009,-0.59458 0.20219,-0.92173 0.60933,-1.0378c0.37139,-0.0975 0.75547,0.04798 0.9622,0.37629c0.19416,0.33032 0.15726,0.74876 -0.0962,1.02101c-0.17737,0.18283 -0.37726,0.30475 -0.62821,0.26713c-0.22382,-0.02902 -0.43441,-0.13751 -0.60989,-0.18709c-0.02904,0.2238 -0.06467,0.48734 -0.10229,0.73828c0.19205,0.07274 0.41123,0.15409 0.64301,0.23343c0.04549,-0.44564 0.26583,-0.76419 0.71071,-0.88622c0.35881,-0.09551 0.68463,0.00764 0.92509,0.30481c0.33786,0.42359 0.27582,0.84604 -0.04577,1.25802c0.90968,-0.11828 1.54505,0.79977 0.96675,1.62634c0.95076,-0.02163 1.41205,0.9369 0.85753,1.66944c0.48597,-0.02538 0.85088,0.16181 1.02521,0.6113c0.13524,0.36542 0.07384,0.71041 -0.19221,0.98465c-0.34214,0.36366 -0.76325,0.39165 -1.18245,0.18726c-0.05417,0.22779 -0.11237,0.43041 -0.16854,0.64563c0.10859,0.03438 0.22977,0.06677 0.3278,0.11572c0.11258,0.05954 0.21458,0.13364 0.31459,0.19518c0.08049,-0.63168 0.29422,-0.91051 0.7325,-0.99281c0.38995,-0.06175 0.75286,0.11288 0.93642,0.45775c0.16897,0.33428 0.11753,0.74215 -0.14851,1.01639c-0.32097,0.33452 -0.68117,0.33996 -1.22753,0.06545c-0.01382,0.15693 -0.01308,0.32444 -0.05406,0.47277c-0.04098,0.14834 -0.13429,0.29204 -0.20042,0.44436c0.49196,0.01236 0.79398,0.20952 0.94576,0.59812c0.13124,0.34026 0.05266,0.73955 -0.21738,0.98862c-0.38385,0.34448 -0.79635,0.34533 -1.24009,0.06745c0.02864,0.34364 -0.05532,0.6277 -0.28561,0.88339c0.50453,0.01037 0.83169,0.20355 0.97888,0.64444c0.12066,0.35484 0.00233,0.74751 -0.29884,0.96283c-0.41499,0.31071 -0.82487,0.24667 -1.22426,-0.0769c0.13683,0.94543 -0.77661,1.52848 -1.57466,1.04883c0.01405,0.33303 -0.10965,0.6105 -0.35451,0.8556c0.56543,-0.01218 0.88201,0.19557 1.01264,0.61331c0.1081,0.35682 -0.05,0.74291 -0.36571,0.94765c-0.32831,0.20673 -0.73419,0.16783 -1.01901,-0.08363c-0.18084,-0.16479 -0.30275,-0.36468 -0.27571,-0.60106c0.02902,-0.2238 0.11038,-0.443 0.15994,-0.61848c-0.23837,-0.03962 -0.51845,-0.09841 -0.75685,-0.13803c-0.10251,0.24835 -0.21759,0.49866 -0.3327,0.74899c0.53168,0.01894 0.84826,0.22671 0.94974,0.62327c0.09949,0.38396 -0.05857,0.77005 -0.40145,0.96619c-0.33229,0.18157 -0.75275,0.13211 -1.02897,-0.14652c-0.30736,-0.31236 -0.31282,-0.67256 -0.00056,-1.22489c-0.31448,0.04981 -0.60515,0.00559 -0.88002,-0.18299c-0.0177,0.37674 -0.15398,0.6562 -0.42798,0.88012c0.50117,-0.09228 0.87667,0.08039 1.04304,0.47955c0.14781,0.36342 0.02087,0.78325 -0.30544,1.00257c-0.33891,0.22129 -0.77192,0.17382 -1.05015,-0.11737c-0.17224,-0.19195 -0.27098,-0.4084 -0.21879,-0.64878c0.0416,-0.2258 0.17725,-0.42782 0.25198,-0.60727c-0.32967,0.11668 -0.67663,0.04268 -0.9992,-0.20281c-0.07713,0.73432 -0.52851,1.14104 -1.12645,1.02942c-0.26551,-0.04821 -0.4821,-0.19445 -0.62256,-0.43008c-0.20873,-0.34088 -0.17247,-0.68188 -0.00244,-0.99249c-0.25693,-0.07536 -0.48672,-0.14213 -0.72907,-0.2069c-0.17317,0.69794 -0.63647,1.02921 -1.21323,0.88844c-0.25495,-0.06278 -0.45894,-0.21099 -0.59742,-0.43407c-0.20872,-0.34089 -0.17244,-0.68189 -0.01702,-1.00308c-0.24634,-0.08993 -0.49071,-0.1673 -0.72249,-0.24665c-0.03488,0.43105 -0.25522,0.74961 -0.68752,0.86966c-0.38398,0.09949 -0.73495,0.00034 -0.9794,-0.32198c-0.30674,-0.38984 -0.25527,-0.79774 0.016,-1.20174c-0.53568,-0.04411 -0.57538,-0.05072 -0.9622,-0.37629c0.03534,0.54887 -0.15585,0.8886 -0.56101,1.01725c-0.39258,0.12665 -0.78923,-0.01685 -0.98537,-0.35972c-0.20873,-0.34088 -0.14669,-0.76333 0.13193,-1.03957c0.32495,-0.30936 0.69971,-0.30423 1.24544,0.04775c-0.10408,-0.33167 -0.04529,-0.61176 0.09695,-0.85349c-0.26291,-0.11311 -0.52582,-0.22619 -0.77415,-0.32871c-0.00178,0.47738 -0.20954,0.79396 -0.62727,0.92458c-0.34624,0.09351 -0.74291,-0.04998 -0.94565,-0.35312c-0.20673,-0.3283 -0.19499,-0.74278 0.05449,-1.0402c0.16279,-0.19341 0.3627,-0.31533 0.60967,-0.30286c0.22181,0.01644 0.44101,0.09778 0.62906,0.14536c0.0416,-0.2258 0.09182,-0.47875 0.13143,-0.71713c-0.2212,-0.09392 -0.47152,-0.20901 -0.70727,-0.31351c-0.04411,0.53567 -0.24327,0.82508 -0.66499,0.93056c-0.37338,0.08491 -0.73232,-0.06457 -0.93706,-0.3803c-0.20473,-0.31573 -0.18041,-0.7322 0.07106,-1.01703c0.16478,-0.18083 0.36467,-0.30274 0.59906,-0.28828c0.22181,0.01645 0.441,0.09777 0.65421,0.14139c0.01123,-0.09205 -0.00011,-0.24499 0.0303,-0.37874c0.03039,-0.13376 0.10052,-0.26091 0.13491,-0.36952c-0.19404,-0.08532 -0.39865,-0.15609 -0.58209,-0.25597c-0.11258,-0.05954 -0.1954,-0.17536 -0.28881,-0.27662zM311.0942,213.6737c-0.22716,-0.13165 -0.45234,-0.25073 -0.67552,-0.35722c0.0544,0.26218 0.00821,0.54028 -0.18635,0.7774c0.23839,0.03962 0.46418,0.08123 0.67541,0.11226c0.06216,-0.17747 0.1349,-0.36952 0.18647,-0.53243zM320.08852,211.43697c0.1085,-0.21059 0.2064,-0.40664 0.31687,-0.60465c-0.27873,0.03125 -0.54824,-0.04211 -0.76021,-0.24066c-0.02902,0.2238 -0.05805,0.44761 -0.08508,0.68399c0.1629,0.05157 0.35296,0.11174 0.52843,0.16131zM324.25595,223.25894c-0.05157,0.16289 -0.11373,0.34038 -0.16332,0.51586c0.19603,0.09789 0.40663,0.2064 0.57551,0.29572c0.05419,-0.22779 0.1044,-0.48074 0.16917,-0.7231c-0.15892,-0.02642 -0.37017,-0.05743 -0.5814,-0.08846zM323.10853,213.16368c-0.02642,0.15892 -0.06142,0.34499 -0.09643,0.53106c0.16489,0.06415 0.32979,0.12829 0.49269,0.17987c0.0979,-0.19604 0.19582,-0.39206 0.28312,-0.5735c-0.21323,-0.0436 -0.45359,-0.0958 -0.67939,-0.13741zM309.34878,219.26269c0.03899,-0.16091 0.07798,-0.32182 0.14014,-0.49929c-0.16888,-0.08931 -0.34833,-0.16404 -0.50263,-0.24276c-0.08133,0.21919 -0.16268,0.43839 -0.24401,0.65758c0.17151,0.02442 0.39529,0.05344 0.60652,0.08446zM315.37366,211.38418c0.16091,0.03899 0.32182,0.07798 0.49531,0.11498c0.07674,-0.16689 0.14087,-0.33178 0.20702,-0.48408c-0.20463,-0.07075 -0.41323,-0.16666 -0.60528,-0.23941c-0.03501,0.18607 -0.06603,0.3973 -0.09705,0.60853zM325.04268,220.73598c-0.039,0.16091 -0.09056,0.3238 -0.15471,0.4887c0.17948,0.07473 0.34833,0.16406 0.50065,0.23019c0.07075,-0.20462 0.13954,-0.42183 0.20828,-0.63903c-0.17151,-0.02442 -0.37015,-0.05743 -0.55423,-0.07986zM324.9176,216.52636c-0.04098,0.14832 -0.07997,0.30925 -0.11696,0.48273c0.15231,0.06615 0.31721,0.1303 0.46953,0.19643c0.07274,-0.19206 0.15806,-0.38607 0.2308,-0.57812c-0.18608,-0.035 -0.37214,-0.07001 -0.58335,-0.10103zM312.98193,225.43118c-0.13775,-0.05555 -0.30065,-0.10711 -0.46355,-0.15869c-0.07673,0.16688 -0.16404,0.34833 -0.24077,0.51522c0.20062,0.04559 0.41586,0.10178 0.61649,0.14738c0.0284,-0.14635 0.05282,-0.31783 0.08783,-0.50391zM317.99235,227.5132c0.02443,-0.17149 0.05944,-0.35757 0.09245,-0.55622c-0.14634,-0.02839 -0.29667,-0.08196 -0.45758,-0.12094c-0.06613,0.15232 -0.14288,0.31921 -0.20902,0.47151c0.19205,0.07276 0.39667,0.1435 0.57413,0.20565zM310.08783,216.68278c0.05356,-0.15032 0.09456,-0.29866 0.14812,-0.44897c-0.16688,-0.07674 -0.33576,-0.16606 -0.48808,-0.23218c-0.04759,0.18806 -0.10576,0.39069 -0.16394,0.59332c0.15891,0.02643 0.3304,0.05084 0.5039,0.08784zM312.18151,212.56022c-0.03499,0.18608 -0.08059,0.38673 -0.11361,0.58536c0.13375,0.0304 0.29466,0.06939 0.45358,0.0958c0.05356,-0.15032 0.12169,-0.29006 0.17525,-0.44039c-0.16687,-0.07673 -0.34833,-0.16405 -0.51522,-0.24078zM324.0389,214.88608c-0.03039,0.13376 -0.05679,0.29268 -0.10836,0.45558c0.15033,0.05356 0.30263,0.11971 0.44037,0.17525c0.08733,-0.18147 0.16205,-0.36093 0.23878,-0.52781c-0.17349,-0.037 -0.37214,-0.07001 -0.57079,-0.10303zM314.18493,212.34611c0.05356,-0.15033 0.10912,-0.28808 0.16467,-0.42582c-0.17746,-0.06215 -0.34436,-0.13889 -0.50925,-0.20304c-0.02443,0.17149 -0.0614,0.34498 -0.09641,0.53105c0.13376,0.03039 0.28009,0.0588 0.441,0.0978zM322.64614,224.24887c-0.05755,0.12516 -0.10251,0.24835 -0.14748,0.37151c0.15232,0.06613 0.29206,0.13429 0.44438,0.20041c0.03899,-0.16091 0.07797,-0.32181 0.11696,-0.48272c-0.13375,-0.0304 -0.2675,-0.06079 -0.41385,-0.0892zM315.4217,226.66953c0.01583,-0.14435 0.04422,-0.29069 0.0852,-0.43903c-0.13574,-0.04298 -0.25691,-0.07535 -0.39267,-0.11834c-0.06813,0.13972 -0.12369,0.27749 -0.18125,0.40266c0.1629,0.05157 0.3258,0.10315 0.48869,0.15471zM310.27696,220.48251c-0.12515,-0.05755 -0.24835,-0.1025 -0.37351,-0.16006c-0.05356,0.15032 -0.1091,0.28807 -0.16267,0.43838c0.14634,0.02839 0.28009,0.05881 0.43901,0.08521c0.03042,-0.13375 0.06476,-0.24236 0.09717,-0.36354zM319.18036,226.38375c0.13975,0.06814 0.29005,0.12171 0.4278,0.17727c0.0284,-0.14635 0.05879,-0.28011 0.0852,-0.43902c-0.1066,-0.02181 -0.22779,-0.05418 -0.36154,-0.08458c-0.04496,0.12318 -0.09193,0.23375 -0.15145,0.34635zM311.50418,224.07917c0.14635,0.02841 0.29267,0.05681 0.441,0.09779c0.0218,-0.10662 0.0416,-0.22581 0.07201,-0.35956c-0.12318,-0.04497 -0.23176,-0.07935 -0.34237,-0.12631c-0.05755,0.12516 -0.11509,0.25034 -0.17065,0.38808zM321.34624,225.2413c-0.10859,-0.03438 -0.21523,-0.05619 -0.3364,-0.08858c-0.04696,0.11059 -0.09392,0.2212 -0.13888,0.34436c0.12515,0.05755 0.25032,0.11508 0.38806,0.17065c0.0284,-0.14635 0.05881,-0.28008 0.08721,-0.42643zM320.92017,212.94287c0.05755,-0.12516 0.09392,-0.22117 0.15544,-0.32118c-0.13574,-0.04298 -0.25691,-0.07537 -0.40526,-0.11634c-0.02179,0.10661 -0.0436,0.21323 -0.06342,0.33241c0.09603,0.03637 0.20463,0.07073 0.31322,0.10513zM318.10564,211.69941c-0.03238,0.12118 -0.04161,0.2258 -0.07401,0.34699c0.10859,0.03438 0.21721,0.06876 0.32581,0.10315c0.04696,-0.11059 0.09591,-0.20862 0.14287,-0.3192c-0.13574,-0.04298 -0.25892,-0.08793 -0.39467,-0.13092zM311.10933,222.15594c-0.11059,-0.04695 -0.20662,-0.08334 -0.30064,-0.10711c-0.04696,0.11058 -0.09192,0.23378 -0.14947,0.35892c0.11919,0.01981 0.23838,0.0396 0.37213,0.07002c0.02179,-0.10662 0.04358,-0.21323 0.07797,-0.32182zM324.45288,219.61728c0.0324,-0.12118 0.06875,-0.21721 0.12632,-0.34237c-0.1066,-0.02178 -0.20063,-0.0456 -0.30726,-0.06739c-0.02379,0.09402 -0.04956,0.17549 -0.08395,0.28408c0.08344,0.03835 0.16688,0.07672 0.2649,0.12567zM311.46438,215.27848c-0.03438,0.10861 -0.05817,0.20263 -0.09057,0.3238c0.09402,0.02378 0.17351,0.037 0.26754,0.06078c0.03638,-0.09603 0.06216,-0.17747 0.09852,-0.27349c-0.09603,-0.03637 -0.1669,-0.07672 -0.27549,-0.1111zM323.4178,222.03774c0.08344,0.03835 0.1543,0.07872 0.2609,0.10052c0.0218,-0.10662 0.05818,-0.20264 0.09256,-0.31122c-0.09203,-0.01122 -0.1715,-0.02444 -0.26553,-0.04821c-0.03636,0.09603 -0.06216,0.17749 -0.08794,0.25894zM310.73791,217.85641c-0.03638,0.09603 -0.06217,0.17748 -0.09655,0.28608c0.07945,0.0132 0.14634,0.02839 0.22579,0.04161c0.01321,-0.07946 0.041,-0.14834 0.06678,-0.22979c-0.06887,-0.02777 -0.12516,-0.05754 -0.19603,-0.09789zM317.02078,225.44919c-0.06688,-0.01521 -0.12117,-0.03239 -0.18805,-0.04759c-0.01918,0.04173 -0.04894,0.09801 -0.07872,0.15431c0.06885,0.02776 0.13773,0.05555 0.21919,0.08134c0.0152,-0.06688 0.03241,-0.12117 0.0476,-0.18805zM314.19331,224.77514c0.08144,0.02579 0.14832,0.04098 0.22978,0.06674c0.09328,-0.14373 0.00985,-0.18208 -0.1365,-0.21049c-0.03375,0.03114 -0.05295,0.07285 -0.0933,0.14371zM316.50458,212.90716c0.0609,-0.02255 0.13439,-0.04709 0.20788,-0.0716c-0.004,-0.02516 -0.00598,-0.03773 -0.00998,-0.06288c-0.05629,-0.02976 -0.12514,-0.05755 -0.19402,-0.08532c-0.01522,0.06689 -0.0218,0.10661 -0.03899,0.16091c0.01655,0.02317 0.01855,0.03576 0.03511,0.05892z"/><path d="M315.61975,228.32733c0.46543,-0.0737 0.888,0.23331 0.95972,0.68616c0.08429,0.45086 -0.23332,0.88801 -0.68617,0.95972c-0.45085,0.08429 -0.888,-0.23333 -0.95971,-0.68617c-0.07371,-0.46543 0.22075,-0.886 0.68617,-0.9597z"/><path d="M314.07504,228.2625c0.07371,0.46544 -0.2459,0.88998 -0.70074,0.94912c-0.45285,0.07173 -0.87742,-0.24789 -0.94913,-0.70073c-0.07173,-0.45285 0.24788,-0.87743 0.70073,-0.94913c0.46542,-0.07369 0.87542,0.23532 0.94912,0.70075z"/><path d="M308.00337,220.70071c0.01196,0.07549 0.04709,0.13439 0.06961,0.19529c0.07831,0.41313 -0.15521,0.81114 -0.54778,0.93779c-0.40514,0.12863 -0.82037,-0.0506 -1.00793,-0.42064c-0.18755,-0.37003 -0.06459,-0.81503 0.27231,-1.04889c0.33891,-0.22129 0.79908,-0.16523 1.07929,0.13855c0.0457,0.04434 0.08942,0.0761 0.13512,0.12045c0.00399,0.02515 -0.00462,0.05232 -0.00062,0.07746z"/><path d="M324.70788,225.62445c0.44026,-0.06973 0.85025,0.23931 0.90939,0.69414c0.06973,0.44027 -0.23929,0.85024 -0.67955,0.91996c-0.44227,0.05714 -0.85224,-0.25188 -0.92196,-0.69215c-0.05714,-0.44226 0.25189,-0.85223 0.69214,-0.92195z"/><path d="M308.70228,214.28459c0.06973,0.44026 -0.22869,0.83569 -0.68153,0.90739c-0.44026,0.06973 -0.83569,-0.22872 -0.90542,-0.66898c-0.05714,-0.44226 0.2413,-0.83767 0.68157,-0.9074c0.44026,-0.06973 0.83566,0.22871 0.90538,0.66898z"/><path d="M311.83047,209.36638c0.43828,-0.0823 0.84627,0.21415 0.91599,0.65441c0.06772,0.42768 -0.21414,0.84626 -0.65441,0.91599c-0.44028,0.06973 -0.84628,-0.21413 -0.91599,-0.6544c-0.06973,-0.44027 0.21414,-0.84627 0.6544,-0.916z"/><path d="M307.9387,216.79102c0.06973,0.44027 -0.22672,0.84827 -0.66699,0.91798c-0.44026,0.06973 -0.84826,-0.22671 -0.91798,-0.66698c-0.06973,-0.44026 0.22672,-0.84825 0.66698,-0.91798c0.44026,-0.06973 0.84826,0.22672 0.91798,0.66698z"/><path d="M314.37616,209.15664c0.08229,0.43829 -0.21415,0.84625 -0.65441,0.91598c-0.42769,0.06772 -0.84825,-0.2267 -0.91797,-0.66696c-0.06973,-0.44026 0.22672,-0.84827 0.66697,-0.91799c0.44026,-0.06973 0.84625,0.21414 0.90539,0.66897z"/><path d="M327.14714,215.54145c-0.42967,0.05516 -0.83766,-0.24128 -0.90538,-0.66897c-0.05714,-0.44226 0.24127,-0.83768 0.66897,-0.90541c0.42967,-0.05516 0.82509,0.24328 0.89283,0.67097c0.06772,0.42768 -0.24129,0.83765 -0.65639,0.9034z"/><path d="M326.02141,212.34136c0.44028,-0.06973 0.84628,0.21413 0.90341,0.65639c0.06772,0.42768 -0.24327,0.82508 -0.67097,0.89283c-0.42768,0.06773 -0.82112,-0.21811 -0.88885,-0.6458c-0.06772,-0.42768 0.2287,-0.83568 0.65639,-0.90342z"/><path d="M327.99602,222.93744c0.06772,0.42768 -0.21613,0.83368 -0.67097,0.89283c-0.42768,0.06773 -0.82112,-0.21812 -0.88885,-0.6458c-0.06973,-0.44026 0.21612,-0.83368 0.65639,-0.90341c0.44026,-0.06973 0.83369,0.21612 0.9034,0.65639z"/><path d="M311.07902,210.8909c0.06772,0.42768 -0.21813,0.82112 -0.64582,0.88884c-0.4151,0.06572 -0.8211,-0.21812 -0.88684,-0.63323c-0.06574,-0.41511 0.2181,-0.82112 0.6458,-0.88885c0.42769,-0.06772 0.83369,0.21613 0.88686,0.63324z"/><path d="M310.85792,228.38513c-0.42768,0.06773 -0.82111,-0.21813 -0.88884,-0.6458c-0.06575,-0.41511 0.22013,-0.80852 0.63324,-0.88683c0.42769,-0.06772 0.83368,0.21613 0.90142,0.64381c0.06574,0.41511 -0.21812,0.82112 -0.64581,0.88885z"/><path d="M327.22495,220.67406c-0.06772,-0.42768 0.20554,-0.81913 0.63323,-0.88686c0.42769,-0.06772 0.81912,0.20555 0.89743,0.61867c0.06575,0.41511 -0.20553,0.81913 -0.63122,0.89943c-0.42769,0.06772 -0.81912,-0.20554 -0.89942,-0.63125z"/><path d="M327.14958,216.53395c-0.07831,-0.41313 0.20554,-0.81911 0.61866,-0.89743c0.41312,-0.07833 0.80654,0.20752 0.88485,0.62064c0.07832,0.41312 -0.19495,0.80455 -0.60807,0.88287c-0.4257,0.08031 -0.81515,-0.18038 -0.89544,-0.60608z"/><path d="M318.37716,230.67588c-0.40253,0.06375 -0.80851,-0.22011 -0.87426,-0.63522c-0.06575,-0.41511 0.20952,-0.79395 0.62264,-0.87228c0.4257,-0.08031 0.81912,0.20554 0.88485,0.62065c0.06772,0.42768 -0.20556,0.81911 -0.63324,0.88684z"/><path d="M315.97873,208.28394c0.06575,0.41511 -0.20753,0.80653 -0.63522,0.87426c-0.4151,0.06572 -0.80853,-0.22011 -0.87426,-0.63522c-0.06574,-0.41511 0.20952,-0.79397 0.62264,-0.87229c0.4151,-0.06572 0.8211,0.21812 0.88685,0.63323z"/><path d="M320.12741,208.18139c0.06374,0.40254 -0.22209,0.79595 -0.63521,0.87427c-0.40452,0.05117 -0.79794,-0.23467 -0.86168,-0.63722c-0.05117,-0.40451 0.2221,-0.79596 0.62464,-0.8597c0.4151,-0.06572 0.80654,0.20754 0.87228,0.62265z"/><path d="M321.16208,209.17804c-0.06574,-0.41511 0.22209,-0.79596 0.62264,-0.8723c0.40452,-0.05117 0.79595,0.2221 0.8597,0.62464c0.06575,0.41511 -0.22012,0.80854 -0.62264,0.87228c-0.40253,0.06376 -0.79395,-0.20952 -0.85969,-0.62463z"/><path d="M307.12878,219.33056c0.06374,0.40254 -0.2241,0.78338 -0.63921,0.84912c-0.40454,0.05115 -0.78338,-0.2241 -0.84712,-0.62662c-0.06374,-0.40254 0.20953,-0.79396 0.62463,-0.85971c0.41511,-0.06575 0.79396,0.20953 0.86169,0.63722z"/><path d="M324.53662,211.5965c-0.06772,-0.42768 0.20952,-0.79395 0.62662,-0.84713c0.41511,-0.06575 0.78139,0.21151 0.84714,0.62662c0.06374,0.40254 -0.21151,0.78139 -0.61405,0.84513c-0.4151,0.06572 -0.79396,-0.20952 -0.85971,-0.62463z"/><path d="M325.72294,225.68291c-0.06575,-0.41511 0.20952,-0.79396 0.61205,-0.85771c0.40253,-0.06376 0.76681,0.20092 0.84314,0.60146c0.07635,0.40054 -0.19695,0.79198 -0.59948,0.85573c-0.41313,0.07834 -0.79196,-0.19695 -0.85571,-0.59948z"/><path d="M309.40297,211.78814c0.04917,0.39194 -0.21549,0.75623 -0.57829,0.82657c-0.40054,0.07634 -0.7794,-0.19891 -0.84314,-0.60145c-0.06374,-0.40254 0.20094,-0.76682 0.59089,-0.82856c0.40253,-0.06375 0.7668,0.20093 0.83056,0.60346z"/><path d="M314.24569,230.72412c-0.38995,0.06175 -0.75224,-0.19034 -0.814,-0.58028c-0.07432,-0.38795 0.17777,-0.75025 0.56572,-0.82459c0.38795,-0.07432 0.76481,0.18835 0.82657,0.57831c0.06175,0.38996 -0.19034,0.75224 -0.5783,0.82656z"/><path d="M328.64231,217.32912c0.40253,-0.06375 0.76481,0.18836 0.82855,0.59089c0.06174,0.38995 -0.19035,0.75223 -0.58029,0.81397c-0.40253,0.06375 -0.76482,-0.18834 -0.82857,-0.59088c-0.07435,-0.38795 0.17778,-0.75025 0.58031,-0.81399z"/><path d="M325.0774,209.71852c0.06173,0.38996 -0.17977,0.73766 -0.56972,0.79942c-0.37736,0.05976 -0.72506,-0.18174 -0.78483,-0.55911c-0.05978,-0.37738 0.19431,-0.72709 0.55711,-0.79743c0.37537,-0.07235 0.73765,0.17975 0.79742,0.55712z"/><path d="M316.97184,208.20401c-0.37736,0.05976 -0.72708,-0.19432 -0.78883,-0.58428c-0.05778,-0.36479 0.19633,-0.71449 0.57369,-0.77426c0.37736,-0.05976 0.72708,0.19433 0.78484,0.55912c0.07432,0.38795 -0.19233,0.73965 -0.5697,0.79943z"/><path d="M311.49296,228.56825c0.37737,-0.05976 0.7271,0.19434 0.78485,0.55913c0.05977,0.37738 -0.19234,0.73965 -0.56971,0.79943c-0.36478,0.05777 -0.72507,-0.18176 -0.78485,-0.55913c-0.06174,-0.38995 0.19234,-0.73965 0.56972,-0.79942z"/><path d="M306.36701,222.90694c0.36279,-0.07036 0.71249,0.18375 0.77227,0.56112c0.05778,0.36479 -0.18373,0.71249 -0.54853,0.77027c-0.36279,0.07036 -0.7125,-0.18373 -0.77227,-0.5611c-0.05977,-0.37738 0.18374,-0.71251 0.54854,-0.77029z"/><path d="M316.53494,230.11661c0.3648,-0.05778 0.69994,0.18573 0.77028,0.54854c0.07235,0.37539 -0.18173,0.72508 -0.5591,0.78485c-0.3648,0.05776 -0.71253,-0.18375 -0.77029,-0.54853c-0.07235,-0.37539 0.18176,-0.72509 0.55912,-0.78485z"/><path d="M306.93421,215.17065c0.05778,0.36479 -0.18572,0.69992 -0.54852,0.77028c-0.37736,0.05976 -0.72509,-0.18174 -0.78486,-0.55912c-0.05778,-0.36479 0.18374,-0.71251 0.54854,-0.77029c0.37539,-0.07235 0.73766,0.17976 0.78485,0.55912z"/><path d="M307.25832,224.54524c0.3648,-0.05778 0.71449,0.19632 0.77227,0.56111c0.05775,0.36479 -0.19633,0.71452 -0.57368,0.77428c-0.37737,0.05976 -0.72708,-0.19433 -0.77427,-0.5737c-0.04519,-0.3668 0.21089,-0.7039 0.57569,-0.76169z"/><path d="M328.97256,222.83437c-0.35221,0.05578 -0.70193,-0.19829 -0.75771,-0.55053c-0.05778,-0.36479 0.18573,-0.69994 0.53596,-0.76829c0.3648,-0.05776 0.71251,0.18376 0.77029,0.54854c0.05977,0.37738 -0.19633,0.7145 -0.54854,0.77028z"/><path d="M323.08363,229.69846c0.05778,0.36479 -0.19632,0.71449 -0.56112,0.77226c-0.3648,0.05777 -0.69994,-0.18573 -0.75771,-0.55053c-0.07034,-0.36281 0.18573,-0.69992 0.55052,-0.7577c0.3648,-0.05778 0.69994,0.18572 0.7683,0.53594z"/><path d="M323.40513,229.04148c-0.05577,-0.35222 0.18773,-0.68735 0.55052,-0.75771c0.37737,-0.05976 0.71451,0.19633 0.77228,0.56112c0.04321,0.35421 -0.20032,0.68935 -0.56511,0.74713c-0.3648,0.05778 -0.69991,-0.18573 -0.75769,-0.55052z"/><path d="M304.86239,217.88425c-0.05577,-0.35223 0.18771,-0.68736 0.53794,-0.75572c0.35222,-0.05578 0.68737,0.18773 0.74314,0.53994c0.05777,0.36479 -0.18573,0.69993 -0.55054,0.75771c-0.35221,0.05578 -0.67478,-0.18972 -0.73055,-0.54194z"/><path d="M320.88021,231.33686c-0.35222,0.05578 -0.68735,-0.18773 -0.74511,-0.55253c-0.05577,-0.35223 0.18973,-0.67477 0.54194,-0.73055c0.35222,-0.05578 0.68737,0.18772 0.74314,0.53992c0.05379,0.33964 -0.18774,0.68736 -0.53996,0.74314z"/><path d="M307.58847,226.95582c-0.05577,-0.35222 0.17514,-0.68536 0.52537,-0.75371c0.3648,-0.05777 0.68536,0.17514 0.75371,0.52536c0.05775,0.36479 -0.17117,0.71051 -0.53596,0.76828c-0.35222,0.05578 -0.68735,-0.18773 -0.74313,-0.53993z"/><path d="M327.99521,224.07229c0.35221,-0.05578 0.69993,0.18572 0.74313,0.53994c0.0412,0.34162 -0.20429,0.66417 -0.54393,0.71796c-0.3542,0.04319 -0.67676,-0.20228 -0.73055,-0.54192c-0.05379,-0.33964 0.18971,-0.67478 0.53134,-0.71598z"/><path d="M306.94209,212.12628c0.33963,-0.0538 0.67277,0.17714 0.72855,0.52936c0.05577,0.35223 -0.18973,0.67478 -0.54193,0.73056c-0.35221,0.05578 -0.67279,-0.17713 -0.72856,-0.52935c-0.0432,-0.3542 0.18973,-0.67478 0.54195,-0.73056z"/><path d="M305.50687,221.30238c0.35221,-0.05578 0.67277,0.17712 0.72656,0.51676c0.06835,0.35023 -0.16258,0.68339 -0.51478,0.73917c-0.35023,0.06837 -0.68535,-0.17515 -0.74113,-0.52736c-0.05577,-0.35219 0.17714,-0.67276 0.52936,-0.72854z"/><path d="M329.73019,220.2902c-0.34163,0.0412 -0.66219,-0.19171 -0.72656,-0.51677c-0.05379,-0.33963 0.17713,-0.67276 0.51677,-0.72655c0.35221,-0.05578 0.67277,0.17713 0.72855,0.52933c0.05577,0.35222 -0.17913,0.66021 -0.51878,0.714z"/><path d="M326.31788,227.97418c0.05577,0.35222 -0.17913,0.66019 -0.51876,0.71398c-0.33963,0.0538 -0.66018,-0.17912 -0.71397,-0.51877c-0.05577,-0.35222 0.18772,-0.68735 0.52934,-0.72856c0.34163,-0.0412 0.64962,0.19369 0.70341,0.53332z"/><path d="M321.62935,207.3246c0.06635,0.33764 -0.16456,0.67079 -0.51676,0.72657c-0.33963,0.0538 -0.66021,-0.17912 -0.714,-0.51877c-0.05379,-0.33963 0.17913,-0.66019 0.51877,-0.71398c0.35221,-0.05578 0.67079,0.16456 0.71199,0.50618z"/><path d="M311.70423,208.40639c0.05379,0.33964 -0.17914,0.66019 -0.51877,0.714c-0.34163,0.04121 -0.64961,-0.1937 -0.7014,-0.52076c-0.05379,-0.33964 0.16854,-0.64562 0.50818,-0.69942c0.33963,-0.0538 0.64763,0.18112 0.71201,0.50618z"/><path d="M328.5683,213.27906c0.33963,-0.0538 0.64562,0.16854 0.69942,0.50817c0.06635,0.33764 -0.17713,0.67279 -0.51876,0.714c-0.34163,0.0412 -0.64961,-0.19369 -0.70141,-0.52075c-0.04122,-0.34162 0.18114,-0.64762 0.52077,-0.7014z"/><path d="M312.63452,207.03408c0.32707,-0.05179 0.64761,0.18112 0.69941,0.50818c0.05379,0.33963 -0.18112,0.6476 -0.52075,0.7014c-0.34163,0.04121 -0.63504,-0.18311 -0.68883,-0.52275c-0.0518,-0.32706 0.18111,-0.64762 0.51016,-0.68683z"/><path d="M308.85634,209.47633c-0.0518,-0.32706 0.17052,-0.63306 0.51016,-0.68684c0.32705,-0.05178 0.64962,0.19369 0.68883,0.52274c0.03921,0.32904 -0.1831,0.63504 -0.51216,0.67425c-0.32905,0.03921 -0.63503,-0.18311 -0.68683,-0.51017z"/><path d="M318.61476,207.26044c-0.32507,0.06438 -0.63106,-0.15796 -0.69543,-0.48303c-0.06635,-0.33765 0.16654,-0.6582 0.4936,-0.71c0.32706,-0.05179 0.64565,0.16855 0.69743,0.4956c0.05178,0.32706 -0.17055,0.63306 -0.49561,0.69743z"/><path d="M328.389,212.14693c0.0518,0.32706 -0.17052,0.63305 -0.49759,0.68484c-0.33963,0.05378 -0.64561,-0.16853 -0.69741,-0.49559c-0.0518,-0.32706 0.17051,-0.63306 0.49757,-0.68485c0.33963,-0.05378 0.64563,0.16854 0.69743,0.4956z"/><path d="M323.44034,207.60516c0.31448,-0.0498 0.63304,0.17052 0.69743,0.49561c0.06436,0.32506 -0.18111,0.64763 -0.50817,0.69942c-0.32905,0.03921 -0.63505,-0.18311 -0.68685,-0.51017c-0.05178,-0.32706 0.17054,-0.63305 0.4976,-0.68485z"/><path d="M309.01109,227.87814c0.33963,-0.0538 0.63305,0.17054 0.68484,0.4976c0.05379,0.33963 -0.15796,0.63105 -0.49759,0.68484c-0.33963,0.0538 -0.63106,-0.15794 -0.68486,-0.49758c-0.05178,-0.32706 0.17053,-0.63306 0.4976,-0.68485z"/><path d="M319.226,232.12749c-0.32705,0.05178 -0.61849,-0.15995 -0.68086,-0.47244c-0.0518,-0.32707 0.17054,-0.63305 0.48502,-0.68284c0.32707,-0.05179 0.63306,0.17053 0.68285,0.48501c0.04981,0.31448 -0.15994,0.61848 -0.487,0.67028z"/><path d="M330.1067,215.42092c0.0518,0.32706 -0.15796,0.63107 -0.48501,0.68285c-0.32507,0.06438 -0.62906,-0.14536 -0.68086,-0.47242c-0.0518,-0.32706 0.15794,-0.63106 0.48501,-0.68285c0.32507,-0.06438 0.63106,0.15794 0.68086,0.47242z"/><path d="M304.6613,219.70843c0.31448,-0.04981 0.60791,0.17454 0.65771,0.48901c0.04979,0.31447 -0.17453,0.6079 -0.48901,0.65769c-0.32905,0.03922 -0.60591,-0.16194 -0.65771,-0.489c-0.04979,-0.31447 0.16195,-0.60591 0.48901,-0.65771z"/><path d="M314.46008,207.32524c-0.31448,0.0498 -0.60591,-0.16195 -0.6557,-0.47642c-0.04979,-0.31447 0.16195,-0.60589 0.47643,-0.65569c0.31448,-0.0498 0.60592,0.16194 0.65571,0.47641c0.0518,0.32706 -0.16195,0.6059 -0.47643,0.6557z"/><path d="M327.48515,210.51062c0.04979,0.31447 -0.16195,0.6059 -0.47641,0.6557c-0.31448,0.0498 -0.60591,-0.16194 -0.65569,-0.47642c-0.0498,-0.31447 0.16194,-0.60589 0.47641,-0.6557c0.31448,-0.0498 0.60591,0.16194 0.65569,0.47642z"/><path d="M313.04729,230.81074c0.0392,0.32905 -0.17452,0.60789 -0.489,0.65769c-0.31448,0.04981 -0.60791,-0.17452 -0.65771,-0.489c-0.04979,-0.31447 0.17452,-0.60791 0.48899,-0.6577c0.32706,-0.05179 0.60592,0.16194 0.65771,0.489z"/><path d="M315.55172,231.56175c0.04979,0.31447 -0.16195,0.60591 -0.47641,0.65571c-0.31448,0.0498 -0.60592,-0.16193 -0.65571,-0.4764c-0.04979,-0.31447 0.16195,-0.60592 0.47641,-0.65572c0.32706,-0.05179 0.61848,0.15995 0.65571,0.47642z"/><path d="M327.41687,227.74857c-0.29991,0.06038 -0.60392,-0.14935 -0.65172,-0.45126c-0.0498,-0.31447 0.14936,-0.60393 0.46384,-0.65373c0.29991,-0.06038 0.60392,0.14935 0.65172,0.45127c0.06237,0.31249 -0.14938,0.60392 -0.46385,0.65372z"/><path d="M307.89292,210.8023c-0.3019,0.04782 -0.59132,-0.15134 -0.63913,-0.45325c-0.04782,-0.30191 0.15134,-0.59133 0.45323,-0.63914c0.31448,-0.04981 0.59133,0.15133 0.63915,0.45324c0.04781,0.3019 -0.15135,0.59134 -0.45325,0.63915z"/><path d="M304.55415,215.61204c0.28931,-0.04583 0.57676,0.14074 0.62455,0.44265c0.04582,0.28931 -0.15533,0.56618 -0.44266,0.62457c-0.28931,0.04582 -0.57675,-0.14075 -0.62457,-0.44266c-0.04782,-0.30187 0.14076,-0.57676 0.44266,-0.62457z"/><path d="M304.88566,213.71561c-0.06039,-0.29991 0.14274,-0.56418 0.44267,-0.62456c0.3019,-0.04781 0.57874,0.15333 0.62656,0.45523c0.03323,0.29131 -0.15534,0.56617 -0.44466,0.612c-0.3019,0.04781 -0.57675,-0.14075 -0.62457,-0.44266z"/><path d="M329.86982,217.26368c-0.0478,-0.30191 0.14077,-0.57677 0.42809,-0.63517c0.28933,-0.04582 0.58074,0.16592 0.62655,0.45524c0.04582,0.28931 -0.14474,0.5516 -0.43206,0.60999c-0.29991,0.06038 -0.57477,-0.12819 -0.62257,-0.43008z"/><path d="M315.91846,205.3793c0.27674,-0.04382 0.5536,0.15733 0.61,0.43207c0.04582,0.28931 -0.14474,0.55159 -0.41949,0.608c-0.28733,0.05838 -0.57675,-0.14077 -0.62257,-0.43008c-0.05641,-0.27474 0.14275,-0.56418 0.43208,-0.60999z"/><path d="M329.81481,224.3257c-0.28931,0.04582 -0.55358,-0.15734 -0.59741,-0.43408c-0.04383,-0.27674 0.15732,-0.55359 0.44664,-0.5994c0.28931,-0.04582 0.55359,0.15733 0.5994,0.44666c0.03523,0.30389 -0.15534,0.56618 -0.44864,0.58684z"/><path d="M310.06908,230.65055c-0.28931,0.04582 -0.56617,-0.15534 -0.61198,-0.44465c-0.04582,-0.28931 0.13216,-0.54962 0.41949,-0.608c0.28733,-0.05838 0.56419,0.14277 0.61,0.43208c0.04582,0.28931 -0.14276,0.56417 -0.41751,0.62056z"/><path d="M326.12008,209.46314c-0.28931,0.04582 -0.53903,-0.14674 -0.58485,-0.43605c-0.04383,-0.27674 0.14674,-0.53903 0.42348,-0.58285c0.27674,-0.04382 0.55359,0.15733 0.59742,0.43407c0.04582,0.28931 -0.14474,0.55159 -0.43604,0.58483z"/><path d="M318.00982,232.34589c0.04582,0.28931 -0.15933,0.541 -0.43806,0.57225c-0.28933,0.04582 -0.5516,-0.14474 -0.58483,-0.43605c-0.04383,-0.27674 0.14874,-0.52645 0.42547,-0.57027c0.28931,-0.04583 0.55358,0.15733 0.5974,0.43407z"/><path d="M331.01444,221.23445c0.03125,0.27873 -0.15932,0.54101 -0.45063,0.57424c-0.27674,0.04382 -0.52644,-0.14873 -0.57027,-0.42547c-0.04582,-0.28931 0.14674,-0.539 0.43606,-0.58483c0.28931,-0.04582 0.55359,0.15733 0.58485,0.43605z"/><path d="M303.79652,218.1562c0.26416,-0.04184 0.52645,0.14874 0.58085,0.41091c0.04183,0.26416 -0.13814,0.51187 -0.40031,0.56628c-0.28732,0.05838 -0.5476,-0.11959 -0.59143,-0.39632c-0.04383,-0.27674 0.13415,-0.53704 0.41089,-0.58086z"/><path d="M305.32288,224.37465c0.04183,0.26416 -0.13816,0.51188 -0.4149,0.55571c-0.26416,0.04183 -0.51186,-0.13816 -0.5537,-0.40232c-0.04384,-0.27672 0.14873,-0.52645 0.41289,-0.56826c0.26416,-0.04184 0.52445,0.13615 0.55571,0.41488z"/><path d="M328.49152,226.39206c-0.04183,-0.26416 0.14874,-0.52643 0.41289,-0.56826c0.25158,-0.03984 0.4993,0.14015 0.55372,0.40231c0.04383,0.27674 -0.13418,0.53702 -0.39834,0.57886c-0.27475,0.05641 -0.53704,-0.13417 -0.56827,-0.41289z"/><path d="M320.22457,206.27051c-0.26416,0.04183 -0.51189,-0.13816 -0.55372,-0.40231c-0.04183,-0.26416 0.15073,-0.51386 0.4149,-0.55569c0.26416,-0.04183 0.51385,0.15073 0.55569,0.4149c0.04183,0.26416 -0.15072,0.51386 -0.41687,0.54312z"/><path d="M322.59215,206.07608c0.26416,-0.04183 0.52445,0.13618 0.56828,0.41291c0.04183,0.26416 -0.15073,0.51385 -0.4149,0.55568c-0.26416,0.04184 -0.51188,-0.13814 -0.55372,-0.4023c-0.05441,-0.26216 0.13616,-0.52446 0.40033,-0.56628z"/><path d="M305.6333,225.60205c0.26416,-0.04183 0.52445,0.13614 0.55172,0.38972c0.05641,0.27474 -0.12358,0.52245 -0.40032,0.56627c-0.26416,0.04183 -0.50988,-0.12556 -0.55171,-0.38971c-0.04183,-0.26416 0.12358,-0.52246 0.40033,-0.56628z"/><path d="M323.76305,231.3832c0.03985,0.25159 -0.14015,0.4993 -0.39172,0.53915c-0.26416,0.04184 -0.50987,-0.12558 -0.5517,-0.38974c-0.04183,-0.26416 0.13814,-0.51188 0.40229,-0.55371c0.25155,-0.03984 0.50128,0.15272 0.54113,0.4043z"/><path d="M306.25325,211.60354c-0.25158,0.03984 -0.49931,-0.14013 -0.54972,-0.37715c-0.05441,-0.26216 0.12358,-0.52246 0.38774,-0.56429c0.26416,-0.04183 0.51187,0.13816 0.55371,0.40231c0.04183,0.26416 -0.12755,0.4973 -0.39171,0.53912z"/><path d="M324.85167,230.11476c0.26416,-0.04183 0.50986,0.12557 0.5517,0.38974c0.04183,0.26416 -0.13815,0.51187 -0.4023,0.55371c-0.25155,0.03985 -0.49929,-0.14013 -0.53914,-0.39171c-0.05244,-0.24959 0.12558,-0.50988 0.38973,-0.55171z"/><path d="M321.58164,231.85761c0.25158,-0.03984 0.48471,0.12955 0.52456,0.38114c0.03985,0.25159 -0.14013,0.49929 -0.39171,0.53914c-0.25158,0.03984 -0.48869,-0.15471 -0.52854,-0.4063c-0.02528,-0.24101 0.14411,-0.47412 0.39571,-0.51397z"/><path d="M330.80742,218.86884c-0.03985,-0.25159 0.14014,-0.49929 0.38115,-0.52455c0.25158,-0.03984 0.4973,0.12756 0.53913,0.39171c0.03985,0.25159 -0.12955,0.48473 -0.39369,0.52656c-0.25356,0.02726 -0.4867,-0.14213 -0.52655,-0.39372z"/><path d="M304.4296,222.72376c0.03985,0.25159 -0.12754,0.49732 -0.38312,0.51199c-0.26217,0.05442 -0.49532,-0.11499 -0.53715,-0.37915c-0.03985,-0.25159 0.12955,-0.4847 0.39371,-0.52654c0.25357,-0.02727 0.4867,0.14213 0.52655,0.3937z"/><path d="M306.66142,228.18577c-0.25158,0.03984 -0.48471,-0.12955 -0.52456,-0.38114c-0.03985,-0.25159 0.11695,-0.48271 0.36654,-0.53514c0.26416,-0.04183 0.50987,0.12556 0.54972,0.37715c0.03983,0.25158 -0.12757,0.49731 -0.39173,0.53914z"/><path d="M326.1148,229.78578c-0.03985,-0.25159 0.12956,-0.48472 0.35599,-0.52057c0.25155,-0.03984 0.49727,0.12755 0.53712,0.37914c0.03985,0.25159 -0.14212,0.48671 -0.38112,0.52457c-0.24099,0.02528 -0.47413,-0.14412 -0.51198,-0.38312z"/><path d="M313.7982,232.45838c0.05243,0.24959 -0.11698,0.48273 -0.36856,0.52257c-0.25158,0.03984 -0.48471,-0.12955 -0.52456,-0.38113c-0.03785,-0.239 0.11897,-0.47014 0.37055,-0.50998c0.24959,-0.05243 0.47014,0.11895 0.52256,0.36854z"/><path d="M318.08272,204.9592c0.03785,0.239 -0.13153,0.47214 -0.37054,0.50999c-0.23901,0.03785 -0.45757,-0.12097 -0.49542,-0.35997c-0.03785,-0.239 0.13154,-0.47213 0.37054,-0.50998c0.22643,-0.03585 0.45757,0.12096 0.49541,0.35995z"/><path d="M325.10653,206.89001c0.22643,-0.03585 0.45756,0.12095 0.49541,0.35995c0.03785,0.239 -0.13153,0.47214 -0.37054,0.50999c-0.23901,0.03785 -0.45756,-0.12096 -0.49541,-0.35997c-0.03785,-0.239 0.13154,-0.47212 0.37054,-0.50997z"/><path d="M307.0513,229.42638c-0.03785,-0.239 0.12095,-0.45757 0.35996,-0.49541c0.22643,-0.03585 0.44498,0.12294 0.48084,0.34937c0.03785,0.239 -0.12095,0.45756 -0.35996,0.49541c-0.23901,0.03785 -0.45757,-0.12095 -0.48085,-0.34938z"/><path d="M310.27688,207.2914c-0.23901,0.03785 -0.445,-0.12294 -0.48086,-0.34936c-0.03785,-0.239 0.12097,-0.45758 0.35997,-0.49542c0.23901,-0.03785 0.45956,0.13353 0.48483,0.37453c0.03587,0.22642 -0.12493,0.43242 -0.36394,0.47026z"/><path d="M315.93208,233.71938c-0.239,0.03786 -0.44498,-0.12294 -0.48284,-0.36194c-0.03586,-0.22643 0.12095,-0.45758 0.35996,-0.49542c0.23901,-0.03785 0.44699,0.13554 0.48484,0.37454c0.02528,0.24101 -0.12294,0.44499 -0.36195,0.48282z"/><path d="M329.86793,213.09902c-0.03785,-0.239 0.11896,-0.47017 0.35796,-0.50802c0.22643,-0.03585 0.45956,0.13354 0.49541,0.35997c0.02327,0.22842 -0.13551,0.44697 -0.36195,0.48283c-0.22643,0.03585 -0.445,-0.12294 -0.49144,-0.33479z"/><path d="M310.91726,232.17963c-0.22443,0.04844 -0.45358,-0.09581 -0.506,-0.34539c-0.05041,-0.23702 0.10638,-0.46815 0.34539,-0.506c0.22643,-0.03585 0.44498,0.12294 0.49343,0.34737c0.05043,0.23702 -0.10837,0.45559 -0.3328,0.50403z"/><path d="M312.27714,205.91728c0.03785,0.239 -0.12096,0.45757 -0.35997,0.49542c-0.22643,0.03585 -0.44499,-0.12296 -0.48084,-0.34938c-0.03785,-0.239 0.12096,-0.45757 0.35996,-0.49541c0.22643,-0.03585 0.44499,0.12294 0.48085,0.34936z"/><path d="M319.58736,233.26947c-0.03785,-0.239 0.12096,-0.45759 0.34739,-0.49344c0.22643,-0.03585 0.44499,0.12294 0.48085,0.34936c0.03586,0.22643 -0.11037,0.443 -0.3368,0.47886c-0.22643,0.03585 -0.44299,-0.11035 -0.49144,-0.33479z"/><path d="M329.35976,210.94873c0.21385,-0.03387 0.43042,0.11235 0.47887,0.33679c0.05043,0.23702 -0.10836,0.45558 -0.3348,0.49144c-0.22643,0.03585 -0.44299,-0.11038 -0.47886,-0.33679c-0.03586,-0.22643 0.11037,-0.44301 0.33479,-0.49143z"/><path d="M308.99457,207.6621c0.03386,0.21384 -0.11238,0.43042 -0.33681,0.47885c-0.22443,0.04843 -0.44099,-0.09778 -0.48944,-0.32221c-0.04843,-0.22443 0.0978,-0.44101 0.32223,-0.48943c0.22443,-0.04844 0.45558,0.10836 0.50402,0.3328z"/><path d="M303.69536,214.09753c0.22443,-0.04843 0.42843,0.09978 0.47688,0.32423c0.05043,0.23702 -0.0958,0.4536 -0.33481,0.49144c-0.22643,0.03585 -0.44299,-0.11038 -0.47886,-0.3368c-0.03586,-0.22643 0.11035,-0.443 0.33678,-0.47885z"/><path d="M331.79051,222.8781c0.03586,0.22643 -0.11037,0.44299 -0.3368,0.47885c-0.22643,0.03585 -0.43242,-0.12493 -0.46628,-0.33877c-0.03586,-0.22643 0.11237,-0.43044 0.32622,-0.4643c0.21186,-0.04644 0.41584,0.10179 0.47686,0.32423z"/><path d="M303.16179,221.55772c-0.21384,0.03386 -0.41985,-0.12692 -0.46628,-0.33879c-0.03386,-0.21384 0.12495,-0.43241 0.3388,-0.46628c0.22643,-0.03585 0.43242,0.12494 0.46826,0.35136c0.03586,0.22643 -0.11435,0.41784 -0.34078,0.4537z"/><path d="M330.75521,214.71217c-0.03386,-0.21384 0.12495,-0.43242 0.33879,-0.46628c0.22643,-0.03585 0.44501,0.12294 0.46828,0.35136c0.03586,0.22643 -0.11435,0.41784 -0.34078,0.45371c-0.21385,0.03387 -0.41985,-0.12694 -0.46629,-0.33879z"/><path d="M313.09319,205.20778c-0.03386,-0.21385 0.11435,-0.41786 0.32621,-0.46429c0.23901,-0.03785 0.443,0.11037 0.47886,0.33679c0.03386,0.21385 -0.10176,0.41585 -0.3282,0.45171c-0.22643,0.03585 -0.43044,-0.11236 -0.47688,-0.32422z"/><path d="M303.07184,217.40702c-0.22444,0.04844 -0.42843,-0.09978 -0.46429,-0.32621c-0.03388,-0.21386 0.11234,-0.43043 0.32621,-0.46428c0.22643,-0.03585 0.443,0.11038 0.47886,0.33681c0.03388,0.21386 -0.12693,0.41984 -0.34078,0.4537z"/><path d="M328.49962,209.34418c0.21384,-0.03386 0.41782,0.11436 0.43912,0.3302c0.03386,0.21384 -0.10177,0.41585 -0.31561,0.44971c-0.21385,0.03387 -0.43241,-0.12493 -0.4537,-0.34077c-0.03386,-0.21383 0.11635,-0.40526 0.3302,-0.43913z"/><path d="M328.13361,228.44743c0.21385,-0.03387 0.40327,0.10377 0.46229,0.31363c0.03586,0.22643 -0.11236,0.43042 -0.3262,0.46428c-0.21584,0.02128 -0.41786,-0.11436 -0.45172,-0.3282c-0.03388,-0.21386 0.10178,-0.41586 0.31563,-0.44972z"/><path d="M304.60562,212.35445c-0.21384,0.03386 -0.40326,-0.10377 -0.43512,-0.30504c-0.03388,-0.21386 0.10374,-0.40328 0.3176,-0.43713c0.20126,-0.03186 0.39267,0.11834 0.42455,0.3196c0.03386,0.21384 -0.10576,0.3907 -0.30703,0.42257z"/><path d="M330.23642,225.52259c-0.03386,-0.21383 0.10378,-0.40326 0.30503,-0.43512c0.21384,-0.03386 0.40526,0.11636 0.43912,0.3302c0.03188,0.20126 -0.11832,0.39268 -0.31959,0.42455c-0.20126,0.03186 -0.39267,-0.11835 -0.42455,-0.3196z"/><path d="M332.08123,220.07263c0.20126,-0.03186 0.3887,0.09317 0.43514,0.30502c0.02988,0.18868 -0.09517,0.37612 -0.29444,0.42058c-0.20126,0.03186 -0.40328,-0.10377 -0.43516,-0.30503c-0.03188,-0.20126 0.09318,-0.3887 0.29445,-0.42057z"/><path d="M321.4389,204.98217c-0.03188,-0.20126 0.09318,-0.38871 0.30704,-0.42257c0.18869,-0.02989 0.38869,0.09318 0.42056,0.29445c0.04444,0.19927 -0.10377,0.40325 -0.30503,0.43512c-0.20126,0.03186 -0.39267,-0.11835 -0.42256,-0.30703z"/><path d="M306.57436,208.6643c-0.03188,-0.20126 0.10774,-0.37813 0.30901,-0.40999c0.20126,-0.03186 0.3887,0.09318 0.42058,0.29444c0.03386,0.21383 -0.11635,0.40528 -0.31961,0.42456c-0.20126,0.03186 -0.37811,-0.10774 -0.40998,-0.30901z"/><path d="M332.38866,216.23294c0.02988,0.18868 -0.09517,0.37611 -0.28386,0.406c-0.18669,0.04247 -0.37611,-0.09516 -0.406,-0.28384c-0.04246,-0.1867 0.09515,-0.37612 0.28384,-0.40601c0.18669,-0.04247 0.37612,0.09517 0.40601,0.28385z"/><path d="M315.48822,204.20956c0.02988,0.18868 -0.10775,0.3781 -0.29644,0.40798c-0.18869,0.02989 -0.37812,-0.10775 -0.408,-0.29644c-0.03187,-0.20125 0.10776,-0.3781 0.29645,-0.40798c0.20126,-0.03186 0.37611,0.09517 0.40798,0.29644z"/><path d="M307.99289,231.05672c-0.02988,-0.18868 0.09517,-0.37613 0.28187,-0.41859c0.18869,-0.02989 0.37613,0.09517 0.41859,0.28186c0.04246,0.1867 -0.09517,0.37612 -0.28186,0.41859c-0.19928,0.04445 -0.38671,-0.08059 -0.41859,-0.28186z"/><path d="M318.02056,234.12365c-0.04246,-0.1867 0.09515,-0.37611 0.28384,-0.406c0.18669,-0.04247 0.3887,0.09318 0.41858,0.28186c0.04247,0.18669 -0.09517,0.37611 -0.28386,0.406c-0.20126,0.03186 -0.38869,-0.09319 -0.41857,-0.28186z"/><path d="M324.25633,205.34834c0.18869,-0.02989 0.35097,0.09916 0.38084,0.28784c0.01731,0.1907 -0.11173,0.35296 -0.30041,0.38285c-0.18869,0.02989 -0.35097,-0.09918 -0.38085,-0.28786c-0.0279,-0.1761 0.11173,-0.35294 0.30041,-0.38282z"/><path d="M327.73845,208.44606c-0.18869,0.02989 -0.36354,-0.09716 -0.39342,-0.28584c-0.02988,-0.18868 0.09717,-0.36353 0.28585,-0.39342c0.18868,-0.02989 0.36354,0.09717 0.39342,0.28585c0.0279,0.1761 -0.09915,0.35095 -0.28585,0.39342z"/><path d="M319.62435,204.109c0.02988,0.18868 -0.09715,0.36355 -0.28584,0.39344c-0.18869,0.02989 -0.36354,-0.09717 -0.39342,-0.28585c-0.02988,-0.18868 0.09716,-0.36354 0.28584,-0.39343c0.18869,-0.02989 0.36354,0.09716 0.39342,0.28584z"/><path d="M302.56098,219.4737c0.02988,0.18868 -0.09915,0.35095 -0.28784,0.38084c-0.18869,0.02989 -0.35096,-0.09916 -0.38085,-0.28784c-0.02988,-0.18868 0.09916,-0.35096 0.28785,-0.38083c0.18869,-0.02989 0.36354,0.09716 0.38084,0.28785z"/><path d="M311.40119,233.44401c-0.0279,-0.1761 0.09057,-0.32381 0.26867,-0.33912c0.17613,-0.02789 0.3238,0.09058 0.3517,0.26668c0.02589,0.16351 -0.09058,0.32382 -0.26667,0.35171c-0.16552,0.01331 -0.3278,-0.11572 -0.35369,-0.27925z"/><path d="M314.27585,234.49746c-0.17811,0.01532 -0.32579,-0.10316 -0.35369,-0.27926c-0.02789,-0.17612 0.09057,-0.32382 0.26668,-0.35172c0.17613,-0.02789 0.32381,0.09058 0.35169,0.26669c0.02589,0.16351 -0.10314,0.32581 -0.26468,0.36428z"/><path d="M329.88545,228.27315c-0.17611,0.02788 -0.33838,-0.10115 -0.36427,-0.26468c-0.01331,-0.16553 0.11571,-0.32779 0.27925,-0.35369c0.16354,-0.02589 0.32582,0.10313 0.3517,0.26666c0.02789,0.17612 -0.09058,0.32382 -0.26667,0.35171z"/><path d="M303.78138,227.01713c-0.03848,-0.16155 0.07599,-0.33441 0.23953,-0.36031c0.16154,-0.03849 0.33439,0.07599 0.36029,0.23952c0.03849,0.16154 -0.07599,0.33442 -0.23951,0.36031c-0.16154,0.03849 -0.3344,-0.07599 -0.3603,-0.23951z"/><path d="M303.15677,225.02715c0.16352,-0.02589 0.32382,0.09056 0.34972,0.25408c0.02591,0.16352 -0.09255,0.31124 -0.25609,0.33712c-0.17611,0.0279 -0.32381,-0.09056 -0.34971,-0.25409c-0.02589,-0.16351 0.09056,-0.3238 0.25608,-0.33712z"/><path d="M305.00954,209.53104c-0.02789,-0.17612 0.09058,-0.32381 0.26667,-0.35171c0.16552,-0.01329 0.31124,0.09257 0.33713,0.25609c0.0279,0.17611 -0.09057,0.32383 -0.2541,0.34972c-0.17611,0.0279 -0.32182,-0.07799 -0.34971,-0.2541z"/><path d="M332.62982,217.99998c-0.03848,-0.16155 0.06539,-0.31983 0.22893,-0.34572c0.16154,-0.03847 0.31984,0.06539 0.34573,0.22893c0.03647,0.14896 -0.0674,0.30728 -0.21635,0.34374c-0.16154,0.03847 -0.31984,-0.06539 -0.3583,-0.22693z"/><path d="M323.87245,233.13243c-0.02591,-0.16353 0.09254,-0.31124 0.2435,-0.33515c0.15094,-0.02388 0.29665,0.08196 0.32056,0.23291c0.03848,0.16155 -0.06538,0.31985 -0.22891,0.34573c-0.15094,0.02388 -0.30926,-0.07998 -0.33515,-0.2435z"/><path d="M326.08081,232.17667c0.02591,0.16353 -0.07997,0.30925 -0.23093,0.33315c-0.16155,0.03848 -0.31982,-0.06541 -0.34571,-0.22893c-0.02589,-0.16351 0.09056,-0.32382 0.2415,-0.34771c0.16354,-0.02588 0.31124,0.09255 0.33513,0.24349z"/><path d="M304.89962,228.29714c0.16354,-0.02588 0.30924,0.07998 0.33314,0.23093c0.02391,0.15094 -0.07999,0.30924 -0.23093,0.33315c-0.16154,0.03847 -0.31983,-0.06542 -0.34572,-0.22893c-0.02391,-0.15097 0.07996,-0.30925 0.24349,-0.33513z"/><path d="M322.47765,233.68857c0.15097,-0.02391 0.29666,0.08195 0.31858,0.22034c0.02389,0.15097 -0.0694,0.29467 -0.22034,0.31858c-0.14895,0.03647 -0.30725,-0.06739 -0.33114,-0.21836c-0.02391,-0.15097 0.08196,-0.29665 0.23291,-0.32056z"/><path d="M302.16264,215.65551c-0.15095,0.02391 -0.29865,-0.09454 -0.30997,-0.24748c-0.01133,-0.15294 0.08396,-0.2841 0.2349,-0.30799c0.16352,-0.0259 0.29468,0.0694 0.32057,0.23291c0.01331,0.16553 -0.09455,0.29865 -0.24549,0.32254z"/><path d="M302.61623,212.90161c-0.02389,-0.15096 0.09455,-0.29864 0.24749,-0.30996c0.15095,-0.02391 0.28209,0.07136 0.30599,0.22231c0.02391,0.15097 -0.08196,0.29666 -0.23291,0.32056c-0.15094,0.02388 -0.29667,-0.08195 -0.32057,-0.23292z"/><path d="M316.7199,203.11187c0.15095,-0.02391 0.29467,0.06939 0.32057,0.23292c0.02389,0.15097 -0.07138,0.2821 -0.22034,0.31857c-0.14895,0.03647 -0.30725,-0.06739 -0.33114,-0.21834c-0.02389,-0.15096 0.07998,-0.30924 0.23093,-0.33315z"/><path d="M302.0723,223.716c-0.02591,-0.16352 0.08195,-0.29666 0.24549,-0.32255c0.15095,-0.02391 0.29865,0.09454 0.30998,0.24747c0.01133,0.15294 -0.08394,0.2841 -0.23489,0.30801c-0.16354,0.02589 -0.29667,-0.08196 -0.32058,-0.23292z"/><path d="M326.7873,206.1854c0.15294,-0.01132 0.2715,0.08594 0.29341,0.22432c0.02391,0.15097 -0.07137,0.28209 -0.22233,0.306c-0.15095,0.02391 -0.28208,-0.07138 -0.30599,-0.22235c-0.02391,-0.15097 0.08394,-0.28408 0.23489,-0.30797z"/><path d="M309.1674,232.36649c0.15095,-0.02391 0.28409,0.08397 0.29542,0.23691c0.01132,0.15294 -0.08594,0.2715 -0.22432,0.29341c-0.15095,0.02391 -0.28209,-0.07138 -0.30599,-0.22233c-0.02391,-0.15097 0.08395,-0.28409 0.2349,-0.30799z"/><path d="M316.68863,234.66981c0.15294,-0.01132 0.28608,0.09653 0.29542,0.2369c0.02391,0.15097 -0.08395,0.28407 -0.2369,0.2954c-0.14036,0.00934 -0.27151,-0.08593 -0.29343,-0.22431c-0.02391,-0.15097 0.08396,-0.28409 0.23491,-0.308z"/><path d="M327.4045,231.09021c0.15097,-0.02391 0.28409,0.08396 0.29542,0.2369c0.02391,0.15097 -0.08397,0.28408 -0.2369,0.2954c-0.14036,0.00934 -0.2715,-0.08593 -0.29341,-0.22431c-0.02391,-0.15097 0.08396,-0.28408 0.23492,-0.30799z"/><path d="M332.19969,224.32197c0.15095,-0.02391 0.29665,0.08195 0.30599,0.22232c0.02191,0.13837 -0.07138,0.2821 -0.20974,0.30401c-0.14896,0.03647 -0.29268,-0.05682 -0.31658,-0.20777c-0.02389,-0.15097 0.06939,-0.29468 0.22033,-0.31857z"/><path d="M332.97785,221.82614c0.13837,-0.02192 0.26952,0.07336 0.29143,0.21174c0.00934,0.14037 -0.05219,0.24038 -0.20115,0.27685c-0.13639,0.0345 -0.2801,-0.0588 -0.30202,-0.19718c-0.02191,-0.13838 0.07336,-0.2695 0.21173,-0.29142z"/><path d="M309.30517,204.98241c0.14036,-0.00934 0.2298,0.06678 0.26427,0.20315c0.0345,0.13638 -0.06079,0.2675 -0.20116,0.27686c-0.13837,0.02192 -0.22778,-0.0542 -0.26029,-0.17798c-0.02391,-0.15097 0.05878,-0.2801 0.19716,-0.30202z"/><path d="M310.97461,204.1249c0.11521,-0.00535 0.2152,0.05616 0.25169,0.20514c0.03449,0.13637 -0.06078,0.26752 -0.20116,0.27686c-0.15294,0.01132 -0.24236,-0.06479 -0.27686,-0.20117c-0.03249,-0.1238 0.07537,-0.25692 0.22632,-0.28083z"/><path d="M332.17494,212.11474c0.00734,0.12778 -0.05421,0.22779 -0.19058,0.26228c-0.13639,0.03449 -0.26753,-0.06077 -0.28944,-0.19915c-0.02391,-0.15097 0.05221,-0.24038 0.18859,-0.27487c0.13639,-0.0345 0.26753,0.06077 0.29142,0.21174z"/><path d="M321.1222,234.81875c0.00536,0.11521 -0.0562,0.21524 -0.19257,0.24971c-0.13837,0.02192 -0.26753,-0.06079 -0.28943,-0.19918c-0.02191,-0.13838 0.0522,-0.24037 0.18858,-0.27486c0.13637,-0.03449 0.26752,0.06078 0.29341,0.22432z"/><path d="M306.06711,230.21407c-0.00723,0.11719 -0.05619,0.21523 -0.19256,0.24971c-0.13637,0.03449 -0.25494,-0.06278 -0.27685,-0.20117c-0.02391,-0.15097 0.05221,-0.24038 0.18858,-0.27487c0.12381,-0.0325 0.25693,0.07535 0.28084,0.22631z"/><path d="M301.59821,217.87249c0.00736,0.12778 -0.05419,0.22779 -0.20513,0.2517c-0.1238,0.0325 -0.2675,-0.06078 -0.27684,-0.20115c-0.01132,-0.15294 0.06478,-0.24237 0.20115,-0.27686c0.12381,-0.0325 0.25693,0.07535 0.28084,0.22631z"/><path d="M301.51876,222.25632c-0.1238,0.0325 -0.24235,-0.06477 -0.26227,-0.19057c-0.02191,-0.13837 0.04162,-0.2258 0.178,-0.26029c0.1238,-0.0325 0.24235,0.06479 0.26627,0.21572c0.00534,0.11519 -0.07076,0.20462 -0.18198,0.23514z"/><path d="M321.13885,203.25022c0.01992,0.1258 -0.07734,0.24436 -0.20513,0.2517c-0.14036,0.00934 -0.2172,-0.06877 -0.24971,-0.19257c-0.01992,-0.1258 0.07736,-0.24435 0.20315,-0.26427c0.12779,-0.00735 0.24635,0.08995 0.2517,0.20514z"/><path d="M323.39558,203.82124c0.12381,-0.0325 0.25495,0.06279 0.27486,0.18857c0.01794,0.11323 -0.07536,0.25694 -0.20314,0.26428c-0.14036,0.00933 -0.2278,-0.05421 -0.26229,-0.19058c-0.00734,-0.12778 0.05419,-0.22779 0.19056,-0.26228z"/><path d="M307.65431,205.8757c0.14036,-0.00933 0.23836,0.03961 0.26027,0.17799c0.03249,0.1238 -0.05021,0.25296 -0.176,0.27287c-0.12579,0.01993 -0.24237,-0.06479 -0.26229,-0.19057c-0.02191,-0.13837 0.05419,-0.22779 0.178,-0.26029z"/><path d="M331.25152,227.12839c-0.00934,-0.14037 0.08795,-0.25893 0.20315,-0.26426c0.14036,-0.00933 0.22779,0.05418 0.2497,0.19257c0.00934,0.14037 -0.05419,0.22779 -0.19056,0.26228c-0.11122,0.03052 -0.24236,-0.06477 -0.26228,-0.19057z"/><path d="M331.03391,210.28387c0.14036,-0.00933 0.2278,0.05419 0.24971,0.19257c0.01992,0.1258 -0.07735,0.24434 -0.20515,0.25169c-0.14036,0.00932 -0.21721,-0.06876 -0.24771,-0.17997c-0.01133,-0.15294 0.07337,-0.26952 0.20315,-0.26427z"/><path d="M312.58799,203.72753c-0.04771,-0.05692 -0.14772,-0.11845 -0.17225,-0.19194c-0.04706,-0.13439 0.04161,-0.2258 0.17998,-0.24771c0.12579,-0.01991 0.2152,0.05618 0.23513,0.18197c0.01992,0.1258 -0.04359,0.21322 -0.24286,0.25768z"/><path d="M332.73504,213.53471c0.02516,-0.00399 0.05032,-0.00797 0.08805,-0.01394c0.07484,0.06551 0.17485,0.12705 0.20139,0.2131c0.03251,0.1238 -0.04161,0.22579 -0.17999,0.24772c-0.13837,0.02192 -0.24036,-0.0522 -0.23712,-0.19456c0.00061,-0.07746 0.07674,-0.16688 0.12767,-0.25231z"/><path d="M303.42553,210.43951c-0.00399,-0.02515 -0.00796,-0.05031 -0.02651,-0.08605c0.08008,-0.06424 0.12702,-0.17487 0.21309,-0.20139c0.13439,-0.04708 0.23639,0.02704 0.2583,0.16541c0.02191,0.13838 -0.03764,0.25096 -0.17999,0.24771c-0.09004,0.00137 -0.18146,-0.08732 -0.2649,-0.12569z"/><path d="M329.1834,230.67956c-0.18869,0.02989 -0.2887,-0.03166 -0.32318,-0.16803c-0.01992,-0.1258 0.04359,-0.21321 0.1674,-0.24571c0.13639,-0.0345 0.25095,0.03762 0.2583,0.1654c0.00136,0.09005 -0.07475,0.17947 -0.10252,0.24835z"/><path d="M330.39235,208.83814c0.03251,0.1238 -0.0436,0.21323 -0.1694,0.23314c-0.12579,0.01991 -0.22779,-0.05418 -0.22255,-0.18397c-0.00136,-0.09005 0.07672,-0.16689 0.15744,-0.3086c0.12056,0.10985 0.20797,0.17336 0.2345,0.25943z"/><path d="M333.55885,219.63232c-0.00399,-0.02515 -0.00798,-0.05033 -0.02652,-0.08607c0.06752,-0.06227 0.12905,-0.16228 0.20252,-0.18681c0.1238,-0.0325 0.2258,0.04161 0.24571,0.16739c0.03251,0.1238 -0.04161,0.22582 -0.17138,0.22057c-0.09004,0.00136 -0.1669,-0.07673 -0.25034,-0.11508z"/><path d="M318.34501,202.30006c0.02516,-0.00397 0.05032,-0.00798 0.08805,-0.01395c0.06027,0.05493 0.14772,0.11845 0.17224,0.19193c0.03251,0.12378 -0.04162,0.22581 -0.15881,0.21857c-0.07747,-0.00063 -0.19403,-0.08533 -0.204,-0.14822c-0.02452,-0.07348 0.06416,-0.1649 0.10252,-0.24835z"/><path d="M305.86716,207.04843c-0.00599,-0.03772 -0.00995,-0.0629 -0.00336,-0.10262c0.06949,-0.04969 0.12902,-0.16226 0.19392,-0.15965c0.06488,0.00261 0.17947,0.07473 0.20398,0.14821c0.04508,0.1218 -0.02903,0.2238 -0.15881,0.21856c-0.07747,-0.00063 -0.15232,-0.06614 -0.23577,-0.10451z"/><path d="M312.49758,234.83065c0.02516,-0.00399 0.05032,-0.00798 0.08607,-0.02652c0.06028,0.05492 0.1583,0.10387 0.18283,0.17735c0.04508,0.1218 -0.02902,0.22383 -0.14422,0.22916c-0.07547,0.01194 -0.19206,-0.07276 -0.2146,-0.13366c-0.00997,-0.06289 0.05157,-0.1629 0.08993,-0.24634z"/><path d="M306.69213,231.63666c0.06226,0.06751 0.16227,0.12903 0.17224,0.19192c0.01195,0.07548 -0.06016,0.19004 -0.13365,0.21457c-0.10722,0.05568 -0.21123,-0.03102 -0.21656,-0.14621c0.00061,-0.07746 0.06613,-0.15231 0.10449,-0.23575c0.02516,-0.00399 0.05033,-0.00797 0.07348,-0.02452z"/><path d="M333.65086,215.24648c0.06488,0.00261 0.17946,0.07473 0.20201,0.13565c0.04309,0.10922 -0.03302,0.19866 -0.14822,0.204c-0.07547,0.01196 -0.15032,-0.05355 -0.27748,-0.12368c0.09927,-0.10598 0.16081,-0.20599 0.2237,-0.21596z"/><path d="M319.19707,235.44598c0.10798,0.11185 0.20598,0.16079 0.21595,0.22369c0.00996,0.06289 -0.06217,0.17747 -0.12307,0.20002c-0.10724,0.05567 -0.20925,-0.01846 -0.21459,-0.13366c-0.01196,-0.07549 0.05356,-0.15032 0.1217,-0.29006z"/><path d="M325.89799,204.55968c0.10798,0.11185 0.20799,0.17337 0.20537,0.23826c0.00997,0.06289 -0.07673,0.16688 -0.13763,0.18943c-0.10923,0.04309 -0.21123,-0.03101 -0.20398,-0.14821c0.00061,-0.07746 0.06616,-0.15232 0.13627,-0.27948z"/><path d="M315.07748,235.56969c0.08084,0.10325 0.16826,0.16677 0.17423,0.2045c-0.00261,0.06489 -0.0827,0.12917 -0.12505,0.18744c-0.06028,-0.05492 -0.15632,-0.09131 -0.17884,-0.15221c-0.02056,-0.04833 0.05757,-0.12515 0.12967,-0.23973z"/><path d="M310.30179,234.23707c-0.08869,0.09142 -0.13763,0.18944 -0.18995,0.18482c-0.06289,0.00997 -0.12716,-0.07013 -0.19802,-0.11047c0.04036,-0.07086 0.07673,-0.16688 0.13763,-0.18942c0.04832,-0.02055 0.13775,0.05557 0.25034,0.11509z"/><path d="M300.56836,220.16319c0.09142,0.0887 0.17883,0.1522 0.17422,0.20451c-0.00261,0.06488 -0.0827,0.12913 -0.12505,0.18741c-0.05829,-0.04235 -0.15631,-0.09128 -0.17884,-0.1522c-0.02054,-0.04834 0.05756,-0.12517 0.12968,-0.23974z"/><path d="M314.21947,202.38604c0.09141,0.08868 0.204,0.14823 0.1974,0.18795c-0.00261,0.06488 -0.0827,0.12914 -0.13563,0.20199c-0.05829,-0.04235 -0.1669,-0.07672 -0.17687,-0.13962c-0.00797,-0.05032 0.05755,-0.12517 0.11509,-0.25034z"/><path d="M329.31163,207.06221c0.06688,0.0152 0.13115,0.09528 0.19144,0.1502c-0.05492,0.06029 -0.09131,0.15629 -0.1542,0.16626c-0.06289,0.00996 -0.13975,-0.06814 -0.25234,-0.12767c0.08866,-0.09142 0.15021,-0.19142 0.2151,-0.18881z"/><path d="M330.50248,229.64541c0.07611,-0.08943 0.12705,-0.17486 0.18995,-0.18483c0.06489,0.00262 0.12715,0.07012 0.18544,0.11247c-0.04235,0.05827 -0.08071,0.14173 -0.12904,0.16228c-0.0609,0.02255 -0.13575,-0.04296 -0.24633,-0.08993z"/><path d="M301.20625,213.52463c0.08943,0.0761 0.18743,0.12506 0.1934,0.16278c-0.00262,0.06489 -0.07011,0.12716 -0.11048,0.19802c-0.05631,-0.02977 -0.15231,-0.06616 -0.17286,-0.11446c-0.00797,-0.05032 0.04297,-0.13576 0.08992,-0.24635z"/><path d="M300.49842,216.38325c-0.0523,-0.00462 -0.102,-0.07411 -0.16028,-0.11645c0.04235,-0.05828 0.0807,-0.14173 0.13102,-0.1497c0.05032,-0.00797 0.1106,0.04695 0.22318,0.10649c-0.09068,0.07882 -0.1436,0.15168 -0.19392,0.15965z"/><path d="M334.02218,223.69808c-0.00462,0.0523 -0.07014,0.12716 -0.10786,0.13313c-0.03772,0.00598 -0.12516,-0.05754 -0.13314,-0.10787c-0.01857,-0.03573 0.04893,-0.09801 0.09788,-0.19603c0.06425,0.0801 0.13513,0.12044 0.1431,0.17076z"/><path d="M304.54594,207.82501c0.00797,0.05031 -0.05554,0.13775 -0.09328,0.14372c-0.05031,0.00797 -0.12319,-0.04497 -0.14373,-0.0933c-0.02056,-0.04833 0.0344,-0.1086 0.08335,-0.20661c0.07485,0.06552 0.15828,0.10387 0.15366,0.15618z"/><path d="M301.60337,226.29183c-0.03772,0.00598 -0.12316,-0.04497 -0.12913,-0.0827c-0.00598,-0.03773 0.04496,-0.12317 0.0827,-0.12915c0.03573,-0.01855 0.09602,0.03637 0.17946,0.07473c-0.06552,0.07485 -0.09331,0.14372 -0.13303,0.13712z"/><path d="M334.51898,216.90135c0.07284,0.05294 0.14371,0.09331 0.13711,0.13303c0.00797,0.05031 -0.04896,0.09802 -0.08071,0.14172c-0.0437,-0.03175 -0.12514,-0.05755 -0.13113,-0.09527c-0.01855,-0.03574 0.03637,-0.09603 0.07473,-0.17947z"/><path d="M333.09434,226.06289c0.06226,0.06751 0.13313,0.10787 0.13711,0.13302c0.00797,0.05031 -0.04895,0.09803 -0.08071,0.14173c-0.0437,-0.03175 -0.12515,-0.05756 -0.13114,-0.09528c-0.01855,-0.03574 0.03636,-0.09602 0.07473,-0.17946z"/><path d="M302.58995,227.79897c-0.05494,0.06026 -0.09528,0.13114 -0.1456,0.13911c-0.0523,-0.00461 -0.12516,-0.05754 -0.13113,-0.09527c-0.00599,-0.03772 0.05754,-0.12518 0.09528,-0.13114c0.05032,-0.00796 0.09803,0.04896 0.18147,0.08732z"/><path d="M301.99037,211.06653c0.06028,0.05492 0.13113,0.09529 0.13711,0.13302c0.00599,0.03772 -0.04496,0.12317 -0.0827,0.12915c-0.03772,0.00598 -0.11058,-0.04698 -0.12915,-0.08271c-0.00598,-0.03773 0.03638,-0.096 0.07473,-0.17945z"/><path d="M322.70369,202.38348c-0.05494,0.06026 -0.08471,0.11657 -0.12244,0.12255c-0.03774,0.00597 -0.08345,-0.03838 -0.12714,-0.07013c0.03176,-0.0437 0.04695,-0.11061 0.08469,-0.11657c0.03575,-0.01855 0.08147,0.02579 0.16491,0.06415z"/><path d="M334.64666,221.0461c0.04969,0.06949 0.10798,0.11185 0.11196,0.137c0.00599,0.03772 -0.05292,0.07286 -0.08468,0.11656c-0.0437,-0.03175 -0.10001,-0.06154 -0.10599,-0.09927c-0.00597,-0.03774 0.03837,-0.08345 0.07872,-0.15431z"/><path d="M326.63369,233.71384c0.06027,0.05493 0.11656,0.08472 0.12255,0.12244c0.00599,0.03772 -0.03836,0.08344 -0.07013,0.12715c-0.0437,-0.03175 -0.11059,-0.04697 -0.11656,-0.0847c-0.00597,-0.03774 0.03836,-0.08346 0.06414,-0.16489z"/><path d="M303.30376,229.37513c0.03774,-0.00598 0.09802,0.04897 0.104,0.08669c0.00599,0.03772 -0.04896,0.09802 -0.0867,0.10398c-0.03774,0.00598 -0.08544,-0.05094 -0.1563,-0.09129c0.05492,-0.06029 0.09927,-0.10599 0.13899,-0.09938z"/><path d="M317.74556,236.53977c-0.05295,0.07286 -0.08471,0.11656 -0.13503,0.12453c-0.03772,0.00599 -0.10857,-0.03439 -0.11257,-0.05953c0.00462,-0.0523 0.03438,-0.1086 0.07012,-0.12714c0.03774,-0.00598 0.09603,0.03637 0.17748,0.06214z"/><path d="M307.657,233.49539c0.00598,0.03773 -0.04897,0.09803 -0.07413,0.10201c-0.03972,-0.00661 -0.11059,-0.04698 -0.11656,-0.08471c-0.00399,-0.02516 0.05093,-0.08543 0.09128,-0.15629c0.04971,0.06949 0.10799,0.11184 0.09939,0.139z"/></g><path d="M313.07945,229.0055c-0.93872,-5.92758 3.10558,-11.49384 9.03317,-12.43255c5.92759,-0.93871 11.49383,3.10557 12.43255,9.03316c0.93871,5.92759 -3.10559,11.49383 -9.03317,12.43255c-5.92759,0.93871 -11.49383,-3.10557 -12.43255,-9.03316z" fill="none" stroke="#000000" stroke-width="1" stroke-linecap="butt"/><path d="M311.6802,229.22708c-1.0611,-6.70037 3.51045,-12.99229 10.21083,-14.05339c6.70038,-1.0611 12.99228,3.51046 14.05338,10.21083c1.06109,6.70038 -3.51044,12.9923 -10.21082,14.0534c-6.70038,1.0611 -12.9923,-3.51044 -14.0534,-10.21082z" fill="none" stroke="#000000" stroke-width="1" stroke-linecap="butt"/><path d="M325.99547,241.09157c-7.61368,1.20573 -14.7632,-3.98894 -15.96892,-11.6026c-1.20572,-7.61366 3.98892,-14.76321 11.6026,-15.96894c7.61368,-1.20573 14.76321,3.98895 15.96893,11.60261c1.20572,7.61366 -3.98892,14.7632 -11.6026,15.96893z" fill="none" stroke="#000000" stroke-width="1" stroke-linecap="butt"/><path d="M314.98751,228.70332c-0.77184,-4.8738 2.55345,-9.45047 7.42726,-10.22232c4.87378,-0.77183 9.45049,2.55347 10.22233,7.42727c0.77184,4.8738 -2.55347,9.45049 -7.42727,10.22233c-4.87378,0.77183 -9.45047,-2.55347 -10.22232,-7.42727z" fill="#000000" stroke="#000000" stroke-width="1" stroke-linecap="butt"/><path d="M295.9255,246.35881c0,0 -3.7301,-9.96824 -4.51621,-14.93214c-0.73078,-4.61453 -0.04653,-13.87963 -0.04653,-13.87963l3.81613,-0.60434l4.56274,28.81177l-3.81612,0.60433z" fill="#393912" stroke="none" stroke-width="0" stroke-linecap="butt"/><path d="M333.08167,225.52478l-0.67964,-5.11494l82.81791,-11.41725c0,0 1.02421,-0.4349 1.88193,-1.28782c1.00903,-1.0034 1.95738,-2.46202 3.22991,-2.66025c2.31034,-0.3599 4.89491,0.23442 6.90488,0.04422c4.73998,-0.44851 8.08812,-1.38219 10.07478,-1.605c1.9293,-0.21635 1.37454,1.34244 1.62223,2.66895c0.2205,1.18088 1.34089,2.13586 1.34089,2.13586l0.05845,0.369c0,0 -0.77049,1.25443 -0.61536,2.44567c0.17429,1.33814 1.18354,2.64928 -0.71821,3.0396c-1.95828,0.40193 -5.43108,0.54846 -10.07773,1.58643c-1.97039,0.44015 -4.24487,1.80397 -6.55336,2.17551c-1.27152,0.20465 -2.62413,-0.88959 -3.89382,-1.53212c-1.07929,-0.54618 -2.18777,-0.64333 -2.18777,-0.64333l-82.29323,14.73033l-0.93402,-5.07468z" data-paper-data="{&quot;index&quot;:null}" fill="#393912" stroke="none" stroke-width="0" stroke-linecap="round"/><g fill="#dfe0e2" stroke="none" stroke-width="0" stroke-linecap="butt"><g><path d="M434.11971,218.00308c-2.1764,0.30014 -1.66566,-0.9462 -1.76581,-1.57847c-0.10013,-0.63227 2.16082,-0.73339 3.13558,-0.88776c0.97476,-0.15437 0.61278,2.19283 -1.36978,2.46623z"/><path d="M432.99066,214.27005l1.14484,-0.18131l0.36262,2.28968l-1.14484,0.18132z"/></g><g><path d="M430.07699,217.17636c0.97476,-0.15437 0.6128,2.19282 -1.36976,2.46622c-2.17642,0.30014 -1.6657,-0.94621 -1.76582,-1.57848c-0.10013,-0.63227 2.16082,-0.73338 3.13557,-0.88774z"/><path d="M427.57814,215.90957l1.14483,-0.18131l0.36261,2.28968l-1.14484,0.18129z"/></g><g><path d="M424.28284,218.87631c0.97476,-0.15437 0.61279,2.19283 -1.36977,2.46624c-2.17642,0.30014 -1.66569,-0.9462 -1.76581,-1.57849c-0.10013,-0.63227 2.16081,-0.73336 3.13559,-0.88773z"/><path d="M421.78402,217.6095l1.14484,-0.18131l0.36261,2.28967l-1.14484,0.18131z"/></g></g><g data-paper-data="{&quot;index&quot;:null}" fill="#dfe0e2" stroke="none" stroke-width="0" stroke-linecap="butt"><g><path d="M433.51036,203.03957c-0.97476,0.15437 -3.1563,0.7568 -3.25642,0.12452c-0.10013,-0.63227 -0.97098,-1.65982 1.19167,-2.04685c1.97003,-0.35254 3.03951,1.76796 2.06475,1.92233z"/><path d="M431.16262,202.7268l1.14485,-0.18131l0.3626,2.28968l-1.14483,0.1813z"/></g><g><path d="M427.85613,203.15261c-0.97476,0.15437 -3.15632,0.75679 -3.25645,0.1245c-0.10013,-0.63227 -0.97097,-1.65981 1.19168,-2.04684c1.97003,-0.35254 3.03951,1.76796 2.06475,1.92233z"/><path d="M425.50837,202.83983l1.14484,-0.18131l0.3626,2.28968l-1.14484,0.18131z"/></g><g><path d="M419.75549,201.40381c1.97003,-0.35254 3.03952,1.76796 2.06476,1.92233c-0.97476,0.15437 -3.15632,0.75679 -3.25644,0.12452c-0.10013,-0.63227 -0.97096,-1.65983 1.19169,-2.04685z"/><path d="M419.47251,203.01334l1.14484,-0.1813l0.3626,2.28968l-1.14483,0.18129z"/></g></g><path d="M433.67275,212.40171c-0.10848,-0.68497 0.35886,-1.32817 1.04383,-1.43665c0.68497,-0.10848 1.32818,0.35887 1.43664,1.04384c0.10848,0.68497 -0.35886,1.32818 -1.04383,1.43666c-0.68497,0.10848 -1.32817,-0.35887 -1.43665,-1.04384z" fill="#dfe0e2" stroke="none" stroke-width="0" stroke-linecap="butt"/><path d="M432.75114,206.58211c-0.10848,-0.68497 0.35887,-1.32817 1.04384,-1.43664c0.68497,-0.10848 1.32818,0.35887 1.43666,1.04384c0.10848,0.68497 -0.35887,1.32818 -1.04384,1.43665c-0.68497,0.10848 -1.32818,-0.35887 -1.43666,-1.04384z" fill="#dfe0e2" stroke="none" stroke-width="0" stroke-linecap="butt"/><path d="M426.87112,207.12212c-0.10848,-0.68497 0.35885,-1.32817 1.04382,-1.43664c0.68497,-0.10848 1.32817,0.35886 1.43665,1.04384c0.10848,0.68497 -0.35886,1.32817 -1.04384,1.43665c-0.68497,0.10848 -1.32818,-0.35887 -1.43664,-1.04383z" fill="#dfe0e2" stroke="none" stroke-width="0" stroke-linecap="butt"/><path d="M420.82015,207.20019c-0.10848,-0.68497 0.35886,-1.32818 1.04382,-1.43665c0.68497,-0.10848 1.32817,0.35887 1.43664,1.04384c0.10848,0.68497 -0.35887,1.32816 -1.04384,1.43663c-0.68497,0.10848 -1.32817,-0.35886 -1.43664,-1.04383z" fill="#dfe0e2" stroke="none" stroke-width="0" stroke-linecap="butt"/><path d="M427.81819,213.72005c-0.10848,-0.68497 0.35886,-1.32816 1.04384,-1.43664c0.68497,-0.10848 1.32818,0.35886 1.43666,1.04382c0.10848,0.68497 -0.35887,1.32818 -1.04384,1.43666c-0.68497,0.10848 -1.32817,-0.35887 -1.43665,-1.04384z" fill="#dfe0e2" stroke="none" stroke-width="0" stroke-linecap="butt"/><path d="M421.91351,215.33969c-0.10848,-0.68497 0.35887,-1.32818 1.04384,-1.43666c0.68497,-0.10848 1.32819,0.35886 1.43666,1.04384c0.10848,0.68497 -0.35886,1.32817 -1.04384,1.43665c-0.68497,0.10848 -1.32817,-0.35885 -1.43664,-1.04382z" fill="#dfe0e2" stroke="none" stroke-width="0" stroke-linecap="butt"/><g fill="none" stroke="#dfe0e2" stroke-width="0.5" stroke-linecap="round"><path d="M294.75988,236.73007c0,0 39.42238,-7.21459 60.00049,-10.68956c21.90186,-3.6985 67.68713,-10.87268 67.68713,-10.87268"/><path d="M294.12199,234.81929c0,0 39.59788,-6.59333 60.78267,-10.00126c23.26894,-3.74319 73.16613,-11.54664 73.16613,-11.54664"/><path d="M293.59312,232.89124c0,0 57.01961,-9.8173 81.58581,-13.45353c16.33957,-2.41855 40.90924,-5.62697 52.43171,-6.94227c3.95815,-0.45182 6.42239,-0.39177 6.42239,-0.39177"/></g><g data-paper-data="{&quot;index&quot;:null}" fill="none" stroke="#dfe0e2" stroke-width="0.5" stroke-linecap="round"><path d="M421.30401,207.94728c0,0 -45.76161,7.32349 -67.73454,10.57315c-20.6449,3.05325 -60.36746,8.37232 -60.36746,8.37232"/><path d="M427.57065,207.29018c0,0 -4.66485,1.03259 -11.71332,2.24532c-16.26029,2.79766 -45.52783,7.57102 -61.77292,10.10303c-21.20118,3.30446 -60.89869,9.26863 -60.89869,9.26863"/><path d="M433.26943,207.28184c0,0 -2.3251,0.81852 -6.22919,1.61178c-11.36507,2.30922 -35.72387,6.84931 -52.0112,9.59767c-24.48766,4.13211 -81.75059,12.41297 -81.75059,12.41297"/></g><path d="M294.74039,224.66893l1.66838,13.6228" fill="none" stroke="#dfe0e2" stroke-width="0.5" stroke-linecap="round"/><g fill="#dfe0e2" stroke="none" stroke-width="0" stroke-linecap="butt"><path d="M294.53093,237.8023c-0.51732,0.08192 -1.00311,-0.27102 -1.08503,-0.78835c-0.08193,-0.51731 0.27104,-1.0031 0.78835,-1.08503c0.51732,-0.08192 1.0031,0.27103 1.08503,0.78836c0.08193,0.51732 -0.27103,1.00308 -0.78834,1.08501z"/><path d="M293.08332,234.72427c-0.08192,-0.5173 0.27103,-1.00311 0.78834,-1.08502c0.51732,-0.08192 1.00308,0.27102 1.08502,0.78835c0.08193,0.51731 -0.27103,1.0031 -0.78835,1.08502c-0.51729,0.08193 -1.00308,-0.27102 -1.08501,-0.78834z"/></g><path d="M291.81969,226.74509c-0.08192,-0.5173 0.27103,-1.00311 0.78834,-1.08502c0.51732,-0.08192 1.0031,0.27103 1.08503,0.78835c0.08193,0.51732 -0.27103,1.0031 -0.78834,1.08502c-0.51729,0.08193 -1.0031,-0.27102 -1.08502,-0.78834z" fill="#dfe0e2" stroke="none" stroke-width="0" stroke-linecap="butt"/><path d="M292.97064,227.94975c0.51732,-0.08192 1.00308,0.27102 1.08501,0.78834c0.08193,0.51731 -0.27103,1.0031 -0.78834,1.08502c-0.51729,0.08193 -1.00308,-0.27102 -1.08501,-0.78833c-0.08193,-0.51731 0.27103,-1.00311 0.78834,-1.08504z" fill="#dfe0e2" stroke="none" stroke-width="0" stroke-linecap="butt"/><path d="M293.37602,229.94814c0.4311,-0.06826 0.83591,0.22586 0.90418,0.65696c0.06827,0.43109 -0.22586,0.83593 -0.65695,0.90419c-0.43109,0.06825 -0.83591,-0.22587 -0.90418,-0.65697c-0.06827,-0.43109 0.22586,-0.83592 0.65696,-0.90418z" fill="#dfe0e2" stroke="none" stroke-width="0" stroke-linecap="butt"/><path d="M293.67819,231.85621c0.4311,-0.06826 0.83593,0.22586 0.9042,0.65695c0.06827,0.43109 -0.22588,0.83592 -0.65697,0.90419c-0.4311,0.06826 -0.83591,-0.22585 -0.90418,-0.65695c-0.06827,-0.43109 0.22585,-0.83593 0.65695,-0.90419z" fill="#dfe0e2" stroke="none" stroke-width="0" stroke-linecap="butt"/><g fill="#7d7d00" stroke="none" stroke-width="1" stroke-linecap="butt"><path d="M277.72515,213.93655c0.49327,-1.0516 1.29012,-1.41577 1.41213,-0.64547l3.33374,21.05123c0.08522,0.53815 -0.2293,1.42083 -0.69559,1.9598l-1.12577,1.29239c-0.46629,0.53896 -0.78079,1.42164 -0.69557,1.95979l1.28336,8.10393c0.08522,0.53815 -0.2293,1.42084 -0.69561,1.9598l-1.13466,1.30462c-0.46629,0.53896 -0.92117,0.53528 -1.0064,-0.00286l-3.20842,-20.25982c-0.05515,-0.34822 0.05073,-0.84092 0.27933,-1.30979l1.79004,-3.72316c0.2286,-0.46886 0.33282,-0.97213 0.27934,-1.30979l-1.10457,-6.97487c-0.05515,-0.34822 0.05072,-0.8409 0.27931,-1.30977z"/></g></g><path d="M320.6677,256.09768c0,7.62607 -5.84798,13.80822 -13.06182,13.80822c-7.21385,0 -13.06183,-6.18215 -13.06183,-13.80822c0,-7.62607 5.84798,-13.80821 13.06183,-13.80821c7.21385,0 13.06183,6.18214 13.06183,13.80821z" fill="#ecec60" stroke="#000000" stroke-width="2" stroke-linecap="butt"/><path d="M405.15825,221.25662c0,7.95489 -5.84798,14.40362 -13.06183,14.40362c-7.21385,0 -13.06182,-6.44872 -13.06182,-14.40362c0,-7.95489 5.84798,-14.4036 13.06183,-14.4036c7.21385,0 13.06183,6.44871 13.06183,14.4036z" fill="#ecec60" stroke="#000000" stroke-width="2" stroke-linecap="butt"/></g></g></svg>