<svg version="1.1" xmlns="http://www.w3.org/2000/svg" xmlns:xlink="http://www.w3.org/1999/xlink" width="137.87352" height="312.10451" viewBox="0,0,137.87352,312.10451"><g transform="translate(-257.67309,1.15582)"><g data-paper-data="{&quot;isPaintingLayer&quot;:true}" fill-rule="nonzero" stroke-linejoin="miter" stroke-miterlimit="10" stroke-dasharray="" stroke-dashoffset="0" style="mix-blend-mode: normal"><path d="M287.81614,309.94868l15.14285,-131.8421l37.78325,-0.15789l13.57389,132z" fill="#959541" stroke="#000000" stroke-width="2" stroke-linecap="butt"/><path d="M300.76636,206.56131l3.12142,-26.32765l35.83075,-0.14203l2.76735,26.1059c0,0 -7.51543,4.19603 -21.55904,4.50964c-12.48458,0.27879 -20.16049,-4.14586 -20.16049,-4.14586z" fill="#7d7d37" stroke="#000000" stroke-width="0" stroke-linecap="butt"/><path d="M258.67309,146.36306c0,-33.30185 28.7599,-60.29833 64.23702,-60.29833c35.47712,0 64.23702,26.99649 64.23702,60.29833c0,33.30185 -28.7599,60.29833 -64.23702,60.29833c-35.47712,0 -64.23702,-26.99649 -64.23702,-60.29833z" fill="#959541" stroke="#000000" stroke-width="2" stroke-linecap="butt"/><path d="M259.98517,146.4169c0,-0.72799 5.20666,55.91939 63.36046,56.93429c55.56352,0.9697 63.51358,-57.95314 63.51358,-56.93429c0,32.80479 -28.40173,59.39833 -63.43702,59.39833c-35.03529,0 -63.43702,-26.59354 -63.43702,-59.39833z" fill="#7d7d37" stroke="#000000" stroke-width="0" stroke-linecap="butt"/><path d="M273.40136,155.03879c0,-12.968 10.51265,-23.48065 23.48065,-23.48065c12.968,0 23.48065,10.51265 23.48065,23.48065c0,12.968 -10.51265,23.48065 -23.48065,23.48065c-12.968,0 -23.48065,-10.51265 -23.48065,-23.48065z" fill="#ffffff" stroke="#000000" stroke-width="2" stroke-linecap="butt"/><path d="M309.75117,189.11842h25.10959" fill="none" stroke="#000000" stroke-width="2" stroke-linecap="round"/><path d="M346.42828,179.69746c-12.968,0 -23.48065,-10.51265 -23.48065,-23.48065c0,-12.968 10.51265,-23.48065 23.48065,-23.48065c12.968,0 23.48065,10.51265 23.48065,23.48065c0,12.968 -10.51265,23.48065 -23.48065,23.48065z" data-paper-data="{&quot;index&quot;:null}" fill="#ffffff" stroke="#000000" stroke-width="2" stroke-linecap="butt"/><path d="M345.74751,178.80431c-11.73052,0 -21.23998,-9.50947 -21.23998,-21.23999c0,-11.73053 9.50948,-21.23998 21.23998,-21.23998c11.73052,0 21.23998,9.50946 21.23998,21.23998c0,11.73053 -9.50948,21.23999 -21.23998,21.23999z" data-paper-data="{&quot;index&quot;:null}" fill="#000000" stroke="none" stroke-width="0" stroke-linecap="butt"/><path d="M285.45002,117.98406c0,0 6.70895,-5.16922 11.79721,-6.36355c5.08827,-1.19433 12.33413,0.69937 12.33413,0.69937c0,0 -8.03812,-0.06028 -11.96762,0.86207c-4.10648,0.96389 -12.16372,4.80211 -12.16372,4.80211z" fill="#000000" stroke="none" stroke-width="0" stroke-linecap="butt"/><path d="M349.38451,113.18196c-3.9295,-0.92235 -11.96762,-0.86207 -11.96762,-0.86207c0,0 7.24586,-1.8937 12.33413,-0.69937c5.08826,1.19433 11.79721,6.36355 11.79721,6.36355c0,0 -8.05724,-3.83822 -12.16372,-4.80211z" data-paper-data="{&quot;index&quot;:null}" fill="#000000" stroke="none" stroke-width="0" stroke-linecap="butt"/><path d="M307.23782,93.08766c-0.80872,-5.31589 -0.48188,-38.40661 -0.48188,-38.40661c0,0 10.15259,31.49648 10.96131,36.81236" fill="#804400" stroke="#000000" stroke-width="2" stroke-linecap="butt"/><g stroke="#000000"><path d="M394.86781,19.20224l-12.28719,106.52812c0,0 -24.36485,3.00614 -55.64194,-5.70968c-30.42819,-8.47927 -45.56325,-18.55173 -45.56325,-18.55173l38.31139,-100.28947c0,0 15.47815,-4.18716 40.37347,2.26778c24.16084,6.26451 34.80754,15.75499 34.80754,15.75499z" fill="#333333" stroke-width="2" stroke-linecap="butt"/><path d="M394.86781,19.20224l-12.28719,106.52812c0,0 -24.36485,3.00614 -55.64194,-5.70968c-30.42819,-8.47927 -45.56325,-18.55173 -45.56325,-18.55173l38.31139,-100.28947c0,0 24.12257,9.92484 36.52433,12.89785c12.65352,3.03336 38.65668,5.12491 38.65668,5.12491z" fill="#7d7d37" stroke-width="2" stroke-linecap="butt"/><path d="M381.91384,124.99815c0,0 18.00369,20.93276 -14.13842,27.8794c-36.82494,7.95872 -86.75814,-51.30238 -86.75814,-51.30238" fill="none" stroke-width="2" stroke-linecap="round"/><path d="M393.7513,20.09197l-11.84681,104.92362c0,0 -26.82877,1.84151 -56.37188,-6.39111c-28.74127,-8.00918 -42.93896,-17.70554 -42.93896,-17.70554l5.0372,-13.18612c0,0 20.84463,29.49639 57.10562,20.38746c33.77508,-8.48446 49.01483,-88.02832 49.01483,-88.02832z" fill="#6c6c30" stroke-width="0" stroke-linecap="butt"/></g><g stroke-linecap="butt"><path d="M300.14406,91.76941l55.69082,-72.3073l18.70747,89.0093z" fill="#000000" stroke="#ffff70" stroke-width="1"/><path d="M358.77347,60.56833c-1.72244,3.29776 -7.02281,4.64767 -10.23396,7.18883c-3.19257,2.52644 -4.25495,7.94523 -5.46809,7.58775c-0.61477,-0.18116 -3.37374,-6.76547 -0.13373,-11.51994c2.63233,-3.86273 9.12883,-5.04992 9.58749,-7.79259c0.17468,-1.04459 0.43514,-2.39176 -1.79624,-4.14547c-1.52778,-1.22779 -3.29523,-0.98279 -4.36644,-0.7641c-2.78208,0.56797 -4.92516,3.99786 -5.70743,6.15838c-0.69792,1.92755 -6.03729,-0.70102 -5.6681,-2.34563c1.84917,-8.23705 7.78799,-12.89292 15.18771,-11.23172c7.39971,1.66119 12.09003,10.1802 8.5988,16.86449z" fill="#ffff70" stroke="none" stroke-width="0"/><path d="M347.85747,86.30221c-0.82089,3.65663 -4.70027,5.89942 -8.66484,5.00939c-3.96456,-0.89002 -6.51302,-4.57582 -5.69212,-8.23245c0.8209,-3.65664 4.70027,-5.89943 8.66485,-5.0094c3.96456,0.89002 6.51302,4.57582 5.69212,8.23246z" fill="#ffff70" stroke="none" stroke-width="0"/></g><path d="M297.73587,178.50314c-11.73052,0 -21.23998,-9.50947 -21.23998,-21.23999c0,-11.73053 9.50948,-21.23998 21.23998,-21.23998c11.73052,0 21.23997,9.50946 21.23997,21.23998c0,11.73053 -9.50947,21.23999 -21.23997,21.23999z" data-paper-data="{&quot;index&quot;:null}" fill="#000000" stroke="none" stroke-width="0" stroke-linecap="butt"/></g></g></svg>