<svg version="1.1" xmlns="http://www.w3.org/2000/svg" xmlns:xlink="http://www.w3.org/1999/xlink" width="153.06048" height="279.7781" viewBox="0,0,153.06048,279.7781"><g transform="translate(-262.64175,-28.07079)"><g data-paper-data="{&quot;isPaintingLayer&quot;:true}" fill-rule="nonzero" stroke-linejoin="miter" stroke-miterlimit="10" stroke-dasharray="" stroke-dashoffset="0" style="mix-blend-mode: normal"><path d="M284.92189,306.8489l11.62059,-93.58516l43.64314,3.40793l11.23626,90.17722z" data-paper-data="{&quot;index&quot;:null}" fill="#9b9d30" stroke="#000000" stroke-width="2" stroke-linecap="butt"/><path d="M317.68104,238.09786l-30.23979,11.89646l10.10835,-47.33816l40.04359,-3.03031l10.15487,49.81105z" data-paper-data="{&quot;index&quot;:null}" fill="#747524" stroke="#000000" stroke-width="2" stroke-linecap="butt"/><path d="M333.50944,58.55118c41.59485,-2.92401 77.84935,30.76962 80.97669,75.25682c3.12734,44.4872 -28.05674,82.9216 -69.65159,85.84561c-41.59485,2.92401 -77.84935,-30.76961 -80.97669,-75.25682c-3.12734,-44.4872 28.05674,-82.9216 69.65159,-85.84561z" data-paper-data="{&quot;index&quot;:null}" fill="#747524" stroke="#000000" stroke-width="2" stroke-linecap="butt"/><path d="M335.54508,75.42742c37.474,-2.63433 70.01637,26.00922 72.68542,63.97714c2.66905,37.96793 -25.54595,70.88256 -63.01994,73.51689c-37.474,2.63433 -70.01637,-26.00922 -72.68542,-63.97714c-2.66905,-37.96793 25.54595,-70.88256 63.01994,-73.51689z" data-paper-data="{&quot;index&quot;:null}" fill="#000000" stroke="none" stroke-width="0" stroke-linecap="butt"/><path d="M344.64719,206.00508c-35.38978,2.48781 -65.972,-22.42544 -68.30727,-55.64531c-2.33527,-33.21986 24.46072,-62.16667 59.8505,-64.65448c35.38978,-2.48781 65.972,22.42544 68.30727,55.64531c2.33527,33.21986 -24.46072,62.16667 -59.8505,64.65448z" data-paper-data="{&quot;index&quot;:null}" fill="#ffff70" stroke="#000000" stroke-width="2" stroke-linecap="butt"/><path d="M344.6646,205.15561c-34.94904,2.45683 -65.14571,-22.07959 -67.44613,-54.80362c-0.07145,-1.01634 11.99097,57.20395 67.34971,52.34028c57.93947,-5.09041 59.16095,-61.96345 59.212,-61.23725c2.30042,32.72403 -24.16654,61.24376 -59.11558,63.70059z" data-paper-data="{&quot;index&quot;:null}" fill="#6c6d22" stroke="#000000" stroke-width="0" stroke-linecap="butt"/><path d="M405.78784,156.24172c0,0 -29.12388,18.1681 -63.45525,20.27819c-38.32377,2.35547 -63.78742,-8.57657 -63.78742,-8.57657c0,0 -22.14983,-79.36783 55.0821,-86.32511c75.19929,-6.77419 72.16057,74.62348 72.16057,74.62348z" data-paper-data="{&quot;index&quot;:null}" fill-opacity="0.20144" fill="#000000" stroke="none" stroke-width="0" stroke-linecap="butt"/><path d="M369.23467,167.79863c-12.93607,0.90937 -24.16004,-8.8402 -25.06941,-21.77628c-0.90937,-12.93607 8.8402,-24.16004 21.77628,-25.06941c12.93607,-0.90937 24.16004,8.8402 25.06941,21.77628c0.90937,12.93607 -8.8402,24.16004 -21.77628,25.06941z" data-paper-data="{&quot;index&quot;:null}" fill="#ffffff" stroke="#000000" stroke-width="2" stroke-linecap="butt"/><path d="M373.17318,165.15357c-9.1056,0.6401 -17.00606,-6.22254 -17.64616,-15.32815c-0.6401,-9.1056 6.22254,-17.00606 15.32815,-17.64616c9.1056,-0.6401 17.00605,6.22254 17.64615,15.32815c0.6401,9.1056 -6.22253,17.00606 -15.32814,17.64616z" data-paper-data="{&quot;index&quot;:null}" fill="#000000" stroke="none" stroke-width="0" stroke-linecap="butt"/><path d="M363.56266,194.51668c0,0 -8.82023,1.11925 -12.89183,1.40547c-4.26837,0.30005 -12.15595,0.35532 -12.15595,0.35532l7.52798,-12.24257z" data-paper-data="{&quot;index&quot;:null}" fill="#000000" stroke="#000000" stroke-width="2" stroke-linecap="round"/><path d="M290.0404,149.82718c-0.90937,-12.93607 8.8402,-24.16004 21.77628,-25.06941c12.93607,-0.90937 24.16004,8.8402 25.06941,21.77628c0.90937,12.93607 -8.8402,24.16004 -21.77628,25.06941c-12.93607,0.90937 -24.16004,-8.8402 -25.06941,-21.77628z" data-paper-data="{&quot;index&quot;:null}" fill="#ffffff" stroke="#000000" stroke-width="2" stroke-linecap="butt"/><path d="M303.58005,152.96338c-0.6401,-9.1056 6.22254,-17.00606 15.32814,-17.64616c9.10559,-0.6401 17.00605,6.22254 17.64615,15.32815c0.6401,9.1056 -6.22254,17.00606 -15.32814,17.64616c-9.10559,0.6401 -17.00605,-6.22254 -17.64615,-15.32815z" data-paper-data="{&quot;index&quot;:null}" fill="#000000" stroke="none" stroke-width="0" stroke-linecap="butt"/><path d="M376.64116,112.40218c0,0 -8.7878,-1.55748 -13.00274,-1.39469c-4.03329,0.15577 -11.76598,2.35134 -11.76598,2.35134c0,0 6.48142,-3.75231 11.70408,-3.95403c5.22265,-0.20171 13.06463,2.99738 13.06463,2.99738z" data-paper-data="{&quot;index&quot;:null}" fill="#000000" stroke="none" stroke-width="0" stroke-linecap="butt"/><path d="M312.61222,114.61206c-4.21082,0.24737 -12.80579,2.65102 -12.80579,2.65102c0,0 7.49418,-3.94564 12.71173,-4.25213c5.21756,-0.30649 12.03279,2.79856 12.03279,2.79856c0,0 -7.90938,-1.43413 -11.93873,-1.19743z" data-paper-data="{&quot;index&quot;:null}" fill="#000000" stroke="none" stroke-width="0" stroke-linecap="butt"/><g data-paper-data="{&quot;index&quot;:null}" stroke="#000000" stroke-width="2" stroke-linecap="butt"><path d="M399.55886,82.76971c0,0 -37.09319,2.55133 -54.70999,1.63755c-17.98274,-0.93277 -52.11119,-7.17843 -52.11119,-7.17843l16.08363,-44.77869c0,0 26.12574,-3.91942 39.83422,-3.31624c12.49648,0.54984 39.11778,6.79009 39.11778,6.79009l11.78554,46.84571z" fill="#ffffff"/><path d="M399.189,82.69165c0,0 -35.45647,3.74412 -52.92842,3.04565c-17.80227,-0.71168 -53.65809,-8.49774 -53.65809,-8.49774l2.21975,-5.8669c0,0 34.10342,5.46168 50.97598,6.20144c17.33307,0.75994 51.67811,-1.70067 51.67811,-1.70067l1.71264,6.8182z" fill="#9b9d30"/><path d="M342.5782,59.37355c0,0 -6.24138,-4.67413 -11.33993,-6.62309c-6.79606,-2.59785 -25.82767,-7.58461 -25.82767,-7.58461l2.21002,-6.62149c0,0 16.78044,4.43925 23.95408,7.01495c6.45584,2.31798 17.16176,7.74766 17.16176,7.74766z" fill="#9b9d30"/><path d="M330.38734,75.59261c0,0 2.25001,-12.87044 16.47593,-21.53325c18.82934,-11.46607 40.86059,-12.32442 40.86059,-12.32442l2.10905,6.83404c0,0 -23.23247,2.51062 -39.56357,12.13969c-12.0591,7.11025 -11.95381,15.20088 -11.95381,15.20088z" fill="#9b9d30"/></g></g></g></svg>