<svg version="1.1" xmlns="http://www.w3.org/2000/svg" xmlns:xlink="http://www.w3.org/1999/xlink" width="139.27846" height="230.68717" viewBox="0,0,139.27846,230.68717"><defs><linearGradient x1="315.82707" y1="99.58769" x2="322.74584" y2="153.19586" gradientUnits="userSpaceOnUse" id="color-1"><stop offset="0" stop-color="#000000"/><stop offset="1" stop-color="#d4d45d"/></linearGradient></defs><g transform="translate(-249.77986,-65.78894)"><g data-paper-data="{&quot;isPaintingLayer&quot;:true}" stroke-miterlimit="10" stroke-dasharray="" stroke-dashoffset="0" style="mix-blend-mode: normal"><path d="M286.60659,295.47609l15.14285,-131.8421l37.78325,-0.15789l13.57389,132z" fill="#e3e364" fill-rule="nonzero" stroke="#000000" stroke-width="2" stroke-linecap="butt" stroke-linejoin="miter"/><path d="M299.55681,192.08872l3.12142,-26.32765l35.83075,-0.14203l2.76735,26.1059c0,0 -7.51543,4.19603 -21.55904,4.50964c-12.48458,0.27879 -20.16049,-4.14586 -20.16049,-4.14586z" fill="#c0c054" fill-rule="nonzero" stroke="#000000" stroke-width="0" stroke-linecap="butt" stroke-linejoin="miter"/><path d="M332.47317,164.63252h-25.10959" fill="none" fill-rule="nonzero" stroke="#000000" stroke-width="2" stroke-linecap="round" stroke-linejoin="miter"/><path d="M255.12988,127.06796c-0.43579,-32.83343 27.96839,-59.82127 63.44247,-60.27903c35.47408,-0.45776 64.5848,25.78792 65.02058,58.62134c0.43579,32.83343 -27.96839,59.82127 -63.44247,60.27903c-35.47408,0.45776 -64.5848,-25.78792 -65.02058,-58.62134z" fill="#e3e364" fill-rule="nonzero" stroke="#000000" stroke-width="2" stroke-linecap="butt" stroke-linejoin="miter"/><path d="M255.85358,127.11171c-0.00953,-0.71776 5.93797,55.06566 64.10007,55.31593c55.57146,0.23913 62.74977,-57.9575 62.76311,-56.95297c0.42928,32.34336 -27.62202,58.92931 -62.65431,59.38137c-35.03229,0.45206 -63.77959,-25.40096 -64.20887,-57.74432z" fill="#c0c054" fill-rule="nonzero" stroke="#000000" stroke-width="0" stroke-linecap="butt" stroke-linejoin="miter"/><path d="M268.68458,127.31655c-0.1697,-12.78559 10.20449,-23.28602 23.17138,-23.45334c12.96688,-0.16733 23.6162,10.06181 23.7859,22.8474c0.1697,12.78559 -10.20448,23.28603 -23.17138,23.45335c-12.96688,0.16733 -23.6162,-10.06181 -23.7859,-22.84741z" fill="#ffffff" fill-rule="nonzero" stroke="#000000" stroke-width="2" stroke-linecap="butt" stroke-linejoin="miter"/><path d="M275.74573,126.95363c-0.11945,-8.99969 7.18285,-16.39084 16.31014,-16.50863c9.1273,-0.11778 16.62326,7.08243 16.74271,16.08211c0.11945,8.99969 -7.18286,16.39084 -16.31015,16.50862c-9.1273,0.11778 -16.62325,-7.08242 -16.74269,-16.0821z" fill="#000000" fill-rule="nonzero" stroke="none" stroke-width="0" stroke-linecap="butt" stroke-linejoin="miter"/><path d="M304.11256,157.55675l31.16975,-0.40222c6.09368,-0.07863 11.04669,3.42017 11.10542,7.84484l0.05218,3.9313c0.05873,4.42466 -4.79972,8.05008 -10.89341,8.12871l-31.16975,0.40222c-6.09366,0.07863 -11.0467,-3.42017 -11.10543,-7.84484l-0.05218,-3.9313c-0.05873,-4.42466 4.79975,-8.05008 10.89342,-8.12871z" fill="#000000" fill-rule="evenodd" stroke="#000000" stroke-width="0" stroke-linecap="round" stroke-linejoin="round"/><path d="M346.72426,149.46385c-12.96688,0.16733 -23.6162,-10.06181 -23.7859,-22.84741c-0.1697,-12.78559 10.20449,-23.28602 23.17138,-23.45334c12.96688,-0.16733 23.6162,10.06181 23.7859,22.84741c0.1697,12.78559 -10.20449,23.28602 -23.17138,23.45334z" data-paper-data="{&quot;index&quot;:null}" fill="#ffffff" fill-rule="nonzero" stroke="#000000" stroke-width="2" stroke-linecap="butt" stroke-linejoin="miter"/><path d="M346.51712,142.33855c-9.12729,0.11778 -16.62325,-7.08243 -16.7427,-16.08211c-0.11945,-8.99969 7.18286,-16.39084 16.31014,-16.50862c9.12729,-0.11778 16.62325,7.08243 16.7427,16.08211c0.11945,8.99969 -7.18286,16.39084 -16.31014,16.50862z" data-paper-data="{&quot;index&quot;:null}" fill="#000000" fill-rule="nonzero" stroke="none" stroke-width="0" stroke-linecap="butt" stroke-linejoin="miter"/><path d="M268.68458,127.31655c-0.1697,-12.78559 10.20449,-23.28602 23.17138,-23.45334c12.96688,-0.16733 23.6162,10.06181 23.7859,22.8474c0,0 -46.94117,1.82017 -46.95729,0.60594z" fill="#ffc533" fill-rule="nonzero" stroke="#000000" stroke-width="2" stroke-linecap="butt" stroke-linejoin="miter"/><path d="M313.59637,131.08813l-59.74489,0.77096c0,0 -3.95749,-0.7826 -4.07162,-5.37103c-0.10433,-4.19394 3.92768,-5.47425 3.92768,-5.47425l59.74489,-0.77096z" fill="#a3a347" fill-rule="nonzero" stroke="#000000" stroke-width="2" stroke-linecap="butt" stroke-linejoin="miter"/><path d="M322.93835,126.61645c-0.1697,-12.78559 10.20449,-23.28602 23.17138,-23.45334c12.96688,-0.16733 23.6162,10.06181 23.7859,22.84741c0.01588,1.19672 -46.95729,0.60594 -46.95729,0.60594z" data-paper-data="{&quot;index&quot;:null}" fill="#ffc533" fill-rule="nonzero" stroke="#000000" stroke-width="2" stroke-linecap="butt" stroke-linejoin="miter"/><path d="M324.24181,120.10363l59.74489,-0.77096c0,0 4.06461,1.17583 4.07162,5.37102c0.00768,4.5898 -3.92768,5.47425 -3.92768,5.47425l-59.74489,0.77096z" data-paper-data="{&quot;index&quot;:null}" fill="#a3a347" fill-rule="nonzero" stroke="#000000" stroke-width="2" stroke-linecap="butt" stroke-linejoin="miter"/><path d="M265.79124,99.38585l106.25538,-1.37112c6.43749,-0.08307 11.6878,4.96011 11.77205,11.30758l0.43093,32.46796c0.08425,6.34747 -5.03044,11.52439 -11.46791,11.60746l-106.25537,1.37112c-6.43748,0.08307 -11.68782,-4.96011 -11.77207,-11.30757l-0.43093,-32.46796c-0.08425,-6.34746 5.03045,-11.5244 11.46793,-11.60747z" fill="#a3a347" fill-rule="evenodd" stroke="#000000" stroke-width="2" stroke-linecap="round" stroke-linejoin="round"/><path d="M276.50724,104.94946l85.64131,-1.10511c5.18858,-0.06696 9.42031,3.99782 9.48822,9.11385l0.34733,26.16901c0.0679,5.11603 -4.05452,9.28861 -9.24308,9.35556l-85.64131,1.10511c-5.18857,0.06696 -9.42032,-3.99782 -9.48823,-9.11385l-0.34733,-26.16901c-0.0679,-5.11603 4.05452,-9.28861 9.24309,-9.35556z" fill="#000000" fill-rule="evenodd" stroke="#000000" stroke-width="0" stroke-linecap="round" stroke-linejoin="round"/><path d="M276.16958,104.62513l85.64131,-1.10511c5.18858,-0.06696 9.42031,3.99782 9.48822,9.11385l0.34733,26.16901c0.0679,5.11603 -4.05451,9.2886 -9.24308,9.35556l-85.64131,1.10511c-5.18857,0.06696 -9.42032,-3.99782 -9.48823,-9.11385l-0.34733,-26.16901c-0.0679,-5.11603 4.05452,-9.2886 9.24309,-9.35556z" fill="url(#color-1)" fill-rule="evenodd" stroke="#000000" stroke-width="2" stroke-linecap="round" stroke-linejoin="round"/></g></g></svg>