<svg version="1.1" xmlns="http://www.w3.org/2000/svg" xmlns:xlink="http://www.w3.org/1999/xlink" width="183.93429" height="55.30014" viewBox="0,0,183.93429,55.30014"><g transform="translate(-148.03286,-152.34993)"><g data-paper-data="{&quot;isPaintingLayer&quot;:true}" fill="#000000" fill-rule="nonzero" stroke="none" stroke-miterlimit="10" stroke-dasharray="" stroke-dashoffset="0" style="mix-blend-mode: normal"><g><path d="M262.16987,201.43227c2.27265,1.36822 4.23223,1.46099 5.87875,0.27828c1.66971,-1.1827 3.28143,-3.90758 4.83519,-8.1746c1.57693,-4.2902 2.58572,-7.64121 3.02633,-10.053c0.46381,-2.435 0.66093,-4.0815 0.59136,-4.93956c-0.06957,-0.85804 -0.49856,-1.48419 -1.28706,-1.87842c-0.76526,-0.39422 -2.05233,0.42901 -3.86119,2.46977c-1.80885,2.04077 -3.37419,4.74244 -4.69604,8.10503c-1.29865,3.36259 -2.72487,7.87314 -4.27863,13.53156zM265.57883,206.68488c-1.57693,0 -3.09592,-0.4522 -4.55691,-1.35664c-0.39422,0.71891 -1.03195,1.07837 -1.91318,1.07837h-1.21747c-1.66971,0 -2.36542,-0.76526 -2.08713,-2.29584l13.04455,-50.1955c0.27826,-1.04357 0.99718,-1.56534 2.15669,-1.56534h1.63493c1.32185,0 1.84362,0.54498 1.56535,1.63493l-6.19182,24.28028l1.04357,-1.77405c0.99721,-1.66971 2.13352,-3.09593 3.40899,-4.27863c1.29865,-1.1827 2.35381,-1.77407 3.16548,-1.77407h0.13917c0.37104,0 0.96239,0.27828 1.77405,0.83486c0.81166,0.53339 1.60013,1.28706 2.36542,2.26105c0.78846,0.974 1.32185,1.99437 1.60012,3.06113c0.30145,1.06675 0.23188,3.01473 -0.20873,5.84398c-0.41743,2.82923 -1.53058,6.7136 -3.3394,11.65316c-1.80885,4.93956 -3.64089,8.27893 -5.49612,10.01821c-1.83206,1.71607 -4.12789,2.57412 -6.88752,2.57412z" stroke-width="1.20157" stroke-linecap="round" stroke-linejoin="round"/><path d="M282.32519,196.74194c0.20871,-6.35415 1.79726,-12.37205 4.76562,-18.05368c2.96835,-5.68162 6.7484,-8.47606 11.34007,-8.38331c2.38859,0.13916 4.24384,1.33346 5.56567,3.5829c0.99721,1.55376 1.403,4.18587 1.21747,7.89632c-0.18553,7.02668 -2.11033,13.53155 -5.7744,19.51468c-2.52774,4.38297 -5.92513,6.49329 -10.19217,6.33098c-1.50738,-0.04632 -2.91038,-0.70729 -4.20902,-1.98278c-1.94802,-1.85521 -2.85243,-4.8236 -2.71328,-8.9051zM294.46532,199.59438c3.22345,-5.07869 4.92794,-10.76033 5.11347,-17.04491c0.04632,-2.78285 -0.10435,-4.64965 -0.45221,-5.60047c-0.32466,-0.95081 -1.02038,-1.4378 -2.08713,-1.461c-1.06675,-0.02335 -2.04076,0.47527 -2.92197,1.49577c-0.88123,1.02039 -1.73928,2.435 -2.57412,4.24385c-2.11033,4.22066 -3.25825,9.1602 -3.44376,14.81863c-0.09274,4.267 0.64936,6.47009 2.22629,6.60924c1.36822,0.04632 2.74805,-0.974 4.13946,-3.06113z" stroke-width="1.20157" stroke-linecap="round" stroke-linejoin="round"/><path d="M301.48629,205.63255c5.75122,-6.9803 10.05303,-12.44162 12.90544,-16.38398c-1.1827,-4.98592 -2.56254,-10.12258 -4.13946,-15.40999c-0.60295,-1.73928 -0.2203,-2.6089 1.14792,-2.6089h1.98278c1.04357,0 1.73928,0.54495 2.08713,1.63491c1.27548,4.40618 2.34224,8.3949 3.20028,11.9662c2.08713,-3.03795 4.71924,-7.27018 7.89632,-12.69672c0.32466,-0.60295 0.96239,-0.90442 1.91318,-0.90442h2.435c1.27548,0 1.39142,0.84645 0.34785,2.53933c-2.55094,4.42935 -6.29617,10.01822 -11.23572,16.76662c1.08995,4.84677 2.06393,9.97186 2.92197,15.37518c0.13916,0.95081 -0.24348,1.4494 -1.14792,1.49579l-2.15669,0.20873c-0.64935,0.09274 -1.10153,-0.00002 -1.35664,-0.27828c-0.2319,-0.27826 -0.46379,-0.91599 -0.69571,-1.91318c-0.46381,-3.24665 -1.07836,-6.62085 -1.84362,-10.12259c-3.26984,4.17426 -5.43811,6.89915 -6.5049,8.1746c-1.04357,1.25229 -1.65811,1.99437 -1.84362,2.22629c-0.18553,0.2319 -0.30147,0.38263 -0.34785,0.45218c-0.04632,0.06957 -0.15073,0.20871 -0.31306,0.41741c-0.16234,0.18553 -0.31308,0.30147 -0.45222,0.34785c-0.11597,0.04632 -0.26671,0.11595 -0.45221,0.20873c-0.27826,0.18553 -0.66092,0.27828 -1.14792,0.27828h-2.05233c-0.6725,0 -1.11315,-0.19713 -1.32185,-0.59136c-0.20871,-0.41743 -0.15072,-0.81166 0.17394,-1.18269z" stroke-width="1.20157" stroke-linecap="round" stroke-linejoin="round"/><path d="M175.27734,155.29299c1.1148,0.80646 2.07545,2.27707 2.88191,4.41183c0.83019,2.11104 1.29272,3.93743 1.38759,5.4792c0.1186,1.54177 0.18974,2.45497 0.21347,2.73961c0.04744,0.64042 -0.45067,1.1148 -1.49432,1.42317l-2.02801,0.60484c-0.47439,0.1186 -0.9725,-0.01186 -1.49432,-0.39137c-0.52182,-0.40324 -0.79461,-0.93691 -0.81832,-1.60107c-0.37951,-3.72395 -1.2097,-6.36868 -2.49054,-7.93417c-0.64042,-0.23721 -1.352,-0.3558 -2.13476,-0.3558c-2.37195,-0.1186 -4.75576,1.56549 -7.15143,5.05226c-2.39568,3.46304 -4.44739,8.19507 -6.15521,14.19612c-2.22964,7.61397 -2.70402,13.85218 -1.42317,18.71469c0.71159,2.70402 1.79081,4.23392 3.23771,4.58972c3.55792,-0.30835 6.49914,-2.92937 8.82365,-7.86302c0.07117,-0.14231 0.16604,-0.34393 0.28464,-0.60484c0.14231,-0.28464 0.2372,-0.46253 0.28464,-0.53369c0.04744,-0.09487 0.11861,-0.23718 0.21347,-0.42695c0.1186,-0.21348 0.20162,-0.33207 0.24905,-0.35578c0.04744,-0.04743 0.11861,-0.13045 0.21348,-0.24905c0.09487,-0.1186 0.17789,-0.17789 0.24905,-0.17789c0.09487,0 0.18974,-0.01185 0.28464,-0.03558c0.1186,-0.04743 0.23718,-0.04743 0.35578,0c0.14231,0.04744 0.29649,0.09487 0.46253,0.14231c0.16604,0.02373 0.34393,0.08302 0.5337,0.17789l2.31265,0.96064c0.45068,0.16604 0.67601,0.54555 0.67601,1.13854c0.02373,0.56928 -0.13046,1.16227 -0.46254,1.77896c-2.27707,4.1272 -4.49485,7.05654 -6.65332,8.78806c-2.15847,1.70781 -4.83879,2.56171 -8.04092,2.56171c-1.47061,0 -3.02424,-0.50997 -4.66087,-1.5299c-2.63285,-1.61292 -4.21021,-5.08784 -4.73203,-10.42471c-0.49812,-5.3606 0.10675,-11.39721 1.81454,-18.10984c1.0911,-4.43554 2.68031,-8.45601 4.76761,-12.06136c2.08732,-3.62908 4.50671,-6.49913 7.25816,-8.61017c2.77518,-2.11104 5.58593,-3.16655 8.43228,-3.16655c0.59298,0 1.38759,0.16604 2.38382,0.49812c1.01994,0.33207 1.82639,0.72344 2.41938,1.17412z" stroke-width="1" stroke-linecap="butt" stroke-linejoin="miter"/><path d="M218.67577,157.49474c0,0 -4.00244,15.68784 -12.00732,47.06352c-0.25753,0.96573 -0.91208,1.4486 -1.96367,1.4486h-1.12668c-0.79405,0 -1.3413,-0.19315 -1.64175,-0.57944c-0.3219,-0.40776 -0.40776,-0.92281 -0.25753,-1.54516l12.03951,-46.4519c0.25753,-0.96573 0.92281,-1.4486 1.99585,-1.4486h1.51299c1.20182,0 1.68467,0.50432 1.44861,1.51299z" stroke-width="1" stroke-linecap="butt" stroke-linejoin="miter"/><path d="M250.00687,180.26133c2.93405,-4.76508 5.20626,-7.68807 6.81667,-8.76905c0.52946,-0.37504 1.47806,-0.56254 2.84581,-0.56254h0.66182c1.30156,0 1.75382,0.50739 1.35671,1.52218c-0.19855,0.55151 -0.75005,1.2354 -1.65453,2.05162c-0.90448,0.79417 -2.10676,2.13985 -3.60689,4.03706c-1.5001,1.89722 -2.25016,3.13259 -2.25016,3.70615c0,1.19128 0.56253,2.30533 1.68762,3.34218c0.26473,0.22059 0.34195,0.46326 0.23164,0.72798c-0.08826,0.26473 -0.3199,0.43018 -0.69492,0.49637l-2.58108,0.46327c-0.72801,0.11024 -1.27951,0.03303 -1.65453,-0.23163c-0.37501,-0.28678 -0.84931,-0.97067 -1.42289,-2.05162l-0.56254,-1.02583l-5.22835,20.11916c-0.26473,0.99271 -0.94859,1.48909 -2.05161,1.48909h-1.95236c-1.23537,0 -1.73174,-0.51842 -1.48908,-1.55525l8.27268,-31.50238c0.24266,-0.90448 0.87138,-1.35672 1.88617,-1.35672h2.08471c0.59563,0 0.99274,0.1103 1.19128,0.33089c0.19855,0.19855 0.23159,0.56253 0.09917,1.092z" stroke-width="1" stroke-linecap="butt" stroke-linejoin="miter"/><path d="M190.41678,198.09535c3.41802,-5.24368 5.21188,-11.03061 5.38157,-17.36082c0.07273,-2.83441 -0.08485,-4.73582 -0.4727,-5.70425c-0.36361,-0.96843 -1.10299,-1.46445 -2.21807,-1.48809c-1.1151,-0.04724 -2.13322,0.4606 -3.05441,1.5235c-0.89694,1.03929 -1.76962,2.42107 -2.61807,4.14534c-2.25444,4.53506 -3.4665,9.6252 -3.63619,15.27043c-0.09696,4.36973 0.67876,6.61363 2.32717,6.73174c1.45449,0.04724 2.88472,-0.99203 4.29073,-3.11785zM177.7628,195.19003c0.24242,-6.51915 1.62417,-12.12895 4.14526,-16.82936c1.09085,-2.07856 1.98779,-3.57845 2.6908,-4.49963c0.70299,-0.94482 1.55145,-1.87781 2.54534,-2.799c2.06052,-1.91324 4.54523,-2.84623 7.45421,-2.79899c2.49686,0.11811 4.43617,1.33454 5.81792,3.64932c1.01815,1.58256 1.45448,4.22801 1.30902,7.93637c-0.12121,3.68475 -0.7636,7.29864 -1.92719,10.84165c-1.13933,3.5194 -2.42412,6.46011 -3.85436,8.82215c-2.86047,4.65318 -6.5088,6.90887 -10.94496,6.76716c-1.62418,-0.07094 -3.09078,-0.74411 -4.3998,-2.01952c-0.87268,-0.80308 -1.58781,-1.98411 -2.14536,-3.54304c-0.5333,-1.58254 -0.7636,-3.42491 -0.69087,-5.5271z" stroke-width="1" stroke-linecap="butt" stroke-linejoin="miter"/><path d="M228.41678,197.09535c3.41802,-5.24368 5.21188,-11.03061 5.38157,-17.36082c0.07273,-2.83441 -0.08485,-4.73582 -0.47271,-5.70425c-0.36361,-0.96843 -1.10299,-1.46445 -2.21807,-1.48809c-1.1151,-0.04724 -2.13322,0.4606 -3.05441,1.5235c-0.89694,1.03929 -1.76962,2.42107 -2.61807,4.14534c-2.25444,4.53506 -3.4665,9.6252 -3.63619,15.27043c-0.09696,4.36973 0.67876,6.61363 2.32717,6.73174c1.45449,0.04724 2.88472,-0.99203 4.29073,-3.11786zM215.7628,194.19003c0.24242,-6.51915 1.62417,-12.12895 4.14526,-16.82935c1.09085,-2.07856 1.98779,-3.57845 2.6908,-4.49963c0.70299,-0.94482 1.55145,-1.87781 2.54534,-2.799c2.06052,-1.91324 4.54523,-2.84623 7.45421,-2.79899c2.49686,0.11811 4.43617,1.33454 5.81792,3.64932c1.01815,1.58256 1.45448,4.22801 1.30902,7.93637c-0.12121,3.68475 -0.7636,7.29864 -1.92719,10.84165c-1.13933,3.5194 -2.42413,6.46011 -3.85436,8.82215c-2.86047,4.65318 -6.5088,6.90887 -10.94496,6.76716c-1.62418,-0.07094 -3.09078,-0.74411 -4.3998,-2.01952c-0.87268,-0.80308 -1.58781,-1.98411 -2.14536,-3.54304c-0.5333,-1.58254 -0.7636,-3.42491 -0.69087,-5.5271z" stroke-width="1" stroke-linecap="butt" stroke-linejoin="miter"/></g></g></g></svg>