<svg version="1.1" xmlns="http://www.w3.org/2000/svg" xmlns:xlink="http://www.w3.org/1999/xlink" width="184.33333" height="374.80304" viewBox="0,0,184.33333,374.80304"><g transform="translate(-223.83333,8.5915)"><g data-paper-data="{&quot;isPaintingLayer&quot;:true}" fill="#000000" stroke-miterlimit="10" stroke-dasharray="" stroke-dashoffset="0" style="mix-blend-mode: normal"><path d="M267.77547,362.70214c0,0 -3.29883,-30.08224 9.04243,-64.27471c7.41333,-20.53925 31.32607,-45.87309 34.51138,-57.76421c5.60205,-20.91313 3.6844,-61.16967 3.6844,-61.16967l8.10799,2.17191c0,0 1.86361,42.93505 -2.8628,60.57926c-3.61163,13.48263 -27.0281,35.09295 -35.80154,58.75528c-11.59381,31.26898 -8.57387,63.87407 -8.57387,63.87407z" fill-rule="nonzero" stroke="#000000" stroke-width="2" stroke-linecap="butt" stroke-linejoin="miter"/><path d="M391.54472,363.62172h-16.3214v-182.33333h16.3214z" fill-rule="nonzero" stroke="#000000" stroke-width="2" stroke-linecap="butt" stroke-linejoin="miter"/><path d="M258.64191,362.68908h-16.32139v-182.33333h16.32139z" fill-rule="nonzero" stroke="#000000" stroke-width="2" stroke-linecap="butt" stroke-linejoin="miter"/><path d="M224.83334,195.97766v-27.04688h182.33333v27.04688z" fill-rule="nonzero" stroke="#000000" stroke-width="2" stroke-linecap="butt" stroke-linejoin="miter"/><path d="M306.06721,164.26538v-45.8165h19.86547v45.8165z" fill-rule="nonzero" stroke="#000000" stroke-width="2" stroke-linecap="butt" stroke-linejoin="miter"/><path d="M266.33628,176.22665l8.02683,-15.94834h85.71505l8.31349,15.94834z" fill-rule="nonzero" stroke="#000000" stroke-width="2" stroke-linecap="butt" stroke-linejoin="miter"/><path d="M278.64448,36.13631h74.71097c12.48635,0 22.5385,10.05218 22.5385,22.5385v63.8689c0,12.48632 -10.05214,22.5385 -22.5385,22.5385h-74.71097c-12.48632,0 -22.5385,-10.05218 -22.5385,-22.5385v-63.8689c0,-12.48632 10.05218,-22.5385 22.5385,-22.5385z" fill-rule="evenodd" stroke="#000000" stroke-width="2" stroke-linecap="round" stroke-linejoin="round"/><path d="M285.6248,46.31516h60.75044c10.15315,0 18.32695,8.17382 18.32695,18.32695v51.93432c0,10.15312 -8.1738,18.32695 -18.32695,18.32695h-60.75044c-10.15312,0 -18.32695,-8.17382 -18.32695,-18.32695v-51.93432c0,-10.15312 8.17382,-18.32695 18.32695,-18.32695z" fill-rule="evenodd" stroke="#000000" stroke-width="2" stroke-linecap="round" stroke-linejoin="round"/><path d="M289.37331,90.10722c0,-4.09636 3.32075,-7.41712 7.41712,-7.41712c4.09636,0 7.41712,3.32075 7.41712,7.41712c0,4.09636 -3.32077,7.41712 -7.41712,7.41712c-4.09636,0 -7.41712,-3.32077 -7.41712,-7.41712z" fill-rule="nonzero" stroke="none" stroke-width="0" stroke-linecap="butt" stroke-linejoin="miter"/><path d="M297.04513,108.70615h37.90973l-18.3662,20.5294z" fill-rule="nonzero" stroke="none" stroke-width="0" stroke-linecap="butt" stroke-linejoin="miter"/><path d="M328.40176,90.53113c0,-4.09636 3.32075,-7.41712 7.41712,-7.41712c4.09636,0 7.41712,3.32075 7.41712,7.41712c0,4.09636 -3.32077,7.41712 -7.41712,7.41712c-4.09636,0 -7.41712,-3.32077 -7.41712,-7.41712z" fill-rule="nonzero" stroke="none" stroke-width="0" stroke-linecap="butt" stroke-linejoin="miter"/><path d="M351.80458,33.25123l33.06363,-38.12531l-18.07573,47.06483c0,0 -3.19293,-1.90443 -5.19741,-3.10001c-2.75112,-1.6409 -9.79047,-5.83953 -9.79047,-5.83953z" fill-rule="nonzero" stroke="#000000" stroke-width="1.5" stroke-linecap="butt" stroke-linejoin="miter"/><g fill-rule="nonzero" stroke="#000000" stroke-width="1.4" stroke-linejoin="miter"><path d="M338.03623,28.43429l4.68604,-7.85657l38.79933,23.14185l-4.68606,7.85656z" stroke-linecap="butt"/><g><path d="M325.13272,37.31225c0,0 0.2318,-5.19345 2.16237,-7.74653c3.23435,-4.27722 5.99443,-5.92907 5.99443,-5.92907l51.85331,30.92788c0,0 0.09579,4.35826 -2.29624,7.97099c-2.63907,3.98581 -5.86057,5.70459 -5.86057,5.70459z" stroke-linecap="butt"/><path d="M332.92836,41.11919c0,0 1.31142,-4.94611 2.61224,-7.12705c1.21682,-2.0401 4.95753,-5.56432 4.95753,-5.56432" stroke-linecap="round"/><path d="M378.04209,51.47642c0,0 -1.80391,5.11641 -3.06556,7.18344c-1.1157,1.8279 -4.12042,4.58972 -4.12042,4.58972" stroke-linecap="round"/><path d="M346.14984,48.34966c0,0 0.88182,-3.75399 1.93564,-5.56341c1.19503,-2.05189 4.8644,-6.11223 4.8644,-6.11223" stroke-linecap="round"/><path d="M365.69002,44.43675c0,0 -1.60535,4.88948 -2.78187,6.86201c-1.12847,1.89198 -4.13907,4.74154 -4.13907,4.74154" stroke-linecap="round"/></g></g></g></g></svg>