<svg version="1.1" xmlns="http://www.w3.org/2000/svg" xmlns:xlink="http://www.w3.org/1999/xlink" width="229.72621" height="186.83204" viewBox="0,0,229.72621,186.83204"><g transform="translate(-204.59543,-29.89752)"><g data-paper-data="{&quot;isPaintingLayer&quot;:true}" fill-rule="nonzero" stroke-linejoin="miter" stroke-miterlimit="10" stroke-dasharray="" stroke-dashoffset="0" style="mix-blend-mode: normal"><path d="M350.73985,127.98579c0,0 18.45072,27.08121 22.89035,20.17783c5.65207,-8.78866 -3.4578,-45.10338 9.93822,-68.63287c13.39602,-23.52949 17.49255,6.35415 22.62825,11.43139c4.12486,4.07791 4.15677,16.69645 4.15677,16.69645c0,0 -2.64321,17.56573 -7.52234,34.44912c-5.82038,20.14042 -8.39954,34.48927 -27.31761,36.85956c-13.81879,1.73139 -23.72233,-16.08749 -23.72233,-16.08749z" fill="#535324" stroke="none" stroke-width="0" stroke-linecap="butt"/><g stroke="#1d1d0c" stroke-width="1.5" stroke-linecap="round"><path d="M391.81908,105.07319l17.1,20.7l-7.8,10.8l-27.6,-25.2l11.4,-10.8" fill="#535324"/><path d="M423.01908,95.77319l10.5,9.9l-4.5,28.5l-12,-11.7" fill="#535324"/><path d="M382.01908,84.67319l9.8,-53.7l17.39999,7.8l-3.6,41.1l20.40001,5.7l-10.20001,41.1l-15.89999,-5.4l6,-25.8" fill="#535324"/><path d="M387.31908,77.77319l7.49999,-35.4l6.90001,30.3" fill="none"/><path d="M399.01908,62.17319l-8.1,-0.3" fill="none"/></g><path d="M206.67057,141.81696c0,0 38.31482,-33.11608 52.15819,-51.36914c12.60078,-16.61464 27.52538,-53.69689 27.52538,-53.69689c0,0 25.52908,35.59812 43.54462,47.54688c18.59647,12.33405 66.34672,25.33821 66.34672,25.33821c0,0 -35.35425,25.98957 -48.34581,43.11947c-13.54642,17.8615 -31.33776,61.94656 -31.33776,61.94656c0,0 -26.67717,-35.92177 -44.75404,-47.9112c-18.54178,-12.29777 -65.1373,-24.97389 -65.1373,-24.97389z" fill="#d8d871" stroke="#000000" stroke-width="2" stroke-linecap="butt"/><path d="M245.81085,204.12902c0,0 3.67606,-50.50927 0.55794,-73.20488c-2.83823,-20.65841 -18.50606,-57.43282 -18.50606,-57.43282c0,0 43.22346,7.11989 64.41142,2.83002c21.87118,-4.42819 64.83103,-28.9974 64.83103,-28.9974c0,0 -6.62183,43.37663 -3.69557,64.67571c3.05123,22.20875 21.64369,65.96198 21.64369,65.96198c0,0 -44.26413,-6.53692 -65.52421,-2.23245c-21.80685,4.41517 -63.71824,28.39982 -63.71824,28.39982z" fill="#d8d871" stroke="#000000" stroke-width="2" stroke-linecap="butt"/><path d="M237.63405,136.56081c-5.57336,-32.83216 18.2628,-64.26111 53.23955,-70.19853c34.97675,-5.93742 67.84913,15.86509 73.42249,48.69724c5.57336,32.83216 -18.2628,64.26111 -53.23955,70.19853c-34.97675,5.93742 -67.84913,-15.86509 -73.42249,-48.69724z" fill="#ecec68" stroke="#000000" stroke-width="2" stroke-linecap="butt"/><path d="M275.15407,141.65729c-0.25626,-1.50962 55.05644,-11.46225 55.40562,-9.40528c2.43795,14.36172 -7.98868,28.10967 -23.28851,30.70686c-15.29983,2.5972 -29.67916,-6.93984 -32.11711,-21.30158z" fill="#000000" stroke="#000000" stroke-width="2" stroke-linecap="butt"/><path d="M261.54987,122.56856c-1.03736,-6.11098 3.07562,-11.90584 9.1866,-12.9432c6.11099,-1.03736 11.90585,3.07562 12.94321,9.18659c1.03736,6.11098 -21.09244,9.86757 -22.1298,3.7566z" fill="#000000" stroke="none" stroke-width="0" stroke-linecap="butt"/><path d="M315.14796,113.47011c-1.00671,-5.93046 2.98477,-11.55414 8.91522,-12.56085c5.93045,-1.00671 11.55413,2.98477 12.56084,8.91522c1.00671,5.93046 -20.46935,9.57608 -21.47606,3.64563z" data-paper-data="{&quot;index&quot;:null}" fill="#000000" stroke="none" stroke-width="0" stroke-linecap="butt"/></g></g></svg>