<svg version="1.1" xmlns="http://www.w3.org/2000/svg" xmlns:xlink="http://www.w3.org/1999/xlink" width="61.78985" height="54.52257" viewBox="0,0,61.78985,54.52257"><g transform="translate(-170.25,-68.09538)"><g data-paper-data="{&quot;isPaintingLayer&quot;:true}" fill-rule="nonzero" stroke-linecap="butt" stroke-linejoin="miter" stroke-miterlimit="10" stroke-dasharray="" stroke-dashoffset="0" style="mix-blend-mode: normal"><path d="" fill="#c5c556" stroke="#000000" stroke-width="2"/><path d="" fill="#6e6e30" stroke="none" stroke-width="0"/><path d="" fill="#6e6e30" stroke="none" stroke-width="0"/><path d="" fill="#3e3e1b" stroke="none" stroke-width="0"/><path d="" fill="#c5c556" stroke="none" stroke-width="0"/><path d="" fill="#8f8f3f" stroke="none" stroke-width="0"/><path d="" fill="#8f8f3f" stroke="none" stroke-width="0"/><path d="" fill="#6e6e30" stroke="none" stroke-width="0"/><path d="" fill="#c5c556" stroke="#000000" stroke-width="2"/><g fill="#6e6e30" stroke="none" stroke-width="0"><path d=""/><path d=""/></g><g fill="#6e6e30" stroke="none" stroke-width="0"><path d=""/><path d=""/></g><g fill="#6e6e30" stroke="none" stroke-width="0"><path d=""/><path d=""/></g><path d="M171.25,121.61796v-52.52257h59.78985v52.52257z" fill="#c5c556" stroke="#000000" stroke-width="2"/><path d="" fill="#c5c556" stroke="#000000" stroke-width="2"/><g stroke="none"><path d="M181.91994,93.91738c0,0 2.63276,-2.52963 2.68757,-2.89945c0.14376,-0.96994 -0.07166,-17.16068 15.36426,-17.759c19.0672,-0.39027 16.66591,15.09984 17.74066,18.02234c1.47365,4.00719 2.62992,7.43279 2.62992,7.43279c0,0 -1.18204,-0.87719 -1.74272,-1.33873c-0.52294,-0.43047 -1.62384,-1.3438 -1.62384,-1.3438c0,0 1.32042,4.42037 0.55998,8.84023c-0.66737,4.04997 -3.11739,7.35815 -3.11739,7.35815l-0.49347,-1.00271c0,0 -0.43685,0.93888 -0.9227,1.42364c-0.48586,0.48474 -1.46892,1.24423 -1.46892,1.24423l-0.03932,-1.58232c0,0 -3.01585,4.70651 -10.40182,4.64397c-6.96551,-0.10913 -11.13691,-4.5601 -11.13691,-4.5601l-0.04964,1.13406c0,0 -1.66372,-1.40656 -2.64052,-4.14675c-1.16423,-3.26598 -1.3838,-5.22991 -1.3838,-5.22991c0,0 -0.99918,0.81126 -2.44214,1.18514c-1.8081,0.46849 -2.96738,0.14748 -2.96738,0.14748c0,0 1.5412,-1.16069 2.38529,-2.03754c0.75184,-0.78103 1.13053,-1.44264 1.13053,-1.44264c0,0 -0.90029,0.46335 -1.8081,0.69114c-0.9472,0.23767 -1.72152,0.2268 -1.72152,0.2268c0,0 2.12512,-2.15177 3.00331,-4.64514c0.82914,-2.35416 0.89693,-4.68061 0.89693,-4.68061c0,0 -0.58165,0.28262 -1.42252,0.33965c-0.533,0.03615 -1.01574,-0.02089 -1.01574,-0.02089z" fill="#5a5a07" stroke-width="0"/><path d="M200.45624,103.04041c-2.36474,0 -2.36474,-2.36474 -2.36474,-2.36474v-0.47295c0.10802,-5.77462 3.99941,-8.13071 6.02859,-13.03047c0.58241,-1.40633 -0.14234,-2.60532 -1.60595,-2.87651c-2.23918,-0.4149 -3.93104,0.66428 -5.46666,2.07938c0,0 -1.77964,1.55719 -3.33683,-0.22246c-1.55719,-1.77964 0.22246,-3.33683 0.22246,-3.33683c2.52531,-2.13364 2.42965,-2.55991 6.17151,-3.16001c5.54196,-0.8888 10.1994,3.27032 8.51145,8.98413c-1.28673,4.35568 -5.93471,6.7068 -5.79509,11.56278v0.47295c0,0 0,2.36474 -2.36474,2.36474z" fill="#c5c556" stroke-width="0.5"/><path d="M197.85503,109.18872c0,-1.30601 1.05873,-2.36474 2.36474,-2.36474c1.30601,0 2.36474,1.05873 2.36474,2.36474c0,1.30601 -1.05873,2.36474 -2.36474,2.36474c-1.30601,0 -2.36474,-1.05873 -2.36474,-2.36474z" fill="#c5c556" stroke-width="0.5"/></g></g></g></svg>