<svg version="1.1" xmlns="http://www.w3.org/2000/svg" xmlns:xlink="http://www.w3.org/1999/xlink" width="151.13634" height="285.67094" viewBox="0,0,151.13634,285.67094"><defs><radialGradient cx="285.1545" cy="210.59784" r="8.35414" gradientUnits="userSpaceOnUse" id="color-1"><stop offset="0" stop-color="#000000"/><stop offset="1" stop-color="#000000" stop-opacity="0"/></radialGradient><linearGradient x1="295.66132" y1="218.22137" x2="301.34263" y2="222.06084" gradientUnits="userSpaceOnUse" id="color-2"><stop offset="0" stop-color="#151515"/><stop offset="1" stop-color="#151515" stop-opacity="0"/></linearGradient></defs><g transform="translate(-245.4231,-24.27812)"><g data-paper-data="{&quot;isPaintingLayer&quot;:true}" fill-rule="nonzero" stroke-linejoin="miter" stroke-miterlimit="10" stroke-dasharray="" stroke-dashoffset="0" style="mix-blend-mode: normal"><path d="M282.5448,308.94905l15.14285,-131.8421l37.78325,-0.15789l13.57389,132z" fill="#d7d75f" stroke="#000000" stroke-width="2" stroke-linecap="butt"/><path d="M295.49502,205.22835l3.12142,-26.32765l35.83075,-0.14203l2.76735,26.1059c0,0 -7.51543,4.19603 -21.55904,4.50964c-12.48458,0.27879 -20.16049,-4.14586 -20.16049,-4.14586z" fill="#c2c255" stroke="#000000" stroke-width="0" stroke-linecap="butt"/><path d="M251.6347,137.96188c0,-33.30185 28.7599,-60.29833 64.23702,-60.29833c35.47712,0 64.23702,26.99649 64.23702,60.29833c0,33.30185 -28.7599,60.29833 -64.23702,60.29833c-35.47712,0 -64.23702,-26.99649 -64.23702,-60.29833z" fill="#d7d75f" stroke="#000000" stroke-width="2" stroke-linecap="butt"/><path d="M252.35776,138.01572c0,-0.72799 5.20666,55.91939 63.36046,56.93429c55.56352,0.9697 63.51358,-57.95314 63.51358,-56.93429c0,32.80479 -28.40173,59.39833 -63.43702,59.39833c-35.03529,0 -63.43702,-26.59354 -63.43702,-59.39833z" fill="#c2c255" stroke="#000000" stroke-width="0" stroke-linecap="butt"/><path d="M254.35954,133.5937l-7.66667,-49.33333l21.66667,9.62963l24.66667,-43.33333l14.33333,22.66667l39,-46.33333l2.33333,55.66667l37.33333,-26l-8.33333,58.66667l17,-6l-17.33333,38.66667" fill="#d7d75f" stroke="#000000" stroke-width="2" stroke-linecap="round"/><path d="M265.18485,139.64135c0,-12.96801 10.51265,-23.48065 23.48066,-23.48065c12.96801,0 23.48065,10.51264 23.48065,23.48065c0,12.96801 -10.51264,23.48066 -23.48065,23.48066c-12.96801,0 -23.48066,-10.51265 -23.48066,-23.48066z" fill="#000000" stroke="#000000" stroke-width="2" stroke-linecap="butt"/><path d="M342.92395,163.12201c-12.96801,0 -23.48065,-10.51265 -23.48065,-23.48066c0,-12.96801 10.51264,-23.48065 23.48065,-23.48065c12.96801,0 23.48066,10.51264 23.48066,23.48065c0,12.96801 -10.51265,23.48066 -23.48066,23.48066z" data-paper-data="{&quot;index&quot;:null}" fill="#000000" stroke="#000000" stroke-width="2" stroke-linecap="butt"/><path d="M265.18492,138.39135c0,-12.968 10.51265,-23.48065 23.48065,-23.48065c12.968,0 23.48065,10.51265 23.48065,23.48065c0,12.968 -10.51265,23.48065 -23.48065,23.48065c-12.968,0 -23.48065,-10.51265 -23.48065,-23.48065z" fill="#ffffff" stroke="#000000" stroke-width="2" stroke-linecap="butt"/><path d="M269.50031,142.08077c0,-10.64686 8.63098,-19.27784 19.27783,-19.27784c10.64686,0 19.27784,8.63099 19.27784,19.27784c0,10.64686 -8.63099,19.27784 -19.27784,19.27784c-10.64686,0 -19.27783,-8.63099 -19.27783,-19.27784z" fill="#000000" stroke="none" stroke-width="0" stroke-linecap="butt"/><path d="M342.924,161.87199c-12.968,0 -23.48065,-10.51265 -23.48065,-23.48065c0,-12.968 10.51265,-23.48065 23.48065,-23.48065c12.968,0 23.48065,10.51265 23.48065,23.48065c0,12.968 -10.51265,23.48065 -23.48065,23.48065z" data-paper-data="{&quot;index&quot;:null}" fill="#ffffff" stroke="#000000" stroke-width="2" stroke-linecap="butt"/><path d="M343.8027,156.10861c-7.74736,0 -14.02783,-6.28048 -14.02783,-14.02784c0,-7.74737 6.28048,-14.02784 14.02783,-14.02784c7.74736,0 14.02783,6.28048 14.02783,14.02784c0,7.74737 -6.28048,14.02784 -14.02783,14.02784z" data-paper-data="{&quot;index&quot;:null}" fill="#000000" stroke="none" stroke-width="0" stroke-linecap="butt"/><path d="M306.33362,159.82474l5.6,-17.6" fill="none" stroke="#000000" stroke-width="2" stroke-linecap="round"/><path d="M323.13362,160.82474l-3.6,-20.4" fill="none" stroke="#000000" stroke-width="2" stroke-linecap="round"/><path d="M287.90178,180.97215l58.70959,-6.4" fill="none" stroke="#000000" stroke-width="2" stroke-linecap="round"/><g stroke="none" stroke-width="0" stroke-linecap="butt"><path d="M312.26838,199.85894c8.02404,-1.51395 17.74222,-3.75682 24.83567,-2.8322c-0.18541,0.98634 -0.43563,1.37521 0.25324,2.54106c0.01,0.55308 0.0967,1.10885 0.26416,1.65113c-0.03799,0.45154 -0.02509,0.90897 0.04097,1.36324c-0.1591,0.65049 -0.20994,1.32757 -0.14517,2.00194c-0.1118,0.57637 -0.13962,1.16992 -0.07849,1.76089c-0.56173,1.61882 -0.42922,3.46571 0.52037,5.05052c0.43239,0.72163 0.99259,1.31951 1.63434,1.78204c0.05158,0.09786 0.10613,0.19488 0.16368,0.29093c0.61936,1.03367 1.50096,1.81343 2.50882,2.30517c0.32835,0.47331 0.71478,0.88597 1.14377,1.2341c-8.47764,11.58134 -30.2665,19.87325 -40.08545,20.63111c-3.61015,0.27864 -8.01799,-0.79722 -12.49095,-2.78726c0.03469,-0.12757 0.06518,-0.25625 0.09141,-0.38584c0.69718,-0.72358 1.18877,-1.6006 1.45203,-2.54031c0.73487,-0.76478 1.24052,-1.70031 1.4902,-2.69981c0.10779,-0.05605 0.21455,-0.1157 0.32016,-0.17898c0.90196,-0.54043 1.61058,-1.28054 2.10323,-2.12997c0.59885,-0.53779 1.07042,-1.18018 1.40341,-1.88191c0.28878,-0.30007 0.54223,-0.62648 0.75874,-0.97277c0.13479,-0.06759 0.26805,-0.14074 0.39951,-0.21951c0.82974,-0.49716 1.49587,-1.16331 1.98075,-1.92809c0.00351,-0.00209 0.00701,-0.00418 0.01051,-0.00628c0.59047,-0.3538 1.09809,-0.79318 1.51649,-1.29277c0.45725,-0.31387 0.85846,-0.68172 1.20017,-1.08974c0.52879,-0.36298 0.98263,-0.79814 1.35617,-1.28414c0.47168,-0.41437 0.86636,-0.89292 1.17871,-1.41427c0.2832,-0.23472 0.54039,-0.49192 0.77051,-0.76737c0.12161,-0.06208 0.24196,-0.12871 0.36082,-0.19993c0.58253,-0.34904 1.08441,-0.78136 1.49955,-1.27263c0.51361,-0.33011 0.96062,-0.72661 1.33653,-1.17145c0.10307,-0.06624 0.20346,-0.13517 0.30114,-0.20661c0.16581,-0.0797 0.32943,-0.16769 0.49034,-0.26411c0.2431,-0.14566 0.47215,-0.30583 0.68672,-0.47873c0.50757,-0.08852 1.00776,-0.27004 1.47615,-0.55069c2.04527,-1.22548 2.70984,-3.87695 1.48435,-5.92222c-0.10219,-0.17056 -0.21431,-0.33151 -0.33516,-0.48258c-0.11361,-0.74978 -0.37227,-1.49037 -0.78618,-2.18115c-0.56555,-0.94387 -1.34976,-1.67602 -2.24909,-2.17051c-0.07054,-0.14206 -0.14723,-0.28245 -0.23015,-0.42084c-0.12252,-0.20449 -0.25532,-0.39904 -0.39731,-0.58339c0.57328,-0.08376 1.16152,-0.18215 1.76535,-0.29608z" fill="#191919"/><path d="" fill="url(#color-1)"/><g><path d="" fill="#ffffff"/><path d="" fill="#000000"/><path d="" fill="#191919"/></g><path d="" fill="url(#color-2)"/><g fill="#ecec68"><path d=""/></g><path d="" fill="#191919"/><path d="" fill="#191919"/><path d="" fill="#191919"/><path d="" fill="#191919"/><path d="" fill="#191919"/><path d="" fill="#191919"/><path d="M298.5242,233.62515l-7.85447,13.42277l-1.5441,-9.37297c0.93934,-0.86936 1.55436,-2.00014 1.79915,-3.20917c0.55546,-0.57649 0.98041,-1.25037 1.26337,-1.97577c0.61605,-0.06877 1.20005,-0.107 1.65527,-0.08517c1.60121,0.07682 4.68079,1.22031 4.68079,1.22031z" fill="#191919"/><path d="M309.9019,234.35139l-4.13117,15.67525l-7.03193,-13.0642c0,0 3.7458,-1.93751 5.68755,-2.39169c1.76174,-0.41207 5.47555,-0.21936 5.47555,-0.21936z" fill="#191919"/><path d="M320.71159,230.59484l0.97202,15.85588l-11.52123,-10.56455c0,0 3.18797,-2.77835 5.02294,-3.69874c1.66486,-0.83507 5.52628,-1.59258 5.52628,-1.59258z" fill="#191919"/><path d="M333.28799,224.78599l2.45728,15.53681l-13.28284,-9.30407c0,0 3.16614,-3.04607 5.04918,-4.13022c1.70847,-0.98364 5.77638,-2.10251 5.77638,-2.10251z" fill="#191919"/><path d="M340.89184,217.90708l3.51213,8.96952c-0.71223,0.99412 -1.10063,2.18242 -1.12231,3.39382l-9.93663,-5.62415c0,0 1.93114,-3.10211 3.24386,-4.27436c1.19103,-1.06357 4.30296,-2.46483 4.30296,-2.46483z" fill="#191919"/><path d="M338.518,218.44404c0,0 0.91937,-2.53613 1.83803,-4.14442c0.54017,0.62887 1.19313,1.12431 1.90996,1.47406c0.40112,0.5782 0.88892,1.06591 1.43511,1.45601c0.23042,0.32302 0.4882,0.61702 0.76823,0.88073c0.07468,0.67873 0.26688,1.3535 0.58409,1.99438c-0.01108,0.12884 -0.01801,0.25817 -0.02075,0.38776z" fill="#191919"/><path d="M335.88975,197.70299l1.23216,-1.49369c0.03691,0.21442 0.04816,0.43158 0.0114,0.65249c-0.11266,0.67706 -0.27433,1.0774 -0.21946,1.56457c-0.60988,-0.41728 -1.02411,-0.72337 -1.02411,-0.72337z" fill="#191919"/><path d="" fill="#191919"/><path d="M339.12828,214.59064c0,0 -0.06793,-0.79148 -0.11901,-1.89333c0.18556,0.17344 0.38079,0.33365 0.58421,0.48026c0.05158,0.09786 0.10613,0.19488 0.16368,0.29093c0.20749,0.34629 0.44442,0.66409 0.70566,0.95211z" fill="#191919"/><path d="" fill="#191919"/><path d="" fill="#191919"/><path d="" fill="#191919"/><path d="M304.21251,190.50357l1.22275,-1.92417l0.55598,4.96992c-0.09399,-0.20714 -0.20071,-0.4111 -0.32042,-0.6109c-0.25467,-0.42503 -0.55367,-0.80713 -0.88757,-1.14393c-0.14123,-0.45259 -0.33435,-0.88316 -0.57073,-1.29093z" fill="#191919"/><path d="M315.65263,187.62791l4.76874,16.18615c0,0 -4.09767,1.31353 -6.29225,1.48178c-0.12793,-0.67607 -0.37527,-1.34144 -0.74956,-1.9661c-0.56555,-0.94387 -1.34976,-1.67602 -2.24909,-2.17051c-0.07054,-0.14206 -0.14723,-0.28245 -0.23015,-0.42084c-0.20727,-0.34592 -0.44391,-0.66341 -0.70482,-0.95118z" fill="#191919"/><path d="M328.49453,201.39839l2.51396,-15.04584l6.085,10.72946c-0.18396,0.94604 -0.41205,1.34197 0.2638,2.4858c0.00219,0.12097 0.00804,0.24207 0.01762,0.36313c-1.10026,0.52971 -2.82661,1.30493 -3.93076,1.52597c-1.56565,0.31343 -4.94961,-0.05851 -4.94961,-0.05851z" fill="#191919"/><path d="M320.72238,202.61138l2.94529,-12.71787l5.95867,10.58489c0,0 -2.9625,1.57646 -4.51129,1.94747c-1.40521,0.33662 -4.39267,0.18549 -4.39267,0.18549z" fill="#191919"/></g><path d="M335.55404,205.37257l1.47097,-9.04804l0.13067,0.23029c0.00149,0.10157 -0.00521,0.20386 -0.02236,0.30698c-0.18496,1.11162 -0.50203,1.47731 0.22397,2.70601c0.01,0.55308 0.0967,1.10885 0.26416,1.65113c-0.03799,0.45154 -0.02509,0.90897 0.04097,1.36324c-0.1591,0.65049 -0.20994,1.32757 -0.14517,2.00194c-0.05789,0.29843 -0.09326,0.60146 -0.10543,0.90636c-0.90245,-0.00874 -1.85779,-0.1179 -1.85779,-0.1179z" fill="#191919" stroke="none" stroke-width="0" stroke-linecap="butt"/><path d="M344.52144,218.47825c0.08268,0.4761 0.22427,0.94754 0.42737,1.40391c0.03348,0.16599 0.06241,0.33536 0.08689,0.50794c-0.01708,0.44699 0.01572,0.89791 0.10055,1.34414c0.02214,1.57599 -0.25978,3.3544 -0.80856,5.25137c-0.60093,0.87957 -0.9541,1.90227 -1.03101,2.95443c-2.14684,5.29594 -6.04114,11.12865 -10.9872,15.93009c-5.35395,5.1974 -24.27246,19.19317 -31.17831,14.45373c-8.39429,-5.76094 -4.96684,-30.68289 2.87699,-41.13771c0.34131,-0.28463 0.64459,-0.602 0.90794,-0.94465c0.45665,-0.40117 0.84113,-0.86249 1.14859,-1.36456c0.32349,-0.31158 0.64764,-0.61431 0.97238,-0.90827c0.06341,-0.03498 0.12644,-0.07122 0.18907,-0.10875c0.58253,-0.34904 1.08441,-0.78137 1.49955,-1.27263c0.42762,-0.27484 0.80908,-0.59572 1.14178,-0.95218c0.27401,-0.20437 0.54825,-0.40281 0.82265,-0.59538c0.05482,-0.03058 0.10935,-0.06212 0.16358,-0.09461c0.2431,-0.14566 0.47215,-0.30582 0.68672,-0.47872c0.50757,-0.08852 1.00776,-0.27004 1.47615,-0.55069c0.454,-0.27203 0.83996,-0.61431 1.15233,-1.00463c8.93824,-4.68516 17.81186,-3.42593 24.76954,1.71894c0.20651,0.19948 0.42556,0.38218 0.65504,0.54757c0.05158,0.09786 0.10613,0.19488 0.16368,0.29093c0.61936,1.03367 1.50096,1.81343 2.50882,2.30517c0.40112,0.5782 0.88892,1.06591 1.43511,1.45601c0.15827,0.22187 0.32946,0.43007 0.5119,0.62415c0.11361,0.19927 0.21636,0.40757 0.30846,0.62442z" fill="#d7d75f" stroke="#000000" stroke-width="0" stroke-linecap="butt"/><g stroke="#000000" stroke-width="0" stroke-linecap="butt"><path d="M331.43865,181.76255c2.36285,2.58356 4.30347,7.02028 5.32384,12.156c-0.01472,0.07686 -0.0286,0.15279 -0.04166,0.2277c-0.15513,0.89012 0.5701,1.76825 0.41248,2.71555c-0.18496,1.11162 -0.50203,1.47731 0.22397,2.70601c0.00798,0.44151 0.06484,0.88472 0.17264,1.32141c0.185,7.85696 -1.92739,16.11694 -7.76965,21.46009c-11.60441,10.61305 -17.84642,-0.67359 -15.32639,-11.80797c0.85436,-1.33622 0.93757,-3.09499 0.06704,-4.54786c-0.10219,-0.17056 -0.21431,-0.33151 -0.33516,-0.48258c-0.11361,-0.74978 -0.37227,-1.49037 -0.78618,-2.18116c-0.56555,-0.94387 -1.34976,-1.67602 -2.24909,-2.17051c-0.07054,-0.14206 -0.14723,-0.28245 -0.23016,-0.42084c-0.43705,-0.72942 -1.00469,-1.3324 -1.65513,-1.79696c-0.10878,-0.1525 -0.22366,-0.29852 -0.3441,-0.43796c-0.83606,-1.10462 -1.67425,-2.23629 -2.44585,-3.39536c-0.1145,-0.74587 -0.37264,-1.48242 -0.78444,-2.1697c-0.25467,-0.42503 -0.55367,-0.80713 -0.88757,-1.14393c-0.23991,-0.76882 -0.62954,-1.47407 -1.1266,-2.11197c-0.92603,-2.77211 -1.00537,-5.6835 0.52508,-8.73833c5.1029,-10.18558 13.3247,-9.07768 20.11535,-4.95168c1.20356,0.73128 -0.3165,4.56039 0.7642,5.43978c1.32904,1.08146 5.32344,-0.82213 6.37737,0.33025z" fill="#d7d75f"/><path d="M337.10999,167.85471c1.42598,0.94864 -1.93049,7.55229 -7.49691,14.74969c-5.56641,7.1974 -9.59411,11.40608 -11.0201,10.45745c-0.18798,-0.12505 -2.37017,-0.71933 -2.27733,-1.71115c0.4944,-5.2815 2.51087,-1.35311 3.61367,-2.95833c5.39926,-7.85908 16.17106,-21.20929 17.18066,-20.53766z" fill="#89893c"/><path d="M334.88374,164.73763c1.12869,0.7589 -7.23594,13.96826 -13.15429,21.87072c-0.7518,1.00384 0.4857,4.72297 -1.27034,6.32334c-1.21554,1.10778 -3.96808,-0.25337 -4.18467,-0.517c-2.46614,-3.00176 1.18044,-8.20302 6.31925,-15.84583c5.13882,-7.64281 10.64126,-12.93983 12.29004,-11.83123z" fill="#9b9b44"/><path d="M315.78792,179.34697c1.24818,0.96085 2.03093,2.03737 1.74833,2.40448c-0.2826,0.36711 -1.52355,-0.11421 -2.77172,-1.07505c-1.24818,-0.96085 -2.03093,-2.03737 -1.74833,-2.40448c0.2826,-0.36711 1.52354,0.11421 2.77172,1.07505z" fill="#000000"/><path d="M314.32801,181.74858c1.24818,0.96085 2.03093,2.03737 1.74833,2.40448c-0.2826,0.36711 -1.52354,-0.11421 -2.77171,-1.07505c-1.24818,-0.96085 -2.03093,-2.03737 -1.74833,-2.40448c0.2826,-0.36711 1.52355,0.11421 2.77172,1.07505z" fill="#000000"/></g><path d="M319.68456,221.35297c4.33062,4.19731 0.89489,14.46512 -7.6739,22.9338c-8.56879,8.46867 -19.02582,11.93129 -23.35644,7.73398c-4.33062,-4.19731 -0.89489,-14.46512 7.6739,-22.9338c8.56879,-8.46867 19.02583,-11.9313 23.35644,-7.73398z" fill="#c2c255" stroke="none" stroke-width="0" stroke-linecap="butt"/><path d="M317.99145,216.86156c4.80433,3.82355 2.30792,14.95361 -5.57589,24.85968c-7.88381,9.90606 -18.16957,14.83691 -22.9739,11.01335c-3.22516,-2.56677 -3.16026,-8.42618 -0.38412,-14.9976c0.97773,-0.87725 1.61657,-2.03321 1.86723,-3.27121c0.69718,-0.72358 1.18877,-1.6006 1.45203,-2.54031c0.67396,-0.70138 1.15512,-1.54638 1.42284,-2.45263c0.0854,-0.11709 0.17154,-0.23408 0.25844,-0.35095c0.04321,-0.02447 0.08623,-0.04954 0.12907,-0.07521c0.90196,-0.54043 1.61058,-1.28054 2.10323,-2.12997c0.59885,-0.53779 1.07042,-1.18018 1.40341,-1.88191c0.28878,-0.30007 0.54223,-0.62648 0.75873,-0.97277c0.13479,-0.06759 0.26805,-0.14074 0.39951,-0.21951c0.82974,-0.49716 1.49587,-1.16331 1.98075,-1.92809c0.00351,-0.00209 0.00701,-0.00418 0.01051,-0.00628c0.59047,-0.3538 1.09809,-0.79318 1.51649,-1.29277c0.30445,-0.20898 0.58405,-0.44189 0.83778,-0.69465c5.81241,-4.23268 11.55149,-5.63965 14.79389,-3.05916z" fill="#d7d75f" stroke="#000000" stroke-width="0" stroke-linecap="butt"/><path d="M338.6026,212.41384c0,0 -0.55207,4.3021 -6.33859,6.27627c-6.10007,2.08114 -10.3497,-1.28489 -10.3497,-1.28489c0,0 5.9771,0.96809 9.53144,-1.1616c3.55434,-2.12969 7.15685,-3.82977 7.15685,-3.82977z" fill="#d7d75f" stroke="none" stroke-width="0" stroke-linecap="butt"/><path d="M333.49825,217.1784c-5.02736,3.01229 -12.37868,0.16656 -12.37868,0.16656c0,0 5.06051,-1.15703 10.08787,-4.16932c3.23245,-1.93682 4.94686,-5.36617 6.2202,-6.79832c-0.54882,1.61104 -0.41179,3.44392 0.53149,5.01821c0.19872,0.33165 0.42444,0.63717 0.67266,0.91542c-1.08907,1.76331 -2.85537,3.50242 -5.13354,4.86745z" fill="#d7d75f" stroke="none" stroke-width="NaN" stroke-linecap="butt"/><path d="M299.85114,236.76513c4.01741,2.15426 9.54271,5.10308 9.54271,5.10308c0,0 -5.94755,0.41408 -11.30579,-3.16799c-4.46434,-2.9845 -5.04457,-6.64849 -5.11967,-7.49597c0.02177,-0.03125 0.04323,-0.06268 0.06438,-0.0943c0.50662,0.57449 3.49268,3.87185 6.81837,5.65519z" data-paper-data="{&quot;index&quot;:null}" fill="#d7d75f" stroke="none" stroke-width="0" stroke-linecap="butt"/><path d="M298.83007,236.91792c5.77499,3.74492 11.2353,5.13559 11.2353,5.13559c0,0 -7.08053,3.72252 -12.85552,-0.02239c-2.81979,-1.82855 -5.1056,-4.21715 -6.56078,-6.61368c0.1179,-0.30925 0.21009,-0.62765 0.2757,-0.95167c0.69718,-0.72358 1.18877,-1.6006 1.45203,-2.54031c0.27242,-0.2835 0.51333,-0.59047 0.72138,-0.91545c1.44838,1.96504 3.3169,4.34187 5.73189,5.90792z" data-paper-data="{&quot;index&quot;:null}" fill="#d7d75f" stroke="none" stroke-width="NaN" stroke-linecap="butt"/><path d="M307.63928,184.09849c0.13197,1.37374 -0.49718,2.5581 -1.40524,2.64534c-0.90807,0.08724 -1.75119,-0.95569 -1.88316,-2.32943c-0.13197,-1.37374 0.49718,-2.5581 1.40524,-2.64533c0.90807,-0.08724 1.75119,0.95568 1.88316,2.32942z" fill="#eded8c" stroke="none" stroke-width="0" stroke-linecap="butt"/><path d="M307.68295,179.73957c0.28854,0.48156 0.13206,1.10584 -0.34949,1.39438c-0.48156,0.28854 -1.10584,0.13206 -1.39438,-0.34949c-0.28854,-0.48156 -0.13207,-1.10584 0.34949,-1.39438c0.48155,-0.28854 1.10584,-0.13207 1.39438,0.34949z" fill="#eded8c" stroke="none" stroke-width="0" stroke-linecap="butt"/><path d="M304.41848,221.09592c0.26449,0.44142 0.12106,1.01369 -0.32037,1.27818c-0.44143,0.2645 -1.01369,0.12106 -1.27818,-0.32036c-0.26449,-0.44142 -0.12106,-1.01369 0.32037,-1.27818c0.44142,-0.26449 1.01368,-0.12106 1.27818,0.32036z" fill="#eded8c" stroke="none" stroke-width="0" stroke-linecap="butt"/><path d="M308.84831,223.61554c0,10.94918 -8.65416,19.82525 -19.32961,19.82525c-10.67545,0 -19.32961,-8.87606 -19.32961,-19.82525c0,-10.94918 8.65416,-19.82525 19.32961,-19.82525c10.67545,0 19.32961,8.87606 19.32961,19.82525z" fill="#d7d75f" stroke="#000000" stroke-width="2" stroke-linecap="butt"/><path d="M365.88958,222.66797c0,10.94918 -8.65416,19.82524 -19.32961,19.82524c-10.67545,0 -19.32961,-8.87606 -19.32961,-19.82524c0,-10.94918 8.65416,-19.82525 19.32961,-19.82525c10.67545,0 19.32961,8.87607 19.32961,19.82525z" fill="#d7d75f" stroke="#000000" stroke-width="2" stroke-linecap="butt"/></g></g></svg>