<svg version="1.1" xmlns="http://www.w3.org/2000/svg" xmlns:xlink="http://www.w3.org/1999/xlink" width="128.27443" height="266.48447" viewBox="0,0,128.27443,266.48447"><g transform="translate(-255.86279,-46.7663)"><g data-paper-data="{&quot;isPaintingLayer&quot;:true}" fill-rule="nonzero" stroke-linejoin="miter" stroke-miterlimit="10" stroke-dasharray="" stroke-dashoffset="0" style="mix-blend-mode: normal"><path d="M333.68624,311.11929l3.64767,-157.1264l31.71139,1.09711l-3.64768,157.1264z" data-paper-data="{&quot;index&quot;:null}" fill="#000000" stroke="#ffffff" stroke-width="2" stroke-linecap="butt"/><path d="M273.622,311.9527l-3.64767,-157.12641l31.71138,-1.09711l3.64767,157.12641z" fill="#000000" stroke="#ffffff" stroke-width="2" stroke-linecap="butt"/><path d="M336.45586,179.26549c-0.6696,0 -1.2124,-0.54282 -1.2124,-1.2124c0,-0.6696 0.54282,-1.21243 1.2124,-1.21243c0.6696,0 1.2124,0.54283 1.2124,1.21243c0,0.6696 -0.54282,1.2124 -1.2124,1.2124z" fill="#5a5a07" stroke="none" stroke-width="0" stroke-linecap="butt"/><path d="M330.2891,184.23135c-5.23307,-0.3686 -7.68218,-2.10322 -7.23362,-3.02496c0.1382,-0.28401 3.33722,1.24692 8.17217,1.52977c7.51396,0.43957 9.97763,-0.74065 9.97763,-0.74065v1.57826c0,0 -2.82962,1.22719 -10.91618,0.6576z" fill="#5a5a07" stroke="none" stroke-width="0" stroke-linecap="butt"/><path d="M297.68104,178.05309c0,-0.6696 0.54282,-1.21243 1.2124,-1.21243c0.6696,0 1.21243,0.54283 1.21243,1.21243c0,0.6696 -0.54283,1.2124 -1.21243,1.2124c-0.6696,0 -1.2124,-0.54282 -1.2124,-1.2124z" fill="#5a5a07" stroke="none" stroke-width="0" stroke-linecap="butt"/><path d="M305.06021,184.23135c-8.08656,0.56962 -10.91618,-0.6576 -10.91618,-0.6576v-1.57826c0,0 2.46366,1.18022 9.97763,0.74065c4.83495,-0.28286 8.03398,-1.81377 8.17218,-1.52977c0.44857,0.92173 -2.00054,2.65635 -7.23362,3.02496z" fill="#5a5a07" stroke="none" stroke-width="0" stroke-linecap="butt"/><path d="M316.41946,250.53343c-0.96015,0 -1.7385,-0.77835 -1.7385,-1.7385c0,-0.96015 0.77835,-1.7385 1.7385,-1.7385c0.96015,0 1.7385,0.77835 1.7385,1.7385c0,0.96015 -0.77835,1.7385 -1.7385,1.7385z" data-paper-data="{&quot;index&quot;:null}" fill="#5a5a07" stroke="none" stroke-width="0" stroke-linecap="butt"/><path d="M360.13665,150.15001l-16.92998,154.75862l-47.125,-0.18511l-18.88686,-154.5735z" data-paper-data="{&quot;index&quot;:null}" fill="#000000" stroke="#ffffff" stroke-width="2" stroke-linecap="butt"/><path d="M256.86279,155.85755v-89.41271l81.00444,-0.93773l0.483,-17.10147l36.07841,-0.62204l0.09308,18.32752l8.61551,0.33373v89.41271z" fill="#000000" stroke="#ffffff" stroke-width="2" stroke-linecap="butt"/><path d="M293.56324,118.07429l0.62204,-24.88166" fill="none" stroke="#ffffff" stroke-width="2" stroke-linecap="round"/><path d="M342.08247,92.57058v24.88166" fill="none" stroke="#ffffff" stroke-width="2" stroke-linecap="round"/><path d="M363.23188,121.18449l-16.17307,19.90532l-28.61391,5.59837l-28.61391,-8.70858l-15.55104,-19.90532" fill="none" stroke="#ffffff" stroke-width="2" stroke-linecap="round"/></g></g></svg>