<svg version="1.1" xmlns="http://www.w3.org/2000/svg" xmlns:xlink="http://www.w3.org/1999/xlink" width="153" height="281.49092" viewBox="0,0,153,281.49092"><g transform="translate(-242.8489,-27.00906)"><g data-paper-data="{&quot;isPaintingLayer&quot;:true}" fill-rule="nonzero" stroke-linejoin="miter" stroke-miterlimit="10" stroke-dasharray="" stroke-dashoffset="0" style="mix-blend-mode: normal"><path d="M285.90286,307.49998l10.58516,-87.56737l45.59644,-1.46009l10.3184,89.02747z" fill="#9b9d30" stroke="#000000" stroke-width="2" stroke-linecap="butt"/><path d="M289.57668,250.08801l7.55047,-52.41545l43.29909,-2.17848l9.45725,55.15135l-30.23979,-11.89646z" fill="#747524" stroke="#000000" stroke-width="2" stroke-linecap="butt"/><path d="M394.8489,135.88245c0,44.597 -33.8025,80.75 -75.5,80.75c-41.6975,0 -75.5,-36.15301 -75.5,-80.75c0,-44.59699 33.8025,-80.75 75.5,-80.75c41.6975,0 75.5,36.15301 75.5,80.75z" fill="#747524" stroke="#000000" stroke-width="2" stroke-linecap="butt"/><path d="M386.52184,141.02656c0,38.06162 -30.45365,68.91667 -68.02013,68.91667c-37.56647,0 -68.02013,-30.85504 -68.02013,-68.91667c0,-38.06162 30.45365,-68.91667 68.02013,-68.91667c37.56647,0 68.02013,30.85504 68.02013,68.91667z" fill="#000000" stroke="none" stroke-width="0" stroke-linecap="butt"/><path d="M254.34167,142.70605c0,-33.30185 28.7599,-60.29833 64.23702,-60.29833c35.47712,0 64.23702,26.99649 64.23702,60.29833c0,33.30185 -28.7599,60.29833 -64.23702,60.29833c-35.47712,0 -64.23702,-26.99649 -64.23702,-60.29833z" fill="#ffff70" stroke="#000000" stroke-width="2" stroke-linecap="butt"/><path d="M255.06473,142.75987c0,-0.72799 5.20666,55.91939 63.36046,56.93429c55.56352,0.9697 63.51358,-57.95314 63.51358,-56.93429c0,32.80479 -28.40173,59.39833 -63.43702,59.39833c-35.03529,0 -63.43702,-26.59354 -63.43702,-59.39833z" fill="#6c6d22" stroke="#000000" stroke-width="0" stroke-linecap="butt"/><path d="M254.09892,157.65097c0,0 -8.73921,-80.9842 66.75,-79.5c77.52968,1.52431 61,82.25 61,82.25c0,0 -24.63436,12.69075 -63.02896,13.02851c-34.39482,0.30257 -64.72104,-15.77851 -64.72104,-15.77851z" fill-opacity="0.52549" fill="#000000" stroke="none" stroke-width="0" stroke-linecap="butt"/><path d="M267.89188,143.1355c0,-12.968 10.51265,-23.48065 23.48065,-23.48065c12.968,0 23.48065,10.51265 23.48065,23.48065c0,12.968 -10.51265,23.48065 -23.48065,23.48065c-12.968,0 -23.48065,-10.51265 -23.48065,-23.48065z" fill="#ffffff" stroke="#000000" stroke-width="2" stroke-linecap="butt"/><path d="M282.11936,143.83653c0,-4.99277 4.04743,-9.0402 9.0402,-9.0402c4.99277,0 9.0402,4.04744 9.0402,9.0402c0,4.99277 -4.04744,9.0402 -9.0402,9.0402c-4.99277,0 -9.0402,-4.04744 -9.0402,-9.0402z" fill="#000000" stroke="none" stroke-width="0" stroke-linecap="butt"/><path d="M319.7049,233.39012l-20.20714,-55.92947c0,0 11.22098,4.02069 19.31303,3.75347c8.09205,-0.26722 20.12074,-5.05567 20.12074,-5.05567z" data-paper-data="{&quot;index&quot;:null}" fill="#000000" stroke="#000000" stroke-width="2" stroke-linecap="round"/><path d="M345.63096,166.61616c-12.968,0 -23.48065,-10.51265 -23.48065,-23.48065c0,-12.968 10.51265,-23.48065 23.48065,-23.48065c12.968,0 23.48065,10.51265 23.48065,23.48065c0,12.968 -10.51265,23.48065 -23.48065,23.48065z" data-paper-data="{&quot;index&quot;:null}" fill="#ffffff" stroke="#000000" stroke-width="2" stroke-linecap="butt"/><path d="M280.09964,111.87546c0,0 7.59834,-3.74113 12.82228,-3.90615c5.22395,-0.16501 11.95254,3.12355 11.95254,3.12355c0,0 -7.86762,-1.64791 -11.9019,-1.52047c-4.21598,0.13318 -12.87293,2.30307 -12.87293,2.30307z" fill="#000000" stroke="none" stroke-width="0" stroke-linecap="butt"/><path d="M344.12591,109.58993c-4.03603,0.04644 -11.82537,2.03168 -11.82537,2.03168c0,0 6.58071,-3.57532 11.80692,-3.63546c5.2262,-0.06014 12.97862,3.35026 12.97862,3.35026c0,0 -8.74237,-1.79502 -12.96017,-1.74649z" data-paper-data="{&quot;index&quot;:null}" fill="#000000" stroke="none" stroke-width="0" stroke-linecap="butt"/><g stroke="#000000" stroke-width="2" stroke-linecap="butt"><path d="M259.06352,87.04539l7.41713,-47.73264c0,0 25.93273,-8.66762 38.32532,-10.36705c13.59452,-1.86426 39.97031,-0.36979 39.97031,-0.36979l20.14284,43.10547c0,0 -33.40742,9.36501 -51.22761,11.95145c-17.45757,2.5338 -54.62801,3.41256 -54.62801,3.41256z" fill="#ffffff"/><path d="M259.42463,86.93355l1.07685,-6.94704c0,0 34.42563,-0.71578 51.61485,-3.07024c16.73253,-2.29192 50.1873,-10.87399 50.1873,-10.87399l2.75111,5.6373c0,0 -34.98543,11.05809 -52.64631,13.40774c-17.33318,2.30605 -52.98381,1.84625 -52.98381,1.84625z" fill="#9b9d30"/><path d="M306.95366,53.02331c0,0 10.15983,-6.39343 16.37451,-9.29663c6.90568,-3.226 23.20546,-9.19316 23.20546,-9.19316l2.81098,6.38958c0,0 -18.4909,6.71986 -25.01856,9.9331c-4.89718,2.41064 -10.68114,7.6402 -10.68114,7.6402z" fill="#9b9d30"/><path d="M319.41372,74.56906c0,0 -0.64095,-8.06589 -13.30413,-14.03427c-17.14916,-8.08267 -40.51415,-8.44105 -40.51415,-8.44105l1.47011,-6.99935c0,0 22.01657,-1.17614 41.82268,8.50543c14.96388,7.31459 18.39071,19.92283 18.39071,19.92283z" fill="#9b9d30"/></g><path d="M335.74299,144.07005c0,-4.99277 4.04743,-9.0402 9.0402,-9.0402c4.99277,0 9.0402,4.04744 9.0402,9.0402c0,4.99277 -4.04744,9.0402 -9.0402,9.0402c-4.99277,0 -9.0402,-4.04744 -9.0402,-9.0402z" fill="#000000" stroke="none" stroke-width="0" stroke-linecap="butt"/></g></g></svg>