<svg version="1.1" xmlns="http://www.w3.org/2000/svg" xmlns:xlink="http://www.w3.org/1999/xlink" width="149.33333" height="247.78057" viewBox="0,0,149.33333,247.78057"><defs><linearGradient x1="320.99525" y1="186.83338" x2="320.99525" y2="217.46156" gradientUnits="userSpaceOnUse" id="color-1"><stop offset="0" stop-color="#91913f"/><stop offset="1" stop-color="#91913f" stop-opacity="0"/></linearGradient></defs><g transform="translate(-241.04448,-60.71947)"><g data-paper-data="{&quot;isPaintingLayer&quot;:true}" fill-rule="nonzero" stroke-linejoin="miter" stroke-miterlimit="10" stroke-dasharray="" stroke-dashoffset="0" style="mix-blend-mode: normal"><path d="M287.18526,307.50002l15.14285,-131.8421l37.78325,-0.15789l13.57389,132z" fill="#c5c556" stroke="#000000" stroke-width="2" stroke-linecap="butt"/><g data-paper-data="{&quot;index&quot;:null}" fill="#ffffff" stroke="#000000" stroke-width="3" stroke-linecap="butt"><path d="M318.96555,243.87874c0,0 13.40132,-10.03021 15.39554,-19.68553c1.99421,-9.65532 -8.09785,-15.64748 -8.09785,-15.64748l1.92964,-3.12268c0,0 9.81984,8.89609 8.28999,19.2486c-1.19878,8.11216 -10.34262,19.63547 -10.34262,19.63547z"/><path d="M331.71243,200.19368c0.81011,1.22015 -2.80165,5.13979 -2.80165,5.13979c0,0 3.40313,4.13165 2.53033,5.29775c-0.87281,1.16602 -5.61683,-1.16739 -5.61683,-1.16739c0,0 -2.75965,4.59495 -4.10728,4.09973c-1.34976,-0.49716 -0.67135,-5.85723 -0.67135,-5.85723c0,0 -5.10667,-1.29116 -5.06727,-2.76674c0.03751,-1.47355 5.20211,-2.45004 5.20211,-2.45004c0,0 -0.39837,-5.39747 0.97469,-5.81088c1.37476,-0.41757 3.88792,4.33875 3.88792,4.33875c0,0 4.85944,-2.04 5.66933,-0.82374z"/><path d="M302.95319,253.63196c-3.21517,-8.28918 0.698,-17.67367 8.74031,-20.96082c8.04231,-3.28717 17.16831,0.76779 20.38348,9.05696c3.21517,8.28918 -0.69801,17.67367 -8.74032,20.96083c-8.04231,3.28717 -17.1683,-0.76779 -20.38347,-9.05696z"/></g><g stroke-linecap="butt"><path d="M320.02973,243.66891c0,0 13.40133,-9.84724 15.39554,-19.32645c1.99421,-9.4792 -8.09785,-15.36207 -8.09785,-15.36207l1.92964,-3.06572c0,0 9.81984,8.73382 8.28998,18.89749c-1.19878,7.96418 -10.34262,19.2773 -10.34262,19.2773z" fill="#ffffff" stroke="none" stroke-width="0"/><path d="M332.7766,200.78071c0.81011,1.19789 -2.80164,5.04603 -2.80164,5.04603c0,0 3.40313,4.05629 2.53033,5.20112c-0.87281,1.14476 -5.61683,-1.1461 -5.61683,-1.1461c0,0 -2.75964,4.51112 -4.10728,4.02493c-1.34976,-0.48809 -0.67135,-5.75038 -0.67135,-5.75038c0,0 -5.10667,-1.26761 -5.06727,-2.71627c0.03751,-1.44667 5.20211,-2.40535 5.20211,-2.40535c0,0 -0.39837,-5.29901 0.97469,-5.70488c1.37476,-0.40996 3.88792,4.2596 3.88792,4.2596c0,0 4.85943,-2.00279 5.66932,-0.80872z" data-paper-data="{&quot;index&quot;:null}" fill="#ffffff" stroke="none" stroke-width="2.57572"/><path d="M304.01736,253.24421c-3.21517,-8.13798 0.69801,-17.35128 8.74032,-20.57847c8.04231,-3.2272 17.16831,0.75378 20.38348,8.89175c3.21517,8.13798 -0.69801,17.35129 -8.74033,20.57848c-8.04231,3.22721 -17.1683,-0.75378 -20.38347,-8.89176z" fill="#ffffff" stroke="none" stroke-width="1"/><g fill="#000000" stroke="#000000" stroke-width="1"><path d="M308.17572,251.74043c-2.39775,-6.069 0.52055,-12.93994 6.51821,-15.34665c5.99766,-2.40671 12.80348,0.56214 15.20123,6.63114c2.39775,6.069 -0.52055,12.93994 -6.5182,15.34666c-5.99766,2.40672 -12.80348,-0.56215 -15.20124,-6.63114zM324.59503,253.40592c4.34995,-1.74553 6.46652,-6.72886 4.72749,-11.13055c-1.73903,-4.40169 -6.67512,-6.55493 -11.02508,-4.80939c-4.34995,1.74553 -6.46652,6.72886 -4.72749,11.13055c1.73903,4.40169 6.67512,6.55493 11.02508,4.80939z"/><path d="M318.48674,246.34374c-0.79047,-2.00078 0.1716,-4.26592 2.14886,-5.05934c1.97725,-0.79342 4.22092,0.18531 5.01139,2.18609c0.79047,2.00078 -0.17161,4.26592 -2.14887,5.05934c-1.97725,0.79342 -4.22092,-0.18531 -5.01139,-2.18609z"/></g></g><path d="M346.71114,93.28857c0,-11.78208 9.55126,-21.33333 21.33334,-21.33333c11.78208,0 21.33333,9.55126 21.33333,21.33333c0,11.78208 -9.55126,21.33333 -21.33333,21.33333c-11.78208,0 -21.33334,-9.55125 -21.33334,-21.33333z" fill="#c5c556" stroke="#000000" stroke-width="2" stroke-linecap="butt"/><path d="M353.71114,93.6219c0,-8.10018 6.5665,-14.66666 14.66667,-14.66666c8.10017,0 14.66667,6.56649 14.66667,14.66666c0,8.10018 -6.56649,14.66667 -14.66667,14.66667c-8.10017,0 -14.66667,-6.56649 -14.66667,-14.66667z" fill="#91913f" stroke="#000000" stroke-width="2" stroke-linecap="butt"/><path d="M242.04448,93.28857c0,-11.78208 9.55126,-21.33333 21.33333,-21.33333c11.78207,0 21.33334,9.55126 21.33334,21.33333c0,11.78208 -9.55126,21.33333 -21.33334,21.33333c-11.78207,0 -21.33333,-9.55125 -21.33333,-21.33333z" fill="#c5c556" stroke="#000000" stroke-width="2" stroke-linecap="butt"/><path d="M249.04448,93.6219c0,-8.10018 6.56649,-14.66666 14.66667,-14.66666c8.10018,0 14.66666,6.56649 14.66666,14.66666c0,8.10018 -6.56649,14.66667 -14.66666,14.66667c-8.10018,0 -14.66667,-6.56649 -14.66667,-14.66667z" fill="#91913f" stroke="#000000" stroke-width="2" stroke-linecap="butt"/><path d="M299.52279,213.30306l3.21311,-26.32765l36.88317,-0.14203l2.84864,26.1059c0,0 -7.73618,4.19603 -22.19228,4.50964c-12.85128,0.27879 -20.75264,-4.14586 -20.75264,-4.14586z" fill="url(#color-1)" stroke="#000000" stroke-width="0" stroke-linecap="butt"/><path d="M251.98631,142.36042c0,-33.30185 28.7599,-60.29833 64.23702,-60.29833c35.47712,0 64.23702,26.99649 64.23702,60.29833c0,33.30185 -28.7599,60.29833 -64.23702,60.29833c-35.47712,0 -64.23702,-26.99649 -64.23702,-60.29833z" fill="#c5c556" stroke="#000000" stroke-width="2" stroke-linecap="butt"/><path d="M252.70937,142.41424c0,-0.72799 5.20666,55.91939 63.36046,56.93429c55.56352,0.9697 63.51358,-57.95314 63.51358,-56.93429c0,32.80479 -28.40173,59.39833 -63.43702,59.39833c-35.03529,0 -63.43702,-26.59354 -63.43702,-59.39833z" fill="#91913f" stroke="#000000" stroke-width="0" stroke-linecap="butt"/><path d="M265.53652,142.7899c0,-12.968 10.51265,-23.48065 23.48065,-23.48065c12.968,0 23.48065,10.51265 23.48065,23.48065c0,12.968 -10.51265,23.48065 -23.48065,23.48065c-12.968,0 -23.48065,-10.51265 -23.48065,-23.48065z" fill="#ffffff" stroke="#000000" stroke-width="2" stroke-linecap="butt"/><path d="M272.60191,142.51425c0,-9.12808 7.39976,-16.52784 16.52783,-16.52784c9.12808,0 16.52784,7.39977 16.52784,16.52784c0,9.12808 -7.39977,16.52784 -16.52784,16.52784c-9.12808,0 -16.52783,-7.39977 -16.52783,-16.52784z" fill="#000000" stroke="none" stroke-width="0" stroke-linecap="butt"/><path d="M343.2756,166.27052c-12.968,0 -23.48065,-10.51265 -23.48065,-23.48065c0,-12.968 10.51265,-23.48065 23.48065,-23.48065c12.968,0 23.48065,10.51265 23.48065,23.48065c0,12.968 -10.51265,23.48065 -23.48065,23.48065z" data-paper-data="{&quot;index&quot;:null}" fill="#ffffff" stroke="#000000" stroke-width="2" stroke-linecap="butt"/><path d="M343.16304,159.0421c-9.12807,0 -16.52783,-7.39977 -16.52783,-16.52784c0,-9.12808 7.39977,-16.52784 16.52783,-16.52784c9.12807,0 16.52783,7.39977 16.52783,16.52784c0,9.12808 -7.39977,16.52784 -16.52783,16.52784z" data-paper-data="{&quot;index&quot;:null}" fill="#000000" stroke="none" stroke-width="0" stroke-linecap="butt"/><path d="M265.53652,142.7899c0,-12.968 10.51265,-23.48065 23.48065,-23.48065c12.968,0 23.48065,10.51265 23.48065,23.48065c0,0 -46.96131,1.23155 -46.96131,0z" fill="#c5c556" stroke="#000000" stroke-width="2" stroke-linecap="butt"/><path d="M319.79497,142.7899c0,-12.968 10.51265,-23.48065 23.48065,-23.48065c12.968,0 23.48065,10.51265 23.48065,23.48065c0,1.2138 -46.96131,0 -46.96131,0z" data-paper-data="{&quot;index&quot;:null}" fill="#c5c556" stroke="#000000" stroke-width="2" stroke-linecap="butt"/><path d="M278.17419,113.98143c0,0 6.70895,-5.16922 11.79721,-6.36355c5.08827,-1.19433 12.33413,0.69937 12.33413,0.69937c0,0 -8.03812,-0.06028 -11.96762,0.86207c-4.10648,0.96389 -12.16372,4.80211 -12.16372,4.80211z" fill="#000000" stroke="none" stroke-width="0" stroke-linecap="butt"/><path d="M342.1087,109.17933c-3.9295,-0.92235 -11.96762,-0.86207 -11.96762,-0.86207c0,0 7.24586,-1.8937 12.33413,-0.69937c5.08826,1.19433 11.79721,6.36355 11.79721,6.36355c0,0 -8.05724,-3.83822 -12.16372,-4.80211z" data-paper-data="{&quot;index&quot;:null}" fill="#000000" stroke="none" stroke-width="0" stroke-linecap="butt"/><path d="M312.21849,88.62445c0,0 -0.31681,-11.18942 4.28605,-18.88927c6.639,-11.106 14.33538,-7.43386 14.33538,-7.43386c0,0 -6.65329,6.79884 -8.98204,11.06679c-2.20558,4.04221 -2.19806,16.53467 -2.19806,16.53467" fill="#c5c556" stroke="#000000" stroke-width="2" stroke-linecap="round"/><g data-paper-data="{&quot;index&quot;:null}" stroke-linecap="butt"><path d="M321.76097,141.596c0,0 0.19047,7.62796 0.0107,13.69392c-0.01459,0.4924 -0.03136,1.03407 -0.0501,1.62014c-1.04296,-0.59211 -2.34002,-0.97281 -3.95856,-1.07711c-0.02591,-0.3675 -0.14204,-0.70907 -0.3256,-1.00109c0.20943,-0.3332 0.3311,-0.73093 0.3311,-1.15807c0,-0.02191 -0.00032,-0.04373 -0.00095,-0.06548c1.07922,-0.698 1.80305,-1.92988 1.8264,-3.33842c0.36431,-0.23433 0.65257,-0.58339 0.81764,-0.99839c0.74691,-0.31831 1.2727,-1.07914 1.2727,-1.96708c0,-1.05205 -0.73812,-1.92566 -1.70756,-2.09623c-0.09614,-0.08893 -0.19608,-0.16496 -0.29363,-0.22949c-0.25733,-0.18533 -0.55754,-0.31129 -0.88215,-0.35872l-2.8297,-0.57686c-0.95369,0.54161 -1.90737,1.08321 -2.86105,1.62482c-0.35583,-0.30595 -0.81305,-0.48991 -1.31178,-0.48991c-0.82251,0 -1.53212,0.50036 -1.86023,1.22306c-0.45295,-2.85045 -0.87466,-4.71026 -0.87466,-4.71026z" fill="#ffffff" stroke="#000000" stroke-width="1.3"/><path d="M313.35316,156.43841c-0.32691,-0.03669 -0.659,-0.05551 -0.99532,-0.05551c-0.47278,0 -0.93718,0.0372 -1.39059,0.10892c-0.06982,-1.5115 -0.14825,-2.80435 -0.24054,-3.82042c-0.12601,-1.38735 -0.28108,-2.71314 -0.44538,-3.93325c0.37565,0.42565 0.91626,0.69267 1.51712,0.69267c0.03589,0 0.07156,-0.00095 0.10701,-0.00284c-0.04694,0.24971 -0.07153,0.50769 -0.07153,0.77162c0,1.43779 0.72985,2.69913 1.82698,3.40873c-0.00064,0.02175 -0.00095,0.04357 -0.00095,0.06548c0,0.42714 0.12167,0.82487 0.3311,1.15807c-0.20943,0.3332 -0.3311,0.73093 -0.3311,1.15807c0,0.10949 0.008,0.21705 0.02341,0.32208c-0.11193,0.03996 -0.22199,0.08211 -0.33019,0.12639z" fill="#ffffff" stroke="#000000" stroke-width="1.3"/><g stroke="none" stroke-width="0"><path d="M309.11783,147.13216v-9.93728c0,0 4.93229,-0.86411 7.16383,-0.86411c1.9572,0 6.61275,0.86411 6.61275,0.86411v9.93728c0,0 -0.49898,-0.09072 -1.24381,-0.21338c-0.15471,-0.87409 -0.82576,-1.56135 -1.67385,-1.71057c-0.09614,-0.08893 -0.19608,-0.16496 -0.29363,-0.22949c-0.25733,-0.18533 -0.55754,-0.31129 -0.88215,-0.35872l-2.8297,-0.57686c-0.95369,0.54161 -1.90737,1.08321 -2.86105,1.62482c-0.35583,-0.30595 -0.81305,-0.48991 -1.31178,-0.48991c-1.04159,0 -1.90212,0.80239 -2.03616,1.84259c-0.40136,0.06779 -0.64445,0.11152 -0.64445,0.11152z" fill="#000000"/><g><path d="M255.61719,157.99939l16.13504,-45.04115l42.12139,16.16693l-16.13504,45.04114z" fill="#000000"/><path d="M274.0111,175.09061l-19.35975,-43.65857l40.82842,-19.398l14.94077,33.69323c-0.41542,0.38909 -0.6764,0.95158 -0.6764,1.57716c0,1.17437 0.91974,2.12639 2.05428,2.12639c0.03589,0 0.07157,-0.00095 0.10701,-0.00284c-0.04694,0.24971 -0.07154,0.50769 -0.07154,0.77162c0,1.43779 0.72985,2.69913 1.82698,3.40873c-0.00064,0.02175 -0.00095,0.04357 -0.00095,0.06548c0,0.42714 0.12167,0.82487 0.3311,1.15807c-0.20943,0.3332 -0.3311,0.73093 -0.3311,1.15807c0,0.08666 0.005,0.17211 0.01475,0.25606l-0.38947,0.18504c-0.30494,-0.03184 -0.61433,-0.04815 -0.92738,-0.04815c-3.10188,0 -5.84247,1.60114 -7.49248,4.04851z" fill="#000000"/><path d="M260.91323,155.37447l13.2014,-36.85186l34.46295,13.22749l-13.20139,36.85186z" fill="#c5c556"/><path d="M275.9628,169.35809l-15.83979,-35.72065l33.40505,-15.87109l15.83978,35.72065z" fill="#c5c556"/></g><g data-paper-data="{&quot;index&quot;:null}"><path d="M333.75466,174.16632l-16.13504,-45.04114l42.12139,-16.16693l16.13503,45.04115z" fill="#000000"/><path d="M321.68431,147.30444c0,-0.60248 -0.24207,-1.14645 -0.63103,-1.53336l14.9602,-33.73705l40.82842,19.398l-19.35975,43.65857l-33.32576,-15.83342c-1.20407,-1.90068 -3.15546,-3.21554 -6.39341,-3.4242c-0.02591,-0.3675 -0.14204,-0.70907 -0.32559,-1.00109c0.20943,-0.3332 0.3311,-0.73093 0.3311,-1.15807c0,-0.02191 -0.00032,-0.04373 -0.00095,-0.06548c1.07922,-0.698 1.80305,-1.92988 1.8264,-3.33842c0.36431,-0.23433 0.65257,-0.58339 0.81764,-0.99839c0.74691,-0.31831 1.27271,-1.07914 1.27271,-1.96708z" fill="#000000"/><path d="M336.117,168.60191l-13.20138,-36.85186l34.46295,-13.22749l13.2014,36.85186z" fill="#c5c556"/><path d="M322.12544,153.48703l15.83979,-35.72065l33.40505,15.87109l-15.83979,35.72065z" fill="#c5c556"/></g><path d="M288.71535,124.10298l4.04075,-4.43818l4.69152,9.32239l9.6005,2.68305l-3.1126,5.07868l-9.21765,-4.56954z" fill="#ffff85"/><path d="M351.79387,123.88606l4.55505,-3.86794l3.50338,9.86607l9.19106,3.92971l-3.71348,4.62584l-8.57864,-5.75018z" fill="#ffff85"/></g></g><path d="M292.76766,187.08122c-6.17832,-1.18222 -4.81879,-9.43076 -4.81879,-9.43076c0,0 12.60414,-0.35925 17.48052,0.39219c4.92439,0.75883 14.60333,3.86138 14.60333,3.86138c0,0 -16.66921,7.20469 -27.26507,5.1772z" fill="#ffffff" stroke="#000000" stroke-width="2" stroke-linecap="round"/></g></g></svg>