<svg version="1.1" xmlns="http://www.w3.org/2000/svg" xmlns:xlink="http://www.w3.org/1999/xlink" width="190.66666" height="318.78953" viewBox="0,0,190.66666,318.78953"><defs><linearGradient x1="313.64241" y1="-7.95061" x2="317.24976" y2="27.37754" gradientUnits="userSpaceOnUse" id="color-1"><stop offset="0" stop-color="#c4c456"/><stop offset="1" stop-color="#e3e364"/></linearGradient></defs><g transform="translate(-225.24106,12.27515)"><g data-paper-data="{&quot;isPaintingLayer&quot;:true}" fill-rule="nonzero" stroke-linejoin="miter" stroke-miterlimit="10" stroke-dasharray="" stroke-dashoffset="0" style="mix-blend-mode: normal"><path d="M286.4263,305.51436l15.14285,-131.8421l37.78325,-0.15789l13.57389,132z" fill="#c6c657" stroke="#000000" stroke-width="2" stroke-linecap="butt"/><path d="M299.0384,202.12699l3.12142,-26.32765l35.83075,-0.14203l2.76735,26.1059c0,0 -7.51543,4.19603 -21.55904,4.50964c-12.48458,0.27879 -20.16049,-4.14586 -20.16049,-4.14586z" fill="#9e9e45" stroke="#000000" stroke-width="0" stroke-linecap="butt"/><path d="M254.5162,134.86052c0,-33.30185 28.7599,-60.29833 64.23702,-60.29833c35.47712,0 64.23702,26.99649 64.23702,60.29833c0,33.30185 -28.7599,60.29833 -64.23702,60.29833c-35.47712,0 -64.23702,-26.99649 -64.23702,-60.29833z" fill="#c6c657" stroke="#000000" stroke-width="2" stroke-linecap="butt"/><path d="M255.23926,134.91436c0,-0.72799 5.20666,55.91939 63.36046,56.93429c55.56352,0.9697 63.51358,-57.95314 63.51358,-56.93429c0,32.80479 -28.40173,59.39833 -63.43702,59.39833c-35.03529,0 -63.43702,-26.59354 -63.43702,-59.39833z" fill="#9e9e45" stroke="#000000" stroke-width="0" stroke-linecap="butt"/><path d="M268.06643,135.28999c0,-12.968 10.51265,-23.48065 23.48065,-23.48065c12.968,0 23.48065,10.51265 23.48065,23.48065c0,12.968 -10.51265,23.48065 -23.48065,23.48065c-12.968,0 -23.48065,-10.51265 -23.48065,-23.48065z" fill="#ffffff" stroke="#000000" stroke-width="2" stroke-linecap="butt"/><path d="M274.46992,137.37128c0,-9.12808 7.39976,-16.52784 16.52783,-16.52784c9.12808,0 16.52784,7.39977 16.52784,16.52784c0,9.12808 -7.39977,16.52784 -16.52784,16.52784c-9.12808,0 -16.52783,-7.39977 -16.52783,-16.52784z" fill="#000000" stroke="none" stroke-width="0" stroke-linecap="butt"/><path d="M306.18329,174.67079h25.10959" fill="none" stroke="#000000" stroke-width="2" stroke-linecap="round"/><path d="M345.8055,158.77063c-12.968,0 -23.48065,-10.51265 -23.48065,-23.48065c0,-12.968 10.51265,-23.48065 23.48065,-23.48065c12.968,0 23.48065,10.51265 23.48065,23.48065c0,12.968 -10.51265,23.48065 -23.48065,23.48065z" data-paper-data="{&quot;index&quot;:null}" fill="#ffffff" stroke="#000000" stroke-width="2" stroke-linecap="butt"/><path d="M345.69294,153.89912c-9.12807,0 -16.52783,-7.39977 -16.52783,-16.52784c0,-9.12808 7.39977,-16.52784 16.52783,-16.52784c9.12807,0 16.52783,7.39977 16.52783,16.52784c0,9.12808 -7.39977,16.52784 -16.52783,16.52784z" data-paper-data="{&quot;index&quot;:null}" fill="#000000" stroke="none" stroke-width="0" stroke-linecap="butt"/><path d="M280.70412,103.48152c0,0 6.70895,-5.16922 11.79721,-6.36355c5.08827,-1.19433 12.33413,0.69937 12.33413,0.69937c0,0 -8.03812,-0.06028 -11.96762,0.86207c-4.10648,0.96389 -12.16372,4.80211 -12.16372,4.80211z" fill="#000000" stroke="none" stroke-width="0" stroke-linecap="butt"/><path d="M344.6386,98.67942c-3.9295,-0.92235 -11.96762,-0.86207 -11.96762,-0.86207c0,0 7.24586,-1.8937 12.33413,-0.69937c5.08826,1.19433 11.79721,6.36355 11.79721,6.36355c0,0 -8.05724,-3.83822 -12.16372,-4.80211z" data-paper-data="{&quot;index&quot;:null}" fill="#000000" stroke="none" stroke-width="0" stroke-linecap="butt"/><path d="M267.98307,135.38242c0,-12.96801 10.51265,-23.48065 23.48066,-23.48065c12.96801,0 23.48065,10.51264 23.48065,23.48065c0,0 -6.95852,-14.64634 -23.43307,-14.78879c-16.22494,-0.14029 -23.52823,15.4054 -23.52823,14.78879z" fill="#c6c657" stroke="#000000" stroke-width="2" stroke-linecap="butt"/><path d="M322.32486,135.28242c0,-12.96801 10.51264,-23.48065 23.48065,-23.48065c12.96801,0 23.48066,10.51264 23.48066,23.48065c0,0.60606 -7.87275,-14.38438 -22.92496,-14.781c-15.05221,-0.39662 -24.03635,14.781 -24.03635,14.781z" data-paper-data="{&quot;index&quot;:null}" fill="#c6c657" stroke="#000000" stroke-width="2" stroke-linecap="butt"/><path d="M256.55929,118.81541c7.94486,-24.83505 32.48735,-42.92946 61.53205,-42.92946c29.4708,0 54.30633,18.62922 61.87097,44.02681c0.54933,1.84433 1.98343,22.07236 -63.62097,21.81985c-61.22902,-0.23567 -59.78205,-22.9172 -59.78205,-22.9172z" fill-opacity="0.20156" fill="#000000" stroke="#000000" stroke-width="0" stroke-linecap="butt"/><path d="M414.90772,90.8257c0,10.30931 -42.23447,18.66666 -94.33333,18.66666c-52.09886,0 -94.33333,-8.35735 -94.33333,-18.66666c0,-10.30931 42.23447,-23.66666 94.33333,-23.66666c52.09886,0 94.33333,13.35735 94.33333,23.66666z" fill="#c6c657" stroke="#000000" stroke-width="2" stroke-linecap="butt"/><path d="M321.61434,68.5288c7.21196,0 13.94953,0.37837 19.67189,1.03435c0.67244,0.07708 -16.05768,10.30149 -16.05768,10.30149l-6.0776,0.14849z" data-paper-data="{&quot;index&quot;:null}" fill="#ffffff" stroke="#000000" stroke-width="0" stroke-linecap="butt"/><path d="M320.07438,107.79772c-17.46017,0 -33.77183,-0.91602 -47.62564,-2.50415c-1.62799,-0.18663 38.87564,-24.9399 38.87564,-24.9399l14.71387,-0.35948z" fill="#ffffff" stroke="#000000" stroke-width="0" stroke-linecap="butt"/><path d="M312.05124,79.38936l2.86068,-40.04754c0,0 0.77342,-6.79148 -3.20744,-5.3051c-3.19631,1.19344 -10.92266,5.51814 -10.92266,5.51814c0,0 3.95548,-7.29662 8.98012,-9.95423c4.02875,-2.13086 9.17263,2.57207 9.17263,2.57207c0,0 4.73043,-4.16255 7.78452,-2.26642c4.01386,2.492 7.31197,9.83713 7.31197,9.83713c0,0 -5.97898,-3.40735 -8.62109,-4.74643c-2.91466,-1.4772 -3.20818,4.13691 -3.20818,4.13691l3.09945,40.25547c0,0 -2.43253,1.5 -6.67593,1.33334c-3.66806,-0.14407 -6.57407,-1.33334 -6.57407,-1.33334z" fill="#c6c657" stroke="#000000" stroke-width="2" stroke-linecap="butt"/><path d="M311.04481,28.01113l2.69768,-35.97196l9.71221,34.70479c0,0 -2.64373,0.26995 -4.30343,0.43942c-2.27791,0.2326 -8.10646,0.82775 -8.10646,0.82775z" fill="url(#color-1)" stroke="#89893c" stroke-width="1.5" stroke-linecap="butt"/><g stroke="#89893c" stroke-width="1.4"><path d="M301.20457,32.65635l-0.66424,-6.50519l32.12561,-3.28033l0.66424,6.50519z" fill="#c4c456" stroke-linecap="butt"/><g><path d="M297.5916,43.25315c0,0 -2.08273,-3.07749 -2.0647,-5.3654c0.03021,-3.83299 0.90849,-5.95791 0.90849,-5.95791l42.93422,-4.384c0,0 1.9143,2.45873 2.08369,5.55126c0.18687,3.41189 -0.92747,5.77205 -0.92747,5.77205z" fill="#c4c456" stroke-linecap="butt"/><path d="M303.68679,42.11071c0,0 -1.35802,-3.39623 -1.54241,-5.20204c-0.17248,-1.68919 0.4694,-5.30634 0.4694,-5.30634" fill="none" stroke-linecap="round"/><path d="M333.97963,28.80409c0,0 1.14821,3.70403 1.30647,5.42779c0.13995,1.52434 -0.40508,4.39024 -0.40508,4.39024" fill="none" stroke-linecap="round"/><path d="M314.35445,40.61695c0,0 -1.0958,-2.52924 -1.26335,-4.01659c-0.19,-1.68666 0.18223,-5.58085 0.18223,-5.58085" fill="none" stroke-linecap="round"/><path d="M323.89201,30.03637c0,0 1.16527,3.48916 1.33204,5.1224c0.15996,1.56654 -0.35101,4.48527 -0.35101,4.48527" fill="none" stroke-linecap="round"/></g></g><path d="M292.96645,258.74685l1.99382,-15.51624l50.12658,0l2.27865,16.0859z" fill="#d3d35d" stroke="none" stroke-width="0" stroke-linecap="butt"/><text transform="translate(296.57704,254.07913) scale(0.28152,0.28152)" font-size="40" xml:space="preserve" fill="#85853a" fill-rule="nonzero" stroke="none" stroke-width="1" stroke-linecap="butt" stroke-linejoin="miter" stroke-miterlimit="10" stroke-dasharray="" stroke-dashoffset="0" font-family="Sans Serif" font-weight="normal" text-anchor="start" style="mix-blend-mode: normal"><tspan x="0" dy="0">Mustard</tspan></text></g></g></svg>