<svg version="1.1" xmlns="http://www.w3.org/2000/svg" xmlns:xlink="http://www.w3.org/1999/xlink" width="164.48424" height="299.42608" viewBox="0,0,164.48424,299.42608"><defs><linearGradient x1="273.8959" y1="62.1925" x2="290.12576" y2="108.8919" gradientUnits="userSpaceOnUse" id="color-1"><stop offset="0" stop-color="#ecec68"/><stop offset="1" stop-color="#292912"/></linearGradient></defs><g transform="translate(-242.85496,-30.43209)"><g data-paper-data="{&quot;isPaintingLayer&quot;:true}" fill-rule="nonzero" stroke-linejoin="miter" stroke-miterlimit="10" stroke-dasharray="" stroke-dashoffset="0" style="mix-blend-mode: normal"><path d="M359.53587,245.10147c-12.92362,-1.17582 -10.08785,-122.40709 -10.08785,-122.40709l12.66875,-1.78111c0,0 9.95843,125.32906 -2.58089,124.1882z" data-paper-data="{&quot;index&quot;:null}" fill="#60602a" stroke="#000000" stroke-width="2" stroke-linecap="butt"/><path d="M368.84305,233.74663c-12.92362,-1.17582 -9.05864,-109.74275 -9.05864,-109.74275l12.66875,-1.78111c0,0 8.92922,112.66472 -3.6101,111.52388z" data-paper-data="{&quot;index&quot;:null}" fill="#60602a" stroke="#000000" stroke-width="2" stroke-linecap="butt"/><path d="M295.29486,101.40064l12.67683,1.72266c0,0 3.43634,139.21685 -9.48173,140.45227c-12.53393,1.19868 -3.1951,-142.17492 -3.1951,-142.17492z" fill="#60602a" stroke="#000000" stroke-width="2" stroke-linecap="butt"/><path d="M289.81368,234.36646c-12.87036,-1.66021 -4.76992,-105.68844 -4.76992,-105.68844l12.72668,-1.3042c0,0 4.53089,108.60348 -7.95677,106.99265z" data-paper-data="{&quot;index&quot;:null}" fill="#60602a" stroke="#000000" stroke-width="2" stroke-linecap="butt"/><path d="M289.5041,328.85816l13.64285,-120.3421l40.28325,-0.15789l12.57389,120.5z" fill="#bebe54" stroke="#000000" stroke-width="2" stroke-linecap="butt"/><path d="M274.10174,223.65239c-11.86169,-1.98932 0.57948,-97.77125 0.57948,-97.77125l12.76695,-0.82134c0,0 -0.92872,100.67516 -13.34642,98.59259z" data-paper-data="{&quot;index&quot;:null}" fill="#60602a" stroke="#000000" stroke-width="2" stroke-linecap="butt"/><path d="M382.47016,220.77396c-12.97292,-0.32593 -19.17449,-79.10759 -19.17449,-79.10759l12.52472,-2.60793c0,0 19.23692,82.03175 6.64978,81.71551z" data-paper-data="{&quot;index&quot;:null}" fill="#60602a" stroke="#000000" stroke-width="2" stroke-linecap="butt"/><path d="M302.45432,225.47079l3.12142,-26.32765l35.83075,-0.14203l2.76735,26.1059c0,0 -7.51543,4.19603 -21.55904,4.50964c-12.48458,0.27879 -20.16049,-4.14586 -20.16049,-4.14586z" fill="#a0a047" stroke="#000000" stroke-width="0" stroke-linecap="butt"/><path d="M386.36127,198.30417c-6.96652,-1.9689 2.84582,-14.60572 -0.97135,-27.03627c-3.27443,-10.66315 3.13576,-15.32972 6.41074,-4.66675c3.06025,9.96379 2.42551,33.92583 -5.4394,31.70304z" data-paper-data="{&quot;index&quot;:null}" fill="#60602a" stroke="#000000" stroke-width="2" stroke-linecap="butt"/><path d="M263.65172,158.31038c-0.0768,-33.30176 28.62079,-60.36448 64.09781,-60.44629c35.47702,-0.08181 64.2991,26.8483 64.37588,60.15005c0.0768,33.30176 -28.62078,60.36449 -64.0978,60.4463c-35.47702,0.08181 -64.2991,-26.8483 -64.37589,-60.15006z" fill="#bebe54" stroke="#000000" stroke-width="2" stroke-linecap="butt"/><path d="M277.20291,158.7086c-0.0299,-12.96797 10.45849,-23.50482 23.42645,-23.53472c12.96797,-0.0299 23.50483,10.45848 23.53473,23.42645c0.0299,12.96797 -10.45848,23.50482 -23.42645,23.53473c-12.96797,0.0299 -23.50483,-10.45848 -23.53474,-23.42645z" fill="#ffffff" stroke="#000000" stroke-width="2" stroke-linecap="butt"/><path d="M283.86995,160.87096c-0.02104,-9.12806 7.36164,-16.54486 16.48969,-16.5659c9.12806,-0.02104 16.54486,7.36164 16.5659,16.4897c0.02104,9.12806 -7.36164,16.54486 -16.48969,16.5659c-9.12806,0.02104 -16.54486,-7.36164 -16.5659,-16.48969z" fill="#000000" stroke="none" stroke-width="0" stroke-linecap="butt"/><path d="M355.24591,182.00935c-12.96797,0.0299 -23.50483,-10.45848 -23.53473,-23.42644c-0.0299,-12.96797 10.45848,-23.50483 23.42645,-23.53473c12.96797,-0.0299 23.50483,10.45849 23.53473,23.42645c0.0299,12.96797 -10.45848,23.50482 -23.42645,23.53473z" data-paper-data="{&quot;index&quot;:null}" fill="#ffffff" stroke="#000000" stroke-width="2" stroke-linecap="butt"/><path d="M355.08399,177.94465c-9.12804,0.02104 -16.54485,-7.36164 -16.56589,-16.48969c-0.02104,-9.12806 7.36164,-16.54486 16.48968,-16.5659c9.12804,-0.02104 16.54486,7.36163 16.5659,16.48969c0.02104,9.12806 -7.36164,16.54487 -16.48969,16.56591z" data-paper-data="{&quot;index&quot;:null}" fill="#000000" stroke="none" stroke-width="0" stroke-linecap="butt"/><path d="M277.11957,158.7088c-0.0299,-12.96797 10.45848,-23.50483 23.42645,-23.53473c12.96797,-0.0299 23.50483,10.45849 23.53474,23.42645c0,0 -46.95834,1.33983 -46.96119,0.10829z" fill="#ecec68" stroke="#000000" stroke-width="2" stroke-linecap="butt"/><path d="M331.4612,158.5835c-0.0299,-12.96797 10.45848,-23.50483 23.42645,-23.53473c12.96797,-0.0299 23.50483,10.45849 23.53473,23.42645c0.0028,1.2138 -46.96119,0.10829 -46.96119,0.10829z" data-paper-data="{&quot;index&quot;:null}" fill="#ecec68" stroke="#000000" stroke-width="2" stroke-linecap="butt"/><path d="M289.77412,129.87108c0,0 6.69701,-5.18468 11.7825,-6.39074c5.0855,-1.20605 12.33571,0.67092 12.33571,0.67092c0,0 -8.03824,-0.04175 -11.9656,0.88966c-4.10425,0.97337 -12.15261,4.83015 -12.15261,4.83015z" fill="#000000" stroke="none" stroke-width="0" stroke-linecap="butt"/><path d="M264.37491,158.36253c-0.00167,-0.72799 5.3356,55.90723 63.49158,56.78804c55.56561,0.84158 63.37978,-58.09943 63.38213,-57.08059c0.07564,32.80471 -28.26469,59.46366 -63.29988,59.54445c-35.03519,0.0808 -63.49818,-26.44718 -63.57382,-59.25189z" fill="#a0a047" stroke="#000000" stroke-width="0" stroke-linecap="butt"/><path d="M353.69737,124.92157c-3.93161,-0.91328 -11.96959,-0.83447 -11.96959,-0.83447c0,0 7.24148,-1.91039 12.33248,-0.72781c5.09101,1.18259 11.81185,6.33632 11.81185,6.33632c0,0 -8.06608,-3.81962 -12.17476,-4.77405z" data-paper-data="{&quot;index&quot;:null}" fill="#000000" stroke="none" stroke-width="0" stroke-linecap="butt"/><path d="M260.28154,158.18362c8.89718,-6.7279 11.36251,0.80799 2.46569,7.53637c-10.3715,7.8436 -9.81354,23.83297 -16.61423,21.35112c-7.67769,-2.80189 5.83477,-22.60076 14.14855,-28.88749z" data-paper-data="{&quot;index&quot;:null}" fill="#60602a" stroke="#000000" stroke-width="2" stroke-linecap="butt"/><path d="M273.54497,155.81708l3.60599,2.5917" fill="none" stroke="#000000" stroke-width="2" stroke-linecap="round"/><path d="M272.40219,109.52761c17.22342,-17.0403 45.10898,-25.99478 50.34841,-16.72841c4.14081,7.32338 -20.66248,2.9931 -43.54938,28.17548c-19.49022,21.44503 -16.29198,52.43711 -29.32029,49.0503c-12.86585,-3.34457 10.89928,-48.99897 22.52126,-60.49737z" fill="#b1b14e" stroke="#000000" stroke-width="2" stroke-linecap="butt"/><path d="M274.07183,118.15221c15.0361,-18.99826 41.63397,-31.2596 47.95565,-22.6949c4.99612,6.76883 -20.14882,5.47012 -39.82207,33.23566c-16.75353,23.64481 -9.83048,54.02258 -23.17276,52.23632c-13.1759,-1.76399 4.89318,-49.95747 15.0392,-62.77708z" fill="#ecec68" stroke="#000000" stroke-width="2" stroke-linecap="butt"/><path d="M341.72821,92.79278c-0.16899,2.92023 -7.19715,4.7327 -15.69784,4.04824c-8.50068,-0.68447 -15.25487,-3.60665 -15.08589,-6.52688c0.16899,-2.92023 7.19715,-4.7327 15.69784,-4.04824c8.50068,0.68447 15.25487,3.60665 15.08589,6.52688z" fill="#ecec68" stroke="#000000" stroke-width="2" stroke-linecap="butt"/><path d="M402.52062,174.06192c-13.07896,3.18559 -9.40342,-27.75352 -28.56079,-49.4964c-22.49602,-25.53214 -47.36312,-21.58468 -43.10992,-28.84337c5.38163,-9.18452 33.12586,0.19869 50.08461,17.50244c11.44337,11.67618 34.50199,57.69143 21.58611,60.83732z" data-paper-data="{&quot;index&quot;:null}" fill="#60602a" stroke="#000000" stroke-width="2" stroke-linecap="butt"/><path d="M382.14236,154.56669l-4.19215,3.40966" fill="none" stroke="#000000" stroke-width="2" stroke-linecap="round"/><path d="M312.27236,196.61268c0,0 6.59022,-2.35972 15.98212,-2.03984c9.3919,0.31988 16.12133,2.71616 16.12133,2.71616" data-paper-data="{&quot;index&quot;:null}" fill="none" stroke="#000000" stroke-width="2" stroke-linecap="round"/><path d="M397.97226,184.11316c-13.38151,1.46374 -5.72734,-28.73813 -21.90533,-52.78038c-18.99742,-28.23225 -44.16638,-27.54077 -39.00836,-34.18704c6.52654,-8.40962 32.82076,4.49004 47.39395,23.84566c9.83366,13.06073 26.73437,61.67628 13.51973,63.12177z" data-paper-data="{&quot;index&quot;:null}" fill="#b1b14e" stroke="#000000" stroke-width="2" stroke-linecap="butt"/><path d="M277.78508,147.0984c6.8835,-8.77735 11.19196,-2.12117 4.30893,6.65654c-8.02392,10.23262 -3.40024,25.54906 -10.60928,24.8867c-8.13869,-0.7478 -0.1318,-23.34141 6.30035,-31.54322z" data-paper-data="{&quot;index&quot;:null}" fill="#b1b14e" stroke="#000000" stroke-width="2" stroke-linecap="butt"/><path d="M268.26063,145.53192c10.6847,-14.47281 20.41678,-26.17605 25.87478,-34.16805c6.83979,-10.01528 14.13795,-24.92433 21.22748,-21.71264c7.40338,3.35386 -0.34076,20.64307 -7.40558,30.98787c-5.43502,7.95833 -21.29339,21.7529 -31.92859,36.16021c-13.32883,18.05632 -4.58273,44.24789 -17.05299,43.46728c-14.07839,-0.88128 -1.39981,-40.26185 9.2849,-54.73465z" fill="#ecec68" stroke="#000000" stroke-width="2" stroke-linecap="butt"/><g stroke="#000000" stroke-width="2" stroke-linecap="butt"><path d="M268.83438,167.64054c-0.005,-2.17217 1.3984,-2.76006 3.13127,-2.76405c1.73287,-0.00398 3.13897,0.57741 3.14397,2.74959c0.005,2.17217 -1.39298,5.11255 -3.12584,5.11655c-1.73287,0.00398 -3.1444,-2.9299 -3.1494,-5.10208z" fill="#ecec68"/><path d="M275.14399,182.52901c0.005,2.17217 -1.39841,2.76006 -3.13127,2.76405c-1.73287,0.00398 -3.13897,-0.57741 -3.14397,-2.74959c-0.005,-2.17217 1.39297,-5.11255 3.12584,-5.11655c1.73287,-0.00398 3.14439,2.9299 3.1494,5.10208z" fill="#ecec68"/><path d="M264.54494,178.23957c-2.17217,0.005 -2.76005,-1.3984 -2.76405,-3.13127c-0.00399,-1.73287 0.5774,-3.13897 2.74958,-3.14397c2.17217,-0.005 5.11256,1.39297 5.11655,3.12584c0.00399,1.73287 -2.9299,3.14439 -5.10208,3.1494z" fill="#ecec68"/><path d="M279.43344,171.92997c2.17217,-0.005 2.76006,1.39839 2.76405,3.13126c0.00399,1.73287 -0.57741,3.13898 -2.74959,3.14398c-2.17217,0.005 -5.11255,-1.39298 -5.11655,-3.12585c-0.00399,-1.73287 2.9299,-3.14439 5.10208,-3.1494z" fill="#ff80ee"/><path d="M264.49453,172.05168c-1.53951,-1.53242 -0.96284,-2.94048 0.25966,-4.16863c1.22249,-1.22814 2.62789,-1.8113 4.16738,-0.27887c1.53951,1.53242 2.63015,4.60011 1.40764,5.82824c-1.22249,1.22814 -4.29518,0.15167 -5.83468,-1.38074z" fill="#ecec68"/><path d="M279.48385,178.11787c1.53951,1.53242 0.96284,2.94048 -0.25965,4.16863c-1.22249,1.22814 -2.62789,1.8113 -4.16738,0.27887c-1.53951,-1.53242 -2.63015,-4.60012 -1.40764,-5.82825c1.22249,-1.22814 4.29518,-0.15167 5.83468,1.38074z" fill="#ff80ee"/><path d="M268.95608,182.57943c-1.53242,1.53951 -2.94047,0.96284 -4.16862,-0.25965c-1.22814,-1.22249 -1.8113,-2.62788 -0.27888,-4.16737c1.53242,-1.53951 4.60011,-2.63015 5.82824,-1.40764c1.22814,1.22249 0.15167,4.29518 -1.38074,5.83468z" fill="#ecec68"/><path d="M275.02229,167.59012c1.53242,-1.53951 2.94048,-0.96284 4.16862,0.25965c1.22814,1.22249 1.8113,2.62788 0.27888,4.16737c-1.53242,1.53951 -4.60011,2.63015 -5.82824,1.40764c-1.22814,-1.22249 -0.15167,-4.29518 1.38074,-5.83468z" fill="#ecec68"/><path d="M267.83496,175.00596c-0.00528,-2.29421 1.85023,-4.15832 4.14446,-4.16362c2.29421,-0.00528 4.15832,1.85024 4.16361,4.14446c0.00528,2.29421 -1.85024,4.15832 -4.14446,4.16361c-2.29421,0.00528 -4.15832,-1.85022 -4.16361,-4.14445z" fill="#b1b14e"/></g><path d="M346.87459,108.67031c0,0 21.3916,-11.21564 21.97501,-21.36366c0.33342,-5.79988 -8.34193,-15.36965 -8.91547,-25.61464c-0.75594,-13.50297 12.9898,-23.77454 12.9898,-23.77454c0,0 -3.32929,10.29532 -2.92654,22.82935c0.32096,9.98864 8.18114,13.57299 10.34557,26.65289c2.11977,12.80991 -11.09815,33.23743 -11.09815,33.23743c0,0 -3.99247,3.9658 -14.1519,-1.50236c-9.23875,-4.97261 -8.21832,-10.46446 -8.21832,-10.46446z" fill="#60602a" stroke="#000000" stroke-width="2" stroke-linecap="butt"/><path d="M280.51765,157.12992c7.1509,-16.50725 19.66715,-30.74125 23.18513,-39.75712c4.40859,-11.29835 8.16171,-27.46799 15.79241,-25.9354c7.9685,1.60044 4.3169,20.18952 -0.23676,31.85962c-3.50315,8.97788 -18.78078,22.22459 -25.89819,38.65689c-8.92007,20.59419 -0.16999,44.78297 -14.1305,42.76264c-10.97266,-1.58793 -5.86297,-31.07937 1.28792,-47.58662z" fill="#b1b14e" stroke="#000000" stroke-width="2" stroke-linecap="butt"/><path d="M332.11767,137.034c-7.07308,-1.5429 1.95508,-14.75138 -2.60871,-26.92765c-3.91489,-10.445 2.20059,-15.49165 6.11604,-5.04684c3.6587,9.75992 4.47787,33.71636 -3.50732,31.9745z" data-paper-data="{&quot;index&quot;:null}" fill="#b1b14e" stroke="#000000" stroke-width="2" stroke-linecap="butt"/><path d="M394.551,155.76044c-12.46872,6.58518 -9.53408,-12.87502 -22.16048,-23.30626c-10.07474,-8.3232 -27.0109,-11.45631 -32.15913,-16.14825c-6.69204,-6.09893 -16.42694,-18.55858 -9.40517,-22.61648c6.72412,-3.88588 16.0377,6.91735 22.51656,12.82201c5.17001,4.71179 19.76498,9.54053 29.88663,17.90133c10.12164,8.36079 21.12174,26.17188 11.32159,31.34769z" data-paper-data="{&quot;index&quot;:null}" fill="#ecec68" stroke="#000000" stroke-width="2" stroke-linecap="butt"/><path d="M295.6863,140.79632c5.55503,-11.89504 16.6662,-22.51917 19.31431,-28.99354c3.31853,-8.11345 5.52324,-19.57719 13.26427,-18.95244c8.08371,0.65241 6.20917,13.79312 2.78146,22.17352c-2.63697,6.4471 -16.59041,16.54418 -22.1192,28.38516c-6.92909,14.83999 4.07176,31.15846 -10.01639,30.56046c-11.07299,-0.47001 -8.77947,-21.27812 -3.22445,-33.17316z" fill="#ecec68" stroke="#000000" stroke-width="2" stroke-linecap="butt"/><g data-paper-data="{&quot;index&quot;:null}" stroke="#1d1d0d" stroke-width="1.5" stroke-linecap="butt"><path d="M258.72017,68.36128l-6.2128,-18.03994l31.20871,-10.6977l6.21281,18.03995z" fill="#d0d05b"/><path d="M286.23727,110.54018l-10.62173,-29.90218l-14.89719,-13.86581l26.60078,-8.69359l-4.36964,20.16376l10.80736,30.71265z" fill="url(#color-1)"/><path d="M245.7378,54.72367l19.17472,-23.46802l29.92802,5.95748z" fill="#bfbf54"/><path d="M286.30018,59.07814l-23.91535,7.92839c0,0 2.39607,-10.5563 9.00013,-12.74567c6.60405,-2.18939 14.91522,4.81729 14.91522,4.81729z" fill="#ffff70"/></g><path d="M250.13982,150.30775c-0.60816,-36.35582 33.10683,-66.32253 75.30454,-66.93252c42.1977,-0.60999 76.89871,28.36776 77.50688,64.72357c0.0351,2.09853 -0.04416,4.17577 -0.23281,6.22731c-6.16039,-0.23803 -12.33542,-0.60857 -18.40953,-0.57793c-42.64496,0.2151 -85.29112,0.34242 -127.9364,0.22594c-1.05214,-0.00287 -2.06074,-0.77831 -3.09141,-0.58385c-0.50253,0.09482 -1.5981,0.69172 -2.88383,1.48198c-0.14527,-1.50723 -0.23173,-3.02929 -0.25742,-4.5645z" fill="#bebe54" stroke="#000000" stroke-width="2" stroke-linecap="butt"/><path d="M250.74733,132.13575l7.96078,-17.01841l136.50193,0.68525l7.03688,15.98382z" fill="#b9b952" stroke="#000000" stroke-width="2" stroke-linecap="butt"/><path d="M305.95678,147.00848l-0.1003,-43.49988l41.32489,-0.0953l0.1003,43.49989z" fill="#d7d75f" stroke="#000000" stroke-width="2" stroke-linecap="butt"/></g></g></svg>