<svg version="1.1" xmlns="http://www.w3.org/2000/svg" xmlns:xlink="http://www.w3.org/1999/xlink" width="154.85031" height="304.38599" viewBox="0,0,154.85031,304.38599"><g transform="translate(-265.65344,-4.11401)"><g data-paper-data="{&quot;isPaintingLayer&quot;:true}" fill-rule="nonzero" stroke-linejoin="miter" stroke-miterlimit="10" stroke-dasharray="" stroke-dashoffset="0" style="mix-blend-mode: normal"><path d="M285.90287,307.49999l11.23626,-90.17722l43.64314,-3.40793l11.62059,93.58516z" fill="#9b9d30" stroke="#000000" stroke-width="2" stroke-linecap="butt"/><path d="M289.57669,250.088l10.15487,-49.81105l40.04359,3.03031l10.10835,47.33816l-30.23979,-11.89646z" fill="#747524" stroke="#000000" stroke-width="2" stroke-linecap="butt"/><path d="M411.94277,180.47114c-18.2825,40.6773 -63.93494,59.79544 -101.96758,42.70159c-38.03264,-17.09385 -54.04329,-63.92663 -35.76079,-104.60392c18.2825,-40.67728 63.93494,-59.79543 101.96758,-42.70158c38.03264,17.09385 54.04329,63.92663 35.76079,104.60391z" fill="#747524" stroke="#000000" stroke-width="2" stroke-linecap="butt"/><path d="M402.23876,181.74946c-15.60333,34.71632 -56.02935,50.37502 -90.29406,34.97467c-34.26469,-15.40034 -49.39273,-56.02794 -33.7894,-90.74427c15.60333,-34.71632 56.02935,-50.37502 90.29406,-34.97467c34.26469,15.40034 49.39273,56.02794 33.7894,90.74427z" fill="#000000" stroke="none" stroke-width="0" stroke-linecap="butt"/><path d="M280.98762,129.09418c13.65206,-30.3749 50.9514,-43.20852 83.31037,-28.6647c32.35897,14.54381 47.52394,50.95765 33.87188,81.33253c-13.65206,30.3749 -50.9514,43.20851 -83.31038,28.6647c-32.35897,-14.54381 -47.52393,-50.95764 -33.87187,-81.33253z" fill="#ffff70" stroke="#000000" stroke-width="2" stroke-linecap="butt"/><path d="M281.62506,129.43972c0.29844,-0.66401 -18.17506,53.139 34.45144,77.90481c50.28243,23.66269 81.68911,-26.8222 81.27143,-25.8929c-13.4483,29.92152 -50.25575,42.53444 -82.21173,28.17175c-31.95598,-14.36269 -46.95944,-50.26214 -33.51114,-80.18366z" fill="#6c6d22" stroke="#000000" stroke-width="0" stroke-linecap="butt"/><path d="M274.63956,142.62605c0,0 25.2283,-77.449 93.47419,-45.1485c70.09058,33.17356 21.92029,100.02781 21.92029,100.02781c0,0 -27.67177,1.4765 -62.83027,-13.95526c-31.49585,-13.82415 -52.56421,-40.92404 -52.56421,-40.92404z" fill-opacity="0.20144" fill="#000000" stroke="none" stroke-width="0" stroke-linecap="butt"/><path d="M293.17082,135.04081c5.31622,-11.82823 19.21455,-17.10724 31.04277,-11.79103c11.82823,5.31622 17.10724,19.21455 11.79103,31.04277c-5.31622,11.82823 -19.21455,17.10724 -31.04277,11.79103c-11.82823,-5.31622 -17.10724,-19.21455 -11.79103,-31.04277z" fill="#ffffff" stroke="#000000" stroke-width="2" stroke-linecap="butt"/><path d="M301.58785,130.73882c3.74205,-8.3258 13.52496,-12.04166 21.85075,-8.29961c8.3258,3.74205 12.04165,13.52497 8.29961,21.85076c-3.74205,8.3258 -13.52497,12.04165 -21.85076,8.29961c-8.3258,-3.74205 -12.04164,-13.52497 -8.2996,-21.85076z" fill="#000000" stroke="none" stroke-width="0" stroke-linecap="butt"/><path d="M332.33107,189.9627l7.68077,12.1473c0,0 -7.88765,0.04355 -12.15945,-0.203c-4.07487,-0.23519 -12.90843,-1.24385 -12.90843,-1.24385z" data-paper-data="{&quot;index&quot;:null}" fill="#000000" stroke="#000000" stroke-width="2" stroke-linecap="round"/><path d="M359.52083,139.43656c12.72224,-2.51275 25.07263,5.76368 27.58538,18.48591c2.51275,12.72224 -5.76369,25.07262 -18.48591,27.58538c-12.72224,2.51275 -25.07263,-5.76369 -27.58537,-18.48591c-2.51275,-12.72224 5.76369,-25.07262 18.48591,-27.58537z" data-paper-data="{&quot;index&quot;:null}" fill="#ffffff" stroke="#000000" stroke-width="2" stroke-linecap="butt"/><path d="M360.87866,141.44789c8.95508,-1.7687 17.64842,4.05701 19.41712,13.01209c1.76871,8.95508 -4.05702,17.64843 -13.01208,19.41713c-8.95508,1.7687 -17.64841,-4.05702 -19.41712,-13.01209c-1.76871,-8.95508 4.05702,-17.64843 13.01208,-19.41712z" data-paper-data="{&quot;index&quot;:null}" fill="#000000" stroke="none" stroke-width="0" stroke-linecap="butt"/><path d="M317.12066,111.53281c0,0 8.46418,-0.29738 13.29663,1.69365c4.83245,1.99104 9.62151,7.74895 9.62151,7.74895c0,0 -6.50056,-4.7284 -10.23251,-6.26601c-3.90002,-1.60686 -12.68565,-3.1766 -12.68565,-3.1766z" fill="#000000" stroke="none" stroke-width="0" stroke-linecap="butt"/><path d="M369.44265,132.58489c3.95054,-0.8276 11.20759,-4.28452 11.20759,-4.28452c0,0 -5.76322,4.78267 -10.87873,5.85433c-5.1155,1.07166 -13.38181,-0.77196 -13.38181,-0.77196c0,0 8.92449,0.06703 13.05295,-0.79784z" data-paper-data="{&quot;index&quot;:null}" fill="#000000" stroke="none" stroke-width="0" stroke-linecap="butt"/><g stroke="#000000" stroke-width="2" stroke-linecap="butt"><path d="M269.88672,53.23139l16.62962,-45.35279c0,0 27.12865,-3.41625 39.61395,-2.65355c13.69621,0.83665 39.2674,7.47221 39.2674,7.47221l11.30272,46.21756c0,0 -34.59503,2.63495 -52.57651,1.67818c-17.61557,-0.93731 -54.23718,-7.3616 -54.23718,-7.3616z" fill="#ffffff"/><path d="M270.26275,53.19251l2.41769,-6.60119c0,0 33.8981,6.04608 51.21537,7.10665c16.85719,1.03239 51.34518,-0.82552 51.34518,-0.82552l1.59274,6.06721c0,0 -36.47431,3.98586 -54.25315,2.82813c-17.44895,-1.13626 -52.31786,-8.57524 -52.31786,-8.57524z" fill="#9b9d30"/><path d="M323.5167,29.25655c0,0 11.21595,-4.27792 17.87915,-5.90663c7.40405,-1.80979 24.5573,-4.46618 24.5573,-4.46618l1.50399,6.81662c0,0 -19.44939,2.96498 -26.48026,4.83638c-5.27471,1.40395 -11.97153,5.39832 -11.97153,5.39832z" fill="#9b9d30"/><path d="M331.51173,52.82669c0,0 0.95253,-8.03505 -10.2951,-16.36983c-15.23215,-11.28739 -38.07363,-16.21872 -38.07363,-16.21872l2.81358,-6.57541c0,0 21.82001,3.16227 39.34416,16.53835c13.23982,10.10585 14.12875,23.14121 14.12875,23.14121z" fill="#9b9d30"/></g></g></g></svg>