<svg version="1.1" xmlns="http://www.w3.org/2000/svg" xmlns:xlink="http://www.w3.org/1999/xlink" width="109.8512" height="250.52158" viewBox="0,0,109.8512,250.52158"><g transform="translate(-253.63447,-59.12657)"><g data-paper-data="{&quot;isPaintingLayer&quot;:true}" fill-rule="nonzero" stroke-linecap="butt" stroke-linejoin="miter" stroke-miterlimit="10" stroke-dasharray="" stroke-dashoffset="0" style="mix-blend-mode: normal"><path d="M282.56373,308.53989c0,0 -0.63536,-94.38387 -0.79335,-118.01201c-0.05451,-8.15261 8.18688,-36.76129 40.20201,-36.9211c31.60235,-0.15775 39.85672,29.48704 39.84884,36.89673c-0.07659,46.24274 0.65429,117.98648 0.65429,117.98648l-10.49667,0.09614l-0.15882,-114.84311c0,0 0.07549,-3.0993 -2.81625,-3.15415c-3.43441,-0.06514 -2.94538,3.11562 -2.94538,3.11562l0.20548,114.86995l-48.21366,0.07222l-0.30539,-115.23309c0,0 0.27949,-2.919 -2.8856,-2.93443c-3.11083,-0.01515 -2.81569,2.90899 -2.81569,2.90899l0.35311,115.0668z" fill="#999999" stroke="#000000" stroke-width="2"/><path d="M321.66272,265.26944c-0.81895,0 -1.48284,-0.66389 -1.48284,-1.48284c0,-0.81895 0.66389,-1.48284 1.48284,-1.48284c0.81895,0 1.48284,0.66389 1.48284,1.48284c0,0.81895 -0.66389,1.48284 -1.48284,1.48284z" data-paper-data="{&quot;index&quot;:null}" fill="#000000" stroke="none" stroke-width="1.5"/><path d="M297.59946,308.55433v-119.20147c0,0 0.75721,-9.73105 0.75721,-14.63937c0,-4.498 -0.75721,-13.6872 -0.75721,-13.6872c0,0 2.67319,-2.35297 4.6557,-3.74807c1.98251,-1.3951 5.17197,-2.80371 5.17197,-2.80371c0,0 -0.6016,40.10902 14.55952,40.03867c15.43477,-0.07162 13.83154,-40.03867 13.83154,-40.03867c0,0 3.91276,1.51959 6.16585,2.94655c2.25309,1.42695 4.75379,3.60523 4.75379,3.60523c0,0 -0.75721,9.42463 -0.75721,14.19201c0,4.84193 0.75721,14.63937 0.75721,14.63937v118.69667z" fill="#0f0e02" stroke="#000000" stroke-width="2"/><path d="M317.99012,109.21614c0,0 1.5562,-0.0537 4.39775,0.06594c2.59544,0.10928 4.73652,0.63544 4.73652,0.63544l0.46793,1.09033c0,0 -7.78612,-1.31538 -15.26957,1.19645c-5.98358,2.00843 -9.00805,5.10194 -9.00805,5.10194l-0.94925,-4.06779c0,0 2.63225,-2.39932 7.19643,-3.67309c4.72619,-1.31897 7.9992,-1.35057 7.9992,-1.35057z" data-paper-data="{&quot;index&quot;:null}" fill="#000000" stroke="none" stroke-width="1.5"/><path d="M280.01779,122.73434c0,0 2.84013,-2.56842 7.25897,-4.12722c4.89662,-1.72735 7.52942,-1.91247 7.52942,-1.91247l1.27093,3.94848c0,0 -3.88735,0.25139 -7.91172,1.40134c-5.38211,1.53791 -6.1132,2.97264 -10.13493,4.42951c-3.44604,1.24833 -6.50601,1.7571 -6.50601,1.7571l-0.31814,-1.19003c0,0 3.50955,-0.78345 5.06718,-1.31152c1.28561,-0.43586 3.63838,-1.85698 3.63838,-1.85698z" fill="#000000" stroke="none" stroke-width="1.5"/><path d="M297.17956,171.97976l-0.71376,-0.4329c-2.62435,-1.60687 -5.28446,-1.98465 -7.85724,-3.54507c-0.04527,-0.02746 -0.72593,-0.29494 -1.30012,-0.62863c0.01348,0.20341 -0.00073,0.39431 -0.04942,0.52954c-0.03302,0.09171 -0.07195,0.18027 -0.11571,0.26628l0.05729,0.02077l-0.3574,0.98585c-0.10736,0.31015 -0.36502,0.56116 -0.7075,0.64505c-0.53643,0.13139 -1.0778,-0.19695 -1.20919,-0.73338l-0.22566,-0.9213c-1.26431,-1.05584 -2.35941,-2.58772 -3.64476,-3.52666c-1.74216,-1.27264 -4.32777,-2.22495 -5.71498,-4.03077c-0.95255,-1.24002 -1.17897,-2.76438 -2.37076,-3.82272c-0.99065,-0.96884 -2.14315,-2.714 -2.67511,-4.04419c-0.1623,-0.40582 -1.09701,-3.75052 -1.5532,-3.59277c-1.44259,0.49884 -2.01566,2.58776 -2.92978,3.59846c-2.00909,2.22139 -4.2451,4.09534 -7.03755,4.61425l0.0742,0.30292l-1.14667,0.28086c-0.53643,0.13139 -1.0778,-0.19695 -1.20919,-0.73338c-0.08389,-0.34249 0.01963,-0.687 0.24506,-0.92552l0.70908,-0.77256c1.94322,-2.09587 3.48517,-4.17879 4.7965,-6.66489c-1.0975,0.46381 -2.3171,0.64746 -3.78948,0.68269c-0.69231,0.01657 -2.91483,0.03822 -3.27295,-0.43929c-0.43421,-0.57895 0.60325,-2.85411 0.87235,-3.38656c1.31042,-2.5929 3.66493,-5.76974 4.09956,-8.6466c0.18568,-1.22903 -0.0666,-2.21803 0.3743,-3.43421c-0.01521,-1.64464 0.08462,-3.0711 0.38011,-4.6511c0.02409,-0.12881 0.024,-0.30934 0.02305,-0.49473c-0.15644,0.15921 -0.32665,0.30741 -0.44689,0.40691c-1.16523,0.9642 -3.42421,2.39891 -4.84685,0.7618c-1.56654,-1.80271 0.50367,-4.64886 1.41586,-6.11861c0.89372,-1.43999 0.69711,-3.39779 0.31808,-4.94529c0.03825,-8.01738 -0.10623,-16.35109 2.74327,-24.21107c2.06909,-5.70733 5.49867,-11.83658 8.75481,-16.88687c0.80798,-1.25319 2.42844,-2.07453 3.4797,-3.19292c1.93501,-1.02018 3.36598,-2.74089 5.49755,-3.55391c6.68403,-2.54944 14.37403,-2.39429 21.26736,-3.97388c2.7463,0.58767 5.39178,-0.01947 8.20434,0.4842c3.6989,0.66239 7.2077,2.33013 10.81589,3.13383c2.75431,0.6135 4.49299,0.79253 6.66222,2.83155c1.53953,2.87251 3.67152,5.16134 4.82941,8.2238c1.97176,5.21505 2.20555,12.34022 5.88866,16.67889c0.76754,2.94252 3.48486,4.66081 5.30399,7.02389c2.06969,2.68857 3.02557,5.56718 4.57209,8.4852c1.26744,2.39148 2.61476,4.19054 2.00007,6.46571l0.38395,0.1392l-0.3574,0.98585c-0.10735,0.31014 -0.36502,0.56116 -0.7075,0.64505c-0.46224,0.11322 -0.92814,-0.11493 -1.13224,-0.52342l-0.49653,-0.94177c-1.90264,-1.70617 -2.74111,-3.97063 -4.83195,-5.53356c-0.09055,-0.06769 -0.18424,-0.12576 -0.27918,-0.17663c2.01039,4.5729 2.5898,9.85615 2.5938,14.70385c-0.02676,5.60663 -0.34352,10.80466 -0.22189,16.43929c0.06063,2.80849 0.3032,5.42543 -0.84063,7.68209l0.37434,0.22704l-0.64935,1.07064c-0.13272,0.21882 -0.34892,0.38701 -0.61713,0.45271c-0.53642,0.13139 -1.0778,-0.19695 -1.20919,-0.73338l-0.28086,-1.14667c-0.07116,-0.29503 -0.58319,-1.3898 -0.9573,-2.38208c-0.07519,0.84658 -0.21179,1.69816 -0.22545,1.81351c-0.22842,1.92866 -0.70914,3.2095 -1.5824,4.51233l0.12813,0.05467l-0.57457,1.34662c-0.11769,0.28434 -0.36463,0.51072 -0.68643,0.58954c-0.53642,0.13139 -1.0778,-0.19695 -1.20919,-0.73338c-0.02177,-0.08886 -0.03091,-0.17785 -0.02859,-0.26511l0.00526,-1.10192c-0.28199,-1.13675 -0.72251,-2.72774 -0.91858,-4.09789c-0.34995,0.5065 -0.75003,0.99159 -0.9585,1.4174c-1.27471,2.60365 -2.65138,4.66142 -4.43701,6.77659c-0.77424,1.58005 -1.72159,3.03263 -2.8143,4.35277c-0.11876,0.328 -0.23769,0.65595 -0.35658,0.98391c-1.35056,3.72537 -4.18392,6.78365 -6.74412,9.51902c-0.69868,0.74648 -0.96136,1.97603 -1.94531,2.70351c-2.66707,1.97189 -7.9773,1.35289 -10.06002,-0.99937c-0.71041,-0.6664 -1.11258,-1.89877 -1.9334,-2.35386c-2.02586,-1.1232 -4.02126,-2.18386 -5.99124,-3.3864c-0.35096,0.02797 -0.64913,-0.15287 -0.64913,-0.15287zM304.85708,173.80895c1.12049,0.72242 1.38544,1.82652 2.33759,2.67735c1.30168,1.62354 5.59939,2.19156 7.39769,0.80191c0.896,-0.69239 0.98444,-1.6867 1.65836,-2.4333c1.48304,-1.64297 3.12874,-3.35551 4.46072,-5.2821c-2.86613,2.11437 -6.22481,3.63507 -9.82833,4.51771c-2.61807,0.62533 -4.35243,-0.02658 -6.7358,-0.72482c0.23947,0.14515 0.47629,0.29271 0.70978,0.44325zM323.74877,162.87576l0.69629,-1.15743c0,0 0.22907,-0.37767 0.63371,-0.47877c0.3211,-0.35474 0.63107,-0.70779 0.93103,-1.06057c0.32743,-0.67451 0.62354,-1.37451 0.88645,-2.09972c1.02572,-0.86995 -0.14977,-1.31121 -1.5239,-1.55821l-0.00397,0.01287c-2.09047,1.10214 -3.73472,2.72086 -5.70218,3.81417c-1.96111,1.08979 -4.62569,1.01366 -6.69985,1.98407c-0.47451,0.11508 -0.95248,0.22898 -1.43347,0.34076c-0.17912,0.06821 -0.39502,0.11597 -0.63428,0.14569c-3.80493,0.86339 -7.78377,1.56901 -11.71328,1.6535c-2.91122,0.06259 -6.47917,-0.87216 -9.22954,-0.14519c0,0 -0.19632,0.04809 -0.43405,0.01276c0.04857,0.1709 0.1141,0.35349 0.19788,0.54952c2.90659,0.8821 5.78474,3.21089 8.35667,4.80713c1.80459,1.12001 4.27709,1.07204 6.2689,1.64458c2.23313,0.6419 3.67934,1.40855 6.06209,0.80701c5.0841,-1.24529 9.51562,-3.78023 12.70358,-7.52548c0.21179,-0.58253 0.42419,-1.16484 0.63789,-1.74671zM330.66321,129.72044c0.80875,-0.48415 0.8501,-1.3827 1.46219,-2.39699c2.19398,-3.63563 1.94959,-6.84335 0.97857,-10.93281c-1.16341,-2.40588 -2.92837,0.65553 -3.33866,2.11084c-0.24548,0.87072 -0.41688,1.77081 -0.51251,2.6841c0.16998,0.45935 0.39781,0.91366 0.38498,1.39235c-0.03451,1.28784 -0.0664,2.58294 -0.09004,3.88424c0.24897,1.1239 0.61974,2.22034 1.11548,3.25827zM328.01606,148.8148c0.07986,-1.56904 0.86787,-2.86602 0.67224,-4.55009c-0.39089,-3.36515 -2.53027,-6.40949 -1.09095,-9.75095c-0.16917,-2.7453 -0.18871,-5.48133 -0.11655,-8.18791c-0.3306,-1.74995 -0.40758,-3.55297 -0.22928,-5.30846c-0.10041,-0.27556 -0.17901,-0.55356 -0.1726,-0.84035c0.05557,-2.48358 0.23488,-5.10254 -0.01584,-7.68955l-0.23684,-0.06738c-1.85836,-0.02852 -3.76223,-0.36674 -5.48407,-1.10111c-0.68249,0.20243 -1.37924,0.37859 -2.08512,0.53759c-0.06103,0.02618 -0.12855,0.0488 -0.20322,0.06709c-0.09823,0.02406 -0.18895,0.03575 -0.27269,0.03733c-3.641,0.77867 -7.49209,1.16004 -10.86068,2.37806c-1.20622,0.43615 -3.17944,3.19703 -4.71396,2.46362c-0.65078,-0.31105 -0.82594,-1.16702 -0.86578,-1.98105c-0.0069,-0.00403 -0.01381,-0.00815 -0.02076,-0.01236c-0.85503,-0.51857 -0.33645,-1.37361 -0.33645,-1.37361l0.64078,-0.95754c0.85698,-0.72522 1.59403,-1.79527 2.48204,-2.45182c1.71277,-1.26633 4.13631,-1.66398 6.15621,-1.89205c3.49553,-0.39467 6.777,-2.27431 8.24279,1.66067c0.65123,-0.1736 1.29974,-0.33493 1.94439,-0.47304c1.73546,0.56763 3.49044,1.10031 5.30907,1.09864c-0.05195,-0.25528 -0.10966,-0.50979 -0.17367,-0.76336c-0.98353,-4.01544 -2.59281,-7.43714 -4.51214,-11.10362c-0.69837,-1.33409 -0.85143,-3.10254 -2.80243,-3.1359c-2.71461,-0.0464 -3.19826,1.34434 -5.36157,2.48488c-2.91575,3.28336 -7.55749,6.57902 -11.4351,8.63481c-2.01108,1.06621 -4.00012,1.66975 -5.5766,3.38145l-0.06319,0.02158l0.01707,0.0201l-0.99091,0.84118c-0.11757,0.10413 -0.26146,0.182 -0.4246,0.22196c-0.53643,0.13139 -1.0778,-0.19696 -1.20919,-0.73338c-0.08389,-0.3425 0.01962,-0.68699 0.24505,-0.92552l0.70908,-0.77256l0.09227,0.08468l0.00726,-0.00616c0.78715,-1.68595 1.81747,-3.18888 2.93798,-4.71234c0.31808,-0.43248 0.66224,-1.15727 1.03846,-1.78039c-0.62027,0.40021 -1.38947,0.56696 -1.98014,1.01401c-1.98509,1.50242 -4.11497,2.98753 -6.04701,4.58027c-2.34646,0.61206 -3.56082,2.01478 -5.3727,3.38257c-3.38592,2.55602 -7.66689,4.37101 -11.06969,6.62782c-0.69915,0.46369 -0.0487,3.27575 -0.04819,3.91177c-0.01779,1.53104 0.14827,2.94906 0.45392,4.29585c1.18017,-0.4009 2.33565,-0.89449 3.47983,-1.43201c-0.06125,-0.82971 0.53283,-2.75476 0.90974,-3.08057c1.19328,-1.03151 3.45368,-0.47405 4.7456,-1.24001c1.59429,-0.94524 3.04302,-2.65714 4.82287,-3.34483c1.45054,-0.56044 5.28312,-1.02702 6.49684,0.10473c0.61906,0.57725 0.85029,3.18654 0.27763,3.78704c-0.4477,0.46948 -1.28359,0.18913 -1.92539,0.2837c-1.43555,-0.01667 -2.82198,0.19519 -4.17498,0.55895c2.01354,0.67429 6.03919,-0.56968 7.55667,1.0784c1.16564,1.26595 1.41931,2.88624 1.26089,4.59515c0.34433,0.22047 0.44663,0.63815 0.44663,0.63815c0.68708,2.80514 2.34916,4.90058 3.36303,7.55873c1.51647,3.97583 2.11255,8.59337 3.12583,12.73028c0.7806,3.18692 1.25707,6.37278 2.03045,9.53026c0.17076,0.69714 0.26533,2.30348 0.81486,2.85373c0.36981,0.37028 1.05048,0.02792 1.5652,0.12248c0.09145,0.0168 0.17922,0.11519 0.26109,0.19922c0.11878,-0.02697 0.23739,-0.05416 0.3558,-0.08151c0.11976,-0.39392 -0.33078,-0.96458 -0.38625,-1.42825c-0.23551,-1.96854 -0.6524,-3.85574 -1.11765,-5.80358c0.00623,-1.30381 -0.08468,-2.60066 -0.24249,-3.89262c-0.19837,-0.20192 -0.35859,-0.5258 -0.18446,-1.00609c0.01115,-0.03074 0.02293,-0.06011 0.0353,-0.08818c-0.98775,-6.59114 -3.50123,-13.06926 -3.5067,-19.70693c0.00109,-0.22616 0.00215,-0.45233 0.00323,-0.6785c-0.02346,-0.0619 -0.04647,-0.12391 -0.069,-0.18606c-0.30362,0.00363 -0.80794,-0.09584 -0.97037,-0.75901c-0.15075,-0.61547 0.18403,-0.93647 0.44955,-1.08906c-0.31561,-1.57506 -0.29495,-3.14254 0.17818,-4.49765c0.95333,-2.59568 2.90473,-5.34579 5.55212,-6.36867c5.01418,-1.93734 14.34163,-1.05131 14.42375,5.81913c0.2161,0.88228 0.69084,2.25465 0.06723,3.10017c-0.00686,0.00931 -0.01385,0.01855 -0.02098,0.02771c0.32004,3.11899 -0.55365,6.17109 -2.78864,8.60613c-1.62828,1.66495 -3.79718,1.68179 -5.99575,1.93765c-2.12727,0.24756 -4.24014,0.62005 -6.21735,-0.59417c-0.89232,-0.548 -1.73144,-1.32194 -2.47034,-2.23906c0.54291,5.48689 2.48544,10.91654 3.33758,16.41204c2.14155,0.96995 3.61976,2.6293 1.87888,4.94961c1.35316,-0.38261 2.78305,-0.81819 4.15003,-0.60287c2.61342,0.41165 5.10445,1.31395 7.64434,1.7105c0.06998,-0.03294 0.14905,-0.06101 0.23834,-0.08288c0.44512,-0.10903 0.73621,0.0359 0.92098,0.22491c0.19807,0.01705 0.39659,0.03016 0.59565,0.03888c0.34946,0.01531 0.68031,0.06805 0.98724,0.15309c0.66631,-2.01276 0.81612,-3.98617 0.91829,-5.99348zM281.90117,144.60736c1.41534,5.77839 4.21604,11.00978 5.64628,16.84899l0.25639,1.04677c0.87152,-2.93872 4.77674,-4.90026 8.12071,-5.33594c1.82435,-0.23769 4.44744,0.44264 6.12562,-0.55233c0.5926,-0.35135 1.04166,-0.70483 1.53342,-1.01492c-4.05154,-1.59167 -3.47363,-5.38016 0.10375,-6.68214c-0.01718,-0.07136 -0.03451,-0.14273 -0.05199,-0.21409c-0.99299,-4.05406 -1.56618,-8.60256 -3.05314,-12.4965c-0.75189,-1.96899 -1.83241,-3.63588 -2.64426,-5.49753c-0.44455,1.57064 -0.95955,3.06875 -1.15804,4.28865c-0.19654,1.20787 -0.10848,2.52607 -0.89453,3.6131c-0.52439,0.72516 -1.32421,1.2068 -1.93646,1.85948c-4.7803,2.54939 -11.34465,0.29934 -14.22815,-4.11332c1.01663,2.63051 1.52364,5.56857 2.18037,8.24977zM312.76457,109.81775c-2.06687,0.49964 -4.64958,0.41115 -6.43721,1.79257c-0.71205,0.55024 -1.32046,1.33991 -1.98707,2.00202c-0.0049,0.22206 -0.02056,0.55669 -0.0524,0.84846c0.7331,-0.74958 2.67726,-1.89432 2.92299,-1.99161c1.2423,-0.49183 2.46842,-0.46963 3.74758,-0.61406c2.19037,-0.24732 4.40526,-0.89067 6.60216,-1.51805c-0.86491,-1.87435 -2.65401,-1.03714 -4.79605,-0.51932zM278.45063,129.79877c0,0 0.0925,-0.40706 0.42098,-0.63543l0.04694,-0.19759c0.78074,-1.72656 2.13896,-2.07621 3.68541,-3.1204c0.79164,-0.53453 1.36688,-1.41083 2.01024,-2.16409c-2.96494,1.44795 -5.86286,3.16401 -8.88345,4.22251c0.71166,2.12798 1.74599,4.11676 2.90319,6.15505c-0.40496,-1.31723 -0.49852,-2.75291 -0.18331,-4.26006zM299.1473,162.47251c2.52045,-0.05441 5.0639,-0.36513 7.56259,-0.81421c-0.64724,-0.95582 -0.79286,-2.39868 -1.04408,-3.42434c-0.10714,-0.43743 -0.20855,-0.8752 -0.30584,-1.31332c-1.42181,0.45891 -2.19129,1.41283 -3.70939,1.80702c-3.71206,0.96385 -6.68582,0.12724 -9.99785,2.38489c-0.62891,0.42869 -1.18595,0.77668 -1.58718,1.15636c2.87718,-0.47519 6.14658,0.26696 9.08174,0.20359zM312.30145,160.44596c1.90173,-0.88974 4.61401,-0.79203 6.34643,-1.81918c1.2614,-0.74788 2.4068,-1.66127 3.62822,-2.51689c-3.6816,-0.62497 -6.31335,-1.49554 -10.15926,-0.55354l-0.09386,0.21816c0,0 -0.11411,0.09687 -0.29151,0.17151c0.34829,1.50647 0.60484,3.05562 0.48019,4.52211c0.02994,-0.00739 0.05988,-0.01477 0.08978,-0.02217zM304.34512,153.75054l0.37729,0.08004c-0.1941,-0.98345 -0.38639,-1.96825 -0.59481,-2.95411c-1.70167,0.67843 -2.1562,2.07312 0.21752,2.87407zM307.20889,127.71907c-0.00032,0.06636 -0.00063,0.13272 -0.00094,0.19908c0.83802,1.96916 2.20573,3.76024 3.6443,4.61587c1.58362,0.94191 3.26685,0.5134 4.94529,0.31808c1.52544,-0.17753 3.71351,-0.03215 4.75721,-1.30388c1.57645,-1.71756 2.49021,-4.04022 2.40027,-6.32749c-0.94169,0.20523 -2.04933,0.26296 -3.00178,0.27314c-0.29555,5.84066 -6.73378,3.54117 -10.35846,2.24775c0,0 -0.4702,-0.17046 -0.62499,-0.60281c-0.58668,0.15335 -1.18172,0.30601 -1.78804,0.45513zM322.26708,122.78224l0.41008,0.03231l0.02762,-0.68173c0,0 0.02061,-0.25222 0.16799,-0.49254c-0.03829,-0.0813 -0.06938,-0.16126 -0.08836,-0.23877c0.05171,-2.0545 -0.89062,-2.77054 -2.43917,-3.71448c-0.55048,-0.33555 -0.84762,-1.16076 -1.48796,-1.23556c-0.73993,-0.08644 -1.47146,0.28803 -2.21643,0.28666c-4.71363,-0.00867 -8.26549,0.8945 -9.9659,5.65969c-0.36312,0.95251 -0.38449,2.0994 -0.15966,3.28292c1.95337,-0.51566 3.94225,-1.08206 5.93927,-1.51129c3.16278,-0.78828 6.27748,-1.40404 9.81252,-1.38718zM287.3922,120.41248c2.10641,-0.80013 4.28629,-1.3423 6.61722,-1.34422c1.04128,0.60487 0.34875,-0.54751 0.2359,-0.64475c-0.49351,-0.42533 -3.66071,0.06817 -4.38492,0.33914c-0.88493,0.3311 -1.68368,0.98489 -2.46819,1.64983zM291.7237,135.59017c-1.62069,0.99037 -3.53212,0.60391 -5.1952,0.31707c-0.75228,-0.12975 -2.1484,0.28033 -2.77698,-0.1411c-1.11369,-0.74667 -1.05663,-1.72726 -1.04364,-2.76568c-0.74057,0.17003 -1.48015,0.34408 -2.2181,0.52376c1.42809,4.56546 8.04999,7.5293 12.23813,5.36264c0.46074,-0.51562 1.09647,-0.86658 1.51516,-1.41687c0.59493,-0.78193 0.42217,-1.96229 0.56784,-2.82243c0.23463,-1.38552 0.87,-3.00417 1.32919,-4.65295l-0.29421,0.07206c-0.84267,0.2064 -1.68887,0.40545 -2.53765,0.59961c0.00428,1.77692 0.20179,3.83227 -1.58455,4.92388zM295.37009,128.1241l0.86,-0.21065c0,0 0.15469,-0.03789 0.35571,-0.0217c0.17055,-1.36097 0.05009,-2.68315 -0.69246,-3.85005c-0.26457,-0.41577 -0.98517,-0.03741 -1.47799,-0.03657c-1.57633,0.0027 -3.22417,0.20397 -4.7001,-0.38154c-0.83985,0.24911 -2.13763,0.28844 -2.87708,0.7047c-1.15296,0.64902 -1.96567,2.38213 -3.114,3.17389c-0.84083,0.57975 -2.80043,1.32193 -2.92537,2.14522l-0.11123,0.52431c0,0 -0.08857,0.38976 -0.40013,0.62047c-0.03971,0.24924 -0.06324,0.49619 -0.07149,0.74044c5.04285,-1.22045 10.16295,-2.18601 15.15412,-3.40853zM311.06096,152.07842c0.64985,-0.50608 0.41299,-0.94938 -0.08752,-1.30263c0.03852,0.43367 0.06809,0.86787 0.08752,1.30263z" fill="#000000" stroke="none" stroke-width="0.5"/><path d="M329.52456,126.50647c0.02362,-1.3013 0.0287,-2.63982 0.06321,-3.92766c0.01283,-0.47869 -0.20827,-0.95893 -0.37826,-1.41829c0.09565,-0.9133 0.28966,-1.83387 0.53514,-2.70459c0.41029,-1.4553 2.20779,-4.51974 3.37121,-2.11386c0.97102,4.08946 1.209,7.39544 -0.98498,11.03107c-0.61209,1.01429 -0.66539,1.91273 -1.47413,2.39688c-0.49573,-1.03793 -0.88322,-2.13965 -1.13219,-3.26355z" data-paper-data="{&quot;noHover&quot;:false,&quot;origItem&quot;:[&quot;Path&quot;,{&quot;applyMatrix&quot;:true,&quot;segments&quot;:[[[268.21396,123.01191],[-0.23457,-1.12607],[0.90071,-0.27784]],[[270.20442,121.0316],[-0.83582,0.83955],[2.99592,-3.00929]],[[273.75586,110.64549],[-0.02976,4.20306],[-0.55764,-2.61359]],[[270.01088,111.90144],[0.74473,-1.31591],[-0.44558,0.78732]],[[268.87451,114.38655],[0.31018,-0.86432],[0.05582,0.4866]],[[268.9172,115.83051],[0.12634,-0.46189],[-0.3399,1.24265]],[[267.90567,119.58181],[0.33253,-1.25832],[-0.02556,1.15086]]],&quot;closed&quot;:true}]}" fill="#ffffff" stroke="none" stroke-width="0.5"/><path d="M307.13277,127.58381c0.60632,-0.14912 1.20281,-0.30725 1.78949,-0.46059c0.15478,0.43236 0.62415,0.60565 0.62415,0.60565c3.62468,1.29343 10.14795,3.5717 10.44349,-2.26896c0.95246,-0.01018 2.06671,-0.05894 3.00841,-0.26417c0.08994,2.28726 -0.82162,4.65564 -2.39807,6.3732c-1.0437,1.27172 -3.27683,1.15564 -4.80227,1.33317c-1.67844,0.19533 -3.40414,0.6009 -4.98776,-0.34101c-1.43858,-0.85564 -2.81353,-2.68215 -3.65155,-4.65131c0.00032,-0.06636 0.00083,-0.13383 0.00115,-0.20019z" data-paper-data="{&quot;noHover&quot;:false,&quot;origItem&quot;:[&quot;Path&quot;,{&quot;applyMatrix&quot;:true,&quot;segments&quot;:[[[245.90918,115.48812],[0,0],[-0.0161,0.06438]],[[245.8609,115.68126],[0.0161,-0.06438],[0.34549,2.11199]],[[248.30242,121.0316],[-1.19371,-1.17332],[1.31407,1.29162]],[[253.03005,122.51705],[-1.67672,-0.20959],[1.52388,0.19048]],[[257.96087,122.38236],[-1.31628,0.98691],[1.9398,-1.2932]],[[261.79756,116.80758],[-0.45679,2.24299],[-0.96348,-0.0247]],[[258.81698,116.35875],[0.92753,0.21671],[-1.67658,5.60265]],[[248.22118,116.07763],[3.2129,2.11862],[0,0]],[[247.75755,115.34344],[0.04748,0.45677],[-0.60632,0.00937]],[[245.91257,115.36011],[0.62439,-0.00059],[0,0]]],&quot;closed&quot;:true}]}" fill="#ffffff" stroke="none" stroke-width="0.5"/><path d="M310.95795,150.72825c0.50052,0.35325 0.74484,0.89343 0.09499,1.39951c-0.01944,-0.43476 -0.05647,-0.96585 -0.09499,-1.39951z" data-paper-data="{&quot;noHover&quot;:false,&quot;origItem&quot;:[&quot;Path&quot;,{&quot;applyMatrix&quot;:true,&quot;segments&quot;:[[[243.85545,140.0645],[0.08455,-0.4269],[0.75159,-0.33695]],[[244.08034,138.77845],[0.40211,0.46218],[-0.06576,0.43038]]],&quot;closed&quot;:true}]}" fill="#ffffff" stroke="none" stroke-width="0.5"/><path d="M304.14167,150.8285c0.20843,0.98586 0.4189,2.05684 0.613,3.04029l-0.38423,-0.07513c-2.37371,-0.80095 -1.93043,-2.28673 -0.22876,-2.96516z" data-paper-data="{&quot;noHover&quot;:false,&quot;origItem&quot;:[&quot;Path&quot;,{&quot;applyMatrix&quot;:true,&quot;segments&quot;:[[[236.93463,140.09088],[-2.11501,-1.34267],[0,0]],[[237.28205,140.25838],[0,0],[0.04544,-1.00139]],[[237.40711,137.24758],[-0.03209,1.00714],[-1.81421,0.25412]]],&quot;closed&quot;:true}]}" fill="#999999" stroke="none" stroke-width="0.5"/><path d="M312.1721,160.49868c0.12467,-1.46648 -0.14156,-3.05486 -0.48985,-4.56132c0.1774,-0.07464 0.29193,-0.17366 0.29193,-0.17366l0.09442,-0.22045c3.84591,-0.94201 6.57543,-0.06518 10.25704,0.5598c-1.22141,0.85563 -2.38117,1.81139 -3.64257,2.55927c-1.73243,1.02714 -4.51928,0.92473 -6.421,1.81446c-0.02991,0.0074 -0.06004,0.01453 -0.08998,0.02192z" data-paper-data="{&quot;noHover&quot;:false,&quot;origItem&quot;:[&quot;Path&quot;,{&quot;applyMatrix&quot;:true,&quot;segments&quot;:[[[243.06965,148.48691],[-0.03081,0.00007],[2.0588,-0.41176]],[[249.66667,148.22981],[-1.92705,0.5855],[1.40311,-0.42631]],[[253.7895,146.64835],[-1.3899,0.54048],[-3.42721,-1.4829]],[[244.05361,143.69377],[3.9596,0],[0,0]],[243.91054,143.88335],[[243.58661,143.98057],[0.19006,-0.03029],[-0.02011,1.54608]],[[242.97718,148.48708],[0.46997,-1.39472],[0.03084,-0.00005]]],&quot;closed&quot;:true}]}" fill="#999999" stroke="none" stroke-width="0.5"/><path d="M290.01597,162.27538c0.40122,-0.37967 0.95787,-0.73486 1.58677,-1.16355c3.31202,-2.25765 6.37636,-1.44951 10.08842,-2.41336c1.51812,-0.39419 2.28989,-1.3446 3.7117,-1.80351c0.09728,0.43811 0.20225,0.88307 0.3094,1.3205c0.25122,1.02565 0.40033,2.48966 1.04756,3.44548c-2.49869,0.44907 -5.06215,0.79722 -7.5826,0.85163c-2.93517,0.06337 -6.28407,-0.71237 -9.16125,-0.23718z" data-paper-data="{&quot;noHover&quot;:false,&quot;origItem&quot;:[&quot;Path&quot;,{&quot;applyMatrix&quot;:true,&quot;segments&quot;:[[[229.81105,147.32584],[-2.86597,-0.63674],[2.46103,0.54678]],[[237.35022,148.33418],[-2.53379,-0.15827],[-0.40126,-1.08236]],[[237.15078,144.75977],[0,1.05597],[0,-0.45036]],[[237.16616,143.41141],[-0.00974,0.44868],[-1.49016,0.10748]],[[233.13337,144.28406],[1.56831,-0.0217],[-3.83479,0.05306]],[[222.8552,144.22195],[3.75403,-1.40489],[-0.71284,0.26676]],[[221.03849,144.9675],[0.48003,-0.27332],[2.90762,0.22295]]],&quot;closed&quot;:true}]}" fill="#999999" stroke="none" stroke-width="0.5"/><path d="M323.16066,164.61783c-3.18796,3.74525 -7.66309,6.33445 -12.7472,7.57973c-2.38276,0.60153 -3.8699,-0.17879 -6.10302,-0.82069c-1.99181,-0.57254 -4.47703,-0.54483 -6.28163,-1.66483c-2.57192,-1.59624 -5.45255,-3.94322 -8.35914,-4.82531c-0.08378,-0.19603 -0.14924,-0.37995 -0.19781,-0.55085c0.23774,0.03532 0.43406,-0.01287 0.43406,-0.01287c2.75038,-0.72696 6.31862,0.20504 9.22984,0.14245c3.9295,-0.08448 7.9771,-0.8296 11.78203,-1.693c0.23926,-0.02972 0.46153,-0.07428 0.64065,-0.1425c0.48098,-0.11177 0.96768,-0.21911 1.44218,-0.33419c2.07418,-0.97041 4.74825,-0.88202 6.70936,-1.9718c1.96747,-1.09331 3.52492,-2.6624 5.61539,-3.76453l0.08995,-0.06394c1.37412,0.24699 2.5522,0.69321 1.52648,1.56316c-0.26291,0.72521 -0.55736,1.42936 -0.88479,2.10387c-0.29995,0.35278 -0.60927,0.70788 -0.93037,1.06262c-0.40465,0.1011 -0.63346,0.47963 -0.63346,0.47963l-0.69553,1.16054c-0.2137,0.58187 -0.42522,1.16993 -0.63701,1.75247z" data-paper-data="{&quot;noHover&quot;:false,&quot;origItem&quot;:[&quot;Path&quot;,{&quot;applyMatrix&quot;:true,&quot;segments&quot;:[[[253.61024,153.57032],[-0.34599,0.51432],[0,0]],[254.5619,152.61178],[[255.29132,152.29752],[-0.41708,0.00193],[0.39627,-0.26816]],[[256.44793,151.4889],[-0.37527,0.27129],[0.4785,-0.57725]],[[257.80846,149.66036],[-0.42789,0.64184],[1.20324,-0.60095]],[[256.69903,147.78435],[1.27591,0.56681],[0,0]],[[256.69211,147.79591],[0,0],[-2.29265,0.57316]],[[250.24624,150.14399],[2.17108,-0.59385],[-2.16407,0.59194]],[[243.26673,150.47717],[2.24549,-0.44909],[-0.48826,-0.00111]],[[241.79335,150.46712],[0.49376,0.00587],[-0.1902,0.02364]],[[241.14262,150.45773],[0.23946,0.02805],[-3.90109,-0.06661]],[[229.37227,149.27711],[3.83678,0.85279],[-2.84253,-0.6318]],[[220.44226,146.94034],[2.84436,-0.05176],[0,0]],[[220.01764,146.84947],[0.22251,0.09087],[0.00652,0.17755]],[[220.07911,147.43028],[-0.03474,-0.21033],[2.61328,1.54826]],[[227.05221,154.08748],[-2.11832,-2.16228],[1.48632,1.51717]],[[232.74987,157.17625],[-1.79841,-1.02996],[2.0163,1.15474]],[[238.44592,159.40229],[-2.45745,0.01739],[5.23439,0]],[[252.57511,155.11512],[-3.98744,2.87929],[0.3443,-0.51542]]],&quot;closed&quot;:true}]}" fill="#999999" stroke="none" stroke-width="0.5"/><path d="M279.68145,136.32671c2.88349,4.41266 9.49634,6.64443 14.27664,4.09504c0.61225,-0.65268 1.42088,-1.13183 1.94525,-1.85699c0.78605,-1.08703 0.66385,-2.31126 0.86039,-3.51913c0.19849,-1.2199 0.74503,-2.8129 1.18959,-4.38354c0.81184,1.86165 1.90694,3.53607 2.65883,5.50506c1.48697,3.89393 2.07933,8.49192 3.07232,12.54599c0.01748,0.07137 0.03463,0.14361 0.05181,0.21498c-3.57738,1.30198 -4.16579,5.11215 -0.11425,6.70382c-0.49176,0.31008 -0.94528,0.66827 -1.53788,1.01961c-1.67818,0.99497 -4.32104,0.32589 -6.1454,0.56358c-3.34398,0.43567 -7.27841,2.39697 -8.14993,5.33569l-0.25807,-1.04732c-1.43024,-5.83921 -4.2634,-11.12683 -5.67875,-16.90522c-0.65673,-2.6812 -1.15391,-5.64104 -2.17054,-8.27156z" data-paper-data="{&quot;noHover&quot;:false,&quot;origItem&quot;:[&quot;Path&quot;,{&quot;applyMatrix&quot;:true,&quot;segments&quot;:[[[217.31028,125.87069],[0,-2.76046],[0,5.9492]],[[218.78599,143.5792],[0,-6.01182],[0,0]],[[218.78599,144.65691],[0,0],[1.54563,-2.64701]],[[227.94299,141.40613],[-3.35162,-0.37239],[1.82852,0.20316]],[[234.02415,142.32697],[-1.86671,0.56716],[0.65917,-0.20028]],[[235.755,141.706],[-0.55141,0.18419],[-3.55655,-2.50985]],[[237.44548,135.2404],[-3.78441,0.41352],[0.00029,-0.0734]],[[237.44592,135.02009],[0,0.07348],[0,-4.1739]],[[237.45341,122.15603],[0.51789,4.13589],[-0.26187,-2.09134]],[[236.19296,116.18725],[0.34564,2.00134],[-0.80545,1.41978]],[[234.04788,120.07726],[0.48301,-1.13765],[-0.47825,1.12643]],[[232.31946,123.37381],[1.02209,-0.86882],[-0.68185,0.57959]],[[229.99622,124.71921],[0.74995,-0.48828],[-5.24956,1.33894]],[[217.15516,117.33905],[1.75091,4.97196],[0.36163,2.79685]]],&quot;closed&quot;:true}]}" fill="#999999" stroke="none" stroke-width="0.5"/><path d="M312.43278,124.21442c-1.99703,0.42924 -4.00619,0.97766 -5.95956,1.49332c-0.22483,-1.18352 -0.21031,-2.34702 0.15281,-3.29953c1.70041,-4.76519 5.32779,-5.72112 10.04142,-5.71245c0.74496,0.00137 1.48681,-0.36448 2.22674,-0.27804c0.64033,0.07481 0.94527,0.91139 1.49576,1.24694c1.54857,0.94394 2.49604,1.68566 2.44433,3.74016c0.01899,0.07752 0.04997,0.15879 0.08826,0.24009c-0.14737,0.24032 -0.16834,0.49542 -0.16834,0.49542l-0.02835,0.68551l-0.41016,-0.03196c-3.53504,-0.01686 -6.72013,0.63225 -9.88292,1.42054z" data-paper-data="{&quot;noHover&quot;:false,&quot;origItem&quot;:[&quot;Path&quot;,{&quot;applyMatrix&quot;:true,&quot;segments&quot;:[[[261.70952,114.27544],[-3.42953,-0.85738],[0,0]],[262.10014,114.40438],[262.28915,113.74879],[[262.56949,113.31035],[-0.20031,0.19836],[-0.01785,-0.08808]],[[262.54047,113.05741],[0,0.07981],[0.539,-1.98321]],[[261.05502,108.86928],[1.27954,1.28525],[-0.45485,-0.45688]],[[259.90374,107.3152],[0.60415,0.225],[-0.69812,-0.25999]],[[257.68275,107.06633],[0.72325,0.17856],[-4.57623,-1.12981]],[[246.65652,110.19259],[2.78525,-4.22384],[-0.5793,0.83877]],[[245.72042,113.34326],[0.06319,-1.20303],[2.01996,-0.03614]],[[251.84871,113.28834],[-2.04181,-0.05819],[3.25951,-0.01321]]],&quot;closed&quot;:true}]}" fill="#999999" stroke="none" stroke-width="0.5"/><path d="M278.6129,134.10419c-1.1572,-2.03829 -2.21938,-4.08296 -2.93104,-6.21094c3.0206,-1.05849 5.99556,-2.80535 8.9605,-4.25329c-0.64336,0.75326 -1.26963,1.71533 -2.06128,2.24986c-1.54643,1.04418 -2.83183,1.35096 -3.61256,3.07754l-0.04702,0.19284c-0.32847,0.22836 -0.42305,0.62397 -0.42305,0.62397c-0.31522,1.50716 -0.29052,3.00279 0.11445,4.32002z" data-paper-data="{&quot;noHover&quot;:false,&quot;origItem&quot;:[&quot;Path&quot;,{&quot;applyMatrix&quot;:true,&quot;segments&quot;:[[[217.48184,110.66638],[-0.66473,1.38889],[0,0]],[[218.0419,110.14936],[-0.37337,0.14366],[0,0]],[[218.1345,109.96861],[0,0],[1.16908,-1.49125]],[[222.45645,107.81458],[-1.75045,0.6463],[0.89608,-0.33085]],[[224.92382,106.19087],[-0.80409,0.57857],[-3.22429,0.701]],[[215.29088,108.17873],[3.18569,-0.30949],[0.18497,2.23619]],[[216.6464,114.84774],[-0.63906,-2.25507],[-0.07996,-1.37575]]],&quot;closed&quot;:true}]}" fill="#999999" stroke="none" stroke-width="0.5"/><path d="M293.27673,130.7051c0.84878,-0.19416 1.76464,-0.46435 2.60732,-0.67075l0.2947,-0.07148c-0.45919,1.64878 -1.08398,3.29035 -1.31861,4.67586c-0.14566,0.86014 0.02481,2.06656 -0.57011,2.84849c-0.4187,0.5503 -1.06488,0.91821 -1.52562,1.43383c-4.18814,2.16666 -10.89513,-0.84309 -12.32322,-5.40856c0.73795,-0.17968 1.5725,-0.32331 2.31307,-0.49335c-0.013,1.03843 -0.06645,1.99921 1.04724,2.74587c0.62859,0.42143 2.02448,0.00765 2.77676,0.1374c1.66308,0.28684 3.47476,0.67919 5.09545,-0.31118c1.78634,-1.09161 1.6073,-3.10922 1.60302,-4.88614z" data-paper-data="{&quot;noHover&quot;:false,&quot;origItem&quot;:[&quot;Path&quot;,{&quot;applyMatrix&quot;:true,&quot;segments&quot;:[[[228.99602,119.44923],[1.99475,-0.63529],[-1.80977,0.57637]],[[223.87455,118.52123],[1.54709,0.67426],[-0.69981,-0.305]],[[221.21087,117.72354],[0.51028,0.55887],[-0.90408,-0.99018]],[[220.85516,114.78898],[-0.25967,1.00552],[-0.75976,-0.01104]],[[218.57615,114.77001],[0.75951,0.00104],[0.30094,4.77413]],[[229.18711,122.89018],[-4.58335,1.10807],[0.57018,-0.3912]],[[230.99585,121.87445],[-0.5376,0.43489],[0.76387,-0.61794]],[[232.21885,119.26816],[-0.34611,0.80079],[0.55751,-1.28992]],[[234.61684,115.06501],[-0.83826,1.4922],[0,0]],[[234.31393,115.06501],[0,0],[-0.86758,0]],[[231.70649,115.04369],[0.8706,0.01334],[-0.41858,1.72692]]],&quot;closed&quot;:true}]}" fill="#ffffff" stroke="none" stroke-width="0.5"/><path d="M280.17284,131.55792c0.00825,-0.24425 0.0301,-0.49428 0.06982,-0.74353c0.31156,-0.23071 0.39913,-0.62262 0.39913,-0.62262l0.11016,-0.52695c0.12495,-0.82329 2.08179,-1.57677 2.92262,-2.15651c1.14834,-0.79177 1.99082,-2.57689 3.14378,-3.22592c0.73945,-0.41626 2.08004,-0.45413 2.91989,-0.70324c1.47593,0.58551 3.14621,0.4077 4.72253,0.405c0.49282,-0.00084 1.2149,-0.37562 1.47948,0.04015c0.74255,1.1669 0.86584,2.51177 0.6953,3.87274c-0.20103,-0.01619 -0.35575,0.02205 -0.35575,0.02205l-0.86027,0.21268c-4.99117,1.22252 -10.20381,2.2057 -15.24666,3.42615z" data-paper-data="{&quot;noHover&quot;:false,&quot;origItem&quot;:[&quot;Path&quot;,{&quot;applyMatrix&quot;:true,&quot;segments&quot;:[[[234.31393,113.06501],[-5.13871,0],[0,0]],[235.19936,113.06501],[[235.55002,113.12857],[-0.19141,-0.06355],[0.48943,-1.28132]],[[235.79339,109.22432],[0.44362,1.31005],[-0.15806,-0.46678]],[[234.36654,108.83718],[0.47887,0.11643],[-1.53171,-0.37239]],[[229.89216,107.34842],[1.29426,0.91983],[-0.875,0.04215]],[[226.93003,107.34842],[0.81725,-0.22839],[-1.27426,0.35609]],[[223.15035,109.69035],[1.30373,-0.49584],[-0.95461,0.36307]],[[219.7986,111.07801],[0.31723,-0.76993],[0,0]],[219.56584,111.56081],[[219.02959,112.06827],[0.3575,-0.14996],[-0.09787,0.23264]],[[218.784,112.77044],[0.06612,-0.23527],[5.18841,0.01431]]],&quot;closed&quot;:true}]}" fill="#999999" stroke="none" stroke-width="0.5"/><path d="M327.13233,154.84442c-0.30693,-0.08503 -0.63847,-0.13713 -0.98793,-0.15244c-0.19905,-0.00872 -0.39805,-0.0214 -0.59612,-0.03845c-0.18476,-0.18901 -0.4765,-0.33337 -0.92161,-0.22435c-0.08929,0.02187 -0.16865,0.05018 -0.23863,0.08313c-2.53989,-0.39656 -5.03849,-1.29351 -7.65191,-1.70516c-1.36697,-0.21532 -2.80418,0.22371 -4.15734,0.60632c1.74089,-2.32031 0.26264,-3.97962 -1.87892,-4.94959c-0.85214,-5.4955 -2.85871,-10.99037 -3.40162,-16.47726c0.73891,0.91713 1.58191,1.68331 2.47423,2.23129c1.9772,1.21423 4.08542,0.85159 6.21269,0.60403c2.19857,-0.25586 4.3651,-0.26246 5.99338,-1.92741c2.235,-2.43506 3.11053,-5.46635 2.79049,-8.58534c0.00713,-0.00916 0.01413,-0.01836 0.02099,-0.02766c0.6236,-0.84551 0.15121,-2.21178 -0.06489,-3.09406c-0.08212,-6.87043 -9.38314,-7.7311 -14.39731,-5.79376c-2.64739,1.02289 -4.58397,3.77656 -5.5373,6.37225c-0.47314,1.35512 -0.48327,2.82317 -0.16766,4.39824c-0.26551,0.15259 -0.60481,0.47321 -0.45405,1.08869c0.16243,0.66317 0.6841,0.76643 0.98772,0.7628c0.02253,0.06214 0.04781,0.12517 0.07128,0.18706c-0.00109,0.22616 0.00379,0.45567 0.00271,0.68184c0.00547,6.63768 2.50415,13.20602 3.4919,19.79716c-0.01238,0.02806 -0.0243,0.05747 -0.03545,0.08822c-0.17412,0.4803 -0.01409,0.80421 0.18429,1.00614c0.1578,1.29196 0.24721,2.58918 0.241,3.89298c0.46524,1.94784 0.88187,3.83509 1.11738,5.80363c0.05547,0.46367 0.50614,1.0343 0.38637,1.42822c-0.11841,0.02735 -0.2376,0.05466 -0.35639,0.08163c-0.08187,-0.08403 -0.16998,-0.18235 -0.26144,-0.19915c-0.51471,-0.09456 -1.19785,0.24823 -1.56766,-0.12206c-0.54954,-0.55025 -0.64482,-2.15648 -0.81558,-2.85362c-0.77338,-3.15747 -1.25202,-6.3431 -2.03262,-9.53002c-1.01328,-4.13691 -1.62946,-8.7568 -3.14593,-12.73263c-1.01388,-2.65815 -2.7039,-4.82538 -3.39099,-7.63052c0,0 -0.10094,-0.41996 -0.44527,-0.64044c0.15842,-1.70891 -0.02091,-3.26417 -1.18655,-4.53012c-1.51749,-1.64806 -5.53299,-0.41562 -7.54654,-1.08991c1.35301,-0.36376 2.66119,-0.63712 4.09675,-0.62045c0.64179,-0.09457 1.48209,0.18169 1.92979,-0.28779c0.57266,-0.6005 0.39923,-3.12847 -0.21983,-3.70572c-1.21371,-1.13174 -5.03576,-0.67381 -6.48629,-0.11337c-1.77986,0.68769 -3.22109,2.38903 -4.81538,3.33427c-1.29192,0.76596 -3.5497,0.20271 -4.74297,1.23422c-0.37691,0.32581 -0.96918,2.24498 -0.90792,3.0747c-1.14418,0.53752 -2.3976,1.01131 -3.57778,1.4122c-0.30563,-1.3468 -0.47014,-2.77145 -0.45236,-4.30249c-0.00053,-0.63603 -0.64891,-3.45358 0.05024,-3.91727c3.40281,-2.25683 7.69545,-4.08822 11.08137,-6.64424c1.81188,-1.36779 3.03591,-2.77756 5.38237,-3.38961c1.93204,-1.59274 4.07438,-3.08276 6.05946,-4.58518c0.59066,-0.44705 1.36355,-0.61455 1.98381,-1.01476c-0.37622,0.62313 -0.70147,1.44609 -1.01955,1.87856c-1.12049,1.52345 -2.14298,3.02399 -2.93013,4.70994l-0.00725,0.00616l-0.09216,-0.08473l-0.70722,0.77177c-0.22542,0.23854 -0.32774,0.58247 -0.24385,0.92497c0.13139,0.53642 0.63106,0.77391 1.16748,0.64252c0.16314,-0.03996 0.30805,-0.11826 0.42562,-0.22239l0.99354,-0.84218l-0.01709,-0.02009l0.06333,-0.02164c1.57648,-1.71169 3.57855,-2.31784 5.58963,-3.38405c3.87762,-2.05578 8.537,-5.34943 11.45274,-8.6328c2.1633,-1.14054 2.65236,-2.52931 5.36697,-2.4829c1.95099,0.03336 2.10871,1.80411 2.80708,3.1382c1.91934,3.66649 3.54071,7.09768 4.52424,11.11312c0.06402,0.25358 0.04788,0.5755 0.09982,0.83077c-1.81863,0.00167 -3.56788,-0.52552 -5.30334,-1.09316c-0.64465,0.1381 -1.29132,0.30086 -1.94255,0.47446c-1.46579,-3.93498 -4.73277,-2.04793 -8.2283,-1.65325c-2.01989,0.22807 -4.43076,0.62803 -6.14353,1.89435c-0.88801,0.65654 -1.61861,1.72651 -2.47559,2.45174l-0.63873,0.95733c0,0 -0.52989,0.75567 0.32514,1.27425c0.00694,0.00421 0.01392,0.00833 0.02082,0.01235c0.03982,0.81403 0.21732,1.66981 0.8681,1.98086c1.53452,0.73343 3.52227,-2.02621 4.7285,-2.46236c3.36858,-1.21802 7.23905,-1.59005 10.88005,-2.36871c0.08374,-0.00159 0.17478,-0.01302 0.27301,-0.03708c0.07466,-0.01829 0.14237,-0.04076 0.2034,-0.06694c0.70589,-0.159 1.40452,-0.33356 2.08701,-0.53599c1.72185,0.73438 3.63142,1.07861 5.48978,1.10712l0.23705,0.06765c0.25072,2.58701 0.07767,5.21623 0.02211,7.6998c-0.00642,0.28679 0.07285,0.56631 0.17327,0.84187c-0.1783,1.75549 -0.09833,3.56859 0.23228,5.31854c-0.07216,2.70658 -0.05241,5.45978 0.11675,8.20508c-1.43932,3.34146 0.69451,6.40192 1.08539,9.76707c0.19563,1.68407 -0.5963,2.9871 -0.67616,4.55612c-0.10217,2.0073 -0.25732,3.98671 -0.92363,5.99947z" data-paper-data="{&quot;noHover&quot;:false,&quot;origItem&quot;:[&quot;Path&quot;,{&quot;applyMatrix&quot;:true,&quot;segments&quot;:[[[261.10017,140.92828],[-0.57678,1.92536],[0.45085,-1.50499]],[[262.83561,136.66876],[-0.21064,1.68226],[0.42092,-3.36153]],[[264.09578,126.93823],[-2.19294,2.9031],[0.48881,-2.70672]],[[265.93053,118.95768],[-0.714,2.6117],[0.09521,-1.77836]],[[266.97074,113.74708],[-0.59082,1.66267],[-0.03197,-0.29154]],[[267.00302,112.8898],[-0.07446,0.27703],[0.64483,-2.39905]],[[268.81701,105.41726],[-0.37194,2.57238],[0,0]],[[268.603,105.29547],[0,0],[-1.79822,-0.46981]],[[263.53834,102.92129],[1.4977,1.12293],[-0.71105,0.03425]],[[261.38518,102.94738],[0.72345,0.0135],[-0.06551,0.01091]],[[261.17184,102.9642],[0.07687,0],[-0.10113,0]],[[260.8981,102.93558],[0.08171,0.01838],[-3.72171,-0.1099]],[[249.78349,102.66156],[3.56164,-0.38165],[-1.27535,0.13666]],[[244.61877,103.93297],[1.31598,1.07744],[-0.5581,-0.45694]],[[244.24916,101.80282],[-0.15498,0.80013],[-0.00574,-0.00556]],[[244.23193,101.78588],[0.00574,0.00574],[-0.70711,-0.7071]],[244.23193,100.37166],[[245.08211,99.59406],[0,0],[1.00491,-0.50052]],[[248.07619,97.80312],[-1.01871,0.42643],[1.96486,-0.8225]],[[254.50576,97.42999],[-2.01615,-0.25902],[3.48906,0.44826]],[[262.11681,101.00398],[-0.48755,-4.17072],[0.67383,-0.01369]],[[264.11791,101.0071],[-0.659,-0.01923],[1.55059,0.96421]],[[269.01318,103.33725],[-1.76681,-0.43104],[0.01027,-0.26031]],[[269.0261,102.55448],[0.00185,0.26153],[0,-4.13414]],[[267.28511,90.6962],[0.99196,4.01784],[-0.36093,-1.46193]],[[265.30919,86.98363],[1.88704,0.49655],[-2.62563,-0.69089]],[[259.5104,88.12162],[2.37253,-0.59313],[-3.61316,2.49542]],[[246.34936,93.78805],[4.25537,-1.07425],[-2.20699,0.55715]],[[240.12841,95.7457],[1.93843,-1.28749],[0,0]],[240.06191,95.75164],[240.0737,95.77522],[[238.91113,96.35651],[0,0],[-0.13897,0.07317]],[[238.44592,96.47108],[0.16796,0],[-0.55229,0]],[[237.44592,95.47108],[0,0.55228],[0,-0.35262]],[[237.90412,94.63042],[-0.2757,0.17806],[0,0]],[238.77664,94.04874],[238.84611,94.15294],[[238.85464,94.14868],[0,0],[1.16565,-1.45028]],[[242.82934,90.2706],[-1.45076,1.21314],[0.41184,-0.34439]],[[244.26156,88.78838],[-0.51366,0.51574],[-0.69767,0.24116]],[[242.09703,89.30218],[0.68006,-0.29369],[-2.28553,0.98702]],[[235.13397,92.31234],[2.25549,-1.08737],[-2.4247,0.03625]],[[229.11079,94.3196],[2.08526,-0.89746],[-3.89679,1.67711]],[[216.78214,98.1236],[3.84202,-1.38249],[-0.78939,0.28405]],[[215.80471,101.91159],[0.1508,-0.61789],[-0.38152,1.48285]],[[215.22359,106.1921],[0.02355,-1.38084],[1.24166,-0.10862]],[[218.94419,105.62907],[-1.23921,0.24988],[0.1379,-0.82046]],[[220.56069,102.85337],[-0.4436,0.22679],[1.40442,-0.71801]],[[225.46503,102.77796],[-1.43705,0.43662],[1.77339,-0.53881]],[[230.94519,100.67655],[-1.89236,0.24451],[1.54222,-0.19926]],[[237.23058,102.32389],[-0.90962,-1.38799],[0.46396,0.70795]],[[236.59928,106.06825],[0.69908,-0.44702],[-0.54654,0.34949]],[[234.66168,105.88576],[0.64586,0.06083],[-1.39037,-0.35772]],[[230.47359,105.43541],[1.4007,-0.03143],[1.79531,1.13396]],[[237.55674,108.2806],[-1.08184,-1.96176],[0.831,1.50691]],[[237.68822,113.04379],[0.56043,-1.62216],[0.28199,0.29606]],[[237.97021,113.76987],[0,0],[0,2.88806]],[[239.43843,121.91166],[-0.35238,-2.82304],[0.52706,4.22245]],[[239.44592,135.02009],[0,-4.2592],[0,3.28113]],[[239.15078,144.75977],[0,-3.25081],[0,0.71775]],[[239.26333,147.72542],[-0.40285,-0.66519],[0.2711,0.44763]],[[240.75445,148.21676],[-0.47744,-0.2143],[0.08483,0.03807]],[[240.96064,148.47237],[-0.05953,-0.1011],[0.12179,0.00206]],[[241.32563,148.47785],[-0.12152,-0.00161],[0.21004,-0.35412]],[[241.29026,146.99872],[-0.05643,0.46355],[0.23958,-1.96805]],[[241.5854,141.09588],[-0.01152,2.0026],[0.31623,-1.26489]],[[242.27595,137.25733],[-0.15409,1.29241],[-0.14464,-0.24332]],[[242.33614,136.23624],[-0.28339,0.42508],[0.01814,-0.02721]],[[242.39141,136.15899],[-0.0187,0.02431],[0.60867,-6.63689]],[[243.67376,116.18361],[-1.57382,6.4484],[0.05486,-0.21941]],[[243.83832,115.52536],[-0.05486,0.21941],[-0.00806,-0.0657]],[[243.81556,115.32823],[0.0071,0.06572],[-0.29577,-0.06871]],[[243.05361,114.36016],[0,0.68277],[0,-0.63366]],[[243.74934,113.40932],[-0.29419,0.08504],[0.06817,-1.60492]],[[244.99242,109.08319],[-0.78194,1.20365],[1.54348,-2.29435]],[[251.90026,104.21825],[-2.81473,0.36369],[5.33112,-0.68882]],[[264.52549,113.30177],[1.55475,-6.69271],[0,0.90836]],[[263.85325,116.32893],[0.80685,-0.67288],[-0.00888,0.00741]],[[263.82628,116.35085],[0.0091,-0.0072],[-0.43117,3.10558]],[[259.07027,124.04646],[2.75014,-1.83343],[-1.97763,1.22977]],[[252.78569,124.50206],[2.19632,0.27454],[-2.12509,-0.26564]],[[246.88821,122.44581],[1.63156,1.64975],[-0.73633,-0.74455]],[[245.02148,119.68333],[0.4995,1.06659],[-0.77803,5.45851]],[[244.35874,136.41818],[0.47973,-5.54044],[1.84931,1.45159]],[[245.00613,141.67266],[2.24292,-1.83952],[1.40533,-0.0497]],[[249.18044,142.07441],[-1.2765,-0.53435],[2.44045,1.02158]],[[256.19835,145.55442],[-2.37262,-0.98942],[0.07581,-0.01535]],[[256.44957,145.53062],[-0.09193,0],[0.45828,0]],[[257.2906,145.96818],[-0.13449,-0.22754],[0.18833,0.06368]],[[257.85989,146.14765],[-0.19126,-0.05582],[0.33578,0.09801]],[[258.78238,146.53121],[-0.27789,-0.15561],[1.12602,-1.79645]]],&quot;closed&quot;:true}]}" fill="#999999" stroke="none" stroke-width="0.5"/><path d="M278.41127,134.78329c0.44257,0.93026 0.93496,1.83924 1.2942,2.82325c2.07971,5.69661 3.45156,11.28423 2.5962,17.26524c-1.32202,2.98779 -6.07118,3.28485 -7.84782,0.52082c-3.77065,-5.86624 -5.60156,-14.011 -7.24047,-20.70215c-0.42164,-1.72143 -1.34772,-3.70141 -0.46442,-5.42947c1.07347,-2.10012 6.19615,-2.637 8.15243,-1.88262c2.15721,0.83185 2.98274,5.21835 3.50988,7.40494z" fill="#c300f0" stroke="none" stroke-width="0.5"/><path d="M327.8203,120.06495c-0.42526,-0.19571 -0.5471,-0.69313 -0.5471,-0.69313l-0.07022,-0.28668c-0.45152,-1.84341 -2.39903,-6.17317 -0.73839,-7.71579c1.49237,-1.38633 4.68382,-0.31329 6.37917,-0.72854c3.1349,1.08304 3.11775,3.54057 3.82538,6.4296c1.61169,6.58003 3.52716,14.00559 0.44299,20.2598c-3.27597,0.9168 -5.07648,-0.88553 -6.82883,-3.44903c-2.9656,-4.33834 -2.02284,-9.04439 -2.463,-13.81623z" fill="#c300f0" stroke="none" stroke-width="0.5"/><path d="M272.39091,129.13019c-0.21269,-0.22225 -0.28096,-0.50097 -0.28096,-0.50097l-0.14043,-0.57333c-0.10594,-0.43251 -0.64461,-2.51356 -0.55906,-2.77981c0.76263,-2.37344 5.15038,-2.25768 6.33996,-0.45384c1.67024,2.53271 1.91202,7.62584 2.63837,10.5913c1.27477,5.20448 3.34388,9.88746 4.02682,15.22005c0.24022,1.87572 0.60426,7.50849 -3.04149,6.38118c-1.44832,-0.44784 -2.24665,-3.65226 -2.89681,-4.90232c-1.871,-7.45289 -5.47954,-15.17073 -6.08641,-22.98227z" fill="#00b539" stroke="none" stroke-width="0.5"/><path d="M324.14376,115.86098c-0.50413,-0.15858 -0.64423,-0.73057 -0.64423,-0.73057l-0.07022,-0.28667c-0.35847,-1.48803 -1.27473,-5.09171 -0.0866,-6.36507c0.63885,-0.68467 4.34501,-0.23306 4.98367,0.26725c1.3306,1.04233 0.79451,1.70141 0.94601,2.96923c0.26156,2.18875 0.97649,4.35108 0.97831,6.56934c-0.03789,3.26237 0.85669,7.60216 2.02981,10.67425c0.74341,1.94675 2.35652,3.64063 2.32934,5.86912c-0.02594,2.12609 -1.67474,6.35613 -4.39473,4.47162c-0.9457,-0.65522 -1.28457,-2.535 -2.19303,-3.40397c-1.13352,-4.10558 -2.55864,-8.50353 -3.15168,-12.71844c-0.34487,-2.45108 -0.39224,-4.88647 -0.72668,-7.31611z" fill="#00b539" stroke="none" stroke-width="0.5"/><path d="M336.07528,128.74188c-2.48245,-0.29571 -2.18673,-2.77816 -2.18673,-2.77816l0.28367,-2.32951c-0.24278,-10.13637 0.6235,-20.59068 -1.78689,-30.43156c-1.66784,-6.84569 -4.05018,-14.12496 -7.57633,-20.2014c-1.14826,-1.97874 -1.83125,-5.16558 -3.29984,-6.89041c-1.72162,-2.022 -5.89497,-1.93911 -8.18414,-1.88711c-5.51323,0.12525 -10.92316,-0.3705 -16.43429,0.41192c-14.80711,0.64845 -33.46361,4.22432 -37.78708,20.98638c-0.81067,3.14297 -0.40342,6.72932 -0.33897,9.93003c1.4485,11.04772 2.27663,22.44362 6.00327,33.10254c1.85814,5.31466 4.83909,10.18779 7.32589,15.22127c0,0 1.10736,2.24138 -1.13402,3.34873c-2.24138,1.10736 -3.34873,-1.13402 -3.34873,-1.13402c-2.57554,-5.21311 -5.64576,-10.26292 -7.55873,-15.7737c-3.84944,-11.08933 -4.78507,-22.89253 -6.27341,-34.38744c-0.08591,-3.76507 -0.4561,-7.84215 0.47929,-11.54103c4.79808,-18.97351 25.17576,-24.02113 42.17476,-24.73174c4.75188,-0.66993 9.47489,-0.59461 14.23898,-0.37079c4.85524,0.2281 10.7548,-0.65542 14.52197,3.44527c1.80138,1.96085 2.59016,5.43992 3.93181,7.74707c3.77678,6.4947 6.31733,14.22712 8.11603,21.53491c2.52564,10.31137 1.71837,21.24817 1.92457,31.86355l-0.31289,2.67847c0,0 -0.29571,2.48245 -2.77816,2.18673z" fill="#82007c" stroke="none" stroke-width="0.5"/><path d="M289.71345,198.01755c-0.59386,-0.48783 -2.03581,-2.48064 -2.78644,-2.67593c-4.25547,-1.1071 -5.41031,1.51664 -8.53446,3.51608c-1.13463,0.28465 -2.73983,0.84541 -3.92554,0.41006c-2.70135,-0.99182 -4.29594,-4.41955 -3.20918,-7.06652c0.66454,-1.61856 2.72086,-3.20242 2.46159,-5.09614c-0.30286,-2.21212 -4.17603,-2.60675 -5.019,-4.48334c-1.08279,-2.41048 1.41886,-5.07442 2.58248,-6.99297c0.10248,-0.1685 1.44018,-2.30336 1.48608,-2.61477c0.17484,-1.18623 -1.10895,-2.84979 -1.56599,-3.75662c-1.20488,-2.39061 -4.44818,-7.03562 -4.15931,-9.797c0.38334,-3.66451 5.1215,-6.1571 6.86512,-9.08796c0,0 0.64822,-1.06878 1.71701,-0.42056c1.06878,0.64822 0.42056,1.71701 0.42056,1.71701c-1.56383,2.54008 -6.06939,5.1397 -6.5317,8.17126c-0.20458,1.34155 1.82274,3.59489 2.40456,4.64909c1.15194,2.08721 3.68103,6.27707 3.33796,8.7673c-0.14045,1.01948 -1.27789,2.74502 -1.83672,3.6687c-0.40178,0.66244 -2.96074,3.8413 -2.48355,4.57935c1.36836,2.11637 4.74502,1.9898 5.24299,5.15778c0.48904,3.11115 -3.75086,5.58792 -2.82742,8.34228c0.14833,0.44242 1.42615,1.02832 1.57201,1.16035c0.62337,0.56429 1.6736,0.58401 2.49202,0.39111c1.36907,-0.83829 1.68004,-1.94485 3.04788,-2.82057c1.97473,-1.26425 5.13831,-1.48612 7.34936,-0.73136c1.92672,0.6577 3.11245,3.16855 4.87621,4.42312c0.1802,0.90896 0.39128,1.79669 0.63863,2.68511c-1.21001,-0.3427 -2.27627,-0.995 -3.61514,-2.09484z" fill="#00b539" stroke="none" stroke-width="0.5"/><path d="M317.99012,109.21614c0,0 1.5562,-0.0537 4.39775,0.06594c2.59544,0.10928 4.73652,0.63544 4.73652,0.63544l0.46793,1.09033c0,0 -7.78612,-1.31538 -15.26957,1.19645c-5.98358,2.00843 -9.00805,5.10194 -9.00805,5.10194l-0.94925,-4.06779c0,0 2.63225,-2.39932 7.19643,-3.67309c4.72619,-1.31897 7.9992,-1.35057 7.9992,-1.35057z" data-paper-data="{&quot;index&quot;:null}" fill="#000000" stroke="none" stroke-width="1.5"/><path d="M280.01779,122.73434c0,0 2.84013,-2.56842 7.25897,-4.12722c4.89662,-1.72735 7.52942,-1.91247 7.52942,-1.91247l1.27093,3.94848c0,0 -3.88735,0.25139 -7.91172,1.40134c-5.38211,1.53791 -6.1132,2.97264 -10.13493,4.42951c-3.44604,1.24833 -6.50601,1.7571 -6.50601,1.7571l-0.31814,-1.19003c0,0 3.50955,-0.78345 5.06718,-1.31152c1.28561,-0.43586 3.63838,-1.85698 3.63838,-1.85698z" fill="#000000" stroke="none" stroke-width="1.5"/></g></g></svg>