<svg version="1.1" xmlns="http://www.w3.org/2000/svg" xmlns:xlink="http://www.w3.org/1999/xlink" width="152.88643" height="285.44059" viewBox="0,0,152.88643,285.44059"><g transform="translate(-250.54921,-22.40831)"><g data-paper-data="{&quot;isPaintingLayer&quot;:true}" fill-rule="nonzero" stroke-linejoin="miter" stroke-miterlimit="10" stroke-dasharray="" stroke-dashoffset="0" style="mix-blend-mode: normal"><path d="M284.92189,306.8489l11.62059,-93.58516l43.64314,3.40793l11.23626,90.17722z" data-paper-data="{&quot;index&quot;:null}" fill="#9b9d30" stroke="#000000" stroke-width="2" stroke-linecap="butt"/><path d="M317.68104,238.09786l-30.23979,11.89646l10.10835,-47.33816l40.04359,-3.03031l10.15487,49.81105z" data-paper-data="{&quot;index&quot;:null}" fill="#747524" stroke="#000000" stroke-width="2" stroke-linecap="butt"/><path d="M323.86115,52.54663c41.66614,-1.61692 76.84514,33.19813 78.57449,77.76157c1.72936,44.56344 -30.6458,82.00004 -72.31194,83.61696c-41.66614,1.61692 -76.84514,-33.19812 -78.57449,-77.76157c-1.72936,-44.56344 30.6458,-82.00005 72.31194,-83.61696z" data-paper-data="{&quot;index&quot;:null}" fill="#747524" stroke="#000000" stroke-width="2" stroke-linecap="butt"/><path d="M325.36605,69.47846c37.53822,-1.45673 69.16545,28.1942 70.64138,66.22719c1.47593,38.033 -27.75835,70.04575 -65.29656,71.50248c-37.53822,1.45673 -69.16544,-28.1942 -70.64137,-66.22719c-1.47593,-38.033 27.75835,-70.04575 65.29656,-71.50248z" data-paper-data="{&quot;index&quot;:null}" fill="#000000" stroke="none" stroke-width="0" stroke-linecap="butt"/><path d="M330.36488,200.27748c-35.45043,1.3757 -65.23556,-24.48523 -66.52692,-57.76204c-1.29136,-33.27679 26.40006,-61.36822 61.85049,-62.74393c35.45043,-1.3757 65.23556,24.48523 66.52692,57.76204c1.29136,33.27679 -26.40006,61.36822 -61.85049,62.74393z" data-paper-data="{&quot;index&quot;:null}" fill="#ffff70" stroke="#000000" stroke-width="2" stroke-linecap="butt"/><path d="M330.40894,199.42898c-35.00894,1.35858 -64.42054,-24.11362 -65.69262,-56.89373c-0.03951,-1.01808 10.18944,57.55215 65.67357,54.42858c58.07071,-3.2692 61.07681,-60.07586 61.10504,-59.34842c1.27208,32.78011 -26.07706,60.455 -61.08599,61.81357z" data-paper-data="{&quot;index&quot;:null}" fill="#6c6d22" stroke="#000000" stroke-width="0" stroke-linecap="butt"/><path d="M393.03746,152.45784c0,0 -29.67982,17.24496 -64.06051,18.27635c-38.37882,1.15134 -63.48677,-10.57461 -63.48677,-10.57461c0,0 -19.64758,-80.024 57.76468,-84.55356c75.37487,-4.41036 69.7826,76.85181 69.7826,76.85181z" data-paper-data="{&quot;index&quot;:null}" fill-opacity="0.20144" fill="#000000" stroke="none" stroke-width="0" stroke-linecap="butt"/><path d="M356.13953,162.86166c-12.95824,0.50286 -23.87064,-9.59422 -24.3735,-22.55247c-0.50286,-12.95824 9.59422,-23.87064 22.55247,-24.3735c12.95824,-0.50286 23.87064,9.59422 24.3735,22.55247c0.50286,12.95824 -9.59422,23.87064 -22.55247,24.3735z" data-paper-data="{&quot;index&quot;:null}" fill="#ffffff" stroke="#000000" stroke-width="2" stroke-linecap="butt"/><path d="M358.85876,157.73438c-9.12121,0.35396 -16.80235,-6.75329 -17.15631,-15.8745c-0.35396,-9.12121 6.75329,-16.80236 15.8745,-17.15632c9.12121,-0.35396 16.80235,6.75329 17.15631,15.8745c0.35396,9.12121 -6.75328,16.80236 -15.8745,17.15632z" data-paper-data="{&quot;index&quot;:null}" fill="#000000" stroke="none" stroke-width="0" stroke-linecap="butt"/><path d="M349.63164,189.3885c0,0 -8.85102,0.84183 -12.9296,1.00011c-4.27568,0.16592 -12.16111,-0.02642 -12.16111,-0.02642l7.90856,-12.00024z" data-paper-data="{&quot;index&quot;:null}" fill="#000000" stroke="#000000" stroke-width="2" stroke-linecap="round"/><path d="M277.5484,142.41317c-0.50286,-12.95824 9.59422,-23.87064 22.55247,-24.3735c12.95824,-0.50286 23.87064,9.59422 24.3735,22.55247c0.50286,12.95824 -9.59422,23.87064 -22.55247,24.3735c-12.95824,0.50286 -23.87064,-9.59422 -24.3735,-22.55247z" data-paper-data="{&quot;index&quot;:null}" fill="#ffffff" stroke="#000000" stroke-width="2" stroke-linecap="butt"/><path d="M287.72928,144.01679c-0.35396,-9.12121 6.75329,-16.80236 15.87449,-17.15632c9.1212,-0.35396 16.80235,6.75329 17.15631,15.87451c0.35396,9.12121 -6.75329,16.80235 -15.8745,17.15631c-9.1212,0.35396 -16.80234,-6.75329 -17.1563,-15.8745z" data-paper-data="{&quot;index&quot;:null}" fill="#000000" stroke="none" stroke-width="0" stroke-linecap="butt"/><path d="M365.28125,107.72499c0,0 -8.73458,-1.83256 -12.95256,-1.80215c-4.03619,0.02909 -11.83399,1.98085 -11.83399,1.98085c0,0 6.59601,-3.54701 11.82242,-3.58469c5.22641,-0.03767 12.96411,3.406 12.96411,3.406z" data-paper-data="{&quot;index&quot;:null}" fill="#000000" stroke="none" stroke-width="0" stroke-linecap="butt"/><path d="M301.2145,107.92393c-4.21651,0.11507 -12.8827,2.24774 -12.8827,2.24774c0,0 7.61434,-3.70845 12.83894,-3.85102c5.22461,-0.14256 11.93902,3.17489 11.93902,3.17489c0,0 -7.86046,-1.6817 -11.89526,-1.5716z" data-paper-data="{&quot;index&quot;:null}" fill="#000000" stroke="none" stroke-width="0" stroke-linecap="butt"/><g data-paper-data="{&quot;index&quot;:null}" stroke="#000000" stroke-width="2" stroke-linecap="butt"><path d="M389.11781,78.82651c0,0 -37.155,1.38572 -54.73444,-0.08059c-17.9446,-1.49678 -51.86018,-8.81065 -51.86018,-8.81065l17.4813,-44.25176c0,0 26.2359,-3.09741 39.91869,-2.06422c12.47306,0.94183 38.88536,8.01465 38.88536,8.01465l10.30926,47.19257z" fill="#ffffff"/><path d="M388.75058,78.73687c0,0 -35.55652,2.62931 -52.99794,1.38274c-17.77116,-1.27014 -53.36491,-10.17787 -53.36491,-10.17787l2.40282,-5.79433c0,0 33.91517,6.52949 50.7562,7.79851c17.30068,1.30365 51.70603,-0.07767 51.70603,-0.07767l1.49778,6.8686z" fill="#9b9d30"/><path d="M332.89963,53.65327c0,0 -6.09159,-4.86774 -11.12645,-6.97578c-6.71117,-2.8099 -25.57686,-8.3916 -25.57686,-8.3916l2.41677,-6.54885c0,0 16.63283,4.96379 23.72208,7.7634c6.3799,2.51949 16.9101,8.28254 16.9101,8.28254z" fill="#9b9d30"/><path d="M320.20567,69.48166c0,0 2.6529,-12.79347 17.14373,-21.00546c19.17998,-10.86937 41.22731,-11.03574 41.22731,-11.03574l1.89349,6.89687c0,0 -23.29983,1.78012 -39.92514,10.89182c-12.27635,6.72822 -12.42507,14.81816 -12.42507,14.81816z" fill="#9b9d30"/></g></g></g></svg>