<svg version="1.1" xmlns="http://www.w3.org/2000/svg" xmlns:xlink="http://www.w3.org/1999/xlink" width="138.86502" height="456.85313" viewBox="0,0,138.86502,456.85313"><g transform="translate(-264.04694,94.57224)"><g data-paper-data="{&quot;isPaintingLayer&quot;:true}" fill-rule="nonzero" stroke-linejoin="miter" stroke-miterlimit="10" stroke-dasharray="" stroke-dashoffset="0" style="mix-blend-mode: normal"><path d="M341.60261,40.76879l12.40838,124.58801l-65.61184,0.42112l13.38024,-117.18262l41.31791,-10.86447z" fill="#b5b54a" stroke="#b5b54a" stroke-width="2.5" stroke-linecap="round"/><path d="M287.46275,12.35308c0,0 -14.33396,-29.24941 -4.55179,-53.96272c2.86218,-7.23089 10.97817,-20.8236 24.32884,-29.69128c12.11244,-8.04525 31.12026,-11.5518 43.24976,-9.98715c14.10066,1.81892 31.69349,13.92145 40.93234,25.97005c8.51067,11.09896 11.43885,19.27548 11.48522,27.50976c0.04439,7.88584 -0.1658,17.43598 -2.82674,25.84726c-4.00024,12.64483 -11.02927,22.94151 -11.02927,22.94151l-96.05879,-8.13026l-5.52958,-0.49719z" data-paper-data="{&quot;index&quot;:null}" fill="#fafab0" stroke="none" stroke-width="0" stroke-linecap="round"/><path d="M345.19724,236.36581l11.60849,124.66508h-65.61319l14.13207,-117.09433l41.38678,-10.59906z" fill="#e5e61c" stroke="#e5e61c" stroke-width="2.5" stroke-linecap="round"/><path d="M310.99763,132.1094l0.15217,-47.59703c0,0 10.25453,-1.05314 14.7759,-0.04596c4.78289,1.06544 7.91376,5.621 7.91376,5.621l0.97255,8.91801c0,0 -3.76927,10.94469 -9.25635,10.60715c-4.20403,-0.25861 -13.79254,-0.84847 -13.79254,-0.84847" fill="none" stroke="#29291b" stroke-width="2.5" stroke-linecap="round"/><path d="M326.65169,327.25573l0.43867,-39.91981" fill="none" stroke="#29291b" stroke-width="2.5" stroke-linecap="round"/><path d="M306.94164,292.7457l38.18971,-10.11864" fill="none" stroke="#29291b" stroke-width="2.5" stroke-linecap="round"/><path d="M371.78306,35.24177c0,0 -6.28692,9.96069 -18.30691,18.04742c-8.73649,5.87767 -21.8148,10.4763 -31.31691,10.94786c-9.33592,0.46331 -21.38284,-1.72423 -30.64648,-6.58665c-13.13706,-6.89555 -22.10371,-17.32816 -22.10371,-17.32816z" fill="#fafab0" stroke="none" stroke-width="0" stroke-linecap="round"/><path d="M361.30983,-10.61873c0.63653,-7.0795 3.8533,-12.57574 7.18482,-12.27618c3.33154,0.29956 5.51625,6.28145 4.8797,13.36095c-0.63655,7.07947 -3.8533,12.57573 -7.18483,12.27617c-3.33154,-0.29956 -5.51624,-6.28145 -4.87969,-13.36096z" data-paper-data="{&quot;index&quot;:null}" fill="#29291b" stroke="#29291b" stroke-width="2.5" stroke-linecap="butt"/><path d="M332.88561,-13.82155c0.63655,-7.0795 3.8533,-12.57574 7.18482,-12.27618c3.33154,0.29956 5.51625,6.28145 4.8797,13.36096c-0.63655,7.07949 -3.85329,12.57572 -7.18482,12.27617c-3.33154,-0.29957 -5.51626,-6.28144 -4.87971,-13.36094z" data-paper-data="{&quot;index&quot;:null}" fill="#29291b" stroke="#29291b" stroke-width="2.5" stroke-linecap="butt"/><path d="M320.81808,-93.92963l14.04187,8.20787l1.94732,-8.08869l18.1976,10.08604l0.34185,-2.33137l13.63476,8.98754l0.53389,-4.0405l20.22929,23.52113l-40.99653,-13.81943l5.13127,6.94035l-21.12815,-7.93904l6.46399,11.43022l-21.63894,-13.10875l-0.84886,3.52584l-10.99991,-15.37475l20.88236,3.49141z" data-paper-data="{&quot;index&quot;:null}" fill="#fcfc00" stroke="#fcfc00" stroke-width="0.5" stroke-linecap="round"/><path d="M376.86736,220.72449l-5.55092,0.10384l-96.39351,1.2985c0,0 -6.28123,-10.76918 -9.37479,-23.66583c-2.05782,-8.57878 -1.5903,-18.11979 -0.98685,-25.98263c0.63011,-8.21026 4.13071,-16.15859 13.40697,-26.62612c10.06993,-11.36317 28.47666,-22.18778 42.67079,-23.00228c12.20993,-0.70064 30.92124,4.14489 42.43275,13.02874c12.68828,9.79202 19.82002,23.92601 22.16226,31.34164c8.0052,25.34474 -8.36668,53.50415 -8.36668,53.50415z" fill="#fafab0" stroke="none" stroke-width="0" stroke-linecap="round"/><path d="M375.27866,220.41993c0,0 -6.77291,9.63683 -19.17894,17.11784c-9.01708,5.43741 -22.30726,9.38216 -31.82106,9.38216c-9.34741,0 -21.2711,-2.78196 -30.28234,-8.09756c-12.77913,-7.53823 -21.21766,-18.40245 -21.21766,-18.40245z" fill="#fafab0" stroke="none" stroke-width="0" stroke-linecap="round"/><path d="M314.57147,178.80515c0.13296,7.10681 -2.47042,12.91875 -5.81481,12.98131c-3.34439,0.06256 -6.16332,-5.64793 -6.29627,-12.75474c-0.13296,-7.10681 2.47042,-12.91875 5.81481,-12.98131c3.34439,-0.06256 6.16332,5.64793 6.29627,12.75474z" fill="#29291b" stroke="#29291b" stroke-width="2.5" stroke-linecap="butt"/><path d="M348.1213,179.35273c0.13296,7.10681 -2.47042,12.91875 -5.81481,12.98131c-3.34439,0.06256 -6.16332,-5.64793 -6.29627,-12.75474c-0.13296,-7.10681 2.47042,-12.91875 5.81481,-12.98131c3.34439,-0.06256 6.16332,5.64793 6.29627,12.75474z" fill="#29291b" stroke="#29291b" stroke-width="2.5" stroke-linecap="butt"/><path d="M288.48346,116.40664l15.65801,4.40113l-0.15562,-8.31833l20.15308,5.17049l-0.25718,-2.3422l15.46069,5.25827l-0.5024,-4.04454l25.50748,17.65888l-43.15659,-3.03321l6.71576,5.42187l-22.44741,-2.3538l9.13778,9.4305l-24.24553,-7.22759l0.06783,3.62596l-14.52191,-12.10352l21.08787,-1.88807z" fill="#29291b" stroke="none" stroke-width="0" stroke-linecap="round"/></g></g></svg>