<svg version="1.1" xmlns="http://www.w3.org/2000/svg" xmlns:xlink="http://www.w3.org/1999/xlink" width="218.13438" height="267.30062" viewBox="0,0,218.13438,267.30062"><g transform="translate(-150.00291,-42.77117)"><g data-paper-data="{&quot;isPaintingLayer&quot;:true}" fill-rule="nonzero" stroke-linecap="butt" stroke-linejoin="miter" stroke-miterlimit="10" stroke-dasharray="" stroke-dashoffset="0" style="mix-blend-mode: normal"><path d="M151.58104,235.9936c0,0 63.18946,-91.37918 115.30988,-72.80443c7.50208,2.6736 23.20912,1.81367 29.09228,-1.99341c8.49353,-5.49629 20.82917,-8.27224 25.75029,-8.1941c31.59876,0.50175 39.23272,30.31233 39.07022,37.72025c-1.04155,46.23107 -1.80795,117.97444 -1.80795,117.97444l-10.49639,-0.12292l2.23772,-114.82142c0,0 0.14015,-3.09705 -2.74982,-3.21223c-3.4323,-0.13679 -3.00975,3.05348 -3.00975,3.05348l-2.19163,114.84922l-48.20467,-0.9339l2.09932,-115.21437c0,0 0.34034,-2.91253 -2.82374,-2.99401c-0.91702,-0.02361 -32.636,-20.79484 -51.03569,-14.06724c-30.45011,21.5866 -52.29582,73.86856 -52.29582,73.86856z" fill="#999999" stroke="#000000" stroke-width="2"/><path d="M320.95035,265.25241c-0.81877,-0.01709 -1.46866,-0.69469 -1.45157,-1.51346c0.01709,-0.81877 0.69469,-1.46866 1.51346,-1.45157c0.81877,0.01709 1.46866,0.69469 1.45157,1.51346c-0.01709,0.81877 -0.69469,1.46866 -1.51346,1.45157z" data-paper-data="{&quot;index&quot;:null}" fill="#000000" stroke="none" stroke-width="1.5"/><path d="M295.98907,308.02574l2.48745,-119.17551c0,0 0.96011,-9.71313 1.06253,-14.62038c0.09386,-4.49702 -0.47143,-13.70002 -0.47143,-13.70002c0,0 2.72171,-2.29667 4.7329,-3.6501c2.01119,-1.35343 5.22935,-2.69517 5.22935,-2.69517c0,0 -1.43845,40.08773 13.72084,40.33377c15.4329,0.25048 14.66404,-39.74132 14.66404,-39.74132c0,0 3.8802,1.60091 6.10302,3.07457c2.22282,1.47366 4.67752,3.70365 4.67752,3.70365c0,0 -0.95371,9.40678 -1.0532,14.17312c-0.10104,4.84088 0.45156,14.65198 0.45156,14.65198l-2.47692,118.67082z" fill="#0f0e02" stroke="#000000" stroke-width="2"/><path d="M339.84436,94.78567c0,0 1.55181,0.12849 4.35993,0.57931c2.56489,0.41178 4.62983,1.18448 4.62983,1.18448l0.33733,1.13754c0,0 -7.5791,-2.21608 -15.30478,-0.59579c-6.17726,1.29557 -9.54245,4.01452 -9.54245,4.01452l-0.46748,-4.15084c0,0 2.89455,-2.07534 7.5763,-2.80713c4.84792,-0.75774 8.10221,-0.40672 8.10221,-0.40672z" data-paper-data="{&quot;index&quot;:null}" fill="#000000" stroke="none" stroke-width="1.5"/><path d="M300.55267,103.77471c0,0 3.12077,-2.219 7.69147,-3.25084c5.06491,-1.14342 7.7013,-1.01966 7.7013,-1.01966l0.8009,4.06993c0,0 -3.89009,-0.20452 -8.02126,0.46736c-5.52494,0.89855 -6.41864,2.23803 -10.58305,3.21504c-3.56829,0.83715 -6.66674,0.98492 -6.66674,0.98492l-0.17692,-1.21905c0,0 3.57705,-0.36804 5.18571,-0.7105c1.32773,-0.28266 3.83042,-1.41917 3.83042,-1.41917z" fill="#000000" stroke="none" stroke-width="1.5"/><path d="M311.84321,154.68798l-0.6583,-0.51333c-2.41863,-1.90249 -5.01639,-2.58848 -7.38923,-4.43881c-0.04175,-0.03256 -0.6865,-0.37773 -1.21777,-0.77623c-0.01038,0.2036 -0.0468,0.39152 -0.11095,0.52014c-0.04351,0.08722 -0.09252,0.17063 -0.14603,0.25094l0.05447,0.02732l-0.47014,0.93734c-0.14286,0.29548 -0.42808,0.51467 -0.77802,0.55797c-0.54811,0.06782 -1.04741,-0.32153 -1.11523,-0.86964l-0.11647,-0.94135c-1.13229,-1.19633 -2.04091,-2.84567 -3.20775,-3.92835c-1.58153,-1.46747 -4.03818,-2.71536 -5.2049,-4.67088c-0.80115,-1.34282 -0.84791,-2.88319 -1.90789,-4.07353c-0.87067,-1.07795 -1.81137,-2.94581 -2.18428,-4.32905c-0.11377,-0.422 -0.6513,-3.853 -1.12279,-3.74963c-1.491,0.32688 -2.3042,2.33454 -3.33015,3.23151c-2.25488,1.97144 -4.69452,3.57131 -7.52846,3.7604l0.0383,0.30951l-1.17164,0.14497c-0.54811,0.06782 -1.04741,-0.32153 -1.11523,-0.86964c-0.0433,-0.34994 0.09977,-0.68 0.35152,-0.89055l0.79449,-0.68442c2.17478,-1.85447 3.94954,-3.74297 5.54235,-6.05883c-1.14417,0.3324 -2.37688,0.3723 -3.84329,0.23527c-0.6895,-0.06443 -2.89933,-0.3026 -3.19921,-0.81869c-0.3636,-0.62572 0.93259,-2.76408 1.26205,-3.26144c1.60439,-2.42204 4.31395,-5.30203 5.08172,-8.1084c0.328,-1.19892 0.193,-2.21062 0.77298,-3.36696c0.17704,-1.63515 0.44286,-3.04018 0.92092,-4.57483c0.03897,-0.12511 0.05997,-0.30442 0.0807,-0.48865c-0.17397,0.13984 -0.36032,0.26714 -0.49138,0.35191c-1.2699,0.82145 -3.68104,1.98241 -4.90267,0.19029c-1.34519,-1.97339 1.04338,-4.55817 2.12104,-5.91128c1.05584,-1.32571 1.08933,-3.29307 0.89369,-4.87426c0.97471,-7.958 1.80491,-16.25152 5.55323,-23.72474c2.72174,-5.4265 6.84396,-11.11307 10.66786,-15.74832c0.94886,-1.15021 2.65419,-1.77659 3.82892,-2.76449c2.04095,-0.78711 3.66317,-2.32884 5.87513,-2.88725c6.93613,-1.75104 14.55532,-0.69847 21.586,-1.46185c2.65883,0.90451 5.35713,0.61062 8.09158,1.43946c3.59617,1.09003 6.88609,3.15629 10.37567,4.37606c2.66377,0.9311 4.36962,1.31205 6.28576,3.59056c1.19337,3.03271 3.04334,5.55496 3.83549,8.73173c1.34894,5.40971 0.74865,12.51339 3.89961,17.25267c0.41848,3.01205 2.91644,5.03605 4.44701,7.59549c1.74139,2.91198 2.35439,5.88255 3.54939,8.96128c0.97935,2.52319 2.10724,4.46734 1.23093,6.6551l0.36506,0.18311l-0.47014,0.93734c-0.14285,0.29548 -0.42808,0.51467 -0.77802,0.55797c-0.4723,0.05844 -0.90836,-0.22258 -1.06333,-0.65213l-0.38309,-0.99334c-1.69027,-1.91678 -2.25842,-4.2637 -4.15233,-6.06022c-0.08202,-0.07781 -0.16828,-0.14642 -0.25663,-0.20804c1.46233,4.77647 1.4205,10.09123 0.85808,14.9062c-0.68163,5.5651 -1.60356,10.69053 -2.14109,16.30078c-0.26792,2.79634 -0.33277,5.4237 -1.73243,7.53126l0.34525,0.26922l-0.77,0.98744c-0.15738,0.20181 -0.39174,0.34359 -0.66579,0.3775c-0.5481,0.06782 -1.04741,-0.32153 -1.11523,-0.86964l-0.14497,-1.17164c-0.0362,-0.30132 -0.41682,-1.44842 -0.67243,-2.47761c-0.17359,0.83199 -0.40875,1.66179 -0.43579,1.77475c-0.4522,1.88876 -1.07927,3.10466 -2.09877,4.29654l0.12087,0.06926l-0.72797,1.27026c-0.15011,0.26865 -0.4218,0.46462 -0.75061,0.5053c-0.5481,0.06782 -1.04741,-0.32153 -1.11523,-0.86964c-0.01123,-0.0908 -0.00992,-0.18025 0.00258,-0.26663l0.13397,-1.09376c-0.14725,-1.16191 -0.39886,-2.79347 -0.4335,-4.17715c-0.40673,0.46214 -0.86075,0.89716 -1.11754,1.2957c-1.57018,2.43689 -3.17785,4.31972 -5.19838,6.21177c-0.95354,1.47877 -2.06413,2.81071 -3.30359,3.99414c-0.15627,0.31188 -0.3127,0.62369 -0.4691,0.93551c-1.77658,3.54206 -4.94785,6.24836 -7.81011,8.66586c-0.78111,0.65974 -1.18565,1.85017 -2.24785,2.45771c-2.8792,1.64678 -8.08073,0.41158 -9.87436,-2.16791c-0.62768,-0.74484 -0.88311,-2.01575 -1.64514,-2.56363c-1.88075,-1.3522 -3.73856,-2.63873 -5.55455,-4.0632c-0.35183,-0.01323 -0.62682,-0.22766 -0.62682,-0.22766zM319.25443,157.40166c1.02841,0.84839 1.16254,1.97588 2.00877,2.93213c1.10308,1.7645 5.30498,2.83077 7.25333,1.66074c0.97076,-0.58296 1.17477,-1.56013 1.9313,-2.22287c1.66484,-1.45845 3.49936,-2.96698 5.04731,-4.72475c-3.09354,1.76502 -6.60689,2.88288 -10.28886,3.33845c-2.6732,0.31515 -4.31951,-0.53492 -6.60498,-1.50685c0.22087,0.17213 0.43883,0.34636 0.65313,0.52314zM339.29414,148.7506l0.82676,-1.06815c0,0 0.27162,-0.34832 0.68531,-0.40145c0.36034,-0.31479 0.70945,-0.62921 1.04856,-0.94452c0.404,-0.63164 0.77986,-1.29224 1.1257,-1.98177c1.12034,-0.74415 0.00445,-1.31972 -1.3314,-1.72558l-0.00545,0.01232c-2.20492,0.85034 -4.02703,2.26587 -6.10876,3.12182c-2.07501,0.85319 -4.71244,0.46626 -6.88578,1.18769c-0.4847,0.05885 -0.97271,0.11613 -1.46346,0.17095c-0.18586,0.04682 -0.40587,0.06902 -0.64696,0.07059c-3.87975,0.41292 -7.91378,0.64883 -11.82625,0.27363c-2.8986,-0.27798 -6.33289,-1.62319 -9.14937,-1.22255c0,0 -0.20059,0.02482 -0.43256,-0.03804c0.02827,0.17541 0.07202,0.3644 0.13233,0.56888c2.78362,1.21565 5.36997,3.86477 7.73779,5.75057c1.66137,1.32318 4.12255,1.56442 6.03382,2.36575c2.14283,0.89841 3.48957,1.82879 5.92629,1.50976c5.19478,-0.64274 9.89212,-2.64256 13.49583,-5.98969c0.2784,-0.5538 0.55738,-1.1073 0.8376,-1.66021zM350.03499,116.63022c0.85978,-0.38634 1.00583,-1.27391 1.73223,-2.20974c2.60373,-3.35439 2.7358,-6.5687 2.24923,-10.7436c-0.87435,-2.52534 -2.98491,0.3089 -3.56242,1.7063c-0.34553,0.83608 -0.62092,1.70997 -0.82261,2.60584c0.11515,0.47606 0.28833,0.95388 0.21966,1.42779c-0.18474,1.27498 -0.36773,2.55749 -0.54324,3.84712c0.11595,1.14529 0.35608,2.27754 0.72715,3.36629zM345.17503,135.28453c0.26264,-1.54896 1.19678,-2.74499 1.19926,-4.44038c0.00496,-3.38778 -1.76407,-6.66122 0.0558,-9.81163c0.15275,-2.74626 0.453,-5.46584 0.8409,-8.14545c-0.12388,-1.77659 0.01033,-3.57625 0.39252,-5.29889c-0.06753,-0.28541 -0.11311,-0.57068 -0.07323,-0.85476c0.34536,-2.46008 0.82943,-5.04015 0.88269,-7.63874l-0.22735,-0.09459c-1.8423,-0.24545 -3.69361,-0.80379 -5.31786,-1.73431c-0.70146,0.1213 -1.41403,0.21485 -2.13365,0.29028c-0.06367,0.01887 -0.13337,0.03345 -0.20967,0.04289c-0.10036,0.01242 -0.19183,0.01343 -0.27518,0.00521c-3.70704,0.34793 -7.57631,0.27674 -11.06415,1.09285c-1.24892,0.29223 -3.53119,2.80366 -4.96952,1.89598c-0.60999,-0.38495 -0.68394,-1.25553 -0.62839,-2.06863c-0.00638,-0.00481 -0.01277,-0.00971 -0.01917,-0.0147c-0.78859,-0.61492 -0.17365,-1.40351 -0.17365,-1.40351l0.74826,-0.87611c0.93584,-0.62013 1.79287,-1.59673 2.75151,-2.14504c1.84899,-1.05755 4.3024,-1.16931 6.3351,-1.15982c3.5177,0.01644 6.99631,-1.46693 7.99231,2.61236c0.66705,-0.09633 1.32997,-0.18078 1.98634,-0.24262c1.65725,0.76651 3.33798,1.50059 5.14435,1.71141c-0.02177,-0.2596 -0.04935,-0.51911 -0.08329,-0.77842c-0.50764,-4.10285 -1.70612,-7.68914 -3.18393,-11.55476c-0.53771,-1.40655 -0.48311,-3.18077 -2.41684,-3.44185c-2.6906,-0.36325 -3.33343,0.96146 -5.61517,1.84143c-3.2794,2.92021 -8.2744,5.65097 -12.36565,7.23963c-2.12187,0.82394 -4.16781,1.19095 -5.93349,2.70673l-0.06528,0.01405l0.01461,0.02195l-1.0824,0.71965c-0.12893,0.08968 -0.28093,0.1502 -0.44762,0.17083c-0.54811,0.06782 -1.04741,-0.32154 -1.11523,-0.86964c-0.0433,-0.34995 0.09976,-0.68 0.35151,-0.89055l0.79449,-0.68442l0.08174,0.09488l0.00793,-0.00527c0.97874,-1.58244 2.1776,-2.95469 3.46843,-4.3368c0.36643,-0.39235 0.79292,-1.07197 1.23937,-1.64687c-0.66278,0.325 -1.4462,0.40074 -2.08505,0.77571c-2.14704,1.2602 -4.43584,2.48628 -6.54074,3.84238c-2.4019,0.33371 -3.77183,1.58495 -5.73111,2.73167c-3.66136,2.14292 -8.12507,3.44529 -11.76825,5.28908c-0.74854,0.37883 -0.4311,3.24762 -0.5049,3.87935c-0.19655,1.51848 -0.1973,2.94618 -0.05111,4.31946c1.21893,-0.26026 2.42416,-0.61548 3.62331,-1.01563c0.03611,-0.83118 0.85104,-2.67363 1.26343,-2.95318c1.30563,-0.88503 3.48541,-0.06728 4.85798,-0.67706c1.69381,-0.75249 3.33263,-2.2834 5.18064,-2.75843c1.50608,-0.38713 5.36693,-0.40272 6.44011,0.86308c0.54738,0.64562 0.47216,3.26406 -0.16674,3.79354c-0.49949,0.41396 -1.29689,0.03787 -1.94535,0.0568c-1.42377,-0.18429 -2.82546,-0.13586 -4.2117,0.06732c1.92097,0.90493 6.06438,0.13983 7.37892,1.95391c1.00975,1.39347 1.07237,3.0323 0.71537,4.711c0.31621,0.25919 0.36901,0.68596 0.36901,0.68596c0.35463,2.8662 1.7605,5.14148 2.45686,7.89989c1.04156,4.12578 1.09405,8.78134 1.61705,13.0083c0.4029,3.2563 0.50388,6.47601 0.90306,9.70222c0.08813,0.71232 -0.00562,2.31871 0.47586,2.92939c0.32401,0.41095 1.04003,0.15046 1.54017,0.30451c0.08886,0.02737 0.16453,0.13534 0.23603,0.22837c0.12112,-0.01291 0.24209,-0.02605 0.36289,-0.03938c0.16497,-0.37723 -0.21581,-0.99662 -0.21673,-1.46359c-0.0039,-1.98258 -0.19744,-3.90555 -0.43192,-5.89441c0.15852,-1.29415 0.21975,-2.59275 0.21398,-3.8943c-0.17342,-0.22372 -0.2947,-0.56409 -0.06565,-1.02075c0.01466,-0.02923 0.02979,-0.05702 0.04537,-0.08345c-0.2109,-6.6614 -1.95028,-13.38882 -1.18019,-19.98168c0.0275,-0.22449 0.05498,-0.44898 0.08249,-0.67348c-0.01607,-0.06421 -0.03168,-0.12849 -0.04679,-0.19284c-0.30197,-0.03187 -0.79121,-0.18958 -0.87505,-0.86718c-0.07781,-0.62886 0.29219,-0.90855 0.57371,-1.02907c-0.12942,-1.60115 0.07423,-3.15547 0.70246,-4.44603c1.25007,-2.46652 3.50942,-4.9698 6.25819,-5.67636c5.20619,-1.33823 14.36623,0.63152 13.64508,7.4645c0.11154,0.90149 0.42268,2.31992 -0.29544,3.08679c-0.0079,0.00844 -0.01593,0.0168 -0.02407,0.02507c-0.04656,3.13502 -1.27087,6.06413 -3.77505,8.22138c-1.81166,1.4633 -3.96767,1.22662 -6.18108,1.22385c-2.14163,-0.00268 -4.28354,0.1204 -6.10534,-1.31652c-0.82218,-0.6485 -1.56513,-1.51518 -2.19182,-2.51235c-0.10188,5.51274 1.19296,11.13217 1.39718,16.68959c2.01356,1.21352 3.28777,3.03422 1.28771,5.13523c1.38859,-0.22189 2.85959,-0.48743 4.19204,-0.11386c2.54742,0.71418 4.91597,1.90134 7.39213,2.59193c0.07335,-0.02454 0.15516,-0.04318 0.2464,-0.05447c0.45481,-0.05627 0.72697,0.12167 0.88839,0.33098c0.19472,0.04007 0.39035,0.07629 0.58703,0.10821c0.34527,0.05604 0.6677,0.14707 0.9626,0.26738c0.89691,-1.92112 1.27627,-3.86351 1.61226,-5.84514zM299.86757,125.71797c0.73052,5.90418 2.90081,11.42697 3.63902,17.39329l0.13233,1.06955c1.2089,-2.81677 5.31656,-4.3086 8.68853,-4.35059c1.83963,-0.02291 4.36526,0.95924 6.1482,0.16715c0.62959,-0.27971 1.11688,-0.5783 1.6415,-0.82881c-3.83783,-2.05414 -2.82124,-5.74916 0.88376,-6.62425c-0.00873,-0.07288 -0.01759,-0.14578 -0.02662,-0.2187c-0.51252,-4.14231 -0.55035,-8.72663 -1.57218,-12.76763c-0.51669,-2.04336 -1.39506,-3.82507 -1.98383,-5.76883c-0.62502,1.50794 -1.31152,2.93562 -1.65118,4.12397c-0.33631,1.17663 -0.40288,2.49609 -1.31055,3.48384c-0.60552,0.65893 -1.45614,1.04382 -2.14045,1.6205c-5.04542,1.97342 -11.30192,-1.02819 -13.65011,-5.74752c0.70233,2.73128 0.86259,5.70845 1.20156,8.44802zM334.5843,94.77262c-2.11109,0.25473 -4.66577,-0.13491 -6.60256,1.02819c-0.77146,0.46328 -1.46797,1.17646 -2.20737,1.75615c-0.03081,0.21997 -0.08546,0.55047 -0.15118,0.83652c0.81566,-0.65879 2.88025,-1.56854 3.13566,-1.63646c1.29126,-0.34331 2.50639,-0.17801 3.79366,-0.172c2.20426,0.01029 4.47915,-0.36988 6.7343,-0.73628c-0.63999,-1.96257 -2.51466,-1.34012 -4.70253,-1.07612zM298.17085,110.60765c0,0 0.13943,-0.39347 0.49233,-0.58189l0.0697,-0.19075c0.97712,-1.62352 2.36689,-1.81208 4.02474,-2.66843c0.84867,-0.43838 1.52236,-1.24147 2.24932,-1.9144c-3.11381,1.09161 -6.19238,2.45735 -9.31596,3.15567c0.45816,2.19655 1.25304,4.29256 2.16417,6.45209c-0.24829,-1.35552 -0.17347,-2.7923 0.31568,-4.2523zM314.90826,145.47574c2.50955,0.24045 5.07187,0.22902 7.60592,0.07496c-0.53113,-1.0249 -0.50718,-2.47489 -0.63684,-3.52287c-0.0553,-0.44695 -0.10487,-0.89358 -0.15031,-1.34005c-1.46569,0.28965 -2.34135,1.14713 -3.89511,1.36125c-3.79925,0.52354 -6.65489,-0.65478 -10.20802,1.20043c-0.67469,0.35227 -1.26858,0.6328 -1.71141,0.963c2.91299,-0.13577 6.07329,0.98328 8.99576,1.26328zM328.20911,144.99997c1.99266,-0.66145 4.67494,-0.24752 6.51552,-1.06522c1.34014,-0.59538 2.58441,-1.36868 3.89744,-2.07575c-3.58336,-1.05084 -6.09538,-2.22293 -10.025,-1.73673l-0.11871,0.2057c0,0 -0.12465,0.08287 -0.30955,0.13627c0.16989,1.53685 0.24369,3.10536 -0.05145,4.54724c0.0306,-0.00384 0.06119,-0.00767 0.09176,-0.01152zM321.08954,137.42082l0.36536,0.12357c-0.07787,-0.99939 -0.15378,-1.99991 -0.24559,-3.00337c-1.76928,0.47497 -2.38365,1.807 -0.11977,2.8798zM326.97514,111.90223c-0.00807,0.06587 -0.01614,0.13174 -0.0242,0.19761c0.60221,2.05358 1.75129,3.9922 3.08004,5.01005c1.46273,1.12049 3.18449,0.89158 4.87426,0.89369c1.53574,0.00192 3.69183,0.40194 4.87697,-0.73913c1.76632,-1.52161 2.9452,-3.7216 3.12311,-6.00371c-0.95922,0.0938 -2.06602,0.02173 -3.01314,-0.07945c-0.97593,5.76612 -7.1014,2.73016 -10.55013,1.0221c0,0 -0.44707,-0.22423 -0.55027,-0.6717c-0.60058,0.08375 -1.20938,0.16585 -1.82897,0.2431zM342.507,108.75856l0.4035,0.08l0.10708,-0.67384c0,0 0.04993,-0.24809 0.22438,-0.46954c-0.02853,-0.08522 -0.05006,-0.16826 -0.05986,-0.24746c0.2914,-2.03439 -0.56081,-2.85563 -1.98848,-3.97402c-0.50751,-0.39757 -0.70619,-1.25184 -1.33341,-1.40095c-0.72476,-0.1723 -1.49504,0.11413 -2.23474,0.02573c-4.68033,-0.55933 -8.31339,-0.07734 -10.55891,4.45654c-0.47192,0.90356 -0.62715,2.0401 -0.54214,3.24178c2.00024,-0.2839 4.04168,-0.61405 6.07517,-0.80701c3.23322,-0.41335 6.39853,-0.66098 9.90739,-0.23122zM308.14785,102.33036c2.18547,-0.54854 4.41376,-0.83231 6.72896,-0.56188c0.96348,0.72239 0.41033,-0.50301 0.30962,-0.61278c-0.44043,-0.48008 -3.6436,-0.36001 -4.39452,-0.1755c-0.91755,0.22544 -1.78722,0.78143 -2.64405,1.35016zM310.67636,117.91018c-1.7253,0.79423 -3.57849,0.18709 -5.19666,-0.2921c-0.73197,-0.21676 -2.16644,0.0274 -2.74147,-0.46458c-1.01883,-0.87167 -0.84759,-1.83889 -0.71336,-2.86867c-0.75537,0.08234 -1.51021,0.16879 -2.2641,0.26102c0.88489,4.70105 7.11516,8.41827 11.52776,6.75578c0.51783,-0.45825 1.19021,-0.73253 1.67033,-1.23014c0.68221,-0.70706 0.64855,-1.89952 0.89371,-2.73675c0.3949,-1.34862 1.21504,-2.88195 1.86373,-4.46579l-0.30062,0.0372c-0.86101,0.10653 -1.72468,0.20535 -2.59033,0.29902c-0.20336,1.76525 -0.24734,3.8296 -2.14899,4.70503zM315.1701,110.92127l0.87872,-0.10872c0,0 0.15805,-0.01956 0.35581,0.02001c0.32839,-1.33172 0.36324,-2.65893 -0.23789,-3.90459c-0.21418,-0.44384 -0.97406,-0.15226 -1.46359,-0.209c-1.56585,-0.18149 -3.22591,-0.17413 -4.62333,-0.92807c-0.8632,0.14927 -2.15669,0.03671 -2.93971,0.36373c-1.22089,0.50987 -2.23053,2.13615 -3.4635,2.78832c-0.9028,0.47754 -2.9357,0.98568 -3.15598,1.78874l-0.17173,0.50772c0,0 -0.1335,0.37674 -0.46988,0.56947c-0.06856,0.2429 -0.12078,0.4854 -0.15751,0.72701c5.1509,-0.6229 10.34875,-0.98363 15.44858,-1.61462zM327.95475,136.54481c0.70453,-0.42669 0.52108,-0.89463 0.06527,-1.30393c-0.01241,0.4352 -0.03377,0.86988 -0.06527,1.30393z" fill="#000000" stroke="none" stroke-width="0.5"/><path d="M349.27965,113.30523c0.1755,-1.28963 0.33693,-2.61839 0.52167,-3.89337c0.06867,-0.47391 -0.09481,-0.9767 -0.20996,-1.45277c0.2017,-0.89587 0.50194,-1.78747 0.84747,-2.62355c0.57751,-1.3974 2.72074,-4.23084 3.59509,-1.7055c0.48657,4.17491 0.33666,7.48604 -2.26707,10.84044c-0.7264,0.93583 -0.88431,1.82188 -1.74407,2.20823c-0.37107,-1.08874 -0.62718,-2.22819 -0.74313,-3.37348z" data-paper-data="{&quot;noHover&quot;:false,&quot;origItem&quot;:[&quot;Path&quot;,{&quot;applyMatrix&quot;:true,&quot;segments&quot;:[[[268.21396,123.01191],[-0.23457,-1.12607],[0.90071,-0.27784]],[[270.20442,121.0316],[-0.83582,0.83955],[2.99592,-3.00929]],[[273.75586,110.64549],[-0.02976,4.20306],[-0.55764,-2.61359]],[[270.01088,111.90144],[0.74473,-1.31591],[-0.44558,0.78732]],[[268.87451,114.38655],[0.31018,-0.86432],[0.05582,0.4866]],[[268.9172,115.83051],[0.12634,-0.46189],[-0.3399,1.24265]],[[267.90567,119.58181],[0.33253,-1.25832],[-0.02556,1.15086]]],&quot;closed&quot;:true}]}" fill="#ffffff" stroke="none" stroke-width="0.5"/><path d="M326.91534,111.759c0.61959,-0.07726 1.23047,-0.16461 1.83105,-0.24836c0.10321,0.44748 0.54911,0.67443 0.54911,0.67443c3.44874,1.70807 9.66114,4.73289 10.63706,-1.03323c0.94712,0.10118 2.05944,0.18293 3.01867,0.08913c-0.17791,2.28211 -1.35995,4.52776 -3.12627,6.04936c-1.18513,1.14107 -3.38941,0.76487 -4.92515,0.76296c-1.68977,-0.00211 -3.45103,0.19906 -4.91376,-0.92143c-1.32875,-1.01786 -2.48088,-2.9925 -3.08309,-5.04609c0.00807,-0.06587 0.01647,-0.13282 0.02453,-0.19869z" data-paper-data="{&quot;noHover&quot;:false,&quot;origItem&quot;:[&quot;Path&quot;,{&quot;applyMatrix&quot;:true,&quot;segments&quot;:[[[245.90918,115.48812],[0,0],[-0.0161,0.06438]],[[245.8609,115.68126],[0.0161,-0.06438],[0.34549,2.11199]],[[248.30242,121.0316],[-1.19371,-1.17332],[1.31407,1.29162]],[[253.03005,122.51705],[-1.67672,-0.20959],[1.52388,0.19048]],[[257.96087,122.38236],[-1.31628,0.98691],[1.9398,-1.2932]],[[261.79756,116.80758],[-0.45679,2.24299],[-0.96348,-0.0247]],[[258.81698,116.35875],[0.92753,0.21671],[-1.67658,5.60265]],[[248.22118,116.07763],[3.2129,2.11862],[0,0]],[[247.75755,115.34344],[0.04748,0.45677],[-0.60632,0.00937]],[[245.91257,115.36011],[0.62439,-0.00059],[0,0]]],&quot;closed&quot;:true}]}" fill="#ffffff" stroke="none" stroke-width="0.5"/><path d="M328.0102,135.19185c0.45582,0.40931 0.63535,0.97434 -0.06918,1.40103c0.03149,-0.43405 0.05676,-0.96583 0.06918,-1.40103z" data-paper-data="{&quot;noHover&quot;:false,&quot;origItem&quot;:[&quot;Path&quot;,{&quot;applyMatrix&quot;:true,&quot;segments&quot;:[[[243.85545,140.0645],[0.08455,-0.4269],[0.75159,-0.33695]],[[244.08034,138.77845],[0.40211,0.46218],[-0.06576,0.43038]]],&quot;closed&quot;:true}]}" fill="#ffffff" stroke="none" stroke-width="0.5"/><path d="M321.22889,134.49501c0.09182,1.00346 0.17571,2.09169 0.25358,3.09108l-0.37283,-0.1195c-2.26387,-1.0728 -1.65003,-2.49661 0.11924,-2.97158z" data-paper-data="{&quot;noHover&quot;:false,&quot;origItem&quot;:[&quot;Path&quot;,{&quot;applyMatrix&quot;:true,&quot;segments&quot;:[[[236.93463,140.09088],[-2.11501,-1.34267],[0,0]],[[237.28205,140.25838],[0,0],[0.04544,-1.00139]],[[237.40711,137.24758],[-0.03209,1.00714],[-1.81421,0.25412]]],&quot;closed&quot;:true}]}" fill="#999999" stroke="none" stroke-width="0.5"/><path d="M328.07448,145.03721c0.29515,-1.44187 0.21633,-3.05048 0.04643,-4.58732c0.1849,-0.0534 0.31022,-0.13836 0.31022,-0.13836l0.11953,-0.20791c3.92964,-0.48621 6.53802,0.70352 10.12139,1.75436c-1.31301,0.70706 -2.5765,1.52077 -3.91664,2.11615c-1.84057,0.8177 -4.59637,0.39037 -6.58902,1.05182c-0.03057,0.00385 -0.06132,0.00742 -0.09192,0.01125z" data-paper-data="{&quot;noHover&quot;:false,&quot;origItem&quot;:[&quot;Path&quot;,{&quot;applyMatrix&quot;:true,&quot;segments&quot;:[[[243.06965,148.48691],[-0.03081,0.00007],[2.0588,-0.41176]],[[249.66667,148.22981],[-1.92705,0.5855],[1.40311,-0.42631]],[[253.7895,146.64835],[-1.3899,0.54048],[-3.42721,-1.4829]],[[244.05361,143.69377],[3.9596,0],[0,0]],[243.91054,143.88335],[[243.58661,143.98057],[0.19006,-0.03029],[-0.02011,1.54608]],[[242.97718,148.48708],[0.46997,-1.39472],[0.03084,-0.00005]]],&quot;closed&quot;:true}]}" fill="#999999" stroke="none" stroke-width="0.5"/><path d="M305.86251,144.2131c0.44284,-0.3302 1.03716,-0.61791 1.71184,-0.97018c3.55311,-1.85523 6.50204,-0.69459 10.3013,-1.21813c1.55378,-0.21411 2.43131,-1.06785 3.897,-1.3575c0.04543,0.44648 0.09769,0.90065 0.15299,1.3476c0.12967,1.04798 0.1067,2.51938 0.63783,3.54428c-2.53405,0.15406 -5.12062,0.20031 -7.63017,-0.04013c-2.92247,-0.28 -6.1578,-1.44171 -9.07079,-1.30593z" data-paper-data="{&quot;noHover&quot;:false,&quot;origItem&quot;:[&quot;Path&quot;,{&quot;applyMatrix&quot;:true,&quot;segments&quot;:[[[229.81105,147.32584],[-2.86597,-0.63674],[2.46103,0.54678]],[[237.35022,148.33418],[-2.53379,-0.15827],[-0.40126,-1.08236]],[[237.15078,144.75977],[0,1.05597],[0,-0.45036]],[[237.16616,143.41141],[-0.00974,0.44868],[-1.49016,0.10748]],[[233.13337,144.28406],[1.56831,-0.0217],[-3.83479,0.05306]],[[222.8552,144.22195],[3.75403,-1.40489],[-0.71284,0.26676]],[[221.03849,144.9675],[0.48003,-0.27332],[2.90762,0.22295]]],&quot;closed&quot;:true}]}" fill="#999999" stroke="none" stroke-width="0.5"/><path d="M338.50652,150.41203c-3.60371,3.34713 -8.35071,5.39573 -13.54549,6.03847c-2.43672,0.31902 -3.82251,-0.62971 -5.96534,-1.52812c-1.91127,-0.80133 -4.38271,-1.06418 -6.04409,-2.38736c-2.3678,-1.8858 -4.95449,-4.55327 -7.73811,-5.76892c-0.0603,-0.20447 -0.10382,-0.39479 -0.13209,-0.57018c0.23198,0.06286 0.43259,0.03793 0.43259,0.03793c2.81648,-0.40063 6.25138,0.94188 9.14998,1.21986c3.91246,0.37521 8.01939,0.10811 11.89914,-0.30482c0.24109,-0.00157 0.46705,-0.01985 0.65291,-0.06667c0.49074,-0.0548 0.98665,-0.10454 1.47135,-0.1634c2.17335,-0.72142 4.81879,-0.3212 6.89379,-1.17439c2.08173,-0.85595 3.81184,-2.23232 6.01676,-3.08266l0.09681,-0.05299c1.33585,0.40585 2.45372,0.98666 1.33339,1.73081c-0.34584,0.68952 -0.72055,1.35445 -1.12454,1.98609c-0.33912,0.31532 -0.68781,0.63185 -1.04815,0.94664c-0.41369,0.05313 -0.68516,0.40234 -0.68516,0.40234l-0.82636,1.07133c-0.28022,0.55291 -0.559,1.11224 -0.8374,1.66604z" data-paper-data="{&quot;noHover&quot;:false,&quot;origItem&quot;:[&quot;Path&quot;,{&quot;applyMatrix&quot;:true,&quot;segments&quot;:[[[253.61024,153.57032],[-0.34599,0.51432],[0,0]],[254.5619,152.61178],[[255.29132,152.29752],[-0.41708,0.00193],[0.39627,-0.26816]],[[256.44793,151.4889],[-0.37527,0.27129],[0.4785,-0.57725]],[[257.80846,149.66036],[-0.42789,0.64184],[1.20324,-0.60095]],[[256.69903,147.78435],[1.27591,0.56681],[0,0]],[[256.69211,147.79591],[0,0],[-2.29265,0.57316]],[[250.24624,150.14399],[2.17108,-0.59385],[-2.16407,0.59194]],[[243.26673,150.47717],[2.24549,-0.44909],[-0.48826,-0.00111]],[[241.79335,150.46712],[0.49376,0.00587],[-0.1902,0.02364]],[[241.14262,150.45773],[0.23946,0.02805],[-3.90109,-0.06661]],[[229.37227,149.27711],[3.83678,0.85279],[-2.84253,-0.6318]],[[220.44226,146.94034],[2.84436,-0.05176],[0,0]],[[220.01764,146.84947],[0.22251,0.09087],[0.00652,0.17755]],[[220.07911,147.43028],[-0.03474,-0.21033],[2.61328,1.54826]],[[227.05221,154.08748],[-2.11832,-2.16228],[1.48632,1.51717]],[[232.74987,157.17625],[-1.79841,-1.02996],[2.0163,1.15474]],[[238.44592,159.40229],[-2.45745,0.01739],[5.23439,0]],[[252.57511,155.11512],[-3.98744,2.87929],[0.3443,-0.51542]]],&quot;closed&quot;:true}]}" fill="#999999" stroke="none" stroke-width="0.5"/><path d="M298.63054,117.23469c2.34818,4.71933 8.65499,7.70845 13.70041,5.73503c0.68432,-0.57667 1.54339,-0.95807 2.1489,-1.617c0.90767,-0.98775 0.92934,-2.21787 1.26566,-3.3945c0.33966,-1.18835 1.06858,-2.70659 1.6936,-4.21453c0.58877,1.94375 1.48073,3.73465 1.99742,5.77801c1.02183,4.041 1.07292,8.67671 1.58544,12.81902c0.00902,0.07292 0.01761,0.14668 0.02634,0.21956c-3.70499,0.87509 -4.73455,4.59042 -0.89672,6.64455c-0.52462,0.25051 -1.01689,0.55325 -1.64648,0.83295c-1.78294,0.79209 -4.32952,-0.1812 -6.16915,-0.15829c-3.37198,0.04198 -7.50862,1.53016 -8.71752,4.34693l-0.13394,-1.0703c-0.73821,-5.96632 -2.93418,-11.54875 -3.6647,-17.45293c-0.33896,-2.73957 -0.48692,-5.73723 -1.18925,-8.46851z" data-paper-data="{&quot;noHover&quot;:false,&quot;origItem&quot;:[&quot;Path&quot;,{&quot;applyMatrix&quot;:true,&quot;segments&quot;:[[[217.31028,125.87069],[0,-2.76046],[0,5.9492]],[[218.78599,143.5792],[0,-6.01182],[0,0]],[[218.78599,144.65691],[0,0],[1.54563,-2.64701]],[[227.94299,141.40613],[-3.35162,-0.37239],[1.82852,0.20316]],[[234.02415,142.32697],[-1.86671,0.56716],[0.65917,-0.20028]],[[235.755,141.706],[-0.55141,0.18419],[-3.55655,-2.50985]],[[237.44548,135.2404],[-3.78441,0.41352],[0.00029,-0.0734]],[[237.44592,135.02009],[0,0.07348],[0,-4.1739]],[[237.45341,122.15603],[0.51789,4.13589],[-0.26187,-2.09134]],[[236.19296,116.18725],[0.34564,2.00134],[-0.80545,1.41978]],[[234.04788,120.07726],[0.48301,-1.13765],[-0.47825,1.12643]],[[232.31946,123.37381],[1.02209,-0.86882],[-0.68185,0.57959]],[[229.99622,124.71921],[0.74995,-0.48828],[-5.24956,1.33894]],[[217.15516,117.33905],[1.75091,4.97196],[0.36163,2.79685]]],&quot;closed&quot;:true}]}" fill="#999999" stroke="none" stroke-width="0.5"/><path d="M332.57273,109.03193c-2.0335,0.19297 -4.09298,0.50289 -6.09322,0.7868c-0.08501,-1.20169 0.06535,-2.35552 0.53728,-3.25908c2.24552,-4.53388 5.95974,-5.05945 10.64007,-4.50012c0.7397,0.0884 1.51921,-0.18827 2.24397,-0.01597c0.62721,0.14911 0.83232,1.01559 1.33983,1.41316c1.42768,1.11841 2.282,1.96574 1.9906,4.00013c0.0098,0.07921 0.03108,0.16354 0.05961,0.24875c-0.17444,0.22146 -0.22507,0.47236 -0.22507,0.47236l-0.10825,0.6775l-0.40362,-0.07966c-3.50886,-0.42977 -6.74797,-0.15724 -9.98121,0.25612z" data-paper-data="{&quot;noHover&quot;:false,&quot;origItem&quot;:[&quot;Path&quot;,{&quot;applyMatrix&quot;:true,&quot;segments&quot;:[[[261.70952,114.27544],[-3.42953,-0.85738],[0,0]],[262.10014,114.40438],[262.28915,113.74879],[[262.56949,113.31035],[-0.20031,0.19836],[-0.01785,-0.08808]],[[262.54047,113.05741],[0,0.07981],[0.539,-1.98321]],[[261.05502,108.86928],[1.27954,1.28525],[-0.45485,-0.45688]],[[259.90374,107.3152],[0.60415,0.225],[-0.69812,-0.25999]],[[257.68275,107.06633],[0.72325,0.17856],[-4.57623,-1.12981]],[[246.65652,110.19259],[2.78525,-4.22384],[-0.5793,0.83877]],[[245.72042,113.34326],[0.06319,-1.20303],[2.01996,-0.03614]],[[251.84871,113.28834],[-2.04181,-0.05819],[3.25951,-0.01321]]],&quot;closed&quot;:true}]}" fill="#999999" stroke="none" stroke-width="0.5"/><path d="M297.82898,114.90254c-0.91113,-2.15953 -1.72713,-4.3143 -2.18529,-6.51085c3.12358,-0.69833 6.28226,-2.08563 9.39607,-3.17724c-0.72696,0.67293 -1.46135,1.55524 -2.31003,1.99362c-1.65784,0.85635 -2.97027,1.01085 -3.94739,2.63438l-0.06923,0.18603c-0.3529,0.18842 -0.49306,0.57027 -0.49306,0.57027c-0.48915,1.46 -0.63937,2.94828 -0.39107,4.3038z" data-paper-data="{&quot;noHover&quot;:false,&quot;origItem&quot;:[&quot;Path&quot;,{&quot;applyMatrix&quot;:true,&quot;segments&quot;:[[[217.48184,110.66638],[-0.66473,1.38889],[0,0]],[[218.0419,110.14936],[-0.37337,0.14366],[0,0]],[[218.1345,109.96861],[0,0],[1.16908,-1.49125]],[[222.45645,107.81458],[-1.75045,0.6463],[0.89608,-0.33085]],[[224.92382,106.19087],[-0.80409,0.57857],[-3.22429,0.701]],[[215.29088,108.17873],[3.18569,-0.30949],[0.18497,2.23619]],[[216.6464,114.84774],[-0.63906,-2.25507],[-0.07996,-1.37575]]],&quot;closed&quot;:true}]}" fill="#999999" stroke="none" stroke-width="0.5"/><path d="M312.78952,113.24002c0.86565,-0.09366 1.80681,-0.25499 2.66783,-0.36153l0.30103,-0.03656c-0.64869,1.58384 -1.46099,3.14116 -1.85589,4.48978c-0.24516,0.83723 -0.21681,2.05531 -0.89901,2.76237c-0.48013,0.49761 -1.16487,0.78751 -1.68269,1.24576c-4.4126,1.66249 -10.72201,-2.11028 -11.6069,-6.81132c0.75389,-0.09223 1.59951,-0.13737 2.35487,-0.21971c-0.13423,1.0298 -0.29957,1.97775 0.71925,2.84942c0.57504,0.49198 2.00973,0.24413 2.74169,0.46089c1.61818,0.47919 3.3716,1.08052 5.09691,0.28628c1.90165,-0.87542 1.95956,-2.90014 2.16292,-4.66539z" data-paper-data="{&quot;noHover&quot;:false,&quot;origItem&quot;:[&quot;Path&quot;,{&quot;applyMatrix&quot;:true,&quot;segments&quot;:[[[228.99602,119.44923],[1.99475,-0.63529],[-1.80977,0.57637]],[[223.87455,118.52123],[1.54709,0.67426],[-0.69981,-0.305]],[[221.21087,117.72354],[0.51028,0.55887],[-0.90408,-0.99018]],[[220.85516,114.78898],[-0.25967,1.00552],[-0.75976,-0.01104]],[[218.57615,114.77001],[0.75951,0.00104],[0.30094,4.77413]],[[229.18711,122.89018],[-4.58335,1.10807],[0.57018,-0.3912]],[[230.99585,121.87445],[-0.5376,0.43489],[0.76387,-0.61794]],[[232.21885,119.26816],[-0.34611,0.80079],[0.55751,-1.28992]],[[234.61684,115.06501],[-0.83826,1.4922],[0,0]],[[234.31393,115.06501],[0,0],[-0.86758,0]],[[231.70649,115.04369],[0.8706,0.01334],[-0.41858,1.72692]]],&quot;closed&quot;:true}]}" fill="#ffffff" stroke="none" stroke-width="0.5"/><path d="M299.67573,112.55598c0.03673,-0.24161 0.08765,-0.48738 0.15621,-0.73028c0.33638,-0.19272 0.46914,-0.57172 0.46914,-0.57172l0.17097,-0.51047c0.22029,-0.80306 2.25176,-1.32274 3.15456,-1.80027c1.23298,-0.65218 2.27827,-2.32664 3.49916,-2.83652c0.78302,-0.32701 2.11885,-0.20799 2.98206,-0.35727c1.39741,0.75394 3.07702,0.7725 4.64287,0.95399c0.48954,0.05675 1.25046,-0.23111 1.46466,0.21273c0.60113,1.24566 0.56644,2.59573 0.23805,3.92745c-0.19776,-0.03957 -0.35589,-0.01967 -0.35589,-0.01967l-0.87923,0.11071c-5.09982,0.631 -10.39163,0.99841 -15.54254,1.62131z" data-paper-data="{&quot;noHover&quot;:false,&quot;origItem&quot;:[&quot;Path&quot;,{&quot;applyMatrix&quot;:true,&quot;segments&quot;:[[[234.31393,113.06501],[-5.13871,0],[0,0]],[235.19936,113.06501],[[235.55002,113.12857],[-0.19141,-0.06355],[0.48943,-1.28132]],[[235.79339,109.22432],[0.44362,1.31005],[-0.15806,-0.46678]],[[234.36654,108.83718],[0.47887,0.11643],[-1.53171,-0.37239]],[[229.89216,107.34842],[1.29426,0.91983],[-0.875,0.04215]],[[226.93003,107.34842],[0.81725,-0.22839],[-1.27426,0.35609]],[[223.15035,109.69035],[1.30373,-0.49584],[-0.95461,0.36307]],[[219.7986,111.07801],[0.31723,-0.76993],[0,0]],[219.56584,111.56081],[[219.02959,112.06827],[0.3575,-0.14996],[-0.09787,0.23264]],[[218.784,112.77044],[0.06612,-0.23527],[5.18841,0.01431]]],&quot;closed&quot;:true}]}" fill="#999999" stroke="none" stroke-width="0.5"/><path d="M343.59287,141.16959c-0.29489,-0.12031 -0.61807,-0.21079 -0.96335,-0.26683c-0.19667,-0.03191 -0.39282,-0.06776 -0.58755,-0.10784c-0.16141,-0.2093 -0.43429,-0.38676 -0.88909,-0.33049c-0.09123,0.01129 -0.17336,0.03014 -0.2467,0.05468c-2.47616,-0.69059 -4.85286,-1.87333 -7.40028,-2.58751c-1.33245,-0.37356 -2.81111,-0.10545 -4.1997,0.11643c2.00007,-2.10101 0.72581,-3.92168 -1.28775,-5.13521c-0.20423,-5.55742 -1.55505,-11.2491 -1.45317,-16.76184c0.62669,0.99718 1.3744,1.8566 2.19659,2.50509c1.82179,1.43692 3.95794,1.32309 6.09956,1.32576c2.21341,0.00277 4.36587,0.24934 6.17752,-1.21396c2.5042,-2.15725 3.7279,-5.06548 3.77446,-8.2005c0.00815,-0.00826 0.01618,-0.01658 0.02408,-0.02502c0.71812,-0.76686 0.40859,-2.17896 0.29705,-3.08045c0.72117,-6.83297 -8.41559,-8.77445 -13.62178,-7.43622c-2.74877,0.70657 -4.99382,3.21512 -6.24389,5.68164c-0.62822,1.29056 -0.80981,2.74737 -0.68039,4.34853c-0.28152,0.12052 -0.65595,0.39931 -0.57814,1.02818c0.08384,0.6776 0.58987,0.8411 0.89183,0.87298c0.01512,0.06435 0.03286,0.1299 0.04894,0.19411c-0.0275,0.22449 -0.04948,0.45299 -0.07697,0.67749c-0.77009,6.59285 0.94405,13.40815 1.15494,20.06955c-0.01557,0.02642 -0.03085,0.05424 -0.04551,0.08347c-0.22905,0.45666 -0.10795,0.79706 0.06547,1.02078c0.00577,1.30155 -0.05699,2.60033 -0.2155,3.89447c0.23447,1.98886 0.42774,3.91186 0.43165,5.89443c0.00092,0.46697 0.38183,1.08636 0.21686,1.46358c-0.1208,0.01332 -0.24236,0.02652 -0.36349,0.03943c-0.07149,-0.09303 -0.14751,-0.20096 -0.23638,-0.22833c-0.50014,-0.15405 -1.21865,0.10658 -1.54266,-0.30439c-0.48148,-0.61069 -0.38845,-2.21705 -0.47658,-2.92937c-0.39918,-3.22621 -0.50234,-6.44594 -0.90523,-9.70224c-0.523,-4.22697 -0.59518,-8.8872 -1.63674,-13.01299c-0.69636,-2.75841 -2.1216,-5.10825 -2.47623,-7.97445c0,0 -0.05118,-0.42888 -0.36739,-0.68807c0.357,-1.6787 0.36061,-3.24426 -0.64914,-4.63773c-1.31454,-1.81407 -5.44653,-1.05923 -7.36751,-1.96416c1.38624,-0.20319 2.71741,-0.32183 4.14118,-0.13755c0.64844,-0.01894 1.45071,0.35361 1.9502,-0.06035c0.6389,-0.52948 0.76202,-3.0604 0.21464,-3.70602c-1.07317,-1.26579 -4.92254,-1.25755 -6.42862,-0.87043c-1.84802,0.47503 -3.47816,1.99633 -5.17196,2.74882c-1.37256,0.60978 -3.54907,-0.21341 -4.85469,0.67161c-0.41239,0.27954 -1.22483,2.11637 -1.26094,2.94756c-1.19915,0.40015 -2.49934,0.72425 -3.71827,0.98451c-0.14619,-1.37328 -0.14311,-2.8074 0.05343,-4.32588c0.07379,-0.63173 -0.24096,-3.50574 0.50757,-3.88457c3.64319,-1.8438 8.1204,-3.16111 11.78176,-5.30402c1.95928,-1.14672 3.33964,-2.40382 5.74154,-2.73754c2.1049,-1.3561 4.40665,-2.58561 6.55368,-3.84581c0.63885,-0.37497 1.42601,-0.45103 2.08879,-0.77603c-0.44644,0.57491 -0.86562,1.35423 -1.23206,1.74658c-1.29082,1.3821 -2.48161,2.7529 -3.46036,4.33534l-0.00792,0.00527l-0.08163,-0.09491l-0.79255,0.68385c-0.25175,0.21057 -0.39355,0.54019 -0.35025,0.89014c0.06782,0.5481 0.53631,0.84234 1.08441,0.77452c0.16669,-0.02062 0.31976,-0.08146 0.44869,-0.17114l1.08513,-0.72033l-0.01463,-0.02195l0.06542,-0.01409c1.76567,-1.51577 3.82485,-1.88386 5.94673,-2.7078c4.09126,-1.58865 9.10354,-4.31536 12.38293,-7.23557c2.28174,-0.87997 2.92971,-2.20209 5.62031,-1.83884c1.93373,0.26108 1.88348,2.03813 2.42119,3.44467c1.47781,3.86563 2.68719,7.46276 3.19483,11.5656c0.03395,0.25932 -0.01969,0.57716 0.00207,0.83675c-1.80637,-0.21083 -3.48205,-0.93878 -5.1393,-1.7053c-0.65637,0.06184 -1.31763,0.14792 -1.98468,0.24425c-0.99599,-4.07929 -4.46108,-2.58687 -7.97879,-2.60329c-2.0327,-0.00949 -4.47379,0.10605 -6.32279,1.16359c-0.95864,0.54829 -1.80924,1.52558 -2.74509,2.1457l-0.74621,0.87615c0,0 -0.61455,0.68858 0.17403,1.30352c0.0064,0.00499 0.01285,0.0099 0.01923,0.0147c-0.05556,0.81311 0.02073,1.68377 0.63072,2.06872c1.43832,0.90769 3.73488,-1.6008 4.98381,-1.89303c3.48782,-0.81611 7.37525,-0.73337 11.08229,-1.0813c0.08335,0.00821 0.1751,0.00749 0.27547,-0.00493c0.07629,-0.00944 0.14616,-0.02385 0.20983,-0.04272c0.71963,-0.07544 1.43387,-0.16717 2.13534,-0.28848c1.62425,0.93053 3.48053,1.4955 5.32283,1.74095l0.22752,0.09488c-0.05326,2.59858 -0.53231,5.18958 -0.87766,7.64965c-0.03988,0.28408 0.00618,0.57094 0.07372,0.85635c-0.38219,1.72264 -0.5146,3.53266 -0.39071,5.30925c-0.3879,2.67961 -0.68995,5.41626 -0.84271,8.16252c-1.81987,3.15041 -0.05823,6.43922 -0.0632,9.82699c-0.00248,1.69539 -0.94122,2.89697 -1.20385,4.44592c-0.33599,1.98161 -0.72135,3.92934 -1.61826,5.85047z" data-paper-data="{&quot;noHover&quot;:false,&quot;origItem&quot;:[&quot;Path&quot;,{&quot;applyMatrix&quot;:true,&quot;segments&quot;:[[[261.10017,140.92828],[-0.57678,1.92536],[0.45085,-1.50499]],[[262.83561,136.66876],[-0.21064,1.68226],[0.42092,-3.36153]],[[264.09578,126.93823],[-2.19294,2.9031],[0.48881,-2.70672]],[[265.93053,118.95768],[-0.714,2.6117],[0.09521,-1.77836]],[[266.97074,113.74708],[-0.59082,1.66267],[-0.03197,-0.29154]],[[267.00302,112.8898],[-0.07446,0.27703],[0.64483,-2.39905]],[[268.81701,105.41726],[-0.37194,2.57238],[0,0]],[[268.603,105.29547],[0,0],[-1.79822,-0.46981]],[[263.53834,102.92129],[1.4977,1.12293],[-0.71105,0.03425]],[[261.38518,102.94738],[0.72345,0.0135],[-0.06551,0.01091]],[[261.17184,102.9642],[0.07687,0],[-0.10113,0]],[[260.8981,102.93558],[0.08171,0.01838],[-3.72171,-0.1099]],[[249.78349,102.66156],[3.56164,-0.38165],[-1.27535,0.13666]],[[244.61877,103.93297],[1.31598,1.07744],[-0.5581,-0.45694]],[[244.24916,101.80282],[-0.15498,0.80013],[-0.00574,-0.00556]],[[244.23193,101.78588],[0.00574,0.00574],[-0.70711,-0.7071]],[244.23193,100.37166],[[245.08211,99.59406],[0,0],[1.00491,-0.50052]],[[248.07619,97.80312],[-1.01871,0.42643],[1.96486,-0.8225]],[[254.50576,97.42999],[-2.01615,-0.25902],[3.48906,0.44826]],[[262.11681,101.00398],[-0.48755,-4.17072],[0.67383,-0.01369]],[[264.11791,101.0071],[-0.659,-0.01923],[1.55059,0.96421]],[[269.01318,103.33725],[-1.76681,-0.43104],[0.01027,-0.26031]],[[269.0261,102.55448],[0.00185,0.26153],[0,-4.13414]],[[267.28511,90.6962],[0.99196,4.01784],[-0.36093,-1.46193]],[[265.30919,86.98363],[1.88704,0.49655],[-2.62563,-0.69089]],[[259.5104,88.12162],[2.37253,-0.59313],[-3.61316,2.49542]],[[246.34936,93.78805],[4.25537,-1.07425],[-2.20699,0.55715]],[[240.12841,95.7457],[1.93843,-1.28749],[0,0]],[240.06191,95.75164],[240.0737,95.77522],[[238.91113,96.35651],[0,0],[-0.13897,0.07317]],[[238.44592,96.47108],[0.16796,0],[-0.55229,0]],[[237.44592,95.47108],[0,0.55228],[0,-0.35262]],[[237.90412,94.63042],[-0.2757,0.17806],[0,0]],[238.77664,94.04874],[238.84611,94.15294],[[238.85464,94.14868],[0,0],[1.16565,-1.45028]],[[242.82934,90.2706],[-1.45076,1.21314],[0.41184,-0.34439]],[[244.26156,88.78838],[-0.51366,0.51574],[-0.69767,0.24116]],[[242.09703,89.30218],[0.68006,-0.29369],[-2.28553,0.98702]],[[235.13397,92.31234],[2.25549,-1.08737],[-2.4247,0.03625]],[[229.11079,94.3196],[2.08526,-0.89746],[-3.89679,1.67711]],[[216.78214,98.1236],[3.84202,-1.38249],[-0.78939,0.28405]],[[215.80471,101.91159],[0.1508,-0.61789],[-0.38152,1.48285]],[[215.22359,106.1921],[0.02355,-1.38084],[1.24166,-0.10862]],[[218.94419,105.62907],[-1.23921,0.24988],[0.1379,-0.82046]],[[220.56069,102.85337],[-0.4436,0.22679],[1.40442,-0.71801]],[[225.46503,102.77796],[-1.43705,0.43662],[1.77339,-0.53881]],[[230.94519,100.67655],[-1.89236,0.24451],[1.54222,-0.19926]],[[237.23058,102.32389],[-0.90962,-1.38799],[0.46396,0.70795]],[[236.59928,106.06825],[0.69908,-0.44702],[-0.54654,0.34949]],[[234.66168,105.88576],[0.64586,0.06083],[-1.39037,-0.35772]],[[230.47359,105.43541],[1.4007,-0.03143],[1.79531,1.13396]],[[237.55674,108.2806],[-1.08184,-1.96176],[0.831,1.50691]],[[237.68822,113.04379],[0.56043,-1.62216],[0.28199,0.29606]],[[237.97021,113.76987],[0,0],[0,2.88806]],[[239.43843,121.91166],[-0.35238,-2.82304],[0.52706,4.22245]],[[239.44592,135.02009],[0,-4.2592],[0,3.28113]],[[239.15078,144.75977],[0,-3.25081],[0,0.71775]],[[239.26333,147.72542],[-0.40285,-0.66519],[0.2711,0.44763]],[[240.75445,148.21676],[-0.47744,-0.2143],[0.08483,0.03807]],[[240.96064,148.47237],[-0.05953,-0.1011],[0.12179,0.00206]],[[241.32563,148.47785],[-0.12152,-0.00161],[0.21004,-0.35412]],[[241.29026,146.99872],[-0.05643,0.46355],[0.23958,-1.96805]],[[241.5854,141.09588],[-0.01152,2.0026],[0.31623,-1.26489]],[[242.27595,137.25733],[-0.15409,1.29241],[-0.14464,-0.24332]],[[242.33614,136.23624],[-0.28339,0.42508],[0.01814,-0.02721]],[[242.39141,136.15899],[-0.0187,0.02431],[0.60867,-6.63689]],[[243.67376,116.18361],[-1.57382,6.4484],[0.05486,-0.21941]],[[243.83832,115.52536],[-0.05486,0.21941],[-0.00806,-0.0657]],[[243.81556,115.32823],[0.0071,0.06572],[-0.29577,-0.06871]],[[243.05361,114.36016],[0,0.68277],[0,-0.63366]],[[243.74934,113.40932],[-0.29419,0.08504],[0.06817,-1.60492]],[[244.99242,109.08319],[-0.78194,1.20365],[1.54348,-2.29435]],[[251.90026,104.21825],[-2.81473,0.36369],[5.33112,-0.68882]],[[264.52549,113.30177],[1.55475,-6.69271],[0,0.90836]],[[263.85325,116.32893],[0.80685,-0.67288],[-0.00888,0.00741]],[[263.82628,116.35085],[0.0091,-0.0072],[-0.43117,3.10558]],[[259.07027,124.04646],[2.75014,-1.83343],[-1.97763,1.22977]],[[252.78569,124.50206],[2.19632,0.27454],[-2.12509,-0.26564]],[[246.88821,122.44581],[1.63156,1.64975],[-0.73633,-0.74455]],[[245.02148,119.68333],[0.4995,1.06659],[-0.77803,5.45851]],[[244.35874,136.41818],[0.47973,-5.54044],[1.84931,1.45159]],[[245.00613,141.67266],[2.24292,-1.83952],[1.40533,-0.0497]],[[249.18044,142.07441],[-1.2765,-0.53435],[2.44045,1.02158]],[[256.19835,145.55442],[-2.37262,-0.98942],[0.07581,-0.01535]],[[256.44957,145.53062],[-0.09193,0],[0.45828,0]],[[257.2906,145.96818],[-0.13449,-0.22754],[0.18833,0.06368]],[[257.85989,146.14765],[-0.19126,-0.05582],[0.33578,0.09801]],[[258.78238,146.53121],[-0.27789,-0.15561],[1.12602,-1.79645]]],&quot;closed&quot;:true}]}" fill="#999999" stroke="none" stroke-width="0.5"/><path d="M297.54938,115.55343c0.33085,0.9756 0.71366,1.93588 0.95548,2.95513c1.39989,5.90058 2.1095,11.61021 0.5612,17.45033c-1.66205,2.81286 -6.41339,2.55302 -7.85492,-0.39967c-3.05943,-6.26662 -3.92619,-14.56951 -4.7721,-21.40632c-0.21763,-1.75891 -0.90603,-3.83353 0.17312,-5.44655c1.31149,-1.96032 6.46181,-1.895 8.31656,-0.91722c2.04524,1.0782 2.35261,5.5311 2.62067,7.76431z" fill="#c300f0" stroke="none" stroke-width="0.5"/><path d="M348.33967,106.70871c-0.39948,-0.24405 -0.46237,-0.75231 -0.46237,-0.75231l-0.03624,-0.29292c-0.23305,-1.88354 -1.66134,-6.41119 0.16815,-7.74922c1.64413,-1.20247 4.68834,0.2361 6.4206,0.02177c2.98689,1.44189 2.68273,3.88059 3.04797,6.83251c0.83186,6.72327 1.86663,14.32177 -1.92714,20.1728c-3.36065,0.52777 -4.93825,-1.47258 -6.37909,-4.22326c-2.43841,-4.65512 -0.95227,-9.21879 -0.83188,-14.00937z" fill="#c300f0" stroke="none" stroke-width="0.5"/><path d="M292.23075,109.23565c-0.18527,-0.24558 -0.2205,-0.53037 -0.2205,-0.53037l-0.07248,-0.58581c-0.05468,-0.44193 -0.34651,-2.57166 -0.23045,-2.82609c1.03472,-2.26808 5.37889,-1.64046 6.34956,0.29001c1.36288,2.71051 1.00794,7.79701 1.38284,10.82702c0.65796,5.31778 2.16576,10.21043 2.22097,15.58629c0.01942,1.89094 -0.27714,7.52767 -3.76622,5.98212c-1.38607,-0.61399 -1.80455,-3.88974 -2.30419,-5.2072c-0.98741,-7.62045 -3.66951,-15.70704 -3.35954,-23.53599z" fill="#00b539" stroke="none" stroke-width="0.5"/><path d="M345.17949,102.10397c-0.48215,-0.21639 -0.55446,-0.80084 -0.55446,-0.80084l-0.03624,-0.29291c-0.18216,-1.51972 -0.6711,-5.20577 0.65767,-6.33159c0.71447,-0.60534 4.34248,0.2762 4.91831,0.84769c1.1997,1.19066 0.59028,1.78259 0.59262,3.05942c0.00405,2.20432 0.46143,4.43536 0.20407,6.63865c-0.4188,3.2356 -0.0374,7.65019 0.76876,10.8383c0.51086,2.02028 1.91502,3.89103 1.62766,6.10108c-0.27417,2.1085 -2.4059,6.11693 -4.88708,3.92753c-0.86267,-0.76122 -0.97959,-2.66772 -1.7803,-3.63689c-0.64607,-4.2099 -1.54759,-8.74423 -1.64411,-12.99956c-0.05614,-2.47458 0.18137,-4.89883 0.13309,-7.3509z" fill="#00b539" stroke="none" stroke-width="0.5"/><path d="M355.52432,116.29069c-2.43089,-0.58373 -1.84716,-3.01463 -1.84716,-3.01463l0.5539,-2.28041c0.94319,-10.09531 3.02499,-20.37681 1.78088,-30.43192c-0.85658,-6.99367 -2.37212,-14.50143 -5.16417,-20.94824c-0.9092,-2.09934 -1.21518,-5.34416 -2.47219,-7.22876c-1.47359,-2.2093 -5.62803,-2.61457 -7.9076,-2.83039c-5.4901,-0.51976 -10.80506,-1.64419 -16.36987,-1.51103c-14.78146,-1.08601 -33.72798,0.2856 -39.98026,16.42771c-1.17233,3.02673 -1.18689,6.6361 -1.49685,9.82241c0.1478,11.14129 -0.3612,22.5559 2.09455,33.57723c1.22447,5.49536 3.61564,10.6834 5.4973,15.97296c0,0 0.8379,2.35541 -1.51751,3.1933c-2.35541,0.8379 -3.1933,-1.51751 -3.1933,-1.51751c-1.94882,-5.47833 -4.40801,-10.85227 -5.66401,-16.54881c-2.52743,-11.46314 -2.07761,-23.29481 -2.21272,-34.88489c0.35457,-3.74932 0.46328,-7.84173 1.82442,-11.40599c6.98203,-18.28297 27.80989,-20.91515 44.7755,-19.63478c4.79761,-0.11015 9.47947,0.51648 14.18478,1.29539c4.79533,0.79381 10.75772,0.60562 14.01998,5.11838c1.55994,2.15789 1.93683,5.70529 2.99974,8.1534c2.99209,6.89149 4.61181,14.86778 5.54437,22.33567c1.30359,10.53584 -0.77597,21.30341 -1.81145,31.87019l-0.62369,2.62357c0,0 -0.58373,2.43089 -3.01463,1.84716z" fill="#82007c" stroke="none" stroke-width="0.5"/><path d="M301.38606,179.67513c-0.53279,-0.55387 -1.73203,-2.70151 -2.45471,-2.98317c-4.09698,-1.59671 -5.55046,0.87413 -8.88681,2.49486c-1.16011,0.15013 -2.81984,0.51951 -3.94657,-0.0514c-2.56697,-1.30065 -3.75015,-4.8912 -2.36157,-7.39308c0.84909,-1.52983 3.07639,-2.86259 3.04015,-4.77363c-0.04233,-2.23236 -3.84286,-3.07681 -4.46081,-5.03904c-0.79374,-2.52048 2.00202,-4.87389 3.38183,-6.64335c0.12146,-0.15537 1.69943,-2.11932 1.78141,-2.42323c0.31224,-1.15768 -0.76839,-2.95984 -1.11635,-3.91386c-0.91732,-2.51501 -3.59569,-7.50715 -2.98617,-10.21586c0.80887,-3.59463 5.8058,-5.51655 7.87991,-8.22362c0,0 0.76866,-0.98573 1.75439,-0.21707c0.98573,0.76866 0.21707,1.75439 0.21707,1.75439c-1.8499,2.33997 -6.62833,4.39537 -7.44168,7.35215c-0.35992,1.30846 1.39024,3.78323 1.8449,4.89819c0.90019,2.2075 2.92243,6.66416 2.29075,9.09725c-0.25861,0.99608 -1.58986,2.57691 -2.25279,3.42897c-0.47642,0.61096 -3.38927,3.46907 -3.00158,4.25781c1.11172,2.26176 4.48004,2.53056 4.60446,5.73503c0.12219,3.14698 -4.37805,5.11141 -3.78275,7.95479c0.09563,0.45672 1.29624,1.1879 1.42567,1.33607c0.55318,0.63326 1.5939,0.77555 2.42925,0.67959c1.45763,-0.67259 1.89576,-1.73524 3.35656,-2.44514c2.10891,-1.02487 5.27676,-0.87559 7.38447,0.13232c1.83668,0.87831 2.72092,3.5105 4.32603,4.96255c0.07276,0.92379 0.17868,1.8301 0.32053,2.74134c-1.16168,-0.48173 -2.14443,-1.25414 -3.34562,-2.50287z" fill="#00b539" stroke="none" stroke-width="0.5"/><path d="M339.84436,94.78567c0,0 1.55181,0.12849 4.35993,0.57931c2.56489,0.41178 4.62983,1.18448 4.62983,1.18448l0.33733,1.13754c0,0 -7.5791,-2.21608 -15.30478,-0.59579c-6.17726,1.29557 -9.54245,4.01452 -9.54245,4.01452l-0.46748,-4.15084c0,0 2.89455,-2.07534 7.5763,-2.80713c4.84792,-0.75774 8.10221,-0.40672 8.10221,-0.40672z" data-paper-data="{&quot;index&quot;:null}" fill="#000000" stroke="none" stroke-width="1.5"/><path d="M300.55267,103.77471c0,0 3.12077,-2.219 7.69147,-3.25084c5.06491,-1.14342 7.7013,-1.01966 7.7013,-1.01966l0.8009,4.06993c0,0 -3.89009,-0.20452 -8.02126,0.46736c-5.52494,0.89855 -6.41864,2.23803 -10.58305,3.21504c-3.56829,0.83715 -6.66674,0.98492 -6.66674,0.98492l-0.17692,-1.21905c0,0 3.57705,-0.36804 5.18571,-0.7105c1.32773,-0.28266 3.83042,-1.41917 3.83042,-1.41917z" fill="#000000" stroke="none" stroke-width="1.5"/></g></g></svg>