<svg version="1.1" xmlns="http://www.w3.org/2000/svg" xmlns:xlink="http://www.w3.org/1999/xlink" width="153" height="315.3349" viewBox="0,0,153,315.3349"><g transform="translate(-244.1511,6.83491)"><g data-paper-data="{&quot;isPaintingLayer&quot;:true}" fill-rule="nonzero" stroke-linejoin="miter" stroke-miterlimit="10" stroke-dasharray="" stroke-dashoffset="0" style="mix-blend-mode: normal"><path d="M285.90286,307.49998l10.58516,-87.56737l45.59644,-1.46009l10.3184,89.02747z" fill="#9b9d30" stroke="#000000" stroke-width="2" stroke-linecap="butt"/><path d="M289.57668,250.08801l7.55047,-52.41545l43.29909,-2.17848l9.45725,55.15135l-30.23979,-11.89646z" fill="#747524" stroke="#000000" stroke-width="2" stroke-linecap="butt"/><path d="M396.1511,132.62695c0,44.597 -33.8025,80.75 -75.5,80.75c-41.6975,0 -75.5,-36.15301 -75.5,-80.75c0,-44.59699 33.8025,-80.75 75.5,-80.75c41.6975,0 75.5,36.15301 75.5,80.75z" fill="#747524" stroke="#000000" stroke-width="2" stroke-linecap="butt"/><path d="M387.82404,137.77106c0,38.06162 -30.45365,68.91667 -68.02013,68.91667c-37.56647,0 -68.02013,-30.85504 -68.02013,-68.91667c0,-38.06162 30.45365,-68.91667 68.02013,-68.91667c37.56647,0 68.02013,30.85504 68.02013,68.91667z" fill="#000000" stroke="none" stroke-width="0" stroke-linecap="butt"/><path d="M255.64387,139.45055c0,-33.30185 28.7599,-60.29833 64.23702,-60.29833c35.47712,0 64.23702,26.99649 64.23702,60.29833c0,33.30185 -28.7599,60.29833 -64.23702,60.29833c-35.47712,0 -64.23702,-26.99649 -64.23702,-60.29833z" fill="#ffff70" stroke="#000000" stroke-width="2" stroke-linecap="butt"/><path d="M256.36693,139.50437c0,-0.72799 5.20666,55.91939 63.36046,56.93429c55.56352,0.9697 63.51358,-57.95314 63.51358,-56.93429c0,32.80479 -28.40173,59.39833 -63.43702,59.39833c-35.03529,0 -63.43702,-26.59354 -63.43702,-59.39833z" fill="#6c6d22" stroke="#000000" stroke-width="0" stroke-linecap="butt"/><path d="M255.40112,154.39547c0,0 -8.73921,-80.9842 66.75,-79.5c77.52968,1.52431 61,82.25 61,82.25c0,0 -24.63436,12.69075 -63.02896,13.02851c-34.39482,0.30257 -64.72104,-15.77851 -64.72104,-15.77851z" fill-opacity="0.20144" fill="#000000" stroke="none" stroke-width="0" stroke-linecap="butt"/><path d="M269.19408,139.88c0,-12.968 10.51265,-23.48065 23.48065,-23.48065c12.968,0 23.48065,10.51265 23.48065,23.48065c0,12.968 -10.51265,23.48065 -23.48065,23.48065c-12.968,0 -23.48065,-10.51265 -23.48065,-23.48065z" fill="#ffffff" stroke="#000000" stroke-width="2" stroke-linecap="butt"/><path d="M276.91057,133.7445c0,-9.12808 7.39976,-16.52784 16.52783,-16.52784c9.12808,0 16.52784,7.39977 16.52784,16.52784c0,9.12808 -7.39977,16.52784 -16.52784,16.52784c-9.12808,0 -16.52783,-7.39977 -16.52783,-16.52784z" fill="#000000" stroke="none" stroke-width="0" stroke-linecap="butt"/><path d="M307.31095,179.26082c0,0 7.87204,-0.49798 12.15094,-0.49798c4.08165,0 12.95865,0.49798 12.95865,0.49798" fill="none" stroke="#000000" stroke-width="2" stroke-linecap="round"/><path d="M346.93316,163.36066c-12.968,0 -23.48065,-10.51265 -23.48065,-23.48065c0,-12.968 10.51265,-23.48065 23.48065,-23.48065c12.968,0 23.48065,10.51265 23.48065,23.48065c0,12.968 -10.51265,23.48065 -23.48065,23.48065z" data-paper-data="{&quot;index&quot;:null}" fill="#ffffff" stroke="#000000" stroke-width="2" stroke-linecap="butt"/><path d="M346.16949,150.27234c-9.12807,0 -16.52783,-7.39977 -16.52783,-16.52784c0,-9.12808 7.39977,-16.52784 16.52783,-16.52784c9.12807,0 16.52783,7.39977 16.52783,16.52784c0,9.12808 -7.39977,16.52784 -16.52783,16.52784z" data-paper-data="{&quot;index&quot;:null}" fill="#000000" stroke="none" stroke-width="0" stroke-linecap="butt"/><path d="M269.19408,139.88c0,-12.968 10.51265,-23.48065 23.48065,-23.48065c12.968,0 23.48065,10.51265 23.48065,23.48065c0,0 -46.96131,1.23155 -46.96131,0z" fill="#ffff70" stroke="#000000" stroke-width="2" stroke-linecap="butt"/><path d="M323.45253,139.88c0,-12.968 10.51265,-23.48065 23.48065,-23.48065c12.968,0 23.48065,10.51265 23.48065,23.48065c0,1.2138 -46.96131,0 -46.96131,0z" data-paper-data="{&quot;index&quot;:null}" fill="#ffff70" stroke="#000000" stroke-width="2" stroke-linecap="butt"/><path d="M281.40184,108.61996c0,0 7.59834,-3.74113 12.82228,-3.90615c5.22395,-0.16501 11.95254,3.12355 11.95254,3.12355c0,0 -7.86762,-1.64791 -11.9019,-1.52047c-4.21598,0.13318 -12.87293,2.30307 -12.87293,2.30307z" fill="#000000" stroke="none" stroke-width="0" stroke-linecap="butt"/><path d="M345.42811,106.33443c-4.03603,0.04644 -11.82537,2.03168 -11.82537,2.03168c0,0 6.58071,-3.57532 11.80692,-3.63546c5.2262,-0.06014 12.97862,3.35026 12.97862,3.35026c0,0 -8.74237,-1.79502 -12.96017,-1.74649z" data-paper-data="{&quot;index&quot;:null}" fill="#000000" stroke="none" stroke-width="0" stroke-linecap="butt"/><g stroke="#000000" stroke-width="2" stroke-linecap="butt"><path d="M273.60628,42.00363l16.87284,-45.26286c0,0 27.1466,-3.27055 39.62762,-2.44085c13.69153,0.91017 39.22672,7.68291 39.22672,7.68291l11.05444,46.27758c0,0 -34.60868,2.44919 -52.58476,1.39589c-17.61028,-1.03187 -54.19687,-7.65267 -54.19687,-7.65267z" fill="#ffffff"/><path d="M273.98252,41.96677l2.45309,-6.58812c0,0 33.86516,6.22798 51.17648,7.38151c16.8514,1.12287 51.34887,-0.54986 51.34887,-0.54986l1.56014,6.07566c0,0 -36.49517,3.78999 -54.26754,2.53682c-17.4426,-1.22992 -52.27107,-8.85599 -52.27107,-8.85599z" fill="#9b9d30"/><path d="M327.3642,18.31705c0,0 11.23876,-4.21764 17.9106,-5.81055c7.41367,-1.77002 24.58092,-4.33428 24.58092,-4.33428l1.46737,6.82459c0,0 -19.46503,2.86053 -26.50585,4.69414c-5.28216,1.37561 -12.00034,5.33397 -12.00034,5.33397z" fill="#9b9d30"/><path d="M335.23258,41.92978c0,0 0.99565,-8.02983 -10.20707,-16.42487c-15.17133,-11.369 -37.986,-16.42288 -37.986,-16.42288l2.84883,-6.5602c0,0 21.80271,3.27938 39.25479,16.74932c13.18537,10.17678 14.00431,23.21673 14.00431,23.21673z" fill="#9b9d30"/></g></g></g></svg>