<svg version="1.1" xmlns="http://www.w3.org/2000/svg" xmlns:xlink="http://www.w3.org/1999/xlink" width="196.69059" height="184.5895" viewBox="0,0,196.69059,184.5895"><g transform="translate(-222.9657,-55.24222)"><g data-paper-data="{&quot;isPaintingLayer&quot;:true}" fill-rule="nonzero" stroke-linecap="butt" stroke-linejoin="miter" stroke-miterlimit="10" stroke-dasharray="" stroke-dashoffset="0" style="mix-blend-mode: normal"><path d="M225.09207,146.09111c0,0 43.71057,-25.57511 60.64994,-40.99818c15.41888,-14.03866 36.85445,-47.77816 36.85445,-47.77816c0,0 18.61062,39.65608 34.14558,54.6893c16.03591,15.51797 60.61473,37.01036 60.61473,37.01036c0,0 -39.50026,19.10785 -55.39732,33.58189c-16.576,15.09221 -42.10707,55.19444 -42.10707,55.19444c0,0 -19.68044,-40.18364 -35.2683,-55.26802c-15.98874,-15.47233 -59.49201,-36.43163 -59.49201,-36.43163z" fill="#d8d871" stroke="#000000" stroke-width="2"/><path d="M252.21504,214.49505c0,0 12.8237,-48.99237 13.8959,-71.87607c0.97595,-20.82962 -7.72423,-59.84429 -7.72423,-59.84429c0,0 41.20078,14.8814 62.81574,14.5266c22.31195,-0.36624 69.03136,-16.69081 69.03136,-16.69081c0,0 -14.41961,41.44219 -15.42583,62.91779c-1.0492,22.39281 9.25417,68.80256 9.25417,68.80256c0,0 -42.33031,-14.49794 -64.01884,-14.14194c-22.24633,0.36516 -67.82826,16.30615 -67.82826,16.30615z" fill="#d8d871" stroke="#000000" stroke-width="2"/><path d="M256.49489,146.56857c0.50628,-33.298 29.67328,-59.85413 65.1463,-59.31477c35.47302,0.53936 63.81917,27.96996 63.31289,61.26795c-0.50628,33.298 -29.67328,59.85413 -65.1463,59.31477c-35.47302,-0.53936 -63.81917,-27.96996 -63.31289,-61.26795z" fill="#ecec68" stroke="#000000" stroke-width="2"/><path d="M292.45676,158.42059c0.02328,-1.53104 56.22346,-1.23178 56.19175,0.85437c-0.22146,14.56549 -12.97995,26.18192 -28.49686,25.94599c-15.51692,-0.23593 -27.91634,-12.23486 -27.69488,-26.80037z" fill="#000000" stroke="#000000" stroke-width="2"/><path d="M282.561,137.1714c0.09423,-6.19768 22.53803,-5.85643 22.4438,0.34125c-0.09423,6.19768 -5.19485,11.1455 -11.39253,11.05127c-6.19769,-0.09423 -11.14549,-5.19485 -11.05126,-11.39252z" fill="#000000" stroke="none" stroke-width="0"/><path d="M347.64437,149.05387c-6.01459,-0.09145 -10.81626,-5.04138 -10.72481,-11.05597c0.09145,-6.0146 21.87222,-5.68343 21.78078,0.33116c-0.09145,6.0146 -5.04138,10.81627 -11.05596,10.72481z" data-paper-data="{&quot;index&quot;:null}" fill="#000000" stroke="none" stroke-width="0"/></g></g></svg>