<svg version="1.1" xmlns="http://www.w3.org/2000/svg" xmlns:xlink="http://www.w3.org/1999/xlink" width="151.13634" height="290.61836" viewBox="0,0,151.13634,290.61836"><g transform="translate(-245.42309,-24.27813)"><g data-paper-data="{&quot;isPaintingLayer&quot;:true}" fill-rule="nonzero" stroke-linejoin="miter" stroke-miterlimit="10" stroke-dasharray="" stroke-dashoffset="0" style="mix-blend-mode: normal"><path d="M281.86449,313.89648l15.14285,-131.8421l37.78325,-0.15789l13.57389,132z" fill="#d7d75f" stroke="#000000" stroke-width="2" stroke-linecap="butt"/><path d="M294.81471,210.17578l3.12142,-26.32765l35.83075,-0.14203l2.76735,26.1059c0,0 -7.51543,4.19603 -21.55904,4.50964c-12.48458,0.27879 -20.16049,-4.14586 -20.16049,-4.14586z" fill="#c2c255" stroke="#000000" stroke-width="0" stroke-linecap="butt"/><path d="M251.63469,137.96189c0,-33.30185 28.7599,-60.29833 64.23702,-60.29833c35.47712,0 64.23702,26.99649 64.23702,60.29833c0,33.30185 -28.7599,60.29833 -64.23702,60.29833c-35.47712,0 -64.23702,-26.99649 -64.23702,-60.29833z" fill="#d7d75f" stroke="#000000" stroke-width="2" stroke-linecap="butt"/><path d="M252.35775,138.01573c0,-0.72799 5.20666,55.91939 63.36046,56.93429c55.56352,0.9697 63.51358,-57.95314 63.51358,-56.93429c0,32.80479 -28.40173,59.39833 -63.43702,59.39833c-35.03529,0 -63.43702,-26.59354 -63.43702,-59.39833z" fill="#c2c255" stroke="#000000" stroke-width="0" stroke-linecap="butt"/><path d="M254.35953,133.59371l-7.66667,-49.33333l21.66667,9.62963l24.66667,-43.33333l14.33333,22.66667l39,-46.33333l2.33333,55.66667l37.33333,-26l-8.33333,58.66667l17,-6l-17.33333,38.66667" fill="#d7d75f" stroke="#000000" stroke-width="2" stroke-linecap="round"/><path d="M265.18484,139.64136c0,-12.96801 10.51265,-23.48065 23.48066,-23.48065c12.96801,0 23.48065,10.51264 23.48065,23.48065c0,12.96801 -10.51264,23.48066 -23.48065,23.48066c-12.96801,0 -23.48066,-10.51265 -23.48066,-23.48066z" fill="#000000" stroke="#000000" stroke-width="2" stroke-linecap="butt"/><path d="M342.92394,163.12202c-12.96801,0 -23.48065,-10.51265 -23.48065,-23.48066c0,-12.96801 10.51264,-23.48065 23.48065,-23.48065c12.96801,0 23.48066,10.51264 23.48066,23.48065c0,12.96801 -10.51265,23.48066 -23.48066,23.48066z" data-paper-data="{&quot;index&quot;:null}" fill="#000000" stroke="#000000" stroke-width="2" stroke-linecap="butt"/><path d="M265.18491,138.39136c0,-12.968 10.51265,-23.48065 23.48065,-23.48065c12.968,0 23.48065,10.51265 23.48065,23.48065c0,12.968 -10.51265,23.48065 -23.48065,23.48065c-12.968,0 -23.48065,-10.51265 -23.48065,-23.48065z" fill="#ffffff" stroke="#000000" stroke-width="2" stroke-linecap="butt"/><path d="M269.5003,142.08077c0,-10.64686 8.63098,-19.27784 19.27783,-19.27784c10.64686,0 19.27784,8.63099 19.27784,19.27784c0,10.64686 -8.63099,19.27784 -19.27784,19.27784c-10.64686,0 -19.27783,-8.63099 -19.27783,-19.27784z" fill="#000000" stroke="none" stroke-width="0" stroke-linecap="butt"/><path d="M342.92399,161.872c-12.968,0 -23.48065,-10.51265 -23.48065,-23.48065c0,-12.968 10.51265,-23.48065 23.48065,-23.48065c12.968,0 23.48065,10.51265 23.48065,23.48065c0,12.968 -10.51265,23.48065 -23.48065,23.48065z" data-paper-data="{&quot;index&quot;:null}" fill="#ffffff" stroke="#000000" stroke-width="2" stroke-linecap="butt"/><path d="M343.80269,156.10861c-7.74736,0 -14.02783,-6.28048 -14.02783,-14.02784c0,-7.74737 6.28048,-14.02784 14.02783,-14.02784c7.74736,0 14.02783,6.28048 14.02783,14.02784c0,7.74737 -6.28048,14.02784 -14.02783,14.02784z" data-paper-data="{&quot;index&quot;:null}" fill="#000000" stroke="none" stroke-width="0" stroke-linecap="butt"/><path d="M306.33361,159.82475l5.6,-17.6" fill="none" stroke="#000000" stroke-width="2" stroke-linecap="round"/><path d="M323.13361,160.82475l-3.6,-20.4" fill="none" stroke="#000000" stroke-width="2" stroke-linecap="round"/><path d="M287.90177,180.97216l58.70959,-6.4" fill="none" stroke="#000000" stroke-width="2" stroke-linecap="round"/><path d="M336.2168,212.0003l1.47097,-9.04804l0.13067,0.23029c0.00149,0.10157 -0.00521,0.20386 -0.02236,0.30698c-0.18496,1.11162 -0.50203,1.47731 0.22397,2.70601c0.01,0.55308 0.0967,1.10885 0.26416,1.65113c-0.03799,0.45154 -0.02509,0.90897 0.04097,1.36324c-0.1591,0.65049 -0.20994,1.32757 -0.14517,2.00194c-0.05789,0.29843 -0.09326,0.60146 -0.10543,0.90636c-0.90245,-0.00874 -1.85779,-0.1179 -1.85779,-0.1179z" fill="#191919" stroke="none" stroke-width="0" stroke-linecap="butt"/><path d="M336.26536,215.04157c0,0 -0.55207,4.3021 -6.33859,6.27627c-6.10007,2.08114 -10.3497,-1.28489 -10.3497,-1.28489c0,0 5.9771,0.96809 9.53144,-1.1616c3.55434,-2.12969 7.15685,-3.82977 7.15685,-3.82977z" fill="#d7d75f" stroke="none" stroke-width="0" stroke-linecap="butt"/><path d="M302.08125,223.72365c0.26449,0.44142 0.12106,1.01369 -0.32037,1.27818c-0.44143,0.2645 -1.01369,0.12106 -1.27818,-0.32036c-0.26449,-0.44142 -0.12106,-1.01369 0.32037,-1.27818c0.44142,-0.26449 1.01368,-0.12106 1.27818,0.32036z" fill="#eded8c" stroke="none" stroke-width="0" stroke-linecap="butt"/><path d="M343.08302,219.80805c3.72295,9.87594 -1.86917,19.98257 -12.21845,28.6983c-5.52621,4.65394 -26.73407,15.79908 -33.08008,10.74962c-8.24573,-6.56104 -1.90296,-34.54031 7.39413,-42.49417c11.81946,-10.11179 32.89588,-1.8834 32.89588,-1.8834c0,0 4.04109,2.36334 5.00852,4.92965z" fill="#d7d75f" stroke="none" stroke-width="0" stroke-linecap="butt"/><g stroke="none" stroke-linecap="butt"><path d="M333.1503,185.0825c1.81552,2.29079 4.45,7.80788 5.05415,13.10122c0.86507,7.57948 -1.18701,11.48554 -1.18701,11.48554c0,0 -3.75721,10.92855 -8.26186,14.49862c-12.06138,9.55897 -17.30279,-2.11589 -13.88993,-12.79257c2.35536,-7.36844 -16.17659,-19.4407 -9.65506,-30.44261c5.37607,-9.06952 14.56364,-6.53072 20.69834,-2.53595c1.52523,0.99319 -4.05314,10.15276 -2.75304,11.40095c1.10381,1.05974 9.12507,-5.81212 9.99442,-4.7152z" fill="#d7d75f" stroke-width="NaN"/><path d="M345.63975,178.85846c1.2977,1.37625 -6.41189,3.15736 -11.55525,6.44387c-6.46308,4.1298 -13.43484,10.27645 -14.16567,9.71199c-0.17301,-0.13362 -2.24003,-0.85673 -2.08258,-1.80832c0.83845,-5.06727 2.51755,-1.13529 3.69237,-2.6103c5.75188,-7.22158 21.23188,-14.79075 24.11113,-11.73723z" fill="#89893c" stroke-width="0"/><path d="M323.38916,188.99564c-0.79472,0.91817 0.14634,4.59479 -1.65907,6.02048c-1.24972,0.98687 -3.81519,-0.51589 -4.00636,-0.78531c-1.1987,-1.68937 2.2435,-9.7146 3.85132,-17.54996c1.31183,-6.39293 0.55018,-12.96721 2.06678,-13.33703c2.78966,-0.68027 6.00354,18.42382 -0.25266,25.65182z" fill="#9b9b44" stroke-width="0"/><path d="M317.46723,180.74923c1.13987,1.01332 1.82231,2.10655 1.52427,2.44181c-0.29803,0.33526 -1.46369,-0.21442 -2.60355,-1.22774c-1.13987,-1.01332 -1.82231,-2.10655 -1.52427,-2.44181c0.29803,-0.33526 1.46369,0.21442 2.60355,1.22774z" fill="#000000" stroke-width="0"/><path d="M315.27168,183.28402c1.13987,1.01332 1.82231,2.10656 1.52427,2.44181c-0.29803,0.33526 -1.46368,-0.21443 -2.60355,-1.22774c-1.13987,-1.01332 -1.82231,-2.10655 -1.52427,-2.44181c0.29803,-0.33526 1.46369,0.21442 2.60355,1.22773z" fill="#000000" stroke-width="0"/></g><path d="M319.82291,223.18803c3.89581,4.34986 -0.12422,14.03206 -8.979,21.6258c-8.85477,7.59374 -19.19117,10.22343 -23.08698,5.87357c-3.89581,-4.34986 0.12423,-14.03207 8.979,-21.62581c8.85477,-7.59374 19.19117,-10.22343 23.08699,-5.87357z" fill="#c2c255" stroke="none" stroke-width="0" stroke-linecap="butt"/><path d="M317.71138,217.95977c4.37888,4.02124 1.67535,14.75362 -6.61608,23.78246c-8.29143,9.02884 -19.80553,13.7183 -24.18441,9.69705c-4.08719,-3.79977 -3.16353,-9.62317 -1.06542,-13.46778c1.23954,-2.27136 3.63247,-3.88995 3.63247,-3.88995l3.06738,-4.40602c0,0 1.78845,-2.41504 2.48121,-3.16943c8.29143,-9.02884 18.30597,-12.56759 22.68485,-8.54635z" fill="#d7d75f" stroke="none" stroke-width="0" stroke-linecap="butt"/><path d="M310.83205,182.41774c0.03358,1.33582 -0.65501,2.43672 -1.53801,2.45892c-0.883,0.0222 -1.62604,-1.04271 -1.65962,-2.37853c-0.03358,-1.33582 0.65501,-2.43672 1.53801,-2.45892c0.883,-0.0222 1.62604,1.04271 1.65962,2.37853z" fill="#eded8c" stroke="none" stroke-width="0" stroke-linecap="butt"/><path d="M311.37493,177.32683c0.24577,0.48482 0.05198,1.07708 -0.43284,1.32285c-0.48482,0.24577 -1.07708,0.05198 -1.32285,-0.43284c-0.24577,-0.48482 -0.05198,-1.07708 0.43284,-1.32285c0.48482,-0.24577 1.07708,-0.05198 1.32285,0.43284z" fill="#eded8c" stroke="none" stroke-width="0" stroke-linecap="butt"/><path d="M312.90985,213.92947c0.522,0.68426 -1.89887,1.34225 -4.31177,3.18299c-2.4129,1.84074 -4.16519,3.90896 -4.6872,3.2247c-0.522,-0.68426 1.27195,-2.47297 3.68485,-4.3137c2.4129,-1.84074 4.79211,-2.77825 5.31411,-2.09399z" fill="#eded8c" stroke="none" stroke-width="0" stroke-linecap="butt"/><path d="M302.75928,221.9094c0.22529,0.44442 0.04765,0.98733 -0.39677,1.21262c-0.44442,0.22529 -0.98733,0.04765 -1.21261,-0.39677c-0.22529,-0.44442 -0.04765,-0.98732 0.39677,-1.21261c0.44442,-0.22529 0.98732,-0.04765 1.21261,0.39677z" fill="#eded8c" stroke="none" stroke-width="0" stroke-linecap="butt"/><path d="M363.55234,225.2957c0,10.94918 -8.65416,19.82524 -19.32961,19.82524c-10.67545,0 -19.32961,-8.87606 -19.32961,-19.82524c0,-10.94918 8.65416,-19.82525 19.32961,-19.82525c10.67545,0 19.32961,8.87607 19.32961,19.82525z" fill="#d7d75f" stroke="#000000" stroke-width="2" stroke-linecap="butt"/><path d="M306.51107,226.24327c0,10.94918 -8.65416,19.82525 -19.32961,19.82525c-10.67545,0 -19.32961,-8.87606 -19.32961,-19.82525c0,-10.94918 8.65416,-19.82525 19.32961,-19.82525c10.67545,0 19.32961,8.87606 19.32961,19.82525z" fill="#d7d75f" stroke="#000000" stroke-width="2" stroke-linecap="butt"/></g></g></svg>