<svg version="1.1" xmlns="http://www.w3.org/2000/svg" xmlns:xlink="http://www.w3.org/1999/xlink" width="127.0027" height="451.11587" viewBox="0,0,127.0027,451.11587"><g transform="translate(-259.9127,88.83498)"><g data-paper-data="{&quot;isPaintingLayer&quot;:true}" fill-rule="nonzero" stroke-linejoin="miter" stroke-miterlimit="10" stroke-dasharray="" stroke-dashoffset="0" style="mix-blend-mode: normal"><path d="M342.851,28.66247l11.60849,124.66508h-65.61319l14.13207,-117.09433l41.38679,-10.59906z" fill="#b5b54a" stroke="#b5b54a" stroke-width="2.5" stroke-linecap="round"/><path d="M384.31916,-17.6394c0,34.43132 -27.79338,62.34341 -62.07824,62.34341c-34.28487,0 -62.07822,-27.9121 -62.07822,-62.34341c0,-34.43132 27.79337,-62.34343 62.07822,-62.34343c34.28487,0 62.07824,27.91211 62.07824,62.34343z" fill="#fafab0" stroke="#fafab0" stroke-width="0.5" stroke-linecap="butt"/><path d="M285.21678,-84.8799l15.57295,4.69323v-8.31978l20.05285,5.54653l-0.21333,-2.3466l15.35963,5.54653l-0.42666,-4.05323l25.17273,18.13289l-43.09231,-3.8399l6.61318,5.54653l-22.39946,-2.77326l8.95979,9.59976l-24.1061,-7.67982v3.62659l-14.29298,-12.37303l21.1195,-1.4933z" fill="#fcfc00" stroke="#fcfc00" stroke-width="0.5" stroke-linecap="round"/><path d="M310.5491,-18.02384c0,7.10806 -2.71163,12.87028 -6.0566,12.87028c-3.34497,0 -6.0566,-5.76222 -6.0566,-12.87028c0,-7.10806 2.71163,-12.87028 6.0566,-12.87028c3.34497,0 6.0566,5.76222 6.0566,12.87028z" fill="#29291b" stroke="#29291b" stroke-width="2.5" stroke-linecap="butt"/><path d="M341.84156,-19.03328c0,7.10806 -2.71163,12.87028 -6.0566,12.87028c-3.34497,0 -6.0566,-5.76222 -6.0566,-12.87028c0,-7.10806 2.71163,-12.87028 6.0566,-12.87028c3.34497,0 6.0566,5.76222 6.0566,12.87028z" fill="#29291b" stroke="#29291b" stroke-width="2.5" stroke-linecap="butt"/><path d="M345.19723,236.3658l11.60849,124.66508h-65.61319l14.13207,-117.09433l41.38678,-10.59906z" fill="#e5e61c" stroke="#e5e61c" stroke-width="2.5" stroke-linecap="round"/><path d="M386.6654,192.56393c0,33.0506 -27.79337,59.84341 -62.07824,59.84341c-34.28487,0 -62.07824,-26.79281 -62.07824,-59.84341c0,-33.0506 27.79337,-59.84341 62.07824,-59.84341c34.28487,0 62.07824,26.79281 62.07824,59.84341z" fill="#fafab0" stroke="#fafab0" stroke-width="0.5" stroke-linecap="butt"/><path d="M288.56301,124.82342l15.57295,4.69322v-8.31981l20.05285,5.54653l-0.21333,-2.34662l15.35963,5.54653l-0.42666,-4.05325l25.17274,18.13291l-43.09231,-3.8399l6.61318,5.54653l-22.39947,-2.77327l8.95977,9.59978l-24.10609,-7.67982v3.62659l-14.29299,-12.37303l21.1195,-1.49329z" fill="#29291b" stroke="#29291b" stroke-width="0.5" stroke-linecap="round"/><path d="M312.89534,189.67947c0,7.10806 -2.71163,12.87028 -6.0566,12.87028c-3.34497,0 -6.0566,-5.76222 -6.0566,-12.87028c0,-7.10806 2.71163,-12.87028 6.0566,-12.87028c3.34497,0 6.0566,5.76222 6.0566,12.87028z" fill="#29291b" stroke="#29291b" stroke-width="2.5" stroke-linecap="butt"/><path d="M344.18777,188.67005c0,7.10806 -2.71163,12.87028 -6.0566,12.87028c-3.34497,0 -6.0566,-5.76222 -6.0566,-12.87028c0,-7.10806 2.71163,-12.87028 6.0566,-12.87028c3.34497,0 6.0566,5.76222 6.0566,12.87028z" fill="#29291b" stroke="#29291b" stroke-width="2.5" stroke-linecap="butt"/><path d="M311.66041,119.80476l0.45766,-47.59507c0,0 10.26108,-0.9873 14.7759,0.04888c4.77595,1.09612 7.87752,5.67168 7.87752,5.67168l0.91529,8.92407c0,0 -3.83944,10.92027 -9.32425,10.54752c-4.20228,-0.28559 -13.78681,-0.93697 -13.78681,-0.93697" fill="none" stroke="#29291b" stroke-width="2.5" stroke-linecap="round"/><path d="M327.09035,287.33591l-0.43867,39.91981" fill="none" stroke="#29291b" stroke-width="2.5" stroke-linecap="round"/><path d="M345.13134,282.62705l-38.18971,10.11864" fill="none" stroke="#29291b" stroke-width="2.5" stroke-linecap="round"/></g></g></svg>