<svg version="1.1" xmlns="http://www.w3.org/2000/svg" xmlns:xlink="http://www.w3.org/1999/xlink" width="155.18538" height="321.98644" viewBox="0,0,155.18538,321.98644"><defs><linearGradient x1="346.0466" y1="51.70459" x2="359.1804" y2="56.44027" gradientUnits="userSpaceOnUse" id="color-1"><stop offset="0" stop-color="#131308"/><stop offset="1" stop-color="#131308" stop-opacity="0"/></linearGradient><linearGradient x1="336.33813" y1="75.63028" x2="350.18011" y2="80.62132" gradientUnits="userSpaceOnUse" id="color-2"><stop offset="0" stop-color="#151509"/><stop offset="1" stop-color="#151509" stop-opacity="0"/></linearGradient></defs><g transform="translate(-252.23953,11.03776)"><g data-paper-data="{&quot;isPaintingLayer&quot;:true}" fill-rule="nonzero" stroke-linejoin="miter" stroke-miterlimit="10" stroke-dasharray="" stroke-dashoffset="0" style="mix-blend-mode: normal"><path d="M287.81613,309.94867l15.14285,-131.8421l37.78325,-0.15789l13.57389,132z" fill="#959541" stroke="#000000" stroke-width="2" stroke-linecap="butt"/><path d="M300.76635,206.56131l3.12142,-26.32765l35.83075,-0.14203l2.76735,26.1059c0,0 -7.51543,4.19603 -21.55904,4.50964c-12.48458,0.27879 -20.16049,-4.14586 -20.16049,-4.14586z" fill="#7d7d37" stroke="#000000" stroke-width="0" stroke-linecap="butt"/><path d="M253.40835,143.62183c-2.5486,-33.20418 24.0609,-62.32249 59.43398,-65.03757c35.37307,-2.71508 66.11468,22.00124 68.66328,55.20541c2.5486,33.20418 -24.0609,62.32249 -59.43398,65.03757c-35.37307,2.71508 -66.11468,-22.00124 -68.66328,-55.20541z" fill="#959541" stroke="#000000" stroke-width="2" stroke-linecap="butt"/><path d="M254.13341,143.62017c-0.05571,-0.72586 9.47092,55.35692 67.53184,51.91832c55.47478,-3.28544 58.89214,-62.6439 58.97011,-61.62803c2.51056,32.70859 -23.77266,61.39773 -58.7052,64.07898c-34.93254,2.68126 -65.28619,-21.6607 -67.79675,-54.36927z" fill="#7d7d37" stroke="#000000" stroke-width="0" stroke-linecap="butt"/><path d="M266.95171,143.01304c-0.99245,-12.92997 8.68484,-24.21633 21.61481,-25.20876c12.92997,-0.99245 24.21633,8.68484 25.20876,21.61481c0.99245,12.92997 -8.68484,24.21633 -21.61481,25.20876c-12.92997,0.99245 -24.21633,-8.68484 -25.20876,-21.61481z" fill="#ffffff" stroke="#000000" stroke-width="2" stroke-linecap="butt"/><path d="M277.97118,136.04891c-0.69857,-9.10131 6.11318,-17.04568 15.21447,-17.74425c9.10131,-0.69857 17.04568,6.11319 17.74425,15.21448c0.69857,9.10131 -6.11319,17.04568 -15.21448,17.74425c-9.10131,0.69857 -17.04567,-6.11319 -17.74424,-15.21448z" fill="#000000" stroke="none" stroke-width="0" stroke-linecap="butt"/><path d="M335.81119,173.79286l-25.01073,2.22597" fill="none" stroke="#000000" stroke-width="2" stroke-linecap="round"/><path d="M346.25978,160.47542c-12.92997,0.99245 -24.21633,-8.68484 -25.20876,-21.61481c-0.99245,-12.92997 8.68484,-24.21633 21.61481,-25.20876c12.92997,-0.99245 24.21633,8.68484 25.20876,21.61481c0.99245,12.92997 -8.68484,24.21633 -21.61481,25.20876z" data-paper-data="{&quot;index&quot;:null}" fill="#ffffff" stroke="#000000" stroke-width="2" stroke-linecap="butt"/><path d="M348.20236,160.57436c-9.1013,0.69857 -17.04567,-6.11319 -17.74424,-15.21448c-0.69857,-9.10131 6.11319,-17.04568 15.21447,-17.74425c9.1013,-0.69857 17.04567,6.11319 17.74424,15.21448c0.69857,9.10131 -6.11319,17.04568 -15.21447,17.74425z" data-paper-data="{&quot;index&quot;:null}" fill="#000000" stroke="none" stroke-width="0" stroke-linecap="butt"/><path d="M277.34761,113.32189c0,0 6.29367,-5.66749 11.27561,-7.24773c4.98195,-1.58024 12.35148,-0.24662 12.35148,-0.24662c0,0 -8.01916,0.55506 -11.86654,1.77543c-4.02067,1.27533 -11.76054,5.71892 -11.76054,5.71892z" fill="#000000" stroke="none" stroke-width="0" stroke-linecap="butt"/><path d="M340.72709,103.64094c-3.98857,-0.61892 -11.9985,0.05634 -11.9985,0.05634c0,0 7.07968,-2.44267 12.24443,-1.64126c5.16474,0.80142 12.24961,5.44204 12.24961,5.44204c0,0 -8.32735,-3.21034 -12.49556,-3.85714z" data-paper-data="{&quot;index&quot;:null}" fill="#000000" stroke="none" stroke-width="0" stroke-linecap="butt"/><path d="M307.74295,81.89875c-0.41151,-5.36129 2.37308,-38.33625 2.37308,-38.33625c0,0 7.78433,32.16376 8.19584,37.52504" fill="#804400" stroke="#000000" stroke-width="2" stroke-linecap="butt"/><g stroke="#000000"><path d="M402.96142,15.48848l-22.43442,104.8614c0,0 -24.54076,0.65855 -54.83922,-11.01304c-29.4761,-11.35482 -43.57679,-22.83068 -43.57679,-22.83068l47.7414,-96.15873c0,0 15.80805,-2.68534 39.97062,6.1245c23.44972,8.54993 33.13843,19.01656 33.13843,19.01656z" fill="#333333" stroke-width="2" stroke-linecap="butt"/><path d="M402.96142,15.48848l-22.43442,104.8614c0,0 -24.54076,0.65855 -54.83922,-11.01304c-29.4761,-11.35482 -43.57679,-22.83068 -43.57679,-22.83068l47.7414,-96.15873c0,0 23.06101,12.18977 35.12098,16.33701c12.30478,4.23142 37.98805,8.80404 37.98805,8.80404z" fill="#7d7d37" stroke-width="2" stroke-linecap="butt"/><path d="M379.93344,119.55717c0,0 15.91589,22.56098 -16.74382,26.39697c-37.41794,4.39488 -81.44528,-59.37656 -81.44528,-59.37656" fill="none" stroke-width="2" stroke-linecap="round"/><path d="M401.76483,16.26718l-21.84238,103.30645c0,0 -26.8818,-0.73674 -55.50052,-11.76127c-27.84197,-10.72532 -41.04562,-21.737 -41.04562,-21.737l6.27707,-12.64301c0,0 17.92349,31.35735 54.89025,25.76354c34.43246,-5.21033 57.2212,-82.92871 57.2212,-82.92871z" fill="#6c6c30" stroke-width="0" stroke-linecap="butt"/></g><g><g><g><path d="M302.26199,80.12392l64.286,-64.7852l7.44358,90.64887z" fill="#b4b44f" stroke="none" stroke-width="0" stroke-linecap="butt"/><path d="M371.85252,80.64356l-25.81932,-44.7217l6.69322,-6.39269l18.03145,36.93007z" fill="#cdcd51" stroke="none" stroke-width="0" stroke-linecap="butt"/><path d="M355.44861,98.96563l-25.22734,-46.7536l10.15857,-10.21531l28.79402,62.07152z" fill="#cdcd51" stroke="none" stroke-width="0" stroke-linecap="butt"/><path d="M369.55028,100.98451l-61.14653,-22.04772l55.53355,-56.72622z" fill="none" stroke="#717132" stroke-width="1.5" stroke-linecap="round"/></g><path d="M359.31078,56.04726c-2.86351,7.94159 -10.05397,14.1677 -12.47475,13.11772c-1.57129,-0.68153 -3.6557,-9.6561 -0.79219,-17.59769c2.86351,-7.94158 4.36977,-15.58457 11.79182,-12.90839c7.42204,2.67618 4.33863,9.44677 1.47512,17.38836z" fill="#6d6d30" stroke="none" stroke-width="0" stroke-linecap="butt"/><path d="M350.28463,80.659c-1.27118,3.52546 -5.4003,5.26615 -9.22267,3.88791c-3.82236,-1.37824 -5.89049,-5.35348 -4.6193,-8.87894c1.27118,-3.52547 5.40031,-5.26616 9.22267,-3.88792c3.82236,1.37824 5.89049,5.35348 4.6193,8.87895z" fill="#6d6d30" stroke="none" stroke-width="0" stroke-linecap="butt"/><path d="M359.29078,56.10301c-2.83408,7.85996 -9.96107,14.01832 -12.36286,12.97701c-1.55898,-0.67591 -3.63318,-9.56229 -0.7991,-17.42224c2.83408,-7.85996 4.32224,-15.42533 11.68567,-12.77029c7.36344,2.65505 4.31037,9.35556 1.47629,17.21552z" fill="url(#color-1)" stroke="none" stroke-width="0" stroke-linecap="butt"/><path d="M350.18011,80.62132c-1.27118,3.52546 -5.4003,5.26615 -9.22267,3.88791c-3.82236,-1.37824 -5.89049,-5.35348 -4.6193,-8.87894c1.27118,-3.52547 5.40031,-5.26616 9.22267,-3.88792c3.82236,1.37824 5.89049,5.35348 4.6193,8.87895z" fill="url(#color-2)" stroke="none" stroke-width="0" stroke-linecap="butt"/></g><g stroke="none" stroke-width="0" stroke-linecap="butt"><path d="M302.26199,80.12392l64.286,-64.7852l7.44358,90.64887z" fill="#ffff70"/><path d="M371.85252,80.64356l-25.81932,-44.7217l6.69322,-6.39269l18.03145,36.93007z" fill="#ffffff"/><path d="M355.583,99.01409l-25.22734,-46.7536l10.15857,-10.21531l28.79402,62.07152z" fill="#ffffff"/><path d="M359.31078,56.04726c-2.86351,7.94159 -10.05397,14.1677 -12.47475,13.11772c-1.57129,-0.68153 -3.6557,-9.6561 -0.79219,-17.59769c2.86351,-7.94158 4.36977,-15.58457 11.79182,-12.90839c7.42204,2.67618 4.33863,9.44677 1.47512,17.38836z" fill="#000000"/><path d="M350.28463,80.659c-1.27118,3.52546 -5.4003,5.26615 -9.22267,3.88791c-3.82236,-1.37824 -5.89049,-5.35348 -4.6193,-8.87894c1.27118,-3.52547 5.40031,-5.26616 9.22267,-3.88792c3.82236,1.37824 5.89049,5.35348 4.6193,8.87895z" fill="#000000"/></g></g></g></g></svg>