<svg version="1.1" xmlns="http://www.w3.org/2000/svg" xmlns:xlink="http://www.w3.org/1999/xlink" width="290.7746" height="394.33209" viewBox="0,0,290.7746,394.33209"><g transform="translate(-161.51151,21.66604)"><g data-paper-data="{&quot;isPaintingLayer&quot;:true}" fill="#000000" fill-rule="nonzero" stroke-linejoin="miter" stroke-miterlimit="10" stroke-dasharray="" stroke-dashoffset="0" style="mix-blend-mode: normal"><g data-paper-data="{&quot;index&quot;:null}"><path d="M197.17618,173.01717l-14.34375,27.22498l5.6796,-29.59175z" stroke="#000000" stroke-width="0.5" stroke-linecap="butt"/><path d="M201.02631,176.97193l-2.29122,6.67385l-17.00758,-5.83894l2.2912,-6.67386z" stroke="#000000" stroke-width="1" stroke-linecap="butt"/><path d="M219.16092,138.13725l-14.12937,41.39707l-26.49413,-9.04279l14.12937,-41.39707z" stroke="#000000" stroke-width="1" stroke-linecap="butt"/><path d="M213.92222,154.11046l-3.6674,9.47515c0,0 -7.6187,-5.36407 -12.07251,-6.82503c-4.17527,-1.36961 -13.86879,-1.68431 -13.86879,-1.68431l3.6674,-9.47515c0,0 9.88537,-0.81939 14.02033,0.53696c4.48386,1.4708 11.92096,7.97235 11.92096,7.97235z" stroke="none" stroke-width="0" stroke-linecap="butt"/><path d="M194.26224,180.77946l1.23827,-4.30919" stroke="#000000" stroke-width="0.5" stroke-linecap="round"/><path d="M189.06811,174.8383l-0.98141,4.50325" stroke="#000000" stroke-width="0.5" stroke-linecap="round"/></g><g><path d="M435.37496,156.34854l13.94625,27.43073l-20.88127,-21.7233z" stroke="#000000" stroke-width="0.5" stroke-linecap="butt"/><path d="M440.82692,155.4885l4.12602,5.72415l-14.58737,10.51472l-4.12604,-5.72414z" stroke="#000000" stroke-width="1" stroke-linecap="butt"/><path d="M419.59056,118.25929l25.64105,35.43859l-22.68068,16.41028l-25.64105,-35.43859z" stroke="#000000" stroke-width="1" stroke-linecap="butt"/><path d="M429.60735,131.75935l5.61859,8.4652c0,0 -8.77858,3.12322 -12.54301,5.91604c-3.52902,2.61816 -9.38293,10.35087 -9.38293,10.35087l-5.61859,-8.4652c0,0 5.03876,-8.54417 8.53368,-11.13708c3.78981,-2.81167 13.39225,-5.12986 13.39225,-5.12986z" stroke="none" stroke-width="0" stroke-linecap="butt"/><path d="M440.03009,163.20958l-2.80334,-3.49912" stroke="#000000" stroke-width="0.5" stroke-linecap="round"/><path d="M432.18028,164.02001l3.11009,3.40144" stroke="#000000" stroke-width="0.5" stroke-linecap="round"/></g><path d="M199.13832,104.03406c0,-62.36111 50.70265,-112.91478 113.24752,-112.91478c62.54487,0 113.24752,50.55366 113.24752,112.91478c0,62.36111 -50.70265,112.91479 -113.24752,112.91479c-62.54487,0 -113.24752,-50.55367 -113.24752,-112.91479z" stroke="#000000" stroke-width="2" stroke-linecap="butt"/><path d="M292.28742,113.20364c0,-37.48541 34.24136,-67.87335 76.4802,-67.87335c42.23885,0 76.4802,30.38794 76.4802,67.87335c0,37.48542 -34.24136,67.87336 -76.4802,67.87336c-42.23885,0 -76.4802,-30.38794 -76.4802,-67.87335z" stroke="#000000" stroke-width="2" stroke-linecap="butt"/><path d="M292.28742,113.20364c0,-37.48541 34.24136,-67.87335 76.4802,-67.87335c42.23885,0 76.4802,30.38794 76.4802,67.87335c0,37.48542 -34.24136,67.87336 -76.4802,67.87336c-42.23885,0 -76.4802,-30.38794 -76.4802,-67.87335z" stroke="#000000" stroke-width="2" stroke-linecap="butt"/><path d="M183.39557,114.69708c0,-37.48541 34.24136,-67.87335 76.4802,-67.87335c42.23885,0 76.48021,30.38793 76.48021,67.87335c0,37.48542 -34.24136,67.87336 -76.48021,67.87336c-42.23885,0 -76.4802,-30.38794 -76.4802,-67.87335z" stroke="#000000" stroke-width="2" stroke-linecap="butt"/><path d="M252.63048,371.66603c0,0 8.83224,-61.10876 13.29771,-105.70696c4.53224,-45.26514 1.88522,-164.88071 1.88522,-164.88071l87.60972,0.64505c0,0 -2.17423,114.03249 2.20682,162.9035c3.47196,38.7301 13.55421,107.03914 13.55421,107.03914z" stroke="#000000" stroke-width="2" stroke-linecap="butt"/><path d="M269.6007,207.12406c0.58726,-45.52746 -0.5824,-95.72114 -0.5824,-95.72114l85.21576,0.59583c0,0 -1.01188,50.39764 -0.22541,96.41153c0,0 -16.15303,12.72324 -42.59574,12.60385c-25.23616,-0.11394 -41.81219,-13.89006 -41.81219,-13.89006z" stroke="#000000" stroke-width="0" stroke-linecap="butt"/><path d="M312.43939,253.06791c-6.2406,0 -11.85006,-18.69617 -11.85006,-18.69617h24.30426c0,0 -6.21361,18.69617 -12.45421,18.69617z" stroke="#000000" stroke-width="2" stroke-linecap="round"/><path d="M283.60949,215.34574c0,-7.00736 5.68058,-12.68794 12.68793,-12.68794c7.00736,0 12.68794,5.68059 12.68794,12.68794c0,7.00736 -5.68058,12.68794 -12.68794,12.68794c-7.00736,0 -12.68793,-5.68059 -12.68793,-12.68794z" stroke="none" stroke-width="0" stroke-linecap="butt"/><path d="M330.0338,228.03368c-7.00735,0 -12.68794,-5.68059 -12.68794,-12.68794c0,-7.00736 5.68059,-12.68794 12.68794,-12.68794c7.00736,0 12.68793,5.68059 12.68793,12.68794c0,7.00736 -5.68058,12.68794 -12.68793,12.68794z" data-paper-data="{&quot;index&quot;:null}" stroke="none" stroke-width="0" stroke-linecap="butt"/><path d="M182.66296,77.01084c0,-53.94545 58.0789,-97.67689 129.72289,-97.67689c71.64397,0 129.72289,43.73143 129.72289,97.67689c0,53.94546 -58.07891,97.67689 -129.72289,97.67689c-71.64397,0 -129.72288,-43.73143 -129.72288,-97.67689z" stroke="#000000" stroke-width="2" stroke-linecap="butt"/><g><path d="M419.89218,72.35957l30.72866,-1.6407l-28.31928,10.29311z" stroke="#000000" stroke-width="0.5" stroke-linecap="butt"/><path d="M421.31407,67.02649l6.90478,-1.45396l3.70526,17.59608l-6.90478,1.45398z" stroke="#000000" stroke-width="1" stroke-linecap="butt"/><path d="M378.6739,71.36383l42.78705,-9.08983l5.81751,27.38371l-42.78705,9.08983z" stroke="#000000" stroke-width="1" stroke-linecap="butt"/><path d="M395.07416,67.67345l10.01547,-1.70839c0,0 -0.70005,9.29128 0.32871,13.86428c0.96441,4.28704 5.66341,12.77129 5.66341,12.77129l-10.01547,1.70839c0,0 -5.77107,-8.06763 -6.72623,-12.31325c-1.03572,-4.60386 0.73408,-14.32232 0.73408,-14.32232z" stroke="none" stroke-width="0" stroke-linecap="butt"/><path d="M428.05073,70.88233l-4.33469,1.14584" stroke="#000000" stroke-width="0.5" stroke-linecap="round"/><path d="M425.61225,78.38767l4.36964,-1.46586" stroke="#000000" stroke-width="0.5" stroke-linecap="round"/></g><g data-paper-data="{&quot;index&quot;:null}"><path d="M190.56552,95.60233l-27.65309,13.49996l22.05879,-20.52655z" stroke="#000000" stroke-width="0.5" stroke-linecap="butt"/><path d="M191.33712,101.06752l-5.79025,4.03273l-10.27699,-14.75582l5.79024,-4.03275z" stroke="#000000" stroke-width="1" stroke-linecap="butt"/><path d="M228.90553,80.43717l-35.84939,25.06348l-16.04064,-22.9436l35.84939,-25.06348z" stroke="#000000" stroke-width="1" stroke-linecap="butt"/><path d="M215.24495,90.23389l-8.55513,5.48069c0,0 -2.98057,-8.82803 -5.71203,-12.63721c-2.56063,-3.57098 -10.19747,-9.54942 -10.19747,-9.54942l8.55513,-5.48069c0,0 8.46141,5.17653 10.99735,8.713c2.7499,3.83488 4.91219,13.4736 4.91219,13.4736z" stroke="none" stroke-width="0" stroke-linecap="butt"/><path d="M187.17404,97.39942l-3.54408,2.74627" stroke="#000000" stroke-width="0.5" stroke-linecap="round"/><path d="M179.49544,95.33835l3.45139,-3.05457" stroke="#000000" stroke-width="0.5" stroke-linecap="round"/></g><g><path d="M277.18606,12.92859l6.86737,-29.99636l2.11402,30.05762z" stroke="#000000" stroke-width="0.5" stroke-linecap="butt"/><path d="M272.44908,10.0958l0.49961,-7.03849l17.93683,1.2732l-0.49959,7.03849z" stroke="#000000" stroke-width="1" stroke-linecap="butt"/><path d="M264.90097,52.28611l3.01899,-43.63762l27.92809,1.93213l-3.01899,43.63762z" stroke="#000000" stroke-width="1" stroke-linecap="butt"/><path d="M265.85983,35.50315l1.10985,-10.09933c0,0 8.74113,3.22655 13.42078,3.49415c4.38701,0.25089 13.83596,-1.93552 13.83596,-1.93552l-1.10985,10.09933c0,0 -9.343,3.33171 -13.68764,3.08328c-4.71122,-0.2694 -13.5691,-4.64189 -13.5691,-4.64189z" stroke="none" stroke-width="0" stroke-linecap="butt"/><path d="M277.91828,9.16088l0.08955,-4.48269" stroke="#000000" stroke-width="0.5" stroke-linecap="round"/><path d="M284.34549,4.48117l0.20855,4.60424" stroke="#000000" stroke-width="0.5" stroke-linecap="round"/></g><g><path d="M339.12743,115.31487l6.35632,30.1088l-14.5341,-26.39488z" stroke="#000000" stroke-width="0.5" stroke-linecap="butt"/><path d="M344.61593,115.89796l2.5006,6.59826l-16.81493,6.37251l-2.50062,-6.59825z" stroke="#000000" stroke-width="1" stroke-linecap="butt"/><path d="M333.75964,74.43548l15.57464,40.87526l-26.16017,9.96779l-15.57464,-40.87526z" stroke="#000000" stroke-width="1" stroke-linecap="butt"/><path d="M339.93319,90.07117l3.23135,9.63258c0,0 -9.28817,0.74007 -13.64803,2.46124c-4.08721,1.61352 -11.74602,7.56379 -11.74602,7.56379l-3.23135,-9.63258c0,0 7.08195,-6.94535 11.12968,-8.54333c4.38927,-1.73279 14.26437,-1.48173 14.26437,-1.48173z" stroke="none" stroke-width="0" stroke-linecap="butt"/><path d="M340.04413,119.04198l1.80011,4.10635" stroke="#000000" stroke-width="0.5" stroke-linecap="round"/><path d="M334.05279,121.89555l2.1217,4.09156" stroke="#000000" stroke-width="0.5" stroke-linecap="round"/></g></g></g></svg>