<svg version="1.1" xmlns="http://www.w3.org/2000/svg" xmlns:xlink="http://www.w3.org/1999/xlink" width="123.66143" height="435.06631" viewBox="0,0,123.66143,435.06631"><g transform="translate(-263.80902,72.78542)"><g data-paper-data="{&quot;isPaintingLayer&quot;:true}" fill-rule="nonzero" stroke-linejoin="miter" stroke-miterlimit="10" stroke-dasharray="" stroke-dashoffset="0" style="mix-blend-mode: normal"><path d="M346.64205,40.22757l8.89344,124.88814l-65.59767,-1.42753l16.67632,-116.75914l41.6076,-9.69611z" fill="#b5b54a" stroke="#b5b54a" stroke-width="2.5" stroke-linecap="round"/><path d="M376.58282,35.87904l-5.55104,0.09684l-96.39506,1.17674c0,0 -6.26762,-10.77709 -9.34489,-23.67764c-2.04697,-8.58137 -1.56741,-18.12179 -0.95403,-25.98386c0.64049,-8.20946 4.15112,-16.15335 13.44058,-26.60917c10.08429,-11.35043 28.50465,-22.15178 42.69981,-22.94835c12.2108,-0.68521 30.91599,4.18394 42.41624,13.08234c12.67591,9.80804 19.78979,23.95102 22.12267,31.3696c7.97318,25.35483 -8.43427,53.49354 -8.43427,53.49354z" fill="#fafab0" stroke="none" stroke-width="0" stroke-linecap="round"/><path d="M345.19724,236.36581l11.60849,124.66508h-65.61319l14.13207,-117.09433l41.38678,-10.59906z" fill="#e5e61c" stroke="#e5e61c" stroke-width="2.5" stroke-linecap="round"/><path d="M313.47587,130.66969l1.49306,-47.57384c0,0 10.28012,-0.76382 14.77132,0.37034c4.75097,1.19976 7.75226,5.84172 7.75226,5.84172l0.72092,8.94187c0,0 -4.07612,10.83416 -9.55151,10.34216c-4.19508,-0.37695 -13.76317,-1.23671 -13.76317,-1.23671" fill="none" stroke="#29291b" stroke-width="2.5" stroke-linecap="round"/><path d="M327.09036,287.33592l-0.43867,39.91981" fill="none" stroke="#29291b" stroke-width="2.5" stroke-linecap="round"/><path d="M306.94164,292.7457l38.18971,-10.11864" fill="none" stroke="#29291b" stroke-width="2.5" stroke-linecap="round"/><path d="M376.96623,35.55302c0,0 -6.56505,9.77962 -18.80809,17.5245c-8.89862,5.6292 -22.10129,9.85756 -31.61291,10.06122c-9.34526,0.20011 -21.32577,-2.32596 -30.44875,-7.44744c-12.93757,-7.26293 -21.60676,-17.94401 -21.60676,-17.94401z" fill="#fafab0" stroke="none" stroke-width="0" stroke-linecap="round"/><path d="M313.4276,13.38914c0.12399,7.10698 -2.48672,12.91562 -5.83119,12.97397c-3.34446,0.05834 -6.15616,-5.65573 -6.28015,-12.76268c-0.12399,-7.10697 2.48672,-12.9156 5.8312,-12.97395c3.34446,-0.05834 6.15619,5.65571 6.28015,12.76269z" fill="#29291b" stroke="#29291b" stroke-width="2.5" stroke-linecap="butt"/><path d="M349.90707,15.96997c0.12399,7.10698 -2.48674,12.9156 -5.83121,12.97396c-3.34446,0.05834 -6.15616,-5.65571 -6.28015,-12.76268c-0.12399,-7.10697 2.48673,-12.9156 5.8312,-12.97395c3.34446,-0.05834 6.15616,5.65571 6.28015,12.76269z" fill="#29291b" stroke="#29291b" stroke-width="2.5" stroke-linecap="butt"/><path d="M287.83094,-68.56366l15.65244,4.4209l-0.14512,-8.31853l20.14653,5.19594l-0.25423,-2.34254l15.45404,5.2778l-0.4973,-4.04518l25.48516,17.69109l-43.15273,-3.08772l6.70892,5.43034l-22.44442,-2.38215l9.12584,9.44202l-24.23637,-7.25819l0.06324,3.62604l-14.5066,-12.12186l21.09024,-1.86142z" fill="#fcfc00" stroke="#fcfc00" stroke-width="0.5" stroke-linecap="round"/><path d="M376.78206,211.80034l-5.55121,0.08695l-96.39702,1.00538c0,0 -6.24845,-10.78823 -9.30278,-23.69423c-2.03172,-8.585 -1.53518,-18.12454 -0.90783,-25.98551c0.65507,-8.2083 4.17982,-16.14595 13.48787,-26.58523c10.10444,-11.33249 28.544,-22.10109 42.74054,-22.87242c12.212,-0.66351 30.90848,4.2389 42.39293,13.15772c12.65845,9.83056 19.74717,23.98617 22.06686,31.40889c7.92809,25.36897 -8.52934,53.47846 -8.52934,53.47846z" fill="#fafab0" stroke="none" stroke-width="0" stroke-linecap="round"/><path d="M375.27866,220.41993c0,0 -6.77291,9.63683 -19.17894,17.11784c-9.01708,5.43741 -22.30726,9.38216 -31.82106,9.38216c-9.34741,0 -21.2711,-2.78196 -30.28234,-8.09756c-12.77913,-7.53823 -21.21766,-18.40245 -21.21766,-18.40245z" fill="#fafab0" stroke="none" stroke-width="0" stroke-linecap="round"/><path d="M315.81048,156.94164c-0.06731,7.10773 -2.8334,12.84403 -6.17822,12.81234c-3.34483,-0.03169 -6.00176,-5.81933 -5.93444,-12.92706c0.06731,-7.10773 2.83341,-12.84402 6.17823,-12.81233c3.34483,0.03169 6.00175,5.81932 5.93443,12.92705z" fill="#29291b" stroke="#29291b" stroke-width="2.5" stroke-linecap="butt"/><path d="M345.80478,159.3352c-0.06731,7.10773 -2.83339,12.84403 -6.17822,12.81234c-3.34483,-0.03169 -6.00175,-5.81933 -5.93443,-12.92706c0.06731,-7.10773 2.83339,-12.84402 6.17822,-12.81233c3.34483,0.03169 6.00175,5.81932 5.93443,12.92706z" fill="#29291b" stroke="#29291b" stroke-width="2.5" stroke-linecap="butt"/><path d="M290.5543,109.31268l15.52779,4.84051l0.0788,-8.31941l19.99942,5.73621l-0.1911,-2.34852l15.30642,5.69176l-0.38825,-4.05709l24.99986,18.37048l-43.05401,-4.24785l6.56034,5.60892l-22.37219,-2.98527l8.86847,9.68419l-24.03228,-7.9078l-0.03434,3.62644l-14.17516,-12.50785l21.1327,-1.29322z" fill="#29291b" stroke="none" stroke-width="0" stroke-linecap="round"/></g></g></svg>