<svg version="1.1" xmlns="http://www.w3.org/2000/svg" xmlns:xlink="http://www.w3.org/1999/xlink" width="163.79531" height="151.4967" viewBox="0,0,163.79531,151.4967"><defs><radialGradient cx="507.2316" cy="195.34722" r="13.93584" gradientUnits="userSpaceOnUse" id="color-1"><stop offset="0" stop-color="#000000"/><stop offset="1" stop-color="#000000" stop-opacity="0"/></radialGradient><linearGradient x1="506.81463" y1="216.9976" x2="506.97616" y2="228.4349" gradientUnits="userSpaceOnUse" id="color-2"><stop offset="0" stop-color="#151515"/><stop offset="1" stop-color="#151515" stop-opacity="0"/></linearGradient></defs><g transform="translate(-453.62452,-148.3079)"><g stroke-miterlimit="10"><g><path d="M547.78317,222.22102c17.52165,17.19135 43.52921,39.65632 22.71097,54.54055c-22.24147,15.90178 -69.84652,-14.73497 -82.95147,-30.76095c-16.38015,-20.03122 -12.69288,-83.803 18.59244,-79.47036c45.13265,6.25034 10.37727,25.00946 41.64806,55.69076z" fill="#191919" stroke="none" stroke-width="0" stroke-linecap="butt"/><path d="M520.0459,200.82455c-2.72412,6.31019 -10.66961,8.97333 -17.74675,5.94827c-7.07714,-3.02505 -10.60598,-10.59275 -7.88186,-16.90294c2.72412,-6.31019 10.66961,-8.97333 17.74675,-5.94827c7.07714,3.02505 10.60598,10.59275 7.88186,16.90294z" fill="url(#color-1)" stroke="none" stroke-width="0" stroke-linecap="butt"/><g stroke="none" stroke-width="0" stroke-linecap="butt"><path d="M519.07057,200.1175c-1.45666,3.23965 -6.9582,6.04657 -15.95697,3.07185c-8.67842,-2.86884 -9.3092,-10.36913 -7.78944,-13.74908c2.97641,-6.6196 10.70508,-9.59567 17.26246,-6.64724c6.55739,2.94843 9.46036,10.70487 6.48394,17.32446z" fill="#ffffff"/><path d="M510.35972,195.33523c-1.45029,3.22547 -5.1557,4.70277 -8.27629,3.29963c-3.12058,-1.40313 -4.47464,-5.15534 -3.02435,-8.3808c1.45029,-3.22547 5.1557,-4.70277 8.27629,-3.29963c3.12058,1.40313 4.47464,5.15534 3.02435,8.3808z" fill="#000000"/><path d="M492.4954,189.75097l5.21378,-10.97631l19.65728,4.85596l4.68216,12.05966c0,0 -9.65229,-1.1186 -14.50769,-2.09439c-4.99188,-1.00322 -15.04552,-3.84493 -15.04552,-3.84493z" fill="#191919"/></g><path d="M492.83553,218.82107l1.19654,-1.72969c0,0 10.03635,-3.95667 14.07543,-3.98628c4.44389,-0.0326 12.67588,5.72343 12.67588,5.72343l2.15614,3.87932c0,0 -10.8089,-4.8643 -15.40758,-4.83057c-3.7476,0.0275 -14.69639,0.94381 -14.69639,0.94381z" fill="url(#color-2)" stroke="none" stroke-width="0" stroke-linecap="butt"/><g><path d="M493.44124,217.75883c0.36193,-0.87743 8.89766,-6.09488 16.76638,-5.31818c7.86872,0.7767 12.09067,7.25341 11.72875,8.13085c-0.36193,0.87743 -5.10042,-3.4561 -12.96914,-4.2328c-7.86872,-0.7767 -15.88792,2.29756 -15.52599,1.42013z" fill="#ecec68" stroke="none" stroke-width="0" stroke-linecap="butt"/><path d="M495.21439,217.00417c0,0 9.80649,-3.14221 13.90085,-2.88258c4.28163,0.27152 11.64285,5.15087 11.64285,5.15087" fill="none" stroke="#d9d95f" stroke-width="1" stroke-linecap="round"/></g><path d="M489.27731,173.54659l5.96994,-22.8856l9.68121,21.38724c0,0 -5.2646,2.11415 -7.98703,2.37477c-2.47004,0.23647 -7.66412,-0.87642 -7.66412,-0.87642z" fill="#191919" stroke="none" stroke-width="0" stroke-linecap="butt"/><path d="M517.75391,172.9813l27.87663,-3.54027l-16.46085,19.87008c0,0 -5.53727,-4.78796 -7.52297,-7.62843c-1.80162,-2.57714 -3.8928,-8.70137 -3.8928,-8.70137z" fill="#191919" stroke="none" stroke-width="0" stroke-linecap="butt"/><path d="M503.06468,167.47617l18.86112,-19.16827l0.61134,26.83865c0,0 -7.375,-0.98583 -10.76212,-2.32005c-3.07311,-1.21052 -8.71033,-5.35033 -8.71033,-5.35033z" fill="#191919" stroke="none" stroke-width="0" stroke-linecap="butt"/><path d="M482.97477,186.33981l-14.28679,-17.87398l22.07131,5.04123c0,0 -1.37333,5.25313 -2.72741,7.48532c-1.22854,2.02524 -5.05712,5.34746 -5.05712,5.34746z" fill="#191919" stroke="none" stroke-width="0" stroke-linecap="butt"/><path d="M479.63713,199.26309l-16.32449,-9.1573l18.20311,-2.95944c0,0 0.59774,4.40301 0.27097,6.51064c-0.29647,1.91225 -2.14957,5.60609 -2.14957,5.60609z" fill="#191919" stroke="none" stroke-width="0" stroke-linecap="butt"/><path d="M481.22321,218.53948l-24.55719,-5.92272l22.49271,-10.5298c0,0 2.40961,5.50869 2.76871,8.37052c0.32581,2.59651 -0.70423,8.082 -0.70423,8.082z" fill="#191919" stroke="none" stroke-width="0" stroke-linecap="butt"/><path d="M488.45984,235.60333l-25.86189,2.04714l16.85428,-16.39884c0,0 4.64812,4.28478 6.21495,6.78116c1.42157,2.26497 2.79268,7.57053 2.79268,7.57053z" fill="#191919" stroke="none" stroke-width="0" stroke-linecap="butt"/><path d="M498.31408,251.86939l-25.395,9.29123l11.17733,-22.08155c0,0 6.22355,3.27983 8.69663,5.50463c2.2438,2.01854 5.52103,7.2857 5.52103,7.2857z" fill="#191919" stroke="none" stroke-width="0" stroke-linecap="butt"/><path d="M513.76271,263.08376l-20.77648,16.44861l3.47541,-25.84309c0,0 6.84258,1.71456 9.852,3.34868c2.73043,1.48263 7.44905,6.04579 7.44905,6.04579z" fill="#191919" stroke="none" stroke-width="0" stroke-linecap="butt"/><path d="M533.70502,274.75957l-18.9236,18.17739l0.07046,-27.05251c0,0 7.18824,1.42942 10.46764,2.97319c2.97538,1.40066 8.38551,5.90193 8.38551,5.90193z" fill="#191919" stroke="none" stroke-width="0" stroke-linecap="butt"/><path d="M550.37083,278.60875l-14.08126,21.06921l-2.33892,-24.97355c0,0 6.08741,-0.31446 8.94361,0.36467c2.59141,0.61618 7.47657,3.53967 7.47657,3.53967z" fill="#191919" stroke="none" stroke-width="0" stroke-linecap="butt"/><path d="M564.19731,276.29547l-9.32245,23.50913l-7.50241,-23.93316c0,0 5.86901,-1.5654 8.79559,-1.49165c2.65527,0.06692 8.02926,1.91569 8.02926,1.91569z" fill="#191919" stroke="none" stroke-width="0" stroke-linecap="butt"/><path d="M573.25653,252.49793l29.12108,2.37328l-23.77694,16.08586c0,0 -3.75184,-5.87233 -4.68143,-9.08318c-0.8434,-2.91319 -0.66271,-9.37597 -0.66271,-9.37597z" fill="#191919" stroke="none" stroke-width="0" stroke-linecap="butt"/><path d="M576.61427,259.33902l24.72221,25.01626l-34.51007,-4.14667c0,0 1.23906,-8.25065 2.94159,-11.88079c1.54469,-3.2936 6.84627,-8.9888 6.84627,-8.9888z" fill="#191919" stroke="none" stroke-width="0" stroke-linecap="butt"/><path d="M574.49102,263.89052l2.03521,34.90665l-23.29739,-25.76449c0,0 6.41993,-5.34232 10.11836,-6.93257c3.35555,-1.44281 11.14384,-2.2096 11.14384,-2.2096z" fill="#191919" stroke="none" stroke-width="0" stroke-linecap="butt"/><path d="M522.33198,189.1187l26.39347,-3.3382l-16.82562,18.02996c0,0 -4.85951,-4.29664 -6.52379,-6.85218c-1.50997,-2.31863 -3.04406,-7.83959 -3.04406,-7.83959z" fill="#191919" stroke="none" stroke-width="0" stroke-linecap="butt"/><path d="M528.95435,203.28889l27.75289,-1.17566l-20.51907,17.99061c0,0 -4.23674,-5.10843 -5.49502,-8.0333c-1.14163,-2.65371 -1.73879,-8.78167 -1.73879,-8.78167z" fill="#191919" stroke="none" stroke-width="0" stroke-linecap="butt"/><path d="M537.61577,220.88006l30.13584,-5.68864l-17.60848,21.96041c0,0 -6.04359,-4.61502 -8.22265,-7.44541c-1.97705,-2.56798 -4.30472,-8.82637 -4.30472,-8.82637z" fill="#191919" stroke="none" stroke-width="0" stroke-linecap="butt"/><path d="M561.14718,245.89893l22.9915,-10.90473l-10.81411,22.59031c0,0 -5.41998,-2.8222 -7.53816,-4.85483c-1.92182,-1.8442 -4.63922,-6.83073 -4.63922,-6.83073z" fill="#191919" stroke="none" stroke-width="0" stroke-linecap="butt"/><path d="M552.07632,236.4171l20.21626,-8.09467l-8.80701,18.24854c0,0 -4.98249,-2.5519 -6.96706,-4.31811c-1.80059,-1.60247 -4.44219,-5.83576 -4.44219,-5.83576z" fill="#191919" stroke="none" stroke-width="0" stroke-linecap="butt"/></g><path d="M560.15011,270.15088l14.36158,-5.25128l-7.80533,12.93385c0,0 -3.06118,-1.99383 -4.20161,-3.33016c-1.03469,-1.21245 -2.35464,-4.35241 -2.35464,-4.35241z" fill="#191919" stroke="none" stroke-width="0" stroke-linecap="butt"/><path d="M554.19465,281.5053c-2.8359,10.94839 -27.39902,16.46176 -50.28223,12.01804c-12.21897,-2.37282 -49.41442,-14.92361 -49.51168,-28.89514c-0.12639,-18.15402 42.59646,-38.69403 63.31975,-34.83653c31.58179,5.87874 42.40849,28.80339 36.47416,51.71365z" fill="#d7d75f" stroke="none" stroke-width="0" stroke-linecap="butt"/><g stroke="none" stroke-linecap="butt"><path d="M590.83154,231.20658c-3.66437,16.26747 -31.28852,42.2276 -57.15481,36.40101c-25.86627,-5.82658 -15.88603,-25.48635 2.12048,-32.46376c12.42707,-4.81541 8.35945,-38.86466 30.16575,-42.02637c26.24003,-3.80457 28.53295,21.82165 24.86857,38.08911z" fill="#d7d75f" stroke-width="NaN"/><path d="M615.27583,225.70868c0.06116,2.85637 -12.17814,4.55848 -27.33723,3.80178c-15.15909,-0.75671 -24.76017,-2.25688 -24.82135,-5.11325c-0.00807,-0.37653 -1.27529,-3.93012 0.17082,-4.74871c7.70063,-4.35903 4.24617,2.14668 7.49485,2.12565c15.90543,-0.10299 44.44959,1.91221 44.49291,3.93454z" fill="#89893c" stroke-width="0"/><path d="M617.41979,219.68937c0.0374,2.26852 -26.0188,3.41391 -42.47855,2.84773c-2.09087,-0.07192 -6.00162,5.16803 -9.86651,4.29031c-2.67531,-0.60757 -3.43665,-5.67302 -3.28231,-6.22086c1.75738,-6.2377 12.35367,-6.20558 27.71476,-6.45885c15.36107,-0.25327 27.85798,2.22781 27.91262,5.54166z" fill="#9b9b44" stroke-width="0"/><path d="M579.21541,207.48092c-0.12509,2.62463 -0.85229,4.72248 -1.62423,4.68569c-0.77195,-0.03679 -1.29633,-2.1943 -1.17124,-4.81892c0.12509,-2.62463 0.85229,-4.72248 1.62423,-4.68569c0.77195,0.03679 1.29633,2.1943 1.17124,4.81892z" fill="#000000" stroke-width="0"/><path d="M574.53615,207.7725c-0.12509,2.62463 -0.85229,4.72248 -1.62423,4.68569c-0.77195,-0.03679 -1.29633,-2.1943 -1.17124,-4.81893c0.12509,-2.62463 0.85228,-4.72248 1.62423,-4.68569c0.77195,0.03679 1.29633,2.1943 1.17124,4.81892z" fill="#000000" stroke-width="0"/></g><path d="M525.4336,252.8661c-1.6161,9.9297 -18.94637,15.01701 -38.70826,11.36283c-19.76189,-3.65418 -34.47196,-14.66609 -32.85587,-24.59579c1.6161,-9.9297 18.94637,-15.01701 38.70826,-11.36283c19.76189,3.65418 34.47196,14.66609 32.85587,24.59579z" fill="#c2c255" stroke="none" stroke-width="0" stroke-linecap="butt"/><path d="M529.96705,246.26618c-0.65283,10.22174 -18.26773,17.41689 -39.34398,16.07082c-21.07625,-1.34607 -37.63271,-10.72364 -36.97989,-20.94538c0.65283,-10.22174 18.26773,-17.41689 39.34398,-16.07082c21.07625,1.34607 37.63271,10.72364 36.97989,20.94538z" fill="#d7d75f" stroke="none" stroke-width="0" stroke-linecap="butt"/><path d="M555.70717,270.23762c0,0 -6.41503,3.34628 -14.63452,-2.69192c-8.66486,-6.36538 -8.1094,-15.39162 -8.1094,-15.39162c0,0 4.37389,9.10441 10.67794,11.93894c6.30405,2.83452 12.06599,6.1446 12.06599,6.1446z" fill="#c2c255" stroke="none" stroke-width="0" stroke-linecap="butt"/><path d="M564.57788,265.52751c-2.30927,5.13587 -11.34261,6.27546 -20.25923,2.26623c-8.91662,-4.00922 -12.0307,-16.78493 -12.0307,-16.78493c0,0 6.40879,5.82356 15.3254,9.83278c8.91662,4.00922 19.27379,-0.44994 16.96453,4.68591z" fill="#191919" stroke="none" stroke-width="NaN" stroke-linecap="butt"/><path d="M483.97972,240.05519c0.88177,7.55299 2.11369,17.92756 2.11369,17.92756c0,0 -6.23762,-7.7461 -6.44346,-18.49578c-0.19525,-10.19714 5.61572,-14.34248 5.61572,-14.34248c0,0 -2.08747,8.04535 -1.28598,14.9107z" fill="#c2c255" stroke="none" stroke-width="0" stroke-linecap="butt"/><path d="M482.79702,238.80323c0.38031,11.47539 3.68303,20.27533 3.68303,20.27533c0,0 -11.84642,-6.14239 -12.22673,-17.61776c-0.38031,-11.47539 4.59029,-22.12493 10.8495,-23.93826c6.2592,-1.81333 -2.68612,9.80531 -2.30581,21.2807z" fill="#191919" stroke="none" stroke-width="NaN" stroke-linecap="butt"/><path d="M531.4886,236.93613c-0.35251,1.44022 -3.85417,-1.0933 -8.93286,-2.33635c-5.07868,-1.24305 -9.81117,-0.72491 -9.45866,-2.16513c0.35251,-1.44022 4.75535,-1.60006 9.83402,-0.35702c5.07868,1.24305 8.90999,3.41827 8.55749,4.85848z" fill="#eded8c" stroke="none" stroke-width="0" stroke-linecap="butt"/><path d="M511.22967,231.72507c-0.35203,0.78292 -1.27209,1.13224 -2.05501,0.7802c-0.78292,-0.35203 -1.13224,-1.27209 -0.7802,-2.05501c0.35203,-0.78292 1.27209,-1.13224 2.05501,-0.7802c0.78292,0.35203 1.13224,1.27209 0.7802,2.05501z" fill="#eded8c" stroke="none" stroke-width="0" stroke-linecap="butt"/></g></g></svg>