<svg version="1.1" xmlns="http://www.w3.org/2000/svg" xmlns:xlink="http://www.w3.org/1999/xlink" width="117.95355" height="268.1342" viewBox="0,0,117.95355,268.1342"><g transform="translate(-269.57284,-41.51396)"><g data-paper-data="{&quot;isPaintingLayer&quot;:true}" fill-rule="nonzero" stroke-linecap="butt" stroke-linejoin="miter" stroke-miterlimit="10" stroke-dasharray="" stroke-dashoffset="0" style="mix-blend-mode: normal"><path d="M282.56373,308.53989c0,0 -0.63536,-94.38387 -0.79335,-118.01201c-0.05451,-8.15261 8.18688,-36.76129 40.20201,-36.9211c31.60235,-0.15775 39.85672,29.48704 39.84884,36.89673c-0.07659,46.24274 0.65429,117.98648 0.65429,117.98648l-10.49667,0.09614l-0.15882,-114.84311c0,0 0.07549,-3.0993 -2.81625,-3.15415c-3.43441,-0.06514 -2.94538,3.11562 -2.94538,3.11562l0.20548,114.86995l-48.21366,0.07222l-0.30539,-115.23309c0,0 0.27949,-2.919 -2.8856,-2.93443c-3.11083,-0.01515 -2.81569,2.90899 -2.81569,2.90899l0.35311,115.0668z" fill="#999999" stroke="#000000" stroke-width="2"/><path d="M321.66272,265.26944c-0.81895,0 -1.48284,-0.66389 -1.48284,-1.48284c0,-0.81895 0.66389,-1.48284 1.48284,-1.48284c0.81895,0 1.48284,0.66389 1.48284,1.48284c0,0.81895 -0.66389,1.48284 -1.48284,1.48284z" data-paper-data="{&quot;index&quot;:null}" fill="#000000" stroke="none" stroke-width="1.5"/><path d="M297.59946,308.55433v-119.20147c0,0 0.75721,-9.73105 0.75721,-14.63937c0,-4.498 -0.75721,-13.6872 -0.75721,-13.6872c0,0 2.67319,-2.35297 4.6557,-3.74807c1.98251,-1.3951 5.17197,-2.80371 5.17197,-2.80371c0,0 -0.6016,40.10902 14.55952,40.03867c15.43477,-0.07162 13.83154,-40.03867 13.83154,-40.03867c0,0 3.91276,1.51959 6.16585,2.94655c2.25309,1.42695 4.75379,3.60523 4.75379,3.60523c0,0 -0.75721,9.42463 -0.75721,14.19201c0,4.84193 0.75721,14.63937 0.75721,14.63937v118.69667z" fill="#0f0e02" stroke="#000000" stroke-width="2"/><path d="M357.90647,109.75344c0,0 1.70141,0.6232 4.71286,1.99585c2.75061,1.25377 4.82887,2.75816 4.82887,2.75816l0.02733,1.38041c0,0 -7.81941,-4.826 -16.98753,-5.39296c-7.33061,-0.45331 -11.94556,1.55845 -11.94556,1.55845l0.75684,-4.80141c0,0 3.88823,-1.43494 9.3669,-0.81074c5.67311,0.64637 9.21596,2.04479 9.21596,2.04479z" data-paper-data="{&quot;index&quot;:null}" fill="#000000" stroke="none" stroke-width="1.5"/><path d="M311.04767,107.7097c0,0 4.18639,-1.52627 9.63308,-1.27301c6.03562,0.28064 8.95536,1.23333 8.95536,1.23333l-0.35778,4.81355c0,0 -4.30141,-1.43032 -9.14385,-1.95176c-6.47616,-0.69737 -7.89236,0.52959 -12.86629,0.34024c-4.26192,-0.16226 -7.7839,-0.95293 -7.7839,-0.95293l0.17782,-1.42235c0,0 4.12694,0.69129 6.03752,0.80364c1.57693,0.09273 4.73569,-0.40983 4.73569,-0.40983z" fill="#000000" stroke="none" stroke-width="1.5"/><path d="M307.99862,168.31799l-0.58013,-0.77915c-2.12634,-2.88115 -4.82916,-4.45272 -6.92023,-7.26121c-0.03679,-0.04942 -0.65363,-0.63573 -1.12669,-1.24683c-0.0745,0.22522 -0.17336,0.42483 -0.28504,0.54933c-0.07574,0.08443 -0.15648,0.16288 -0.24131,0.23646l0.05268,0.04747l-0.81683,0.90654c-0.25149,0.28742 -0.63917,0.44529 -1.04516,0.38585c-0.6359,-0.09311 -1.0759,-0.68408 -0.98279,-1.31997l0.15992,-1.09212c-0.90109,-1.69177 -1.41139,-3.82276 -2.38632,-5.39769c-1.32142,-2.13467 -3.69248,-4.2931 -4.39785,-6.8473c-0.48435,-1.75391 -0.06131,-3.49658 -0.88311,-5.15931c-0.64411,-1.47819 -1.12293,-3.86426 -1.11433,-5.53132c0.00263,-0.5086 0.45866,-4.52399 -0.10224,-4.55356c-1.77375,-0.09352 -3.3059,1.90797 -4.73386,2.59765c-3.13846,1.51582 -6.36953,2.55772 -9.6075,1.89504l-0.05257,0.35909l-1.35928,-0.19904c-0.6359,-0.09311 -1.0759,-0.68408 -0.98279,-1.31997c0.05944,-0.40599 0.32184,-0.73213 0.66929,-0.89065l1.10267,-0.52264c3.0125,-1.40931 5.58668,-2.98029 8.08866,-5.08691c-1.38633,0.01975 -2.78171,-0.31602 -4.38466,-0.92243c-0.75371,-0.28513 -3.15954,-1.23452 -3.33668,-1.90612c-0.21479,-0.81427 1.89959,-2.81332 2.42277,-3.26964c2.54775,-2.22218 6.47681,-4.617 8.20454,-7.52865c0.73811,-1.24389 0.89895,-2.42066 1.90662,-3.53899c0.7034,-1.77993 1.43536,-3.27426 2.44547,-4.84852c0.08234,-0.12834 0.16126,-0.32304 0.24139,-0.52334c-0.23835,0.10319 -0.48674,0.1885 -0.65994,0.24315c-1.67836,0.52963 -4.74196,1.08787 -5.55937,-1.29993c-0.90008,-2.62933 2.57771,-4.79203 4.20451,-5.9775c1.59386,-1.16147 2.23875,-3.35845 2.50735,-5.19288c3.55018,-8.62772 7.0418,-17.67648 13.55423,-24.90409c4.72883,-5.24815 11.10923,-10.35579 16.8304,-14.37597c1.41965,-0.99759 3.52634,-1.17394 5.14929,-1.9197c2.53286,-0.25308 4.82885,-1.48209 7.48298,-1.42578c8.32263,0.17654 16.54619,3.70949 24.67002,5.02334c2.70389,1.83559 5.82202,2.33881 8.63412,4.11285c3.69829,2.33309 6.75163,5.66695 10.29028,8.1127c2.70123,1.86696 4.49755,2.82095 5.94403,5.96886c0.40273,3.77099 1.69973,7.17194 1.60784,10.9807c-0.15648,6.48592 -3.02286,14.2707 -0.95057,20.5607c-0.46028,3.5086 1.71755,6.55056 2.64472,9.89464c1.05487,3.80469 0.82563,7.3268 1.21599,11.14992c0.31991,3.13326 0.98521,5.6627 -0.67333,7.84678l0.35306,0.31813l-0.81683,0.90654c-0.25148,0.28742 -0.63917,0.44529 -1.04516,0.38585c-0.54794,-0.08023 -0.95044,-0.53013 -0.99172,-1.0599l-0.12318,-1.23275c-1.30473,-2.67234 -1.21769,-5.48089 -2.78802,-8.08115c-0.06802,-0.11262 -0.14361,-0.21623 -0.2237,-0.31264c0.16622,5.81045 -1.52137,11.76052 -3.63873,16.98913c-2.48269,6.03344 -5.09924,11.49939 -7.43419,17.62797c-1.16381,3.0547 -2.04762,5.98247 -4.26858,7.91503l0.30425,0.40864l-1.16873,0.87018c-0.23887,0.17784 -0.54559,0.26458 -0.86354,0.21802c-0.63588,-0.09311 -1.0759,-0.68408 -0.98278,-1.31997l0.19903,-1.35928c0.05239,-0.34925 -0.02053,-1.75375 0.01038,-2.98738c-0.45159,0.87988 -0.97158,1.73829 -1.0368,1.85668c-1.0904,1.97953 -2.1693,3.15015 -3.68107,4.17269l0.11424,0.11503l-1.20888,1.20047c-0.25135,0.25508 -0.61667,0.39108 -0.99815,0.33522c-0.63588,-0.09311 -1.0759,-0.68407 -0.98279,-1.31997c0.01542,-0.10534 0.04451,-0.2053 0.0852,-0.29836l0.48794,-1.18581c0.19347,-1.34908 0.41483,-3.25731 0.80309,-4.82044c-0.599,0.39296 -1.24268,0.74088 -1.65382,1.10876c-2.51394,2.2494 -4.89892,3.86559 -7.74995,5.36468c-1.52634,1.36478 -3.18353,2.51633 -4.93948,3.46149c-0.2716,0.30167 -0.54337,0.60323 -0.81509,0.9048c-3.08668,3.42565 -7.48015,5.48307 -11.43778,7.31187c-1.08004,0.49908 -1.90139,1.70983 -3.28069,2.06357c-3.73871,0.95883 -9.19336,-2.0327 -10.40947,-5.48048c-0.47431,-1.02945 -0.36856,-2.53422 -1.05442,-3.38415c-1.69272,-2.0977 -3.37998,-4.11464 -4.97773,-6.27344c-0.39065,-0.12345 -0.63299,-0.44893 -0.63299,-0.44893zM315.47605,173.65045c0.89195,1.26933 0.69439,2.57575 1.34864,3.90985c0.69293,2.32022 5.07817,4.81365 7.62533,4.10236c1.26912,-0.3544 1.79965,-1.38777 2.85304,-1.89781c2.31811,-1.1224 4.84205,-2.24862 7.12142,-3.74293c-4.01569,1.02534 -8.30263,1.19499 -12.5743,0.56951c-3.09652,-0.47161 -4.68122,-1.93358 -6.94542,-3.72956c0.19467,0.2613 0.38545,0.52406 0.5713,0.78856zM340.63046,170.13041l1.25733,-0.94322c0,0 0.41228,-0.30695 0.89282,-0.23886c0.50147,-0.24194 0.99021,-0.48693 1.46803,-0.73603c0.64826,-0.58397 1.27389,-1.20911 1.87476,-1.87598c1.4867,-0.48907 0.41239,-1.47931 -0.96111,-2.34704l-0.00992,0.01214c-2.73634,0.27341 -5.21766,1.29911 -7.81751,1.61683c-2.59147,0.31671 -5.43113,-0.93158 -8.09224,-0.79306c-0.56198,-0.08359 -1.1272,-0.16997 -1.69473,-0.25996c-0.22298,-0.00484 -0.47668,-0.04785 -0.74766,-0.12052c-4.48041,-0.73438 -9.07928,-1.71497 -13.35312,-3.34369c-3.16632,-1.20666 -6.60422,-3.77609 -9.88788,-4.19601c0,0 -0.23271,-0.03408 -0.47358,-0.17621c-0.02242,0.20553 -0.03168,0.43108 -0.02714,0.67911c2.74786,2.22321 4.83189,5.99383 6.90636,8.84056c1.45554,1.99742 4.14243,3.02783 6.03944,4.5169c2.12685,1.66948 3.35064,3.12905 6.18303,3.52331c6.02678,0.88246 11.91438,0.08879 16.99085,-2.55414c0.48332,-0.5354 0.96717,-1.0703 1.45225,-1.60415zM362.59672,137.40807c1.08391,-0.16805 1.52175,-1.11879 2.62564,-1.94452c3.95677,-2.95976 5.09719,-6.52533 5.84005,-11.35963c-0.20144,-3.10325 -3.44432,-0.57485 -4.52364,0.81471c-0.64576,0.83138 -1.22451,1.72686 -1.72735,2.66973c-0.01776,0.56967 0.02904,1.15923 -0.1943,1.66975c-0.60085,1.37346 -1.20207,2.7559 -1.79708,4.14864c-0.22345,1.32076 -0.30356,2.66524 -0.22332,4.00133zM351.38553,156.83732c0.77283,-1.65681 2.19011,-2.71034 2.71625,-4.61175c1.05136,-3.79944 0.07706,-8.01823 3.0914,-10.9911c1.01914,-3.03406 2.19553,-5.99264 3.45792,-8.87933c0.40943,-2.03152 1.11557,-4.00925 2.07613,-5.82401c0.01234,-0.34107 0.04926,-0.6752 0.18169,-0.98162c1.1469,-2.65351 2.48647,-5.39883 3.34839,-8.29792l-0.22588,-0.1763c-1.99124,-0.84409 -3.89598,-2.04203 -5.43109,-3.58743c-0.82446,-0.08044 -1.65281,-0.19545 -2.48349,-0.33296c-0.07727,0.00152 -0.15996,-0.00364 -0.24848,-0.0166c-0.11644,-0.01705 -0.21938,-0.04416 -0.31036,-0.0791c-4.26658,-0.75398 -8.58579,-2.02827 -12.75095,-2.1893c-1.49145,-0.05766 -4.82736,2.05555 -6.16091,0.59316c-0.56555,-0.6202 -0.37978,-1.61979 -0.06645,-2.51492c-0.00567,-0.00737 -0.01132,-0.01483 -0.01697,-0.0224c-0.69495,-0.93336 0.23843,-1.6283 0.23843,-1.6283l1.10997,-0.75198c1.24142,-0.40687 2.50444,-1.23804 3.74926,-1.55729c2.40097,-0.61575 5.18811,0.0162 7.46581,0.65433c3.94167,1.10434 8.30244,0.51389 8.16067,5.39817c0.77814,0.09784 1.54798,0.20772 2.3035,0.34095c1.62276,1.37158 3.28189,2.71403 5.24349,3.50818c0.05571,-0.29798 0.10488,-0.59766 0.14684,-0.89908c0.69697,-4.75997 0.45938,-9.15363 -0.00536,-13.94691c-0.1691,-1.74409 0.43985,-3.71785 -1.64914,-4.6077c-2.90662,-1.23813 -4.03679,0.04972 -6.86847,0.33265c-4.58083,2.26404 -11.02802,3.78593 -16.10867,4.30541c-2.63502,0.26941 -5.04378,0.04962 -7.49272,1.20522l-0.07758,-0.00438l0.00961,0.02913l-1.43657,0.47329c-0.17235,0.06082 -0.36156,0.0818 -0.55495,0.05348c-0.6359,-0.09311 -1.07589,-0.68408 -0.98279,-1.31997c0.05944,-0.406 0.32184,-0.73214 0.66929,-0.89066l1.10267,-0.52263l0.06242,0.13169l0.01053,-0.00347c1.58661,-1.47331 3.3553,-2.64285 5.23021,-3.79505c0.53224,-0.32709 1.22054,-0.95794 1.89891,-1.46514c-0.84394,0.16005 -1.74629,0.00318 -2.57881,0.22668c-2.79791,0.75112 -5.74437,1.4202 -8.52461,2.29193c-2.79787,-0.36704 -4.72114,0.61391 -7.27337,1.29568c-4.76943,1.27403 -10.17959,1.35733 -14.83627,2.30137c-0.95677,0.19397 -1.4862,3.51064 -1.76401,4.19664c-0.68927,1.64301 -1.13083,3.24461 -1.39074,4.83052c1.44793,0.08427 2.90981,0.05778 4.37874,-0.02101c0.2971,-0.92141 1.78017,-2.73701 2.32916,-2.92336c1.73807,-0.58993 3.93128,1.00044 5.65949,0.74c2.13268,-0.3214 4.44397,-1.53314 6.66401,-1.49563c1.80928,0.03058 6.14584,1.20491 6.95916,2.95638c0.41485,0.89334 -0.47786,3.80792 -1.35813,4.20475c-0.6882,0.31025 -1.46677,-0.35786 -2.20015,-0.53679c-1.54054,-0.64628 -3.12812,-1.02463 -4.74616,-1.22459c1.87592,1.60829 6.76086,2.02893 7.67573,4.47006c0.70275,1.87512 0.26711,3.73316 -0.65164,5.50641c0.27477,0.38842 0.20227,0.88353 0.20227,0.88353c-0.4869,3.32525 0.38808,6.31202 0.31786,9.62182c-0.10501,4.9505 -1.48326,10.19011 -2.20132,15.09405c-0.55316,3.77783 -1.43378,7.4214 -1.98183,11.16433c-0.12101,0.8264 -0.72208,2.59978 -0.37039,3.43357c0.23667,0.5611 1.12043,0.48987 1.63402,0.81709c0.09125,0.05813 0.14282,0.20264 0.19432,0.32908c0.13988,0.02291 0.27967,0.0455 0.41931,0.06784c0.30154,-0.37231 0.06552,-1.18479 0.20864,-1.709c0.60764,-2.22558 0.9841,-4.44285 1.33497,-6.74666c0.57735,-1.40306 1.04692,-2.84113 1.44223,-4.30321c-0.12552,-0.30454 -0.15651,-0.72387 0.24144,-1.16552c0.02547,-0.02827 0.05103,-0.05478 0.07666,-0.07962c1.81972,-7.53897 1.94491,-15.62384 4.84411,-22.78307c0.10015,-0.24338 0.20029,-0.48677 0.30044,-0.73015c0.0018,-0.077 0.00412,-0.15395 0.00703,-0.23081c-0.32896,-0.12897 -0.82918,-0.45695 -0.71408,-1.24307c0.10683,-0.72959 0.60828,-0.92917 0.96135,-0.97749c0.34906,-1.83638 1.05737,-3.51741 2.1606,-4.77144c2.16393,-2.38146 5.47161,-4.49261 8.77375,-4.43681c6.25428,0.10568 15.92347,5.14332 13.00506,12.58707c-0.15314,1.04587 -0.24192,2.73336 -1.28435,3.37207c-0.01147,0.00704 -0.02306,0.01394 -0.03475,0.02069c-1.02001,3.50302 -3.29783,6.41144 -6.77337,8.05877c-2.48433,1.08253 -4.83024,0.15143 -7.31275,-0.53494c-2.402,-0.66412 -4.84316,-1.18722 -6.44358,-3.36178c-0.72227,-0.9814 -1.28829,-2.18313 -1.68359,-3.49538c-1.81606,6.15365 -2.09799,12.85818 -3.5844,19.15645c1.88454,1.9831 2.75212,4.41921 -0.14044,6.15906c1.62645,0.17971 3.35882,0.33587 4.73847,1.16631c2.63766,1.58766 4.92863,3.65077 7.49361,5.18996c0.08988,-0.00489 0.18741,-0.00054 0.29326,0.01496c0.52765,0.07726 0.77808,0.36092 0.89458,0.64558c0.2061,0.10507 0.41442,0.2061 0.62523,0.30261c0.37009,0.16945 0.70374,0.37113 0.99747,0.59714c1.59933,-1.87856 2.62457,-3.94075 3.61326,-6.06034zM303.50524,132.1178c-1.00297,6.8498 -0.27283,13.71613 -1.28636,20.63803l-0.18169,1.24086c2.22586,-2.78714 7.29504,-3.19291 11.09124,-2.19912c2.07108,0.54218 4.60157,2.42377 6.84648,2.08546c0.79272,-0.11947 1.43161,-0.30406 2.09755,-0.42317c-3.67181,-3.48939 -1.39059,-7.32127 3.03642,-7.15938c0.0127,-0.08446 0.02526,-0.16899 0.03765,-0.25358c0.70367,-4.80575 2.07638,-9.96087 2.17736,-14.81017c0.05106,-2.45208 -0.38442,-4.72225 -0.44498,-7.08482c-1.16674,1.49892 -2.3777,2.88881 -3.12562,4.11724c-0.74055,1.21633 -1.22255,2.67616 -2.54584,3.50419c-0.88278,0.55238 -1.95595,0.72163 -2.90175,1.15739c-6.26997,0.65661 -12.36298,-4.64243 -13.54073,-10.66224c-0.05514,3.28121 -0.79436,6.67096 -1.25975,9.8493zM352.0089,108.11505c-2.4472,-0.36588 -5.1932,-1.59166 -7.72525,-0.88458c-1.00856,0.28163 -2.01018,0.86679 -3.01871,1.28893c-0.10248,0.23728 -0.26581,0.59123 -0.42784,0.89189c1.11851,-0.48735 3.71575,-0.87073 4.02328,-0.86809c1.55473,0.01342 2.86704,0.57398 4.30945,0.9781c2.46994,0.69199 5.13963,0.9677 7.78294,1.25277c-0.11221,-2.3995 -2.40767,-2.27983 -4.94388,-2.65901zM306.26606,114.64077c0,0 0.27789,-0.39842 0.732,-0.50088l0.13709,-0.1925c1.59746,-1.5199 3.21496,-1.30245 5.33936,-1.75147c1.08751,-0.22987 2.09127,-0.92294 3.11462,-1.45354c-3.83056,0.26354 -7.70621,0.84551 -11.42633,0.66478c-0.16402,2.60589 0.08078,5.20291 0.4364,7.90709c0.13988,-1.59749 0.66734,-3.18642 1.66684,-4.6735zM314.28128,158.92834c2.7414,1.04445 5.61977,1.82262 8.51045,2.43201c-0.27953,-1.31386 0.19495,-2.9333 0.37297,-4.14913c0.07592,-0.51854 0.15819,-1.03494 0.24503,-1.5499c-1.73386,-0.12748 -2.98103,0.56429 -4.7904,0.32488c-4.42425,-0.58541 -7.26443,-2.78897 -11.82361,-1.80431c-0.86572,0.18696 -1.61865,0.31838 -2.21742,0.55214c3.3102,0.74689 6.51049,2.97799 9.70297,4.19429zM329.35123,162.50043c2.43988,-0.127 5.32154,1.16542 7.63901,0.81617c1.68739,-0.2543 3.32213,-0.73783 5.01357,-1.1258c-3.69603,-2.28518 -6.1526,-4.37567 -10.7116,-5.04322l-0.19669,0.19415c0,0 -0.16544,0.0545 -0.38937,0.05733c-0.2838,1.77674 -0.6852,3.55934 -1.46143,5.08597c0.03551,0.00514 0.07102,0.01028 0.10651,0.01539zM323.70297,151.79911l0.37178,0.25143c0.22114,-1.14532 0.44483,-2.2913 0.65158,-3.44549c-2.13169,-0.01326 -3.23219,1.29157 -1.02336,3.19406zM338.18386,124.98498c-0.0294,0.07142 -0.05877,0.14282 -0.08815,0.21424c0.04173,2.48995 0.73251,5.01972 1.90911,6.57189c1.29525,1.70868 3.29767,1.98335 5.19288,2.50735c1.72245,0.47622 4.01803,1.59061 5.69995,0.67621c2.45147,-1.16193 4.45326,-3.26634 5.35734,-5.77186c-1.10516,-0.19087 -2.3247,-0.61339 -3.35611,-1.01928c-2.87493,6.16813 -8.81032,0.87099 -12.15241,-2.11c0,0 -0.43237,-0.38959 -0.41003,-0.9235c-0.69968,-0.09143 -1.40808,-0.18725 -2.12709,-0.29184zM356.58051,126.25249l0.42801,0.21431l0.32815,-0.72297c0,0 0.13262,-0.26294 0.3967,-0.45754c-0.0057,-0.10443 -0.00422,-0.20423 0.00923,-0.29612c0.95495,-2.19256 0.2523,-3.37704 -1.00425,-5.07255c-0.44668,-0.60273 -0.40589,-1.62251 -1.06357,-1.98343c-0.75997,-0.41705 -1.71262,-0.33346 -2.51525,-0.66098c-5.07851,-2.07234 -9.30347,-2.65308 -13.22244,1.74061c-0.8084,0.86808 -1.3334,2.09532 -1.60897,3.46982c2.33184,0.29894 4.72418,0.5587 7.06525,0.96993c3.75516,0.53431 7.38297,1.23359 11.18713,2.79895zM320.01507,108.43378c2.62135,0.0592 5.20902,0.42869 7.72311,1.44679c0.85799,1.10792 0.61566,-0.4377 0.53655,-0.59194c-0.34595,-0.67459 -3.97687,-1.52867 -4.87633,-1.55347c-1.09906,-0.0303 -2.24642,0.32503 -3.38332,0.69863zM318.04257,126.69435c-2.1809,0.35851 -4.0727,-0.89476 -5.74032,-1.93191c-0.75433,-0.46916 -2.43913,-0.63802 -2.93243,-1.36753c-0.87401,-1.29249 -0.38331,-2.32482 0.08518,-3.43877c-0.87291,-0.1408 -1.74651,-0.27682 -2.62082,-0.40606c-0.45837,5.54758 5.38429,11.64142 10.84828,11.13831c0.72244,-0.35429 1.5615,-0.45446 2.25379,-0.86455c0.98368,-0.58271 1.31402,-1.931 1.84753,-2.79466c0.85938,-1.3912 2.25288,-2.85837 3.46961,-4.43514l-0.34877,-0.05106c-0.99892,-0.14626 -1.99841,-0.30201 -2.99856,-0.46414c-0.77308,1.91777 -1.45969,4.22033 -3.86351,4.6155zM326.65431,120.52178c0.77954,-1.39277 1.22834,-2.87109 0.93842,-4.45425c-0.1033,-0.56409 -1.04585,-0.47151 -1.57757,-0.6863c-1.7008,-0.68699 -3.56562,-1.19119 -4.90073,-2.46846c-1.01457,-0.09898 -2.43107,-0.62456 -3.41054,-0.49938c-1.52719,0.19517 -3.16199,1.70813 -4.74667,2.05924c-0.9291,0.20586 13.65532,6.02814 13.6971,6.04915zM331.67591,152.93551c0.92217,-0.26125 0.8608,-0.84288 0.47575,-1.44281c-0.14827,0.48444 -0.30642,0.96555 -0.47575,1.44281z" fill="#000000" stroke="none" stroke-width="0.5"/><path d="M362.77566,133.44438c0.59501,-1.39274 1.18631,-2.83374 1.78716,-4.2072c0.22334,-0.51051 0.19513,-1.12508 0.2129,-1.69477c0.50285,-0.94287 1.11494,-1.85055 1.76071,-2.68193c1.07932,-1.38956 4.35861,-3.90698 4.56005,-0.80372c-0.74286,4.83431 -1.93319,8.50301 -5.88996,11.46277c-1.10388,0.82573 -1.55456,1.7711 -2.63845,1.93917c-0.08024,-1.33608 -0.01585,-2.69356 0.2076,-4.01432z" data-paper-data="{&quot;noHover&quot;:false,&quot;origItem&quot;:[&quot;Path&quot;,{&quot;applyMatrix&quot;:true,&quot;segments&quot;:[[[268.21396,123.01191],[-0.23457,-1.12607],[0.90071,-0.27784]],[[270.20442,121.0316],[-0.83582,0.83955],[2.99592,-3.00929]],[[273.75586,110.64549],[-0.02976,4.20306],[-0.55764,-2.61359]],[[270.01088,111.90144],[0.74473,-1.31591],[-0.44558,0.78732]],[[268.87451,114.38655],[0.31018,-0.86432],[0.05582,0.4866]],[[268.9172,115.83051],[0.12634,-0.46189],[-0.3399,1.24265]],[[267.90567,119.58181],[0.33253,-1.25832],[-0.02556,1.15086]]],&quot;closed&quot;:true}]}" fill="#ffffff" stroke="none" stroke-width="0.5"/><path d="M338.16098,124.80582c0.71901,0.10459 1.43135,0.19516 2.13104,0.28659c-0.02233,0.53392 0.40789,0.92619 0.40789,0.92619c3.34209,2.981 9.37844,8.29248 12.25338,2.12435c1.03141,0.40589 2.25415,0.84097 3.35933,1.03185c-0.90409,2.50553 -2.92351,4.66019 -5.37498,5.82212c-1.68192,0.9144 -4.03892,-0.18813 -5.76137,-0.66436c-1.8952,-0.524 -3.93338,-0.84199 -5.22862,-2.55067c-1.1766,-1.55219 -1.8597,-4.12332 -1.90143,-6.61327c0.0294,-0.07142 0.05947,-0.14393 0.08885,-0.21535z" data-paper-data="{&quot;noHover&quot;:false,&quot;origItem&quot;:[&quot;Path&quot;,{&quot;applyMatrix&quot;:true,&quot;segments&quot;:[[[245.90918,115.48812],[0,0],[-0.0161,0.06438]],[[245.8609,115.68126],[0.0161,-0.06438],[0.34549,2.11199]],[[248.30242,121.0316],[-1.19371,-1.17332],[1.31407,1.29162]],[[253.03005,122.51705],[-1.67672,-0.20959],[1.52388,0.19048]],[[257.96087,122.38236],[-1.31628,0.98691],[1.9398,-1.2932]],[[261.79756,116.80758],[-0.45679,2.24299],[-0.96348,-0.0247]],[[258.81698,116.35875],[0.92753,0.21671],[-1.67658,5.60265]],[[248.22118,116.07763],[3.2129,2.11862],[0,0]],[[247.75755,115.34344],[0.04748,0.45677],[-0.60632,0.00937]],[[245.91257,115.36011],[0.62439,-0.00059],[0,0]]],&quot;closed&quot;:true}]}" fill="#ffffff" stroke="none" stroke-width="0.5"/><path d="M332.15578,151.43466c0.38506,0.59994 0.41206,1.28931 -0.51011,1.55055c0.16932,-0.47727 0.36183,-1.06611 0.51011,-1.55055z" data-paper-data="{&quot;noHover&quot;:false,&quot;origItem&quot;:[&quot;Path&quot;,{&quot;applyMatrix&quot;:true,&quot;segments&quot;:[[[243.85545,140.0645],[0.08455,-0.4269],[0.75159,-0.33695]],[[244.08034,138.77845],[0.40211,0.46218],[-0.06576,0.43038]]],&quot;closed&quot;:true}]}" fill="#ffffff" stroke="none" stroke-width="0.5"/><path d="M324.76249,148.55947c-0.20675,1.15419 -0.44855,2.40105 -0.66969,3.54637l-0.38141,-0.24916c-2.20882,-1.90249 -1.08059,-3.31047 1.0511,-3.29721z" data-paper-data="{&quot;noHover&quot;:false,&quot;origItem&quot;:[&quot;Path&quot;,{&quot;applyMatrix&quot;:true,&quot;segments&quot;:[[[236.93463,140.09088],[-2.11501,-1.34267],[0,0]],[[237.28205,140.25838],[0,0],[0.04544,-1.00139]],[[237.40711,137.24758],[-0.03209,1.00714],[-1.81421,0.25412]]],&quot;closed&quot;:true}]}" fill="#999999" stroke="none" stroke-width="0.5"/><path d="M329.18869,162.50066c0.77625,-1.52662 1.18438,-3.35575 1.46817,-5.13248c0.22393,-0.00284 0.39077,-0.05947 0.39077,-0.05947l0.19829,-0.19637c4.55901,0.66754 7.11826,2.80758 10.8143,5.09276c-1.69142,0.38798 -3.3602,0.9109 -5.04759,1.1652c-2.31748,0.34925 -5.27747,-0.98088 -7.71734,-0.85388c-0.03549,-0.00511 -0.0711,-0.01062 -0.10661,-0.01576z" data-paper-data="{&quot;noHover&quot;:false,&quot;origItem&quot;:[&quot;Path&quot;,{&quot;applyMatrix&quot;:true,&quot;segments&quot;:[[[243.06965,148.48691],[-0.03081,0.00007],[2.0588,-0.41176]],[[249.66667,148.22981],[-1.92705,0.5855],[1.40311,-0.42631]],[[253.7895,146.64835],[-1.3899,0.54048],[-3.42721,-1.4829]],[[244.05361,143.69377],[3.9596,0],[0,0]],[243.91054,143.88335],[[243.58661,143.98057],[0.19006,-0.03029],[-0.02011,1.54608]],[[242.97718,148.48708],[0.46997,-1.39472],[0.03084,-0.00005]]],&quot;closed&quot;:true}]}" fill="#999999" stroke="none" stroke-width="0.5"/><path d="M304.52202,154.71932c0.59877,-0.23377 1.35441,-0.37311 2.22012,-0.56008c4.55917,-0.98468 7.50949,1.22785 11.93374,1.81325c1.80938,0.23942 3.05748,-0.44756 4.79135,-0.32009c-0.08686,0.51496 -0.16842,1.04066 -0.24434,1.5592c-0.17802,1.21582 -0.65801,2.85959 -0.37848,4.17345c-2.89067,-0.6094 -5.807,-1.35596 -8.54841,-2.40042c-3.19248,-1.21631 -6.46379,-3.51843 -9.77398,-4.26531z" data-paper-data="{&quot;noHover&quot;:false,&quot;origItem&quot;:[&quot;Path&quot;,{&quot;applyMatrix&quot;:true,&quot;segments&quot;:[[[229.81105,147.32584],[-2.86597,-0.63674],[2.46103,0.54678]],[[237.35022,148.33418],[-2.53379,-0.15827],[-0.40126,-1.08236]],[[237.15078,144.75977],[0,1.05597],[0,-0.45036]],[[237.16616,143.41141],[-0.00974,0.44868],[-1.49016,0.10748]],[[233.13337,144.28406],[1.56831,-0.0217],[-3.83479,0.05306]],[[222.8552,144.22195],[3.75403,-1.40489],[-0.71284,0.26676]],[[221.03849,144.9675],[0.48003,-0.27332],[2.90762,0.22295]]],&quot;closed&quot;:true}]}" fill="#999999" stroke="none" stroke-width="0.5"/><path d="M339.2339,171.75133c-5.07648,2.64292 -11.03484,3.47601 -17.06162,2.59355c-2.8324,-0.39427 -4.09434,-1.8865 -6.22118,-3.55597c-1.89702,-1.48907 -4.58874,-2.54689 -6.04429,-4.54431c-2.07446,-2.84673 -4.1532,-6.63804 -6.90106,-8.86125c-0.00454,-0.24803 0.00538,-0.47499 0.02781,-0.68051c0.24088,0.14213 0.47364,0.1761 0.47364,0.1761c3.28366,0.41994 6.72309,2.98652 9.88941,4.19319c4.27382,1.62873 8.96411,2.59683 13.44452,3.3312c0.27098,0.07267 0.53014,0.12191 0.75313,0.12676c0.56752,0.09 1.13927,0.18728 1.70125,0.27087c2.66113,-0.13851 5.50566,1.12715 8.09713,0.81044c2.59985,-0.31772 4.96586,-1.32789 7.70221,-1.6013l0.12497,-0.02957c1.3735,0.86772 2.44842,1.86444 0.96173,2.35352c-0.60087,0.66687 -1.22654,1.29721 -1.8748,1.88118c-0.47782,0.2491 -0.96674,0.4966 -1.46821,0.73854c-0.48054,-0.06809 -0.89293,0.2399 -0.89293,0.2399l-1.25787,0.9469c-0.48507,0.53385 -0.97051,1.07533 -1.45383,1.61074z" data-paper-data="{&quot;noHover&quot;:false,&quot;origItem&quot;:[&quot;Path&quot;,{&quot;applyMatrix&quot;:true,&quot;segments&quot;:[[[253.61024,153.57032],[-0.34599,0.51432],[0,0]],[254.5619,152.61178],[[255.29132,152.29752],[-0.41708,0.00193],[0.39627,-0.26816]],[[256.44793,151.4889],[-0.37527,0.27129],[0.4785,-0.57725]],[[257.80846,149.66036],[-0.42789,0.64184],[1.20324,-0.60095]],[[256.69903,147.78435],[1.27591,0.56681],[0,0]],[[256.69211,147.79591],[0,0],[-2.29265,0.57316]],[[250.24624,150.14399],[2.17108,-0.59385],[-2.16407,0.59194]],[[243.26673,150.47717],[2.24549,-0.44909],[-0.48826,-0.00111]],[[241.79335,150.46712],[0.49376,0.00587],[-0.1902,0.02364]],[[241.14262,150.45773],[0.23946,0.02805],[-3.90109,-0.06661]],[[229.37227,149.27711],[3.83678,0.85279],[-2.84253,-0.6318]],[[220.44226,146.94034],[2.84436,-0.05176],[0,0]],[[220.01764,146.84947],[0.22251,0.09087],[0.00652,0.17755]],[[220.07911,147.43028],[-0.03474,-0.21033],[2.61328,1.54826]],[[227.05221,154.08748],[-2.11832,-2.16228],[1.48632,1.51717]],[[232.74987,157.17625],[-1.79841,-1.02996],[2.0163,1.15474]],[[238.44592,159.40229],[-2.45745,0.01739],[5.23439,0]],[[252.57511,155.11512],[-3.98744,2.87929],[0.3443,-0.51542]]],&quot;closed&quot;:true}]}" fill="#999999" stroke="none" stroke-width="0.5"/><path d="M304.73609,122.21799c1.17775,6.0198 7.33105,11.32037 13.60102,10.66376c0.9458,-0.43577 2.02738,-0.59849 2.91015,-1.15087c1.32329,-0.82803 1.72734,-2.20149 2.46789,-3.41781c0.74792,-1.22844 2.03442,-2.70683 3.20117,-4.20575c0.06056,2.36258 0.50847,4.64725 0.4574,7.09933c-0.10098,4.8493 -1.47468,10.06617 -2.17836,14.87192c-0.01239,0.0846 -0.02552,0.17 -0.03823,0.25447c-4.42701,-0.16189 -6.72904,3.68876 -3.05723,7.17815c-0.66593,0.11911 -1.31171,0.30682 -2.10442,0.42628c-2.24491,0.33831 -4.80164,-1.5398 -6.87272,-2.08199c-3.79621,-0.99381 -8.89677,-0.60108 -11.12263,2.18606l0.18012,-1.24219c1.01353,-6.9219 0.27299,-13.86307 1.27596,-20.71286c0.46539,-3.17834 1.22474,-6.58728 1.27988,-9.86849z" data-paper-data="{&quot;noHover&quot;:false,&quot;origItem&quot;:[&quot;Path&quot;,{&quot;applyMatrix&quot;:true,&quot;segments&quot;:[[[217.31028,125.87069],[0,-2.76046],[0,5.9492]],[[218.78599,143.5792],[0,-6.01182],[0,0]],[[218.78599,144.65691],[0,0],[1.54563,-2.64701]],[[227.94299,141.40613],[-3.35162,-0.37239],[1.82852,0.20316]],[[234.02415,142.32697],[-1.86671,0.56716],[0.65917,-0.20028]],[[235.755,141.706],[-0.55141,0.18419],[-3.55655,-2.50985]],[[237.44548,135.2404],[-3.78441,0.41352],[0.00029,-0.0734]],[[237.44592,135.02009],[0,0.07348],[0,-4.1739]],[[237.45341,122.15603],[0.51789,4.13589],[-0.26187,-2.09134]],[[236.19296,116.18725],[0.34564,2.00134],[-0.80545,1.41978]],[[234.04788,120.07726],[0.48301,-1.13765],[-0.47825,1.12643]],[[232.31946,123.37381],[1.02209,-0.86882],[-0.68185,0.57959]],[[229.99622,124.71921],[0.74995,-0.48828],[-5.24956,1.33894]],[[217.15516,117.33905],[1.75091,4.97196],[0.36163,2.79685]]],&quot;closed&quot;:true}]}" fill="#999999" stroke="none" stroke-width="0.5"/><path d="M345.35021,123.49254c-2.34109,-0.41123 -4.74743,-0.69925 -7.07927,-0.99819c0.27558,-1.37449 0.80046,-2.62264 1.60886,-3.49072c3.91897,-4.39369 8.24845,-3.83679 13.32695,-1.76445c0.80263,0.32752 1.76262,0.25773 2.52259,0.67478c0.65767,0.36092 0.62032,1.39639 1.067,1.99912c1.25655,1.69553 1.95351,2.90994 0.99856,5.1025c-0.01345,0.09189 -0.01561,0.19308 -0.00991,0.29749c-0.26407,0.19462 -0.39834,0.4605 -0.39834,0.4605l-0.33058,0.72672l-0.42825,-0.21398c-3.80415,-1.56535 -7.52246,-2.25947 -11.27764,-2.79378z" data-paper-data="{&quot;noHover&quot;:false,&quot;origItem&quot;:[&quot;Path&quot;,{&quot;applyMatrix&quot;:true,&quot;segments&quot;:[[[261.70952,114.27544],[-3.42953,-0.85738],[0,0]],[262.10014,114.40438],[262.28915,113.74879],[[262.56949,113.31035],[-0.20031,0.19836],[-0.01785,-0.08808]],[[262.54047,113.05741],[0,0.07981],[0.539,-1.98321]],[[261.05502,108.86928],[1.27954,1.28525],[-0.45485,-0.45688]],[[259.90374,107.3152],[0.60415,0.225],[-0.69812,-0.25999]],[[257.68275,107.06633],[0.72325,0.17856],[-4.57623,-1.12981]],[[246.65652,110.19259],[2.78525,-4.22384],[-0.5793,0.83877]],[[245.72042,113.34326],[0.06319,-1.20303],[2.01996,-0.03614]],[[251.84871,113.28834],[-2.04181,-0.05819],[3.25951,-0.01321]]],&quot;closed&quot;:true}]}" fill="#999999" stroke="none" stroke-width="0.5"/><path d="M304.55668,119.35397c-0.35562,-2.70418 -0.60598,-5.37366 -0.44196,-7.97955c3.72012,0.18073 7.69231,-0.4007 11.52288,-0.66424c-1.02335,0.5306 -2.11969,1.29382 -3.2072,1.52369c-2.12439,0.44903 -3.64459,0.21722 -5.24205,1.73714l-0.13511,0.18735c-0.45411,0.10246 -0.72923,0.48762 -0.72923,0.48762c-0.99951,1.48708 -1.62747,3.11051 -1.76733,4.708z" data-paper-data="{&quot;noHover&quot;:false,&quot;origItem&quot;:[&quot;Path&quot;,{&quot;applyMatrix&quot;:true,&quot;segments&quot;:[[[217.48184,110.66638],[-0.66473,1.38889],[0,0]],[[218.0419,110.14936],[-0.37337,0.14366],[0,0]],[[218.1345,109.96861],[0,0],[1.16908,-1.49125]],[[222.45645,107.81458],[-1.75045,0.6463],[0.89608,-0.33085]],[[224.92382,106.19087],[-0.80409,0.57857],[-3.22429,0.701]],[[215.29088,108.17873],[3.18569,-0.30949],[0.18497,2.23619]],[[216.6464,114.84774],[-0.63906,-2.25507],[-0.07996,-1.37575]]],&quot;closed&quot;:true}]}" fill="#999999" stroke="none" stroke-width="0.5"/><path d="M321.8551,122.1069c1.00014,0.16213 2.10589,0.27166 3.10481,0.41793l0.34904,0.0519c-1.21672,1.57677 -2.60884,3.07328 -3.46822,4.46448c-0.53351,0.86366 -0.87772,2.23905 -1.86139,2.82176c-0.6923,0.41009 -1.55004,0.52398 -2.27249,0.87826c-5.46399,0.50311 -11.37829,-5.67748 -10.91992,-11.22506c0.87431,0.12924 1.837,0.33963 2.70991,0.48042c-0.4685,1.11396 -0.94663,2.1265 -0.07262,3.41899c0.49331,0.7295 2.17948,0.89429 2.93381,1.36344c1.66762,1.03715 3.44928,2.25309 5.63018,1.89458c2.40382,-0.39517 3.09382,-2.64895 3.8669,-4.56672z" data-paper-data="{&quot;noHover&quot;:false,&quot;origItem&quot;:[&quot;Path&quot;,{&quot;applyMatrix&quot;:true,&quot;segments&quot;:[[[228.99602,119.44923],[1.99475,-0.63529],[-1.80977,0.57637]],[[223.87455,118.52123],[1.54709,0.67426],[-0.69981,-0.305]],[[221.21087,117.72354],[0.51028,0.55887],[-0.90408,-0.99018]],[[220.85516,114.78898],[-0.25967,1.00552],[-0.75976,-0.01104]],[[218.57615,114.77001],[0.75951,0.00104],[0.30094,4.77413]],[[229.18711,122.89018],[-4.58335,1.10807],[0.57018,-0.3912]],[[230.99585,121.87445],[-0.5376,0.43489],[0.76387,-0.61794]],[[232.21885,119.26816],[-0.34611,0.80079],[0.55751,-1.28992]],[[234.61684,115.06501],[-0.83826,1.4922],[0,0]],[[234.31393,115.06501],[0,0],[-0.86758,0]],[[231.70649,115.04369],[0.8706,0.01334],[-0.41858,1.72692]]],&quot;closed&quot;:true}]}" fill="#ffffff" stroke="none" stroke-width="0.5"/><path d="M307.35305,116.04912c0.11579,-0.16364 0.24878,-0.32747 0.40069,-0.48582c0.4369,-0.0708 0.70284,-0.31288 0.70284,-0.31288l0.3494,-0.32757c0.49505,-0.5248 2.93472,-0.49706 4.09505,-0.65902c1.58468,-0.2212 3.27436,-1.20151 4.80155,-1.32448c0.97947,-0.07886 2.44149,0.26506 3.45605,0.32742c1.33511,0.8047 3.21385,1.14446 4.91465,1.57728c0.53174,0.13532 1.47431,0.07984 1.57763,0.43522c0.28992,0.99741 -0.16575,1.94495 -0.94529,2.82242c-0.20967,-0.06643 -0.39323,-0.08312 -0.39323,-0.08312l-1.02064,-0.09273c-5.91661,-0.5458 -11.96726,-1.31525 -17.93868,-1.87671z" data-paper-data="{&quot;noHover&quot;:false,&quot;origItem&quot;:[&quot;Path&quot;,{&quot;applyMatrix&quot;:true,&quot;segments&quot;:[[[234.31393,113.06501],[-5.13871,0],[0,0]],[235.19936,113.06501],[[235.55002,113.12857],[-0.19141,-0.06355],[0.48943,-1.28132]],[[235.79339,109.22432],[0.44362,1.31005],[-0.15806,-0.46678]],[[234.36654,108.83718],[0.47887,0.11643],[-1.53171,-0.37239]],[[229.89216,107.34842],[1.29426,0.91983],[-0.875,0.04215]],[[226.93003,107.34842],[0.81725,-0.22839],[-1.27426,0.35609]],[[223.15035,109.69035],[1.30373,-0.49584],[-0.95461,0.36307]],[[219.7986,111.07801],[0.31723,-0.76993],[0,0]],[219.56584,111.56081],[[219.02959,112.06827],[0.3575,-0.14996],[-0.09787,0.23264]],[[218.784,112.77044],[0.06612,-0.23527],[5.18841,0.01431]]],&quot;closed&quot;:true}]}" fill="#999999" stroke="none" stroke-width="0.5"/><path d="M348.5102,163.02423c-0.29372,-0.22601 -0.62838,-0.42729 -0.99848,-0.59674c-0.2108,-0.09652 -0.41982,-0.19729 -0.62592,-0.30237c-0.11649,-0.28466 -0.36786,-0.56799 -0.89551,-0.64525c-0.10585,-0.01549 -0.20381,-0.01971 -0.29368,-0.01481c-2.56498,-1.5392 -4.86645,-3.59986 -7.50411,-5.18752c-1.37965,-0.83044 -3.12142,-0.98609 -4.74787,-1.1658c2.89258,-1.73986 2.02494,-4.17594 0.1404,-6.15906c1.48641,-6.29827 1.72783,-13.10114 3.54388,-19.2548c0.3953,1.31226 0.9689,2.50732 1.69119,3.48871c1.60041,2.17455 4.03224,2.70625 6.43425,3.37036c2.48251,0.68637 4.82138,1.62747 7.30571,0.54494c3.47555,-1.64733 5.74626,-4.53251 6.76627,-8.03553c0.01169,-0.00675 0.02327,-0.01362 0.03474,-0.02064c1.04243,-0.63871 1.13107,-2.31859 1.2842,-3.36445c2.91843,-7.44375 -6.73339,-12.44248 -12.98766,-12.54815c-3.30214,-0.05579 -6.59537,2.06568 -8.75931,4.44715c-1.10323,1.25403 -1.75669,2.83248 -2.10575,4.66887c-0.35307,0.04832 -0.85923,0.24552 -0.96606,0.97512c-0.11511,0.78612 0.40217,1.12578 0.73113,1.25475c-0.0029,0.07686 -0.00322,0.15588 -0.00501,0.23289c-0.10015,0.24338 -0.19536,0.49298 -0.2955,0.73636c-2.8992,7.15924 -3.07984,15.33491 -4.89956,22.87388c-0.02563,0.02483 -0.05136,0.05133 -0.07683,0.0796c-0.39796,0.44165 -0.36717,0.86094 -0.24166,1.16548c-0.3953,1.46208 -0.86664,2.89988 -1.44398,4.30294c-0.35089,2.30381 -0.72767,4.52102 -1.33529,6.74661c-0.14312,0.52421 0.09305,1.33672 -0.20849,1.70902c-0.13964,-0.02234 -0.2801,-0.04506 -0.41999,-0.06797c-0.0515,-0.12644 -0.10347,-0.27099 -0.19473,-0.32914c-0.51359,-0.32723 -1.40018,-0.25662 -1.63685,-0.81773c-0.35169,-0.83381 0.24857,-2.60736 0.36957,-3.43376c0.54805,-3.74292 1.42622,-7.38719 1.97938,-11.16502c0.71805,-4.90396 2.07567,-10.15487 2.18068,-15.10539c0.07022,-3.3098 -0.80348,-6.3862 -0.31658,-9.71146c0,0 0.07498,-0.49699 -0.19979,-0.88541c0.91875,-1.77325 1.40607,-3.52863 0.70332,-5.40376c-0.91487,-2.44112 -5.78385,-2.86974 -7.65977,-4.47803c1.61804,0.19996 3.14818,0.47777 4.68872,1.12404c0.73338,0.17892 1.51849,0.84455 2.20668,0.53431c0.88027,-0.39683 1.7997,-3.19843 1.38485,-4.09177c-0.81332,-1.75146 -5.13473,-2.9305 -6.944,-2.96108c-2.22005,-0.03751 -4.51863,1.16613 -6.65132,1.48753c-1.72821,0.26045 -3.91606,-1.33502 -5.65411,-0.74509c-0.54899,0.18634 -2.02754,1.99639 -2.32464,2.91781c-1.46893,0.07879 -3.02775,0.04106 -4.47568,-0.04322c0.25991,-1.5859 0.70607,-3.19399 1.39532,-4.837c0.2778,-0.686 0.81185,-4.00771 1.76863,-4.20167c4.6567,-0.94405 10.08663,-1.03993 14.85606,-2.31397c2.55223,-0.68176 4.48901,-1.66608 7.28687,-1.29904c2.78024,-0.87173 5.74228,-1.54066 8.54019,-2.29178c0.83252,-0.22349 1.73917,-0.06583 2.5831,-0.22588c-0.67836,0.50722 -1.38924,1.25218 -1.92149,1.57926c-1.8749,1.1522 -3.63408,2.3226 -5.22069,3.79591l-0.01051,0.00347l-0.0623,-0.13169l-1.10031,0.5226c-0.34745,0.15854 -0.6083,0.48459 -0.66775,0.89059c-0.0931,0.63589 0.3417,1.11064 0.97758,1.20374c0.19339,0.02832 0.3839,0.00732 0.55624,-0.05351l1.43984,-0.47321l-0.00963,-0.02914l0.07776,0.00438c2.44893,-1.15559 4.87288,-0.93291 7.5079,-1.20233c5.08065,-0.51946 11.54598,-2.03147 16.12681,-4.29552c2.83168,-0.28293 3.96682,-1.56629 6.87344,-0.32815c2.08898,0.88985 1.48404,2.86813 1.65314,4.61222c0.46476,4.7933 0.71122,9.20248 0.01425,13.96244c-0.04197,0.30143 -0.20025,0.64147 -0.25597,0.93944c-1.9616,-0.79416 -3.61694,-2.12817 -5.23971,-3.49976c-0.75552,-0.13325 -1.524,-0.24078 -2.30214,-0.33862c0.14178,-4.88428 -4.20662,-4.27948 -8.1483,-5.38381c-2.27769,-0.63813 -5.05219,-1.26205 -7.45315,-0.6463c-1.24482,0.31924 -2.50085,1.15314 -3.74226,1.56001l-1.10769,0.75266c0,0 -0.90206,0.58285 -0.20713,1.51622c0.00565,0.00758 0.01136,0.01508 0.01703,0.02244c-0.31333,0.89512 -0.49651,1.89553 0.06904,2.51573c1.33355,1.46241 4.68456,-0.64311 6.17603,-0.58544c4.16514,0.16103 8.50117,1.45388 12.76775,2.20786c0.09098,0.03494 0.19414,0.06245 0.31059,0.0795c0.08851,0.01296 0.17135,0.01837 0.24861,0.01685c0.83069,0.13751 1.66036,0.25507 2.48482,0.33551c1.53511,1.54542 3.44338,2.75232 5.43462,3.59641l0.22598,0.17669c-0.86192,2.89908 -2.19922,5.65821 -3.34611,8.31172c-0.13243,0.30642 -0.1693,0.64248 -0.18163,0.98355c-0.96056,1.81476 -1.66788,3.80468 -2.0773,5.8362c-1.26239,2.88669 -2.44607,5.86388 -3.46522,8.89793c-3.01434,2.97287 -2.05309,7.2066 -3.10444,11.00603c-0.52614,1.90141 -1.95029,2.95974 -2.72312,4.61655c-0.98869,2.11959 -2.02231,4.18592 -3.62164,6.06448z" data-paper-data="{&quot;noHover&quot;:false,&quot;origItem&quot;:[&quot;Path&quot;,{&quot;applyMatrix&quot;:true,&quot;segments&quot;:[[[261.10017,140.92828],[-0.57678,1.92536],[0.45085,-1.50499]],[[262.83561,136.66876],[-0.21064,1.68226],[0.42092,-3.36153]],[[264.09578,126.93823],[-2.19294,2.9031],[0.48881,-2.70672]],[[265.93053,118.95768],[-0.714,2.6117],[0.09521,-1.77836]],[[266.97074,113.74708],[-0.59082,1.66267],[-0.03197,-0.29154]],[[267.00302,112.8898],[-0.07446,0.27703],[0.64483,-2.39905]],[[268.81701,105.41726],[-0.37194,2.57238],[0,0]],[[268.603,105.29547],[0,0],[-1.79822,-0.46981]],[[263.53834,102.92129],[1.4977,1.12293],[-0.71105,0.03425]],[[261.38518,102.94738],[0.72345,0.0135],[-0.06551,0.01091]],[[261.17184,102.9642],[0.07687,0],[-0.10113,0]],[[260.8981,102.93558],[0.08171,0.01838],[-3.72171,-0.1099]],[[249.78349,102.66156],[3.56164,-0.38165],[-1.27535,0.13666]],[[244.61877,103.93297],[1.31598,1.07744],[-0.5581,-0.45694]],[[244.24916,101.80282],[-0.15498,0.80013],[-0.00574,-0.00556]],[[244.23193,101.78588],[0.00574,0.00574],[-0.70711,-0.7071]],[244.23193,100.37166],[[245.08211,99.59406],[0,0],[1.00491,-0.50052]],[[248.07619,97.80312],[-1.01871,0.42643],[1.96486,-0.8225]],[[254.50576,97.42999],[-2.01615,-0.25902],[3.48906,0.44826]],[[262.11681,101.00398],[-0.48755,-4.17072],[0.67383,-0.01369]],[[264.11791,101.0071],[-0.659,-0.01923],[1.55059,0.96421]],[[269.01318,103.33725],[-1.76681,-0.43104],[0.01027,-0.26031]],[[269.0261,102.55448],[0.00185,0.26153],[0,-4.13414]],[[267.28511,90.6962],[0.99196,4.01784],[-0.36093,-1.46193]],[[265.30919,86.98363],[1.88704,0.49655],[-2.62563,-0.69089]],[[259.5104,88.12162],[2.37253,-0.59313],[-3.61316,2.49542]],[[246.34936,93.78805],[4.25537,-1.07425],[-2.20699,0.55715]],[[240.12841,95.7457],[1.93843,-1.28749],[0,0]],[240.06191,95.75164],[240.0737,95.77522],[[238.91113,96.35651],[0,0],[-0.13897,0.07317]],[[238.44592,96.47108],[0.16796,0],[-0.55229,0]],[[237.44592,95.47108],[0,0.55228],[0,-0.35262]],[[237.90412,94.63042],[-0.2757,0.17806],[0,0]],[238.77664,94.04874],[238.84611,94.15294],[[238.85464,94.14868],[0,0],[1.16565,-1.45028]],[[242.82934,90.2706],[-1.45076,1.21314],[0.41184,-0.34439]],[[244.26156,88.78838],[-0.51366,0.51574],[-0.69767,0.24116]],[[242.09703,89.30218],[0.68006,-0.29369],[-2.28553,0.98702]],[[235.13397,92.31234],[2.25549,-1.08737],[-2.4247,0.03625]],[[229.11079,94.3196],[2.08526,-0.89746],[-3.89679,1.67711]],[[216.78214,98.1236],[3.84202,-1.38249],[-0.78939,0.28405]],[[215.80471,101.91159],[0.1508,-0.61789],[-0.38152,1.48285]],[[215.22359,106.1921],[0.02355,-1.38084],[1.24166,-0.10862]],[[218.94419,105.62907],[-1.23921,0.24988],[0.1379,-0.82046]],[[220.56069,102.85337],[-0.4436,0.22679],[1.40442,-0.71801]],[[225.46503,102.77796],[-1.43705,0.43662],[1.77339,-0.53881]],[[230.94519,100.67655],[-1.89236,0.24451],[1.54222,-0.19926]],[[237.23058,102.32389],[-0.90962,-1.38799],[0.46396,0.70795]],[[236.59928,106.06825],[0.69908,-0.44702],[-0.54654,0.34949]],[[234.66168,105.88576],[0.64586,0.06083],[-1.39037,-0.35772]],[[230.47359,105.43541],[1.4007,-0.03143],[1.79531,1.13396]],[[237.55674,108.2806],[-1.08184,-1.96176],[0.831,1.50691]],[[237.68822,113.04379],[0.56043,-1.62216],[0.28199,0.29606]],[[237.97021,113.76987],[0,0],[0,2.88806]],[[239.43843,121.91166],[-0.35238,-2.82304],[0.52706,4.22245]],[[239.44592,135.02009],[0,-4.2592],[0,3.28113]],[[239.15078,144.75977],[0,-3.25081],[0,0.71775]],[[239.26333,147.72542],[-0.40285,-0.66519],[0.2711,0.44763]],[[240.75445,148.21676],[-0.47744,-0.2143],[0.08483,0.03807]],[[240.96064,148.47237],[-0.05953,-0.1011],[0.12179,0.00206]],[[241.32563,148.47785],[-0.12152,-0.00161],[0.21004,-0.35412]],[[241.29026,146.99872],[-0.05643,0.46355],[0.23958,-1.96805]],[[241.5854,141.09588],[-0.01152,2.0026],[0.31623,-1.26489]],[[242.27595,137.25733],[-0.15409,1.29241],[-0.14464,-0.24332]],[[242.33614,136.23624],[-0.28339,0.42508],[0.01814,-0.02721]],[[242.39141,136.15899],[-0.0187,0.02431],[0.60867,-6.63689]],[[243.67376,116.18361],[-1.57382,6.4484],[0.05486,-0.21941]],[[243.83832,115.52536],[-0.05486,0.21941],[-0.00806,-0.0657]],[[243.81556,115.32823],[0.0071,0.06572],[-0.29577,-0.06871]],[[243.05361,114.36016],[0,0.68277],[0,-0.63366]],[[243.74934,113.40932],[-0.29419,0.08504],[0.06817,-1.60492]],[[244.99242,109.08319],[-0.78194,1.20365],[1.54348,-2.29435]],[[251.90026,104.21825],[-2.81473,0.36369],[5.33112,-0.68882]],[[264.52549,113.30177],[1.55475,-6.69271],[0,0.90836]],[[263.85325,116.32893],[0.80685,-0.67288],[-0.00888,0.00741]],[[263.82628,116.35085],[0.0091,-0.0072],[-0.43117,3.10558]],[[259.07027,124.04646],[2.75014,-1.83343],[-1.97763,1.22977]],[[252.78569,124.50206],[2.19632,0.27454],[-2.12509,-0.26564]],[[246.88821,122.44581],[1.63156,1.64975],[-0.73633,-0.74455]],[[245.02148,119.68333],[0.4995,1.06659],[-0.77803,5.45851]],[[244.35874,136.41818],[0.47973,-5.54044],[1.84931,1.45159]],[[245.00613,141.67266],[2.24292,-1.83952],[1.40533,-0.0497]],[[249.18044,142.07441],[-1.2765,-0.53435],[2.44045,1.02158]],[[256.19835,145.55442],[-2.37262,-0.98942],[0.07581,-0.01535]],[[256.44957,145.53062],[-0.09193,0],[0.45828,0]],[[257.2906,145.96818],[-0.13449,-0.22754],[0.18833,0.06368]],[[257.85989,146.14765],[-0.19126,-0.05582],[0.33578,0.09801]],[[258.78238,146.53121],[-0.27789,-0.15561],[1.12602,-1.79645]]],&quot;closed&quot;:true}]}" fill="#999999" stroke="none" stroke-width="0.5"/><path d="M304.04206,119.99793c0.07004,1.19672 0.20311,2.39229 0.15978,3.61051c-0.25085,7.05238 -1.21722,13.67746 -4.75718,19.75191c-2.73307,2.64288 -7.9837,0.88461 -8.68957,-2.87319c-1.4981,-7.97536 0.09247,-17.55848 1.25387,-25.49027c0.29879,-2.04062 0.16685,-4.58078 1.87556,-6.0574c2.07659,-1.79456 7.83491,-0.1314 9.61404,1.53818c1.96186,1.84105 0.93213,6.93194 0.5435,9.52027z" fill="#c300f0" stroke="none" stroke-width="0.5"/><path d="M363.75735,125.75314c-0.37287,-0.39714 -0.28652,-0.98679 -0.28652,-0.98679l0.04976,-0.33984c0.31997,-2.1852 0.11514,-7.70598 2.5808,-8.64245c2.21585,-0.84159 5.18727,1.71216 7.19698,2.00643c2.90608,2.53979 1.81202,5.18203 1.31056,8.60674c-1.14211,7.80007 -2.32677,16.64475 -8.38943,22.03829c-3.93345,-0.44528 -5.08597,-3.1766 -5.85342,-6.70755c-1.2988,-5.97561 1.77738,-10.63713 3.39127,-15.97483z" fill="#c300f0" stroke="none" stroke-width="0.5"/><path d="M300.02499,111.26776c-0.13205,-0.33272 -0.08368,-0.66312 -0.08368,-0.66312l0.09952,-0.67964c0.07508,-0.5127 0.40508,-2.99228 0.61384,-3.24191c1.86106,-2.2253 6.54134,-0.18011 7.03447,2.28547c0.69239,3.46182 -1.27601,9.05913 -1.79074,12.57443c-0.90335,6.16948 -0.72201,12.12431 -2.31956,18.17289c-0.56194,2.12756 -2.63469,8.36023 -6.07221,5.54912c-1.36559,-1.11675 -0.82391,-4.92121 -0.9778,-6.55359c1.24455,-8.85469 0.73162,-18.75552 3.49614,-27.44364z" fill="#00b539" stroke="none" stroke-width="0.5"/><path d="M361.63319,119.61125c-0.47415,-0.39162 -0.37488,-1.06967 -0.37488,-1.06967l0.04976,-0.33982c0.26475,-1.76131 0.85404,-6.04786 2.69242,-6.90081c0.98847,-0.45862 4.78685,1.65039 5.25649,2.46934c0.97848,1.70622 0.112,2.18221 -0.27952,3.6155c-0.67593,2.47442 -0.85147,5.11877 -1.82036,7.51134c-1.4687,3.50095 -2.40353,8.5717 -2.4832,12.39752c-0.05048,2.42439 0.94745,4.95675 -0.05719,7.34765c-0.95849,2.28103 -4.5876,6.1203 -6.69555,2.89794c-0.73291,-1.12037 -0.27556,-3.29549 -0.87475,-4.63003c0.5747,-4.9228 0.96296,-10.28847 2.16826,-15.09259c0.70091,-2.79372 1.71573,-5.44034 2.4185,-8.20638z" fill="#00b539" stroke="none" stroke-width="0.5"/><path d="M368.86037,138.72166c-2.54719,-1.40533 -1.14186,-3.95252 -1.14186,-3.95252l1.32542,-2.38756c4.17459,-11.03544 9.68415,-21.92829 11.39225,-33.59382c1.19785,-8.11109 1.81508,-17.00238 0.67259,-25.09737c-0.37204,-2.63605 0.28632,-6.37108 -0.54224,-8.87357c-0.97132,-2.93366 -5.50736,-4.6708 -7.99833,-5.61664c-5.99926,-2.27791 -11.61536,-5.18019 -17.89999,-6.74862c-16.24905,-5.78142 -37.92981,-10.09121 -49.92764,6.08964c-2.24965,3.03399 -3.38016,7.0791 -4.71153,10.55835c-3.27344,12.54578 -7.36815,25.19544 -8.0151,38.31908c-0.32258,6.54359 0.75871,13.10254 1.23702,19.61811c0,0 0.21299,2.90135 -2.68835,3.11432c-2.90134,0.21299 -3.11432,-2.68835 -3.11432,-2.68835c-0.49538,-6.74809 -1.5956,-13.5366 -1.24629,-20.31564c0.70292,-13.64145 4.85998,-26.77734 8.28618,-39.82271c1.55521,-4.09716 2.94049,-8.65514 5.56792,-12.23394c13.47746,-18.35756 37.65814,-14.88133 56.29773,-8.20761c5.41676,1.35742 10.47621,3.50573 15.51496,5.83214c5.13516,2.37091 11.88284,4.00035 14.14992,10.07055c1.08407,2.90262 0.41188,6.99902 0.8487,10.07383c1.22965,8.65565 0.58468,18.10478 -0.67431,26.77138c-1.78978,12.22326 -7.44686,23.66217 -11.87055,35.19808l-1.50964,2.75102c0,0 -1.40533,2.54719 -3.95252,1.14186z" fill="#82007c" stroke="none" stroke-width="0.5"/><path d="M288.55265,193.12465c-0.4268,-0.78589 -1.10933,-3.56567 -1.83321,-4.10476c-4.10377,-3.05617 -6.49725,-0.73265 -10.74084,0.05583c-1.34796,-0.18968 -3.32413,-0.28759 -4.41205,-1.27595c-2.47854,-2.2517 -2.69765,-6.64541 -0.36739,-9.02378c1.42491,-1.45431 4.33526,-2.26207 4.88454,-4.41737c0.64163,-2.51769 -3.36176,-4.63835 -3.44934,-7.03066c-0.1125,-3.07291 3.75074,-4.85032 5.84506,-6.40965c0.18424,-0.13683 2.56093,-1.8532 2.74672,-2.16888c0.70769,-1.20249 0.05158,-3.55804 -0.04432,-4.73583c-0.25282,-3.10493 -1.71683,-9.53274 -0.19681,-12.38366c2.01716,-3.78335 8.21684,-4.39717 11.37958,-6.79414c0,0 1.1667,-0.86867 2.03538,0.29803c0.86867,1.1667 -0.29803,2.03538 -0.29803,2.03538c-2.79786,2.05432 -8.79359,2.88533 -10.61888,5.95165c-0.80774,1.35693 0.39195,4.67381 0.55788,6.06511c0.32853,2.75462 1.22167,8.3791 -0.23813,10.91395c-0.59764,1.03775 -2.57925,2.40043 -3.58605,3.15177c-0.72314,0.53841 -4.87353,2.84593 -4.68203,3.85055c0.54912,2.88079 4.24528,4.22218 3.39569,7.85588c-0.83436,3.56853 -6.48989,4.38335 -6.69972,7.75729c-0.0337,0.54195 1.08763,1.73292 1.18712,1.93912c0.42516,0.88125 1.5489,1.36217 2.51576,1.51237c1.84304,-0.30465 2.66264,-1.36166 4.52075,-1.70721c2.6825,-0.49885 6.19063,0.64652 8.24428,2.428c1.78956,1.5524 1.96911,4.7786 3.32175,6.90324c-0.20353,1.05892 -0.36446,2.10846 -0.4866,3.17463c-1.15466,-0.89909 -2.01883,-2.06907 -2.98105,-3.84091z" fill="#00b539" stroke="none" stroke-width="0.5"/><path d="M357.90647,109.75344c0,0 1.70141,0.6232 4.71286,1.99585c2.75061,1.25377 4.82887,2.75816 4.82887,2.75816l0.02733,1.38041c0,0 -7.81941,-4.826 -16.98753,-5.39296c-7.33061,-0.45331 -11.94556,1.55845 -11.94556,1.55845l0.75684,-4.80141c0,0 3.88823,-1.43494 9.3669,-0.81074c5.67311,0.64637 9.21596,2.04479 9.21596,2.04479z" data-paper-data="{&quot;index&quot;:null}" fill="#000000" stroke="none" stroke-width="1.5"/><path d="M311.04767,107.7097c0,0 4.18639,-1.52627 9.63308,-1.27301c6.03562,0.28064 8.95536,1.23333 8.95536,1.23333l-0.35778,4.81355c0,0 -4.30141,-1.43032 -9.14385,-1.95176c-6.47616,-0.69737 -7.89236,0.52959 -12.86629,0.34024c-4.26192,-0.16226 -7.7839,-0.95293 -7.7839,-0.95293l0.17782,-1.42235c0,0 4.12694,0.69129 6.03752,0.80364c1.57693,0.09273 4.73569,-0.40983 4.73569,-0.40983z" fill="#000000" stroke="none" stroke-width="1.5"/></g></g></svg>