<svg version="1.1" xmlns="http://www.w3.org/2000/svg" xmlns:xlink="http://www.w3.org/1999/xlink" width="165.74793" height="301.21855" viewBox="0,0,165.74793,301.21855"><defs><linearGradient x1="268.77222" y1="60.23789" x2="285.7926" y2="106.65502" gradientUnits="userSpaceOnUse" id="color-1"><stop offset="0" stop-color="#ecec68"/><stop offset="1" stop-color="#292912"/></linearGradient></defs><g transform="translate(-238.23421,-28.63961)"><g data-paper-data="{&quot;isPaintingLayer&quot;:true}" fill-rule="nonzero" stroke-linejoin="miter" stroke-miterlimit="10" stroke-dasharray="" stroke-dashoffset="0" style="mix-blend-mode: normal"><path d="M357.5053,241.66652c-12.94173,-0.95622 -12.16463,-122.21816 -12.16463,-122.21816l12.63669,-1.99595c0,0 12.08484,125.14192 -0.47205,124.21412z" data-paper-data="{&quot;index&quot;:null}" fill="#60602a" stroke="#000000" stroke-width="2" stroke-linecap="butt"/><path d="M366.61833,230.15531c-12.94173,-0.95622 -10.92056,-109.57314 -10.92056,-109.57314l12.63669,-1.99595c0,0 10.84076,112.49689 -1.71612,111.5691z" data-paper-data="{&quot;index&quot;:null}" fill="#60602a" stroke="#000000" stroke-width="2" stroke-linecap="butt"/><path d="M290.83378,99.07708l12.70425,1.50718c0,0 5.79946,139.13846 -7.09577,140.59301c-12.51177,1.41131 -5.60848,-142.10018 -5.60848,-142.10018z" fill="#60602a" stroke="#000000" stroke-width="2" stroke-linecap="butt"/><path d="M287.61088,232.11681c-12.8967,-1.44145 -6.56362,-105.59221 -6.56362,-105.59221l12.7027,-1.52009c0,0 6.3741,108.51091 -6.13908,107.11231z" data-paper-data="{&quot;index&quot;:null}" fill="#60602a" stroke="#000000" stroke-width="2" stroke-linecap="butt"/><path d="M289.50411,328.85816l15.14285,-131.8421l37.78325,-0.15789l13.57389,132z" fill="#bebe54" stroke="#000000" stroke-width="2" stroke-linecap="butt"/><path d="M271.7193,221.67103c-11.89375,-1.78762 -1.08059,-97.76699 -1.08059,-97.76699l12.75117,-1.03799c0,0 0.78069,100.6764 -11.67059,98.80498z" data-paper-data="{&quot;index&quot;:null}" fill="#60602a" stroke="#000000" stroke-width="2" stroke-linecap="butt"/><path d="M380.02325,216.95313c-12.97658,-0.10562 -20.51482,-78.77064 -20.51482,-78.77064l12.47863,-2.82019c0,0 20.62691,81.69333 8.03619,81.59084z" data-paper-data="{&quot;index&quot;:null}" fill="#60602a" stroke="#000000" stroke-width="2" stroke-linecap="butt"/><path d="M302.45433,225.47079l3.12142,-26.32765l35.83075,-0.14203l2.76735,26.1059c0,0 -7.51543,4.19603 -21.55904,4.50964c-12.48458,0.27879 -20.16049,-4.14586 -20.16049,-4.14586z" fill="#a0a047" stroke="#000000" stroke-width="0" stroke-linecap="butt"/><path d="M383.53228,194.42051c-6.99894,-1.85032 2.59743,-14.65192 -1.43024,-27.01588c-3.45501,-10.60601 2.87505,-15.38075 6.3306,-4.77492c3.22897,9.9104 3.00115,33.87976 -4.90036,31.79082z" data-paper-data="{&quot;index&quot;:null}" fill="#60602a" stroke="#000000" stroke-width="2" stroke-linecap="butt"/><path d="M260.16142,156.51587c-0.64218,-33.29565 27.59179,-60.8417 63.06231,-61.52583c35.47052,-0.68413 64.74566,25.75274 65.38785,59.0484c0.64218,33.29566 -27.59179,60.8417 -63.06231,61.52584c-35.47052,0.68413 -64.74566,-25.75274 -65.38784,-59.04839z" fill="#bebe54" stroke="#000000" stroke-width="2" stroke-linecap="butt"/><path d="M273.71741,156.68396c-0.25007,-12.96559 10.05791,-23.67902 23.0235,-23.92909c12.9656,-0.25007 23.67901,10.05791 23.92908,23.02349c0.25007,12.96559 -10.05791,23.67901 -23.0235,23.92907c-12.9656,0.25007 -23.67901,-10.0579 -23.92908,-23.02348z" fill="#ffffff" stroke="#000000" stroke-width="2" stroke-linecap="butt"/><path d="M281.4084,161.4963c-0.17603,-9.12638 7.07967,-16.66745 16.20604,-16.84348c9.12638,-0.17603 16.66745,7.07969 16.84348,16.20606c0.17603,9.12638 -7.07967,16.66745 -16.20604,16.84348c-9.12638,0.17603 -16.66745,-7.07969 -16.84348,-16.20606z" fill="#000000" stroke="none" stroke-width="0" stroke-linecap="butt"/><path d="M352.14477,178.65633c-12.9656,0.25007 -23.67901,-10.05791 -23.92908,-23.02349c-0.25007,-12.96559 10.0579,-23.67901 23.02349,-23.92908c12.9656,-0.25007 23.67901,10.05791 23.92908,23.02349c0.25007,12.96559 -10.05789,23.67901 -23.02349,23.92908z" data-paper-data="{&quot;index&quot;:null}" fill="#ffffff" stroke="#000000" stroke-width="2" stroke-linecap="butt"/><path d="M352.94885,176.46574c-9.12637,0.17603 -16.66744,-7.07969 -16.84346,-16.20606c-0.17603,-9.12638 7.07968,-16.66746 16.20604,-16.84348c9.12637,-0.17603 16.66744,7.07968 16.84347,16.20605c0.17603,9.12638 -7.07968,16.66747 -16.20604,16.84349z" data-paper-data="{&quot;index&quot;:null}" fill="#000000" stroke="none" stroke-width="0" stroke-linecap="butt"/><path d="M273.63408,156.68556c-0.25007,-12.96559 10.0579,-23.67901 23.0235,-23.92908c12.9656,-0.25007 23.67901,10.05791 23.92908,23.0235c0,0 -46.92882,2.1369 -46.95257,0.90558z" fill="#ecec68" stroke="#000000" stroke-width="2" stroke-linecap="butt"/><path d="M327.96576,155.63765c-0.25007,-12.96559 10.0579,-23.67901 23.0235,-23.92908c12.9656,-0.25007 23.679,10.05791 23.92907,23.02349c0.02341,1.21357 -46.95257,0.90559 -46.95257,0.90559z" data-paper-data="{&quot;index&quot;:null}" fill="#ecec68" stroke="#000000" stroke-width="2" stroke-linecap="butt"/><path d="M285.79721,127.63714c0,0 6.60802,-5.29763 11.67231,-6.58987c5.06429,-1.29223 12.34533,0.4614 12.34533,0.4614c0,0 -8.0378,0.09474 -11.94878,1.09269c-4.08713,1.04289 -12.06885,5.03578 -12.06885,5.03578z" fill="#000000" stroke="none" stroke-width="0" stroke-linecap="butt"/><path d="M260.88538,156.55573c-0.01404,-0.72786 6.28402,55.80858 64.44658,55.70189c55.57189,-0.10195 62.38423,-59.16713 62.40388,-58.14847c0.63259,32.79869 -27.25104,59.93498 -62.27982,60.61059c-35.02878,0.6756 -63.93805,-25.36531 -64.57063,-58.164z" fill="#a0a047" stroke="#000000" stroke-width="0" stroke-linecap="butt"/><path d="M349.62721,121.60305c-3.94655,-0.84641 -11.98202,-0.63114 -11.98202,-0.63114c0,0 7.208,-2.03307 12.31835,-0.93708c5.11034,1.09599 11.91772,6.13487 11.91772,6.13487c0,0 -8.12975,-3.68214 -12.25406,-4.56666z" data-paper-data="{&quot;index&quot;:null}" fill="#000000" stroke="none" stroke-width="0" stroke-linecap="butt"/><path d="M256.78956,156.44634c8.78167,-6.87799 11.37459,0.61497 2.59327,7.49341c-10.23683,8.01855 -9.40749,23.99616 -16.24934,21.63014c-7.72415,-2.67112 5.45022,-22.69656 13.65607,-29.12355z" data-paper-data="{&quot;index&quot;:null}" fill="#60602a" stroke="#000000" stroke-width="2" stroke-linecap="butt"/><path d="M273.66039,156.38506l-3.64947,-2.53009" fill="none" stroke="#000000" stroke-width="2" stroke-linecap="round"/><path d="M268.08238,107.59156c16.93162,-17.33026 44.66116,-26.75691 50.05714,-17.58081c4.26454,7.25202 -20.60869,3.34347 -43.06474,28.91081c-19.12331,21.77285 -15.39934,52.70616 -28.48327,49.54103c-12.92078,-3.12565 10.06578,-49.17696 21.49087,-60.87103z" fill="#b1b14e" stroke="#000000" stroke-width="2" stroke-linecap="butt"/><path d="M269.89822,116.18657c14.71137,-19.25082 41.09725,-31.96196 47.56342,-23.50581c5.11033,6.68304 -20.05303,5.81142 -39.25205,33.90697c-16.34966,23.92585 -8.91187,54.18171 -22.28256,52.62223c-13.20395,-1.54003 4.0443,-50.03335 13.9712,-63.02337z" fill="#ecec68" stroke="#000000" stroke-width="2" stroke-linecap="butt"/><path d="M337.1143,89.68212c-0.11937,2.92269 -7.11576,4.85422 -15.62685,4.31419c-8.51108,-0.54003 -15.31392,-3.34713 -15.19453,-6.26981c0.11937,-2.92269 7.11575,-4.85421 15.62683,-4.31418c8.51108,0.54003 15.31392,3.34712 15.19454,6.2698z" fill="#ecec68" stroke="#000000" stroke-width="2" stroke-linecap="butt"/><path d="M399.27774,169.90741c-13.02299,3.4072 -9.87327,-27.58985 -29.39702,-49.00435c-22.92627,-25.14652 -47.72275,-20.77742 -43.59342,-28.10728c5.22491,-9.27457 33.12446,-0.36375 50.37455,16.64956c11.63995,11.48021 35.47652,57.09735 22.61592,60.46207z" data-paper-data="{&quot;index&quot;:null}" fill="#60602a" stroke="#000000" stroke-width="2" stroke-linecap="butt"/><path d="M374.43778,154.24133l4.13365,-3.48036" fill="none" stroke="#000000" stroke-width="2" stroke-linecap="round"/><path d="M308.51106,195.51529c0,0 6.5194,-2.54883 15.91662,-2.5c9.39722,0.04883 16.19298,2.25 16.19298,2.25" data-paper-data="{&quot;index&quot;:null}" fill="none" stroke="#000000" stroke-width="2" stroke-linecap="round"/><path d="M394.90068,180.03443c-13.35473,1.69072 -6.21443,-28.63673 -22.79828,-52.40086c-19.47401,-27.90564 -44.62759,-26.78694 -39.58314,-33.51983c6.38281,-8.51922 32.89226,3.93215 47.79196,23.03757c10.05399,12.8919 27.77767,61.21349 14.58947,62.88312z" data-paper-data="{&quot;index&quot;:null}" fill="#b1b14e" stroke="#000000" stroke-width="2" stroke-linecap="butt"/><path d="M274.10237,145.06554c6.73348,-8.89296 11.15434,-2.31088 4.42132,6.58243c-7.84903,10.36739 -2.96599,25.60311 -10.18523,25.06323c-8.15022,-0.60951 -0.52806,-23.3358 5.76391,-31.64564z" data-paper-data="{&quot;index&quot;:null}" fill="#b1b14e" stroke="#000000" stroke-width="2" stroke-linecap="butt"/><path d="M264.5527,143.66099c10.43743,-14.65213 19.96943,-26.5189 25.29096,-34.60242c6.66875,-10.12996 13.71274,-25.16077 20.85578,-22.06993c7.45926,3.22768 0.00977,20.64588 -6.8784,31.10915c-5.29913,8.04946 -20.921,22.11127 -31.31005,36.69707c-13.02033,18.28001 -3.83083,44.31931 -16.31253,43.75054c-14.09132,-0.64213 -2.08319,-40.23228 8.35426,-54.88441z" fill="#ecec68" stroke="#000000" stroke-width="2" stroke-linecap="butt"/><g stroke="#000000" stroke-width="2" stroke-linecap="butt"><path d="M265.50174,165.75667c-0.04188,-2.17178 1.35134,-2.78341 3.08389,-2.81683c1.73254,-0.03342 3.14832,0.52405 3.1902,2.69583c0.04188,2.17178 -1.30598,5.13546 -3.03852,5.16888c-1.73254,0.03342 -3.19369,-2.87609 -3.23557,-5.04788z" fill="#ecec68"/><path d="M272.06322,180.53589c0.04188,2.17178 -1.35134,2.78341 -3.08387,2.81683c-1.73254,0.03342 -3.14833,-0.52404 -3.19021,-2.69581c-0.04188,-2.17178 1.30599,-5.13547 3.03852,-5.16889c1.73254,-0.03342 3.19368,2.87609 3.23556,5.04788z" fill="#ecec68"/><path d="M261.39286,176.42702c-2.17177,0.04188 -2.7834,-1.35134 -2.81682,-3.08388c-0.03342,-1.73255 0.52403,-3.14831 2.6958,-3.1902c2.17177,-0.04188 5.13547,1.30597 5.16889,3.03852c0.03342,1.73255 -2.8761,3.19368 -5.04788,3.23556z" fill="#ecec68"/><path d="M276.1721,169.86555c2.17177,-0.04188 2.78339,1.35134 2.81681,3.08388c0.03342,1.73255 -0.52403,3.14833 -2.69581,3.19021c-2.17177,0.04188 -5.13546,-1.30597 -5.16888,-3.03852c-0.03342,-1.73255 2.87611,-3.19369 5.04788,-3.23557z" fill="#ff80ee"/><path d="M261.23741,170.24087c-1.56531,-1.50607 -1.01262,-2.92372 0.18884,-4.17244c1.20147,-1.24872 2.59674,-1.85565 4.16204,-0.34958c1.56531,1.50607 2.70787,4.55479 1.50639,5.80351c-1.20147,1.24872 -4.29196,0.22458 -5.85727,-1.28148z" fill="#ecec68"/><path d="M276.32756,176.0517c1.56531,1.50607 1.01263,2.92371 -0.18884,4.17243c-1.20147,1.24872 -2.59675,1.85565 -4.16204,0.34958c-1.56531,-1.50607 -2.70786,-4.5548 -1.50639,-5.80352c1.20147,-1.24872 4.29198,-0.22456 5.85728,1.28149z" fill="#ff80ee"/><path d="M265.87707,180.69135c-1.50606,1.5653 -2.92372,1.01264 -4.17244,-0.18883c-1.24872,-1.20146 -1.85565,-2.59675 -0.34958,-4.16204c1.50606,-1.5653 4.5548,-2.70788 5.80351,-1.50639c1.24872,1.20146 0.22457,4.29198 -1.28148,5.85728z" fill="#ecec68"/><path d="M271.6879,165.60122c1.50606,-1.5653 2.9237,-1.01263 4.17242,0.18884c1.24872,1.20146 1.85565,2.59675 0.34958,4.16204c-1.50606,1.5653 -4.55479,2.70786 -5.8035,1.50639c-1.24872,-1.20146 -0.22457,-4.29198 1.28149,-5.85728z" fill="#ecec68"/><path d="M264.6275,173.13803c-0.04424,-2.29379 1.77937,-4.18914 4.07317,-4.23337c2.29379,-0.04424 4.18914,1.77938 4.23338,4.07316c0.04424,2.29379 -1.77938,4.18913 -4.07317,4.23337c-2.29379,0.04424 -4.18914,-1.77936 -4.23338,-4.07315z" fill="#b1b14e"/></g><path d="M342.52949,105.46999c0,0 21.19809,-11.5772 21.60913,-21.73367c0.23491,-5.80469 -8.60168,-15.22581 -9.34908,-25.45959c-0.98508,-13.4882 12.58427,-23.99166 12.58427,-23.99166c0,0 -3.15402,10.35036 -2.53851,22.87576c0.49051,9.98175 8.41039,13.43213 10.79659,26.4734c2.33695,12.77207 -10.53225,33.42107 -10.53225,33.42107c0,0 -3.92455,4.03301 -14.17536,-1.26187c-9.32185,-4.81504 -8.39481,-10.32341 -8.39481,-10.32341z" fill="#60602a" stroke="#000000" stroke-width="2" stroke-linecap="butt"/><path d="M277.00487,155.04923c6.8696,-16.62628 19.14239,-31.07073 22.50679,-40.14502c4.21614,-11.37157 7.69418,-27.6026 15.3498,-26.19979c7.99452,1.46491 4.65906,20.1133 0.3042,31.85904c-3.35023,9.03608 -18.40074,22.54026 -25.23814,39.09104c-8.56913,20.74266 0.59036,44.7794 -13.40244,42.99638c-10.99804,-1.40141 -6.3898,-30.97536 0.4798,-47.60164z" fill="#b1b14e" stroke="#000000" stroke-width="2" stroke-linecap="butt"/><path d="M328.25627,134.08014c-7.09825,-1.42259 1.70435,-14.78246 -3.06552,-26.87949c-4.09167,-10.37703 1.93727,-15.52676 6.02947,-5.14994c3.82387,9.6964 5.04967,33.63548 -2.96395,32.02944z" data-paper-data="{&quot;index&quot;:null}" fill="#b1b14e" stroke="#000000" stroke-width="2" stroke-linecap="butt"/><path d="M390.99855,151.74386c-12.35513,6.79593 -9.75131,-12.71127 -22.553,-22.92665c-10.2146,-8.15094 -27.20152,-10.99608 -32.42866,-15.59994c-6.79462,-5.98443 -16.73967,-18.277 -9.78779,-22.45353c6.65717,-3.99948 16.15281,6.64406 22.73101,12.43787c5.24925,4.62334 19.92412,9.20358 30.18626,17.39132c10.26214,8.18773 21.56304,25.80951 11.85217,31.15094z" data-paper-data="{&quot;index&quot;:null}" fill="#ecec68" stroke="#000000" stroke-width="2" stroke-linecap="butt"/><path d="M291.89402,138.46044c5.35227,-11.98764 16.28148,-22.79888 18.81927,-29.31727c3.1803,-8.16861 5.19007,-19.66814 12.94059,-19.17491c8.09361,0.51507 6.44245,13.68572 3.15751,22.1231c-2.52711,6.49093 -16.30712,16.82348 -21.63408,28.75661c-6.67613,14.95549 4.6002,31.08484 -9.49609,30.7261c-11.07936,-0.28194 -9.13947,-21.12599 -3.7872,-33.11362z" fill="#ecec68" stroke="#000000" stroke-width="2" stroke-linecap="butt"/><g data-paper-data="{&quot;index&quot;:null}" stroke="#1d1d0d" stroke-width="1.5" stroke-linecap="butt"><path d="M253.70342,66.66347l-6.51818,-17.93185l31.02258,-11.22601l6.51819,17.93187z" fill="#d0d05b"/><path d="M281.93266,108.36909l-11.12788,-29.71753l-15.13046,-13.61089l26.44934,-9.14398l-4.02667,20.23504l11.32725,30.52473z" fill="url(#color-1)"/><path d="M240.49137,53.24823l18.7735,-23.79019l30.02486,5.4485z" fill="#bfbf54"/><path d="M281.12184,56.91341l-23.7773,8.33329c0,0 2.2165,-10.59546 8.78244,-12.89664c6.56593,-2.30119 14.99487,4.56337 14.99487,4.56337z" fill="#ffff70"/></g><path d="M246.51561,148.74378c-1.22532,-36.34026 31.97602,-66.87506 74.15728,-68.20141c42.18126,-1.32635 77.36927,27.05807 78.59459,63.39833c0.07072,2.09763 0.02675,4.17591 -0.12705,6.23036c-6.16354,-0.13339 -12.34398,-0.39906 -18.4167,-0.2653c-42.63517,0.9391 -85.27302,1.79047 -127.91412,2.39803c-1.05203,0.01499 -2.07366,-0.74322 -3.10089,-0.53127c-0.50084,0.10334 -1.5861,0.71875 -2.85824,1.53073c-0.17083,-1.50455 -0.28313,-3.02492 -0.33487,-4.55948z" fill="#bebe54" stroke="#000000" stroke-width="2" stroke-linecap="butt"/><path d="M246.8145,130.5641l7.6707,-17.1511l136.49389,-1.63239l7.30725,15.86205z" fill="#b9b952" stroke="#000000" stroke-width="2" stroke-linecap="butt"/><path d="M302.26849,144.49734l-0.83883,-43.4919l41.31732,-0.79691l0.83882,43.49192z" fill="#d7d75f" stroke="#000000" stroke-width="2" stroke-linecap="butt"/></g></g></svg>