<svg version="1.1" xmlns="http://www.w3.org/2000/svg" xmlns:xlink="http://www.w3.org/1999/xlink" width="186.75687" height="260.71766" viewBox="0,0,186.75687,260.71766"><defs><linearGradient x1="396.51817" y1="53.3508" x2="396.51817" y2="88.68413" gradientUnits="userSpaceOnUse" id="color-1"><stop offset="0" stop-color="#a0a047"/><stop offset="1" stop-color="#d9d95f"/></linearGradient><linearGradient x1="247.09463" y1="53.3508" x2="247.09463" y2="88.68413" gradientUnits="userSpaceOnUse" id="color-2"><stop offset="0" stop-color="#a0a047"/><stop offset="1" stop-color="#d9d95f"/></linearGradient><linearGradient x1="320.44053" y1="180.06846" x2="320.44053" y2="312.06846" gradientUnits="userSpaceOnUse" id="color-3"><stop offset="0" stop-color="#a0a047"/><stop offset="1" stop-color="#d9d95f"/></linearGradient><linearGradient x1="319.88055" y1="182.2114" x2="319.88055" y2="212.83958" gradientUnits="userSpaceOnUse" id="color-4"><stop offset="0" stop-color="#f5f3cd"/><stop offset="1" stop-color="#e7e77e"/></linearGradient><linearGradient x1="322.17003" y1="84.12696" x2="322.17003" y2="204.72362" gradientUnits="userSpaceOnUse" id="color-5"><stop offset="0" stop-color="#a0a047"/><stop offset="1" stop-color="#d9d95f"/></linearGradient><linearGradient x1="322.24697" y1="144.46606" x2="322.24697" y2="203.87746" gradientUnits="userSpaceOnUse" id="color-6"><stop offset="0" stop-color="#f5f3cd"/><stop offset="1" stop-color="#e7e77e"/></linearGradient><linearGradient x1="349.37618" y1="121.37411" x2="349.37618" y2="145.40211" gradientUnits="userSpaceOnUse" id="color-7"><stop offset="0" stop-color="#a0a047"/><stop offset="1" stop-color="#d9d95f"/></linearGradient><linearGradient x1="295.11774" y1="121.37411" x2="295.11774" y2="145.39422" gradientUnits="userSpaceOnUse" id="color-8"><stop offset="0" stop-color="#a0a047"/><stop offset="1" stop-color="#d9d95f"/></linearGradient><linearGradient x1="393.54466" y1="122.24232" x2="393.54466" y2="167.57565" gradientUnits="userSpaceOnUse" id="color-9"><stop offset="0" stop-color="#a0a047"/><stop offset="1" stop-color="#d9d95f"/></linearGradient><linearGradient x1="250.06276" y1="122.24232" x2="250.06276" y2="167.57565" gradientUnits="userSpaceOnUse" id="color-10"><stop offset="0" stop-color="#a0a047"/><stop offset="1" stop-color="#d9d95f"/></linearGradient><linearGradient x1="352.86698" y1="140.58561" x2="352.86698" y2="167.64469" gradientUnits="userSpaceOnUse" id="color-11"><stop offset="0" stop-color="#000000"/><stop offset="1" stop-color="#000000" stop-opacity="0"/></linearGradient><linearGradient x1="352.86698" y1="167.64469" x2="352.86698" y2="140.58561" gradientUnits="userSpaceOnUse" id="color-12"><stop offset="0" stop-color="#000000"/><stop offset="1" stop-color="#000000" stop-opacity="0"/></linearGradient><linearGradient x1="289.53954" y1="140.18475" x2="289.53954" y2="167.24381" gradientUnits="userSpaceOnUse" id="color-13"><stop offset="0" stop-color="#000000"/><stop offset="1" stop-color="#000000" stop-opacity="0"/></linearGradient><linearGradient x1="289.53954" y1="167.24381" x2="289.53954" y2="140.18473" gradientUnits="userSpaceOnUse" id="color-14"><stop offset="0" stop-color="#000000"/><stop offset="1" stop-color="#000000" stop-opacity="0"/></linearGradient></defs><g transform="translate(-228.42796,-52.35081)"><g data-paper-data="{&quot;isPaintingLayer&quot;:true}" fill-rule="nonzero" stroke-linejoin="miter" stroke-miterlimit="10" stroke-dasharray="" stroke-dashoffset="0" style="mix-blend-mode: normal"><g data-paper-data="{&quot;index&quot;:null}" stroke="#000000" stroke-width="2" stroke-linecap="butt"><path d="M344.42798,117.92223l49.49747,-49.49748l5.18545,5.18544l-49.49748,49.49748z" fill="#6e6e30"/><path d="M384.02595,83.50969c-6.89926,-6.89926 -6.89926,-18.08518 0,-24.98444c6.89926,-6.89926 18.08518,-6.89926 24.98444,0c6.89926,6.89926 6.89926,18.08518 0,24.98444c-6.89926,6.89926 -18.08518,6.89926 -24.98444,0z" fill="url(#color-1)"/></g><g data-paper-data="{&quot;index&quot;:null}" stroke="#000000" stroke-width="2" stroke-linecap="butt"><path d="M293.99938,123.10767l-49.49747,-49.49748l5.18544,-5.18544l49.49748,49.49747z" fill="#6e6e30"/><path d="M234.60241,83.50969c-6.89926,-6.89926 -6.89926,-18.08518 0,-24.98444c6.89926,-6.89926 18.08518,-6.89926 24.98444,0c6.89926,6.89926 6.89926,18.08518 0,24.98444c-6.89926,6.89926 -18.08518,6.89926 -24.98444,0z" fill="url(#color-2)"/></g><path d="M287.19054,312.06846l13.57389,-132l37.78325,0.15789l15.14285,131.8421z" data-paper-data="{&quot;index&quot;:null}" fill="url(#color-3)" stroke="#000000" stroke-width="2" stroke-linecap="butt"/><path d="M340.74032,208.68108c0,0 -7.67591,4.42465 -20.16049,4.14586c-14.04361,-0.31361 -21.55904,-4.50964 -21.55904,-4.50964l2.76735,-26.1059l35.83075,0.14203l3.12142,26.32765z" data-paper-data="{&quot;index&quot;:null}" fill="url(#color-4)" stroke="#000000" stroke-width="0" stroke-linecap="butt"/><path d="M322.17003,204.72362c-35.47712,0 -64.23702,-26.99648 -64.23702,-60.29833c0,-33.30184 28.7599,-60.29833 64.23702,-60.29833c35.47712,0 64.23702,26.99648 64.23702,60.29833c0,33.30184 -28.7599,60.29833 -64.23702,60.29833z" data-paper-data="{&quot;index&quot;:null}" fill="url(#color-5)" stroke="#000000" stroke-width="2" stroke-linecap="butt"/><path d="M322.24697,203.87746c-35.03529,0 -63.43702,-26.59354 -63.43702,-59.39833c0,-1.01885 7.95006,57.90399 63.51358,56.93429c58.1538,-1.0149 63.36046,-57.66228 63.36046,-56.93429c0,32.80479 -28.40173,59.39833 -63.43702,59.39833z" data-paper-data="{&quot;index&quot;:null}" fill="url(#color-6)" stroke="#000000" stroke-width="0" stroke-linecap="butt"/><path d="M349.37618,168.33541c-12.968,0 -23.48065,-10.51265 -23.48065,-23.48065c0,-12.968 10.51265,-23.48065 23.48065,-23.48065c12.968,0 23.48065,10.51265 23.48065,23.48065c0,12.968 -10.51265,23.48065 -23.48065,23.48065z" data-paper-data="{&quot;index&quot;:null}" fill="#ffffff" stroke="#000000" stroke-width="2" stroke-linecap="butt"/><path d="M349.26362,161.10697c-9.12807,0 -16.52784,-7.39976 -16.52784,-16.52784c0,-9.12807 7.39976,-16.52784 16.52784,-16.52784c9.12807,0 16.52783,7.39976 16.52783,16.52784c0,9.12807 -7.39975,16.52784 -16.52783,16.52784z" data-paper-data="{&quot;index&quot;:null}" fill="#000000" stroke="none" stroke-width="0" stroke-linecap="butt"/><path d="M271.63711,144.85475c0,-12.968 10.51265,-23.48065 23.48065,-23.48065c12.968,0 23.48065,10.51265 23.48065,23.48065c0,12.968 -10.51265,23.48065 -23.48065,23.48065c-12.968,0 -23.48065,-10.51265 -23.48065,-23.48065z" data-paper-data="{&quot;index&quot;:null}" fill="#ffffff" stroke="#000000" stroke-width="2" stroke-linecap="butt"/><path d="M278.70248,144.57913c0,-9.12807 7.39976,-16.52784 16.52783,-16.52784c9.12806,0 16.52783,7.39976 16.52783,16.52784c0,9.12807 -7.39976,16.52784 -16.52783,16.52784c-9.12806,0 -16.52783,-7.39976 -16.52783,-16.52784z" data-paper-data="{&quot;index&quot;:null}" fill="#000000" stroke="none" stroke-width="0" stroke-linecap="butt"/><path d="M372.85684,144.85476c0,1.23155 -46.96131,0 -46.96131,0c0,-12.968 10.51265,-23.48065 23.48065,-23.48065c12.968,0 23.48065,10.51265 23.48065,23.48065z" data-paper-data="{&quot;index&quot;:null}" fill="url(#color-7)" stroke="#000000" stroke-width="2" stroke-linecap="butt"/><path d="M318.5984,144.85476c0,0 -46.96131,1.2138 -46.96131,0c0,-12.968 10.51265,-23.48065 23.48065,-23.48065c12.968,0 23.48065,10.51265 23.48065,23.48065z" data-paper-data="{&quot;index&quot;:null}" fill="url(#color-8)" stroke="#000000" stroke-width="2" stroke-linecap="butt"/><path d="M321.53422,62.05713c-63.85944,1.47162 -63.85494,66.33334 -63.85494,66.33334l-8.66374,4c0,0 -1.21627,-77.43354 72.51868,-77.33333c74.10115,0.10071 73.48132,76.66666 73.48132,76.66666l-7.38022,-3c0,0 -4.25744,-68.09183 -66.1011,-66.66667z" data-paper-data="{&quot;index&quot;:null}" fill="#6e6e30" stroke="#000000" stroke-width="2" stroke-linecap="butt"/><path d="M383.81692,167.57565c-1.18635,0 -1.01424,-45.33333 0,-45.33333c11.20142,0 20.28196,10.14821 20.28196,22.66667c0,12.51845 -9.08054,22.66666 -20.28196,22.66666z" data-paper-data="{&quot;index&quot;:null}" fill="url(#color-9)" stroke="#000000" stroke-width="2" stroke-linecap="butt"/><path d="M378.88727,168.90899v-48.33334h10.14098v48.33334z" data-paper-data="{&quot;index&quot;:null}" fill="#6e6e30" stroke="#000000" stroke-width="2" stroke-linecap="butt"/><path d="M239.50854,144.90899c0,-12.51846 9.08055,-22.66667 20.28197,-22.66667c1.01423,0 1.18635,45.33333 0,45.33333c-11.20142,0 -20.28197,-10.14821 -20.28197,-22.66666z" data-paper-data="{&quot;index&quot;:null}" fill="url(#color-10)" stroke="#000000" stroke-width="2" stroke-linecap="butt"/><path d="M254.94168,168.90899v-48.33334h10.14098v48.33334z" data-paper-data="{&quot;index&quot;:null}" fill="#6e6e30" stroke="#000000" stroke-width="2" stroke-linecap="butt"/><path d="M340.46462,91.52183l4.83333,21.33333l-23.83333,-11.5l1.33333,11.33334l-23,-18" data-paper-data="{&quot;index&quot;:null}" fill="none" stroke="#000000" stroke-width="2" stroke-linecap="round"/><path d="M348.05544,111.24418c-3.9295,-0.92235 -11.96762,-0.86207 -11.96762,-0.86207c0,0 7.24586,-1.8937 12.33413,-0.69937c5.08826,1.19433 11.79721,6.36355 11.79721,6.36355c0,0 -8.05724,-3.83822 -12.16372,-4.80211z" data-paper-data="{&quot;index&quot;:null}" fill="#000000" stroke="none" stroke-width="0" stroke-linecap="butt"/><path d="M284.12094,116.0463c0,0 6.70895,-5.16922 11.79721,-6.36355c5.08827,-1.19433 12.33413,0.69937 12.33413,0.69937c0,0 -8.03812,-0.06028 -11.96762,0.86207c-4.10648,0.96389 -12.16372,4.80211 -12.16372,4.80211z" data-paper-data="{&quot;index&quot;:null}" fill="#000000" stroke="none" stroke-width="0" stroke-linecap="butt"/><g data-paper-data="{&quot;index&quot;:null}" stroke-linecap="butt"><g stroke="#000000" stroke-width="1"><path d="M327.17576,167.84512l2.65445,-27.25951h48.3488v27.05908z" fill="url(#color-11)"/><path d="M378.17898,140.58561v27.05908c0,0 -16.259,0.56882 -24.6484,0.56882c-8.48422,0 -25.97564,-0.56882 -25.97564,-0.56882l2.27524,-27.05908z" data-paper-data="{&quot;index&quot;:null}" fill="url(#color-12)"/></g><g data-paper-data="{&quot;index&quot;:null}" stroke="#000000" stroke-width="1"><path d="M269.91558,167.44424l-5.68809,-27.25951h48.3488l2.65445,27.25951z" fill="url(#color-13)"/><path d="M314.66196,140.38515c0,0 0.00755,1.06995 0.01552,2.19872c0.0267,3.78022 0.17409,24.65994 0.17409,24.65994c0,0 -15.39832,1.27271 -22.95226,1.33983c-7.48733,0.06651 -22.1733,-0.93895 -22.1733,-0.93895l-6.2569,-27.45996z" data-paper-data="{&quot;index&quot;:null}" fill="url(#color-14)"/></g><path d="M321.67727,142.99086c-2.67005,0 -8.15293,2.80612 -8.15293,2.80612v-6.01313h16.11626v6.01313c0,0 -5.26166,-2.80612 -7.96333,-2.80612z" fill="#000000" stroke="none" stroke-width="0"/></g></g></g></svg>