<svg version="1.1" xmlns="http://www.w3.org/2000/svg" xmlns:xlink="http://www.w3.org/1999/xlink" width="151.57154" height="271.01847" viewBox="0,0,151.57154,271.01847"><g transform="translate(-244.21428,-44.49165)"><g data-paper-data="{&quot;isPaintingLayer&quot;:true}" fill-rule="nonzero" stroke="#b5b115" stroke-width="0.5" stroke-linecap="butt" stroke-linejoin="miter" stroke-miterlimit="10" stroke-dasharray="" stroke-dashoffset="0" style="mix-blend-mode: normal"><path d="M288.72728,315.25835l14.30154,-131.93601l37.78147,-0.3989l14.41562,131.91073z" fill="#000000"/><path d="M324.71355,211.34068l6.62963,29.6681l-8.5882,11.73759l-8.73725,-11.62707l6.04332,-29.72418z" fill="#ffffff"/><path d="M320.06109,211.40144l-6.27553,-6.67892l8.36601,-8.47344l8.47343,8.36602l-5.91145,6.72558z" fill="#ffffff"/><path d="M256.09496,143.55658c-0.21243,-33.30117 28.37468,-60.48056 63.85108,-60.70686c35.4764,-0.2263 64.40792,26.58618 64.62035,59.88734c0.21243,33.30117 -28.37468,60.48056 -63.85108,60.70686c-35.4764,0.2263 -64.40792,-26.58618 -64.62035,-59.88734z" fill="#000000"/><path d="M269.64753,143.89961c-0.08272,-12.96774 10.36266,-23.54723 23.33039,-23.62995c12.96774,-0.08272 23.54723,10.36266 23.62995,23.33039c0.08272,12.96774 -10.36266,23.54723 -23.33039,23.62995c-12.96774,0.08272 -23.54723,-10.36266 -23.62995,-23.33039z" fill="#ffffff"/><path d="M276.71101,143.57891c-0.05823,-9.12789 7.29418,-16.57471 16.42206,-16.63293c9.12789,-0.05823 16.57471,7.29419 16.63293,16.42207c0.05823,9.12789 -7.29419,16.57471 -16.42207,16.63293c-9.12789,0.05823 -16.5747,-7.29419 -16.63292,-16.42207z" fill="#000000"/><path d="M347.53483,166.88388c-12.96774,0.08272 -23.54723,-10.36266 -23.62995,-23.33039c-0.08272,-12.96774 10.36266,-23.54723 23.33039,-23.62995c12.96774,-0.08272 23.54723,10.36266 23.62995,23.33039c0.08272,12.96774 -10.36266,23.54723 -23.33039,23.62995z" data-paper-data="{&quot;index&quot;:null}" fill="#ffffff"/><path d="M347.37616,159.65632c-9.12788,0.05823 -16.5747,-7.29419 -16.63292,-16.42207c-0.05823,-9.12789 7.29419,-16.57471 16.42206,-16.63293c9.12788,-0.05823 16.5747,7.29419 16.63292,16.42207c0.05823,9.12789 -7.29419,16.57471 -16.42206,16.63293z" data-paper-data="{&quot;index&quot;:null}" fill="#000000"/><path d="M269.64753,143.89961c-0.08272,-12.96774 10.36266,-23.54723 23.33039,-23.62995c12.96774,-0.08272 23.54723,10.36266 23.62995,23.33039c0,0 -46.9525,1.53108 -46.96035,0.29956z" fill="#000000"/><path d="M323.90489,143.5535c-0.08272,-12.96774 10.36266,-23.54723 23.33039,-23.62995c12.96774,-0.08272 23.54723,10.36266 23.62995,23.33039c0.00774,1.21378 -46.96035,0.29956 -46.96035,0.29956z" data-paper-data="{&quot;index&quot;:null}" fill="#000000"/><g fill="#000000"><path d="M395.53572,102.91069c0.06496,10.18293 -33.70089,18.65358 -75.41811,18.9197c-41.71722,0.26611 -75.58838,-7.77308 -75.65334,-17.95601c-0.06496,-10.18293 33.70089,-18.65358 75.41811,-18.9197c41.71722,-0.26611 75.58838,7.77308 75.65334,17.95601z"/><path d="M273.01108,103.35807l-0.30158,-47.27732c0,0 10.758,-10.33613 48.22207,-11.28313c37.86796,-0.95726 45.75146,10.68367 45.75146,10.68367l0.30158,47.27732c0,0 -9.93582,5.40512 -45.95011,4.79591c-32.18479,-0.54443 -48.02342,-4.19645 -48.02342,-4.19645z"/></g></g></g></svg>