<svg version="1.1" xmlns="http://www.w3.org/2000/svg" xmlns:xlink="http://www.w3.org/1999/xlink" width="216.4841" height="412.66762" viewBox="0,0,216.4841,412.66762"><g transform="translate(-157.20163,43.63816)"><g data-paper-data="{&quot;isPaintingLayer&quot;:true}" fill-rule="nonzero" stroke-linejoin="miter" stroke-miterlimit="10" stroke-dasharray="" stroke-dashoffset="0" style="mix-blend-mode: normal"><path d="M264.90371,55.55987l63.22467,108.0684l-59.4611,27.73927l-36.69695,-112.08983l33.02529,-27.10234z" fill="#b5b54a" stroke="#b5b54a" stroke-width="2.5" stroke-linecap="round"/><path d="M282.90867,-3.93209c14.55653,31.20294 1.16952,68.24812 -29.9007,82.74272c-31.07022,14.49461 -68.05797,0.94982 -82.6145,-30.25312c-14.55653,-31.20294 -1.16953,-68.24812 29.90067,-82.74273c31.07022,-14.49461 68.058,-0.94982 82.61453,30.25312z" fill="#fafab0" stroke="#fafab0" stroke-width="0.5" stroke-linecap="butt"/><path d="M164.67116,-22.97043l16.09694,-2.3306l-3.51735,-7.53969l20.51754,-3.45127l-1.1854,-2.03638l16.26438,-1.46712l-2.10024,-3.49281l30.4785,5.79044l-40.67524,14.73827l8.33801,2.23062l-21.47167,6.95659l12.17818,4.91173l-25.09264,3.23159l1.53322,3.28656l-18.18378,-5.17026l18.50796,-10.28197z" fill="#fcfc00" stroke="#fcfc00" stroke-width="0.5" stroke-linecap="round"/><path d="M215.89296,26.90727c3.00507,6.44159 2.98379,12.80992 -0.04754,14.22407c-3.03133,1.41415 -7.92481,-2.66139 -10.92988,-9.10298c-3.00507,-6.44159 -2.98378,-12.80992 0.04755,-14.22407c3.03133,-1.41415 7.9248,2.66139 10.92987,9.10298z" fill="#29291b" stroke="#29291b" stroke-width="2.5" stroke-linecap="butt"/><path d="M243.82459,12.76298c3.00507,6.44159 2.98379,12.80992 -0.04754,14.22407c-3.03133,1.41415 -7.92481,-2.66139 -10.92989,-9.10298c-3.00507,-6.44159 -2.98378,-12.80992 0.04755,-14.22407c3.03133,-1.41415 7.9248,2.66139 10.92988,9.10298z" fill="#29291b" stroke="#29291b" stroke-width="2.5" stroke-linecap="butt"/><path d="M336.26065,238.20542l24.0129,122.88011l-65.28451,6.55924l2.35554,-117.92052l40.11989,-14.68333z" fill="#e5e61c" stroke="#e5e61c" stroke-width="2.5" stroke-linecap="round"/><path d="M373.14229,190.47747c3.30402,32.88504 -21.6717,62.32209 -55.78482,65.7495c-34.11312,3.4274 -64.4457,-20.45273 -67.74971,-53.33778c-3.30402,-32.88504 21.67169,-62.32209 55.78482,-65.7495c34.11312,-3.4274 64.4457,20.45273 67.74972,53.33778z" fill="#fafab0" stroke="#fafab0" stroke-width="0.5" stroke-linecap="butt"/><path d="M268.75943,132.88343l15.96411,3.11291l-0.83172,-8.27813l20.50687,3.51409l-0.44685,-2.31354l15.83716,3.98326l-0.82972,-3.99029l26.85935,15.5256l-43.26031,0.4872l7.13452,4.85764l-22.5645,-0.52014l9.87456,8.65599l-24.75307,-5.2315l0.36254,3.60842l-15.4583,-10.8822l20.86442,-3.59709z" fill="#29291b" stroke="#29291b" stroke-width="0.5" stroke-linecap="round"/><path d="M299.45342,194.98214c0.71058,7.07245 -1.41143,13.07689 -4.73964,13.41128c-3.32821,0.33439 -6.6023,-5.12789 -7.31288,-12.20034c-0.71058,-7.07245 1.41143,-13.07689 4.73964,-13.41128c3.32821,-0.33439 6.6023,5.12789 7.31288,12.20034z" fill="#29291b" stroke="#29291b" stroke-width="2.5" stroke-linecap="butt"/><path d="M330.48818,190.84951c0.71058,7.07245 -1.41143,13.07689 -4.73964,13.41128c-3.32821,0.33439 -6.6023,-5.12789 -7.31288,-12.20034c-0.71058,-7.07245 1.41143,-13.07689 4.73964,-13.41128c3.32821,-0.33439 6.6023,5.12789 7.31288,12.20034z" fill="#29291b" stroke="#29291b" stroke-width="2.5" stroke-linecap="butt"/><path d="M275.16983,151.34283l-19.70701,-43.3259c0,0 8.88157,-5.2328 13.41114,-6.20251c4.79155,-1.02578 9.53672,1.8095 9.53672,1.8095l4.6023,7.70037c0,0 1.13732,11.51955 -3.99081,13.50055c-3.929,1.51778 -12.89025,4.97953 -12.89025,4.97953" fill="none" stroke="#29291b" stroke-width="2.5" stroke-linecap="round"/><path d="M323.33988,290.73032l3.55424,39.76369" fill="none" stroke="#29291b" stroke-width="2.5" stroke-linecap="round"/><path d="M340.81975,284.24152l-36.98686,13.88572" fill="none" stroke="#29291b" stroke-width="2.5" stroke-linecap="round"/></g></g></svg>