<svg version="1.1" xmlns="http://www.w3.org/2000/svg" xmlns:xlink="http://www.w3.org/1999/xlink" width="135.52443" height="445.70226" viewBox="0,0,135.52443,445.70226"><g transform="translate(-264.04694,83.42137)"><g data-paper-data="{&quot;isPaintingLayer&quot;:true}" fill-rule="nonzero" stroke-linejoin="miter" stroke-miterlimit="10" stroke-dasharray="" stroke-dashoffset="0" style="mix-blend-mode: normal"><path d="M341.60261,40.76879l12.40838,124.58801l-65.61184,0.42112l13.38024,-117.18262l41.31791,-10.86447z" fill="#b5b54a" stroke="#b5b54a" stroke-width="2.5" stroke-linecap="round"/><path d="M286.03978,25.5158c0,0 -15.82416,-28.4708 -7.33024,-53.65596c2.48525,-7.36895 9.88903,-21.36234 22.76434,-30.90711c11.68116,-8.65954 30.48272,-13.14224 42.6768,-12.20556c14.17573,1.08889 32.36963,12.2675 42.21789,23.82332c9.07205,10.64502 12.41824,18.65955 12.88944,26.88047c0.45125,7.87304 0.73412,17.42131 -1.48924,25.95869c-3.34243,12.8344 -9.83078,23.48006 -9.83078,23.48006l-96.35035,-3.16273l-5.54787,-0.2112z" data-paper-data="{&quot;index&quot;:null}" fill="#fafab0" stroke="none" stroke-width="0" stroke-linecap="round"/><path d="M345.19724,236.36581l11.60849,124.66508h-65.61319l14.13207,-117.09433l41.38678,-10.59906z" fill="#e5e61c" stroke="#e5e61c" stroke-width="2.5" stroke-linecap="round"/><path d="M310.99763,132.1094l0.15217,-47.59703c0,0 10.25453,-1.05314 14.7759,-0.04596c4.78289,1.06544 7.91376,5.621 7.91376,5.621l0.97255,8.91801c0,0 -3.76927,10.94469 -9.25635,10.60715c-4.20403,-0.25861 -13.79254,-0.84847 -13.79254,-0.84847" fill="none" stroke="#29291b" stroke-width="2.5" stroke-linecap="round"/><path d="M327.09036,287.33592l-0.43867,39.91981" fill="none" stroke="#29291b" stroke-width="2.5" stroke-linecap="round"/><path d="M306.94164,292.7457l38.18971,-10.11864" fill="none" stroke="#29291b" stroke-width="2.5" stroke-linecap="round"/><path d="M371.78306,35.24177c0,0 -6.28692,9.96069 -18.30691,18.04742c-8.73649,5.87767 -21.8148,10.4763 -31.31691,10.94786c-9.33592,0.46331 -21.38284,-1.72423 -30.64648,-6.58665c-13.13706,-6.89555 -22.10371,-17.32816 -22.10371,-17.32816z" fill="#fafab0" stroke="none" stroke-width="0" stroke-linecap="round"/><path d="M358.60312,-1.23597c0.27038,-7.10291 3.19925,-12.75782 6.54179,-12.63057c3.34256,0.12725 5.83303,5.98844 5.56263,13.09136c-0.2704,7.10289 -3.19925,12.75781 -6.5418,12.63056c-3.34256,-0.12725 -5.83302,-5.98844 -5.56263,-13.09137z" data-paper-data="{&quot;index&quot;:null}" fill="#29291b" stroke="#29291b" stroke-width="2.5" stroke-linecap="butt"/><path d="M330.0515,-2.96782c0.2704,-7.10292 3.19925,-12.75782 6.54179,-12.63057c3.34256,0.12725 5.83303,5.98844 5.56263,13.09136c-0.2704,7.10291 -3.19924,12.7578 -6.54179,12.63056c-3.34256,-0.12726 -5.83304,-5.98843 -5.56264,-13.09135z" data-paper-data="{&quot;index&quot;:null}" fill="#29291b" stroke="#29291b" stroke-width="2.5" stroke-linecap="butt"/><path d="M313.86641,-82.34649l14.44669,7.47237l1.52735,-8.1784l18.6938,9.13359l0.22109,-2.3459l14.08036,8.272l0.32469,-4.06267l21.41605,22.44595l-41.65501,-11.68557l5.48256,6.66633l-21.50966,-6.83824l7.04518,11.08145l-22.28653,-11.9747l-0.66579,3.56494l-11.7786,-14.78666l21.0347,2.40922z" data-paper-data="{&quot;index&quot;:null}" fill="#fcfc00" stroke="#fcfc00" stroke-width="0.5" stroke-linecap="round"/><path d="M376.86736,220.72449l-5.55092,0.10384l-96.39351,1.2985c0,0 -6.28123,-10.76918 -9.37479,-23.66583c-2.05782,-8.57878 -1.5903,-18.11979 -0.98685,-25.98263c0.63011,-8.21026 4.13071,-16.15859 13.40697,-26.62612c10.06993,-11.36317 28.47666,-22.18778 42.67079,-23.00228c12.20993,-0.70064 30.92124,4.14489 42.43275,13.02874c12.68828,9.79202 19.82002,23.92601 22.16226,31.34164c8.0052,25.34474 -8.36668,53.50415 -8.36668,53.50415z" fill="#fafab0" stroke="none" stroke-width="0" stroke-linecap="round"/><path d="M375.27866,220.41993c0,0 -6.77291,9.63683 -19.17894,17.11784c-9.01708,5.43741 -22.30726,9.38216 -31.82106,9.38216c-9.34741,0 -21.2711,-2.78196 -30.28234,-8.09756c-12.77913,-7.53823 -21.21766,-18.40245 -21.21766,-18.40245z" fill="#fafab0" stroke="none" stroke-width="0" stroke-linecap="round"/><path d="M314.57147,178.80515c0.13296,7.10681 -2.47042,12.91875 -5.81481,12.98131c-3.34439,0.06256 -6.16332,-5.64793 -6.29627,-12.75474c-0.13296,-7.10681 2.47042,-12.91875 5.81481,-12.98131c3.34439,-0.06256 6.16332,5.64793 6.29627,12.75474z" fill="#29291b" stroke="#29291b" stroke-width="2.5" stroke-linecap="butt"/><path d="M348.1213,179.35273c0.13296,7.10681 -2.47042,12.91875 -5.81481,12.98131c-3.34439,0.06256 -6.16332,-5.64793 -6.29627,-12.75474c-0.13296,-7.10681 2.47042,-12.91875 5.81481,-12.98131c3.34439,-0.06256 6.16332,5.64793 6.29627,12.75474z" fill="#29291b" stroke="#29291b" stroke-width="2.5" stroke-linecap="butt"/><path d="M288.48346,116.40664l15.65801,4.40113l-0.15562,-8.31833l20.15308,5.17049l-0.25718,-2.3422l15.46069,5.25827l-0.5024,-4.04454l25.50748,17.65888l-43.15659,-3.03321l6.71576,5.42187l-22.44741,-2.3538l9.13778,9.4305l-24.24553,-7.22759l0.06783,3.62596l-14.52191,-12.10352l21.08787,-1.88807z" fill="#29291b" stroke="none" stroke-width="0" stroke-linecap="round"/></g></g></svg>