<svg version="1.1" xmlns="http://www.w3.org/2000/svg" xmlns:xlink="http://www.w3.org/1999/xlink" width="189.33194" height="311.20612" viewBox="0,0,189.33194,311.20612"><defs><linearGradient x1="296.19857" y1="-0.43782" x2="304.01722" y2="34.20262" gradientUnits="userSpaceOnUse" id="color-1"><stop offset="0" stop-color="#c4c456"/><stop offset="1" stop-color="#e3e364"/></linearGradient></defs><g transform="translate(-220.27564,4.69175)"><g data-paper-data="{&quot;isPaintingLayer&quot;:true}" fill-rule="nonzero" stroke-linejoin="miter" stroke-miterlimit="10" stroke-dasharray="" stroke-dashoffset="0" style="mix-blend-mode: normal"><path d="M286.4263,305.51436l15.14285,-131.8421l37.78325,-0.15789l13.57389,132z" fill="#c6c657" stroke="#000000" stroke-width="2" stroke-linecap="butt"/><path d="M299.0384,206.76015l3.12142,-26.32765l35.83075,-0.14203l2.76735,26.1059c0,0 -7.51543,4.19603 -21.55904,4.50964c-12.48458,0.27879 -20.16049,-4.14586 -20.16049,-4.14586z" fill="#9e9e45" stroke="#000000" stroke-width="0" stroke-linecap="butt"/><path d="M254.62829,148.43407c-3.9943,-33.06144 21.31996,-63.31255 56.54096,-67.56776c35.22101,-4.25521 67.0113,19.09686 71.0056,52.15829c3.9943,33.06144 -21.31996,63.31255 -56.54096,67.56776c-35.22101,4.25521 -67.0113,-19.09686 -71.0056,-52.15829z" fill="#c6c657" stroke="#000000" stroke-width="2" stroke-linecap="butt"/><path d="M255.35259,148.4008c-0.08732,-0.72274 11.87617,54.8912 69.73188,48.92368c55.27871,-5.70171 56.10403,-65.15273 56.22624,-64.14124c3.93468,32.56797 -21.07232,62.3761 -55.85469,66.57831c-34.78237,4.20221 -66.16875,-18.79278 -70.10343,-51.36075z" fill="#9e9e45" stroke="#000000" stroke-width="0" stroke-linecap="butt"/><path d="M268.13221,147.2352c-1.55541,-12.87438 7.62044,-24.57205 20.49482,-26.12746c12.87438,-1.55541 24.57205,7.62044 26.12746,20.49482c1.55541,12.87438 -7.62044,24.57205 -20.49482,26.12746c-12.87438,1.55541 -24.57205,-7.62044 -26.12746,-20.49482z" fill="#ffffff" stroke="#000000" stroke-width="2" stroke-linecap="butt"/><path d="M274.73911,148.53341c-1.09484,-9.06218 5.36396,-17.29607 14.42613,-18.39091c9.06218,-1.09484 17.29607,5.36396 18.39091,14.42613c1.09484,9.06218 -5.36397,17.29607 -14.42614,18.39091c-9.06218,1.09484 -17.29606,-5.36396 -18.3909,-14.42613z" fill="#000000" stroke="none" stroke-width="0" stroke-linecap="butt"/><path d="M306.18329,183.27522h25.10959" fill="none" stroke="#000000" stroke-width="2" stroke-linecap="round"/><path d="M348.1264,161.22213c-12.87438,1.55541 -24.57205,-7.62044 -26.12746,-20.49482c-1.55541,-12.87438 7.62044,-24.57205 20.49482,-26.12746c12.87438,-1.55541 24.57205,7.62044 26.12746,20.49482c1.55541,12.87438 -7.62044,24.57205 -20.49482,26.12746z" data-paper-data="{&quot;index&quot;:null}" fill="#ffffff" stroke="#000000" stroke-width="2" stroke-linecap="butt"/><path d="M347.43035,156.39929c-9.06217,1.09484 -17.29606,-5.36397 -18.3909,-14.42614c-1.09484,-9.06218 5.36396,-17.29607 14.42612,-18.39091c9.06217,-1.09484 17.29606,5.36397 18.39091,14.42614c1.09484,9.06218 -5.36397,17.29607 -14.42613,18.39091z" data-paper-data="{&quot;index&quot;:null}" fill="#000000" stroke="none" stroke-width="0" stroke-linecap="butt"/><path d="M276.86349,114.14056c0,0 6.04051,-5.93659 10.94879,-7.73259c4.90829,-1.79601 12.32898,-0.78506 12.32898,-0.78506c0,0 -7.98732,0.90427 -11.77782,2.29127c-3.96123,1.44947 -11.49994,6.22639 -11.49994,6.22639z" fill="#000000" stroke="none" stroke-width="0" stroke-linecap="butt"/><path d="M339.76044,101.70468c-4.01176,-0.44438 -11.98463,0.57958 -11.98463,0.57958c0,0 6.96642,-2.74911 12.1612,-2.17371c5.19478,0.57541 12.4753,4.90263 12.4753,4.90263c0,0 -8.45944,-2.84411 -12.65188,-3.3085z" data-paper-data="{&quot;index&quot;:null}" fill="#000000" stroke="none" stroke-width="0" stroke-linecap="butt"/><path d="M268.06054,147.33696c-1.55541,-12.87439 7.62043,-24.57205 20.49482,-26.12746c12.87439,-1.55541 24.57205,7.62043 26.12746,20.49482c0,0 -46.54832,6.2448 -46.62228,5.63265z" fill="#c6c657" stroke="#000000" stroke-width="2" stroke-linecap="butt"/><path d="M321.99804,140.7198c-1.55541,-12.87439 7.62043,-24.57205 20.49482,-26.12746c12.87439,-1.55541 24.57206,7.62043 26.12747,20.49482c0.07269,0.60169 -46.62229,5.63265 -46.62229,5.63265z" data-paper-data="{&quot;index&quot;:null}" fill="#c6c657" stroke="#000000" stroke-width="2" stroke-linecap="butt"/><path d="M255.67736,131.96333c4.90873,-25.60869 27.10377,-46.51616 55.93879,-49.99984c29.25805,-3.5348 56.14872,11.98111 66.70499,36.28803c0.76658,1.76513 4.61651,21.67512 -60.54456,29.29318c-60.81527,7.10998 -62.09922,-15.58136 -62.09922,-15.58136z" fill-opacity="0.20156" fill="#000000" stroke="#000000" stroke-width="0" stroke-linecap="butt"/><path d="M408.58028,85.47942c1.23652,10.23489 -39.69065,23.5976 -91.4134,29.84646c-51.72275,6.24886 -94.65472,3.01754 -95.89124,-7.21735c-1.23652,-10.23489 39.09094,-28.5615 90.81369,-34.81036c51.72275,-6.24886 95.25443,1.94636 96.49095,12.18125z" fill="#c6c657" stroke="#000000" stroke-width="2" stroke-linecap="butt"/><path d="M313.28606,74.5333c7.1599,-0.86502 13.89421,-1.2975 19.65394,-1.33261c0.67683,-0.00413 -14.70617,12.15312 -14.70617,12.15312l-6.01591,0.87638z" data-paper-data="{&quot;index&quot;:null}" fill="#ffffff" stroke="#000000" stroke-width="0" stroke-linecap="butt"/><path d="M316.46722,113.70345c-17.33412,2.09421 -33.63789,3.14126 -47.58218,3.22625c-1.63862,0.00998 35.60364,-29.42269 35.60364,-29.42269l14.56453,-2.1217z" fill="#ffffff" stroke="#000000" stroke-width="0" stroke-linecap="butt"/><path d="M305.09464,86.46248l-1.96337,-40.10155c0,0 -0.04675,-6.83522 -3.82059,-4.88209c-3.03009,1.5682 -10.18195,6.7884 -10.18195,6.7884c0,0 3.05175,-7.71837 7.72136,-10.95947c3.74408,-2.5987 9.41491,1.45332 9.41491,1.45332c0,0 4.19701,-4.69988 7.45648,-3.18375c4.28378,1.99258 8.43907,8.8891 8.43907,8.8891c0,0 -6.3445,-2.66562 -9.12815,-3.67813c-3.0708,-1.11694 -2.68883,4.49184 -2.68883,4.49184l7.90541,39.5931c0,0 -2.23506,1.78093 -6.46781,2.12444c-3.65886,0.29692 -6.68654,-0.53521 -6.68654,-0.53521z" fill="#c6c657" stroke="#000000" stroke-width="2" stroke-linecap="butt"/><path d="M297.93306,35.57587l-1.63635,-36.03584l13.80466,33.28935c0,0 -2.59227,0.5851 -4.21966,0.95241c-2.23357,0.50414 -7.94865,1.79409 -7.94865,1.79409z" fill="url(#color-1)" stroke="#89893c" stroke-width="1.5" stroke-linecap="butt"/><g stroke="#89893c" stroke-width="1.4"><path d="M288.72101,41.36782l-1.43969,-6.37856l31.50024,-7.10987l1.43969,6.37856z" fill="#c4c456" stroke-linecap="butt"/><g><path d="M286.40513,52.32146c0,0 -2.43682,-2.80546 -2.69333,-5.07902c-0.42975,-3.80894 0.18733,-6.02387 0.18733,-6.02387l42.09844,-9.50198c0,0 2.19538,2.21137 2.73448,5.26126c0.59475,3.36484 -0.22846,5.84162 -0.22846,5.84162z" fill="#c4c456" stroke-linecap="butt"/><path d="M292.31929,50.4562c0,0 -1.75557,-3.20883 -2.15522,-4.97949c-0.37384,-1.65631 -0.17044,-5.32433 -0.17044,-5.32433" fill="none" stroke-linecap="round"/><path d="M320.79741,33.61225c0,0 1.58419,3.53957 1.94806,5.23191c0.32177,1.49655 0.12442,4.40713 0.12442,4.40713" fill="none" stroke-linecap="round"/><path d="M302.73077,47.69372c0,0 -1.39125,-2.37954 -1.73599,-3.83606c-0.39093,-1.65169 -0.48847,-5.56242 -0.48847,-5.56242" fill="none" stroke-linecap="round"/><path d="M310.93042,36.04557c0,0 1.57536,3.32421 1.93682,4.92565c0.3467,1.53605 0.1895,4.49499 0.1895,4.49499" fill="none" stroke-linecap="round"/></g></g><path d="M292.96645,258.74685l1.99382,-15.51624h50.12658l2.27865,16.0859z" fill="#d3d35d" stroke="none" stroke-width="0" stroke-linecap="butt"/><text transform="translate(296.57704,254.07913) scale(0.28152,0.28152)" font-size="40" xml:space="preserve" fill="#85853a" fill-rule="nonzero" stroke="none" stroke-width="1" stroke-linecap="butt" stroke-linejoin="miter" stroke-miterlimit="10" stroke-dasharray="" stroke-dashoffset="0" font-family="Sans Serif" font-weight="normal" text-anchor="start" style="mix-blend-mode: normal"><tspan x="0" dy="0">Mustard</tspan></text></g></g></svg>