<svg version="1.1" xmlns="http://www.w3.org/2000/svg" xmlns:xlink="http://www.w3.org/1999/xlink" width="187.76009" height="312.64335" viewBox="0,0,187.76009,312.64335"><defs><linearGradient x1="288.01187" y1="-3.23899" x2="297.31045" y2="31.03385" gradientUnits="userSpaceOnUse" id="color-1"><stop offset="0" stop-color="#c4c456"/><stop offset="1" stop-color="#e3e364"/></linearGradient></defs><g transform="translate(-215.43846,7.45273)"><g data-paper-data="{&quot;isPaintingLayer&quot;:true}" fill-rule="nonzero" stroke-linejoin="miter" stroke-miterlimit="10" stroke-dasharray="" stroke-dashoffset="0" style="mix-blend-mode: normal"><path d="M286.95053,304.19062l13.57389,-132l37.78325,0.15789l15.14285,131.8421z" data-paper-data="{&quot;index&quot;:null}" fill="#c6c657" stroke="#000000" stroke-width="2" stroke-linecap="butt"/><path d="M340.83843,200.80324c0,0 -7.67591,4.42465 -20.16049,4.14586c-14.04361,-0.31361 -21.55904,-4.50964 -21.55904,-4.50964l2.76735,-26.1059l35.83075,0.14203l3.12142,26.32765z" data-paper-data="{&quot;index&quot;:null}" fill="#9e9e45" stroke="#000000" stroke-width="0" stroke-linecap="butt"/><path d="M320.36771,195.31027c-35.35215,2.97512 -66.27468,-21.51446 -69.06738,-54.699c-2.7927,-33.18454 23.60196,-62.49775 58.95411,-65.47287c35.35215,-2.97512 66.27468,21.51446 69.06738,54.699c2.7927,33.18454 -23.60196,62.49775 -58.95411,65.47287z" data-paper-data="{&quot;index&quot;:null}" fill="#c6c657" stroke="#000000" stroke-width="2" stroke-linecap="butt"/><path d="M320.37342,194.46064c-34.91188,2.93807 -65.44371,-21.18001 -68.19473,-53.86925c-0.08544,-1.01526 12.7779,57.03333 68.06438,51.40747c57.86385,-5.88812 58.3017,-62.7726 58.36275,-62.04717c2.75102,32.68924 -23.32052,61.57088 -58.2324,64.50895z" data-paper-data="{&quot;index&quot;:null}" fill="#9e9e45" stroke="#000000" stroke-width="0" stroke-linecap="butt"/><path d="M344.42649,156.76871c-12.92232,1.0875 -24.27953,-8.50653 -25.36703,-21.42885c-1.0875,-12.92232 8.50653,-24.27953 21.42885,-25.36703c12.92232,-1.0875 24.27953,8.50653 25.36703,21.42885c1.0875,12.92232 -8.50653,24.27953 -21.42885,25.36703z" data-paper-data="{&quot;index&quot;:null}" fill="#ffffff" stroke="#000000" stroke-width="2" stroke-linecap="butt"/><path d="M337.28283,150.62801c-9.09592,0.76548 -17.09017,-5.98766 -17.85565,-15.08359c-0.76548,-9.09592 5.98766,-17.09017 15.08359,-17.85565c9.09592,-0.76549 17.09016,5.98766 17.85564,15.08359c0.76548,9.09592 -5.98765,17.09017 -15.08358,17.85565z" data-paper-data="{&quot;index&quot;:null}" fill="#000000" stroke="none" stroke-width="0" stroke-linecap="butt"/><path d="M306.85782,175.88654l24.59055,-5.079" data-paper-data="{&quot;index&quot;:null}" fill="none" stroke="#000000" stroke-width="2" stroke-linecap="round"/><path d="M264.99217,139.88999c-1.0875,-12.92232 8.50653,-24.27953 21.42885,-25.36703c12.92232,-1.0875 24.27953,8.50653 25.36703,21.42885c1.0875,12.92232 -8.50653,24.27953 -21.42885,25.36703c-12.92232,1.0875 -24.27953,-8.50653 -25.36703,-21.42885z" data-paper-data="{&quot;index&quot;:null}" fill="#ffffff" stroke="#000000" stroke-width="2" stroke-linecap="butt"/><path d="M266.24842,141.45494c-0.76548,-9.09592 5.98766,-17.09017 15.08358,-17.85565c9.09591,-0.76548 17.09016,5.98766 17.85564,15.08359c0.76548,9.09592 -5.98766,17.09017 -15.08358,17.85565c-9.09591,0.76548 -17.09016,-5.98766 -17.85564,-15.08359z" data-paper-data="{&quot;index&quot;:null}" fill="#000000" stroke="none" stroke-width="0" stroke-linecap="butt"/><path d="M350.59471,100.76506c0,0 -8.35073,-3.14902 -12.52358,-3.76514c-3.99301,-0.58958 -11.99776,0.14457 -11.99776,0.14457c0,0 7.06153,-2.49467 12.23203,-1.73125c5.17049,0.76342 12.2893,5.35182 12.2893,5.35182z" data-paper-data="{&quot;index&quot;:null}" fill="#000000" stroke="none" stroke-width="0" stroke-linecap="butt"/><path d="M274.76455,107.14669c0,0 6.25183,-5.71362 11.22201,-7.33045c4.97019,-1.61683 12.34933,-0.33744 12.34933,-0.33744c0,0 -8.01486,0.61401 -11.85317,1.86264c-4.01119,1.30487 -11.71817,5.80525 -11.71817,5.80525z" data-paper-data="{&quot;index&quot;:null}" fill="#000000" stroke="none" stroke-width="0" stroke-linecap="butt"/><path d="M365.94615,131.4868c0.05171,0.61444 -8.52952,-14.26403 -24.68554,-12.76361c-16.40458,1.52351 -22.11034,16.7018 -22.11034,16.7018c-1.0875,-12.92233 8.50652,-24.27953 21.42885,-25.36703c12.92233,-1.08751 24.27954,8.50651 25.36704,21.42884z" data-paper-data="{&quot;index&quot;:null}" fill="#c6c657" stroke="#000000" stroke-width="2" stroke-linecap="butt"/><path d="M311.7874,135.94426c0,0 -10.22529,-14.37075 -25.19122,-12.71324c-14.96593,1.65751 -21.55385,17.25536 -21.60467,16.65143c-1.0875,-12.92233 8.50653,-24.27953 21.42886,-25.36703c12.92233,-1.0875 24.27953,8.50652 25.36703,21.42885z" data-paper-data="{&quot;index&quot;:null}" fill="#c6c657" stroke="#000000" stroke-width="2" stroke-linecap="butt"/><path d="M375.94039,114.02014c0,0 3.34395,22.48029 -57.64963,27.84981c-65.35214,5.75322 -65.61942,-14.52382 -65.22669,-16.40772c5.40814,-25.9425 28.59394,-46.58881 57.96093,-49.06024c28.94239,-2.43569 54.91583,13.53684 64.91538,37.61815z" data-paper-data="{&quot;index&quot;:null}" fill-opacity="0.20156" fill="#000000" stroke="#000000" stroke-width="0" stroke-linecap="butt"/><path d="M216.49941,108.81487c-1.82129,-10.14715 37.38911,-30.75574 88.66851,-39.95977c51.2794,-9.20402 95.20934,-3.51811 97.03063,6.62905c1.82129,10.14716 -38.27243,25.83439 -89.55183,35.03842c-51.2794,9.20403 -94.32602,8.43947 -96.14731,-1.70769z" data-paper-data="{&quot;index&quot;:null}" fill="#c6c657" stroke="#000000" stroke-width="2" stroke-linecap="butt"/><path d="M311.20112,69.80021c7.06144,-1.46575 13.73529,-2.46462 19.47154,-2.98534c0.67407,-0.0612 -13.62888,13.35004 -13.62888,13.35004l-5.92058,1.3806z" data-paper-data="{&quot;index&quot;:null}" fill="#ffffff" stroke="#000000" stroke-width="0" stroke-linecap="butt"/><path d="M314.49678,108.57859c-17.12756,3.39176 -33.30644,5.66185 -47.20485,6.79517c-1.63323,0.13318 33.29033,-32.01668 33.29033,-32.01668l14.36375,-3.21091z" data-paper-data="{&quot;index&quot;:null}" fill="#ffffff" stroke="#000000" stroke-width="0" stroke-linecap="butt"/><path d="M307.33377,83.44692c-3.64274,0.45373 -6.70335,-0.24765 -6.70335,-0.24765l-3.68314,-39.98029c0,0 -0.34015,-6.82691 -4.02666,-4.71357c-2.95997,1.69683 -9.88113,7.21925 -9.88113,7.21925c0,0 2.71758,-7.84227 7.24374,-11.28084c3.62907,-2.75703 9.46862,1.04779 9.46862,1.04779c0,0 3.99138,-4.87573 7.31293,-3.50093c4.36538,1.80684 8.81291,8.51861 8.81291,8.51861c0,0 -6.45309,-2.39079 -9.27764,-3.28286c-3.11592,-0.98409 -2.49351,4.60313 -2.49351,4.60313l9.59788,39.21722c0,0 -2.15653,1.87525 -6.37064,2.40015z" data-paper-data="{&quot;index&quot;:null}" fill="#c6c657" stroke="#000000" stroke-width="2" stroke-linecap="butt"/><path d="M291.29085,32.66703l-3.18189,-35.93237l15.22108,32.66601c0,0 -2.56476,0.69585 -4.17488,1.13269c-2.20987,0.59956 -7.86431,2.13367 -7.86431,2.13367z" data-paper-data="{&quot;index&quot;:null}" fill="url(#color-1)" stroke="#89893c" stroke-width="1.5" stroke-linecap="butt"/><g data-paper-data="{&quot;index&quot;:null}" stroke="#89893c" stroke-width="1.4"><path d="M282.33595,38.84912l-1.7122,-6.31087l31.16597,-8.45564l1.7122,6.31087z" fill="#c4c456" stroke-linecap="butt"/><g><path d="M280.49246,49.89208c0,0 -2.55501,-2.69826 -2.9089,-4.95871c-0.59287,-3.78698 -0.07146,-6.02635 -0.07146,-6.02635l41.65171,-11.30054c0,0 2.2883,2.11509 2.95783,5.13902c0.73865,3.33621 0.02253,5.84605 0.02253,5.84605z" fill="#c4c456" stroke-linecap="butt"/><path d="M286.32108,47.77465c0,0 -1.89171,-3.1305 -2.36701,-4.88237c-0.4446,-1.63873 -0.39886,-5.31211 -0.39886,-5.31211" fill="none" stroke-linecap="round"/><path d="M314.04983,29.72364c0,0 1.73468,3.4683 2.17087,5.14345c0.38573,1.48136 0.31351,4.39773 0.31351,4.39773" fill="none" stroke-linecap="round"/><path d="M296.60437,44.56774c0,0 -1.49212,-2.31763 -1.89907,-3.758c-0.46147,-1.63339 -0.72681,-5.53632 -0.72681,-5.53632" fill="none" stroke-linecap="round"/><path d="M304.2964,32.57831c0,0 1.71661,3.25351 2.14649,4.83796c0.41233,1.51974 0.3823,4.48271 0.3823,4.48271" fill="none" stroke-linecap="round"/></g></g><path d="M292.51132,257.99276l2.27865,-16.0859h50.12658l1.99382,15.51624z" data-paper-data="{&quot;index&quot;:null}" fill="#d3d35d" stroke="none" stroke-width="0" stroke-linecap="butt"/><text transform="translate(297.43706,253.41726) scale(0.28152,0.28152)" font-size="40" xml:space="preserve" data-paper-data="{&quot;index&quot;:null}" fill="#85853a" fill-rule="nonzero" stroke="none" stroke-width="1" stroke-linecap="butt" stroke-linejoin="miter" stroke-miterlimit="10" stroke-dasharray="" stroke-dashoffset="0" font-family="Sans Serif" font-weight="normal" text-anchor="start" style="mix-blend-mode: normal"><tspan x="0" dy="0">Mustard</tspan></text></g></g></svg>