<svg version="1.1" xmlns="http://www.w3.org/2000/svg" xmlns:xlink="http://www.w3.org/1999/xlink" width="220.77769" height="284.20683" viewBox="0,0,220.77769,284.20683"><g transform="translate(-198.55486,-38.42171)"><g data-paper-data="{&quot;isPaintingLayer&quot;:true}" fill-rule="nonzero" stroke-linejoin="miter" stroke-miterlimit="10" stroke-dasharray="" stroke-dashoffset="0" style="mix-blend-mode: normal"><path d="M267.49517,163.62788l-66.59743,-87.04213l81.73363,14.01868" fill="#d9d97d" stroke="#000000" stroke-width="2" stroke-linecap="round"/><path d="M346.26003,82.77829l71.38744,-42.19884l-31.24528,105.04894" data-paper-data="{&quot;index&quot;:null}" fill="#d9d97d" stroke="#000000" stroke-width="2" stroke-linecap="round"/><path d="M294.76928,190.31765l-33.82276,4.00272l12.18001,-22.82743l-33.65793,-0.76705l23.16005,-16.32145" fill="#d9d97d" stroke="#000000" stroke-width="2" stroke-linecap="round"/><path d="M293.04416,187.36274l-30.95626,5.42611l10.52609,-23.4404l-31.62461,0.94506l3.85192,-3.34126l27.74786,2.4297l-8.39788,18.74355z" fill="#b6b14b" stroke="none" stroke-width="0" stroke-linecap="round"/><path d="M381.21745,155.08919l23.96753,15.11079l-33.57415,2.4942l13.33603,22.17194l-33.98365,-2.26081" data-paper-data="{&quot;index&quot;:null}" fill="#d9d97d" stroke="#000000" stroke-width="2" stroke-linecap="round"/><path d="M382.60019,189.74967l-9.96958,-17.95696l27.43854,-4.79306l4.12346,2.99971l-31.58962,1.7621l12.49155,22.45466l-31.30683,-2.75969z" data-paper-data="{&quot;index&quot;:null}" fill="#b6b14b" stroke="none" stroke-width="0" stroke-linecap="round"/><path d="M286.35186,321.62853l15.14285,-131.8421l37.78325,-0.15789l13.57389,132z" fill="#d9d97d" stroke="#000000" stroke-width="2" stroke-linecap="butt"/><path d="M299.88496,217.65831l3.12142,-26.32765l35.83075,-0.14203l2.76735,26.1059c0,0 -7.51543,4.19603 -21.55904,4.50964c-12.48458,0.27879 -20.16049,-4.14586 -20.16049,-4.14586z" fill="#b6b14b" stroke="#000000" stroke-width="0" stroke-linecap="butt"/><path d="M258.69453,144.1484c-3.21367,-33.14643 22.80682,-62.79228 58.11837,-66.21585c35.31155,-3.42359 66.54241,20.67153 69.75607,53.81797c3.21367,33.14643 -22.80681,62.79228 -58.11836,66.21586c-35.31155,3.42358 -66.54241,-20.67154 -69.75607,-53.81798z" fill="#d9d97d" stroke="#000000" stroke-width="2" stroke-linecap="butt"/><path d="M330.28429,195.35961c22.58008,-2.86803 37.44359,-15.77506 36.57868,-14.95188c-9.44642,8.99069 -21.92497,15.31992 -36.14982,17.37953c-14.08759,2.03973 -27.7205,-0.42197 -39.25801,-6.24145c-0.4378,-0.22082 16.24907,6.68186 38.82916,3.81381z" fill="#b6b14b" stroke="#000000" stroke-width="0" stroke-linecap="butt"/><path d="M272.28468,143.10772c-1.25142,-12.90749 8.19767,-24.38555 21.10516,-25.63697c12.90749,-1.25142 24.38555,8.19766 25.63698,21.10515c1.25142,12.90749 -8.19766,24.38555 -21.10516,25.63699c-12.90749,1.25142 -24.38556,-8.19767 -25.63697,-21.10517z" fill="#c5c556" stroke="#000000" stroke-width="2" stroke-linecap="butt"/><path d="M342.74268,170.10765c0,0 -12.6111,23.60346 -21.20968,23.83446c-8.59857,0.23101 -22.81117,-22.65177 -22.81117,-22.65177z" fill="#000000" stroke="#000000" stroke-width="2" stroke-linecap="round"/><path d="M351.92686,158.97689c-12.90749,1.25142 -24.38554,-8.19768 -25.63696,-21.10517c-1.25142,-12.90749 8.19766,-24.38555 21.10515,-25.63697c12.90749,-1.25142 24.38555,8.19765 25.63699,21.10515c1.25142,12.90749 -8.19767,24.38556 -21.10517,25.63698z" data-paper-data="{&quot;index&quot;:null}" fill="#ffffff" stroke="#000000" stroke-width="2" stroke-linecap="butt"/><path d="M269.64403,131.89381l3.90875,2.10753" fill="none" stroke="#000000" stroke-width="2" stroke-linecap="round"/><path d="M376.36729,129.09831l-3.85229,3.78943" fill="none" stroke="#000000" stroke-width="2" stroke-linecap="round"/><path d="M282.08334,113.21415c0,0 6.1788,-5.79252 11.12806,-7.47229c4.94926,-1.67978 12.34405,-0.49414 12.34405,-0.49414c0,0 -8.00642,0.71568 -11.82858,2.01293c-3.9943,1.35568 -11.64354,5.95351 -11.64354,5.95351z" fill="#000000" stroke="none" stroke-width="0" stroke-linecap="butt"/><path d="M345.25607,102.26471c-4.00017,-0.53884 -11.99496,0.29684 -11.99496,0.29684c0,0 7.02929,-2.58409 12.20907,-1.88637c5.17977,0.69774 12.35624,5.19539 12.35624,5.19539c0,0 -8.39003,-3.04277 -12.57036,-3.60588z" data-paper-data="{&quot;index&quot;:null}" fill="#000000" stroke="none" stroke-width="0" stroke-linecap="butt"/><path d="M364.20591,138.17784c-0.74544,8.26612 -8.05073,14.36282 -16.31683,13.61737c-8.2661,-0.74544 -14.3628,-8.05076 -13.61736,-16.31685c0.74544,-8.26612 8.05075,-14.36281 16.31684,-13.61737c8.2661,0.74544 14.36279,8.05075 13.61735,16.31684z" data-paper-data="{&quot;index&quot;:null}" fill="none" stroke="#000000" stroke-width="5" stroke-linecap="butt"/><path d="M327.73221,142.93693c-4.62907,-12.11367 1.43841,-25.68633 13.55208,-30.31539c12.11367,-4.62907 25.68634,1.4384 30.3154,13.55207c0.10925,0.28589 -15.66807,-4.21176 -26.73534,-0.06555c-10.92047,4.09121 -17.13214,16.82888 -17.13214,16.82888z" data-paper-data="{&quot;index&quot;:null}" fill="#c5c556" stroke="#000000" stroke-width="2" stroke-linecap="butt"/></g></g></svg>