<svg version="1.1" xmlns="http://www.w3.org/2000/svg" xmlns:xlink="http://www.w3.org/1999/xlink" width="187.69455" height="289.0286" viewBox="0,0,187.69455,289.0286"><defs><linearGradient x1="287.8215" y1="21.47949" x2="297.83478" y2="53.746" gradientUnits="userSpaceOnUse" id="color-1"><stop offset="0" stop-color="#c4c456"/><stop offset="1" stop-color="#e3e364"/></linearGradient></defs><g transform="translate(-218.97814,-17.48578)"><g data-paper-data="{&quot;isPaintingLayer&quot;:true}" fill-rule="nonzero" stroke-linejoin="miter" stroke-miterlimit="10" stroke-dasharray="" stroke-dashoffset="0" style="mix-blend-mode: normal"><path d="M286.4263,305.51437l15.14285,-124.85978l37.78325,-0.14953l13.57389,125.00932z" fill="#c6c657" stroke="#000000" stroke-width="2" stroke-linecap="butt"/><path d="M299.03839,211.99014l3.12142,-24.93334l35.83075,-0.13451l2.76735,24.72334c0,0 -7.51543,3.97381 -21.55904,4.27081c-12.48458,0.26403 -20.16049,-3.9263 -20.16049,-3.9263z" fill="#9e9e45" stroke="#000000" stroke-width="0" stroke-linecap="butt"/><path d="M255.83617,164.6921c-6.09596,-31.0053 17.23623,-61.1258 52.1139,-67.27603c34.87768,-6.15023 68.09338,13.9988 74.18934,45.00409c6.09596,31.0053 -17.23623,61.1258 -52.1139,67.27603c-34.87768,6.15023 -68.09338,-13.9988 -74.18934,-45.00409z" fill="#c6c657" stroke="#000000" stroke-width="2" stroke-linecap="butt"/><path d="M256.55687,164.61689c-0.13326,-0.67779 15.35483,51.16048 72.7118,42.024c54.80219,-8.72951 51.83197,-64.96715 52.01848,-64.01857c6.00498,30.54252 -17.04886,60.22579 -51.49217,66.29941c-34.44331,6.07362 -67.23314,-13.76233 -73.23811,-44.30484z" fill="#9e9e45" stroke="#000000" stroke-width="0" stroke-linecap="butt"/><path d="M269.23606,162.74293c-2.37381,-12.0737 6.03685,-23.68383 18.78573,-25.93193c12.74888,-2.24809 25.00826,5.71714 27.38208,17.79084c2.37381,12.0737 -6.03685,23.68383 -18.78573,25.93193c-12.74888,2.24809 -25.00826,-5.71714 -27.38208,-17.79084z" fill="#c6c657" stroke="#000000" stroke-width="2" stroke-linecap="butt"/><path d="M333.27851,194.76359h-25.10959" fill="none" stroke="#000000" stroke-width="2" stroke-linecap="round"/><path d="M349.95977,171.12766c-12.74888,2.24809 -25.00826,-5.71714 -27.38208,-17.79084c-2.37381,-12.0737 6.03685,-23.68383 18.78573,-25.93193c12.74888,-2.24809 25.00826,5.71714 27.38208,17.79084c2.37381,12.0737 -6.03685,23.68383 -18.78573,25.93193z" data-paper-data="{&quot;index&quot;:null}" fill="#c6c657" stroke="#000000" stroke-width="2" stroke-linecap="butt"/><path d="M275.83762,130.93718c0,0 5.64936,-5.97579 10.43302,-7.96984c4.78367,-1.99406 12.25375,-1.48707 12.25375,-1.48707c0,0 -7.91333,1.33735 -11.6076,2.8773c-3.86066,1.60931 -11.07917,6.57962 -11.07917,6.57962z" fill="#000000" stroke="none" stroke-width="0" stroke-linecap="butt"/><path d="M337.81277,115.38273c-4.03194,-0.17753 -11.92322,1.27206 -11.92322,1.27206c0,0 6.77679,-3.01923 11.9977,-2.78936c5.22091,0.22988 12.76273,3.87958 12.76273,3.87958c0,0 -8.62369,-2.17675 -12.83722,-2.36228z" data-paper-data="{&quot;index&quot;:null}" fill="#000000" stroke="none" stroke-width="0" stroke-linecap="butt"/><path d="M255.87426,149.68759c3.26451,-24.49969 24.08011,-45.60091 52.63405,-50.63602c28.97284,-5.10899 56.79885,7.93012 68.88474,30.26486c0.87766,1.62191 5.99029,20.20637 -58.55182,31.3443c-60.23759,10.39509 -62.96697,-10.97313 -62.96697,-10.97313z" fill-opacity="0.20156" fill="#000000" stroke="#000000" stroke-width="0" stroke-linecap="butt"/><path d="M405.45693,95.88894c1.88714,9.59837 -38.10388,24.70104 -89.32243,33.73277c-51.21856,9.03173 -94.26923,8.57237 -96.15636,-1.026c-1.88714,-9.59837 37.18862,-29.35622 88.40718,-38.38796c51.21856,-9.03173 95.18449,-3.91719 97.07162,5.68118z" fill="#c6c657" stroke="#000000" stroke-width="2" stroke-linecap="butt"/><path d="M309.65842,91.30276c7.09011,-1.25024 13.78309,-2.06598 19.52884,-2.44725c0.67519,-0.0448 -13.90065,12.3748 -13.90065,12.3748l-5.94772,1.19185z" data-paper-data="{&quot;index&quot;:null}" fill="#ffffff" stroke="#000000" stroke-width="0" stroke-linecap="butt"/><path d="M315.33273,128.13061c-17.16515,3.02684 -33.36887,5.00175 -47.27931,5.9248c-1.63464,0.10846 33.65347,-29.95939 33.65347,-29.95939l14.39945,-2.88545z" fill="#ffffff" stroke="#000000" stroke-width="0" stroke-linecap="butt"/><path d="M302.24495,103.0722l-4.51844,-37.78172c0,0 -0.48284,-6.4572 -4.12435,-4.38321c-2.92384,1.66525 -9.728,7.03113 -9.728,7.03113c0,0 2.55298,-7.47914 7.00625,-10.82455c3.57061,-2.68233 9.48846,0.80456 9.48846,0.80456c0,0 3.88853,-4.69555 7.23811,-3.45962c4.4022,1.62432 8.98912,7.89117 8.98912,7.89117c0,0 -6.50167,-2.13587 -9.34426,-2.92457c-3.13582,-0.87005 -2.3967,4.40778 -2.3967,4.40778l10.41592,36.94207c0,0 -2.11685,1.81825 -6.31906,2.39871c-3.63245,0.50174 -6.70707,-0.10173 -6.70707,-0.10173z" fill="#c6c657" stroke="#000000" stroke-width="2" stroke-linecap="butt"/><path d="M291.85066,55.41156l-3.93263,-33.95894l15.90087,30.62781c0,0 -2.54965,0.70965 -4.15028,1.15515c-2.19685,0.61146 -7.81796,2.17599 -7.81796,2.17599z" fill="url(#color-1)" stroke="#89893c" stroke-width="1.5" stroke-linecap="butt"/><g stroke="#89893c" stroke-width="1.4"><path d="M283.027,61.44233l-1.8438,-5.94144l30.98232,-8.62333l1.8438,5.94144z" fill="#c4c456" stroke-linecap="butt"/><g><path d="M281.41484,71.93468c0,0 -2.61088,-2.5042 -3.01196,-4.63746c-0.67194,-3.57389 -0.19746,-5.70454 -0.19746,-5.70454l41.40627,-11.52464c0,0 2.33202,1.95731 3.06465,4.80721c0.80826,3.1442 0.14479,5.53478 0.14479,5.53478z" fill="#c4c456" stroke-linecap="butt"/><path d="M287.19791,69.81439c0,0 -1.95676,-2.9266 -2.46859,-4.57592c-0.47877,-1.5428 -0.50986,-5.02178 -0.50986,-5.02178" fill="none" stroke-linecap="round"/><path d="M314.5431,52.17392c0,0 1.80684,3.24954 2.27796,4.827c0.41662,1.39496 0.40541,4.15771 0.40541,4.15771" fill="none" stroke-linecap="round"/><path d="M297.41189,66.57432c0,0 -1.54026,-2.16485 -1.97725,-3.52058c-0.49554,-1.53741 -0.84244,-5.22758 -0.84244,-5.22758" fill="none" stroke-linecap="round"/><path d="M304.8515,55.06999c0,0 1.78428,3.04653 2.2472,4.53823c0.44402,1.43078 0.47596,4.23681 0.47596,4.23681" fill="none" stroke-linecap="round"/></g></g><path d="M292.96645,261.22365l1.99382,-14.6945h50.12658l2.27865,15.234z" fill="#d3d35d" stroke="none" stroke-width="0" stroke-linecap="butt"/><text transform="translate(296.57704,256.80313) scale(0.28152,0.26661)" font-size="40" xml:space="preserve" fill="#85853a" fill-rule="nonzero" stroke="none" stroke-width="1" stroke-linecap="butt" stroke-linejoin="miter" stroke-miterlimit="10" stroke-dasharray="" stroke-dashoffset="0" font-family="Sans Serif" font-weight="normal" text-anchor="start" style="mix-blend-mode: normal"><tspan x="0" dy="0">Mustard</tspan></text></g></g></svg>