<svg version="1.1" xmlns="http://www.w3.org/2000/svg" xmlns:xlink="http://www.w3.org/1999/xlink" width="203.09153" height="264.55235" viewBox="0,0,203.09153,264.55235"><g transform="translate(-207.92631,-58.07618)"><g data-paper-data="{&quot;isPaintingLayer&quot;:true}" fill-rule="nonzero" stroke-linejoin="miter" stroke-miterlimit="10" stroke-dasharray="" stroke-dashoffset="0" style="mix-blend-mode: normal"><path d="M248.48031,165.39562l-38.71812,-102.53028l74.23702,36.95637" fill="#d9d97d" stroke="#000000" stroke-width="2" stroke-linecap="round"/><path d="M335.83253,98.7489l73.39514,-38.60133l-36.42396,103.36753" data-paper-data="{&quot;index&quot;:null}" fill="#d9d97d" stroke="#000000" stroke-width="2" stroke-linecap="round"/><path d="M273.75729,202.32582l-34,-2l16,-20.33333l-33,-6.66667l25.66667,-12" fill="#d9d97d" stroke="#000000" stroke-width="2" stroke-linecap="round"/><path d="M273.09061,201.49249l-31.37398,-1.84553l15.63923,-20.38787l-30.99288,-6.3601l4.51761,-2.36484l26.44339,8.75181l-12.48699,16.30706z" fill="#b6b14b" stroke="none" stroke-width="0" stroke-linecap="round"/><path d="M374.09062,161.32582l25.66667,12l-33,6.66667l16,20.33333l-34,2" data-paper-data="{&quot;index&quot;:null}" fill="#d9d97d" stroke="#000000" stroke-width="2" stroke-linecap="round"/><path d="M377.78327,195.59302l-12.48699,-16.30706l26.44338,-8.75181l4.51761,2.36484l-30.99288,6.3601l15.63923,20.38787l-31.37399,1.84553z" data-paper-data="{&quot;index&quot;:null}" fill="#b6b14b" stroke="none" stroke-width="0" stroke-linecap="round"/><path d="M286.35186,321.62852l8.14868,-129.51071l35.45186,-0.15789l22.89946,129.66861z" fill="#d9d97d" stroke="#000000" stroke-width="2" stroke-linecap="butt"/><path d="M292.89079,221.73824l3.12142,-26.32765l35.83075,-0.14203l2.76735,26.1059c0,0 -7.51543,4.19603 -21.55904,4.50964c-12.48458,0.27879 -20.16049,-4.14586 -20.16049,-4.14586z" fill="#b6b14b" stroke="#000000" stroke-width="0" stroke-linecap="butt"/><path d="M246.62213,154.6256c0,-33.30185 28.7599,-60.29833 64.23702,-60.29833c35.47713,0 64.23702,26.99648 64.23702,60.29833c0,33.30185 -28.75989,60.29834 -64.23702,60.29834c-35.47712,0 -64.23702,-26.99649 -64.23702,-60.29834z" fill="#d9d97d" stroke="#000000" stroke-width="2" stroke-linecap="butt"/><path d="M318.89112,209.70862c22.56486,-2.98543 37.36105,-15.9696 36.50042,-15.14193c-9.39954,9.03969 -21.845,15.43374 -36.05894,17.5673c-14.07679,2.11298 -27.72233,-0.27781 -39.28995,-6.03719c-0.43894,-0.21855 16.28361,6.59726 38.84847,3.61182z" fill="#b6b14b" stroke="#000000" stroke-width="0" stroke-linecap="butt"/><path d="M260.24927,154.90123c0,-12.96801 10.51265,-23.48065 23.48066,-23.48065c12.96801,0 23.48065,10.51264 23.48065,23.48065c0,12.96801 -10.51264,23.48066 -23.48065,23.48066c-12.96801,0 -23.48066,-10.51265 -23.48066,-23.48066z" fill="#ffffff" stroke="#000000" stroke-width="2" stroke-linecap="butt"/><path d="M263.56904,158.70554c0,-8.29964 6.72818,-15.02784 15.02783,-15.02784c8.29964,0 15.02784,6.72819 15.02784,15.02785c0,8.29964 -6.72819,15.02785 -15.02784,15.02785c-8.29964,0 -15.02783,-6.72819 -15.02783,-15.02785z" fill="none" stroke="#000000" stroke-width="5" stroke-linecap="butt"/><path d="M341.96963,193.46048c0,0 -12.88048,12.59393 -22.22827,13.55771c-9.3478,0.96378 -25.62829,-8.62357 -25.62829,-8.62357z" fill="#000000" stroke="#000000" stroke-width="2" stroke-linecap="round"/><path d="M260.24927,154.56789c0,-12.96801 10.51265,-23.48065 23.48066,-23.48065c12.96801,0 23.48065,10.51264 23.48065,23.48065c0,0 -7.7034,-17.89008 -23.92315,-17.77952c-15.92464,0.10855 -23.03816,18.38756 -23.03816,17.77952z" fill="#c5c556" stroke="#000000" stroke-width="2" stroke-linecap="butt"/><path d="M338.57122,180.71328c-12.96801,0 -23.48065,-10.51265 -23.48065,-23.48066c0,-12.96801 10.51264,-23.48065 23.48065,-23.48065c12.96801,0 23.48066,10.51264 23.48066,23.48065c0,12.96801 -10.51265,23.48066 -23.48066,23.48066z" data-paper-data="{&quot;index&quot;:null}" fill="#ffffff" stroke="#000000" stroke-width="2" stroke-linecap="butt"/><path d="M347.658,161.03693c0,8.29966 -6.72818,15.02785 -15.02783,15.02785c-8.29964,0 -15.02784,-6.72821 -15.02784,-15.02785c0,-8.29966 6.7282,-15.02785 15.02784,-15.02785c8.29964,0 15.02783,6.7282 15.02783,15.02784z" data-paper-data="{&quot;index&quot;:null}" fill="none" stroke="#000000" stroke-width="5" stroke-linecap="butt"/><path d="M337.84802,136.53886c-16.21975,-0.11056 -23.3403,18.36238 -23.3403,18.36238c0,-12.96801 10.51264,-23.48065 23.48065,-23.48065c12.96801,0 23.48066,10.51264 23.48066,23.48065c0,0.60804 -7.69637,-18.25383 -23.62101,-18.36238z" data-paper-data="{&quot;index&quot;:null}" fill="#c5c556" stroke="#000000" stroke-width="2" stroke-linecap="butt"/><path d="M260.19804,154.60129l-3.6,-2.6" fill="none" stroke="#000000" stroke-width="2" stroke-linecap="round"/><path d="M365.19804,151.00129l-4.2,3.4" fill="none" stroke="#000000" stroke-width="2" stroke-linecap="round"/><path d="M272.88696,126.09276c0,0 6.70895,-5.16922 11.79721,-6.36355c5.08827,-1.19433 12.33413,0.69937 12.33413,0.69937c0,0 -8.03812,-0.06028 -11.96762,0.86207c-4.10648,0.96389 -12.16372,4.80211 -12.16372,4.80211z" fill="#000000" stroke="none" stroke-width="0" stroke-linecap="butt"/><path d="M336.8215,121.29066c-3.9295,-0.92235 -11.96762,-0.86207 -11.96762,-0.86207c0,0 7.24586,-1.8937 12.33413,-0.69937c5.08826,1.19433 11.79721,6.36355 11.79721,6.36355c0,0 -8.05724,-3.83822 -12.16372,-4.80211z" data-paper-data="{&quot;index&quot;:null}" fill="#000000" stroke="none" stroke-width="0" stroke-linecap="butt"/></g></g></svg>