<svg version="1.1" xmlns="http://www.w3.org/2000/svg" xmlns:xlink="http://www.w3.org/1999/xlink" width="669.42218" height="369.35592" viewBox="0,0,669.42218,369.35592"><defs><linearGradient x1="576.12645" y1="256.57134" x2="500.06399" y2="287.42451" gradientUnits="userSpaceOnUse" id="color-1"><stop offset="0" stop-color="#b8b851"/><stop offset="1" stop-color="#ffff65"/></linearGradient></defs><g transform="translate(17.00064,25.14161)"><g data-paper-data="{&quot;isPaintingLayer&quot;:true}" fill-rule="nonzero" stroke-linejoin="miter" stroke-miterlimit="10" stroke-dasharray="" stroke-dashoffset="0" style="mix-blend-mode: normal"><g data-paper-data="{&quot;index&quot;:null}"><path d="M70.63464,153.72878l-13.17268,25.00225l5.2159,-27.1758z" fill="#d9db56" stroke="#000000" stroke-width="0.5" stroke-linecap="butt"/><path d="M74.17044,157.36066l-2.10416,6.12898l-15.61904,-5.36223l2.10414,-6.12899z" fill="#d9db56" stroke="#000000" stroke-width="1" stroke-linecap="butt"/><path d="M90.82449,121.69655l-12.97581,38.0173l-24.33108,-8.30451l12.97581,-38.0173z" fill="#d9db56" stroke="#000000" stroke-width="1" stroke-linecap="butt"/><path d="M86.01349,136.36566l-3.36798,8.70157c0,0 -6.99669,-4.92613 -11.08687,-6.26782c-3.83439,-1.25779 -12.7365,-1.5468 -12.7365,-1.5468l3.36798,-8.70157c0,0 9.0783,-0.75249 12.87568,0.49312c4.11778,1.35072 10.9477,7.32147 10.9477,7.32147z" fill="#000000" stroke="none" stroke-width="0" stroke-linecap="butt"/><path d="M67.95861,160.85733l1.13717,-3.95738" fill="none" stroke="#000000" stroke-width="0.5" stroke-linecap="round"/><path d="M63.18854,155.40123l-0.90129,4.1356" fill="none" stroke="#000000" stroke-width="0.5" stroke-linecap="round"/></g><g><path d="M289.38622,138.42102l12.80764,25.19121l-19.17647,-19.94975z" fill="#d9db56" stroke="#000000" stroke-width="0.5" stroke-linecap="butt"/><path d="M294.39308,137.6312l3.78916,5.25681l-13.39642,9.65627l-3.78918,-5.25681z" fill="#d9db56" stroke="#000000" stroke-width="1" stroke-linecap="butt"/><path d="M274.89051,103.44148l23.54764,32.54528l-20.82897,15.0705l-23.54764,-32.54528z" fill="#d9db56" stroke="#000000" stroke-width="1" stroke-linecap="butt"/><path d="M284.0895,115.83936l5.15987,7.77408c0,0 -8.06187,2.86823 -11.51896,5.43304c-3.2409,2.4044 -8.61689,9.5058 -8.61689,9.5058l-5.15987,-7.77408c0,0 4.62738,-7.8466 7.83696,-10.22782c3.4804,-2.58212 12.29887,-4.71105 12.29887,-4.71105z" fill="#000000" stroke="none" stroke-width="0" stroke-linecap="butt"/><path d="M293.6613,144.72191l-2.57447,-3.21344" fill="none" stroke="#000000" stroke-width="0.5" stroke-linecap="round"/><path d="M286.45237,145.46617l2.85617,3.12374" fill="none" stroke="#000000" stroke-width="0.5" stroke-linecap="round"/></g><path d="M90.29373,90.37764c0,-57.26978 46.56315,-103.69611 104.00169,-103.69611c57.43854,0 104.00169,46.42633 104.00169,103.69611c0,57.26978 -46.56315,103.69612 -104.00169,103.69612c-57.43854,0 -104.00169,-46.42634 -104.00169,-103.69612z" fill="#7f7f38" stroke="#000000" stroke-width="2" stroke-linecap="butt"/><path d="M175.83788,98.79858c0,-34.425 31.4458,-62.33199 70.23615,-62.33199c38.79035,0 70.23615,27.90699 70.23615,62.33199c0,34.42501 -31.4458,62.332 -70.23615,62.332c-38.79035,0 -70.23615,-27.90699 -70.23615,-62.33199z" fill="#00800b" stroke="#000000" stroke-width="2" stroke-linecap="butt"/><path d="M175.83788,98.79858c0,-34.425 31.4458,-62.33199 70.23615,-62.33199c38.79035,0 70.23615,27.90699 70.23615,62.33199c0,34.42501 -31.4458,62.332 -70.23615,62.332c-38.79035,0 -70.23615,-27.90699 -70.23615,-62.33199z" fill="#9d9d45" stroke="#000000" stroke-width="2" stroke-linecap="butt"/><path d="M75.83626,100.1701c0,-34.425 31.4458,-62.33199 70.23615,-62.33199c38.79035,0 70.23616,27.90698 70.23616,62.33199c0,34.42501 -31.4458,62.332 -70.23616,62.332c-38.79035,0 -70.23615,-27.90699 -70.23615,-62.33199z" fill="#9d9d45" stroke="#000000" stroke-width="2" stroke-linecap="butt"/><path d="M140.97144,336.1594c0,0 8.11115,-56.11967 12.21205,-97.07676c4.16222,-41.56957 1.73131,-151.4194 1.73131,-151.4194l80.45702,0.59238c0,0 -1.99672,104.72257 2.02665,149.60362c3.1885,35.56807 12.44761,98.30017 12.44761,98.30017z" fill="#4f4f23" stroke="#000000" stroke-width="2" stroke-linecap="butt"/><path d="M155.00336,185.05109c0.53932,-41.81047 -0.53485,-87.90621 -0.53485,-87.90621l78.25851,0.54718c0,0 -0.92927,46.28304 -0.20701,88.54023c0,0 -14.83425,11.68448 -39.11811,11.57484c-23.17581,-0.10464 -38.39853,-12.75604 -38.39853,-12.75604z" fill="#363618" stroke="#000000" stroke-width="0" stroke-linecap="butt"/><path d="M194.34459,227.24396c-5.7311,0 -10.88259,-17.16976 -10.88259,-17.16976h22.32c0,0 -5.70631,17.16976 -11.43741,17.16976z" fill="#000000" stroke="#000000" stroke-width="2" stroke-linecap="round"/><path d="M167.86844,192.60153c0,-6.43526 5.2168,-11.65206 11.65206,-11.65206c6.43526,0 11.65206,5.21681 11.65206,11.65206c0,6.43526 -5.2168,11.65206 -11.65206,11.65206c-6.43526,0 -11.65206,-5.21681 -11.65206,-11.65206z" fill="#000000" stroke="none" stroke-width="0" stroke-linecap="butt"/><path d="M210.50255,204.25359c-6.43525,0 -11.65206,-5.21681 -11.65206,-11.65206c0,-6.43526 5.21681,-11.65206 11.65206,-11.65206c6.43526,0 11.65206,5.21681 11.65206,11.65206c0,6.43526 -5.2168,11.65206 -11.65206,11.65206z" data-paper-data="{&quot;index&quot;:null}" fill="#000000" stroke="none" stroke-width="0" stroke-linecap="butt"/><path d="M75.16346,65.56067c0,-49.54119 53.33718,-89.70228 119.13196,-89.70228c65.79476,0 119.13196,40.16108 119.13196,89.70228c0,49.5412 -53.33719,89.70228 -119.13196,89.70228c-65.79476,0 -119.13195,-40.16108 -119.13195,-89.70228z" fill="#c5c556" stroke="#000000" stroke-width="2" stroke-linecap="butt"/><g><path d="M275.1675,61.28914l28.21989,-1.50675l-26.00721,9.45275z" fill="#d9db56" stroke="#000000" stroke-width="0.5" stroke-linecap="butt"/><path d="M276.4733,56.39146l6.34105,-1.33526l3.40275,16.15949l-6.34105,1.33527z" fill="#d9db56" stroke="#000000" stroke-width="1" stroke-linecap="butt"/><path d="M237.31439,60.37469l39.2938,-8.34771l5.34255,25.14803l-39.2938,8.34771z" fill="#d9db56" stroke="#000000" stroke-width="1" stroke-linecap="butt"/><path d="M252.37569,56.9856l9.19778,-1.56891c0,0 -0.6429,8.53272 0.30187,12.73237c0.88568,3.93703 5.20104,11.72861 5.20104,11.72861l-9.19778,1.56891c0,0 -5.29991,-7.40896 -6.17708,-11.30796c-0.95116,-4.22799 0.67414,-13.153 0.67414,-13.153z" fill="#000000" stroke="none" stroke-width="0" stroke-linecap="butt"/><path d="M282.65996,59.93251l-3.98079,1.05229" fill="none" stroke="#000000" stroke-width="0.5" stroke-linecap="round"/><path d="M280.42057,66.82509l4.01289,-1.34618" fill="none" stroke="#000000" stroke-width="0.5" stroke-linecap="round"/></g><g data-paper-data="{&quot;index&quot;:null}"><path d="M112.70034,94.28026l-25.39542,12.39778l20.25785,-18.85071z" fill="#d9db56" stroke="#000000" stroke-width="0.5" stroke-linecap="butt"/><path d="M113.40893,99.29925l-5.31752,3.70349l-9.43795,-13.55112l5.31751,-3.70351z" fill="#d9db56" stroke="#000000" stroke-width="1" stroke-linecap="butt"/><path d="M147.91016,80.35322l-32.92255,23.01723l-14.73104,-21.07042l32.92255,-23.01723z" fill="#d9db56" stroke="#000000" stroke-width="1" stroke-linecap="butt"/><path d="M135.36486,89.35011l-7.85667,5.03323c0,0 -2.73723,-8.10729 -5.24569,-11.60548c-2.35158,-3.27943 -9.36493,-8.76978 -9.36493,-8.76978l7.85667,-5.03323c0,0 7.7706,4.75391 10.0995,8.00165c2.52539,3.52179 4.51115,12.37358 4.51115,12.37358z" fill="#000000" stroke="none" stroke-width="0" stroke-linecap="butt"/><path d="M109.58574,95.93063l-3.25473,2.52206" fill="none" stroke="#000000" stroke-width="0.5" stroke-linecap="round"/><path d="M102.53405,94.03783l3.16961,-2.80518" fill="none" stroke="#000000" stroke-width="0.5" stroke-linecap="round"/></g><g><path d="M161.96943,6.71026l6.3067,-27.54738l1.94143,27.60363z" fill="#d9db56" stroke="#000000" stroke-width="0.5" stroke-linecap="butt"/><path d="M157.61919,4.10875l0.45882,-6.46385l16.47242,1.16925l-0.4588,6.46385z" fill="#d9db56" stroke="#000000" stroke-width="1" stroke-linecap="butt"/><path d="M150.68734,42.85453l2.77251,-40.07493l25.64796,1.77438l-2.77251,40.07493z" fill="#d9db56" stroke="#000000" stroke-width="1" stroke-linecap="butt"/><path d="M151.56791,27.44177l1.01924,-9.27479c0,0 8.02748,2.96312 12.32507,3.20888c4.02884,0.2304 12.70636,-1.7775 12.70636,-1.7775l-1.01924,9.27479c0,0 -8.58021,3.0597 -12.57014,2.83156c-4.32659,-0.24741 -12.46128,-4.26291 -12.46128,-4.26291z" fill="#000000" stroke="none" stroke-width="0" stroke-linecap="butt"/><path d="M162.64188,3.25016l0.08224,-4.11671" fill="none" stroke="#000000" stroke-width="0.5" stroke-linecap="round"/><path d="M168.73587,3.18085l-0.19152,-4.22834" fill="none" stroke="#000000" stroke-width="0.5" stroke-linecap="round"/></g><g><path d="M218.85374,100.73745l5.83737,27.65064l-13.3475,-24.23993z" fill="#d9db56" stroke="#000000" stroke-width="0.5" stroke-linecap="butt"/><path d="M223.89415,101.27294l2.29645,6.05956l-15.44212,5.85224l-2.29646,-6.05955z" fill="#d9db56" stroke="#000000" stroke-width="1" stroke-linecap="butt"/><path d="M213.9242,63.19556l14.30309,37.53809l-24.02438,9.15399l-14.30309,-37.53809z" fill="#d9db56" stroke="#000000" stroke-width="1" stroke-linecap="butt"/><path d="M219.59372,77.55471l2.96753,8.84615c0,0 -8.52986,0.67965 -12.53377,2.26029c-3.75352,1.48178 -10.78705,6.94626 -10.78705,6.94626l-2.96753,-8.84615c0,0 6.50376,-6.37832 10.22102,-7.84583c4.03092,-1.59132 13.09979,-1.36076 13.09979,-1.36076z" fill="#000000" stroke="none" stroke-width="0" stroke-linecap="butt"/><path d="M221.34876,107.93136l-1.65315,-3.77109" fill="none" stroke="#000000" stroke-width="0.5" stroke-linecap="round"/><path d="M214.19341,106.78087l1.94848,3.75751" fill="none" stroke="#000000" stroke-width="0.5" stroke-linecap="round"/></g><path d="M-15.28091,114.87426c0,0 33.8721,-20.51614 46.9332,-32.77641c11.88872,-11.15976 28.24753,-37.79461 28.24753,-37.79461c0,0 15.02258,30.78481 27.34768,42.35419c12.72253,11.94245 47.83304,28.21683 47.83304,28.21683c0,0 -30.65706,15.40951 -42.91448,26.91537c-12.78092,11.99726 -32.26625,43.65565 -32.26625,43.65565c0,0 -15.86533,-31.18456 -28.23239,-42.79333c-12.68511,-11.90733 -46.94834,-27.77768 -46.94834,-27.77768z" fill="#d8d871" stroke="#000000" stroke-width="2" stroke-linecap="butt"/><path d="M6.73902,168.03506c0,0 9.44408,-38.4583 10.01037,-56.3632c0.51545,-16.29773 -6.75081,-46.69884 -6.75081,-46.69884c0,0 32.39072,11.14558 49.28667,10.6112c17.44078,-0.5516 53.77538,-13.87076 53.77538,-13.87076c0,0 -10.78164,32.57398 -11.31307,49.37715c-0.55413,17.52082 8.05353,53.6849 8.05353,53.6849c0,0 -33.2693,-10.83233 -50.22277,-10.29614c-17.38948,0.54998 -52.83928,13.5557 -52.83928,13.5557z" fill="#d8d871" stroke="#000000" stroke-width="2" stroke-linecap="butt"/><path d="M9.2778,114.87426c0,-26.04085 22.48921,-47.15112 50.23104,-47.15112c27.74183,0 50.23104,21.11028 50.23104,47.15112c0,26.04085 -22.48921,47.15112 -50.23104,47.15112c-27.74183,0 -50.23104,-21.11028 -50.23104,-47.15112z" fill="#ecec68" stroke="#000000" stroke-width="2" stroke-linecap="butt"/><path d="M37.53633,123.71352c0,-1.19736 43.945,-1.63149 43.945,0c0,11.39101 -9.83743,20.62526 -21.9725,20.62526c-12.13507,0 -21.9725,-9.23424 -21.9725,-20.62526z" fill="#000000" stroke="#000000" stroke-width="2" stroke-linecap="butt"/><path d="M29.54649,107.21698c0,-4.84693 3.92921,-8.77613 8.77613,-8.77613c4.84693,0 8.77614,3.92921 8.77614,8.77613c0,4.84693 -3.92921,8.77613 -8.77614,8.77613c-4.84693,0 -8.77612,-3.92921 -8.77612,-8.77613z" fill="#000000" stroke="none" stroke-width="0" stroke-linecap="butt"/><path d="M79.73415,113.21211c-4.70374,0 -8.51688,-3.81314 -8.51688,-8.51688c0,-4.70375 3.81314,-8.51688 8.51688,-8.51688c4.70374,0 8.51687,3.81314 8.51687,8.51688c0,4.70375 -3.81314,8.51689 -8.51687,8.51689z" data-paper-data="{&quot;index&quot;:null}" fill="#000000" stroke="none" stroke-width="0" stroke-linecap="butt"/><g stroke="#000000" stroke-width="2" stroke-linecap="butt"><path d="M267.55959,184.48064v-60.7014l6.35918,0.00001v60.7014z" fill="#e6de80"/><path d="M255.41931,123.77925c0,-8.46093 6.85895,-15.31988 15.31987,-15.31988c8.46093,0 15.31988,6.85895 15.31988,15.31988c0,8.46093 -6.85895,15.31988 -15.31988,15.31988c-8.46093,0 -15.31987,-6.85895 -15.31987,-15.31988z" fill="#ecec68"/></g><path d="M336.1522,194.58335c0,-10.41653 8.44426,-18.86079 18.86079,-18.86079c10.41652,0 47.47717,18.86079 47.47717,18.86079c0,0 -37.06064,18.86079 -47.47717,18.86079c-10.41653,0 -18.86079,-8.44427 -18.86079,-18.86079z" data-paper-data="{&quot;index&quot;:null}" fill="#ecec68" stroke="#000000" stroke-width="2" stroke-linecap="butt"/><g stroke="#000000" stroke-width="2" stroke-linecap="butt"><path d="M365.20617,185.25703v-60.7014l6.35919,0.00001v60.7014z" fill="#e6de80"/><path d="M353.06589,124.55564c0,-8.46093 6.85895,-15.31988 15.31987,-15.31988c8.46093,0 15.31988,6.85895 15.31988,15.31988c0,8.46093 -6.85895,15.31988 -15.31988,15.31988c-8.46093,0 -15.31987,-6.85895 -15.31987,-15.31988z" fill="#ecec68"/></g><path d="M287.84489,214.99696c-10.41652,0 -47.47717,-18.86079 -47.47717,-18.86079c0,0 37.06064,-18.86079 47.47717,-18.86079c10.41653,0 18.86079,8.44427 18.86079,18.86079c0,10.41653 -8.44426,18.86079 -18.86079,18.86079z" data-paper-data="{&quot;index&quot;:null}" fill="#ecec68" stroke="#000000" stroke-width="2" stroke-linecap="butt"/><path d="M290.60946,342.37912l13.13132,-114.32857l32.76423,-0.13692l11.77077,114.4655z" fill="#ecec68" stroke="#000000" stroke-width="2" stroke-linecap="butt"/><path d="M301.83941,252.72545l2.70678,-22.83036l31.0711,-0.12316l2.39974,22.63807c0,0 -6.5171,3.63864 -18.6952,3.91059c-10.82616,0.24176 -17.48243,-3.59514 -17.48243,-3.59514z" fill="#d0d05c" stroke="#000000" stroke-width="0" stroke-linecap="butt"/><path d="M263.80537,194.39446c0,-28.87813 24.93952,-52.28847 55.70396,-52.28847c30.76444,0 55.70396,23.41035 55.70396,52.28847c0,28.87813 -24.93952,52.28847 -55.70396,52.28847c-30.76444,0 -55.70396,-23.41035 -55.70396,-52.28847z" fill="#ecec68" stroke="#000000" stroke-width="2" stroke-linecap="butt"/><path d="M264.43238,194.44116c0,-0.63129 4.51502,48.49122 54.94384,49.3713c48.18262,0.84089 55.07662,-50.25481 55.07662,-49.3713c0,28.44709 -24.62892,51.50802 -55.01023,51.50802c-30.3813,0 -55.01023,-23.06093 -55.01023,-51.50802z" fill="#d0d05c" stroke="#000000" stroke-width="0" stroke-linecap="butt"/><path d="M277.88481,193.77371c0,-11.24537 9.11618,-20.36155 20.36155,-20.36155c11.24537,0 20.36155,9.11618 20.36155,20.36155c0,11.24537 -9.11618,20.36155 -20.36155,20.36155c-11.24537,0 -20.36155,-9.11618 -20.36155,-20.36155z" fill="#ffffff" stroke="#000000" stroke-width="2" stroke-linecap="butt"/><path d="M282.45885,193.75146c0,-7.91553 6.4168,-14.33233 14.33232,-14.33233c7.91553,0 14.33233,6.41681 14.33233,14.33233c0,7.91553 -6.41681,14.33233 -14.33233,14.33233c-7.91553,0 -14.33232,-6.41681 -14.33232,-14.33233z" fill="#000000" stroke="none" stroke-width="0" stroke-linecap="butt"/><path d="M330.38325,228.91645c0,0 -7.49803,2.60149 -11.34054,2.60149c-4.21401,0 -10.43356,-2.60149 -10.43356,-2.60149" fill="none" stroke="#000000" stroke-width="2" stroke-linecap="round"/><path d="M342.96805,214.91162c-11.24537,0 -20.36155,-9.11618 -20.36155,-20.36155c0,-11.24537 9.11618,-20.36155 20.36155,-20.36155c11.24537,0 20.36155,9.11618 20.36155,20.36155c0,11.24537 -9.11618,20.36155 -20.36155,20.36155z" data-paper-data="{&quot;index&quot;:null}" fill="#ffffff" stroke="#000000" stroke-width="2" stroke-linecap="butt"/><path d="M342.87045,208.86019c-7.91552,0 -14.33232,-6.41681 -14.33232,-14.33233c0,-7.91553 6.41681,-14.33233 14.33232,-14.33233c7.91552,0 14.33232,6.41681 14.33232,14.33233c0,7.91553 -6.41681,14.33233 -14.33232,14.33233z" data-paper-data="{&quot;index&quot;:null}" fill="#000000" stroke="none" stroke-width="0" stroke-linecap="butt"/><path d="M287.29093,169.00886c0,0 5.81775,-4.48256 10.2301,-5.51823c4.41236,-1.03568 10.6957,0.60647 10.6957,0.60647c0,0 -6.97036,-0.05227 -10.37788,0.74756c-3.56099,0.83585 -10.54793,4.16421 -10.54793,4.16421z" fill="#000000" stroke="none" stroke-width="0" stroke-linecap="butt"/><path d="M341.95616,165.62105c-3.40752,-0.79983 -10.37788,-0.74756 -10.37788,-0.74756c0,0 6.28334,-1.64215 10.6957,-0.60647c4.41235,1.03568 10.2301,5.51823 10.2301,5.51823c0,0 -6.98694,-3.32836 -10.54793,-4.16421z" data-paper-data="{&quot;index&quot;:null}" fill="#000000" stroke="none" stroke-width="0" stroke-linecap="butt"/><path d="M277.81252,194.07065c0,-11.24538 9.11618,-20.36155 20.36156,-20.36155c11.24538,0 20.36155,9.11617 20.36155,20.36155c0,0 -6.03417,-12.70076 -20.32029,-12.82429c-14.06967,-0.12165 -20.40281,13.35899 -20.40281,12.82429z" fill="#ecec68" stroke="#000000" stroke-width="2" stroke-linecap="butt"/><path d="M322.60651,194.76032c0,-11.24538 9.11617,-20.36155 20.36155,-20.36155c11.24538,0 20.36156,9.11617 20.36156,20.36155c0,0.52555 -6.82696,-12.4736 -19.87967,-12.81753c-13.05272,-0.34393 -20.84343,12.81753 -20.84343,12.81753z" data-paper-data="{&quot;index&quot;:null}" fill="#ecec68" stroke="#000000" stroke-width="2" stroke-linecap="butt"/><path d="M300.51553,151.19156l28.83316,-16.90968l-2.81828,11.92349l19.51116,-5.20298l-12.57386,13.44102" fill="#ecec68" stroke="#000000" stroke-width="2" stroke-linecap="round"/><path d="M500.05111,215.54885c-3.54582,-1.30219 -11.07442,-0.53642 -11.07442,-0.53642l-1.22561,-33.40133l18.99704,-22.55303c0,0 3.38524,2.73305 5.0475,28.54958c1.59259,24.73463 -1.83025,35.11278 -1.83025,35.11278c0,0 -6.46661,-5.90545 -9.91425,-7.17158z" data-paper-data="{&quot;index&quot;:null}" fill="#939317" stroke="#000000" stroke-width="2" stroke-linecap="butt"/><path d="M380.58439,222.72042c0,0 -3.42285,-10.37814 -1.83026,-35.11278c1.66226,-25.81653 5.04749,-28.54958 5.04749,-28.54958l18.99704,22.55303l-1.22561,33.40133c0,0 -7.5286,-0.76577 -11.07442,0.53642c-3.44764,1.26613 -9.91424,7.17158 -9.91424,7.17158z" fill="#939317" stroke="#000000" stroke-width="2" stroke-linecap="butt"/><path d="M417.23139,342.76833l12.96901,-112.91541l32.35925,-0.13522l11.62528,113.05064z" fill="#b8b851" stroke="#000000" stroke-width="2" stroke-linecap="butt"/><path d="M428.32254,254.22282l2.67332,-22.54816l30.68704,-0.12164l2.37008,22.35825c0,0 -6.43655,3.59367 -18.46412,3.86226c-10.69235,0.23877 -17.26634,-3.5507 -17.26634,-3.5507z" fill="#939317" stroke="#000000" stroke-width="0" stroke-linecap="butt"/><path d="M390.75863,196.61284c0,-28.52118 24.63125,-51.64216 55.01543,-51.64216c30.38418,0 55.01543,23.12099 55.01543,51.64216c0,28.52118 -24.63125,51.64216 -55.01543,51.64216c-30.38418,0 -55.01543,-23.12099 -55.01543,-51.64216z" fill="#b8b851" stroke="#000000" stroke-width="2" stroke-linecap="butt"/><path d="M391.37789,196.65895c0,-0.62348 4.45921,47.89184 54.2647,48.76105c47.58706,0.83049 54.39584,-49.63363 54.39584,-48.76105c0,28.09547 -24.3245,50.87136 -54.33027,50.87136c-30.00577,0 -54.33027,-22.77588 -54.33027,-50.87136z" fill="#939317" stroke="#000000" stroke-width="0" stroke-linecap="butt"/><path d="M402.36363,196.98066c0,-11.10637 9.0035,-20.10987 20.10987,-20.10987c11.10637,0 20.10987,9.0035 20.10987,20.10987c0,11.10637 -9.0035,20.10987 -20.10987,20.10987c-11.10637,0 -20.10987,-9.0035 -20.10987,-20.10987z" fill="#ffffff" stroke="#000000" stroke-width="2" stroke-linecap="butt"/><path d="M408.41474,196.74459c0,-7.81769 6.33748,-14.15517 14.15516,-14.15517c7.81769,0 14.15517,6.33749 14.15517,14.15517c0,7.81769 -6.33749,14.15517 -14.15517,14.15517c-7.81769,0 -14.15516,-6.33749 -14.15516,-14.15517z" fill="#000000" stroke="none" stroke-width="0" stroke-linecap="butt"/><path d="M456.51357,230.70811c0,0 -7.75185,2.29159 -11.44368,2.29159c-3.46166,0 -10.06129,-2.29159 -10.06129,-2.29159" fill="none" stroke="#000000" stroke-width="2" stroke-linecap="round"/><path d="M468.94282,217.09051c-11.10637,0 -20.10987,-9.0035 -20.10987,-20.10987c0,-11.10637 9.0035,-20.10987 20.10987,-20.10987c11.10637,0 20.10987,9.0035 20.10987,20.10987c0,11.10637 -9.0035,20.10987 -20.10987,20.10987z" data-paper-data="{&quot;index&quot;:null}" fill="#ffffff" stroke="#000000" stroke-width="2" stroke-linecap="butt"/><path d="M468.84641,210.89977c-7.81768,0 -14.15516,-6.33749 -14.15516,-14.15517c0,-7.81769 6.33749,-14.15517 14.15516,-14.15517c7.81768,0 14.15516,6.33749 14.15516,14.15517c0,7.81769 -6.33749,14.15517 -14.15516,14.15517z" data-paper-data="{&quot;index&quot;:null}" fill="#000000" stroke="none" stroke-width="0" stroke-linecap="butt"/><path d="M402.36363,196.98066c0,-11.10637 9.0035,-20.10987 20.10987,-20.10987c11.10637,0 20.10987,9.0035 20.10987,20.10987c0,0 -40.21974,1.05475 -40.21974,0z" fill="#939317" stroke="#000000" stroke-width="2" stroke-linecap="butt"/><path d="M448.83296,196.98066c0,-11.10637 9.0035,-20.10987 20.10987,-20.10987c11.10637,0 20.10987,9.0035 20.10987,20.10987c0,1.03955 -40.21974,0 -40.21974,0z" data-paper-data="{&quot;index&quot;:null}" fill="#939317" stroke="#000000" stroke-width="2" stroke-linecap="butt"/><path d="M413.18708,172.30781c0,0 5.74584,-4.42715 10.10365,-5.45003c4.35782,-1.02288 10.56349,0.59897 10.56349,0.59897c0,0 -6.8842,-0.05163 -10.2496,0.73831c-3.51697,0.82552 -10.41755,4.11274 -10.41755,4.11274z" fill="#000000" stroke="none" stroke-width="0" stroke-linecap="butt"/><path d="M467.94344,168.19508c-3.3654,-0.78994 -10.2496,-0.73831 -10.2496,-0.73831c0,0 6.20568,-1.62185 10.56349,-0.59897c4.35781,1.02288 10.10365,5.45003 10.10365,5.45003c0,0 -6.90058,-3.28722 -10.41755,-4.11274z" data-paper-data="{&quot;index&quot;:null}" fill="#000000" stroke="none" stroke-width="0" stroke-linecap="butt"/><path d="M414.25806,153.70535c-0.77864,-4.82526 0.0503,-55.24045 0.0503,-55.24045c0,0 16.64485,47.59546 17.4235,52.42072c0.77864,4.82526 -2.50178,9.36812 -7.32703,10.14677c-4.82526,0.77864 -9.36811,-2.50178 -10.14677,-7.32703z" fill="#939317" stroke="#000000" stroke-width="2" stroke-linecap="butt"/><path d="M467.32847,161.03238c-4.82525,-0.77865 -8.10569,-5.32151 -7.32703,-10.14676c0.77865,-4.82525 17.4235,-52.42072 17.4235,-52.42072c0,0 0.82894,50.4152 0.0503,55.24045c-0.77864,4.82525 -5.32151,8.10568 -10.14676,7.32703z" data-paper-data="{&quot;index&quot;:null}" fill="#939317" stroke="#000000" stroke-width="2" stroke-linecap="butt"/><path d="M626.74061,195.97635c2.85801,22.78443 -3.42228,31.98796 -3.42228,31.98796c0,0 -10.92473,-19.37364 -17.83881,-29.48018c-7.14797,-10.44843 -24.37068,-32.21889 -24.37068,-32.21889l28.70108,-15.20241c0,0 13.76887,19.70699 16.93069,44.91352z" data-paper-data="{&quot;index&quot;:null}" fill="#aeae47" stroke="#000000" stroke-width="2" stroke-linecap="butt"/><path d="M523.60293,151.06284l28.70108,15.20241c0,0 -17.22271,21.77045 -24.37067,32.21889c-6.91408,10.10655 -17.83881,29.48018 -17.83881,29.48018c0,0 -6.28029,-9.20352 -3.42228,-31.98796c3.16183,-25.20653 16.93069,-44.91352 16.93069,-44.91352z" data-paper-data="{&quot;index&quot;:null}" fill="#aeae47" stroke="#000000" stroke-width="2" stroke-linecap="butt"/><path d="M614.27374,237.03631c-8.1392,21.47213 -17.99695,26.66555 -17.99695,26.66555c0,0 -0.58579,-22.23386 -1.96508,-34.4012c-1.42596,-12.57895 -6.45532,-39.87876 -6.45532,-39.87876h32.47869c0,0 2.94308,23.8597 -6.06134,47.61442z" data-paper-data="{&quot;index&quot;:null}" fill="#c2c250" stroke="#000000" stroke-width="2" stroke-linecap="butt"/><path d="M511.93122,189.42189h32.47869c0,0 -5.02936,27.29982 -6.45532,39.87876c-1.3793,12.16735 -1.96509,34.4012 -1.96509,34.4012c0,0 -9.85775,-5.19342 -17.99695,-26.66555c-9.00443,-23.75472 -6.06134,-47.61442 -6.06134,-47.61442z" fill="#c2c250" stroke="#000000" stroke-width="2" stroke-linecap="butt"/><path d="M536.15665,343.2143l13.66166,-118.94607l34.08751,-0.14245l12.24617,119.08853z" fill="#ecec60" stroke="#000000" stroke-width="2" stroke-linecap="butt"/><path d="M547.84016,249.93968l2.8161,-23.75243l32.32599,-0.12814l2.49666,23.55237c0,0 -6.78031,3.7856 -19.45026,4.06853c-11.26341,0.25152 -18.18851,-3.74034 -18.18851,-3.74034z" fill="#d2d256" stroke="#000000" stroke-width="0" stroke-linecap="butt"/><path d="M508.27,189.25282c0,-30.04446 25.94677,-54.4003 57.95373,-54.4003c32.00695,0 57.95373,24.35585 57.95373,54.4003c0,30.04446 -25.94677,54.4003 -57.95373,54.4003c-32.00695,0 -57.95373,-24.35585 -57.95373,-54.4003z" fill="#ecec60" stroke="#000000" stroke-width="2" stroke-linecap="butt"/><path d="M508.92234,189.30139c0,-0.65678 4.69737,50.44968 57.16291,51.36531c50.12862,0.87485 57.30105,-52.2845 57.30105,-51.36531c0,29.59602 -25.62364,53.58833 -57.23198,53.58833c-31.60834,0 -57.23198,-23.99231 -57.23198,-53.58833z" fill="#d2d256" stroke="#000000" stroke-width="0" stroke-linecap="butt"/><path d="M520.49481,189.64028c0,-11.69955 9.48436,-21.18391 21.18391,-21.18391c11.69955,0 21.18391,9.48436 21.18391,21.18391c0,11.69955 -9.48436,21.18391 -21.18391,21.18391c-11.69955,0 -21.18391,-9.48436 -21.18391,-21.18391z" fill="#ffffff" stroke="#000000" stroke-width="2" stroke-linecap="butt"/><path d="M526.86911,189.39161c0,-8.23522 6.67596,-14.91118 14.91117,-14.91118c8.23522,0 14.91118,6.67597 14.91118,14.91118c0,8.23522 -6.67597,14.91118 -14.91118,14.91118c-8.23522,0 -14.91117,-6.67597 -14.91117,-14.91118z" fill="#000000" stroke="none" stroke-width="0" stroke-linecap="butt"/><path d="M577.53684,225.16908c0,0 -6.91599,2.69353 -10.55417,2.69353c-3.8954,0 -12.09935,-2.69353 -12.09935,-2.69353" fill="none" stroke="#000000" stroke-width="2" stroke-linecap="round"/><path d="M590.62992,210.82418c-11.69955,0 -21.18391,-9.48436 -21.18391,-21.18391c0,-11.69955 9.48436,-21.18391 21.18391,-21.18391c11.69955,0 21.18391,9.48436 21.18391,21.18391c0,11.69955 -9.48436,21.18391 -21.18391,21.18391z" data-paper-data="{&quot;index&quot;:null}" fill="#ffffff" stroke="#000000" stroke-width="2" stroke-linecap="butt"/><path d="M590.52836,204.3028c-8.23522,0 -14.91117,-6.67597 -14.91117,-14.91118c0,-8.23522 6.67597,-14.91118 14.91117,-14.91118c8.23522,0 14.91117,6.67597 14.91117,14.91118c0,8.23522 -6.67597,14.91118 -14.91117,14.91118z" data-paper-data="{&quot;index&quot;:null}" fill="#000000" stroke="none" stroke-width="0" stroke-linecap="butt"/><path d="M527.18266,169.03675c0,0 6.05272,-4.6636 10.64328,-5.7411c4.59057,-1.07751 11.12768,0.63096 11.12768,0.63096c0,0 -7.25188,-0.05438 -10.79702,0.77775c-3.70481,0.86961 -10.97394,4.3324 -10.97394,4.3324z" fill="#000000" stroke="none" stroke-width="0" stroke-linecap="butt"/><path d="M593.61743,165.71444c-3.54514,-0.83213 -10.79702,-0.77775 -10.79702,-0.77775c0,0 6.53711,-1.70847 11.12768,-0.63096c4.59056,1.07751 10.64328,5.7411 10.64328,5.7411c0,0 -7.26913,-3.46279 -10.97394,-4.3324z" data-paper-data="{&quot;index&quot;:null}" fill="#000000" stroke="none" stroke-width="0" stroke-linecap="butt"/><path d="M520.35946,189.72367c0,-11.69955 9.48436,-21.18391 21.18392,-21.18391c11.69955,0 21.18391,9.48435 21.18391,21.18391c0,0 -10.56336,-6.94046 -21.14098,-6.80139c-10.60625,0.13944 -21.22684,7.35769 -21.22684,6.80139z" fill="#d2d256" stroke="#000000" stroke-width="2" stroke-linecap="butt"/><path d="M569.446,189.63345c0,-11.69955 9.48435,-21.18391 21.18391,-21.18391c11.69955,0 21.18392,9.48435 21.18392,21.18391c0,0.54678 -10.26033,-6.66208 -20.68257,-6.79436c-10.75641,-0.13652 -21.68525,6.79436 -21.68525,6.79436z" data-paper-data="{&quot;index&quot;:null}" fill="#d2d256" stroke="#000000" stroke-width="2" stroke-linecap="butt"/><path d="M515.2676,154.89412c0,-26.50397 3.80933,-47.62957 50.37106,-47.98968c53.04079,-0.41023 50.37106,21.48572 50.37106,47.98968c0,0 -100.74213,1.09569 -100.74213,0z" fill="#c5c528" stroke="#000000" stroke-width="2" stroke-linecap="butt"/><path d="M492.93937,159.26392l3.90947,-6.91676l140.2899,0.30073l2.40583,6.61603z" fill="#c5c528" stroke="#000000" stroke-width="2" stroke-linecap="butt"/><g data-paper-data="{&quot;index&quot;:null}"><path d="M500.19219,287.48396c0,0 -11.49765,-22.78128 0.33537,-34.29542c3.81168,-3.70898 12.2703,-7.84151 19.25219,-8.36314c5.90453,-0.44114 10.14883,2.58806 15.83677,1.52229c12.07373,-2.26231 18.88291,-8.10496 22.88342,-8.47019c13.62812,-1.24422 16.49592,17.94733 16.49592,17.94733l0.83952,2.06967c0,0 11.31214,15.76627 0.66823,24.3675c-3.1245,2.52488 -12.07976,3.07675 -22.31775,9.86473c-4.82311,3.19782 -5.75783,8.32778 -10.30119,12.12462c-5.37235,4.48962 -14.31964,7.41742 -19.63804,7.41187c-16.51045,-0.01719 -24.13208,-24.3707 -24.13208,-24.3707z" data-paper-data="{&quot;index&quot;:null}" fill="url(#color-1)" stroke="none" stroke-width="0" stroke-linecap="round"/><g fill="#7d7d00" stroke="none" stroke-width="1" stroke-linecap="butt"><path d="M537.82862,263.64332c-0.00863,-0.02129 -0.01728,-0.0426 -0.00893,-0.08317c-0.27893,-0.32084 -0.2508,-0.67944 -0.0713,-1.06222c-0.40691,0.12787 -0.7209,0.05684 -0.98056,-0.24702c-0.21675,-0.25926 -0.24416,-0.63253 -0.0727,-0.91287c0.24339,-0.40871 0.60571,-0.49368 1.01382,-0.37404c0.00945,-0.25182 0.03387,-0.49731 0.0433,-0.74913c-0.62508,0.01794 -1.02775,-0.30228 -1.02614,-0.84851c0.00311,-0.23685 0.09171,-0.44639 0.27443,-0.6073c0.27192,-0.24669 0.58331,-0.2738 0.91457,-0.16019c0.00143,-0.14937 -0.03344,-0.29642 -0.01274,-0.42881c0.01005,-0.12807 0.07132,-0.25212 0.10266,-0.38882c-0.43484,0.08959 -0.77042,-0.03468 -0.96619,-0.36445c-0.16784,-0.29151 -0.13339,-0.66506 0.08298,-0.92641c0.26729,-0.31922 0.58933,-0.35065 1.12812,-0.12282c-0.17245,-0.36403 -0.17627,-0.70967 0.09535,-1.01823c0.29493,-0.34281 0.66386,-0.38087 1.06795,-0.21c-0.22378,-0.82679 0.4881,-1.42553 1.24909,-1.13904c-0.09361,-0.38361 -0.02059,-0.72323 0.29824,-0.97653c0.30818,-0.24899 0.65814,-0.24216 1.02597,-0.06898c-0.13418,-0.39195 -0.06747,-0.71659 0.23639,-0.97624c0.25494,-0.2274 0.56832,-0.28013 0.87629,-0.13226c0.45763,0.21115 0.57685,0.59677 0.48513,1.04315c0.21123,0.00112 0.4268,0.01286 0.60177,0.01628c0.04801,-0.21786 0.10237,-0.45069 0.16104,-0.67288c-0.4282,0.13648 -0.78077,0.0315 -0.99581,-0.31524c-0.17849,-0.28718 -0.13137,-0.69068 0.11493,-0.93938c0.25264,-0.26366 0.64287,-0.31036 0.95315,-0.12623c0.19256,0.10789 0.3385,0.28428 0.35236,0.50184c0.02019,0.2026 -0.02151,0.40551 -0.04191,0.59976c0.40059,-0.1129 0.40059,-0.1129 0.90282,0.05536c-0.0919,-0.4711 -0.0016,-0.76812 0.29824,-0.97653c0.26156,-0.18049 0.62851,-0.19294 0.88755,-0.01284c0.40037,0.28399 0.45772,0.66991 0.25721,1.12321c0.35137,-0.14253 0.66305,-0.10776 0.967,0.09134c-0.11349,-0.52434 -0.01052,-0.85128 0.32357,-1.03641c0.30646,-0.16151 0.67369,-0.11208 0.92239,0.13423c0.23806,0.25063 0.29107,0.62589 0.12392,0.91688c-0.11854,0.19687 -0.26931,0.34483 -0.49753,0.36301c-0.20261,0.02019 -0.40983,-0.03215 -0.57416,-0.03989c0.02017,0.2026 0.04267,0.44147 0.06085,0.66968c0.18362,0.02471 0.39285,0.05144 0.61273,0.07384c-0.05101,-0.4009 0.07757,-0.72583 0.4436,-0.9239c0.29582,-0.15719 0.60319,-0.13307 0.87519,0.07898c0.38339,0.30326 0.41512,0.68717 0.21663,1.11487c0.77526,-0.28968 1.52106,0.38735 1.18162,1.2318c0.8311,-0.21312 1.43217,0.53502 1.09444,1.29198c0.42188,-0.12152 0.78078,-0.03152 1.02575,0.32788c0.19346,0.29351 0.20992,0.60922 0.03213,0.90453c-0.22642,0.38944 -0.59075,0.50001 -1.00087,0.40598c-0.0011,0.21124 -0.01087,0.40118 -0.01629,0.60178c0.10246,0.00805 0.21556,0.01176 0.3117,0.03476c0.11109,0.02933 0.21586,0.07363 0.31631,0.10728c-0.05824,-0.57154 0.07264,-0.86021 0.44099,-1.02202c0.33007,-0.13388 0.68465,-0.05453 0.91637,0.21106c0.21675,0.25925 0.25481,0.6282 0.07702,0.92351c-0.21376,0.35949 -0.52918,0.43784 -1.06536,0.30815c0.01988,0.14073 0.05474,0.28778 0.04902,0.4265c-0.00573,0.13872 -0.05837,0.28406 -0.08539,0.43142c0.43484,-0.08959 0.74051,0.022 0.95323,0.3325c0.18481,0.27223 0.19727,0.63915 0.01083,0.91317c-0.26698,0.3811 -0.62931,0.46606 -1.07599,0.31247c0.09532,0.29612 0.07955,0.56291 -0.07062,0.83462c0.44549,-0.0939 0.77243,0.00907 0.9918,0.36645c0.17849,0.28718 0.15467,0.65643 -0.06602,0.90714c-0.30125,0.35778 -0.67451,0.38519 -1.09155,0.18239c0.31328,0.80288 -0.37039,1.50177 -1.16964,1.24319c0.08034,0.28979 0.0283,0.55889 -0.13684,0.82426c0.49441,-0.12614 0.81503,-0.00822 1.0151,0.3322c0.16784,0.2915 0.10776,0.66306 -0.12788,0.90745c-0.24631,0.24871 -0.61092,0.2974 -0.91256,0.13456c-0.19256,-0.10789 -0.3405,-0.25866 -0.36502,-0.47191c-0.02019,-0.2026 0.00654,-0.41184 0.01428,-0.57616c-0.21756,0.01385 -0.4757,0.01937 -0.69328,0.03323c-0.03938,0.23917 -0.08941,0.48264 -0.13944,0.72613c0.47109,-0.09191 0.79172,0.02603 0.96187,0.3538c0.16583,0.3171 0.10575,0.68867 -0.15551,0.93104c-0.25494,0.2274 -0.63453,0.26978 -0.93416,0.08133c-0.33388,-0.21174 -0.41221,-0.52716 -0.25058,-1.07629c-0.26619,0.10798 -0.53067,0.12846 -0.81071,0.01886c0.06137,0.33468 -0.00133,0.60809 -0.1964,0.86081c0.42158,-0.18341 0.78681,-0.10836 1.01451,0.20845c0.2041,0.28919 0.17828,0.68405 -0.0637,0.9434c-0.25264,0.26366 -0.64286,0.31036 -0.94682,0.11127c-0.19055,-0.13351 -0.32152,-0.30357 -0.32473,-0.52546c-0.00955,-0.20693 0.06841,-0.41215 0.09745,-0.5851c-0.26588,0.16985 -0.58591,0.17566 -0.91949,0.02578c0.08215,0.66105 -0.23146,1.11064 -0.77971,1.13463c-0.24318,0.01185 -0.46336,-0.07244 -0.63491,-0.25083c-0.25302,-0.25695 -0.29078,-0.56401 -0.20479,-0.87168c-0.24117,-0.01377 -0.45673,-0.02552 -0.68294,-0.03296c-0.00967,0.64869 -0.34917,1.0344 -0.88476,1.02846c-0.23685,-0.00312 -0.44639,-0.09172 -0.61363,-0.25947c-0.25302,-0.25696 -0.29077,-0.56403 -0.21975,-0.87802c-0.23485,-0.02873 -0.46537,-0.04683 -0.68526,-0.06923c0.05735,0.38591 -0.07124,0.71086 -0.42662,0.90462c-0.31711,0.16584 -0.64578,0.15035 -0.92642,-0.08299c-0.34915,-0.27995 -0.38721,-0.64891 -0.2313,-1.05932c-0.47974,0.07061 -0.51599,0.07291 -0.92239,-0.13422c0.14312,0.47512 0.04448,0.81271 -0.2853,1.00848c-0.31912,0.19145 -0.697,0.14633 -0.93937,-0.11494c-0.25303,-0.25695 -0.28476,-0.64085 -0.09631,-0.94048c0.2224,-0.33821 0.55277,-0.41021 1.10421,-0.21232c-0.15919,-0.27021 -0.16471,-0.52836 -0.08907,-0.76984c-0.25413,-0.04572 -0.50826,-0.09141 -0.74742,-0.1308c0.09591,0.41988 -0.02202,0.7405 -0.36244,0.94057c-0.28518,0.15288 -0.66305,0.10777 -0.90312,-0.11724c-0.24869,-0.2463 -0.32302,-0.61294 -0.1645,-0.92523c0.10357,-0.2032 0.25435,-0.35116 0.47393,-0.39063c0.19828,-0.03084 0.40752,-0.00411 0.58249,-0.00069c-0.00955,-0.20693 -0.01706,-0.43945 -0.03092,-0.65703c-0.21356,-0.03737 -0.45705,-0.08739 -0.68555,-0.1311c0.07061,0.47974 -0.04532,0.77473 -0.39437,0.95353c-0.31078,0.15085 -0.65673,0.09279 -0.90111,-0.14287c-0.24438,-0.23566 -0.30805,-0.60661 -0.14522,-0.90825c0.10788,-0.19255 0.25866,-0.3405 0.46758,-0.37565c0.19828,-0.03083 0.40751,-0.00411 0.60379,-0.00932c-0.00893,-0.08318 -0.05013,-0.21526 -0.05071,-0.33901c-0.0006,-0.12375 0.03506,-0.24982 0.04311,-0.35228c-0.18793,-0.03536 -0.3822,-0.05576 -0.5638,-0.10609c-0.11109,-0.02933 -0.20752,-0.11421 -0.31028,-0.18412zM539.11004,256.83698c-0.2265,-0.06931 -0.44869,-0.12798 -0.66656,-0.176c0.10134,0.21929 0.11752,0.47312 -0.00504,0.72122c0.21758,-0.01386 0.4245,-0.02339 0.61645,-0.03925c0.01839,-0.16865 0.0431,-0.35227 0.05516,-0.50595zM546.55737,253.03497c0.05234,-0.20721 0.09835,-0.39948 0.155,-0.59605c-0.23856,0.08437 -0.49037,0.07493 -0.71718,-0.05627c0.02018,0.2026 0.04036,0.40521 0.06488,0.61846c0.15368,0.01205 0.33298,0.02612 0.49731,0.03386zM552.63339,262.57297c-0.01206,0.15368 -0.03045,0.32233 -0.03819,0.48667c0.19226,0.046 0.39948,0.09837 0.56612,0.14236c0.00111,-0.21125 -0.00641,-0.44378 0.00102,-0.66998c-0.14505,0.00924 -0.33702,0.02512 -0.52897,0.04098zM549.56384,253.93575c0.00924,0.14505 0.01646,0.3157 0.02369,0.48637c0.158,0.02271 0.31601,0.04541 0.4697,0.05747c0.046,-0.19226 0.09202,-0.38452 0.13169,-0.56179c-0.19628,0.00522 -0.41816,0.00843 -0.62509,0.01796zM538.71735,262.10484c0.00142,-0.14936 0.00282,-0.29872 0.02121,-0.46738c-0.16664,-0.04401 -0.3396,-0.07304 -0.49128,-0.11071c-0.02671,0.20923 -0.05345,0.41846 -0.08017,0.62769c0.1557,-0.01356 0.35829,-0.03375 0.55024,-0.04961zM542.40327,253.95124c0.14937,0.00142 0.29873,0.00281 0.45874,-0.00009c0.03335,-0.16232 0.05605,-0.32032 0.08307,-0.46768c-0.19428,-0.02039 -0.39717,-0.06209 -0.58078,-0.0868c0.00723,0.17067 0.0231,0.36262 0.03896,0.55457zM552.80963,260.1952c-0.00142,0.14937 -0.01347,0.30304 -0.03618,0.46105c0.17298,0.02903 0.3396,0.07304 0.48695,0.10006c0.0204,-0.19427 0.03648,-0.39917 0.05255,-0.60409c-0.1557,0.01356 -0.337,0.02511 -0.50335,0.04297zM551.84019,256.52143c-0.00573,0.13871 -0.00714,0.28809 -0.00422,0.4481c0.14735,0.02703 0.30536,0.04974 0.45272,0.07675c0.02471,-0.18362 0.06008,-0.37156 0.08479,-0.55517c-0.17067,0.00724 -0.34132,0.01446 -0.53327,0.03032zM543.16954,266.78378c-0.1324,-0.02069 -0.28607,-0.03275 -0.43975,-0.04481c-0.03335,0.16231 -0.07304,0.3396 -0.10639,0.50192c0.18562,-0.00089 0.38623,0.00453 0.57185,0.00364c-0.00492,-0.13441 -0.01847,-0.29009 -0.02569,-0.46076zM547.99769,267.59038c-0.01355,-0.15569 -0.02078,-0.32636 -0.03233,-0.50766c-0.13439,0.00493 -0.27743,-0.01146 -0.4268,-0.01287c-0.02702,0.14735 -0.06038,0.30968 -0.0874,0.45704c0.18362,0.02472 0.37788,0.04511 0.54653,0.0635zM538.84006,259.68677c0.01637,-0.14304 0.02211,-0.28176 0.03849,-0.42479c-0.16233,-0.03336 -0.32895,-0.07736 -0.47631,-0.10437c-0.00342,0.17498 -0.01317,0.36492 -0.02292,0.55487c0.14504,-0.00923 0.30073,-0.02279 0.46075,-0.02569zM539.8382,255.63648c0.00724,0.17067 0.00814,0.35629 0.01969,0.53759c0.12374,-0.0006 0.27311,0.00082 0.41816,-0.00843c0.01637,-0.14304 0.04772,-0.27974 0.06409,-0.42278c-0.16231,-0.03336 -0.3396,-0.07304 -0.50192,-0.10639zM550.7331,255.25939c0.0006,0.12375 0.00984,0.2688 -0.00222,0.42248c0.14304,0.01637 0.2904,0.0434 0.42278,0.06409c0.03969,-0.1773 0.06871,-0.35026 0.10206,-0.51259c-0.16001,0.00291 -0.34132,0.01445 -0.52263,0.026zM541.55505,255.03926c0.01637,-0.14305 0.03708,-0.27543 0.05777,-0.40782c-0.16864,-0.0184 -0.33097,-0.05175 -0.48897,-0.07445c0.01355,0.15569 0.01647,0.3157 0.0237,0.48637c0.12375,-0.0006 0.25814,-0.00552 0.40751,-0.0041zM551.42084,263.77158c-0.02502,0.12174 -0.03938,0.23917 -0.05375,0.35659c0.14735,0.02701 0.28407,0.05837 0.43143,0.08538c0.00142,-0.14936 0.00281,-0.29872 0.00422,-0.44809c-0.12374,0.0006 -0.24749,0.0012 -0.3819,0.00612zM545.56639,267.37386c-0.01556,-0.13009 -0.02049,-0.26448 -0.01476,-0.4032c-0.12807,-0.01005 -0.24116,-0.01377 -0.36924,-0.02382c-0.03134,0.1367 -0.05204,0.2691 -0.07706,0.39084c0.15368,0.01205 0.30737,0.02412 0.46104,0.03618zM539.78206,262.98728c-0.12173,-0.02502 -0.23917,-0.03938 -0.36091,-0.0644c-0.01637,0.14304 -0.03707,0.27543 -0.05345,0.41846c0.13439,-0.00493 0.25814,-0.00551 0.4032,-0.01476c-0.00059,-0.12375 0.00743,-0.22621 0.01116,-0.33931zM548.81108,266.3553c0.13672,0.03134 0.27974,0.04773 0.41214,0.06843c-0.00492,-0.13441 -0.00552,-0.25815 -0.01476,-0.4032c-0.09813,0.00261 -0.21125,-0.0011 -0.33499,-0.00051c-0.01436,0.11743 -0.03305,0.22418 -0.06238,0.33528zM541.59487,265.89738c0.13441,-0.00492 0.26879,-0.00983 0.40751,-0.0041c-0.00261,-0.09814 -0.00955,-0.20693 -0.01014,-0.33067c-0.11743,-0.01437 -0.21987,-0.02241 -0.32665,-0.04109c-0.02502,0.12174 -0.05004,0.24348 -0.07073,0.37587zM550.48114,264.90911c-0.10246,-0.00805 -0.2006,-0.00543 -0.3137,-0.00916c-0.01868,0.10678 -0.03737,0.21357 -0.05173,0.33098c0.12173,0.02502 0.24347,0.05004 0.37587,0.07073c-0.00492,-0.13441 -0.00551,-0.25814 -0.01043,-0.39255zM547.59568,254.18852c0.02502,-0.12174 0.03737,-0.21354 0.07102,-0.31399c-0.12807,-0.01005 -0.24116,-0.01378 -0.37988,-0.0195c0.00262,0.09813 0.00522,0.19629 0.01214,0.30506c0.09182,0.01236 0.19427,0.02039 0.29672,0.02844zM544.86844,253.67045c-0.00372,0.1131 0.00954,0.20693 0.00581,0.32003c0.10246,0.00805 0.20492,0.01608 0.30737,0.02412c0.01868,-0.10678 0.04169,-0.2029 0.06037,-0.30968c-0.12807,-0.01005 -0.24548,-0.0244 -0.37356,-0.03446zM540.85521,264.2879c-0.10678,-0.01868 -0.19859,-0.03104 -0.28607,-0.03275c-0.01868,0.10677 -0.03305,0.2242 -0.05806,0.34593c0.10878,-0.00693 0.21757,-0.01387 0.34132,-0.01445c-0.00262,-0.09815 -0.00523,-0.19628 0.00281,-0.29873zM552.06292,259.33254c0.00373,-0.11311 0.01607,-0.20491 0.04109,-0.32665c-0.09813,0.00262 -0.18562,0.00089 -0.28376,0.00351c-0.00171,0.08748 -0.00773,0.16433 -0.01577,0.26679c0.08116,0.01667 0.16232,0.03334 0.25845,0.05635zM539.76301,258.17164c-0.00805,0.10246 -0.00975,0.18995 -0.01348,0.30304c0.08748,0.00171 0.16003,-0.00291 0.24751,-0.0012c0.01236,-0.09182 0.01839,-0.16865 0.03074,-0.26046c-0.09182,-0.01236 -0.16232,-0.03334 -0.26477,-0.04139zM551.64749,261.67093c0.08116,0.01667 0.15167,0.03768 0.24981,0.03506c-0.00261,-0.09814 0.00975,-0.18995 0.01779,-0.2924c-0.08316,0.00893 -0.1557,0.01355 -0.24318,0.01185c-0.01235,0.09182 -0.01838,0.16865 -0.0244,0.24549zM539.65095,260.5854c-0.01236,0.09182 -0.0184,0.16865 -0.02643,0.27111c0.07252,-0.00462 0.1344,-0.00493 0.20692,-0.00954c-0.00461,-0.07253 0.00574,-0.13873 0.01176,-0.21557c-0.06619,-0.01034 -0.12173,-0.02501 -0.19226,-0.04599zM546.72246,265.97497c-0.06188,0.0003 -0.1131,-0.00374 -0.17497,-0.00343c-0.00834,0.04059 -0.023,0.09613 -0.03767,0.15168c0.06618,0.01034 0.13238,0.0207 0.20923,0.02672c-0.00031,-0.06187 0.00374,-0.11309 0.00343,-0.17497zM544.10012,265.95993c0.07684,0.00603 0.13871,0.00573 0.21555,0.01175c0.05263,-0.14535 -0.02852,-0.16202 -0.16293,-0.15711c-0.0233,0.03426 -0.03165,0.07483 -0.05264,0.14534zM543.70805,255.05869c0.04892,-0.03224 0.10849,-0.06881 0.16806,-0.10537c-0.00865,-0.0213 -0.01296,-0.03194 -0.02161,-0.05323c-0.05554,-0.01467 -0.12173,-0.02503 -0.18793,-0.03537c0.00029,0.06188 0.00262,0.09814 -0.00141,0.14937c0.01928,0.01698 0.0236,0.02763 0.04288,0.0446z"/><path d="M546.07892,268.79026c0.39396,-0.1598 0.82799,0.02373 0.98347,0.40704c0.16613,0.379 -0.02373,0.82799 -0.40704,0.98347c-0.37899,0.16613 -0.82799,-0.02373 -0.98347,-0.40704c-0.1598,-0.39396 0.01308,-0.82367 0.40704,-0.98346z"/><path d="M544.70823,269.04869c0.1598,0.39397 -0.03437,0.8323 -0.42201,0.97714c-0.38331,0.15549 -0.82167,-0.03869 -0.97714,-0.422c-0.15549,-0.38331 0.03869,-0.82167 0.422,-0.97715c0.39396,-0.1598 0.81734,0.02806 0.97714,0.42202z"/><path d="M537.82864,263.64324c0.02592,0.06389 0.06881,0.10848 0.10104,0.1574c0.15317,0.34705 0.02922,0.74451 -0.28991,0.93595c-0.32977,0.19576 -0.73126,0.12304 -0.97163,-0.16385c-0.24037,-0.28688 -0.22317,-0.70305 0.02513,-0.97735c0.25264,-0.26366 0.66848,-0.30835 0.97675,-0.09861c0.04921,0.02964 0.09413,0.04862 0.14334,0.07826c0.00864,0.02129 0.00662,0.04691 0.01526,0.0682z"/><path d="M553.51352,264.55944c0.37266,-0.15116 0.79603,0.03669 0.94088,0.42432c0.15116,0.37267 -0.03669,0.79603 -0.40935,0.9472c-0.37698,0.14052 -0.80036,-0.04734 -0.95152,-0.41999c-0.14051,-0.37698 0.04735,-0.80036 0.41999,-0.95152z"/><path d="M537.1328,257.86219c0.15116,0.37266 -0.03035,0.78108 -0.41366,0.93655c-0.37266,0.15116 -0.78108,-0.03037 -0.93224,-0.40302c-0.14052,-0.37699 0.04101,-0.78539 0.41367,-0.93655c0.37266,-0.15116 0.78107,0.03037 0.93223,0.40302z"/><path d="M538.87761,252.90147c0.36834,-0.16182 0.7874,0.0154 0.93856,0.38806c0.14684,0.36201 -0.0154,0.7874 -0.38806,0.93856c-0.37267,0.15117 -0.7874,-0.01538 -0.93856,-0.38805c-0.15116,-0.37267 0.01539,-0.78741 0.38805,-0.93857z"/><path d="M536.97354,260.22069c0.15116,0.37267 -0.02605,0.79173 -0.3987,0.94289c-0.37266,0.15116 -0.79171,-0.02604 -0.94287,-0.39869c-0.15116,-0.37266 0.02604,-0.79172 0.39869,-0.94288c0.37266,-0.15116 0.79172,0.02604 0.94288,0.39869z"/><path d="M541.07188,252.19739c0.16181,0.36834 -0.0154,0.7874 -0.38806,0.93856c-0.36201,0.14684 -0.79171,-0.02604 -0.94287,-0.39869c-0.15116,-0.37266 0.02604,-0.79172 0.39869,-0.94288c0.37266,-0.15116 0.78739,0.01539 0.93224,0.40302z"/><path d="M553.59837,255.20068c-0.36633,0.1362 -0.78539,-0.041 -0.93223,-0.40302c-0.14052,-0.37699 0.041,-0.78539 0.40302,-0.93224c0.36633,-0.1362 0.77474,0.04532 0.92159,0.40733c0.14684,0.36201 -0.04101,0.78539 -0.39237,0.92792z"/><path d="M551.95572,252.61837c0.37267,-0.15116 0.78741,0.01538 0.92793,0.39236c0.14684,0.36201 -0.04533,0.77474 -0.40734,0.92159c-0.36202,0.14685 -0.76612,-0.02403 -0.91296,-0.38605c-0.14684,-0.36201 0.03035,-0.78107 0.39237,-0.92792z"/><path d="M555.85444,261.5268c0.14684,0.36201 -0.01971,0.77675 -0.40734,0.92159c-0.36202,0.14685 -0.76612,-0.02403 -0.91296,-0.38604c-0.15116,-0.37266 0.0197,-0.77675 0.39236,-0.92792c0.37266,-0.15116 0.77675,0.01971 0.92792,0.39237z"/><path d="M538.52852,254.39462c0.14684,0.36201 -0.02403,0.76612 -0.38605,0.91296c-0.35137,0.14252 -0.7661,-0.02403 -0.90863,-0.3754c-0.14253,-0.35137 0.02402,-0.76612 0.38604,-0.91296c0.36201,-0.14684 0.77676,0.01971 0.90865,0.3754z"/><path d="M541.90613,269.81331c-0.36202,0.14685 -0.76611,-0.02403 -0.91295,-0.38604c-0.14253,-0.35137 0.02836,-0.75545 0.3754,-0.90863c0.36201,-0.14684 0.77675,0.01971 0.92359,0.38172c0.14253,0.35137 -0.02403,0.76612 -0.38605,0.91296z"/><path d="M554.7147,259.69522c-0.14684,-0.36201 0.01338,-0.76179 0.37539,-0.90864c0.36201,-0.14684 0.7618,0.01338 0.91496,0.36043c0.14253,0.35137 -0.01338,0.7618 -0.37107,0.91928c-0.36201,0.14684 -0.7618,-0.01339 -0.91928,-0.37109z"/><path d="M553.80316,256.07238c-0.15317,-0.34705 0.01338,-0.76179 0.36043,-0.91496c0.34705,-0.15317 0.75114,0.01769 0.90431,0.36474c0.15317,0.34704 -0.00706,0.74683 -0.35411,0.9c-0.3577,0.15749 -0.75315,0.00791 -0.91064,-0.34979z"/><path d="M548.9816,270.29112c-0.34072,0.13821 -0.75545,-0.02835 -0.89798,-0.37971c-0.14253,-0.35137 0.02202,-0.74049 0.36907,-0.89367c0.3577,-0.15749 0.76179,0.01338 0.90431,0.36474c0.14684,0.36201 -0.01339,0.76179 -0.3754,0.90864z"/><path d="M542.302,251.10327c0.14253,0.35137 -0.01769,0.75113 -0.37971,0.89798c-0.35137,0.14252 -0.75546,-0.02835 -0.89799,-0.37971c-0.14253,-0.35137 0.02202,-0.74051 0.36907,-0.89368c0.35137,-0.14252 0.7661,0.02403 0.90863,0.3754z"/><path d="M545.92683,250.16609c0.13821,0.34072 -0.03265,0.74481 -0.3797,0.89798c-0.34504,0.12756 -0.74913,-0.0433 -0.88734,-0.38403c-0.12756,-0.34503 0.03266,-0.74482 0.37338,-0.88302c0.35137,-0.14252 0.75115,0.0177 0.89368,0.36908z"/><path d="M547.03957,250.83068c-0.14253,-0.35137 0.03266,-0.74482 0.36907,-0.89368c0.34504,-0.12756 0.74481,0.03266 0.88302,0.37339c0.14253,0.35137 -0.02835,0.75546 -0.36907,0.89367c-0.34072,0.13821 -0.74049,-0.02202 -0.88301,-0.37339z"/><path d="M536.78032,262.61775c0.13821,0.34073 -0.03699,0.73417 -0.38835,0.8767c-0.34504,0.12755 -0.73417,-0.03699 -0.87238,-0.37771c-0.13821,-0.34072 0.02202,-0.7405 0.37339,-0.88302c0.35137,-0.14253 0.74051,0.02202 0.88734,0.38403z"/><path d="M550.49883,252.26696c-0.14684,-0.36201 0.02202,-0.74051 0.37771,-0.87239c0.35137,-0.14253 0.72985,0.02634 0.87238,0.37771c0.13821,0.34073 -0.02633,0.72985 -0.36705,0.86806c-0.35137,0.14252 -0.7405,-0.02202 -0.88302,-0.37339z"/><path d="M554.41746,264.40357c-0.14253,-0.35137 0.02202,-0.7405 0.36273,-0.8787c0.34072,-0.13821 0.71488,0.02 0.86373,0.3564c0.14887,0.3364 -0.01138,0.73618 -0.35209,0.87439c-0.34705,0.15318 -0.73617,-0.01138 -0.87438,-0.35209z"/><path d="M537.23884,255.5253c0.12324,0.33439 -0.03497,0.70855 -0.33943,0.84445c-0.3364,0.14887 -0.72552,-0.01568 -0.86373,-0.3564c-0.13821,-0.34072 0.02001,-0.71488 0.35008,-0.84877c0.34071,-0.13821 0.71486,0.02001 0.85308,0.36073z"/><path d="M545.36079,271.17706c-0.33007,0.13388 -0.69992,-0.01368 -0.8338,-0.34374c-0.14453,-0.32575 0.00303,-0.69559 0.32878,-0.84013c0.32575,-0.14452 0.71056,0.00936 0.84445,0.33944c0.13389,0.33007 -0.01368,0.69991 -0.33943,0.84444z"/><path d="M555.2773,256.46638c0.34072,-0.13821 0.71055,0.00936 0.84876,0.35008c0.13388,0.33007 -0.01369,0.69991 -0.34375,0.83379c-0.34072,0.13821 -0.71056,-0.00936 -0.84877,-0.35008c-0.14454,-0.32574 0.00304,-0.69559 0.34376,-0.83379z"/><path d="M550.59062,250.50621c0.13388,0.33008 -0.00736,0.68495 -0.33744,0.81883c-0.31942,0.12957 -0.67428,-0.01167 -0.80386,-0.33109c-0.12957,-0.31942 0.0223,-0.67862 0.32676,-0.81451c0.3151,-0.14022 0.68494,0.00735 0.81451,0.32677z"/><path d="M543.15841,250.83026c-0.31942,0.12957 -0.67862,-0.02231 -0.81251,-0.35238c-0.12525,-0.30877 0.02664,-0.66797 0.34606,-0.79754c0.31942,-0.12957 0.67862,0.02232 0.80387,0.3311c0.14453,0.32575 -0.018,0.68926 -0.33742,0.81883z"/><path d="M542.50158,269.84457c0.31943,-0.12957 0.67863,0.02232 0.80387,0.3311c0.12957,0.31943 -0.01801,0.68927 -0.33743,0.81884c-0.30876,0.12524 -0.67429,-0.01168 -0.80387,-0.3311c-0.13388,-0.33007 0.01801,-0.68927 0.33743,-0.81884z"/><path d="M536.8411,265.91613c0.30445,-0.1359 0.66365,0.016 0.79322,0.33541c0.12525,0.30877 -0.01599,0.66365 -0.32476,0.78891c-0.30445,0.1359 -0.66365,-0.016 -0.79322,-0.33541c-0.12957,-0.31943 0.01599,-0.66365 0.32476,-0.78891z"/><path d="M547.2485,270.17578c0.30877,-0.12526 0.65301,0.02031 0.78891,0.32477c0.14022,0.31511 -0.01167,0.67429 -0.33108,0.80387c-0.30878,0.12524 -0.66367,-0.016 -0.78891,-0.32477c-0.14022,-0.31511 0.01168,-0.67429 0.33109,-0.80387z"/><path d="M535.75998,259.00184c0.12525,0.30877 -0.0203,0.653 -0.32476,0.78891c-0.31942,0.12957 -0.6743,-0.01167 -0.80387,-0.33109c-0.12525,-0.30877 0.016,-0.66365 0.32477,-0.78891c0.31511,-0.14022 0.68494,0.00734 0.80387,0.33109z"/><path d="M537.95885,267.17385c0.30877,-0.12526 0.66798,0.02664 0.79323,0.33541c0.12524,0.30877 -0.02665,0.66798 -0.34606,0.79755c-0.31943,0.12957 -0.67862,-0.02232 -0.79755,-0.34607c-0.1146,-0.3131 0.04161,-0.66164 0.35038,-0.7869z"/><path d="M556.69155,261.23684c-0.29813,0.12093 -0.65733,-0.03095 -0.77826,-0.32909c-0.12525,-0.30877 0.02031,-0.65301 0.31412,-0.78459c0.30878,-0.12524 0.66366,0.016 0.78891,0.32477c0.12957,0.31943 -0.02664,0.66798 -0.32477,0.78891z"/><path d="M552.91797,268.47123c0.12525,0.30877 -0.02663,0.66797 -0.33541,0.79322c-0.30878,0.12525 -0.65302,-0.02031 -0.77826,-0.32909c-0.1359,-0.30446 0.02031,-0.65299 0.32908,-0.77825c0.30877,-0.12526 0.65301,0.0203 0.78459,0.31411z"/><path d="M553.06636,267.82825c-0.12093,-0.29813 0.02462,-0.64236 0.32908,-0.77825c0.31943,-0.12957 0.66798,0.02664 0.79323,0.33541c0.11028,0.30245 -0.03528,0.64669 -0.34406,0.77194c-0.30878,0.12526 -0.65299,-0.02032 -0.77825,-0.32909z"/><path d="M534.49336,261.80951c-0.12093,-0.29814 0.02462,-0.64237 0.31844,-0.77395c0.29814,-0.12093 0.64237,0.02463 0.76329,0.32276c0.12525,0.30878 -0.02032,0.653 -0.32909,0.77826c-0.29813,0.12093 -0.63171,-0.02895 -0.75264,-0.32708z"/><path d="M551.31619,270.36091c-0.29814,0.12093 -0.64237,-0.02463 -0.76761,-0.33341c-0.12093,-0.29814 0.02896,-0.63171 0.32709,-0.75264c0.29814,-0.12093 0.64237,0.02462 0.76329,0.32275c0.11662,0.28749 -0.02464,0.64237 -0.32277,0.76329z"/><path d="M538.74118,269.22481c-0.12093,-0.29813 0.01397,-0.63803 0.30779,-0.76962c0.30878,-0.12525 0.63804,0.01397 0.76962,0.30778c0.12524,0.30877 -0.00535,0.65934 -0.31412,0.78459c-0.29814,0.12093 -0.64237,-0.02463 -0.76329,-0.32276z"/><path d="M556.08544,262.52425c0.29813,-0.12093 0.65301,0.0203 0.76329,0.32276c0.10595,0.2918 -0.04392,0.62538 -0.3314,0.74199c-0.30245,0.11027 -0.63603,-0.03959 -0.75264,-0.32708c-0.11662,-0.28749 0.02894,-0.63171 0.32075,-0.73767z"/><path d="M535.14531,256.32491c0.28748,-0.11662 0.62739,0.01831 0.74832,0.31643c0.12093,0.29814 -0.02895,0.63172 -0.32708,0.75265c-0.29813,0.12093 -0.62739,-0.01831 -0.74832,-0.31643c-0.11027,-0.30245 0.02895,-0.63172 0.32708,-0.75265z"/><path d="M535.75761,264.6817c0.29813,-0.12093 0.62738,0.01829 0.744,0.30578c0.13158,0.29381 -0.00333,0.63373 -0.30146,0.75466c-0.29381,0.13159 -0.63804,-0.01397 -0.75897,-0.31211c-0.12092,-0.29812 0.01831,-0.62739 0.31643,-0.74832z"/><path d="M556.83788,258.8464c-0.2918,0.10596 -0.62106,-0.03327 -0.744,-0.30579c-0.11662,-0.28748 0.0183,-0.62738 0.30578,-0.744c0.29813,-0.12093 0.62739,0.0183 0.74832,0.31642c0.12093,0.29813 -0.02262,0.61675 -0.31011,0.73336z"/><path d="M555.4081,266.29561c0.12093,0.29813 -0.02262,0.61674 -0.3101,0.73335c-0.28748,0.11662 -0.61673,-0.02261 -0.73335,-0.3101c-0.12093,-0.29813 0.02462,-0.64236 0.31642,-0.74832c0.2918,-0.10596 0.61042,0.03758 0.72703,0.32506z"/><path d="M547.07178,249.1065c0.12725,0.28316 -0.00766,0.62308 -0.30578,0.74401c-0.28748,0.11662 -0.61675,-0.02261 -0.73336,-0.3101c-0.11662,-0.28748 0.02263,-0.61673 0.31011,-0.73335c0.29813,-0.12094 0.62308,0.00764 0.72904,0.29944z"/><path d="M538.57066,252.08362c0.11662,0.28749 -0.02262,0.61674 -0.3101,0.73336c-0.2918,0.10597 -0.61042,-0.03759 -0.72271,-0.31442c-0.11662,-0.28749 0.01629,-0.60179 0.30377,-0.71839c0.28748,-0.11662 0.6061,0.02694 0.72904,0.29945z"/><path d="M554.38532,252.92238c0.28748,-0.11662 0.60178,0.01628 0.71839,0.30377c0.12725,0.28316 -0.0183,0.6274 -0.3101,0.73336c-0.2918,0.10596 -0.61042,-0.03759 -0.72271,-0.31442c-0.10597,-0.2918 0.02695,-0.6061 0.31443,-0.7227z"/><path d="M539.10799,250.68772c0.27684,-0.1123 0.6061,0.02694 0.71839,0.30377c0.11662,0.28748 -0.02694,0.60609 -0.31442,0.7227c-0.2918,0.10597 -0.59545,-0.03125 -0.71207,-0.31873c-0.1123,-0.27684 0.02693,-0.6061 0.30809,-0.70774z"/><path d="M536.28646,253.60534c-0.1123,-0.27684 0.02061,-0.59113 0.30809,-0.70774c0.27684,-0.11229 0.61042,0.03758 0.71206,0.31873c0.10164,0.28115 -0.03125,0.59545 -0.31242,0.69709c-0.28116,0.10164 -0.59544,-0.03125 -0.70774,-0.30809z"/><path d="M544.40951,249.66562c-0.27252,0.12294 -0.58681,-0.00996 -0.70975,-0.28248c-0.12725,-0.28317 0.01196,-0.61242 0.2888,-0.72472c0.27684,-0.1123 0.60179,0.01629 0.71407,0.29313c0.11229,0.27684 -0.02061,0.59114 -0.29313,0.71407z"/><path d="M553.99661,251.9641c0.1123,0.27684 -0.02061,0.59113 -0.29744,0.70343c-0.28748,0.1166 -0.60177,-0.01629 -0.71406,-0.29313c-0.1123,-0.27684 0.0206,-0.59113 0.29743,-0.70343c0.28748,-0.1166 0.60178,0.01629 0.71407,0.29313z"/><path d="M548.72051,248.98329c0.26619,-0.10797 0.59112,0.02061 0.71407,0.29313c0.12293,0.27251 -0.02693,0.6061 -0.30377,0.71839c-0.28116,0.10164 -0.59545,-0.03125 -0.70775,-0.30809c-0.11229,-0.27684 0.02061,-0.59113 0.29745,-0.70343z"/><path d="M540.17967,269.74486c0.28748,-0.11662 0.59113,0.02061 0.70343,0.29745c0.11662,0.28748 -0.00997,0.5868 -0.29744,0.70342c-0.28748,0.11662 -0.58681,-0.00995 -0.70343,-0.29743c-0.11229,-0.27684 0.02061,-0.59113 0.29744,-0.70343z"/><path d="M550.02391,271.39346c-0.27684,0.11229 -0.57616,-0.01428 -0.69478,-0.27615c-0.1123,-0.27684 0.02061,-0.59114 0.2868,-0.6991c0.27684,-0.1123 0.59114,0.02061 0.6991,0.2868c0.10798,0.26619 -0.01427,0.57616 -0.29111,0.68846z"/><path d="M556.17456,254.49049c0.1123,0.27684 -0.00996,0.58682 -0.2868,0.69911c-0.27252,0.12294 -0.58249,0.00069 -0.69478,-0.27614c-0.1123,-0.27684 0.00996,-0.58681 0.2868,-0.6991c0.27252,-0.12294 0.58682,0.00995 0.69478,0.27614z"/><path d="M534.6891,263.45362c0.26619,-0.10798 0.56985,0.02924 0.67782,0.29543c0.10796,0.26619 -0.02925,0.56985 -0.29544,0.67781c-0.28116,0.10165 -0.56553,-0.01859 -0.67782,-0.29543c-0.10796,-0.26619 0.0186,-0.56552 0.29544,-0.67782z"/><path d="M540.7717,250.57086c-0.26619,0.10797 -0.56553,-0.01859 -0.67349,-0.28478c-0.10796,-0.26619 0.0186,-0.56552 0.28479,-0.67349c0.26619,-0.10797 0.56553,0.01859 0.67349,0.28478c0.1123,0.27684 -0.0186,0.56552 -0.28479,0.67349z"/><path d="M552.86823,250.71069c0.10796,0.26619 -0.0186,0.56552 -0.28479,0.67348c-0.26619,0.10797 -0.56553,-0.01859 -0.67349,-0.28478c-0.10796,-0.26618 0.0186,-0.56552 0.28479,-0.67349c0.26619,-0.10797 0.56553,0.01859 0.67349,0.28478z"/><path d="M544.32535,271.49787c0.10164,0.28116 -0.02925,0.56984 -0.29544,0.67781c-0.26619,0.10798 -0.56985,-0.02924 -0.67782,-0.29543c-0.10796,-0.26619 0.02925,-0.56985 0.29544,-0.67781c0.27684,-0.1123 0.56553,0.01859 0.67782,0.29543z"/><path d="M546.67954,271.64649c0.10796,0.26619 -0.0186,0.56553 -0.28478,0.6735c-0.26619,0.10797 -0.56554,-0.01859 -0.6735,-0.28478c-0.10796,-0.26619 0.0186,-0.56554 0.28479,-0.6735c0.27684,-0.1123 0.57617,0.01428 0.6735,0.28478z"/><path d="M556.32781,265.87296c-0.25122,0.11431 -0.5612,-0.00794 -0.66486,-0.26349c-0.10796,-0.26618 0.00795,-0.5612 0.27414,-0.66918c0.25122,-0.11431 0.5612,0.00794 0.66486,0.26349c0.11862,0.26187 -0.00796,0.5612 -0.27415,0.66918z"/><path d="M535.71055,254.96729c-0.25554,0.10366 -0.55054,-0.01226 -0.65419,-0.2678c-0.10366,-0.25554 0.01225,-0.55055 0.2678,-0.6542c0.26619,-0.10798 0.55055,0.01225 0.65421,0.2678c0.10365,0.25554 -0.01227,0.55056 -0.26781,0.65421z"/><path d="M533.75855,259.87568c0.24488,-0.09934 0.53557,0.00593 0.63923,0.26148c0.09933,0.24489 -0.0209,0.52926 -0.26148,0.63923c-0.24489,0.09933 -0.53557,-0.00594 -0.63923,-0.26148c-0.10365,-0.25553 0.00594,-0.53558 0.26148,-0.63923z"/><path d="M533.66266,258.14145c-0.1143,-0.25122 0.01025,-0.52493 0.26148,-0.63923c0.25554,-0.10365 0.5399,0.01658 0.64356,0.27213c0.08868,0.24921 -0.0209,0.52926 -0.2658,0.62859c-0.25554,0.10365 -0.53557,-0.00593 -0.63923,-0.26148z"/><path d="M556.34264,256.15824c-0.10365,-0.25555 0.00595,-0.5356 0.24651,-0.64558c0.2449,-0.09934 0.54423,0.02724 0.64356,0.27214c0.09933,0.24489 -0.01458,0.51429 -0.25515,0.62428c-0.25122,0.11431 -0.53126,0.00471 -0.63491,-0.25083z"/><path d="M541.65598,248.56304c0.23424,-0.09502 0.51861,0.02523 0.62428,0.25515c0.09933,0.24488 -0.01457,0.51428 -0.2445,0.61995c-0.24058,0.10998 -0.53559,-0.00595 -0.63492,-0.25083c-0.10566,-0.22992 0.01026,-0.52493 0.25516,-0.62427z"/><path d="M557.73619,262.37542c-0.24488,0.09933 -0.5186,-0.02523 -0.61362,-0.25948c-0.09502,-0.23424 0.02523,-0.5186 0.27011,-0.61793c0.24488,-0.09933 0.5186,0.02523 0.61793,0.27012c0.09301,0.25987 -0.0209,0.52926 -0.27444,0.6073z"/><path d="M541.67545,271.96517c-0.24488,0.09933 -0.52926,-0.02091 -0.62859,-0.2658c-0.09933,-0.24488 0.00392,-0.50997 0.2445,-0.61995c0.24058,-0.10998 0.52495,0.01026 0.62428,0.25515c0.09933,0.24488 -0.01026,0.52493 -0.24019,0.63059z"/><path d="M551.45476,250.0689c-0.24489,0.09933 -0.50365,-0.01889 -0.60298,-0.26378c-0.09502,-0.23424 0.0189,-0.50364 0.25314,-0.59865c0.23424,-0.09502 0.5186,0.02523 0.61362,0.25947c0.09933,0.24488 -0.01457,0.51428 -0.26378,0.60297z"/><path d="M548.99976,271.8337c0.09933,0.24489 -0.02955,0.50795 -0.26811,0.59232c-0.2449,0.09934 -0.51429,-0.01457 -0.60298,-0.26378c-0.09502,-0.23424 0.02321,-0.493 0.25746,-0.58802c0.24488,-0.09934 0.5186,0.02523 0.61362,0.25947z"/><path d="M558.15925,259.41396c0.08437,0.23856 -0.02955,0.50796 -0.27876,0.59664c-0.23424,0.09502 -0.49299,-0.02321 -0.58801,-0.25746c-0.09933,-0.24489 0.0189,-0.50364 0.26379,-0.60298c0.24488,-0.09933 0.51859,0.02523 0.60297,0.26379z"/><path d="M533.61222,262.26612c0.2236,-0.09071 0.493,0.02321 0.59434,0.2425c0.0907,0.2236 -0.0169,0.47802 -0.23617,0.57937c-0.24057,0.10998 -0.50564,0.00671 -0.60066,-0.22753c-0.09502,-0.23424 0.00825,-0.49932 0.24249,-0.59434z"/><path d="M536.22321,267.4191c0.0907,0.2236 -0.0169,0.47804 -0.25114,0.57306c-0.2236,0.0907 -0.47802,-0.0169 -0.56872,-0.2405c-0.09502,-0.23423 0.02321,-0.493 0.24681,-0.58369c0.2236,-0.09071 0.48867,0.01257 0.57305,0.25112z"/><path d="M556.99522,264.46149c-0.0907,-0.2236 0.02322,-0.49299 0.24681,-0.58369c0.21295,-0.08638 0.46739,0.02121 0.56873,0.24049c0.09502,0.23424 -0.00826,0.49932 -0.23185,0.59002c-0.22993,0.10566 -0.49932,-0.00826 -0.5837,-0.24682z"/><path d="M545.62206,248.46701c-0.2236,0.0907 -0.47804,-0.01689 -0.56874,-0.24049c-0.0907,-0.2236 0.02754,-0.48235 0.25114,-0.57304c0.2236,-0.0907 0.48235,0.02754 0.57305,0.25114c0.0907,0.2236 -0.02753,0.48234 -0.25544,0.5624z"/><path d="M547.66294,247.81275c0.2236,-0.0907 0.48868,0.01258 0.5837,0.24682c0.0907,0.2236 -0.02754,0.48234 -0.25114,0.57304c-0.2236,0.09071 -0.47803,-0.01689 -0.56873,-0.24049c-0.10134,-0.21928 0.01258,-0.48868 0.23617,-0.57937z"/><path d="M536.74661,268.43434c0.2236,-0.0907 0.48867,0.01257 0.56441,0.22984c0.10566,0.22991 -0.00192,0.48435 -0.23617,0.57937c-0.2236,0.0907 -0.4737,-0.00624 -0.5644,-0.22983c-0.0907,-0.2236 0.00193,-0.48436 0.23617,-0.57937z"/><path d="M553.85901,269.81303c0.08638,0.21294 -0.02121,0.46738 -0.23415,0.55376c-0.2236,0.09071 -0.4737,-0.00624 -0.5644,-0.22984c-0.0907,-0.2236 0.01689,-0.47803 0.24048,-0.56873c0.21293,-0.08637 0.47169,0.03187 0.55807,0.24481z"/><path d="M534.43324,256.00617c-0.21295,0.08638 -0.46739,-0.02119 -0.56009,-0.21919c-0.10134,-0.21928 0.00192,-0.48437 0.22552,-0.57506c0.2236,-0.0907 0.47803,0.0169 0.56873,0.24049c0.0907,0.2236 -0.01056,0.46306 -0.23415,0.55375z"/><path d="M554.55667,268.47608c0.2236,-0.0907 0.4737,0.00624 0.5644,0.22984c0.0907,0.2236 -0.01689,0.47803 -0.24048,0.56873c-0.21293,0.08638 -0.46738,-0.0212 -0.55376,-0.23414c-0.09704,-0.20863 0.00624,-0.47371 0.22984,-0.56441z"/><path d="M552.03891,270.67532c0.21295,-0.08638 0.4524,0.01489 0.53879,0.22783c0.08638,0.21294 -0.0212,0.46738 -0.23414,0.55376c-0.21295,0.08638 -0.46104,-0.03619 -0.54743,-0.24913c-0.07142,-0.20663 0.02984,-0.44608 0.2428,-0.53246z"/><path d="M557.49432,257.37739c-0.08638,-0.21294 0.02121,-0.46738 0.22784,-0.53879c0.21295,-0.08638 0.46306,0.01056 0.55375,0.23414c0.08638,0.21294 -0.01488,0.45241 -0.23847,0.54311c-0.21726,0.07573 -0.45672,-0.02552 -0.54311,-0.23847z"/><path d="M535.10115,266.15074c0.08638,0.21294 -0.01055,0.46306 -0.23214,0.52815c-0.21928,0.10135 -0.45874,0.00008 -0.54944,-0.22352c-0.08638,-0.21294 0.01488,-0.45241 0.23847,-0.54311c0.21726,-0.07574 0.45672,0.02552 0.54311,0.23847z"/><path d="M538.17764,270.49494c-0.21295,0.08638 -0.4524,-0.01489 -0.53879,-0.22783c-0.08638,-0.21294 0.00422,-0.44809 0.21285,-0.54512c0.2236,-0.0907 0.4737,0.00625 0.56009,0.2192c0.08637,0.21294 -0.01056,0.46306 -0.23416,0.55375z"/><path d="M555.59953,267.92908c-0.08638,-0.21294 0.01488,-0.45241 0.20654,-0.53015c0.21293,-0.08637 0.46305,0.01056 0.54943,0.22351c0.08638,0.21294 -0.02553,0.45673 -0.22783,0.53879c-0.20662,0.07142 -0.44608,-0.02984 -0.52814,-0.23214z"/><path d="M545.32165,272.79246c0.09703,0.20864 -0.00423,0.44809 -0.21718,0.53446c-0.21295,0.08638 -0.4524,-0.01488 -0.53879,-0.22782c-0.08206,-0.2023 0.00855,-0.43744 0.2215,-0.52382c0.20863,-0.09703 0.43743,0.00854 0.53446,0.21717z"/><path d="M543.4721,247.75198c0.08206,0.2023 -0.01919,0.44176 -0.2215,0.52382c-0.20231,0.08206 -0.4268,-0.01287 -0.50886,-0.21518c-0.08206,-0.2023 0.0192,-0.44176 0.2215,-0.52382c0.19166,-0.07774 0.42679,0.01287 0.50885,0.21517z"/><path d="M550.03871,248.01463c0.19166,-0.07774 0.42679,0.01287 0.50885,0.21517c0.08206,0.2023 -0.01919,0.44176 -0.2215,0.52382c-0.20231,0.08206 -0.4268,-0.01287 -0.50886,-0.21517c-0.08206,-0.2023 0.0192,-0.44176 0.2215,-0.52382z"/><path d="M538.77355,271.50556c-0.08206,-0.20231 0.01287,-0.4268 0.21517,-0.50885c0.19166,-0.07774 0.41615,0.01719 0.49389,0.20885c0.08206,0.2023 -0.01287,0.42679 -0.21517,0.50885c-0.20231,0.08206 -0.4268,-0.01287 -0.49389,-0.20885z"/><path d="M537.08869,251.39523c-0.20231,0.08206 -0.41615,-0.01719 -0.49389,-0.20884c-0.08206,-0.20231 0.01287,-0.4268 0.21517,-0.50886c0.20231,-0.08206 0.43112,0.02351 0.50254,0.23013c0.07775,0.19165 -0.0215,0.40551 -0.22381,0.48756z"/><path d="M547.45432,273.46491c-0.2023,0.08206 -0.41614,-0.01719 -0.49821,-0.21948c-0.07774,-0.19166 0.01287,-0.4268 0.21517,-0.50886c0.20231,-0.08206 0.42047,0.02784 0.50254,0.23014c0.07142,0.20663 -0.01719,0.41615 -0.21949,0.49821z"/><path d="M555.49065,252.49882c-0.08206,-0.20231 0.00854,-0.43745 0.21085,-0.51951c0.19166,-0.07774 0.43112,0.02352 0.50886,0.21518c0.0671,0.19598 -0.02782,0.42046 -0.21949,0.49821c-0.19166,0.07774 -0.41615,-0.01718 -0.50022,-0.19387z"/><path d="M542.73302,273.13572c-0.18734,0.08839 -0.41815,0.00843 -0.51518,-0.2002c-0.0927,-0.19799 -0.0021,-0.43313 0.2002,-0.51518c0.19166,-0.07774 0.41615,0.01719 0.50455,0.20453c0.09271,0.19798 -0.00221,0.42248 -0.18955,0.51087z"/><path d="M538.5659,249.77928c0.08206,0.20231 -0.01287,0.4268 -0.21517,0.50886c-0.19166,0.07774 -0.41615,-0.0172 -0.49389,-0.20885c-0.08206,-0.2023 0.01287,-0.42679 0.21517,-0.50885c0.19166,-0.07774 0.41615,0.01719 0.49389,0.20884z"/><path d="M550.57464,272.32321c-0.08206,-0.20231 0.01287,-0.42681 0.20453,-0.50455c0.19166,-0.07774 0.41615,0.01719 0.49389,0.20884c0.07774,0.19166 -0.00654,0.41183 -0.1982,0.48957c-0.19166,0.07774 -0.41182,-0.00653 -0.50022,-0.19387z"/><path d="M554.60505,250.71295c0.18101,-0.07343 0.40118,0.01085 0.48958,0.19819c0.09271,0.19799 -0.00221,0.42248 -0.19388,0.50022c-0.19166,0.07774 -0.41183,-0.00654 -0.48957,-0.19819c-0.07774,-0.19166 0.00653,-0.41184 0.19387,-0.50022z"/><path d="M536.0375,251.98281c0.07342,0.18101 -0.01086,0.40119 -0.1982,0.48957c-0.18734,0.08838 -0.4075,0.00411 -0.4959,-0.18322c-0.08838,-0.18734 -0.0041,-0.40753 0.18323,-0.4959c0.18734,-0.08839 0.42248,0.00222 0.51087,0.18956z"/><path d="M532.69464,258.7201c0.18734,-0.08838 0.39686,0.00021 0.48526,0.18756c0.09271,0.19799 0.00843,0.41816 -0.19388,0.50023c-0.19166,0.07774 -0.41183,-0.00654 -0.48957,-0.1982c-0.07774,-0.19166 0.00653,-0.41183 0.19819,-0.48957z"/><path d="M559.17683,260.69991c0.07774,0.19166 -0.00654,0.41183 -0.1982,0.48957c-0.19166,0.07774 -0.40551,-0.02151 -0.47893,-0.20251c-0.07774,-0.19166 0.01086,-0.40119 0.19187,-0.47461c0.17669,-0.08407 0.38622,0.00454 0.48526,0.18756z"/><path d="M533.74895,265.38489c-0.18101,0.07342 -0.39486,-0.02582 -0.47893,-0.20251c-0.07342,-0.18101 0.0215,-0.40551 0.20251,-0.47893c0.19166,-0.07774 0.40551,0.0215 0.48325,0.21316c0.07774,0.19166 -0.01517,0.39054 -0.20684,0.46828z"/><path d="M556.59975,253.73525c-0.07342,-0.18101 0.02151,-0.40551 0.20251,-0.47893c0.19166,-0.07774 0.41616,0.01718 0.48326,0.21316c0.07774,0.19166 -0.01517,0.39054 -0.20684,0.46829c-0.18101,0.07343 -0.39487,-0.02582 -0.47893,-0.20251z"/><path d="M539.13817,248.98917c-0.07342,-0.18101 0.01517,-0.39055 0.19188,-0.47461c0.20231,-0.08206 0.41184,0.00653 0.48958,0.19819c0.07342,0.18101 -0.00453,0.38623 -0.1962,0.46397c-0.19166,0.07774 -0.40119,-0.01084 -0.48526,-0.18755z"/><path d="M532.82242,261.75571c-0.18734,0.0884 -0.39687,-0.00021 -0.47461,-0.19187c-0.07343,-0.18101 0.01084,-0.40118 0.19187,-0.4746c0.19166,-0.07774 0.41184,0.00654 0.48958,0.1982c0.07343,0.18101 -0.02582,0.39486 -0.20684,0.46828z"/><path d="M553.52156,249.47852c0.181,-0.07342 0.39053,0.01519 0.45331,0.20051c0.07342,0.18101 -0.00452,0.38623 -0.18553,0.45965c-0.18101,0.07343 -0.40551,-0.02151 -0.46828,-0.20683c-0.07342,-0.181 0.01949,-0.37989 0.2005,-0.45331z"/><path d="M557.10034,266.34077c0.18101,-0.07343 0.37558,0.00885 0.47029,0.18122c0.07774,0.19166 -0.01086,0.40118 -0.19187,0.4746c-0.18533,0.06277 -0.39055,-0.01518 -0.46397,-0.19619c-0.07343,-0.18101 0.00453,-0.38623 0.18553,-0.45965z"/><path d="M533.13867,257.00247c-0.181,0.07342 -0.37557,-0.00885 -0.44467,-0.17921c-0.07343,-0.18101 0.00883,-0.37557 0.18986,-0.44899c0.17036,-0.0691 0.36924,0.02382 0.43834,0.19418c0.07342,0.18101 -0.01316,0.36493 -0.18352,0.43403z"/><path d="M558.35108,263.34113c-0.07342,-0.181 0.00886,-0.37556 0.17921,-0.44466c0.181,-0.07342 0.37988,0.01951 0.4533,0.20051c0.0691,0.17036 -0.02381,0.36924 -0.19417,0.43834c-0.17036,0.0691 -0.36924,-0.02382 -0.43834,-0.19418z"/><path d="M558.8595,258.17517c0.17036,-0.0691 0.3606,0.00251 0.44467,0.1792c0.06478,0.15971 -0.00684,0.34996 -0.17288,0.42971c-0.17036,0.0691 -0.37558,-0.00885 -0.44468,-0.17921c-0.0691,-0.17036 0.00253,-0.3606 0.17289,-0.4297z"/><path d="M546.42615,247.0869c-0.0691,-0.17036 0.00252,-0.3606 0.18353,-0.43402c0.15971,-0.06479 0.3606,0.00252 0.4297,0.17288c0.07974,0.16604 -0.00886,0.37556 -0.17921,0.44466c-0.17036,0.06909 -0.36925,-0.02383 -0.43402,-0.18353z"/><path d="M534.11531,253.35767c-0.0691,-0.17036 0.01748,-0.35428 0.18784,-0.42338c0.17036,-0.0691 0.36061,0.00252 0.42971,0.17288c0.07342,0.181 -0.0195,0.37989 -0.19418,0.43835c-0.17036,0.0691 -0.35427,-0.01748 -0.42337,-0.18784z"/><path d="M558.34569,254.73816c0.06478,0.15971 -0.00685,0.34996 -0.16655,0.41474c-0.15539,0.07544 -0.34995,-0.00684 -0.41473,-0.16654c-0.07544,-0.1554 0.00684,-0.34996 0.16654,-0.41474c0.15539,-0.07544 0.34996,0.00684 0.41474,0.16654z"/><path d="M541.03906,247.62294c0.06478,0.1597 -0.01749,0.35427 -0.1772,0.41906c-0.15971,0.06479 -0.35429,-0.01749 -0.41907,-0.1772c-0.0691,-0.17035 0.01749,-0.35427 0.17721,-0.41906c0.17036,-0.0691 0.34996,0.00684 0.41906,0.1772z"/><path d="M539.93388,272.74601c-0.06479,-0.15971 0.00684,-0.34996 0.16223,-0.42539c0.15971,-0.06479 0.34997,0.00684 0.4254,0.16223c0.07544,0.1554 -0.00685,0.34996 -0.16223,0.42539c-0.16605,0.07975 -0.35629,0.00813 -0.42539,-0.16223z"/><path d="M549.37217,273.39375c-0.07544,-0.1554 0.00684,-0.34995 0.16654,-0.41473c0.15539,-0.07544 0.3606,0.00252 0.42538,0.16222c0.07544,0.15539 -0.00685,0.34996 -0.16655,0.41474c-0.17036,0.06909 -0.3606,-0.00253 -0.42538,-0.16223z"/><path d="M548.97681,246.83344c0.1597,-0.06479 0.32868,0.01548 0.39344,0.17519c0.05415,0.16404 -0.02613,0.33299 -0.18583,0.39777c-0.1597,0.06479 -0.32868,-0.01549 -0.39345,-0.1752c-0.06047,-0.14906 0.02613,-0.33298 0.18583,-0.39776z"/><path d="M552.66929,248.84469c-0.1597,0.06479 -0.33931,-0.01116 -0.40409,-0.17086c-0.06478,-0.15971 0.01117,-0.33931 0.17087,-0.4041c0.1597,-0.06478 0.33931,0.01117 0.40409,0.17087c0.06047,0.14906 -0.01548,0.32866 -0.17087,0.40409z"/><path d="M544.65327,246.69008c0.06479,0.1597 -0.01115,0.33931 -0.17086,0.4041c-0.1597,0.06479 -0.33931,-0.01117 -0.40409,-0.17087c-0.06479,-0.1597 0.01116,-0.3393 0.17086,-0.40409c0.1597,-0.06479 0.33931,0.01116 0.40409,0.17086z"/><path d="M532.79546,263.67617c0.06479,0.15971 -0.01548,0.32866 -0.1752,0.39344c-0.15971,0.06479 -0.32867,-0.01549 -0.39344,-0.1752c-0.06478,-0.15971 0.01548,-0.32866 0.1752,-0.39344c0.1597,-0.06479 0.3393,0.01116 0.39344,0.1752z"/><path d="M543.41645,274.14802c-0.06047,-0.14906 0.01348,-0.30304 0.16686,-0.35286c0.14909,-0.06047 0.30305,0.01348 0.36352,0.16255c0.05614,0.13841 -0.01348,0.30306 -0.16254,0.36352c-0.14273,0.0455 -0.3117,-0.03476 -0.36784,-0.17318z"/><path d="M546.15773,274.48683c-0.1534,0.04983 -0.30737,-0.02412 -0.36784,-0.17318c-0.06047,-0.14908 0.01347,-0.30306 0.16254,-0.36353c0.14909,-0.06047 0.30305,0.01348 0.36352,0.16255c0.05614,0.13841 -0.02412,0.30737 -0.15822,0.37416z"/><path d="M558.60425,265.82993c-0.14907,0.06046 -0.31801,-0.01979 -0.37415,-0.15822c-0.0455,-0.14274 0.03476,-0.31169 0.17318,-0.36783c0.13842,-0.05615 0.30737,0.02411 0.36352,0.16253c0.06047,0.14908 -0.01348,0.30306 -0.16254,0.36352z"/><path d="M535.4081,270.056c-0.0668,-0.1341 -0.0015,-0.30938 0.13692,-0.36552c0.1341,-0.06681 0.30938,-0.00151 0.36552,0.13692c0.06681,0.1341 0.00151,0.3094 -0.13692,0.36554c-0.1341,0.06681 -0.30939,0.0015 -0.36553,-0.13692z"/><path d="M534.45291,268.43478c0.13841,-0.05614 0.30305,0.01347 0.3592,0.15188c0.05615,0.13841 -0.01778,0.2924 -0.1562,0.34854c-0.14907,0.06047 -0.30305,-0.01347 -0.3592,-0.15189c-0.05614,-0.13841 0.01347,-0.30304 0.1562,-0.34854z"/><path d="M532.91714,254.43884c-0.06047,-0.14908 0.01348,-0.30305 0.16254,-0.36352c0.14273,-0.04549 0.29241,0.01779 0.34855,0.15621c0.06047,0.14907 -0.01347,0.30306 -0.15189,0.35921c-0.14907,0.06047 -0.29873,-0.00282 -0.3592,-0.15189z"/><path d="M558.9184,256.24176c-0.0668,-0.1341 -0.00783,-0.29441 0.13059,-0.35055c0.1341,-0.06679 0.29442,-0.00784 0.35056,0.13058c0.06247,0.12346 0.00351,0.28378 -0.11995,0.34625c-0.1341,0.06679 -0.29442,0.00784 -0.36121,-0.12627z"/><path d="M554.31231,271.32788c-0.05615,-0.13842 0.01778,-0.29241 0.14556,-0.34423c0.12777,-0.05181 0.27743,0.01146 0.32925,0.13923c0.0668,0.1341 0.00784,0.29442 -0.13058,0.35055c-0.12777,0.05181 -0.28809,-0.00714 -0.34423,-0.14556z"/><path d="M556.05781,270.03708c0.05615,0.13842 -0.00714,0.28809 -0.1349,0.33991c-0.1341,0.0668 -0.29441,0.00783 -0.35055,-0.13058c-0.05614,-0.13841 0.01346,-0.30305 0.14123,-0.35487c0.13842,-0.05614 0.29241,0.01778 0.34423,0.14555z"/><path d="M536.65215,270.95253c0.13842,-0.05614 0.28809,0.00715 0.33991,0.13491c0.05182,0.12776 -0.00715,0.28808 -0.13491,0.33991c-0.1341,0.06679 -0.29442,0.00782 -0.35056,-0.13059c-0.05182,-0.12778 0.00713,-0.28808 0.14555,-0.34422z"/><path d="M553.20013,272.10138c0.12779,-0.05183 0.27744,0.01145 0.32495,0.12858c0.05182,0.12779 -0.00081,0.27312 -0.12858,0.32495c-0.12345,0.06247 -0.28376,0.00351 -0.33559,-0.12427c-0.05182,-0.12778 0.01146,-0.27742 0.13923,-0.32925z"/><path d="M531.66582,260.40216c-0.12777,0.05183 -0.28174,-0.0221 -0.32293,-0.15419c-0.04118,-0.13209 0.01578,-0.26679 0.14355,-0.31861c0.13841,-0.05615 0.27312,0.0008 0.32926,0.13922c0.0455,0.14273 -0.0221,0.28175 -0.14987,0.33357z"/><path d="M531.50215,257.88949c-0.05181,-0.12778 0.0221,-0.28174 0.15419,-0.32293c0.12777,-0.05183 0.26247,0.00512 0.31429,0.13289c0.05182,0.12778 -0.01146,0.27742 -0.13923,0.32925c-0.12777,0.05181 -0.27744,-0.01146 -0.32926,-0.13923z"/><path d="M541.89732,246.40684c0.12777,-0.05183 0.27312,0.00081 0.32926,0.13923c0.05182,0.12779 -0.00512,0.26247 -0.12858,0.32494c-0.12345,0.06247 -0.28376,0.00351 -0.33559,-0.12426c-0.05181,-0.12778 0.00715,-0.28809 0.13491,-0.33992z"/><path d="M533.2322,267.50399c-0.05615,-0.13841 0.01145,-0.27743 0.14987,-0.33357c0.12777,-0.05183 0.28174,0.0221 0.32293,0.15419c0.04118,0.13209 -0.01576,0.26679 -0.14354,0.31862c-0.13842,0.05615 -0.27744,-0.01146 -0.32927,-0.13923z"/><path d="M551.37187,247.05227c0.13209,-0.04118 0.25614,0.02009 0.30365,0.13722c0.05182,0.12778 -0.00512,0.26247 -0.1329,0.31429c-0.12777,0.05183 -0.26247,-0.00513 -0.31429,-0.13291c-0.05182,-0.12778 0.01577,-0.26679 0.14354,-0.31861z"/><path d="M541.23344,273.6572c0.12777,-0.05183 0.26679,0.01578 0.30797,0.14787c0.04118,0.13209 -0.02009,0.25614 -0.13722,0.30365c-0.12777,0.05183 -0.26247,-0.00513 -0.31429,-0.1329c-0.05182,-0.12778 0.01578,-0.26679 0.14355,-0.31862z"/><path d="M548.31322,274.14566c0.13209,-0.04118 0.27111,0.02642 0.30797,0.14787c0.05182,0.12778 -0.01578,0.26678 -0.14787,0.30796c-0.12144,0.03686 -0.25614,-0.02008 -0.30365,-0.13721c-0.05182,-0.12778 0.01578,-0.26679 0.14355,-0.31862z"/><path d="M556.99923,268.81205c0.12779,-0.05183 0.26679,0.01578 0.30797,0.14787c0.05182,0.12778 -0.01578,0.26678 -0.14787,0.30795c-0.12144,0.03686 -0.25614,-0.02008 -0.30365,-0.13721c-0.05182,-0.12778 0.01578,-0.26679 0.14356,-0.31862z"/><path d="M559.83121,261.88521c0.12777,-0.05183 0.27742,0.01145 0.31429,0.13289c0.04751,0.11712 -0.00512,0.26247 -0.12224,0.30998c-0.12346,0.06247 -0.2688,0.00983 -0.32063,-0.11794c-0.05182,-0.12779 0.00081,-0.27312 0.12858,-0.32494z"/><path d="M560.00546,259.53305c0.11712,-0.04751 0.25182,0.00944 0.29933,0.12657c0.03686,0.12144 0.00321,0.22189 -0.12024,0.28436c-0.11281,0.05815 -0.25815,0.00552 -0.30566,-0.11161c-0.04751,-0.11713 0.00945,-0.25181 0.12657,-0.29932z"/><path d="M535.76333,249.56454c0.12144,-0.03686 0.21557,0.01176 0.27371,0.12456c0.05815,0.11281 0.0012,0.2475 -0.12024,0.28437c-0.11712,0.04751 -0.21123,-0.00112 -0.26507,-0.10326c-0.05182,-0.12778 -0.00553,-0.25815 0.1116,-0.30566z"/><path d="M537.05532,248.47012c0.10014,-0.02822 0.20059,0.00542 0.26307,0.12888c0.05815,0.1128 0.0012,0.2475 -0.12025,0.28437c-0.13209,0.04118 -0.22621,-0.00744 -0.28437,-0.12025c-0.05383,-0.10216 0.01378,-0.24117 0.14154,-0.293z"/><path d="M557.31704,251.16282c0.03254,0.1108 -0.00113,0.21125 -0.11393,0.2694c-0.11282,0.05815 -0.24751,0.00121 -0.29501,-0.11592c-0.05182,-0.12778 -0.0032,-0.22189 0.1096,-0.28005c0.11281,-0.05816 0.24751,-0.00121 0.29933,0.12657z"/><path d="M552.23975,273.37132c0.02823,0.10014 -0.00544,0.2006 -0.11824,0.25876c-0.11712,0.04751 -0.24751,0.0012 -0.29501,-0.11593c-0.04751,-0.11713 -0.0032,-0.22189 0.1096,-0.28005c0.1128,-0.05815 0.2475,-0.0012 0.30364,0.13722z"/><path d="M538.06949,272.39872c0.01757,0.10446 -0.00543,0.2006 -0.11823,0.25875c-0.1128,0.05815 -0.23685,-0.00312 -0.28436,-0.12025c-0.05182,-0.12778 -0.0032,-0.22189 0.1096,-0.28005c0.10216,-0.05384 0.24118,0.01376 0.293,0.14153z"/><path d="M531.62246,262.46564c0.03255,0.1108 -0.00111,0.21124 -0.12888,0.26307c-0.10215,0.05383 -0.24749,0.0012 -0.28435,-0.12025c-0.04118,-0.13209 0.00744,-0.22621 0.12024,-0.28436c0.10215,-0.05384 0.24118,0.01376 0.293,0.14153z"/><path d="M532.44773,266.33428c-0.10215,0.05383 -0.22621,-0.00744 -0.26939,-0.11392c-0.04751,-0.11712 -0.00953,-0.20693 0.10327,-0.26508c0.10215,-0.05383 0.22621,0.00744 0.27804,0.13521c0.02821,0.10014 -0.0204,0.19427 -0.11191,0.24379z"/><path d="M545.80885,245.62617c0.04319,0.10648 -0.01808,0.23054 -0.12888,0.26308c-0.12144,0.03686 -0.20491,-0.01609 -0.25876,-0.11824c-0.04319,-0.10648 0.01809,-0.23054 0.12456,-0.27371c0.1108,-0.03255 0.23486,0.02874 0.26308,0.12888z"/><path d="M547.90859,245.6672c0.10216,-0.05384 0.23686,0.00313 0.28005,0.1096c0.03888,0.09584 -0.01377,0.24117 -0.12456,0.27371c-0.12144,0.03685 -0.21125,-0.00112 -0.2694,-0.11392c-0.03254,-0.1108 0.00112,-0.21125 0.11391,-0.2694z"/><path d="M534.49498,250.68661c0.12144,-0.03685 0.21756,-0.01385 0.26507,0.10327c0.05383,0.10216 0.00752,0.23255 -0.09895,0.27573c-0.10648,0.0432 -0.22621,-0.00745 -0.2694,-0.11392c-0.04751,-0.11712 0.00112,-0.21124 0.10327,-0.26508z"/><path d="M559.57099,264.54503c-0.03686,-0.12144 0.02441,-0.2455 0.12456,-0.27371c0.12144,-0.03685 0.21125,0.00111 0.25876,0.11824c0.03686,0.12144 -0.00111,0.21125 -0.11391,0.2694c-0.09151,0.04952 -0.22621,-0.00744 -0.2694,-0.11392z"/><path d="M555.94051,249.78686c0.12144,-0.03685 0.21126,0.00111 0.25876,0.11824c0.04319,0.10648 -0.01809,0.23052 -0.12889,0.26307c-0.12144,0.03685 -0.20492,-0.01609 -0.25443,-0.10759c-0.04118,-0.13209 0.00945,-0.25183 0.12456,-0.27371z"/><path d="M538.39199,247.79151c-0.05354,-0.04028 -0.15399,-0.07393 -0.19055,-0.1335c-0.0688,-0.10849 -0.00954,-0.20693 0.10759,-0.25443c0.10648,-0.04319 0.20059,0.00544 0.24379,0.11191c0.04319,0.10648 0.00522,0.19628 -0.16082,0.27603z"/><path d="M558.09916,252.29629c0.02129,-0.00864 0.04259,-0.01729 0.07453,-0.03023c0.07914,0.04229 0.17959,0.07595 0.22048,0.14615c0.05384,0.10215 0.00955,0.20692 -0.10759,0.25443c-0.11712,0.04751 -0.22188,0.00321 -0.2481,-0.12255c-0.01527,-0.06821 0.03335,-0.16232 0.06068,-0.24779z"/><path d="M531.71064,255.56061c-0.00864,-0.02129 -0.01727,-0.04258 -0.04087,-0.07021c0.05725,-0.07282 0.07593,-0.1796 0.14615,-0.22048c0.10849,-0.06881 0.21325,-0.0245 0.26076,0.09262c0.04751,0.11713 0.01817,0.22822 -0.10759,0.25443c-0.07884,0.01959 -0.17729,-0.03968 -0.25845,-0.05636z"/><path d="M558.47864,268.08797c-0.1597,0.06479 -0.26016,0.03113 -0.31831,-0.08167c-0.04319,-0.10648 -0.00521,-0.19627 0.09694,-0.2501c0.11281,-0.05816 0.22822,-0.01818 0.26076,0.09261c0.01958,0.07885 -0.02905,0.17298 -0.03939,0.23917z"/><path d="M555.08153,248.64737c0.05384,0.10215 0.00522,0.19629 -0.10125,0.23947c-0.10648,0.04319 -0.21124,-0.00111 -0.23313,-0.11623c-0.01958,-0.07885 0.03335,-0.16232 0.07534,-0.30334c0.12836,0.07192 0.21816,0.10989 0.25904,0.1801z"/><path d="M560.0681,257.48653c-0.00864,-0.02129 -0.01729,-0.04259 -0.04089,-0.07022c0.04662,-0.0685 0.08027,-0.16895 0.13983,-0.20551c0.10215,-0.05383 0.20693,-0.00954 0.25011,0.09694c0.05384,0.10215 0.00954,0.20693 -0.10557,0.22881c-0.07885,0.01958 -0.16233,-0.03335 -0.24349,-0.05003z"/><path d="M543.15967,245.36163c0.02129,-0.00863 0.04259,-0.01729 0.07453,-0.03023c0.06419,0.03596 0.15399,0.07393 0.19055,0.1335c0.05384,0.10215 0.00953,0.20692 -0.09493,0.22449c-0.0682,0.01526 -0.18793,-0.03537 -0.20952,-0.0886c-0.03656,-0.05956 0.02271,-0.15801 0.03938,-0.23917z"/><path d="M533.16391,252.08208c-0.01296,-0.03193 -0.02159,-0.05324 -0.02391,-0.0895c0.05093,-0.05785 0.08026,-0.16894 0.13782,-0.1799c0.05755,-0.01095 0.17297,0.02902 0.20952,0.08859c0.06449,0.09783 0.02018,0.20259 -0.09493,0.22449c-0.06821,0.01526 -0.14736,-0.02701 -0.22853,-0.04369z"/><path d="M544.66306,275.14271c0.02129,-0.00864 0.04259,-0.01729 0.07022,-0.04089c0.06419,0.03595 0.16032,0.05897 0.19687,0.11853c0.06449,0.09783 0.02019,0.20261 -0.07995,0.23082c-0.06388,0.02591 -0.18362,-0.02471 -0.21587,-0.07364c-0.0216,-0.05324 0.01205,-0.15369 0.02873,-0.23485z"/><path d="M538.90921,273.52124c0.0685,0.04662 0.16895,0.08026 0.19055,0.1335c0.02591,0.06388 -0.01407,0.17929 -0.07364,0.21585c-0.08286,0.07082 -0.19196,0.01587 -0.22017,-0.08427c-0.01527,-0.06821 0.02701,-0.14735 0.04369,-0.22851c0.02129,-0.00864 0.04259,-0.01728 0.05957,-0.03656z"/><path d="M559.25347,253.61358c0.05755,-0.01095 0.17297,0.02903 0.20521,0.07796c0.06017,0.08719 0.01154,0.18131 -0.0886,0.20953c-0.06388,0.02592 -0.14303,-0.01637 -0.26909,-0.05204c0.06559,-0.1134 0.09925,-0.21385 0.15249,-0.23545z"/><path d="M550.67605,274.31557c0.11773,0.07625 0.21385,0.09925 0.23544,0.15249c0.02159,0.05324 -0.0184,0.16865 -0.06731,0.2009c-0.08287,0.07081 -0.18765,0.02651 -0.21586,-0.07364c-0.02592,-0.06389 0.01637,-0.14304 0.04772,-0.27975z"/><path d="M550.25844,245.80519c0.11773,0.07624 0.21818,0.10989 0.22912,0.16745c0.0216,0.05324 -0.03335,0.16232 -0.08227,0.19457c-0.08719,0.06017 -0.19195,0.01587 -0.20952,-0.08859c-0.01527,-0.06821 0.02703,-0.14736 0.06268,-0.27343z"/><path d="M547.08111,275.26541c0.09211,0.07424 0.18192,0.1122 0.19486,0.14414c0.01095,0.05756 -0.04631,0.13038 -0.07162,0.19025c-0.06419,-0.03595 -0.156,-0.04831 -0.18823,-0.09724c-0.02793,-0.03827 0.02503,-0.12174 0.065,-0.23716z"/><path d="M542.61224,275.06941c-0.05927,0.09845 -0.08227,0.19458 -0.12918,0.20121c-0.05324,0.0216 -0.12606,-0.03567 -0.19658,-0.05666c0.021,-0.07051 0.03335,-0.16231 0.08227,-0.19456c0.03827,-0.02792 0.1324,0.0207 0.24349,0.05003z"/><path d="M531.18516,264.68893c0.09845,0.05927 0.18823,0.09724 0.19486,0.14414c0.01095,0.05755 -0.04631,0.13037 -0.07162,0.19023c-0.05987,-0.02532 -0.156,-0.04831 -0.18823,-0.09724c-0.02792,-0.03828 0.02503,-0.12174 0.065,-0.23716z"/><path d="M539.55179,246.27953c0.09844,0.05927 0.20953,0.0886 0.21184,0.12486c0.01095,0.05755 -0.04631,0.13037 -0.07795,0.2052c-0.05987,-0.02532 -0.16232,-0.03335 -0.18392,-0.08659c-0.01728,-0.04259 0.02501,-0.12175 0.05003,-0.24349z"/><path d="M553.76922,247.30737c0.06188,-0.00031 0.13469,0.05695 0.19889,0.09292c-0.03595,0.06419 -0.04832,0.15599 -0.10156,0.17759c-0.05324,0.02159 -0.13672,-0.03134 -0.2478,-0.06067c0.05926,-0.09844 0.09292,-0.19889 0.15048,-0.20983z"/><path d="M559.42666,266.90986c0.04863,-0.09413 0.07595,-0.1796 0.12918,-0.20121c0.05756,-0.01094 0.12606,0.03566 0.18593,0.06098c-0.02532,0.05986 -0.04199,0.14102 -0.08026,0.16895c-0.04892,0.03224 -0.12807,-0.01004 -0.23484,-0.02873z"/><path d="M530.3903,258.72486c0.09413,0.04862 0.19024,0.07163 0.20319,0.10356c0.01094,0.05756 -0.03565,0.12606 -0.05666,0.19657c-0.05556,-0.01467 -0.14735,-0.02703 -0.17528,-0.06529c-0.01728,-0.04259 0.01004,-0.12807 0.02873,-0.23485z"/><path d="M530.35193,261.38148c-0.0469,0.00662 -0.10476,-0.0443 -0.16463,-0.06961c0.02532,-0.05986 0.04199,-0.14102 0.08458,-0.1583c0.04259,-0.01728 0.10678,0.01868 0.21787,0.04801c-0.0636,0.08778 -0.09523,0.16262 -0.13782,0.1799z"/><path d="M561.3054,260.96484c0.00662,0.0469 -0.03567,0.12607 -0.0676,0.13902c-0.03193,0.01295 -0.12173,-0.02502 -0.13902,-0.06761c-0.02361,-0.02762 0.023,-0.09612 0.04599,-0.19226c0.07282,0.05726 0.14334,0.07825 0.16063,0.12084z"/><path d="M532.16141,253.03428c0.01728,0.04258 -0.02069,0.1324 -0.05263,0.14534c-0.04258,0.01727 -0.11743,-0.01437 -0.14535,-0.05264c-0.02793,-0.03827 0.00805,-0.10245 0.03105,-0.19858c0.07915,0.04229 0.1603,0.05897 0.16693,0.10588z"/><path d="M533.34603,269.86331c-0.03193,0.01295 -0.11742,-0.01437 -0.13037,-0.04631c-0.01296,-0.03194 0.01436,-0.11743 0.04631,-0.13038c0.02762,-0.0236 0.09181,0.01236 0.17297,0.02903c-0.04229,0.07915 -0.05265,0.14534 -0.08891,0.14765z"/><path d="M560.35424,254.89058c0.07483,0.03165 0.14534,0.05265 0.14765,0.08891c0.01728,0.04258 -0.02301,0.09613 -0.04199,0.14102c-0.04489,-0.01898 -0.12173,-0.02502 -0.13469,-0.05695c-0.02361,-0.02762 0.01235,-0.09181 0.02902,-0.17297z"/><path d="M560.97287,263.23243c0.0685,0.04662 0.13902,0.06761 0.14765,0.0889c0.01728,0.04258 -0.02301,0.09614 -0.04199,0.14103c-0.04489,-0.01898 -0.12174,-0.02503 -0.1347,-0.05695c-0.02361,-0.02762 0.01235,-0.0918 0.02903,-0.17296z"/><path d="M534.52073,270.98633c-0.03597,0.06417 -0.05695,0.1347 -0.09955,0.15197c-0.0469,0.00663 -0.12174,-0.02502 -0.13469,-0.05695c-0.01296,-0.03193 0.02501,-0.12175 0.05695,-0.1347c0.0426,-0.01727 0.09614,0.02301 0.1773,0.03969z"/><path d="M530.57748,256.40464c0.06419,0.03595 0.1347,0.05697 0.14765,0.08891c0.01296,0.03193 -0.01436,0.11742 -0.04631,0.13037c-0.03193,0.01295 -0.10677,-0.01869 -0.13037,-0.04632c-0.01296,-0.03194 0.01236,-0.0918 0.02903,-0.17296z"/><path d="M547.00701,244.545c-0.03597,0.06417 -0.05063,0.11974 -0.08258,0.13269c-0.03195,0.01295 -0.08117,-0.01669 -0.12605,-0.03567c0.01898,-0.04489 0.01868,-0.10678 0.05063,-0.11973c0.02762,-0.02361 0.07685,0.00603 0.15801,0.0227z"/><path d="M561.3127,258.50682c0.05785,0.05093 0.11773,0.07624 0.12636,0.09754c0.01296,0.03193 -0.03164,0.07484 -0.05062,0.11973c-0.04489,-0.01898 -0.10045,-0.03366 -0.1134,-0.0656c-0.01296,-0.03195 0.01667,-0.08117 0.03767,-0.15168z"/><path d="M556.85754,271.27502c0.06418,0.03596 0.11973,0.05065 0.13268,0.08258c0.01296,0.03193 -0.01668,0.08116 -0.03566,0.12605c-0.04489,-0.01898 -0.10677,-0.01869 -0.11973,-0.05063c-0.01296,-0.03195 0.01667,-0.08117 0.0227,-0.15801z"/><path d="M535.46984,272.22568c0.03195,-0.01296 0.09614,0.02301 0.10909,0.05494c0.01296,0.03193 -0.02301,0.09613 -0.05495,0.10907c-0.03195,0.01296 -0.08547,-0.02732 -0.15599,-0.04831c0.03595,-0.06419 0.06559,-0.1134 0.10185,-0.11571z"/><path d="M549.62382,275.57314c-0.03165,0.07483 -0.05063,0.11973 -0.09322,0.13701c-0.03193,0.01296 -0.10244,-0.00805 -0.11109,-0.02933c-0.00662,-0.0469 0.00804,-0.10245 0.03566,-0.12605c0.03195,-0.01296 0.09181,0.01236 0.16865,0.01839z"/><path d="M540.13662,274.95765c0.01296,0.03194 -0.02301,0.09614 -0.04431,0.10477c-0.03626,0.00231 -0.10677,-0.0187 -0.11973,-0.05064c-0.00864,-0.0213 0.02732,-0.08547 0.04831,-0.15599c0.05787,0.05093 0.11773,0.07623 0.11571,0.10186z"/></g><path d="M543.98502,269.90489c-2.0352,-5.01737 0.38235,-10.73461 5.39973,-12.76981c5.01738,-2.0352 10.73462,0.38235 12.76982,5.39972c2.0352,5.01738 -0.38236,10.73461 -5.39973,12.76981c-5.01738,2.0352 -10.73462,-0.38235 -12.76982,-5.39972z" fill="none" stroke="#000000" stroke-width="1" stroke-linecap="butt"/><path d="M542.80063,270.38531c-2.30053,-5.67149 0.43219,-12.1341 6.10368,-14.43463c5.67149,-2.30053 12.13409,0.43219 14.43462,6.10368c2.30052,5.6715 -0.43218,12.1341 -6.10368,14.43463c-5.6715,2.30053 -12.13409,-0.43218 -14.43463,-6.10368z" fill="none" stroke="#000000" stroke-width="1" stroke-linecap="butt"/><path d="M557.80303,277.88872c-6.44455,2.61409 -13.78802,-0.49109 -16.40212,-6.93563c-2.61409,-6.44455 0.4911,-13.78803 6.93563,-16.40213c6.44455,-2.61409 13.78803,0.4911 16.40213,6.93564c2.61409,6.44455 -0.4911,13.78802 -6.93564,16.40212z" fill="none" stroke="#000000" stroke-width="1" stroke-linecap="butt"/><path d="M545.6001,269.24976c-1.67338,-4.12541 0.31436,-8.82624 4.43976,-10.49963c4.12539,-1.67337 8.82625,0.31436 10.49963,4.43976c1.67338,4.12541 -0.31437,8.82625 -4.43977,10.49963c-4.12539,1.67337 -8.82624,-0.31437 -10.49962,-4.43976z" fill="#000000" stroke="#000000" stroke-width="1" stroke-linecap="butt"/><path d="M532.45364,288.65704c0,0 -5.31322,-7.99827 -7.01754,-12.19993c-1.58436,-3.90594 -2.87477,-12.18762 -2.87477,-12.18762l3.23014,-1.31024l9.89231,24.38755z" fill="#393912" stroke="none" stroke-width="0" stroke-linecap="butt"/><path d="M560.85187,262.76214l-1.64161,-4.35614l70.44745,-26.94268c0,0 0.81126,-0.5913 1.39086,-1.51595c0.68185,-1.08779 1.21742,-2.56322 2.29521,-2.99724c1.95679,-0.78799 4.3494,-0.79343 6.07689,-1.37096c4.07381,-1.36194 6.82546,-2.86604 8.5258,-3.46746c1.65125,-0.58405 1.482,0.89906 1.97051,2.01419c0.43488,0.99271 1.61445,1.60317 1.61445,1.60317l0.12669,0.31234c0,0 -0.42097,1.2597 -0.04142,2.27484c0.42637,1.14034 1.58098,2.08647 -0.01052,2.81777c-1.63883,0.75305 -4.66074,1.59087 -8.53218,3.45175c-1.64167,0.7891 -3.36197,2.45199 -5.31476,3.24983c-1.0756,0.43945 -2.48766,-0.24596 -3.73463,-0.55136c-1.05997,-0.2596 -2.05392,-0.11865 -2.05392,-0.11865l-69.30991,29.74702l-1.85692,-4.2688z" data-paper-data="{&quot;index&quot;:null}" fill="#393912" stroke="none" stroke-width="0" stroke-linecap="round"/><g fill="#dfe0e2" stroke="none" stroke-width="0" stroke-linecap="butt"><g><path d="M648.10615,235.52264c-1.85129,0.70813 -1.65695,-0.49141 -1.87404,-1.0266c-0.21709,-0.53519 1.74914,-1.08567 2.57422,-1.42035c0.82509,-0.33467 0.98622,1.8019 -0.70018,2.44694z"/><path d="M646.35176,232.47267l0.96904,-0.39308l0.78616,1.93808l-0.96905,0.39308z"/></g><g><path d="M644.38469,235.62157c0.82508,-0.33467 0.98623,1.80189 -0.70018,2.44694c-1.85131,0.70813 -1.65696,-0.49141 -1.87405,-1.0266c-0.21709,-0.53519 1.74914,-1.08566 2.57422,-1.42034z"/><path d="M641.93011,235.01855l0.96904,-0.39307l0.78615,1.93808l-0.96905,0.39306z"/></g><g><path d="M639.64002,238.29848c0.82509,-0.33467 0.98622,1.8019 -0.70018,2.44694c-1.85131,0.70813 -1.65695,-0.49141 -1.87404,-1.02661c-0.21709,-0.53519 1.74914,-1.08565 2.57422,-1.42033z"/><path d="M637.18546,237.69544l0.96904,-0.39307l0.78615,1.93808l-0.96904,0.39308z"/></g></g><g data-paper-data="{&quot;index&quot;:null}" fill="#dfe0e2" stroke="none" stroke-width="0" stroke-linecap="butt"><g><path d="M644.51547,222.49746c-0.82508,0.33467 -2.61917,1.3095 -2.83626,0.77431c-0.21709,-0.53519 -1.19216,-1.26036 0.62931,-2.04203c1.65924,-0.71204 3.03202,0.93305 2.20695,1.26772z"/><path d="M642.38847,222.70195l0.96905,-0.39307l0.78615,1.93809l-0.96904,0.39306z"/></g><g><path d="M639.56973,223.75125c-0.82509,0.33467 -2.61918,1.3095 -2.83627,0.7743c-0.21709,-0.53519 -1.19216,-1.26035 0.62931,-2.04203c1.65924,-0.71204 3.03203,0.93305 2.20695,1.26772z"/><path d="M637.44271,223.95575l0.96904,-0.39307l0.78615,1.93808l-0.96904,0.39307z"/></g><g><path d="M632.09401,223.8684c1.65924,-0.71204 3.03204,0.93305 2.20696,1.26772c-0.82509,0.33467 -2.61918,1.3095 -2.83627,0.77431c-0.21709,-0.53519 -1.19216,-1.26037 0.62931,-2.04204z"/><path d="M632.17396,225.34061l0.96905,-0.39306l0.78615,1.93808l-0.96904,0.39306z"/></g></g><path d="M646.5697,230.69154c-0.23518,-0.57979 0.04418,-1.24043 0.62397,-1.47562c0.57979,-0.23518 1.24044,0.04418 1.47562,0.62397c0.23518,0.57979 -0.04418,1.24044 -0.62397,1.47562c-0.57979,0.23518 -1.24044,-0.04418 -1.47562,-0.62397z" fill="#dfe0e2" stroke="none" stroke-width="0" stroke-linecap="butt"/><path d="M644.57159,225.76558c-0.23518,-0.57979 0.04418,-1.24044 0.62397,-1.47562c0.57979,-0.23518 1.24044,0.04418 1.47562,0.62397c0.23518,0.57979 -0.04418,1.24044 -0.62397,1.47562c-0.57979,0.23518 -1.24044,-0.04418 -1.47562,-0.62397z" fill="#dfe0e2" stroke="none" stroke-width="0" stroke-linecap="butt"/><path d="M639.5146,227.4407c-0.23518,-0.57979 0.04417,-1.24044 0.62396,-1.47562c0.57979,-0.23518 1.24044,0.04418 1.47562,0.62397c0.23518,0.57979 -0.04418,1.24044 -0.62397,1.47562c-0.57979,0.23518 -1.24044,-0.04418 -1.47562,-0.62397z" fill="#dfe0e2" stroke="none" stroke-width="0" stroke-linecap="butt"/><path d="M634.21309,228.74476c-0.23518,-0.57979 0.04417,-1.24044 0.62396,-1.47562c0.57979,-0.23518 1.24044,0.04418 1.47562,0.62397c0.23518,0.57979 -0.04418,1.24043 -0.62397,1.47562c-0.57979,0.23518 -1.24044,-0.04418 -1.47562,-0.62397z" fill="#dfe0e2" stroke="none" stroke-width="0" stroke-linecap="butt"/><path d="M641.69401,233.04544c-0.23518,-0.57979 0.04418,-1.24043 0.62397,-1.47562c0.57979,-0.23518 1.24044,0.04417 1.47562,0.62396c0.23518,0.57979 -0.04418,1.24044 -0.62397,1.47562c-0.57979,0.23518 -1.24044,-0.04418 -1.47562,-0.62397z" fill="#dfe0e2" stroke="none" stroke-width="0" stroke-linecap="butt"/><path d="M636.83581,235.67434c-0.23518,-0.57979 0.04418,-1.24044 0.62397,-1.47562c0.57979,-0.23518 1.24045,0.04418 1.47563,0.62397c0.23518,0.57979 -0.04418,1.24044 -0.62397,1.47562c-0.57979,0.23518 -1.24044,-0.04417 -1.47562,-0.62396z" fill="#dfe0e2" stroke="none" stroke-width="0" stroke-linecap="butt"/><g fill="none" stroke="#dfe0e2" stroke-width="0.5" stroke-linecap="round"><path d="M529.46336,280.4335c0,0 33.17049,-14.38915 50.54457,-21.64444c18.49172,-7.722 57.26203,-23.37478 57.26203,-23.37478"/><path d="M528.51265,278.8846c0,0 33.45156,-13.87903 51.37248,-21.19927c19.68397,-8.04041 61.93925,-25.08573 61.93925,-25.08573"/><path d="M527.65424,277.29824c0,0 48.10314,-20.26928 68.94894,-28.48056c13.86504,-5.46152 34.80127,-13.29755 44.65841,-16.80603c3.38608,-1.20521 5.56386,-1.65557 5.56386,-1.65557"/></g><g data-paper-data="{&quot;index&quot;:null}" fill="none" stroke="#dfe0e2" stroke-width="0.5" stroke-linecap="round"><path d="M634.79084,229.3025c0,0 -38.71903,15.77917 -57.36486,23.12125c-17.51889,6.89832 -51.34018,19.68302 -51.34018,19.68302"/><path d="M640.16365,227.44555c0,0 -3.88854,1.85987 -9.83497,4.36472c-13.71798,5.7785 -38.46305,15.94895 -52.2219,21.49088c-17.95644,7.23267 -51.62401,20.57914 -51.62401,20.57914"/><path d="M645.16992,226.27467c0,0 -1.87613,1.19402 -5.14499,2.68824c-9.51589,4.34978 -29.99489,13.31301 -43.7467,19.05369c-20.67555,8.63101 -69.3062,27.59978 -69.3062,27.59978"/></g><path d="M526.98364,269.83841l4.24758,11.63077" fill="none" stroke="#dfe0e2" stroke-width="0.5" stroke-linecap="round"/><g fill="#dfe0e2" stroke="none" stroke-width="0" stroke-linecap="butt"><path d="M529.48109,281.4225c-0.43788,0.17761 -0.93684,-0.03336 -1.11446,-0.47126c-0.17761,-0.43788 0.03337,-0.93685 0.47125,-1.11446c0.43788,-0.17761 0.93684,0.03336 1.11446,0.47126c0.17762,0.43788 -0.03337,0.93684 -0.47125,1.11445z"/><path d="M527.5805,279.01316c-0.17761,-0.43787 0.03336,-0.93684 0.47125,-1.11445c0.43788,-0.17761 0.93682,0.03336 1.11445,0.47125c0.17761,0.43788 -0.03336,0.93684 -0.47125,1.11445c-0.43787,0.17762 -0.93682,-0.03336 -1.11445,-0.47125z"/></g><path d="M524.84089,272.25923c-0.17761,-0.43787 0.03336,-0.93684 0.47125,-1.11445c0.43788,-0.17761 0.93684,0.03336 1.11446,0.47125c0.17762,0.43788 -0.03337,0.93684 -0.47125,1.11445c-0.43787,0.17762 -0.93683,-0.03335 -1.11445,-0.47124z" fill="#dfe0e2" stroke="none" stroke-width="0" stroke-linecap="butt"/><path d="M526.09829,273.08286c0.43788,-0.17761 0.93682,0.03336 1.11445,0.47125c0.17761,0.43788 -0.03336,0.93684 -0.47124,1.11445c-0.43787,0.17762 -0.93683,-0.03335 -1.11445,-0.47124c-0.17761,-0.43788 0.03337,-0.93685 0.47125,-1.11446z" fill="#dfe0e2" stroke="none" stroke-width="0" stroke-linecap="butt"/><path d="M526.86255,274.75624c0.3649,-0.14801 0.7807,0.02781 0.92871,0.3927c0.14801,0.3649 -0.02781,0.78071 -0.3927,0.92872c-0.3649,0.148 -0.7807,-0.02781 -0.92871,-0.39271c-0.14801,-0.3649 0.02781,-0.7807 0.3927,-0.92871z" fill="#dfe0e2" stroke="none" stroke-width="0" stroke-linecap="butt"/><path d="M527.51767,276.37131c0.36491,-0.14801 0.7807,0.02781 0.92872,0.3927c0.14801,0.3649 -0.02781,0.7807 -0.39271,0.92872c-0.3649,0.14801 -0.7807,-0.02781 -0.92871,-0.3927c-0.14801,-0.3649 0.02781,-0.7807 0.3927,-0.92871z" fill="#dfe0e2" stroke="none" stroke-width="0" stroke-linecap="butt"/><g fill="#7d7d00" stroke="none" stroke-width="1" stroke-linecap="butt"><path d="M509.83973,263.88115c0.21877,-1.02485 0.84466,-1.50756 1.10915,-0.85555l7.22779,17.81869c0.18477,0.45551 0.0886,1.29541 -0.21112,1.86425l-0.72543,1.36558c-0.29972,0.56884 -0.39588,1.40874 -0.21111,1.86425l2.78242,6.85952c0.18477,0.45551 0.08859,1.29542 -0.21114,1.86425l-0.73074,1.37814c-0.29972,0.56883 -0.70022,0.65848 -0.88499,0.20297l-6.95606,-17.14882c-0.11956,-0.29474 -0.12712,-0.74933 -0.02196,-1.20804l0.81287,-3.63732c0.10516,-0.45871 0.09398,-0.92223 -0.02196,-1.20804l-2.39477,-5.90384c-0.11956,-0.29474 -0.12713,-0.74932 -0.02197,-1.20803z"/></g></g><path d="M554.1884,296.089c0,6.88013 -5.27596,12.45758 -11.78419,12.45758c-6.50823,0 -11.7842,-5.57745 -11.7842,-12.45758c0,-6.88013 5.27596,-12.45757 11.7842,-12.45757c6.50823,0 11.7842,5.57744 11.7842,12.45757z" fill="#ecec60" stroke="#000000" stroke-width="2" stroke-linecap="butt"/><path d="M630.41458,246.39263c0,6.88013 -5.27596,12.45758 -11.7842,12.45758c-6.50823,0 -11.78419,-5.57745 -11.78419,-12.45758c0,-6.88013 5.27596,-12.45757 11.7842,-12.45757c6.50823,0 11.7842,5.57744 11.7842,12.45757z" fill="#ecec60" stroke="#000000" stroke-width="2" stroke-linecap="butt"/></g></g></svg>