<svg version="1.1" xmlns="http://www.w3.org/2000/svg" xmlns:xlink="http://www.w3.org/1999/xlink" width="34.17311" height="34.17311" viewBox="0,0,34.17311,34.17311"><g transform="translate(-302.91347,-162.91346)"><g data-paper-data="{&quot;isPaintingLayer&quot;:true}" stroke-miterlimit="10" stroke-dasharray="" stroke-dashoffset="0" style="mix-blend-mode: normal"><path d="M309.98313,162.91346h20.03379c3.9166,0 7.06966,3.15307 7.06966,7.06966v20.03379c0,3.91659 -3.15306,7.06966 -7.06966,7.06966h-20.03379c-3.91659,0 -7.06966,-3.15307 -7.06966,-7.06966v-20.03379c0,-3.91659 3.15307,-7.06966 7.06966,-7.06966z" fill="#a0a300" fill-rule="evenodd" stroke="none" stroke-width="4.43922" stroke-linecap="round" stroke-linejoin="round"/><g fill="#000000" fill-rule="nonzero" stroke="#c1bc17" stroke-width="0.5" stroke-linecap="butt" stroke-linejoin="miter"><path d="M335.51416,184.24449c0,2.15137 -7.14491,3.89541 -15.9586,3.89541c-8.81369,0 -15.95861,-1.74404 -15.95861,-3.89541c0,-2.15137 7.14491,-3.89541 15.95861,-3.89541c8.81369,0 15.9586,1.74403 15.9586,3.89541z"/><path d="M309.62855,184.17389v-9.98839c0,0 2.2867,-2.16915 10.20278,-2.31873c8.00142,-0.1512 9.65123,2.31873 9.65123,2.31873v9.98839c0,0 -2.10636,1.12852 -9.71405,0.95128c-6.79874,-0.15839 -10.13995,-0.95128 -10.13995,-0.95128z"/></g></g></g></svg>