<svg version="1.1" xmlns="http://www.w3.org/2000/svg" xmlns:xlink="http://www.w3.org/1999/xlink" width="217.48734" height="290.73946" viewBox="0,0,217.48734,290.73946"><g transform="translate(-190.22281,-31.88907)"><g data-paper-data="{&quot;isPaintingLayer&quot;:true}" fill-rule="nonzero" stroke-linejoin="miter" stroke-miterlimit="10" stroke-dasharray="" stroke-dashoffset="0" style="mix-blend-mode: normal"><path d="M266.82948,170.22663l-74.14604,-80.70883l82.66239,6.62104" fill="#d9d97d" stroke="#000000" stroke-width="2" stroke-linecap="round"/><path d="M338.01442,82.62946l67.30879,-48.44002l-21.68393,107.4307" data-paper-data="{&quot;index&quot;:null}" fill="#d9d97d" stroke="#000000" stroke-width="2" stroke-linecap="round"/><path d="M296.39052,194.35888l-33.32655,7.02436l10.08052,-23.82913l-33.59079,2.25907l21.60052,-18.33563" fill="#d9d97d" stroke="#000000" stroke-width="2" stroke-linecap="round"/><path d="M295.9584,194.35691l-30.95626,5.42611l10.52609,-23.4404l-31.62461,0.94506l3.85192,-3.34126l27.74786,2.4297l-8.39788,18.74355z" fill="#b6b14b" stroke="none" stroke-width="0" stroke-linecap="round"/><path d="M379.32523,151.50838l25.22785,12.89705l-33.21444,5.49961l15.27352,20.88454l-34.04936,0.8006" data-paper-data="{&quot;index&quot;:null}" fill="#d9d97d" stroke="#000000" stroke-width="2" stroke-linecap="round"/><path d="M383.81544,185.90458l-11.54211,-16.98896l26.89715,-7.23811l4.37622,2.61723l-31.30368,4.59223l14.45785,21.24197l-31.42816,0.06332z" data-paper-data="{&quot;index&quot;:null}" fill="#b6b14b" stroke="none" stroke-width="0" stroke-linecap="round"/><path d="M286.35186,321.62852l15.14285,-131.8421l37.78325,-0.15789l13.57389,132z" fill="#d9d97d" stroke="#000000" stroke-width="2" stroke-linecap="butt"/><path d="M299.88496,217.6583l3.12142,-26.32765l35.83075,-0.14203l2.76735,26.1059c0,0 -7.51543,4.19603 -21.55904,4.50964c-12.48458,0.27879 -20.16049,-4.14586 -20.16049,-4.14586z" fill="#b6b14b" stroke="#000000" stroke-width="0" stroke-linecap="butt"/><path d="M256.31484,151.61632c-6.17776,-32.72383 17.0749,-64.58691 51.93624,-71.16819c34.86134,-6.58129 68.1301,14.61142 74.30785,47.33525c6.17776,32.72383 -17.07489,64.58691 -51.93623,71.1682c-34.86134,6.58128 -68.1301,-14.61143 -74.30785,-47.33526z" fill="#d9d97d" stroke="#000000" stroke-width="2" stroke-linecap="butt"/><path d="M328.53575,195.3596c22.58008,-2.86803 37.44359,-15.77506 36.57868,-14.95188c-9.44642,8.99069 -21.92497,15.31992 -36.14982,17.37953c-14.08759,2.03973 -27.7205,-0.42197 -39.25801,-6.24145c-0.4378,-0.22082 16.24907,6.68186 38.82916,3.81381z" fill="#b6b14b" stroke="#000000" stroke-width="0" stroke-linecap="butt"/><path d="M269.75659,149.35923c-2.40566,-12.74293 5.97433,-25.02327 18.71725,-27.42893c12.74293,-2.40566 25.02327,5.97432 27.42894,18.71724c2.40566,12.74293 -5.97432,25.02327 -18.71725,27.42895c-12.74293,2.40566 -25.02328,-5.97433 -27.42894,-18.71726z" fill="#c5c556" stroke="#000000" stroke-width="2" stroke-linecap="butt"/><path d="M342.35485,169.92179c0,0 -10.80303,20.61697 -19.34966,21.57995c-8.54662,0.96298 -24.40523,-16.64988 -24.40523,-16.64988z" fill="#000000" stroke="#000000" stroke-width="2" stroke-linecap="round"/><path d="M350.50219,158.01113c-12.74293,2.40566 -25.02327,-5.97434 -27.42893,-18.71726c-2.40566,-12.74293 5.97432,-25.02327 18.71724,-27.42893c12.74293,-2.40566 25.02327,5.97431 27.42895,18.71724c2.40566,12.74293 -5.97433,25.02328 -18.71726,27.42895z" data-paper-data="{&quot;index&quot;:null}" fill="#ffffff" stroke="#000000" stroke-width="2" stroke-linecap="butt"/><path d="M266.11943,138.42781l4.08224,1.74794" fill="none" stroke="#000000" stroke-width="2" stroke-linecap="round"/><path d="M368.6639,130.17828l3.49637,-4.12011" fill="none" stroke="#000000" stroke-width="2" stroke-linecap="round"/><path d="M276.83073,118.7064c0,0 5.63357,-6.32406 10.41195,-8.44157c4.77839,-2.11751 12.24978,-1.60084 12.24978,-1.60084c0,0 -7.90978,1.43189 -11.59998,3.06719c-3.8564,1.70895 -11.06176,6.97522 -11.06176,6.97522z" fill="#000000" stroke="none" stroke-width="0" stroke-linecap="butt"/><path d="M338.76471,102.1273c-4.0324,-0.17738 -11.91982,1.37298 -11.91982,1.37298c0,0 6.76879,-3.20499 11.9903,-2.97531c5.2215,0.22969 12.77293,4.06461 12.77293,4.06461c0,0 -8.62941,-2.27691 -12.84342,-2.46229z" data-paper-data="{&quot;index&quot;:null}" fill="#000000" stroke="none" stroke-width="0" stroke-linecap="butt"/><path d="M363.3949,138.30586c0,8.29966 -6.72818,15.02785 -15.02783,15.02785c-8.29964,0 -15.02784,-6.72821 -15.02784,-15.02785c0,-8.29966 6.7282,-15.02785 15.02784,-15.02785c8.29964,0 15.02783,6.7282 15.02783,15.02784z" data-paper-data="{&quot;index&quot;:null}" fill="none" stroke="#000000" stroke-width="5" stroke-linecap="butt"/><path d="M351.43812,149.24884c-14.61852,7.02791 -26.47343,-5.03978 -26.47343,-5.03978c-5.69836,-11.64895 -0.87445,-25.71171 10.7745,-31.41006c11.64895,-5.69836 25.71172,-0.87446 31.41007,10.77449c0.26718,0.54619 -1.3586,18.77531 -15.71114,25.67535z" data-paper-data="{&quot;index&quot;:null}" fill="#c5c556" stroke="#000000" stroke-width="2" stroke-linecap="butt"/></g></g></svg>