<svg version="1.1" xmlns="http://www.w3.org/2000/svg" xmlns:xlink="http://www.w3.org/1999/xlink" width="189.76405" height="257.04398" viewBox="0,0,189.76405,257.04398"><g transform="translate(-247.19199,-42.33911)"><g data-paper-data="{&quot;isPaintingLayer&quot;:true}" fill-rule="nonzero" stroke-linejoin="miter" stroke-miterlimit="10" stroke-dasharray="" stroke-dashoffset="0" style="mix-blend-mode: normal"><path d="M370.75016,97.49572c11.70139,-3.6474 64.0378,4.46681 64.0378,4.46681c0,0 -38.4564,36.4149 -50.15779,40.0623c-11.70139,3.6474 -24.29438,-3.36399 -28.12724,-15.66035c-3.83286,-12.29637 2.54584,-25.22135 14.24723,-28.86874z" data-paper-data="{&quot;index&quot;:null}" fill="#9b9b44" stroke="#000000" stroke-width="2" stroke-linecap="butt"/><path d="M297.02075,110.30007c-10.38708,7.61577 -24.68256,5.77662 -31.92983,-4.10786c-7.24727,-9.88448 -16.55612,-62.02166 -16.55612,-62.02166c0,0 46.92381,24.55801 54.17109,34.44249c7.24727,9.88448 4.70195,24.07125 -5.68513,31.68702z" data-paper-data="{&quot;index&quot;:null}" fill="#9b9b44" stroke="#000000" stroke-width="2" stroke-linecap="butt"/><path d="M286.95927,298.38308l15.14285,-131.8421l37.78325,-0.15789l13.57389,132z" fill="#9b9b44" stroke="#000000" stroke-width="2" stroke-linecap="butt"/><path d="M299.90952,194.99572l3.12142,-26.32765l35.83075,-0.14203l2.76735,26.1059c0,0 -7.51543,4.19603 -21.55904,4.50964c-12.48458,0.27879 -20.16049,-4.14586 -20.16049,-4.14586z" fill="#6e6e30" stroke="#000000" stroke-width="0" stroke-linecap="butt"/><path d="M261.14911,119.25231c3.95506,-33.06616 35.71762,-56.45593 70.94366,-52.24252c35.22604,4.21341 60.57617,34.43446 56.62111,67.50062c-3.95506,33.06616 -35.71762,56.45594 -70.94366,52.24253c-35.22603,-4.21341 -60.57617,-34.43447 -56.62111,-67.50063z" fill="#9b9b44" stroke="#000000" stroke-width="2" stroke-linecap="butt"/><path d="M274.49861,122.38555c1.54013,-12.87623 13.2269,-22.06594 26.10313,-20.52581c12.87623,1.54013 22.06594,13.22689 20.52581,26.10312c-1.54013,12.87623 -13.22689,22.06595 -26.10312,20.52582c-12.87623,-1.54013 -22.06595,-13.2269 -20.52582,-26.10313z" fill="#000000" stroke="#000000" stroke-width="2" stroke-linecap="butt"/><path d="M274.64707,121.1444c1.54013,-12.87623 13.2269,-22.06594 26.10313,-20.52581c12.87623,1.54013 22.06594,13.22689 20.52581,26.10312c-1.54013,12.87623 -13.22689,22.06595 -26.10312,20.52582c-12.87623,-1.54013 -22.06595,-13.2269 -20.52582,-26.10313z" fill="#ffffff" stroke="#000000" stroke-width="2" stroke-linecap="butt"/><path d="M281.4966,121.68608c1.08409,-9.06347 9.3103,-15.53204 18.37377,-14.44795c9.06347,1.08409 15.53204,9.31031 14.44795,18.37379c-1.08409,9.06347 -9.31031,15.53205 -18.37378,14.44796c-9.06347,-1.08409 -15.53203,-9.31031 -14.44794,-18.37379z" fill="#1a1a1a" stroke="none" stroke-width="0" stroke-linecap="butt"/><path d="M289.04282,122.58869c0.58559,-4.89581 5.02915,-8.38994 9.92496,-7.80435c4.89581,0.58559 8.38994,5.02915 7.80435,9.92497c-0.58559,4.89581 -5.02915,8.38995 -9.92496,7.80436c-4.89581,-0.58559 -8.38994,-5.02916 -7.80435,-9.92497z" fill="#ffffff" stroke="none" stroke-width="0" stroke-linecap="butt"/><path d="M332.82586,167.53952h-25.1096" fill="none" stroke="#000000" stroke-width="2" stroke-linecap="round"/><path d="M348.89886,154.93264c-12.87623,-1.54013 -22.06594,-13.2269 -20.52581,-26.10313c1.54013,-12.87623 13.22689,-22.06594 26.10312,-20.52581c12.87623,1.54013 22.06595,13.22689 20.52582,26.10312c-1.54013,12.87623 -13.2269,22.06595 -26.10313,20.52582z" data-paper-data="{&quot;index&quot;:null}" fill="#000000" stroke="#000000" stroke-width="2" stroke-linecap="butt"/><path d="M349.04731,153.69148c-12.87623,-1.54013 -22.06594,-13.2269 -20.52581,-26.10313c1.54013,-12.87623 13.22689,-22.06594 26.10312,-20.52581c12.87623,1.54013 22.06595,13.22689 20.52582,26.10312c-1.54013,12.87623 -13.2269,22.06595 -26.10313,20.52582z" data-paper-data="{&quot;index&quot;:null}" fill="#ffffff" stroke="#000000" stroke-width="2" stroke-linecap="butt"/><path d="M368.36637,132.07662c-1.08409,9.06348 -9.3103,15.53205 -18.37377,14.44796c-9.06347,-1.08409 -15.53204,-9.31032 -14.44795,-18.37379c1.08409,-9.06348 9.31031,-15.53205 18.37378,-14.44796c9.06347,1.08409 15.53203,9.31031 14.44794,18.37378z" data-paper-data="{&quot;index&quot;:null}" fill="#1a1a1a" stroke="none" stroke-width="0" stroke-linecap="butt"/><path d="M360.82016,131.17402c-0.58559,4.89581 -5.02914,8.38995 -9.92495,7.80436c-4.89581,-0.58559 -8.38994,-5.02916 -7.80435,-9.92497c0.58559,-4.89581 5.02916,-8.38995 9.92496,-7.80436c4.89581,0.58559 8.38993,5.02915 7.80434,9.92496z" data-paper-data="{&quot;index&quot;:null}" fill="#ffffff" stroke="none" stroke-width="0" stroke-linecap="butt"/><path d="M261.95535,119.24803c0.08646,-0.72284 -1.4714,56.14198 56.15028,64.05628c55.0551,7.56178 69.94681,-49.99985 69.82581,-48.98821c-3.89603,32.57261 -35.2551,55.60484 -70.04243,51.4439c-34.78733,-4.16093 -59.82969,-33.93936 -55.93366,-66.51197z" fill="#6e6e30" stroke="#000000" stroke-width="0" stroke-linecap="butt"/><path d="M328.5215,127.58835c1.54013,-12.87623 13.22689,-22.06594 26.10312,-20.52581c12.87623,1.54013 22.06595,13.22689 20.52582,26.10312c-0.14626,1.22283 -46.62894,-5.57731 -46.62894,-5.57731z" data-paper-data="{&quot;index&quot;:null}" fill="#000000" stroke="#000000" stroke-width="2" stroke-linecap="butt"/><path d="M290.61673,94.04074c0,0 7.27538,-4.33585 12.46948,-4.91743c5.1941,-0.58157 12.16378,2.15927 12.16378,2.15927c0,0 -7.97407,-1.01449 -11.9853,-0.56535c-4.19189,0.46937 -12.64795,3.32351 -12.64795,3.32351z" fill="#000000" stroke="none" stroke-width="0" stroke-linecap="butt"/><path d="M354.66909,96.86575c-3.79215,-1.38251 -11.78054,-2.27729 -11.78054,-2.27729c0,0 7.41948,-1.01975 12.3299,0.77043c4.9104,1.79018 10.95795,7.7196 10.95795,7.7196c0,0 -7.54437,-4.76797 -11.50731,-6.21274z" data-paper-data="{&quot;index&quot;:null}" fill="#000000" stroke="none" stroke-width="0" stroke-linecap="butt"/><path d="M276.82152,154.29561c0,-0.41421 0.33579,-0.75 0.75,-0.75c0.41421,0 0.75,0.33579 0.75,0.75c0,0.41421 -0.33579,0.75 -0.75,0.75c-0.41421,0 -0.75,-0.33579 -0.75,-0.75z" fill="#000000" stroke="none" stroke-width="0.5" stroke-linecap="butt"/><path d="M287.62153,158.6956c0,-0.41421 0.33579,-0.75 0.75,-0.75c0.41421,0 0.75,0.33579 0.75,0.75c0,0.41421 -0.33579,0.75 -0.75,0.75c-0.41421,0 -0.75,-0.33579 -0.75,-0.75z" fill="#000000" stroke="none" stroke-width="0.5" stroke-linecap="butt"/><path d="M281.42153,162.99172c0,-0.41421 0.33579,-0.75 0.75,-0.75c0.41421,0 0.75,0.33579 0.75,0.75c0,0.41421 -0.33579,0.75 -0.75,0.75c-0.41421,0 -0.75,-0.33579 -0.75,-0.75z" fill="#000000" stroke="none" stroke-width="0.5" stroke-linecap="butt"/><path d="M368.89376,155.04561c-0.41422,0 -0.75,-0.33578 -0.75,-0.75c0,-0.41422 0.33578,-0.75 0.75,-0.75c0.41422,0 0.75,0.33578 0.75,0.75c0,0.41422 -0.33578,0.75 -0.75,0.75z" data-paper-data="{&quot;index&quot;:null}" fill="#000000" stroke="none" stroke-width="0.5" stroke-linecap="butt"/><path d="M358.09376,159.4456c-0.41422,0 -0.75,-0.33578 -0.75,-0.75c0,-0.41422 0.33578,-0.75 0.75,-0.75c0.41422,0 0.75,0.33578 0.75,0.75c0,0.41422 -0.33578,0.75 -0.75,0.75z" data-paper-data="{&quot;index&quot;:null}" fill="#000000" stroke="none" stroke-width="0.5" stroke-linecap="butt"/><path d="M361.27038,164.74951c-0.41422,0 -0.75,-0.33578 -0.75,-0.75c0,-0.41422 0.33578,-0.75 0.75,-0.75c0.41422,0 0.75,0.33578 0.75,0.75c0,0.41422 -0.33578,0.75 -0.75,0.75z" data-paper-data="{&quot;index&quot;:null}" fill="#000000" stroke="none" stroke-width="0.5" stroke-linecap="butt"/></g></g></svg>