<svg version="1.1" xmlns="http://www.w3.org/2000/svg" xmlns:xlink="http://www.w3.org/1999/xlink" width="34.17311" height="34.17311" viewBox="0,0,34.17311,34.17311"><g transform="translate(-302.67548,-162.67563)"><g data-paper-data="{&quot;isPaintingLayer&quot;:true}" stroke-miterlimit="10" stroke-dasharray="" stroke-dashoffset="0" style="mix-blend-mode: normal"><path d="M309.74516,162.67563h20.03378c3.9166,0 7.06966,3.15307 7.06966,7.06966v20.03379c0,3.91659 -3.15307,7.06966 -7.06966,7.06966h-20.03378c-3.91659,0 -7.06967,-3.15307 -7.06967,-7.06966v-20.03379c0,-3.91659 3.15308,-7.06966 7.06967,-7.06966z" fill="#a0a300" fill-rule="evenodd" stroke="none" stroke-width="4.43922" stroke-linecap="round" stroke-linejoin="round"/><path d="M315.19813,195.39812l1.26126,-13.26724l6.85891,-0.03463l1.15398,13.3876l-4.65036,-1.82947z" fill="#d9db56" fill-rule="nonzero" stroke="#000000" stroke-width="0.5" stroke-linecap="butt" stroke-linejoin="miter"/><path d="M331.6106,176.93412c0,6.85825 -5.19824,12.41796 -11.6106,12.41796c-6.41236,0 -11.6106,-5.55971 -11.6106,-12.41796c0,-6.85825 5.19824,-12.41796 11.6106,-12.41796c6.41236,0 11.6106,5.55971 11.6106,12.41796z" fill="#d9db56" fill-rule="nonzero" stroke="#000000" stroke-width="0.5" stroke-linecap="butt" stroke-linejoin="miter"/><path d="M330.5401,177.72519c0,5.85322 -4.68325,10.5982 -10.46033,10.5982c-5.77708,0 -10.46033,-4.74498 -10.46033,-10.5982c0,-5.85322 4.68325,-10.5982 10.46033,-10.5982c5.77708,0 10.46033,4.74498 10.46033,10.5982z" fill="#000000" fill-rule="nonzero" stroke="none" stroke-width="0" stroke-linecap="butt" stroke-linejoin="miter"/></g></g></svg>