<svg version="1.1" xmlns="http://www.w3.org/2000/svg" xmlns:xlink="http://www.w3.org/1999/xlink" width="119.79604" height="250.38703" viewBox="0,0,119.79604,250.38703"><g transform="translate(-280.77011,-59.26113)"><g data-paper-data="{&quot;isPaintingLayer&quot;:true}" fill-rule="nonzero" stroke-linecap="butt" stroke-linejoin="miter" stroke-miterlimit="10" stroke-dasharray="" stroke-dashoffset="0" style="mix-blend-mode: normal"><path d="M282.56373,308.53989c0,0 -0.63536,-94.38387 -0.79335,-118.01201c-0.05451,-8.15261 8.18688,-36.76129 40.20201,-36.9211c31.60235,-0.15775 39.85672,29.48704 39.84884,36.89673c-0.07659,46.24274 0.65429,117.98648 0.65429,117.98648l-10.49667,0.09614l-0.15882,-114.84311c0,0 0.07549,-3.0993 -2.81625,-3.15415c-3.43441,-0.06514 -2.94538,3.11562 -2.94538,3.11562l0.20548,114.86995l-48.21366,0.07222l-0.30539,-115.23309c0,0 0.27949,-2.919 -2.8856,-2.93443c-3.11083,-0.01515 -2.81569,2.90899 -2.81569,2.90899l0.35311,115.0668z" fill="#999999" stroke="#000000" stroke-width="2"/><path d="M321.66272,265.26944c-0.81895,0 -1.48284,-0.66389 -1.48284,-1.48284c0,-0.81895 0.66389,-1.48284 1.48284,-1.48284c0.81895,0 1.48284,0.66389 1.48284,1.48284c0,0.81895 -0.66389,1.48284 -1.48284,1.48284z" data-paper-data="{&quot;index&quot;:null}" fill="#000000" stroke="none" stroke-width="1.5"/><path d="M297.59946,308.55433v-119.20147c0,0 0.75721,-9.73105 0.75721,-14.63937c0,-4.498 -0.75721,-13.6872 -0.75721,-13.6872c0,0 2.67319,-2.35297 4.6557,-3.74807c1.98251,-1.3951 5.17197,-2.80371 5.17197,-2.80371c0,0 -0.6016,40.10902 14.55952,40.03867c15.43477,-0.07162 13.83154,-40.03867 13.83154,-40.03867c0,0 3.91276,1.51959 6.16585,2.94655c2.25309,1.42695 4.75379,3.60523 4.75379,3.60523c0,0 -0.75721,9.42463 -0.75721,14.19201c0,4.84193 0.75721,14.63937 0.75721,14.63937v118.69667z" fill="#0f0e02" stroke="#000000" stroke-width="2"/><path d="M369.10639,122.25377c0,0 1.33426,0.80273 3.65199,2.45104c2.11697,1.50554 3.62583,3.11316 3.62583,3.11316l-0.20157,1.16925c0,0 -5.81278,-5.34467 -13.45668,-7.31499c-6.11189,-1.5754 -10.33341,-0.62884 -10.33341,-0.62884l1.41996,-3.92832c0,0 3.51444,-0.57809 8.03582,0.84015c4.68186,1.46859 7.44379,3.22511 7.44379,3.22511z" data-paper-data="{&quot;index&quot;:null}" fill="#000000" stroke="none" stroke-width="1.5"/><path d="M329.89898,112.904c0,0 3.78089,-0.60665 8.33566,0.49339c5.04726,1.21897 7.35594,2.49799 7.35594,2.49799l-1.0852,4.00351c0,0 -3.39683,-1.90688 -7.39808,-3.13488c-5.35118,-1.64231 -6.74584,-0.83743 -10.91208,-1.80661c-3.56985,-0.83044 -6.41307,-2.07076 -6.41307,-2.07076l0.3815,-1.17126c0,0 3.36986,1.25488 4.96375,1.66059c1.31554,0.33485 4.06272,0.42481 4.06272,0.42481z" fill="#000000" stroke="none" stroke-width="1.5"/><path d="M317.46348,163.54978l-0.36272,-0.75186c-1.32538,-2.77716 -3.35032,-4.5431 -4.65777,-7.25321c-0.02301,-0.04769 -0.44809,-0.64279 -0.74781,-1.23543c-0.09951,0.17792 -0.21542,0.33026 -0.32992,0.41715c-0.07765,0.05892 -0.15854,0.11198 -0.2421,0.16027l0.03673,0.04862l-0.83677,0.63203c-0.25899,0.2016 -0.6118,0.27173 -0.9447,0.15551c-0.52142,-0.18205 -0.79654,-0.75231 -0.61449,-1.27373l0.31265,-0.89552c-0.48505,-1.57417 -0.56888,-3.45536 -1.13525,-4.94295c-0.76766,-2.01629 -2.41715,-4.22344 -2.5967,-6.49348c-0.12328,-1.55878 0.51727,-2.96044 0.09439,-4.4972c-0.30296,-1.35213 -0.31873,-3.44344 -0.04018,-4.84872c0.08498,-0.42873 1.12321,-3.74276 0.65472,-3.85899c-1.48149,-0.36755 -3.10003,1.07201 -4.4172,1.42159c-2.89494,0.76835 -5.79089,1.12173 -8.41529,0.03565l-0.1028,0.29444l-1.11459,-0.38914c-0.52142,-0.18205 -0.79654,-0.75231 -0.61449,-1.27373c0.11623,-0.3329 0.39072,-0.56541 0.7097,-0.64263l1.01549,-0.26157c2.77131,-0.69897 5.19908,-1.60569 7.65309,-2.97614c-1.17302,-0.20894 -2.29581,-0.71932 -3.54972,-1.49187c-0.58959,-0.36325 -2.46516,-1.55585 -2.50535,-2.15137c-0.04873,-0.72205 2.0607,-2.0648 2.57642,-2.36471c2.51143,-1.46051 6.21652,-2.84192 8.14821,-5.01765c0.82524,-0.9295 1.15245,-1.8963 2.18472,-2.67598c0.88318,-1.38747 1.74399,-2.52929 2.85251,-3.69329c0.09037,-0.0949 0.18864,-0.24634 0.28884,-0.40232c-0.21792,0.04829 -0.44139,0.07984 -0.59643,0.09778c-1.50241,0.17379 -4.17835,0.14631 -4.47952,-2.00156c-0.33163,-2.36513 2.9549,-3.6241 4.52053,-4.35969c1.53392,-0.7207 2.43559,-2.46959 2.96075,-3.97379c4.39966,-6.70245 8.81842,-13.76971 15.48981,-18.8087c4.84427,-3.65894 11.05928,-6.93055 16.54106,-9.39183c1.36026,-0.61076 3.1666,-0.41675 4.65743,-0.78193c2.17844,0.19862 4.31581,-0.46481 6.54623,0.0146c6.994,1.50329 13.35822,5.82264 19.9994,8.25326c1.98288,1.9889 4.5321,2.92093 6.61629,4.87548c2.74101,2.5705 4.77493,5.88052 7.36289,8.52011c1.97552,2.01493 3.33603,3.11223 4.04433,6.00385c-0.27381,3.24754 0.26718,6.32836 -0.43015,9.52728c-1.18748,5.44743 -4.87297,11.54987 -4.14791,17.19466c-0.95934,2.88569 0.38332,5.80694 0.6215,8.77959c0.27098,3.3821 -0.4956,6.31679 -0.78834,9.60631c-0.23993,2.69593 -0.09015,4.93857 -1.84506,6.51163l0.24614,0.3259l-0.83677,0.63203c-0.25898,0.2016 -0.6118,0.27173 -0.9447,0.15551c-0.4493,-0.15687 -0.71572,-0.602 -0.66434,-1.05574l0.09666,-1.06025c-0.66607,-2.46727 -0.13561,-4.82299 -1.03753,-7.27266c-0.03906,-0.10609 -0.08599,-0.20583 -0.13789,-0.30021c-0.80527,4.92997 -3.19751,9.67609 -5.83501,13.7435c-3.07673,4.68708 -6.17408,8.87353 -9.14162,13.66493c-1.47912,2.3882 -2.70132,4.71488 -4.88988,5.98417l0.19024,0.39432l-1.12779,0.54409c-0.2305,0.1112 -0.50343,0.13447 -0.76413,0.04344c-0.52142,-0.18204 -0.79654,-0.75231 -0.61449,-1.27373l0.38914,-1.11459c0.10105,-0.28618 0.26805,-1.48317 0.49489,-2.51909c-0.52424,0.66897 -1.1027,1.30868 -1.177,1.39798c-1.24222,1.49291 -2.34309,2.30514 -3.78514,2.92195l0.07767,0.11565l-1.21542,0.81625c-0.2536,0.17433 -0.58399,0.22965 -0.8968,0.12044c-0.52142,-0.18204 -0.79654,-0.75231 -0.61449,-1.27373c0.03016,-0.08638 0.07097,-0.16598 0.12045,-0.23789l0.6047,-0.92119c0.38278,-1.10689 0.88009,-2.68105 1.46208,-3.93686c-0.56939,0.2341 -1.16915,0.42294 -1.57594,0.66645c-2.48733,1.48898 -4.7628,2.46464 -7.41248,3.26565c-1.51002,0.90323 -3.09578,1.60526 -4.73128,2.11705c-0.27827,0.21036 -0.55666,0.42059 -0.83503,0.63084c-3.16202,2.38831 -7.20409,3.40944 -10.84118,4.30859c-0.99256,0.24538 -1.88265,1.13336 -3.10409,1.2074c-3.3108,0.20068 -7.42668,-3.21123 -7.8918,-6.3184c-0.23271,-0.94584 0.10139,-2.19838 -0.33903,-3.02717c-1.08698,-2.04552 -2.18249,-4.022 -3.17939,-6.10361c-0.30955,-0.16774 -0.46107,-0.48182 -0.46107,-0.48182zM322.90528,169.26616c0.54608,1.21622 0.16679,2.28644 0.50175,3.51863c0.20713,2.07059 3.5017,4.88817 5.76677,4.70247c1.12857,-0.09252 1.7444,-0.87816 2.71626,-1.13712c2.13869,-0.56987 4.45169,-1.10947 6.61821,-1.99947c-3.55534,0.21172 -7.20032,-0.34273 -10.70302,-1.56563c-2.53614,-0.90184 -3.63542,-2.39334 -5.25371,-4.27726c0.12174,0.25217 0.23995,0.50493 0.35375,0.75836zM344.70366,170.38924l1.21443,-0.59129c0,0 0.39783,-0.19192 0.79224,-0.05627c0.46251,-0.12256 0.91479,-0.24976 1.35851,-0.38219c0.64203,-0.38727 1.27168,-0.81296 1.88722,-1.27789c1.33408,-0.17075 0.5887,-1.18115 -0.42907,-2.13686l-0.01034,0.00863c-2.35345,-0.21457 -4.61412,0.24714 -6.85961,0.09217c-2.23824,-0.15446 -4.43125,-1.66987 -6.69927,-1.98602c-0.46061,-0.16199 -0.92348,-0.32685 -1.38773,-0.49514c-0.18736,-0.04037 -0.39444,-0.11795 -0.61127,-0.22336c-3.66112,-1.34876 -7.38212,-2.92457 -10.72339,-4.99438c-2.47542,-1.53344 -4.95824,-4.261 -7.6607,-5.14968c0,0 -0.19082,-0.06662 -0.37094,-0.22575c-0.05237,0.16978 -0.09688,0.3586 -0.13342,0.56862c1.9569,2.32312 3.10184,5.84394 4.38906,8.58363c0.90317,1.9223 3.00271,3.22901 4.36112,4.7942c1.52299,1.75482 2.31813,3.18557 4.64397,3.97917c4.94186,1.72536 10.03903,2.01372 14.7527,0.60968c0.49495,-0.37313 0.99028,-0.74574 1.48647,-1.11727zM368.56389,146.3523c0.94195,0.03458 1.46613,-0.69642 2.53197,-1.21354c3.82041,-1.8536 5.36292,-4.67669 6.77643,-8.63505c0.33502,-2.65134 -2.81281,-1.04555 -3.94967,-0.04866c-0.68019,0.59645 -1.31426,1.25788 -1.89199,1.97166c-0.10769,0.47781 -0.16414,0.9829 -0.43566,1.37733c-0.73051,1.06117 -1.46278,2.12985 -2.1915,3.20823c-0.40348,1.07812 -0.68985,2.19957 -0.83957,3.34002zM355.94207,160.92255c0.92173,-1.27227 2.28909,-1.93063 3.04246,-3.44944c1.50542,-3.03492 1.36981,-6.75333 4.39712,-8.77135c1.35368,-2.39433 2.82778,-4.69939 4.36275,-6.92978c0.67607,-1.64759 1.59374,-3.20151 2.69959,-4.57652c0.06591,-0.28578 0.15144,-0.56173 0.31305,-0.79873c1.39957,-2.05243 2.97665,-4.15098 4.17571,-6.457l-0.16191,-0.18553c-1.54287,-1.03628 -2.95518,-2.35707 -3.99904,-3.91091c-0.6826,-0.20204 -1.36286,-0.43388 -2.04142,-0.68509c-0.06545,-0.01129 -0.13439,-0.0291 -0.20697,-0.05444c-0.09548,-0.03333 -0.17793,-0.07296 -0.24901,-0.11725c-3.47749,-1.33051 -6.91473,-3.10863 -10.40313,-3.9223c-1.24912,-0.29136 -4.40787,0.94895 -5.29517,-0.50204c-0.37629,-0.61536 -0.05688,-1.4286 0.35317,-2.13293c-0.00359,-0.00714 -0.00715,-0.01436 -0.01067,-0.02167c-0.43452,-0.90066 0.46615,-1.33518 0.46615,-1.33518l1.05898,-0.45391c1.11373,-0.14131 2.31474,-0.63712 3.41708,-0.70394c2.12616,-0.12888 4.37514,0.85792 6.19325,1.76703c3.14631,1.57327 6.92208,1.78466 6.00764,5.88301c0.64068,0.20918 1.2724,0.42718 1.88824,0.66255c1.14611,1.42143 2.32764,2.82418 3.85363,3.8135c0.0955,-0.24238 0.18576,-0.48724 0.27021,-0.73476c1.36269,-3.9031 1.87719,-7.64918 2.26503,-11.76943c0.14112,-1.4992 0.97615,-3.06559 -0.64176,-4.15639c-2.25116,-1.51774 -3.41438,-0.61495 -5.84982,-0.837c-4.23377,1.16499 -9.92164,1.40004 -14.29329,1.01162c-2.2673,-0.20145 -4.26407,-0.77889 -6.51857,-0.20229l-0.06475,-0.01632l0.00337,0.02615l-1.28921,0.16559c-0.15532,0.02327 -0.3184,0.01019 -0.47698,-0.04518c-0.52142,-0.18205 -0.79654,-0.75232 -0.61449,-1.27373c0.11623,-0.33291 0.39071,-0.56541 0.70969,-0.64264l1.01549,-0.26157l0.03124,0.12128l0.00945,-0.00121c1.57855,-0.98501 3.2613,-1.68407 5.03087,-2.35121c0.50234,-0.18939 1.18579,-0.6097 1.84074,-0.9273c-0.73817,-0.00228 -1.47406,-0.28149 -2.21292,-0.22837c-2.48314,0.1785 -5.07827,0.26362 -7.56613,0.54676c-2.30114,-0.765 -4.08365,-0.25024 -6.34819,-0.09027c-4.23182,0.29892 -8.81053,-0.51117 -12.89352,-0.47236c-0.8389,0.00798 -1.82535,2.72047 -2.1714,3.25411c-0.84897,1.27422 -1.4822,2.55382 -1.95958,3.84973c1.20807,0.30673 2.44593,0.52227 3.69826,0.69482c0.40063,-0.72915 1.94752,-2.01984 2.44108,-2.08774c1.5626,-0.21496 3.15446,1.48391 4.65512,1.54537c1.85188,0.07585 3.99936,-0.57052 5.86655,-0.17761c1.52171,0.32022 4.98985,2.01682 5.39112,3.62707c0.20468,0.82132 -1.02288,3.13541 -1.83023,3.32701c-0.63119,0.14981 -1.17944,-0.54065 -1.76916,-0.81097c-1.19476,-0.79602 -2.47281,-1.37363 -3.80559,-1.80566c1.3212,1.66236 5.37473,2.81221 5.74947,5.02094c0.28785,1.69661 -0.3821,3.19356 -1.44591,4.54033c0.16864,0.37246 0.0269,0.77845 0.0269,0.77845c-0.95196,2.72666 -0.69968,5.38931 -1.29753,8.17073c-0.8942,4.1602 -2.90981,8.35715 -4.31372,12.37831c-1.08152,3.09776 -2.4175,6.02895 -3.48904,9.09809c-0.23658,0.67764 -1.03236,2.07622 -0.87128,2.83701c0.1084,0.51197 0.86571,0.59568 1.24583,0.95537c0.06754,0.0639 0.08754,0.19423 0.11042,0.3093c0.1143,0.04209 0.22858,0.0839 0.34278,0.12548c0.31503,-0.2651 0.24809,-0.98908 0.45416,-1.40813c0.8749,-1.77909 1.55337,-3.58878 2.22434,-5.47567c0.71549,-1.08996 1.34574,-2.22702 1.91722,-3.39641c-0.05635,-0.2774 -0.01427,-0.63627 0.3934,-0.94419c0.0261,-0.01971 0.05197,-0.03792 0.07764,-0.05471c2.7623,-6.06535 4.18358,-12.86708 7.79496,-18.43634c0.12412,-0.18907 0.24822,-0.37815 0.37234,-0.56722c0.01405,-0.06469 0.02853,-0.12923 0.04349,-0.19362c-0.25659,-0.16236 -0.62532,-0.52051 -0.40026,-1.16512c0.20887,-0.59825 0.66448,-0.68506 0.97026,-0.66837c0.59337,-1.49276 1.4646,-2.79598 2.59959,-3.67462c2.21348,-1.65737 5.34807,-2.90053 8.12538,-2.31609c5.26023,1.10692 12.59945,6.93119 8.92554,12.73741c-0.29941,0.8576 -0.64893,2.26707 -1.63248,2.63639c-0.01083,0.00407 -0.02172,0.00801 -0.03269,0.01181c-1.43073,2.7899 -3.82607,4.8734 -7.02684,5.69786c-2.27246,0.50918 -4.10045,-0.65824 -6.08353,-1.64138c-1.91877,-0.95127 -3.89351,-1.78991 -4.89011,-3.88526c-0.44976,-0.94565 -0.73182,-2.05179 -0.85184,-3.22341c-2.53378,4.897 -3.86269,10.50847 -6.14185,15.58115c1.26749,1.98004 1.60314,4.17682 -1.12076,5.17423c1.34317,0.4163 2.77956,0.82998 3.80859,1.75523c1.96733,1.76891 3.56474,3.88259 5.47864,5.59877c0.07663,0.0105 0.15823,0.03004 0.24503,0.06034c0.43267,0.15106 0.59782,0.43117 0.6498,0.69033c0.15681,0.1222 0.31615,0.24135 0.47833,0.35709c0.28471,0.20321 0.53343,0.42768 0.7445,0.66619c1.65524,-1.32489 2.85592,-2.89816 4.0351,-4.52581zM319.56271,132.27246c-1.96097,5.61672 -2.46222,11.52943 -4.44383,17.20527l-0.35523,1.01748c2.33176,-1.98961 6.67521,-1.5071 9.71677,-0.05078c1.65937,0.79452 3.48844,2.794 5.43777,2.87384c0.68835,0.02819 1.2575,-0.0236 1.8388,-0.01574c-2.53049,-3.54189 0.01798,-6.40405 3.72719,-5.54705c0.02447,-0.0692 0.04882,-0.13849 0.07303,-0.20785c1.3758,-3.94064 3.37299,-8.06721 4.24732,-12.14267c0.44211,-2.06078 0.44406,-4.04724 0.77742,-6.05067c-1.22842,1.07494 -2.47642,2.05069 -3.30742,2.96555c-0.82282,0.90584 -1.46708,2.05923 -2.71843,2.5426c-0.83479,0.32245 -1.76789,0.29063 -2.63687,0.50443c-5.39752,-0.46625 -9.67656,-5.92914 -9.69078,-11.20038c-0.58048,2.75975 -1.75585,5.49977 -2.66575,8.10596zM364.39656,119.91157c-2.00544,-0.70696 -4.12307,-2.18814 -6.3747,-2.00354c-0.89687,0.07352 -1.83726,0.4043 -2.75697,0.59639c-0.12508,0.18355 -0.32051,0.45563 -0.50615,0.68296c1.02311,-0.22922 3.27708,-0.13008 3.53615,-0.0778c1.30971,0.26432 2.32583,0.95088 3.4772,1.52661c1.97155,0.98584 4.17941,1.65292 6.36347,2.3236c0.29578,-2.04298 -1.66063,-2.31554 -3.73901,-3.04821zM324.73632,117.97441c0,0 0.29933,-0.29097 0.69918,-0.30353l0.147,-0.14013c1.59529,-1.02256 2.92476,-0.57586 4.79042,-0.60905c0.95506,-0.01699 1.91482,-0.43848 2.86468,-0.71967c-3.27516,-0.40097 -6.64017,-0.54057 -9.74984,-1.29844c-0.56246,2.17219 -0.7785,4.40342 -0.91847,6.74311c0.37798,-1.32522 1.08163,-2.58014 2.16701,-3.6723zM324.29282,156.64906c2.14326,1.32743 4.44544,2.45244 6.78546,3.43704c-0.02207,-1.15413 0.64183,-2.44343 0.9899,-3.44039c0.14845,-0.42519 0.30189,-0.84755 0.45897,-1.26795c-1.44231,-0.38971 -2.60725,-0.00895 -4.09506,-0.5054c-3.63797,-1.21393 -5.67597,-3.5355 -9.68329,-3.44654c-0.76093,0.01689 -1.41764,0.00525 -1.96093,0.10507c2.67164,1.1689 5.00902,3.57231 7.50494,5.11814zM336.42773,162.11554c2.07947,0.28987 4.30073,1.84936 6.31307,1.93177c1.46522,0.06001 2.92331,-0.08198 4.4137,-0.13411c-2.74688,-2.5297 -4.47959,-4.69344 -8.21789,-5.9986l-0.19756,0.13182c0,0 -0.14846,0.01907 -0.33789,-0.01498c-0.5286,1.45305 -1.15738,2.8919 -2.06081,4.05378c0.02913,0.01012 0.05826,0.02023 0.08737,0.03032zM333.40307,152.16651l0.27279,0.27266c0.37298,-0.93045 0.74821,-1.86104 1.11049,-2.80132c-1.79658,-0.35808 -2.93753,0.56387 -1.38328,2.52866zM349.98562,131.89689c-0.03642,0.05548 -0.07283,0.11095 -0.10924,0.16643c-0.36997,2.10784 -0.19875,4.3549 0.5415,5.85611c0.81489,1.65258 2.45986,2.2102 3.97379,2.96075c1.37593,0.68214 3.13163,1.99603 4.69965,1.49814c2.25766,-0.58153 4.28923,-2.03151 5.45983,-3.99858c-0.90149,-0.3409 -1.8618,-0.89588 -2.66606,-1.40621c-3.42963,4.73691 -7.57597,-0.69874 -9.91098,-3.75798c0,0 -0.30145,-0.3991 -0.19572,-0.84598c-0.57552,-0.19101 -1.15768,-0.38714 -1.74737,-0.59239zM365.30267,135.96008l0.32629,0.25049l0.39454,-0.55665c0,0 0.15468,-0.20029 0.40919,-0.32152c0.01218,-0.08904 0.02967,-0.17302 0.05598,-0.24837c1.16258,-1.69471 0.76243,-2.80852 -0.02195,-4.4437c-0.27883,-0.58127 -0.07846,-1.43515 -0.57469,-1.84672c-0.57341,-0.47557 -1.39086,-0.56007 -2.01483,-0.96704c-3.94807,-2.57508 -7.41864,-3.75263 -11.44049,-0.68292c-0.8234,0.60095 -1.46611,1.55107 -1.92231,2.66604c1.91898,0.6317 3.89539,1.2402 5.80391,1.96815c3.0817,1.06193 6.0291,2.24233 8.98436,4.18224zM337.34794,114.97423c2.2023,0.47652 4.32567,1.20938 6.28142,2.47758c0.54369,1.07449 0.59072,-0.26915 0.54907,-0.41217c-0.18214,-0.62553 -3.10696,-1.93706 -3.8619,-2.10435c-0.92246,-0.20442 -1.94845,-0.09129 -2.96857,0.03895zM332.71202,130.06172c-1.89861,-0.05238 -3.29098,-1.41775 -4.52936,-2.56427c-0.56017,-0.51863 -1.95434,-0.93529 -2.25188,-1.63112c-0.52717,-1.23285 0.05487,-2.02408 0.63146,-2.88781c-0.71366,-0.26085 -1.42868,-0.51779 -2.1454,-0.76912c-1.28953,4.60652 2.64894,10.69934 7.34138,11.16396c0.66726,-0.18139 1.39157,-0.12938 2.04246,-0.36277c0.92487,-0.33162 1.42302,-1.41557 2.01374,-2.05752c0.95154,-1.03407 2.36614,-2.04532 3.64941,-3.17782l-0.28598,-0.09985c-0.81909,-0.28597 -1.63714,-0.58003 -2.45469,-0.87959c-0.96441,1.49244 -1.91847,3.32363 -4.01114,3.26591zM339.83709,125.78718l0.83594,0.29185c0,0 0.15036,0.0525 0.31012,0.17558c0.88443,-1.04839 1.5037,-2.22277 1.51669,-3.60584c0.00463,-0.49279 -0.80578,-0.56806 -1.2195,-0.83582c-1.32336,-0.85646 -2.81486,-1.58536 -3.7336,-2.8804c-0.83999,-0.24862 -1.94973,-0.92262 -2.79659,-0.97638c-1.32042,-0.08383 -2.94609,0.9268 -4.34039,0.96519c-1.02094,0.02812 -3.06855,-0.41702 -3.62183,0.20532l-0.3789,0.37908c0,0 -0.2866,0.2786 -0.67355,0.30234c-0.16908,0.18738 -0.32334,0.38165 -0.46331,0.58198c4.89373,1.72371 9.7134,3.70326 14.56493,5.39708zM339.94581,154.42284c0.82065,-0.07038 0.86351,-0.57116 0.63623,-1.14005c-0.20395,0.38465 -0.41568,0.76488 -0.63623,1.14005z" fill="#000000" stroke="none" stroke-width="0.5"/><path d="M369.35988,143.0368c0.72871,-1.07839 1.46215,-2.19809 2.19265,-3.25926c0.27153,-0.39443 0.34774,-0.91761 0.45543,-1.39543c0.57774,-0.71378 1.24194,-1.38007 1.92213,-1.97652c1.13686,-0.99689 4.31363,-2.58748 3.97861,0.06386c-1.41351,3.95836 -3.01492,6.86035 -6.83533,8.71395c-1.06584,0.51713 -1.59997,1.24151 -2.54192,1.20694c0.14971,-1.14046 0.42495,-2.27543 0.82842,-3.35355z" data-paper-data="{&quot;noHover&quot;:false,&quot;origItem&quot;:[&quot;Path&quot;,{&quot;applyMatrix&quot;:true,&quot;segments&quot;:[[[268.21396,123.01191],[-0.23457,-1.12607],[0.90071,-0.27784]],[[270.20442,121.0316],[-0.83582,0.83955],[2.99592,-3.00929]],[[273.75586,110.64549],[-0.02976,4.20306],[-0.55764,-2.61359]],[[270.01088,111.90144],[0.74473,-1.31591],[-0.44558,0.78732]],[[268.87451,114.38655],[0.31018,-0.86432],[0.05582,0.4866]],[[268.9172,115.83051],[0.12634,-0.46189],[-0.3399,1.24265]],[[267.90567,119.58181],[0.33253,-1.25832],[-0.02556,1.15086]]],&quot;closed&quot;:true}]}" fill="#ffffff" stroke="none" stroke-width="0.5"/><path d="M349.99547,131.74199c0.58969,0.20525 1.17604,0.3976 1.75156,0.5886c-0.10573,0.44689 0.19347,0.84791 0.19347,0.84791c2.335,3.05925 6.56422,8.52343 9.99385,3.78652c0.80426,0.51033 1.76523,1.07644 2.66673,1.41735c-1.1706,1.96707 -3.22523,3.45658 -5.48289,4.03811c-1.56802,0.49788 -3.37747,-0.81599 -4.7534,-1.49813c-1.51393,-0.75056 -3.18203,-1.35054 -3.99691,-3.00312c-0.74025,-1.50122 -0.89825,-3.78193 -0.52828,-5.88977c0.03642,-0.05548 0.07361,-0.11177 0.11002,-0.16725z" data-paper-data="{&quot;noHover&quot;:false,&quot;origItem&quot;:[&quot;Path&quot;,{&quot;applyMatrix&quot;:true,&quot;segments&quot;:[[[245.90918,115.48812],[0,0],[-0.0161,0.06438]],[[245.8609,115.68126],[0.0161,-0.06438],[0.34549,2.11199]],[[248.30242,121.0316],[-1.19371,-1.17332],[1.31407,1.29162]],[[253.03005,122.51705],[-1.67672,-0.20959],[1.52388,0.19048]],[[257.96087,122.38236],[-1.31628,0.98691],[1.9398,-1.2932]],[[261.79756,116.80758],[-0.45679,2.24299],[-0.96348,-0.0247]],[[258.81698,116.35875],[0.92753,0.21671],[-1.67658,5.60265]],[[248.22118,116.07763],[3.2129,2.11862],[0,0]],[[247.75755,115.34344],[0.04748,0.45677],[-0.60632,0.00937]],[[245.91257,115.36011],[0.62439,-0.00059],[0,0]]],&quot;closed&quot;:true}]}" fill="#ffffff" stroke="none" stroke-width="0.5"/><path d="M340.59495,153.23449c0.22729,0.56889 0.1379,1.15498 -0.68275,1.22536c0.22054,-0.37517 0.4788,-0.84071 0.68275,-1.22536z" data-paper-data="{&quot;noHover&quot;:false,&quot;origItem&quot;:[&quot;Path&quot;,{&quot;applyMatrix&quot;:true,&quot;segments&quot;:[[[243.85545,140.0645],[0.08455,-0.4269],[0.75159,-0.33695]],[[244.08034,138.77845],[0.40211,0.46218],[-0.06576,0.43038]]],&quot;closed&quot;:true}]}" fill="#ffffff" stroke="none" stroke-width="0.5"/><path d="M334.82429,149.60528c-0.36227,0.94028 -0.76921,1.95304 -1.14219,2.88349l-0.28129,-0.27232c-1.55424,-1.96478 -0.37311,-2.96925 1.42348,-2.61117z" data-paper-data="{&quot;noHover&quot;:false,&quot;origItem&quot;:[&quot;Path&quot;,{&quot;applyMatrix&quot;:true,&quot;segments&quot;:[[[236.93463,140.09088],[-2.11501,-1.34267],[0,0]],[[237.28205,140.25838],[0,0],[0.04544,-1.00139]],[[237.40711,137.24758],[-0.03209,1.00714],[-1.81421,0.25412]]],&quot;closed&quot;:true}]}" fill="#999999" stroke="none" stroke-width="0.5"/><path d="M336.29054,162.08928c0.90343,-1.16186 1.54547,-2.63889 2.07406,-4.09193c0.18942,0.03405 0.33941,0.01341 0.33941,0.01341l0.19928,-0.13343c3.73831,1.30516 5.54959,3.52741 8.29649,6.05711c-1.49038,0.05214 -2.9836,0.22183 -4.44882,0.16183c-2.01235,-0.08241 -4.29358,-1.68648 -6.37303,-1.97635c-0.02911,-0.01009 -0.05826,-0.02052 -0.08739,-0.03064z" data-paper-data="{&quot;noHover&quot;:false,&quot;origItem&quot;:[&quot;Path&quot;,{&quot;applyMatrix&quot;:true,&quot;segments&quot;:[[[243.06965,148.48691],[-0.03081,0.00007],[2.0588,-0.41176]],[[249.66667,148.22981],[-1.92705,0.5855],[1.40311,-0.42631]],[[253.7895,146.64835],[-1.3899,0.54048],[-3.42721,-1.4829]],[[244.05361,143.69377],[3.9596,0],[0,0]],[243.91054,143.88335],[[243.58661,143.98057],[0.19006,-0.03029],[-0.02011,1.54608]],[[242.97718,148.48708],[0.46997,-1.39472],[0.03084,-0.00005]]],&quot;closed&quot;:true}]}" fill="#999999" stroke="none" stroke-width="0.5"/><path d="M316.74277,151.50933c0.54329,-0.09982 1.20358,-0.09443 1.9645,-0.11132c4.00731,-0.08897 6.13679,2.25807 9.77475,3.472c1.48782,0.49646 2.65277,0.11988 4.09508,0.5096c-0.15709,0.42039 -0.31146,0.85071 -0.4599,1.2759c-0.34807,0.99696 -1.02057,2.30589 -0.9985,3.46002c-2.34002,-0.98461 -4.67936,-2.08914 -6.82262,-3.41657c-2.49592,-1.54584 -4.88168,-4.02073 -7.55332,-5.18962z" data-paper-data="{&quot;noHover&quot;:false,&quot;origItem&quot;:[&quot;Path&quot;,{&quot;applyMatrix&quot;:true,&quot;segments&quot;:[[[229.81105,147.32584],[-2.86597,-0.63674],[2.46103,0.54678]],[[237.35022,148.33418],[-2.53379,-0.15827],[-0.40126,-1.08236]],[[237.15078,144.75977],[0,1.05597],[0,-0.45036]],[[237.16616,143.41141],[-0.00974,0.44868],[-1.49016,0.10748]],[[233.13337,144.28406],[1.56831,-0.0217],[-3.83479,0.05306]],[[222.8552,144.22195],[3.75403,-1.40489],[-0.71284,0.26676]],[[221.03849,144.9675],[0.48003,-0.27332],[2.90762,0.22295]]],&quot;closed&quot;:true}]}" fill="#999999" stroke="none" stroke-width="0.5"/><path d="M343.26146,171.52974c-4.71367,1.40404 -9.87697,1.13741 -14.81883,-0.58795c-2.32584,-0.79361 -3.14786,-2.25811 -4.67085,-4.01293c-1.35841,-1.56519 -3.45758,-2.89581 -4.36076,-4.81812c-1.28721,-2.73968 -2.42432,-6.2771 -4.38122,-8.60022c0.03653,-0.21003 0.08184,-0.39993 0.1342,-0.56969c0.18012,0.15914 0.37101,0.22566 0.37101,0.22566c2.70246,0.88869 5.18702,3.6141 7.66244,5.14755c3.34126,2.06981 7.14144,3.64995 10.80256,4.99871c0.21683,0.10541 0.4275,0.18913 0.61487,0.22951c0.46423,0.16829 0.93084,0.34342 1.39145,0.5054c2.26803,0.31617 4.46232,1.84703 6.70057,2.00149c2.24549,0.15497 4.40634,-0.3124 6.75979,-0.09783l0.11026,-0.00461c1.01777,0.9557 1.7626,1.97167 0.42853,2.14243c-0.61554,0.46493 -1.24606,0.89501 -1.88809,1.28228c-0.44372,0.13243 -0.89656,0.26171 -1.35908,0.38427c-0.39441,-0.13566 -0.7925,0.05713 -0.7925,0.05713l-1.21549,0.59432c-0.49618,0.37153 -0.99392,0.74945 -1.48887,1.12259z" data-paper-data="{&quot;noHover&quot;:false,&quot;origItem&quot;:[&quot;Path&quot;,{&quot;applyMatrix&quot;:true,&quot;segments&quot;:[[[253.61024,153.57032],[-0.34599,0.51432],[0,0]],[254.5619,152.61178],[[255.29132,152.29752],[-0.41708,0.00193],[0.39627,-0.26816]],[[256.44793,151.4889],[-0.37527,0.27129],[0.4785,-0.57725]],[[257.80846,149.66036],[-0.42789,0.64184],[1.20324,-0.60095]],[[256.69903,147.78435],[1.27591,0.56681],[0,0]],[[256.69211,147.79591],[0,0],[-2.29265,0.57316]],[[250.24624,150.14399],[2.17108,-0.59385],[-2.16407,0.59194]],[[243.26673,150.47717],[2.24549,-0.44909],[-0.48826,-0.00111]],[[241.79335,150.46712],[0.49376,0.00587],[-0.1902,0.02364]],[[241.14262,150.45773],[0.23946,0.02805],[-3.90109,-0.06661]],[[229.37227,149.27711],[3.83678,0.85279],[-2.84253,-0.6318]],[[220.44226,146.94034],[2.84436,-0.05176],[0,0]],[[220.01764,146.84947],[0.22251,0.09087],[0.00652,0.17755]],[[220.07911,147.43028],[-0.03474,-0.21033],[2.61328,1.54826]],[[227.05221,154.08748],[-2.11832,-2.16228],[1.48632,1.51717]],[[232.74987,157.17625],[-1.79841,-1.02996],[2.0163,1.15474]],[[238.44592,159.40229],[-2.45745,0.01739],[5.23439,0]],[[252.57511,155.11512],[-3.98744,2.87929],[0.3443,-0.51542]]],&quot;closed&quot;:true}]}" fill="#999999" stroke="none" stroke-width="0.5"/><path d="M322.21229,124.11917c0.0142,5.27123 4.34388,10.74522 9.7414,11.21146c0.86898,-0.21379 1.80811,-0.1751 2.64289,-0.49755c1.25135,-0.48336 1.81579,-1.57656 2.63861,-2.48239c0.83101,-0.91486 2.15714,-1.953 3.38557,-3.02794c-0.33336,2.00342 -0.32719,4.00414 -0.7693,6.06492c-0.87432,4.07546 -2.8824,8.25398 -4.2582,12.19461c-0.02422,0.06937 -0.0492,0.1393 -0.07366,0.2085c-3.70922,-0.85701 -6.27831,2.01761 -3.74781,5.55951c-0.58131,-0.00786 -1.15676,0.04545 -1.8451,0.01725c-1.94933,-0.07984 -3.80111,-2.08066 -5.46048,-2.87518c-3.04156,-1.45634 -7.40938,-1.95495 -9.74114,0.03466l0.35413,-1.01886c1.98161,-5.67584 2.48626,-11.65339 4.44724,-17.27011c0.9099,-2.60619 2.10538,-5.35912 2.68586,-8.11887z" data-paper-data="{&quot;noHover&quot;:false,&quot;origItem&quot;:[&quot;Path&quot;,{&quot;applyMatrix&quot;:true,&quot;segments&quot;:[[[217.31028,125.87069],[0,-2.76046],[0,5.9492]],[[218.78599,143.5792],[0,-6.01182],[0,0]],[[218.78599,144.65691],[0,0],[1.54563,-2.64701]],[[227.94299,141.40613],[-3.35162,-0.37239],[1.82852,0.20316]],[[234.02415,142.32697],[-1.86671,0.56716],[0.65917,-0.20028]],[[235.755,141.706],[-0.55141,0.18419],[-3.55655,-2.50985]],[[237.44548,135.2404],[-3.78441,0.41352],[0.00029,-0.0734]],[[237.44592,135.02009],[0,0.07348],[0,-4.1739]],[[237.45341,122.15603],[0.51789,4.13589],[-0.26187,-2.09134]],[[236.19296,116.18725],[0.34564,2.00134],[-0.80545,1.41978]],[[234.04788,120.07726],[0.48301,-1.13765],[-0.47825,1.12643]],[[232.31946,123.37381],[1.02209,-0.86882],[-0.68185,0.57959]],[[229.99622,124.71921],[0.74995,-0.48828],[-5.24956,1.33894]],[[217.15516,117.33905],[1.75091,4.97196],[0.36163,2.79685]]],&quot;closed&quot;:true}]}" fill="#999999" stroke="none" stroke-width="0.5"/><path d="M356.27553,131.80372c-1.90852,-0.72796 -3.89215,-1.36258 -5.81113,-1.99428c0.4562,-1.11497 1.10222,-2.08276 1.92562,-2.6837c4.02185,-3.06971 7.58449,-1.89527 11.53256,0.67981c0.62397,0.40698 1.44538,0.50431 2.01878,0.97988c0.49622,0.41157 0.2962,1.27924 0.57504,1.86051c0.78439,1.63518 1.17486,2.77333 0.01228,4.46804c-0.02631,0.07535 -0.0446,0.16038 -0.05677,0.24941c-0.2545,0.12125 -0.41106,0.32375 -0.41106,0.32375l-0.39721,0.55941l-0.32655,-0.25024c-2.95526,-1.9399 -5.97985,-3.13069 -9.06157,-4.19262z" data-paper-data="{&quot;noHover&quot;:false,&quot;origItem&quot;:[&quot;Path&quot;,{&quot;applyMatrix&quot;:true,&quot;segments&quot;:[[[261.70952,114.27544],[-3.42953,-0.85738],[0,0]],[262.10014,114.40438],[262.28915,113.74879],[[262.56949,113.31035],[-0.20031,0.19836],[-0.01785,-0.08808]],[[262.54047,113.05741],[0,0.07981],[0.539,-1.98321]],[[261.05502,108.86928],[1.27954,1.28525],[-0.45485,-0.45688]],[[259.90374,107.3152],[0.60415,0.225],[-0.69812,-0.25999]],[[257.68275,107.06633],[0.72325,0.17856],[-4.57623,-1.12981]],[[246.65652,110.19259],[2.78525,-4.22384],[-0.5793,0.83877]],[[245.72042,113.34326],[0.06319,-1.20303],[2.01996,-0.03614]],[[251.84871,113.28834],[-2.04181,-0.05819],[3.25951,-0.01321]]],&quot;closed&quot;:true}]}" fill="#999999" stroke="none" stroke-width="0.5"/><path d="M322.52695,121.67328c0.13997,-2.33969 0.36311,-4.63296 0.92557,-6.80515c3.10967,0.75787 6.55606,0.91364 9.83122,1.3146c-0.94986,0.28119 -1.99915,0.74681 -2.95421,0.7638c-1.86566,0.0332 -3.11069,-0.40978 -4.70599,0.61279l-0.14449,0.1361c-0.39986,0.01256 -0.69468,0.29279 -0.69468,0.29279c-1.08539,1.09216 -1.87944,2.35984 -2.25742,3.68506z" data-paper-data="{&quot;noHover&quot;:false,&quot;origItem&quot;:[&quot;Path&quot;,{&quot;applyMatrix&quot;:true,&quot;segments&quot;:[[[217.48184,110.66638],[-0.66473,1.38889],[0,0]],[[218.0419,110.14936],[-0.37337,0.14366],[0,0]],[[218.1345,109.96861],[0,0],[1.16908,-1.49125]],[[222.45645,107.81458],[-1.75045,0.6463],[0.89608,-0.33085]],[[224.92382,106.19087],[-0.80409,0.57857],[-3.22429,0.701]],[[215.29088,108.17873],[3.18569,-0.30949],[0.18497,2.23619]],[[216.6464,114.84774],[-0.63906,-2.25507],[-0.07996,-1.37575]]],&quot;closed&quot;:true}]}" fill="#999999" stroke="none" stroke-width="0.5"/><path d="M336.67558,126.81119c0.81755,0.29956 1.73277,0.57192 2.55187,0.85789l0.28607,0.1006c-1.28327,1.1325 -2.70148,2.16873 -3.65302,3.2028c-0.59072,0.64195 -1.10499,1.74651 -2.02984,2.07813c-0.6509,0.23338 -1.3932,0.1899 -2.06047,0.37129c-4.69245,-0.46462 -8.67725,-6.64229 -7.38772,-11.24881c0.71672,0.25133 1.49481,0.58552 2.20847,0.84637c-0.5766,0.86373 -1.14482,1.64032 -0.61765,2.87316c0.29755,0.69584 1.69355,1.10928 2.25371,1.62791c1.23838,1.14653 2.54389,2.46249 4.44251,2.51486c2.09268,0.05772 3.04166,-1.73176 4.00607,-3.2242z" data-paper-data="{&quot;noHover&quot;:false,&quot;origItem&quot;:[&quot;Path&quot;,{&quot;applyMatrix&quot;:true,&quot;segments&quot;:[[[228.99602,119.44923],[1.99475,-0.63529],[-1.80977,0.57637]],[[223.87455,118.52123],[1.54709,0.67426],[-0.69981,-0.305]],[[221.21087,117.72354],[0.51028,0.55887],[-0.90408,-0.99018]],[[220.85516,114.78898],[-0.25967,1.00552],[-0.75976,-0.01104]],[[218.57615,114.77001],[0.75951,0.00104],[0.30094,4.77413]],[[229.18711,122.89018],[-4.58335,1.10807],[0.57018,-0.3912]],[[230.99585,121.87445],[-0.5376,0.43489],[0.76387,-0.61794]],[[232.21885,119.26816],[-0.34611,0.80079],[0.55751,-1.28992]],[[234.61684,115.06501],[-0.83826,1.4922],[0,0]],[[234.31393,115.06501],[0,0],[-0.86758,0]],[[231.70649,115.04369],[0.8706,0.01334],[-0.41858,1.72692]]],&quot;closed&quot;:true}]}" fill="#ffffff" stroke="none" stroke-width="0.5"/><path d="M325.22222,120.38782c0.13997,-0.20033 0.29451,-0.3981 0.46359,-0.58548c0.38695,-0.02374 0.67388,-0.30469 0.67388,-0.30469l0.37944,-0.38188c0.55329,-0.62234 2.60473,-0.18817 3.62567,-0.21629c1.39431,-0.03839 3.07328,-1.07642 4.39371,-0.9926c0.84686,0.05376 1.99169,0.7523 2.83169,1.00093c0.91873,1.29504 2.41627,2.05583 3.73963,2.91229c0.41373,0.26777 1.22343,0.34684 1.2188,0.83964c-0.01299,1.38306 -0.64224,2.57802 -1.52666,3.62641c-0.15977,-0.12309 -0.31034,-0.17531 -0.31034,-0.17531l-0.83727,-0.2903c-4.85153,-1.69382 -9.75839,-3.709 -14.65212,-5.43271z" data-paper-data="{&quot;noHover&quot;:false,&quot;origItem&quot;:[&quot;Path&quot;,{&quot;applyMatrix&quot;:true,&quot;segments&quot;:[[[234.31393,113.06501],[-5.13871,0],[0,0]],[235.19936,113.06501],[[235.55002,113.12857],[-0.19141,-0.06355],[0.48943,-1.28132]],[[235.79339,109.22432],[0.44362,1.31005],[-0.15806,-0.46678]],[[234.36654,108.83718],[0.47887,0.11643],[-1.53171,-0.37239]],[[229.89216,107.34842],[1.29426,0.91983],[-0.875,0.04215]],[[226.93003,107.34842],[0.81725,-0.22839],[-1.27426,0.35609]],[[223.15035,109.69035],[1.30373,-0.49584],[-0.95461,0.36307]],[[219.7986,111.07801],[0.31723,-0.76993],[0,0]],[219.56584,111.56081],[[219.02959,112.06827],[0.3575,-0.14996],[-0.09787,0.23264]],[[218.784,112.77044],[0.06612,-0.23527],[5.18841,0.01431]]],&quot;closed&quot;:true}]}" fill="#999999" stroke="none" stroke-width="0.5"/><path d="M351.91626,165.49749c-0.21107,-0.23851 -0.46071,-0.46281 -0.74542,-0.66603c-0.16217,-0.11574 -0.32214,-0.23479 -0.47895,-0.35699c-0.05197,-0.25915 -0.21798,-0.53914 -0.65064,-0.6902c-0.08679,-0.0303 -0.16877,-0.04979 -0.24539,-0.06029c-1.91389,-1.71619 -3.52057,-3.82952 -5.4879,-5.59842c-1.02903,-0.92525 -2.47342,-1.34002 -3.8166,-1.75632c2.72391,-0.99741 2.38821,-3.19419 1.12072,-5.17424c2.27916,-5.07268 3.58989,-10.77373 6.12367,-15.67073c0.12002,1.17163 0.40956,2.27337 0.85934,3.21901c0.99659,2.09535 2.96207,2.93973 4.88084,3.89098c1.98308,0.98315 3.8035,2.15785 6.07597,1.64868c3.20078,-0.82447 5.58633,-2.88951 7.01706,-5.67941c0.01096,-0.0038 0.02185,-0.0077 0.03267,-0.01176c0.98355,-0.36932 1.3317,-1.7724 1.63111,-2.62999c3.67391,-5.8062 -3.65696,-11.59482 -8.91719,-12.70173c-2.7773,-0.58443 -5.9014,0.66979 -8.11489,2.32717c-1.13499,0.87864 -1.94323,2.10421 -2.53661,3.59698c-0.30578,-0.01668 -0.76497,0.06735 -0.97384,0.66561c-0.22505,0.64461 0.15616,1.01539 0.41275,1.17775c-0.01496,0.06439 -0.02809,0.13101 -0.04213,0.1957c-0.12412,0.18907 -0.24506,0.38418 -0.36917,0.57326c-3.61138,5.56926 -5.09422,12.43859 -7.85652,18.50394c-0.02567,0.01679 -0.05169,0.03496 -0.07779,0.05467c-0.40767,0.30791 -0.44992,0.66673 -0.39357,0.94413c-0.57148,1.16939 -1.20318,2.30593 -1.91866,3.3959c-0.67097,1.88689 -1.3497,3.69647 -2.22459,5.47557c-0.20607,0.41904 -0.13901,1.14308 -0.45403,1.40817c-0.1142,-0.04158 -0.22902,-0.0836 -0.34334,-0.12569c-0.02288,-0.11507 -0.04321,-0.24551 -0.11075,-0.30943c-0.38012,-0.3597 -1.13973,-0.44438 -1.24813,-0.95636c-0.16108,-0.7608 0.63404,-2.15968 0.87062,-2.83731c1.07153,-3.06913 2.40557,-6.00131 3.48709,-9.09907c1.40392,-4.02117 3.40395,-8.23102 4.29815,-12.39123c0.59784,-2.78142 0.36124,-5.5195 1.3132,-8.24616c0,0 0.14413,-0.40717 -0.02451,-0.77963c1.06381,-1.34677 1.76067,-2.74869 1.47282,-4.4453c-0.37475,-2.20872 -4.41349,-3.36271 -5.7347,-5.02507c1.33278,0.43202 2.57873,0.91544 3.77348,1.71146c0.58971,0.27032 1.14388,0.95975 1.77508,0.80995c0.80736,-0.19161 2.03908,-2.40601 1.8344,-3.22733c-0.40128,-1.61025 -3.85586,-3.30835 -5.37757,-3.62857c-1.8672,-0.39291 -4.00263,0.24868 -5.85452,0.17284c-1.50066,-0.06146 -3.08717,-1.76376 -4.64976,-1.5488c-0.49356,0.0679 -2.03573,1.35464 -2.43636,2.0838c-1.25232,-0.17255 -2.56153,-0.45806 -3.7696,-0.76479c0.47739,-1.29591 1.11554,-2.58023 1.9645,-3.85445c0.34604,-0.53365 1.33722,-3.24964 2.17612,-3.25761c4.083,-0.03882 8.68044,0.76387 12.91226,0.46495c2.26454,-0.15996 4.059,-0.67537 6.36014,0.08964c2.48786,-0.28315 5.09611,-0.36559 7.57924,-0.5441c0.73886,-0.05312 1.47824,0.22746 2.21641,0.22974c-0.65495,0.3176 -1.37602,0.83054 -1.87836,1.01992c-1.76956,0.66714 -3.44444,1.36846 -5.02299,2.35347l-0.00944,0.00122l-0.03113,-0.12126l-1.0135,0.26193c-0.31898,0.07723 -0.59215,0.30992 -0.70838,0.64283c-0.18204,0.52142 0.1076,0.99277 0.62901,1.17481c0.15857,0.05536 0.32275,0.06864 0.47807,0.04537l1.29196,-0.165l-0.00339,-0.02616l0.0649,0.01635c2.25448,-0.57659 4.26361,0.00575 6.53091,0.20721c4.37165,0.38844 10.07321,0.16468 14.30699,-1.00032c2.43545,0.22205 3.60212,-0.67614 5.85328,0.8416c1.61791,1.09081 0.78553,2.66165 0.6444,4.16085c-0.38784,4.12027 -0.89737,7.88089 -2.26006,11.78398c-0.08446,0.24752 -0.27336,0.50869 -0.36887,0.75106c-1.52599,-0.98933 -2.7057,-2.38435 -3.85181,-3.80578c-0.61583,-0.23537 -1.24678,-0.45117 -1.88747,-0.66035c0.91445,-4.09834 -2.8532,-4.29562 -5.99953,-5.86888c-1.8181,-0.90911 -4.05772,-1.88706 -6.18388,-1.7582c-1.10234,0.06681 -2.29789,0.56608 -3.41162,0.70739l-1.05716,0.45485c0,0 -0.85602,0.34503 -0.42151,1.2457c0.00353,0.00731 0.00714,0.01457 0.01073,0.0217c-0.41006,0.70433 -0.72742,1.51867 -0.35112,2.13404c0.88729,1.451 4.05754,0.21965 5.30667,0.51101c3.48839,0.81367 6.93679,2.61019 10.41428,3.94069c0.07109,0.04429 0.15366,0.08429 0.24914,0.11763c0.07257,0.02534 0.1416,0.04338 0.20704,0.05467c0.67857,0.25121 1.35953,0.48541 2.04213,0.68745c1.04386,1.55385 2.45768,2.88278 4.00055,3.91906l0.16194,0.18586c-1.19906,2.30602 -2.77648,4.41658 -4.17604,6.46901c-0.16161,0.237 -0.24741,0.51459 -0.31332,0.80037c-1.10585,1.375 -2.0265,2.93902 -2.70256,4.58661c-1.53496,2.23039 -3.01824,4.54996 -4.37193,6.94428c-3.0273,2.01802 -2.90514,5.74692 -4.41056,8.78184c-0.75337,1.51881 -2.12731,2.1801 -3.04904,3.45237c-1.17918,1.62764 -2.38761,3.20303 -4.04284,4.52793z" data-paper-data="{&quot;noHover&quot;:false,&quot;origItem&quot;:[&quot;Path&quot;,{&quot;applyMatrix&quot;:true,&quot;segments&quot;:[[[261.10017,140.92828],[-0.57678,1.92536],[0.45085,-1.50499]],[[262.83561,136.66876],[-0.21064,1.68226],[0.42092,-3.36153]],[[264.09578,126.93823],[-2.19294,2.9031],[0.48881,-2.70672]],[[265.93053,118.95768],[-0.714,2.6117],[0.09521,-1.77836]],[[266.97074,113.74708],[-0.59082,1.66267],[-0.03197,-0.29154]],[[267.00302,112.8898],[-0.07446,0.27703],[0.64483,-2.39905]],[[268.81701,105.41726],[-0.37194,2.57238],[0,0]],[[268.603,105.29547],[0,0],[-1.79822,-0.46981]],[[263.53834,102.92129],[1.4977,1.12293],[-0.71105,0.03425]],[[261.38518,102.94738],[0.72345,0.0135],[-0.06551,0.01091]],[[261.17184,102.9642],[0.07687,0],[-0.10113,0]],[[260.8981,102.93558],[0.08171,0.01838],[-3.72171,-0.1099]],[[249.78349,102.66156],[3.56164,-0.38165],[-1.27535,0.13666]],[[244.61877,103.93297],[1.31598,1.07744],[-0.5581,-0.45694]],[[244.24916,101.80282],[-0.15498,0.80013],[-0.00574,-0.00556]],[[244.23193,101.78588],[0.00574,0.00574],[-0.70711,-0.7071]],[244.23193,100.37166],[[245.08211,99.59406],[0,0],[1.00491,-0.50052]],[[248.07619,97.80312],[-1.01871,0.42643],[1.96486,-0.8225]],[[254.50576,97.42999],[-2.01615,-0.25902],[3.48906,0.44826]],[[262.11681,101.00398],[-0.48755,-4.17072],[0.67383,-0.01369]],[[264.11791,101.0071],[-0.659,-0.01923],[1.55059,0.96421]],[[269.01318,103.33725],[-1.76681,-0.43104],[0.01027,-0.26031]],[[269.0261,102.55448],[0.00185,0.26153],[0,-4.13414]],[[267.28511,90.6962],[0.99196,4.01784],[-0.36093,-1.46193]],[[265.30919,86.98363],[1.88704,0.49655],[-2.62563,-0.69089]],[[259.5104,88.12162],[2.37253,-0.59313],[-3.61316,2.49542]],[[246.34936,93.78805],[4.25537,-1.07425],[-2.20699,0.55715]],[[240.12841,95.7457],[1.93843,-1.28749],[0,0]],[240.06191,95.75164],[240.0737,95.77522],[[238.91113,96.35651],[0,0],[-0.13897,0.07317]],[[238.44592,96.47108],[0.16796,0],[-0.55229,0]],[[237.44592,95.47108],[0,0.55228],[0,-0.35262]],[[237.90412,94.63042],[-0.2757,0.17806],[0,0]],[238.77664,94.04874],[238.84611,94.15294],[[238.85464,94.14868],[0,0],[1.16565,-1.45028]],[[242.82934,90.2706],[-1.45076,1.21314],[0.41184,-0.34439]],[[244.26156,88.78838],[-0.51366,0.51574],[-0.69767,0.24116]],[[242.09703,89.30218],[0.68006,-0.29369],[-2.28553,0.98702]],[[235.13397,92.31234],[2.25549,-1.08737],[-2.4247,0.03625]],[[229.11079,94.3196],[2.08526,-0.89746],[-3.89679,1.67711]],[[216.78214,98.1236],[3.84202,-1.38249],[-0.78939,0.28405]],[[215.80471,101.91159],[0.1508,-0.61789],[-0.38152,1.48285]],[[215.22359,106.1921],[0.02355,-1.38084],[1.24166,-0.10862]],[[218.94419,105.62907],[-1.23921,0.24988],[0.1379,-0.82046]],[[220.56069,102.85337],[-0.4436,0.22679],[1.40442,-0.71801]],[[225.46503,102.77796],[-1.43705,0.43662],[1.77339,-0.53881]],[[230.94519,100.67655],[-1.89236,0.24451],[1.54222,-0.19926]],[[237.23058,102.32389],[-0.90962,-1.38799],[0.46396,0.70795]],[[236.59928,106.06825],[0.69908,-0.44702],[-0.54654,0.34949]],[[234.66168,105.88576],[0.64586,0.06083],[-1.39037,-0.35772]],[[230.47359,105.43541],[1.4007,-0.03143],[1.79531,1.13396]],[[237.55674,108.2806],[-1.08184,-1.96176],[0.831,1.50691]],[[237.68822,113.04379],[0.56043,-1.62216],[0.28199,0.29606]],[[237.97021,113.76987],[0,0],[0,2.88806]],[[239.43843,121.91166],[-0.35238,-2.82304],[0.52706,4.22245]],[[239.44592,135.02009],[0,-4.2592],[0,3.28113]],[[239.15078,144.75977],[0,-3.25081],[0,0.71775]],[[239.26333,147.72542],[-0.40285,-0.66519],[0.2711,0.44763]],[[240.75445,148.21676],[-0.47744,-0.2143],[0.08483,0.03807]],[[240.96064,148.47237],[-0.05953,-0.1011],[0.12179,0.00206]],[[241.32563,148.47785],[-0.12152,-0.00161],[0.21004,-0.35412]],[[241.29026,146.99872],[-0.05643,0.46355],[0.23958,-1.96805]],[[241.5854,141.09588],[-0.01152,2.0026],[0.31623,-1.26489]],[[242.27595,137.25733],[-0.15409,1.29241],[-0.14464,-0.24332]],[[242.33614,136.23624],[-0.28339,0.42508],[0.01814,-0.02721]],[[242.39141,136.15899],[-0.0187,0.02431],[0.60867,-6.63689]],[[243.67376,116.18361],[-1.57382,6.4484],[0.05486,-0.21941]],[[243.83832,115.52536],[-0.05486,0.21941],[-0.00806,-0.0657]],[[243.81556,115.32823],[0.0071,0.06572],[-0.29577,-0.06871]],[[243.05361,114.36016],[0,0.68277],[0,-0.63366]],[[243.74934,113.40932],[-0.29419,0.08504],[0.06817,-1.60492]],[[244.99242,109.08319],[-0.78194,1.20365],[1.54348,-2.29435]],[[251.90026,104.21825],[-2.81473,0.36369],[5.33112,-0.68882]],[[264.52549,113.30177],[1.55475,-6.69271],[0,0.90836]],[[263.85325,116.32893],[0.80685,-0.67288],[-0.00888,0.00741]],[[263.82628,116.35085],[0.0091,-0.0072],[-0.43117,3.10558]],[[259.07027,124.04646],[2.75014,-1.83343],[-1.97763,1.22977]],[[252.78569,124.50206],[2.19632,0.27454],[-2.12509,-0.26564]],[[246.88821,122.44581],[1.63156,1.64975],[-0.73633,-0.74455]],[[245.02148,119.68333],[0.4995,1.06659],[-0.77803,5.45851]],[[244.35874,136.41818],[0.47973,-5.54044],[1.84931,1.45159]],[[245.00613,141.67266],[2.24292,-1.83952],[1.40533,-0.0497]],[[249.18044,142.07441],[-1.2765,-0.53435],[2.44045,1.02158]],[[256.19835,145.55442],[-2.37262,-0.98942],[0.07581,-0.01535]],[[256.44957,145.53062],[-0.09193,0],[0.45828,0]],[[257.2906,145.96818],[-0.13449,-0.22754],[0.18833,0.06368]],[[257.85989,146.14765],[-0.19126,-0.05582],[0.33578,0.09801]],[[258.78238,146.53121],[-0.27789,-0.15561],[1.12602,-1.79645]]],&quot;closed&quot;:true}]}" fill="#999999" stroke="none" stroke-width="0.5"/><path d="M321.98792,122.13293c-0.13564,1.0212 -0.21791,2.05169 -0.4527,3.07258c-1.35929,5.91006 -3.25281,11.34311 -7.22835,15.89276c-2.73627,1.78534 -6.8807,-0.55272 -6.86481,-3.83847c0.0337,-6.97348 2.93529,-14.801 5.20602,-21.30494c0.58419,-1.67327 0.88622,-3.83815 2.56833,-4.80609c2.04427,-1.17635 6.63257,1.16408 7.86213,2.86241c1.35585,1.87275 -0.34148,6.00094 -1.0906,8.12176z" fill="#c300f0" stroke="none" stroke-width="0.5"/><path d="M371.43982,136.7066c-0.25,-0.39578 -0.0812,-0.87929 -0.0812,-0.87929l0.09729,-0.27866c0.62559,-1.79183 1.35113,-6.48366 3.58408,-6.87263c2.00671,-0.34956 4.09846,2.28886 5.74639,2.8642c2.03889,2.61601 0.68574,4.66752 -0.29469,7.47572c-2.23302,6.39594 -4.67192,13.66641 -10.66534,17.23097c-3.24663,-1.01581 -3.77468,-3.50808 -3.84768,-6.61242c-0.12354,-5.25364 3.23074,-8.6865 5.46115,-12.92789z" fill="#c300f0" stroke="none" stroke-width="0.5"/><path d="M320.01892,114.11262c-0.05729,-0.30224 0.0373,-0.57317 0.0373,-0.57317l0.19457,-0.55729c0.14678,-0.42041 0.82874,-2.459 1.04552,-2.63567c1.9325,-1.57488 5.54896,0.91248 5.56385,3.07321c0.02091,3.03379 -2.55089,7.43655 -3.55726,10.31904c-1.76621,5.05887 -2.5822,10.11314 -4.91451,14.95703c-0.82038,1.70382 -3.58363,6.62572 -6.0268,3.69429c-0.97058,-1.16454 0.1056,-4.28665 0.24138,-5.68911c2.49108,-7.26917 3.6694,-15.70706 7.41594,-22.58834z" fill="#00b539" stroke="none" stroke-width="0.5"/><path d="M370.64689,131.17834c-0.33637,-0.40761 -0.14226,-0.9636 -0.14226,-0.9636l0.09728,-0.27865c0.51002,-1.44313 1.70481,-4.96428 3.39485,-5.38485c0.90871,-0.22614 3.77064,2.17157 4.03366,2.93904c0.548,1.59895 -0.26061,1.85961 -0.82421,3.00532c-0.97301,1.97796 -1.55144,4.18072 -2.75834,6.04193c-1.809,2.71515 -3.42298,6.84178 -4.11278,10.05708c-0.43711,2.03751 -0.00713,4.33674 -1.24393,6.19072c-1.17997,1.76879 -4.86702,4.41784 -6.12135,1.35576c-0.43612,-1.06464 0.30375,-2.82561 0.01532,-4.04922c1.28602,-4.06039 2.48677,-8.52482 4.28559,-12.38246c1.04605,-2.24332 2.33305,-4.31142 3.37617,-6.53107z" fill="#00b539" stroke="none" stroke-width="0.5"/><path d="M373.63547,148.47999c-1.92066,-1.60033 -0.32032,-3.52099 -0.32032,-3.52099l1.50692,-1.79897c5.31835,-8.63251 11.73994,-16.92746 15.07958,-26.49301c2.33066,-6.6493 4.29835,-14.05143 4.65158,-21.06799c0.11503,-2.28488 1.27836,-5.3294 0.98644,-7.57586c-0.34222,-2.63351 -3.8871,-4.83748 -5.8351,-6.04094c-4.69156,-2.89838 -8.95821,-6.26125 -14.00602,-8.60739c-12.77032,-7.52261 -30.36348,-14.68733 -43.12046,-2.98613c-2.392,2.19404 -4.0042,5.42337 -5.69379,8.14255c-4.80371,10.05359 -10.31733,20.0612 -12.99882,31.02979c-1.33702,5.46907 -1.49194,11.17954 -2.14861,16.75528c0,0 -0.29241,2.48284 -2.77525,2.19043c-2.48284,-0.29241 -2.19043,-2.77525 -2.19043,-2.77525c0.6801,-5.77472 0.8564,-11.68198 2.25429,-17.34538c2.81298,-11.39643 8.45833,-21.80416 13.47226,-32.25446c1.97903,-3.20415 3.88965,-6.82481 6.68907,-9.41709c14.35972,-13.29715 34.19798,-6.42899 48.84027,2.23556c4.34983,2.02686 8.26946,4.66295 12.14264,7.44595c3.94729,2.83624 9.37591,5.3092 10.3011,10.80023c0.44241,2.62568 -0.7914,5.97288 -0.92316,8.63852c-0.37092,7.50384 -2.45279,15.37216 -4.92545,22.48026c-3.4993,10.02288 -10.13424,18.75459 -15.74422,27.76886l-1.72153,2.07568c0,0 -1.60033,1.92066 -3.52099,0.32032z" fill="#82007c" stroke="none" stroke-width="0.5"/><path d="M297.01801,181.31751c-0.23225,-0.7326 -0.35584,-3.18928 -0.87892,-3.76196c-2.96549,-3.24663 -5.36324,-1.67551 -9.07234,-1.70073c-1.10655,-0.3794 -2.75814,-0.78361 -3.5153,-1.79463c-1.72501,-2.30333 -1.19492,-6.04646 1.15841,-7.67415c1.43901,-0.99529 4.02625,-1.20329 4.84046,-2.93258c0.95111,-2.02005 -2.08191,-4.46094 -1.76651,-6.49385c0.40513,-2.61127 3.9542,-3.4824 5.97516,-4.45739c0.17773,-0.08547 2.46251,-1.14701 2.67065,-1.38315c0.79284,-0.89952 0.62251,-2.99392 0.73325,-4.00336c0.29192,-2.66112 0.10256,-8.32321 1.84911,-10.4815c2.31776,-2.86419 7.64901,-2.37326 10.70782,-3.88119c0,0 1.12583,-0.54314 1.66898,0.58269c0.54314,1.12583 -0.58269,1.66898 -0.58269,1.66898c-2.69516,1.27816 -7.88965,1.00371 -9.92883,3.29409c-0.90239,1.01356 -0.42983,4.0076 -0.51622,5.20859c-0.17103,2.37784 -0.33265,7.26918 -1.97694,9.17056c-0.67316,0.77841 -2.56701,1.60579 -3.53884,2.07595c-0.6978,0.33664 -4.57545,1.60837 -4.57734,2.48724c-0.00543,2.5202 2.89515,4.25354 1.58694,7.18145c-1.28474,2.87539 -6.18953,2.64263 -6.91562,5.45546c-0.11663,0.45182 0.63576,1.63925 0.68615,1.82943c0.21535,0.8128 1.08531,1.40146 1.87672,1.68554c1.60475,0.04284 2.46835,-0.7157 4.09247,-0.70492c2.3447,0.01558 5.11852,1.55293 6.56151,3.39036c1.25743,1.60115 0.88395,4.35266 1.67958,6.36557c-0.34406,0.86041 -0.65065,1.71984 -0.92721,2.59961c-0.82801,-0.94656 -1.36681,-2.07443 -1.89042,-3.72611z" fill="#00b539" stroke="none" stroke-width="0.5"/><path d="M369.10639,122.25377c0,0 1.33426,0.80273 3.65199,2.45104c2.11697,1.50554 3.62583,3.11316 3.62583,3.11316l-0.20157,1.16925c0,0 -5.81278,-5.34467 -13.45668,-7.31499c-6.11189,-1.5754 -10.33341,-0.62884 -10.33341,-0.62884l1.41996,-3.92832c0,0 3.51444,-0.57809 8.03582,0.84015c4.68186,1.46859 7.44379,3.22511 7.44379,3.22511z" data-paper-data="{&quot;index&quot;:null}" fill="#000000" stroke="none" stroke-width="1.5"/><path d="M329.89898,112.904c0,0 3.78089,-0.60665 8.33566,0.49339c5.04726,1.21897 7.35594,2.49799 7.35594,2.49799l-1.0852,4.00351c0,0 -3.39683,-1.90688 -7.39808,-3.13488c-5.35118,-1.64231 -6.74584,-0.83743 -10.91208,-1.80661c-3.56985,-0.83044 -6.41307,-2.07076 -6.41307,-2.07076l0.3815,-1.17126c0,0 3.36986,1.25488 4.96375,1.66059c1.31554,0.33485 4.06272,0.42481 4.06272,0.42481z" fill="#000000" stroke="none" stroke-width="1.5"/></g></g></svg>