<svg version="1.1" xmlns="http://www.w3.org/2000/svg" xmlns:xlink="http://www.w3.org/1999/xlink" width="177.19542" height="78.69229" viewBox="0,0,177.19542,78.69229"><g transform="translate(-231.30998,-143.24045)"><g data-paper-data="{&quot;isPaintingLayer&quot;:true}" fill-rule="nonzero" stroke="#000000" stroke-width="1" stroke-linecap="butt" stroke-linejoin="miter" stroke-miterlimit="10" stroke-dasharray="" stroke-dashoffset="0" style="mix-blend-mode: normal"><path d="M390.38377,189.79632c0.3221,6.48775 -5.00485,12.02454 -11.89808,12.36677c-6.89323,0.34224 -12.74241,-4.63968 -13.06452,-11.12743c-0.3221,-6.48775 5.00485,-12.02454 11.89808,-12.36677c6.89323,-0.34224 12.74241,4.63968 13.06452,11.12743z" fill="#999915"/><g><path d="M286.50087,179.1824c0.40838,8.22554 -5.83475,15.22004 -13.94443,15.62267c-8.10969,0.40263 -15.01493,-5.93908 -15.42331,-14.16462c-0.40838,-8.22553 5.83475,-15.22004 13.94443,-15.62267c8.10969,-0.40263 15.01493,5.93909 15.42331,14.16462z" fill="#dcdc5e"/><path d="M297.76004,194.18463c0.28184,5.67678 -4.37338,10.52118 -10.39771,10.82027c-6.02433,0.2991 -11.1365,-4.06037 -11.41834,-9.73715c-0.28184,-5.67678 4.37338,-10.52118 10.39771,-10.82027c6.02433,-0.2991 11.1365,4.06037 11.41834,9.73715z" fill="#999915"/><path d="M314.20384,169.60582c0.52917,10.65844 -7.40048,19.7138 -17.71136,20.22571c-10.31088,0.51191 -19.09848,-7.71346 -19.62765,-18.37191c-0.52917,-10.65844 7.40048,-19.7138 17.71136,-20.22571c10.31088,-0.51191 19.09848,7.71346 19.62765,18.37191z" fill="#999915"/><path d="M311.77443,188.44195c0.28184,5.67678 -4.18554,10.51185 -9.97816,10.79944c-5.79263,0.28759 -10.71696,-4.0812 -10.9988,-9.75798c-0.28184,-5.67678 4.18554,-10.51185 9.97816,-10.79944c5.79263,-0.28759 10.71696,4.0812 10.9988,9.75798z" fill="#999915"/><path d="M339.28993,175.08952c0.50616,10.19502 -7.34822,18.87006 -17.54324,19.37622c-10.19502,0.50616 -18.87006,-7.34822 -19.37622,-17.54324c-0.50616,-10.19502 7.34822,-18.87006 17.54324,-19.37622c10.19502,-0.50616 18.87006,7.34822 19.37622,17.54324z" fill="#999915"/><path d="M368.15483,171.97414c0.57519,11.58526 -7.69283,21.41061 -18.46712,21.94554c-10.77429,0.53492 -19.97486,-8.42315 -20.55005,-20.00841c-0.57519,-11.58526 7.69283,-21.41061 18.46712,-21.94554c10.77429,-0.53492 19.97486,8.42315 20.55005,20.00841z" fill="#999915"/><path d="M347.21361,190.67791c0.3221,6.48775 -4.20655,11.9849 -10.11503,12.27825c-5.90848,0.29334 -10.95937,-4.7282 -11.28147,-11.21595c-0.3221,-6.48775 4.20655,-11.9849 10.11503,-12.27825c5.90848,-0.29334 10.95937,4.7282 11.28147,11.21595z" fill="#999915"/><path d="M377.41003,188.96844c0.51191,10.31088 -6.86821,19.05652 -16.48398,19.53392c-9.61577,0.4774 -17.82587,-7.49421 -18.33779,-17.80509c-0.51191,-10.31088 6.86821,-19.05652 16.48398,-19.53392c9.61577,-0.4774 17.82587,7.49421 18.33779,17.80509z" fill="#999915"/><path d="M392.94931,171.58429c0.46015,9.2682 -7.43154,17.1919 -17.62656,17.69806c-10.19502,0.50616 -18.83276,-6.59689 -19.2929,-15.86508c-0.46015,-9.2682 7.43154,-17.1919 17.62656,-17.69806c10.19502,-0.50616 18.83276,6.59689 19.2929,15.86508z" fill="#999915"/><path d="M332.0477,190.16916c0.44864,9.0365 -6.60711,16.7304 -15.75947,17.18479c-9.15235,0.4544 -16.93551,-6.50278 -17.38415,-15.53928c-0.44864,-9.0365 6.60711,-16.7304 15.75947,-17.18479c9.15235,-0.4544 16.93551,6.50278 17.38415,15.53928z" fill="#999915"/><path d="M281.83837,195.39567c0.4774,9.61577 -7.11854,17.80722 -16.966,18.29613c-9.84747,0.48891 -18.21743,-6.90987 -18.69483,-16.52564c-0.4774,-9.61577 7.11854,-17.80722 16.966,-18.29613c9.84747,-0.48891 18.21743,6.90987 18.69483,16.52564z" fill="#999915"/><path d="M289.78576,173.34157c0.64421,12.9755 -9.25836,24.01177 -22.11799,24.65023c-12.85964,0.63846 -23.80666,-9.36268 -24.45087,-22.33818c-0.64421,-12.9755 9.25836,-24.01177 22.11799,-24.65023c12.85964,-0.63846 23.80666,9.36268 24.45087,22.33818z" fill="#999915"/></g><g fill="#e3e376"><path d="M271.61298,189.59166c0.27186,-0.18687 1.06847,-0.61861 1.87594,0.05426c0.99526,0.82937 0.0165,1.67814 0.0165,1.67814l-1.14455,0.59209c-4.55433,0.36496 -9.15019,0.27654 -13.5508,-0.84632c-2.64064,-1.00015 -3.3929,-0.94698 -5.20481,-3.04166c-3.20706,-3.70758 -3.15952,-9.36275 -0.59637,-13.33837c1.21738,-1.88824 3.13697,-3.32368 4.93281,-4.79317c4.77777,-3.90954 9.36155,-7.23028 15.89635,-8.69202c0,0 1.35134,-0.30111 1.70119,0.84675c0.34986,1.14787 -1.00148,1.44897 -1.00148,1.44897c-6.05185,1.34292 -10.24412,4.48804 -14.66346,8.10379c-1.58529,1.29702 -3.34062,2.5595 -4.41972,4.22357c-1.29184,1.99215 -1.3236,4.0267 -1.40542,6.22228c-0.01296,0.34794 -0.17617,0.70851 -0.06416,1.043c0.22636,0.67593 0.7104,1.26868 1.05248,1.9082c0.80867,1.51184 0.72807,2.03405 2.48715,3.01984c0.68269,0.38258 1.50392,0.54717 2.25587,0.82077c3.81953,0.97601 7.8729,1.04248 11.83246,0.74986z"/><path d="M283.32734,177.32054c-0.66757,0.08509 -1.29874,0.27986 -1.9621,0.73154c-2.66777,1.81651 -5.86125,5.14592 -3.92849,8.60412c0.5122,0.91645 1.19604,0.99474 2.20921,1.33585c2.02318,0.68116 5.50762,1.37887 6.86235,-0.60004c1.0808,-2.23372 2.33567,-4.82362 1.36355,-7.39339c-0.12045,-0.31841 -1.53146,-1.64206 -1.60823,-1.71237c-0.27372,-0.25065 -0.50353,-0.58901 -0.85198,-0.71681c-0.65756,-0.24117 -1.37932,-0.20152 -2.08431,-0.24892zM286.08042,174.85004c0.11163,0.03182 0.22187,0.06894 0.33043,0.11254c3.8483,1.54513 5.24202,6.25265 4.28704,9.9838c-0.15533,0.60692 -1.48973,3.25736 -1.80042,3.88997c-1.09292,1.43504 -1.12911,1.92014 -3.07604,2.46972c-0.76465,0.21584 -2.41632,-0.01462 -3.23261,-0.07557c-2.68165,-0.20027 -5.97938,-0.5204 -7.52802,-3.10832c-2.86347,-4.78513 0.82771,-9.81944 4.79906,-12.42128c0.63525,-0.41618 1.25256,-0.69118 1.87935,-0.87371c0.40482,-0.3389 0.94377,-0.34419 0.94377,-0.34419l0.55318,0.02167c0.04999,0.00957 0.10016,0.01835 0.15049,0.02645c0.53064,-0.04799 1.08238,-0.06348 1.66926,-0.07145c0,0 0.60714,-0.00597 1.02452,0.39038z"/><path d="M311.49653,191.58016c-1.35637,0.32984 -1.68621,-1.02655 -1.68621,-1.02655l-0.26624,-1.15424c-0.50204,-5.17856 -0.81015,-10.21784 -2.18252,-15.22278c-0.09844,-0.1391 -0.17994,-0.54268 -0.29534,-0.41728c-0.16603,0.18044 0.06805,0.49938 0.0024,0.73563c-0.47639,1.71436 -0.95002,2.96836 -2.10602,4.30626c-0.88181,1.02057 -1.49379,2.75982 -2.83668,2.8854c-1.0545,0.09862 -1.49473,-1.52591 -2.0488,-2.42853c-0.68254,-1.11191 -0.98678,-2.41855 -1.57376,-3.58374c-0.03781,-0.07506 -0.08185,-0.15667 -0.13011,-0.24324c-0.09664,0.84159 -0.24726,1.62056 -0.26099,1.83464c-0.2846,4.4404 -1.22209,8.82825 -1.66946,13.25806c0,0 -0.14041,1.38883 -1.52923,1.24843c-1.38883,-0.14041 -1.24843,-1.52923 -1.24843,-1.52923c0.51292,-5.06834 1.37354,-10.05883 1.75101,-15.13771c0.05218,-0.70202 0.28751,-4.39915 1.13943,-4.69424c2.9074,-1.00703 4.53375,3.80393 5.29736,5.53498c0.26571,0.60235 0.56037,1.20876 0.71219,1.84776c0.29836,-0.69911 0.77777,-1.35667 1.10669,-2.04133c0.37031,-0.77081 0.4481,-1.66711 0.85754,-2.41788c0.44563,-0.81714 0.76716,-2.041 1.67817,-2.23172c1.12404,-0.23534 2.15186,0.80307 3.22779,1.20461c0.18213,0.47575 1.52067,3.84226 1.705,4.71742c0.81953,3.89082 0.79835,8.14216 1.18254,12.10513l0.20022,0.76397c0,0 0.32984,1.35637 -1.02655,1.68621z"/><path d="M338.96414,174.33836c0.94125,0.10094 1.17572,0.77175 1.22916,1.19309c2.13881,4.46177 1.17832,9.69734 -2.3795,13.30586c-2.71837,2.75711 -7.45769,4.11627 -9.45076,-0.1737c-0.73388,-1.57964 -1.18936,-3.02575 -1.46851,-4.71009c-0.31909,-1.92531 -0.09732,-3.50894 0.10792,-5.42275c0,0 0.14885,-1.38795 1.5368,-1.2391c1.38795,0.14885 1.2391,1.5368 1.2391,1.5368c-0.1775,1.6551 -0.41224,3.00746 -0.13104,4.65977c0.21714,1.27593 0.72151,5.11571 2.50167,5.28308c1.74743,0.16429 3.63508,-1.69527 4.48668,-2.98453c1.99995,-3.02779 2.64049,-6.03783 0.92734,-9.27564l-0.13565,-0.93369c0,0 0.14885,-1.38795 1.5368,-1.2391z"/><path d="M354.17406,171.65764c0.32803,1.35681 -1.02878,1.68484 -1.02878,1.68484l-1.46981,0.3312c-1.33852,0.07171 -2.68227,0.12175 -4.01933,0.21735c0.02075,0.40828 0.04157,0.81639 0.06345,1.22414c0.2834,5.28103 0.50029,16.25065 0.50029,16.25065l-0.02473,0.00075c-0.00003,0.03047 -0.00006,0.06095 -0.00011,0.09144l-2.79181,-0.00583c0.01543,-5.42455 -0.17961,-10.7539 -0.47129,-16.18447c-0.01945,-0.36218 -0.03771,-0.72488 -0.05563,-1.08793c-0.96603,0.14006 -1.92406,0.32948 -2.86944,0.59446c0,0 -1.34524,0.37267 -1.71791,-0.97257c-0.37267,-1.34524 0.97257,-1.71791 0.97257,-1.71791c1.14637,-0.31427 2.3039,-0.53193 3.46942,-0.68974c-0.15102,-2.50627 -0.39196,-5.00686 -1.00791,-7.44208c0,0 -0.33975,-1.35393 1.01417,-1.69369c1.35393,-0.33975 1.69369,1.01417 1.69369,1.01417c0.64114,2.57307 0.90518,5.20283 1.07264,7.84175c1.33535,-0.09791 2.67772,-0.15608 4.02241,-0.22827l0.96325,-0.25703c0,0 1.35681,-0.32803 1.68484,1.02878z"/><path d="M364.08654,191.338c-0.61197,1.25462 -1.86657,0.64265 -1.86657,0.64265l0.21872,-0.0001c-3.21009,-0.26818 -5.80631,-1.20691 -8.51971,-2.92631c-1.29382,-1.68536 -1.76991,-1.67977 -1.60506,-3.94862c0.00521,-0.07154 0.01191,-0.14192 0.02007,-0.2112c-0.29341,-0.23286 -0.54267,-0.62374 -0.44145,-1.2702c0.18221,-1.16365 1.19251,-1.19171 1.50375,-1.17207c0.51354,-0.66406 1.14163,-1.26334 1.73406,-1.93443c0.44902,-0.50862 0.74373,-1.16894 1.28406,-1.57925c1.94835,-1.47949 6.58674,-1.61781 8.57181,0.06808c2.6108,2.21731 1.18624,5.14011 -1.30529,6.54007c-2.52709,1.41992 -5.7085,0.68875 -8.54042,0.07862c0.03072,0.41592 0.22057,0.85951 0.63695,1.34567c2.18028,1.32299 4.33917,2.02802 6.88666,2.22695l0.7798,0.27358c0,0 1.25462,0.61197 0.64265,1.86657zM356.60973,183.03875c1.43424,0.26041 2.85738,0.44636 4.45621,0.31494c0.61442,-0.0505 2.8101,-0.49128 2.53577,-1.6104c-0.23315,-0.95113 -2.07859,-0.99582 -2.80855,-1.05388c-0.55598,-0.04422 -1.12285,-0.10021 -1.67315,-0.00955c-1.15038,0.1895 -1.16933,0.83822 -1.8912,1.67923c-0.19837,0.2311 -0.40976,0.45653 -0.61907,0.67966z"/><path d="M381.40799,176.0041c0.28872,1.36572 -1.077,1.65444 -1.077,1.65444l-0.84201,0.17721c-2.51838,0.44174 -5.53173,1.009 -6.79396,3.42271c0,0 -0.14029,0.24968 -0.40689,0.4593c-0.35505,3.22349 -0.60083,6.45933 -0.75763,9.68803c0.30781,0.54131 0.08835,1.17769 0.08835,1.17769l-0.14194,0.00715c-0.00356,0.08477 -0.00705,0.16954 -0.01049,0.2543l-0.48666,-0.22928l-2.30285,0.11588c0.2801,-6.87185 0.94708,-13.78446 2.17415,-20.56508c0,0 0.24913,-1.3735 1.62263,-1.12436c1.3735,0.24913 1.12436,1.62263 1.12436,1.62263c-0.27172,1.49446 -0.51516,2.99571 -0.73239,4.5017c1.75832,-1.15013 3.90988,-1.68313 6.13719,-2.07982l0.75069,-0.15949c0,0 1.36572,-0.28872 1.65444,1.077z"/><g><path d="M319.4241,191.43192c-1.39584,0.01372 -1.40956,-1.38212 -1.40956,-1.38212l-0.01646,-1.67501c-0.03681,-3.74501 -0.03066,-7.5053 -0.65021,-11.21461c-0.6675,-3.99639 -2.00447,-7.94551 -3.02488,-11.86304c0,0 -0.35185,-1.35084 0.99898,-1.70268c1.35084,-0.35185 1.70268,0.99898 1.70268,0.99898c1.04003,3.99295 2.39134,8.01454 3.07363,12.08775c0.64649,3.85948 0.65316,7.76884 0.69147,11.66616l0.01646,1.67501c0,0 0.01372,1.39584 -1.38212,1.40956z"/><path d="M318.63938,175.94432c-0.01372,-1.39584 1.72263,-1.41291 1.72263,-1.41291l0.3482,0.0035c2.20102,-0.18376 5.10981,-0.66313 6.29662,-2.31584c0.69018,-0.96111 1.15292,-4.23105 -1.02736,-4.47989c-2.53368,-0.28917 -5.2118,1.27223 -7.1829,2.27301c0,0 -1.47159,0.74609 -2.39329,-0.43374c-0.9217,-1.17983 0.54989,-1.92593 0.54989,-1.92593c2.6626,-1.3481 6.40425,-3.30977 9.78666,-2.6401c4.54451,0.89973 5.27179,5.82229 3.26885,8.60004c-1.82242,2.52737 -5.54111,3.37322 -8.92562,3.69688l-0.69361,0.01374c0,0 -1.73635,0.01707 -1.75007,-1.37877z"/></g></g><path d="M334.74877,153.85906c0.1027,2.06852 -1.65861,3.83697 -3.93397,3.94993c-2.27537,0.11297 -4.20318,-1.47232 -4.30588,-3.54084c-0.1027,-2.06852 1.65861,-3.83697 3.93397,-3.94993c2.27537,-0.11297 4.20318,1.47232 4.30588,3.54084z" fill="#999915"/><path d="M321.07323,150.65825c0.16774,3.37858 -2.49106,6.25622 -5.93859,6.42738c-3.44753,0.17116 -6.37829,-2.42897 -6.54603,-5.80755c-0.16774,-3.37858 2.49106,-6.25622 5.93859,-6.42738c3.44753,-0.17116 6.37829,2.42897 6.54603,5.80755z" fill="#999915"/><path d="M287.45328,149.07341c0.15405,3.10278 -2.29227,5.74573 -5.464,5.90321c-3.17173,0.15747 -5.86781,-2.23018 -6.02185,-5.33296c-0.15405,-3.10278 2.29227,-5.74573 5.464,-5.90321c3.17173,-0.15747 5.86781,2.23018 6.02185,5.33296z" fill="#999915"/><path d="M279.04432,151.1179c0.13008,2.62012 -1.8885,4.84961 -4.50862,4.97969c-2.62012,0.13008 -4.84961,-1.8885 -4.97969,-4.50862c-0.13008,-2.62012 1.8885,-4.84961 4.50862,-4.97969c2.62012,-0.13008 4.84961,1.8885 4.97969,4.50862z" fill="#999915"/><path d="M260.9201,152.60119c0.22251,4.48179 -3.23032,8.29539 -7.71211,8.5179c-4.48179,0.22251 -8.29539,-3.23032 -8.5179,-7.71211c-0.22251,-4.48179 3.23032,-8.29539 7.71211,-8.5179c4.48179,-0.22251 8.29539,3.23032 8.5179,7.71211z" fill="#999915"/><path d="M246.97572,175.73837c0.17116,3.44753 -2.70844,6.39217 -6.43178,6.57702c-3.72333,0.18486 -6.88045,-2.46007 -7.05161,-5.9076c-0.17116,-3.44753 2.70844,-6.39217 6.43178,-6.57702c3.72333,-0.18486 6.88045,2.46007 7.05161,5.9076z" fill="#999915"/><path d="M248.98482,196.03872c0.21567,4.34389 -3.18682,8.04292 -7.59966,8.26201c-4.41284,0.21909 -8.16499,-3.12473 -8.38066,-7.46862c-0.21567,-4.34389 3.18682,-8.04292 7.59966,-8.26201c4.41284,-0.21909 8.16499,3.12473 8.38066,7.46862z" fill="#999915"/><path d="M248.5749,207.9487c0.07531,1.51691 -1.14923,2.81044 -2.7351,2.88918c-1.58587,0.07874 -2.93252,-1.08714 -3.00783,-2.60405c-0.07531,-1.51691 1.14923,-2.81044 2.7351,-2.88918c1.58587,-0.07874 2.93252,1.08714 3.00783,2.60405z" fill="#999915"/><path d="M306.73909,209.81681c0.17801,3.58543 -2.75194,6.64463 -6.54423,6.83291c-3.79229,0.18828 -7.01085,-2.56566 -7.18886,-6.15109c-0.17801,-3.58543 2.75194,-6.64463 6.54423,-6.83291c3.79229,-0.18828 7.01085,2.56566 7.18886,6.15109z" fill="#999915"/><path d="M291.44586,209.32455c0.07531,1.51691 -1.03744,2.80489 -2.48541,2.87678c-1.44797,0.07189 -2.68282,-1.09954 -2.75813,-2.61645c-0.07531,-1.51691 1.03744,-2.80489 2.48541,-2.87678c1.44797,-0.07189 2.68282,1.09954 2.75813,2.61645z" fill="#999915"/><path d="M348.64847,211.99133c0.24647,4.96445 -3.63409,9.19151 -8.66749,9.44141c-5.0334,0.2499 -9.31358,-3.572 -9.56006,-8.53645c-0.24647,-4.96445 3.63409,-9.19151 8.66749,-9.44141c5.0334,-0.2499 9.31358,3.572 9.56006,8.53645z" fill="#999915"/><path d="M356.66962,212.21887c0.09243,1.86167 -1.34183,3.44578 -3.20349,3.5382c-1.86167,0.09243 -3.44578,-1.34183 -3.5382,-3.20349c-0.09243,-1.86167 1.34183,-3.44578 3.20349,-3.5382c1.86167,-0.09243 3.44578,1.34183 3.5382,3.20349z" fill="#999915"/><path d="M335.34039,211.1502c0.13693,2.75802 -2.04378,5.10763 -4.87076,5.24798c-2.82698,0.14035 -5.2297,-1.98169 -5.36663,-4.73972c-0.13693,-2.75802 2.04378,-5.10763 4.87076,-5.24798c2.82698,-0.14035 5.2297,1.98169 5.36663,4.73972z" fill="#999915"/><path d="M407.99553,187.26808c0.21909,4.41284 -3.23652,8.17054 -7.71831,8.39305c-4.48179,0.22251 -8.29261,-3.17442 -8.5117,-7.58726c-0.21909,-4.41284 3.23652,-8.17054 7.71831,-8.39305c4.48179,-0.22251 8.29261,3.17442 8.5117,7.58726z" fill="#999915"/><path d="M397.57931,199.29939c0.09585,1.93062 -1.39152,3.5734 -3.32214,3.66925c-1.93062,0.09585 -3.5734,-1.39152 -3.66925,-3.32214c-0.09585,-1.93062 1.39152,-3.5734 3.32214,-3.66925c1.93062,-0.09585 3.5734,1.39152 3.66925,3.32214z" fill="#999915"/><path d="M383.52483,208.63279c0.12666,2.55118 -1.95059,4.72754 -4.63966,4.86105c-2.68908,0.13351 -4.97168,-1.8264 -5.09834,-4.37757c-0.12666,-2.55118 1.95059,-4.72754 4.63966,-4.86105c2.68908,-0.13351 4.97168,1.8264 5.09834,4.37757z" fill="#999915"/><path d="M375.34697,210.29034c0.07189,1.44797 -0.82005,2.66895 -1.99222,2.72714c-1.17217,0.0582 -2.18066,-1.06843 -2.25255,-2.5164c-0.07189,-1.44797 0.82005,-2.66895 1.99222,-2.72714c1.17217,-0.0582 2.18066,1.06843 2.25255,2.5164z" fill="#999915"/><path d="M386.71505,207.34801c0.08216,1.65481 -1.13684,3.06014 -2.7227,3.13887c-1.58587,0.07874 -2.93807,-1.19894 -3.02022,-2.85375c-0.08216,-1.65481 1.13684,-3.06014 2.7227,-3.13887c1.58587,-0.07874 2.93807,1.19894 3.02022,2.85375z" fill="#999915"/><path d="M239.34146,158.09523c0.08216,1.65481 -1.24863,3.06569 -2.97239,3.15127c-1.72377,0.08558 -3.18776,-1.18654 -3.26992,-2.84135c-0.08216,-1.65481 1.24863,-3.06569 2.97239,-3.15127c1.72377,-0.08558 3.18776,1.18654 3.26992,2.84135z" fill="#999915"/><path d="M235.80506,167.5322c0.05477,1.10321 -0.79515,2.04194 -1.89837,2.09671c-1.10321,0.05477 -2.04194,-0.79515 -2.09671,-1.89837c-0.05477,-1.10321 0.79515,-2.04194 1.89837,-2.09671c1.10321,-0.05477 2.04194,0.79515 2.09671,1.89837z" fill="#999915"/></g></g></svg>