<svg version="1.1" xmlns="http://www.w3.org/2000/svg" xmlns:xlink="http://www.w3.org/1999/xlink" width="122.45269" height="268.27531" viewBox="0,0,122.45269,268.27531"><defs><linearGradient x1="314.3526" y1="183.19476" x2="312.35553" y2="214.64552" gradientUnits="userSpaceOnUse" id="color-1"><stop offset="0" stop-color="#91913f"/><stop offset="1" stop-color="#91913f" stop-opacity="0"/></linearGradient></defs><g transform="translate(-258.68223,-46.00254)"><g data-paper-data="{&quot;isPaintingLayer&quot;:true}" fill-rule="nonzero" stroke-linejoin="miter" stroke-miterlimit="10" stroke-dasharray="" stroke-dashoffset="0" style="mix-blend-mode: normal"><path d="M278.91106,312.99746l20.94633,-138.02336l30.82424,-6.75029l2.46317,133.17823z" fill="#c5c556" stroke="#000000" stroke-width="2" stroke-linecap="butt"/><g data-paper-data="{&quot;index&quot;:null}" fill="#ffffff" stroke="#000000" stroke-width="3" stroke-linecap="butt"><path d="M308.9777,242.12609c0,0 11.5834,-12.63634 13.83934,-22.8987c2.25594,-10.26235 -5.58389,-14.6557 -5.58389,-14.6557l1.77731,-3.54301c0,0 7.42847,7.42275 5.50577,18.32005c-1.50661,8.53906 -9.71519,21.96622 -9.71519,21.96622z"/><path d="M322.22181,195.04516c0.58113,1.11165 -2.62001,5.76634 -2.62001,5.76634c0,0 2.506,3.64921 1.71817,4.99883c-0.78785,1.34953 -4.50466,-0.21935 -4.50466,-0.21935c0,0 -2.55023,5.19954 -3.61699,4.92601c-1.06838,-0.27514 -0.16559,-5.89748 -0.16559,-5.89748c0,0 -4.08053,-0.4354 -3.95219,-1.95747c0.12667,-1.51966 4.40231,-3.42292 4.40231,-3.42292c0,0 0.02705,-5.47296 1.1738,-6.1369c1.1484,-0.6685 2.88787,3.77736 2.88787,3.77736c0,0 4.09611,-2.94211 4.6773,-1.83441z"/><path d="M295.28295,254.93328c-2.08163,-7.95118 1.72165,-18.27002 8.49485,-23.04779c6.7732,-4.77778 13.95147,-2.20518 16.0331,5.74598c2.08163,7.95118 -1.72165,18.27002 -8.49486,23.0478c-6.7732,4.77778 -13.95147,2.20518 -16.03309,-5.74599z"/></g><g stroke-linecap="butt"><path d="M309.85927,241.72505c0,0 11.57147,-12.44846 13.81593,-22.52998c2.24445,-10.08151 -5.6025,-14.36265 -5.6025,-14.36265l1.77361,-3.48451c0,0 7.43905,7.25612 5.52866,17.95951c-1.49696,8.3871 -9.69183,21.59844 -9.69183,21.59844z" fill="#ffffff" stroke="none" stroke-width="0"/><path d="M323.05141,195.46239c0.58258,1.08881 -2.61389,5.67006 -2.61389,5.67006c0,0 2.51092,3.57184 1.72447,4.8996c-0.78646,1.32769 -4.50605,-0.1975 -4.50605,-0.1975c0,0 -2.54476,5.11346 -3.61211,4.84921c-1.06897,-0.26585 -0.17257,-5.78776 -0.17257,-5.78776c0,0 -4.08206,-0.41121 -3.95548,-1.90566c0.12493,-1.49207 4.39939,-3.37705 4.39939,-3.37705c0,0 0.02062,-5.37186 1.16688,-6.02804c1.1479,-0.66067 2.89303,3.69607 2.89303,3.69607c0,0 4.09367,-2.90391 4.67631,-1.81898z" data-paper-data="{&quot;index&quot;:null}" fill="#ffffff" stroke="none" stroke-width="2.57572"/><path d="M296.1761,254.34955c-2.09148,-7.79592 1.70063,-17.93898 8.46992,-22.65515c6.7693,-4.71618 13.95239,-2.21956 16.04387,5.57634c2.09148,7.79592 -1.70063,17.93899 -8.46993,22.65516c-6.76929,4.7162 -13.95238,2.21957 -16.04386,-5.57635z" fill="#ffffff" stroke="none" stroke-width="1"/><g fill="#000000" stroke="#000000" stroke-width="1"><path d="M299.6655,252.0803c-1.55974,-5.81392 1.26828,-13.37823 6.31656,-16.89538c5.04829,-3.51713 10.40517,-1.65527 11.96491,4.15864c1.55974,5.81392 -1.26828,13.37823 -6.31655,16.89537c-5.04828,3.51715 -10.40516,1.65526 -11.96491,-4.15864zM312.94759,250.92754c3.6614,-2.55089 5.71249,-8.03713 4.58125,-12.25382c-1.13125,-4.21667 -5.01645,-5.56705 -8.67785,-3.01615c-3.6614,2.55089 -5.71249,8.03713 -4.58125,12.25382c1.13125,4.21667 5.01645,5.56705 8.67785,3.01615z"/><path d="M308.42648,244.74077c-0.5142,-1.91668 0.4181,-4.41041 2.08238,-5.56989c1.66427,-1.1595 3.43027,-0.5457 3.94447,1.37098c0.5142,1.91668 -0.41811,4.41041 -2.08239,5.5699c-1.66427,1.1595 -3.43027,0.5457 -3.94447,-1.37098z"/></g></g><path d="M345.2819,76.24347c0.76825,-12.09853 9.18051,-23.5717 18.78933,-25.62609c9.60882,-2.05441 16.77552,6.08794 16.00726,18.18644c-0.76825,12.09853 -9.18051,23.5717 -18.78932,25.6261c-9.60882,2.05441 -16.77552,-6.08793 -16.00728,-18.18644z" fill="#c5c556" stroke="#000000" stroke-width="2" stroke-linecap="butt"/><path d="M350.96899,75.36517c0.52816,-8.31772 6.31161,-16.20555 12.91765,-17.61794c6.60606,-1.41241 11.53317,4.18546 11.00501,12.50318c-0.52816,8.31772 -6.3116,16.20555 -12.91766,17.61796c-6.60606,1.41241 -11.53317,-4.18546 -11.00501,-12.50319z" fill="#91913f" stroke="#000000" stroke-width="2" stroke-linecap="butt"/><path d="M259.9215,94.49389c0.76825,-12.09853 9.18051,-23.5717 18.78932,-25.6261c9.60881,-2.05442 16.77552,6.08793 16.00728,18.18644c-0.76825,12.09853 -9.18051,23.5717 -18.78933,25.62609c-9.60881,2.05442 -16.77552,-6.08793 -16.00726,-18.18644z" fill="#c5c556" stroke="#000000" stroke-width="2" stroke-linecap="butt"/><path d="M265.6086,93.6156c0.52816,-8.31772 6.31159,-16.20553 12.91765,-17.61794c6.60607,-1.41242 11.53317,4.18546 11.005,12.50318c-0.52816,8.31772 -6.3116,16.20555 -12.91766,17.61796c-6.60607,1.41242 -11.53317,-4.18546 -11.00501,-12.50319z" fill="#91913f" stroke="#000000" stroke-width="2" stroke-linecap="butt"/><path d="M295.11492,214.11941l4.33711,-27.59498l30.08916,-6.57706l0.62098,26.3103c0,0 -6.5828,5.65765 -18.39286,8.50035c-10.49898,2.52712 -16.65438,-0.63862 -16.65438,-0.63862z" fill="url(#color-1)" stroke="#000000" stroke-width="0" stroke-linecap="butt"/><path d="M264.82984,143.15013c2.17142,-34.19623 27.3867,-66.93252 56.3199,-73.11857c28.93319,-6.18605 50.62791,16.5207 48.45649,50.71692c-2.17142,34.19623 -27.3867,66.93252 -56.3199,73.11857c-28.93319,6.18605 -50.62791,-16.5207 -48.45649,-50.71692z" fill="#c5c556" stroke="#000000" stroke-width="2" stroke-linecap="butt"/><path d="M265.41602,143.07931c0.04746,-0.74754 0.6001,56.51333 47.96097,47.41537c45.25133,-8.69272 55.57699,-70.58424 55.51055,-69.53803c-2.13901,33.68581 -27.03592,65.9459 -55.60878,72.0549c-28.57286,6.109 -50.00174,-16.24642 -47.86275,-49.93223z" fill="#91913f" stroke="#000000" stroke-width="0" stroke-linecap="butt"/><path d="M275.85264,141.22841c0.84556,-13.31629 10.10458,-25.94432 20.68056,-28.20553c10.57599,-2.2612 18.46406,6.70074 17.6185,20.017c-0.84556,13.31629 -10.10458,25.94432 -20.68056,28.20553c-10.57599,2.2612 -18.46406,-6.70074 -17.6185,-20.017z" fill="#ffffff" stroke="#000000" stroke-width="2" stroke-linecap="butt"/><path d="M281.63276,139.7134c0.59519,-9.37322 7.11252,-18.26201 14.55688,-19.85363c7.44436,-1.59164 12.99671,4.71658 12.40152,14.08982c-0.59519,9.37322 -7.11253,18.26201 -14.55689,19.85363c-7.44436,1.59164 -12.9967,-4.71659 -12.40152,-14.08982z" fill="#000000" stroke="none" stroke-width="0" stroke-linecap="butt"/><path d="M337.72133,151.78453c-10.57599,2.2612 -18.46406,-6.70074 -17.6185,-20.017c0.84556,-13.31629 10.10458,-25.94432 20.68056,-28.20553c10.57599,-2.2612 18.46406,6.70074 17.6185,20.017c-0.84556,13.31629 -10.10458,25.94432 -20.68056,28.20553z" data-paper-data="{&quot;index&quot;:null}" fill="#ffffff" stroke="#000000" stroke-width="2" stroke-linecap="butt"/><path d="M338.10086,144.38159c-7.44436,1.59164 -12.9967,-4.71659 -12.40152,-14.08982c0.59519,-9.37322 7.11253,-18.26201 14.55688,-19.85363c7.44436,-1.59164 12.9967,4.71659 12.40152,14.08982c-0.59519,9.37322 -7.11253,18.26201 -14.55688,19.85363z" data-paper-data="{&quot;index&quot;:null}" fill="#000000" stroke="none" stroke-width="0" stroke-linecap="butt"/><path d="M288.03767,109.44266c0,0 5.80851,-6.47788 10.03609,-8.59149c4.22759,-2.11363 10.01344,-1.43251 10.01344,-1.43251c0,0 -6.55152,1.33968 -9.81634,2.97198c-3.41187,1.70581 -10.23319,7.05204 -10.23319,7.05204z" fill="#000000" stroke="none" stroke-width="0" stroke-linecap="butt"/><path d="M340.49227,93.36352c-3.14454,-0.26195 -9.70392,1.20154 -9.70392,1.20154c0,0 6.0328,-3.20799 10.10465,-2.86882c4.07184,0.33919 9.20622,4.47742 9.20622,4.47742c0,0 -6.32077,-2.53638 -9.60694,-2.81012z" data-paper-data="{&quot;index&quot;:null}" fill="#000000" stroke="none" stroke-width="0" stroke-linecap="butt"/><path d="M317.4557,77.46846c0,0 0.47122,-11.4347 4.72713,-20.14392c6.13857,-12.56189 12.17586,-10.13313 12.17586,-10.13313c0,0 -5.86937,8.14155 -8.04685,12.93017c-2.06232,4.53535 -2.87074,17.36201 -2.87074,17.36201" fill="#c5c556" stroke="#000000" stroke-width="2" stroke-linecap="round"/><g data-paper-data="{&quot;index&quot;:null}" stroke-linecap="butt"><path d="M324.90078,96.64021c0,0 -0.34203,7.79961 -0.88418,14.05982c-0.04401,0.50817 -0.093,1.06731 -0.14649,1.67238c-0.81197,-0.42616 -1.84495,-0.59092 -3.15815,-0.41579c0.00282,-0.37284 -0.06961,-0.70334 -0.20026,-0.97121c0.19253,-0.37867 0.31768,-0.8083 0.34554,-1.24691c0.00143,-0.02249 0.00259,-0.04485 0.0035,-0.06707c0.92567,-0.90493 1.5963,-2.2961 1.70719,-3.74655c0.31239,-0.30415 0.57024,-0.71285 0.73193,-1.16778c0.6299,-0.4571 1.10832,-1.33003 1.1662,-2.24182c0.06859,-1.08031 -0.47641,-1.84868 -1.25591,-1.85479c-0.0726,-0.07455 -0.14916,-0.13519 -0.22451,-0.18445c-0.19778,-0.14544 -0.43441,-0.22243 -0.69605,-0.21454l-2.27013,-0.09895c-0.81309,0.72245 -1.62617,1.44488 -2.43927,2.16733c-0.27024,-0.25212 -0.63113,-0.3613 -1.03787,-0.27435c-0.6708,0.14342 -1.28215,0.78095 -1.59685,1.58027c-0.18354,-2.84804 -0.4062,-4.68426 -0.4062,-4.68426z" fill="#ffffff" stroke="#000000" stroke-width="1.3"/><path d="M317.07605,113.34729c-0.26422,0.01931 -0.53382,0.0579 -0.80811,0.11655c-0.38558,0.08243 -0.76673,0.20162 -1.14119,0.35432c0.04161,-1.53992 0.06195,-2.85382 0.05293,-3.88108c-0.01231,-1.40264 -0.05232,-2.73699 -0.10676,-3.96123c0.2786,0.37159 0.70209,0.55152 1.19211,0.44674c0.02927,-0.00627 0.05842,-0.01345 0.08746,-0.02158c-0.05456,0.26459 -0.09144,0.5338 -0.10865,0.80481c-0.09376,1.47639 0.41924,2.64435 1.26772,3.18171c-0.00194,0.02245 -0.00362,0.04492 -0.00504,0.06741c-0.02785,0.43862 0.04544,0.82581 0.19452,1.13145c-0.19253,0.37867 -0.31768,0.8083 -0.34554,1.24691c-0.00714,0.11243 -0.00763,0.22147 -0.00191,0.32665c-0.09389,0.06055 -0.1864,0.12303 -0.27753,0.18735z" fill="#ffffff" stroke="#000000" stroke-width="1.3"/><g stroke="none" stroke-width="0"><path d="M314.22876,104.52957l0.64796,-10.20416c0,0 4.07885,-1.74735 5.89877,-2.13646c1.59618,-0.34127 5.33665,-0.26573 5.33665,-0.26573l-0.64796,10.20416c0,0 -0.40103,-0.00615 -1.00046,-0.00223c-0.06918,-0.87059 -0.57163,-1.45929 -1.25356,-1.46464c-0.0726,-0.07455 -0.14916,-0.13519 -0.22451,-0.18445c-0.19778,-0.14544 -0.43441,-0.22243 -0.69605,-0.21454l-2.27013,-0.09895c-0.81309,0.72245 -1.62617,1.44488 -2.43927,2.16733c-0.27024,-0.25212 -0.63113,-0.3613 -1.03787,-0.27435c-0.84947,0.18162 -1.60359,1.1556 -1.78073,2.24711c-0.33174,0.13958 -0.53284,0.22688 -0.53284,0.22688z" fill="#000000"/><g><path d="M269.88798,125.01741l16.09572,-49.06423l33.29775,9.25654l-16.09573,49.06422z" fill="#000000"/><path d="M283.77463,139.36035l-12.94204,-41.45538l34.56226,-27.03811l9.98793,31.99294c-0.36416,0.47198 -0.61368,1.09508 -0.65447,1.73747c-0.07657,1.20591 0.61143,2.02313 1.53671,1.8253c0.02927,-0.00627 0.05842,-0.01345 0.08746,-0.02158c-0.05456,0.26459 -0.09146,0.5338 -0.10866,0.80482c-0.09376,1.47639 0.41924,2.64435 1.26772,3.18171c-0.00194,0.02245 -0.00362,0.04492 -0.00504,0.06741c-0.02785,0.43862 0.04544,0.82581 0.19452,1.13145c-0.19253,0.37867 -0.31768,0.8083 -0.34554,1.24691c-0.00565,0.089 -0.00714,0.17587 -0.00466,0.26036l-0.3297,0.25792c-0.24661,0.02048 -0.49788,0.05768 -0.75318,0.11227c-2.52973,0.54086 -4.86919,2.66288 -6.37443,5.46368z" fill="#000000"/><path d="M274.37829,121.39854l13.16923,-40.14348l27.24362,7.57354l-13.16922,40.14346z" fill="#c5c556"/><path d="M285.74011,133.13358l-10.58893,-33.91805l28.27819,-22.12207l10.58891,33.91805z" fill="#c5c556"/></g><g data-paper-data="{&quot;index&quot;:null}"><path d="M332.55847,127.99393l-10.22198,-43.43737l35.40605,-23.9457l10.22198,43.43738z" fill="#000000"/><path d="M324.46606,102.5153c0.03928,-0.61866 -0.12267,-1.13503 -0.41464,-1.46451l14.40051,-37.25167l32.03259,12.79983l-18.63548,48.20679l-26.14625,-10.44774c-0.85805,-1.74177 -2.36375,-2.7517 -4.99085,-2.40136c0.00282,-0.37284 -0.06961,-0.70334 -0.20026,-0.97121c0.19253,-0.37867 0.31768,-0.8083 0.34554,-1.24691c0.00143,-0.02249 0.00259,-0.04485 0.0035,-0.06707c0.92567,-0.90493 1.5963,-2.2961 1.70719,-3.74655c0.31239,-0.30415 0.57024,-0.71285 0.73193,-1.16778c0.6299,-0.4571 1.10832,-1.33003 1.16621,-2.24181z" fill="#000000"/><path d="M334.84788,121.8682l-8.36343,-35.53969l28.96859,-19.59194l8.36344,35.53969z" fill="#c5c556"/><path d="M324.42268,108.78703l15.24721,-39.44193l26.20847,10.4726l-15.24721,39.44193z" fill="#c5c556"/></g><path d="M299.09121,84.43944l3.5848,-5.26195l3.21829,8.7547l7.65469,1.08109l-2.86962,5.75781l-7.21946,-3.08501z" fill="#ffff85"/><path d="M350.54873,73.21787l3.96706,-4.76608l2.21385,9.52017l7.23949,2.43264l-3.33013,5.39759l-6.62134,-4.40878z" fill="#ffff85"/></g></g><path d="M305.68156,171.3004l16.98911,-3.63235" fill="none" stroke="#000000" stroke-width="2" stroke-linecap="round"/></g></g></svg>