<svg version="1.1" xmlns="http://www.w3.org/2000/svg" xmlns:xlink="http://www.w3.org/1999/xlink" width="190.43846" height="305.08305" viewBox="0,0,190.43846,305.08305"><g transform="translate(-224.68621,-27.64592)"><g data-paper-data="{&quot;isPaintingLayer&quot;:true}" fill-rule="nonzero" stroke-linejoin="miter" stroke-miterlimit="10" stroke-dasharray="" stroke-dashoffset="0" style="mix-blend-mode: normal"><path d="M304.7116,207.6245l18.96257,-36.1576l49.67386,30.11097l-3.87549,-45.94375l41.25381,1.715l-15.01469,76.20303l-22.40269,4.46228z" fill="#000000" stroke="#ffffff" stroke-width="2" stroke-linecap="butt"/><path d="M297.61929,207.27333l-44.42162,123.83075l-11.69308,-8.93452l40.25845,-133.08385l25.12623,-0.43442z" fill="#000000" stroke="#ffffff" stroke-width="2" stroke-linecap="round"/><path d="M279.6634,305.50665l15.14285,-131.8421l37.78325,-0.15789l13.57389,132z" fill="#000000" stroke="#ffffff" stroke-width="2" stroke-linecap="butt"/><path d="M334.98994,182.5523l-10.67691,38.31126l-10.04885,84.15917l-9.4208,-84.78722l-13.18912,-30.14657z" fill="#ffffff" stroke="#ffffff" stroke-width="1.5" stroke-linecap="round"/><path d="M318.33134,245.47917l-8.24786,-12.61338l2.07063,-31.73639l-3.26504,-8.42001l9.05686,-1.37137l-1.89567,9.99602z" fill="#000000" stroke="none" stroke-width="0" stroke-linecap="butt"/><path d="M275.56744,117.34493c-2.15192,-6.99239 -3.40981,-16.81552 -3.40981,-16.81552c0,0 3.31971,-0.78318 12.89525,-6.09969c7.35653,-4.0845 17.9873,-13.73523 17.9873,-13.73523c0,0 -1.45359,3.40339 -2.35442,5.09537c-0.95768,1.79877 -2.90308,5.32318 -2.90308,5.32318c0,0 7.28653,-3.33492 13.29218,-7.81235c7.59242,-5.31729 9.01961,-8.21511 11.63901,-7.30341c3.09153,1.07603 6.05522,22.40163 6.96178,27.89396c0.82342,5.62493 -0.40312,9.82339 -0.34731,12.9061c0.05581,3.08271 0.93698,6.07848 1.34069,16.13511c0.25195,6.27604 -2.11783,9.61692 -6.58525,16.49129c-4.46742,6.87438 -6.82084,11.00275 -10.67054,11.93264c-3.7048,0.8949 -9.83205,-3.03127 -15.86239,-7.09757c-6.42132,-4.32996 -10.50835,-6.34035 -12.7801,-12.65986c-2.04596,-5.69139 -2.91626,-9.50144 -4.41725,-14.63764c-1.09704,-3.75391 -3.61082,-5.79772 -4.78603,-9.61639z" fill="#5a5a07" stroke="none" stroke-width="0" stroke-linecap="butt"/><path d="M319.18947,92.11656c0,0 1.55697,-0.0216 4.39546,0.15659c2.59263,0.16276 4.72241,0.73295 4.72241,0.73295l0.44535,1.09975c0,0 -7.75734,-1.47562 -15.29099,0.88141c-6.02372,1.88464 -9.11132,4.91515 -9.11132,4.91515l-0.86519,-4.0865c0,0 2.68115,-2.34455 7.27063,-3.52395c4.75237,-1.22126 8.02534,-1.18538 8.02534,-1.18538z" data-paper-data="{&quot;index&quot;:null}" fill="#5a5a07" stroke="none" stroke-width="0" stroke-linecap="butt"/><path d="M316.09582,136.85225c0.60285,0.08252 3.31436,0.69412 6.44465,1.22135c3.15523,0.53143 7.53987,0.66653 7.55734,0.83432c0.02216,0.21294 -10.13476,2.4945 -13.21316,3.59684c-2.57974,0.92377 -6.37434,2.14569 -6.37434,2.14569c0,0 -7.18647,0.41367 -13.48628,0.50463c-5.04907,0.0729 -10.5114,0.64409 -10.54218,0.55513c-0.04152,-0.11997 3.62064,-1.53629 6.3565,-2.84769c1.01016,-0.73429 4.98558,-2.6344 4.98558,-2.6344c0,0 4.77636,-1.35053 7.55168,-1.09221c2.97373,0.27679 3.30009,1.76919 3.5469,1.73818c0,0 0.77486,-1.9653 1.85353,-2.57008c1.07868,-0.60477 4.86946,-1.51339 5.31979,-1.45175z" fill="#5a5a07" stroke="none" stroke-width="0" stroke-linecap="butt"/><path d="M298.88754,145.35858c5.19254,-0.10692 12.24291,0.14394 12.24291,0.14394c0,0 5.31182,-2.77967 7.84436,-3.63031c1.96341,-0.65949 10.79276,-3.13276 10.91716,-2.77858c0.12163,0.34629 -6.00424,14.55782 -17.92888,16.75493c-13.53381,2.57411 -25.61252,-9.79154 -25.61243,-9.96485c0.00009,-0.17331 7.34436,-0.41822 12.5369,-0.52513z" fill="#5a5a07" stroke="none" stroke-width="0" stroke-linecap="butt"/><path d="M308.94616,140.04627c-1.00894,0.22518 -4.16336,-2.41142 -4.86414,-4.41004c-0.62701,-1.78822 0.44969,-4.02254 2.86192,-4.56092c2.41224,-0.53839 4.2081,-0.43636 4.8456,3.2101c0.54103,3.09464 -0.43115,5.2225 -2.84337,5.76088z" fill="#5a5a07" stroke="none" stroke-width="0" stroke-linecap="butt"/><path d="M305.90645,109.89055c0,0 0.96487,3.85208 1.55801,6.95423c1.17455,6.14279 4.99162,27.32965 4.99162,27.32965l-2.90819,0.65793c0,0 -1.69261,-3.89763 -3.16559,-9.027c-1.99381,-6.94304 -3.98786,-15.80404 -5.02161,-18.99455c-0.9799,-3.0243 -2.11921,-5.38214 -2.11921,-5.38214" fill="#5a5a07" stroke="none" stroke-width="0" stroke-linecap="round"/><path d="M279.43141,126.85483c0,0 -5.57979,-2.35823 -7.97118,-7.41676c-2.51619,-5.32255 -3.54619,-9.18079 -1.70794,-9.85658c1.83824,-0.6758 3.15606,1.731 5.46311,7.34196c2.30704,5.61097 4.21602,9.93138 4.21602,9.93138z" data-paper-data="{&quot;index&quot;:null}" fill="#5a5a07" stroke="none" stroke-width="0" stroke-linecap="butt"/><path d="M278.37378,123.04619c0,0 -4.11507,-2.07687 -6.05526,-7.30706c-1.08231,-2.91757 1.60827,-2.69521 1.60827,-2.69521" fill="#5a5a07" stroke="none" stroke-width="0" stroke-linecap="round"/><path d="M279.86497,115.89371c-0.99637,-4.78986 2.7756,-9.77544 8.03658,-10.86983c5.26096,-1.09438 9.7359,2.17998 10.73228,6.96984c0.99637,4.78986 -2.10882,9.48143 -7.36979,10.57582c-5.26096,1.09438 -10.40269,-1.88597 -11.39907,-6.67584z" fill="#5a5a07" stroke="none" stroke-width="0" stroke-linecap="butt"/><path d="M284.22175,115.04216c-0.56184,-2.7009 1.17221,-5.34584 3.87309,-5.90768c2.7009,-0.56184 5.34584,1.17221 5.90768,3.87309c0.56184,2.7009 -1.1722,5.34584 -3.87309,5.90768c-2.7009,0.56184 -5.34584,-1.17221 -5.90768,-3.87309z" fill="#5a5a07" stroke="none" stroke-width="0" stroke-linecap="butt"/><path d="M306.27169,110.00075c-0.86615,-4.81512 2.41607,-9.61567 7.60622,-10.77405c5.19013,-1.15838 9.91575,1.85056 10.98146,6.62548c1.06571,4.77492 -1.81659,9.69967 -7.47534,11.03523c-5.3825,1.27037 -10.20777,-1.85798 -11.11233,-6.88665z" fill="#5a5a07" stroke="none" stroke-width="0" stroke-linecap="butt"/><path d="M310.78257,109.08162c-0.61394,-2.75077 1.11829,-5.4784 3.86906,-6.09235c2.75077,-0.61394 5.4784,1.11829 6.09235,3.86906c0.61394,2.75077 -1.11828,5.4784 -3.86906,6.09235c-2.75077,0.61394 -5.4784,-1.11829 -6.09235,-3.86906z" fill="#5a5a07" stroke="none" stroke-width="0" stroke-linecap="butt"/><path d="M279.68227,115.38921c0,0 -1.90172,-8.81248 8.42421,-10.92223c9.27971,-1.9012 11.37526,7.09985 11.37526,7.09985z" fill="#5a5a07" stroke="none" stroke-width="0" stroke-linecap="butt"/><path d="M305.81555,109.69065c0,0 -2.30121,-9.1773 8.94627,-11.32389c9.55364,-1.7906 11.42008,7.34093 11.42008,7.34093z" fill="#5a5a07" stroke="none" stroke-width="0" stroke-linecap="butt"/><path d="M280.94651,104.84906c0,0 2.89248,-2.50933 7.34251,-3.9767c4.93119,-1.62604 7.56725,-1.75684 7.56725,-1.75684l1.18926,3.97384c0,0 -3.8917,0.17119 -7.93893,1.23794c-5.41267,1.42663 -6.17318,2.84598 -10.22409,4.21963c-3.47104,1.17702 -6.54085,1.6226 -6.54085,1.6226l-0.29354,-1.19634c0,0 3.52495,-0.71093 5.09314,-1.20678c1.29432,-0.40926 3.67589,-1.78158 3.67589,-1.78158z" fill="#5a5a07" stroke="none" stroke-width="0" stroke-linecap="butt"/><path d="M330.05081,104.68474c-0.29768,-6.05943 -0.12829,-8.79816 1.82287,-8.96812c1.95114,-0.16996 2.65941,3.76008 2.64514,9.6474c-0.01356,5.59529 -4.06112,10.10224 -4.06112,10.10224c0,0 -0.10921,-4.7221 -0.40689,-10.78154z" data-paper-data="{&quot;index&quot;:null}" fill="#5a5a07" stroke="none" stroke-width="0" stroke-linecap="butt"/><path d="M329.56757,100.62547c0,0 2.3407,-1.3453 2.60165,1.7556c0.4678,5.55881 -2.37367,9.18831 -2.37367,9.18831" data-paper-data="{&quot;index&quot;:null}" fill="#5a5a07" stroke="none" stroke-width="0" stroke-linecap="round"/><path d="M244.29236,146.84373c-7.25415,-32.50216 14.93448,-65.11514 49.55968,-72.84313c34.6252,-7.72799 68.57513,12.35545 75.82927,44.8576c7.25415,32.50216 -14.93448,65.11514 -49.55968,72.84313c-34.6252,7.72799 -68.57513,-12.35545 -75.82927,-44.8576z" fill="#ffffff" stroke="#000000" stroke-width="2" stroke-linecap="butt"/><path d="M244.93718,146.41343c-0.15858,-0.71051 17.26256,53.44241 74.24097,41.76529c54.44049,-11.157 49.36446,-70.39667 49.5864,-69.40229c7.14587,32.01704 -14.78096,64.15873 -48.97494,71.79048c-34.19398,7.63174 -67.70656,-12.13644 -74.85244,-44.15348z" fill="#dedeaf" stroke="#000000" stroke-width="0" stroke-linecap="butt"/><g stroke="#000000" stroke-width="2.5" stroke-linecap="butt"><path d="M375.01761,77.04066c1.64866,10.0488 -30.38785,23.67034 -71.55554,30.42452c-41.16769,6.75419 -75.8772,4.08336 -77.52586,-5.96542c-1.64866,-10.0488 30.38785,-23.67034 71.55554,-30.42452c41.16769,-6.75419 75.8772,-4.08336 77.52586,5.96542z" fill="#e2e2e2"/><path d="M254.05497,96.54778l-7.6544,-46.65454c0,0 9.01863,-11.88421 45.87902,-18.64919c37.25777,-6.83797 46.85661,3.43449 46.85661,3.43449l7.6544,46.65454c0,0 -8.97375,6.88532 -44.64417,11.88746c-31.87748,4.47024 -48.09145,3.32724 -48.09145,3.32724z" fill="#ffffff"/></g><path d="M281.68494,143.27121c-0.60152,-2.69511 1.09567,-5.36756 3.79078,-5.96908c2.69511,-0.60152 5.36756,1.09567 5.96908,3.79078c0.60152,2.69511 -1.09567,5.36756 -3.79078,5.96908c-2.69511,0.60152 -5.36756,-1.09567 -5.96908,-3.79078z" fill="#000000" stroke="none" stroke-width="0.5" stroke-linecap="butt"/><path d="M323.36703,133.9682c-0.60152,-2.69511 1.09567,-5.36756 3.79078,-5.96908c2.69511,-0.60152 5.36756,1.09567 5.96908,3.79078c0.60152,2.69511 -1.09567,5.36756 -3.79078,5.96908c-2.69511,0.60152 -5.36756,-1.09567 -5.96908,-3.79078z" fill="#000000" stroke="none" stroke-width="0.5" stroke-linecap="butt"/><path d="M348.67146,156.2086c0,0 -16.71531,16.24289 -31.38668,19.16371c-14.67137,2.92083 -36.91831,-5.56534 -36.91831,-5.56534" fill="none" stroke="#000000" stroke-width="4" stroke-linecap="round"/><path d="M414.12467,150.20754c0,13.00741 -10.404,23.55201 -23.23798,23.55201c-12.83398,0 -23.23798,-10.54459 -23.23798,-23.55201c0,-13.00741 10.404,-23.55201 23.23798,-23.55201c12.83398,0 23.23798,10.54459 23.23798,23.55201z" fill="#000000" stroke="#ffffff" stroke-width="2" stroke-linecap="butt"/></g></g></svg>