<svg version="1.1" xmlns="http://www.w3.org/2000/svg" xmlns:xlink="http://www.w3.org/1999/xlink" width="133.60485" height="440.51359" viewBox="0,0,133.60485,440.51359"><g transform="translate(-253.57626,78.2327)"><g data-paper-data="{&quot;isPaintingLayer&quot;:true}" fill-rule="nonzero" stroke-linejoin="miter" stroke-miterlimit="10" stroke-dasharray="" stroke-dashoffset="0" style="mix-blend-mode: normal"><path d="M338.79085,32.13123l15.95389,124.18379l-65.57319,2.29078l10.0353,-117.51634l40.99151,-12.03755z" fill="#b5b54a" stroke="#b5b54a" stroke-width="2.5" stroke-linecap="round"/><path d="M368.43722,26.09358l-5.53664,0.41114l-96.17361,6.63549c0,0 -6.86806,-10.40474 -10.67118,-23.11025c-2.52981,-8.45164 -2.59147,-18.0039 -2.42445,-25.88809c0.17441,-8.23256 3.22939,-16.36256 11.91163,-27.32783c9.42511,-11.90347 27.20401,-23.73096 41.33125,-25.33039c12.15237,-1.37584 31.10336,2.42587 43.08922,10.6585c13.21117,9.07422 21.1148,22.79149 23.86419,30.06601c9.39668,24.86245 -5.3904,53.88543 -5.3904,53.88543z" fill="#fafab0" stroke="none" stroke-width="0" stroke-linecap="round"/><path d="M345.19724,236.36581l11.60849,124.66508h-65.61319l14.13207,-117.09433l41.38678,-10.59906z" fill="#e5e61c" stroke="#e5e61c" stroke-width="2.5" stroke-linecap="round"/><path d="M310.80136,124.30694l-1.20433,-47.58203c0,0 10.22035,-1.34495 14.76859,-0.46703c4.81131,0.9287 8.07074,5.39319 8.07074,5.39319l1.2263,8.88667c0,0 -3.45583,11.04766 -8.95031,10.86663c-4.20969,-0.1387 -13.81112,-0.45506 -13.81112,-0.45506" fill="none" stroke="#29291b" stroke-width="2.5" stroke-linecap="round"/><path d="M327.09036,287.33592l-0.43867,39.91981" fill="none" stroke="#29291b" stroke-width="2.5" stroke-linecap="round"/><path d="M306.94164,292.7457l38.18971,-10.11864" fill="none" stroke="#29291b" stroke-width="2.5" stroke-linecap="round"/><path d="M368.80153,25.74636c0,0 -6.0005,10.13581 -17.78515,18.56181c-8.56544,6.12426 -21.50739,11.09373 -30.9922,11.83589c-9.31893,0.72918 -21.42329,-1.11415 -30.82174,-5.7106c-13.32824,-6.51836 -22.58856,-16.6912 -22.58856,-16.6912z" fill="#fafab0" stroke="none" stroke-width="0" stroke-linecap="round"/><path d="M304.10939,7.21745c0.52639,7.08855 -1.75108,13.03575 -5.08688,13.28346c-3.33578,0.24771 -6.46667,-5.2979 -6.99306,-12.38642c-0.52639,-7.08854 1.75109,-13.03574 5.08688,-13.28345c3.33578,-0.24771 6.46669,5.29789 6.99305,12.38643z" fill="#29291b" stroke="#29291b" stroke-width="2.5" stroke-linecap="butt"/><path d="M340.67648,7.72763c0.52639,7.08855 -1.75109,13.03573 -5.08688,13.28345c-3.33578,0.24771 -6.46666,-5.29789 -6.99305,-12.38642c-0.52639,-7.08854 1.75108,-13.03574 5.08688,-13.28345c3.33578,-0.24771 6.46666,5.29789 6.99305,12.38643z" fill="#29291b" stroke="#29291b" stroke-width="2.5" stroke-linecap="butt"/><path d="M273.91132,-73.15374l15.87774,3.52711l-0.61611,-8.29695l20.40852,4.04632l-0.38653,-2.32438l15.72821,4.39388l-0.72565,-4.01051l26.44642,16.21898l-43.25836,-0.63823l7.00577,5.04157l-22.54333,-1.10688l9.64607,8.90989l-24.60862,-5.87358l0.26855,3.61663l-15.16999,-11.28061l20.95093,-3.05317z" fill="#fcfc00" stroke="#fcfc00" stroke-width="0.5" stroke-linecap="round"/><path d="M378.60181,201.7211l-5.53736,0.40128l-96.18527,6.46451c0,0 -6.84956,-10.41694 -10.63009,-23.12919c-2.51479,-8.45612 -2.55945,-18.00847 -2.37841,-25.89235c0.18903,-8.23224 3.25846,-16.35681 11.9602,-27.30661c9.44624,-11.8867 27.24617,-23.68257 41.37622,-25.25688c12.15481,-1.35423 31.09898,2.48117 43.07022,10.73509c13.195,9.09769 21.07424,22.829 23.81069,30.10839c9.35248,24.87912 -5.48617,53.87576 -5.48617,53.87576z" fill="#fafab0" stroke="none" stroke-width="0" stroke-linecap="round"/><path d="M375.27866,220.41993c0,0 -6.77291,9.63683 -19.17894,17.11784c-9.01708,5.43741 -22.30726,9.38216 -31.82106,9.38216c-9.34741,0 -21.2711,-2.78196 -30.28234,-8.09756c-12.77913,-7.53823 -21.21766,-18.40245 -21.21766,-18.40245z" fill="#fafab0" stroke="none" stroke-width="0" stroke-linecap="round"/><path d="M314.62048,150.40445c0.33544,7.10013 -2.10126,12.98391 -5.44251,13.14175c-3.34125,0.15784 -6.32177,-5.46999 -6.6572,-12.57013c-0.33544,-7.10013 2.10126,-12.9839 5.44251,-13.14175c3.34125,-0.15784 6.32177,5.46999 6.6572,12.57012z" fill="#29291b" stroke="#29291b" stroke-width="2.5" stroke-linecap="butt"/><path d="M344.70221,151.09503c0.33544,7.10013 -2.10125,12.98391 -5.4425,13.14175c-3.34125,0.15784 -6.32177,-5.46999 -6.6572,-12.57013c-0.33544,-7.10013 2.10125,-12.9839 5.4425,-13.14175c3.34125,-0.15784 6.32177,5.46999 6.6572,12.57012z" fill="#29291b" stroke="#29291b" stroke-width="2.5" stroke-linecap="butt"/><path d="M286.70674,104.2827l15.77707,3.95312l-0.39262,-8.31052l20.29225,4.59406l-0.32382,-2.33392l15.60427,4.81553l-0.61746,-4.02858l26.00037,16.92478l-43.2255,-1.80209l6.86754,5.22828l-22.50537,-1.71313l9.40282,9.16626l-24.44166,-6.5337l0.17114,3.62256l-14.86094,-11.68475l21.0255,-2.48827z" fill="#29291b" stroke="none" stroke-width="0" stroke-linecap="round"/></g></g></svg>