<svg version="1.1" xmlns="http://www.w3.org/2000/svg" xmlns:xlink="http://www.w3.org/1999/xlink" width="226.17649" height="217.87044" viewBox="0,0,226.17649,217.87044"><g transform="translate(-244.29238,-111.65121)"><g data-paper-data="{&quot;isPaintingLayer&quot;:true}" fill-rule="nonzero" stroke-linejoin="miter" stroke-miterlimit="10" stroke-dasharray="" stroke-dashoffset="0" style="mix-blend-mode: normal"><path d="M286.35186,321.62853l15.14285,-131.8421l37.78325,-0.15789l13.57389,132z" fill="#d9d97d" stroke="#000000" stroke-width="2" stroke-linecap="butt"/><path d="M365.30989,143.17396l102.42135,39.00534l-76.88932,31.06351" fill="#d9d97d" stroke="#000000" stroke-width="2" stroke-linecap="round"/><path d="M340.8403,253.3638l-38.52277,73.4364l-28.67427,-105.77965" data-paper-data="{&quot;index&quot;:null}" fill="#d9d97d" stroke="#000000" stroke-width="2" stroke-linecap="round"/><path d="M328.07549,134.81814l26.66187,-21.19304l1.6464,25.82119l29.03028,-17.04956l-11.11411,26.0625" fill="#d9d97d" stroke="#000000" stroke-width="2" stroke-linecap="round"/><path d="M275.41045,220.94454l-28.19643,2.78192l24.97453,-22.57692l-24.13743,-9.31821l28.21644,-19.07438" data-paper-data="{&quot;index&quot;:null}" fill="#d9d97d" stroke="#000000" stroke-width="2" stroke-linecap="round"/><path d="M299.88496,217.65831l3.12142,-26.32765l35.83075,-0.14203l2.76735,26.1059c0,0 -7.51543,4.19603 -21.55904,4.50964c-12.48458,0.27879 -20.16049,-4.14586 -20.16049,-4.14586z" fill="#b6b14b" stroke="#000000" stroke-width="0" stroke-linecap="butt"/><path d="M383.04001,155.11314c20.16624,26.50164 13.62703,65.40126 -14.60569,86.88474c-28.23271,21.48349 -67.46781,17.41548 -87.63404,-9.08616c-20.16624,-26.50164 -13.62704,-65.40126 14.60567,-86.88474c28.23272,-21.48348 67.46781,-17.41547 87.63405,9.08617z" fill="#d9d97d" stroke="#000000" stroke-width="2" stroke-linecap="butt"/><path d="M334.59926,251.47933c22.72924,-1.21135 38.49566,-12.99843 37.57294,-12.24061c-10.07779,8.27681 -22.98524,13.67783 -37.32252,14.6931c-14.19893,1.00547 -27.61566,-2.44527 -38.69737,-9.0918c-0.4205,-0.2522 15.7177,7.85069 38.44695,6.63932z" fill="#b6b14b" stroke="#000000" stroke-width="0" stroke-linecap="butt"/><path d="M372.02862,163.14582c7.85289,10.31996 5.85295,25.05194 -4.467,32.90483c-10.31996,7.85289 -25.05194,5.85295 -32.90483,-4.46699c-7.85289,-10.31996 -5.85295,-25.05193 4.46701,-32.90485c10.31996,-7.85289 25.05194,-5.85295 32.90484,4.467z" fill="#c5c556" stroke="#000000" stroke-width="2" stroke-linecap="butt"/><path d="M297.41464,176.56519c0,0 -3.61414,-28.86411 3.69368,-33.41781c7.30782,-4.55369 33.71905,10.1049 33.71905,10.1049z" fill="#000000" stroke="#000000" stroke-width="2" stroke-linecap="round"/><path d="M295.94488,191.53547c10.31996,-7.85289 25.05194,-5.85294 32.90482,4.46702c7.85289,10.31996 5.85296,25.05194 -4.46699,32.90483c-10.31996,7.85289 -25.05193,5.85296 -32.90484,-4.467c-7.85289,-10.31996 -5.85295,-25.05195 4.46702,-32.90485z" data-paper-data="{&quot;index&quot;:null}" fill="#ffffff" stroke="#000000" stroke-width="2" stroke-linecap="butt"/><path d="M375.73945,171.55797l4.43291,-0.26326" fill="none" stroke="#000000" stroke-width="2" stroke-linecap="round"/><path d="M292.15542,224.55297l-1.28347,5.24906" fill="none" stroke="#000000" stroke-width="2" stroke-linecap="round"/><path d="M379.41676,193.72448c0,0 -2.20872,8.17633 -5.53472,12.20801c-3.32601,4.03168 -10.23902,6.91248 -10.23902,6.91248c0,0 6.43325,-4.81957 9.00182,-7.93313c2.68425,-3.25378 6.77193,-11.18736 6.77193,-11.18736z" fill="#000000" stroke="none" stroke-width="0" stroke-linecap="butt"/><path d="M331.44556,236.26212c3.68563,-1.64555 10.04587,-6.56107 10.04587,-6.56107c0,0 -4.61951,5.8948 -9.39199,8.0256c-4.77248,2.13079 -13.24173,2.0798 -13.24173,2.0798c0,0 8.73622,-1.82467 12.58785,-3.54433z" data-paper-data="{&quot;index&quot;:null}" fill="#000000" stroke="none" stroke-width="0" stroke-linecap="butt"/><path d="M296.44024,215.68357c-3.71344,-7.42258 -0.7066,-16.45009 6.71597,-20.16352c7.42256,-3.71343 16.45009,-0.70657 20.16352,6.71599c3.71344,7.42258 0.70658,16.4501 -6.71598,20.16353c-7.42256,3.71343 -16.45009,0.70657 -20.16351,-6.71599z" data-paper-data="{&quot;index&quot;:null}" fill="none" stroke="#000000" stroke-width="5" stroke-linecap="butt"/></g></g></svg>