<svg version="1.1" xmlns="http://www.w3.org/2000/svg" xmlns:xlink="http://www.w3.org/1999/xlink" width="218.34499" height="312.05721" viewBox="0,0,218.34499,312.05721"><g transform="translate(-165.80126,-10.57133)"><g data-paper-data="{&quot;isPaintingLayer&quot;:true}" fill-rule="nonzero" stroke-linejoin="miter" stroke-miterlimit="10" stroke-dasharray="" stroke-dashoffset="0" style="mix-blend-mode: normal"><path d="M306.70446,207.75185l-26.63967,21.22095l-1.67343,-25.81945l-29.01241,17.07994l11.08681,-26.07413" fill="#d9d97d" stroke="#000000" stroke-width="2" stroke-linecap="round"/><path d="M261.31755,182.40786l-4.29705,1.12043" fill="none" stroke="#000000" stroke-width="2" stroke-linecap="round"/><path d="M286.35186,321.62853l15.14285,-131.8421l37.78325,-0.15789l13.57389,132z" fill="#d9d97d" stroke="#000000" stroke-width="2" stroke-linecap="butt"/><path d="M299.88496,217.65831l3.12142,-26.32765l35.83075,-0.14203l2.76735,26.1059c0,0 -7.51543,4.19603 -21.55904,4.50964c-12.48458,0.27879 -20.16049,-4.14586 -20.16049,-4.14586z" fill="#b6b14b" stroke="#000000" stroke-width="0" stroke-linecap="butt"/><path d="M276.53314,205.67028l-108.05188,-18.33959l69.37912,-45.42518" fill="#d9d97d" stroke="#000000" stroke-width="2" stroke-linecap="round"/><path d="M279.10361,92.82546l23.50379,-79.52661l48.70071,98.18242" data-paper-data="{&quot;index&quot;:null}" fill="#d9d97d" stroke="#000000" stroke-width="2" stroke-linecap="round"/><path d="M349.58944,111.89956l27.11687,-8.21297l-20.1064,27.00329l25.48886,4.44555l-23.96763,24.19819" data-paper-data="{&quot;index&quot;:null}" fill="#d9d97d" stroke="#000000" stroke-width="2" stroke-linecap="round"/><path d="M326.2215,119.8833l2.05889,26.43197l-35.11885,7.10836l-7.79208,-25.0691c0,0 6.55578,-5.57764 20.2702,-8.61673c12.19193,-2.7017 20.58185,0.14549 20.58185,0.14549z" fill="#b6b14b" stroke="#000000" stroke-width="0" stroke-linecap="butt"/><path d="M256.81946,197.4076c-24.93566,-22.07322 -26.08727,-61.50183 -2.57223,-88.06627c23.51503,-26.56445 62.79207,-30.20532 87.72772,-8.1321c24.93566,22.07322 26.08728,61.50183 2.57225,88.06627c-23.51504,26.56445 -62.79206,30.20531 -87.72773,8.13209z" fill="#d9d97d" stroke="#000000" stroke-width="2" stroke-linecap="butt"/><path d="M285.59199,93.46007c-22.05957,5.60903 -35.23232,20.23756 -34.47462,19.31475c8.2755,-10.07886 19.88596,-17.88723 33.75197,-21.67169c13.73221,-3.74795 27.56388,-2.97264 39.7267,1.39157c0.46153,0.1656 -16.94448,-4.64368 -39.00406,0.96536z" fill="#b6b14b" stroke="#000000" stroke-width="0" stroke-linecap="butt"/><path d="M266.05822,187.38662c-9.71015,-8.5955 -10.61376,-23.43512 -2.01826,-33.14526c8.5955,-9.71015 23.43512,-10.61376 33.14526,-2.01827c9.71015,8.5955 10.61375,23.43511 2.01826,33.14529c-8.5955,9.71015 -23.43512,10.61376 -33.14527,2.01827z" fill="#c5c556" stroke="#000000" stroke-width="2" stroke-linecap="butt"/><path d="M336.63721,159.71117c0,0 9.15916,27.60994 2.87659,33.49804c-6.28257,5.88809 -35.04051,-3.3536 -35.04051,-3.3536z" fill="#000000" stroke="#000000" stroke-width="2" stroke-linecap="round"/><path d="M335.1672,144.74092c-8.5955,9.71015 -23.43513,10.61375 -33.14525,2.01824c-9.71015,-8.5955 -10.61376,-23.43512 -2.01827,-33.14526c8.5955,-9.71015 23.43511,-10.61376 33.14527,-2.01827c9.71015,8.5955 10.61375,23.43513 2.01825,33.14529z" data-paper-data="{&quot;index&quot;:null}" fill="#ffffff" stroke="#000000" stroke-width="2" stroke-linecap="butt"/><path d="M332.70045,106.21847l-0.23802,5.39845" fill="none" stroke="#000000" stroke-width="2" stroke-linecap="round"/><path d="M252.86365,158.82891c0,0 0.57625,-8.44977 3.05458,-13.05137c2.47834,-4.60159 8.69901,-8.77195 8.69901,-8.77195c0,0 -5.37299,5.97879 -7.28692,9.53248c-2.00013,3.71372 -4.46667,12.29085 -4.46667,12.29085z" fill="#000000" stroke="none" stroke-width="0" stroke-linecap="butt"/><path d="M291.6452,107.77328c-3.29519,2.33097 -8.5779,8.38968 -8.5779,8.38968c0,0 3.38476,-6.68072 7.65165,-9.69907c4.2669,-3.01834 12.58433,-4.61558 12.58433,-4.61558c0,0 -8.21448,3.48901 -11.65808,5.92497z" data-paper-data="{&quot;index&quot;:null}" fill="#000000" stroke="none" stroke-width="0" stroke-linecap="butt"/><path d="M329.98452,121.15034c5.08621,6.55856 3.89263,15.9985 -2.66593,21.0847c-6.55855,5.0862 -15.99851,3.8926 -21.0847,-2.66595c-5.08621,-6.55856 -3.89262,-15.99852 2.66594,-21.08471c6.55855,-5.0862 15.99851,-3.8926 21.08469,2.66595z" data-paper-data="{&quot;index&quot;:null}" fill="none" stroke="#000000" stroke-width="5" stroke-linecap="butt"/></g></g></svg>