<svg version="1.1" xmlns="http://www.w3.org/2000/svg" xmlns:xlink="http://www.w3.org/1999/xlink" width="193.91074" height="182.04051" viewBox="0,0,193.91074,182.04051"><g transform="translate(-221.72744,-30.19022)"><g data-paper-data="{&quot;isPaintingLayer&quot;:true}" fill-rule="nonzero" stroke-linecap="butt" stroke-linejoin="miter" stroke-miterlimit="10" stroke-dasharray="" stroke-dashoffset="0" style="mix-blend-mode: normal"><path d="M348.42574,162.29202c-18.07688,11.98943 -44.75404,47.9112 -44.75404,47.9112c0,0 -17.79135,-44.08505 -31.33776,-61.94656c-12.99156,-17.12991 -48.34581,-43.11948 -48.34581,-43.11948c0,0 47.75025,-13.00415 66.34672,-25.3382c18.01554,-11.94875 43.54462,-47.54688 43.54462,-47.54688c0,0 14.9246,37.08226 27.52538,53.69689c13.84337,18.25306 52.15819,51.36915 52.15819,51.36915c0,0 -46.59553,12.67611 -65.1373,24.97388z" data-paper-data="{&quot;index&quot;:null}" fill="#d8d871" stroke="#000000" stroke-width="2"/><path d="M374.42274,199.63019c0,0 -41.91138,-23.98465 -63.71823,-28.39982c-21.26008,-4.30446 -65.52421,2.23245 -65.52421,2.23245c0,0 18.59247,-43.75323 21.64369,-65.96198c2.92626,-21.29908 -3.69557,-64.67571 -3.69557,-64.67571c0,0 42.95985,24.5692 64.83103,28.9974c21.18795,4.28987 64.41141,-2.83003 64.41141,-2.83003c0,0 -15.66782,36.77441 -18.50606,57.43282c-3.11811,22.69561 0.55794,73.20488 0.55794,73.20488z" data-paper-data="{&quot;index&quot;:null}" fill="#d8d871" stroke="#000000" stroke-width="2"/><path d="M309.17706,180.75922c-34.97675,-5.93741 -58.81292,-37.36637 -53.23955,-70.19853c5.57337,-32.83215 38.44574,-54.63466 73.42249,-48.69724c34.97675,5.93742 58.81292,37.36637 53.23956,70.19853c-5.57337,32.83215 -38.44574,54.63466 -73.42249,48.69724z" data-paper-data="{&quot;index&quot;:null}" fill="#ecec68" stroke="#000000" stroke-width="2"/><path d="M312.96241,158.46005c-15.29983,-2.59719 -25.72646,-16.34513 -23.28851,-30.70686c0.34918,-2.05697 55.66188,7.89566 55.40562,9.40528c-2.43795,14.36174 -16.81728,23.89878 -32.11711,21.30158z" data-paper-data="{&quot;index&quot;:null}" fill="#000000" stroke="#000000" stroke-width="2"/><path d="M358.68372,118.06973c-1.03735,6.11097 -23.16715,2.35438 -22.12979,-3.7566c1.03736,-6.11098 6.83222,-10.22395 12.94321,-9.18659c6.11098,1.03736 10.22395,6.83222 9.18659,12.9432z" data-paper-data="{&quot;index&quot;:null}" fill="#000000" stroke="none" stroke-width="0"/><path d="M283.60959,105.32565c1.00671,-5.93045 6.63039,-9.92194 12.56084,-8.91522c5.93045,1.00672 9.92194,6.63039 8.91522,12.56085c-1.00671,5.93045 -22.48278,2.28483 -21.47606,-3.64563z" data-paper-data="{&quot;index&quot;:null}" fill="#000000" stroke="none" stroke-width="0"/></g></g></svg>