<svg version="1.1" xmlns="http://www.w3.org/2000/svg" xmlns:xlink="http://www.w3.org/1999/xlink" width="217.09223" height="284.13419" viewBox="0,0,217.09223,284.13419"><g transform="translate(-264.29923,-38.49434)"><g data-paper-data="{&quot;isPaintingLayer&quot;:true}" fill-rule="nonzero" stroke-linejoin="miter" stroke-miterlimit="10" stroke-dasharray="" stroke-dashoffset="0" style="mix-blend-mode: normal"><path d="M298.72504,150.54683l-3.59941,-109.5381l58.36069,58.91468" fill="#d9d97d" stroke="#000000" stroke-width="2" stroke-linecap="round"/><path d="M396.47051,112.39889l82.48853,-8.51769l-72.27296,82.39035" data-paper-data="{&quot;index&quot;:null}" fill="#d9d97d" stroke="#000000" stroke-width="2" stroke-linecap="round"/><path d="M307.4839,193.5033l-31.85994,-12.03929l21.33154,-14.64273l-29.51494,-16.19607l28.07631,-3.80775" fill="#d9d97d" stroke="#000000" stroke-width="2" stroke-linecap="round"/><path d="M307.09579,192.50918l-29.3992,-11.10943l21.00341,-14.80228l-27.69032,-15.30541l5.01703,-0.91144l22.63485,16.233l-16.77848,11.84601z" fill="#b6b14b" stroke="none" stroke-width="0" stroke-linecap="round"/><path d="M416.13029,185.34172l17.52792,22.26095l-32.47268,-8.88648l5.14626,25.35666l-31.26713,-13.50432" data-paper-data="{&quot;index&quot;:null}" fill="#d9d97d" stroke="#000000" stroke-width="2" stroke-linecap="round"/><path d="M404.01762,217.60873l-3.81928,-20.18064l27.55426,4.07543l2.97145,4.14388l-30.54212,-8.25764l4.79951,25.24313l-28.85219,-12.46131z" data-paper-data="{&quot;index&quot;:null}" fill="#b6b14b" stroke="none" stroke-width="0" stroke-linecap="round"/><path d="M286.35186,321.62852l39.03961,-121.35084l35.45186,10.91622l-7.99148,110.43463z" fill="#d9d97d" stroke="#000000" stroke-width="2" stroke-linecap="butt"/><path d="M317.84809,224.45159l8.26404,-25.19115l35.15183,6.94346l-2.44763,26.13781c0,0 -8.19657,2.62766 -22.02507,0.15907c-12.29335,-2.19455 -18.94318,-8.0492 -18.94318,-8.0492z" fill="#b6b14b" stroke="#000000" stroke-width="0" stroke-linecap="butt"/><path d="M295.247,144.4838c6.75394,-32.60978 40.39131,-53.21243 75.13115,-46.01732c34.73985,7.19511 57.42691,39.46334 50.67296,72.07312c-6.75394,32.60978 -40.3913,53.21244 -75.13115,46.01733c-34.73984,-7.19511 -57.4269,-39.46335 -50.67296,-72.07313z" fill="#d9d97d" stroke="#000000" stroke-width="2" stroke-linecap="butt"/><path d="M343.16147,211.88059c22.00481,5.82015 40.62709,-0.56155 39.51637,-0.12336c-12.13105,4.78591 -26.07305,5.96661 -40.03042,2.5344c-13.82269,-3.3991 -25.53378,-10.79956 -34.04201,-20.52532c-0.32285,-0.36905 12.55125,12.29414 34.55606,18.11428z" fill="#b6b14b" stroke="#000000" stroke-width="0" stroke-linecap="butt"/><path d="M308.53504,147.51742c2.63004,-12.69851 15.05628,-20.86061 27.75479,-18.23057c12.69851,2.63004 20.86061,15.05627 18.23057,27.75478c-2.63004,12.69851 -15.05628,20.86062 -27.75479,18.23058c-12.69851,-2.63004 -20.86062,-15.05629 -18.23058,-27.7548z" fill="#ffffff" stroke="#000000" stroke-width="2" stroke-linecap="butt"/><path d="M316.97834,148.98466c1.68325,-8.12716 9.63615,-13.35099 17.76332,-11.66774c8.12716,1.68325 13.35099,9.63616 11.66774,17.76334c-1.68325,8.12716 -9.63616,13.351 -17.76333,11.66775c-8.12716,-1.68325 -13.35098,-9.63616 -11.66773,-17.76333z" fill="none" stroke="#000000" stroke-width="5" stroke-linecap="butt"/><path d="M373.0121,195.03852c0,0 -16.07273,8.13519 -25.27738,6.24192c-9.20466,-1.89326 -21.84637,-15.93458 -21.84637,-15.93458z" fill="#000000" stroke="#000000" stroke-width="2" stroke-linecap="round"/><path d="M308.60265,147.19101c2.63004,-12.69851 15.05628,-20.86061 27.75479,-18.23057c12.69851,2.63004 20.86061,15.05627 18.23057,27.75478c0,0 -3.91503,-19.08062 -19.82012,-22.26188c-15.61571,-3.12338 -26.28856,13.33307 -26.16525,12.73766z" fill="#c5c556" stroke="#000000" stroke-width="2" stroke-linecap="butt"/><path d="M379.89647,186.27636c-12.69851,-2.63004 -20.86061,-15.05628 -18.23057,-27.75479c2.63004,-12.69851 15.05627,-20.86061 27.75478,-18.23057c12.69851,2.63004 20.86062,15.05628 18.23058,27.75479c-2.63004,12.69851 -15.05629,20.86062 -27.7548,18.23058z" data-paper-data="{&quot;index&quot;:null}" fill="#ffffff" stroke="#000000" stroke-width="2" stroke-linecap="butt"/><path d="M399.31978,166.03873c-1.68325,8.12718 -9.63615,13.351 -17.76332,11.66775c-8.12716,-1.68325 -13.35099,-9.63618 -11.66774,-17.76334c1.68325,-8.12718 9.63617,-13.351 17.76333,-11.66775c8.12716,1.68325 13.35098,9.63617 11.66773,17.76332z" data-paper-data="{&quot;index&quot;:null}" fill="none" stroke="#000000" stroke-width="5" stroke-linecap="butt"/><path d="M388.24522,145.27444c-15.86025,-3.39779 -26.57932,13.24713 -26.57932,13.24713c2.63004,-12.69851 15.05627,-20.86061 27.75478,-18.23057c12.69851,2.63004 20.86062,15.05628 18.23058,27.75479c-0.12332,0.5954 -3.83437,-19.43538 -19.40605,-22.77135z" data-paper-data="{&quot;index&quot;:null}" fill="#c5c556" stroke="#000000" stroke-width="2" stroke-linecap="butt"/><path d="M308.54571,147.21332l-2.99788,-3.27608" fill="none" stroke="#000000" stroke-width="2" stroke-linecap="round"/><path d="M407.29146,167.4607l4.80227,-2.47754" fill="none" stroke="#000000" stroke-width="2" stroke-linecap="round"/><path d="M326.75274,121.87069c0,0 7.61789,-3.70115 12.84263,-3.83871c5.22475,-0.13756 11.93596,3.18632 11.93596,3.18632c0,0 -7.85885,-1.68924 -11.89375,-1.583c-4.21663,0.11102 -12.88485,2.23539 -12.88485,2.23539z" fill="#000000" stroke="none" stroke-width="0" stroke-linecap="butt"/><path d="M390.33251,130.13494c-3.66078,-1.70012 -11.54407,-3.27131 -11.54407,-3.27131c0,0 7.47934,-0.38481 12.21964,1.81665c4.74029,2.20146 10.26145,8.62389 10.26145,8.62389c0,0 -7.11137,-5.39254 -10.93702,-7.16923z" data-paper-data="{&quot;index&quot;:null}" fill="#000000" stroke="none" stroke-width="0" stroke-linecap="butt"/></g></g></svg>