<svg version="1.1" xmlns="http://www.w3.org/2000/svg" xmlns:xlink="http://www.w3.org/1999/xlink" width="812" height="128.63834" viewBox="0,0,812,128.63834"><defs><linearGradient x1="717.5" y1="330.00012" x2="-46.5" y2="330.00012" gradientUnits="userSpaceOnUse" id="color-1"><stop offset="0" stop-color="#ededa3"/><stop offset="1" stop-color="#ededa3"/></linearGradient><linearGradient x1="340.5" y1="316.00012" x2="340.5" y2="398.00014" gradientUnits="userSpaceOnUse" id="color-2"><stop offset="0" stop-color="#8f8f31" stop-opacity="0"/><stop offset="1" stop-color="#8f8f31"/></linearGradient><linearGradient x1="562.92069" y1="323.53883" x2="562.92069" y2="334.91923" gradientUnits="userSpaceOnUse" id="color-3"><stop offset="0" stop-color="#000000"/><stop offset="1" stop-color="#d7d75e"/></linearGradient></defs><g transform="translate(57.5,-269.3618)"><g data-paper-data="{&quot;isPaintingLayer&quot;:true}" stroke-miterlimit="10" stroke-dasharray="" stroke-dashoffset="0" style="mix-blend-mode: normal"><g fill-rule="nonzero" stroke="none" stroke-linecap="butt" stroke-linejoin="miter"><path d="M-45.3,377.00014v-92h764v92z" fill="#4b4b00" stroke-width="NaN"/><path d="M-46.5,371.00014v-82h764v82z" data-paper-data="{&quot;index&quot;:null}" fill="url(#color-1)" stroke-width="NaN"/><path d="M-41.5,398.00014v-82h764v82z" fill="url(#color-2)" stroke-width="NaN"/></g><path d="M-47.5,321.81773v-6.41667h802v6.41667z" fill="#4b4b00" fill-rule="nonzero" stroke="none" stroke-width="0" stroke-linecap="butt" stroke-linejoin="miter"/><path d="M-57.5,339.81781v-6.41667h802v6.41667z" fill="#4b4b00" fill-rule="nonzero" stroke="none" stroke-width="0" stroke-linecap="butt" stroke-linejoin="miter"/><path d="M495.49121,276.92931c1.73219,1.31567 1.2342,17.92207 0,19.55852c-1.50707,1.99825 -104.41697,1.0362 -106.79562,0c-1.44833,-0.63093 -2.01401,-18.45844 0,-19.55852c2.28529,-1.24826 103.23301,-2.70597 106.79562,0z" fill="#ededa3" fill-rule="nonzero" stroke="#4b4b00" stroke-width="2" stroke-linecap="butt" stroke-linejoin="miter"/><path d="M373.49121,276.92931c1.73219,1.31567 1.2342,17.92207 0,19.55852c-1.50707,1.99825 -104.41697,1.0362 -106.79562,0c-1.44833,-0.63093 -2.01401,-18.45844 0,-19.55852c2.28529,-1.24826 103.23301,-2.70597 106.79562,0z" fill="#ededa3" fill-rule="nonzero" stroke="#4b4b00" stroke-width="2" stroke-linecap="butt" stroke-linejoin="miter"/><path d="M617.99121,276.92931c1.73219,1.31567 1.2342,17.92207 0,19.55852c-1.50707,1.99825 -104.41697,1.0362 -106.79562,0c-1.44833,-0.63093 -2.01401,-18.45844 0,-19.55852c2.28529,-1.24826 103.23301,-2.70597 106.79562,0z" fill="#ededa3" fill-rule="nonzero" stroke="#4b4b00" stroke-width="2" stroke-linecap="butt" stroke-linejoin="miter"/><path d="M250.99121,276.92931c1.73219,1.31567 1.2342,17.92207 0,19.55852c-1.50707,1.99825 -104.41697,1.0362 -106.79562,0c-1.44833,-0.63093 -2.01401,-18.45844 0,-19.55852c2.28529,-1.24826 103.23301,-2.70597 106.79562,0z" fill="#ededa3" fill-rule="nonzero" stroke="#4b4b00" stroke-width="2" stroke-linecap="butt" stroke-linejoin="miter"/><path d="M128.49121,276.92931c1.73219,1.31567 1.2342,17.92207 0,19.55852c-1.50707,1.99825 -104.41697,1.0362 -106.79562,0c-1.44833,-0.63093 -2.01401,-18.45844 0,-19.55852c2.28529,-1.24826 103.23301,-2.70597 106.79562,0z" fill="#ededa3" fill-rule="nonzero" stroke="#4b4b00" stroke-width="2" stroke-linecap="butt" stroke-linejoin="miter"/><g fill-rule="evenodd" stroke="none" stroke-width="4.43922" stroke-linecap="round" stroke-linejoin="round"><path d="M426.33691,302.95725h31.12267c6.08447,0 10.98278,4.83681 10.98278,10.84486v30.73185c0,6.00805 -4.89831,10.84486 -10.98278,10.84486h-31.12267c-6.08446,0 -10.98278,-4.83681 -10.98278,-10.84486v-30.73185c0,-6.00805 4.89832,-10.84486 10.98278,-10.84486z" fill="#4b4b00"/><path d="M428.49875,305.96997h27.0025c5.27898,0 9.52882,4.24985 9.52882,9.52882v27.0025c0,5.27897 -4.24984,9.52882 -9.52882,9.52882h-27.0025c-5.27897,0 -9.52882,-4.24985 -9.52882,-9.52882v-27.0025c0,-5.27897 4.24985,-9.52882 9.52882,-9.52882z" fill="#a0a300"/><path d="M304.33691,302.95725h31.12267c6.08447,0 10.98278,4.83681 10.98278,10.84486v30.73185c0,6.00805 -4.89831,10.84486 -10.98278,10.84486h-31.12267c-6.08446,0 -10.98278,-4.83681 -10.98278,-10.84486v-30.73185c0,-6.00805 4.89832,-10.84486 10.98278,-10.84486z" fill="#4b4b00"/><path d="M306.49875,305.96997h27.0025c5.27898,0 9.52882,4.24985 9.52882,9.52882v27.0025c0,5.27897 -4.24984,9.52882 -9.52882,9.52882h-27.0025c-5.27897,0 -9.52882,-4.24985 -9.52882,-9.52882v-27.0025c0,-5.27897 4.24985,-9.52882 9.52882,-9.52882z" fill="#a0a300"/><path d="M181.83691,302.95725h31.12267c6.08447,0 10.98278,4.83681 10.98278,10.84486v30.73185c0,6.00805 -4.89831,10.84486 -10.98278,10.84486h-31.12267c-6.08446,0 -10.98278,-4.83681 -10.98278,-10.84486v-30.73185c0,-6.00805 4.89832,-10.84486 10.98278,-10.84486z" fill="#4b4b00"/><path d="M548.33691,302.95725h31.12267c6.08447,0 10.98278,4.83681 10.98278,10.84486v30.73185c0,6.00805 -4.89831,10.84486 -10.98278,10.84486h-31.12267c-6.08446,0 -10.98278,-4.83681 -10.98278,-10.84486v-30.73185c0,-6.00805 4.89832,-10.84486 10.98278,-10.84486z" fill="#4b4b00"/><path d="M550.49875,305.96997h27.0025c5.27898,0 9.52882,4.24985 9.52882,9.52882v27.0025c0,5.27897 -4.24984,9.52882 -9.52882,9.52882h-27.0025c-5.27897,0 -9.52882,-4.24985 -9.52882,-9.52882v-27.0025c0,-5.27897 4.24985,-9.52882 9.52882,-9.52882z" fill="#a0a300"/><path d="M183.99875,305.96997h27.0025c5.27898,0 9.52882,4.24985 9.52882,9.52882v27.0025c0,5.27897 -4.24984,9.52882 -9.52882,9.52882h-27.0025c-5.27897,0 -9.52882,-4.24985 -9.52882,-9.52882v-27.0025c0,-5.27897 4.24985,-9.52882 9.52882,-9.52882z" fill="#a0a300"/><path d="M59.33691,302.95725h31.12267c6.08447,0 10.98278,4.83681 10.98278,10.84486v30.73185c0,6.00805 -4.89831,10.84486 -10.98278,10.84486h-31.12267c-6.08446,0 -10.98278,-4.83681 -10.98278,-10.84486v-30.73185c0,-6.00805 4.89832,-10.84486 10.98278,-10.84486z" fill="#4b4b00"/><path d="M61.49875,305.96997h27.0025c5.27898,0 9.52882,4.24985 9.52882,9.52882v27.0025c0,5.27897 -4.24984,9.52882 -9.52882,9.52882h-27.0025c-5.27897,0 -9.52882,-4.24985 -9.52882,-9.52882v-27.0025c0,-5.27897 4.24985,-9.52882 9.52882,-9.52882z" fill="#a0a300"/></g><g fill-rule="nonzero" stroke-linejoin="miter"><path d="M55.90617,344.73617l18.36819,-35.45404l19.4814,35.45404z" fill="#d9db56" stroke="none" stroke-width="NaN" stroke-linecap="butt"/><path d="M89.32669,342.85826l-29.5105,0.2409l14.69502,-28.54688z" fill="none" stroke="#000000" stroke-width="0.5" stroke-linecap="round"/><path d="M76.71247,326.94424c0,2.97403 -1.01667,5.38497 -2.27077,5.38497c-1.25412,0 -2.27077,-2.41094 -2.27077,-5.38497c0,-2.97403 1.01667,-5.38497 2.27077,-5.38497c1.25412,0 2.27077,2.41094 2.27077,5.38497z" fill="#000000" stroke="none" stroke-width="0" stroke-linecap="butt"/><path d="M76.45294,336.93566c0,1.11079 -0.95856,2.01126 -2.14102,2.01126c-1.18245,0 -2.14102,-0.90047 -2.14102,-2.01126c0,-1.11079 0.95856,-2.01126 2.14102,-2.01126c1.18245,0 2.14102,0.90047 2.14102,2.01126z" fill="#000000" stroke="none" stroke-width="0" stroke-linecap="butt"/></g><g fill-rule="nonzero" stroke="#000000" stroke-width="0.75" stroke-linecap="butt" stroke-linejoin="miter"><g data-paper-data="{&quot;index&quot;:null}" fill="#ffffff"><path d="M193.32047,335.44415c0,0 10.75984,-2.74852 14.3311,-8.08553c3.57126,-5.33701 -1.26228,-11.44492 -1.26228,-11.44492l1.9544,-1.40906c0,0 3.96329,7.79389 0.51269,13.66638c-2.70386,4.60166 -11.17485,9.30217 -11.17485,9.30217z"/><path d="M211.79589,312.21603c0.2096,0.93653 -2.98384,2.41166 -2.98384,2.41166c0,0 1.12041,3.33411 0.29586,3.82274c-0.82454,0.48857 -3.21332,-2.09079 -3.21332,-2.09079c0,0 -2.8262,2.09309 -3.54525,1.46157c-0.7199,-0.63321 0.99594,-3.70178 0.99594,-3.70178c0,0 -2.866,-2.03963 -2.48535,-2.92073c0.37899,-0.88036 3.82835,-0.19546 3.82835,-0.19546c0,0 1.05483,-3.35685 2.00899,-3.26763c0.95623,0.08713 1.37208,3.57877 1.37208,3.57877c0,0 3.51615,-0.03247 3.72656,0.90165z"/><path d="M181.00278,337.38116c0,-5.79772 4.69998,-10.4977 10.4977,-10.4977c5.79772,0 10.4977,4.69998 10.4977,10.4977c0,5.79772 -4.69998,10.4977 -10.4977,10.4977c-5.79772,0 -10.4977,-4.69998 -10.4977,-10.4977z"/></g><g><path d="M193.32047,335.44415c0,0 10.75984,-2.74852 14.3311,-8.08553c3.57126,-5.33701 -1.26228,-11.44492 -1.26228,-11.44492l1.9544,-1.40906c0,0 3.96329,7.79389 0.51269,13.66638c-2.70386,4.60166 -11.17485,9.30217 -11.17485,9.30217z" fill="#d9db56"/><path d="M211.79589,312.21603c0.2096,0.93653 -2.98384,2.41166 -2.98384,2.41166c0,0 1.12041,3.33411 0.29586,3.82274c-0.82454,0.48857 -3.21332,-2.09079 -3.21332,-2.09079c0,0 -2.8262,2.09309 -3.54525,1.46157c-0.7199,-0.63321 0.99594,-3.70178 0.99594,-3.70178c0,0 -2.866,-2.03963 -2.48535,-2.92073c0.37899,-0.88036 3.82835,-0.19546 3.82835,-0.19546c0,0 1.05483,-3.35685 2.00899,-3.26763c0.95623,0.08713 1.37208,3.57877 1.37208,3.57877c0,0 3.51615,-0.03247 3.72656,0.90165z" data-paper-data="{&quot;index&quot;:null}" fill="#d9db56"/><path d="M181.00278,337.38116c0,-5.79772 4.69998,-10.4977 10.4977,-10.4977c5.79772,0 10.4977,4.69998 10.4977,10.4977c0,5.79772 -4.69998,10.4977 -10.4977,10.4977c-5.79772,0 -10.4977,-4.69998 -10.4977,-10.4977z" fill="#d9db56"/><g fill="#000000"><path d="M183.96,337.48254c0,-4.32371 3.50507,-7.82878 7.82878,-7.82878c4.32371,0 7.82878,3.50507 7.82878,7.82878c0,4.32371 -3.50507,7.82878 -7.82878,7.82878c-4.32371,0 -7.82878,-3.50507 -7.82878,-7.82878zM193.7675,342.55835c3.13588,0 5.67802,-2.54214 5.67802,-5.67802c0,-3.13588 -2.54214,-5.67802 -5.67802,-5.67802c-3.13588,0 -5.67802,2.54214 -5.67802,5.67802c0,3.13588 2.54214,5.67802 5.67802,5.67802z"/><path d="M191.70275,336.70829c0,-1.42541 1.15551,-2.58092 2.58092,-2.58092c1.42541,0 2.58092,1.15551 2.58092,2.58092c0,1.42541 -1.15551,2.58092 -2.58092,2.58092c-1.42541,0 -2.58092,-1.15551 -2.58092,-2.58092z"/></g></g></g><g fill-rule="nonzero" stroke="none" stroke-linecap="butt" stroke-linejoin="miter"><path d="M452.59527,336.88364c0.53431,3.1296 -5.11992,7.36894 -11.49032,8.86554c-3.40161,0.79914 -14.36969,1.86772 -16.00301,-1.69825c-2.12227,-4.63346 6.45156,-14.81065 12.20146,-16.2087c8.76271,-2.13058 14.17379,2.49248 15.29188,9.0414z" fill="#d9db56" stroke-width="0"/><path d="M456.18504,319.78783c0.93453,4.58683 -3.14957,14.41358 -10.44293,15.89955c-7.29336,1.48596 -7.00135,-4.6965 -3.19436,-8.55587c2.62738,-2.66352 -2.33385,-10.91293 2.88527,-14.2328c6.2803,-3.99488 9.81747,2.30229 10.75202,6.88914z" fill="#d9db56" stroke-width="NaN"/><path d="M461.81063,315.56613c0.34448,0.72428 -2.59321,2.56907 -6.56154,4.12047c-3.96833,1.55139 -6.59921,2.27258 -6.9437,1.54831c-0.04541,-0.09548 -0.77895,-0.85942 -0.50294,-1.23549c1.46979,-2.00256 1.33429,0.0608 2.16363,-0.31858c4.06044,-1.85742 11.60066,-4.6275 11.84455,-4.11471z" fill="#000000" stroke-width="0"/><path d="M461.66661,313.77822c0.27074,0.57651 -6.26863,3.86938 -10.54803,5.61929c-0.54361,0.22228 -0.94165,1.78379 -2.03225,2.004c-0.75491,0.15243 -1.53297,-0.82654 -1.55653,-0.98457c-0.26814,-1.79937 2.44854,-3.01099 6.35231,-4.84422c3.90377,-1.83323 7.38901,-2.63665 7.78448,-1.79449z" fill="#000000" stroke-width="0"/><path d="M441.93631,332.86204c0.7149,2.72836 -3.06025,6.02596 -8.43203,7.36538c-5.37178,1.33943 -10.306,0.21346 -11.02091,-2.51491c-0.7149,-2.72836 3.06025,-6.02596 8.43204,-7.36538c5.37178,-1.33943 10.306,-0.21346 11.02091,2.51491z" fill="#000000" stroke-width="0"/><path d="M442.33547,330.65038c1.00959,2.69225 -2.67207,6.56228 -8.22323,8.64396c-5.55116,2.08168 -10.86969,1.58672 -11.87929,-1.10553c-1.00959,-2.69225 2.67207,-6.56228 8.22323,-8.64396c5.55116,-2.08168 10.86969,-1.58672 11.87929,1.10553z" fill="#d9db56" stroke-width="0"/></g><g fill-rule="nonzero" stroke-linecap="butt" stroke-linejoin="miter"><path d="M584.84452,332.9783c0,0 -9.13919,3.89395 -20.5915,3.89395c-11.45233,0 -20.31873,-4.17509 -20.31873,-4.17509c0,0 9.28393,-13.36026 20.73624,-13.36026c11.45233,0 20.17399,13.6414 20.17399,13.6414z" fill="#d9db56" stroke="none" stroke-width="0"/><path d="M572.18572,328.50228c0,4.26031 -3.02641,7.71396 -6.75966,7.71396c-3.73326,0 -6.75966,-3.45366 -6.75966,-7.71396c0,-4.26031 3.02641,-7.71396 6.75966,-7.71396c3.73326,0 6.75966,3.45366 6.75966,7.71396z" fill="none" stroke="#000000" stroke-width="1"/><path d="M567.57319,328.10454c0,2.06427 -0.97913,3.7377 -2.18695,3.7377c-1.20782,0 -2.18695,-1.67343 -2.18695,-3.7377c0,-2.06427 0.97913,-3.7377 2.18695,-3.7377c1.20782,0 2.18695,1.67343 2.18695,3.7377z" fill="#000000" stroke="#000000" stroke-width="1"/></g><text transform="translate(53.17391,292.6646) scale(0.5,0.5)" font-size="40" xml:space="preserve" fill="#4b4b00" fill-rule="nonzero" stroke="none" stroke-width="1" stroke-linecap="butt" stroke-linejoin="miter" stroke-miterlimit="10" stroke-dasharray="" stroke-dashoffset="0" font-family="&quot;Allan-Regular&quot;, Sans Serif" font-weight="normal" text-anchor="start" style="mix-blend-mode: normal"><tspan x="0" dy="0">Brud</tspan></text><text transform="translate(159.54037,292.6646) scale(0.5,0.5)" font-size="40" xml:space="preserve" fill="#4b4b00" fill-rule="nonzero" stroke="none" stroke-width="1" stroke-linecap="butt" stroke-linejoin="miter" stroke-miterlimit="10" stroke-dasharray="" stroke-dashoffset="0" font-family="Sans Serif" font-weight="normal" text-anchor="start" style="mix-blend-mode: normal"><tspan x="0" dy="0">Sky blue</tspan></text><text transform="translate(297.73913,291.1118) scale(0.5,0.5)" font-size="40" xml:space="preserve" fill="#4b4b00" fill-rule="nonzero" stroke="none" stroke-width="1" stroke-linecap="butt" stroke-linejoin="miter" stroke-miterlimit="10" stroke-dasharray="" stroke-dashoffset="0" font-family="Sans Serif" font-weight="normal" text-anchor="start" style="mix-blend-mode: normal"><tspan x="0" dy="0">Gray</tspan></text><text transform="translate(398.67081,293.44099) scale(0.5,0.5)" font-size="40" xml:space="preserve" fill="#4b4b00" fill-rule="nonzero" stroke="none" stroke-width="1" stroke-linecap="butt" stroke-linejoin="miter" stroke-miterlimit="10" stroke-dasharray="" stroke-dashoffset="0" font-family="Sans Serif" font-weight="normal" text-anchor="start" style="mix-blend-mode: normal"><tspan x="0" dy="0">OWAKCX</tspan></text><text transform="translate(528.14285,293.50518) scale(0.5,0.5)" font-size="40" xml:space="preserve" fill="#4b4b00" fill-rule="nonzero" stroke="none" stroke-width="1" stroke-linecap="butt" stroke-linejoin="miter" stroke-miterlimit="10" stroke-dasharray="" stroke-dashoffset="0" font-family="Sans Serif" font-weight="normal" text-anchor="start" style="mix-blend-mode: normal"><tspan x="0" dy="0">Garnold</tspan></text><path d="M61.96922,305.63735h26.32279c5.1461,0 9.28897,4.27199 9.28897,9.57844v27.14309c0,5.30645 -4.14287,9.57844 -9.28897,9.57844h-26.32279c-5.14608,0 -9.28897,-4.27199 -9.28897,-9.57844v-27.14309c0,-5.30645 4.14288,-9.57844 9.28897,-9.57844z" fill="#a0a300" fill-rule="evenodd" stroke="none" stroke-width="4.43922" stroke-linecap="round" stroke-linejoin="round"/><path d="M57.34764,344.51328c0,-7.68509 6.43637,-13.91509 14.37603,-13.91509c7.93966,0 14.37603,6.23 14.37603,13.91509" fill="#d9db56" fill-rule="nonzero" stroke="#000000" stroke-width="0.5" stroke-linecap="butt" stroke-linejoin="miter"/><path d="M70.52901,331.27077c0,-1.24087 1.18612,-8.77904 1.18612,-8.77904c0,0 1.18613,7.53817 1.18613,8.77904" fill="#804400" fill-rule="nonzero" stroke="#000000" stroke-width="0.5" stroke-linecap="butt" stroke-linejoin="miter"/><g fill-rule="nonzero" stroke="#000000" stroke-width="0.5" stroke-linejoin="miter"><path d="M86.11151,341.40359c0,0 -5.48731,-0.28189 -12.04821,-3.50256c-6.38282,-3.13325 -9.33271,-6.02281 -9.33271,-6.02281l12.29995,-21.28239c0,0 3.5734,-0.33869 8.81416,2.11513c5.08615,2.38144 7.06881,4.96085 7.06881,4.96085z" fill="#b8ba49" stroke-linecap="butt"/><path d="M86.11151,341.40359c0,0 -5.48731,-0.28189 -12.04821,-3.50256c-6.38282,-3.13325 -9.33271,-6.02281 -9.33271,-6.02281l12.29995,-21.28239c0,0 4.93707,3.21207 7.55711,4.37932c2.67322,1.19094 8.32587,2.69667 8.32587,2.69667z" fill="#b8ba49" stroke-linecap="butt"/><path d="M85.99264,341.2107c0,0 3.16506,5.47223 -4.18833,5.77808c-8.42472,0.35039 -17.15676,-15.1006 -17.15676,-15.1006" fill="none" stroke-linecap="round"/></g><g fill-rule="nonzero" stroke-linejoin="miter"><path d="M67.62746,330.0404l16.01437,-13.90723l2.32006,21.74164z" fill="#d9db56" stroke="none" stroke-width="NaN" stroke-linecap="butt"/><path d="M84.1934,336.02006l-14.34332,-5.988l12.8486,-11.21742z" fill="none" stroke="#000000" stroke-width="0.5" stroke-linecap="round"/><path d="M81.27749,325.46003c-0.59698,1.48553 -1.57342,2.47935 -2.18091,2.21976c-0.60749,-0.25959 -0.61602,-1.67427 -0.01902,-3.1598c0.59698,-1.48553 1.57342,-2.47935 2.18091,-2.21976c0.60749,0.25959 0.61602,1.67427 0.01902,3.1598z" fill="#000000" stroke="none" stroke-width="0" stroke-linecap="butt"/><path d="M79.14618,330.397c-0.22297,0.55484 -0.86806,0.80622 -1.44085,0.56146c-0.57279,-0.24476 -0.85635,-0.89295 -0.63338,-1.44778c0.22297,-0.55484 0.86805,-0.80621 1.44084,-0.56145c0.57279,0.24476 0.85636,0.89295 0.63339,1.44778z" fill="#000000" stroke="none" stroke-width="0" stroke-linecap="butt"/></g><path d="M184.227,305.63738h27.1431c5.30647,0 9.57844,4.27199 9.57844,9.57844v27.1431c0,5.30645 -4.27197,9.57844 -9.57844,9.57844h-27.1431c-5.30645,0 -9.57844,-4.27199 -9.57844,-9.57844v-27.1431c0,-5.30645 4.27199,-9.57844 9.57844,-9.57844z" fill="#a0a300" fill-rule="evenodd" stroke="none" stroke-width="4.43922" stroke-linecap="round" stroke-linejoin="round"/><path d="M206.42259,326.54623c0,-3.27773 2.65714,-5.93487 5.93487,-5.93487c3.27773,0 5.93487,2.65714 5.93487,5.93487c0,3.27773 -2.65714,5.93487 -5.93487,5.93487c-3.27773,0 -5.93487,-2.65712 -5.93487,-5.93487z" fill="#d9db56" fill-rule="nonzero" stroke="#000000" stroke-width="0.5" stroke-linecap="butt" stroke-linejoin="miter"/><path d="M208.36996,326.63896c0,-2.25344 1.82678,-4.08022 4.08022,-4.08022c2.25344,0 4.08022,1.82678 4.08022,4.08022c0,2.25344 -1.82678,4.08022 -4.08022,4.08022c-2.25344,0 -4.08022,-1.82678 -4.08022,-4.08022z" fill="#fafc62" fill-rule="nonzero" stroke="#000000" stroke-width="0.5" stroke-linecap="butt" stroke-linejoin="miter"/><path d="M177.30465,326.54623c0,-3.27773 2.65714,-5.93487 5.93487,-5.93487c3.27773,0 5.93487,2.65714 5.93487,5.93487c0,3.27773 -2.65714,5.93487 -5.93487,5.93487c-3.27773,0 -5.93487,-2.65712 -5.93487,-5.93487z" fill="#d9db56" fill-rule="nonzero" stroke="#000000" stroke-width="0.5" stroke-linecap="butt" stroke-linejoin="miter"/><path d="M179.25203,326.63896c0,-2.25344 1.82678,-4.08022 4.08022,-4.08022c2.25344,0 4.08022,1.82678 4.08022,4.08022c0,2.25344 -1.82678,4.08022 -4.08022,4.08022c-2.25344,0 -4.08022,-1.82678 -4.08022,-4.08022z" fill="#fafc62" fill-rule="nonzero" stroke="#000000" stroke-width="0.5" stroke-linecap="butt" stroke-linejoin="miter"/><path d="M180.07043,339.81076c0,-9.26446 8.00092,-16.7748 17.87053,-16.7748c9.86961,0 17.87053,7.51033 17.87053,16.7748" fill="#d9db56" fill-rule="nonzero" stroke="#000000" stroke-width="0.5" stroke-linecap="butt" stroke-linejoin="miter"/><path d="M196.82683,325.24869c0,0 -0.08813,-3.11286 1.19236,-5.25493c1.84695,-3.08965 3.98806,-2.06808 3.98806,-2.06808c0,0 -1.85092,1.89142 -2.49878,3.07874c-0.61359,1.12453 -0.61149,4.59989 -0.61149,4.59989" fill="#d9db56" fill-rule="nonzero" stroke="#000000" stroke-width="0.5" stroke-linecap="round" stroke-linejoin="miter"/><path d="M306.15504,305.40414h27.68997c5.41338,0 9.77142,4.35806 9.77142,9.77142v27.68997c0,5.41337 -4.35804,9.77142 -9.77142,9.77142h-27.68997c-5.41337,0 -9.77142,-4.35806 -9.77142,-9.77142v-27.68997c0,-5.41337 4.35806,-9.77142 9.77142,-9.77142z" fill="#a0a300" fill-rule="evenodd" stroke="none" stroke-width="4.43922" stroke-linecap="round" stroke-linejoin="round"/><g fill="#d9db56" fill-rule="nonzero" stroke="#000000" stroke-width="0.5" stroke-linecap="butt" stroke-linejoin="miter"><path d="M326.75904,327.73517c2.13525,-2.28422 14.76534,-7.08319 14.76534,-7.08319c0,0 -3.93763,12.92458 -6.07288,15.20878c-0.77932,0.83368 -2.37827,-1.70403 -3.43128,-1.47138c-1.83214,0.40477 -3.25689,2.9694 -4.78118,1.54453c-2.40036,-2.24382 -2.61527,-5.91452 -0.48003,-8.19873z" data-paper-data="{&quot;index&quot;:null}"/><path d="M312.76091,335.93389c-1.38341,1.29319 -3.19081,-2.16273 -4.88273,-2.3771c-1.24374,-0.15759 -2.42509,3.2717 -3.32971,2.30397c-2.13525,-2.28422 -6.07288,-15.20878 -6.07288,-15.20878c0,0 12.6301,4.79897 14.76534,7.08319c2.13525,2.28422 1.92034,5.95491 -0.48003,8.19873z" data-paper-data="{&quot;index&quot;:null}"/><path d="M303.74261,337.38906c0,-8.49566 7.33695,-15.38274 16.38755,-15.38274c9.0506,0 16.38755,6.88708 16.38755,15.38274"/></g><path d="M427.57646,305.40414h28.7837c5.62721,0 10.15739,4.5302 10.15739,10.15739v28.7837c0,5.62719 -4.53018,10.15739 -10.15739,10.15739h-28.7837c-5.62719,0 -10.15739,-4.5302 -10.15739,-10.15739v-28.7837c0,-5.62719 4.5302,-10.15739 10.15739,-10.15739z" fill="#a0a300" fill-rule="evenodd" stroke="none" stroke-width="4.43922" stroke-linecap="round" stroke-linejoin="round"/><path d="M423.54131,342.78839l-2.12975,-13.70446l6.01885,2.67504l6.85223,-12.0377l3.9817,6.29665l10.83393,-12.87108l0.64818,15.46381l10.37093,-7.22262l-2.31495,16.2972l4.72248,-1.66675l-4.81508,10.74133" fill="#d9db56" fill-rule="nonzero" stroke="#000000" stroke-width="0.5" stroke-linecap="round" stroke-linejoin="miter"/><path d="M550.31684,306.337h27.00638c5.27974,0 9.53019,4.25047 9.53019,9.53019v27.00638c0,5.27973 -4.25046,9.53019 -9.53019,9.53019h-27.00638c-5.27973,0 -9.53019,-4.25047 -9.53019,-9.53019v-27.00638c0,-5.27973 4.25047,-9.53019 9.53019,-9.53019z" fill="#a0a300" fill-rule="evenodd" stroke="none" stroke-width="4.43922" stroke-linecap="round" stroke-linejoin="round"/><path d="M560.34469,331.1138h-15.01877c0,0 -0.99206,-0.21251 -1.00544,-1.38248c-0.01223,-1.06939 1.00544,-1.38248 1.00544,-1.38248h15.01877z" fill="#a3a347" fill-rule="nonzero" stroke="#000000" stroke-width="0.5" stroke-linecap="butt" stroke-linejoin="miter"/><path d="M567.2952,328.34885h15.01877c0,0 1.01768,0.3131 1.00544,1.38248c-0.01339,1.16998 -1.00544,1.38248 -1.00544,1.38248h-15.01877z" data-paper-data="{&quot;index&quot;:null}" fill="#a3a347" fill-rule="nonzero" stroke="#000000" stroke-width="0.5" stroke-linecap="butt" stroke-linejoin="miter"/><path d="M549.70664,322.31047h26.71066c1.61827,0 2.92104,1.30279 2.92104,2.92106v8.27758c0,1.61826 -1.30279,2.92106 -2.92104,2.92106h-26.71066c-1.61826,0 -2.92106,-1.30279 -2.92106,-2.92106v-8.27758c0,-1.61826 1.30279,-2.92106 2.92106,-2.92106z" fill="#a3a347" fill-rule="evenodd" stroke="#000000" stroke-width="0.5" stroke-linecap="round" stroke-linejoin="round"/><path d="M552.09889,323.7639h21.52865c1.30431,0 2.35435,1.05004 2.35435,2.35435v6.67169c0,1.30431 -1.05004,2.35435 -2.35435,2.35435h-21.52865c-1.30431,0 -2.35435,-1.05004 -2.35435,-2.35435v-6.67169c0,-1.30431 1.05004,-2.35435 2.35435,-2.35435z" fill="#000000" fill-rule="evenodd" stroke="#000000" stroke-width="0.5" stroke-linecap="round" stroke-linejoin="round"/><path d="M552.15637,323.53883h21.52865c1.30431,0 2.35435,1.05004 2.35435,2.35435v6.67169c0,1.30431 -1.05004,2.35435 -2.35435,2.35435h-21.52865c-1.30431,0 -2.35435,-1.05004 -2.35435,-2.35435v-6.67169c0,-1.30431 1.05004,-2.35435 2.35435,-2.35435z" fill="url(#color-3)" fill-rule="evenodd" stroke="#000000" stroke-width="0.5" stroke-linecap="round" stroke-linejoin="round"/></g></g></svg>