<svg version="1.1" xmlns="http://www.w3.org/2000/svg" xmlns:xlink="http://www.w3.org/1999/xlink" width="30.46396" height="53.66004" viewBox="0,0,30.46396,53.66004"><defs><linearGradient x1="233.72051" y1="344.41644" x2="238.20493" y2="344.41644" gradientUnits="userSpaceOnUse" id="color-1"><stop offset="0" stop-color="#cccccc"/><stop offset="1" stop-color="#cccccc" stop-opacity="0"/></linearGradient><linearGradient x1="248.10564" y1="344.41496" x2="252.01099" y2="344.41496" gradientUnits="userSpaceOnUse" id="color-2"><stop offset="0" stop-color="#cccccc" stop-opacity="0"/><stop offset="1" stop-color="#cccccc"/></linearGradient><linearGradient x1="243.04553" y1="349.9396" x2="243.04553" y2="353.54331" gradientUnits="userSpaceOnUse" id="color-3"><stop offset="0" stop-color="#d8d8d8" stop-opacity="0"/><stop offset="1" stop-color="#d8d8d8"/></linearGradient><linearGradient x1="234.22051" y1="323.91643" x2="238.70493" y2="323.91643" gradientUnits="userSpaceOnUse" id="color-4"><stop offset="0" stop-color="#cccccc"/><stop offset="1" stop-color="#cccccc" stop-opacity="0"/></linearGradient><linearGradient x1="248.60564" y1="323.91496" x2="252.51107" y2="323.91496" gradientUnits="userSpaceOnUse" id="color-5"><stop offset="0" stop-color="#cccccc" stop-opacity="0"/><stop offset="1" stop-color="#cccccc"/></linearGradient></defs><g transform="translate(-227.8858,-301.60594)"><g data-paper-data="{&quot;isPaintingLayer&quot;:true}" fill-rule="nonzero" stroke="none" stroke-linejoin="miter" stroke-miterlimit="10" stroke-dasharray="" stroke-dashoffset="0" style="mix-blend-mode: normal"><g><path d="M227.88581,338.5929c0,0 1.58546,2.79528 7.02746,3.25582c1.65088,0.13971 4.68428,-0.29811 8.01667,-0.30146c3.81569,-0.00384 7.90008,0.50794 10.87323,-0.04308c3.27549,-0.60706 4.0466,-3.0346 4.0466,-3.0346c0,0 -0.40197,3.53206 -1.98351,4.85328c-1.61546,1.34956 -7.22986,12.17883 -12.81351,11.93921c-6.74609,-0.28951 -12.04542,-11.6003 -13.04216,-12.47094c-1.33803,-1.16875 -2.12478,-4.19823 -2.12478,-4.19823z" fill="#000000" stroke-width="0.5" stroke-linecap="round"/><path d="M247.94552,350.84331c0,0 -2.08335,2.7 -4.9,2.7c-2.81665,0 -4.9,-2.7 -4.9,-2.7c0,0 2.08335,-1.5 4.9,-1.5c2.81665,0 4.9,1.5 4.9,1.5z" fill="#ffffff" stroke-width="0" stroke-linecap="butt"/><path d="M233.72051,343.64331c0,0 0.7235,0.325 2.45,0.325c1.36584,0 3.97498,-0.55234 6.87901,-0.58679c2.21611,-0.0263 4.40615,0.38847 6.28757,0.49566c2.32193,0.13229 2.70841,-0.23387 2.70841,-0.23387c0,0 -2.84982,2.05 -9,2.05c-5.73956,0 -9.325,-2.05 -9.325,-2.05z" fill="#ffffff" stroke-width="0" stroke-linecap="butt"/><g stroke-width="0" stroke-linecap="butt"><path d="M233.72051,343.64332c0,0 0.7235,0.325 2.45,0.325c0.51628,0 1.21021,-0.07892 2.03055,-0.17895c-0.0308,0.22436 -0.04671,0.45347 -0.04671,0.68629c0,0.24238 0.01725,0.48074 0.05058,0.7139c-2.84165,-0.60697 -4.48442,-1.54624 -4.48442,-1.54624z" fill="url(#color-1)"/><path d="M249.33709,343.87718c1.95786,0.11155 2.53963,-0.1313 2.67394,-0.21019c-0.21922,0.14696 -1.48735,0.94625 -3.90353,1.49593c0.03089,-0.22467 0.04684,-0.4541 0.04684,-0.68726c0,-0.23777 -0.0166,-0.47165 -0.04869,-0.70057c0.42249,0.04306 0.83385,0.07945 1.23144,0.1021z" fill="url(#color-2)"/><path d="M252.01099,343.66699c0.02302,-0.01543 0.03447,-0.02367 0.03447,-0.02367c0,0 -0.0095,0.009 -0.03447,0.02367z" fill="#f3f3f3"/></g><path d="M247.94552,350.84331c0,0 -2.08335,2.7 -4.9,2.7c-2.81665,0 -4.9,-2.7 -4.9,-2.7c0,0 0.67391,-0.48521 1.77336,-0.90371c0.657,1.08552 1.84901,1.81105 3.21048,1.81105c1.33934,0 2.51469,-0.70215 3.17803,-1.75843c1.01923,0.40547 1.63814,0.85108 1.63814,0.85108z" fill="url(#color-3)" stroke-width="0" stroke-linecap="butt"/></g><path d="M228.38581,318.0929c0,0 1.58546,2.79528 7.02746,3.25582c1.65088,0.13971 4.68428,-0.29811 8.01667,-0.30146c3.81569,-0.00384 7.90008,0.50794 10.87323,-0.04308c3.27549,-0.60706 4.0466,-3.0346 4.0466,-3.0346c0,0 -0.40197,3.53206 -1.98351,4.85328c-1.61546,1.34956 -7.47986,7.17883 -13.06351,6.93921c-5.58365,-0.23962 -11.79542,-6.6003 -12.79216,-7.47094c-1.33803,-1.16875 -2.12478,-4.19823 -2.12478,-4.19823z" fill="#000000" stroke-width="0.5" stroke-linecap="round"/><path d="M228.38581,301.72926c0,0 1.58546,2.79528 7.02746,3.25582c1.65088,0.13971 4.68428,-0.29811 8.01667,-0.30146c3.81569,-0.00384 7.90008,0.50794 10.87323,-0.04308c3.27549,-0.60706 4.0466,-3.0346 4.0466,-3.0346c0,0 -0.40197,3.53206 -1.98351,4.85328c-1.61546,1.34956 -7.47986,7.17883 -13.06351,6.93921c-5.58365,-0.23962 -11.79542,-6.6003 -12.79216,-7.47094c-1.33803,-1.16875 -2.12478,-4.19823 -2.12478,-4.19823z" fill="#000000" stroke-width="0.5" stroke-linecap="round"/><path d="M236.89278,323.41274c1.36264,0.09343 3.75276,-0.49678 6.65679,-0.53123c2.21611,-0.0263 4.40615,0.38847 6.28757,0.49566c1.21082,0.02118 1.83341,-0.23387 1.83341,-0.23387c0,0 -1.97482,2.05 -8.125,2.05c-5.73956,0 -8.2,-2.05 -8.2,-2.05c0,0 0.73695,0.21389 1.54723,0.26944z" fill="#ffffff" stroke-width="0" stroke-linecap="butt"/><path d="M236.19811,306.53652c1.50573,0.10376 4.14684,-0.55169 7.35582,-0.58994c2.44882,-0.02921 4.86884,0.43141 6.94783,0.55044c1.33797,0.02352 2.02594,-0.25972 2.02594,-0.25972l-0.32285,2.68628c0,0 -5.22537,2.76322 -8.65536,2.76322c-3.75487,0 -8.8261,-3.54793 -8.8261,-3.54793l-0.23498,-1.90158c0,0 0.81434,0.23753 1.7097,0.29922z" fill="#ffffff" stroke-width="0" stroke-linecap="butt"/><g stroke-width="0" stroke-linecap="butt"><path d="M235.22051,323.14331c0,0 1.02969,0.22743 1.7,0.25556c0.67031,0.02813 0.96021,-0.00948 1.78055,-0.10951c-0.0308,0.22436 -0.04671,0.45347 -0.04671,0.68629c0,0.24238 0.01725,0.42518 0.05058,0.65834c-0.77567,-0.16568 -1.3875,-0.41168 -1.86714,-0.60102c-1.27752,-0.5043 -1.61728,-0.88967 -1.61728,-0.88967z" fill="url(#color-4)"/><path d="M251.53882,323.16699c0,0 -0.29309,0.42727 -1.47406,0.92774c-0.38469,0.16302 -0.86359,0.43313 -1.45725,0.56819c0.03089,-0.22467 0.04684,-0.4541 0.04684,-0.68726c0,-0.23777 -0.0166,-0.47165 -0.04869,-0.70057c0.42249,0.04306 0.87459,0.12171 1.35644,0.1021c0.48185,-0.01961 1.57672,-0.2102 1.57672,-0.2102z" fill="url(#color-5)"/></g><g fill="#000000" stroke-width="0" stroke-linecap="butt" font-family="&quot;Helvetica Neue&quot;, Helvetica, Arial, sans-serif" font-weight="400" font-size="16" text-anchor="start"/><path d="" fill="#ececec" stroke-width="0" stroke-linecap="butt"/></g></g></svg>