<svg version="1.1" xmlns="http://www.w3.org/2000/svg" xmlns:xlink="http://www.w3.org/1999/xlink" width="163.05462" height="289.41615" viewBox="0,0,163.05462,289.41615"><defs><linearGradient x1="179.67349" y1="113.4802" x2="193.40886" y2="289.34317" gradientUnits="userSpaceOnUse" id="color-1"><stop offset="0" stop-color="#c5c556"/><stop offset="1" stop-color="#8f8f3f"/></linearGradient><linearGradient x1="247.77722" y1="108.16112" x2="261.51262" y2="284.02409" gradientUnits="userSpaceOnUse" id="color-2"><stop offset="0" stop-color="#c5c556"/><stop offset="1" stop-color="#8f8f3f"/></linearGradient><linearGradient x1="213.09921" y1="102.80394" x2="227.9792" y2="293.32217" gradientUnits="userSpaceOnUse" id="color-3"><stop offset="0" stop-color="#9b9b44"/><stop offset="1" stop-color="#797935"/></linearGradient></defs><g transform="translate(-145.93714,-74.95344)"><g stroke-miterlimit="10"><path d="M240.22236,364.3696l-9.53245,-78.8541l13.57462,-3.33477l20.43166,77.71348z" fill="#535324" stroke="none" stroke-width="0" stroke-linecap="butt"/><path d="M205.20475,362.10766l4.8128,-80.21019l13.96487,0.61108l6.09868,79.1937z" fill="#535324" stroke="none" stroke-width="0" stroke-linecap="butt"/><g fill="#535324" stroke="none" stroke-width="0" stroke-linecap="butt"><path d="M270.43744,286.71038c-2.08384,-9.83226 4.77406,-19.4459 15.31753,-21.47265c10.54348,-2.02675 20.77996,4.30086 22.86379,14.13313c2.08384,9.83227 -4.77406,19.4459 -15.31753,21.47265c-10.5435,2.02676 -20.77996,-4.30085 -22.8638,-14.13313z"/><path d="M275.58865,276.08664l-9.6644,-58.90754l11.80253,-1.96737l22.49951,57.41315z"/></g><g fill="#535324" stroke="none" stroke-width="0" stroke-linecap="butt"><path d="M153.20476,284.10766l13.3128,-60.21019l11.96487,0.11108l-0.40132,59.6937z"/><path d="M184.8193,293.39741c-0.53203,10.03658 -9.66195,17.87676 -20.39226,17.51155c-10.73029,-0.36521 -18.99763,-8.79752 -18.4656,-18.8341c0.53203,-10.03658 9.66195,-17.87676 20.39225,-17.51155c10.73029,0.36521 18.99763,8.79752 18.4656,18.8341z"/></g><path d="M205.72554,199.91335c3.79292,48.56322 16.80246,87.15556 -1.34872,88.57322c-18.15117,1.41766 -35.94038,-36.80138 -39.73329,-85.3646c-3.79292,-48.56322 7.84675,-89.08073 25.99792,-90.49839c18.15117,-1.41766 11.29118,38.72655 15.0841,87.28977z" fill="url(#color-1)" stroke="#6e6e30" stroke-width="2" stroke-linecap="butt"/><path d="M236.80927,109.01773c18.15117,-1.41766 35.94038,36.80138 39.73329,85.3646c3.79292,48.56323 -7.84676,89.08073 -25.99792,90.49839c-18.15117,1.41766 -11.29118,-38.72653 -15.0841,-87.28977c-3.79292,-48.56322 -16.80246,-87.15556 1.34872,-88.57322z" fill="url(#color-2)" stroke="#6e6e30" stroke-width="2" stroke-linecap="butt"/><g stroke="#6e6e30" stroke-width="2" stroke-linecap="butt"><path d="M245.24893,284.40439l16.00184,12.83445l-21.3882,-2.78686l-11.15308,9.22111l-12.44841,-7.05851l-20.53013,5.89298l14.29961,-15.50397z" fill="#797935"/><path d="M196.38955,112.34867l-17.5486,-26.09492l21.49882,6.50971l10.63486,-16.16161l13.03873,14.92214l20.38163,-10.10106l-12.82125,27.88867z" fill="#9b9b44"/><path d="M256.60671,197.15019c6.09546,78.0442 -8.22839,94.57874 -28.06629,96.12814c-19.83791,1.54939 -37.67768,-12.47309 -43.77315,-90.51728c-6.09546,-78.0442 8.494,-98.40771 28.33192,-99.9571c19.83792,-1.5494 37.41208,16.30204 43.50754,94.34625z" fill="url(#color-3)"/></g><path d="M222.14484,123.46191c-1.793,1.79722 -4.97264,3.47141 -5.97496,5.79591c-2.24878,5.2152 -1.13519,12.76311 2.8671,17.21223c1.26053,1.40126 2.98745,2.09991 4.22647,3.64973c4.01682,5.02443 8.06815,10.90781 8.98329,17.38581c1.29328,9.15476 -3.35486,16.72584 -7.18243,24.64828c-1.47063,3.04396 -1.92252,6.88371 -2.48843,10.24012c-0.18614,1.10404 -1.25619,2.343 -1.2089,3.49124c0.06794,1.65003 0.6174,3.30413 0.38577,4.93924c-0.50942,3.59597 -1.24755,4.56212 0.32505,9.71431c2.95327,9.67563 13.76448,14.46753 14.53747,25.10994c0.3024,4.16342 1.03085,6.94076 0.14993,10.71264c-0.85992,3.68198 -5.03046,10.89144 -7.1783,14.08114c-1.64999,2.45035 -1.05047,6.59335 -1.15462,9.24687c-0.13486,3.43608 -1.1655,6.59602 -5.96058,6.97053c-4.68537,0.36594 -6.35992,-2.58272 -6.97053,-5.96058c-1.40528,-7.774 1.84504,-14.8893 5.42981,-21.50312c0.77144,-1.42327 3.18621,-5.39476 3.21306,-6.6493c0.0327,-1.52696 -0.22453,-6.1236 -1.07398,-8.1984c-1.53035,-3.7379 -5.75141,-6.75218 -7.91207,-10.15118c-1.72877,-2.71958 -3.96102,-5.22811 -4.98367,-8.28408c-1.63932,-4.89882 -1.09934,-10.00763 -1.42278,-14.97624c-0.12094,-1.85777 -0.69601,-3.72483 -0.43489,-5.56812c0.83452,-5.891 2.48554,-12.97866 4.88195,-18.46872c2.3727,-5.43575 7.0442,-11.01982 6.19897,-17.33539c-0.60433,-4.51551 -4.09487,-8.18863 -6.64362,-11.75339c-0.95954,-1.34205 -3.18729,-2.23379 -4.28873,-3.75323c-4.57161,-6.30655 -6.07752,-12.97763 -6.67844,-20.67152c-0.58189,-7.45029 4.82768,-13.68208 10.10993,-17.99995c0.50405,-0.41202 1.11423,-1.20654 1.80578,-2.0229c0.11846,-0.14988 0.24346,-0.2945 0.37462,-0.43343c1.22164,-1.37994 2.66518,-2.63892 4.20935,-2.01199c3.57082,-0.27889 6.69164,2.38976 6.97053,5.96058c0.14309,1.83204 -0.48969,3.54562 -1.62213,4.8177c-0.34238,0.55343 -0.73453,1.12675 -1.16935,1.72225z" fill="#ecec68" stroke="none" stroke-width="0.5" stroke-linecap="butt"/><path d="M207.57829,176.10663c-1.45949,6.03541 -7.16405,10.38239 -12.74144,9.70924c-5.5774,-0.67316 -8.91562,-6.11152 -7.45612,-12.14693c1.45949,-6.03541 7.16405,-10.38239 12.74144,-9.70924c5.5774,0.67316 8.91562,6.11152 7.45612,12.14693z" fill="#000000" stroke="none" stroke-width="0" stroke-linecap="butt"/><path d="M227.90566,152.11946c7.82166,-2.21531 16.95288,2.71706 20.39519,11.01677c3.4423,8.2997 -0.10786,16.82381 -7.9295,19.03913c-7.82166,2.21531 -16.95288,-2.71706 -20.39519,-11.01677c-3.4423,-8.2997 0.10786,-16.82381 7.9295,-19.03912z" fill="#000000" stroke="none" stroke-width="0" stroke-linecap="butt"/><path d="M199.24512,203.61644l4.20134,-1.95081c0,0 -21.42426,-0.57076 -1.00998,-4.47857c20.41428,-3.90782 23.18763,2.32857 23.18763,2.32857" fill="none" stroke="#6e6e30" stroke-width="2" stroke-linecap="round"/></g></g></svg>