<svg version="1.1" xmlns="http://www.w3.org/2000/svg" xmlns:xlink="http://www.w3.org/1999/xlink" width="153.06048" height="283.92379" viewBox="0,0,153.06048,283.92379"><g transform="translate(-229.4357,-24.57621)"><g data-paper-data="{&quot;isPaintingLayer&quot;:true}" fill-rule="nonzero" stroke-linejoin="miter" stroke-miterlimit="10" stroke-dasharray="" stroke-dashoffset="0" style="mix-blend-mode: normal"><path d="M285.90286,307.49999l11.23626,-90.17722l43.64314,-3.40793l11.62059,93.58516z" fill="#9b9d30" stroke="#000000" stroke-width="2" stroke-linecap="butt"/><path d="M289.57668,250.088l10.15487,-49.81105l40.04359,3.03031l10.10835,47.33816l-30.23979,-11.89646z" fill="#747524" stroke="#000000" stroke-width="2" stroke-linecap="butt"/><path d="M381.28008,139.8391c-3.12734,44.48721 -39.38184,78.18083 -80.97669,75.25682c-41.59485,-2.92401 -72.77893,-41.35841 -69.65159,-85.84561c3.12734,-44.4872 39.38184,-78.18083 80.97669,-75.25682c41.59485,2.92401 72.77893,41.35841 69.65159,85.84561z" fill="#747524" stroke="#000000" stroke-width="2" stroke-linecap="butt"/><path d="M372.61279,144.38662c-2.66905,37.96792 -35.21142,66.61147 -72.68542,63.97714c-37.47399,-2.63433 -65.68899,-35.54896 -63.01994,-73.51689c2.66905,-37.96792 35.21142,-66.61147 72.68542,-63.97714c37.47399,2.63433 65.68899,35.54896 63.01994,73.51689z" fill="#000000" stroke="none" stroke-width="0" stroke-linecap="butt"/><path d="M240.64024,136.79291c2.33527,-33.21987 32.91749,-58.13312 68.30727,-55.64531c35.38978,2.48781 62.18577,31.43462 59.8505,64.65448c-2.33527,33.21987 -32.91749,58.13312 -68.30727,55.64531c-35.38978,-2.48781 -62.18577,-31.43462 -59.8505,-64.65448z" fill="#ffff70" stroke="#000000" stroke-width="2" stroke-linecap="butt"/><path d="M241.35775,136.89733c0.05105,-0.7262 1.27253,56.14684 59.212,61.23725c55.35874,4.86367 67.42116,-53.35662 67.34971,-52.34028c-2.30042,32.72403 -32.49709,57.26045 -67.44613,54.80362c-34.94904,-2.45683 -61.416,-30.97656 -59.11558,-63.70059z" fill="#6c6d22" stroke="#000000" stroke-width="0" stroke-linecap="butt"/><path d="M239.35009,151.68402c0,0 -3.03872,-81.39767 72.16057,-74.62348c77.23193,6.95728 55.0821,86.32511 55.0821,86.32511c0,0 -25.46365,10.93204 -63.78742,8.57657c-34.33137,-2.11009 -63.45525,-20.27819 -63.45525,-20.27819z" fill-opacity="0.20144" fill="#000000" stroke="none" stroke-width="0" stroke-linecap="butt"/><path d="M254.12698,138.17153c0.90937,-12.93608 12.13334,-22.68565 25.06941,-21.77628c12.93608,0.90937 22.68565,12.13334 21.77628,25.06941c-0.90937,12.93608 -12.13334,22.68565 -25.06941,21.77628c-12.93608,-0.90937 -22.68565,-12.13334 -21.77628,-25.06941z" fill="#ffffff" stroke="#000000" stroke-width="2" stroke-linecap="butt"/><path d="M256.63661,142.29862c0.6401,-9.10561 8.54055,-15.96825 17.64615,-15.32815c9.10561,0.6401 15.96825,8.54056 15.32815,17.64616c-0.6401,9.10561 -8.54056,15.96825 -17.64616,15.32815c-9.10561,-0.6401 -15.96824,-8.54056 -15.32814,-17.64616z" fill="#000000" stroke="none" stroke-width="0" stroke-linecap="butt"/><path d="M299.09507,179.47721l7.52798,12.24257c0,0 -7.88758,-0.05527 -12.15595,-0.35532c-4.0716,-0.28622 -12.89183,-1.40547 -12.89183,-1.40547z" data-paper-data="{&quot;index&quot;:null}" fill="#000000" stroke="#000000" stroke-width="2" stroke-linecap="round"/><path d="M330.02812,167.04577c-12.93608,-0.90937 -22.68565,-12.13334 -21.77628,-25.06941c0.90937,-12.93608 12.13334,-22.68565 25.06941,-21.77628c12.93608,0.90937 22.68565,12.13334 21.77628,25.06941c-0.90937,12.93608 -12.13334,22.68565 -25.06941,21.77628z" data-paper-data="{&quot;index&quot;:null}" fill="#ffffff" stroke="#000000" stroke-width="2" stroke-linecap="butt"/><path d="M326.51613,163.73384c-9.1056,-0.6401 -15.96824,-8.54056 -15.32814,-17.64616c0.6401,-9.10561 8.54056,-15.96825 17.64615,-15.32815c9.1056,0.6401 15.96824,8.54056 15.32814,17.64616c-0.6401,9.10561 -8.54056,15.96825 -17.64615,15.32815z" data-paper-data="{&quot;index&quot;:null}" fill="#000000" stroke="none" stroke-width="0" stroke-linecap="butt"/><path d="M268.49678,107.84449c0,0 7.84198,-3.19909 13.06463,-2.99738c5.22266,0.20172 11.70408,3.95403 11.70408,3.95403c0,0 -7.73269,-2.19557 -11.76598,-2.35134c-4.21494,-0.16279 -13.00274,1.39469 -13.00274,1.39469z" fill="#000000" stroke="none" stroke-width="0" stroke-linecap="butt"/><path d="M332.52571,110.05439c-4.02935,-0.2367 -11.93873,1.19743 -11.93873,1.19743c0,0 6.81523,-3.10505 12.03279,-2.79856c5.21755,0.30649 12.71173,4.25213 12.71173,4.25213c0,0 -8.59497,-2.40365 -12.80579,-2.65102z" data-paper-data="{&quot;index&quot;:null}" fill="#000000" stroke="none" stroke-width="0" stroke-linecap="butt"/><g stroke="#000000" stroke-width="2" stroke-linecap="butt"><path d="M245.57908,78.21201l11.78554,-46.84571c0,0 26.6213,-6.24025 39.11778,-6.79009c13.70848,-0.60318 39.83422,3.31624 39.83422,3.31624l16.08363,44.77869c0,0 -34.12845,6.24566 -52.11119,7.17843c-17.6168,0.91378 -54.70999,-1.63755 -54.70999,-1.63755z" fill="#ffffff"/><path d="M245.94896,78.13394l1.71264,-6.8182c0,0 34.34504,2.46061 51.67811,1.70067c16.87256,-0.73976 50.97598,-6.20144 50.97598,-6.20144l2.21975,5.8669c0,0 -35.85582,7.78606 -53.65809,8.49774c-17.47195,0.69847 -52.92842,-3.04565 -52.92842,-3.04565z" fill="#9b9d30"/><path d="M296.40147,48.74928c0,0 10.70592,-5.42968 17.16176,-7.74766c7.17364,-2.5757 23.95408,-7.01495 23.95408,-7.01495l2.21002,6.62149c0,0 -19.03161,4.98676 -25.82767,7.58461c-5.09855,1.94896 -11.33993,6.62309 -11.33993,6.62309z" fill="#9b9d30"/><path d="M306.8224,71.35186c0,0 0.10529,-8.09063 -11.95381,-15.20088c-16.3311,-9.62907 -39.56357,-12.13969 -39.56357,-12.13969l2.10905,-6.83404c0,0 22.03125,0.85835 40.86059,12.32442c14.22592,8.66281 16.47593,21.53325 16.47593,21.53325z" fill="#9b9d30"/></g></g></g></svg>