<svg version="1.1" xmlns="http://www.w3.org/2000/svg" xmlns:xlink="http://www.w3.org/1999/xlink" width="305.05846" height="412.91825" viewBox="0,0,305.05846,412.91825"><g transform="translate(-139.54206,96.07356)"><g data-paper-data="{&quot;isPaintingLayer&quot;:true}" fill-rule="nonzero" stroke-linejoin="miter" stroke-miterlimit="10" stroke-dasharray="" stroke-dashoffset="0" style="mix-blend-mode: normal"><g data-paper-data="{&quot;index&quot;:null}"><path d="M183.34628,118.1306l-11.60105,29.59986l2.4335,-31.03503z" fill="#d9db56" stroke="#000000" stroke-width="0.5" stroke-linecap="butt"/><path d="M187.75346,121.74899l-1.58614,7.11536l-18.13273,-4.0421l1.58611,-7.11537z" fill="#d9db56" stroke="#000000" stroke-width="1" stroke-linecap="butt"/><path d="M201.91361,79.79375l-9.7536,44.12622l-28.24079,-6.24229l9.7536,-44.12622z" fill="#d9db56" stroke="#000000" stroke-width="1" stroke-linecap="butt"/><path d="M198.36902,96.79554l-2.67744,10.14958c0,0 -8.43832,-4.63264 -13.17895,-5.62124c-4.44416,-0.92679 -14.43296,-0.13683 -14.43296,-0.13683l2.67744,-10.14958c0,0 10.05556,-1.9764 14.45681,-1.0586c4.77262,0.99526 13.1551,6.81664 13.1551,6.81664z" fill="#000000" stroke="none" stroke-width="0" stroke-linecap="butt"/><path d="M181.24576,126.43501l0.77656,-4.56658" fill="none" stroke="#000000" stroke-width="0.5" stroke-linecap="round"/><path d="M175.23056,120.93144l-0.49055,4.73634" fill="none" stroke="#000000" stroke-width="0.5" stroke-linecap="round"/></g><g><path d="M425.9991,73.66469l17.46888,26.56266l-23.93394,-19.90632z" fill="#d9db56" stroke="#000000" stroke-width="0.5" stroke-linecap="butt"/><path d="M431.49806,72.15562l4.89362,5.4034l-13.76998,12.47085l-4.89364,-5.40339z" fill="#d9db56" stroke="#000000" stroke-width="1" stroke-linecap="butt"/><path d="M405.41905,36.36963l30.39585,33.44172l-21.40269,19.45335l-30.39585,-33.44172z" fill="#d9db56" stroke="#000000" stroke-width="1" stroke-linecap="butt"/><path d="M417.25379,49.08041l6.74083,8.04635c0,0 -8.65464,4.21474 -12.19901,7.51448c-3.32273,3.09338 -8.44522,11.70501 -8.44522,11.70501l-6.74083,-8.04635c0,0 4.19237,-9.35117 7.48298,-12.41472c3.56828,-3.32202 13.16123,-6.8048 13.16123,-6.8048z" fill="#000000" stroke="none" stroke-width="0" stroke-linecap="butt"/><path d="M431.56651,80.17462l-3.28008,-3.27076" fill="none" stroke="#000000" stroke-width="0.5" stroke-linecap="round"/><path d="M423.59991,81.90808l3.58381,3.13526" fill="none" stroke="#000000" stroke-width="0.5" stroke-linecap="round"/></g><path d="M177.43975,47.07798c-7.16074,-64.02829 39.09247,-121.7555 103.30943,-128.93734c64.21696,-7.18184 122.08003,38.9013 129.24077,102.92958c7.16074,64.02829 -39.09247,121.75551 -103.30943,128.93735c-64.21696,7.18184 -122.08003,-38.90131 -129.24077,-102.92959z" fill="#7f7f38" stroke="#000000" stroke-width="2" stroke-linecap="butt"/><path d="M274.13203,45.79666c-4.30434,-38.48756 27.36307,-73.61973 70.73114,-78.46989c43.36807,-4.85016 82.0142,22.41834 86.31854,60.9059c4.30434,38.48757 -27.36307,73.61974 -70.73114,78.4699c-43.36807,4.85016 -82.0142,-22.41834 -86.31854,-60.9059z" fill="#00800b" stroke="#000000" stroke-width="2" stroke-linecap="butt"/><path d="M274.13203,45.79666c-4.30434,-38.48756 27.36307,-73.61973 70.73114,-78.46989c43.36807,-4.85016 82.0142,22.41834 86.31854,60.9059c4.30434,38.48757 -27.36307,73.61974 -70.73114,78.4699c-43.36807,4.85016 -82.0142,-22.41834 -86.31854,-60.9059z" fill="#9d9d45" stroke="#000000" stroke-width="2" stroke-linecap="butt"/><path d="M162.50054,59.83376c-4.30434,-38.48756 27.36307,-73.61973 70.73114,-78.46989c43.36807,-4.85016 82.01421,22.41833 86.31855,60.9059c4.30434,38.48757 -27.36307,73.61974 -70.73115,78.4699c-43.36807,4.85016 -82.0142,-22.41834 -86.31854,-60.9059z" fill="#9d9d45" stroke="#000000" stroke-width="2" stroke-linecap="butt"/><path d="M263.09336,315.72252c0,0 2.05143,-63.75663 1.51519,-110.05988c-0.54425,-46.99569 -16.99714,-169.50513 -16.99714,-169.50513l90.02596,-9.39767c0,0 10.86166,117.33072 20.97154,167.00519c8.01204,39.36684 26.20756,108.34435 26.20756,108.34435z" fill="#4f4f23" stroke="#000000" stroke-width="2" stroke-linecap="butt"/><path d="M261.6234,144.83301c-4.62482,-46.81203 -11.58935,-98.21329 -11.58935,-98.21329l87.56235,-9.17332c0,0 4.74808,51.86118 10.83921,99.01489c0,0 -15.12389,14.91819 -42.28724,17.83195c-25.92391,2.7808 -44.52496,-9.46023 -44.52496,-9.46023z" fill="#363618" stroke="#000000" stroke-width="0" stroke-linecap="butt"/><path d="M310.88295,187.0861c-6.40743,0.71659 -14.31368,-17.83529 -14.31368,-17.83529l24.95402,-2.79079c0,0 -4.2329,19.90949 -10.64033,20.62608z" fill="#000000" stroke="#000000" stroke-width="2" stroke-linecap="round"/><path d="M276.95078,151.66591c-0.80463,-7.1947 4.37553,-13.67943 11.57022,-14.48406c7.1947,-0.80463 13.67943,4.37554 14.48406,11.57023c0.80463,7.1947 -4.37553,13.67943 -11.57023,14.48406c-7.1947,0.80463 -13.67942,-4.37554 -14.48405,-11.57023z" fill="#000000" stroke="none" stroke-width="0" stroke-linecap="butt"/><path d="M326.07313,159.36229c-7.19469,0.80463 -13.67943,-4.37554 -14.48406,-11.57023c-0.80463,-7.1947 4.37554,-13.67943 11.57023,-14.48406c7.1947,-0.80463 13.67942,4.37554 14.48405,11.57023c0.80463,7.1947 -4.37553,13.67943 -11.57022,14.48406z" data-paper-data="{&quot;index&quot;:null}" fill="#000000" stroke="none" stroke-width="0" stroke-linecap="butt"/><path d="M157.42094,21.22413c-6.1944,-55.38763 48.41565,-106.95723 121.97498,-115.18389c73.55932,-8.22666 138.21247,30.00486 144.40687,85.3925c6.1944,55.38764 -48.41566,106.95723 -121.97498,115.18389c-73.55932,8.22666 -138.21246,-30.00486 -144.40686,-85.39251z" fill="#c5c556" stroke="#000000" stroke-width="2" stroke-linecap="butt"/><g><path d="M400.4582,-10.79181l31.36177,-5.21305l-27.89444,13.8201z" fill="#d9db56" stroke="#000000" stroke-width="0.5" stroke-linecap="butt"/><path d="M401.30571,-16.43075l6.92242,-2.28569l5.82482,17.64103l-6.92242,2.28571z" fill="#d9db56" stroke="#000000" stroke-width="1" stroke-linecap="butt"/><path d="M358.02364,-7.08121l42.88717,-14.24595l9.11742,27.44778l-42.88717,14.24595z" fill="#d9db56" stroke="#000000" stroke-width="1" stroke-linecap="butt"/><path d="M374.43859,-12.75344l10.08705,-2.90411c0,0 0.34812,9.62006 1.92949,14.19719c1.48246,4.29091 7.28131,12.46241 7.28131,12.46241l-10.08705,2.90411c0,0 -6.85174,-7.62063 -8.31994,-11.87008c-1.59206,-4.60801 -0.89089,-14.7895 -0.89089,-14.7895z" fill="#000000" stroke="none" stroke-width="0" stroke-linecap="butt"/><path d="M408.66523,-13.24537l-4.319,1.67421" fill="none" stroke="#000000" stroke-width="0.5" stroke-linecap="round"/><path d="M407.02338,-5.25938l4.31814,-2.0068" fill="none" stroke="#000000" stroke-width="0.5" stroke-linecap="round"/></g><g data-paper-data="{&quot;index&quot;:null}"><path d="M167.66958,39.40522l-26.84221,17.03619l20.29151,-23.60825z" fill="#d9db56" stroke="#000000" stroke-width="0.5" stroke-linecap="butt"/><path d="M169.08935,44.92792l-5.48198,4.80542l-12.2461,-13.97023l5.48197,-4.80544z" fill="#d9db56" stroke="#000000" stroke-width="1" stroke-linecap="butt"/><path d="M205.2932,19.43216l-33.92983,29.85001l-19.10402,-21.71508l33.92983,-29.85001z" fill="#d9db56" stroke="#000000" stroke-width="1" stroke-linecap="butt"/><path d="M192.39234,31.0594l-8.15452,6.60957c0,0 -4.07395,-8.72179 -7.31583,-12.31916c-3.03913,-3.37241 -11.56663,-8.63377 -11.56663,-8.63377l8.15452,-6.60957c0,0 9.28202,4.34333 12.29184,7.68314c3.26377,3.62164 6.59065,13.26975 6.59065,13.26975z" fill="#000000" stroke="none" stroke-width="0" stroke-linecap="butt"/><path d="M164.39378,41.63979l-3.32348,3.22665" fill="none" stroke="#000000" stroke-width="0.5" stroke-linecap="round"/><path d="M156.27323,40.40532l3.19291,-3.53254" fill="none" stroke="#000000" stroke-width="0.5" stroke-linecap="round"/></g><g><path d="M247.11266,-55.42511l3.60657,-31.58685l5.62196,30.61843z" fill="#d9db56" stroke="#000000" stroke-width="0.5" stroke-linecap="butt"/><path d="M241.92376,-57.78971l-0.29525,-7.28402l18.56255,-0.75239l0.29527,7.28402z" fill="#d9db56" stroke="#000000" stroke-width="1" stroke-linecap="butt"/><path d="M239.01845,-13.60474l-1.91108,-45.1509l28.89658,-1.22312l1.91108,45.1509z" fill="#d9db56" stroke="#000000" stroke-width="1" stroke-linecap="butt"/><path d="M238.07581,-30.94649l-0.02015,-10.49677c0,0 9.34531,2.30909 14.1808,2.0465c4.5331,-0.24615 13.98361,-3.576 13.98361,-3.576l0.02015,10.49677c0,0 -9.2102,4.49361 -13.69952,4.73742c-4.86811,0.26437 -14.46487,-3.20789 -14.46487,-3.20789z" fill="#000000" stroke="none" stroke-width="0" stroke-linecap="butt"/><path d="M247.43183,-59.37763l-0.42279,-4.61281" fill="none" stroke="#000000" stroke-width="0.5" stroke-linecap="round"/><path d="M253.4935,-64.92047l0.74282,4.70338" fill="none" stroke="#000000" stroke-width="0.5" stroke-linecap="round"/></g><g><path d="M322.46669,42.58584l9.98356,30.18386l-17.9535,-25.43162z" fill="#d9db56" stroke="#000000" stroke-width="0.5" stroke-linecap="butt"/><path d="M328.16889,42.55429l3.32511,6.48752l-16.53273,8.47368l-3.32513,-6.48751z" fill="#d9db56" stroke="#000000" stroke-width="1" stroke-linecap="butt"/><path d="M312.26134,1.22993l20.6846,40.17964l-25.71497,13.23816l-20.6846,-40.17964z" fill="#d9db56" stroke="#000000" stroke-width="1" stroke-linecap="butt"/><path d="M320.39534,16.57474l4.42382,9.51906c0,0 -9.45151,1.82639 -13.73028,4.0942c-4.0112,2.12597 -11.19152,9.11477 -11.19152,9.11477l-4.42382,-9.51906c0,0 6.47376,-7.94423 10.44621,-10.04971c4.30764,-2.28313 14.47557,-3.15928 14.47557,-3.15928z" fill="#000000" stroke="none" stroke-width="0" stroke-linecap="butt"/><path d="M323.83588,46.30733l2.31976,4.00942" fill="none" stroke="#000000" stroke-width="0.5" stroke-linecap="round"/><path d="M318.01203,49.92515l2.64824,3.95731" fill="none" stroke="#000000" stroke-width="0.5" stroke-linecap="round"/></g></g></g></svg>