<svg version="1.1" xmlns="http://www.w3.org/2000/svg" xmlns:xlink="http://www.w3.org/1999/xlink" width="174.21752" height="295.49686" viewBox="0,0,174.21752,295.49686"><defs><linearGradient x1="258.08769" y1="71.25622" x2="278.89635" y2="116.10311" gradientUnits="userSpaceOnUse" id="color-1"><stop offset="0" stop-color="#ecec68"/><stop offset="1" stop-color="#292912"/></linearGradient></defs><g transform="translate(-227.21218,-34.36131)"><g data-paper-data="{&quot;isPaintingLayer&quot;:true}" fill-rule="nonzero" stroke-linejoin="miter" stroke-miterlimit="10" stroke-dasharray="" stroke-dashoffset="0" style="mix-blend-mode: normal"><path d="M361.55141,244.70696c-12.97645,0.11961 -22.25162,-120.78959 -22.25162,-120.78959l12.42781,-3.03634c0,0 22.4144,123.70989 9.82382,123.82593z" data-paper-data="{&quot;index&quot;:null}" fill="#60602a" stroke="#000000" stroke-width="2" stroke-linecap="butt"/><path d="M369.67912,232.4801c-12.97645,0.11961 -19.96386,-108.29116 -19.96386,-108.29116l12.4278,-3.03634c0,0 20.12666,111.21146 7.53607,111.32751z" data-paper-data="{&quot;index&quot;:null}" fill="#60602a" stroke="#000000" stroke-width="2" stroke-linecap="butt"/><path d="M283.29216,108.13345l12.78545,0.44914c0,0 17.31062,138.17918 4.5803,140.69742c-12.35177,2.44336 -17.36575,-141.14655 -17.36575,-141.14655z" fill="#60602a" stroke="#000000" stroke-width="2" stroke-linecap="butt"/><path d="M291.10601,240.98261c-12.97179,-0.36768 -15.29199,-104.68502 -15.29199,-104.68502l12.53303,-2.5676c0,0 15.34502,107.60937 2.75896,107.25262z" data-paper-data="{&quot;index&quot;:null}" fill="#60602a" stroke="#000000" stroke-width="2" stroke-linecap="butt"/><path d="M289.5041,328.85816l15.14285,-131.8421l37.78325,-0.15789l13.57389,132z" fill="#bebe54" stroke="#000000" stroke-width="2" stroke-linecap="butt"/><path d="M274.40341,231.88978c-12.00099,-0.79579 -9.1793,-97.34112 -9.1793,-97.34112l12.62128,-2.09117c0,0 9.12155,100.26537 -3.44198,99.43228z" data-paper-data="{&quot;index&quot;:null}" fill="#60602a" stroke="#000000" stroke-width="2" stroke-linecap="butt"/><path d="M381.94378,218.21242c-12.94069,0.97017 -26.97237,-76.7995 -26.97237,-76.7995l12.20198,-3.84466c0,0 27.32628,79.70284 14.77039,80.64416z" data-paper-data="{&quot;index&quot;:null}" fill="#60602a" stroke="#000000" stroke-width="2" stroke-linecap="butt"/><path d="M302.45432,225.47079l3.12142,-26.32765l35.83075,-0.14203l2.76735,26.1059c0,0 -7.51543,4.19603 -21.55904,4.50964c-12.48458,0.27879 -20.16049,-4.14586 -20.16049,-4.14586z" fill="#a0a047" stroke="#000000" stroke-width="0" stroke-linecap="butt"/><path d="M383.57336,195.4665c-7.12821,-1.26393 1.37422,-14.81678 -3.66426,-26.80442c-4.32209,-10.28319 1.59047,-15.56611 5.9131,-5.28315c4.03918,9.6087 5.79861,33.51449 -2.24884,32.08757z" data-paper-data="{&quot;index&quot;:null}" fill="#60602a" stroke="#000000" stroke-width="2" stroke-linecap="butt"/><path d="M257.48555,167.91661c-3.39935,-33.1279 22.45462,-62.91908 57.74642,-66.54048c35.29181,-3.62139 66.65719,20.29836 70.05654,53.42625c3.39935,33.1279 -22.45461,62.91908 -57.74642,66.54048c-35.29181,3.62139 -66.6572,-20.29836 -70.05654,-53.42625z" fill="#bebe54" stroke="#000000" stroke-width="2" stroke-linecap="butt"/><path d="M271.00884,166.96066c-1.32373,-12.90026 8.06091,-24.4311 20.96117,-25.75483c12.90026,-1.32373 24.4311,8.06091 25.75483,20.96117c1.32373,12.90026 -8.06091,24.4311 -20.96117,25.75483c-12.90026,1.32373 -24.4311,-8.06091 -25.75483,-20.96117z" fill="#ffffff" stroke="#000000" stroke-width="2" stroke-linecap="butt"/><path d="M275.74998,173.40225c-0.93177,-9.0804 5.674,-17.19685 14.75439,-18.12862c9.0804,-0.93177 17.19685,5.67401 18.12862,14.7544c0.93177,9.0804 -5.67401,17.19685 -14.7544,18.12862c-9.0804,0.93177 -17.19684,-5.67401 -18.12861,-14.7544z" fill="#000000" stroke="none" stroke-width="0" stroke-linecap="butt"/><path d="M350.98736,182.35778c-12.90026,1.32373 -24.4311,-8.06091 -25.75483,-20.96117c-1.32373,-12.90026 8.06091,-24.43109 20.96117,-25.75483c12.90026,-1.32373 24.4311,8.06091 25.75483,20.96117c1.32373,12.90026 -8.06091,24.43109 -20.96117,25.75483z" data-paper-data="{&quot;index&quot;:null}" fill="#ffffff" stroke="#000000" stroke-width="2" stroke-linecap="butt"/><path d="M349.32292,182.80668c-9.08039,0.93177 -17.19684,-5.67401 -18.12861,-14.7544c-0.93177,-9.0804 5.67401,-17.19685 14.75439,-18.12862c9.08039,-0.93177 17.19684,5.67401 18.12861,14.7544c0.93177,9.0804 -5.67401,17.19685 -14.75439,18.12862z" data-paper-data="{&quot;index&quot;:null}" fill="#000000" stroke="none" stroke-width="0" stroke-linecap="butt"/><path d="M270.92594,166.96917c-1.32373,-12.90026 8.06091,-24.4311 20.96117,-25.75483c12.90026,-1.32373 24.4311,8.06091 25.75483,20.96117c0,0 -46.5903,6.01878 -46.71601,4.79366z" fill="#ecec68" stroke="#000000" stroke-width="2" stroke-linecap="butt"/><path d="M324.98385,161.42214c-1.32373,-12.90026 8.06091,-24.4311 20.96117,-25.75483c12.90026,-1.32373 24.4311,8.06091 25.75483,20.96117c0.1239,1.20746 -46.71601,4.79366 -46.71601,4.79366z" data-paper-data="{&quot;index&quot;:null}" fill="#ecec68" stroke="#000000" stroke-width="2" stroke-linecap="butt"/><path d="M280.63982,137.01266c0,0 6.14624,-5.82705 11.08601,-7.53453c4.93978,-1.70748 12.3411,-0.56331 12.3411,-0.56331c0,0 -8.00229,0.76054 -11.81711,2.07918c-3.98664,1.37803 -11.60999,6.01866 -11.60999,6.01866z" fill="#000000" stroke="none" stroke-width="0" stroke-linecap="butt"/><path d="M258.21033,167.89634c-0.07431,-0.72419 10.88754,55.09582 68.84117,50.16926c55.37227,-4.70711 57.26615,-64.13369 57.37015,-63.12016c3.34861,32.63344 -22.19018,61.98722 -57.04247,65.56351c-34.85228,3.57629 -65.82024,-19.97918 -69.16885,-52.61262z" fill="#a0a047" stroke="#000000" stroke-width="0" stroke-linecap="butt"/><path d="M343.75017,125.70942c-4.00312,-0.51642 -11.9931,0.36405 -11.9931,0.36405c0,0 7.01471,-2.62344 12.19831,-1.95474c5.18359,0.6687 12.38516,5.12609 12.38516,5.12609c0,0 -8.40695,-2.99572 -12.59037,-3.5354z" data-paper-data="{&quot;index&quot;:null}" fill="#000000" stroke="none" stroke-width="0" stroke-linecap="butt"/><path d="M254.11953,168.12676c8.18145,-7.58211 11.38643,-0.32981 3.20538,7.25272c-9.53707,8.83935 -7.38646,24.69325 -14.40085,22.90239c-7.91895,-2.0218 3.55048,-23.07018 11.19547,-30.15511z" data-paper-data="{&quot;index&quot;:null}" fill="#60602a" stroke="#000000" stroke-width="2" stroke-linecap="butt"/><path d="M267.08063,164.44859l3.8466,2.21894" fill="none" stroke="#000000" stroke-width="2" stroke-linecap="round"/><path d="M261.32466,118.50416c15.43714,-18.67386 42.29003,-30.36615 48.42793,-21.66881c4.85089,6.87365 -20.2607,5.03991 -40.52061,32.38033c-17.2531,23.28279 -10.97836,53.80106 -24.27958,51.73116c-13.13537,-2.04409 5.95563,-49.84198 16.37226,-62.44268z" fill="#b1b14e" stroke="#000000" stroke-width="2" stroke-linecap="butt"/><path d="M263.84656,126.91911c13.06535,-20.40379 38.30702,-35.25792 45.45174,-27.36677c5.6466,6.23652 -19.50243,7.45332 -36.30698,37.04334c-14.31056,25.19852 -4.3909,54.73389 -17.84483,54.28787c-13.28617,-0.44046 -0.11613,-50.1964 8.70007,-63.96443z" fill="#ecec68" stroke="#000000" stroke-width="2" stroke-linecap="butt"/><path d="M328.63486,94.93531c0.12325,2.92253 -6.68899,5.42723 -15.21555,5.59441c-8.52656,0.16718 -15.53862,-2.06647 -15.66187,-4.98899c-0.12325,-2.92253 6.68899,-5.42723 15.21555,-5.59441c8.52656,-0.16718 15.53862,2.06647 15.66187,4.98899z" fill="#ecec68" stroke="#000000" stroke-width="2" stroke-linecap="butt"/><path d="M397.23313,169.73282c-12.69582,4.47476 -12.12581,-26.6767 -33.35713,-46.3995c-24.93143,-23.16001 -49.28052,-16.75093 -45.77285,-24.39778c4.43831,-9.67568 32.98037,-3.10769 51.58108,12.41751c12.55133,10.47605 40.08641,53.96081 27.54891,58.37977z" data-paper-data="{&quot;index&quot;:null}" fill="#60602a" stroke="#000000" stroke-width="2" stroke-linecap="butt"/><path d="M375.01128,152.36827l-3.831,3.81097" fill="none" stroke="#000000" stroke-width="2" stroke-linecap="round"/><path d="M306.01106,200.51529c0,0 6.5194,-2.54883 15.91662,-2.5c9.39722,0.04883 16.19298,2.25 16.19298,2.25" data-paper-data="{&quot;index&quot;:null}" fill="none" stroke="#000000" stroke-width="2" stroke-linecap="round"/><path d="M393.7104,180.18775c-13.16867,2.79168 -8.56632,-28.02321 -27.06257,-50.33119c-21.7197,-26.19573 -46.69404,-22.99628 -42.22494,-30.12407c5.65483,-9.01889 33.10498,1.19269 49.5368,18.99757c11.08782,12.01433 32.75517,58.70084 19.75072,61.4577z" data-paper-data="{&quot;index&quot;:null}" fill="#b1b14e" stroke="#000000" stroke-width="2" stroke-linecap="butt"/><path d="M270.4296,155.35032c5.97331,-9.4204 10.92446,-3.22735 4.95164,6.19336c-6.96283,10.98221 -0.83393,25.76083 -8.07308,25.82111c-8.17269,0.06804 -2.4602,-23.21177 3.12144,-32.01446z" data-paper-data="{&quot;index&quot;:null}" fill="#b1b14e" stroke="#000000" stroke-width="2" stroke-linecap="butt"/><path d="M260.79638,154.74203c9.18724,-15.46673 17.70297,-28.08265 22.33628,-36.57937c5.8063,-10.64779 11.58037,-26.21067 18.95499,-23.72243c7.70108,2.59839 1.72077,20.57405 -4.27656,31.57218c-4.6138,8.46094 -19.01656,23.76904 -28.16108,39.16566c-11.46059,19.29618 -0.14469,44.48433 -12.63059,44.95193c-14.09607,0.5279 -5.41026,-39.92123 3.77698,-55.38796z" fill="#ecec68" stroke="#000000" stroke-width="2" stroke-linecap="butt"/><g stroke="#000000" stroke-width="2" stroke-linecap="butt"><path d="M263.57333,176.68304c-0.22173,-2.16084 1.11601,-2.88582 2.83983,-3.06271c1.72382,-0.17689 3.18091,0.26132 3.40264,2.42215c0.22173,2.16084 -0.87588,5.22603 -2.59969,5.40292c-1.72382,0.17689 -3.42106,-2.60153 -3.64279,-4.76236z" fill="#ecec68"/><path d="M271.33706,190.86764c0.22173,2.16084 -1.11601,2.88582 -2.83982,3.06271c-1.72382,0.17689 -3.18092,-0.26131 -3.40265,-2.42215c-0.22173,-2.16084 0.87588,-5.22604 2.5997,-5.40292c1.72382,-0.17689 3.42105,2.60153 3.64278,4.76236z" fill="#ecec68"/><path d="M260.3629,187.65721c-2.16084,0.22173 -2.88582,-1.11601 -3.06271,-2.83983c-0.17689,-1.72382 0.26131,-3.18092 2.42215,-3.40265c2.16084,-0.22173 5.22603,0.87588 5.40292,2.5997c0.17689,1.72382 -2.60153,3.42105 -4.76236,3.64278z" fill="#ecec68"/><path d="M274.5475,179.89348c2.16084,-0.22173 2.88582,1.11601 3.06271,2.83983c0.17689,1.72382 -0.26131,3.18092 -2.42215,3.40265c-2.16084,0.22173 -5.22603,-0.87588 -5.40292,-2.5997c-0.17689,-1.72382 2.60153,-3.42106 4.76236,-3.64279z" fill="#ff80ee"/><path d="M259.69529,181.50523c-1.68473,-1.37116 -1.25145,-2.82973 -0.1576,-4.17373c1.09384,-1.344 2.43403,-2.06447 4.11875,-0.69331c1.68473,1.37116 3.07603,4.31471 1.98218,5.65871c-1.09384,1.344 -4.2586,0.57949 -5.94333,-0.79166z" fill="#ecec68"/><path d="M275.21511,186.04547c1.68473,1.37116 1.25145,2.82973 0.1576,4.17373c-1.09384,1.344 -2.43403,2.06447 -4.11875,0.69331c-1.68473,-1.37116 -3.07603,-4.31471 -1.98218,-5.65871c1.09384,-1.344 4.2586,-0.57949 5.94333,0.79166z" fill="#ff80ee"/><path d="M265.18507,191.53525c-1.37116,1.68473 -2.82973,1.25145 -4.17372,0.15761c-1.344,-1.09384 -2.06447,-2.43403 -0.69331,-4.11876c1.37116,-1.68473 4.31471,-3.07603 5.6587,-1.98218c1.344,1.09384 0.57949,4.2586 -0.79166,5.94334z" fill="#ecec68"/><path d="M269.72532,176.01545c1.37116,-1.68473 2.82973,-1.25145 4.17372,-0.1576c1.344,1.09384 2.06447,2.43403 0.69331,4.11875c-1.37116,1.68473 -4.31471,3.07603 -5.6587,1.98218c-1.344,-1.09384 -0.57949,-4.2586 0.79166,-5.94334z" fill="#ecec68"/><path d="M263.31383,184.11146c-0.23419,-2.28224 1.42608,-4.32219 3.70831,-4.55637c2.28224,-0.23419 4.32219,1.42609 4.55637,3.70831c0.23419,2.28224 -1.42609,4.32219 -3.70831,4.55637c-2.28224,0.23419 -4.32219,-1.42608 -4.55637,-3.70831z" fill="#b1b14e"/></g><path d="M335.33984,110.22008c0,0 20.16571,-13.29418 19.73361,-23.44977c-0.24697,-5.8042 -9.83393,-14.46056 -11.42687,-24.59719c-2.09953,-13.36016 10.55268,-24.95205 10.55268,-24.95205c0,0 -2.28538,10.57614 -0.63396,23.00744c1.31605,9.90676 9.49465,12.68891 12.95343,25.48756c3.38739,12.53446 -7.72624,34.17895 -7.72624,34.17895c0,0 -3.57682,4.34438 -14.23118,-0.08274c-9.68883,-4.02593 -9.22148,-9.59218 -9.22148,-9.59218z" fill="#60602a" stroke="#000000" stroke-width="2" stroke-linecap="butt"/><path d="M274.14951,165.05912c5.46807,-17.1384 16.50155,-32.55027 19.10234,-41.87218c3.25922,-11.68187 5.38015,-28.1453 13.12569,-27.38177c8.08843,0.79732 6.30993,19.65801 2.94346,31.72424c-2.58984,9.28264 -16.46941,23.98768 -21.91165,41.04816c-6.8206,21.38147 4.29942,44.57643 -9.79302,43.9592c-11.07635,-0.48513 -8.9349,-30.33924 -3.46683,-47.47764z" fill="#b1b14e" stroke="#000000" stroke-width="2" stroke-linecap="butt"/><path d="M323.48678,139.91469c-7.19173,-0.82943 0.47339,-14.87285 -5.2826,-26.53296c-4.93759,-10.00223 0.64382,-15.6339 5.58192,-5.63192c4.61431,9.34613 7.81984,33.10128 -0.29932,32.16488z" data-paper-data="{&quot;index&quot;:null}" fill="#b1b14e" stroke="#000000" stroke-width="2" stroke-linecap="butt"/><path d="M387.47711,152.31791c-11.74941,7.79648 -10.7712,-11.85943 -24.37546,-20.97871c-10.85497,-7.27638 -28.01924,-8.70391 -33.60995,-12.85874c-7.2672,-5.40074 -18.19679,-16.82683 -11.61496,-21.56514c6.30281,-4.53744 16.64788,5.28255 23.6836,10.51126c5.61436,4.1724 20.61832,7.52071 31.52372,14.82981c10.90539,7.30909 23.62783,23.93368 14.39305,30.06154z" data-paper-data="{&quot;index&quot;:null}" fill="#ecec68" stroke="#000000" stroke-width="2" stroke-linecap="butt"/><path d="M287.61264,147.29346c4.34038,-12.38997 14.33601,-24.06978 16.32487,-30.77607c2.49239,-8.40408 3.54221,-20.03061 11.30694,-20.18139c8.10846,-0.15746 7.5545,13.10472 4.98011,21.78532c-1.98049,6.67804 -14.85678,18.11706 -19.17646,30.45061c-5.41373,15.45733 7.16053,30.59666 -6.917,31.4074c-11.06462,0.63723 -10.85884,-20.29589 -6.51846,-32.68586z" fill="#ecec68" stroke="#000000" stroke-width="2" stroke-linecap="butt"/><g data-paper-data="{&quot;index&quot;:null}" stroke="#1d1d0d" stroke-width="1.5" stroke-linecap="butt"><path d="M243.60325,78.90851l-7.98186,-17.32998l29.9855,-13.75839l7.98187,17.32999z" fill="#d0d05b"/><path d="M275.19174,118.13117l-13.55244,-28.69308l-16.20641,-12.31013l25.60054,-11.30451l-2.33583,20.49913l13.81801,29.48097z" fill="url(#color-1)"/><path d="M229.32486,66.63438l16.73731,-25.26421l30.37311,2.94144z" fill="#bfbf54"/><path d="M270.11931,66.91969l-23.00488,10.27516c0,0 1.33078,-10.74272 7.68341,-13.58012c6.35263,-2.83743 15.32147,3.30497 15.32147,3.30497z" fill="#ffff70"/></g><path d="M243.24256,161.30216c-4.23281,-36.1137 26.32376,-69.29502 68.24999,-74.11257c41.92623,-4.81755 79.34555,20.55302 83.57835,56.6667c0.24432,2.08455 0.37274,4.15933 0.38974,6.21946c-6.1534,0.37786 -12.33459,0.62533 -18.37532,1.2619c-42.41068,4.46926 -84.83129,8.8513 -127.27535,12.99066c-1.04718,0.10213 -2.12812,-0.5688 -3.13425,-0.27247c-0.49055,0.14449 -1.52109,0.84773 -2.72156,1.76234c-0.29494,-1.48521 -0.53285,-2.99105 -0.71159,-4.51604z" fill="#bebe54" stroke="#000000" stroke-width="2" stroke-linecap="butt"/><path d="M242.03379,143.16024l6.22291,-17.72782l135.88907,-12.93871l8.59667,15.20189z" fill="#b9b952" stroke="#000000" stroke-width="2" stroke-linecap="butt"/><path d="M298.45174,152.4498l-4.44034,-43.27278l41.10914,-4.21833l4.44034,43.27278z" fill="#d7d75f" stroke="#000000" stroke-width="2" stroke-linecap="butt"/></g></g></svg>