<svg version="1.1" xmlns="http://www.w3.org/2000/svg" xmlns:xlink="http://www.w3.org/1999/xlink" width="195.01989" height="276.70971" viewBox="0,0,195.01989,276.70971"><g transform="translate(-222.73135,-38.71912)"><g data-paper-data="{&quot;isPaintingLayer&quot;:true}" stroke-miterlimit="10" stroke-dasharray="" stroke-dashoffset="0" style="mix-blend-mode: normal"><path d="M290.72614,314.42882l13.62477,-131.8421l33.99545,-0.15789l12.2131,132z" fill="#ecec68" fill-rule="nonzero" stroke="#000000" stroke-width="2" stroke-linecap="butt" stroke-linejoin="miter"/><path d="M296.57572,267.16265l8.45591,-81.82486l32.57503,-0.15129l7.60398,82.1843c0,0 -14.59301,4.84164 -24.23451,4.80038c-9.6415,-0.04126 -24.40041,-5.00852 -24.40041,-5.00852z" fill="#c8c824" fill-rule="nonzero" stroke="#000000" stroke-width="0" stroke-linecap="butt" stroke-linejoin="miter"/><g fill-rule="nonzero" stroke="#000000" stroke-width="2" stroke-linecap="butt" stroke-linejoin="miter"><path d="M277.90158,135.79179l-39.528,-57.77142l6.05224,-4.14101l39.528,57.77142z" fill="#ffe9b3"/><path d="M226.81929,85.92597c-5.50965,-8.05253 -3.44824,-19.04687 4.60429,-24.55652c8.05253,-5.50965 19.04687,-3.44824 24.55652,4.6043c5.50965,8.05253 3.44825,19.04687 -4.60429,24.55652c-8.05253,5.50965 -19.04687,3.44824 -24.55652,-4.6043z" fill="#dccd27"/></g><g fill-rule="nonzero" stroke="#000000" stroke-width="2" stroke-linecap="butt" stroke-linejoin="miter"><path d="M369.02765,120.71738l26.66201,-64.72354l6.78055,2.79317l-26.66201,64.72354z" fill="#ffe9b3"/><path d="M382.74496,50.66144c3.71631,-9.02156 14.04241,-13.32232 23.06397,-9.60601c9.02156,3.71631 13.32232,14.04241 9.60601,23.06398c-3.71631,9.02156 -14.04242,13.32232 -23.06398,9.60601c-9.02156,-3.71631 -13.32231,-14.04241 -9.606,-23.06397z" fill="#dccd27"/></g><path d="M295.43464,251.66804l7.58416,-69.08131l36.11546,-0.15789l6.82766,69.46209c0,0 -1.63411,6.69929 -25.4124,6.56159c-22.03251,-0.12759 -25.11488,-6.78449 -25.11488,-6.78449z" fill="#dccd27" fill-rule="nonzero" stroke="#000000" stroke-width="2" stroke-linecap="butt" stroke-linejoin="miter"/><path d="M296.92485,228.53569l5.27751,-45.94896l37.78325,-0.15789l4.67444,45.45686c0,0 -7.00642,7.16153 -24.11741,7.06682c-17.11099,-0.09472 -23.61779,-6.41683 -23.61779,-6.41683z" fill="#dccd27" fill-rule="nonzero" stroke="#000000" stroke-width="2" stroke-linecap="butt" stroke-linejoin="miter"/><path d="M300.00973,211.04147l3.12142,-26.32765l35.83075,-0.14203l2.76735,26.1059c0,0 -7.51543,4.19603 -21.55904,4.50964c-12.48458,0.27879 -20.16049,-4.14586 -20.16049,-4.14586z" fill="#b2a730" fill-rule="nonzero" stroke="#000000" stroke-width="0" stroke-linecap="butt" stroke-linejoin="miter"/><path d="M262.26367,151.87333c-3.59935,-33.10677 22.07423,-63.05354 57.34352,-66.888c35.26929,-3.83446 66.77856,19.89544 70.37791,53.0022c3.59935,33.10677 -22.07423,63.05354 -57.34352,66.888c-35.26929,3.83446 -66.77856,-19.89544 -70.37791,-53.0022z" fill="#b9b912" fill-rule="nonzero" stroke="#000000" stroke-width="2" stroke-linecap="butt" stroke-linejoin="miter"/><path d="M262.98833,151.84872c-0.07868,-0.72373 11.22007,55.02906 69.14289,49.7526c55.34283,-5.04143 56.87779,-64.47836 56.98791,-63.46547c3.54563,32.61262 -21.81543,62.1201 -56.64548,65.9068c-34.83005,3.7867 -65.9397,-19.58132 -69.48532,-52.19394z" fill="#c8c824" fill-rule="nonzero" stroke="#000000" stroke-width="0" stroke-linecap="butt" stroke-linejoin="miter"/><path d="M308.51335,170.31105l40.11186,-4.36094c2.43018,-0.26421 4.59929,1.47951 4.8635,3.90969l1.9807,18.21848c0.26421,2.43017 -1.47951,4.59929 -3.90968,4.8635l-40.11185,4.36094c-2.43017,0.26421 -4.5993,-1.47951 -4.86351,-3.90968l-1.9807,-18.21849c-0.26421,-2.43017 1.47951,-4.59929 3.90969,-4.8635z" fill="#000000" fill-rule="evenodd" stroke="#000000" stroke-width="2" stroke-linecap="round" stroke-linejoin="round"/><path d="M269.27114,114.29645l105.64198,-11.48533c6.40032,-0.69584 12.11308,3.89658 12.80891,10.29688l5.21655,47.98175c0.69584,6.4003 -3.89658,12.11309 -10.29687,12.80893l-105.64196,11.48533c-6.4003,0.69584 -12.1131,-3.89657 -12.80893,-10.29688l-5.21655,-47.98175c-0.69584,-6.40029 3.89658,-12.11309 10.29689,-12.80893z" fill="#dccd27" fill-rule="evenodd" stroke="#000000" stroke-width="2" stroke-linecap="round" stroke-linejoin="round"/><path d="M277.73339,118.7453l89.87124,-9.77075c5.44485,-0.59196 10.30479,3.31487 10.89675,8.75971l4.4378,40.81881c0.59196,5.44483 -3.31487,10.30479 -8.75971,10.89675l-89.87122,9.77075c-5.44483,0.59196 -10.30481,-3.31487 -10.89677,-8.75971l-4.4378,-40.81881c-0.59196,-5.44483 3.31488,-10.30479 8.75973,-10.89675z" fill="#000000" fill-rule="evenodd" stroke="#000000" stroke-width="2" stroke-linecap="round" stroke-linejoin="round"/><path d="M346.02998,180.36377c0,0 -0.01803,8.92655 -13.20327,11.14338c-10.94819,1.84072 -15.54782,-5.96624 -15.54782,-5.96624" fill="none" fill-rule="nonzero" stroke="#ecec68" stroke-width="2" stroke-linecap="round" stroke-linejoin="miter"/><path d="M319.46835,136.41647c1.14232,10.50705 -1.84139,19.44977 -6.6643,19.97411c-4.82291,0.52435 -9.65868,-7.56824 -10.80101,-18.0753c-1.14232,-10.50705 1.84139,-19.44977 6.6643,-19.97411c4.82291,-0.52435 9.65868,7.56824 10.80101,18.0753z" fill="#ecec68" fill-rule="nonzero" stroke="none" stroke-width="0" stroke-linecap="butt" stroke-linejoin="miter"/><path d="M351.96542,143.64223c1.14232,10.50704 -1.84138,19.44977 -6.6643,19.97411c-4.82291,0.52435 -9.65868,-7.56824 -10.80101,-18.0753c-1.14232,-10.50704 1.84139,-19.44977 6.6643,-19.97411c4.82291,-0.52435 9.65868,7.56825 10.80101,18.0753z" fill="#ecec68" fill-rule="nonzero" stroke="none" stroke-width="0" stroke-linecap="butt" stroke-linejoin="miter"/></g></g></svg>