<svg version="1.1" xmlns="http://www.w3.org/2000/svg" xmlns:xlink="http://www.w3.org/1999/xlink" width="162.86896" height="314.80357" viewBox="0,0,162.86896,314.80357"><g transform="translate(-261.48646,6.30357)"><g data-paper-data="{&quot;isPaintingLayer&quot;:true}" fill-rule="nonzero" stroke-linejoin="miter" stroke-miterlimit="10" stroke-dasharray="" stroke-dashoffset="0" style="mix-blend-mode: normal"><path d="M285.90287,307.49999l11.23626,-90.17722l43.64314,-3.40793l11.62059,93.58516z" fill="#9b9d30" stroke="#000000" stroke-width="2" stroke-linecap="butt"/><path d="M289.57669,250.088l10.15487,-49.81105l40.04359,3.03031l10.10835,47.33816l-30.23979,-11.89646z" fill="#747524" stroke="#000000" stroke-width="2" stroke-linecap="butt"/><path d="M273.56716,231.21244c-8.64134,-43.75179 17.51535,-85.76937 58.42259,-93.84889c40.90724,-8.07952 81.07431,20.83858 89.71565,64.59036c8.64134,43.75178 -17.51535,85.76937 -58.42259,93.84889c-40.90724,8.07952 -81.07431,-20.83858 -89.71565,-64.59036z" fill="#747524" stroke="#000000" stroke-width="2" stroke-linecap="butt"/><path d="M280.73966,224.55232c-7.37501,-37.34027 16.52284,-73.51141 53.37736,-80.79048c36.85451,-7.27907 72.70964,17.09035 80.08466,54.43063c7.37501,37.34027 -16.52284,73.51141 -53.37736,80.79048c-36.85451,7.27907 -72.70964,-17.09035 -80.08466,-54.43063z" fill="#000000" stroke="none" stroke-width="0" stroke-linecap="butt"/><path d="M410.08932,197.29276c6.45274,32.67071 -16.53113,64.72822 -51.33588,71.60245c-34.80475,6.87423 -68.25057,-14.03796 -74.70331,-46.70867c-6.45274,-32.67071 16.53113,-64.72822 51.33588,-71.60245c34.80475,-6.87423 68.25057,14.03796 74.70331,46.70867z" fill="#ffff70" stroke="#000000" stroke-width="2" stroke-linecap="butt"/><path d="M409.36952,197.38004c0.14106,0.7142 -15.94321,-53.85073 -73.19153,-43.57822c-54.69837,9.81495 -51.08058,69.16152 -51.27799,68.16198c-6.35642,-32.18307 16.35414,-63.77587 50.72544,-70.56449c34.3713,-6.78862 67.38766,13.79766 73.74408,45.98073z" fill="#6c6d22" stroke="#000000" stroke-width="0" stroke-linecap="butt"/><path d="M407.43166,182.58404c0,0 24.26549,77.75603 -50.08063,90.92713c-76.35569,13.52713 -75.7811,-68.87152 -75.7811,-68.87152c0,0 21.70847,-17.22352 59.30997,-24.99441c33.68434,-6.96135 66.55176,2.93879 66.55176,2.93879z" fill-opacity="0.20144" fill="#000000" stroke="none" stroke-width="0" stroke-linecap="butt"/><path d="M396.71269,199.49699c2.51275,12.72223 -5.76369,25.07263 -18.48591,27.58537c-12.72223,2.51275 -25.07263,-5.76369 -27.58537,-18.48591c-2.51275,-12.72223 5.76369,-25.07263 18.48591,-27.58537c12.72223,-2.51275 25.07263,5.76369 27.58537,18.48591z" fill="#ffffff" stroke="#000000" stroke-width="2" stroke-linecap="butt"/><path d="M392.34002,207.87752c1.7687,8.95508 -4.057,17.64842 -13.01208,19.41712c-8.95508,1.7687 -17.64842,-4.05701 -19.41713,-13.01209c-1.7687,-8.95508 4.05701,-17.64842 13.01209,-19.41713c8.95508,-1.7687 17.64841,4.05701 19.41712,13.01209z" fill="#000000" stroke="none" stroke-width="0" stroke-linecap="butt"/><path d="M342.49091,171.42053l-10.47342,-9.84167c0,0 7.62636,-2.01387 11.82416,-2.84297c4.00429,-0.79088 12.80955,-2.02239 12.80955,-2.02239z" data-paper-data="{&quot;index&quot;:null}" fill="#000000" stroke="#000000" stroke-width="2" stroke-linecap="round"/><path d="M315.8972,191.52448c12.72223,-2.51275 25.07263,5.76369 27.58537,18.48591c2.51275,12.72223 -5.76369,25.07263 -18.48591,27.58537c-12.72223,2.51275 -25.07263,-5.76369 -27.58537,-18.48591c-2.51275,-12.72223 5.76369,-25.07263 18.48591,-27.58537z" data-paper-data="{&quot;index&quot;:null}" fill="#ffffff" stroke="#000000" stroke-width="2" stroke-linecap="butt"/><path d="M319.85942,202.65119c8.95508,-1.7687 17.64841,4.05701 19.41712,13.01209c1.7687,8.95508 -4.05701,17.64842 -13.01208,19.41712c-8.95508,1.7687 -17.64841,-4.05701 -19.41712,-13.01209c-1.7687,-8.95508 4.05701,-17.64842 13.01208,-19.41712z" data-paper-data="{&quot;index&quot;:null}" fill="#000000" stroke="none" stroke-width="0" stroke-linecap="butt"/><path d="M390.7934,232.53004c0,0 -6.72944,5.14252 -11.82239,6.31663c-5.09297,1.1741 -12.33125,-0.74837 -12.33125,-0.74837c0,0 8.03782,0.09221 11.97095,-0.81452c4.11027,-0.94757 12.18271,-4.75374 12.18271,-4.75374z" fill="#000000" stroke="none" stroke-width="0" stroke-linecap="butt"/><path d="M328.42341,247.17831c3.95054,-0.8276 11.20759,-4.28452 11.20759,-4.28452c0,0 -5.76322,4.78267 -10.87873,5.85433c-5.1155,1.07166 -13.38181,-0.77196 -13.38181,-0.77196c0,0 8.92449,0.06703 13.05295,-0.79783z" data-paper-data="{&quot;index&quot;:null}" fill="#000000" stroke="none" stroke-width="0" stroke-linecap="butt"/><g stroke="#000000" stroke-width="2" stroke-linecap="butt"><path d="M264.02683,42.81381l16.62961,-45.35279c0,0 27.12865,-3.41625 39.61395,-2.65356c13.69621,0.83665 39.2674,7.47221 39.2674,7.47221l11.30272,46.21756c0,0 -34.59503,2.63496 -52.57651,1.67818c-17.61556,-0.93731 -54.23718,-7.36159 -54.23718,-7.36159z" fill="#ffffff"/><path d="M264.40285,42.77493l2.41769,-6.60119c0,0 33.8981,6.04608 51.21538,7.10665c16.85719,1.03239 51.34517,-0.82553 51.34517,-0.82553l1.59274,6.06721c0,0 -36.47431,3.98586 -54.25315,2.82813c-17.44895,-1.13626 -52.31786,-8.57525 -52.31786,-8.57525z" fill="#9b9d30"/><path d="M317.65681,18.83896c0,0 11.21595,-4.27791 17.87915,-5.90662c7.40405,-1.80979 24.55729,-4.46618 24.55729,-4.46618l1.50399,6.81662c0,0 -19.44939,2.96498 -26.48026,4.83637c-5.27471,1.40395 -11.97153,5.39832 -11.97153,5.39832z" fill="#9b9d30"/><path d="M325.65184,42.40911c0,0 0.95253,-8.03505 -10.2951,-16.36983c-15.23216,-11.28739 -38.07363,-16.21872 -38.07363,-16.21872l2.81358,-6.57541c0,0 21.82001,3.16228 39.34415,16.53835c13.23982,10.10585 14.12875,23.14121 14.12875,23.14121z" fill="#9b9d30"/></g></g></g></svg>