<svg version="1.1" xmlns="http://www.w3.org/2000/svg" xmlns:xlink="http://www.w3.org/1999/xlink" width="151.42987" height="283.4265" viewBox="0,0,151.42987,283.4265"><g transform="translate(-248.31832,-30.83791)"><g data-paper-data="{&quot;isPaintingLayer&quot;:true}" fill-rule="nonzero" stroke="#c1bc17" stroke-width="0.5" stroke-linecap="butt" stroke-linejoin="miter" stroke-miterlimit="10" stroke-dasharray="" stroke-dashoffset="0" style="mix-blend-mode: normal"><path d="M286.75016,314.01439l15.14285,-131.8421l37.78325,-0.15789l13.57389,132z" fill="#000000"/><path d="M323.3986,210.32839l6.44025,29.70979l-8.6629,11.68257l-8.6629,-11.68257l6.2328,-29.68503z" fill="#ffffff"/><path d="M318.74584,210.35947l-6.2328,-6.71881l8.41989,-8.4199l8.41989,8.4199l-5.95423,6.68773z" fill="#ffffff"/><path d="M261.70078,132.57594c-1.47962,-33.26896 26.0524,-61.51661 61.49449,-63.09288c35.44209,-1.57627 65.37306,24.11574 66.85268,57.38469c1.47962,33.26896 -26.0524,61.51661 -61.49449,63.09288c-35.44209,1.57627 -65.37306,-24.11574 -66.85268,-57.38469z" fill="#000000"/><path d="M275.25659,132.40294c-0.57618,-12.95519 9.45901,-23.92455 22.4142,-24.50072c12.95519,-0.57618 23.92455,9.45901 24.50072,22.4142c0.57618,12.95519 -9.45901,23.92455 -22.4142,24.50072c-12.95519,0.57618 -23.92455,-9.45901 -24.50072,-22.4142z" fill="#ffffff"/><path d="M282.30274,131.81366c-0.40557,-9.11907 6.65811,-16.84029 15.77717,-17.24586c9.11907,-0.40557 16.8403,6.65812 17.24586,15.77718c0.40557,9.11907 -6.65812,16.8403 -15.77718,17.24586c-9.11907,0.40557 -16.84029,-6.65812 -17.24585,-15.77718z" fill="#000000"/><path d="M353.96218,152.40639c-12.95519,0.57618 -23.92455,-9.45901 -24.50072,-22.4142c-0.57618,-12.95519 9.45901,-23.92455 22.4142,-24.50072c12.95519,-0.57618 23.92455,9.45901 24.50072,22.4142c0.57618,12.95519 -9.45901,23.92455 -22.4142,24.50072z" data-paper-data="{&quot;index&quot;:null}" fill="#ffffff"/><path d="M353.52856,145.1901c-9.11906,0.40557 -16.84029,-6.65812 -17.24585,-15.77718c-0.40557,-9.11907 6.65812,-16.8403 15.77717,-17.24586c9.11906,-0.40557 16.84029,6.65812 17.24585,15.77718c0.40557,9.11907 -6.65812,16.8403 -15.77717,17.24586z" data-paper-data="{&quot;index&quot;:null}" fill="#000000"/><path d="M275.25659,132.40294c-0.57618,-12.95519 9.45901,-23.92455 22.4142,-24.50072c12.95519,-0.57618 23.92455,9.45901 24.50072,22.4142c0,0 -46.88837,2.68379 -46.91493,2.08652z" fill="#000000"/><path d="M329.46147,129.9922c-0.57618,-12.95519 9.45901,-23.92455 22.4142,-24.50072c12.95519,-0.57618 23.92455,9.45901 24.50072,22.4142c0.02807,0.63117 -11.15863,-6.33177 -23.35541,-5.95959c-11.23575,0.34285 -23.55952,8.04611 -23.55952,8.04611z" data-paper-data="{&quot;index&quot;:null}" fill="#000000"/><g fill="#000000"><path d="M399.49365,86.65276c0.45244,10.17308 -32.96657,19.92263 -74.64344,21.77619c-41.67687,1.85356 -75.82944,-4.89077 -76.28189,-15.06385c-0.45244,-10.17308 32.96657,-19.92263 74.64344,-21.77619c41.67687,-1.85356 75.82944,4.89077 76.28189,15.06385z"/><path d="M277.0748,91.76276l-2.10061,-47.23159c0,0 10.35684,-10.73807 47.75773,-13.11015c37.8041,-2.39772 46.12491,8.93476 46.12491,8.93476l2.10061,47.23159c0,0 -9.72292,5.77933 -45.73431,6.54117c-32.18219,0.68083 -48.14833,-2.36577 -48.14833,-2.36577z"/></g></g></g></svg>