<svg version="1.1" xmlns="http://www.w3.org/2000/svg" xmlns:xlink="http://www.w3.org/1999/xlink" width="204.9429" height="278.97207" viewBox="0,0,204.9429,278.97207"><g transform="translate(-258.18486,-43.65646)"><g data-paper-data="{&quot;isPaintingLayer&quot;:true}" fill-rule="nonzero" stroke-linejoin="miter" stroke-miterlimit="10" stroke-dasharray="" stroke-dashoffset="0" style="mix-blend-mode: normal"><path d="M292.86402,155.30405l-9.39198,-109.19406l61.39711,55.7432" fill="#d9d97d" stroke="#000000" stroke-width="2" stroke-linecap="round"/><path d="M382.03646,108.02048l78.96956,-25.31239l-53.76888,95.5011" data-paper-data="{&quot;index&quot;:null}" fill="#d9d97d" stroke="#000000" stroke-width="2" stroke-linecap="round"/><path d="M304.25818,196.13283l-32.61295,-9.81812l20.27325,-16.07607l-30.55959,-14.12644l27.74769,-5.73095" fill="#d9d97d" stroke="#000000" stroke-width="2" stroke-linecap="round"/><path d="M303.80255,195.16778l-30.09405,-9.05982l19.9349,-16.21265l-28.678,-13.36345l4.94241,-1.25454l23.69835,14.63677l-15.92344,12.97263z" fill="#b6b14b" stroke="none" stroke-width="0" stroke-linecap="round"/><path d="M412.08527,180.51348l19.01838,21.00189l-33.00726,-6.63061l6.87912,24.94236l-32.12237,-11.32048" data-paper-data="{&quot;index&quot;:null}" fill="#d9d97d" stroke="#000000" stroke-width="2" stroke-linecap="round"/><path d="M403.3313,214.0696l-4.85271,-19.95736l27.72747,2.65208l3.18076,3.98548l-30.92659,-6.675l6.09216,24.96269l-29.45522,-10.96007z" data-paper-data="{&quot;index&quot;:null}" fill="#b6b14b" stroke="none" stroke-width="0" stroke-linecap="round"/><path d="M286.35186,321.62852l34.95968,-121.35084l34.86901,7.41913l-3.3287,113.93172z" fill="#d9d97d" stroke="#000000" stroke-width="2" stroke-linecap="butt"/><path d="M314.351,225.03444l8.26404,-25.19115l35.15183,6.94346l-2.44763,26.13781c0,0 -8.19657,2.62766 -22.02507,0.15907c-12.29335,-2.19455 -18.94318,-8.0492 -18.94318,-8.0492z" fill="#b6b14b" stroke="#000000" stroke-width="0" stroke-linecap="butt"/><path d="M288.67672,148.07171c4.4937,-32.99727 36.63343,-55.86602 71.78607,-51.07879c35.15266,4.78723 60.00665,35.41761 55.51294,68.41489c-4.4937,32.99727 -36.63342,55.86603 -71.78607,51.0788c-35.15265,-4.78723 -60.00664,-35.41762 -55.51294,-68.4149z" fill="#d9d97d" stroke="#000000" stroke-width="2" stroke-linecap="butt"/><path d="M338.85543,212.68797c22.00481,5.82015 40.62709,-0.56155 39.51637,-0.12336c-12.13105,4.78591 -26.07305,5.96661 -40.03042,2.5344c-13.82269,-3.3991 -25.53378,-10.79956 -34.04201,-20.52532c-0.32285,-0.36905 12.55125,12.29414 34.55606,18.11428z" fill="#b6b14b" stroke="#000000" stroke-width="0" stroke-linecap="butt"/><path d="M302.14203,150.18364c1.74988,-12.8494 13.58494,-21.84733 26.43434,-20.09745c12.8494,1.74988 21.84733,13.58493 20.09745,26.43433c-1.74988,12.8494 -13.58494,21.84734 -26.43434,20.09746c-12.8494,-1.74988 -21.84734,-13.58495 -20.09746,-26.43435z" fill="#ffffff" stroke="#000000" stroke-width="2" stroke-linecap="butt"/><path d="M310.66629,151.06633c1.11994,-8.22373 8.69448,-13.9825 16.91822,-12.86256c8.22373,1.11994 13.9825,8.69449 12.86256,16.91824c-1.11994,8.22373 -8.69449,13.98251 -16.91823,12.86257c-8.22373,-1.11994 -13.98249,-8.69449 -12.86255,-16.91823z" fill="none" stroke="#000000" stroke-width="5" stroke-linecap="butt"/><path d="M369.73666,193.15471c0,0 -15.47475,9.22204 -24.78788,7.96673c-9.31313,-1.2553 -22.8912,-14.39332 -22.8912,-14.39332z" fill="#000000" stroke="#000000" stroke-width="2" stroke-linecap="round"/><path d="M302.18702,149.85335c1.74988,-12.8494 13.58494,-21.84733 26.43434,-20.09745c12.8494,1.74988 21.84733,13.58493 20.09745,26.43433c0,0 -5.21889,-18.76595 -21.30521,-20.84506c-15.79364,-2.04129 -25.30864,15.11066 -25.2266,14.50817z" fill="#c5c556" stroke="#000000" stroke-width="2" stroke-linecap="butt"/><path d="M376.00169,183.93954c-12.8494,-1.74988 -21.84733,-13.58494 -20.09745,-26.43434c1.74988,-12.8494 13.58493,-21.84733 26.43433,-20.09745c12.8494,1.74988 21.84734,13.58494 20.09746,26.43434c-1.74988,12.8494 -13.58495,21.84734 -26.43435,20.09746z" data-paper-data="{&quot;index&quot;:null}" fill="#ffffff" stroke="#000000" stroke-width="2" stroke-linecap="butt"/><path d="M393.98618,162.41317c-1.11994,8.22375 -8.69448,13.98251 -16.91822,12.86257c-8.22373,-1.11994 -13.9825,-8.69451 -12.86256,-16.91824c1.11994,-8.22375 8.6945,-13.98251 16.91823,-12.86257c8.22373,1.11994 13.98249,8.6945 12.86255,16.91822z" data-paper-data="{&quot;index&quot;:null}" fill="none" stroke="#000000" stroke-width="5" stroke-linecap="butt"/><path d="M381.50886,142.46027c-16.05648,-2.29822 -25.60462,15.04493 -25.60462,15.04493c1.74988,-12.8494 13.58493,-21.84733 26.43433,-20.09745c12.8494,1.74988 21.84734,13.58494 20.09746,26.43434c-0.08205,0.60248 -5.16284,-19.12542 -20.92718,-21.38182z" data-paper-data="{&quot;index&quot;:null}" fill="#c5c556" stroke="#000000" stroke-width="2" stroke-linecap="butt"/><path d="M298.91552,146.81753l3.21623,3.062" fill="none" stroke="#000000" stroke-width="2" stroke-linecap="round"/><path d="M406.65719,160.48099l-4.62038,2.80216" fill="none" stroke="#000000" stroke-width="2" stroke-linecap="round"/><path d="M318.5515,123.34396c0,0 7.34511,-4.21664 12.548,-4.71345c5.2029,-0.4968 12.12695,2.35732 12.12695,2.35732c0,0 -7.95647,-1.14438 -11.97449,-0.76071c-4.19899,0.40095 -12.70046,3.11683 -12.70046,3.11683z" fill="#000000" stroke="none" stroke-width="0" stroke-linecap="butt"/><path d="M382.54929,127.21302c-3.7691,-1.44415 -11.74183,-2.46908 -11.74183,-2.46908c0,0 7.43512,-0.89863 12.31569,0.97138c4.88056,1.87001 10.83062,7.89724 10.83062,7.89724c0,0 -7.46563,-4.89035 -11.40448,-6.39954z" data-paper-data="{&quot;index&quot;:null}" fill="#000000" stroke="none" stroke-width="0" stroke-linecap="butt"/></g></g></svg>