<svg version="1.1" xmlns="http://www.w3.org/2000/svg" xmlns:xlink="http://www.w3.org/1999/xlink" width="181.27874" height="269.70408" viewBox="0,0,181.27874,269.70408"><g transform="translate(-239.88926,-45.72475)"><g data-paper-data="{&quot;isPaintingLayer&quot;:true}" stroke-miterlimit="10" stroke-dasharray="" stroke-dashoffset="0" style="mix-blend-mode: normal"><path d="M290.72614,314.42882l13.62477,-131.8421l33.99545,-0.15789l12.2131,132z" fill="#ecec68" fill-rule="nonzero" stroke="#000000" stroke-width="2" stroke-linecap="butt" stroke-linejoin="miter"/><path d="M296.57572,267.16265l8.45591,-81.82486l32.57503,-0.15129l7.60398,82.1843c0,0 -14.59301,4.84164 -24.23451,4.80038c-9.6415,-0.04126 -24.40041,-5.00852 -24.40041,-5.00852z" fill="#c8c824" fill-rule="nonzero" stroke="#000000" stroke-width="0" stroke-linecap="butt" stroke-linejoin="miter"/><g fill-rule="nonzero" stroke="#000000" stroke-width="2" stroke-linecap="butt" stroke-linejoin="miter"><path d="M274.11854,132.74352l-19.08582,-67.34784l7.05548,-1.99945l19.08583,67.34784z" fill="#ffe9b3"/><path d="M241.56314,69.21285c-2.6603,-9.38735 2.79306,-19.15391 12.18041,-21.81421c9.38735,-2.6603 19.15392,2.79306 21.81422,12.18041c2.6603,9.38735 -2.79306,19.15392 -12.18042,21.81422c-9.38735,2.6603 -19.15391,-2.79306 -21.8142,-12.18042z" fill="#dccd27"/></g><g fill-rule="nonzero" stroke="#000000" stroke-width="2" stroke-linecap="butt" stroke-linejoin="miter"><path d="M365.27463,134.55673l34.01895,-61.1777l6.40908,3.5639l-34.01896,61.1777z" fill="#ffe9b3"/><path d="M387.05805,66.57524c4.74177,-8.52731 15.4985,-11.59613 24.02582,-6.85436c8.52731,4.74177 11.59612,15.4985 6.85435,24.02582c-4.74177,8.52731 -15.49851,11.59612 -24.02582,6.85435c-8.52731,-4.74177 -11.59612,-15.49849 -6.85435,-24.02582z" fill="#dccd27"/></g><path d="M295.43462,251.66804l7.58416,-69.08131l36.11546,-0.15789l6.82766,69.46209c0,0 -1.63411,6.69929 -25.4124,6.56159c-22.03251,-0.12759 -25.11488,-6.78449 -25.11488,-6.78449z" fill="#dccd27" fill-rule="nonzero" stroke="#000000" stroke-width="2" stroke-linecap="butt" stroke-linejoin="miter"/><path d="M296.92485,228.53569l5.27751,-45.94896l37.78325,-0.15789l4.67444,45.45686c0,0 -7.00642,7.16153 -24.11741,7.06682c-17.11099,-0.09472 -23.61779,-6.41683 -23.61779,-6.41683z" fill="#dccd27" fill-rule="nonzero" stroke="#000000" stroke-width="2" stroke-linecap="butt" stroke-linejoin="miter"/><path d="M300.00973,211.04147l3.12142,-26.32765l35.83075,-0.14203l2.76735,26.1059c0,0 -7.51543,4.19603 -21.55904,4.50964c-12.48458,0.27879 -20.16049,-4.14586 -20.16049,-4.14586z" fill="#b2a730" fill-rule="nonzero" stroke="#000000" stroke-width="0" stroke-linecap="butt" stroke-linejoin="miter"/><path d="M257.58163,142.19186c2.10271,-33.2354 32.50981,-58.36209 67.91613,-56.12203c35.40632,2.24005 62.40426,30.99861 60.30156,64.23399c-2.10271,33.2354 -32.50981,58.36209 -67.91613,56.12203c-35.40632,-2.24006 -62.40426,-30.9986 -60.30156,-64.23399z" fill="#b9b912" fill-rule="nonzero" stroke="#000000" stroke-width="2" stroke-linecap="butt" stroke-linejoin="miter"/><path d="M258.29985,142.29127c0.04597,-0.72654 1.66548,56.13656 59.63916,60.82131c55.39142,4.47609 67.04605,-53.8272 66.98172,-52.81038c-2.07132,32.73933 -32.09552,57.48649 -67.0609,55.27434c-34.96538,-2.21215 -61.6313,-30.54594 -59.55998,-63.28527z" fill="#c8c824" fill-rule="nonzero" stroke="#000000" stroke-width="0" stroke-linecap="butt" stroke-linejoin="miter"/><path d="M299.67938,170.0031l40.24774,2.84574c2.43841,0.17241 4.26265,2.27426 4.09024,4.71266l-1.29251,18.2802c-0.17241,2.4384 -2.27426,4.26266 -4.71266,4.09025l-40.24773,-2.84574c-2.4384,-0.17241 -4.26267,-2.27426 -4.09026,-4.71266l1.29251,-18.2802c0.17241,-2.4384 2.27426,-4.26265 4.71267,-4.09024z" fill="#000000" fill-rule="evenodd" stroke="#000000" stroke-width="2" stroke-linecap="round" stroke-linejoin="round"/><path d="M270.89835,106.36183l106.05244,6.70963c6.42519,0.4065 11.27053,5.90638 10.86402,12.33155l-3.04746,48.16818c-0.4065,6.42517 -5.90637,11.27054 -12.33154,10.86403l-106.05243,-6.70963c-6.42518,-0.40651 -11.27055,-5.90638 -10.86404,-12.33155l3.04746,-48.16818c0.4065,-6.42516 5.90638,-11.27053 12.33156,-10.86403z" fill="#dccd27" fill-rule="evenodd" stroke="#000000" stroke-width="2" stroke-linecap="round" stroke-linejoin="round"/><path d="M278.49751,111.56231l90.22044,5.70798c5.46601,0.34582 9.58801,5.02465 9.24219,10.49064l-2.59252,40.9774c-0.34582,5.46599 -5.02465,9.58801 -10.49063,9.2422l-90.22041,-5.70798c-5.46599,-0.34581 -9.58803,-5.02464 -9.24221,-10.49063l2.59252,-40.97741c0.34582,-5.46599 5.02465,-9.58801 10.49065,-9.24219z" fill="#000000" fill-rule="evenodd" stroke="#000000" stroke-width="2" stroke-linecap="round" stroke-linejoin="round"/><path d="M332.87451,188.48406c0,0 -2.30401,8.6241 -15.61719,7.38953c-11.05443,-1.0251 -13.50081,-9.74981 -13.50081,-9.74981" fill="none" fill-rule="nonzero" stroke="#ecec68" stroke-width="2" stroke-linecap="round" stroke-linejoin="miter"/><path d="M306.58017,145.43959c-0.66733,10.54788 -5.13324,18.85031 -9.9749,18.54399c-4.84165,-0.30632 -8.22559,-9.10538 -7.55827,-19.65326c0.66733,-10.54788 5.13324,-18.8503 9.9749,-18.54398c4.84165,0.30632 8.22559,9.10538 7.55827,19.65326z" fill="#ecec68" fill-rule="nonzero" stroke="none" stroke-width="0" stroke-linecap="butt" stroke-linejoin="miter"/><path d="M353.52577,148.39017c-0.66733,10.54788 -5.13324,18.8503 -9.97489,18.54398c-4.84165,-0.30632 -8.2256,-9.10538 -7.55827,-19.65326c0.66733,-10.54788 5.13325,-18.85031 9.9749,-18.54399c4.84165,0.30632 8.22559,9.10539 7.55826,19.65327z" fill="#ecec68" fill-rule="nonzero" stroke="none" stroke-width="0" stroke-linecap="butt" stroke-linejoin="miter"/></g></g></svg>