<svg version="1.1" xmlns="http://www.w3.org/2000/svg" xmlns:xlink="http://www.w3.org/1999/xlink" width="48.625" height="47.84522" viewBox="0,0,48.625,47.84522"><g transform="translate(-296.41667,-160.90478)"><g data-paper-data="{&quot;isPaintingLayer&quot;:true}" stroke-miterlimit="10" stroke-dasharray="" stroke-dashoffset="0" style="mix-blend-mode: normal"><path d="M312.16667,187.60417c0,3.55533 -2.79822,6.4375 -6.25,6.4375c-3.45178,0 -6.25,-2.88217 -6.25,-6.4375c0,-3.55533 2.79822,-6.4375 6.25,-6.4375c3.45178,0 6.25,2.88217 6.25,6.4375z" fill="#665300" fill-rule="nonzero" stroke="none" stroke-width="0" stroke-linecap="butt" stroke-linejoin="miter"/><path d="M339.09522,180c0,10.54601 -8.54924,19.09522 -19.09522,19.09522c-10.54601,0 -19.09522,-8.54922 -19.09522,-19.09522c0,-10.54601 8.54922,-19.09522 19.09522,-19.09522c10.54601,0 19.09522,8.54922 19.09522,19.09522" fill="#665300" fill-rule="evenodd" stroke="none" stroke-width="0.07853" stroke-linecap="round" stroke-linejoin="round"/><path d="M327.34522,187.34518l-14.69035,-14.69035" fill="none" fill-rule="nonzero" stroke="#ffffff" stroke-width="2" stroke-linecap="round" stroke-linejoin="miter"/><path d="M312.65488,187.34519l14.69035,-14.69035" data-paper-data="{&quot;index&quot;:null}" fill="none" fill-rule="nonzero" stroke="#ffffff" stroke-width="2" stroke-linecap="round" stroke-linejoin="miter"/><path d="M340.66667,174.35417c0,3.55533 -2.79822,6.4375 -6.25,6.4375c-3.45178,0 -6.25,-2.88217 -6.25,-6.4375c0,-3.55533 2.79822,-6.4375 6.25,-6.4375c3.45178,0 6.25,2.88217 6.25,6.4375z" fill="#665300" fill-rule="nonzero" stroke="none" stroke-width="0" stroke-linecap="butt" stroke-linejoin="miter"/><path d="M336.79167,194.35417c0,3.55533 -2.79822,6.4375 -6.25,6.4375c-3.45178,0 -6.25,-2.88217 -6.25,-6.4375c0,-3.55533 2.79822,-6.4375 6.25,-6.4375c3.45178,0 6.25,2.88217 6.25,6.4375z" fill="#665300" fill-rule="nonzero" stroke="none" stroke-width="0" stroke-linecap="butt" stroke-linejoin="miter"/><path d="M309.41667,198.4375c0,4.59087 -0.89543,8.3125 -2,8.3125c-1.10457,0 -2,-3.72163 -2,-8.3125c0,-4.59087 0.89543,-8.3125 2,-8.3125c1.10457,0 2,3.72163 2,8.3125z" fill="#665300" fill-rule="nonzero" stroke="none" stroke-width="0" stroke-linecap="butt" stroke-linejoin="miter"/><path d="M318.16667,199.5c0,1.24264 -0.36377,2.25 -0.8125,2.25c-0.44873,0 -0.8125,-1.00736 -0.8125,-2.25c0,-1.24264 0.36377,-2.25 0.8125,-2.25c0.44873,0 0.8125,1.00736 0.8125,2.25z" fill="#665300" fill-rule="nonzero" stroke="none" stroke-width="0" stroke-linecap="butt" stroke-linejoin="miter"/><path d="M327.41667,199.375c0,5.17767 0.55964,9.375 1.25,9.375c0.69036,0 1.25,-4.19733 1.25,-9.375c0,-5.17767 -0.55964,-9.375 -1.25,-9.375c-0.69036,0 -1.25,4.19733 -1.25,9.375z" fill="#665300" fill-rule="nonzero" stroke="none" stroke-width="0" stroke-linecap="butt" stroke-linejoin="miter"/><path d="M327.29167,201.3125c0,0.86294 -0.61561,1.5625 -1.375,1.5625c-0.75939,0 -1.375,-0.69956 -1.375,-1.5625c0,-0.86294 0.61561,-1.5625 1.375,-1.5625c0.75939,0 1.375,0.69956 1.375,1.5625z" fill="#665300" fill-rule="nonzero" stroke="none" stroke-width="0" stroke-linecap="butt" stroke-linejoin="miter"/><path d="M312.91667,199.5c0,0.75939 -0.53166,1.375 -1.1875,1.375c-0.65584,0 -1.1875,-0.61561 -1.1875,-1.375c0,-0.75939 0.53166,-1.375 1.1875,-1.375c0.65584,0 1.1875,0.61561 1.1875,1.375z" fill="#665300" fill-rule="nonzero" stroke="none" stroke-width="0" stroke-linecap="butt" stroke-linejoin="miter"/><path d="M304.16667,196.5625c0,1.27716 -0.95139,2.3125 -2.125,2.3125c-1.17361,0 -2.125,-1.03534 -2.125,-2.3125c0,-1.27716 0.95139,-2.3125 2.125,-2.3125c1.17361,0 2.125,1.03534 2.125,2.3125z" fill="#665300" fill-rule="nonzero" stroke="none" stroke-width="0" stroke-linecap="butt" stroke-linejoin="miter"/><path d="M305.04167,200.5c0,0.48325 -0.33579,0.875 -0.75,0.875c-0.41421,0 -0.75,-0.39175 -0.75,-0.875c0,-0.48325 0.33579,-0.875 0.75,-0.875c0.41421,0 0.75,0.39175 0.75,0.875z" fill="#665300" fill-rule="nonzero" stroke="none" stroke-width="0" stroke-linecap="butt" stroke-linejoin="miter"/><path d="M341.91667,180.77083c0,0.86294 -0.69956,1.5625 -1.5625,1.5625c-0.86294,0 -1.5625,-0.69956 -1.5625,-1.5625c0,-0.86294 0.69956,-1.5625 1.5625,-1.5625c0.86294,0 1.5625,0.69956 1.5625,1.5625z" fill="#665300" fill-rule="nonzero" stroke="none" stroke-width="0" stroke-linecap="butt" stroke-linejoin="miter"/><path d="M345.04167,177.14583c0,1.20812 -0.95139,2.1875 -2.125,2.1875c-1.17361,0 -2.125,-0.97938 -2.125,-2.1875c0,-1.20812 0.95139,-2.1875 2.125,-2.1875c1.17361,0 2.125,0.97938 2.125,2.1875z" fill="#665300" fill-rule="nonzero" stroke="none" stroke-width="0" stroke-linecap="butt" stroke-linejoin="miter"/><path d="M342.91667,191.64583c0,1.48427 -1.31516,2.6875 -2.9375,2.6875c-1.62234,0 -2.9375,-1.20323 -2.9375,-2.6875c0,-1.48427 1.31516,-2.6875 2.9375,-2.6875c1.62234,0 2.9375,1.20323 2.9375,2.6875z" fill="#665300" fill-rule="nonzero" stroke="none" stroke-width="0" stroke-linecap="butt" stroke-linejoin="miter"/><path d="M340.16667,196.58333c0,0.9665 -0.7835,1.75 -1.75,1.75c-0.9665,0 -1.75,-0.7835 -1.75,-1.75c0,-0.9665 0.7835,-1.75 1.75,-1.75c0.9665,0 1.75,0.7835 1.75,1.75z" fill="#665300" fill-rule="nonzero" stroke="none" stroke-width="0" stroke-linecap="butt" stroke-linejoin="miter"/><path d="M305.16667,176.25c0,2.62335 -1.95875,4.75 -4.375,4.75c-2.41625,0 -4.375,-2.12665 -4.375,-4.75c0,-2.62335 1.95875,-4.75 4.375,-4.75c2.41625,0 4.375,2.12665 4.375,4.75z" fill="#665300" fill-rule="nonzero" stroke="none" stroke-width="0" stroke-linecap="butt" stroke-linejoin="miter"/><path d="M302.91667,167.9375c0,0.86294 -0.75552,1.5625 -1.6875,1.5625c-0.93198,0 -1.6875,-0.69956 -1.6875,-1.5625c0,-0.86294 0.75552,-1.5625 1.6875,-1.5625c0.93198,0 1.6875,0.69956 1.6875,1.5625z" fill="#665300" fill-rule="nonzero" stroke="none" stroke-width="0" stroke-linecap="butt" stroke-linejoin="miter"/><path d="M299.54167,181.4375c0,2.45076 -0.25184,4.4375 -0.5625,4.4375c-0.31066,0 -0.5625,-1.98674 -0.5625,-4.4375c0,-2.45076 0.25184,-4.4375 0.5625,-4.4375c0.31066,0 0.5625,1.98674 0.5625,4.4375z" fill="#665300" fill-rule="nonzero" stroke="none" stroke-width="0" stroke-linecap="butt" stroke-linejoin="miter"/></g></g></svg>