<svg version="1.1" xmlns="http://www.w3.org/2000/svg" xmlns:xlink="http://www.w3.org/1999/xlink" width="36.70312" height="190.35383" viewBox="0,0,36.70312,190.35383"><g transform="translate(-221.64844,-84.82308)"><g data-paper-data="{&quot;isPaintingLayer&quot;:true}" fill-rule="nonzero" stroke="none" stroke-width="0" stroke-linecap="butt" stroke-linejoin="miter" stroke-miterlimit="10" stroke-dasharray="" stroke-dashoffset="0" style="mix-blend-mode: normal"><path d="M236.93051,240.19584c8.97648,-2.26318 18.20037,3.62455 20.60211,13.15062c2.40175,9.52606 -2.92814,19.08315 -11.90463,21.34633c-8.97648,2.26318 -18.20037,-3.62455 -20.60211,-13.15062c-2.40174,-9.52607 2.92814,-19.08315 11.90463,-21.34633z" fill="#000000"/><path d="M236.18883,209.91401c7.87732,-1.98605 15.9855,3.23527 18.11012,11.66219c2.12462,8.42691 -2.53887,16.86829 -10.41619,18.85434c-7.87732,1.98605 -15.9855,-3.23528 -18.11012,-11.66219c-2.12462,-8.42691 2.53887,-16.86828 10.41619,-18.85434z" fill="#ffffff"/><path d="M236.34615,177.93452c8.97648,-2.26318 18.12547,3.32754 20.43484,12.48722c2.30937,9.15968 -3.09539,18.41974 -12.07188,20.68292c-8.97648,2.26318 -18.12548,-3.32753 -20.43485,-12.48721c-2.30937,-9.15968 3.0954,-18.41974 12.07189,-20.68292z" fill="#6e6e30"/><path d="M235.22519,114.05356c9.70926,-2.44793 19.6395,3.73555 22.1798,13.8112c2.5403,10.07565 -3.27127,20.22802 -12.98054,22.67595c-9.70927,2.44793 -19.63951,-3.73556 -22.17981,-13.81121c-2.54031,-10.07565 3.27128,-20.22802 12.98055,-22.67595z" fill="#c5c556"/><path d="M238.76985,146.85566c8.06052,-2.03225 16.54185,4.0427 18.9436,13.56877c2.40175,9.52607 -2.18559,18.89594 -10.24611,20.92818c-8.06052,2.03224 -16.54185,-4.04269 -18.9436,-13.56877c-2.40175,-9.52606 2.18559,-18.89593 10.24611,-20.92818z" fill="#9b9b44"/><path d="M235.51738,85.2285c7.94223,-2.00242 16.20438,3.60762 18.45401,12.53038c2.24963,8.92275 -2.36513,17.77936 -10.30737,19.78179c-7.94223,2.00242 -16.20437,-3.60762 -18.45401,-12.53037c-2.24964,-8.92276 2.36512,-17.77936 10.30736,-19.78179z" fill="#ecec68"/></g></g></svg>