<svg version="1.1" xmlns="http://www.w3.org/2000/svg" xmlns:xlink="http://www.w3.org/1999/xlink" width="35.17311" height="35.17311" viewBox="0,0,35.17311,35.17311"><defs><linearGradient x1="320.00002" y1="162.91346" x2="320.00002" y2="197.08659" gradientUnits="userSpaceOnUse" id="color-1"><stop offset="0" stop-color="#000000"/><stop offset="1" stop-color="#fbff00" stop-opacity="0.4902"/></linearGradient><linearGradient x1="320" y1="167.56584" x2="320" y2="192.43418" gradientUnits="userSpaceOnUse" id="color-2"><stop offset="0" stop-color="#515124"/><stop offset="1" stop-color="#a7a749"/></linearGradient><linearGradient x1="326.12914" y1="172.73506" x2="326.12914" y2="187.49216" gradientUnits="userSpaceOnUse" id="color-3"><stop offset="0" stop-color="#a7a749"/><stop offset="1" stop-color="#2b2b02"/></linearGradient><linearGradient x1="313.88568" y1="172.78828" x2="313.88568" y2="187.54539" gradientUnits="userSpaceOnUse" id="color-4"><stop offset="0" stop-color="#a7a749"/><stop offset="1" stop-color="#2b2b02"/></linearGradient></defs><g transform="translate(-302.41347,-162.41346)"><g data-paper-data="{&quot;isPaintingLayer&quot;:true}" stroke-miterlimit="10" stroke-dasharray="" stroke-dashoffset="0" style="mix-blend-mode: normal"><path d="M309.98313,162.91346h20.03379c3.9166,0 7.06966,3.15307 7.06966,7.06966v20.03379c0,3.91659 -3.15306,7.06966 -7.06966,7.06966h-20.03379c-3.91659,0 -7.06966,-3.15307 -7.06966,-7.06966v-20.03379c0,-3.91659 3.15307,-7.06966 7.06966,-7.06966z" fill="url(#color-1)" fill-rule="evenodd" stroke="#000000" stroke-width="1" stroke-linecap="round" stroke-linejoin="round"/><path d="M307.82213,192.31208l0.03539,-24.74624l24.32036,0.1221l-0.03539,24.74624z" fill="url(#color-2)" fill-rule="nonzero" stroke="#000000" stroke-width="0.5" stroke-linecap="butt" stroke-linejoin="miter"/><path d="M321.36732,187.33522l0.01507,-14.60017l9.50856,0.15693l-0.01507,14.60017z" fill="url(#color-3)" fill-rule="nonzero" stroke="none" stroke-width="0.5" stroke-linecap="butt" stroke-linejoin="miter"/><path d="M309.12386,187.38845l0.01507,-14.60017l9.50856,0.15693l-0.01507,14.60017z" fill="url(#color-4)" fill-rule="nonzero" stroke="none" stroke-width="0.5" stroke-linecap="butt" stroke-linejoin="miter"/></g></g></svg>