<svg version="1.1" xmlns="http://www.w3.org/2000/svg" xmlns:xlink="http://www.w3.org/1999/xlink" width="139.27845" height="229.00105" viewBox="0,0,139.27845,229.00105"><g transform="translate(-249.77987,-67.47506)"><g data-paper-data="{&quot;isPaintingLayer&quot;:true}" stroke-miterlimit="10" stroke-dasharray="" stroke-dashoffset="0" style="mix-blend-mode: normal"><path d="M286.60661,295.4761l15.14285,-131.8421l37.78325,-0.15789l13.57389,132z" fill="#e3e364" fill-rule="nonzero" stroke="#000000" stroke-width="2" stroke-linecap="butt" stroke-linejoin="miter"/><path d="M299.55681,192.08873l3.12142,-26.32765l35.83075,-0.14203l2.76735,26.1059c0,0 -7.51543,4.19603 -21.55904,4.50964c-12.48458,0.27879 -20.16049,-4.14586 -20.16049,-4.14586z" fill="#c0c054" fill-rule="nonzero" stroke="#000000" stroke-width="0" stroke-linecap="butt" stroke-linejoin="miter"/><path d="M332.47319,164.63252h-25.10959" fill="none" fill-rule="nonzero" stroke="#000000" stroke-width="2" stroke-linecap="round" stroke-linejoin="miter"/><path d="M255.12989,128.75409c-0.43579,-32.83343 27.96839,-59.82127 63.44247,-60.27903c35.47408,-0.45776 64.5848,25.78792 65.02058,58.62134c0.43579,32.83343 -27.96839,59.82127 -63.44247,60.27903c-35.47408,0.45775 -64.5848,-25.78792 -65.02058,-58.62134z" fill="#e3e364" fill-rule="nonzero" stroke="#000000" stroke-width="2" stroke-linecap="butt" stroke-linejoin="miter"/><path d="M255.8536,128.79784c-0.00953,-0.71776 5.93797,55.06566 64.10007,55.31593c55.57146,0.23913 62.74977,-57.9575 62.76311,-56.95297c0.42928,32.34336 -27.62202,58.92931 -62.65431,59.38137c-35.03229,0.45206 -63.77959,-25.40096 -64.20887,-57.74432z" fill="#c0c054" fill-rule="nonzero" stroke="#000000" stroke-width="0" stroke-linecap="butt" stroke-linejoin="miter"/><path d="M268.6846,129.00267c-0.1697,-12.78559 10.20449,-23.28601 23.17138,-23.45334c12.96688,-0.16733 23.6162,10.06182 23.7859,22.84741c0.1697,12.78559 -10.20448,23.28602 -23.17138,23.45335c-12.96688,0.16733 -23.6162,-10.06181 -23.7859,-22.84742z" fill="#ffffff" fill-rule="nonzero" stroke="#000000" stroke-width="2" stroke-linecap="butt" stroke-linejoin="miter"/><path d="M275.74575,128.63976c-0.11945,-8.99969 7.18285,-16.39084 16.31014,-16.50863c9.1273,-0.11777 16.62326,7.08243 16.74271,16.08211c0.11945,8.99969 -7.18286,16.39085 -16.31015,16.50862c-9.1273,0.11777 -16.62325,-7.08242 -16.74269,-16.0821z" fill="#000000" fill-rule="nonzero" stroke="none" stroke-width="0" stroke-linecap="butt" stroke-linejoin="miter"/><path d="M303.55053,159.24287l31.16975,-0.40222c6.09368,-0.07863 11.04669,3.42016 11.10542,7.84484l0.05218,3.9313c0.05873,4.42467 -4.79972,8.05008 -10.89341,8.12872l-31.16975,0.40222c-6.09366,0.07863 -11.0467,-3.42016 -11.10543,-7.84484l-0.05218,-3.9313c-0.05873,-4.42467 4.79975,-8.05008 10.89342,-8.12871z" fill="#000000" fill-rule="evenodd" stroke="#000000" stroke-width="0" stroke-linecap="round" stroke-linejoin="round"/><path d="M346.72427,151.14997c-12.96688,0.16733 -23.6162,-10.06181 -23.7859,-22.84742c-0.1697,-12.78559 10.20449,-23.28601 23.17138,-23.45334c12.96688,-0.16733 23.6162,10.06181 23.7859,22.84742c0.1697,12.78559 -10.20449,23.28602 -23.17138,23.45334z" data-paper-data="{&quot;index&quot;:null}" fill="#ffffff" fill-rule="nonzero" stroke="#000000" stroke-width="2" stroke-linecap="butt" stroke-linejoin="miter"/><path d="M346.51714,144.02468c-9.12729,0.11777 -16.62325,-7.08243 -16.7427,-16.08211c-0.11945,-8.99969 7.18286,-16.39084 16.31014,-16.50862c9.12729,-0.11777 16.62325,7.08243 16.7427,16.08211c0.11945,8.99969 -7.18286,16.39084 -16.31014,16.50862z" data-paper-data="{&quot;index&quot;:null}" fill="#000000" fill-rule="nonzero" stroke="none" stroke-width="0" stroke-linecap="butt" stroke-linejoin="miter"/><path d="M268.6846,129.00267c-0.1697,-12.78559 10.20449,-23.28601 23.17138,-23.45334c12.96688,-0.16733 23.6162,10.06182 23.7859,22.84741c0,0 -46.94117,1.82017 -46.95729,0.60593z" fill="#ffc533" fill-rule="nonzero" stroke="#000000" stroke-width="2" stroke-linecap="butt" stroke-linejoin="miter"/><path d="M313.59639,132.77426l-59.74489,0.77096c0,0 -3.95749,-0.78261 -4.07162,-5.37104c-0.10433,-4.19394 3.92768,-5.47425 3.92768,-5.47425l59.74489,-0.77096z" fill="#a3a347" fill-rule="nonzero" stroke="#000000" stroke-width="2" stroke-linecap="butt" stroke-linejoin="miter"/><path d="M322.93836,128.30258c-0.1697,-12.78559 10.20449,-23.28602 23.17138,-23.45334c12.96688,-0.16733 23.6162,10.06181 23.7859,22.84742c0.01588,1.19673 -46.95729,0.60594 -46.95729,0.60594z" data-paper-data="{&quot;index&quot;:null}" fill="#ffc533" fill-rule="nonzero" stroke="#000000" stroke-width="2" stroke-linecap="butt" stroke-linejoin="miter"/><path d="M324.24181,121.78976l59.74489,-0.77096c0,0 4.06461,1.17584 4.07162,5.37103c0.00768,4.5898 -3.92768,5.47425 -3.92768,5.47425l-59.74489,0.77095z" data-paper-data="{&quot;index&quot;:null}" fill="#a3a347" fill-rule="nonzero" stroke="#000000" stroke-width="2" stroke-linecap="butt" stroke-linejoin="miter"/><path d="M265.79125,101.07198l106.25538,-1.37113c6.43749,-0.08307 11.6878,4.96011 11.77205,11.30758l0.43093,32.46796c0.08425,6.34747 -5.03044,11.52439 -11.46791,11.60746l-106.25537,1.37113c-6.43748,0.08307 -11.68782,-4.96011 -11.77207,-11.30757l-0.43093,-32.46796c-0.08425,-6.34746 5.03045,-11.5244 11.46793,-11.60747z" fill="#a3a347" fill-rule="evenodd" stroke="#000000" stroke-width="2" stroke-linecap="round" stroke-linejoin="round"/><path d="M276.50726,106.63559l85.64131,-1.10511c5.18858,-0.06695 9.42031,3.99782 9.48822,9.11385l0.34733,26.16901c0.0679,5.11603 -4.05452,9.28861 -9.24308,9.35556l-85.64131,1.10512c-5.18857,0.06696 -9.42032,-3.99782 -9.48823,-9.11385l-0.34733,-26.16901c-0.0679,-5.11603 4.05452,-9.28861 9.24309,-9.35555z" fill="#000000" fill-rule="evenodd" stroke="#000000" stroke-width="0" stroke-linecap="round" stroke-linejoin="round"/><path d="M276.1696,106.31126l85.64131,-1.10511c5.18858,-0.06695 9.42031,3.99782 9.48822,9.11385l0.34733,26.16901c0.0679,5.11603 -4.05451,9.2886 -9.24308,9.35555l-85.64131,1.10512c-5.18857,0.06696 -9.42032,-3.99782 -9.48823,-9.11385l-0.34733,-26.16901c-0.0679,-5.11603 4.05452,-9.2886 9.24309,-9.35555z" fill="#d4d45d" fill-rule="evenodd" stroke="#000000" stroke-width="2" stroke-linecap="round" stroke-linejoin="round"/></g></g></svg>