<svg version="1.1" xmlns="http://www.w3.org/2000/svg" xmlns:xlink="http://www.w3.org/1999/xlink" width="188.60868" height="263.93037" viewBox="0,0,188.60868,263.93037"><defs><linearGradient x1="343.55661" y1="219.2034" x2="259.24752" y2="253.40164" gradientUnits="userSpaceOnUse" id="color-1"><stop offset="0" stop-color="#b8b851"/><stop offset="1" stop-color="#ffff65"/></linearGradient></defs><g transform="translate(-239.51489,-51.71436)"><g data-paper-data="{&quot;isPaintingLayer&quot;:true}" fill-rule="nonzero" stroke-linejoin="miter" stroke-miterlimit="10" stroke-dasharray="" stroke-dashoffset="0" style="mix-blend-mode: normal"><path d="M389.53663,151.44337c3.16787,25.2547 -3.79332,35.45607 -3.79332,35.45607c0,0 -12.10918,-21.47411 -19.77288,-32.6764c-7.92295,-11.58124 -27.01293,-35.71203 -27.01293,-35.71203l31.81283,-16.85064c0,0 15.26168,21.8436 18.7663,49.783z" data-paper-data="{&quot;index&quot;:null}" fill="#aeae47" stroke="#000000" stroke-width="2" stroke-linecap="butt"/><path d="M275.21686,101.66037l31.81283,16.85064c0,0 -19.08998,24.13078 -27.01292,35.71203c-7.6637,11.20229 -19.77288,32.6764 -19.77288,32.6764c0,0 -6.96119,-10.20136 -3.79332,-35.45607c3.50463,-27.9394 18.7663,-49.783 18.7663,-49.783z" data-paper-data="{&quot;index&quot;:null}" fill="#aeae47" stroke="#000000" stroke-width="2" stroke-linecap="butt"/><path d="M375.71812,196.95501c-9.02164,23.80012 -19.94816,29.5566 -19.94816,29.5566c0,0 -0.6493,-24.64443 -2.17813,-38.13095c-1.58056,-13.94275 -7.1552,-44.20238 -7.1552,-44.20238h36c0,0 3.26217,26.44655 -6.71851,52.77673z" data-paper-data="{&quot;index&quot;:null}" fill="#c2c250" stroke="#000000" stroke-width="2" stroke-linecap="butt"/><path d="M262.27971,144.17828h36c0,0 -5.57464,30.25964 -7.1552,44.20238c-1.52884,13.48652 -2.17814,38.13095 -2.17814,38.13095c0,0 -10.92652,-5.75649 -19.94816,-29.5566c-9.98068,-26.33018 -6.71851,-52.77673 -6.71851,-52.77673z" fill="#c2c250" stroke="#000000" stroke-width="2" stroke-linecap="butt"/><path d="M289.13164,314.64472l15.14285,-131.8421l37.78325,-0.15789l13.57389,132z" fill="#ecec60" stroke="#000000" stroke-width="2" stroke-linecap="butt"/><path d="M302.08187,211.25735l3.12142,-26.32765l35.83075,-0.14203l2.76735,26.1059c0,0 -7.51543,4.19603 -21.55904,4.50964c-12.48458,0.27879 -20.16049,-4.14586 -20.16049,-4.14586z" fill="#d2d256" stroke="#000000" stroke-width="0" stroke-linecap="butt"/><path d="M258.22155,143.99088c0,-33.30185 28.7599,-60.29833 64.23702,-60.29833c35.47712,0 64.23702,26.99649 64.23702,60.29833c0,33.30185 -28.7599,60.29833 -64.23702,60.29833c-35.47712,0 -64.23702,-26.99649 -64.23702,-60.29833z" fill="#ecec60" stroke="#000000" stroke-width="2" stroke-linecap="butt"/><path d="M258.94461,144.04471c0,-0.72799 5.20666,55.91939 63.36046,56.93429c55.56352,0.9697 63.51358,-57.95314 63.51358,-56.93429c0,32.80479 -28.40173,59.39833 -63.43702,59.39833c-35.03529,0 -63.43702,-26.59354 -63.43702,-59.39833z" fill="#d2d256" stroke="#000000" stroke-width="0" stroke-linecap="butt"/><path d="M271.77176,144.42035c0,-12.968 10.51265,-23.48065 23.48065,-23.48065c12.968,0 23.48065,10.51265 23.48065,23.48065c0,12.968 -10.51265,23.48065 -23.48065,23.48065c-12.968,0 -23.48065,-10.51265 -23.48065,-23.48065z" fill="#d2d256" stroke="#000000" stroke-width="2" stroke-linecap="butt"/><path d="M334.99823,183.80115c0,0 -7.66582,2.98556 -11.69844,2.98556c-4.31774,0 -13.41115,-2.98556 -13.41115,-2.98556" fill="none" stroke="#000000" stroke-width="2" stroke-linecap="round"/><path d="M349.51085,167.90099c-12.968,0 -23.48065,-10.51265 -23.48065,-23.48065c0,-12.968 10.51265,-23.48065 23.48065,-23.48065c12.968,0 23.48065,10.51265 23.48065,23.48065c0,12.968 -10.51265,23.48065 -23.48065,23.48065z" data-paper-data="{&quot;index&quot;:null}" fill="#d2d256" stroke="#000000" stroke-width="2" stroke-linecap="butt"/><path d="M279.1847,121.583c0,0 6.70895,-5.16922 11.79721,-6.36355c5.08827,-1.19433 12.33413,0.69937 12.33413,0.69937c0,0 -8.03812,-0.06028 -11.96762,0.86207c-4.10648,0.96389 -12.16372,4.80211 -12.16372,4.80211z" fill="#000000" stroke="none" stroke-width="0" stroke-linecap="butt"/><path d="M352.82227,117.90049c-3.9295,-0.92235 -11.96762,-0.86207 -11.96762,-0.86207c0,0 7.24586,-1.8937 12.33413,-0.69937c5.08826,1.19433 11.79721,6.36355 11.79721,6.36355c0,0 -8.05724,-3.83822 -12.16372,-4.80211z" data-paper-data="{&quot;index&quot;:null}" fill="#000000" stroke="none" stroke-width="0" stroke-linecap="butt"/><path d="M265.97782,105.90704c0,-29.37751 4.22233,-52.79352 55.83225,-53.19268c58.79142,-0.45471 55.83225,23.81518 55.83225,53.19268c0,0 -111.6645,1.21448 -111.6645,0z" fill="#c5c528" stroke="#000000" stroke-width="2" stroke-linecap="butt"/><path d="M241.22878,110.75061l4.33333,-7.66667l155.5,0.33333l2.66667,7.33333z" fill="#c5c528" stroke="#000000" stroke-width="2" stroke-linecap="butt"/><g data-paper-data="{&quot;index&quot;:null}"><path d="M259.38963,253.46755c0,0 -12.7442,-25.25121 0.37173,-38.01369c4.22494,-4.1111 13.60064,-8.69168 21.33949,-9.26986c6.54469,-0.48897 11.24916,2.86865 17.55378,1.68733c13.38275,-2.50759 20.93018,-8.98369 25.36442,-9.38852c15.10567,-1.37912 18.28439,19.89316 18.28439,19.89316l0.93054,2.29406c0,0 12.53859,17.47564 0.74068,27.0094c-3.46326,2.79862 -13.38944,3.41033 -24.73742,10.93426c-5.34603,3.54453 -6.38209,9.23067 -11.41804,13.43916c-5.95481,4.97638 -15.87216,8.22161 -21.76718,8.21546c-18.3005,-0.01905 -26.74845,-27.01295 -26.74845,-27.01295z" data-paper-data="{&quot;index&quot;:null}" fill="url(#color-1)" stroke="none" stroke-width="0" stroke-linecap="round"/><g fill="#7d7d00" stroke="none" stroke-width="1" stroke-linecap="butt"><path d="M301.10656,227.04212c-0.00957,-0.0236 -0.01915,-0.04722 -0.0099,-0.09219c-0.30917,-0.35562 -0.27799,-0.7531 -0.07903,-1.17739c-0.45103,0.14173 -0.79906,0.063 -1.08687,-0.2738c-0.24025,-0.28737 -0.27063,-0.70111 -0.08058,-1.01184c0.26978,-0.45302 0.67138,-0.5472 1.12374,-0.41459c0.01047,-0.27912 0.03754,-0.55123 0.048,-0.83035c-0.69285,0.01989 -1.13918,-0.33504 -1.13739,-0.9405c0.00345,-0.26253 0.10165,-0.4948 0.30419,-0.67315c0.3014,-0.27344 0.64655,-0.30349 1.01373,-0.17756c0.00158,-0.16556 -0.03706,-0.32856 -0.01413,-0.4753c0.01114,-0.14195 0.07906,-0.27945 0.1138,-0.43098c-0.48199,0.0993 -0.85396,-0.03844 -1.07095,-0.40396c-0.18604,-0.32311 -0.14785,-0.73716 0.09198,-1.02685c0.29627,-0.35383 0.65323,-0.38867 1.25043,-0.13614c-0.19115,-0.4035 -0.19537,-0.78661 0.10569,-1.12863c0.32691,-0.37998 0.73584,-0.42216 1.18374,-0.23277c-0.24804,-0.91643 0.54102,-1.58008 1.38451,-1.26253c-0.10376,-0.4252 -0.02282,-0.80164 0.33058,-1.08241c0.34159,-0.27599 0.72949,-0.26841 1.1372,-0.07645c-0.14873,-0.43445 -0.07479,-0.79429 0.26202,-1.08209c0.28258,-0.25206 0.62994,-0.3105 0.9713,-0.1466c0.50725,0.23404 0.63939,0.66147 0.53773,1.15625c0.23413,0.00124 0.47307,0.01425 0.66701,0.01805c0.05322,-0.24148 0.11347,-0.49955 0.1785,-0.74583c-0.47463,0.15128 -0.86542,0.03492 -1.10379,-0.34942c-0.19784,-0.31832 -0.14561,-0.76556 0.12739,-1.04123c0.28003,-0.29225 0.71257,-0.34401 1.05649,-0.13992c0.21344,0.11959 0.3752,0.3151 0.39056,0.55625c0.02238,0.22457 -0.02384,0.44947 -0.04645,0.66479c0.44402,-0.12514 0.44402,-0.12514 1.0007,0.06136c-0.10186,-0.52218 -0.00177,-0.8514 0.33059,-1.08241c0.28992,-0.20006 0.69664,-0.21386 0.98378,-0.01422c0.44378,0.31478 0.50735,0.74253 0.2851,1.24498c0.38946,-0.15798 0.73494,-0.11944 1.07184,0.10124c-0.1258,-0.58119 -0.01166,-0.94358 0.35865,-1.14878c0.33969,-0.17902 0.74673,-0.12423 1.0224,0.14878c0.26387,0.2778 0.32263,0.69375 0.13736,1.01629c-0.13139,0.21822 -0.29851,0.38222 -0.55147,0.40237c-0.22458,0.02238 -0.45425,-0.03564 -0.6364,-0.04422c0.02236,0.22457 0.0473,0.48933 0.06744,0.74229c0.20353,0.02739 0.43545,0.05702 0.67916,0.08185c-0.05654,-0.44436 0.08598,-0.80452 0.49169,-1.02407c0.32789,-0.17423 0.66859,-0.1475 0.97008,0.08754c0.42496,0.33614 0.46013,0.76167 0.24012,1.23574c0.85931,-0.32109 1.68597,0.42935 1.30973,1.36535c0.92121,-0.23623 1.58745,0.59303 1.2131,1.43206c0.46762,-0.1347 0.86543,-0.03494 1.13697,0.36343c0.21443,0.32533 0.23268,0.67527 0.0356,1.0026c-0.25097,0.43166 -0.6548,0.55422 -1.10938,0.45c-0.00122,0.23414 -0.01205,0.44468 -0.01806,0.66702c0.11357,0.00892 0.23893,0.01304 0.34549,0.03853c0.12313,0.03251 0.23926,0.08161 0.3506,0.11891c-0.06455,-0.63351 0.08052,-0.95347 0.4888,-1.13283c0.36586,-0.1484 0.75888,-0.06044 1.01572,0.23394c0.24025,0.28736 0.28244,0.6963 0.08537,1.02363c-0.23694,0.39847 -0.58655,0.48531 -1.18086,0.34156c0.02204,0.15599 0.06068,0.31898 0.05433,0.47274c-0.00635,0.15376 -0.0647,0.31486 -0.09465,0.47819c0.48199,-0.0993 0.82079,0.02439 1.05658,0.36855c0.20485,0.30174 0.21866,0.70845 0.012,1.01217c-0.29593,0.42242 -0.69754,0.51659 -1.19265,0.34635c0.10566,0.32823 0.08817,0.62394 -0.07829,0.92511c0.49379,-0.10408 0.85618,0.01005 1.09933,0.40618c0.19784,0.31832 0.17144,0.7276 -0.07318,1.00549c-0.33391,0.39657 -0.74764,0.42695 -1.2099,0.20216c0.34724,0.88993 -0.41055,1.66459 -1.29645,1.37798c0.08905,0.32121 0.03137,0.61947 -0.15168,0.91362c0.54801,-0.13982 0.9034,-0.00911 1.12517,0.36822c0.18604,0.3231 0.11944,0.73495 -0.14176,1.00583c-0.27301,0.27567 -0.67716,0.32964 -1.0115,0.14915c-0.21344,-0.11959 -0.37743,-0.2867 -0.40459,-0.52307c-0.02238,-0.22457 0.00725,-0.45649 0.01583,-0.63863c-0.24115,0.01535 -0.52728,0.02147 -0.76845,0.03683c-0.04365,0.2651 -0.0991,0.53497 -0.15456,0.80485c0.52217,-0.10187 0.87756,0.02885 1.06615,0.39216c0.18381,0.35148 0.11722,0.76333 -0.17237,1.03198c-0.28258,0.25206 -0.70333,0.29903 -1.03544,0.09015c-0.37008,-0.2347 -0.4569,-0.58431 -0.27774,-1.19298c-0.29505,0.11969 -0.5882,0.14239 -0.89861,0.02091c0.06802,0.37097 -0.00147,0.67402 -0.21769,0.95414c0.46729,-0.2033 0.87212,-0.12011 1.1245,0.23105c0.22623,0.32054 0.19761,0.75821 -0.07061,1.04568c-0.28003,0.29225 -0.71257,0.34401 -1.04947,0.12333c-0.21121,-0.14798 -0.35638,-0.33648 -0.35994,-0.58243c-0.01058,-0.22936 0.07583,-0.45683 0.10802,-0.64854c-0.29471,0.18826 -0.64943,0.1947 -1.01918,0.02858c0.09106,0.73272 -0.25655,1.23105 -0.86424,1.25765c-0.26954,0.01313 -0.51359,-0.08029 -0.70375,-0.27803c-0.28045,-0.28481 -0.32231,-0.62516 -0.22699,-0.96619c-0.26732,-0.01526 -0.50625,-0.02829 -0.75698,-0.03653c-0.01072,0.71902 -0.38704,1.14654 -0.98069,1.13995c-0.26253,-0.00346 -0.49479,-0.10166 -0.68016,-0.2876c-0.28045,-0.28482 -0.32229,-0.62518 -0.24358,-0.97321c-0.26031,-0.03185 -0.51583,-0.05191 -0.75955,-0.07674c0.06357,0.42775 -0.07896,0.78793 -0.47287,1.0027c-0.35149,0.18382 -0.7158,0.16665 -1.02686,-0.09199c-0.387,-0.3103 -0.4292,-0.71926 -0.25639,-1.17417c-0.53175,0.07826 -0.57193,0.08081 -1.0224,-0.14877c0.15864,0.52663 0.0493,0.90082 -0.31623,1.11781c-0.35372,0.21221 -0.77257,0.16219 -1.04122,-0.1274c-0.28046,-0.28481 -0.31564,-0.71033 -0.10676,-1.04245c0.24651,-0.37488 0.6127,-0.45468 1.22393,-0.23534c-0.17645,-0.29951 -0.18257,-0.58564 -0.09873,-0.85329c-0.28168,-0.05068 -0.56336,-0.10133 -0.82846,-0.14498c0.10631,0.4654 -0.02441,0.82078 -0.40173,1.04255c-0.3161,0.16945 -0.73495,0.11944 -1.00103,-0.12996c-0.27565,-0.273 -0.35804,-0.67939 -0.18234,-1.02554c0.1148,-0.22523 0.28193,-0.38924 0.52532,-0.43298c0.21978,-0.03418 0.45169,-0.00456 0.64563,-0.00077c-0.01058,-0.22936 -0.01891,-0.4871 -0.03427,-0.72826c-0.23671,-0.04142 -0.5066,-0.09687 -0.75988,-0.14531c0.07826,0.53175 -0.05022,0.85873 -0.43712,1.05691c-0.34448,0.16721 -0.72793,0.10285 -0.99881,-0.15836c-0.27087,-0.26121 -0.34145,-0.67238 -0.16097,-1.00672c0.11958,-0.21343 0.2867,-0.37742 0.51828,-0.41638c0.21978,-0.03417 0.4517,-0.00456 0.66925,-0.01033c-0.0099,-0.0922 -0.05556,-0.2386 -0.05622,-0.37577c-0.00067,-0.13717 0.03886,-0.2769 0.04778,-0.39047c-0.20831,-0.03919 -0.42364,-0.06181 -0.62493,-0.11759c-0.12313,-0.03251 -0.23002,-0.12659 -0.34391,-0.20408zM302.52691,219.49784c-0.25106,-0.07683 -0.49733,-0.14185 -0.73882,-0.19508c0.11233,0.24307 0.13025,0.52441 -0.00559,0.79941c0.24117,-0.01536 0.47052,-0.02593 0.68328,-0.04351c0.02038,-0.18694 0.04777,-0.39045 0.06114,-0.5608zM310.78168,215.28363c0.05802,-0.22968 0.10901,-0.44279 0.17181,-0.66067c-0.26443,0.09352 -0.54354,0.08305 -0.79494,-0.06237c0.02237,0.22457 0.04474,0.44914 0.07191,0.68551c0.17034,0.01336 0.36908,0.02895 0.55123,0.03753zM317.51645,225.85573c-0.01337,0.17034 -0.03375,0.35729 -0.04233,0.53943c0.2131,0.05099 0.44279,0.10903 0.6275,0.15778c0.00123,-0.23415 -0.00711,-0.49189 0.00113,-0.74262c-0.16078,0.01024 -0.37356,0.02784 -0.58632,0.04542zM314.1141,216.28207c0.01024,0.16078 0.01825,0.34993 0.02626,0.5391c0.17513,0.02517 0.35027,0.05033 0.52062,0.0637c0.05099,-0.21311 0.102,-0.42621 0.14598,-0.6227c-0.21756,0.00579 -0.4635,0.00934 -0.69286,0.01991zM302.09165,225.33684c0.00157,-0.16555 0.00313,-0.33111 0.02351,-0.51805c-0.18471,-0.04878 -0.37642,-0.08096 -0.54455,-0.12271c-0.02961,0.23191 -0.05925,0.46383 -0.08886,0.69574c0.17258,-0.01503 0.39715,-0.03741 0.60991,-0.05499zM306.1772,216.29923c0.16556,0.00157 0.33111,0.00312 0.50847,-0.0001c0.03697,-0.17992 0.06213,-0.35505 0.09208,-0.51838c-0.21534,-0.0226 -0.44023,-0.06882 -0.64375,-0.09621c0.00801,0.18917 0.0256,0.40193 0.04318,0.6147zM317.7118,223.22016c-0.00157,0.16556 -0.01493,0.3359 -0.0401,0.51104c0.19173,0.03218 0.37642,0.08096 0.53975,0.11091c0.02261,-0.21533 0.04044,-0.44245 0.05825,-0.66958c-0.17258,0.01503 -0.37354,0.02783 -0.55792,0.04763zM316.63726,219.14808c-0.00635,0.15375 -0.00791,0.31932 -0.00469,0.49668c0.16333,0.02996 0.33847,0.05513 0.5018,0.08507c0.02739,-0.20353 0.06659,-0.41184 0.09398,-0.61536c-0.18917,0.00802 -0.37833,0.01603 -0.59109,0.03361zM307.02654,230.52306c-0.14675,-0.02293 -0.31709,-0.03631 -0.48744,-0.04967c-0.03697,0.17991 -0.08096,0.37643 -0.11793,0.55635c0.20574,-0.00099 0.4281,0.00501 0.63385,0.00402c-0.00545,-0.14898 -0.02047,-0.32154 -0.02848,-0.51071zM312.37816,231.41712c-0.01502,-0.17257 -0.02303,-0.36174 -0.03583,-0.5627c-0.14896,0.00546 -0.30751,-0.0127 -0.47307,-0.01426c-0.02995,0.16333 -0.06693,0.34326 -0.09688,0.50659c0.20353,0.0274 0.41885,0.05 0.60578,0.07038zM302.22766,222.65661c0.01815,-0.15855 0.02451,-0.31231 0.04266,-0.47085c-0.17993,-0.03698 -0.36462,-0.08575 -0.52795,-0.11569c-0.00379,0.19395 -0.0146,0.40448 -0.02541,0.61503c0.16077,-0.01023 0.33334,-0.02526 0.5107,-0.02848zM303.33402,218.16719c0.00802,0.18917 0.00902,0.39492 0.02182,0.59588c0.13716,-0.00066 0.30272,0.00091 0.46349,-0.00934c0.01815,-0.15855 0.05289,-0.31007 0.07104,-0.46862c-0.17991,-0.03698 -0.37642,-0.08096 -0.55634,-0.11793zM315.41013,217.74921c0.00067,0.13717 0.0109,0.29794 -0.00246,0.46829c0.15855,0.01815 0.32188,0.04811 0.46863,0.07104c0.04399,-0.19652 0.07616,-0.38824 0.11313,-0.56816c-0.17736,0.00322 -0.37832,0.01602 -0.57929,0.02882zM305.23701,217.50523c0.01815,-0.15856 0.0411,-0.30529 0.06403,-0.45203c-0.18692,-0.02039 -0.36684,-0.05736 -0.54198,-0.08252c0.01502,0.17257 0.01825,0.34993 0.02626,0.5391c0.13717,-0.00066 0.28614,-0.00612 0.4517,-0.00455zM316.17243,227.18428c-0.02773,0.13494 -0.04365,0.2651 -0.05957,0.39525c0.16333,0.02994 0.31487,0.0647 0.4782,0.09464c0.00157,-0.16555 0.00311,-0.33111 0.00469,-0.49667c-0.13716,0.00066 -0.27433,0.00133 -0.4233,0.00678zM309.68326,231.17712c-0.01725,-0.14419 -0.02272,-0.29315 -0.01636,-0.44691c-0.14195,-0.01114 -0.26731,-0.01526 -0.40927,-0.0264c-0.03474,0.15152 -0.05768,0.29828 -0.08542,0.43321c0.17034,0.01336 0.34069,0.02674 0.51103,0.0401zM303.2718,226.31495c-0.13493,-0.02773 -0.2651,-0.04365 -0.40004,-0.07138c-0.01815,0.15855 -0.04109,0.30529 -0.05924,0.46383c0.14896,-0.00546 0.28614,-0.00611 0.44691,-0.01636c-0.00065,-0.13717 0.00824,-0.25073 0.01237,-0.3761zM313.27972,230.04813c0.15154,0.03474 0.31007,0.05291 0.45682,0.07584c-0.00545,-0.14898 -0.00611,-0.28614 -0.01636,-0.44691c-0.10877,0.00289 -0.23415,-0.00122 -0.37132,-0.00056c-0.01592,0.13016 -0.03663,0.24849 -0.06914,0.37163zM305.28114,229.54057c0.14898,-0.00545 0.29794,-0.0109 0.4517,-0.00455c-0.00289,-0.10878 -0.01058,-0.22936 -0.01124,-0.36652c-0.13016,-0.01593 -0.24372,-0.02484 -0.36207,-0.04555c-0.02773,0.13494 -0.05546,0.26988 -0.0784,0.41663zM315.13086,228.44515c-0.11357,-0.00892 -0.22235,-0.00602 -0.34771,-0.01015c-0.02071,0.11836 -0.04142,0.23672 -0.05734,0.36686c0.13493,0.02773 0.26988,0.05546 0.41662,0.0784c-0.00545,-0.14898 -0.00611,-0.28613 -0.01156,-0.43511zM311.93255,216.56225c0.02773,-0.13494 0.04142,-0.23669 0.07872,-0.34803c-0.14195,-0.01114 -0.26732,-0.01527 -0.42108,-0.02161c0.0029,0.10877 0.00579,0.21757 0.01346,0.33813c0.10177,0.0137 0.21533,0.0226 0.32889,0.03152zM308.90964,215.988c-0.00412,0.12536 0.01057,0.22936 0.00644,0.35473c0.11357,0.00892 0.22713,0.01782 0.34069,0.02674c0.02071,-0.11836 0.04621,-0.2249 0.06692,-0.34325c-0.14195,-0.01114 -0.2721,-0.02705 -0.41405,-0.0382zM304.46129,227.75659c-0.11836,-0.02071 -0.22012,-0.03441 -0.31709,-0.0363c-0.02071,0.11835 -0.03663,0.24851 -0.06436,0.38344c0.12057,-0.00768 0.24116,-0.01537 0.37833,-0.01602c-0.0029,-0.10879 -0.0058,-0.21756 0.00311,-0.33112zM316.88412,222.26397c0.00413,-0.12537 0.01781,-0.22713 0.04555,-0.36207c-0.10877,0.0029 -0.20574,0.00099 -0.31453,0.00389c-0.00189,0.09697 -0.00857,0.18215 -0.01748,0.29571c0.08996,0.01848 0.17992,0.03696 0.28647,0.06246zM303.25068,220.97721c-0.00892,0.11357 -0.01081,0.21054 -0.01493,0.3359c0.09697,0.00189 0.17737,-0.00322 0.27434,-0.00133c0.0137,-0.10177 0.02038,-0.18694 0.03408,-0.2887c-0.10177,-0.0137 -0.17993,-0.03696 -0.29349,-0.04588zM316.42367,224.8559c0.08996,0.01848 0.16811,0.04176 0.27689,0.03886c-0.00289,-0.10878 0.01081,-0.21054 0.01972,-0.3241c-0.09218,0.0099 -0.17257,0.01501 -0.26954,0.01312c-0.01369,0.10177 -0.02038,0.18694 -0.02706,0.27211zM303.12646,223.65266c-0.0137,0.10177 -0.02038,0.18694 -0.0293,0.3005c0.08038,-0.00512 0.14897,-0.00546 0.22935,-0.01057c-0.00511,-0.08039 0.00636,-0.15377 0.01304,-0.23894c-0.07337,-0.01146 -0.13493,-0.02772 -0.2131,-0.05098zM310.96467,229.62656c-0.06859,0.00033 -0.12536,-0.00413 -0.19395,-0.00379c-0.00924,0.04499 -0.02549,0.10655 -0.04175,0.16812c0.07336,0.01146 0.14673,0.02294 0.23191,0.02962c-0.00034,-0.06858 0.00414,-0.12535 0.0038,-0.19394zM308.05802,229.6099c0.08517,0.00668 0.15375,0.00635 0.23892,0.01302c0.05834,-0.16111 -0.03161,-0.17958 -0.18059,-0.17413c-0.02583,0.03797 -0.03507,0.08294 -0.05835,0.1611zM307.62344,217.52676c0.05422,-0.03574 0.12025,-0.07627 0.18627,-0.11678c-0.00959,-0.02361 -0.01436,-0.03541 -0.02394,-0.05901c-0.06156,-0.01626 -0.13493,-0.02774 -0.2083,-0.0392c0.00032,0.06859 0.00289,0.10878 -0.00156,0.16556c0.02137,0.01882 0.02616,0.03063 0.04753,0.04945z"/><path d="M310.25135,232.7471c0.43667,-0.17713 0.91776,0.0263 1.0901,0.45117c0.18414,0.42009 -0.0263,0.91776 -0.45117,1.0901c-0.42008,0.18414 -0.91776,-0.0263 -1.0901,-0.45117c-0.17712,-0.43667 0.01451,-0.91297 0.45118,-1.09009z"/><path d="M308.73206,233.03353c0.17712,0.43668 -0.0381,0.92254 -0.46776,1.08308c-0.42487,0.17235 -0.91075,-0.04288 -1.08308,-0.46775c-0.17235,-0.42487 0.04288,-0.91075 0.46775,-1.08309c0.43667,-0.17712 0.90597,0.03109 1.08309,0.46776z"/><path d="M301.10659,227.04204c0.02873,0.07082 0.07627,0.12024 0.112,0.17447c0.16978,0.38468 0.03239,0.82523 -0.32134,1.03743c-0.36552,0.21698 -0.81054,0.13638 -1.07696,-0.18161c-0.26643,-0.31798 -0.24737,-0.77927 0.02786,-1.08331c0.28003,-0.29225 0.74096,-0.34178 1.08265,-0.1093c0.05455,0.03285 0.10433,0.05388 0.15888,0.08674c0.00958,0.0236 0.00734,0.052 0.01693,0.07559z"/><path d="M318.49201,228.05757c0.41306,-0.16755 0.88234,0.04067 1.04289,0.47032c0.16755,0.41307 -0.04067,0.88234 -0.45373,1.04989c-0.41785,0.15575 -0.88713,-0.05247 -1.05468,-0.46553c-0.15574,-0.41785 0.05248,-0.88713 0.46554,-1.05468z"/><path d="M300.3353,220.63422c0.16755,0.41306 -0.03364,0.86576 -0.45851,1.03809c-0.41306,0.16755 -0.86575,-0.03366 -1.0333,-0.44672c-0.15575,-0.41786 0.04546,-0.87054 0.45851,-1.03809c0.41306,-0.16755 0.86575,0.03366 1.0333,0.44672z"/><path d="M302.26928,215.13565c0.40828,-0.17936 0.87277,0.01707 1.04032,0.43013c0.16276,0.40126 -0.01707,0.87277 -0.43013,1.04032c-0.41307,0.16756 -0.87277,-0.01705 -1.04032,-0.43012c-0.16755,-0.41307 0.01706,-0.87278 0.43012,-1.04033z"/><path d="M300.15877,223.24842c0.16755,0.41307 -0.02886,0.87757 -0.44192,1.04512c-0.41306,0.16755 -0.87756,-0.02886 -1.04511,-0.44192c-0.16755,-0.41306 0.02886,-0.87756 0.44192,-1.04511c0.41306,-0.16755 0.87756,0.02886 1.04511,0.44192z"/><path d="M304.70146,214.35524c0.17935,0.40828 -0.01707,0.87278 -0.43013,1.04033c-0.40126,0.16276 -0.87755,-0.02887 -1.0451,-0.44193c-0.16755,-0.41306 0.02887,-0.87756 0.44193,-1.04511c0.41306,-0.16755 0.87276,0.01706 1.0333,0.44671z"/><path d="M318.58605,217.68415c-0.40605,0.15097 -0.87054,-0.04545 -1.0333,-0.44671c-0.15575,-0.41786 0.04544,-0.87054 0.44671,-1.03331c0.40605,-0.15097 0.85875,0.05023 1.02151,0.4515c0.16276,0.40126 -0.04546,0.87054 -0.43492,1.02852z"/><path d="M316.76531,214.82185c0.41307,-0.16755 0.87278,0.01705 1.02853,0.4349c0.16276,0.40126 -0.05024,0.85874 -0.4515,1.02151c-0.40127,0.16277 -0.84918,-0.02663 -1.01194,-0.4279c-0.16276,-0.40126 0.03364,-0.86575 0.43491,-1.02852z"/><path d="M321.08673,224.69613c0.16276,0.40126 -0.02184,0.86096 -0.45149,1.02151c-0.40127,0.16277 -0.84918,-0.02663 -1.01195,-0.4279c-0.16755,-0.41306 0.02185,-0.86097 0.43491,-1.02852c0.41306,-0.16755 0.86097,0.02185 1.02852,0.43491z"/><path d="M301.88234,216.79069c0.16276,0.40126 -0.02664,0.84918 -0.42791,1.01194c-0.38946,0.15797 -0.84916,-0.02664 -1.00714,-0.4161c-0.15798,-0.38947 0.02662,-0.84918 0.42789,-1.01194c0.40126,-0.16276 0.86098,0.02185 1.00716,0.4161z"/><path d="M305.62615,233.88105c-0.40127,0.16277 -0.84917,-0.02663 -1.01193,-0.4279c-0.15798,-0.38946 0.03143,-0.83736 0.4161,-1.00714c0.40126,-0.16276 0.86097,0.02184 1.02373,0.42311c0.15798,0.38947 -0.02663,0.84918 -0.42789,1.01194z"/><path d="M319.82342,222.66598c-0.16276,-0.40126 0.01483,-0.84438 0.41609,-1.00715c0.40126,-0.16276 0.84439,0.01483 1.01416,0.39951c0.15798,0.38946 -0.01483,0.84438 -0.4113,1.01895c-0.40126,0.16276 -0.84439,-0.01484 -1.01895,-0.41132z"/><path d="M318.81304,218.65034c-0.16978,-0.38468 0.01484,-0.84438 0.39951,-1.01416c0.38468,-0.16978 0.83258,0.01961 1.00236,0.40429c0.16978,0.38467 -0.00782,0.8278 -0.3925,0.99758c-0.39648,0.17457 -0.83481,0.00877 -1.00937,-0.38771z"/><path d="M313.46874,234.41068c-0.37766,0.15319 -0.83736,-0.03142 -0.99534,-0.42088c-0.15798,-0.38946 0.0244,-0.82077 0.40908,-0.99056c0.39648,-0.17457 0.84438,0.01483 1.00236,0.40429c0.16276,0.40126 -0.01483,0.84438 -0.4161,1.00715z"/><path d="M306.06494,213.14249c0.15798,0.38946 -0.01961,0.83257 -0.42088,0.99534c-0.38946,0.15797 -0.83738,-0.03142 -0.99535,-0.42088c-0.15798,-0.38947 0.02441,-0.82079 0.40908,-0.99057c0.38946,-0.15797 0.84916,0.02663 1.00714,0.4161z"/><path d="M310.08278,212.1037c0.15319,0.37766 -0.0362,0.82556 -0.42087,0.99534c-0.38245,0.14139 -0.83035,-0.048 -0.98354,-0.42567c-0.14139,-0.38244 0.0362,-0.82557 0.41386,-0.97876c0.38946,-0.15797 0.83259,0.01962 0.99057,0.40909z"/><path d="M311.31616,212.84034c-0.15798,-0.38947 0.0362,-0.82557 0.40908,-0.99057c0.38245,-0.14139 0.82556,0.0362 0.97876,0.41387c0.15798,0.38946 -0.03142,0.83737 -0.40908,0.99056c-0.37766,0.1532 -0.82077,-0.02441 -0.97875,-0.41387z"/><path d="M299.9446,225.90537c0.15319,0.37767 -0.041,0.81377 -0.43046,0.97175c-0.38245,0.14138 -0.81376,-0.04099 -0.96696,-0.41866c-0.15319,-0.37766 0.02441,-0.82078 0.41387,-0.97876c0.38946,-0.15798 0.82079,0.02441 0.98355,0.42567z"/><path d="M315.15046,214.43235c-0.16276,-0.40126 0.02441,-0.82079 0.41866,-0.96697c0.38946,-0.15798 0.80898,0.0292 0.96696,0.41866c0.15319,0.37767 -0.02919,0.80898 -0.40685,0.96217c-0.38946,0.15797 -0.82078,-0.02441 -0.97876,-0.41387z"/><path d="M319.49395,227.8848c-0.15798,-0.38946 0.02441,-0.82078 0.40206,-0.97397c0.37766,-0.1532 0.79239,0.02217 0.95738,0.39505c0.16501,0.37287 -0.01261,0.81599 -0.39026,0.96918c-0.38468,0.16979 -0.81599,-0.01261 -0.96918,-0.39026z"/><path d="M300.45284,218.04395c0.1366,0.37064 -0.03876,0.78537 -0.37623,0.936c-0.37287,0.16501 -0.80418,-0.01738 -0.95738,-0.39504c-0.15319,-0.37766 0.02218,-0.79238 0.38804,-0.94079c0.37765,-0.15319 0.79237,0.02217 0.94557,0.39984z"/><path d="M309.45536,235.39267c-0.36586,0.1484 -0.7758,-0.01516 -0.9242,-0.38101c-0.1602,-0.36107 0.00337,-0.77101 0.36444,-0.93122c0.36107,-0.16019 0.78759,0.01038 0.936,0.37624c0.14841,0.36586 -0.01516,0.77579 -0.37623,0.93599z"/><path d="M320.447,219.08707c0.37766,-0.15319 0.78759,0.01038 0.94078,0.38804c0.14839,0.36586 -0.01517,0.77579 -0.38102,0.92419c-0.37766,0.15319 -0.78759,-0.01038 -0.94078,-0.38804c-0.16021,-0.36106 0.00336,-0.77101 0.38102,-0.92419z"/><path d="M315.2522,212.48071c0.14839,0.36587 -0.00816,0.75921 -0.37401,0.90761c-0.35405,0.14362 -0.7474,-0.01294 -0.89102,-0.36699c-0.14362,-0.35405 0.02473,-0.75219 0.3622,-0.90282c0.34926,-0.15542 0.7592,0.00816 0.90282,0.36221z"/><path d="M307.0142,212.83988c-0.35405,0.14362 -0.75219,-0.02473 -0.9006,-0.39059c-0.13883,-0.34225 0.02953,-0.74039 0.38358,-0.88401c0.35405,-0.14362 0.7522,0.02474 0.89103,0.367c0.1602,0.36107 -0.01996,0.76399 -0.37401,0.90761z"/><path d="M306.28616,233.9157c0.35406,-0.14362 0.75221,0.02474 0.89103,0.36699c0.14362,0.35406 -0.01996,0.764 -0.37401,0.90762c-0.34224,0.13882 -0.7474,-0.01295 -0.89102,-0.367c-0.14839,-0.36586 0.01996,-0.76399 0.37401,-0.90761z"/><path d="M300.01198,229.56135c0.33746,-0.15063 0.7356,0.01773 0.87922,0.37178c0.13883,0.34225 -0.01772,0.7356 -0.35997,0.87444c-0.33746,0.15063 -0.7356,-0.01773 -0.87922,-0.37178c-0.14362,-0.35406 0.01772,-0.7356 0.35997,-0.87444z"/><path d="M311.54773,234.28282c0.34225,-0.13884 0.72381,0.0225 0.87444,0.35997c0.15542,0.34927 -0.01293,0.7474 -0.36698,0.89102c-0.34226,0.13882 -0.73562,-0.01773 -0.87444,-0.35998c-0.15542,-0.34927 0.01295,-0.7474 0.36699,-0.89102z"/><path d="M298.81363,221.89742c0.13883,0.34225 -0.0225,0.7238 -0.35997,0.87444c-0.35405,0.14362 -0.74741,-0.01294 -0.89103,-0.36699c-0.13883,-0.34225 0.01773,-0.7356 0.35998,-0.87444c0.34927,-0.15542 0.7592,0.00814 0.89102,0.36699z"/><path d="M301.25091,230.95544c0.34225,-0.13884 0.7404,0.02953 0.87922,0.37178c0.13882,0.34225 -0.02954,0.7404 -0.38358,0.88402c-0.35406,0.14362 -0.7522,-0.02474 -0.88401,-0.38359c-0.12703,-0.34705 0.04612,-0.73337 0.38837,-0.87221z"/><path d="M322.01459,224.37473c-0.33045,0.13404 -0.7286,-0.03431 -0.86264,-0.36477c-0.13883,-0.34225 0.02251,-0.72381 0.34818,-0.86965c0.34226,-0.13882 0.73561,0.01773 0.87444,0.35998c0.14362,0.35406 -0.02953,0.7404 -0.35998,0.87444z"/><path d="M317.83189,232.39348c0.13883,0.34225 -0.02952,0.74039 -0.37178,0.87923c-0.34226,0.13883 -0.72382,-0.02252 -0.86264,-0.36477c-0.15063,-0.33747 0.02252,-0.72379 0.36477,-0.86263c0.34225,-0.13884 0.7238,0.0225 0.86965,0.34817z"/><path d="M317.99636,231.68079c-0.13404,-0.33045 0.02729,-0.712 0.36476,-0.86263c0.35406,-0.14362 0.7404,0.02953 0.87923,0.37178c0.12224,0.33524 -0.03911,0.7168 -0.38137,0.85563c-0.34226,0.13884 -0.72379,-0.02251 -0.86262,-0.36477z"/><path d="M297.40969,225.0095c-0.13404,-0.33046 0.02729,-0.71201 0.35296,-0.85786c0.33046,-0.13404 0.71201,0.0273 0.84605,0.35775c0.13883,0.34226 -0.02252,0.7238 -0.36477,0.86264c-0.33045,0.13404 -0.7002,-0.03209 -0.83424,-0.36254z"/><path d="M316.05644,234.48802c-0.33046,0.13404 -0.71201,-0.0273 -0.85084,-0.36955c-0.13404,-0.33046 0.0321,-0.7002 0.36255,-0.83424c0.33046,-0.13404 0.71201,0.0273 0.84605,0.35775c0.12926,0.31866 -0.02731,0.71201 -0.35776,0.84605z"/><path d="M302.11805,233.22876c-0.13404,-0.33045 0.01549,-0.70721 0.34116,-0.85306c0.34226,-0.13883 0.70722,0.01548 0.85306,0.34115c0.13882,0.34225 -0.00593,0.73082 -0.34818,0.86966c-0.33046,0.13404 -0.71201,-0.0273 -0.84605,-0.35775z"/><path d="M321.34276,225.80173c0.33045,-0.13404 0.72381,0.02251 0.84605,0.35775c0.11744,0.32344 -0.04868,0.69318 -0.36733,0.82243c-0.33524,0.12223 -0.70498,-0.04388 -0.83424,-0.36254c-0.12926,-0.31866 0.03208,-0.7002 0.35552,-0.81765z"/><path d="M298.13233,218.93026c0.31865,-0.12926 0.69541,0.02028 0.82945,0.35073c0.13404,0.33046 -0.03209,0.70021 -0.36254,0.83425c-0.33045,0.13404 -0.69541,-0.02029 -0.82945,-0.35074c-0.12223,-0.33524 0.03209,-0.7002 0.36254,-0.83424z"/><path d="M298.81101,228.19309c0.33045,-0.13404 0.6954,0.02027 0.82466,0.33893c0.14585,0.32567 -0.00369,0.70244 -0.33414,0.83648c-0.32567,0.14586 -0.70721,-0.01549 -0.84125,-0.34595c-0.13403,-0.33044 0.02029,-0.69541 0.35073,-0.82945z"/><path d="M322.17679,221.72512c-0.32344,0.11745 -0.6884,-0.03688 -0.82466,-0.33894c-0.12926,-0.31865 0.02028,-0.6954 0.33893,-0.82465c0.33045,-0.13404 0.69541,0.02028 0.82945,0.35073c0.13404,0.33045 -0.02507,0.68361 -0.34373,0.81287z"/><path d="M320.592,229.98197c0.13404,0.33045 -0.02506,0.68361 -0.34372,0.81286c-0.31865,0.12926 -0.6836,-0.02506 -0.81286,-0.34371c-0.13404,-0.33045 0.02729,-0.712 0.35073,-0.82945c0.32344,-0.11745 0.6766,0.04165 0.80586,0.3603z"/><path d="M311.35186,210.92923c0.14105,0.31386 -0.00849,0.69063 -0.33893,0.82467c-0.31865,0.12926 -0.68361,-0.02506 -0.81287,-0.34372c-0.12926,-0.31865 0.02508,-0.6836 0.34373,-0.81286c0.33045,-0.13405 0.69062,0.00847 0.80807,0.33191z"/><path d="M301.92905,214.22914c0.12926,0.31866 -0.02507,0.68362 -0.34372,0.81287c-0.32344,0.11746 -0.6766,-0.04166 -0.80107,-0.34851c-0.12926,-0.31866 0.01806,-0.66702 0.33671,-0.79628c0.31865,-0.12926 0.67181,0.02985 0.80808,0.33192z"/><path d="M319.45832,215.15883c0.31865,-0.12926 0.66703,0.01805 0.79628,0.3367c0.14105,0.31386 -0.02028,0.69542 -0.34372,0.81287c-0.32344,0.11745 -0.6766,-0.04166 -0.80107,-0.34851c-0.11746,-0.32344 0.02987,-0.67181 0.34851,-0.80106z"/><path d="M302.52463,212.68189c0.30686,-0.12447 0.67181,0.02986 0.79628,0.33671c0.12926,0.31865 -0.02986,0.6718 -0.3485,0.80106c-0.32344,0.11746 -0.66001,-0.03464 -0.78927,-0.35329c-0.12447,-0.30685 0.02984,-0.67181 0.34149,-0.78447z"/><path d="M299.3972,215.91583c-0.12447,-0.30685 0.02285,-0.65522 0.34149,-0.78447c0.30685,-0.12446 0.67659,0.04165 0.78926,0.35329c0.11266,0.31163 -0.03464,0.66001 -0.34628,0.77267c-0.31164,0.11266 -0.66,-0.03464 -0.78447,-0.34149z"/><path d="M308.40094,211.54897c-0.30207,0.13627 -0.65043,-0.01104 -0.7867,-0.31311c-0.14105,-0.31387 0.01326,-0.67882 0.32011,-0.80329c0.30685,-0.12447 0.66703,0.01806 0.7915,0.32491c0.12446,0.30685 -0.02285,0.65522 -0.32491,0.79149z"/><path d="M319.02747,214.09665c0.12447,0.30685 -0.02283,0.65523 -0.32968,0.7797c-0.31865,0.12924 -0.66701,-0.01807 -0.79148,-0.32492c-0.12447,-0.30685 0.02283,-0.65522 0.32968,-0.77969c0.31865,-0.12924 0.66702,0.01806 0.79149,0.32491z"/><path d="M313.17934,210.79266c0.29505,-0.11968 0.65521,0.02284 0.79148,0.32491c0.13626,0.30206 -0.02985,0.67181 -0.3367,0.79628c-0.31164,0.11266 -0.66001,-0.03464 -0.78447,-0.34149c-0.12446,-0.30685 0.02285,-0.65522 0.3297,-0.77969z"/><path d="M303.7125,233.80519c0.31865,-0.12926 0.65521,0.02285 0.77968,0.3297c0.12926,0.31865 -0.01104,0.65042 -0.32969,0.77968c-0.31865,0.12926 -0.65044,-0.01103 -0.77969,-0.32968c-0.12446,-0.30685 0.02285,-0.65522 0.3297,-0.77969z"/><path d="M314.62405,235.63253c-0.30685,0.12446 -0.63862,-0.01583 -0.77011,-0.30609c-0.12447,-0.30686 0.02284,-0.65523 0.31788,-0.7749c0.30686,-0.12447 0.65523,0.02284 0.7749,0.31789c0.11969,0.29505 -0.01582,0.63863 -0.32267,0.7631z"/><path d="M321.44154,216.89696c0.12447,0.30685 -0.01104,0.65044 -0.31789,0.77491c-0.30207,0.13627 -0.64564,0.00077 -0.77011,-0.30608c-0.12447,-0.30685 0.01104,-0.65043 0.31789,-0.7749c0.30207,-0.13627 0.65044,0.01103 0.77011,0.30608z"/><path d="M297.62665,226.83185c0.29505,-0.11969 0.63163,0.03241 0.75131,0.32746c0.11967,0.29505 -0.03242,0.63163 -0.32747,0.7513c-0.31164,0.11267 -0.62684,-0.02061 -0.75131,-0.32746c-0.11967,-0.29505 0.02062,-0.62683 0.32747,-0.75131z"/><path d="M304.36872,212.55236c-0.29505,0.11968 -0.62684,-0.02061 -0.74651,-0.31566c-0.11967,-0.29505 0.02062,-0.62683 0.31567,-0.74651c0.29505,-0.11968 0.62684,0.02061 0.74651,0.31566c0.12447,0.30685 -0.02062,0.62683 -0.31567,0.74651z"/><path d="M317.77675,212.70736c0.11967,0.29505 -0.02062,0.62683 -0.31566,0.7465c-0.29505,0.11968 -0.62684,-0.02061 -0.74651,-0.31566c-0.11967,-0.29504 0.02062,-0.62683 0.31566,-0.74651c0.29505,-0.11968 0.62684,0.02061 0.74651,0.31566z"/><path d="M308.30767,235.74826c0.11266,0.31164 -0.03242,0.63163 -0.32747,0.7513c-0.29505,0.11969 -0.63163,-0.03241 -0.75131,-0.32746c-0.11967,-0.29505 0.03242,-0.63163 0.32747,-0.7513c0.30685,-0.12447 0.62684,0.02061 0.75131,0.32746z"/><path d="M310.91708,235.913c0.11967,0.29505 -0.02062,0.62684 -0.31566,0.74652c-0.29505,0.11968 -0.62685,-0.02061 -0.74652,-0.31566c-0.11967,-0.29505 0.02062,-0.62685 0.31567,-0.74652c0.30685,-0.12447 0.63864,0.01583 0.74652,0.31566z"/><path d="M321.61142,229.5135c-0.27846,0.1267 -0.62205,-0.0088 -0.73694,-0.29205c-0.11967,-0.29504 0.00881,-0.62205 0.30386,-0.74173c0.27846,-0.1267 0.62205,0.0088 0.73694,0.29205c0.13148,0.29026 -0.00881,0.62205 -0.30386,0.74173z"/><path d="M298.75885,217.42544c-0.28325,0.1149 -0.61023,-0.01359 -0.72512,-0.29684c-0.1149,-0.28325 0.01358,-0.61024 0.29683,-0.72513c0.29505,-0.11969 0.61024,0.01358 0.72514,0.29683c0.11489,0.28325 -0.0136,0.61025 -0.29685,0.72514z"/><path d="M296.59522,222.866c0.27143,-0.11011 0.59364,0.00657 0.70854,0.28983c0.1101,0.27144 -0.02317,0.58664 -0.28983,0.70854c-0.27144,0.1101 -0.59365,-0.00658 -0.70855,-0.28983c-0.11489,-0.28323 0.00658,-0.59365 0.28983,-0.70854z"/><path d="M296.48894,220.94374c-0.12669,-0.27846 0.01136,-0.58184 0.28983,-0.70853c0.28325,-0.11489 0.59843,0.01838 0.71333,0.30163c0.0983,0.27623 -0.02317,0.58664 -0.29462,0.69674c-0.28325,0.11489 -0.59364,-0.00657 -0.70853,-0.28983z"/><path d="M321.62786,218.74552c-0.11489,-0.28326 0.00659,-0.59367 0.27324,-0.71557c0.27145,-0.11011 0.60323,0.03019 0.71333,0.30164c0.1101,0.27144 -0.01616,0.57005 -0.28281,0.69196c-0.27846,0.1267 -0.58886,0.00522 -0.70375,-0.27803z"/><path d="M305.34887,210.32686c0.25964,-0.10532 0.57484,0.02796 0.69196,0.28281c0.1101,0.27143 -0.01615,0.57004 -0.27101,0.68716c-0.26666,0.1219 -0.59366,-0.00659 -0.70376,-0.27803c-0.11712,-0.25485 0.01137,-0.58184 0.28282,-0.69195z"/><path d="M323.17249,225.63677c-0.27143,0.1101 -0.57483,-0.02797 -0.68015,-0.28761c-0.10532,-0.25964 0.02796,-0.57483 0.2994,-0.68493c0.27143,-0.1101 0.57483,0.02796 0.68493,0.29941c0.10309,0.28804 -0.02317,0.58664 -0.30419,0.67314z"/><path d="M305.37047,236.26623c-0.27143,0.1101 -0.58664,-0.02318 -0.69674,-0.29462c-0.1101,-0.27143 0.00435,-0.56526 0.27101,-0.68716c0.26666,-0.1219 0.58186,0.01137 0.69196,0.28281c0.1101,0.27143 -0.01137,0.58184 -0.26622,0.69896z"/><path d="M316.21004,211.99597c-0.27144,0.1101 -0.55826,-0.02094 -0.66836,-0.29238c-0.10532,-0.25964 0.02095,-0.55824 0.28059,-0.66356c0.25964,-0.10532 0.57484,0.02796 0.68016,0.2876c0.1101,0.27143 -0.01616,0.57004 -0.29239,0.66834z"/><path d="M313.48886,236.1205c0.1101,0.27144 -0.03275,0.56302 -0.29718,0.65654c-0.27145,0.11011 -0.57005,-0.01615 -0.66835,-0.29238c-0.10532,-0.25964 0.02574,-0.54645 0.28538,-0.65177c0.27143,-0.11011 0.57483,0.02796 0.68015,0.2876z"/><path d="M323.64141,222.35423c0.09352,0.26442 -0.03274,0.56303 -0.30897,0.66133c-0.25964,0.10532 -0.54645,-0.02573 -0.65177,-0.28537c-0.1101,-0.27144 0.02095,-0.55824 0.29239,-0.66835c0.27143,-0.1101 0.57482,0.02797 0.66834,0.29239z"/><path d="M296.43302,225.51561c0.24784,-0.10054 0.54645,0.02573 0.65878,0.26879c0.10053,0.24784 -0.01873,0.52985 -0.26178,0.64219c-0.26665,0.1219 -0.56047,0.00744 -0.66579,-0.2522c-0.10532,-0.25964 0.00914,-0.55346 0.26878,-0.65878z"/><path d="M299.32709,231.22727c0.10053,0.24784 -0.01872,0.52987 -0.27836,0.63519c-0.24784,0.10053 -0.52986,-0.01873 -0.63039,-0.26657c-0.10532,-0.25962 0.02574,-0.54644 0.27358,-0.64697c0.24784,-0.10054 0.54165,0.01393 0.63517,0.27835z"/><path d="M322.35118,227.949c-0.10053,-0.24784 0.02574,-0.54644 0.27358,-0.64697c0.23604,-0.09574 0.51806,0.02351 0.63039,0.26656c0.10532,0.25964 -0.00915,0.55346 -0.25698,0.65399c-0.25486,0.11712 -0.55346,-0.00916 -0.64698,-0.27358z"/><path d="M309.74495,210.22042c-0.24784,0.10053 -0.52987,-0.01872 -0.6304,-0.26656c-0.10053,-0.24784 0.03053,-0.53464 0.27837,-0.63517c0.24784,-0.10053 0.53465,0.03053 0.63518,0.27836c0.10053,0.24784 -0.03052,0.53464 -0.28314,0.62337z"/><path d="M312.00711,209.49522c0.24784,-0.10053 0.54166,0.01394 0.64698,0.27358c0.10053,0.24784 -0.03053,0.53464 -0.27837,0.63517c-0.24784,0.10054 -0.52986,-0.01872 -0.63039,-0.26655c-0.11233,-0.24305 0.01394,-0.54166 0.26178,-0.64219z"/><path d="M299.90724,232.35258c0.24784,-0.10053 0.54165,0.01393 0.6256,0.25475c0.11712,0.25484 -0.00213,0.53686 -0.26177,0.64218c-0.24784,0.10053 -0.52507,-0.00692 -0.6256,-0.25475c-0.10053,-0.24784 0.00214,-0.53686 0.26178,-0.64218z"/><path d="M318.87496,233.88074c0.09575,0.23603 -0.02351,0.51805 -0.25954,0.6138c-0.24784,0.10054 -0.52506,-0.00692 -0.62559,-0.25476c-0.10053,-0.24784 0.01872,-0.52986 0.26656,-0.63039c0.23602,-0.09573 0.52283,0.03532 0.61857,0.27135z"/><path d="M297.34305,218.57696c-0.23604,0.09574 -0.51806,-0.02349 -0.62081,-0.24295c-0.11233,-0.24305 0.00213,-0.53688 0.24997,-0.63741c0.24784,-0.10053 0.52986,0.01873 0.63039,0.26656c0.10053,0.24784 -0.0117,0.51327 -0.25954,0.61379z"/><path d="M319.64825,232.39885c0.24784,-0.10053 0.52506,0.00692 0.62559,0.25476c0.10053,0.24784 -0.01872,0.52986 -0.26655,0.63039c-0.23602,0.09574 -0.51805,-0.0235 -0.61379,-0.25953c-0.10756,-0.23125 0.00692,-0.52507 0.25475,-0.6256z"/><path d="M316.85751,234.83653c0.23604,-0.09574 0.50146,0.0165 0.5972,0.25253c0.09575,0.23603 -0.0235,0.51805 -0.25954,0.6138c-0.23604,0.09574 -0.51103,-0.04011 -0.60678,-0.27614c-0.07916,-0.22903 0.03309,-0.49445 0.26912,-0.59019z"/><path d="M322.9044,220.09685c-0.09575,-0.23603 0.02351,-0.51805 0.25253,-0.5972c0.23604,-0.09574 0.51326,0.0117 0.61379,0.25953c0.09575,0.23603 -0.01649,0.50145 -0.26432,0.60198c-0.24082,0.08394 -0.50624,-0.02829 -0.60199,-0.26432z"/><path d="M298.08338,229.82139c0.09575,0.23603 -0.01169,0.51327 -0.25731,0.58541c-0.24305,0.11234 -0.50848,0.00009 -0.60901,-0.24775c-0.09575,-0.23603 0.01649,-0.50146 0.26433,-0.60199c0.24082,-0.08395 0.50624,0.02829 0.60199,0.26432z"/><path d="M301.49341,234.63659c-0.23604,0.09574 -0.50145,-0.0165 -0.5972,-0.25253c-0.09575,-0.23603 0.00468,-0.49667 0.23594,-0.60422c0.24784,-0.10053 0.52506,0.00693 0.62081,0.24296c0.09573,0.23603 -0.01171,0.51326 -0.25955,0.61379z"/><path d="M320.80417,231.79254c-0.09575,-0.23603 0.01649,-0.50146 0.22893,-0.58763c0.23602,-0.09573 0.51326,0.01171 0.609,0.24774c0.09575,0.23603 -0.0283,0.50625 -0.25253,0.59721c-0.22902,0.07916 -0.49444,-0.03308 -0.5854,-0.25731z"/><path d="M309.41198,237.1832c0.10755,0.23126 -0.0047,0.49667 -0.24073,0.59242c-0.23604,0.09574 -0.50145,-0.01649 -0.5972,-0.25253c-0.09096,-0.22423 0.00948,-0.48486 0.24552,-0.58061c0.23125,-0.10755 0.48487,0.00946 0.59242,0.24072z"/><path d="M307.3619,209.42786c0.09096,0.22423 -0.02127,0.48965 -0.24551,0.58061c-0.22424,0.09096 -0.47307,-0.01427 -0.56403,-0.23851c-0.09096,-0.22423 0.02127,-0.48965 0.24551,-0.58061c0.21244,-0.08617 0.47306,0.01427 0.56402,0.2385z"/><path d="M314.64045,209.71898c0.21244,-0.08617 0.47306,0.01426 0.56402,0.2385c0.09096,0.22423 -0.02126,0.48965 -0.2455,0.58061c-0.22424,0.09096 -0.47307,-0.01426 -0.56403,-0.2385c-0.09096,-0.22423 0.02127,-0.48965 0.24551,-0.58061z"/><path d="M302.15393,235.75678c-0.09096,-0.22424 0.01427,-0.47307 0.23851,-0.56402c0.21244,-0.08617 0.46127,0.01905 0.54744,0.23149c0.09096,0.22423 -0.01426,0.47306 -0.2385,0.56402c-0.22424,0.09096 -0.47307,-0.01426 -0.54744,-0.23149z"/><path d="M300.2864,213.46611c-0.22424,0.09096 -0.46127,-0.01905 -0.54744,-0.23148c-0.09096,-0.22424 0.01426,-0.47307 0.2385,-0.56403c0.22424,-0.09096 0.47787,0.02606 0.55702,0.25508c0.08618,0.21243 -0.02384,0.44947 -0.24808,0.54042z"/><path d="M311.77588,237.92856c-0.22423,0.09096 -0.46127,-0.01905 -0.55223,-0.24328c-0.08617,-0.21244 0.01426,-0.47307 0.2385,-0.56403c0.22424,-0.09096 0.46606,0.03086 0.55702,0.25509c0.07916,0.22903 -0.01905,0.46127 -0.24329,0.55222z"/><path d="M320.68349,214.68935c-0.09096,-0.22424 0.00947,-0.48488 0.23371,-0.57584c0.21244,-0.08617 0.47785,0.02607 0.56402,0.23851c0.07437,0.21723 -0.03084,0.46606 -0.24328,0.55223c-0.21244,0.08617 -0.46127,-0.01904 -0.55445,-0.2149z"/><path d="M306.5427,237.56368c-0.20765,0.09797 -0.46349,0.00934 -0.57104,-0.22191c-0.10275,-0.21946 -0.00233,-0.48009 0.22191,-0.57104c0.21244,-0.08617 0.46126,0.01905 0.55924,0.2267c0.10276,0.21945 -0.00245,0.46829 -0.2101,0.56626z"/><path d="M301.92378,211.67495c0.09096,0.22424 -0.01426,0.47307 -0.2385,0.56403c-0.21244,0.08617 -0.46127,-0.01906 -0.54744,-0.23149c-0.09096,-0.22423 0.01426,-0.47306 0.2385,-0.56402c0.21244,-0.08617 0.46127,0.01905 0.54744,0.23148z"/><path d="M315.2345,236.66309c-0.09096,-0.22424 0.01426,-0.47308 0.2267,-0.55925c0.21244,-0.08617 0.46127,0.01905 0.54744,0.23148c0.08617,0.21244 -0.00725,0.45648 -0.21969,0.54265c-0.21244,0.08617 -0.45647,-0.00724 -0.55445,-0.21489z"/><path d="M319.70187,212.70986c0.20064,-0.08139 0.44468,0.01203 0.54266,0.21968c0.10276,0.21946 -0.00245,0.46828 -0.2149,0.55445c-0.21244,0.08617 -0.45648,-0.00725 -0.54265,-0.21968c-0.08617,-0.21244 0.00724,-0.45649 0.21489,-0.55445z"/><path d="M299.12124,214.11739c0.08138,0.20063 -0.01204,0.44469 -0.21969,0.54265c-0.20765,0.09796 -0.45168,0.00456 -0.54966,-0.20309c-0.09796,-0.20765 -0.00455,-0.45171 0.2031,-0.54967c0.20765,-0.09797 0.46828,0.00245 0.56626,0.21011z"/><path d="M295.41596,221.58513c0.20765,-0.09796 0.43989,0.00023 0.53787,0.20789c0.10276,0.21946 0.00935,0.4635 -0.21489,0.55446c-0.21244,0.08617 -0.45649,-0.00725 -0.54266,-0.21969c-0.08617,-0.21244 0.00724,-0.45649 0.21968,-0.54266z"/><path d="M324.76933,223.7796c0.08617,0.21244 -0.00725,0.45648 -0.21969,0.54265c-0.21244,0.08617 -0.44947,-0.02384 -0.53085,-0.22447c-0.08617,-0.21244 0.01204,-0.44469 0.21267,-0.52607c0.19585,-0.09318 0.42809,0.00503 0.53787,0.20789z"/><path d="M296.58457,228.97251c-0.20063,0.08138 -0.43767,-0.02862 -0.53085,-0.22447c-0.08138,-0.20063 0.02383,-0.44947 0.22447,-0.53085c0.21244,-0.08617 0.44948,0.02383 0.53564,0.23627c0.08617,0.21244 -0.01682,0.43288 -0.22926,0.51906z"/><path d="M321.91284,216.05983c-0.08138,-0.20063 0.02384,-0.44948 0.22447,-0.53086c0.21244,-0.08617 0.46128,0.01904 0.53564,0.23627c0.08617,0.21244 -0.01682,0.43288 -0.22926,0.51906c-0.20064,0.08139 -0.43767,-0.02862 -0.53085,-0.22447z"/><path d="M302.55809,210.79918c-0.08138,-0.20064 0.01682,-0.43289 0.21268,-0.52607c0.22424,-0.09096 0.45649,0.00724 0.54266,0.21968c0.08138,0.20064 -0.00502,0.4281 -0.21747,0.51427c-0.21244,0.08617 -0.44469,-0.01202 -0.53787,-0.20788z"/><path d="M295.5576,224.94986c-0.20765,0.09798 -0.43989,-0.00023 -0.52606,-0.21267c-0.08139,-0.20064 0.01202,-0.44468 0.21266,-0.52606c0.21244,-0.08617 0.45649,0.00725 0.54266,0.21969c0.08139,0.20064 -0.02862,0.43767 -0.22926,0.51905z"/><path d="M318.50092,211.34158c0.20062,-0.08138 0.43287,0.01684 0.50246,0.22225c0.08138,0.20063 -0.00501,0.4281 -0.20565,0.50948c-0.20064,0.08139 -0.44946,-0.02384 -0.51905,-0.22925c-0.08138,-0.20062 0.0216,-0.42108 0.22224,-0.50246z"/><path d="M322.46771,230.03202c0.20064,-0.08139 0.4163,0.00981 0.52128,0.20086c0.08617,0.21244 -0.01204,0.44468 -0.21267,0.52606c-0.20542,0.06958 -0.43289,-0.01683 -0.51427,-0.21746c-0.08139,-0.20064 0.00503,-0.42809 0.20566,-0.50947z"/><path d="M295.90812,219.68128c-0.20062,0.08138 -0.41628,-0.00981 -0.49288,-0.19864c-0.08139,-0.20064 0.00979,-0.41629 0.21043,-0.49767c0.18883,-0.07659 0.40927,0.02639 0.48587,0.21522c0.08138,0.20063 -0.01459,0.40449 -0.20342,0.48109z"/><path d="M323.85404,226.70717c-0.08138,-0.20062 0.00982,-0.41628 0.19864,-0.49287c0.20062,-0.08138 0.42108,0.02162 0.50246,0.22225c0.07659,0.18883 -0.0264,0.40927 -0.21523,0.48586c-0.18883,0.07659 -0.40927,-0.0264 -0.48586,-0.21523z"/><path d="M324.41758,220.98113c0.18883,-0.07659 0.3997,0.00278 0.49288,0.19864c0.0718,0.17703 -0.00758,0.38789 -0.19162,0.47629c-0.18883,0.07659 -0.41629,-0.00981 -0.49289,-0.19864c-0.07659,-0.18883 0.00279,-0.3997 0.19162,-0.47629z"/><path d="M310.63623,208.69068c-0.07659,-0.18883 0.00279,-0.3997 0.20343,-0.48108c0.17703,-0.07181 0.3997,0.00279 0.47629,0.19162c0.08839,0.18404 -0.00982,0.41628 -0.19864,0.49287c-0.18883,0.07658 -0.40928,-0.02641 -0.48108,-0.20343z"/><path d="M296.99065,215.64131c-0.07659,-0.18883 0.01938,-0.39269 0.20821,-0.46928c0.18883,-0.07659 0.3997,0.00279 0.4763,0.19162c0.08138,0.20062 -0.02161,0.42108 -0.21523,0.48587c-0.18883,0.07659 -0.39268,-0.01937 -0.46927,-0.2082z"/><path d="M323.84808,217.17148c0.0718,0.17703 -0.00759,0.3879 -0.18461,0.45971c-0.17224,0.08362 -0.3879,-0.00759 -0.45971,-0.18461c-0.08362,-0.17225 0.00759,-0.3879 0.18461,-0.45971c0.17224,-0.08362 0.38789,0.00759 0.4597,0.18461z"/><path d="M304.66508,209.28483c0.0718,0.17702 -0.01939,0.39268 -0.19641,0.46449c-0.17703,0.07181 -0.3927,-0.01939 -0.4645,-0.19641c-0.07659,-0.18882 0.01939,-0.39268 0.19642,-0.46449c0.18883,-0.07659 0.3879,0.00758 0.46449,0.19641z"/><path d="M303.44008,237.13173c-0.07181,-0.17703 0.00758,-0.38791 0.17981,-0.47152c0.17703,-0.07181 0.38791,0.00758 0.47152,0.17982c0.08362,0.17225 -0.00759,0.3879 -0.17982,0.47151c-0.18405,0.0884 -0.39491,0.00901 -0.47151,-0.17982z"/><path d="M313.90165,237.84969c-0.08362,-0.17225 0.00758,-0.38789 0.1846,-0.4597c0.17224,-0.08362 0.39971,0.0028 0.47151,0.17982c0.08362,0.17224 -0.00759,0.38789 -0.18461,0.4597c-0.18883,0.07658 -0.3997,-0.0028 -0.4715,-0.17982z"/><path d="M313.46343,208.40973c0.17702,-0.07181 0.36431,0.01716 0.4361,0.19418c0.06002,0.18183 -0.02896,0.36909 -0.20598,0.4409c-0.17702,0.07181 -0.36431,-0.01717 -0.43611,-0.19419c-0.06703,-0.16522 0.02896,-0.36908 0.20598,-0.44089z"/><path d="M317.55624,210.63904c-0.17702,0.07181 -0.3761,-0.01237 -0.4479,-0.18939c-0.0718,-0.17703 0.01238,-0.3761 0.1894,-0.44791c0.17702,-0.0718 0.3761,0.01238 0.4479,0.1894c0.06703,0.16522 -0.01717,0.36429 -0.1894,0.4479z"/><path d="M308.67113,208.25083c0.07181,0.17702 -0.01236,0.3761 -0.18939,0.44791c-0.17702,0.07181 -0.3761,-0.01238 -0.4479,-0.1894c-0.07181,-0.17702 0.01237,-0.37609 0.18939,-0.4479c0.17702,-0.07181 0.3761,0.01237 0.4479,0.18939z"/><path d="M295.52771,227.07853c0.07181,0.17703 -0.01716,0.36429 -0.19419,0.4361c-0.17703,0.07181 -0.3643,-0.01717 -0.4361,-0.19419c-0.0718,-0.17703 0.01716,-0.36429 0.19419,-0.4361c0.17702,-0.07181 0.3761,0.01237 0.4361,0.19419z"/><path d="M307.30021,238.68574c-0.06703,-0.16522 0.01494,-0.3359 0.18495,-0.39112c0.16525,-0.06703 0.33591,0.01494 0.40294,0.18017c0.06223,0.15342 -0.01494,0.33592 -0.18017,0.40293c-0.15821,0.05043 -0.34549,-0.03853 -0.40772,-0.19196z"/><path d="M310.3387,239.06128c-0.17003,0.05523 -0.34069,-0.02674 -0.40771,-0.19196c-0.06703,-0.16524 0.01493,-0.33592 0.18016,-0.40293c0.16525,-0.06703 0.3359,0.01494 0.40293,0.18016c0.06223,0.15342 -0.02673,0.34069 -0.17537,0.41473z"/><path d="M324.13466,229.46581c-0.16523,0.06701 -0.35249,-0.02195 -0.41472,-0.17537c-0.05043,-0.15822 0.03853,-0.34548 0.19196,-0.40771c0.15343,-0.06224 0.3407,0.02672 0.40293,0.18015c0.06703,0.16524 -0.01494,0.33592 -0.18016,0.40294z"/><path d="M298.42362,234.15007c-0.07404,-0.14864 -0.00166,-0.34292 0.15176,-0.40515c0.14864,-0.07405 0.34292,-0.00167 0.40515,0.15176c0.07405,0.14864 0.00167,0.34294 -0.15176,0.40517c-0.14864,0.07405 -0.34293,0.00167 -0.40516,-0.15176z"/><path d="M297.36486,232.35307c0.15342,-0.06223 0.3359,0.01493 0.39813,0.16835c0.06224,0.15342 -0.01971,0.3241 -0.17314,0.38633c-0.16523,0.06703 -0.33591,-0.01493 -0.39814,-0.16835c-0.06223,-0.15342 0.01493,-0.3359 0.17315,-0.38633z"/><path d="M295.66259,216.83971c-0.06703,-0.16524 0.01494,-0.33591 0.18016,-0.40293c0.15821,-0.05042 0.3241,0.01972 0.38633,0.17315c0.06703,0.16523 -0.01493,0.33592 -0.16836,0.39815c-0.16523,0.06703 -0.33111,-0.00313 -0.39814,-0.16836z"/><path d="M324.48288,218.83809c-0.07404,-0.14864 -0.00868,-0.32633 0.14475,-0.38856c0.14864,-0.07403 0.32633,-0.00869 0.38856,0.14474c0.06924,0.13684 0.00389,0.31455 -0.13295,0.38379c-0.14864,0.07403 -0.32633,0.00869 -0.40036,-0.13996z"/><path d="M319.3774,235.55984c-0.06224,-0.15343 0.01971,-0.3241 0.16134,-0.38155c0.14162,-0.05743 0.3075,0.01269 0.36495,0.15432c0.07404,0.14864 0.00869,0.32634 -0.14474,0.38856c-0.14162,0.05743 -0.31932,-0.00791 -0.38155,-0.16134z"/><path d="M321.31214,234.12909c0.06224,0.15343 -0.0079,0.31932 -0.14953,0.37676c-0.14864,0.07404 -0.32633,0.00868 -0.38856,-0.14474c-0.06223,-0.15342 0.01492,-0.33591 0.15654,-0.39335c0.15343,-0.06223 0.32411,0.01971 0.38155,0.16133z"/><path d="M299.80253,235.1438c0.15343,-0.06223 0.31932,0.00792 0.37677,0.14954c0.05744,0.14161 -0.00792,0.31931 -0.14954,0.37676c-0.14864,0.07403 -0.32634,0.00868 -0.38857,-0.14475c-0.05744,-0.14163 0.0079,-0.31932 0.16133,-0.38155z"/><path d="M318.14464,236.41721c0.14164,-0.05745 0.30752,0.0127 0.36018,0.14252c0.05744,0.14164 -0.0009,0.30273 -0.14252,0.36017c-0.13683,0.06924 -0.31453,0.00389 -0.37197,-0.13774c-0.05744,-0.14163 0.0127,-0.3075 0.15433,-0.36495z"/><path d="M294.2756,223.44956c-0.14162,0.05745 -0.31229,-0.02449 -0.35794,-0.1709c-0.04565,-0.14641 0.01749,-0.29571 0.15911,-0.35316c0.15342,-0.06224 0.30273,0.00089 0.36496,0.15431c0.05043,0.15821 -0.0245,0.3123 -0.16613,0.36974z"/><path d="M294.09418,220.66446c-0.05743,-0.14163 0.0245,-0.31229 0.17091,-0.35794c0.14162,-0.05745 0.29093,0.00568 0.34838,0.1473c0.05744,0.14163 -0.0127,0.30751 -0.15433,0.36495c-0.14162,0.05743 -0.30752,-0.0127 -0.36496,-0.15433z"/><path d="M305.61638,207.93688c0.14162,-0.05745 0.30273,0.0009 0.36496,0.15433c0.05744,0.14164 -0.00568,0.29093 -0.14252,0.36017c-0.13683,0.06924 -0.31453,0.00389 -0.37197,-0.13773c-0.05743,-0.14163 0.00792,-0.31932 0.14954,-0.37677z"/><path d="M296.01179,231.32137c-0.06224,-0.15342 0.01269,-0.30751 0.16612,-0.36974c0.14162,-0.05745 0.31229,0.0245 0.35794,0.17091c0.04565,0.14641 -0.01748,0.29573 -0.1591,0.35317c-0.15343,0.06224 -0.30752,-0.0127 -0.36496,-0.15433z"/><path d="M316.11815,208.65229c0.14641,-0.04565 0.28391,0.02227 0.33657,0.1521c0.05744,0.14163 -0.00568,0.29093 -0.1473,0.34837c-0.14162,0.05745 -0.29093,-0.00569 -0.34837,-0.14732c-0.05744,-0.14163 0.01748,-0.29571 0.1591,-0.35315z"/><path d="M304.88053,238.1417c0.14162,-0.05745 0.29571,0.01749 0.34136,0.1639c0.04564,0.14641 -0.02228,0.28391 -0.1521,0.33657c-0.14162,0.05745 -0.29093,-0.00569 -0.34837,-0.14731c-0.05744,-0.14163 0.01749,-0.29571 0.15911,-0.35315z"/><path d="M312.72789,238.68312c0.14641,-0.04565 0.3005,0.02928 0.34136,0.16389c0.05744,0.14163 -0.01749,0.2957 -0.1639,0.34135c-0.13461,0.04086 -0.28391,-0.02227 -0.33657,-0.15209c-0.05744,-0.14163 0.01749,-0.29571 0.15911,-0.35315z"/><path d="M322.35562,232.77125c0.14164,-0.05745 0.29572,0.01749 0.34136,0.1639c0.05744,0.14163 -0.01748,0.2957 -0.16389,0.34134c-0.13461,0.04086 -0.28391,-0.02226 -0.33657,-0.15209c-0.05744,-0.14163 0.01749,-0.29571 0.15911,-0.35316z"/><path d="M325.49466,225.0934c0.14162,-0.05745 0.3075,0.01269 0.34836,0.1473c0.05266,0.12982 -0.00567,0.29093 -0.1355,0.34359c-0.13684,0.06924 -0.29794,0.0109 -0.35538,-0.13073c-0.05744,-0.14164 0.0009,-0.30273 0.14252,-0.36017z"/><path d="M325.68779,222.48622c0.12982,-0.05266 0.27912,0.01046 0.33178,0.14029c0.04086,0.13461 0.00356,0.24595 -0.13328,0.31519c-0.12504,0.06446 -0.28615,0.00612 -0.33881,-0.12371c-0.05266,-0.12983 0.01047,-0.27911 0.1403,-0.33177z"/><path d="M298.81736,211.43693c0.13461,-0.04086 0.23894,0.01303 0.30339,0.13806c0.06446,0.12504 0.00133,0.27433 -0.13328,0.3152c-0.12982,0.05266 -0.23413,-0.00124 -0.29381,-0.11446c-0.05744,-0.14163 -0.00613,-0.28614 0.12369,-0.3388z"/><path d="M300.24941,210.22386c0.111,-0.03128 0.22234,0.00601 0.29159,0.14285c0.06446,0.12503 0.00133,0.27433 -0.13329,0.3152c-0.14641,0.04565 -0.25074,-0.00825 -0.31519,-0.13329c-0.05967,-0.11324 0.01526,-0.26732 0.15689,-0.32477z"/><path d="M322.70789,213.20849c0.03607,0.12281 -0.00125,0.23415 -0.12628,0.29861c-0.12505,0.06446 -0.27434,0.00134 -0.327,-0.12849c-0.05744,-0.14163 -0.00355,-0.24595 0.12148,-0.31041c0.12504,-0.06447 0.27434,-0.00134 0.33178,0.14029z"/><path d="M317.08013,237.82482c0.03129,0.111 -0.00603,0.22235 -0.13106,0.2868c-0.12982,0.05266 -0.27434,0.00133 -0.327,-0.1285c-0.05266,-0.12983 -0.00355,-0.24595 0.12148,-0.31041c0.12503,-0.06446 0.27434,-0.00132 0.33657,0.1521z"/><path d="M301.37355,236.74678c0.01948,0.11579 -0.00603,0.22235 -0.13106,0.2868c-0.12503,0.06446 -0.26253,-0.00346 -0.31519,-0.13329c-0.05744,-0.14163 -0.00355,-0.24595 0.12148,-0.31041c0.11324,-0.05968 0.26733,0.01525 0.32477,0.15688z"/><path d="M294.22753,225.73676c0.03608,0.12281 -0.00123,0.23415 -0.14285,0.29159c-0.11323,0.05967 -0.27432,0.00133 -0.31518,-0.13329c-0.04564,-0.14641 0.00825,-0.25073 0.13328,-0.31519c0.11323,-0.05968 0.26733,0.01525 0.32477,0.15687z"/><path d="M295.14228,230.02484c-0.11323,0.05967 -0.25073,-0.00825 -0.29861,-0.12627c-0.05266,-0.12982 -0.01056,-0.22936 0.11447,-0.29382c0.11323,-0.05967 0.25073,0.00825 0.30818,0.14988c0.03127,0.111 -0.02261,0.21533 -0.12404,0.27021z"/><path d="M309.952,207.07158c0.04787,0.11802 -0.02004,0.25553 -0.14285,0.2916c-0.13461,0.04086 -0.22713,-0.01783 -0.28681,-0.13106c-0.04787,-0.11802 0.02005,-0.25553 0.13807,-0.30339c0.12281,-0.03608 0.26032,0.03186 0.29159,0.14285z"/><path d="M312.2794,207.11706c0.11324,-0.05968 0.26254,0.00347 0.31041,0.12148c0.04309,0.10623 -0.01525,0.26732 -0.13806,0.30339c-0.13461,0.04085 -0.23415,-0.00124 -0.29861,-0.12627c-0.03607,-0.12281 0.00124,-0.23415 0.12626,-0.29861z"/><path d="M297.41148,212.68065c0.13461,-0.04085 0.24115,-0.01536 0.29381,0.11447c0.05967,0.11324 0.00834,0.25776 -0.10968,0.30562c-0.11802,0.04788 -0.25074,-0.00826 -0.29861,-0.12627c-0.05266,-0.12982 0.00124,-0.23414 0.11447,-0.29381z"/><path d="M325.20621,228.04159c-0.04086,-0.13461 0.02707,-0.27212 0.13807,-0.30339c0.13461,-0.04085 0.23414,0.00123 0.2868,0.13106c0.04086,0.13461 -0.00123,0.23415 -0.12626,0.29861c-0.10143,0.05489 -0.25074,-0.00825 -0.29861,-0.12626z"/><path d="M321.18213,211.68336c0.13461,-0.04085 0.23415,0.00123 0.28681,0.13106c0.04787,0.11802 -0.02004,0.25551 -0.14285,0.29159c-0.13461,0.04084 -0.22714,-0.01783 -0.28202,-0.11925c-0.04565,-0.14641 0.01047,-0.27913 0.13806,-0.30339z"/><path d="M301.73101,209.47168c-0.05935,-0.04465 -0.17069,-0.08195 -0.21121,-0.14797c-0.07626,-0.12025 -0.01057,-0.22936 0.11925,-0.28202c0.11802,-0.04787 0.22234,0.00603 0.27022,0.12404c0.04787,0.11802 0.00579,0.21756 -0.17826,0.30596z"/><path d="M323.57482,214.46486c0.0236,-0.00958 0.04721,-0.01916 0.08261,-0.03352c0.08772,0.04688 0.19907,0.08418 0.24438,0.16201c0.05968,0.11323 0.01057,0.22935 -0.11925,0.28202c-0.12982,0.05266 -0.24594,0.00356 -0.275,-0.13584c-0.01693,-0.0756 0.03697,-0.17992 0.06725,-0.27466z"/><path d="M294.32528,218.08309c-0.00958,-0.0236 -0.01915,-0.0472 -0.04531,-0.07782c0.06346,-0.08071 0.08417,-0.19906 0.162,-0.24438c0.12025,-0.07627 0.23637,-0.02717 0.28903,0.10266c0.05266,0.12983 0.02014,0.25296 -0.11925,0.28202c-0.08739,0.02171 -0.19651,-0.04398 -0.28647,-0.06247z"/><path d="M323.99544,231.96866c-0.17702,0.07181 -0.28837,0.0345 -0.35282,-0.09053c-0.04787,-0.11802 -0.00579,-0.21755 0.10744,-0.27722c0.12504,-0.06447 0.25296,-0.02015 0.28904,0.10265c0.0217,0.0874 -0.0322,0.19173 -0.04366,0.2651z"/><path d="M320.23001,210.42033c0.05968,0.11323 0.00579,0.21757 -0.11223,0.26543c-0.11802,0.04787 -0.23415,-0.00123 -0.25841,-0.12883c-0.0217,-0.0874 0.03697,-0.17992 0.08351,-0.33623c0.14228,0.07972 0.24181,0.1218 0.28713,0.19963z"/><path d="M325.75723,220.21783c-0.00958,-0.0236 -0.01916,-0.0472 -0.04532,-0.07782c0.05167,-0.07593 0.08897,-0.18728 0.155,-0.2278c0.11323,-0.05967 0.22936,-0.01057 0.27722,0.10745c0.05968,0.11323 0.01057,0.22936 -0.11702,0.25362c-0.0874,0.0217 -0.17993,-0.03697 -0.26989,-0.05545z"/><path d="M307.01559,206.77836c0.0236,-0.00957 0.0472,-0.01916 0.08261,-0.03351c0.07115,0.03986 0.17069,0.08195 0.21121,0.14797c0.05968,0.11322 0.01056,0.22935 -0.10522,0.24883c-0.07559,0.01692 -0.2083,-0.0392 -0.23224,-0.09821c-0.04052,-0.06602 0.02517,-0.17514 0.04365,-0.2651z"/><path d="M295.9361,214.22742c-0.01436,-0.03539 -0.02393,-0.05901 -0.0265,-0.0992c0.05645,-0.06412 0.08896,-0.18726 0.15276,-0.1994c0.06379,-0.01214 0.19173,0.03217 0.23225,0.0982c0.07148,0.10844 0.02236,0.22456 -0.10522,0.24883c-0.0756,0.01692 -0.16334,-0.02994 -0.2533,-0.04843z"/><path d="M308.68198,239.78827c0.0236,-0.00958 0.04721,-0.01916 0.07783,-0.04532c0.07115,0.03985 0.1777,0.06536 0.21822,0.13139c0.07148,0.10844 0.02238,0.22457 -0.08862,0.25585c-0.07081,0.02872 -0.20353,-0.02739 -0.23926,-0.08162c-0.02394,-0.05901 0.01335,-0.17035 0.03184,-0.26031z"/><path d="M302.3043,237.991c0.07593,0.05167 0.18727,0.08896 0.21121,0.14797c0.02872,0.07081 -0.01559,0.19873 -0.08162,0.23925c-0.09184,0.0785 -0.21277,0.01759 -0.24405,-0.09341c-0.01693,-0.0756 0.02994,-0.16333 0.04843,-0.25329c0.0236,-0.00958 0.04721,-0.01915 0.06603,-0.04052z"/><path d="M324.85428,215.92496c0.06379,-0.01214 0.19172,0.03218 0.22745,0.08641c0.06669,0.09664 0.01279,0.20097 -0.09821,0.23225c-0.07081,0.02873 -0.15854,-0.01814 -0.29827,-0.05767c0.0727,-0.1257 0.11001,-0.23704 0.16902,-0.26098z"/><path d="M315.3469,238.87145c0.13049,0.08452 0.23703,0.11002 0.26097,0.16903c0.02393,0.05901 -0.0204,0.18693 -0.07461,0.22267c-0.09186,0.07849 -0.20799,0.02938 -0.23926,-0.08162c-0.02873,-0.07082 0.01815,-0.15855 0.05289,-0.31008z"/><path d="M314.884,207.27001c0.13049,0.08451 0.24183,0.1218 0.25396,0.1856c0.02394,0.05901 -0.03697,0.17992 -0.09119,0.21566c-0.09664,0.06669 -0.21277,0.01759 -0.23225,-0.0982c-0.01693,-0.0756 0.02996,-0.16334 0.06948,-0.30307z"/><path d="M311.3622,239.92427c0.1021,0.08229 0.20163,0.12438 0.21599,0.15977c0.01214,0.0638 -0.05133,0.14452 -0.07939,0.21088c-0.07115,-0.03985 -0.17291,-0.05355 -0.20864,-0.10778c-0.03096,-0.04242 0.02774,-0.13494 0.07205,-0.26287z"/><path d="M306.40881,239.70702c-0.0657,0.10912 -0.09119,0.21568 -0.14319,0.22302c-0.05901,0.02394 -0.13973,-0.03954 -0.21789,-0.0628c0.02328,-0.07816 0.03697,-0.17991 0.09119,-0.21565c0.04242,-0.03095 0.14675,0.02294 0.26988,0.05545z"/><path d="M293.74282,228.2011c0.10912,0.0657 0.20864,0.10778 0.21599,0.15977c0.01214,0.06379 -0.05133,0.1445 -0.07939,0.21086c-0.06636,-0.02806 -0.17291,-0.05354 -0.20864,-0.10777c-0.03095,-0.04243 0.02774,-0.13495 0.07205,-0.26287z"/><path d="M303.01655,207.79577c0.10911,0.0657 0.23225,0.09821 0.23481,0.1384c0.01214,0.06379 -0.05133,0.14451 -0.08641,0.22745c-0.06636,-0.02806 -0.17991,-0.03697 -0.20385,-0.09598c-0.01915,-0.04721 0.02772,-0.13495 0.05545,-0.26989z"/><path d="M318.77543,208.93504c0.06859,-0.00034 0.14929,0.06313 0.22044,0.10299c-0.03985,0.07115 -0.05356,0.17291 -0.11257,0.19685c-0.05901,0.02393 -0.15153,-0.03474 -0.27467,-0.06726c0.06568,-0.10911 0.10299,-0.22044 0.16679,-0.23258z"/><path d="M325.04625,230.66281c0.0539,-0.10433 0.08418,-0.19907 0.14319,-0.22302c0.0638,-0.01213 0.13973,0.03953 0.20609,0.0676c-0.02806,0.06635 -0.04654,0.15631 -0.08896,0.18726c-0.05422,0.03574 -0.14195,-0.01113 -0.26031,-0.03185z"/><path d="M292.86178,221.59042c0.10433,0.05389 0.21087,0.0794 0.22523,0.11479c0.01213,0.0638 -0.03953,0.13973 -0.0628,0.21788c-0.06158,-0.01626 -0.16333,-0.02996 -0.19428,-0.07237c-0.01915,-0.04721 0.01113,-0.14196 0.03184,-0.26031z"/><path d="M292.81926,224.53505c-0.05199,0.00734 -0.11612,-0.0491 -0.18248,-0.07716c0.02807,-0.06635 0.04654,-0.15631 0.09375,-0.17546c0.04721,-0.01915 0.11836,0.02071 0.24149,0.05322c-0.07049,0.0973 -0.10555,0.18025 -0.15276,0.1994z"/><path d="M327.12867,224.07325c0.00734,0.05199 -0.03954,0.13974 -0.07493,0.15409c-0.03539,0.01435 -0.13493,-0.02773 -0.15409,-0.07494c-0.02617,-0.03061 0.02549,-0.10654 0.05099,-0.2131c0.08071,0.06347 0.15888,0.08673 0.17803,0.13394z"/><path d="M294.82492,215.28287c0.01915,0.0472 -0.02294,0.14674 -0.05834,0.1611c-0.0472,0.01914 -0.13015,-0.01593 -0.16111,-0.05835c-0.03096,-0.04242 0.00891,-0.11356 0.03441,-0.22011c0.08773,0.04688 0.17769,0.06537 0.18504,0.11736z"/><path d="M296.13798,233.93648c-0.03539,0.01435 -0.13015,-0.01594 -0.14451,-0.05133c-0.01436,-0.0354 0.01592,-0.13016 0.05133,-0.14452c0.03061,-0.02616 0.10176,0.0137 0.19172,0.03218c-0.04688,0.08773 -0.05836,0.16111 -0.09855,0.16367z"/><path d="M326.07439,217.34042c0.08294,0.03508 0.1611,0.05836 0.16366,0.09855c0.01915,0.0472 -0.0255,0.10655 -0.04654,0.15631c-0.04976,-0.02104 -0.13493,-0.02773 -0.14929,-0.06313c-0.02617,-0.03062 0.01369,-0.10176 0.03217,-0.19172z"/><path d="M326.76008,226.58668c0.07593,0.05167 0.15409,0.07494 0.16366,0.09854c0.01915,0.0472 -0.0255,0.10655 -0.04654,0.15631c-0.04976,-0.02104 -0.13494,-0.02774 -0.14929,-0.06313c-0.02617,-0.03062 0.01369,-0.10175 0.03217,-0.19171z"/><path d="M297.44004,235.18126c-0.03987,0.07113 -0.06313,0.1493 -0.11034,0.16845c-0.05199,0.00735 -0.13494,-0.02773 -0.14929,-0.06313c-0.01436,-0.03539 0.02772,-0.13494 0.06313,-0.1493c0.04722,-0.01914 0.10655,0.0255 0.19651,0.04398z"/><path d="M293.06925,219.01863c0.07115,0.03985 0.1493,0.06315 0.16366,0.09855c0.01436,0.03539 -0.01592,0.13015 -0.05133,0.14451c-0.03539,0.01435 -0.11835,-0.02072 -0.14451,-0.05134c-0.01436,-0.0354 0.0137,-0.10175 0.03218,-0.19171z"/><path d="M311.28007,205.87319c-0.03987,0.07113 -0.05613,0.13272 -0.09153,0.14708c-0.03541,0.01435 -0.08997,-0.0185 -0.13972,-0.03954c0.02104,-0.04976 0.02071,-0.11836 0.05612,-0.13271c0.03062,-0.02617 0.08518,0.00668 0.17514,0.02516z"/><path d="M327.13676,221.34873c0.06412,0.05645 0.13049,0.08451 0.14006,0.10811c0.01436,0.03539 -0.03507,0.08295 -0.05611,0.13271c-0.04976,-0.02104 -0.11134,-0.03731 -0.1257,-0.07271c-0.01436,-0.03541 0.01848,-0.08996 0.04176,-0.16812z"/><path d="M322.19858,235.50124c0.07114,0.03986 0.13271,0.05614 0.14707,0.09154c0.01436,0.03539 -0.01849,0.08996 -0.03953,0.13972c-0.04976,-0.02104 -0.11836,-0.02072 -0.13271,-0.05612c-0.01436,-0.03541 0.01848,-0.08997 0.02516,-0.17514z"/><path d="M298.49204,236.55497c0.03541,-0.01436 0.10656,0.02551 0.12091,0.0609c0.01436,0.03539 -0.0255,0.10655 -0.06091,0.1209c-0.03541,0.01436 -0.09474,-0.03028 -0.1729,-0.05355c0.03985,-0.07115 0.07271,-0.1257 0.1129,-0.12825z"/><path d="M314.18059,240.26537c-0.03508,0.08294 -0.05611,0.13271 -0.10332,0.15186c-0.03539,0.01436 -0.11355,-0.00892 -0.12313,-0.03251c-0.00734,-0.05199 0.00891,-0.11356 0.03953,-0.13972c0.03541,-0.01436 0.10176,0.01369 0.18693,0.02037z"/><path d="M303.6648,239.58315c0.01436,0.0354 -0.02551,0.10656 -0.04911,0.11613c-0.04019,0.00256 -0.11835,-0.02073 -0.13271,-0.05613c-0.00958,-0.02361 0.03028,-0.09474 0.05356,-0.1729c0.06414,0.05645 0.13049,0.0845 0.12826,0.1129z"/></g><path d="M307.93043,233.98257c-2.25585,-5.56135 0.4238,-11.89845 5.98516,-14.1543c5.56136,-2.25585 11.89846,0.4238 14.15431,5.98515c2.25585,5.56136 -0.42381,11.89846 -5.98516,14.15431c-5.56136,2.25585 -11.89846,-0.42381 -14.15431,-5.98516z" fill="none" stroke="#000000" stroke-width="1" stroke-linecap="butt"/><path d="M306.61764,234.51507c-2.54995,-6.28639 0.47905,-13.44967 6.76544,-15.99962c6.28639,-2.54995 13.44966,0.47905 15.99961,6.76544c2.54994,6.2864 -0.47905,13.44967 -6.76544,15.99962c-6.2864,2.54995 -13.44966,-0.47904 -15.99962,-6.76543z" fill="none" stroke="#000000" stroke-width="1" stroke-linecap="butt"/><path d="M323.24657,242.832c-7.14326,2.89751 -15.28291,-0.54433 -18.18042,-7.68759c-2.89751,-7.14326 0.54434,-15.28292 7.6876,-18.18043c7.14326,-2.89751 15.28292,0.54434 18.18043,7.6876c2.89751,7.14326 -0.54435,15.2829 -7.6876,18.18042z" fill="none" stroke="#000000" stroke-width="1" stroke-linecap="butt"/><path d="M309.72062,233.25642c-1.85481,-4.57268 0.34844,-9.78317 4.92111,-11.63799c4.57266,-1.8548 9.78318,0.34844 11.63799,4.92112c1.85481,4.57268 -0.34844,9.78318 -4.92112,11.63799c-4.57266,1.8548 -9.78318,-0.34845 -11.63798,-4.92112z" fill="#000000" stroke="#000000" stroke-width="1" stroke-linecap="butt"/><path d="M295.14884,254.76781c0,0 -5.88927,-8.86544 -7.77837,-13.52263c-1.75614,-4.32942 -3.18645,-13.509 -3.18645,-13.509l3.58035,-1.45229l10.96483,27.03163l-3.58035,1.45229z" fill="#393912" stroke="none" stroke-width="0" stroke-linecap="butt"/><path d="M326.62597,226.06541l-1.81959,-4.82843l78.0853,-29.86378c0,0 0.89923,-0.65541 1.54167,-1.68031c0.75578,-1.20573 1.34941,-2.84112 2.54405,-3.3222c2.16894,-0.87342 4.82096,-0.87945 6.73574,-1.5196c4.51549,-1.5096 7.56548,-3.17677 9.45017,-3.8434c1.83028,-0.64737 1.64268,0.99653 2.18415,2.23257c0.48203,1.10034 1.78949,1.77698 1.78949,1.77698l0.14042,0.3462c0,0 -0.46661,1.39627 -0.04591,2.52148c0.4726,1.26398 1.75239,2.31268 -0.01166,3.12327c-1.81651,0.83469 -5.16605,1.76335 -9.45722,3.82599c-1.81966,0.87465 -3.72647,2.71783 -5.89098,3.60217c-1.19222,0.4871 -2.75738,-0.27263 -4.13954,-0.61114c-1.17489,-0.28775 -2.2766,-0.13152 -2.2766,-0.13152l-76.82443,32.97216l-2.05825,-4.73162z" data-paper-data="{&quot;index&quot;:null}" fill="#393912" stroke="none" stroke-width="0" stroke-linecap="round"/><g fill="#dfe0e2" stroke="none" stroke-width="0" stroke-linecap="butt"><g><path d="M423.34029,195.87262c-2.05201,0.7849 -1.83659,-0.54469 -2.07722,-1.1379c-0.24063,-0.59321 1.93878,-1.20338 2.85331,-1.57434c0.91454,-0.37096 1.09315,1.99726 -0.77609,2.71224z"/><path d="M421.39569,192.49199l1.0741,-0.4357l0.87139,2.14821l-1.07411,0.4357z"/></g><g><path d="M419.21534,195.98228c0.91453,-0.37096 1.09315,1.99725 -0.77609,2.71223c-2.05203,0.7849 -1.8366,-0.54469 -2.07723,-1.1379c-0.24063,-0.59321 1.93878,-1.20337 2.85331,-1.57433z"/><path d="M416.49465,195.31389l1.07411,-0.43569l0.87138,2.14821l-1.0741,0.43568z"/></g><g><path d="M413.95626,198.94943c0.91454,-0.37096 1.09315,1.99726 -0.77609,2.71224c-2.05203,0.7849 -1.8366,-0.54469 -2.07722,-1.13791c-0.24063,-0.59321 1.93878,-1.20336 2.85332,-1.57432z"/><path d="M411.23558,198.28099l1.0741,-0.43569l0.87138,2.1482l-1.0741,0.4357z"/></g></g><g data-paper-data="{&quot;index&quot;:null}" fill="#dfe0e2" stroke="none" stroke-width="0" stroke-linecap="butt"><g><path d="M419.36031,181.43526c-0.91453,0.37096 -2.90314,1.45148 -3.14376,0.85827c-0.24063,-0.59321 -1.32141,-1.39701 0.69754,-2.26343c1.83913,-0.78924 3.36075,1.0342 2.44622,1.40516z"/><path d="M417.0027,181.66192l1.07411,-0.43569l0.87138,2.14821l-1.0741,0.43569z"/></g><g><path d="M413.87836,182.825c-0.91454,0.37096 -2.90315,1.45147 -3.14378,0.85826c-0.24063,-0.59321 -1.32141,-1.39701 0.69754,-2.26343c1.83913,-0.78924 3.36076,1.03421 2.44623,1.40517z"/><path d="M411.52072,183.05166l1.0741,-0.43569l0.87138,2.14821l-1.0741,0.43569z"/></g><g><path d="M405.59211,182.95485c1.83913,-0.78924 3.36077,1.03421 2.44624,1.40517c-0.91454,0.37096 -2.90315,1.45147 -3.14378,0.85826c-0.24063,-0.59321 -1.3214,-1.39702 0.69755,-2.26344z"/><path d="M405.68074,184.58666l1.0741,-0.43568l0.87138,2.14821l-1.0741,0.43568z"/></g></g><path d="M421.63726,190.51775c-0.26068,-0.64265 0.04897,-1.37492 0.69162,-1.6356c0.64265,-0.26068 1.37493,0.04897 1.63561,0.69162c0.26068,0.64265 -0.04897,1.37493 -0.69162,1.63561c-0.64265,0.26068 -1.37493,-0.04897 -1.63561,-0.69162z" fill="#dfe0e2" stroke="none" stroke-width="0" stroke-linecap="butt"/><path d="M419.42251,185.05772c-0.26068,-0.64265 0.04897,-1.37493 0.69162,-1.63561c0.64265,-0.26068 1.37493,0.04897 1.63561,0.69162c0.26068,0.64265 -0.04897,1.37493 -0.69162,1.63561c-0.64265,0.26068 -1.37493,-0.04897 -1.63561,-0.69162z" fill="#dfe0e2" stroke="none" stroke-width="0" stroke-linecap="butt"/><path d="M413.81724,186.91445c-0.26068,-0.64265 0.04896,-1.37493 0.69161,-1.63561c0.64265,-0.26068 1.37494,0.04897 1.63562,0.69162c0.26068,0.64265 -0.04897,1.37492 -0.69162,1.6356c-0.64265,0.26068 -1.37493,-0.04897 -1.6356,-0.69162z" fill="#dfe0e2" stroke="none" stroke-width="0" stroke-linecap="butt"/><path d="M407.94094,188.3599c-0.26068,-0.64265 0.04897,-1.37493 0.69162,-1.63561c0.64265,-0.26068 1.37493,0.04897 1.63561,0.69162c0.26068,0.64265 -0.04897,1.37492 -0.69162,1.6356c-0.64265,0.26068 -1.37493,-0.04897 -1.63561,-0.69162z" fill="#dfe0e2" stroke="none" stroke-width="0" stroke-linecap="butt"/><path d="M416.23294,193.12685c-0.26068,-0.64265 0.04897,-1.37492 0.69162,-1.6356c0.64265,-0.26068 1.37493,0.04896 1.63561,0.69161c0.26068,0.64265 -0.04897,1.37493 -0.69162,1.63561c-0.64265,0.26068 -1.37493,-0.04897 -1.63561,-0.69162z" fill="#dfe0e2" stroke="none" stroke-width="0" stroke-linecap="butt"/><path d="M410.84802,196.04077c-0.26068,-0.64265 0.04896,-1.37493 0.69161,-1.63561c0.64265,-0.26068 1.37494,0.04897 1.63562,0.69162c0.26068,0.64265 -0.04897,1.37493 -0.69162,1.63561c-0.64265,0.26068 -1.37493,-0.04896 -1.63561,-0.69161z" fill="#dfe0e2" stroke="none" stroke-width="0" stroke-linecap="butt"/><g fill="none" stroke="#dfe0e2" stroke-width="0.5" stroke-linecap="round"><path d="M291.83434,245.65269c0,0 36.76681,-15.94921 56.02458,-23.99111c20.49658,-8.55921 63.47033,-25.90905 63.47033,-25.90905"/><path d="M290.78057,243.93584c0,0 37.07834,-15.38378 56.94224,-23.49768c21.81809,-8.91214 68.65465,-27.8055 68.65465,-27.8055"/><path d="M289.82908,242.1775c0,0 53.31844,-22.46686 76.42432,-31.5684c15.36828,-6.05365 38.57439,-14.73926 49.50024,-18.62813c3.7532,-1.33588 6.16709,-1.83507 6.16709,-1.83507"/></g><g data-paper-data="{&quot;index&quot;:null}" fill="none" stroke="#dfe0e2" stroke-width="0.5" stroke-linecap="round"><path d="M408.58133,188.97811c0,0 -42.91691,17.48993 -63.58431,25.62803c-19.41827,7.64623 -56.90643,21.81703 -56.90643,21.81703"/><path d="M414.53667,186.91983c0,0 -4.31014,2.06152 -10.90127,4.83794c-15.20527,6.405 -42.63318,17.67812 -57.88375,23.8209c-19.90326,8.01683 -57.22104,22.81031 -57.22104,22.81031"/><path d="M420.08571,185.622c0,0 -2.07954,1.32347 -5.70281,2.9797c-10.54759,4.82138 -33.24691,14.75639 -48.48968,21.11947c-22.91717,9.56678 -76.82032,30.59212 -76.82032,30.59212"/></g><path d="M293.79388,246.80065l-4.7081,-12.89177" fill="none" stroke="#dfe0e2" stroke-width="0.5" stroke-linecap="round"/><g fill="#dfe0e2" stroke="none" stroke-width="0" stroke-linecap="butt"><path d="M291.854,246.7489c-0.48536,0.19687 -1.0384,-0.03698 -1.23528,-0.52235c-0.19687,-0.48535 0.03698,-1.03842 0.52234,-1.23529c0.48536,-0.19687 1.03841,0.03698 1.23529,0.52235c0.19688,0.48536 -0.03699,1.03841 -0.52235,1.23528z"/><path d="M289.74734,244.07834c-0.19687,-0.48534 0.03698,-1.03841 0.52234,-1.23528c0.48536,-0.19687 1.03839,0.03698 1.23528,0.52234c0.19687,0.48535 -0.03698,1.03841 -0.52234,1.23528c-0.48534,0.19688 -1.03839,-0.03698 -1.23528,-0.52234z"/></g><path d="M286.71071,236.59216c-0.19687,-0.48534 0.03698,-1.03841 0.52234,-1.23528c0.48536,-0.19687 1.03841,0.03698 1.23529,0.52234c0.19688,0.48536 -0.03698,1.03841 -0.52234,1.23528c-0.48534,0.19688 -1.03841,-0.03697 -1.23529,-0.52233z" fill="#dfe0e2" stroke="none" stroke-width="0" stroke-linecap="butt"/><path d="M288.10444,237.50509c0.48536,-0.19687 1.03839,0.03698 1.23528,0.52234c0.19687,0.48535 -0.03698,1.03841 -0.52233,1.23528c-0.48534,0.19688 -1.03841,-0.03697 -1.23529,-0.52233c-0.19687,-0.48535 0.03699,-1.03842 0.52235,-1.23529z" fill="#dfe0e2" stroke="none" stroke-width="0" stroke-linecap="butt"/><path d="M288.95155,239.3599c0.40446,-0.16406 0.86534,0.03082 1.0294,0.43528c0.16406,0.40446 -0.03082,0.86535 -0.43528,1.02941c-0.40446,0.16405 -0.86534,-0.03083 -1.0294,-0.43529c-0.16406,-0.40446 0.03082,-0.86534 0.43528,-1.0294z" fill="#dfe0e2" stroke="none" stroke-width="0" stroke-linecap="butt"/><path d="M289.67771,241.15007c0.40447,-0.16406 0.86534,0.03082 1.02941,0.43528c0.16406,0.40446 -0.03083,0.86534 -0.43529,1.02941c-0.40446,0.16406 -0.86534,-0.03082 -1.0294,-0.43528c-0.16406,-0.40446 0.03082,-0.86534 0.43528,-1.0294z" fill="#dfe0e2" stroke="none" stroke-width="0" stroke-linecap="butt"/><g fill="#7d7d00" stroke="none" stroke-width="1" stroke-linecap="butt"><path d="M270.08313,227.30574c0.24249,-1.13596 0.93624,-1.67101 1.2294,-0.94831l8.01142,19.75058c0.2048,0.5049 0.09821,1.43586 -0.23401,2.06637l-0.80408,1.51364c-0.33222,0.63051 -0.43881,1.56147 -0.23401,2.06637l3.08409,7.60322c0.2048,0.5049 0.0982,1.43587 -0.23402,2.06638l-0.80997,1.52755c-0.33222,0.63051 -0.77614,0.72988 -0.98094,0.22498l-7.71023,-19.00809c-0.13252,-0.3267 -0.1409,-0.83057 -0.02434,-1.33901l0.901,-4.03168c0.11656,-0.50844 0.10417,-1.02221 -0.02434,-1.33901l-2.65441,-6.54393c-0.13252,-0.3267 -0.14091,-0.83056 -0.02434,-1.339l0.50879,-2.27006z"/></g></g><path d="M327.57555,251.69307c0,7.62607 -5.84798,13.80822 -13.06182,13.80822c-7.21385,0 -13.06183,-6.18215 -13.06183,-13.80822c0,-7.62607 5.84798,-13.80821 13.06183,-13.80821c7.21385,0 13.06183,6.18214 13.06183,13.80821z" fill="#ecec60" stroke="#000000" stroke-width="2" stroke-linecap="butt"/><path d="M396.58589,204.34877c0,7.62607 -5.84798,13.80822 -13.06183,13.80822c-7.21385,0 -13.06182,-6.18215 -13.06182,-13.80822c0,-7.62607 5.84798,-13.80821 13.06183,-13.80821c7.21385,0 13.06183,6.18214 13.06183,13.80821z" fill="#ecec60" stroke="#000000" stroke-width="2" stroke-linecap="butt"/><g fill="#ffffff" stroke="none" stroke-width="0" stroke-linecap="butt"><path d="M329.40621,215.82892c-3.06897,12.20294 -13.36107,25.85539 -14.10621,25.66799c-0.74515,-0.1874 8.54682,-14.97067 11.40781,-26.34663c2.86099,-11.37595 1.668,-28.79613 2.41314,-28.60873c0.74515,0.1874 3.35423,17.08442 0.28526,29.28737z"/><path d="M341.29545,212.28843c-3.06897,12.20294 -13.36107,25.85539 -14.10621,25.66799c-0.74515,-0.1874 8.54682,-14.97067 11.40781,-26.34663c2.86099,-11.37595 1.668,-28.79613 2.41314,-28.60873c0.74515,0.1874 3.35423,17.08442 0.28526,29.28737z"/></g></g></g></svg>