<svg version="1.1" xmlns="http://www.w3.org/2000/svg" xmlns:xlink="http://www.w3.org/1999/xlink" width="832.74534" height="409.42237" viewBox="0,0,832.74534,409.42237"><g transform="translate(100.7764,30.54039)"><g data-paper-data="{&quot;isPaintingLayer&quot;:true}" fill-rule="nonzero" stroke-linejoin="miter" stroke-miterlimit="10" stroke-dasharray="" stroke-dashoffset="0" style="mix-blend-mode: normal"><path d="M-99.7764,377.88198v-407.42236h830.74534v407.42237z" fill="#000000" stroke="#4b4b00" stroke-width="2" stroke-linecap="butt"/><text transform="translate(68.00454,111.79773) scale(0.5,0.5)" font-size="40" xml:space="preserve" fill="#ffffff" fill-rule="nonzero" stroke="none" stroke-width="1" stroke-linecap="butt" stroke-linejoin="miter" stroke-miterlimit="10" stroke-dasharray="" stroke-dashoffset="0" font-family="Sans Serif" font-weight="normal" text-anchor="start" style="mix-blend-mode: normal"><tspan x="0" dy="0">Jooper will be unlocked when you have seen all polos.</tspan></text><g stroke-linecap="butt"><path d="M385.44888,239.92235c7.5491,6.60622 -6.53518,20.51014 -17.69073,22.72923c-17.79529,3.53989 -28.88738,-7.50176 -28.88738,-7.50176l8.06159,-5.93424c0,0 7.95039,5.31911 15.45274,2.24262c9.25293,-3.79435 13.83138,-19.61513 23.06378,-11.53585z" fill="#ecec68" stroke="#000000" stroke-width="2"/><path d="M369.66883,244.88626l5.83049,-6.27473l10.95002,10.1748l-5.8305,6.27472z" fill="#000000" stroke="none" stroke-width="0"/><path d="M362.36803,251.76948l6.05871,-4.14167l5.5053,12.41389l-7.4023,2.79807z" fill="#000000" stroke="none" stroke-width="0"/><path d="M351.83805,251.49335l7.53409,0.80418l-2.11801,11.3793l-8.54179,-2.31575z" fill="#000000" stroke="none" stroke-width="0"/></g><g data-paper-data="{&quot;index&quot;:null}" stroke-linecap="butt"><path d="M352.00337,244.21074c5.09433,3.92515 6.07166,9.20063 3.65618,12.33561c-2.41547,3.13498 -9.39911,2.64372 -14.49345,-1.28143c-5.09433,-3.92515 -6.37024,-9.7978 -3.95477,-12.93276c2.41547,-3.13498 9.69769,-2.04656 14.79203,1.87859z" fill="#ecec68" stroke="#000000" stroke-width="2"/><path d="M346.72212,257.83829l8.21935,-9.79891c0,0 4.24318,3.9775 1.20967,8.52687c-2.60587,3.90806 -9.42902,1.27202 -9.42902,1.27202z" fill="#000000" stroke="none" stroke-width="0"/><path d="M338.51124,252.61318l9.86152,-11.14251l3.74758,2.85391l-9.41366,11.59037z" fill="#000000" stroke="none" stroke-width="0"/></g><g stroke-linecap="butt"><path d="M307.24572,240.68997c2.41547,3.13498 1.13956,9.00763 -3.95477,12.93277c-5.09433,3.92515 -12.07796,4.41641 -14.49343,1.28143c-2.41547,-3.13498 -1.43814,-8.41047 3.65618,-12.33562c5.09433,-3.92515 12.37654,-5.01358 14.79201,-1.87859z" fill="#ecec68" stroke="#000000" stroke-width="2"/><path d="M288.30593,254.92408c-3.03351,-4.54939 1.20967,-8.52687 1.20967,-8.52687l8.21935,9.79891c0,0 -6.82315,2.63602 -9.42902,-1.27204z" fill="#000000" stroke="none" stroke-width="0"/><path d="M301.75039,254.27277l-9.41366,-11.59037l3.74758,-2.8539l9.86153,11.14251z" fill="#000000" stroke="none" stroke-width="0"/></g><path d="M321.68156,265.08137c0,0.99493 -4.88761,2.42937 -12.15922,2.38141c-7.95391,-0.05246 -11.12969,-1.66257 -11.55436,-2.57749c-1.85989,-4.00696 0.53602,-7.05117 11.50806,-6.86309c5.4117,0.09276 9.77832,0.63157 11.46157,1.75521c1.8748,1.25151 0.74395,3.19262 0.74395,5.30397z" fill="#c5c556" stroke="#9b9b44" stroke-width="3" stroke-linecap="butt"/><path d="M334.01385,258.02218c10.97204,-0.18808 13.36795,2.85613 11.50806,6.86309c-0.42044,0.90579 -3.03455,2.8691 -11.22944,2.42609c-8.96422,-0.4846 -12.48414,-1.22499 -12.48414,-2.23c0,-2.11802 -0.98023,-4.36237 0.91108,-5.61442c1.68674,-1.11661 5.9018,-1.35233 11.29444,-1.44477z" data-paper-data="{&quot;index&quot;:null}" fill="#c5c556" stroke="#9b9b44" stroke-width="3" stroke-linecap="butt"/><path d="M322.71935,255.92683c-8.96186,0.10987 -19.69589,0.21974 -19.92048,-1.13898c-0.84394,-5.10577 7.50176,-23.28311 7.50176,-23.28311l23.30031,-0.59282c0,0 7.38303,20.39713 7.71445,22.93045c0.33143,2.53331 -8.88045,1.96534 -18.59605,2.08447z" fill="#000000" stroke="#6e6e30" stroke-width="3" stroke-linecap="butt"/><g><g stroke="none" stroke-width="0" stroke-linecap="butt"><path d="M321.2099,241.44702c-62.35014,-0.12043 -77.48089,-38.85242 -77.48089,-38.85242c0,0 9.24338,-2.18189 15.91076,-11.97259c14.74838,-21.65725 22.61212,-59.80753 59.55473,-60.02193c38.58501,-0.22393 45.90602,34.9964 61.402,57.89703c6.23394,9.15944 16.97462,14.99325 16.97462,14.99325c0,0 -12.89193,38.07925 -76.36124,37.95666z" fill="#ecec68"/><path d="M396.22752,201.81081c0,0 -4.95478,15.21555 -20.29046,25.10244c-15.9069,10.25516 -40.95529,12.29442 -40.95529,12.29442c0,0 24.09082,-15.80909 22.50529,-58.67051c-0.90657,-24.50689 -21.16168,-48.36958 -21.16168,-48.36958c0,0 14.81304,6.97012 25.13518,20.90435c8.24969,11.13656 11.78353,25.18326 17.0478,31.43785c2.56862,3.05183 4.16021,7.16474 7.09617,9.98603c4.82966,4.64102 10.623,7.315 10.623,7.315z" fill="#cbcb6a"/></g><path d="M265.73791,208.31844c0,-4.1225 3.34195,-7.46443 7.46445,-7.46443c4.1225,0 7.46445,3.34193 7.46445,7.46443c0,4.1225 -3.34195,7.46445 -7.46445,7.46445c-4.1225,0 -7.46445,-3.34195 -7.46445,-7.46445z" fill="#6e6e30" stroke="none" stroke-width="0" stroke-linecap="butt"/><path d="M358.59555,208.46773c0,-4.1225 3.34195,-7.46443 7.46445,-7.46443c4.1225,0 7.46445,3.34193 7.46445,7.46443c0,4.1225 -3.34195,7.46445 -7.46445,7.46445c-4.1225,0 -7.46445,-3.34195 -7.46445,-7.46445z" fill="#6e6e30" stroke="none" stroke-width="0" stroke-linecap="butt"/><g stroke="none" stroke-width="0" stroke-linecap="butt"><path d="M284.06311,147.26997l-11.53256,21.04973c0,0 -2.08776,-0.5948 -5.7606,-1.32327c-4.99181,-0.99008 -12.34239,-2.79626 -16.07289,-8.97766c-6.79312,-11.25609 -1.53805,-19.66014 1.78626,-23.24505c3.48195,-3.75492 11.58677,-7.72206 20.04723,-4.52267c6.73539,2.54705 8.86568,8.0625 10.03121,12.07316c0.85021,2.92564 1.50137,4.94576 1.50137,4.94576z" fill="#000000"/><path d="M259.87832,150.06916c0,-5.13251 4.16072,-9.29323 9.29323,-9.29323c5.13251,0 9.29323,4.16072 9.29323,9.29323c0,5.13251 -4.16072,9.29323 -9.29323,9.29323c-5.13251,0 -9.29323,-4.16072 -9.29323,-9.29323z" fill="#cbcb6a"/></g><path d="M320.56423,241.76986c-62.35014,-0.12043 -77.48089,-38.85242 -77.48089,-38.85242c0,0 9.24337,-2.18189 15.91076,-11.97259c14.74838,-21.65725 22.61212,-59.80753 59.55473,-60.02193c38.58501,-0.22393 44.87226,35.09041 60.50628,57.89703c8.33013,12.15184 17.87035,14.99325 17.87035,14.99325c0,0 -12.89193,38.07924 -76.36124,37.95665z" fill="none" stroke="#000000" stroke-width="3" stroke-linecap="butt"/><g data-paper-data="{&quot;index&quot;:null}" stroke="none" stroke-width="0" stroke-linecap="butt"><path d="M356.44761,147.26997c0,0 0.65116,-2.02013 1.50136,-4.94576c1.16552,-4.01066 3.29582,-9.52611 10.03121,-12.07316c8.46046,-3.19939 16.56528,0.76776 20.04723,4.52267c3.3243,3.58491 8.57938,11.98896 1.78626,23.24505c-3.7305,6.18141 -11.08108,7.98758 -16.07289,8.97766c-3.67284,0.72848 -5.7606,1.32327 -5.7606,1.32327l-11.53256,-21.04973z" fill="#000000"/><path d="M371.33918,159.36237c-5.13251,0 -9.29324,-4.16073 -9.29324,-9.29324c0,-5.13251 4.16073,-9.29323 9.29324,-9.29323c5.13251,0 9.29323,4.16072 9.29323,9.29323c0,5.13251 -4.16072,9.29324 -9.29323,9.29324z" fill="#cbcb6a"/></g><path d="M310.21407,130.83235l17.63475,0.3359c0,0 -0.36073,12.24561 -2.86808,22.94c-1.89321,8.07496 -4.68967,15.18465 -4.68967,15.18465c0,0 -3.85491,-6.16425 -6.08857,-15.1484c-1.68576,-6.78042 -3.98843,-23.31213 -3.98843,-23.31213z" fill="#000000" stroke="none" stroke-width="0" stroke-linecap="butt"/><path d="M300.97682,156.86459c0,0 5.55012,-10.24911 18.8104,-10.41289c13.59719,-0.16795 18.13859,10.41289 18.13859,10.41289z" fill="#000000" stroke="none" stroke-width="0" stroke-linecap="butt"/><path d="M297.95373,143.93245c0,0 6.12241,-10.9209 21.55255,-11.0847c15.82218,-0.16795 21.44263,11.0847 21.44263,11.0847z" fill="#000000" stroke="none" stroke-width="0" stroke-linecap="butt"/><g fill="#000000" stroke="none" stroke-width="0" stroke-linecap="butt"><path d="M252.60724,216.1509c0,0 -7.53426,-8.48036 -7.74413,-11.59861c-0.17601,-2.61497 6.56848,-5.86818 6.56848,-5.86818c0,0 4.98494,3.84141 12.38988,6.60359c6.21467,2.31821 12.4667,2.8016 12.4667,2.8016c0,0 -2.71408,4.09224 -9.61783,5.9149c-10.10213,2.66705 -14.06309,2.14669 -14.06309,2.14669z"/><path d="M254.84137,218.61798c0,0 11.52338,2.19247 18.53455,1.58449c5.8842,-0.51023 11.09734,-2.51045 11.09734,-2.51045c0,0 0.43426,4.19222 -4.63555,9.10422c-2.86352,2.77438 -5.78834,4.46031 -7.52147,5.50272c-1.08398,-0.56922 -3.18032,-1.58866 -4.18651,-2.0645c-0.84565,-0.39991 -2.10851,-1.68545 -3.58267,-3.22629c-1.23239,-2.10546 -3.02142,-3.84549 -5.16513,-5.01815c-0.03737,-0.02043 -0.07483,-0.0407 -0.11239,-0.06079c0.80917,-1.29884 -4.42816,-3.31127 -4.42816,-3.31127z"/><path d="M285.51851,231.89462c5.39222,-3.39615 8.33808,-7.4112 8.33808,-7.4112c0,0 1.88903,3.94339 0.12998,10.05326c-0.63945,2.22104 -1.25621,4.06252 -1.82209,5.57596c-2.93784,-1.57444 -6.07173,-2.51917 -9.61205,-3.95799c-0.29652,-0.12051 -3.48261,-1.71503 -3.83551,-1.77441c1.38864,-0.87209 4.40662,-0.97718 6.8016,-2.4856z"/></g><g data-paper-data="{&quot;index&quot;:null}" fill="#000000" stroke="none" stroke-width="0" stroke-linecap="butt"><path d="M373.19153,213.66831c-6.90377,-1.82266 -9.61784,-5.9149 -9.61784,-5.9149c0,0 6.25205,-0.4834 12.4667,-2.8016c7.40492,-2.76218 12.38989,-6.60359 12.38989,-6.60359c0,0 6.74449,3.25322 6.56848,5.86819c-0.20988,3.11825 -7.74413,11.5986 -7.74413,11.5986c0,0 -3.96097,0.52035 -14.06311,-2.14669z"/><path d="M383.95137,222.0972c-0.03756,0.02008 -1.08274,0.71215 -1.12011,0.73259c-2.14373,1.17265 -6.28406,1.73704 -7.51643,3.8425c-0.25369,0.26516 2.522,2.03431 2.28187,2.28114c-1.15521,1.18749 -5.16442,0.61408 -5.86453,0.94515c-1.00619,0.47583 -3.10253,1.49528 -4.18651,2.06449c-1.73314,-1.04242 -4.65797,-2.72834 -7.52147,-5.50272c-5.0698,-4.91201 -4.63556,-9.10422 -4.63556,-9.10422c0,0 5.21314,2.00021 11.09734,2.51045c7.01115,0.60797 19.7102,-1.92039 19.7102,-1.92039c0,0 -3.05396,2.85216 -2.24479,4.15102z"/><path d="M361.14497,234.04432c-0.35289,0.05938 -3.539,1.6539 -3.83551,1.77441c-3.54032,1.43882 -6.67422,2.38354 -9.61204,3.95799c-0.5659,-1.51344 -1.18266,-3.35493 -1.82209,-5.57596c-1.75905,-6.10986 0.12998,-10.05326 0.12998,-10.05326c0,0 2.94584,4.01505 8.33808,7.4112c2.39498,1.50842 5.41297,1.61352 6.80161,2.4856z"/></g><g fill="#000000" stroke="none" stroke-width="0" stroke-linecap="butt"><path d="M297.95373,188.52314c0,11.54815 -5.26357,20.90976 -11.7565,20.90976c-6.49293,0 -11.75649,-9.36162 -11.75649,-20.90976c0,-11.54815 5.26356,-20.90977 11.75649,-20.90977c6.49293,0 11.7565,9.36163 11.7565,20.90977z"/><path d="M284.31619,197.45808c0,1.7067 -5.77748,2.55284 -5.77748,2.55284c0,0 -1.56459,-0.62893 -3.61303,-1.44699c-2.66808,-1.06552 -5.96985,-2.54545 -5.79217,-4.33049c0.20721,-2.08161 3.53481,-1.81547 6.10866,-1.55305c1.91718,0.19548 3.29654,0.20945 3.29654,0.20945c0,0 5.77748,2.86152 5.77748,4.56824z"/></g><g data-paper-data="{&quot;index&quot;:null}" fill="#000000" stroke="none" stroke-width="0" stroke-linecap="butt"><path d="M353.30314,168.15081c6.49293,0 11.7565,9.36162 11.7565,20.90977c0,11.54815 -5.26357,20.90977 -11.7565,20.90977c-6.49293,0 -11.75649,-9.36162 -11.75649,-20.90977c0,-11.54815 5.26356,-20.90977 11.75649,-20.90977z"/><path d="M360.96166,193.42728c0,0 1.37937,-0.01398 3.29655,-0.20946c2.57385,-0.26242 5.90144,-0.52856 6.10865,1.55306c0.17769,1.78504 -3.12407,3.26497 -5.79215,4.33049c-2.04844,0.81806 -3.61304,1.44699 -3.61304,1.44699c0,0 -5.77747,-0.84613 -5.77747,-2.55284c0,-1.7067 5.77747,-4.56824 5.77747,-4.56824z"/></g><path d="M288.1099,183.45119c0,4.55831 -2.06245,8.25355 -4.60663,8.25355c-2.54417,0 -4.60663,-3.69523 -4.60663,-8.25355c0,-4.55831 2.06245,-8.25353 4.60663,-8.25353c2.54417,0 4.60663,3.69524 4.60663,8.25353z" fill="#ffffff" stroke="none" stroke-width="0" stroke-linecap="butt"/><path d="M354.5221,183.06731c0,4.55831 -2.06245,8.25355 -4.60662,8.25355c-2.54417,0 -4.60663,-3.69525 -4.60663,-8.25355c0,-4.55831 2.06245,-8.25353 4.60663,-8.25353c2.54417,0 4.60662,3.69524 4.60662,8.25353z" fill="#ffffff" stroke="none" stroke-width="0" stroke-linecap="butt"/><path d="M303.65726,195.25568c0,-8.8516 7.17563,-16.02722 16.02722,-16.02722c8.85159,0 16.02722,7.17562 16.02722,16.02722c0,8.8516 -7.17563,16.02722 -16.02722,16.02722c-8.85159,0 -16.02722,-7.17562 -16.02722,-16.02722z" fill="#6e6e30" stroke="none" stroke-width="0" stroke-linecap="butt"/><path d="M286.19047,198.76396c0,-1.40166 1.13627,-2.5379 2.53791,-2.5379c1.40166,0 2.53791,1.13626 2.53791,2.5379c0,1.40166 -1.13627,2.53791 -2.53791,2.53791c-1.40166,0 -2.53791,-1.13627 -2.53791,-2.53791z" fill="#6e6e30" stroke="none" stroke-width="0" stroke-linecap="butt"/><path d="M353.51973,199.36111c0,-1.40166 1.13627,-2.5379 2.53791,-2.5379c1.40166,0 2.53791,1.13626 2.53791,2.5379c0,1.40166 -1.13627,2.53791 -2.53791,2.53791c-1.40166,0 -2.53791,-1.13627 -2.53791,-2.53791z" fill="#6e6e30" stroke="none" stroke-width="0" stroke-linecap="butt"/><path d="M332.26473,199.62236c0,0 -2.0272,4.62207 -7.74674,3.35397c-4.05607,-0.89928 -4.46162,-5.0374 -4.46162,-5.0374c0,0 -0.93891,4.79586 -4.85586,5.23264c-5.59854,0.62429 -8.24023,-3.32528 -8.24023,-3.32528" fill="none" stroke="#000000" stroke-width="2" stroke-linecap="round"/><g stroke="none" stroke-width="0" stroke-linecap="butt"><path d="M329.24164,189.48939c0,3.06096 -5.05985,9.4356 -9.46117,9.23725c-4.40004,-0.19829 -9.68512,-6.17629 -9.68512,-9.23725c0,-3.06096 4.05041,-6.21415 9.46119,-6.21415c5.41077,0 9.68511,3.15319 9.68511,6.21415z" fill="#000000"/><path d="M325.6587,188.36973c0,1.26767 -2.73203,2.29533 -6.10217,2.29533c-3.37015,0 -6.10219,-1.02765 -6.10219,-2.29533c0,-1.26767 1.72529,-2.26177 6.32612,-2.40727c4.48882,-0.14196 5.87824,1.13961 5.87824,2.40727z" fill="#ffffff"/></g></g></g></g></svg>