<svg version="1.1" xmlns="http://www.w3.org/2000/svg" xmlns:xlink="http://www.w3.org/1999/xlink" width="196.71097" height="184.61361" viewBox="0,0,196.71097,184.61361"><g transform="translate(-223.58968,-48.54984)"><g data-paper-data="{&quot;isPaintingLayer&quot;:true}" fill-rule="nonzero" stroke-linecap="butt" stroke-linejoin="miter" stroke-miterlimit="10" stroke-dasharray="" stroke-dashoffset="0" style="mix-blend-mode: normal"><path d="M225.71451,140.87259c0,0 43.3167,-26.23668 60.01964,-41.91549c15.20367,-14.27145 36.12382,-48.33293 36.12382,-48.33293c0,0 19.21135,39.36857 34.97307,54.16386c16.26997,15.27238 61.17039,36.08456 61.17039,36.08456c0,0 -39.2052,19.70616 -54.88037,34.42021c-16.34464,15.34247 -41.26309,55.82821 -41.26309,55.82821c0,0 -20.28908,-39.87979 -36.10446,-54.72545c-16.22212,-15.22746 -60.039,-35.52297 -60.039,-35.52297z" fill="#d8d871" stroke="#000000" stroke-width="2"/><path d="M253.87428,208.85628c0,0 12.07739,-49.18167 12.80157,-72.07902c0.65917,-20.84205 -8.63315,-59.71994 -8.63315,-59.71994c0,0 41.42226,14.25331 63.02933,13.56994c22.30381,-0.7054 68.76963,-17.73836 68.76963,-17.73836c0,0 -13.7879,41.65662 -14.46751,63.14504c-0.70864,22.40617 10.2991,68.65392 10.2991,68.65392c0,0 -42.54582,-13.85272 -64.22644,-13.16703c-22.23821,0.70333 -67.57252,17.33545 -67.57252,17.33545z" fill="#d8d871" stroke="#000000" stroke-width="2"/><path d="M257.12095,140.87259c0,-33.30185 28.7599,-60.29833 64.23702,-60.29833c35.47712,0 64.23702,26.99649 64.23702,60.29833c0,33.30185 -28.7599,60.29833 -64.23702,60.29833c-35.47712,0 -64.23702,-26.99649 -64.23702,-60.29833z" fill="#ecec68" stroke="#000000" stroke-width="2"/><path d="M321.35797,150.812c15.51871,0 28.09912,11.80905 28.09912,26.37623c0,1.04515 -16.18016,-7.77936 -27.34747,-7.77936c-11.16731,0 -28.85077,8.54354 -28.85077,7.77936c0,-14.56719 12.58041,-26.37623 28.09912,-26.37623z" data-paper-data="{&quot;index&quot;:null}" fill="#000000" stroke="#000000" stroke-width="2"/><path d="M283.04119,131.08022c0,-6.1984 5.02479,-11.22319 11.22319,-11.22319c6.19841,0 11.2232,5.02479 11.2232,11.22319c0,6.1984 -5.0248,0.20338 -11.2232,0.20338c-6.19841,0 -11.22318,5.99501 -11.22318,-0.20338z" fill="#000000" stroke="none" stroke-width="0"/><path d="M337.40604,131.08021c0,-6.0153 4.87636,-10.89165 10.89165,-10.89165c6.01529,0 10.89164,4.87636 10.89164,10.89165c0,6.0153 -5.48857,-0.74037 -11.50385,-0.74037c0,0 -10.27944,6.75566 -10.27944,0.74037z" data-paper-data="{&quot;index&quot;:null}" fill="#000000" stroke="none" stroke-width="0"/></g></g></svg>