<svg version="1.1" xmlns="http://www.w3.org/2000/svg" xmlns:xlink="http://www.w3.org/1999/xlink" width="229.6378" height="253.75908" viewBox="0,0,229.6378,253.75908"><g transform="translate(-186.3659,-54.74091)"><g data-paper-data="{&quot;isPaintingLayer&quot;:true}" fill-rule="nonzero" stroke-linejoin="miter" stroke-miterlimit="10" stroke-dasharray="" stroke-dashoffset="0" style="mix-blend-mode: normal"><path d="M285.90286,307.49998l10.58516,-87.56737l45.59644,-1.46009l10.3184,89.02747z" fill="#9b9d30" stroke="#000000" stroke-width="2" stroke-linecap="butt"/><path d="M289.57668,250.08801l7.55047,-52.41545l43.29909,-2.17848l9.45725,55.15135l-30.23979,-11.89646z" fill="#747524" stroke="#000000" stroke-width="2" stroke-linecap="butt"/><path d="M414.2996,126.85518c5.64825,44.23787 -23.30324,84.38086 -64.66496,89.66189c-41.36172,5.28103 -79.47083,-26.29973 -85.11908,-70.5376c-5.64825,-44.23786 23.30324,-84.38087 64.66496,-89.66189c41.36172,-5.28102 79.47084,26.29974 85.11909,70.53761z" fill="#747524" stroke="#000000" stroke-width="2" stroke-linecap="butt"/><path d="M406.6911,133.0125c4.82054,37.75512 -21.48005,72.21869 -58.74403,76.97652c-37.26396,4.75783 -71.38021,-21.99176 -76.20075,-59.74689c-4.82054,-37.75512 21.48005,-72.21869 58.74402,-76.97652c37.26396,-4.75783 71.38021,21.99176 76.20075,59.74689z" fill="#000000" stroke="none" stroke-width="0" stroke-linecap="butt"/><path d="M275.78804,151.4192c-4.21771,-33.03368 20.89146,-63.45523 56.0829,-67.94844c35.19144,-4.49321 67.13887,18.64342 71.35659,51.67709c4.21771,33.03368 -20.89147,63.45524 -56.08291,67.94845c-35.19144,4.49321 -67.13887,-18.64342 -71.35658,-51.67709z" fill="#ffff70" stroke="#000000" stroke-width="2" stroke-linecap="butt"/><path d="M276.5121,151.38102c-0.0922,-0.72213 12.24697,54.80966 70.06102,48.45116c55.2389,-6.07528 55.66231,-65.53052 55.79135,-64.51987c4.15476,32.54063 -20.65016,62.51712 -55.40333,66.95438c-34.75317,4.43725 -66.29428,-18.34503 -70.44904,-50.88566z" fill="#6c6d22" stroke="#000000" stroke-width="0" stroke-linecap="butt"/><path d="M277.44004,166.27452c0,0 -18.92556,-79.22523 56.14373,-87.31376c77.09841,-8.30717 70.92582,73.86197 70.92582,73.86197c0,0 -22.82869,15.70852 -60.87133,20.90627c-34.07953,4.65627 -66.19822,-7.45447 -66.19822,-7.45447z" fill-opacity="0.20144" fill="#000000" stroke="none" stroke-width="0" stroke-linecap="butt"/><path d="M289.28353,150.12905c-1.64241,-12.86357 7.45414,-24.623 20.31772,-26.26541c12.86358,-1.64241 24.62301,7.45414 26.26542,20.31772c1.64241,12.86357 -7.45414,24.623 -20.31772,26.26541c-12.86358,1.64241 -24.62301,-7.45415 -26.26542,-20.31772z" fill="#ffffff" stroke="#000000" stroke-width="2" stroke-linecap="butt"/><path d="M290.39722,149.61192c-1.15608,-9.05457 5.2469,-17.33193 14.30147,-18.48801c9.05458,-1.15608 17.33193,5.24692 18.48801,14.30148c1.15608,9.05458 -5.24692,17.33193 -14.30148,18.48801c-9.05457,1.15608 -17.33192,-5.24692 -18.488,-14.30148z" fill="#000000" stroke="none" stroke-width="0" stroke-linecap="butt"/><path d="M347.54243,185.91866c0,0 7.35336,-2.85397 11.43213,-4.14725c3.89075,-1.23366 12.50309,-3.442 12.50309,-3.442" fill="none" stroke="#000000" stroke-width="2" stroke-linecap="round"/><path d="M369.37045,163.5749c-12.86358,1.64241 -24.62301,-7.45415 -26.26542,-20.31773c-1.64241,-12.86357 7.45415,-24.623 20.31772,-26.26541c12.86358,-1.64241 24.62301,7.45415 26.26542,20.31772c1.64241,12.86357 -7.45415,24.62301 -20.31772,26.26542z" data-paper-data="{&quot;index&quot;:null}" fill="#ffffff" stroke="#000000" stroke-width="2" stroke-linecap="butt"/><path d="M363.1345,158.37223c-9.05457,1.15608 -17.33193,-5.24692 -18.488,-14.30148c-1.15608,-9.05457 5.24692,-17.33194 14.30147,-18.48802c9.05457,-1.15608 17.33192,5.24692 18.488,14.30149c1.15608,9.05458 -5.24692,17.33194 -14.30147,18.48801z" data-paper-data="{&quot;index&quot;:null}" fill="#000000" stroke="none" stroke-width="0" stroke-linecap="butt"/><path d="M289.28353,150.12905c-1.64241,-12.86357 7.45414,-24.623 20.31772,-26.26541c12.86358,-1.64241 24.62301,7.45414 26.26542,20.31772c0,0 -46.42717,7.16933 -46.58314,5.9477z" fill="#ffff70" stroke="#000000" stroke-width="2" stroke-linecap="butt"/><path d="M343.10505,143.25716c-1.64241,-12.86357 7.45415,-24.623 20.31772,-26.26541c12.86358,-1.64241 24.623,7.45415 26.26541,20.31772c0.15373,1.20403 -46.58314,5.94769 -46.58314,5.94769z" data-paper-data="{&quot;index&quot;:null}" fill="#ffff70" stroke="#000000" stroke-width="2" stroke-linecap="butt"/><path d="M297.43387,117.57461c0,0 7.06333,-4.67334 12.22431,-5.49865c5.16098,-0.8253 12.25189,1.5846 12.25189,1.5846c0,0 -8.01297,-0.6382 -11.99862,-0.00084c-4.16517,0.66607 -12.47759,3.91489 -12.47759,3.91489z" fill="#000000" stroke="none" stroke-width="0" stroke-linecap="butt"/><path d="M360.65509,107.1985c-3.99765,0.55724 -11.47283,3.51302 -11.47283,3.51302c0,0 6.0749,-4.37998 11.25141,-5.10154c5.1765,-0.72156 13.29842,1.67952 13.29842,1.67952c0,0 -8.89931,-0.67334 -13.077,-0.09101z" data-paper-data="{&quot;index&quot;:null}" fill="#000000" stroke="none" stroke-width="0" stroke-linecap="butt"/><g stroke="#000000" stroke-width="2" stroke-linecap="butt"><path d="M221.90763,181.78636l-34.40601,-33.90642c0,0 8.11608,-26.1106 13.97694,-37.16115c6.42928,-12.12232 23.05166,-32.65553 23.05166,-32.65553l46.75196,8.83571c0,0 -11.917,32.58442 -20.22893,48.55817c-8.14279,15.6487 -29.14562,46.32923 -29.14562,46.32923z" fill="#ffffff"/><path d="M222.02783,181.42795l-5.00902,-4.93261c0,0 19.53151,-28.35766 27.66308,-43.68379c7.91552,-14.91895 20.49561,-47.08438 20.49561,-47.08438l6.18245,1.06069c0,0 -11.46485,34.85426 -19.87587,50.56037c-8.25496,15.41469 -29.45624,44.07973 -29.45624,44.07973z" fill="#9b9d30"/><path d="M222.27443,123.04257c0,0 0.74682,-11.98084 2.0214,-18.72074c1.4163,-7.4893 6.0962,-24.20421 6.0962,-24.20421l6.82797,1.45161c0,0 -5.34913,18.93295 -6.55494,26.108c-0.90462,5.38286 -0.03951,13.13232 -0.03951,13.13232z" fill="#9b9d30"/><path d="M247.04025,125.51774c0,0 -6.92065,-4.19213 -19.16271,2.59828c-16.57883,9.19596 -30.52017,27.94937 -30.52017,27.94937l-4.82172,-5.28234c0,0 11.90816,-18.55554 31.3369,-28.97374c14.67876,-7.87114 26.91353,-3.28623 26.91353,-3.28623z" fill="#9b9d30"/></g></g></g></svg>