<svg version="1.1" xmlns="http://www.w3.org/2000/svg" xmlns:xlink="http://www.w3.org/1999/xlink" width="171.6438" height="291.54879" viewBox="0,0,171.6438,291.54879"><g transform="translate(-250.03076,-23.88004)"><g data-paper-data="{&quot;isPaintingLayer&quot;:true}" stroke-miterlimit="10" stroke-dasharray="" stroke-dashoffset="0" style="mix-blend-mode: normal"><path d="M290.72614,314.42882l13.62477,-131.8421l33.99545,-0.15789l12.2131,132z" fill="#ecec68" fill-rule="nonzero" stroke="#000000" stroke-width="2" stroke-linecap="butt" stroke-linejoin="miter"/><path d="M296.57572,267.16265l8.45591,-81.82486l32.57503,-0.15129l7.60398,82.1843c0,0 -14.59301,4.84164 -24.23451,4.80038c-9.6415,-0.04126 -24.40041,-5.00852 -24.40041,-5.00852z" fill="#c8c824" fill-rule="nonzero" stroke="#000000" stroke-width="0" stroke-linecap="butt" stroke-linejoin="miter"/><g fill-rule="nonzero" stroke="#000000" stroke-width="2" stroke-linecap="butt" stroke-linejoin="miter"><path d="M278.46489,111.63438l-13.36339,-68.71259l7.19845,-1.39996l13.36339,68.71259z" fill="#ffe9b3"/><path d="M251.35899,45.59446c-1.86267,-9.57757 4.39151,-18.85174 13.96908,-20.71442c9.57757,-1.86267 18.85174,4.39151 20.71442,13.96909c1.86267,9.57757 -4.39151,18.85174 -13.96909,20.71442c-9.57757,1.86267 -18.85173,-4.39151 -20.71441,-13.96909z" fill="#dccd27"/></g><g fill-rule="nonzero" stroke="#000000" stroke-width="2" stroke-linecap="butt" stroke-linejoin="miter"><path d="M368.12577,120.40606l31.60672,-62.45811l6.54322,3.31119l-31.60672,62.45811z" fill="#ffe9b3"/><path d="M387.24086,51.62662c4.40553,-8.70578 15.03438,-12.19184 23.74017,-7.78631c8.70578,4.40553 12.19184,15.03438 7.7863,23.74018c-4.40553,8.70578 -15.0344,12.19183 -23.74018,7.7863c-8.70578,-4.40553 -12.19183,-15.03438 -7.78629,-23.74017z" fill="#dccd27"/></g><path d="M295.43463,251.66804l7.58416,-69.08131l36.11546,-0.15789l6.82766,69.46209c0,0 -1.63411,6.69929 -25.4124,6.56159c-22.03251,-0.12759 -25.11488,-6.78449 -25.11488,-6.78449z" fill="#dccd27" fill-rule="nonzero" stroke="#000000" stroke-width="2" stroke-linecap="butt" stroke-linejoin="miter"/><path d="M296.92485,228.53569l5.27751,-45.94896l37.78325,-0.15789l4.67444,45.45686c0,0 -7.00642,7.16153 -24.11741,7.06682c-17.11099,-0.09472 -23.61779,-6.41683 -23.61779,-6.41683z" fill="#dccd27" fill-rule="nonzero" stroke="#000000" stroke-width="2" stroke-linecap="butt" stroke-linejoin="miter"/><path d="M300.00973,206.02198l3.12142,-26.32765l35.83075,-0.14203l2.76735,26.1059c0,0 -7.51543,4.19603 -21.55904,4.50964c-12.48458,0.27879 -20.16049,-4.14586 -20.16049,-4.14586z" fill="#b2a730" fill-rule="nonzero" stroke="#000000" stroke-width="0" stroke-linecap="butt" stroke-linejoin="miter"/><path d="M263.10341,120.74433c4.02228,-33.05805 35.83233,-56.38319 71.04972,-52.09817c35.21739,4.28502 60.50603,34.55756 56.48375,67.6156c-4.02228,33.05805 -35.83234,56.3832 -71.04973,52.09818c-35.21739,-4.28502 -60.50603,-34.55756 -56.48375,-67.6156z" fill="#b9b912" fill-rule="nonzero" stroke="#000000" stroke-width="2" stroke-linecap="butt" stroke-linejoin="miter"/><path d="M263.81468,120.88513c0.08793,-0.72266 -1.58555,56.13888 56.01992,64.17031c55.03961,7.67371 70.04833,-49.85754 69.92527,-48.84614c-3.96225,32.56463 -35.36809,55.53304 -70.14688,51.30139c-34.7788,-4.23165 -59.76057,-34.06093 -55.79831,-66.62556z" fill="#c8c824" fill-rule="nonzero" stroke="#000000" stroke-width="0" stroke-linecap="butt" stroke-linejoin="miter"/><path d="M305.28894,153.77873l40.15988,3.89394c2.43308,0.23592 4.20191,2.3846 3.96601,4.81768l-1.76859,18.2403c-0.23592,2.43307 -2.3846,4.20192 -4.81768,3.96601l-40.15987,-3.89394c-2.43307,-0.23592 -4.20193,-2.3846 -3.96602,-4.81768l1.76859,-18.2403c0.23592,-2.43307 2.3846,-4.20192 4.81769,-3.966z" fill="#000000" fill-rule="evenodd" stroke="#000000" stroke-width="2" stroke-linecap="round" stroke-linejoin="round"/><path d="M278.47105,85.74488l105.48652,12.8349c6.39091,0.77761 10.90987,6.54863 10.13228,12.93951l-5.8295,47.91115c-0.7776,6.39089 -6.54863,10.90989 -12.9395,10.13229l-105.48651,-12.8349c-6.39089,-0.7776 -10.9099,-6.54863 -10.13231,-12.93951l5.82951,-47.91114c0.77759,-6.39088 6.54863,-10.90989 12.93952,-10.13229z" fill="#dccd27" fill-rule="evenodd" stroke="#000000" stroke-width="2" stroke-linecap="round" stroke-linejoin="round"/><path d="M285.70015,92.00124l89.73899,10.91884c5.43684,0.66152 9.2812,5.57102 8.61969,11.00784l-4.95925,40.75875c-0.66152,5.43682 -5.57102,9.28121 -11.00784,8.61969l-89.73897,-10.91884c-5.43682,-0.66152 -9.28123,-5.57103 -8.61971,-11.00785l4.95925,-40.75875c0.66152,-5.43682 5.57103,-9.2812 11.00786,-8.61968z" fill="#000000" fill-rule="evenodd" stroke="#000000" stroke-width="2" stroke-linecap="round" stroke-linejoin="round"/><path d="M339.0605,172.90348c0,0 -3.31357,8.28877 -16.38535,5.47923c-10.85399,-2.33287 -12.24511,-11.28664 -12.24511,-11.28664" fill="none" fill-rule="nonzero" stroke="#ecec68" stroke-width="2" stroke-linecap="round" stroke-linejoin="miter"/><g fill-rule="nonzero" stroke-linejoin="miter"><path d="M329.85693,121.87884l18.90748,-11.4891l-14.43884,16.15071z" fill="#d9db56" stroke="#000000" stroke-width="0.5" stroke-linecap="butt"/><path d="M328.94403,118.017l3.87946,-3.2691l8.33096,9.88641l-3.87945,3.26911z" fill="#d9db56" stroke="#000000" stroke-width="1" stroke-linecap="butt"/><path d="M303.40811,135.26501l24.01281,-20.30848l12.99744,15.36819l-24.01281,20.30848z" fill="#d9db56" stroke="#000000" stroke-width="1" stroke-linecap="butt"/><path d="M312.54208,127.35014l5.76345,-4.48811c0,0 2.71619,6.12373 4.92299,8.6707c2.0688,2.3877 7.93064,6.16419 7.93064,6.16419l-5.76346,4.48812c0,0 -6.39926,-3.14798 -8.44811,-5.5126c-2.22169,-2.56415 -4.40552,-9.32228 -4.40552,-9.32228z" fill="#000000" stroke="none" stroke-width="0" stroke-linecap="butt"/><path d="M334.52269,118.16863l-2.3562,2.19992" fill="none" stroke="#000000" stroke-width="0.5" stroke-linecap="round"/><path d="M335.53033,123.75221l2.26951,-2.41453" fill="none" stroke="#000000" stroke-width="0.5" stroke-linecap="round"/></g></g></g></svg>