<svg version="1.1" xmlns="http://www.w3.org/2000/svg" xmlns:xlink="http://www.w3.org/1999/xlink" width="379.41422" height="248.75798" viewBox="0,0,379.41422,248.75798"><defs><linearGradient x1="242.24664" y1="149.3334" x2="242.24664" y2="304.3739" gradientUnits="userSpaceOnUse" id="color-1"><stop offset="0" stop-color="#000000"/><stop offset="1" stop-color="#ffffff"/></linearGradient><linearGradient x1="170.57519" y1="166.71926" x2="197.92947" y2="221.42376" gradientUnits="userSpaceOnUse" id="color-2"><stop offset="0" stop-color="#ffffff"/><stop offset="1" stop-color="#949494"/></linearGradient><linearGradient x1="169.84729" y1="132.60173" x2="173.19352" y2="181.0368" gradientUnits="userSpaceOnUse" id="color-3"><stop offset="0" stop-color="#ffffff"/><stop offset="1" stop-color="#e3e3e3"/></linearGradient><linearGradient x1="179.75562" y1="176.96188" x2="180.38156" y2="186.02205" gradientUnits="userSpaceOnUse" id="color-4"><stop offset="0" stop-color="#e4e4e4"/><stop offset="1" stop-color="#d9d9d9"/></linearGradient></defs><g transform="translate(56.36322,-57.42334)"><g data-paper-data="{&quot;isPaintingLayer&quot;:true}" fill-rule="nonzero" stroke-linejoin="miter" stroke-miterlimit="10" stroke-dasharray="" stroke-dashoffset="0" style="mix-blend-mode: normal"><g fill="#000000" stroke="none" stroke-width="0.5" stroke-linecap="butt"><path d="M313.02795,250.37377c-0.70711,-0.70711 0,-1.41421 0,-1.41421l0.48574,-0.45828c2.68445,-1.78963 5.68669,-4.0387 7.29749,-6.88397c0.66504,-1.17471 -0.07598,-5.44138 -0.07711,-6.89372c-0.49366,-2.93808 -1.90546,-5.70071 -2.32485,-8.60141c-0.71215,-4.92558 0.55532,-9.89117 1.42801,-14.65405c0.28499,-1.55541 0.1342,-2.95329 0.61582,-4.45103c1.49875,-4.28875 -0.00333,-9.96464 -0.70507,-14.19026c-0.67642,-4.07319 -0.36132,-8.54775 -0.3374,-12.69412c-0.39714,-1.42634 -0.76666,-2.8122 -1.22398,-4.17983c-0.14894,0.61341 -0.32446,1.20415 -0.52765,1.76311c-1.07237,2.94998 -2.28524,5.68128 -2.25721,8.95065v1c0,0.55228 -0.44772,1 -1,1c-0.35261,0 -0.6626,-0.1825 -0.84065,-0.4582l-1.1008,-1.6512l0.01296,-0.00864c-0.03084,-0.04245 -0.06086,-0.08558 -0.09,-0.12946c-2.24593,-3.3824 -0.16333,-9.12382 1.12663,-12.33248c0.52962,-1.31739 1.4574,-4.21666 3.20962,-4.42231c0.06492,-1.34953 -0.01401,-2.73609 -0.30596,-4.17823c-0.59067,-3.55144 -1.1157,-7.05475 -1.60567,-10.56263c-0.31718,1.47445 -0.61216,2.94964 -1.12278,4.38866c-1.25728,3.54328 -3.6296,6.65424 -3.6296,10.51467l-0.09361,0.13764l0.05521,0.0184l-0.32604,0.97812c-0.12567,0.40862 -0.50614,0.70565 -0.95598,0.70565c-0.3992,0 -0.74377,-0.23392 -0.90412,-0.57216l-0.65698,-1.31396l0.3658,-0.1829c-0.77712,-1.88617 -0.55387,-3.71726 -0.6139,-6.23881c-0.14577,-6.12241 -0.1908,-12.23488 -0.1908,-18.35884c0,-3.26211 -0.73104,-7.60002 3.33333,-8c2.6139,0.15498 3.87057,2.16998 4.63272,4.45321c-0.06276,-1.87948 -0.2268,-3.80317 -0.60541,-5.55445c-0.23744,-1.09828 -1.25982,-1.87365 -1.72262,-2.89757c-1.00121,-2.21511 -1.97317,-4.64065 -2.8603,-7.04969c-0.36057,0.28587 -0.69717,0.58174 -0.82063,1.00495c-0.32095,1.10021 -0.29052,2.57696 -0.66667,3.66667c-0.46193,1.33822 -1.35801,1.42004 -1.29792,2.8324l-0.3557,1.45369c0,0 -0.24254,0.97014 -1.21268,0.72761c-0.97014,-0.24254 -0.72761,-1.21268 -0.72761,-1.21268l0.31097,-1.21298c0.04587,-1.51243 0.96632,-1.89481 1.36875,-3.1676c0.3413,-1.07947 0.28085,-2.5937 0.66667,-3.66667c0.35649,-0.99142 1.40717,-1.57493 2.01153,-2.438c-0.23136,-0.65974 -0.45501,-1.31334 -0.66979,-1.95599c0,0 -0.31623,-0.94868 0.63246,-1.26491c0.28593,-0.09531 0.51441,-0.07572 0.6941,-0.00182c-0.01673,-0.45729 -0.04437,-0.91389 -0.04423,-1.3581c-0.18633,-3.82678 -3.82661,-5.80664 -5.55199,-9.22584c-0.65233,-1.29273 -1.55658,-2.56742 -2.40855,-3.85491c0.20799,0.60314 0.41023,1.19283 0.58235,1.76083c0.5443,1.79633 0.71077,3.90334 1.32027,5.62729c0.38869,1.09941 1.0312,2.16878 1.05763,3.33458c0,0 0,1 -1,1c-1,0 -1,-1 -1,-1c0.03205,-0.94182 -0.63098,-1.77599 -0.94237,-2.66542c-0.61478,-1.75604 -0.79593,-3.88245 -1.3464,-5.70605c-0.77776,-2.57655 -2.06001,-5.52478 -2.04431,-8.27243c0.00258,-0.45106 0.04403,-0.89283 0.11238,-1.32804c-1.12097,-3.43971 -2.05671,-7.02638 -2.74581,-10.43806c-0.65372,-1.9536 -0.68592,-4.75503 -1.59848,-6.48398c-1.57758,-2.9889 -3.20806,-6.0301 -4.95234,-8.91362c-1.67334,-2.76625 -4.11013,-4.5573 -4.96508,-7.61769c-0.39933,-0.28982 -0.80097,-0.57285 -1.20482,-0.84825c-0.6456,-0.84887 -1.40333,-1.60655 -2.08613,-2.4258c-0.39087,-0.46899 -0.27194,-1.90047 -0.82244,-1.6365c-0.22419,0.1075 -1.59717,3.42805 -1.90551,3.89055l0.16795,-0.22137c0,0 0,1 -1,1c-1,0 -1,-1 -1,-1l0.16795,-0.88803c0.71524,-1.07285 2.1505,-4.60045 3.42783,-4.77612c1.16126,-0.1597 3.8082,3.76922 4.42477,4.60436c0.19841,0.12843 0.39631,0.25935 0.59371,0.39259c0.6692,-0.0563 0.91993,0.44826 1.00271,0.69945c3.8475,2.76884 7.48136,6.34171 10.74568,9.58301c1.67046,1.65868 4.38608,2.24709 5.56124,4.33538c0.55052,0.97829 -0.1553,3.20465 -0.26208,4.14789c-0.16699,1.47504 0.00487,3.08324 0.00487,4.56813c0,2.51532 0.23244,5.28858 -0.34057,7.7429c-0.31796,1.36191 -0.87849,2.68913 -1.15823,4.07882c0.3489,1.05675 0.7127,2.10098 1.08792,3.1255c0.90638,2.47488 3.10422,4.84603 4.2959,7.2539c1.91749,3.8744 5.55446,5.5875 5.78134,10.10749c0.00052,1.73041 0.17304,3.23033 -0.44501,4.76464c0.9824,2.74785 2.09411,5.56468 3.23952,8.10499c0.62607,1.38852 1.47705,1.73193 1.84516,3.25633c0.61822,2.56012 0.69397,5.58322 0.69397,8.23209c0,2.07117 0.23237,4.04155 -0.3248,5.95239c0.73607,5.07606 1.10458,10.32155 1.97059,15.50704c0.33289,1.69187 0.49234,3.62338 0.45165,5.57025c0.04159,0.05396 0.08085,0.10908 0.11757,0.16513c0.44775,0.68356 0.0446,1.67537 0.37554,2.42251c0.94295,2.12885 1.46215,4.32382 2.06727,6.58328c0.0203,4.12841 -0.34918,8.58853 0.32927,12.63922c0.77338,4.61742 2.13941,10.44364 0.62826,15.14308c-0.47209,1.35091 -0.28869,2.75408 -0.54699,4.18475c-0.82781,4.58515 -2.07597,9.30138 -1.40919,14.04351c0.4081,2.90236 1.84431,5.72563 2.33274,8.6775c0.01114,1.99015 0.76639,6.03562 -0.06804,7.82737c-1.50474,3.23111 -5.17065,5.87257 -8.03585,7.7827l-0.18093,0.20839c0,0 -0.70711,0.70711 -1.41421,0zM314.58218,148.80769c-0.38914,-0.98031 -0.74874,-1.9863 -0.84096,-3.03017c-0.16668,-1.88661 -1.27479,-7.06323 -3.67283,-6.77752c-1.98534,-0.50058 -1.33333,4.70508 -1.33333,6c0,6.10811 0.04484,12.20467 0.19023,18.31123c0.01105,0.46428 0.06608,1.01997 0.12331,1.61432c0.81497,-2.09577 1.96778,-4.093 2.73644,-6.23773c1.02709,-2.8658 1.21962,-5.88733 2.37112,-8.76414c0.18877,-0.3595 0.32659,-0.73272 0.42604,-1.11599zM313.82623,182.67258c0.64917,-3.36718 1.87912,-6.56855 2.51359,-9.91943c-0.42328,0.86638 -0.92335,1.95147 -0.97508,2.0815c-0.52223,1.31253 -1.44265,2.86285 -1.63718,4.28753c-0.16274,1.19192 -0.0498,2.37613 0.09867,3.5504zM299.44827,94.28218c0.54866,-2.28311 0.28678,-4.93621 0.28678,-7.28218c0,-1.5527 -0.16355,-3.22218 0.00487,-4.7652c0.0311,-0.28497 0.70273,-2.67995 0.40459,-3.18545c-0.89329,-1.51454 -3.76256,-2.33407 -5.10543,-3.66462c-2.22564,-2.20522 -4.58991,-4.48142 -7.06564,-6.59669c0.89968,1.09562 1.88638,2.16002 2.61226,3.35289c1.75861,2.89 3.57774,6.03016 5.04766,9.08638c0.94894,1.97299 1.0223,4.70377 1.73485,6.84935c0.4749,2.39413 1.08516,4.84638 1.79064,7.27432c0.10443,-0.35478 0.20331,-0.7105 0.28941,-1.0688z"/><path d="M292.40172,137.33333c1,0 1,1 1,1v0.66667c0,4.8771 0.19604,9.54514 -0.66585,14.20414c0.41029,1.08009 0.66667,2.14507 0.62295,3.17275c1.73802,2.50591 1.37624,6.02694 1.37624,8.95645v0.33333c0,0 0,1 -1,1c-1,0 -1,-1 -1,-1v-0.33333c0,-2.84594 0.30425,-5.89935 -1.29043,-8.37688c-0.00152,-0.04999 -0.00355,-0.09994 -0.0061,-0.14984c-0.59172,1.00004 -1.22678,1.99785 -1.38306,3.02023c-0.56684,3.70825 1.31294,6.8483 1.67209,10.3843c0.37958,3.73726 0.00749,7.69307 0.00749,11.45552c-0.00064,5.20321 2.68642,10.36412 3.32584,15.54448c0.43188,3.49897 -0.52956,6.618 -1.00542,9.94903c-0.27928,1.95495 -0.41199,3.41301 -1.54708,5.14047c-2.22628,2.14628 -1.44001,5.41802 -1.44001,8.36601c0,1.02844 -0.14697,2.06878 -0.33353,3.11223c-0.00374,1.98348 -0.0142,4.97619 0.89852,6.78176c0.66609,1.3177 1.48974,1.73423 2.49481,2.75214c1.44508,1.46355 1.9784,3.8844 2.26063,5.86037c0.32297,2.26114 -1.22075,8.54041 -4.43029,5.12359c-0.48911,-0.5207 -0.55758,-1.31551 -0.83637,-1.97326c-1.09338,-3.81764 -2.50948,-7.66727 -3.04627,-11.53463c-0.31976,-2.30378 0.2597,-4.60314 0.6596,-6.90678c-0.00019,-0.07265 -0.00032,-0.14447 -0.00042,-0.2154c0.01845,-2.16125 -0.75911,-4.40574 -0.99513,-6.56813c-0.86064,-7.88502 1.23868,-15.92433 3.36694,-23.37326c0,0 0.23426,-0.81991 1.02726,-0.72915c-1.02399,-3.76434 -2.39862,-7.51903 -2.39907,-11.32946c0,-3.68296 0.36671,-7.55264 0.00749,-11.21115c-0.36336,-3.70066 -2.34495,-7.05775 -1.66125,-10.94903c0.32554,-1.8528 1.76798,-3.33121 2.3603,-5.11941c0.0721,-0.28403 0.13911,-0.56835 0.20138,-0.85299c-1.06818,-2.66618 -2.89581,-5.27166 -3.55417,-7.99969c-1.18949,-4.92885 0.72396,-10.83963 3.11133,-15.03054c0,0 0.49614,-0.86824 1.36438,-0.3721c0.86824,0.49614 0.3721,1.36438 0.3721,1.36438c-2.13522,3.72418 -4.02107,9.23283 -2.88867,13.63613c0.39636,1.54122 1.28366,3.17613 2.15127,4.82713c0.35863,-3.58733 0.20249,-7.23172 0.20249,-10.9594v-0.66667c0,0 0,-1 1,-1zM292.71754,195.37264c-1.62393,5.73834 -3.18384,11.83366 -3.18592,17.89269c0.29966,-0.78644 0.75275,-1.53426 1.43009,-2.23265c1.28758,-1.88806 0.99403,-4.08866 1.45292,-6.19286c0.52937,-2.42737 0.98507,-4.83105 0.66125,-7.3843c-0.08819,-0.69535 -0.21121,-1.38951 -0.35834,-2.08287zM290.36814,232.26739c0.65145,3.14711 1.75495,6.28082 2.64649,9.40914c1.54502,4.22832 1.30729,-3.70239 0.76334,-5.38674c-0.5296,-1.6399 -2.30448,-2.61753 -3.40983,-4.0224z"/></g><path d="M201.10883,144.70711c-0.70711,0.70711 -1.41421,0 -1.41421,0l-0.57491,-0.72421c-0.16535,-0.49974 -0.33801,-0.99274 -0.51614,-1.48031c-0.24097,0.33732 -0.47574,0.6854 -0.70033,1.0479c-0.36411,0.58769 -0.72274,1.27432 -1.1086,1.95864c4.50158,8.05488 5.94042,16.97676 5.94042,26.15754c-0.02762,4.13658 -2.07839,8.86563 -3.84469,13.04567c0.10557,0.40388 0.17291,0.82828 0.17802,1.28767c-0.00963,3.49394 -0.85193,6.77816 -1.76506,10.04808c0.05473,0.81567 0.09839,1.58988 0.09839,2.28525c0,4.66514 2.07656,8.60798 2.65917,13.21115c0.2231,1.76272 0.11487,3.58823 0.33596,5.35698c0.31292,2.50337 0.75608,5.25365 -0.03501,7.71146c-0.7765,3.03412 -0.85264,6.2728 -2.39514,9.15976c-0.11014,0.20615 -0.22606,0.41351 -0.34682,0.62196c0.22748,3.05954 -0.94871,6.35659 -2.73516,8.84959c-0.32143,0.44856 -0.67164,0.84499 -1.03083,1.22201c0.29211,1.84268 0.83261,4.46281 0.13837,5.91644c-0.59799,1.2521 -1.60777,1.94592 -2.73767,2.4418c0.07633,2.51136 0.14712,5.01709 0.14712,7.50885v1c0,0 0,1 -1,1c-1,0 -1,-1 -1,-1v-1c0,-2.25425 -0.05797,-4.52073 -0.12557,-6.79263c-0.07517,0.02483 -0.15015,0.04967 -0.22487,0.07464l-1,0.33333c0,0 -0.94868,0.31623 -1.26491,-0.63246c-0.31623,-0.94868 0.63246,-1.26491 0.63246,-1.26491l0.02858,-0.00953c0.05288,-0.15908 0.12227,-0.26316 0.12227,-0.26316c0.85649,-1.16241 0.99867,-2.84912 1.53687,-4.33045c-0.02336,-1.14985 -0.03815,-2.29954 -0.03815,-3.44819c0,0 0,-1 1,-1c0.44532,0 0.69233,0.19831 0.82935,0.41831l-0.30369,-0.15318l-0.47434,0.0853c0.03256,-0.09129 0.06619,-0.18252 0.10085,-0.27369l-0.15217,-0.07675c0,0 0,-0.68952 0.57256,-0.92344c0.27056,-0.5902 0.57773,-1.17814 0.90929,-1.76418c-0.06732,-3.54029 0.18481,-7.16566 0.18481,-10.64571c0,0 0,-1 1,-1c1,0 1,1 1,1c0,2.42746 -0.13289,4.93529 -0.18676,7.43292c0.67499,-1.03139 1.35599,-2.059 1.9743,-3.08494c-0.18253,-1.14383 -0.61745,-2.24683 -1.35715,-3.25154c-0.65574,-2.49106 -0.5714,-5.01507 -1.38033,-7.45065l-0.05007,-0.64578c0,0 0,-1 1,-1c1,0 1,1 1,1l-0.05007,0.02088c0.77541,2.37757 0.72325,4.80352 1.28634,7.21601c0.35582,0.46457 0.64966,0.9559 0.88649,1.46747c0.86618,-2.36385 0.99301,-4.9092 1.58378,-7.31729c0.75131,-2.15949 0.24078,-4.74883 -0.03501,-6.95521c-0.21922,-1.75376 -0.1157,-3.56262 -0.33071,-5.30969c-0.42844,-3.48135 -1.69172,-6.56978 -2.31628,-9.88246c-0.13938,0.63596 -0.26476,1.27566 -0.37079,1.92046c-0.66536,4.04624 -0.68946,8.4561 -2.62934,12.35663c-1.12671,2.99034 -0.69108,6.94916 -0.69108,10.14986v0.33333c0,0 0,1 -1,1c-1,0 -1,-1 -1,-1v-0.33333c0,-3.55549 -0.32891,-7.58456 0.8534,-10.9391c1.88021,-3.7394 1.84029,-8.009 2.49285,-11.88775c0.43376,-2.57821 1.18943,-5.0766 1.90141,-7.58318c-0.16761,-2.99604 -0.44656,-6.39582 0.48113,-8.93691c0.32126,-0.87998 0.64445,-1.75514 0.96475,-2.62943c-0.41554,-1.15903 -1.13022,-2.24961 -1.34729,-3.53011c-0.59734,-3.52373 -0.3467,-7.16512 -0.67471,-10.72831c-0.23906,-2.59693 -1.30952,-5.18816 -1.3382,-7.7652c0,0 0,-1 1,-1c1,0 1,1 1,1c-0.03774,2.45482 1.10449,5.0746 1.32847,7.56813c0.31671,3.52592 0.08951,7.12056 0.65862,10.60502c0.07032,0.43052 0.18574,0.83145 0.32412,1.21614c0.62019,-1.75559 1.20934,-3.52353 1.72868,-5.33555c0.46682,-1.62877 1.30821,-2.99197 1.29345,-4.72041c0,-8.49567 -1.24173,-16.73794 -5.18172,-24.25052c-0.67444,0.83566 -1.47063,1.46303 -2.48494,1.58385c0,0 -1,0 -1,-1c0,-1 1,-1 1,-1c0.20907,0.09503 2.09071,-2.2703 2.49849,-2.88382c0.6961,-1.04729 1.55424,-2.13595 2.40679,-3.26709c-1.95742,-4.95857 -4.27912,-9.4916 -4.89917,-15.07199c0,0 -0.11043,-0.99388 0.88345,-1.10432c0.99388,-0.11043 1.10432,0.88345 1.10432,0.88345c0.54956,4.94602 2.48057,9.05674 4.27823,13.39797c1.33377,-1.97314 2.39456,-4.06722 2.39456,-6.28754v-0.33333c0,0 0,-1 1,-1c1,0 1,1 1,1v0.33333c0,3.51311 -1.81177,5.6446 -3.70574,7.9891c0.34635,0.88077 0.6796,1.77618 0.98776,2.69467l0.09176,-0.05755c0,0 0.70711,0.70711 0,1.41421zM192.14451,249.61732c0.37979,-0.69441 0.23409,-2.07706 0.01639,-3.3786c-0.32176,0.37836 -0.62326,0.78602 -0.88742,1.25121c-0.05633,0.09919 -0.10947,0.19897 -0.15978,0.29925c0.02074,0.95464 0.04697,1.90926 0.0751,2.86343c0.38013,-0.25655 0.71046,-0.58686 0.95571,-1.03528zM195.21341,238.09603c-0.58071,0.85952 -1.15459,1.72416 -1.66455,2.58573c0.00884,0.30745 0.02049,0.61406 0.03536,0.91966c0.71361,-1.09511 1.27693,-2.28578 1.62919,-3.50539zM190.89774,243.41831c0.17065,0.27402 0.17065,0.58169 0.17065,0.58169c0,0.17112 0.00033,0.34226 0.00096,0.51342c0.21701,-0.22861 0.43769,-0.45206 0.6577,-0.67681z" fill="#000000" stroke="none" stroke-width="0.5" stroke-linecap="butt"/><path d="M187.40172,103c-1,0 -1,-1 -1,-1l0.05132,-0.98289c0.41921,-1.19958 0.29649,-2.37378 0.57185,-3.596c-1.36145,2.75075 -3.98887,4.66878 -5.34115,7.56179c-0.53506,1.14468 0.25062,4.11126 0.37883,5.24275c0.29714,2.62224 0.42164,5.64614 1.28783,8.12479c0,0 0.31623,0.94868 -0.63246,1.26491c-0.94868,0.31623 -1.26491,-0.63246 -1.26491,-0.63246c-0.06137,-0.19086 -0.1194,-0.38376 -0.17435,-0.57845c-4.21691,7.56127 -7.25068,16.65268 -7.21371,25.34471c-1.82277,10.94118 1.25763,21.77752 1.33674,32.58198c0.00001,4.27255 0.78877,9.60899 -0.72878,13.68249c-1.59051,4.26935 -5.61878,8.41418 -5.60942,13.08492c-0.34383,1.71914 -0.06029,3.369 -0.34138,5.06164c-0.92201,5.552 -3.04611,10.93137 -2.32791,16.71763c0.16442,1.32471 1.14478,2.07927 1.55994,3.32474c0.84491,1.12655 2.65706,3.18684 3.07131,4.50766c2.07269,6.60864 0.78694,13.50366 0.68282,20.39336c1.15628,2.19762 3.01172,4.10703 3.60793,6.49187l0.5842,0.84985c0,0 0.5547,0.83205 -0.27735,1.38675c-0.83205,0.5547 -1.38675,-0.27735 -1.38675,-0.27735l-0.74913,-1.15015c-0.61595,-2.46382 -2.59382,-4.49728 -3.7254,-6.84147c-0.08462,-7.05317 1.00596,-13.47247 -0.65051,-20.2733c-0.24417,-1.00248 -2.2635,-3.27209 -2.92869,-4.15901c-0.50708,-1.52123 -1.51387,-2.34248 -1.77339,-4.00859c-0.91941,-5.90256 1.39166,-11.6278 2.33875,-17.28237c0.27441,-1.63835 -0.00968,-3.2635 0.32529,-4.93836c0.00953,-4.92734 4.03347,-9.10802 5.72391,-13.58174c1.43466,-3.79682 0.60454,-9.00325 0.60455,-12.98418c-0.01088,-10.86461 -3.16596,-21.7398 -1.32993,-32.75135c0.03626,-9.22781 3.24807,-18.78888 7.79502,-26.74699c0,0 0.33563,-0.58734 0.93787,-0.51983c-0.35226,-1.94412 -0.51494,-3.97344 -0.73047,-5.87634c-0.17995,-1.58876 -0.93392,-4.49417 -0.28783,-6.09058c1.45812,-3.60285 5.09719,-5.67374 6.03417,-9.42166c1.95969,-2.93954 3.20534,-8.10623 3.49939,-11.66322c0.21645,-2.61832 -0.41052,-5.96913 0.82458,-8.31491c0.16553,-0.31439 0.36553,-0.59951 0.59325,-0.85935c0.1539,-1.50615 0.4932,-2.97053 1.18606,-4.34268c3.29815,-3.32824 7.43813,-6.20386 11.73492,-7.9942c1.49574,-0.62323 3.44202,-1.72205 4.69799,0.61563c0.56485,1.05134 -1.37111,2.26526 -1.81042,2.88132c-1.47062,2.06228 -2.38859,4.79683 -4.61884,6.26594c-1.10313,0.72665 -2.95091,1.01183 -4.2095,1.43137c-1.18525,0.38248 -3.82513,0.90669 -5.11913,2.00548c-0.1377,2.24103 0.13624,4.61053 0.13624,6.7125c0,1.33117 0.35868,3.33928 -0.04291,4.62312c-0.23593,0.75424 -0.89868,1.37821 -0.96458,2.16573c-0.27999,3.34545 -0.84049,6.48764 -2.76086,9.31717c-0.43472,1.28132 -0.19104,2.55439 -0.6163,3.87688l0.05132,0.35044c0,0 0,1 -1,1zM192.96468,72.50373c1.361,-0.64679 2.89784,-1.0346 4.12082,-1.45242c1.85154,-0.61718 4.40443,-0.99136 5.44603,-2.87735c0.22148,-0.40103 0.09038,-0.94494 0.33333,-1.33333c0.60851,-0.9728 1.39132,-1.82547 2.05896,-2.75868c0.28625,-0.40011 0.64141,-0.75803 1.0379,-1.04928c0.13162,-0.09669 0.64666,-0.04609 0.48501,-0.0694c-1.1525,-0.16616 -2.34246,0.8711 -3.32899,1.29393c-3.40831,1.46082 -6.88717,4.00789 -9.57144,6.66083c-0.24867,0.50449 -0.43837,1.03547 -0.58162,1.58569zM187.41817,96.49936c0.42211,-0.70211 0.75788,-1.42644 1.03681,-2.16553c-0.25399,0.5081 -0.5227,0.97998 -0.80542,1.40406c-0.06542,0.26168 -0.14305,0.51516 -0.2314,0.76147z" fill="#000000" stroke="none" stroke-width="0.5" stroke-linecap="butt"/><path d="M257.72074,64c27.24334,-23.94035 48.27513,34.61705 54.625,80.125c3.37595,24.1946 14.54597,110.07037 -3.13232,116.51164c-0.46168,0.16822 0.13594,-17.30231 0.13594,-17.30231c0,0 -4.93158,17.44816 -5.37862,17.41567c-19.09404,-1.38747 -14.625,-112.84115 -14.625,-113.375c0,-37.6244 -39.851,-76.14631 -31.625,-83.375z" data-paper-data="{&quot;index&quot;:null}" fill="#000000" stroke="none" stroke-width="0" stroke-linecap="butt"/><path d="M197.94339,146.875c0,0.53385 4.46903,111.98753 -14.625,113.375c-0.44703,0.03249 -5.37862,-17.41567 -5.37862,-17.41567c0,0 0.59763,17.47054 0.13594,17.30231c-17.67829,-6.44127 -6.50828,-92.31703 -3.13233,-116.51164c6.34987,-45.50795 27.38165,-104.06535 54.625,-80.125c8.22601,7.22868 -31.625,45.7506 -31.625,83.375z" fill="#000000" stroke="none" stroke-width="0" stroke-linecap="butt"/><path d="M270.58851,61.27676c4.33048,3.3116 6.10724,8.26342 3.9685,11.06018c-2.13874,2.79677 -17.82081,-9.1956 -15.68206,-11.99237c2.13875,-2.79677 7.38308,-2.37941 11.71357,0.93219z" data-paper-data="{&quot;index&quot;:null}" fill="#dddd61" stroke="#959541" stroke-width="2" stroke-linecap="butt"/><path d="M229.01322,60.84457c2.13875,2.79677 -13.54331,14.78914 -15.68206,11.99237c-2.13874,-2.79677 -0.36199,-7.74858 3.96849,-11.06018c4.33048,-3.3116 9.57482,-3.72896 11.71356,-0.93219z" fill="#dddd61" stroke="#959541" stroke-width="2" stroke-linecap="butt"/><path d="M200.66358,224.2604c0,0 1.38862,-14.37712 1.23063,-38.00526c-0.05451,-8.15261 8.18688,-36.76129 40.20201,-36.9211c31.60235,-0.15775 39.85672,29.48704 39.84884,36.89673c-0.00476,2.87381 -2.64736,3.5078 -3.15444,4.79788c-2.39102,6.08319 -6.84677,-1.55837 -6.84677,-1.55837c0,0 0.07549,-3.0993 -2.81625,-3.15415c-3.43441,-0.06514 -2.94538,3.11562 -2.94538,3.11562c0,0 -1.41774,6.62742 -1.40704,12.60501c0.03126,17.47439 1.61253,102.26494 1.61253,102.26494l-48.21366,0.07222c0,0 2.78885,-79.9626 2.73825,-99.05283c-0.02066,-7.79469 -2.04364,-17.89455 -2.04364,-17.89455c0,0 -0.72051,-1.20471 -3.8856,-1.22015c-3.11083,-0.01515 -2.81569,2.90899 -2.81569,2.90899l-1.91403,35.22217z" fill="url(#color-1)" stroke="#000000" stroke-width="2" stroke-linecap="butt"/><path d="M267.10266,156.32028c0,0 3.6988,-0.70081 9.5,6c1.53533,1.77343 4.54277,3.00216 6.36807,13.19134c-0.7683,1.42802 -1.44263,2.96655 -1.66764,4.25725c-0.27015,1.54961 0.32994,4.2574 -0.32478,5.61656c-0.59067,1.22619 -2.04865,1.06047 -3.05879,0.77042c-2.11617,3.43418 -0.23368,13.56961 -7.18851,10.96454c-1.06168,-0.39767 -1.82747,-0.9355 -2.73752,-1.60582c-0.53936,-0.18286 -1.99193,-1.06278 -2.5446,-1.05668c-1.53161,0.01691 -2.36153,1.37756 -3.37427,2.22857c-0.21436,0.18013 -0.42752,0.36735 -0.64018,0.55951c2.38823,-20.39233 5.66823,-40.92569 5.66823,-40.92569z" fill="#000000" stroke="none" stroke-width="0" stroke-linecap="butt"/><path d="M203.87568,96.96803c0.20764,-1.4009 5.52839,-18.27602 5.60691,-18.20356c0.80328,0.74133 8.33649,-19.03463 30.83072,-21.11692c38.60274,-3.57348 39.87243,36.70495 41.06101,39.93699c3.44981,9.38084 3.38949,15.34665 2.07694,14.26619c-1.2242,-1.00773 -3.80143,-3.14585 -3.80143,-3.14585c0,0 3.09111,10.3481 1.31092,20.69498c-1.5623,9.48098 -7.29782,17.22543 -7.29782,17.22543l-1.15522,-2.34735c0,0 -1.02266,2.19794 -2.16005,3.33274c-1.1374,1.13479 -3.43873,2.91273 -3.43873,2.91273l-0.09205,-3.70421c0,0 -7.0601,11.01795 -24.35066,10.87154c-16.30625,-0.25547 -26.07151,-10.6752 -26.07151,-10.6752l-0.1162,2.65484c0,0 -3.89477,-3.29276 -6.18145,-9.70754c-2.72545,-7.64567 -3.23946,-12.24324 -3.23946,-12.24324l-4.43315,-5.02745c0,0 -3.28793,-2.8884 -1.23211,-8.72541c1.94102,-5.51108 2.09972,-10.95731 2.09972,-10.95731c0,0 -1.36165,0.66163 -3.33013,0.79513c-1.2457,0.08449 3.78553,-5.97138 3.91376,-6.8365z" fill="#000000" stroke="none" stroke-width="1.5" stroke-linecap="butt"/><path d="M197.58407,103.75563h0.00001c0,0.00001 -0.00001,0.00001 -0.00001,0.00001z" fill="#000000" stroke="none" stroke-width="1.5" stroke-linecap="butt"/><path d="M215.86701,121.25292c0,0 -3.56385,-2.92338 -4.31816,-8.45061c-0.42079,-3.08327 2.15675,-2.28016 2.15675,-2.28016" fill="none" stroke="#000000" stroke-width="0.25" stroke-linecap="round"/><path d="M270.30276,114.58921c1.0294,-5.97877 1.7913,-8.61483 3.73262,-8.35569c1.94131,0.25914 1.77649,4.24909 0.48013,9.99193c-1.23206,5.45797 -6.16417,8.97502 -6.16417,8.97502c0,0 0.92203,-4.6325 1.95143,-10.61127z" data-paper-data="{&quot;index&quot;:null}" fill="#ffffff" stroke="#000000" stroke-width="1" stroke-linecap="butt"/><path d="M201.30101,151.51021l-2.27839,-70.62993l85.95529,-2.77275l2.27839,70.62993z" fill="#000000" stroke="#000000" stroke-width="1.4" stroke-linecap="butt"/><path d="M206.69773,146.8862l-2.46165,-62.20589c0,0 32.63944,-0.11553 33.97661,-0.40576l0.02985,-0.00747c0,0 0.12432,-0.03108 0.23136,-0.12471l41.26748,-1.3312l1.98886,61.65463z" fill="#ffffff" stroke="#000000" stroke-width="1.4" stroke-linecap="butt"/><g fill="none" stroke="none" stroke-width="1" stroke-linecap="butt" font-family="sans-serif" font-weight="normal" font-size="12" text-anchor="start"><g/><g/></g><path d="M-41.08115,234.13747c8.97648,-2.26318 18.20037,3.62455 20.60211,13.15062c2.40175,9.52606 -2.92814,19.08315 -11.90463,21.34633c-8.97648,2.26318 -18.20037,-3.62455 -20.60211,-13.15062c-2.40174,-9.52607 2.92814,-19.08315 11.90463,-21.34633z" fill="#000000" stroke="none" stroke-width="0" stroke-linecap="butt"/><path d="M-41.82283,203.85564c7.87732,-1.98605 15.9855,3.23527 18.11012,11.66219c2.12462,8.42691 -2.53887,16.86829 -10.41619,18.85434c-7.87732,1.98605 -15.9855,-3.23528 -18.11012,-11.66219c-2.12462,-8.42691 2.53887,-16.86828 10.41619,-18.85434z" fill="#ffffff" stroke="none" stroke-width="0" stroke-linecap="butt"/><path d="M-41.66551,171.87615c8.97648,-2.26318 18.12547,3.32754 20.43484,12.48722c2.30937,9.15968 -3.09539,18.41974 -12.07188,20.68292c-8.97648,2.26318 -18.12548,-3.32753 -20.43485,-12.48721c-2.30937,-9.15968 3.0954,-18.41974 12.07189,-20.68292z" fill="#6e6e30" stroke="none" stroke-width="0" stroke-linecap="butt"/><path d="M-42.78647,107.99519c9.70926,-2.44793 19.6395,3.73555 22.1798,13.8112c2.5403,10.07565 -3.27127,20.22802 -12.98054,22.67595c-9.70927,2.44793 -19.63951,-3.73556 -22.17981,-13.81121c-2.54031,-10.07565 3.27128,-20.22802 12.98055,-22.67595z" fill="#c5c556" stroke="none" stroke-width="0" stroke-linecap="butt"/><path d="M-39.24181,140.79729c8.06052,-2.03225 16.54185,4.0427 18.9436,13.56877c2.40175,9.52607 -2.18559,18.89594 -10.24611,20.92818c-8.06052,2.03224 -16.54185,-4.04269 -18.9436,-13.56877c-2.40175,-9.52606 2.18559,-18.89593 10.24611,-20.92818z" fill="#9b9b44" stroke="none" stroke-width="0" stroke-linecap="butt"/><path d="M-42.49428,79.17013c7.94223,-2.00242 16.20438,3.60762 18.45401,12.53038c2.24963,8.92275 -2.36513,17.77936 -10.30737,19.78179c-7.94223,2.00242 -16.20437,-3.60762 -18.45401,-12.53037c-2.24964,-8.92276 2.36512,-17.77936 10.30736,-19.78179z" fill="#ecec68" stroke="none" stroke-width="0" stroke-linecap="butt"/><g fill="#000000" stroke="none" stroke-width="0" stroke-linecap="butt"><path d="M211.58601,109.9028c0,0 4.45781,-9.40552 12.33512,-9.40552c7.87731,0 12.18093,8.78877 12.18093,8.78877c0,0 -7.16863,-4.77986 -12.18093,-4.77986c-4.67861,0 -12.33512,5.39661 -12.33512,5.39661z"/><path d="M212.04258,100.41118l5.70499,2.46702l-2.46703,1.85027z"/><path d="M210.47498,102.52785l5.705,2.46703l-2.46703,1.85026z"/></g><g data-paper-data="{&quot;index&quot;:null}" fill="#000000" stroke="none" stroke-width="0" stroke-linecap="butt"><path d="M261.36841,103.96683c-5.01229,0 -12.18093,4.77985 -12.18093,4.77985c0,0 4.30362,-8.78877 12.18093,-8.78877c7.87731,0 12.33512,9.40552 12.33512,9.40552c0,0 -7.65651,-5.39661 -12.33512,-5.39661z"/><path d="M270.00898,104.18912l-2.46703,-1.85027l5.705,-2.46702z"/><path d="M271.57658,106.30578l-2.46702,-1.85026l5.70499,-2.46703z"/></g><path d="M242.37186,123.22722c7.22716,0 17.56352,-4.77986 17.56352,-4.77986c0,0 -3.07217,16.84803 -17.89686,17.78877c-15.67563,0.99474 -17.45252,-18.40552 -17.45252,-18.40552c0,0 11.03982,5.39661 17.78585,5.39661z" fill="#000000" stroke="none" stroke-width="0" stroke-linecap="butt"/><path d="M248.29062,133.63889c0,0 -3.18376,1.55555 -7.11112,1.55555c-3.92736,0 -7.11111,-1.55555 -7.11111,-1.55555c0,0 3.18375,-2.66667 7.11111,-2.66667c3.92736,0 7.11112,2.66667 7.11112,2.66667z" fill="#ffffff" stroke="none" stroke-width="0" stroke-linecap="butt"/><path d="M226.95728,119.86111c0,0 10.19448,5 15,5c4.787,0 15.55555,-4.22222 15.55555,-4.22222c0,0 -7.5294,6.35148 -15.77777,5.88889c-7.76146,-0.43528 -14.77778,-6.66667 -14.77778,-6.66667z" fill="#ffffff" stroke="none" stroke-width="0" stroke-linecap="butt"/><path d="M198.35411,221.60715c0,0 -0.4038,-24.21026 3.0462,-42.95382c1.8716,-10.16823 8.57404,-18.97943 9.37298,-19.76523c4.32612,-4.25495 12.72367,-5.42381 12.72367,-5.42381l-3.73395,38.57361c0,0 -4.96003,-8.19201 -5.69463,-4.71646c-0.7346,3.47555 0,34.42857 0,34.42857z" fill="#dddd61" stroke="#6e6e30" stroke-width="2" stroke-linecap="butt"/><path d="M215.78268,305.03571l3.57143,-105.57142l2.85714,-45.71428c0,0 12.26204,5.14286 20.85715,5.14286c8.54748,0 20.42857,-4.71429 20.42857,-4.71429l1.71429,45.14286l5.42857,105.85714z" fill="#dddd61" stroke="#6e6e30" stroke-width="2" stroke-linecap="butt"/><path d="M222.28465,152.84619c0.40617,-1.58777 14.21,4.97525 21.9266,4.97525c7.68326,0 18.6621,-6.57725 19.31037,-4.84853c0.71445,1.90521 -4.82037,7.40446 -18.80439,8.01856c-16.13709,0.70865 -22.70235,-7.09073 -22.43258,-8.14527z" fill="#dddd61" stroke="#6e6e30" stroke-width="2" stroke-linecap="butt"/><path d="M228.69463,106.57122c0.01031,1.34122 -2.07224,2.44458 -4.65151,2.46442c-2.57927,0.01984 -4.67856,-1.05135 -4.68887,-2.39257c-0.01031,-1.34122 2.07224,-2.44458 4.65151,-2.46442c2.57927,-0.01984 4.67856,1.05135 4.68887,2.39257z" fill="#000000" stroke="none" stroke-width="0" stroke-linecap="butt"/><path d="M265.55177,105.99979c0.01031,1.34122 -2.07223,2.44458 -4.65151,2.46442c-2.57927,0.01984 -4.67856,-1.05135 -4.68887,-2.39257c-0.01031,-1.34122 2.07224,-2.44458 4.65151,-2.46442c2.57927,-0.01984 4.67855,1.05135 4.68887,2.39258z" fill="#000000" stroke="none" stroke-width="0" stroke-linecap="butt"/><path d="M214.06839,184.28572l3.28572,-26.57143l4.2977,-2.99759l11.41659,9.56902l-12.14285,28.57143c0,0 0.08989,-2.52699 -1.77339,-4.07155c-1.74846,-1.44938 -5.08375,-4.49988 -5.08375,-4.49988z" fill="#dddd61" stroke="none" stroke-width="0" stroke-linecap="butt"/><path d="M261.81839,177.91667c0,6.44332 -8.5439,11.66667 -19.08334,11.66667c-10.53943,0 -19.08333,-5.22335 -19.08333,-11.66667c0,-6.44332 8.54389,-11.66666 19.08333,-11.66666c10.53943,0 19.08334,5.22334 19.08334,11.66666z" fill="#ffff6e" stroke="none" stroke-width="0" stroke-linecap="butt"/><path d="M285.92554,178.64286c0,12.11082 -6.52385,21.92857 -14.57143,21.92857c-8.04758,0 -10,-10.10347 -10,-22.21428c0,-11.92241 2.62305,-24.49555 2.85715,-24.5c8.04613,-0.15277 21.71429,12.67489 21.71429,24.78571z" fill="#ffffff" stroke="#000000" stroke-width="1.5" stroke-linecap="butt"/><path d="M274.92554,158.85715c0,0 -2.58364,6.56445 -4.65456,9.65865c-1.97184,2.94617 -8.63116,7.62706 -8.63116,7.62706" fill="none" stroke="#000000" stroke-width="1.5" stroke-linecap="round"/><path d="M270.21124,156.28572c0,0 -1.95281,4.46006 -3.30036,6.28043c-1.36647,1.84594 -4.84249,4.71957 -4.84249,4.71957" fill="none" stroke="#000000" stroke-width="1.5" stroke-linecap="round"/><path d="M278.92554,163.85715c0,0 -4.15507,9.70731 -6.22599,12.8015c-1.97184,2.94617 -10.63116,7.91278 -10.63116,7.91278" fill="none" stroke="#000000" stroke-width="1.5" stroke-linecap="round"/><path d="M282.92554,169.28572c0,0 -5.44078,12.27874 -7.5117,15.37293c-1.97184,2.94617 -11.91688,9.48421 -11.91688,9.48421" fill="none" stroke="#000000" stroke-width="1.5" stroke-linecap="round"/><path d="M285.78268,175.28572c0,0 -4.29793,11.27874 -6.36885,14.37293c-1.97184,2.94617 -11.63116,10.19849 -11.63116,10.19849" fill="none" stroke="#000000" stroke-width="1.5" stroke-linecap="round"/><path d="M225.73506,173.25c0,1.25798 -1.39289,2.27778 -3.11111,2.27778c-1.71822,0 -3.11111,-1.0198 -3.11111,-2.27778c0,-1.25798 1.39289,-2.27778 3.11111,-2.27778c1.71822,0 3.11111,1.0198 3.11111,2.27778z" fill="#ffff6e" stroke="none" stroke-width="0" stroke-linecap="butt"/><path d="M238.84617,189.25c0,1.07388 -1.09441,1.94445 -2.44445,1.94445c-1.35003,0 -2.44445,-0.87056 -2.44445,-1.94445c0,-1.07388 1.09441,-1.94445 2.44445,-1.94445c1.35003,0 2.44445,0.87056 2.44445,1.94445z" fill="#ffff6e" stroke="none" stroke-width="0" stroke-linecap="butt"/><path d="M223.40173,181.30556c0,0.55229 -0.44771,1 -1,1c-0.55229,0 -1,-0.44771 -1,-1c0,-0.55229 0.44771,-1 1,-1c0.55229,0 1,0.44771 1,1z" fill="#ffff6e" stroke="none" stroke-width="0" stroke-linecap="butt"/><path d="M229.84617,186.58334c0,1.25798 -1.11929,2.27777 -2.5,2.27777c-1.38071,0 -2.5,-1.01979 -2.5,-2.27777c0,-1.25798 1.11929,-2.27778 2.5,-2.27778c1.38071,0 2.5,1.0198 2.5,2.27778z" fill="#ffff6e" stroke="none" stroke-width="0" stroke-linecap="butt"/><path d="M235.62395,167.52778c0,2.14777 -1.98985,3.88888 -4.44445,3.88888c-2.4546,0 -4.44445,-1.74111 -4.44445,-3.88888c0,-2.14777 1.98985,-3.88889 4.44445,-3.88889c2.4546,0 4.44445,1.74112 4.44445,3.88889z" fill="#ffff6e" stroke="none" stroke-width="0" stroke-linecap="butt"/><path d="M225.29061,169.30556c0,0.55229 -0.44771,1 -1,1c-0.55229,0 -1,-0.44771 -1,-1c0,-0.55229 0.44771,-1 1,-1c0.55229,0 1,0.44771 1,1z" fill="#ffff6e" stroke="none" stroke-width="0" stroke-linecap="butt"/><path d="M256.84617,169.02778c0,1.933 -1.81574,3.5 -4.05556,3.5c-2.23982,0 -4.05555,-1.567 -4.05555,-3.5c0,-1.933 1.81573,-3.5 4.05555,-3.5c2.23982,0 4.05556,1.567 4.05556,3.5z" fill="#ffff6e" stroke="none" stroke-width="0" stroke-linecap="butt"/><path d="M257.1795,186.63889c0,2.4546 -2.61167,4.44445 -5.83333,4.44445c-3.22166,0 -5.83334,-1.98985 -5.83334,-4.44445c0,-2.4546 2.61167,-4.44445 5.83334,-4.44445c3.22166,0 5.83333,1.98985 5.83333,4.44445z" fill="#ffff6e" stroke="none" stroke-width="0" stroke-linecap="butt"/><path d="M247.06839,191.91667c0,0.82843 -0.6467,1.5 -1.44445,1.5c-0.79774,0 -1.44445,-0.67157 -1.44445,-1.5c0,-0.82843 0.6467,-1.5 1.44445,-1.5c0.79774,0 1.44445,0.67157 1.44445,1.5z" fill="#ffff6e" stroke="none" stroke-width="0" stroke-linecap="butt"/><path d="M250.40173,192.97222c0,0.42955 -0.39797,0.77778 -0.88889,0.77778c-0.49092,0 -0.88889,-0.34823 -0.88889,-0.77778c0,-0.42955 0.39797,-0.77777 0.88889,-0.77777c0.49092,0 0.88889,0.34822 0.88889,0.77777z" fill="#ffff6e" stroke="none" stroke-width="0" stroke-linecap="butt"/><path d="M260.40173,186.30556c0,0.61365 -0.44772,1.11111 -1,1.11111c-0.55228,0 -1,-0.49746 -1,-1.11111c0,-0.61365 0.44772,-1.11111 1,-1.11111c0.55228,0 1,0.49746 1,1.11111z" fill="#ffff6e" stroke="none" stroke-width="0" stroke-linecap="butt"/><path d="M261.1795,190.58334c0,0.95116 -0.82081,1.72222 -1.83333,1.72222c-1.01252,0 -1.83333,-0.77106 -1.83333,-1.72222c0,-0.95115 0.82081,-1.72223 1.83333,-1.72223c1.01252,0 1.83333,0.77107 1.83333,1.72223z" fill="#ffff6e" stroke="none" stroke-width="0" stroke-linecap="butt"/><path d="M260.51284,167.80556c0,0.70569 -0.54721,1.27778 -1.22222,1.27778c-0.67501,0 -1.22222,-0.57209 -1.22222,-1.27778c0,-0.70569 0.54721,-1.27777 1.22222,-1.27777c0.67501,0 1.22222,0.57208 1.22222,1.27777z" fill="#ffff6e" stroke="none" stroke-width="0" stroke-linecap="butt"/><path d="M249.40173,164.41667c0,0.36819 -0.42284,0.66667 -0.94445,0.66667c-0.5216,0 -0.94445,-0.29848 -0.94445,-0.66667c0,-0.36819 0.42284,-0.66666 0.94445,-0.66666c0.5216,0 0.94445,0.29847 0.94445,0.66666z" fill="#ffff6e" stroke="none" stroke-width="0" stroke-linecap="butt"/><path d="M238.1795,164.30556c0,0.36819 -0.29847,0.66666 -0.66666,0.66666c-0.36819,0 -0.66666,-0.29847 -0.66666,-0.66666c0,-0.36819 0.29847,-0.66666 0.66666,-0.66666c0.36819,0 0.66666,0.29847 0.66666,0.66666z" fill="#ffff6e" stroke="none" stroke-width="0" stroke-linecap="butt"/><path d="M226.84617,164.36111c0,0.76706 -0.7462,1.38889 -1.66667,1.38889c-0.92048,0 -1.66666,-0.62183 -1.66666,-1.38889c0,-0.76706 0.74619,-1.38889 1.66666,-1.38889c0.92048,0 1.66667,0.62183 1.66667,1.38889z" fill="#ffff6e" stroke="none" stroke-width="0" stroke-linecap="butt"/><path d="M228.40173,179.25c-0.5,0 -0.5,-0.5 -0.5,-0.5c0,-0.22222 0,-1.11112 0,-1.33334c0,-2.05144 0.55555,-3.94932 0.55555,-6c0,-0.15548 -0.0917,-0.93482 -0.03119,-1.43333c-0.24202,0.51897 -0.64253,1.35034 -0.69464,1.44704c-0.59552,1.10528 -0.88313,2.23262 -1.54276,3.17142l0.15902,0.12722l-0.44156,0.55195c-0.09154,0.11646 -0.2337,0.19125 -0.39332,0.19125c-0.24578,0 -0.45013,-0.17732 -0.49211,-0.41102l-0.10258,-0.51288c-0.17576,-0.44731 -0.34775,-1.49311 -0.42744,-2.04334c0.20938,2.42447 -1.48039,5.61509 -1.47788,8.13392c0,0 0,0.5 -0.5,0.5c-0.5,0 -0.5,-0.5 -0.5,-0.5c0.00242,-2.58256 0.80672,-4.93714 1.34077,-7.41923c0.08359,-0.38851 -0.06467,-2.09787 0.5699,-2.17043c1.03092,-0.1179 1.43154,1.27441 1.70313,2.33065c0.31056,-1.27953 1.4124,-2.93433 1.91573,-3.68664c0.20924,-0.31275 0.89911,-1.25492 1.31812,-1.09391c0.7085,0.27224 0.59518,1.49518 0.5968,2.03957c0.0069,2.32018 -0.55555,4.47916 -0.55555,6.77777c0,0.22222 0,0.44445 0,0.66667v0.66666c0,0 0,0.5 -0.5,0.5z" fill="#b5b54e" stroke="none" stroke-width="0.5" stroke-linecap="butt"/><path d="M232.37281,173.92347c0.49319,0.0822 0.411,0.57539 0.411,0.57539l-0.1228,0.7192c-0.4091,1.03606 -0.46407,3.24481 -1.45276,3.85328c-1.81356,1.11612 -2.08429,-2.35071 -2.08429,-3.21024c0,0 0,-0.5 0.5,-0.5c0.5,0 0.5,0.5 0.5,0.5c0,4.02783 0.80405,0.9832 1.57405,-0.91251l0.09942,-0.61414c0,0 0.0822,-0.49319 0.57539,-0.41099z" fill="#b5b54e" stroke="none" stroke-width="0.5" stroke-linecap="butt"/><path d="M241.19972,174.952c0.35356,0.35356 0,0.70711 0,0.70711l-0.22222,0.22222c-0.29277,0.28468 -0.57771,0.45679 -0.8718,0.63412c0.05725,1.42668 0.10594,2.85379 0.34477,4.26346l0.0068,0.19331c0,0 0,0.5 -0.5,0.5c-0.5,0 -0.5,-0.5 -0.5,-0.5l0.0068,-0.02891c-0.03173,-0.19324 -0.06003,-0.3868 -0.08539,-0.58064c-0.65421,1.42557 -3.36136,0.54889 -4.42141,0.55399h-0.11111c0,0 -0.5,0 -0.5,-0.5c0,-0.5 0.5,-0.5 0.5,-0.5h0.11111c1.18133,0.00475 2.3309,0.09647 3.5083,0.07593c0.31966,-0.00557 -0.62852,-0.13778 -0.92172,-0.26524c-0.84643,-0.36798 -2.09062,-0.78887 -2.80088,-1.38099c-1.46854,-1.22427 -0.83098,-3.85422 1.10319,-3.98525c0,0 0.5,0 0.5,0.5c0,0.5 -0.5,0.5 -0.5,0.5c-0.96333,-0.15319 -1.21656,1.66822 -0.48412,2.19993c0.56197,0.40795 3.21368,1.13687 3.93001,2.02801c-0.08037,-0.84844 -0.11736,-1.70091 -0.15233,-2.55354c-0.11605,-0.00412 -0.24546,-0.05469 -0.36023,-0.20772c-0.3,-0.4 0.1,-0.7 0.1,-0.7c0.07223,-0.05339 0.14393,-0.10209 0.21505,-0.14771c-0.04992,-1.05394 -0.12287,-2.10568 -0.29713,-3.14787c0,0 -0.08219,-0.49319 0.411,-0.57539c0.49319,-0.0822 0.57539,0.41099 0.57539,0.41099c0.14896,0.89652 0.22212,1.79972 0.2704,2.70501c0.07326,-0.05957 0.14536,-0.12497 0.21618,-0.19858l0.22223,-0.22223c0,0 0.35355,-0.35356 0.70711,0z" fill="#b5b54e" stroke="none" stroke-width="0.5" stroke-linecap="butt"/><path d="M250.62672,174.5264c0.2236,0.44721 -0.2236,0.67082 -0.2236,0.67082l-0.09228,0.01745c-1.43291,1.42348 -2.14325,2.88146 -3.13515,4.43455l0.06167,0.02467l-0.36706,0.91766c-0.07091,0.1899 -0.25394,0.32511 -0.46856,0.32511c-0.25024,0 -0.45753,-0.18383 -0.49423,-0.4238c-0.03482,0.24734 -0.28217,0.37101 -0.28217,0.37101l-0.87096,-0.07292c-0.24337,-0.39312 -0.78082,-1.01099 -1.08936,-1.59174c-1.27124,3.66858 -4.7842,-3.50107 0.057,-2.60617c0,0 0.49029,0.09806 0.39223,0.58835c-0.03412,0.17063 -0.11576,0.27 -0.20769,0.32704l0.25726,0.42876l-0.08405,0.05043c0.49679,0.59489 0.88701,1.23668 1.30997,1.92741c0.14651,-0.01078 0.33652,0.03264 0.45922,0.27802c0.02622,0.05243 0.04321,0.10178 0.05279,0.14807c0,-1.07866 0,-2.7641 0,-3.81335c0,0 0,-0.5 0.5,-0.5c0.5,0 0.5,0.5 0.5,0.5c0,0.33059 0,0.66118 0,0.99177c0.68675,-1.17757 1.91037,-2.21436 2.702,-3.01199l0.35217,-0.20478c0,0 0.44721,-0.2236 0.67082,0.22361zM242.90173,177.63889v0c0,-0.02849 0.00238,-0.05644 0.00696,-0.08364c-1.38209,0.30249 -0.43098,3.16184 -0.00696,0.60826z" fill="#b5b54e" stroke="none" stroke-width="0.5" stroke-linecap="butt"/><path d="M254.32182,180.36014c-0.49902,0.0312 -0.53024,-0.46782 -0.53024,-0.46782l0.00758,-0.14663c-0.0782,-0.23936 -0.16535,-0.53357 -0.25415,-0.86664c-0.22515,0.4178 -0.52775,0.75994 -0.93121,0.99042c-1.85536,1.05986 -3.0305,-2.89696 0.23237,-2.9528c0,0 0.06479,0 0.14773,0.02332c0.02312,-0.12516 0.04263,-0.25241 0.05898,-0.38143c-0.21133,-1.34395 -0.29469,-2.75975 -0.0195,-3.7412c-0.00568,-0.13515 -0.01053,-0.26884 -0.01409,-0.4007h-0.00645v-1c0,-0.27614 0.22386,-0.5 0.5,-0.5c0.27614,0 0.5,0.22386 0.5,0.5v0.55555c0,0.92148 0.16212,2.35439 0.14118,3.76745c0.07474,1.25584 0.18922,2.50375 0.59384,3.68979l0.04179,0.40044c0,0 0.03121,0.49903 -0.46782,0.53023zM252.72972,177.92557c-0.45415,0.06116 -1.68055,0.43143 -1.08555,1.02643c0.46419,0.46419 0.86218,-0.37664 1.08555,-1.02643z" fill="#b5b54e" stroke="none" stroke-width="0.5" stroke-linecap="butt"/><path d="M242.7809,186.87416c0.09806,0.49029 -0.39223,0.58835 -0.39223,0.58835l-0.56347,0.11263c-0.23091,0.03849 -0.43127,0.07762 -0.61104,0.11212c-0.00141,0.44487 -0.22926,1.0056 -0.50238,1.55444c-3.95958,4.84763 -8.55196,-6.91927 -1.42117,-6.9917c0,0 0.5,0 0.5,0.5c0,0.5 -0.5,0.5 -0.5,0.5c-5.24446,-0.07121 -1.85522,8.59755 0.57883,5.45275c0.11707,-0.23261 0.42821,-0.70317 0.45225,-0.90547c-0.08745,-0.00234 -0.17446,-0.01073 -0.26359,-0.02651c-0.0187,0.00988 -0.03855,0.02089 -0.05959,0.03309l-0.01037,-0.04692c-0.01025,-0.00224 -0.02054,-0.00457 -0.03087,-0.00701v0.05563h-0.07778l-0.02028,0.1014l-0.54647,-0.10929c-0.23369,-0.04197 -0.41102,-0.24633 -0.41102,-0.49211c0,-0.27614 0.22386,-0.5 0.5,-0.5h0.55556v0.00092c0.12203,-0.00163 0.23358,0.0031 0.33531,0.01371c0.3669,-0.17469 0.9168,-0.15607 1.35233,-0.22866l0.54764,-0.10959c0,0 0.49029,-0.09806 0.58835,0.39223z" fill="#b5b54e" stroke="none" stroke-width="0.5" stroke-linecap="butt"/><path d="M250.00312,189.62584c-0.09806,0.49029 -0.58835,0.39223 -0.58835,0.39223l-0.64884,-0.13946c-0.26411,-0.17324 -0.52821,-0.34648 -0.79232,-0.51971c-0.29034,-0.28938 -0.71523,-0.66229 -0.90367,-1.04351c-0.0041,-0.00829 -0.00833,-0.01721 -0.01267,-0.02671c-0.15063,0.34975 -0.4652,0.71831 -0.58888,0.87244c-0.73857,0.92039 -2.83127,1.02977 -3.51732,-0.19452c-1.10628,-1.97421 2.08557,-2.70976 3.22843,-2.71659c0,0 0.46936,0 0.49858,0.45476c1.00671,-0.18778 1.36967,1.31851 1.92953,1.88079c0.18034,0.12306 0.36068,0.24612 0.54101,0.36918l0.46227,0.08276c0,0 0.49029,0.09806 0.39223,0.58835zM246.25235,187.24304c-0.04393,0.00696 -0.07285,0.00696 -0.07285,0.00696c-0.38925,-0.00273 -2.9096,0.20682 -2.32713,1.28341c0.9084,1.679 1.93531,-0.30712 2.39998,-1.29036z" fill="#b5b54e" stroke="none" stroke-width="0.5" stroke-linecap="butt"/><path d="M253.66979,188.98528c0.09806,0.49029 -0.39223,0.58835 -0.39223,0.58835l-0.51114,0.10009c-2.94598,1.17388 -3.30914,-3.70731 -3.30914,-5.8126c0,0 0,-0.5 0.5,-0.5c0.5,0 0.5,0.5 0.5,0.5c0,1.50353 0.13209,5.61388 2.02419,4.85406l0.59997,-0.12213c0,0 0.49029,-0.09806 0.58835,0.39223z" fill="#b5b54e" stroke="none" stroke-width="0.5" stroke-linecap="butt"/><g><path d="M196.60926,221.69675l-21.15028,-41.01256l5.87516,-5.0556l25.64055,47.14219c0,0 4.39911,-0.16974 3.74859,1.4016c-0.20872,0.50419 -1.56588,4.82889 -7.37128,3.63823c-4.04639,-0.8299 -6.74274,-6.11386 -6.74274,-6.11386z" fill="url(#color-2)" stroke="#000000" stroke-width="2" stroke-linecap="butt"/><g data-paper-data="{&quot;index&quot;:null}" stroke="#000000" stroke-width="2" stroke-linecap="round"><path d="M181.53879,160.97768l3.33969,6.35126l0.86429,-4.35339l1.31135,-4.77371c0,0 2.20988,-3.94164 3.87114,-4.03309c1.66126,-0.09144 1.74022,3.72419 1.74022,3.72419l-0.83282,5.8483l-1.38574,5.85544l-7.56011,8.03132l-7.21724,3.23774l-10.07563,-0.47066l-3.91753,-5.85713l-9.10172,-8.31038l-1.78327,-4.37219l3.20554,-2.81715l4.09635,0.37785l2.54157,-3.61903l2.84459,-1.10081l3.08138,2.46322l-6.32007,-12.40103c0,0 -3.85232,-6.11375 -1.06136,-7.80485c2.80786,-1.70134 5.18418,2.45324 5.18418,2.45324l9.81372,16.98466c0,0 -2.14442,-18.70471 -2.0532,-20.69119c0.09122,-1.98648 1.76925,-3.50568 3.16249,-3.46516c1.39324,0.04053 2.52338,5.29918 2.52338,5.29918l1.14912,7.08304l1.45213,9.60127z" fill="url(#color-3)"/><path d="M159.85834,172.70649c0,0 2.90581,-0.22377 3.83639,-1.49235c0.93058,-1.26859 0.58115,-4.52978 0.58115,-4.52978l-6.93434,-7.34835l1.38422,-0.61297l2.11606,-2.87471l3.20388,-0.79932l2.54821,1.58754l4.97391,6.4376c0,0 -0.26601,3.51392 -1.93225,4.61982c-1.66625,1.1059 -4.82654,-0.13393 -4.82654,-0.13393l-3.50525,-3.73672l-2.98203,-4.03194" fill="none"/></g><path d="M179.58647,186.07698l-3.83762,-6.39193l5.9719,-2.85894l2.67619,6.59748z" fill="url(#color-4)" stroke="none" stroke-width="0" stroke-linecap="butt"/></g></g></g></svg>