<svg version="1.1" xmlns="http://www.w3.org/2000/svg" xmlns:xlink="http://www.w3.org/1999/xlink" width="137.49132" height="230.88869" viewBox="0,0,137.49132,230.88869"><g transform="translate(-239.90746,-65.5874)"><g data-paper-data="{&quot;isPaintingLayer&quot;:true}" stroke-miterlimit="10" stroke-dasharray="" stroke-dashoffset="0" style="mix-blend-mode: normal"><path d="M286.60659,295.47608l15.14285,-131.8421l37.78325,-0.15789l13.57389,132z" fill="#e3e364" fill-rule="nonzero" stroke="#000000" stroke-width="2" stroke-linecap="butt" stroke-linejoin="miter"/><path d="M299.55681,192.08871l3.12142,-26.32765l35.83075,-0.14203l2.76735,26.1059c0,0 -7.51543,4.19603 -21.55904,4.50964c-12.48458,0.27879 -20.16049,-4.14586 -20.16049,-4.14586z" fill="#c0c054" fill-rule="nonzero" stroke="#000000" stroke-width="0" stroke-linecap="butt" stroke-linejoin="miter"/><path d="M245.28565,137.32837c-5.3541,-32.86863 18.69132,-64.13778 53.70692,-69.84161c35.0156,-5.70382 67.74172,16.31761 73.09582,49.18623c5.3541,32.86863 -18.69132,64.13778 -53.70692,69.84161c-35.0156,5.70382 -67.74172,-16.31761 -73.09582,-49.18623z" fill="#e3e364" fill-rule="nonzero" stroke="#000000" stroke-width="2" stroke-linecap="butt" stroke-linejoin="miter"/><path d="M246.00796,137.26526c-0.11704,-0.71852 14.12935,54.35484 71.68981,46.00688c54.9966,-7.97613 53.36994,-67.41061 53.53374,-66.40502c5.27418,32.37804 -18.4825,63.19191 -53.06202,68.8247c-34.57952,5.63279 -66.88735,-16.04852 -72.16153,-48.42655z" fill="#c0c054" fill-rule="nonzero" stroke="#000000" stroke-width="0" stroke-linecap="butt" stroke-linejoin="miter"/><path d="M258.72865,135.57371c-2.08493,-12.7993 6.6008,-24.86536 19.4001,-26.95029c12.7993,-2.08493 24.86536,6.6008 26.95029,19.4001c2.08493,12.7993 -6.6008,24.86536 -19.4001,26.95029c-12.7993,2.08493 -24.86536,-6.6008 -26.95029,-19.4001z" fill="#ffffff" fill-rule="nonzero" stroke="#000000" stroke-width="2" stroke-linecap="butt" stroke-linejoin="miter"/><path d="M265.6578,134.16574c-1.46756,-9.00933 4.64624,-17.50253 13.65556,-18.97009c9.00933,-1.46756 17.50253,4.64625 18.97009,13.65557c1.46756,9.00933 -4.64625,17.50253 -13.65557,18.97009c-9.00933,1.46756 -17.50252,-4.64625 -18.97008,-13.65557z" fill="#000000" fill-rule="nonzero" stroke="none" stroke-width="0" stroke-linecap="butt" stroke-linejoin="miter"/><path d="M307.36358,164.63251h25.10959" fill="none" fill-rule="nonzero" stroke="#000000" stroke-width="2" stroke-linecap="round" stroke-linejoin="miter"/><path d="M298.30157,160.66781l30.7669,-5.01174c6.01492,-0.97979 11.43811,1.79734 12.15964,6.22676l0.64107,3.93551c0.72152,4.42941 -3.53994,8.78412 -9.55486,9.76392l-30.7669,5.01174c-6.0149,0.97979 -11.43812,-1.79734 -12.15965,-6.22676l-0.64107,-3.93551c-0.72152,-4.42941 3.53996,-8.78413 9.55487,-9.76392z" fill="#000000" fill-rule="evenodd" stroke="#000000" stroke-width="0" stroke-linecap="round" stroke-linejoin="round"/><path d="M339.23153,146.25042c-12.7993,2.08493 -24.86536,-6.6008 -26.95029,-19.4001c-2.08493,-12.7993 6.6008,-24.86536 19.4001,-26.95029c12.7993,-2.08493 24.86536,6.6008 26.95029,19.4001c2.08493,12.7993 -6.6008,24.86536 -19.4001,26.95029z" data-paper-data="{&quot;index&quot;:null}" fill="#ffffff" fill-rule="nonzero" stroke="#000000" stroke-width="2" stroke-linecap="butt" stroke-linejoin="miter"/><path d="M337.95828,139.13412c-9.00932,1.46756 -17.50252,-4.64625 -18.97008,-13.65557c-1.46756,-9.00933 4.64625,-17.50253 13.65556,-18.97009c9.00932,-1.46756 17.50252,4.64625 18.97008,13.65557c1.46756,9.00933 -4.64625,17.50253 -13.65556,18.97009z" data-paper-data="{&quot;index&quot;:null}" fill="#000000" fill-rule="nonzero" stroke="none" stroke-width="0" stroke-linecap="butt" stroke-linejoin="miter"/><path d="M258.72865,135.57371c-2.08493,-12.7993 6.6008,-24.86536 19.4001,-26.95029c12.7993,-2.08493 24.86536,6.6008 26.95029,19.4001c0,0 -46.15239,8.76572 -46.3504,7.55019z" fill="#ffc533" fill-rule="nonzero" stroke="#000000" stroke-width="2" stroke-linecap="butt" stroke-linejoin="miter"/><path d="M303.71241,132.71675l-58.97272,9.60629c0,0 -4.03135,-0.19988 -4.83223,-4.78535c-0.73203,-4.19124 3.0637,-6.07155 3.0637,-6.07155l58.97272,-9.60629z" fill="#a3a347" fill-rule="nonzero" stroke="#000000" stroke-width="2" stroke-linecap="butt" stroke-linejoin="miter"/><path d="M312.28124,126.85033c-2.08493,-12.7993 6.6008,-24.86536 19.4001,-26.95029c12.7993,-2.08493 24.86536,6.6008 26.95029,19.4001c0.19515,1.19801 -46.3504,7.55019 -46.3504,7.55019z" data-paper-data="{&quot;index&quot;:null}" fill="#ffc533" fill-rule="nonzero" stroke="#000000" stroke-width="2" stroke-linecap="butt" stroke-linejoin="miter"/><path d="M312.59383,120.12503l58.97272,-9.60629c0,0 4.19625,0.57846 4.83223,4.78535c0.6958,4.60259 -3.0637,6.07155 -3.0637,6.07155l-58.97272,9.60629z" data-paper-data="{&quot;index&quot;:null}" fill="#a3a347" fill-rule="nonzero" stroke="#000000" stroke-width="2" stroke-linecap="butt" stroke-linejoin="miter"/><path d="M251.67914,107.98603l104.8821,-17.08464c6.35429,-1.03507 12.30308,3.24718 13.33815,9.60145l5.2945,32.50276c1.03507,6.35427 -3.24718,12.30309 -9.60143,13.33816l-104.88209,17.08464c-6.35427,1.03507 -12.3031,-3.24717 -13.33817,-9.60144l-5.2945,-32.50276c-1.03507,-6.35426 3.24719,-12.30309 9.60145,-13.33817z" fill="#a3a347" fill-rule="evenodd" stroke="#000000" stroke-width="2" stroke-linecap="round" stroke-linejoin="round"/><path d="M263.1116,111.98222l84.53445,-13.77014c5.12152,-0.83426 9.91623,2.61721 10.75049,7.73871l4.26734,26.19706c0.83426,5.12151 -2.61721,9.91623 -7.73871,10.75049l-84.53445,13.77014c-5.12151,0.83426 -9.91624,-2.61721 -10.7505,-7.73871l-4.26734,-26.19706c-0.83426,-5.12151 2.61722,-9.91623 7.73872,-10.75049z" fill="#000000" fill-rule="evenodd" stroke="#000000" stroke-width="0" stroke-linecap="round" stroke-linejoin="round"/><path d="M262.72901,111.70682l84.53445,-13.77014c5.12152,-0.83426 9.91623,2.61721 10.75049,7.73871l4.26734,26.19706c0.83426,5.12151 -2.61721,9.91623 -7.73871,10.75049l-84.53445,13.77014c-5.12151,0.83426 -9.91624,-2.61721 -10.7505,-7.73871l-4.26734,-26.19706c-0.83426,-5.12151 2.61722,-9.91623 7.73872,-10.75049z" fill="#d7d75e" fill-rule="evenodd" stroke="#000000" stroke-width="2" stroke-linecap="round" stroke-linejoin="round"/></g></g></svg>