<svg version="1.1" xmlns="http://www.w3.org/2000/svg" xmlns:xlink="http://www.w3.org/1999/xlink" width="199.55534" height="184.03512" viewBox="0,0,199.55534,184.03512"><g transform="translate(-222.48875,-59.8041)"><g data-paper-data="{&quot;isPaintingLayer&quot;:true}" fill-rule="nonzero" stroke-linecap="butt" stroke-linejoin="miter" stroke-miterlimit="10" stroke-dasharray="" stroke-dashoffset="0" style="mix-blend-mode: normal"><path d="M416.44676,159.53926c0,0 -45.30175,16.7206 -62.69145,30.59976c-16.95369,13.53116 -40.37191,51.65768 -40.37191,51.65768c0,0 -21.59551,-42.3516 -36.65872,-58.95396c-14.44622,-15.92234 -51.94701,-38.70548 -51.94701,-38.70548c0,0 46.42318,-17.14883 63.86418,-31.06893c16.89616,-13.48526 39.19917,-51.18852 39.19917,-51.18852c0,0 18.12464,35.62773 32.13633,51.07112c15.39341,16.96632 56.4694,46.58833 56.4694,46.58833z" data-paper-data="{&quot;index&quot;:null}" fill="#d8d871" stroke="#000000" stroke-width="2"/><path d="M382.93202,225.04893c0,0 -43.85643,-20.20992 -65.96685,-22.69225c-21.55603,-2.42008 -65.07474,7.98025 -65.07474,7.98025c0,0 14.67677,-45.21744 15.76512,-67.60838c1.04377,-21.47381 -9.36317,-64.10098 -9.36317,-64.10098c0,0 44.9522,20.7001 67.12784,23.18975c21.48291,2.41188 63.91375,-8.47775 63.91375,-8.47775c0,0 -12.37654,38.00867 -13.38892,58.83655c-1.1122,22.88179 6.98698,72.87282 6.98698,72.87282z" data-paper-data="{&quot;index&quot;:null}" fill="#d8d871" stroke="#000000" stroke-width="2"/><path d="M316.28076,211.98289c-35.36313,-2.84168 -61.86823,-32.05506 -59.20078,-65.24991c2.66745,-33.19484 33.49733,-57.80094 68.86046,-54.95926c35.36313,2.84168 61.86823,32.05506 59.20078,65.24991c-2.66745,33.19484 -33.49733,57.80094 -68.86046,54.95926z" data-paper-data="{&quot;index&quot;:null}" fill="#ecec68" stroke="#000000" stroke-width="2"/><path d="M348.214,165.39661c-1.16682,14.52039 -14.6527,25.2838 -30.12155,24.04077c-15.46884,-1.24303 -27.06294,-14.02182 -25.89612,-28.54219c0.16712,-2.07969 56.14032,2.97513 56.01767,4.50143z" data-paper-data="{&quot;index&quot;:null}" fill="#000000" stroke="#000000" stroke-width="2"/><path d="M360.08862,145.18654c-0.49649,6.17847 -5.9076,10.78465 -12.08609,10.28816c-6.17848,-0.49649 -10.78466,-5.90762 -10.28817,-12.0861c0.49649,-6.17848 22.87076,-4.38054 22.37427,1.79794z" data-paper-data="{&quot;index&quot;:null}" fill="#000000" stroke="none" stroke-width="0"/><path d="M284.18516,139.08713c0.48182,-5.99596 22.19512,-4.25114 21.7133,1.74483c-0.48182,5.99596 -5.73311,10.46606 -11.72907,9.98424c-5.99595,-0.48181 -10.46605,-5.7331 -9.98423,-11.72907z" data-paper-data="{&quot;index&quot;:null}" fill="#000000" stroke="none" stroke-width="0"/></g></g></svg>