<svg version="1.1" xmlns="http://www.w3.org/2000/svg" xmlns:xlink="http://www.w3.org/1999/xlink" width="138.98558" height="232.43936" viewBox="0,0,138.98558,232.43936"><g transform="translate(-260.01804,-64.03673)"><g data-paper-data="{&quot;isPaintingLayer&quot;:true}" stroke-miterlimit="10" stroke-dasharray="" stroke-dashoffset="0" style="mix-blend-mode: normal"><path d="M286.60659,295.47608l15.14285,-131.8421l37.78325,-0.15789l13.57389,132z" fill="#e3e364" fill-rule="nonzero" stroke="#000000" stroke-width="2" stroke-linecap="butt" stroke-linejoin="miter"/><path d="M299.55681,192.08871l3.12142,-26.32765l35.83075,-0.14203l2.76735,26.1059c0,0 -7.51543,4.19603 -21.55904,4.50964c-12.48458,0.27879 -20.16049,-4.14586 -20.16049,-4.14586z" fill="#c0c054" fill-rule="nonzero" stroke="#000000" stroke-width="0" stroke-linecap="butt" stroke-linejoin="miter"/><path d="M265.3918,129.61758c-2.20955,-33.22847 24.69578,-62.07366 60.09472,-64.42754c35.39894,-2.35388 65.88667,22.67493 68.09622,55.90338c2.20955,33.22847 -24.69578,62.07366 -60.09472,64.42754c-35.39894,2.35388 -65.88667,-22.67493 -68.09622,-55.90338z" fill="#e3e364" fill-rule="nonzero" stroke="#000000" stroke-width="2" stroke-linecap="butt" stroke-linejoin="miter"/><path d="M266.11684,129.62333c-0.0483,-0.72639 8.9054,55.45071 66.99839,52.60492c55.50542,-2.71903 59.52848,-62.03952 59.59608,-61.02291c2.17657,32.7325 -24.39811,61.15188 -59.3562,63.47644c-34.95809,2.32456 -65.0617,-22.32594 -67.23827,-55.05845z" fill="#c0c054" fill-rule="nonzero" stroke="#000000" stroke-width="0" stroke-linecap="butt" stroke-linejoin="miter"/><path d="M278.94067,129.14706c-0.86042,-12.93942 8.93156,-24.12642 21.87099,-24.98683c12.93942,-0.86042 24.12642,8.93156 24.98683,21.87099c0.86042,12.93942 -8.93156,24.12642 -21.87099,24.98683c-12.93942,0.86042 -24.12642,-8.93156 -24.98683,-21.87099z" fill="#ffffff" fill-rule="nonzero" stroke="#000000" stroke-width="2" stroke-linecap="butt" stroke-linejoin="miter"/><path d="M285.97218,128.40325c-0.60564,-9.10797 6.28684,-16.98239 15.3948,-17.58803c9.10797,-0.60564 16.98239,6.28685 17.58803,15.39481c0.60564,9.10797 -6.28685,16.98239 -15.39481,17.58803c-9.10797,0.60564 -16.98238,-6.28686 -17.58802,-15.39481z" fill="#000000" fill-rule="nonzero" stroke="none" stroke-width="0" stroke-linecap="butt" stroke-linejoin="miter"/><path d="M332.47317,164.63251h-25.10959" fill="none" fill-rule="nonzero" stroke="#000000" stroke-width="2" stroke-linecap="round" stroke-linejoin="miter"/><path d="M315.95257,157.88464l31.10373,-2.06827c6.08077,-0.40435 11.21582,2.87509 11.51359,7.353l0.26456,3.97859c0.29776,4.4779 -4.35786,8.40839 -10.43863,8.81273l-31.10373,2.06827c-6.08075,0.40434 -11.21583,-2.87509 -11.5136,-7.353l-0.26456,-3.97859c-0.29776,-4.4779 4.35789,-8.40839 10.43864,-8.81274z" fill="#000000" fill-rule="evenodd" stroke="#000000" stroke-width="0" stroke-linecap="round" stroke-linejoin="round"/><path d="M358.06637,147.41803c-12.93942,0.86042 -24.12642,-8.93156 -24.98683,-21.87099c-0.86042,-12.93942 8.93156,-24.12642 21.87099,-24.98683c12.93942,-0.86042 24.12642,8.93156 24.98683,21.87099c0.86042,12.93942 -8.93156,24.12642 -21.87099,24.98683z" data-paper-data="{&quot;index&quot;:null}" fill="#ffffff" fill-rule="nonzero" stroke="#000000" stroke-width="2" stroke-linecap="butt" stroke-linejoin="miter"/><path d="M357.47445,140.213c-9.10796,0.60564 -16.98238,-6.28686 -17.58802,-15.39481c-0.60564,-9.10797 6.28685,-16.98239 15.3948,-17.58803c9.10796,-0.60564 16.98238,6.28686 17.58802,15.39481c0.60564,9.10797 -6.28685,16.98239 -15.3948,17.58803z" data-paper-data="{&quot;index&quot;:null}" fill="#000000" fill-rule="nonzero" stroke="none" stroke-width="0" stroke-linecap="butt" stroke-linejoin="miter"/><path d="M278.94067,129.14706c-0.86042,-12.93942 8.93156,-24.12642 21.87099,-24.98683c12.93942,-0.86042 24.12642,8.93156 24.98683,21.87099c0,0 -46.77612,4.34468 -46.85783,3.11585z" fill="#ffc533" fill-rule="nonzero" stroke="#000000" stroke-width="2" stroke-linecap="butt" stroke-linejoin="miter"/><path d="M323.99249,130.5735l-59.61834,3.96437c0,0 -3.99417,-0.58169 -4.35611,-5.22248c-0.33083,-4.24181 3.62627,-5.75328 3.62627,-5.75328l59.61834,-3.96437z" fill="#a3a347" fill-rule="nonzero" stroke="#000000" stroke-width="2" stroke-linecap="butt" stroke-linejoin="miter"/><path d="M333.07954,125.54705c-0.86042,-12.93942 8.93156,-24.12642 21.87099,-24.98683c12.93942,-0.86042 24.12642,8.93156 24.98683,21.87099c0.08053,1.21113 -46.85783,3.11585 -46.85783,3.11585z" data-paper-data="{&quot;index&quot;:null}" fill="#ffc533" fill-rule="nonzero" stroke="#000000" stroke-width="2" stroke-linecap="butt" stroke-linejoin="miter"/><path d="M334.02918,118.88181l59.61834,-3.96437c0,0 4.12238,0.97422 4.35611,5.22248c0.25572,4.64786 -3.62627,5.75328 -3.62627,5.75328l-59.61834,3.96437z" data-paper-data="{&quot;index&quot;:null}" fill="#a3a347" fill-rule="nonzero" stroke="#000000" stroke-width="2" stroke-linecap="butt" stroke-linejoin="miter"/><path d="M274.54201,101.01473l106.03032,-7.05057c6.42385,-0.42716 11.93925,4.4005 12.36641,10.82433l2.18496,32.85859c0.42716,6.42383 -4.4005,11.93926 -10.82432,12.36642l-106.03031,7.05057c-6.42383,0.42716 -11.93927,-4.4005 -12.36643,-10.82433l-2.18496,-32.85859c-0.42716,-6.42382 4.40051,-11.93926 10.82434,-12.36642z" fill="#a3a347" fill-rule="evenodd" stroke="#000000" stroke-width="2" stroke-linecap="round" stroke-linejoin="round"/><path d="M285.54346,106.0782l85.45991,-5.68272c5.17759,-0.34429 9.62298,3.54678 9.96727,8.72435l1.76106,26.48386c0.34429,5.17758 -3.54678,9.62298 -8.72435,9.96727l-85.45991,5.68272c-5.17758,0.34429 -9.62299,-3.54678 -9.96728,-8.72435l-1.76106,-26.48386c-0.34429,-5.17758 3.54679,-9.62298 8.72436,-9.96727z" fill="#000000" fill-rule="evenodd" stroke="#000000" stroke-width="0" stroke-linecap="round" stroke-linejoin="round"/><path d="M285.18875,105.76773l85.45991,-5.68272c5.17759,-0.34429 9.62298,3.54678 9.96727,8.72435l1.76106,26.48386c0.34429,5.17758 -3.54678,9.62298 -8.72435,9.96727l-85.45991,5.68272c-5.17758,0.34429 -9.62299,-3.54678 -9.96728,-8.72435l-1.76106,-26.48386c-0.34429,-5.17758 3.54679,-9.62298 8.72436,-9.96727z" fill="#d7d75e" fill-rule="evenodd" stroke="#000000" stroke-width="2" stroke-linecap="round" stroke-linejoin="round"/></g></g></svg>