<svg version="1.1" xmlns="http://www.w3.org/2000/svg" xmlns:xlink="http://www.w3.org/1999/xlink" width="812" height="123.60111" viewBox="0,0,812,123.60111"><defs><linearGradient x1="717.5" y1="330.00014" x2="-46.5" y2="330.00014" gradientUnits="userSpaceOnUse" id="color-1"><stop offset="0" stop-color="#ededa3"/><stop offset="1" stop-color="#ededa3"/></linearGradient><linearGradient x1="340.5" y1="316.00014" x2="340.5" y2="398.00019" gradientUnits="userSpaceOnUse" id="color-2"><stop offset="0" stop-color="#8f8f31" stop-opacity="0"/><stop offset="1" stop-color="#8f8f31"/></linearGradient></defs><g transform="translate(57.5,-274.39908)"><g data-paper-data="{&quot;isPaintingLayer&quot;:true}" stroke-miterlimit="10" stroke-dasharray="" stroke-dashoffset="0" style="mix-blend-mode: normal"><g fill-rule="nonzero" stroke="none" stroke-linecap="butt" stroke-linejoin="miter"><path d="M-45.3,377.00019v-92h764v92z" fill="#4b4b00" stroke-width="NaN"/><path d="M-46.5,371.00019v-82h764v82z" data-paper-data="{&quot;index&quot;:null}" fill="url(#color-1)" stroke-width="NaN"/><path d="M-41.5,398.00019v-82h764v82z" fill="url(#color-2)" stroke-width="NaN"/></g><path d="M-47.5,321.81775v-6.41667h802v6.41667z" fill="#4b4b00" fill-rule="nonzero" stroke="none" stroke-width="0" stroke-linecap="butt" stroke-linejoin="miter"/><path d="M-57.5,339.81778v-6.41667h802v6.41667z" fill="#4b4b00" fill-rule="nonzero" stroke="none" stroke-width="0" stroke-linecap="butt" stroke-linejoin="miter"/><path d="M495.49121,276.92931c1.73219,1.31567 1.2342,17.92207 0,19.55852c-1.50707,1.99825 -104.41697,1.0362 -106.79562,0c-1.44833,-0.63093 -2.01401,-18.45844 0,-19.55852c2.28529,-1.24826 103.23301,-2.70597 106.79562,0z" fill="#ededa3" fill-rule="nonzero" stroke="#4b4b00" stroke-width="2" stroke-linecap="butt" stroke-linejoin="miter"/><path d="M373.49121,276.92931c1.73219,1.31567 1.2342,17.92207 0,19.55852c-1.50707,1.99825 -104.41697,1.0362 -106.79562,0c-1.44833,-0.63093 -2.01401,-18.45844 0,-19.55852c2.28529,-1.24826 103.23301,-2.70597 106.79562,0z" fill="#ededa3" fill-rule="nonzero" stroke="#4b4b00" stroke-width="2" stroke-linecap="butt" stroke-linejoin="miter"/><path d="M617.99121,276.92931c1.73219,1.31567 1.2342,17.92207 0,19.55852c-1.50707,1.99825 -104.41697,1.0362 -106.79562,0c-1.44833,-0.63093 -2.01401,-18.45844 0,-19.55852c2.28529,-1.24826 103.23301,-2.70597 106.79562,0z" fill="#ededa3" fill-rule="nonzero" stroke="#4b4b00" stroke-width="2" stroke-linecap="butt" stroke-linejoin="miter"/><path d="M250.99121,276.92931c1.73219,1.31567 1.2342,17.92207 0,19.55852c-1.50707,1.99825 -104.41697,1.0362 -106.79562,0c-1.44833,-0.63093 -2.01401,-18.45844 0,-19.55852c2.28529,-1.24826 103.23301,-2.70597 106.79562,0z" fill="#ededa3" fill-rule="nonzero" stroke="#4b4b00" stroke-width="2" stroke-linecap="butt" stroke-linejoin="miter"/><path d="M128.49121,276.92931c1.73219,1.31567 1.2342,17.92207 0,19.55852c-1.50707,1.99825 -104.41697,1.0362 -106.79562,0c-1.44833,-0.63093 -2.01401,-18.45844 0,-19.55852c2.28529,-1.24826 103.23301,-2.70597 106.79562,0z" fill="#ededa3" fill-rule="nonzero" stroke="#4b4b00" stroke-width="2" stroke-linecap="butt" stroke-linejoin="miter"/><g fill-rule="evenodd" stroke="none" stroke-width="4.43922" stroke-linecap="round" stroke-linejoin="round"><path d="M426.1037,302.95725h31.12267c6.08447,0 10.98278,4.83681 10.98278,10.84486v30.73185c0,6.00805 -4.89831,10.84486 -10.98278,10.84486h-31.12267c-6.08446,0 -10.98278,-4.83681 -10.98278,-10.84486v-30.73185c0,-6.00805 4.89832,-10.84486 10.98278,-10.84486z" fill="#4b4b00"/><path d="M428.26554,305.96997h27.0025c5.27898,0 9.52882,4.24985 9.52882,9.52882v27.0025c0,5.27897 -4.24984,9.52882 -9.52882,9.52882h-27.0025c-5.27897,0 -9.52882,-4.24985 -9.52882,-9.52882v-27.0025c0,-5.27897 4.24985,-9.52882 9.52882,-9.52882z" fill="#cacaca"/><path d="M304.1037,302.95725h31.12267c6.08447,0 10.98278,4.83681 10.98278,10.84486v30.73185c0,6.00805 -4.89831,10.84486 -10.98278,10.84486h-31.12267c-6.08446,0 -10.98278,-4.83681 -10.98278,-10.84486v-30.73185c0,-6.00805 4.89832,-10.84486 10.98278,-10.84486z" fill="#4b4b00"/><path d="M306.26554,305.96997h27.0025c5.27898,0 9.52882,4.24985 9.52882,9.52882v27.0025c0,5.27897 -4.24984,9.52882 -9.52882,9.52882h-27.0025c-5.27897,0 -9.52882,-4.24985 -9.52882,-9.52882v-27.0025c0,-5.27897 4.24985,-9.52882 9.52882,-9.52882z" fill="#cacaca"/><path d="M181.6037,302.95725h31.12267c6.08447,0 10.98278,4.83681 10.98278,10.84486v30.73185c0,6.00805 -4.89831,10.84486 -10.98278,10.84486h-31.12267c-6.08446,0 -10.98278,-4.83681 -10.98278,-10.84486v-30.73185c0,-6.00805 4.89832,-10.84486 10.98278,-10.84486z" fill="#4b4b00"/><path d="M548.1037,302.95725h31.12267c6.08447,0 10.98278,4.83681 10.98278,10.84486v30.73185c0,6.00805 -4.89831,10.84486 -10.98278,10.84486h-31.12267c-6.08446,0 -10.98278,-4.83681 -10.98278,-10.84486v-30.73185c0,-6.00805 4.89832,-10.84486 10.98278,-10.84486z" fill="#4b4b00"/><path d="M550.26554,305.96997h27.0025c5.27898,0 9.52882,4.24985 9.52882,9.52882v27.0025c0,5.27897 -4.24984,9.52882 -9.52882,9.52882h-27.0025c-5.27897,0 -9.52882,-4.24985 -9.52882,-9.52882v-27.0025c0,-5.27897 4.24985,-9.52882 9.52882,-9.52882z" fill="#cacaca"/><path d="M183.76554,305.96997h27.0025c5.27898,0 9.52882,4.24985 9.52882,9.52882v27.0025c0,5.27897 -4.24984,9.52882 -9.52882,9.52882h-27.0025c-5.27897,0 -9.52882,-4.24985 -9.52882,-9.52882v-27.0025c0,-5.27897 4.24985,-9.52882 9.52882,-9.52882z" fill="#a0a300"/><path d="M59.1037,302.95725h31.12267c6.08447,0 10.98278,4.83681 10.98278,10.84486v30.73185c0,6.00805 -4.89831,10.84486 -10.98278,10.84486h-31.12267c-6.08446,0 -10.98278,-4.83681 -10.98278,-10.84486v-30.73185c0,-6.00805 4.89832,-10.84486 10.98278,-10.84486z" fill="#4b4b00"/><path d="M61.26554,305.96997h27.0025c5.27898,0 9.52882,4.24985 9.52882,9.52882v27.0025c0,5.27897 -4.24984,9.52882 -9.52882,9.52882h-27.0025c-5.27897,0 -9.52882,-4.24985 -9.52882,-9.52882v-27.0025c0,-5.27897 4.24985,-9.52882 9.52882,-9.52882z" fill="#cacaca"/></g><path d="M183.89728,306.10376h26.86966c5.25301,0 9.48195,4.22895 9.48195,9.48195v26.86966c0,5.253 -4.22894,9.48195 -9.48195,9.48195h-26.86966c-5.253,0 -9.48195,-4.22895 -9.48195,-9.48195v-26.86966c0,-5.253 4.22895,-9.48195 9.48195,-9.48195z" fill="#cacaca" fill-rule="evenodd" stroke="#000000" stroke-width="0.5" stroke-linecap="round" stroke-linejoin="round"/></g></g></svg>