<svg version="1.1" xmlns="http://www.w3.org/2000/svg" xmlns:xlink="http://www.w3.org/1999/xlink" width="812" height="128.63839" viewBox="0,0,812,128.63839"><defs><linearGradient x1="717.5" y1="330.00014" x2="-46.5" y2="330.00014" gradientUnits="userSpaceOnUse" id="color-1"><stop offset="0" stop-color="#ededa3"/><stop offset="1" stop-color="#ededa3"/></linearGradient><linearGradient x1="340.5" y1="316.00014" x2="340.5" y2="398.00019" gradientUnits="userSpaceOnUse" id="color-2"><stop offset="0" stop-color="#8f8f31" stop-opacity="0"/><stop offset="1" stop-color="#8f8f31"/></linearGradient><linearGradient x1="540.73672" y1="329.00004" x2="586.79686" y2="329.00004" gradientUnits="userSpaceOnUse" id="color-3"><stop offset="0" stop-color="#008ca3"/><stop offset="1" stop-color="#a3001e"/></linearGradient><linearGradient x1="197.3321" y1="306.10376" x2="197.3321" y2="351.93733" gradientUnits="userSpaceOnUse" id="color-4"><stop offset="0" stop-color="#e3e3e3"/><stop offset="1" stop-color="#e2e3bd"/></linearGradient><linearGradient x1="320.23322" y1="305.40414" x2="320.23322" y2="352.17054" gradientUnits="userSpaceOnUse" id="color-5"><stop offset="0" stop-color="#000000"/><stop offset="1" stop-color="#fbff00" stop-opacity="0.4902"/></linearGradient><linearGradient x1="320.58301" y1="312.37535" x2="320.58301" y2="345.8989" gradientUnits="userSpaceOnUse" id="color-6"><stop offset="0" stop-color="#515124"/><stop offset="1" stop-color="#a7a749"/></linearGradient><linearGradient x1="328.84534" y1="319.34367" x2="328.84534" y2="339.23685" gradientUnits="userSpaceOnUse" id="color-7"><stop offset="0" stop-color="#a7a749"/><stop offset="1" stop-color="#2b2b02"/></linearGradient><linearGradient x1="312.34065" y1="319.41542" x2="312.34065" y2="339.30861" gradientUnits="userSpaceOnUse" id="color-8"><stop offset="0" stop-color="#a7a749"/><stop offset="1" stop-color="#2b2b02"/></linearGradient><linearGradient x1="75.24719" y1="306.10375" x2="75.24719" y2="352.17052" gradientUnits="userSpaceOnUse" id="color-9"><stop offset="0" stop-color="#a0a300"/><stop offset="1" stop-color="#f8acff"/></linearGradient></defs><g transform="translate(57.5,-269.3618)"><g data-paper-data="{&quot;isPaintingLayer&quot;:true}" stroke-miterlimit="10" stroke-dasharray="" stroke-dashoffset="0" style="mix-blend-mode: normal"><g fill-rule="nonzero" stroke="none" stroke-linecap="butt" stroke-linejoin="miter"><path d="M-45.3,377.00019v-92h764v92z" fill="#4b4b00" stroke-width="NaN"/><path d="M-46.5,371.00019v-82h764v82z" data-paper-data="{&quot;index&quot;:null}" fill="url(#color-1)" stroke-width="NaN"/><path d="M-41.5,398.00019v-82h764v82z" fill="url(#color-2)" stroke-width="NaN"/></g><path d="M-47.5,321.81775v-6.41667h802v6.41667z" fill="#4b4b00" fill-rule="nonzero" stroke="none" stroke-width="0" stroke-linecap="butt" stroke-linejoin="miter"/><path d="M-57.5,339.81778v-6.41667h802v6.41667z" fill="#4b4b00" fill-rule="nonzero" stroke="none" stroke-width="0" stroke-linecap="butt" stroke-linejoin="miter"/><path d="M495.49121,276.92931c1.73219,1.31567 1.2342,17.92207 0,19.55852c-1.50707,1.99825 -104.41697,1.0362 -106.79562,0c-1.44833,-0.63093 -2.01401,-18.45844 0,-19.55852c2.28529,-1.24826 103.23301,-2.70597 106.79562,0z" fill="#ededa3" fill-rule="nonzero" stroke="#4b4b00" stroke-width="2" stroke-linecap="butt" stroke-linejoin="miter"/><text transform="translate(405.75587,292.02691) scale(0.4151,0.29529)" font-size="40" xml:space="preserve" fill="#4b4b00" fill-rule="nonzero" stroke="none" stroke-width="1" stroke-linecap="butt" stroke-linejoin="miter" stroke-miterlimit="10" stroke-dasharray="" stroke-dashoffset="0" font-family="&quot;Allan-Regular&quot;, Sans Serif" font-weight="normal" text-anchor="start" style="mix-blend-mode: normal"><tspan x="0" dy="0">Old polo</tspan></text><path d="M373.49121,276.92931c1.73219,1.31567 1.2342,17.92207 0,19.55852c-1.50707,1.99825 -104.41697,1.0362 -106.79562,0c-1.44833,-0.63093 -2.01401,-18.45844 0,-19.55852c2.28529,-1.24826 103.23301,-2.70597 106.79562,0z" fill="#ededa3" fill-rule="nonzero" stroke="#4b4b00" stroke-width="2" stroke-linecap="butt" stroke-linejoin="miter"/><path d="M617.99121,276.92931c1.73219,1.31567 1.2342,17.92207 0,19.55852c-1.50707,1.99825 -104.41697,1.0362 -106.79562,0c-1.44833,-0.63093 -2.01401,-18.45844 0,-19.55852c2.28529,-1.24826 103.23301,-2.70597 106.79562,0z" fill="#ededa3" fill-rule="nonzero" stroke="#4b4b00" stroke-width="2" stroke-linecap="butt" stroke-linejoin="miter"/><text transform="translate(513.33351,288.95379) scale(0.27196,0.19346)" font-size="40" xml:space="preserve" fill="#4b4b00" fill-rule="nonzero" stroke="none" stroke-width="1" stroke-linecap="butt" stroke-linejoin="miter" stroke-miterlimit="10" stroke-dasharray="" stroke-dashoffset="0" font-family="&quot;Allan-Regular&quot;, Sans Serif" font-weight="normal" text-anchor="start" style="mix-blend-mode: normal"><tspan x="0" dy="0">Terrance and Phillip</tspan></text><path d="M250.99121,276.92931c1.73219,1.31567 1.2342,17.92207 0,19.55852c-1.50707,1.99825 -104.41697,1.0362 -106.79562,0c-1.44833,-0.63093 -2.01401,-18.45844 0,-19.55852c2.28529,-1.24826 103.23301,-2.70597 106.79562,0z" fill="#ededa3" fill-rule="nonzero" stroke="#4b4b00" stroke-width="2" stroke-linecap="butt" stroke-linejoin="miter"/><text transform="translate(176.91322,295.09889) scale(0.5683,0.48802)" font-size="40" xml:space="preserve" fill="#4b4b00" fill-rule="nonzero" stroke="none" stroke-width="1" stroke-linecap="butt" stroke-linejoin="miter" stroke-miterlimit="10" stroke-dasharray="" stroke-dashoffset="0" font-family="&quot;Allan-Regular&quot;, Sans Serif" font-weight="normal" text-anchor="start" style="mix-blend-mode: normal"><tspan x="0" dy="0">Bob</tspan></text><path d="M128.49121,276.92931c1.73219,1.31567 1.2342,17.92207 0,19.55852c-1.50707,1.99825 -104.41697,1.0362 -106.79562,0c-1.44833,-0.63093 -2.01401,-18.45844 0,-19.55852c2.28529,-1.24826 103.23301,-2.70597 106.79562,0z" fill="#ededa3" fill-rule="nonzero" stroke="#4b4b00" stroke-width="2" stroke-linecap="butt" stroke-linejoin="miter"/><g fill-rule="evenodd" stroke="none" stroke-width="4.43922" stroke-linecap="round" stroke-linejoin="round"><path d="M426.1037,302.95725h31.12267c6.08447,0 10.98278,4.83681 10.98278,10.84486v30.73185c0,6.00805 -4.89831,10.84486 -10.98278,10.84486h-31.12267c-6.08446,0 -10.98278,-4.83681 -10.98278,-10.84486v-30.73185c0,-6.00805 4.89832,-10.84486 10.98278,-10.84486z" fill="#4b4b00"/><path d="M428.26554,305.96997h27.0025c5.27898,0 9.52882,4.24985 9.52882,9.52882v27.0025c0,5.27897 -4.24984,9.52882 -9.52882,9.52882h-27.0025c-5.27897,0 -9.52882,-4.24985 -9.52882,-9.52882v-27.0025c0,-5.27897 4.24985,-9.52882 9.52882,-9.52882z" fill="#cacaca"/><path d="M304.1037,302.95725h31.12267c6.08447,0 10.98278,4.83681 10.98278,10.84486v30.73185c0,6.00805 -4.89831,10.84486 -10.98278,10.84486h-31.12267c-6.08446,0 -10.98278,-4.83681 -10.98278,-10.84486v-30.73185c0,-6.00805 4.89832,-10.84486 10.98278,-10.84486z" fill="#4b4b00"/><path d="M306.26554,305.96997h27.0025c5.27898,0 9.52882,4.24985 9.52882,9.52882v27.0025c0,5.27897 -4.24984,9.52882 -9.52882,9.52882h-27.0025c-5.27897,0 -9.52882,-4.24985 -9.52882,-9.52882v-27.0025c0,-5.27897 4.24985,-9.52882 9.52882,-9.52882z" fill="#a0a300"/><path d="M181.6037,302.95725h31.12267c6.08447,0 10.98278,4.83681 10.98278,10.84486v30.73185c0,6.00805 -4.89831,10.84486 -10.98278,10.84486h-31.12267c-6.08446,0 -10.98278,-4.83681 -10.98278,-10.84486v-30.73185c0,-6.00805 4.89832,-10.84486 10.98278,-10.84486z" fill="#4b4b00"/><path d="M548.1037,302.95725h31.12267c6.08447,0 10.98278,4.83681 10.98278,10.84486v30.73185c0,6.00805 -4.89831,10.84486 -10.98278,10.84486h-31.12267c-6.08446,0 -10.98278,-4.83681 -10.98278,-10.84486v-30.73185c0,-6.00805 4.89832,-10.84486 10.98278,-10.84486z" fill="#4b4b00"/><path d="M550.26554,305.96997h27.0025c5.27898,0 9.52882,4.24985 9.52882,9.52882v27.0025c0,5.27897 -4.24984,9.52882 -9.52882,9.52882h-27.0025c-5.27897,0 -9.52882,-4.24985 -9.52882,-9.52882v-27.0025c0,-5.27897 4.24985,-9.52882 9.52882,-9.52882z" fill="url(#color-3)"/><path d="M183.76554,305.96997h27.0025c5.27898,0 9.52882,4.24985 9.52882,9.52882v27.0025c0,5.27897 -4.24984,9.52882 -9.52882,9.52882h-27.0025c-5.27897,0 -9.52882,-4.24985 -9.52882,-9.52882v-27.0025c0,-5.27897 4.24985,-9.52882 9.52882,-9.52882z" fill="#a0a300"/><path d="M59.1037,302.95725h31.12267c6.08447,0 10.98278,4.83681 10.98278,10.84486v30.73185c0,6.00805 -4.89831,10.84486 -10.98278,10.84486h-31.12267c-6.08446,0 -10.98278,-4.83681 -10.98278,-10.84486v-30.73185c0,-6.00805 4.89832,-10.84486 10.98278,-10.84486z" fill="#4b4b00"/><path d="M61.26554,305.96997h27.0025c5.27898,0 9.52882,4.24985 9.52882,9.52882v27.0025c0,5.27897 -4.24984,9.52882 -9.52882,9.52882h-27.0025c-5.27897,0 -9.52882,-4.24985 -9.52882,-9.52882v-27.0025c0,-5.27897 4.24985,-9.52882 9.52882,-9.52882z" fill="#a0a300"/></g><g fill-rule="nonzero" stroke="#000000" stroke-width="1" stroke-linecap="round" stroke-linejoin="miter"><path d="M435.72682,328.70613c0,0 1.34292,-4.45984 3.18398,-8.41947c1.40127,-3.01373 3.25335,-5.36595 4.36588,-6.7933c3.24548,-4.16393 10.51155,-4.10029 10.51155,-4.10029l0.01421,8.32851c0,0 -2.85523,0.04755 -4.44774,1.10032c-1.33624,0.88338 -3.24075,4.15088 -3.24075,4.15088l4.41213,-0.11399l-0.10727,8.13617l-7.41457,0.14763c0,0 -2.50688,7.41846 -5.98857,10.08952c-5.52172,4.23611 -9.9585,3.71199 -9.9585,3.71199l0.17107,-8.58884c0,0 3.34143,-0.06942 4.77034,-1.32497c1.42411,-1.25133 3.72823,-6.32414 3.72823,-6.32414z" fill="#000000"/><path d="M436.98682,329.90889c0,0 1.34291,-4.45984 3.18398,-8.41947c1.40127,-3.01373 3.25335,-5.36595 4.36588,-6.79331c3.24548,-4.16393 10.51155,-4.10029 10.51155,-4.10029l0.01421,8.32851c0,0 -2.85522,0.04755 -4.44773,1.10032c-1.33624,0.88338 -3.24076,4.15088 -3.24076,4.15088l4.41213,-0.11398l-0.10726,8.13617l-7.41458,0.14763c0,0 -2.50688,7.41846 -5.98857,10.08952c-5.52171,4.23609 -9.9585,3.71197 -9.9585,3.71197l0.17108,-8.58883c0,0 3.34142,-0.06942 4.77034,-1.32496c1.4241,-1.25131 3.72821,-6.32414 3.72821,-6.32414z" fill="#ffffff"/></g><g fill-rule="nonzero" stroke="none" stroke-width="0" stroke-linecap="round" stroke-linejoin="miter"><path d="M573.45304,336.99129l0.86411,3.65807c0,0 -6.65661,-1.37898 -8.38424,-1.52809c-0.87761,-0.07574 -1.29382,0.69278 -1.29382,0.69278l0.25923,9.15958h-1.81463l0.43206,-9.41882c0,0 -0.31133,-0.75271 -1.91368,-0.40185c-1.69842,0.37191 -7.93718,1.66922 -7.93718,1.66922l1.38257,-3.74448l-10.1101,-8.38188l2.41951,-1.03693l-1.64181,-6.39443l6.04877,0.86411l1.29617,-2.76516c0,0 4.91042,5.53324 5.09826,4.6662c0.46285,-2.1365 -1.5554,-11.14704 -1.5554,-11.14704l3.80209,1.81463l3.71568,-7.20094l3.71567,6.91289l3.45645,-1.72823c0,0 -1.98884,9.12901 -1.29617,11.49268c0.28391,0.9688 5.18467,-4.92544 5.18467,-4.92544l1.46898,3.19722l5.78955,-1.29618l-1.81463,6.22161l2.41952,1.46899z" fill="#000000"/><path d="M574.33554,337.65316l0.86411,3.65807c0,0 -6.6566,-1.37898 -8.38423,-1.52809c-0.87761,-0.07574 -1.29382,0.69278 -1.29382,0.69278l0.25923,9.15958h-1.81463l0.43205,-9.41881c0,0 -0.31134,-0.7527 -1.91368,-0.40184c-1.69843,0.37191 -7.93719,1.66922 -7.93719,1.66922l1.38257,-3.74448l-10.1101,-8.38187l2.41952,-1.03693l-1.64181,-6.39443l6.04878,0.8641l1.29617,-2.76515c0,0 4.91044,5.53324 5.09826,4.6662c0.46285,-2.1365 -1.5554,-11.14705 -1.5554,-11.14705l3.80209,1.81463l3.71567,-7.20092l3.71568,6.91289l3.45645,-1.72822c0,0 -1.98884,9.12902 -1.29615,11.4927c0.28391,0.96879 5.18466,-4.92545 5.18466,-4.92545l1.469,3.19722l5.78954,-1.29617l-1.81464,6.22161l2.41951,1.46898z" fill="#d9db56"/></g><text transform="translate(294.63354,291.8882) scale(0.5,0.5)" font-size="40" xml:space="preserve" fill="#4b4b00" fill-rule="nonzero" stroke="none" stroke-width="1" stroke-linecap="butt" stroke-linejoin="miter" stroke-miterlimit="10" stroke-dasharray="" stroke-dashoffset="0" font-family="&quot;Allan-Regular&quot;, Sans Serif" font-weight="normal" text-anchor="start" style="mix-blend-mode: normal"><tspan x="0" dy="0">Mark</tspan></text><text transform="translate(34.54037,291.1118) scale(0.5,0.5)" font-size="40" xml:space="preserve" fill="#4b4b00" fill-rule="nonzero" stroke="none" stroke-width="1" stroke-linecap="butt" stroke-linejoin="miter" stroke-miterlimit="10" stroke-dasharray="" stroke-dashoffset="0" font-family="Sans Serif" font-weight="normal" text-anchor="start" style="mix-blend-mode: normal"><tspan x="0" dy="0">C.G. Guy</tspan></text><path d="M183.89728,306.10376h26.86966c5.25301,0 9.48195,4.22895 9.48195,9.48195v26.86966c0,5.253 -4.22894,9.48195 -9.48195,9.48195h-26.86966c-5.253,0 -9.48195,-4.22895 -9.48195,-9.48195v-26.86966c0,-5.253 4.22895,-9.48195 9.48195,-9.48195z" fill="url(#color-4)" fill-rule="evenodd" stroke="#000000" stroke-width="0.5" stroke-linecap="round" stroke-linejoin="round"/><path d="M190.26919,328.81868c-0.13396,-1.69295 0.07776,-3.98202 0.07776,-3.98202c0,0 0.79169,-0.00958 3.22988,-0.72986c1.87317,-0.55337 4.76958,-2.20224 4.76958,-2.20224c0,0 -0.5014,0.69755 -0.79105,1.03533c-0.30792,0.3591 -0.92686,1.05919 -0.92686,1.05919c0,0 1.81941,-0.3871 3.40641,-1.0978c1.98894,-0.82074 2.45881,-1.40509 3.00615,-1.06609c0.64598,0.4001 0.2391,5.38134 0.16678,6.67148c-0.09787,1.31598 -0.58804,2.20514 -0.73127,2.90635c-0.14323,0.70122 -0.09508,1.42448 -0.51212,3.72325c-0.26026,1.43459 -0.96608,2.07166 -2.32578,3.40318c-1.3597,1.33152 -2.10163,2.14781 -3.02081,2.16383c-0.88459,0.01541 -2.07421,-1.18389 -3.23479,-2.41005c-1.23582,-1.30566 -2.0601,-1.96777 -2.25523,-3.51435c-0.17574,-1.39285 -0.18026,-2.30004 -0.2606,-3.53955c-0.05872,-0.90593 -0.52489,-1.49607 -0.59805,-2.42063z" fill="#5a5a07" fill-rule="nonzero" stroke="none" stroke-width="0.5" stroke-linecap="butt" stroke-linejoin="miter"/><path d="M201.42754,325.30884c0,0 0.35383,0.07383 0.98789,0.25773c0.57914,0.16797 1.03282,0.40483 1.03282,0.40483l0.04529,0.27166c0,0 -1.68284,-0.72655 -3.50878,-0.57349c-1.45998,0.12239 -2.31273,0.65284 -2.31273,0.65284l0.01062,-0.96955c0,0 0.72597,-0.39559 1.82537,-0.43073c1.13841,-0.03637 1.87811,0.13725 1.87811,0.13725z" data-paper-data="{&quot;index&quot;:null}" fill="#5a5a07" fill-rule="nonzero" stroke="none" stroke-width="0.5" stroke-linecap="butt" stroke-linejoin="miter"/><path d="M198.46463,335.28741c0.1324,0.04918 0.71578,0.32484 1.3983,0.60257c0.68795,0.27994 1.67448,0.53225 1.66995,0.57114c-0.00575,0.04936 -2.4222,0.05268 -3.17536,0.14676c-0.63116,0.07884 -1.55262,0.1638 -1.55262,0.1638c0,0 -1.64904,-0.26967 -3.08087,-0.5676c-1.14757,-0.23879 -2.41396,-0.38559 -2.41643,-0.40729c-0.00334,-0.02928 0.89794,-0.16497 1.58407,-0.32374c0.26598,-0.11528 1.2627,-0.34473 1.2627,-0.34473c0,0 1.15039,-0.06446 1.76609,0.1344c0.65972,0.21307 0.65819,0.56768 0.71567,0.57314c0,0 0.27492,-0.40607 0.54987,-0.48854c0.27496,-0.08247 1.17971,-0.09665 1.27862,-0.05991z" fill="#5a5a07" fill-rule="nonzero" stroke="none" stroke-width="0.5" stroke-linecap="butt" stroke-linejoin="miter"/><path d="M194.13593,336.34443c1.18179,0.23833 2.76639,0.65167 2.76639,0.65167c0,0 1.34397,-0.36115 1.96073,-0.42581c0.47816,-0.05013 2.60354,-0.164 2.61382,-0.07748c0.01005,0.0846 -2.09639,2.99452 -4.90904,2.88932c-3.19628,-0.10115 -5.30749,-3.51339 -5.29871,-3.55264c0.00878,-0.03926 1.68504,0.27661 2.86682,0.51495z" fill="#5a5a07" fill-rule="nonzero" stroke="none" stroke-width="0.5" stroke-linecap="butt" stroke-linejoin="miter"/><path d="M196.68336,335.64951c-0.23996,0 -0.82129,-0.75684 -0.87899,-1.24507c-0.05164,-0.43683 0.30527,-0.88858 0.87899,-0.88858c0.57372,0 0.97543,0.11392 0.93547,0.97228c-0.03391,0.72846 -0.36175,1.16137 -0.93547,1.16137z" fill="#5a5a07" fill-rule="nonzero" stroke="none" stroke-width="0.5" stroke-linecap="butt" stroke-linejoin="miter"/><path d="M197.5195,328.66395c0,0 0.02382,0.92148 0.00134,1.65428c-0.0445,1.45106 -0.25104,6.44401 -0.25104,6.44401l-0.69212,0.00201c0,0 -0.18639,-0.9686 -0.26073,-2.20516c-0.10063,-1.67379 -0.10435,-3.7821 -0.17722,-4.55719c-0.06907,-0.73472 -0.20797,-1.3265 -0.20797,-1.3265" fill="#5a5a07" fill-rule="nonzero" stroke="none" stroke-width="0.5" stroke-linecap="round" stroke-linejoin="miter"/><path d="M190.66372,331.16856c0,0 -1.14488,-0.8164 -1.43088,-2.08334c-0.30092,-1.33306 -0.33918,-2.25925 0.11146,-2.31939c0.45064,-0.06015 0.62749,0.55175 0.86644,1.93959c0.23895,1.38784 0.45298,2.46316 0.45298,2.46316z" data-paper-data="{&quot;index&quot;:null}" fill="#5a5a07" fill-rule="nonzero" stroke="none" stroke-width="0.5" stroke-linecap="butt" stroke-linejoin="miter"/><path d="M190.61668,330.25222c0,0 -0.82726,-0.6786 -1.00236,-1.96161c-0.09768,-0.71571 0.50064,-0.52928 0.50064,-0.52928" fill="#5a5a07" fill-rule="nonzero" stroke="none" stroke-width="0.5" stroke-linecap="round" stroke-linejoin="miter"/><path d="M191.31618,328.7072c0.01647,-1.13554 1.12311,-2.07431 2.37033,-2.05623c1.24722,0.01808 2.09546,0.98617 2.07901,2.12171c-0.01647,1.13554 -0.95719,2.04141 -2.20441,2.02333c-1.24722,-0.01808 -2.2614,-0.95327 -2.24493,-2.08881z" fill="#5a5a07" fill-rule="nonzero" stroke="none" stroke-width="0.5" stroke-linecap="butt" stroke-linejoin="miter"/><path d="M192.34628,328.73459c0.00928,-0.64031 0.53588,-1.15185 1.17618,-1.14256c0.64031,0.00928 1.15185,0.53588 1.14256,1.17618c-0.00928,0.64031 -0.53587,1.15185 -1.17618,1.14256c-0.64031,-0.00928 -1.15185,-0.53588 -1.14256,-1.17618z" fill="#5a5a07" fill-rule="nonzero" stroke="none" stroke-width="0.5" stroke-linecap="butt" stroke-linejoin="miter"/><path d="M197.59667,328.70737c0.04725,-1.13468 1.03358,-2.05629 2.268,-2.05629c1.23442,0 2.15287,0.92064 2.15287,2.05629c0,1.13566 -0.90201,2.10563 -2.25155,2.12207c-1.28365,0.01564 -2.21865,-0.93708 -2.16931,-2.12207z" fill="#5a5a07" fill-rule="nonzero" stroke="none" stroke-width="0.5" stroke-linecap="butt" stroke-linejoin="miter"/><path d="M198.6651,328.72724c0,-0.65423 0.53036,-1.1846 1.1846,-1.1846c0.65423,0 1.1846,0.53036 1.1846,1.1846c0,0.65423 -0.53036,1.1846 -1.1846,1.1846c-0.65423,0 -1.1846,-0.53036 -1.1846,-1.1846z" fill="#5a5a07" fill-rule="nonzero" stroke="none" stroke-width="0.5" stroke-linecap="butt" stroke-linejoin="miter"/><path d="M191.3003,328.58367c0,0 0.01475,-2.09265 2.46081,-2.04849c2.19848,0.03851 2.2181,2.18368 2.2181,2.18368z" fill="#5a5a07" fill-rule="nonzero" stroke="none" stroke-width="0.5" stroke-linecap="butt" stroke-linejoin="miter"/><path d="M197.50901,328.61405c0,0 -0.0573,-2.19551 2.59939,-2.1131c2.25495,0.0774 2.21607,2.24056 2.21607,2.24056z" fill="#5a5a07" fill-rule="nonzero" stroke="none" stroke-width="0.5" stroke-linecap="butt" stroke-linejoin="miter"/><path d="M192.11968,326.25969c0,0 0.78218,-0.42224 1.86455,-0.52966c1.1994,-0.11905 1.80321,-0.01538 1.80321,-0.01538l0.0685,0.96042c0,0 -0.89033,-0.158 -1.86118,-0.12096c-1.29839,0.04952 -1.54245,0.33262 -2.52966,0.43899c-0.84589,0.09115 -1.5639,0.03687 -1.5639,0.03687l-0.00601,-0.28588c0,0 0.83453,0.01717 1.21489,-0.01587c0.31393,-0.02727 0.92286,-0.21776 0.92286,-0.21776z" fill="#5a5a07" fill-rule="nonzero" stroke="none" stroke-width="0.5" stroke-linecap="butt" stroke-linejoin="miter"/><path d="M203.2527,328.70539c0.23895,-1.38784 0.4158,-1.99974 0.86644,-1.93959c0.45064,0.06015 0.41237,0.98633 0.11146,2.31939c-0.286,1.26694 -1.43088,2.08334 -1.43088,2.08334c0,0 0.21403,-1.07533 0.45298,-2.46316z" data-paper-data="{&quot;index&quot;:null}" fill="#5a5a07" fill-rule="nonzero" stroke="none" stroke-width="0.5" stroke-linecap="butt" stroke-linejoin="miter"/><path d="M203.34848,327.76132c0,0 0.59832,-0.18643 0.50064,0.52928c-0.1751,1.28302 -1.00236,1.96161 -1.00236,1.96161" data-paper-data="{&quot;index&quot;:null}" fill="#5a5a07" fill-rule="nonzero" stroke="none" stroke-width="0.5" stroke-linecap="round" stroke-linejoin="miter"/><path d="M181.69213,333.92032c0,-7.73027 6.67595,-13.99687 14.91115,-13.99687c8.23521,0 14.91115,6.26662 14.91115,13.99687c0,7.73027 -6.67595,13.99687 -14.91115,13.99687c-8.23521,0 -14.91115,-6.26662 -14.91115,-13.99687z" fill="#ffffff" fill-rule="nonzero" stroke="#000000" stroke-width="0.5" stroke-linecap="butt" stroke-linejoin="miter"/><path d="M181.85997,333.85544c0,-0.16898 1.20861,12.98041 14.70768,13.21599c12.8978,0.2251 14.74322,-13.4525 14.74322,-13.21599c0,7.61488 -6.59281,13.78797 -14.72545,13.78797c-8.13264,0 -14.72545,-6.17309 -14.72545,-13.78797z" fill="#dedeaf" fill-rule="nonzero" stroke="none" stroke-width="0" stroke-linecap="butt" stroke-linejoin="miter"/><g fill-rule="nonzero" stroke="#000000" stroke-width="0.5" stroke-linecap="butt" stroke-linejoin="miter"><path d="M214.83787,324.71626c-0.1346,2.35995 -8.08133,3.82605 -17.74952,3.27461c-9.66818,-0.55143 -17.39668,-2.91158 -17.26208,-5.27152c0.1346,-2.35995 8.08133,-3.82605 17.74952,-3.27461c9.66818,0.55143 17.39668,2.91158 17.26208,5.27152z" fill="#e2e2e2"/><path d="M186.44707,323.01926l0.62493,-10.95676c0,0 2.64412,-2.23639 11.33701,-1.90519c8.78662,0.33475 10.44184,3.14737 10.44184,3.14737l-0.62493,10.95676c0,0 -2.38118,1.10614 -10.71535,0.43573c-7.44797,-0.59912 -11.0635,-1.67792 -11.0635,-1.67792z" fill="#ffffff"/></g><path d="M190.34417,335.00168c0,-0.64099 0.51964,-1.16064 1.16064,-1.16064c0.64099,0 1.16064,0.51964 1.16064,1.16064c0,0.64099 -0.51964,1.16064 -1.16064,1.16064c-0.64099,0 -1.16064,-0.51964 -1.16064,-1.16064z" fill="#000000" fill-rule="nonzero" stroke="none" stroke-width="0.5" stroke-linecap="butt" stroke-linejoin="miter"/><path d="M200.25778,335.00168c0,-0.64099 0.51964,-1.16064 1.16064,-1.16064c0.64099,0 1.16064,0.51964 1.16064,1.16064c0,0.64099 -0.51964,1.16064 -1.16064,1.16064c-0.64099,0 -1.16064,-0.51964 -1.16064,-1.16064z" fill="#000000" fill-rule="nonzero" stroke="none" stroke-width="0.5" stroke-linecap="butt" stroke-linejoin="miter"/><path d="M204.866,341.31982c0,0 -4.60821,2.83468 -8.07975,2.75455c-3.47154,-0.08012 -8.08255,-3.1276 -8.08255,-3.1276" fill="none" fill-rule="nonzero" stroke="#000000" stroke-width="0.5" stroke-linecap="round" stroke-linejoin="miter"/><path d="M306.52496,305.40414h27.41653c5.35992,0 9.67493,4.31502 9.67493,9.67493v27.41653c0,5.35991 -4.31501,9.67493 -9.67493,9.67493h-27.41653c-5.35991,0 -9.67493,-4.31502 -9.67493,-9.67493v-27.41653c0,-5.35991 4.31502,-9.67493 9.67493,-9.67493z" fill="url(#color-5)" fill-rule="evenodd" stroke="none" stroke-width="4.43922" stroke-linecap="round" stroke-linejoin="round"/><path d="M304.16674,345.73431l0.04771,-33.35896l32.78485,0.1646l-0.04771,33.35896z" fill="url(#color-6)" fill-rule="nonzero" stroke="#000000" stroke-width="0.5" stroke-linecap="butt" stroke-linejoin="miter"/><path d="M322.42621,339.02531l0.02031,-19.68163l12.81793,0.21155l-0.02031,19.68163z" fill="url(#color-7)" fill-rule="nonzero" stroke="none" stroke-width="0.5" stroke-linecap="butt" stroke-linejoin="miter"/><path d="M305.92152,339.09705l0.02031,-19.68163l12.81793,0.21155l-0.02031,19.68163z" fill="url(#color-8)" fill-rule="nonzero" stroke="none" stroke-width="0.5" stroke-linecap="butt" stroke-linejoin="miter"/><path d="M61.74401,306.10375h27.00638c5.27974,0 9.53019,4.25047 9.53019,9.53019v27.00638c0,5.27973 -4.25046,9.53019 -9.53019,9.53019h-27.00638c-5.27973,0 -9.53019,-4.25047 -9.53019,-9.53019v-27.00638c0,-5.27973 4.25047,-9.53019 9.53019,-9.53019z" fill="url(#color-9)" fill-rule="evenodd" stroke="none" stroke-width="4.43922" stroke-linecap="round" stroke-linejoin="round"/><path d="M87.11088,332.80716c0.63113,0.64498 1.31628,1.26084 1.97755,1.47473c0.00694,0.00225 -0.55034,-2.08968 -0.87892,-3.30626c-0.01534,0.53542 -0.12498,1.0426 -0.42008,1.47338c-0.13619,0.19882 -0.37219,0.31152 -0.67856,0.35815zM73.15485,323.40167c-0.11086,1.43887 0.3403,2.92927 0.93716,4.3623c0.44183,-0.01511 0.88453,-0.02594 1.32748,-0.03246c0.02317,-0.10865 0.06201,-0.22404 0.11989,-0.34624c0.5472,-1.15519 1.70239,-0.60799 1.70239,-0.60799c0.17632,0.08366 0.35323,0.16615 0.5307,0.24743c0.0077,-0.05311 0.01519,-0.10624 0.0225,-0.15941c-0.69385,-0.97136 -1.30242,-1.90658 -1.79513,-2.74816c-0.3729,-0.63694 -0.86032,-1.46389 -1.21016,-2.34454c-0.81135,0.25272 -1.55927,0.64849 -1.63482,1.62907zM75.31805,330.43834c0.10658,0.22895 0.2094,0.45403 0.30629,0.67465c0.14291,0.32543 0.28793,0.65113 0.43439,0.9772c0.351,-0.46071 0.63622,-1.03683 0.86958,-1.65049c-0.4493,-0.00119 -0.8996,-0.00125 -1.35138,-0.00138c-0.08644,-0.00003 -0.17272,-0.00003 -0.25886,0zM77.33163,334.89207c1.46292,3.22666 2.87552,6.51055 3.58932,9.92934l0.22789,-0.09384l0.70488,1.71186c0.06894,0.15709 0.10721,0.3307 0.10721,0.51324c0,0.70596 -0.57228,1.27824 -1.27824,1.27824c-0.37922,0 -0.71985,-0.16512 -0.95394,-0.4274l-0.91497,-1.01664c-2.94117,-3.2393 -6.62895,-5.49979 -10.02119,-8.12492c-1.75768,0.78149 -3.5241,1.51126 -5.32631,2.09149l0.1341,0.26819l-2.26359,1.13179c-0.17763,0.09353 -0.37996,0.14645 -0.59465,0.14645c-0.70596,0 -1.27824,-0.57228 -1.27824,-1.27824c0,-0.40808 0.19122,-0.77148 0.48895,-1.00552l1.48322,-1.18657c1.21744,-1.21836 2.27866,-2.56701 3.17588,-4.01867c-1.21178,-1.59822 -2.05919,-3.76551 -0.58103,-5.4303c0.46766,-0.52671 2.15983,-0.84381 3.31309,-1.02067c0.55344,-2.22473 0.68044,-4.22385 1.43339,-6.21446l-0.36043,-0.1109l0.40053,-1.30172c0.15163,-0.53668 0.645,-0.92997 1.23022,-0.92997c0.55849,0 1.03334,0.35819 1.20733,0.85737l0.20067,0.53512c0.69958,-0.90478 1.75001,-1.58818 2.94663,-2.0764c0.11368,-0.5587 0.39418,-1.08222 0.91242,-1.5322c0.50379,-0.43743 1.20722,-0.49926 1.89769,-0.58549c-0.40406,-0.9331 -0.63412,-1.99041 -0.01105,-2.71442c0.09002,-0.10459 0.18778,-0.19836 0.29226,-0.28221c-0.02104,-0.092 -0.03216,-0.1878 -0.03216,-0.28618c0,-0.70596 0.57228,-1.27824 1.27824,-1.27824c0.33593,0 0.6416,0.12959 0.86974,0.34151l0.63803,0.58895c0.97877,0.04753 1.94915,0.24417 2.62359,0.32197c3.27102,0.98751 7.7962,2.92707 9.07276,6.49869c0.30144,0.84335 0.9657,2.19895 0.20938,2.67863c-1.11031,0.70418 -2.66966,0.05125 -3.93154,-0.31799c-0.74419,-0.21775 -1.50382,-0.59439 -2.2632,-1.06944c1.09985,1.29997 2.05564,2.68187 2.89745,4.19308c0.7351,1.31964 0.98332,2.16171 1.50835,3.53923c0.91985,2.41341 2.54335,9.73388 -2.91952,7.00418c-1.36619,-0.68266 -2.79558,-1.76604 -4.18343,-3.0533c-1.12134,0.26856 -2.09599,0.45808 -2.39419,0.54108c-1.19788,0.33345 -2.37398,0.73732 -3.53554,1.18531zM83.3675,328.09232c0.40476,0.04438 0.87669,0.08637 1.35653,0.16678c-1.07103,-1.7064 -2.26333,-3.30789 -3.44425,-4.92514l-0.70799,0.67937c0,0 -0.0456,0.0373 -0.12522,0.08611c-0.00102,0.6017 -0.01014,1.21329 -0.0366,1.82654c0.58864,0.70956 1.20917,1.39057 1.84966,2.05563c0.37156,0.03359 0.74099,0.07049 1.10786,0.1107zM71.62574,332.32379c0.19021,0.5278 1.47966,0.55576 1.69898,0.63706c0.14611,0.05418 0.28752,0.09496 0.42436,0.12324c-0.38313,-0.87065 -0.76365,-1.7424 -1.13494,-2.61814c-0.41071,0.01084 -0.8207,0.02583 -1.23129,0.0466c0.00313,0.70397 0.07004,1.33161 0.24289,1.81124zM84.77027,317.06983c0.83359,0.63758 1.67974,1.25751 2.54529,1.84779c0.22398,0.15275 0.47215,0.28946 0.72758,0.42211c-0.18426,-0.23735 -0.38295,-0.46017 -0.61229,-0.6518c-0.83357,-0.69655 -1.722,-1.20563 -2.66058,-1.61808zM80.45608,330.8742c-0.25579,-0.09192 -0.51088,-0.186 -0.76519,-0.28221c-0.09466,0.29955 -0.20091,0.59357 -0.32011,0.88085c0.50619,-0.14355 1.01254,-0.28622 1.51959,-0.42666c-0.18472,-0.07596 -0.33267,-0.13545 -0.4343,-0.17198zM70.27966,334.65454c-0.38449,-0.34603 -0.72135,-0.77585 -0.99185,-1.29652c-0.07258,-0.1397 -0.10466,-1.25991 -0.11363,-2.195c-0.38919,1.08965 -0.84952,2.15076 -1.37743,3.17589c0.45031,0.40999 0.80992,0.70606 0.87762,0.75709c0.08385,0.0632 0.16775,0.1263 0.25171,0.18933c0.4484,-0.21648 0.89963,-0.42676 1.35357,-0.63079zM66.51941,330.95527c-0.23579,0.05005 -0.4642,0.12301 -0.68077,0.23301c-0.36601,0.18588 -0.2444,0.62398 0.10159,1.14273c0.20726,-0.45139 0.4004,-0.9102 0.57917,-1.37574zM76.32742,339.0461c-0.43717,-1.06753 -0.89277,-2.12716 -1.35493,-3.18398c-1.10033,0.47652 -2.19181,0.97722 -3.28092,1.47875c1.84466,1.37034 3.67364,2.75375 5.40949,4.25006c-0.26112,-0.93535 -0.48953,-1.85106 -0.77364,-2.54483zM80.84972,318.19994c0.24014,0.02354 0.47029,0.05434 0.68826,0.0921c0.18386,0.03187 0.35397,0.06817 0.51254,0.10889c-0.48194,-0.43058 -0.95103,-0.85765 -1.40237,-1.26233c0.0108,0.2453 0.01109,0.49946 0.00426,0.75691c0.06539,0.1017 0.13116,0.20319 0.19731,0.30441zM78.01657,320.95766c-0.2604,0.04701 -0.52535,0.10331 -0.79548,0.16674c0.24375,0.53934 0.59245,1.08241 0.8186,1.43592c-0.00128,-0.53319 -0.01037,-1.06768 -0.02311,-1.60265zM71.56061,327.89438c-0.00016,0.00129 -0.0003,0.0026 -0.00044,0.0039c0.00063,-0.00005 0.00128,-0.00009 0.00193,-0.00015c-0.0005,-0.00125 -0.001,-0.00251 -0.0015,-0.00376z" data-paper-data="{&quot;index&quot;:null}" fill="#000000" fill-rule="nonzero" stroke="none" stroke-width="0.5" stroke-linecap="butt" stroke-linejoin="miter"/><path d="M63.69468,328.13373c0.31002,-1.24008 1.5501,-0.93005 1.5501,-0.93005l0.50086,0.12529c-0.18839,-0.84634 -0.22167,-1.57261 0.05495,-1.9617c0.89858,-1.26395 3.41979,0.02354 4.29291,0.54979c0.72138,0.43478 1.41842,0.89085 2.1005,1.35904c0.05767,-0.61138 0.15446,-1.20011 0.25823,-1.72656c-0.28547,-1.72382 -0.24743,-3.52462 0.56394,-4.97869c0.4965,-0.8898 1.287,-1.63326 2.22993,-2.19623c2.23264,-3.66679 5.55725,-6.63747 9.67755,-7.66325c0.94134,0.01003 1.90112,-0.15569 2.82398,0.03006c4.48499,0.90269 4.34073,7.44446 4.33696,10.74872c-0.00345,3.01584 -0.28711,5.93516 -1.93343,8.55258c-0.09616,0.15288 -0.19689,0.30189 -0.30196,0.447c0.08947,0.3018 0.17309,0.60248 0.25049,0.90146c0.25923,1.00128 0.71047,3.49531 0.02561,4.41768c-1.58663,2.13689 -5.32989,1.57211 -7.47199,1.11534c-0.58008,-0.24092 -1.14813,-0.49448 -1.70597,-0.7598c0.86314,1.59882 1.16368,3.42367 0.5981,5.49098c-7.04926,3.21419 -11.6512,-3.64618 -14.01363,-9.46391c-0.16655,-0.41013 -0.49007,-1.13374 -0.82553,-1.96741c-0.28688,-0.0803 -0.57804,-0.15959 -0.87376,-0.23843l-1.20778,-0.30179c0,0 -1.24008,-0.31002 -0.93005,-1.5501zM82.90797,334.26451c0.16775,0.07488 0.33705,0.14811 0.50801,0.21961c0.87755,0.18936 3.88812,0.80024 4.5946,-0.11177c0.21515,-0.27772 0.05051,-1.06952 -0.20151,-1.87917c-1.43124,1.01009 -3.14993,1.61392 -4.90109,1.77134zM75.59542,327.58006c0.07316,0.11636 0.14429,0.22953 0.21403,0.33972c1.09749,-2.85763 2.2408,-5.68005 3.45634,-8.48405c-0.70898,-0.06148 -1.3193,0.07356 -1.83613,0.35413c-0.76855,1.30965 -1.39363,2.69987 -1.88119,4.06728c-0.09826,0.27558 -0.23914,0.70849 -0.38205,1.22521c0.01835,0.89011 0.16499,1.75886 0.429,2.49771zM88.69404,327.26401c0.00446,-0.01022 0.0089,-0.02045 0.01332,-0.03069c1.06865,-2.4785 0.8772,-5.2316 0.82108,-7.86159c-0.07153,-3.35267 -0.56513,-6.18263 -4.29242,-6.12303c-2.3966,0.60272 -4.37559,2.06002 -5.96262,3.92484c0.35524,-0.0165 0.70767,-0.00976 1.05258,0.02137l0.79493,-1.27189c0.22367,-0.37125 0.63067,-0.61955 1.09567,-0.61955c0.65102,0 1.18837,0.48668 1.26805,1.11607l0.30412,2.12884l-0.02521,0.0036c0.01419,0.07044 0.02677,0.1413 0.03757,0.21264c0.01841,0.12162 0.0316,0.24761 0.03983,0.3776c0.63504,0.71499 1.24525,1.48855 1.47478,1.82921c1.27236,1.88848 2.44815,4.06429 3.37833,6.29259zM83.42234,322.18435c-0.83972,3.06597 -2.72515,6.64312 -3.95096,8.43645c-0.11457,0.16762 -0.25331,0.33879 -0.41183,0.50855c2.64743,1.31125 5.70261,0.59597 7.7827,-1.29543c-0.7196,-2.03878 -1.87669,-5.37146 -3.4199,-7.64957zM79.61543,339.97889c-0.01499,-1.7559 -1.42125,-3.15601 -2.58379,-4.27762c-0.81806,-0.78926 -1.63771,-1.46248 -2.47312,-2.0463c-1.51012,0.19451 -2.96268,-0.53405 -4.29304,-1.55037c1.70434,3.95317 4.53381,8.63565 9.34995,7.87429z" data-paper-data="{&quot;index&quot;:null}" fill="#bd00e7" fill-rule="nonzero" stroke="none" stroke-width="0.5" stroke-linecap="butt" stroke-linejoin="miter"/></g></g></svg>