<svg version="1.1" xmlns="http://www.w3.org/2000/svg" xmlns:xlink="http://www.w3.org/1999/xlink" width="172.76569" height="283.93389" viewBox="0,0,172.76569,283.93389"><g transform="translate(-232.12866,-31.49494)"><g data-paper-data="{&quot;isPaintingLayer&quot;:true}" stroke-miterlimit="10" stroke-dasharray="" stroke-dashoffset="0" style="mix-blend-mode: normal"><path d="M290.72614,314.42882l13.62477,-131.8421l33.99545,-0.15789l12.2131,132z" fill="#ecec68" fill-rule="nonzero" stroke="#000000" stroke-width="2" stroke-linecap="butt" stroke-linejoin="miter"/><path d="M296.57572,267.16265l8.45591,-81.82486l32.57503,-0.15129l7.60398,82.1843c0,0 -14.59301,4.84164 -24.23451,4.80038c-9.6415,-0.04126 -24.40041,-5.00852 -24.40041,-5.00852z" fill="#c8c824" fill-rule="nonzero" stroke="#000000" stroke-width="0" stroke-linecap="butt" stroke-linejoin="miter"/><g fill-rule="nonzero" stroke="#000000" stroke-width="2" stroke-linecap="butt" stroke-linejoin="miter"><path d="M269.61438,118.13466l-22.29007,-66.35626l6.9516,-2.33513l22.29007,66.35626z" fill="#ffe9b3"/><path d="M234.05306,56.23641c-3.10692,-9.24913 1.87233,-19.26572 11.12146,-22.37265c9.24913,-3.10692 19.26572,1.87233 22.37265,11.12147c3.10692,9.24913 -1.87233,19.26572 -11.12147,22.37265c-9.24913,3.10692 -19.26571,-1.87233 -22.37264,-11.12147z" fill="#dccd27"/></g><g fill-rule="nonzero" stroke="#000000" stroke-width="2" stroke-linecap="butt" stroke-linejoin="miter"><path d="M359.6498,115.03025l23.11203,-66.07446l6.92208,2.42127l-23.11203,66.07446z" fill="#ffe9b3"/><path d="M369.54693,44.33339c3.22149,-9.20985 13.29911,-14.0644 22.50897,-10.84291c9.20985,3.22149 14.0644,13.29911 10.8429,22.50898c-3.22149,9.20985 -13.29913,14.06439 -22.50898,10.8429c-9.20985,-3.22149 -14.06439,-13.29911 -10.84289,-22.50897z" fill="#dccd27"/></g><path d="M295.43463,251.66804l7.58416,-69.08131l36.11546,-0.15789l6.82766,69.46209c0,0 -1.63411,6.69929 -25.4124,6.56159c-22.03251,-0.12759 -25.11488,-6.78449 -25.11488,-6.78449z" fill="#dccd27" fill-rule="nonzero" stroke="#000000" stroke-width="2" stroke-linecap="butt" stroke-linejoin="miter"/><path d="M296.92485,228.53569l5.27751,-45.94896l37.78325,-0.15789l4.67444,45.45686c0,0 -7.00642,7.16153 -24.11741,7.06682c-17.11099,-0.09472 -23.61779,-6.41683 -23.61779,-6.41683z" fill="#dccd27" fill-rule="nonzero" stroke="#000000" stroke-width="2" stroke-linecap="butt" stroke-linejoin="miter"/><path d="M300.00973,206.02198l3.12142,-26.32765l35.83075,-0.14203l2.76735,26.1059c0,0 -7.51543,4.19603 -21.55904,4.50964c-12.48458,0.27879 -20.16049,-4.14586 -20.16049,-4.14586z" fill="#b2a730" fill-rule="nonzero" stroke="#000000" stroke-width="0" stroke-linecap="butt" stroke-linejoin="miter"/><path d="M255.58542,129.18702c-0.3633,-33.29987 28.10037,-60.60849 63.57538,-60.99552c35.47501,-0.38703 64.52771,26.2941 64.89101,59.59396c0.3633,33.29987 -28.10038,60.6085 -63.57539,60.99553c-35.47501,0.38703 -64.52771,-26.2941 -64.89101,-59.59396z" fill="#b9b912" fill-rule="nonzero" stroke="#000000" stroke-width="2" stroke-linecap="butt" stroke-linejoin="miter"/><path d="M256.30903,129.23299c-0.00794,-0.72795 5.81639,55.85926 63.9778,56.23968c55.57079,0.36349 62.87758,-58.64259 62.88869,-57.62379c0.35787,32.80284 -27.75205,59.70464 -62.78525,60.08685c-35.03321,0.38221 -63.72337,-25.8999 -64.08124,-58.70274z" fill="#c8c824" fill-rule="nonzero" stroke="#000000" stroke-width="0" stroke-linecap="butt" stroke-linejoin="miter"/><path d="M301.75152,156.38228l40.32304,-1.42516c2.44297,-0.08634 4.47919,1.81087 4.56554,4.25383l0.6473,18.31441c0.08634,2.44296 -1.81087,4.4792 -4.25383,4.56554l-40.32303,1.42516c-2.44296,0.08634 -4.47921,-1.81086 -4.56555,-4.25383l-0.6473,-18.31441c-0.08634,-2.44296 1.81087,-4.4792 4.25384,-4.56554z" fill="#000000" fill-rule="evenodd" stroke="#000000" stroke-width="2" stroke-linecap="round" stroke-linejoin="round"/><path d="M266.2133,92.46953l106.25816,-1.15927c6.43766,-0.07023 11.67681,5.05588 11.74705,11.49351l0.52654,48.26162c0.07024,6.43764 -5.05588,11.67683 -11.4935,11.74706l-106.25815,1.15927c-6.43764,0.07024 -11.67684,-5.05588 -11.74708,-11.49351l-0.52653,-48.26161c-0.07024,-6.43763 5.05588,-11.67683 11.49352,-11.74707z" fill="#dccd27" fill-rule="evenodd" stroke="#000000" stroke-width="2" stroke-linecap="round" stroke-linejoin="round"/><path d="M274.20289,97.72009l90.39544,-0.98621c5.47661,-0.05975 9.93365,4.30111 9.9934,9.7777l0.44793,41.0569c0.05975,5.47659 -4.30111,9.93366 -9.7777,9.9934l-90.39542,0.98621c-5.47659,0.05975 -9.93368,-4.30112 -9.99342,-9.77771l-0.44793,-41.0569c-0.05975,-5.47659 4.30112,-9.93365 9.77772,-9.9934z" fill="#000000" fill-rule="evenodd" stroke="#000000" stroke-width="2" stroke-linecap="round" stroke-linejoin="round"/><path d="M337.74625,170.89619c0,0 -2.19391,8.65276 -15.52174,7.58796c-11.0666,-0.88414 -13.62398,-9.57696 -13.62398,-9.57696" fill="none" fill-rule="nonzero" stroke="#ecec68" stroke-width="2" stroke-linecap="round" stroke-linejoin="miter"/><g fill-rule="nonzero" stroke-linejoin="miter"><path d="M323.99423,119.50675l15.15706,-16.11693l-9.60673,19.41742z" fill="#d9db56" stroke="#000000" stroke-width="0.5" stroke-linecap="butt"/><path d="M322.08414,116.02842l2.86671,-4.18561l10.66657,7.3055l-2.8667,4.18562z" fill="#d9db56" stroke="#000000" stroke-width="1" stroke-linecap="butt"/><path d="M302.07527,139.46392l17.72447,-25.97869l16.62637,11.34365l-17.72447,25.97869z" fill="#d9db56" stroke="#000000" stroke-width="1" stroke-linecap="butt"/><path d="M308.7666,129.39909l4.35719,-5.86306c0,0 4.25147,5.17714 7.05779,7.04306c2.63082,1.74924 9.28771,3.82499 9.28771,3.82499l-4.35719,5.86306c0,0 -7.00718,-1.32665 -9.61261,-3.05897c-2.82526,-1.8785 -6.7329,-7.80906 -6.7329,-7.80906z" fill="#000000" stroke="none" stroke-width="0" stroke-linecap="butt"/><path d="M327.50105,114.68624l-1.68389,2.74879" fill="none" stroke="#000000" stroke-width="0.5" stroke-linecap="round"/><path d="M329.96179,119.79863l1.54309,-2.93249" fill="none" stroke="#000000" stroke-width="0.5" stroke-linecap="round"/></g></g></g></svg>