<svg version="1.1" xmlns="http://www.w3.org/2000/svg" xmlns:xlink="http://www.w3.org/1999/xlink" width="183.34483" height="287.58842" viewBox="0,0,183.34483,287.58842"><g transform="translate(-229.4933,-35.0401)"><g data-paper-data="{&quot;isPaintingLayer&quot;:true}" fill-rule="nonzero" stroke-linejoin="miter" stroke-miterlimit="10" stroke-dasharray="" stroke-dashoffset="0" style="mix-blend-mode: normal"><path d="M257.39219,146.45423l-11.56543,-108.98528l62.49542,54.509" fill="#d9d97d" stroke="#000000" stroke-width="2" stroke-linecap="round"/><path d="M332.66009,91.97795l62.49542,-54.509l-11.56544,108.98528" data-paper-data="{&quot;index&quot;:null}" fill="#d9d97d" stroke="#000000" stroke-width="2" stroke-linecap="round"/><path d="M283.66571,196.49734l-34,-2l16,-20.33333l-33,-6.66667l25.66667,-12" fill="#d9d97d" stroke="#000000" stroke-width="2" stroke-linecap="round"/><path d="M282.99903,195.66401l-31.37398,-1.84553l15.63923,-20.38787l-30.99288,-6.3601l4.51761,-2.36484l26.44339,8.75181l-12.48699,16.30706z" fill="#b6b14b" stroke="none" stroke-width="0" stroke-linecap="round"/><path d="M383.99904,155.49734l25.66667,12l-33,6.66667l16,20.33333l-34,2" data-paper-data="{&quot;index&quot;:null}" fill="#d9d97d" stroke="#000000" stroke-width="2" stroke-linecap="round"/><path d="M387.69169,189.76454l-12.48699,-16.30706l26.44338,-8.75181l4.51761,2.36484l-30.99288,6.3601l15.63923,20.38787l-31.37399,1.84553z" data-paper-data="{&quot;index&quot;:null}" fill="#b6b14b" stroke="none" stroke-width="0" stroke-linecap="round"/><path d="M286.35186,321.62851l15.14285,-131.8421l37.78325,-0.15789l13.57389,132z" fill="#d9d97d" stroke="#000000" stroke-width="2" stroke-linecap="butt"/><path d="M299.30211,218.24114l3.12142,-26.32765l35.83075,-0.14203l2.76735,26.1059c0,0 -7.51543,4.19603 -21.55904,4.50964c-12.48458,0.27879 -20.16049,-4.14586 -20.16049,-4.14586z" fill="#b6b14b" stroke="#000000" stroke-width="0" stroke-linecap="butt"/><path d="M256.53055,148.79712c0,-33.30185 28.7599,-60.29833 64.23702,-60.29833c35.47713,0 64.23702,26.99648 64.23702,60.29833c0,33.30185 -28.75989,60.29834 -64.23702,60.29834c-35.47712,0 -64.23702,-26.99649 -64.23702,-60.29834z" fill="#d9d97d" stroke="#000000" stroke-width="2" stroke-linecap="butt"/><path d="M320.69101,205.04856c22.75803,0.39718 39.31767,-10.24678 38.34372,-9.55603c-10.63726,7.54427 -23.89398,12.02007 -38.26716,12.02007c-14.23449,0 -27.37396,-4.38984 -37.9585,-11.80253c-0.40164,-0.28128 15.12391,8.94132 37.88194,9.33849z" fill="#b6b14b" stroke="#000000" stroke-width="0" stroke-linecap="butt"/><path d="M269.57484,151.40414c0,-12.96801 10.51265,-23.48065 23.48066,-23.48065c12.96801,0 23.48065,10.51264 23.48065,23.48065c0,12.96801 -9.34694,17.65218 -22.31495,17.65218c-12.96801,0 -24.64636,-4.68417 -24.64636,-17.65218z" fill="#ffffff" stroke="#000000" stroke-width="2" stroke-linecap="butt"/><path d="M279.30594,152.29421c0,-8.29964 6.72818,-15.02784 15.02783,-15.02784c8.29964,0 15.02784,6.72819 15.02784,15.02785c0,8.29964 -6.72819,15.02785 -15.02784,15.02785c-8.29964,0 -15.02783,-6.72819 -15.02783,-15.02785z" fill="none" stroke="#000000" stroke-width="5" stroke-linecap="butt"/><path d="M344.38416,182.95356c0,0 -14.04576,17.66325 -23.44298,17.73972c-9.39722,0.07647 -24.66662,-17.34823 -24.66662,-17.34823z" fill="#000000" stroke="#000000" stroke-width="2" stroke-linecap="round"/><path d="M270.15769,148.73941c0,-12.96801 10.51265,-23.48065 23.48066,-23.48065c12.96801,0 23.48065,10.51264 23.48065,23.48065c0,0 -7.7034,-17.89008 -23.92315,-17.77952c-15.92464,0.10855 -23.03816,18.38756 -23.03816,17.77952z" fill="#c5c556" stroke="#000000" stroke-width="2" stroke-linecap="butt"/><path d="M347.31394,169.63917c-12.96801,0 -23.48065,-5.26702 -23.48065,-18.23503c0,-12.96801 10.51264,-23.48065 23.48065,-23.48065c12.96801,0 23.48066,10.51264 23.48066,23.48065c0,12.96801 -10.51265,18.23503 -23.48066,18.23503z" data-paper-data="{&quot;index&quot;:null}" fill="#ffffff" stroke="#000000" stroke-width="2" stroke-linecap="butt"/><path d="M362.2292,151.71136c0,8.29966 -6.72818,15.02785 -15.02783,15.02785c-8.29964,0 -15.02784,-6.72821 -15.02784,-15.02785c0,-8.29966 6.7282,-15.02785 15.02784,-15.02785c8.29964,0 15.02783,6.7282 15.02783,15.02784z" data-paper-data="{&quot;index&quot;:null}" fill="none" stroke="#000000" stroke-width="5" stroke-linecap="butt"/><path d="M347.75644,130.71038c-16.21975,-0.11056 -23.3403,18.36238 -23.3403,18.36238c0,-12.96801 10.51264,-23.48065 23.48065,-23.48065c12.96801,0 23.48066,10.51264 23.48066,23.48065c0,0.60804 -7.69637,-18.25383 -23.62101,-18.36238z" data-paper-data="{&quot;index&quot;:null}" fill="#c5c556" stroke="#000000" stroke-width="2" stroke-linecap="butt"/><path d="M270.10646,148.77281l-3.6,-2.6" fill="none" stroke="#000000" stroke-width="2" stroke-linecap="round"/><path d="M375.10646,145.17281l-4.2,3.4" fill="none" stroke="#000000" stroke-width="2" stroke-linecap="round"/><path d="M282.79538,120.26428c0,0 6.70895,-5.16922 11.79721,-6.36355c5.08827,-1.19433 12.33413,0.69937 12.33413,0.69937c0,0 -8.03812,-0.06028 -11.96762,0.86207c-4.10648,0.96389 -12.16372,4.80211 -12.16372,4.80211z" fill="#000000" stroke="none" stroke-width="0" stroke-linecap="butt"/><path d="M346.72992,115.46218c-3.9295,-0.92235 -11.96762,-0.86207 -11.96762,-0.86207c0,0 7.24586,-1.8937 12.33413,-0.69937c5.08826,1.19433 11.79721,6.36355 11.79721,6.36355c0,0 -8.05724,-3.83822 -12.16372,-4.80211z" data-paper-data="{&quot;index&quot;:null}" fill="#000000" stroke="none" stroke-width="0" stroke-linecap="butt"/></g></g></svg>