<svg version="1.1" xmlns="http://www.w3.org/2000/svg" xmlns:xlink="http://www.w3.org/1999/xlink" width="164.61809" height="299.90553" viewBox="0,0,164.61809,299.90553"><defs><linearGradient x1="272.53902" y1="61.79159" x2="288.36705" y2="108.62872" gradientUnits="userSpaceOnUse" id="color-1"><stop offset="0" stop-color="#ecec68"/><stop offset="1" stop-color="#292912"/></linearGradient></defs><g transform="translate(-240.45762,-29.95264)"><g data-paper-data="{&quot;isPaintingLayer&quot;:true}" fill-rule="nonzero" stroke-linejoin="miter" stroke-miterlimit="10" stroke-dasharray="" stroke-dashoffset="0" style="mix-blend-mode: normal"><path d="M356.60431,245.42962c-12.91305,-1.28681 -9.03578,-122.48924 -9.03578,-122.48924l12.68359,-1.67219c0,0 8.88125,125.40999 -3.64781,124.16143z" data-paper-data="{&quot;index&quot;:null}" fill="#60602a" stroke="#000000" stroke-width="2" stroke-linecap="butt"/><path d="M366.00869,234.15518c-12.91305,-1.28681 -8.11542,-109.81653 -8.11542,-109.81653l12.68358,-1.67219c0,0 7.9609,112.73728 -4.56816,111.48874z" data-paper-data="{&quot;index&quot;:null}" fill="#60602a" stroke="#000000" stroke-width="2" stroke-linecap="butt"/><path d="M293.60033,101.18215l12.66156,1.83152c0,0 2.24008,139.24124 -10.68812,140.36562c-12.54377,1.09094 -1.97343,-142.19712 -1.97343,-142.19712z" fill="#60602a" stroke="#000000" stroke-width="2" stroke-linecap="butt"/><path d="M286.97691,234.09598c-12.85562,-1.77073 -3.86168,-105.72552 -3.86168,-105.72552l12.73742,-1.19481c0,0 3.59761,108.63841 -8.87574,106.92034z" data-paper-data="{&quot;index&quot;:null}" fill="#60602a" stroke="#000000" stroke-width="2" stroke-linecap="butt"/><path d="M289.5041,328.85816l15.14285,-131.8421l37.78325,-0.15789l13.57389,132z" fill="#bebe54" stroke="#000000" stroke-width="2" stroke-linecap="butt"/><path d="M271.35761,223.2473c-11.84416,-2.09115 1.41949,-97.76266 1.41949,-97.76266l12.77354,-0.71162c0,0 -1.79367,100.66344 -14.19302,98.47428z" data-paper-data="{&quot;index&quot;:null}" fill="#60602a" stroke="#000000" stroke-width="2" stroke-linecap="butt"/><path d="M379.74677,221.30006c-12.96964,-0.43738 -18.4941,-79.26941 -18.4941,-79.26941l12.54665,-2.50022c0,0 18.53142,82.194 5.94745,81.76963z" data-paper-data="{&quot;index&quot;:null}" fill="#60602a" stroke="#000000" stroke-width="2" stroke-linecap="butt"/><path d="M302.45432,225.47079l3.12142,-26.32765l35.83075,-0.14203l2.76735,26.1059c0,0 -7.51543,4.19603 -21.55904,4.50964c-12.48458,0.27879 -20.16049,-4.14586 -20.16049,-4.14586z" fill="#a0a047" stroke="#000000" stroke-width="0" stroke-linecap="butt"/><path d="M383.83078,198.86453c-6.94934,-2.02867 2.9712,-14.58072 -0.73903,-27.04363c-3.1827,-10.69088 3.26735,-15.30221 6.45062,-4.6115c2.97452,9.98972 2.13393,33.94541 -5.71159,31.65513z" data-paper-data="{&quot;index&quot;:null}" fill="#60602a" stroke="#000000" stroke-width="2" stroke-linecap="butt"/><path d="M261.4694,157.81792c0.20934,-33.30119 29.13837,-60.11635 64.61479,-59.89334c35.47642,0.22301 64.06605,27.39975 63.85671,60.70093c-0.20934,33.30119 -29.13837,60.11635 -64.61479,59.89334c-35.47642,-0.22301 -64.06605,-27.39975 -63.85671,-60.70093z" fill="#bebe54" stroke="#000000" stroke-width="2" stroke-linecap="butt"/><path d="M275.01666,158.33255c0.08152,-12.96774 10.66004,-23.4141 23.62779,-23.33259c12.96774,0.08152 23.4141,10.66004 23.33259,23.62779c-0.08152,12.96774 -10.66004,23.4141 -23.62779,23.33259c-12.96774,-0.08152 -23.4141,-10.66004 -23.33259,-23.62779z" fill="#ffffff" stroke="#000000" stroke-width="2" stroke-linecap="butt"/><path d="M281.66488,160.55212c0.05738,-9.1279 7.50351,-16.481 16.6314,-16.42362c9.1279,0.05738 16.481,7.50352 16.42362,16.63141c-0.05738,9.1279 -7.50352,16.481 -16.63141,16.42362c-9.1279,-0.05738 -16.48099,-7.50352 -16.42361,-16.63141z" fill="#000000" stroke="none" stroke-width="0" stroke-linecap="butt"/><path d="M352.85658,182.30298c-12.96774,-0.08152 -23.4141,-10.66004 -23.33259,-23.62779c0.08152,-12.96774 10.66004,-23.4141 23.62779,-23.33259c12.96774,0.08152 23.4141,10.66004 23.33259,23.62779c-0.08152,12.96774 -10.66004,23.4141 -23.62779,23.33259z" data-paper-data="{&quot;index&quot;:null}" fill="#ffffff" stroke="#000000" stroke-width="2" stroke-linecap="butt"/><path d="M352.72959,178.23703c-9.12789,-0.05738 -16.48099,-7.50352 -16.42361,-16.63141c0.05738,-9.1279 7.50352,-16.481 16.6314,-16.42362c9.12789,0.05738 16.48099,7.50352 16.42361,16.63141c-0.05738,9.1279 -7.50352,16.481 -16.6314,16.42362z" data-paper-data="{&quot;index&quot;:null}" fill="#000000" stroke="none" stroke-width="0" stroke-linecap="butt"/><path d="M274.93332,158.33202c0.08152,-12.96774 10.66004,-23.4141 23.62779,-23.33259c12.96774,0.08152 23.4141,10.66004 23.33259,23.62779c0,0 -46.96812,0.93633 -46.96038,-0.2952z" fill="#ecec68" stroke="#000000" stroke-width="2" stroke-linecap="butt"/><path d="M329.27402,158.67362c0.08152,-12.96774 10.66004,-23.4141 23.62779,-23.33259c12.96774,0.08152 23.4141,10.66004 23.33259,23.62779c-0.00763,1.21378 -46.96038,-0.2952 -46.96038,-0.2952z" data-paper-data="{&quot;index&quot;:null}" fill="#ecec68" stroke="#000000" stroke-width="2" stroke-linecap="butt"/><path d="M287.83517,129.60409c0,0 6.74131,-5.12695 11.83698,-6.28927c5.09568,-1.16232 12.32949,0.77689 12.32949,0.77689c0,0 -8.03758,-0.11081 -11.9728,0.78682c-4.11246,0.93806 -12.19367,4.72555 -12.19367,4.72555z" fill="#000000" stroke="none" stroke-width="0" stroke-linecap="butt"/><path d="M262.1921,157.87628c0.00458,-0.72798 4.85505,55.95101 63.00132,57.33145c55.55633,1.31896 63.87662,-57.55275 63.87022,-56.53392c-0.20621,32.80414 -28.77455,59.21862 -63.80915,58.99839c-35.0346,-0.22023 -63.2686,-26.99178 -63.06239,-59.79592z" fill="#a0a047" stroke="#000000" stroke-width="0" stroke-linecap="butt"/><path d="M351.79858,125.20399c-3.92362,-0.94703 -11.96196,-0.93728 -11.96196,-0.93728c0,0 7.25762,-1.84811 12.33828,-0.62182c5.08065,1.22629 11.75698,6.43758 11.75698,6.43758c0,0 -8.03295,-3.88879 -12.13329,-4.87848z" data-paper-data="{&quot;index&quot;:null}" fill="#000000" stroke="none" stroke-width="0" stroke-linecap="butt"/><path d="M258.10042,157.6622c8.95466,-6.65121 11.35515,0.9056 2.40084,7.55727c-10.4385,7.7542 -10.01796,23.74778 -16.79707,21.2076c-7.65333,-2.86775 6.02874,-22.5498 14.39623,-28.76487z" data-paper-data="{&quot;index&quot;:null}" fill="#60602a" stroke="#000000" stroke-width="2" stroke-linecap="butt"/><path d="M274.96729,158.0323l-3.58359,-2.62258" fill="none" stroke="#000000" stroke-width="2" stroke-linecap="round"/><path d="M270.63866,109.11214c17.36919,-16.89169 45.33067,-25.60626 50.49028,-16.2952c4.07773,7.35869 -20.68744,2.81545 -43.78985,27.80026c-19.67375,21.27678 -16.74191,52.29519 -29.74063,48.79657c-12.83664,-3.45499 11.31986,-48.90351 23.0402,-60.30164z" fill="#b1b14e" stroke="#000000" stroke-width="2" stroke-linecap="butt"/><path d="M272.23415,117.75076c15.19877,-18.86837 41.90101,-30.90072 48.14886,-22.28202c4.93778,6.8115 -20.19506,5.2968 -40.10615,32.89228c-16.95606,23.5 -10.29427,53.93614 -23.62071,52.03531c-13.16027,-1.87713 5.32222,-49.91359 15.57801,-62.64555z" fill="#ecec68" stroke="#000000" stroke-width="2" stroke-linecap="butt"/><path d="M340.10592,92.97356c-0.19407,2.91868 -7.23754,4.67069 -15.73204,3.91322c-8.4945,-0.75747 -15.22333,-3.73758 -15.02926,-6.65626c0.19407,-2.91868 7.23754,-4.67069 15.73204,-3.91322c8.4945,0.75747 15.22333,3.73758 15.02926,6.65626z" fill="#ecec68" stroke="#000000" stroke-width="2" stroke-linecap="butt"/><path d="M400.19784,174.76202c-13.10585,3.07312 -9.16462,-27.83328 -28.13446,-49.73996c-22.27584,-25.72448 -47.17592,-21.99081 -42.86052,-29.21269c5.46034,-9.13795 33.12294,0.4833 49.93237,17.93211c11.34262,11.77406 34.00504,57.98574 21.06262,61.02054z" data-paper-data="{&quot;index&quot;:null}" fill="#60602a" stroke="#000000" stroke-width="2" stroke-linecap="butt"/><path d="M379.98783,155.09241l-4.22129,3.37353" fill="none" stroke="#000000" stroke-width="2" stroke-linecap="round"/><path d="M309.51106,197.51529c0,0 6.5194,-2.54883 15.91662,-2.5c9.39722,0.04883 16.19298,2.25 16.19298,2.25" data-paper-data="{&quot;index&quot;:null}" fill="none" stroke="#000000" stroke-width="2" stroke-linecap="round"/><path d="M395.56328,184.77381c-13.39359,1.34871 -5.48022,-28.78627 -21.45103,-52.96664c-18.75415,-28.39443 -43.92812,-27.91923 -38.71318,-34.52093c6.59855,-8.35324 32.78096,4.77187 47.18731,24.25199c9.72108,13.14475 26.20347,61.9037 12.9769,63.23559z" data-paper-data="{&quot;index&quot;:null}" fill="#b1b14e" stroke="#000000" stroke-width="2" stroke-linecap="butt"/><path d="M275.69855,146.72779c6.95866,-8.71789 11.20978,-2.02493 4.25158,6.69332c-8.11154,10.16331 -3.61963,25.5189 -10.82271,24.79462c-8.13197,-0.81769 0.06876,-23.34168 6.57113,-31.48793z" data-paper-data="{&quot;index&quot;:null}" fill="#b1b14e" stroke="#000000" stroke-width="2" stroke-linecap="butt"/><path d="M266.18791,145.07953c10.80865,-14.38047 20.64093,-25.99966 26.1674,-33.94447c6.92558,-9.95614 14.35157,-24.80195 21.41325,-21.52947c7.37428,3.41734 -0.5181,20.63938 -7.67155,30.92311c-5.5032,7.91134 -21.47951,21.56914 -32.2381,35.88454c-13.48346,17.94113 -4.96273,44.20688 -17.42582,43.31916c-14.0703,-1.00221 -1.05384,-40.27239 9.75482,-54.65286z" fill="#ecec68" stroke="#000000" stroke-width="2" stroke-linecap="butt"/><g stroke="#000000" stroke-width="2" stroke-linecap="butt"><path d="M266.5717,167.19224c0.01365,-2.17214 1.42206,-2.74795 3.1549,-2.73705c1.73284,0.01089 3.13388,0.60436 3.12023,2.7765c-0.01365,2.17214 -1.43685,5.1004 -3.16968,5.08951c-1.73284,-0.01089 -3.1191,-2.95682 -3.10545,-5.12895z" fill="#ecec68"/><path d="M272.75315,182.1344c-0.01365,2.17214 -1.42206,2.74795 -3.15489,2.73705c-1.73284,-0.01089 -3.13389,-0.60436 -3.12024,-2.7765c0.01365,-2.17214 1.43685,-5.1004 3.16969,-5.08951c1.73284,0.01089 3.11909,2.95682 3.10544,5.12895z" fill="#ecec68"/><path d="M262.19135,177.75405c-2.17214,-0.01365 -2.74795,-1.42206 -2.73705,-3.1549c0.01089,-1.73284 0.60436,-3.13389 2.7765,-3.12024c2.17214,0.01365 5.1004,1.43685 5.08951,3.16969c-0.01089,1.73284 -2.95682,3.1191 -5.12895,3.10545z" fill="#ecec68"/><path d="M277.1335,171.5726c2.17214,0.01365 2.74795,1.42206 2.73705,3.1549c-0.01089,1.73284 -0.60436,3.13389 -2.7765,3.12024c-2.17214,-0.01365 -5.1004,-1.43685 -5.08951,-3.16969c0.01089,-1.73284 2.95682,-3.1191 5.12895,-3.10545z" fill="#ff80ee"/><path d="M262.19411,171.56595c-1.52628,-1.54559 -0.93754,-2.94864 0.29545,-4.16624c1.233,-1.21759 2.64335,-1.78865 4.16962,-0.24305c1.52628,1.54559 2.59052,4.62254 1.35752,5.84013c-1.233,1.21759 -4.29632,0.11476 -5.8226,-1.43083z" fill="#ecec68"/><path d="M277.13075,177.7607c1.52628,1.54559 0.93754,2.94864 -0.29545,4.16624c-1.233,1.21759 -2.64335,1.78865 -4.16962,0.24305c-1.52628,-1.54559 -2.59052,-4.62254 -1.35752,-5.84013c1.233,-1.21759 4.29632,-0.11476 5.8226,1.43083z" fill="#ff80ee"/><path d="M266.56505,182.13164c-1.54559,1.52628 -2.94864,0.93754 -4.16624,-0.29545c-1.21759,-1.233 -1.78865,-2.64335 -0.24305,-4.16962c1.54559,-1.52628 4.62254,-2.59052 5.84013,-1.35752c1.21759,1.233 0.11476,4.29632 -1.43083,5.8226z" fill="#ecec68"/><path d="M272.7598,167.19501c1.54559,-1.52628 2.94864,-0.93754 4.16624,0.29545c1.21759,1.233 1.78865,2.64335 0.24305,4.16962c-1.54559,1.52628 -4.62254,2.59052 -5.84013,1.35752c-1.21759,-1.233 -0.11476,-4.29632 1.43083,-5.8226z" fill="#ecec68"/><path d="M265.50902,174.54883c0.01442,-2.29417 1.8859,-4.14227 4.18007,-4.12785c2.29417,0.01442 4.14227,1.88591 4.12785,4.18007c-0.01442,2.29417 -1.88591,4.14227 -4.18007,4.12785c-2.29417,-0.01442 -4.14227,-1.8859 -4.12785,-4.18007z" fill="#b1b14e"/></g><path d="M345.11568,108.89472c0,0 21.48717,-11.03144 22.15775,-21.17407c0.38325,-5.7968 -8.20957,-15.44075 -8.69506,-25.6903c-0.63989,-13.50898 13.19358,-23.66206 13.19358,-23.66206c0,0 -3.41762,10.26633 -3.12257,22.80337c0.23513,9.99103 8.06421,13.64277 10.11619,26.74079c2.00962,12.82765 -11.38331,33.14085 -11.38331,33.14085c0,0 -4.02639,3.93135 -14.13847,-1.62389c-9.19569,-5.0518 -8.12811,-10.53467 -8.12811,-10.53467z" fill="#60602a" stroke="#000000" stroke-width="2" stroke-linecap="butt"/><path d="M278.34484,156.78242c7.29246,-16.4452 19.93055,-30.57114 23.52586,-39.55645c4.50551,-11.26006 8.39741,-27.39685 16.01466,-25.79876c7.95446,1.66883 4.14328,20.22586 -0.51048,31.85641c-3.58016,8.94746 -18.97103,22.06241 -26.22937,38.43295c-9.09668,20.51678 -0.55476,44.77986 -14.4974,42.63965c-10.95861,-1.68215 -5.59573,-31.1286 1.69673,-47.5738z" fill="#b1b14e" stroke="#000000" stroke-width="2" stroke-linecap="butt"/><path d="M330.11561,137.13057c-7.05956,-1.60362 2.08175,-14.73405 -2.37725,-26.94908c-3.82501,-10.47825 2.33361,-15.47216 6.15916,-4.9941c3.5747,9.79099 4.18803,33.75359 -3.78191,31.94318z" data-paper-data="{&quot;index&quot;:null}" fill="#b1b14e" stroke="#000000" stroke-width="2" stroke-linecap="butt"/><path d="M392.38575,156.39274c-12.52485,6.47781 -9.4231,-12.95646 -21.95943,-23.4958c-10.00286,-8.40945 -26.91148,-11.68796 -32.0192,-16.42397c-6.63938,-6.1562 -16.26689,-18.69903 -9.2105,-22.69646c6.75726,-3.82797 15.97767,7.0549 22.40557,13.015c5.12933,4.75604 19.68228,9.71 29.73173,18.15744c10.04944,8.44744 20.8961,26.35239 11.05184,31.4438z" data-paper-data="{&quot;index&quot;:null}" fill="#ecec68" stroke="#000000" stroke-width="2" stroke-linecap="butt"/><path d="M293.65326,140.57974c5.65702,-11.84687 16.85907,-22.37515 19.56271,-28.82652c3.38812,-8.08463 5.69124,-19.52901 13.42661,-18.83777c8.0778,0.72184 6.09043,13.84597 2.59084,22.1966c-2.69226,6.4242 -16.73194,16.40104 -22.36226,28.19407c-7.05634,14.77991 3.80391,31.19229 -10.2786,30.47327c-11.06854,-0.56513 -8.59633,-21.35277 -2.9393,-33.19964z" fill="#ecec68" stroke="#000000" stroke-width="2" stroke-linecap="butt"/><g data-paper-data="{&quot;index&quot;:null}" stroke="#1d1d0d" stroke-width="1.5" stroke-linecap="butt"><path d="M257.31085,67.82977l-6.05757,-18.09266l31.29947,-10.42916l6.05758,18.09267z" fill="#d0d05b"/><path d="M284.46454,110.24353l-10.36442,-29.99233l-14.77751,-13.9933l26.67449,-8.46472l-4.54272,20.12546l10.54308,30.80436z" fill="url(#color-1)"/><path d="M244.44612,54.08112l19.37564,-23.30241l29.87573,6.21439z" fill="#bfbf54"/><path d="M284.9696,58.78394l-23.98259,7.72263c0,0 2.48668,-10.53534 9.10931,-12.66788c6.62262,-2.13256 14.87329,4.94526 14.87329,4.94526z" fill="#ffff70"/></g><path d="M248.02675,149.69948c-0.29578,-36.35971 33.67545,-66.03563 75.87683,-66.28305c42.20138,-0.24742 76.65215,29.02741 76.94791,65.38711c0.01707,2.09875 -0.08003,4.17523 -0.2863,6.22507c-6.15812,-0.29095 -12.32974,-0.71453 -18.40389,-0.73608c-42.64524,-0.1513 -85.29092,-0.39039 -127.93362,-0.87327c-1.05208,-0.01191 -2.05398,-0.79599 -3.08628,-0.61039c-0.50332,0.0905 -1.60397,0.67796 -2.89646,1.45715c-0.13231,-1.50842 -0.2057,-3.03116 -0.21819,-4.56654z" fill="#bebe54" stroke="#000000" stroke-width="2" stroke-linecap="butt"/><path d="M248.79037,131.53338l8.1067,-16.94938l136.49102,1.85802l6.89929,16.04369z" fill="#b9b952" stroke="#000000" stroke-width="2" stroke-linecap="butt"/><path d="M303.86999,146.87991l0.27344,-43.49914l41.32418,0.25977l-0.27344,43.49914z" fill="#d7d75f" stroke="#000000" stroke-width="2" stroke-linecap="butt"/></g></g></svg>