<svg version="1.1" xmlns="http://www.w3.org/2000/svg" xmlns:xlink="http://www.w3.org/1999/xlink" width="167.78985" height="320.02153" viewBox="0,0,167.78985,320.02153"><g transform="translate(-255.90604,9.07284)"><g data-paper-data="{&quot;isPaintingLayer&quot;:true}" fill-rule="nonzero" stroke-linejoin="miter" stroke-miterlimit="10" stroke-dasharray="" stroke-dashoffset="0" style="mix-blend-mode: normal"><path d="M287.81614,309.94868l15.14285,-131.8421l37.78325,-0.15789l13.57389,132z" fill="#959541" stroke="#000000" stroke-width="2" stroke-linecap="butt"/><path d="M300.76636,206.56131l3.12142,-26.32765l35.83075,-0.14203l2.76735,26.1059c0,0 -7.51543,4.19603 -21.55904,4.50964c-12.48458,0.27879 -20.16049,-4.14586 -20.16049,-4.14586z" fill="#7d7d37" stroke="#000000" stroke-width="0" stroke-linecap="butt"/><path d="M256.90604,139.29484c0,-33.30185 28.7599,-60.29833 64.23702,-60.29833c35.47712,0 64.23702,26.99649 64.23702,60.29833c0,33.30185 -28.7599,60.29833 -64.23702,60.29833c-35.47712,0 -64.23702,-26.99649 -64.23702,-60.29833z" fill="#959541" stroke="#000000" stroke-width="2" stroke-linecap="butt"/><path d="M257.6291,139.34868c0,-0.72799 5.20666,55.91939 63.36046,56.93429c55.56352,0.9697 63.51358,-57.95314 63.51358,-56.93429c0,32.80479 -28.40173,59.39833 -63.43702,59.39833c-35.03529,0 -63.43702,-26.59354 -63.43702,-59.39833z" fill="#7d7d37" stroke="#000000" stroke-width="0" stroke-linecap="butt"/><path d="M270.45627,139.72431c0,-12.968 10.51265,-23.48065 23.48065,-23.48065c12.968,0 23.48065,10.51265 23.48065,23.48065c0,12.968 -10.51265,23.48065 -23.48065,23.48065c-12.968,0 -23.48065,-10.51265 -23.48065,-23.48065z" fill="#ffffff" stroke="#000000" stroke-width="2" stroke-linecap="butt"/><path d="M271.02164,141.69868c0,-9.12808 7.39976,-16.52784 16.52783,-16.52784c9.12808,0 16.52784,7.39977 16.52784,16.52784c0,9.12808 -7.39977,16.52784 -16.52784,16.52784c-9.12808,0 -16.52783,-7.39977 -16.52783,-16.52784z" fill="#000000" stroke="none" stroke-width="0" stroke-linecap="butt"/><path d="M308.57313,179.10511h25.10959" fill="none" stroke="#000000" stroke-width="2" stroke-linecap="round"/><path d="M348.19534,163.20495c-12.968,0 -23.48065,-10.51265 -23.48065,-23.48065c0,-12.968 10.51265,-23.48065 23.48065,-23.48065c12.968,0 23.48065,10.51265 23.48065,23.48065c0,12.968 -10.51265,23.48065 -23.48065,23.48065z" data-paper-data="{&quot;index&quot;:null}" fill="#ffffff" stroke="#000000" stroke-width="2" stroke-linecap="butt"/><path d="M354.58278,153.47652c-9.12807,0 -16.52783,-7.39977 -16.52783,-16.52784c0,-9.12808 7.39977,-16.52784 16.52783,-16.52784c9.12807,0 16.52783,7.39977 16.52783,16.52784c0,9.12808 -7.39977,16.52784 -16.52783,16.52784z" data-paper-data="{&quot;index&quot;:null}" fill="#000000" stroke="none" stroke-width="0" stroke-linecap="butt"/><path d="M283.09395,110.91584c0,0 6.70895,-5.16922 11.79721,-6.36355c5.08827,-1.19433 12.33413,0.69937 12.33413,0.69937c0,0 -8.03812,-0.06028 -11.96762,0.86207c-4.10648,0.96389 -12.16372,4.80211 -12.16372,4.80211z" fill="#000000" stroke="none" stroke-width="0" stroke-linecap="butt"/><path d="M347.02844,106.11374c-3.9295,-0.92235 -11.96762,-0.86207 -11.96762,-0.86207c0,0 7.24586,-1.8937 12.33413,-0.69937c5.08826,1.19433 11.79721,6.36355 11.79721,6.36355c0,0 -8.05724,-3.83822 -12.16372,-4.80211z" data-paper-data="{&quot;index&quot;:null}" fill="#000000" stroke="none" stroke-width="0" stroke-linecap="butt"/><path d="M315.80497,81.91103c0,-5.37706 5.3,-38.04221 5.3,-38.04221c0,0 5.3,32.66517 5.3,38.04221" fill="#804400" stroke="#000000" stroke-width="2" stroke-linecap="butt"/><g stroke="#000000"><path d="M415.8266,22.98262l-30.3937,102.83695c0,0 -24.51919,-1.22149 -53.83555,-15.17761c-28.52067,-13.57734 -41.70175,-26.09867 -41.70175,-26.09867l54.96044,-92.22305c0,0 15.96719,-1.46767 39.38468,9.1655c22.72661,10.31947 31.58589,21.49689 31.58589,21.49689z" fill="#333333" stroke-width="2" stroke-linecap="butt"/><path d="M415.8266,22.98262l-30.3937,102.83695c0,0 -24.51919,-1.22149 -53.83555,-15.17761c-28.52067,-13.57734 -41.70175,-26.09867 -41.70175,-26.09867l54.96044,-92.22305c0,0 22.06049,13.91889 33.7677,18.97692c11.94487,5.1607 37.20287,11.68546 37.20287,11.68546z" fill="#7d7d37" stroke-width="2" stroke-linecap="butt"/><path d="M384.90173,124.98376c0,0 14.14261,23.71286 -18.71488,25.03815c-37.64455,1.51838 -76.66231,-65.43546 -76.66231,-65.43546" fill="none" stroke-width="2" stroke-linecap="round"/><path d="M414.57392,23.66746l-29.6844,101.33188c0,0 -26.74658,-2.79185 -54.43766,-15.97425c-26.9395,-12.82462 -39.2617,-24.81449 -39.2617,-24.81449l7.22623,-12.12554c0,0 15.47114,32.63708 52.75758,29.88875c34.73023,-2.55992 63.39995,-78.30635 63.39995,-78.30635z" fill="#6c6c30" stroke-width="0" stroke-linecap="butt"/></g><g stroke-linecap="butt"><path d="M310.55635,78.87206l67.27779,-61.67261l3.14844,90.89946z" fill="#000000" stroke="#ffff70" stroke-width="1"/><path d="M373.67192,58.19984c-2.26303,2.95308 -7.71646,3.37298 -11.3162,5.3251c-3.57891,1.94082 -5.55582,7.09677 -6.68958,6.53632c-0.57454,-0.28401 -2.16213,-7.24423 1.84602,-11.37185c3.25641,-3.35346 9.86027,-3.40769 10.78298,-6.03089c0.35142,-0.99909 0.8393,-2.28154 -1.05787,-4.3923c-1.2943,-1.47185 -3.07758,-1.53392 -4.17044,-1.50239c-2.83828,0.0819 -5.53839,3.09294 -6.67997,5.08708c-1.01848,1.77911 -5.82731,-1.72711 -5.18124,-3.28391c3.23587,-7.79728 9.88584,-11.36444 16.89049,-8.45751c7.00464,2.90692 10.16277,12.10468 5.57581,18.09036z" fill="#ffff70" stroke="none" stroke-width="0"/><path d="M358.49995,81.67755c-1.43648,3.46141 -5.6433,5.00487 -9.39621,3.44742c-3.7529,-1.55745 -5.63073,-5.62605 -4.19425,-9.08745c1.43649,-3.46141 5.64331,-5.00488 9.39622,-3.44743c3.7529,1.55745 5.63073,5.62605 4.19424,9.08746z" fill="#ffff70" stroke="none" stroke-width="0"/></g></g></g></svg>