<svg version="1.1" xmlns="http://www.w3.org/2000/svg" xmlns:xlink="http://www.w3.org/1999/xlink" width="126.56147" height="437.7165" viewBox="0,0,126.56147,437.7165"><g transform="translate(-260.61208,75.43561)"><g data-paper-data="{&quot;isPaintingLayer&quot;:true}" fill-rule="nonzero" stroke-linejoin="miter" stroke-miterlimit="10" stroke-dasharray="" stroke-dashoffset="0" style="mix-blend-mode: normal"><path d="M344.13302,36.8378l10.96785,124.72308l-65.61233,-0.3371l14.73348,-117.02017l41.4407,-10.38629z" fill="#b5b54a" stroke="#b5b54a" stroke-width="2.5" stroke-linecap="round"/><path d="M373.99738,31.99226l-5.54866,0.18909l-96.36219,2.77866c0,0 -6.44587,-10.67143 -9.73712,-23.51906c-2.18931,-8.54616 -1.86838,-18.09324 -1.38575,-25.96441c0.50396,-8.21897 3.88208,-16.22011 12.99648,-26.82888c9.89425,-11.51646 28.13255,-22.62247 42.31251,-23.65485c12.19772,-0.88806 30.98125,3.66954 42.62781,12.37558c12.83717,9.59601 20.18512,23.6188 22.64098,30.99758c8.39347,25.21881 -7.54404,53.62633 -7.54404,53.62633z" fill="#fafab0" stroke="none" stroke-width="0" stroke-linecap="round"/><path d="M345.19724,236.36581l11.60849,124.66508h-65.61319l14.13207,-117.09433l41.38678,-10.59906z" fill="#e5e61c" stroke="#e5e61c" stroke-width="2.5" stroke-linecap="round"/><path d="M312.47457,127.81865l0.70218,-47.59208c0,0 10.266,-0.93457 14.77543,0.12479c4.77025,1.12063 7.84828,5.71207 7.84828,5.71207l0.86944,8.92865c0,0 -3.89549,10.90041 -9.3783,10.49948c-4.20077,-0.30717 -13.78183,-1.00779 -13.78183,-1.00779" fill="none" stroke="#29291b" stroke-width="2.5" stroke-linecap="round"/><path d="M327.09036,287.33592l-0.43867,39.91981" fill="none" stroke="#29291b" stroke-width="2.5" stroke-linecap="round"/><path d="M306.94164,292.7457l38.18971,-10.11864" fill="none" stroke="#29291b" stroke-width="2.5" stroke-linecap="round"/><path d="M374.37532,31.65991c0,0 -6.40161,9.88738 -18.51424,17.83467c-8.80383,5.77632 -21.93441,10.22352 -31.44133,10.58524c-9.34064,0.3554 -21.36148,-1.9712 -30.56832,-6.94035c-13.05649,-7.0469 -21.902,-17.58243 -21.902,-17.58243z" fill="#fafab0" stroke="none" stroke-width="0" stroke-linecap="round"/><path d="M310.4771,10.5551c0.24209,7.10394 -2.27172,12.95517 -5.61475,13.06909c-3.34303,0.11391 -6.24931,-5.55263 -6.4914,-12.65654c-0.24209,-7.10393 2.27172,-12.95515 5.61477,-13.06907c3.34303,-0.11391 6.24934,5.55261 6.4914,12.65655z" fill="#29291b" stroke="#29291b" stroke-width="2.5" stroke-linecap="butt"/><path d="M346.99443,12.52929c0.24209,7.10394 -2.27174,12.95514 -5.61478,13.06908c-3.34303,0.11391 -6.24931,-5.55261 -6.4914,-12.65654c-0.24209,-7.10393 2.27173,-12.95515 5.61477,-13.06907c3.34303,-0.11391 6.24931,5.55262 6.4914,12.65655z" fill="#29291b" stroke="#29291b" stroke-width="2.5" stroke-linecap="butt"/><path d="M283.52193,-70.96096l15.72375,4.16014l-0.28335,-8.31496l20.2301,4.86038l-0.29312,-2.33799l15.53962,5.02022l-0.56446,-4.03635l25.77566,17.26508l-43.19809,-2.3701l6.79824,5.31808l-22.48091,-2.00879l9.28151,9.28904l-24.35365,-6.85438l0.1235,3.62449l-14.70606,-11.87909l21.05639,-2.21168z" fill="#fcfc00" stroke="#fcfc00" stroke-width="0.5" stroke-linecap="round"/><path d="M377.12041,207.88595l-5.549,0.1792l-96.36699,2.60736c0,0 -6.42689,-10.68289 -9.6953,-23.53634c-2.17412,-8.55005 -1.8362,-18.09652 -1.33958,-25.96683c0.51856,-8.21805 3.9109,-16.21319 13.04416,-26.80573c9.9147,-11.49886 28.17273,-22.57244 42.35449,-23.57961c12.19929,-0.86638 30.97466,3.72462 42.60576,12.45133c12.82008,9.61882 20.14309,23.65466 22.58583,31.0378c8.34863,25.2337 -7.63935,53.61283 -7.63935,53.61283z" fill="#fafab0" stroke="none" stroke-width="0" stroke-linecap="round"/><path d="M375.27866,220.41993c0,0 -6.77291,9.63683 -19.17894,17.11784c-9.01708,5.43741 -22.30726,9.38216 -31.82106,9.38216c-9.34741,0 -21.2711,-2.78196 -30.28234,-8.09756c-12.77913,-7.53823 -21.21766,-18.40245 -21.21766,-18.40245z" fill="#fafab0" stroke="none" stroke-width="0" stroke-linecap="round"/><path d="M315.2455,154.04817c0.05083,7.10787 -2.61954,12.88935 -5.96442,12.91325c-3.34489,0.0239 -6.09765,-5.71878 -6.14847,-12.82664c-0.05083,-7.10787 2.61955,-12.88934 5.96444,-12.91324c3.34489,-0.0239 6.09764,5.71877 6.14845,12.82663z" fill="#29291b" stroke="#29291b" stroke-width="2.5" stroke-linecap="butt"/><path d="M345.27544,155.9429c0.05083,7.10787 -2.61953,12.88935 -5.96443,12.91325c-3.34489,0.0239 -6.09764,-5.71878 -6.14846,-12.82664c-0.05083,-7.10787 2.61953,-12.88934 5.96442,-12.91325c3.34489,-0.0239 6.09764,5.71877 6.14846,12.82665z" fill="#29291b" stroke="#29291b" stroke-width="2.5" stroke-linecap="butt"/><path d="M289.20121,106.84555l15.6061,4.58177l-0.05948,-8.31957l20.092,5.40303l-0.23011,-2.34502l15.3989,5.43658l-0.45563,-4.05008l25.30173,17.95244l-43.11866,-3.5317l6.65265,5.49911l-22.41872,-2.61303l9.0282,9.53546l-24.16039,-7.50729l0.02593,3.62651l-14.38108,-12.27053l21.10829,-1.64426z" fill="#29291b" stroke="none" stroke-width="0" stroke-linecap="round"/></g></g></svg>