<svg version="1.1" xmlns="http://www.w3.org/2000/svg" xmlns:xlink="http://www.w3.org/1999/xlink" width="186.75687" height="264.92777" viewBox="0,0,186.75687,264.92777"><defs><linearGradient x1="245.88795" y1="47.93642" x2="245.88795" y2="83.26975" gradientUnits="userSpaceOnUse" id="color-1"><stop offset="0" stop-color="#a0a047"/><stop offset="1" stop-color="#d9d95f"/></linearGradient><linearGradient x1="395.31149" y1="47.93642" x2="395.31149" y2="83.26975" gradientUnits="userSpaceOnUse" id="color-2"><stop offset="0" stop-color="#a0a047"/><stop offset="1" stop-color="#d9d95f"/></linearGradient><linearGradient x1="319.55946" y1="178.86419" x2="319.55946" y2="310.86419" gradientUnits="userSpaceOnUse" id="color-3"><stop offset="0" stop-color="#a0a047"/><stop offset="1" stop-color="#d9d95f"/></linearGradient><linearGradient x1="320.11944" y1="181.00713" x2="320.11944" y2="211.63531" gradientUnits="userSpaceOnUse" id="color-4"><stop offset="0" stop-color="#f5f3cd"/><stop offset="1" stop-color="#e7e77e"/></linearGradient><linearGradient x1="320.23609" y1="78.71258" x2="320.23609" y2="199.30924" gradientUnits="userSpaceOnUse" id="color-5"><stop offset="0" stop-color="#a0a047"/><stop offset="1" stop-color="#d9d95f"/></linearGradient><linearGradient x1="320.15915" y1="139.05167" x2="320.15915" y2="198.46308" gradientUnits="userSpaceOnUse" id="color-6"><stop offset="0" stop-color="#f5f3cd"/><stop offset="1" stop-color="#e7e77e"/></linearGradient><linearGradient x1="293.02994" y1="115.95973" x2="293.02994" y2="139.98773" gradientUnits="userSpaceOnUse" id="color-7"><stop offset="0" stop-color="#a0a047"/><stop offset="1" stop-color="#d9d95f"/></linearGradient><linearGradient x1="347.28838" y1="115.95973" x2="347.28838" y2="139.97984" gradientUnits="userSpaceOnUse" id="color-8"><stop offset="0" stop-color="#a0a047"/><stop offset="1" stop-color="#d9d95f"/></linearGradient><linearGradient x1="248.86146" y1="116.82794" x2="248.86146" y2="162.16126" gradientUnits="userSpaceOnUse" id="color-9"><stop offset="0" stop-color="#a0a047"/><stop offset="1" stop-color="#d9d95f"/></linearGradient><linearGradient x1="392.34336" y1="116.82794" x2="392.34336" y2="162.16126" gradientUnits="userSpaceOnUse" id="color-10"><stop offset="0" stop-color="#a0a047"/><stop offset="1" stop-color="#d9d95f"/></linearGradient><linearGradient x1="289.53914" y1="135.17123" x2="289.53914" y2="162.2303" gradientUnits="userSpaceOnUse" id="color-11"><stop offset="0" stop-color="#000000"/><stop offset="1" stop-color="#000000" stop-opacity="0"/></linearGradient><linearGradient x1="289.53914" y1="162.2303" x2="289.53914" y2="135.17123" gradientUnits="userSpaceOnUse" id="color-12"><stop offset="0" stop-color="#000000"/><stop offset="1" stop-color="#000000" stop-opacity="0"/></linearGradient><linearGradient x1="352.86658" y1="134.77037" x2="352.86658" y2="161.82942" gradientUnits="userSpaceOnUse" id="color-13"><stop offset="0" stop-color="#000000"/><stop offset="1" stop-color="#000000" stop-opacity="0"/></linearGradient><linearGradient x1="352.86658" y1="161.82942" x2="352.86658" y2="134.77035" gradientUnits="userSpaceOnUse" id="color-14"><stop offset="0" stop-color="#000000"/><stop offset="1" stop-color="#000000" stop-opacity="0"/></linearGradient></defs><g transform="translate(-227.22128,-46.93642)"><g data-paper-data="{&quot;isPaintingLayer&quot;:true}" fill-rule="nonzero" stroke-linejoin="miter" stroke-miterlimit="10" stroke-dasharray="" stroke-dashoffset="0" style="mix-blend-mode: normal"><g stroke="#000000" stroke-width="2" stroke-linecap="butt"><path d="M292.7927,117.69329l-49.49748,-49.49748l5.18545,-5.18544l49.49747,49.49748z" fill="#6e6e30"/><path d="M233.39573,78.09531c-6.89926,-6.89926 -6.89926,-18.08518 0,-24.98444c6.89926,-6.89926 18.08518,-6.89926 24.98444,0c6.89926,6.89926 6.89926,18.08518 0,24.98444c-6.89926,6.89926 -18.08518,6.89926 -24.98444,0z" fill="url(#color-1)"/></g><g data-paper-data="{&quot;index&quot;:null}" stroke="#000000" stroke-width="2" stroke-linecap="butt"><path d="M343.22129,112.50784l49.49748,-49.49747l5.18544,5.18544l-49.49747,49.49748z" fill="#6e6e30"/><path d="M382.81927,78.09531c-6.89926,-6.89926 -6.89926,-18.08518 0,-24.98444c6.89926,-6.89926 18.08518,-6.89926 24.98444,0c6.89926,6.89926 6.89926,18.08518 0,24.98444c-6.89926,6.89926 -18.08518,6.89926 -24.98444,0z" fill="url(#color-2)"/></g><path d="M286.30946,310.86418l15.14285,-131.8421l37.78325,-0.15789l13.57389,132z" fill="url(#color-3)" stroke="#000000" stroke-width="2" stroke-linecap="butt"/><path d="M299.25969,207.47681l3.12142,-26.32765l35.83075,-0.14203l2.76735,26.1059c0,0 -7.51543,4.19603 -21.55904,4.50964c-12.48458,0.27879 -20.16049,-4.14586 -20.16049,-4.14586z" fill="url(#color-4)" stroke="#000000" stroke-width="0" stroke-linecap="butt"/><path d="M255.99907,139.01091c0,-33.30185 28.7599,-60.29833 64.23702,-60.29833c35.47712,0 64.23702,26.99649 64.23702,60.29833c0,33.30185 -28.7599,60.29833 -64.23702,60.29833c-35.47712,0 -64.23702,-26.99649 -64.23702,-60.29833z" fill="url(#color-5)" stroke="#000000" stroke-width="2" stroke-linecap="butt"/><path d="M256.72212,139.06474c0,-0.72799 5.20666,55.91939 63.36046,56.93429c55.56352,0.9697 63.51358,-57.95314 63.51358,-56.93429c0,32.80479 -28.40173,59.39833 -63.43702,59.39833c-35.03529,0 -63.43702,-26.59354 -63.43702,-59.39833z" fill="url(#color-6)" stroke="#000000" stroke-width="0" stroke-linecap="butt"/><path d="M269.54929,139.44037c0,-12.968 10.51265,-23.48065 23.48065,-23.48065c12.968,0 23.48065,10.51265 23.48065,23.48065c0,12.968 -10.51265,23.48065 -23.48065,23.48065c-12.968,0 -23.48065,-10.51265 -23.48065,-23.48065z" fill="#ffffff" stroke="#000000" stroke-width="2" stroke-linecap="butt"/><path d="M276.61467,139.16475c0,-9.12808 7.39976,-16.52784 16.52783,-16.52784c9.12808,0 16.52784,7.39977 16.52784,16.52784c0,9.12808 -7.39977,16.52784 -16.52784,16.52784c-9.12808,0 -16.52783,-7.39977 -16.52783,-16.52784z" fill="#000000" stroke="none" stroke-width="0" stroke-linecap="butt"/><path d="M347.28836,162.92102c-12.968,0 -23.48065,-10.51265 -23.48065,-23.48065c0,-12.968 10.51265,-23.48065 23.48065,-23.48065c12.968,0 23.48065,10.51265 23.48065,23.48065c0,12.968 -10.51265,23.48065 -23.48065,23.48065z" data-paper-data="{&quot;index&quot;:null}" fill="#ffffff" stroke="#000000" stroke-width="2" stroke-linecap="butt"/><path d="M347.17581,155.69259c-9.12807,0 -16.52783,-7.39977 -16.52783,-16.52784c0,-9.12808 7.39977,-16.52784 16.52783,-16.52784c9.12807,0 16.52783,7.39977 16.52783,16.52784c0,9.12808 -7.39977,16.52784 -16.52783,16.52784z" data-paper-data="{&quot;index&quot;:null}" fill="#000000" stroke="none" stroke-width="0" stroke-linecap="butt"/><path d="M269.54929,139.44037c0,-12.968 10.51265,-23.48065 23.48065,-23.48065c12.968,0 23.48065,10.51265 23.48065,23.48065c0,0 -46.96131,1.23155 -46.96131,0z" fill="url(#color-7)" stroke="#000000" stroke-width="2" stroke-linecap="butt"/><path d="M323.80772,139.44037c0,-12.968 10.51265,-23.48065 23.48065,-23.48065c12.968,0 23.48065,10.51265 23.48065,23.48065c0,1.2138 -46.96131,0 -46.96131,0z" data-paper-data="{&quot;index&quot;:null}" fill="url(#color-8)" stroke="#000000" stroke-width="2" stroke-linecap="butt"/><path d="M254.77079,123.30942l-7.38022,3c0,0 -0.61983,-76.56595 73.48132,-76.66666c73.73495,-0.10021 72.51868,77.33333 72.51868,77.33333l-8.66374,-4c0,0 0.0045,-64.86172 -63.85494,-66.33334c-61.84366,-1.42516 -66.1011,66.66667 -66.1011,66.66667z" fill="#6e6e30" stroke="#000000" stroke-width="2" stroke-linecap="butt"/><path d="M238.30724,139.49461c0,-12.51846 9.08054,-22.66667 20.28196,-22.66667c1.01424,0 1.18635,45.33333 0,45.33333c-11.20142,0 -20.28196,-10.14821 -20.28196,-22.66666z" fill="url(#color-9)" stroke="#000000" stroke-width="2" stroke-linecap="butt"/><path d="M253.37787,163.49461v-48.33334h10.14098v48.33334z" fill="#6e6e30" stroke="#000000" stroke-width="2" stroke-linecap="butt"/><path d="M382.61561,162.16126c-1.18635,0 -1.01423,-45.33333 0,-45.33333c11.20142,0 20.28197,10.14821 20.28197,22.66667c0,12.51845 -9.08055,22.66666 -20.28197,22.66666z" data-paper-data="{&quot;index&quot;:null}" fill="url(#color-10)" stroke="#000000" stroke-width="2" stroke-linecap="butt"/><path d="M377.32346,163.49461v-48.33334h10.14098v48.33334z" fill="#6e6e30" stroke="#000000" stroke-width="2" stroke-linecap="butt"/><path d="M337.77484,86.10745l4.83333,21.33333l-23.83333,-11.5l1.33333,11.33334l-23,-18" fill="none" stroke="#000000" stroke-width="2" stroke-linecap="round"/><path d="M282.18695,110.63191c0,0 6.70895,-5.16922 11.79721,-6.36355c5.08827,-1.19433 12.33413,0.69937 12.33413,0.69937c0,0 -8.03812,-0.06028 -11.96762,0.86207c-4.10648,0.96389 -12.16372,4.80211 -12.16372,4.80211z" fill="#000000" stroke="none" stroke-width="0" stroke-linecap="butt"/><path d="M346.12146,105.82981c-3.9295,-0.92235 -11.96762,-0.86207 -11.96762,-0.86207c0,0 7.24586,-1.8937 12.33413,-0.69937c5.08826,1.19433 11.79721,6.36355 11.79721,6.36355c0,0 -8.05724,-3.83822 -12.16372,-4.80211z" data-paper-data="{&quot;index&quot;:null}" fill="#000000" stroke="none" stroke-width="0" stroke-linecap="butt"/><g stroke-linecap="butt"><g stroke="#000000" stroke-width="1"><path d="M264.22711,162.2303v-27.05908h48.3488l2.65445,27.25951z" fill="url(#color-11)"/><path d="M312.57594,135.17123l2.27524,27.05908c0,0 -17.49142,0.56882 -25.97564,0.56882c-8.3894,0 -24.6484,-0.56882 -24.6484,-0.56882v-27.05908z" data-paper-data="{&quot;index&quot;:null}" fill="url(#color-12)"/></g><g data-paper-data="{&quot;index&quot;:null}" stroke="#000000" stroke-width="1"><path d="M327.17538,162.02986l2.65445,-27.25951h48.3488l-5.68809,27.25951z" fill="url(#color-13)"/><path d="M378.93701,134.77035l-6.2569,27.45996c0,0 -14.68597,1.00546 -22.1733,0.93895c-7.55394,-0.06712 -22.95226,-1.33983 -22.95226,-1.33983c0,0 0.14739,-20.87972 0.17409,-24.65994c0.00797,-1.12877 0.01552,-2.19872 0.01552,-2.19872z" data-paper-data="{&quot;index&quot;:null}" fill="url(#color-14)"/></g><path d="M312.76552,140.3826v-6.01313h16.11626v6.01313c0,0 -5.48288,-2.80612 -8.15293,-2.80612c-2.70167,0 -7.96333,2.80612 -7.96333,2.80612z" fill="#000000" stroke="none" stroke-width="0"/></g><path d="M326.69363,177.00144c0,3.95246 -2.45984,7.15656 -5.49421,7.15656c-3.03437,0 -5.49421,-3.2041 -5.49421,-7.15656c0,-3.95246 2.45984,-7.15656 5.49421,-7.15656c3.03437,0 5.49421,3.2041 5.49421,7.15656z" fill="#000000" stroke="none" stroke-width="0" stroke-linecap="butt"/></g></g></svg>