<svg version="1.1" xmlns="http://www.w3.org/2000/svg" xmlns:xlink="http://www.w3.org/1999/xlink" width="151.57033" height="279.12064" viewBox="0,0,151.57033,279.12064"><g transform="translate(-246.20865,-35.14377)"><g data-paper-data="{&quot;isPaintingLayer&quot;:true}" fill-rule="nonzero" stroke="#c1bc17" stroke-width="0.5" stroke-linecap="butt" stroke-linejoin="miter" stroke-miterlimit="10" stroke-dasharray="" stroke-dashoffset="0" style="mix-blend-mode: normal"><path d="M286.75016,314.01439l15.14285,-131.8421l37.78325,-0.15789l13.57389,132z" fill="#000000"/><path d="M323.3986,210.32842l6.44025,29.70979l-8.6629,11.68257l-8.6629,-11.68257l6.2328,-29.68503z" fill="#ffffff"/><path d="M318.74584,210.3595l-6.2328,-6.71881l8.41989,-8.4199l8.41989,8.4199l-5.95423,6.68773z" fill="#ffffff"/><path d="M257.53496,133.25043c0.25199,-33.3009 29.21535,-60.07898 64.69146,-59.81053c35.47611,0.26845 64.0309,27.48179 63.77891,60.78268c-0.25199,33.3009 -29.21535,60.07898 -64.69145,59.81053c-35.47611,-0.26845 -64.0309,-27.48178 -63.77891,-60.78268z" fill="#000000"/><path d="M271.08144,133.78242c0.09813,-12.96763 10.69002,-23.40043 23.65765,-23.3023c12.96763,0.09813 23.40043,10.69002 23.3023,23.65765c-0.09813,12.96763 -10.69002,23.40043 -23.65765,23.3023c-12.96763,-0.09813 -23.40043,-10.69002 -23.3023,-23.65765z" fill="#ffffff"/><path d="M278.14869,133.56026c0.06907,-9.12782 7.52461,-16.47137 16.65242,-16.4023c9.12782,0.06907 16.47138,7.52462 16.4023,16.65243c-0.06907,9.12782 -7.52462,16.47137 -16.65243,16.4023c-9.12782,-0.06907 -16.47136,-7.52462 -16.40229,-16.65243z" fill="#000000"/><path d="M348.64063,157.85063c-12.96763,-0.09813 -23.40044,-10.69002 -23.30231,-23.65765c0.09813,-12.96763 10.69002,-23.40043 23.65765,-23.3023c12.96763,0.09813 23.40044,10.69003 23.3023,23.65766c-0.09813,12.96763 -10.69002,23.40043 -23.65765,23.3023z" data-paper-data="{&quot;index&quot;:null}" fill="#ffffff"/><path d="M348.58276,150.62155c-9.12781,-0.06907 -16.47137,-7.52462 -16.40229,-16.65243c0.06907,-9.12782 7.52463,-16.47137 16.65242,-16.4023c9.12781,0.06907 16.47136,7.52461 16.40229,16.65242c-0.06907,9.12782 -7.52462,16.47138 -16.65242,16.40231z" data-paper-data="{&quot;index&quot;:null}" fill="#000000"/><path d="M271.08144,133.78242c0.09813,-12.96763 10.69002,-23.40043 23.65765,-23.3023c12.96763,0.09813 23.40043,10.69002 23.3023,23.65765c0,0 -46.96448,0.24249 -46.95996,-0.35535z" fill="#000000"/><path d="M325.33833,134.19298c0.09813,-12.96763 10.69002,-23.40043 23.65765,-23.3023c12.96763,0.09813 23.40043,10.69002 23.3023,23.65765c-0.00478,0.63177 -46.95997,-0.35535 -46.95997,-0.35535z" data-paper-data="{&quot;index&quot;:null}" fill="#000000"/><g fill="#000000"><path d="M397.52899,94.55305c-0.07705,10.18285 -33.95774,18.1818 -75.67462,17.86612c-41.71688,-0.31568 -75.47263,-8.82644 -75.39558,-19.00929c0.07706,-10.18285 33.95774,-18.18179 75.67462,-17.86611c41.71688,0.31568 75.47263,8.82644 75.39558,19.00929z"/><path d="M275.01003,93.29173l0.35774,-47.27693c0,0 10.9011,-10.1851 48.37473,-10.60956c37.87763,-0.42909 45.59803,11.32066 45.59803,11.32066l-0.35775,47.27693c0,0 -10.01023,5.26604 -46.01252,4.15465c-32.17406,-0.99321 -47.96022,-4.86575 -47.96022,-4.86575z"/></g></g></g></svg>