<svg version="1.1" xmlns="http://www.w3.org/2000/svg" xmlns:xlink="http://www.w3.org/1999/xlink" width="130.47404" height="311.71775" viewBox="0,0,130.47404,311.71775"><g transform="translate(-257.67309,0.76906)"><g data-paper-data="{&quot;isPaintingLayer&quot;:true}" fill-rule="nonzero" stroke-linejoin="miter" stroke-miterlimit="10" stroke-dasharray="" stroke-dashoffset="0" style="mix-blend-mode: normal"><path d="M287.81614,309.94868l15.14285,-131.8421l37.78325,-0.15789l13.57389,132z" fill="#959541" stroke="#000000" stroke-width="2" stroke-linecap="butt"/><path d="M300.76636,206.56131l3.12142,-26.32765l35.83075,-0.14203l2.76735,26.1059c0,0 -7.51543,4.19603 -21.55904,4.50964c-12.48458,0.27879 -20.16049,-4.14586 -20.16049,-4.14586z" fill="#7d7d37" stroke="#000000" stroke-width="0" stroke-linecap="butt"/><path d="M258.6731,148.71913c0,-33.30185 28.7599,-60.29833 64.23702,-60.29833c35.47712,0 64.23702,26.99649 64.23702,60.29833c0,33.30185 -28.7599,60.29833 -64.23702,60.29833c-35.47712,0 -64.23702,-26.99649 -64.23702,-60.29833z" fill="#959541" stroke="#000000" stroke-width="2" stroke-linecap="butt"/><path d="M259.98518,148.77297c0,-0.72799 5.20666,55.91939 63.36046,56.93429c55.56352,0.9697 63.51358,-57.95314 63.51358,-56.93429c0,32.80479 -28.40173,59.39833 -63.43702,59.39833c-35.03529,0 -63.43702,-26.59354 -63.43702,-59.39833z" fill="#7d7d37" stroke="#000000" stroke-width="0" stroke-linecap="butt"/><path d="M273.40137,157.39486c0,-12.968 10.51265,-23.48065 23.48065,-23.48065c12.968,0 23.48065,10.51265 23.48065,23.48065c0,12.968 -10.51265,23.48065 -23.48065,23.48065c-12.968,0 -23.48065,-10.51265 -23.48065,-23.48065z" fill="#000000" stroke="#000000" stroke-width="2" stroke-linecap="butt"/><path d="M309.75117,189.11842h25.10959" fill="none" stroke="#000000" stroke-width="2" stroke-linecap="round"/><path d="M346.42829,182.05353c-12.968,0 -23.48065,-10.51265 -23.48065,-23.48065c0,-12.968 10.51265,-23.48065 23.48065,-23.48065c12.968,0 23.48065,10.51265 23.48065,23.48065c0,12.968 -10.51265,23.48065 -23.48065,23.48065z" data-paper-data="{&quot;index&quot;:null}" fill="#000000" stroke="#000000" stroke-width="2" stroke-linecap="butt"/><path d="M285.45003,120.34013c0,0 6.70895,-5.16922 11.79721,-6.36355c5.08827,-1.19433 12.33413,0.69937 12.33413,0.69937c0,0 -8.03812,-0.06028 -11.96762,0.86207c-4.10648,0.96389 -12.16372,4.80211 -12.16372,4.80211z" fill="#000000" stroke="none" stroke-width="0" stroke-linecap="butt"/><path d="M349.38452,115.53803c-3.9295,-0.92235 -11.96762,-0.86207 -11.96762,-0.86207c0,0 7.24586,-1.8937 12.33413,-0.69937c5.08826,1.19433 11.79721,6.36355 11.79721,6.36355c0,0 -8.05724,-3.83822 -12.16372,-4.80211z" data-paper-data="{&quot;index&quot;:null}" fill="#000000" stroke="none" stroke-width="0" stroke-linecap="butt"/><path d="M302.03028,96.18162c-1.35527,-5.20346 -4.4595,-38.14987 -4.4595,-38.14987c0,0 13.36202,30.27474 14.71728,35.47819" fill="#804400" stroke="#000000" stroke-width="2" stroke-linecap="butt"/><g stroke="#000000"><path d="M381.53142,13.61262l-1.18114,107.2279c0,0 -23.92212,5.51497 -55.93405,0.08744c-31.14308,-5.28023 -47.2405,-13.72995 -47.2405,-13.72995l27.71174,-103.71982c0,0 14.96088,-5.76867 40.3911,-1.92848c24.67997,3.7269 36.25287,12.06293 36.25287,12.06293z" fill="#333333" stroke-width="2" stroke-linecap="butt"/><path d="M381.53142,13.61262l-1.18114,107.2279c0,0 -23.92212,5.51497 -55.93405,0.08744c-31.14308,-5.28023 -47.2405,-13.72995 -47.2405,-13.72995l27.71174,-103.71982c0,0 25.02123,7.37149 37.66431,9.04326c12.89975,1.7057 38.97965,1.09118 38.97965,1.09118z" fill="#7d7d37" stroke-width="2" stroke-linecap="butt"/><path d="M379.61121,120.18134c0,0 20.07608,18.95426 -11.17305,29.19451c-35.80187,11.73217 -91.60765,-42.03509 -91.60765,-42.03509" fill="none" stroke-width="2" stroke-linecap="round"/><path d="M380.51312,14.61326l-0.90941,105.58639c0,0 -26.49346,4.61196 -56.73068,-0.51467c-29.41653,-4.98749 -44.54265,-13.16029 -44.54265,-13.16029l3.64356,-13.63714c0,0 23.78921,27.17736 58.91096,14.35962c32.71394,-11.93901 39.62822,-92.63392 39.62822,-92.63392z" fill="#6c6c30" stroke-width="0" stroke-linecap="butt"/></g><g stroke-linecap="butt"><path d="M294.8381,95.60562l47.89749,-77.68941l27.8311,86.59131z" fill="#000000" stroke="#ffff70" stroke-width="1"/><path d="M349.91835,58.49656c-1.3714,3.4585 -6.50335,5.35044 -9.43385,8.2107c-2.91356,2.84369 -3.40865,8.34341 -4.65231,8.11358c-0.63023,-0.11647 -4.05669,-6.37941 -1.32686,-11.44405c2.21784,-4.11473 8.55633,-5.96878 8.72829,-8.74422c0.06549,-1.05706 0.18493,-2.42398 -2.21618,-3.93699c-1.64679,-1.06284 -3.37933,-0.636 -4.42212,-0.30747c-2.70824,0.85323 -4.48433,4.48674 -5.03849,6.7167c-0.4944,1.98949 -6.07744,-0.07158 -5.88066,-1.74559c0.98558,-8.38433 6.40992,-13.6306 13.94195,-12.7452c7.53202,0.88539 13.07994,8.87245 10.30023,15.88256z" fill="#ffff70" stroke="none" stroke-width="0"/><path d="M341.72801,85.22314c-0.43752,3.72201 -4.06358,6.35476 -8.09905,5.88039c-4.03545,-0.47437 -6.95215,-3.87621 -6.51463,-7.59823c0.43752,-3.72202 4.06358,-6.35476 8.09905,-5.88039c4.03545,0.47437 6.95215,3.87621 6.51463,7.59823z" fill="#ffff70" stroke="none" stroke-width="0"/></g><path d="M297.73587,180.85921c-11.73052,0 -21.23998,-9.50947 -21.23998,-21.23999c0,-11.73053 9.50948,-21.23998 21.23998,-21.23998c11.73052,0 21.23997,9.50946 21.23997,21.23998c0,11.73053 -9.50947,21.23999 -21.23997,21.23999z" data-paper-data="{&quot;index&quot;:null}" fill="#000000" stroke="none" stroke-width="0" stroke-linecap="butt"/></g></g></svg>