<svg version="1.1" xmlns="http://www.w3.org/2000/svg" xmlns:xlink="http://www.w3.org/1999/xlink" width="195.58395" height="184.61045" viewBox="0,0,195.58395,184.61045"><g transform="translate(-224.30044,-18.89938)"><g data-paper-data="{&quot;isPaintingLayer&quot;:true}" fill-rule="nonzero" stroke="#000000" stroke-linejoin="miter" stroke-miterlimit="10" stroke-dasharray="" stroke-dashoffset="0" style="mix-blend-mode: normal"><path d="M225.30044,110.74494c0,0 43.44595,-26.0221 60.22624,-41.6181c15.27407,-14.19607 36.36245,-48.15366 36.36245,-48.15366c0,0 19.01638,39.46312 34.70473,54.33619c16.19423,15.35267 60.99115,36.38669 60.99115,36.38669c0,0 -39.30219,19.512 -55.04995,34.14833c-16.42033,15.26144 -41.53874,55.62342 -41.53874,55.62342c0,0 -20.09157,-39.97966 -35.83332,-54.90337c-16.1466,-15.30752 -59.86256,-35.81951 -59.86256,-35.81951z" fill="#d8d871" stroke-width="2" stroke-linecap="butt"/><path d="M253.12359,178.86709c0,0 12.32051,-49.12133 13.15794,-72.01482c0.76226,-20.83853 -8.33764,-59.76191 -8.33764,-59.76191c0,0 41.35125,14.45803 62.96143,13.88154c22.30702,-0.59507 68.85653,-17.39798 68.85653,-17.39798c0,0 -13.99378,41.58791 -14.77967,63.0727c-0.81946,22.40239 9.95939,68.70402 9.95939,68.70402c0,0 -42.47678,-14.063 -64.16052,-13.48456c-22.24142,0.59332 -67.65744,17.001 -67.65744,17.001z" fill="#d8d871" stroke-width="2" stroke-linecap="butt"/><path d="M256.70649,110.90029c0.16472,-33.30144 29.05781,-60.15534 64.53449,-59.97985c35.47668,0.17548 64.1027,27.3139 63.93797,60.61533c-0.16472,33.30144 -29.05781,60.15534 -64.53449,59.97985c-35.47668,-0.17548 -64.1027,-27.3139 -63.93797,-60.61533z" fill="#ecec68" stroke-width="2" stroke-linecap="butt"/><path d="M282.38058,104.01647c0.00567,-0.78115 20.58766,18.96706 41.62899,18.98596c20.20365,0.01815 40.90095,-19.72998 40.89353,-18.70798c-0.10581,14.567 -18.66488,26.31368 -41.45284,26.23692c-22.78796,-0.07676 -41.17549,-11.94788 -41.06968,-26.5149z" fill="#000000" stroke-width="2" stroke-linecap="butt"/><path d="M285.01612,93.278l23.26405,9.84248" fill="none" stroke-width="3.5" stroke-linecap="round"/><path d="M334.09538,103.83501l23.26405,-9.84249" data-paper-data="{&quot;index&quot;:null}" fill="none" stroke-width="3.5" stroke-linecap="round"/></g></g></svg>