<svg version="1.1" xmlns="http://www.w3.org/2000/svg" xmlns:xlink="http://www.w3.org/1999/xlink" width="175.01699" height="256.82833" viewBox="0,0,175.01699,256.82833"><g transform="translate(-232.49151,-50.81161)"><g data-paper-data="{&quot;isPaintingLayer&quot;:true}" fill-rule="nonzero" stroke-linejoin="miter" stroke-miterlimit="10" stroke-dasharray="" stroke-dashoffset="0" style="mix-blend-mode: normal"><path d="M358.03891,123.60204c-5.95755,-5.01481 -6.49029,-14.18469 -1.18992,-20.48147c5.30037,-6.29678 48.28681,-35.46917 48.28681,-35.46917c0,0 -21.41226,47.33263 -26.71263,53.62941c-5.30037,6.29679 -14.42672,7.33603 -20.38427,2.32122z" data-paper-data="{&quot;index&quot;:null}" fill="#989843" stroke="#000000" stroke-width="2" stroke-linecap="butt"/><path d="M261.57685,121.28081c-5.30037,-6.29678 -26.71263,-53.62941 -26.71263,-53.62941c0,0 42.98645,29.17238 48.28682,35.46917c5.30037,6.29679 4.76763,15.46666 -1.18992,20.48147c-5.95755,5.01481 -15.0839,3.97556 -20.38427,-2.32122z" fill="#989843" stroke="#000000" stroke-width="2" stroke-linecap="butt"/><path d="M286.45716,306.63993l15.14285,-131.8421l37.78325,-0.15789l13.57389,132z" fill="#c5c556" stroke="#000000" stroke-width="2" stroke-linecap="butt"/><path d="M299.4074,203.25256l3.12142,-26.32765l35.83075,-0.14203l2.76735,26.1059c0,0 -7.51543,4.19603 -21.55904,4.50964c-12.48458,0.27879 -20.16049,-4.14586 -20.16049,-4.14586z" fill="#acac4c" stroke="#000000" stroke-width="0" stroke-linecap="butt"/><path d="M255.54708,135.98609c0,-33.30185 28.7599,-60.29833 64.23702,-60.29833c35.47712,0 64.23702,26.99649 64.23702,60.29833c0,33.30185 -28.7599,60.29833 -64.23702,60.29833c-35.47712,0 -64.23702,-26.99649 -64.23702,-60.29833z" fill="#c5c556" stroke="#000000" stroke-width="2" stroke-linecap="butt"/><path d="M256.27014,136.03992c0,-0.72799 5.20666,55.91939 63.36046,56.93429c55.56352,0.9697 63.51358,-57.95314 63.51358,-56.93429c0,32.80479 -28.40173,59.39833 -63.43702,59.39833c-35.03529,0 -63.43702,-26.59354 -63.43702,-59.39833z" fill="#acac4c" stroke="#000000" stroke-width="0" stroke-linecap="butt"/><path d="M269.09729,136.41555c0,-12.968 10.51265,-23.48065 23.48065,-23.48065c12.968,0 23.48065,10.51265 23.48065,23.48065c0,12.968 -10.51265,23.48065 -23.48065,23.48065c-12.968,0 -23.48065,-10.51265 -23.48065,-23.48065z" fill="#ffffff" stroke="#000000" stroke-width="2" stroke-linecap="butt"/><path d="M275.57365,143.20813c0,-9.12808 7.39976,-16.52784 16.52783,-16.52784c9.12808,0 16.52784,7.39977 16.52784,16.52784c0,9.12808 -7.39977,16.52784 -16.52784,16.52784c-9.12808,0 -16.52783,-7.39977 -16.52783,-16.52784z" fill="#000000" stroke="none" stroke-width="0" stroke-linecap="butt"/><path d="M307.21416,175.79635c0,0 8.2676,-0.4 12.43184,-0.4c4.20523,0 12.67775,0.4 12.67775,0.4" fill="none" stroke="#000000" stroke-width="2" stroke-linecap="round"/><path d="M346.83637,159.89619c-12.968,0 -23.48065,-10.51265 -23.48065,-23.48065c0,-12.968 10.51265,-23.48065 23.48065,-23.48065c12.968,0 23.48065,10.51265 23.48065,23.48065c0,12.968 -10.51265,23.48065 -23.48065,23.48065z" data-paper-data="{&quot;index&quot;:null}" fill="#ffffff" stroke="#000000" stroke-width="2" stroke-linecap="butt"/><path d="M347.31283,159.73598c-9.12807,0 -16.52783,-7.39977 -16.52783,-16.52784c0,-9.12808 7.39977,-16.52784 16.52783,-16.52784c9.12807,0 16.52783,7.39977 16.52783,16.52784c0,9.12808 -7.39977,16.52784 -16.52783,16.52784z" data-paper-data="{&quot;index&quot;:null}" fill="#000000" stroke="none" stroke-width="0" stroke-linecap="butt"/><path d="M269.09729,136.41555c0,-12.968 10.51265,-23.48065 23.48065,-23.48065c12.968,0 23.48065,10.51265 23.48065,23.48065c0,0 -46.96131,1.23155 -46.96131,0z" fill="#c5c556" stroke="#000000" stroke-width="2" stroke-linecap="butt"/><path d="M323.35574,136.41555c0,-12.968 10.51265,-23.48065 23.48065,-23.48065c12.968,0 23.48065,10.51265 23.48065,23.48065c0,1.2138 -46.96131,0 -46.96131,0z" data-paper-data="{&quot;index&quot;:null}" fill="#c5c556" stroke="#000000" stroke-width="2" stroke-linecap="butt"/><path d="M284.84001,104.14326c0,0 11.96208,0.6193 18.52651,4.01739c6.56444,3.39808 12.60566,12.09816 12.60566,12.09816c0,0 -8.57892,-7.45951 -13.64843,-10.08373c-5.29783,-2.74241 -17.48375,-6.03183 -17.48375,-6.03183z" fill="#000000" stroke="none" stroke-width="0" stroke-linecap="butt"/><path d="M335.98258,109.13807c-4.85624,3.00054 -12.84573,11.08822 -12.84573,11.08822c0,0 5.36512,-9.13254 11.65342,-13.01792c6.28828,-3.88538 18.16914,-5.40866 18.16914,-5.40866c0,0 -11.90187,4.20267 -16.97683,7.33836z" data-paper-data="{&quot;index&quot;:null}" fill="#000000" stroke="none" stroke-width="0" stroke-linecap="butt"/><path d="M310.646,78.20227c0,-3.51131 9.1,-24.84221 9.1,-24.84221c0,0 9.1,21.33091 9.1,24.84221c0,3.51131 -4.07421,6.35779 -9.1,6.35779c-5.02579,0 -9.1,-2.84648 -9.1,-6.35779z" fill="#989843" stroke="#000000" stroke-width="2" stroke-linecap="butt"/><path d="M344.67333,84.40149c1.37321,-3.23165 18.0906,-19.30482 18.0906,-19.30482c0,0 0.03308,23.19088 -1.34013,26.42253c-1.37321,3.23165 -6.23614,4.25807 -10.86165,2.29257c-4.62552,-1.9655 -7.26202,-6.17862 -5.88882,-9.41027z" fill="#989843" stroke="#000000" stroke-width="2" stroke-linecap="butt"/><path d="M291.17827,93.47844c-4.62552,1.9655 -9.48845,0.93908 -10.86166,-2.29257c-1.37321,-3.23165 -1.34013,-26.42253 -1.34013,-26.42253c0,0 16.71739,16.07317 18.0906,19.30482c1.37321,3.23165 -1.2633,7.44477 -5.88881,9.41027z" data-paper-data="{&quot;index&quot;:null}" fill="#989843" stroke="#000000" stroke-width="2" stroke-linecap="butt"/></g></g></svg>